<?xml version="1.0" encoding="UTF-8" standalone="no"?>
<!DOCTYPE svg PUBLIC "-//W3C//DTD SVG 1.1//EN"
 "http://www.w3.org/Graphics/SVG/1.1/DTD/svg11.dtd">
<!-- Generated by graphviz version 2.47.0 (20210407.0042)
 -->
<!-- Title: include/engine/objects/Building.hpp Pages: 1 -->
<svg width="645pt" height="486pt"
 viewBox="0.00 0.00 645.00 486.00" xmlns="http://www.w3.org/2000/svg" xmlns:xlink="http://www.w3.org/1999/xlink">
<g id="graph0" class="graph" transform="scale(1 1) rotate(0) translate(4 482)">
<title>include/engine/objects/Building.hpp</title>
<polygon fill="white" stroke="transparent" points="-4,4 -4,-482 641,-482 641,4 -4,4"/>
<!-- Node1 -->
<g id="node1" class="node">
<title>Node1</title>
<g id="a_node1"><a xlink:title=" ">
<polygon fill="#bfbfbf" stroke="black" points="224,-447.5 224,-477.5 337,-477.5 337,-447.5 224,-447.5"/>
<text text-anchor="start" x="232" y="-465.5" font-family="Helvetica,sans-Serif" font-size="10.00">include/engine/objects</text>
<text text-anchor="middle" x="280.5" y="-454.5" font-family="Helvetica,sans-Serif" font-size="10.00">/Building.hpp</text>
</a>
</g>
</g>
<!-- Node2 -->
<g id="node2" class="node">
<title>Node2</title>
<g id="a_node2"><a xlink:href="_building_8cpp.html" target="_top" xlink:title=" ">
<polygon fill="white" stroke="black" points="171.5,-380.5 171.5,-410.5 267.5,-410.5 267.5,-380.5 171.5,-380.5"/>
<text text-anchor="start" x="179.5" y="-398.5" font-family="Helvetica,sans-Serif" font-size="10.00">src/engine/objects</text>
<text text-anchor="middle" x="219.5" y="-387.5" font-family="Helvetica,sans-Serif" font-size="10.00">/Building.cpp</text>
</a>
</g>
</g>
<!-- Node1&#45;&gt;Node2 -->
<g id="edge1" class="edge">
<title>Node1&#45;&gt;Node2</title>
<path fill="none" stroke="midnightblue" d="M260.35,-440.02C251.26,-430.34 240.78,-419.17 232.71,-410.58"/>
<polygon fill="midnightblue" stroke="midnightblue" points="257.87,-442.5 267.26,-447.4 262.97,-437.71 257.87,-442.5"/>
</g>
<!-- Node3 -->
<g id="node3" class="node">
<title>Node3</title>
<g id="a_node3"><a xlink:href="_cell_8hpp.html" target="_top" xlink:title=" ">
<polygon fill="white" stroke="black" points="286,-380.5 286,-410.5 399,-410.5 399,-380.5 286,-380.5"/>
<text text-anchor="start" x="294" y="-398.5" font-family="Helvetica,sans-Serif" font-size="10.00">include/engine/objects</text>
<text text-anchor="middle" x="342.5" y="-387.5" font-family="Helvetica,sans-Serif" font-size="10.00">/Cell.hpp</text>
</a>
</g>
</g>
<!-- Node1&#45;&gt;Node3 -->
<g id="edge2" class="edge">
<title>Node1&#45;&gt;Node3</title>
<path fill="none" stroke="midnightblue" d="M300.98,-440.02C310.22,-430.34 320.87,-419.17 329.07,-410.58"/>
<polygon fill="midnightblue" stroke="midnightblue" points="298.32,-437.74 293.95,-447.4 303.39,-442.58 298.32,-437.74"/>
</g>
<!-- Node4 -->
<g id="node4" class="node">
<title>Node4</title>
<g id="a_node4"><a xlink:href="_cell_8cpp.html" target="_top" xlink:title=" ">
<polygon fill="white" stroke="black" points="167.5,-313.5 167.5,-343.5 263.5,-343.5 263.5,-313.5 167.5,-313.5"/>
<text text-anchor="start" x="175.5" y="-331.5" font-family="Helvetica,sans-Serif" font-size="10.00">src/engine/objects</text>
<text text-anchor="middle" x="215.5" y="-320.5" font-family="Helvetica,sans-Serif" font-size="10.00">/Cell.cpp</text>
</a>
</g>
</g>
<!-- Node3&#45;&gt;Node4 -->
<g id="edge3" class="edge">
<title>Node3&#45;&gt;Node4</title>
<path fill="none" stroke="midnightblue" d="M305.8,-375.71C285.77,-365.46 261.38,-352.98 243,-343.58"/>
<polygon fill="midnightblue" stroke="midnightblue" points="304.45,-378.96 314.94,-380.4 307.64,-372.72 304.45,-378.96"/>
</g>
<!-- Node5 -->
<g id="node5" class="node">
<title>Node5</title>
<g id="a_node5"><a xlink:href="_field_8hpp.html" target="_top" xlink:title=" ">
<polygon fill="white" stroke="black" points="282,-319 282,-338 403,-338 403,-319 282,-319"/>
<text text-anchor="middle" x="342.5" y="-326" font-family="Helvetica,sans-Serif" font-size="10.00">include/engine/Field.hpp</text>
</a>
</g>
</g>
<!-- Node3&#45;&gt;Node5 -->
<g id="edge4" class="edge">
<title>Node3&#45;&gt;Node5</title>
<path fill="none" stroke="midnightblue" d="M342.5,-370.25C342.5,-359.02 342.5,-346.38 342.5,-338.19"/>
<polygon fill="midnightblue" stroke="midnightblue" points="339,-370.4 342.5,-380.4 346,-370.4 339,-370.4"/>
</g>
<!-- Node19 -->
<g id="node19" class="node">
<title>Node19</title>
<g id="a_node19"><a xlink:href="_sprites_manager_8hpp.html" target="_top" xlink:title=" ">
<polygon fill="white" stroke="black" points="421,-319 421,-338 558,-338 558,-319 421,-319"/>
<text text-anchor="middle" x="489.5" y="-326" font-family="Helvetica,sans-Serif" font-size="10.00">include/SpritesManager.hpp</text>
</a>
</g>
</g>
<!-- Node3&#45;&gt;Node19 -->
<g id="edge19" class="edge">
<title>Node3&#45;&gt;Node19</title>
<path fill="none" stroke="midnightblue" d="M383.67,-376.3C412.02,-363.76 448.38,-347.68 470.26,-338.01"/>
<polygon fill="midnightblue" stroke="midnightblue" points="382.13,-373.15 374.4,-380.4 384.96,-379.55 382.13,-373.15"/>
</g>
<!-- Node6 -->
<g id="node6" class="node">
<title>Node6</title>
<g id="a_node6"><a xlink:href="_field_8cpp.html" target="_top" xlink:title=" ">
<polygon fill="white" stroke="black" points="342.5,-257.5 342.5,-276.5 446.5,-276.5 446.5,-257.5 342.5,-257.5"/>
<text text-anchor="middle" x="394.5" y="-264.5" font-family="Helvetica,sans-Serif" font-size="10.00">src/engine/Field.cpp</text>
</a>
</g>
</g>
<!-- Node5&#45;&gt;Node6 -->
<g id="edge5" class="edge">
<title>Node5&#45;&gt;Node6</title>
<path fill="none" stroke="midnightblue" d="M356.77,-311.17C366.58,-299.95 379.19,-285.52 387.06,-276.51"/>
<polygon fill="midnightblue" stroke="midnightblue" points="353.9,-309.14 349.95,-318.98 359.17,-313.75 353.9,-309.14"/>
</g>
<!-- Node7 -->
<g id="node7" class="node">
<title>Node7</title>
<g id="a_node7"><a xlink:href="_world_actor_8hpp.html" target="_top" xlink:title=" ">
<polygon fill="white" stroke="black" points="161.5,-257.5 161.5,-276.5 309.5,-276.5 309.5,-257.5 161.5,-257.5"/>
<text text-anchor="middle" x="235.5" y="-264.5" font-family="Helvetica,sans-Serif" font-size="10.00">include/engine/WorldActor.hpp</text>
</a>
</g>
</g>
<!-- Node5&#45;&gt;Node7 -->
<g id="edge6" class="edge">
<title>Node5&#45;&gt;Node7</title>
<path fill="none" stroke="midnightblue" d="M318.32,-314.06C297.62,-302.54 268.43,-286.31 250.8,-276.51"/>
<polygon fill="midnightblue" stroke="midnightblue" points="316.73,-317.17 327.17,-318.98 320.13,-311.06 316.73,-317.17"/>
</g>
<!-- Node8 -->
<g id="node8" class="node">
<title>Node8</title>
<g id="a_node8"><a xlink:href="_world_actor_8cpp.html" target="_top" xlink:title=" ">
<polygon fill="white" stroke="black" points="0,-196 0,-215 131,-215 131,-196 0,-196"/>
<text text-anchor="middle" x="65.5" y="-203" font-family="Helvetica,sans-Serif" font-size="10.00">src/engine/WorldActor.cpp</text>
</a>
</g>
</g>
<!-- Node7&#45;&gt;Node8 -->
<g id="edge7" class="edge">
<title>Node7&#45;&gt;Node8</title>
<path fill="none" stroke="midnightblue" d="M201.45,-254.08C168.41,-242.52 119.08,-225.25 89.81,-215.01"/>
<polygon fill="midnightblue" stroke="midnightblue" points="200.55,-257.48 211.14,-257.48 202.86,-250.87 200.55,-257.48"/>
</g>
<!-- Node9 -->
<g id="node9" class="node">
<title>Node9</title>
<g id="a_node9"><a xlink:href="_player_8hpp.html" target="_top" xlink:title=" ">
<polygon fill="white" stroke="black" points="149,-190.5 149,-220.5 262,-220.5 262,-190.5 149,-190.5"/>
<text text-anchor="start" x="157" y="-208.5" font-family="Helvetica,sans-Serif" font-size="10.00">include/engine/objects</text>
<text text-anchor="middle" x="205.5" y="-197.5" font-family="Helvetica,sans-Serif" font-size="10.00">/Player.hpp</text>
</a>
</g>
</g>
<!-- Node7&#45;&gt;Node9 -->
<g id="edge8" class="edge">
<title>Node7&#45;&gt;Node9</title>
<path fill="none" stroke="midnightblue" d="M226.62,-248.39C222.14,-239.5 216.77,-228.86 212.57,-220.52"/>
<polygon fill="midnightblue" stroke="midnightblue" points="223.57,-250.12 231.2,-257.48 229.82,-246.97 223.57,-250.12"/>
</g>
<!-- Node15 -->
<g id="node15" class="node">
<title>Node15</title>
<g id="a_node15"><a xlink:href="_unit_8hpp.html" target="_top" xlink:title=" ">
<polygon fill="white" stroke="black" points="280,-190.5 280,-220.5 393,-220.5 393,-190.5 280,-190.5"/>
<text text-anchor="start" x="288" y="-208.5" font-family="Helvetica,sans-Serif" font-size="10.00">include/engine/objects</text>
<text text-anchor="middle" x="336.5" y="-197.5" font-family="Helvetica,sans-Serif" font-size="10.00">/Unit.hpp</text>
</a>
</g>
</g>
<!-- Node7&#45;&gt;Node15 -->
<g id="edge14" class="edge">
<title>Node7&#45;&gt;Node15</title>
<path fill="none" stroke="midnightblue" d="M258.8,-252.28C274.96,-242.75 296.42,-230.11 312.7,-220.52"/>
<polygon fill="midnightblue" stroke="midnightblue" points="256.81,-249.38 249.97,-257.48 260.36,-255.41 256.81,-249.38"/>
</g>
<!-- Node10 -->
<g id="node10" class="node">
<title>Node10</title>
<g id="a_node10"><a xlink:href="_player_8cpp.html" target="_top" xlink:title=" ">
<polygon fill="white" stroke="black" points="81.5,-123.5 81.5,-153.5 177.5,-153.5 177.5,-123.5 81.5,-123.5"/>
<text text-anchor="start" x="89.5" y="-141.5" font-family="Helvetica,sans-Serif" font-size="10.00">src/engine/objects</text>
<text text-anchor="middle" x="129.5" y="-130.5" font-family="Helvetica,sans-Serif" font-size="10.00">/Player.cpp</text>
</a>
</g>
</g>
<!-- Node9&#45;&gt;Node10 -->
<g id="edge9" class="edge">
<title>Node9&#45;&gt;Node10</title>
<path fill="none" stroke="midnightblue" d="M181.39,-183.88C169.84,-174.01 156.31,-162.43 145.96,-153.58"/>
<polygon fill="midnightblue" stroke="midnightblue" points="179.13,-186.56 189.01,-190.4 183.68,-181.24 179.13,-186.56"/>
</g>
<!-- Node11 -->
<g id="node11" class="node">
<title>Node11</title>
<g id="a_node11"><a xlink:href="_engine_8hpp.html" target="_top" xlink:title=" ">
<polygon fill="white" stroke="black" points="244.5,-62 244.5,-81 342.5,-81 342.5,-62 244.5,-62"/>
<text text-anchor="middle" x="293.5" y="-69" font-family="Helvetica,sans-Serif" font-size="10.00">include/Engine.hpp</text>
</a>
</g>
</g>
<!-- Node9&#45;&gt;Node11 -->
<g id="edge10" class="edge">
<title>Node9&#45;&gt;Node11</title>
<path fill="none" stroke="midnightblue" d="M206.75,-180.02C208.64,-162.84 213.26,-140 224.5,-123 237.11,-103.93 259.51,-89.53 275.37,-81.08"/>
<polygon fill="midnightblue" stroke="midnightblue" points="203.23,-180.1 205.86,-190.37 210.2,-180.7 203.23,-180.1"/>
</g>
<!-- Node12 -->
<g id="node12" class="node">
<title>Node12</title>
<g id="a_node12"><a xlink:href="_drawable_8cpp.html" target="_top" xlink:title=" ">
<polygon fill="white" stroke="black" points="137,-0.5 137,-19.5 260,-19.5 260,-0.5 137,-0.5"/>
<text text-anchor="middle" x="198.5" y="-7.5" font-family="Helvetica,sans-Serif" font-size="10.00">src/engine/Drawable.cpp</text>
</a>
</g>
</g>
<!-- Node11&#45;&gt;Node12 -->
<g id="edge11" class="edge">
<title>Node11&#45;&gt;Node12</title>
<path fill="none" stroke="midnightblue" d="M271.29,-56.59C252.95,-45.1 227.52,-29.18 212.09,-19.51"/>
<polygon fill="midnightblue" stroke="midnightblue" points="269.56,-59.63 279.89,-61.98 273.27,-53.7 269.56,-59.63"/>
</g>
<!-- Node13 -->
<g id="node13" class="node">
<title>Node13</title>
<g id="a_node13"><a xlink:href="_engine_8cpp.html" target="_top" xlink:title=" ">
<polygon fill="white" stroke="black" points="278.5,-0.5 278.5,-19.5 358.5,-19.5 358.5,-0.5 278.5,-0.5"/>
<text text-anchor="middle" x="318.5" y="-7.5" font-family="Helvetica,sans-Serif" font-size="10.00">src/Engine.cpp</text>
</a>
</g>
</g>
<!-- Node11&#45;&gt;Node13 -->
<g id="edge12" class="edge">
<title>Node11&#45;&gt;Node13</title>
<path fill="none" stroke="midnightblue" d="M301.06,-52.5C305.66,-41.55 311.33,-28.07 314.92,-19.51"/>
<polygon fill="midnightblue" stroke="midnightblue" points="297.73,-51.4 297.08,-61.98 304.18,-54.11 297.73,-51.4"/>
</g>
<!-- Node14 -->
<g id="node14" class="node">
<title>Node14</title>
<g id="a_node14"><a xlink:href="main_8cpp.html" target="_top" xlink:title=" ">
<polygon fill="white" stroke="black" points="429.5,-0.5 429.5,-19.5 501.5,-19.5 501.5,-0.5 429.5,-0.5"/>
<text text-anchor="middle" x="465.5" y="-7.5" font-family="Helvetica,sans-Serif" font-size="10.00">src/main.cpp</text>
</a>
</g>
</g>
<!-- Node11&#45;&gt;Node14 -->
<g id="edge13" class="edge">
<title>Node11&#45;&gt;Node14</title>
<path fill="none" stroke="midnightblue" d="M327.95,-58.58C361.38,-47.02 411.29,-29.75 440.9,-19.51"/>
<polygon fill="midnightblue" stroke="midnightblue" points="326.45,-55.4 318.14,-61.98 328.74,-62.01 326.45,-55.4"/>
</g>
<!-- Node16 -->
<g id="node16" class="node">
<title>Node16</title>
<g id="a_node16"><a xlink:href="_unit_8cpp.html" target="_top" xlink:title=" ">
<polygon fill="white" stroke="black" points="233.5,-123.5 233.5,-153.5 329.5,-153.5 329.5,-123.5 233.5,-123.5"/>
<text text-anchor="start" x="241.5" y="-141.5" font-family="Helvetica,sans-Serif" font-size="10.00">src/engine/objects</text>
<text text-anchor="middle" x="281.5" y="-130.5" font-family="Helvetica,sans-Serif" font-size="10.00">/Unit.cpp</text>
</a>
</g>
</g>
<!-- Node15&#45;&gt;Node16 -->
<g id="edge15" class="edge">
<title>Node15&#45;&gt;Node16</title>
<path fill="none" stroke="midnightblue" d="M318.08,-182.74C309.95,-173.12 300.61,-162.09 293.41,-153.58"/>
<polygon fill="midnightblue" stroke="midnightblue" points="315.43,-185.02 324.57,-190.4 320.78,-180.5 315.43,-185.02"/>
</g>
<!-- Node17 -->
<g id="node17" class="node">
<title>Node17</title>
<g id="a_node17"><a xlink:href="_unit_group_8hpp.html" target="_top" xlink:title=" ">
<polygon fill="white" stroke="black" points="348,-123.5 348,-153.5 461,-153.5 461,-123.5 348,-123.5"/>
<text text-anchor="start" x="356" y="-141.5" font-family="Helvetica,sans-Serif" font-size="10.00">include/engine/objects</text>
<text text-anchor="middle" x="404.5" y="-130.5" font-family="Helvetica,sans-Serif" font-size="10.00">/UnitGroup.hpp</text>
</a>
</g>
</g>
<!-- Node15&#45;&gt;Node17 -->
<g id="edge16" class="edge">
<title>Node15&#45;&gt;Node17</title>
<path fill="none" stroke="midnightblue" d="M358.67,-183.31C368.87,-173.56 380.69,-162.26 389.77,-153.58"/>
<polygon fill="midnightblue" stroke="midnightblue" points="356.07,-180.96 351.25,-190.4 360.9,-186.02 356.07,-180.96"/>
</g>
<!-- Node17&#45;&gt;Node11 -->
<g id="edge18" class="edge">
<title>Node17&#45;&gt;Node11</title>
<path fill="none" stroke="midnightblue" d="M371.72,-118.31C350.58,-105.93 324.12,-90.43 308.03,-81.01"/>
<polygon fill="midnightblue" stroke="midnightblue" points="370.02,-121.36 380.41,-123.4 373.55,-115.32 370.02,-121.36"/>
</g>
<!-- Node18 -->
<g id="node18" class="node">
<title>Node18</title>
<g id="a_node18"><a xlink:href="_unit_group_8cpp.html" target="_top" xlink:title=" ">
<polygon fill="white" stroke="black" points="360.5,-56.5 360.5,-86.5 456.5,-86.5 456.5,-56.5 360.5,-56.5"/>
<text text-anchor="start" x="368.5" y="-74.5" font-family="Helvetica,sans-Serif" font-size="10.00">src/engine/objects</text>
<text text-anchor="middle" x="408.5" y="-63.5" font-family="Helvetica,sans-Serif" font-size="10.00">/UnitGroup.cpp</text>
</a>
</g>
</g>
<!-- Node17&#45;&gt;Node18 -->
<g id="edge17" class="edge">
<title>Node17&#45;&gt;Node18</title>
<path fill="none" stroke="midnightblue" d="M405.98,-113.4C406.54,-104.37 407.15,-94.41 407.63,-86.58"/>
<polygon fill="midnightblue" stroke="midnightblue" points="402.49,-113.2 405.37,-123.4 409.48,-113.63 402.49,-113.2"/>
</g>
<!-- Node19&#45;&gt;Node6 -->
<g id="edge20" class="edge">
<title>Node19&#45;&gt;Node6</title>
<path fill="none" stroke="midnightblue" d="M467.29,-313.59C448.95,-302.1 423.52,-286.18 408.09,-276.51"/>
<polygon fill="midnightblue" stroke="midnightblue" points="465.56,-316.63 475.89,-318.98 469.27,-310.7 465.56,-316.63"/>
</g>
<!-- Node19&#45;&gt;Node14 -->
<g id="edge21" class="edge">
<title>Node19&#45;&gt;Node14</title>
<path fill="none" stroke="midnightblue" d="M489.5,-308.94C489.5,-285.19 489.5,-242.79 489.5,-206.5 489.5,-206.5 489.5,-206.5 489.5,-137.5 489.5,-92.57 474.7,-40.21 468.35,-19.79"/>
<polygon fill="midnightblue" stroke="midnightblue" points="486,-308.99 489.5,-318.99 493,-308.99 486,-308.99"/>
</g>
<!-- Node20 -->
<g id="node20" class="node">
<title>Node20</title>
<g id="a_node20"><a xlink:href="_sprites_manager_8cpp.html" target="_top" xlink:title=" ">
<polygon fill="white" stroke="black" points="518,-257.5 518,-276.5 637,-276.5 637,-257.5 518,-257.5"/>
<text text-anchor="middle" x="577.5" y="-264.5" font-family="Helvetica,sans-Serif" font-size="10.00">src/SpritesManager.cpp</text>
</a>
</g>
</g>
<!-- Node19&#45;&gt;Node20 -->
<g id="edge22" class="edge">
<title>Node19&#45;&gt;Node20</title>
<path fill="none" stroke="midnightblue" d="M510.78,-313.11C527.7,-301.67 550.81,-286.05 564.92,-276.51"/>
<polygon fill="midnightblue" stroke="midnightblue" points="508.43,-310.47 502.11,-318.98 512.35,-316.27 508.43,-310.47"/>
</g>
</g>
</svg>
