<?xml version="1.0" encoding="UTF-8" standalone="no"?>
<!DOCTYPE svg PUBLIC "-//W3C//DTD SVG 1.1//EN"
 "http://www.w3.org/Graphics/SVG/1.1/DTD/svg11.dtd">
<!-- Generated by graphviz version 2.47.0 (20210407.0042)
 -->
<!-- Title: src/engine/objects/Cell.cpp Pages: 1 -->
<svg width="358pt" height="319pt"
 viewBox="0.00 0.00 357.50 319.00" xmlns="http://www.w3.org/2000/svg" xmlns:xlink="http://www.w3.org/1999/xlink">
<g id="graph0" class="graph" transform="scale(1 1) rotate(0) translate(4 315)">
<title>src/engine/objects/Cell.cpp</title>
<polygon fill="white" stroke="transparent" points="-4,4 -4,-315 353.5,-315 353.5,4 -4,4"/>
<!-- Node1 -->
<g id="node1" class="node">
<title>Node1</title>
<g id="a_node1"><a xlink:title=" ">
<polygon fill="#bfbfbf" stroke="black" points="220.5,-280.5 220.5,-310.5 316.5,-310.5 316.5,-280.5 220.5,-280.5"/>
<text text-anchor="start" x="228.5" y="-298.5" font-family="Helvetica,sans-Serif" font-size="10.00">src/engine/objects</text>
<text text-anchor="middle" x="268.5" y="-287.5" font-family="Helvetica,sans-Serif" font-size="10.00">/Cell.cpp</text>
</a>
</g>
</g>
<!-- Node2 -->
<g id="node2" class="node">
<title>Node2</title>
<g id="a_node2"><a xlink:href="_cell_8hpp.html" target="_top" xlink:title=" ">
<polygon fill="white" stroke="black" points="158,-224.5 158,-243.5 275,-243.5 275,-224.5 158,-224.5"/>
<text text-anchor="middle" x="216.5" y="-231.5" font-family="Helvetica,sans-Serif" font-size="10.00">engine/objects/Cell.hpp</text>
</a>
</g>
</g>
<!-- Node1&#45;&gt;Node2 -->
<g id="edge1" class="edge">
<title>Node1&#45;&gt;Node2</title>
<path fill="none" stroke="midnightblue" d="M256.18,-280.4C248.54,-271.66 238.71,-260.41 230.74,-251.3"/>
<polygon fill="midnightblue" stroke="midnightblue" points="233.28,-248.88 224.07,-243.66 228.01,-253.49 233.28,-248.88"/>
</g>
<!-- Node13 -->
<g id="node13" class="node">
<title>Node13</title>
<g id="a_node13"><a xlink:title=" ">
<polygon fill="white" stroke="#bfbfbf" points="293.5,-224.5 293.5,-243.5 347.5,-243.5 347.5,-224.5 293.5,-224.5"/>
<text text-anchor="middle" x="320.5" y="-231.5" font-family="Helvetica,sans-Serif" font-size="10.00">iostream</text>
</a>
</g>
</g>
<!-- Node1&#45;&gt;Node13 -->
<g id="edge16" class="edge">
<title>Node1&#45;&gt;Node13</title>
<path fill="none" stroke="midnightblue" d="M280.82,-280.4C288.46,-271.66 298.29,-260.41 306.26,-251.3"/>
<polygon fill="midnightblue" stroke="midnightblue" points="308.99,-253.49 312.93,-243.66 303.72,-248.88 308.99,-253.49"/>
</g>
<!-- Node3 -->
<g id="node3" class="node">
<title>Node3</title>
<g id="a_node3"><a xlink:href="_drawable_8hpp.html" target="_top" xlink:title=" ">
<polygon fill="white" stroke="black" points="77,-112.5 77,-131.5 184,-131.5 184,-112.5 77,-112.5"/>
<text text-anchor="middle" x="130.5" y="-119.5" font-family="Helvetica,sans-Serif" font-size="10.00">engine/Drawable.hpp</text>
</a>
</g>
</g>
<!-- Node2&#45;&gt;Node3 -->
<g id="edge2" class="edge">
<title>Node2&#45;&gt;Node3</title>
<path fill="none" stroke="midnightblue" d="M157.92,-227.62C131.9,-221.97 103.57,-210.63 87.5,-188 75.49,-171.09 93.28,-151.13 109.49,-137.83"/>
<polygon fill="midnightblue" stroke="midnightblue" points="111.87,-140.41 117.65,-131.53 107.6,-134.87 111.87,-140.41"/>
</g>
<!-- Node8 -->
<g id="node8" class="node">
<title>Node8</title>
<g id="a_node8"><a xlink:href="_tickable_8hpp.html" target="_top" xlink:title=" ">
<polygon fill="white" stroke="black" points="202,-112.5 202,-131.5 305,-131.5 305,-112.5 202,-112.5"/>
<text text-anchor="middle" x="253.5" y="-119.5" font-family="Helvetica,sans-Serif" font-size="10.00">engine/Tickable.hpp</text>
</a>
</g>
</g>
<!-- Node2&#45;&gt;Node8 -->
<g id="edge7" class="edge">
<title>Node2&#45;&gt;Node8</title>
<path fill="none" stroke="midnightblue" d="M228.71,-224.24C238.85,-216.14 252.54,-203.11 258.5,-188 264.34,-173.19 262.25,-155.04 259.19,-141.68"/>
<polygon fill="midnightblue" stroke="midnightblue" points="262.5,-140.53 256.54,-131.77 255.74,-142.34 262.5,-140.53"/>
</g>
<!-- Node9 -->
<g id="node9" class="node">
<title>Node9</title>
<g id="a_node9"><a xlink:title=" ">
<polygon fill="white" stroke="#bfbfbf" points="305.5,-168.5 305.5,-187.5 349.5,-187.5 349.5,-168.5 305.5,-168.5"/>
<text text-anchor="middle" x="327.5" y="-175.5" font-family="Helvetica,sans-Serif" font-size="10.00">vector</text>
</a>
</g>
</g>
<!-- Node2&#45;&gt;Node9 -->
<g id="edge8" class="edge">
<title>Node2&#45;&gt;Node9</title>
<path fill="none" stroke="midnightblue" d="M234.33,-224.32C252.22,-215.62 279.98,-202.12 300.55,-192.11"/>
<polygon fill="midnightblue" stroke="midnightblue" points="302.25,-195.18 309.71,-187.65 299.19,-188.88 302.25,-195.18"/>
</g>
<!-- Node10 -->
<g id="node10" class="node">
<title>Node10</title>
<g id="a_node10"><a xlink:href="_ground_8hpp.html" target="_top" xlink:title=" ">
<polygon fill="white" stroke="black" points="183.5,-168.5 183.5,-187.5 249.5,-187.5 249.5,-168.5 183.5,-168.5"/>
<text text-anchor="middle" x="216.5" y="-175.5" font-family="Helvetica,sans-Serif" font-size="10.00">Ground.hpp</text>
</a>
</g>
</g>
<!-- Node2&#45;&gt;Node10 -->
<g id="edge9" class="edge">
<title>Node2&#45;&gt;Node10</title>
<path fill="none" stroke="midnightblue" d="M216.5,-224.08C216.5,-217.01 216.5,-206.86 216.5,-197.99"/>
<polygon fill="midnightblue" stroke="midnightblue" points="220,-197.75 216.5,-187.75 213,-197.75 220,-197.75"/>
</g>
<!-- Node11 -->
<g id="node11" class="node">
<title>Node11</title>
<g id="a_node11"><a xlink:href="_building_8hpp.html" target="_top" xlink:title=" ">
<polygon fill="white" stroke="black" points="96,-168.5 96,-187.5 165,-187.5 165,-168.5 96,-168.5"/>
<text text-anchor="middle" x="130.5" y="-175.5" font-family="Helvetica,sans-Serif" font-size="10.00">Building.hpp</text>
</a>
</g>
</g>
<!-- Node2&#45;&gt;Node11 -->
<g id="edge12" class="edge">
<title>Node2&#45;&gt;Node11</title>
<path fill="none" stroke="midnightblue" d="M202.68,-224.32C189.27,-215.9 168.68,-202.97 152.91,-193.07"/>
<polygon fill="midnightblue" stroke="midnightblue" points="154.61,-190.01 144.28,-187.65 150.89,-195.94 154.61,-190.01"/>
</g>
<!-- Node4 -->
<g id="node4" class="node">
<title>Node4</title>
<g id="a_node4"><a xlink:title=" ">
<polygon fill="white" stroke="#bfbfbf" points="44.5,-56.5 44.5,-75.5 110.5,-75.5 110.5,-56.5 44.5,-56.5"/>
<text text-anchor="middle" x="77.5" y="-63.5" font-family="Helvetica,sans-Serif" font-size="10.00">string_view</text>
</a>
</g>
</g>
<!-- Node3&#45;&gt;Node4 -->
<g id="edge3" class="edge">
<title>Node3&#45;&gt;Node4</title>
<path fill="none" stroke="midnightblue" d="M121.75,-112.08C114.03,-104.22 102.6,-92.57 93.28,-83.08"/>
<polygon fill="midnightblue" stroke="midnightblue" points="95.59,-80.44 86.09,-75.75 90.6,-85.34 95.59,-80.44"/>
</g>
<!-- Node5 -->
<g id="node5" class="node">
<title>Node5</title>
<g id="a_node5"><a xlink:href="_vector2_d_8hpp.html" target="_top" xlink:title=" ">
<polygon fill="white" stroke="black" points="128.5,-56.5 128.5,-75.5 240.5,-75.5 240.5,-56.5 128.5,-56.5"/>
<text text-anchor="middle" x="184.5" y="-63.5" font-family="Helvetica,sans-Serif" font-size="10.00">Helpers/Vector2D.hpp</text>
</a>
</g>
</g>
<!-- Node3&#45;&gt;Node5 -->
<g id="edge4" class="edge">
<title>Node3&#45;&gt;Node5</title>
<path fill="none" stroke="midnightblue" d="M139.42,-112.08C147.28,-104.22 158.93,-92.57 168.42,-83.08"/>
<polygon fill="midnightblue" stroke="midnightblue" points="171.15,-85.3 175.75,-75.75 166.2,-80.35 171.15,-85.3"/>
</g>
<!-- Node6 -->
<g id="node6" class="node">
<title>Node6</title>
<g id="a_node6"><a xlink:title=" ">
<polygon fill="white" stroke="#bfbfbf" points="135,-0.5 135,-19.5 174,-19.5 174,-0.5 135,-0.5"/>
<text text-anchor="middle" x="154.5" y="-7.5" font-family="Helvetica,sans-Serif" font-size="10.00">utility</text>
</a>
</g>
</g>
<!-- Node5&#45;&gt;Node6 -->
<g id="edge5" class="edge">
<title>Node5&#45;&gt;Node6</title>
<path fill="none" stroke="midnightblue" d="M179.55,-56.08C175.4,-48.61 169.35,-37.72 164.23,-28.52"/>
<polygon fill="midnightblue" stroke="midnightblue" points="167.28,-26.79 159.36,-19.75 161.16,-30.19 167.28,-26.79"/>
</g>
<!-- Node7 -->
<g id="node7" class="node">
<title>Node7</title>
<g id="a_node7"><a xlink:title=" ">
<polygon fill="white" stroke="#bfbfbf" points="192.5,-0.5 192.5,-19.5 236.5,-19.5 236.5,-0.5 192.5,-0.5"/>
<text text-anchor="middle" x="214.5" y="-7.5" font-family="Helvetica,sans-Serif" font-size="10.00">cmath</text>
</a>
</g>
</g>
<!-- Node5&#45;&gt;Node7 -->
<g id="edge6" class="edge">
<title>Node5&#45;&gt;Node7</title>
<path fill="none" stroke="midnightblue" d="M189.45,-56.08C193.6,-48.61 199.65,-37.72 204.77,-28.52"/>
<polygon fill="midnightblue" stroke="midnightblue" points="207.84,-30.19 209.64,-19.75 201.72,-26.79 207.84,-30.19"/>
</g>
<!-- Node10&#45;&gt;Node3 -->
<g id="edge10" class="edge">
<title>Node10&#45;&gt;Node3</title>
<path fill="none" stroke="midnightblue" d="M202.68,-168.32C189.27,-159.9 168.68,-146.97 152.91,-137.07"/>
<polygon fill="midnightblue" stroke="midnightblue" points="154.61,-134.01 144.28,-131.65 150.89,-139.94 154.61,-134.01"/>
</g>
<!-- Node10&#45;&gt;Node8 -->
<g id="edge11" class="edge">
<title>Node10&#45;&gt;Node8</title>
<path fill="none" stroke="midnightblue" d="M222.61,-168.08C227.78,-160.53 235.35,-149.49 241.69,-140.23"/>
<polygon fill="midnightblue" stroke="midnightblue" points="244.74,-141.98 247.5,-131.75 238.96,-138.02 244.74,-141.98"/>
</g>
<!-- Node11&#45;&gt;Node3 -->
<g id="edge13" class="edge">
<title>Node11&#45;&gt;Node3</title>
<path fill="none" stroke="midnightblue" d="M130.5,-168.08C130.5,-161.01 130.5,-150.86 130.5,-141.99"/>
<polygon fill="midnightblue" stroke="midnightblue" points="134,-141.75 130.5,-131.75 127,-141.75 134,-141.75"/>
</g>
<!-- Node11&#45;&gt;Node8 -->
<g id="edge14" class="edge">
<title>Node11&#45;&gt;Node8</title>
<path fill="none" stroke="midnightblue" d="M149.99,-168.44C170.14,-159.6 201.82,-145.69 224.83,-135.59"/>
<polygon fill="midnightblue" stroke="midnightblue" points="226.35,-138.74 234.1,-131.52 223.54,-132.33 226.35,-138.74"/>
</g>
<!-- Node12 -->
<g id="node12" class="node">
<title>Node12</title>
<g id="a_node12"><a xlink:title=" ">
<polygon fill="white" stroke="#bfbfbf" points="0,-112.5 0,-131.5 59,-131.5 59,-112.5 0,-112.5"/>
<text text-anchor="middle" x="29.5" y="-119.5" font-family="Helvetica,sans-Serif" font-size="10.00">functional</text>
</a>
</g>
</g>
<!-- Node11&#45;&gt;Node12 -->
<g id="edge15" class="edge">
<title>Node11&#45;&gt;Node12</title>
<path fill="none" stroke="midnightblue" d="M114.27,-168.32C98.15,-159.7 73.2,-146.36 54.54,-136.39"/>
<polygon fill="midnightblue" stroke="midnightblue" points="56.16,-133.28 45.69,-131.65 52.86,-139.46 56.16,-133.28"/>
</g>
</g>
</svg>
