<?xml version="1.0" encoding="UTF-8" standalone="no"?>
<!DOCTYPE svg PUBLIC "-//W3C//DTD SVG 1.1//EN"
 "http://www.w3.org/Graphics/SVG/1.1/DTD/svg11.dtd">
<!-- Generated by graphviz version 2.47.0 (20210407.0042)
 -->
<!-- Title: src/engine/objects/Cell.cpp Pages: 1 -->
<svg width="332pt" height="263pt"
 viewBox="0.00 0.00 332.00 263.00" xmlns="http://www.w3.org/2000/svg" xmlns:xlink="http://www.w3.org/1999/xlink">
<g id="graph0" class="graph" transform="scale(1 1) rotate(0) translate(4 259)">
<title>src/engine/objects/Cell.cpp</title>
<polygon fill="white" stroke="transparent" points="-4,4 -4,-259 328,-259 328,4 -4,4"/>
<!-- Node1 -->
<g id="node1" class="node">
<title>Node1</title>
<g id="a_node1"><a xlink:title=" ">
<polygon fill="#bfbfbf" stroke="black" points="195,-224.5 195,-254.5 291,-254.5 291,-224.5 195,-224.5"/>
<text text-anchor="start" x="203" y="-242.5" font-family="Helvetica,sans-Serif" font-size="10.00">src/engine/objects</text>
<text text-anchor="middle" x="243" y="-231.5" font-family="Helvetica,sans-Serif" font-size="10.00">/Cell.cpp</text>
</a>
</g>
</g>
<!-- Node2 -->
<g id="node2" class="node">
<title>Node2</title>
<g id="a_node2"><a xlink:href="_cell_8hpp.html" target="_top" xlink:title=" ">
<polygon fill="white" stroke="black" points="132.5,-168.5 132.5,-187.5 249.5,-187.5 249.5,-168.5 132.5,-168.5"/>
<text text-anchor="middle" x="191" y="-175.5" font-family="Helvetica,sans-Serif" font-size="10.00">engine/objects/Cell.hpp</text>
</a>
</g>
</g>
<!-- Node1&#45;&gt;Node2 -->
<g id="edge1" class="edge">
<title>Node1&#45;&gt;Node2</title>
<path fill="none" stroke="midnightblue" d="M230.68,-224.4C223.04,-215.66 213.21,-204.41 205.24,-195.3"/>
<polygon fill="midnightblue" stroke="midnightblue" points="207.78,-192.88 198.57,-187.66 202.51,-197.49 207.78,-192.88"/>
</g>
<!-- Node10 -->
<g id="node10" class="node">
<title>Node10</title>
<g id="a_node10"><a xlink:title=" ">
<polygon fill="white" stroke="#bfbfbf" points="268,-168.5 268,-187.5 322,-187.5 322,-168.5 268,-168.5"/>
<text text-anchor="middle" x="295" y="-175.5" font-family="Helvetica,sans-Serif" font-size="10.00">iostream</text>
</a>
</g>
</g>
<!-- Node1&#45;&gt;Node10 -->
<g id="edge13" class="edge">
<title>Node1&#45;&gt;Node10</title>
<path fill="none" stroke="midnightblue" d="M255.32,-224.4C262.96,-215.66 272.79,-204.41 280.76,-195.3"/>
<polygon fill="midnightblue" stroke="midnightblue" points="283.49,-197.49 287.43,-187.66 278.22,-192.88 283.49,-197.49"/>
</g>
<!-- Node3 -->
<g id="node3" class="node">
<title>Node3</title>
<g id="a_node3"><a xlink:href="_drawable_8hpp.html" target="_top" xlink:title=" ">
<polygon fill="white" stroke="black" points="32.5,-56.5 32.5,-75.5 139.5,-75.5 139.5,-56.5 32.5,-56.5"/>
<text text-anchor="middle" x="86" y="-63.5" font-family="Helvetica,sans-Serif" font-size="10.00">engine/Drawable.hpp</text>
</a>
</g>
</g>
<!-- Node2&#45;&gt;Node3 -->
<g id="edge2" class="edge">
<title>Node2&#45;&gt;Node3</title>
<path fill="none" stroke="midnightblue" d="M132.42,-171.62C106.4,-165.97 78.07,-154.63 62,-132 51.6,-117.36 61.49,-97.69 71.55,-83.83"/>
<polygon fill="midnightblue" stroke="midnightblue" points="74.53,-85.7 77.97,-75.68 69.03,-81.37 74.53,-85.7"/>
</g>
<!-- Node6 -->
<g id="node6" class="node">
<title>Node6</title>
<g id="a_node6"><a xlink:href="_tickable_8hpp.html" target="_top" xlink:title=" ">
<polygon fill="white" stroke="black" points="157.5,-56.5 157.5,-75.5 260.5,-75.5 260.5,-56.5 157.5,-56.5"/>
<text text-anchor="middle" x="209" y="-63.5" font-family="Helvetica,sans-Serif" font-size="10.00">engine/Tickable.hpp</text>
</a>
</g>
</g>
<!-- Node2&#45;&gt;Node6 -->
<g id="edge5" class="edge">
<title>Node2&#45;&gt;Node6</title>
<path fill="none" stroke="midnightblue" d="M203.21,-168.24C213.35,-160.14 227.04,-147.11 233,-132 239.32,-115.97 231.05,-97.53 222.55,-84.39"/>
<polygon fill="midnightblue" stroke="midnightblue" points="225.15,-82.01 216.51,-75.88 219.44,-86.06 225.15,-82.01"/>
</g>
<!-- Node7 -->
<g id="node7" class="node">
<title>Node7</title>
<g id="a_node7"><a xlink:title=" ">
<polygon fill="white" stroke="#bfbfbf" points="280,-112.5 280,-131.5 324,-131.5 324,-112.5 280,-112.5"/>
<text text-anchor="middle" x="302" y="-119.5" font-family="Helvetica,sans-Serif" font-size="10.00">vector</text>
</a>
</g>
</g>
<!-- Node2&#45;&gt;Node7 -->
<g id="edge6" class="edge">
<title>Node2&#45;&gt;Node7</title>
<path fill="none" stroke="midnightblue" d="M208.83,-168.32C226.72,-159.62 254.48,-146.12 275.05,-136.11"/>
<polygon fill="midnightblue" stroke="midnightblue" points="276.75,-139.18 284.21,-131.65 273.69,-132.88 276.75,-139.18"/>
</g>
<!-- Node8 -->
<g id="node8" class="node">
<title>Node8</title>
<g id="a_node8"><a xlink:href="_ground_8hpp.html" target="_top" xlink:title=" ">
<polygon fill="white" stroke="black" points="158,-112.5 158,-131.5 224,-131.5 224,-112.5 158,-112.5"/>
<text text-anchor="middle" x="191" y="-119.5" font-family="Helvetica,sans-Serif" font-size="10.00">Ground.hpp</text>
</a>
</g>
</g>
<!-- Node2&#45;&gt;Node8 -->
<g id="edge7" class="edge">
<title>Node2&#45;&gt;Node8</title>
<path fill="none" stroke="midnightblue" d="M191,-168.08C191,-161.01 191,-150.86 191,-141.99"/>
<polygon fill="midnightblue" stroke="midnightblue" points="194.5,-141.75 191,-131.75 187.5,-141.75 194.5,-141.75"/>
</g>
<!-- Node9 -->
<g id="node9" class="node">
<title>Node9</title>
<g id="a_node9"><a xlink:href="_building_8hpp.html" target="_top" xlink:title=" ">
<polygon fill="white" stroke="black" points="70.5,-112.5 70.5,-131.5 139.5,-131.5 139.5,-112.5 70.5,-112.5"/>
<text text-anchor="middle" x="105" y="-119.5" font-family="Helvetica,sans-Serif" font-size="10.00">Building.hpp</text>
</a>
</g>
</g>
<!-- Node2&#45;&gt;Node9 -->
<g id="edge10" class="edge">
<title>Node2&#45;&gt;Node9</title>
<path fill="none" stroke="midnightblue" d="M177.18,-168.32C163.77,-159.9 143.18,-146.97 127.41,-137.07"/>
<polygon fill="midnightblue" stroke="midnightblue" points="129.11,-134.01 118.78,-131.65 125.39,-139.94 129.11,-134.01"/>
</g>
<!-- Node4 -->
<g id="node4" class="node">
<title>Node4</title>
<g id="a_node4"><a xlink:title=" ">
<polygon fill="white" stroke="#bfbfbf" points="0,-0.5 0,-19.5 66,-19.5 66,-0.5 0,-0.5"/>
<text text-anchor="middle" x="33" y="-7.5" font-family="Helvetica,sans-Serif" font-size="10.00">string_view</text>
</a>
</g>
</g>
<!-- Node3&#45;&gt;Node4 -->
<g id="edge3" class="edge">
<title>Node3&#45;&gt;Node4</title>
<path fill="none" stroke="midnightblue" d="M77.25,-56.08C69.53,-48.22 58.1,-36.57 48.78,-27.08"/>
<polygon fill="midnightblue" stroke="midnightblue" points="51.09,-24.44 41.59,-19.75 46.1,-29.34 51.09,-24.44"/>
</g>
<!-- Node5 -->
<g id="node5" class="node">
<title>Node5</title>
<g id="a_node5"><a xlink:href="_vector2_d_8hpp.html" target="_top" xlink:title=" ">
<polygon fill="white" stroke="black" points="84,-0.5 84,-19.5 196,-19.5 196,-0.5 84,-0.5"/>
<text text-anchor="middle" x="140" y="-7.5" font-family="Helvetica,sans-Serif" font-size="10.00">Helpers/Vector2D.hpp</text>
</a>
</g>
</g>
<!-- Node3&#45;&gt;Node5 -->
<g id="edge4" class="edge">
<title>Node3&#45;&gt;Node5</title>
<path fill="none" stroke="midnightblue" d="M94.92,-56.08C102.78,-48.22 114.43,-36.57 123.92,-27.08"/>
<polygon fill="midnightblue" stroke="midnightblue" points="126.65,-29.3 131.25,-19.75 121.7,-24.35 126.65,-29.3"/>
</g>
<!-- Node8&#45;&gt;Node3 -->
<g id="edge8" class="edge">
<title>Node8&#45;&gt;Node3</title>
<path fill="none" stroke="midnightblue" d="M174.13,-112.32C157.29,-103.66 131.19,-90.24 111.76,-80.25"/>
<polygon fill="midnightblue" stroke="midnightblue" points="113.32,-77.12 102.83,-75.65 110.12,-83.34 113.32,-77.12"/>
</g>
<!-- Node8&#45;&gt;Node6 -->
<g id="edge9" class="edge">
<title>Node8&#45;&gt;Node6</title>
<path fill="none" stroke="midnightblue" d="M193.97,-112.08C196.38,-104.85 199.86,-94.41 202.87,-85.4"/>
<polygon fill="midnightblue" stroke="midnightblue" points="206.24,-86.34 206.08,-75.75 199.6,-84.13 206.24,-86.34"/>
</g>
<!-- Node9&#45;&gt;Node3 -->
<g id="edge11" class="edge">
<title>Node9&#45;&gt;Node3</title>
<path fill="none" stroke="midnightblue" d="M101.86,-112.08C99.32,-104.85 95.64,-94.41 92.47,-85.4"/>
<polygon fill="midnightblue" stroke="midnightblue" points="95.7,-84.02 89.08,-75.75 89.1,-86.35 95.7,-84.02"/>
</g>
<!-- Node9&#45;&gt;Node6 -->
<g id="edge12" class="edge">
<title>Node9&#45;&gt;Node6</title>
<path fill="none" stroke="midnightblue" d="M121.71,-112.32C138.31,-103.7 164,-90.36 183.22,-80.39"/>
<polygon fill="midnightblue" stroke="midnightblue" points="185.07,-83.37 192.33,-75.65 181.84,-77.16 185.07,-83.37"/>
</g>
</g>
</svg>
