<?xml version="1.0" encoding="UTF-8" standalone="no"?>
<!DOCTYPE svg PUBLIC "-//W3C//DTD SVG 1.1//EN"
 "http://www.w3.org/Graphics/SVG/1.1/DTD/svg11.dtd">
<!-- Generated by graphviz version 2.47.1 (20210421.1823)
 -->
<!-- Title: include/engine/objects/Cell.hpp Pages: 1 -->
<svg width="647pt" height="419pt"
 viewBox="0.00 0.00 646.50 419.00" xmlns="http://www.w3.org/2000/svg" xmlns:xlink="http://www.w3.org/1999/xlink">
<g id="graph0" class="graph" transform="scale(1 1) rotate(0) translate(4 415)">
<title>include/engine/objects/Cell.hpp</title>
<polygon fill="white" stroke="transparent" points="-4,4 -4,-415 642.5,-415 642.5,4 -4,4"/>
<!-- Node1 -->
<g id="node1" class="node">
<title>Node1</title>
<g id="a_node1"><a xlink:title=" ">
<polygon fill="#bfbfbf" stroke="black" points="287.5,-380.5 287.5,-410.5 400.5,-410.5 400.5,-380.5 287.5,-380.5"/>
<text text-anchor="start" x="295.5" y="-398.5" font-family="Helvetica,sans-Serif" font-size="10.00">include/engine/objects</text>
<text text-anchor="middle" x="344" y="-387.5" font-family="Helvetica,sans-Serif" font-size="10.00">/Cell.hpp</text>
</a>
</g>
</g>
<!-- Node2 -->
<g id="node2" class="node">
<title>Node2</title>
<g id="a_node2"><a xlink:href="_cell_8cpp.html" target="_top" xlink:title=" ">
<polygon fill="white" stroke="black" points="169,-313.5 169,-343.5 265,-343.5 265,-313.5 169,-313.5"/>
<text text-anchor="start" x="177" y="-331.5" font-family="Helvetica,sans-Serif" font-size="10.00">src/engine/objects</text>
<text text-anchor="middle" x="217" y="-320.5" font-family="Helvetica,sans-Serif" font-size="10.00">/Cell.cpp</text>
</a>
</g>
</g>
<!-- Node1&#45;&gt;Node2 -->
<g id="edge1" class="edge">
<title>Node1&#45;&gt;Node2</title>
<path fill="none" stroke="midnightblue" d="M307.3,-375.71C287.27,-365.46 262.88,-352.98 244.5,-343.58"/>
<polygon fill="midnightblue" stroke="midnightblue" points="305.95,-378.96 316.44,-380.4 309.14,-372.72 305.95,-378.96"/>
</g>
<!-- Node3 -->
<g id="node3" class="node">
<title>Node3</title>
<g id="a_node3"><a xlink:href="_field_8hpp.html" target="_top" xlink:title=" ">
<polygon fill="white" stroke="black" points="283.5,-319 283.5,-338 404.5,-338 404.5,-319 283.5,-319"/>
<text text-anchor="middle" x="344" y="-326" font-family="Helvetica,sans-Serif" font-size="10.00">include/engine/Field.hpp</text>
</a>
</g>
</g>
<!-- Node1&#45;&gt;Node3 -->
<g id="edge2" class="edge">
<title>Node1&#45;&gt;Node3</title>
<path fill="none" stroke="midnightblue" d="M344,-370.25C344,-359.02 344,-346.38 344,-338.19"/>
<polygon fill="midnightblue" stroke="midnightblue" points="340.5,-370.4 344,-380.4 347.5,-370.4 340.5,-370.4"/>
</g>
<!-- Node17 -->
<g id="node17" class="node">
<title>Node17</title>
<g id="a_node17"><a xlink:href="_sprites_manager_8hpp.html" target="_top" xlink:title=" ">
<polygon fill="white" stroke="black" points="422.5,-319 422.5,-338 559.5,-338 559.5,-319 422.5,-319"/>
<text text-anchor="middle" x="491" y="-326" font-family="Helvetica,sans-Serif" font-size="10.00">include/SpritesManager.hpp</text>
</a>
</g>
</g>
<!-- Node1&#45;&gt;Node17 -->
<g id="edge19" class="edge">
<title>Node1&#45;&gt;Node17</title>
<path fill="none" stroke="midnightblue" d="M385.17,-376.3C413.52,-363.76 449.88,-347.68 471.76,-338.01"/>
<polygon fill="midnightblue" stroke="midnightblue" points="383.63,-373.15 375.9,-380.4 386.46,-379.55 383.63,-373.15"/>
</g>
<!-- Node4 -->
<g id="node4" class="node">
<title>Node4</title>
<g id="a_node4"><a xlink:href="_field_8cpp.html" target="_top" xlink:title=" ">
<polygon fill="white" stroke="black" points="359,-257.5 359,-276.5 463,-276.5 463,-257.5 359,-257.5"/>
<text text-anchor="middle" x="411" y="-264.5" font-family="Helvetica,sans-Serif" font-size="10.00">src/engine/Field.cpp</text>
</a>
</g>
</g>
<!-- Node3&#45;&gt;Node4 -->
<g id="edge3" class="edge">
<title>Node3&#45;&gt;Node4</title>
<path fill="none" stroke="midnightblue" d="M361.29,-312.15C374.06,-300.81 390.98,-285.78 401.42,-276.51"/>
<polygon fill="midnightblue" stroke="midnightblue" points="358.75,-309.72 353.6,-318.98 363.4,-314.95 358.75,-309.72"/>
</g>
<!-- Node5 -->
<g id="node5" class="node">
<title>Node5</title>
<g id="a_node5"><a xlink:href="_world_actor_8hpp.html" target="_top" xlink:title=" ">
<polygon fill="white" stroke="black" points="193,-257.5 193,-276.5 341,-276.5 341,-257.5 193,-257.5"/>
<text text-anchor="middle" x="267" y="-264.5" font-family="Helvetica,sans-Serif" font-size="10.00">include/engine/WorldActor.hpp</text>
</a>
</g>
</g>
<!-- Node3&#45;&gt;Node5 -->
<g id="edge4" class="edge">
<title>Node3&#45;&gt;Node5</title>
<path fill="none" stroke="midnightblue" d="M324.97,-312.79C310.2,-301.38 290.24,-285.96 278.01,-276.51"/>
<polygon fill="midnightblue" stroke="midnightblue" points="322.91,-315.63 332.97,-318.98 327.19,-310.09 322.91,-315.63"/>
</g>
<!-- Node6 -->
<g id="node6" class="node">
<title>Node6</title>
<g id="a_node6"><a xlink:href="_world_actor_8cpp.html" target="_top" xlink:title=" ">
<polygon fill="white" stroke="black" points="185.5,-196 185.5,-215 316.5,-215 316.5,-196 185.5,-196"/>
<text text-anchor="middle" x="251" y="-203" font-family="Helvetica,sans-Serif" font-size="10.00">src/engine/WorldActor.cpp</text>
</a>
</g>
</g>
<!-- Node5&#45;&gt;Node6 -->
<g id="edge5" class="edge">
<title>Node5&#45;&gt;Node6</title>
<path fill="none" stroke="midnightblue" d="M262.07,-247.66C259.14,-236.77 255.57,-223.49 253.29,-215.01"/>
<polygon fill="midnightblue" stroke="midnightblue" points="258.73,-248.73 264.71,-257.48 265.49,-246.91 258.73,-248.73"/>
</g>
<!-- Node7 -->
<g id="node7" class="node">
<title>Node7</title>
<g id="a_node7"><a xlink:href="_player_8hpp.html" target="_top" xlink:title=" ">
<polygon fill="white" stroke="black" points="334.5,-190.5 334.5,-220.5 447.5,-220.5 447.5,-190.5 334.5,-190.5"/>
<text text-anchor="start" x="342.5" y="-208.5" font-family="Helvetica,sans-Serif" font-size="10.00">include/engine/objects</text>
<text text-anchor="middle" x="391" y="-197.5" font-family="Helvetica,sans-Serif" font-size="10.00">/Player.hpp</text>
</a>
</g>
</g>
<!-- Node5&#45;&gt;Node7 -->
<g id="edge6" class="edge">
<title>Node5&#45;&gt;Node7</title>
<path fill="none" stroke="midnightblue" d="M293.95,-253.07C313.96,-243.47 341.24,-230.38 361.78,-220.52"/>
<polygon fill="midnightblue" stroke="midnightblue" points="292.27,-249.99 284.77,-257.48 295.3,-256.3 292.27,-249.99"/>
</g>
<!-- Node15 -->
<g id="node15" class="node">
<title>Node15</title>
<g id="a_node15"><a xlink:href="_unit_8hpp.html" target="_top" xlink:title=" ">
<polygon fill="white" stroke="black" points="54.5,-190.5 54.5,-220.5 167.5,-220.5 167.5,-190.5 54.5,-190.5"/>
<text text-anchor="start" x="62.5" y="-208.5" font-family="Helvetica,sans-Serif" font-size="10.00">include/engine/objects</text>
<text text-anchor="middle" x="111" y="-197.5" font-family="Helvetica,sans-Serif" font-size="10.00">/Unit.hpp</text>
</a>
</g>
</g>
<!-- Node5&#45;&gt;Node15 -->
<g id="edge14" class="edge">
<title>Node5&#45;&gt;Node15</title>
<path fill="none" stroke="midnightblue" d="M235.14,-253.85C209.8,-244.18 174.31,-230.65 147.77,-220.52"/>
<polygon fill="midnightblue" stroke="midnightblue" points="234.06,-257.18 244.65,-257.48 236.55,-250.64 234.06,-257.18"/>
</g>
<!-- Node8 -->
<g id="node8" class="node">
<title>Node8</title>
<g id="a_node8"><a xlink:href="_player_8cpp.html" target="_top" xlink:title=" ">
<polygon fill="white" stroke="black" points="267,-123.5 267,-153.5 363,-153.5 363,-123.5 267,-123.5"/>
<text text-anchor="start" x="275" y="-141.5" font-family="Helvetica,sans-Serif" font-size="10.00">src/engine/objects</text>
<text text-anchor="middle" x="315" y="-130.5" font-family="Helvetica,sans-Serif" font-size="10.00">/Player.cpp</text>
</a>
</g>
</g>
<!-- Node7&#45;&gt;Node8 -->
<g id="edge7" class="edge">
<title>Node7&#45;&gt;Node8</title>
<path fill="none" stroke="midnightblue" d="M366.89,-183.88C355.34,-174.01 341.81,-162.43 331.46,-153.58"/>
<polygon fill="midnightblue" stroke="midnightblue" points="364.63,-186.56 374.51,-190.4 369.18,-181.24 364.63,-186.56"/>
</g>
<!-- Node9 -->
<g id="node9" class="node">
<title>Node9</title>
<g id="a_node9"><a xlink:href="_engine_8hpp.html" target="_top" xlink:title=" ">
<polygon fill="white" stroke="black" points="241,-67.5 241,-86.5 339,-86.5 339,-67.5 241,-67.5"/>
<text text-anchor="middle" x="290" y="-74.5" font-family="Helvetica,sans-Serif" font-size="10.00">include/Engine.hpp</text>
</a>
</g>
</g>
<!-- Node7&#45;&gt;Node9 -->
<g id="edge8" class="edge">
<title>Node7&#45;&gt;Node9</title>
<path fill="none" stroke="midnightblue" d="M390.48,-180.35C388.98,-162.86 384.51,-139.49 372,-123 358.55,-105.28 336.02,-93.63 317.97,-86.64"/>
<polygon fill="midnightblue" stroke="midnightblue" points="386.99,-180.59 391.08,-190.36 393.98,-180.17 386.99,-180.59"/>
</g>
<!-- Node10 -->
<g id="node10" class="node">
<title>Node10</title>
<g id="a_node10"><a xlink:href="_drawable_8cpp.html" target="_top" xlink:title=" ">
<polygon fill="white" stroke="black" points="228.5,-6 228.5,-25 351.5,-25 351.5,-6 228.5,-6"/>
<text text-anchor="middle" x="290" y="-13" font-family="Helvetica,sans-Serif" font-size="10.00">src/engine/Drawable.cpp</text>
</a>
</g>
</g>
<!-- Node9&#45;&gt;Node10 -->
<g id="edge9" class="edge">
<title>Node9&#45;&gt;Node10</title>
<path fill="none" stroke="midnightblue" d="M290,-57.32C290,-46.5 290,-33.4 290,-25.01"/>
<polygon fill="midnightblue" stroke="midnightblue" points="286.5,-57.48 290,-67.48 293.5,-57.48 286.5,-57.48"/>
</g>
<!-- Node11 -->
<g id="node11" class="node">
<title>Node11</title>
<g id="a_node11"><a xlink:href="_unit_8cpp.html" target="_top" xlink:title=" ">
<polygon fill="white" stroke="black" points="0,-0.5 0,-30.5 96,-30.5 96,-0.5 0,-0.5"/>
<text text-anchor="start" x="8" y="-18.5" font-family="Helvetica,sans-Serif" font-size="10.00">src/engine/objects</text>
<text text-anchor="middle" x="48" y="-7.5" font-family="Helvetica,sans-Serif" font-size="10.00">/Unit.cpp</text>
</a>
</g>
</g>
<!-- Node9&#45;&gt;Node11 -->
<g id="edge10" class="edge">
<title>Node9&#45;&gt;Node11</title>
<path fill="none" stroke="midnightblue" d="M244.41,-65.05C206.95,-56.02 152.5,-42.82 105,-31 102.13,-30.29 99.17,-29.55 96.19,-28.8"/>
<polygon fill="midnightblue" stroke="midnightblue" points="243.97,-68.54 254.51,-67.48 245.6,-61.74 243.97,-68.54"/>
</g>
<!-- Node12 -->
<g id="node12" class="node">
<title>Node12</title>
<g id="a_node12"><a xlink:href="_unit_group_8cpp.html" target="_top" xlink:title=" ">
<polygon fill="white" stroke="black" points="114,-0.5 114,-30.5 210,-30.5 210,-0.5 114,-0.5"/>
<text text-anchor="start" x="122" y="-18.5" font-family="Helvetica,sans-Serif" font-size="10.00">src/engine/objects</text>
<text text-anchor="middle" x="162" y="-7.5" font-family="Helvetica,sans-Serif" font-size="10.00">/UnitGroup.cpp</text>
</a>
</g>
</g>
<!-- Node9&#45;&gt;Node12 -->
<g id="edge11" class="edge">
<title>Node9&#45;&gt;Node12</title>
<path fill="none" stroke="midnightblue" d="M262.46,-63.2C241.78,-53.58 213.46,-40.42 192.17,-30.52"/>
<polygon fill="midnightblue" stroke="midnightblue" points="261.12,-66.43 271.66,-67.48 264.07,-60.09 261.12,-66.43"/>
</g>
<!-- Node13 -->
<g id="node13" class="node">
<title>Node13</title>
<g id="a_node13"><a xlink:href="_engine_8cpp.html" target="_top" xlink:title=" ">
<polygon fill="white" stroke="black" points="370,-6 370,-25 450,-25 450,-6 370,-6"/>
<text text-anchor="middle" x="410" y="-13" font-family="Helvetica,sans-Serif" font-size="10.00">src/Engine.cpp</text>
</a>
</g>
</g>
<!-- Node9&#45;&gt;Node13 -->
<g id="edge12" class="edge">
<title>Node9&#45;&gt;Node13</title>
<path fill="none" stroke="midnightblue" d="M316.18,-63.02C339.45,-51.48 372.8,-34.94 392.84,-25.01"/>
<polygon fill="midnightblue" stroke="midnightblue" points="314.6,-59.9 307.19,-67.48 317.71,-66.17 314.6,-59.9"/>
</g>
<!-- Node14 -->
<g id="node14" class="node">
<title>Node14</title>
<g id="a_node14"><a xlink:href="_game_8cpp.html" target="_top" xlink:title=" ">
<polygon fill="white" stroke="black" points="468.5,-6 468.5,-25 545.5,-25 545.5,-6 468.5,-6"/>
<text text-anchor="middle" x="507" y="-13" font-family="Helvetica,sans-Serif" font-size="10.00">src/Game.cpp</text>
</a>
</g>
</g>
<!-- Node9&#45;&gt;Node14 -->
<g id="edge13" class="edge">
<title>Node9&#45;&gt;Node14</title>
<path fill="none" stroke="midnightblue" d="M333.56,-64.82C367.75,-55.95 416.52,-43.07 459,-31 465.62,-29.12 472.72,-27.02 479.38,-25.01"/>
<polygon fill="midnightblue" stroke="midnightblue" points="332.24,-61.55 323.44,-67.45 334,-68.33 332.24,-61.55"/>
</g>
<!-- Node15&#45;&gt;Node11 -->
<g id="edge15" class="edge">
<title>Node15&#45;&gt;Node11</title>
<path fill="none" stroke="midnightblue" d="M103.03,-180.72C89.73,-141.04 63.42,-62.51 52.7,-30.54"/>
<polygon fill="midnightblue" stroke="midnightblue" points="99.77,-182 106.26,-190.37 106.41,-179.78 99.77,-182"/>
</g>
<!-- Node16 -->
<g id="node16" class="node">
<title>Node16</title>
<g id="a_node16"><a xlink:href="_unit_group_8hpp.html" target="_top" xlink:title=" ">
<polygon fill="white" stroke="black" points="105.5,-123.5 105.5,-153.5 218.5,-153.5 218.5,-123.5 105.5,-123.5"/>
<text text-anchor="start" x="113.5" y="-141.5" font-family="Helvetica,sans-Serif" font-size="10.00">include/engine/objects</text>
<text text-anchor="middle" x="162" y="-130.5" font-family="Helvetica,sans-Serif" font-size="10.00">/UnitGroup.hpp</text>
</a>
</g>
</g>
<!-- Node15&#45;&gt;Node16 -->
<g id="edge16" class="edge">
<title>Node15&#45;&gt;Node16</title>
<path fill="none" stroke="midnightblue" d="M128.3,-182.45C135.79,-172.9 144.34,-162 150.96,-153.58"/>
<polygon fill="midnightblue" stroke="midnightblue" points="125.49,-180.37 122.07,-190.4 130.99,-184.69 125.49,-180.37"/>
</g>
<!-- Node16&#45;&gt;Node9 -->
<g id="edge18" class="edge">
<title>Node16&#45;&gt;Node9</title>
<path fill="none" stroke="midnightblue" d="M201.62,-119.08C224.87,-108.28 253.17,-95.12 271.37,-86.66"/>
<polygon fill="midnightblue" stroke="midnightblue" points="199.93,-116.01 192.33,-123.4 202.88,-122.36 199.93,-116.01"/>
</g>
<!-- Node16&#45;&gt;Node12 -->
<g id="edge17" class="edge">
<title>Node16&#45;&gt;Node12</title>
<path fill="none" stroke="midnightblue" d="M162,-113.12C162,-88.44 162,-51.11 162,-30.84"/>
<polygon fill="midnightblue" stroke="midnightblue" points="158.5,-113.14 162,-123.14 165.5,-113.14 158.5,-113.14"/>
</g>
<!-- Node17&#45;&gt;Node4 -->
<g id="edge20" class="edge">
<title>Node17&#45;&gt;Node4</title>
<path fill="none" stroke="midnightblue" d="M471.23,-312.79C455.88,-301.38 435.14,-285.96 422.44,-276.51"/>
<polygon fill="midnightblue" stroke="midnightblue" points="469.43,-315.82 479.54,-318.98 473.6,-310.2 469.43,-315.82"/>
</g>
<!-- Node17&#45;&gt;Node14 -->
<g id="edge21" class="edge">
<title>Node17&#45;&gt;Node14</title>
<path fill="none" stroke="midnightblue" d="M491,-308.94C491,-285.19 491,-242.79 491,-206.5 491,-206.5 491,-206.5 491,-137.5 491,-95.12 500.77,-45.11 505.04,-25.25"/>
<polygon fill="midnightblue" stroke="midnightblue" points="487.5,-308.99 491,-318.99 494.5,-308.99 487.5,-308.99"/>
</g>
<!-- Node18 -->
<g id="node18" class="node">
<title>Node18</title>
<g id="a_node18"><a xlink:href="_sprites_manager_8cpp.html" target="_top" xlink:title=" ">
<polygon fill="white" stroke="black" points="519.5,-257.5 519.5,-276.5 638.5,-276.5 638.5,-257.5 519.5,-257.5"/>
<text text-anchor="middle" x="579" y="-264.5" font-family="Helvetica,sans-Serif" font-size="10.00">src/SpritesManager.cpp</text>
</a>
</g>
</g>
<!-- Node17&#45;&gt;Node18 -->
<g id="edge22" class="edge">
<title>Node17&#45;&gt;Node18</title>
<path fill="none" stroke="midnightblue" d="M512.28,-313.11C529.2,-301.67 552.31,-286.05 566.42,-276.51"/>
<polygon fill="midnightblue" stroke="midnightblue" points="509.93,-310.47 503.61,-318.98 513.85,-316.27 509.93,-310.47"/>
</g>
</g>
</svg>
