<?xml version="1.0" encoding="UTF-8" standalone="no"?>
<!DOCTYPE svg PUBLIC "-//W3C//DTD SVG 1.1//EN"
 "http://www.w3.org/Graphics/SVG/1.1/DTD/svg11.dtd">
<!-- Generated by graphviz version 2.47.1 (20210421.1823)
 -->
<!-- Title: src/engine/objects/Cell.cpp Pages: 1 -->
<svg width="412pt" height="330pt"
 viewBox="0.00 0.00 411.50 330.00" xmlns="http://www.w3.org/2000/svg" xmlns:xlink="http://www.w3.org/1999/xlink">
<g id="graph0" class="graph" transform="scale(1 1) rotate(0) translate(4 326)">
<title>src/engine/objects/Cell.cpp</title>
<polygon fill="white" stroke="transparent" points="-4,4 -4,-326 407.5,-326 407.5,4 -4,4"/>
<!-- Node1 -->
<g id="node1" class="node">
<title>Node1</title>
<g id="a_node1"><a xlink:title=" ">
<polygon fill="#bfbfbf" stroke="black" points="227.5,-291.5 227.5,-321.5 323.5,-321.5 323.5,-291.5 227.5,-291.5"/>
<text text-anchor="start" x="235.5" y="-309.5" font-family="Helvetica,sans-Serif" font-size="10.00">src/engine/objects</text>
<text text-anchor="middle" x="275.5" y="-298.5" font-family="Helvetica,sans-Serif" font-size="10.00">/Cell.cpp</text>
</a>
</g>
</g>
<!-- Node2 -->
<g id="node2" class="node">
<title>Node2</title>
<g id="a_node2"><a xlink:href="_cell_8hpp.html" target="_top" xlink:title=" ">
<polygon fill="white" stroke="black" points="84,-230 84,-249 201,-249 201,-230 84,-230"/>
<text text-anchor="middle" x="142.5" y="-237" font-family="Helvetica,sans-Serif" font-size="10.00">engine/objects/Cell.hpp</text>
</a>
</g>
</g>
<!-- Node1&#45;&gt;Node2 -->
<g id="edge1" class="edge">
<title>Node1&#45;&gt;Node2</title>
<path fill="none" stroke="midnightblue" d="M246.64,-291.4C223.61,-280.14 191.61,-264.5 169.18,-253.54"/>
<polygon fill="midnightblue" stroke="midnightblue" points="170.43,-250.25 159.91,-249.01 167.35,-256.54 170.43,-250.25"/>
</g>
<!-- Node13 -->
<g id="node13" class="node">
<title>Node13</title>
<g id="a_node13"><a xlink:title=" ">
<polygon fill="white" stroke="#bfbfbf" points="349.5,-230 349.5,-249 403.5,-249 403.5,-230 349.5,-230"/>
<text text-anchor="middle" x="376.5" y="-237" font-family="Helvetica,sans-Serif" font-size="10.00">iostream</text>
</a>
</g>
</g>
<!-- Node1&#45;&gt;Node13 -->
<g id="edge16" class="edge">
<title>Node1&#45;&gt;Node13</title>
<path fill="none" stroke="midnightblue" d="M297.42,-291.4C314.35,-280.5 337.69,-265.48 354.62,-254.58"/>
<polygon fill="midnightblue" stroke="midnightblue" points="356.77,-257.36 363.28,-249.01 352.98,-251.48 356.77,-257.36"/>
</g>
<!-- Node14 -->
<g id="node14" class="node">
<title>Node14</title>
<g id="a_node14"><a xlink:href="_ground_earth_8hpp.html" target="_top" xlink:title=" ">
<polygon fill="white" stroke="black" points="219.5,-224.5 219.5,-254.5 331.5,-254.5 331.5,-224.5 219.5,-224.5"/>
<text text-anchor="start" x="227.5" y="-242.5" font-family="Helvetica,sans-Serif" font-size="10.00">engine/objects/ground</text>
<text text-anchor="middle" x="275.5" y="-231.5" font-family="Helvetica,sans-Serif" font-size="10.00">/GroundEarth.hpp</text>
</a>
</g>
</g>
<!-- Node1&#45;&gt;Node14 -->
<g id="edge17" class="edge">
<title>Node1&#45;&gt;Node14</title>
<path fill="none" stroke="midnightblue" d="M275.5,-291.4C275.5,-283.64 275.5,-273.81 275.5,-264.86"/>
<polygon fill="midnightblue" stroke="midnightblue" points="279,-264.58 275.5,-254.58 272,-264.58 279,-264.58"/>
</g>
<!-- Node3 -->
<g id="node3" class="node">
<title>Node3</title>
<g id="a_node3"><a xlink:href="_drawable_8hpp.html" target="_top" xlink:title=" ">
<polygon fill="white" stroke="black" points="82,-112.5 82,-131.5 189,-131.5 189,-112.5 82,-112.5"/>
<text text-anchor="middle" x="135.5" y="-119.5" font-family="Helvetica,sans-Serif" font-size="10.00">engine/Drawable.hpp</text>
</a>
</g>
</g>
<!-- Node2&#45;&gt;Node3 -->
<g id="edge2" class="edge">
<title>Node2&#45;&gt;Node3</title>
<path fill="none" stroke="midnightblue" d="M142.48,-229.81C142.41,-216.49 142.05,-190.23 140.5,-168 139.9,-159.37 138.89,-149.83 137.94,-141.77"/>
<polygon fill="midnightblue" stroke="midnightblue" points="141.38,-141.1 136.67,-131.61 134.43,-141.96 141.38,-141.1"/>
</g>
<!-- Node8 -->
<g id="node8" class="node">
<title>Node8</title>
<g id="a_node8"><a xlink:href="_tickable_8hpp.html" target="_top" xlink:title=" ">
<polygon fill="white" stroke="black" points="207,-112.5 207,-131.5 310,-131.5 310,-112.5 207,-112.5"/>
<text text-anchor="middle" x="258.5" y="-119.5" font-family="Helvetica,sans-Serif" font-size="10.00">engine/Tickable.hpp</text>
</a>
</g>
</g>
<!-- Node2&#45;&gt;Node8 -->
<g id="edge7" class="edge">
<title>Node2&#45;&gt;Node8</title>
<path fill="none" stroke="midnightblue" d="M151.22,-229.82C170.62,-210.5 217.59,-163.74 242.45,-138.98"/>
<polygon fill="midnightblue" stroke="midnightblue" points="245.06,-141.32 249.68,-131.78 240.12,-136.36 245.06,-141.32"/>
</g>
<!-- Node9 -->
<g id="node9" class="node">
<title>Node9</title>
<g id="a_node9"><a xlink:title=" ">
<polygon fill="white" stroke="#bfbfbf" points="87.5,-168.5 87.5,-187.5 131.5,-187.5 131.5,-168.5 87.5,-168.5"/>
<text text-anchor="middle" x="109.5" y="-175.5" font-family="Helvetica,sans-Serif" font-size="10.00">vector</text>
</a>
</g>
</g>
<!-- Node2&#45;&gt;Node9 -->
<g id="edge8" class="edge">
<title>Node2&#45;&gt;Node9</title>
<path fill="none" stroke="midnightblue" d="M137.77,-229.98C132.92,-221.23 125.23,-207.37 119.1,-196.31"/>
<polygon fill="midnightblue" stroke="midnightblue" points="122.13,-194.56 114.22,-187.51 116.01,-197.95 122.13,-194.56"/>
</g>
<!-- Node10 -->
<g id="node10" class="node">
<title>Node10</title>
<g id="a_node10"><a xlink:href="_ground_8hpp.html" target="_top" xlink:title=" ">
<polygon fill="white" stroke="black" points="225.5,-168.5 225.5,-187.5 291.5,-187.5 291.5,-168.5 225.5,-168.5"/>
<text text-anchor="middle" x="258.5" y="-175.5" font-family="Helvetica,sans-Serif" font-size="10.00">Ground.hpp</text>
</a>
</g>
</g>
<!-- Node2&#45;&gt;Node10 -->
<g id="edge9" class="edge">
<title>Node2&#45;&gt;Node10</title>
<path fill="none" stroke="midnightblue" d="M159.12,-229.98C178.42,-220.08 210.46,-203.64 232.93,-192.12"/>
<polygon fill="midnightblue" stroke="midnightblue" points="234.61,-195.19 241.91,-187.51 231.42,-188.96 234.61,-195.19"/>
</g>
<!-- Node11 -->
<g id="node11" class="node">
<title>Node11</title>
<g id="a_node11"><a xlink:href="_building_8hpp.html" target="_top" xlink:title=" ">
<polygon fill="white" stroke="black" points="0,-168.5 0,-187.5 69,-187.5 69,-168.5 0,-168.5"/>
<text text-anchor="middle" x="34.5" y="-175.5" font-family="Helvetica,sans-Serif" font-size="10.00">Building.hpp</text>
</a>
</g>
</g>
<!-- Node2&#45;&gt;Node11 -->
<g id="edge12" class="edge">
<title>Node2&#45;&gt;Node11</title>
<path fill="none" stroke="midnightblue" d="M127.03,-229.98C109.22,-220.17 79.76,-203.93 58.87,-192.42"/>
<polygon fill="midnightblue" stroke="midnightblue" points="60.39,-189.27 49.95,-187.51 57.01,-195.4 60.39,-189.27"/>
</g>
<!-- Node4 -->
<g id="node4" class="node">
<title>Node4</title>
<g id="a_node4"><a xlink:title=" ">
<polygon fill="white" stroke="#bfbfbf" points="48.5,-56.5 48.5,-75.5 114.5,-75.5 114.5,-56.5 48.5,-56.5"/>
<text text-anchor="middle" x="81.5" y="-63.5" font-family="Helvetica,sans-Serif" font-size="10.00">string_view</text>
</a>
</g>
</g>
<!-- Node3&#45;&gt;Node4 -->
<g id="edge3" class="edge">
<title>Node3&#45;&gt;Node4</title>
<path fill="none" stroke="midnightblue" d="M126.58,-112.08C118.72,-104.22 107.07,-92.57 97.58,-83.08"/>
<polygon fill="midnightblue" stroke="midnightblue" points="99.8,-80.35 90.25,-75.75 94.85,-85.3 99.8,-80.35"/>
</g>
<!-- Node5 -->
<g id="node5" class="node">
<title>Node5</title>
<g id="a_node5"><a xlink:href="_vector2_d_8hpp.html" target="_top" xlink:title=" ">
<polygon fill="white" stroke="black" points="132.5,-56.5 132.5,-75.5 244.5,-75.5 244.5,-56.5 132.5,-56.5"/>
<text text-anchor="middle" x="188.5" y="-63.5" font-family="Helvetica,sans-Serif" font-size="10.00">Helpers/Vector2D.hpp</text>
</a>
</g>
</g>
<!-- Node3&#45;&gt;Node5 -->
<g id="edge4" class="edge">
<title>Node3&#45;&gt;Node5</title>
<path fill="none" stroke="midnightblue" d="M144.25,-112.08C151.97,-104.22 163.4,-92.57 172.72,-83.08"/>
<polygon fill="midnightblue" stroke="midnightblue" points="175.4,-85.34 179.91,-75.75 170.41,-80.44 175.4,-85.34"/>
</g>
<!-- Node6 -->
<g id="node6" class="node">
<title>Node6</title>
<g id="a_node6"><a xlink:title=" ">
<polygon fill="white" stroke="#bfbfbf" points="139,-0.5 139,-19.5 178,-19.5 178,-0.5 139,-0.5"/>
<text text-anchor="middle" x="158.5" y="-7.5" font-family="Helvetica,sans-Serif" font-size="10.00">utility</text>
</a>
</g>
</g>
<!-- Node5&#45;&gt;Node6 -->
<g id="edge5" class="edge">
<title>Node5&#45;&gt;Node6</title>
<path fill="none" stroke="midnightblue" d="M183.55,-56.08C179.4,-48.61 173.35,-37.72 168.23,-28.52"/>
<polygon fill="midnightblue" stroke="midnightblue" points="171.28,-26.79 163.36,-19.75 165.16,-30.19 171.28,-26.79"/>
</g>
<!-- Node7 -->
<g id="node7" class="node">
<title>Node7</title>
<g id="a_node7"><a xlink:title=" ">
<polygon fill="white" stroke="#bfbfbf" points="196.5,-0.5 196.5,-19.5 240.5,-19.5 240.5,-0.5 196.5,-0.5"/>
<text text-anchor="middle" x="218.5" y="-7.5" font-family="Helvetica,sans-Serif" font-size="10.00">cmath</text>
</a>
</g>
</g>
<!-- Node5&#45;&gt;Node7 -->
<g id="edge6" class="edge">
<title>Node5&#45;&gt;Node7</title>
<path fill="none" stroke="midnightblue" d="M193.45,-56.08C197.6,-48.61 203.65,-37.72 208.77,-28.52"/>
<polygon fill="midnightblue" stroke="midnightblue" points="211.84,-30.19 213.64,-19.75 205.72,-26.79 211.84,-30.19"/>
</g>
<!-- Node10&#45;&gt;Node3 -->
<g id="edge10" class="edge">
<title>Node10&#45;&gt;Node3</title>
<path fill="none" stroke="midnightblue" d="M239.01,-168.44C218.86,-159.6 187.18,-145.69 164.17,-135.59"/>
<polygon fill="midnightblue" stroke="midnightblue" points="165.46,-132.33 154.9,-131.52 162.65,-138.74 165.46,-132.33"/>
</g>
<!-- Node10&#45;&gt;Node8 -->
<g id="edge11" class="edge">
<title>Node10&#45;&gt;Node8</title>
<path fill="none" stroke="midnightblue" d="M258.5,-168.08C258.5,-161.01 258.5,-150.86 258.5,-141.99"/>
<polygon fill="midnightblue" stroke="midnightblue" points="262,-141.75 258.5,-131.75 255,-141.75 262,-141.75"/>
</g>
<!-- Node11&#45;&gt;Node3 -->
<g id="edge13" class="edge">
<title>Node11&#45;&gt;Node3</title>
<path fill="none" stroke="midnightblue" d="M50.73,-168.32C66.85,-159.7 91.8,-146.36 110.46,-136.39"/>
<polygon fill="midnightblue" stroke="midnightblue" points="112.14,-139.46 119.31,-131.65 108.84,-133.28 112.14,-139.46"/>
</g>
<!-- Node11&#45;&gt;Node8 -->
<g id="edge14" class="edge">
<title>Node11&#45;&gt;Node8</title>
<path fill="none" stroke="midnightblue" d="M69.01,-168.68C107.75,-159.34 170.76,-144.15 213.38,-133.88"/>
<polygon fill="midnightblue" stroke="midnightblue" points="214.31,-137.25 223.21,-131.51 212.67,-130.45 214.31,-137.25"/>
</g>
<!-- Node12 -->
<g id="node12" class="node">
<title>Node12</title>
<g id="a_node12"><a xlink:title=" ">
<polygon fill="white" stroke="#bfbfbf" points="5,-112.5 5,-131.5 64,-131.5 64,-112.5 5,-112.5"/>
<text text-anchor="middle" x="34.5" y="-119.5" font-family="Helvetica,sans-Serif" font-size="10.00">functional</text>
</a>
</g>
</g>
<!-- Node11&#45;&gt;Node12 -->
<g id="edge15" class="edge">
<title>Node11&#45;&gt;Node12</title>
<path fill="none" stroke="midnightblue" d="M34.5,-168.08C34.5,-161.01 34.5,-150.86 34.5,-141.99"/>
<polygon fill="midnightblue" stroke="midnightblue" points="38,-141.75 34.5,-131.75 31,-141.75 38,-141.75"/>
</g>
<!-- Node14&#45;&gt;Node10 -->
<g id="edge18" class="edge">
<title>Node14&#45;&gt;Node10</title>
<path fill="none" stroke="midnightblue" d="M271.47,-224.4C269.15,-216.29 266.22,-206.01 263.72,-197.28"/>
<polygon fill="midnightblue" stroke="midnightblue" points="267.09,-196.31 260.97,-187.66 260.36,-198.23 267.09,-196.31"/>
</g>
</g>
</svg>
