<?xml version="1.0" encoding="UTF-8" standalone="no"?>
<!DOCTYPE svg PUBLIC "-//W3C//DTD SVG 1.1//EN"
 "http://www.w3.org/Graphics/SVG/1.1/DTD/svg11.dtd">
<!-- Generated by graphviz version 2.47.0 (20210407.0042)
 -->
<!-- Title: include/engine/objects/Cell.hpp Pages: 1 -->
<svg width="332pt" height="263pt"
 viewBox="0.00 0.00 332.00 263.00" xmlns="http://www.w3.org/2000/svg" xmlns:xlink="http://www.w3.org/1999/xlink">
<g id="graph0" class="graph" transform="scale(1 1) rotate(0) translate(4 259)">
<title>include/engine/objects/Cell.hpp</title>
<polygon fill="white" stroke="transparent" points="-4,4 -4,-259 328,-259 328,4 -4,4"/>
<!-- Node1 -->
<g id="node1" class="node">
<title>Node1</title>
<g id="a_node1"><a xlink:title=" ">
<polygon fill="#bfbfbf" stroke="black" points="134.5,-224.5 134.5,-254.5 247.5,-254.5 247.5,-224.5 134.5,-224.5"/>
<text text-anchor="start" x="142.5" y="-242.5" font-family="Helvetica,sans-Serif" font-size="10.00">include/engine/objects</text>
<text text-anchor="middle" x="191" y="-231.5" font-family="Helvetica,sans-Serif" font-size="10.00">/Cell.hpp</text>
</a>
</g>
</g>
<!-- Node2 -->
<g id="node2" class="node">
<title>Node2</title>
<g id="a_node2"><a xlink:href="_drawable_8hpp.html" target="_top" xlink:title=" ">
<polygon fill="white" stroke="black" points="32.5,-112.5 32.5,-131.5 139.5,-131.5 139.5,-112.5 32.5,-112.5"/>
<text text-anchor="middle" x="86" y="-119.5" font-family="Helvetica,sans-Serif" font-size="10.00">engine/Drawable.hpp</text>
</a>
</g>
</g>
<!-- Node1&#45;&gt;Node2 -->
<g id="edge1" class="edge">
<title>Node1&#45;&gt;Node2</title>
<path fill="none" stroke="midnightblue" d="M134.24,-231.07C107.63,-224.43 78.27,-211.84 62,-188 51.88,-173.17 61.72,-153.53 71.69,-139.73"/>
<polygon fill="midnightblue" stroke="midnightblue" points="74.63,-141.65 78.05,-131.62 69.13,-137.33 74.63,-141.65"/>
</g>
<!-- Node6 -->
<g id="node6" class="node">
<title>Node6</title>
<g id="a_node6"><a xlink:href="_tickable_8hpp.html" target="_top" xlink:title=" ">
<polygon fill="white" stroke="black" points="157.5,-112.5 157.5,-131.5 260.5,-131.5 260.5,-112.5 157.5,-112.5"/>
<text text-anchor="middle" x="209" y="-119.5" font-family="Helvetica,sans-Serif" font-size="10.00">engine/Tickable.hpp</text>
</a>
</g>
</g>
<!-- Node1&#45;&gt;Node6 -->
<g id="edge5" class="edge">
<title>Node1&#45;&gt;Node6</title>
<path fill="none" stroke="midnightblue" d="M207.41,-224.4C216.88,-215.14 227.88,-202.16 233,-188 238.86,-171.8 230.65,-153.38 222.28,-140.29"/>
<polygon fill="midnightblue" stroke="midnightblue" points="224.95,-138.01 216.35,-131.82 219.21,-142.02 224.95,-138.01"/>
</g>
<!-- Node7 -->
<g id="node7" class="node">
<title>Node7</title>
<g id="a_node7"><a xlink:title=" ">
<polygon fill="white" stroke="#bfbfbf" points="280,-168.5 280,-187.5 324,-187.5 324,-168.5 280,-168.5"/>
<text text-anchor="middle" x="302" y="-175.5" font-family="Helvetica,sans-Serif" font-size="10.00">vector</text>
</a>
</g>
</g>
<!-- Node1&#45;&gt;Node7 -->
<g id="edge6" class="edge">
<title>Node1&#45;&gt;Node7</title>
<path fill="none" stroke="midnightblue" d="M217.31,-224.4C235.26,-214.77 258.92,-202.09 276.67,-192.58"/>
<polygon fill="midnightblue" stroke="midnightblue" points="278.69,-195.47 285.85,-187.66 275.38,-189.3 278.69,-195.47"/>
</g>
<!-- Node8 -->
<g id="node8" class="node">
<title>Node8</title>
<g id="a_node8"><a xlink:href="_ground_8hpp.html" target="_top" xlink:title=" ">
<polygon fill="white" stroke="black" points="158,-168.5 158,-187.5 224,-187.5 224,-168.5 158,-168.5"/>
<text text-anchor="middle" x="191" y="-175.5" font-family="Helvetica,sans-Serif" font-size="10.00">Ground.hpp</text>
</a>
</g>
</g>
<!-- Node1&#45;&gt;Node8 -->
<g id="edge7" class="edge">
<title>Node1&#45;&gt;Node8</title>
<path fill="none" stroke="midnightblue" d="M191,-224.4C191,-216.47 191,-206.46 191,-197.86"/>
<polygon fill="midnightblue" stroke="midnightblue" points="194.5,-197.66 191,-187.66 187.5,-197.66 194.5,-197.66"/>
</g>
<!-- Node9 -->
<g id="node9" class="node">
<title>Node9</title>
<g id="a_node9"><a xlink:href="_building_8hpp.html" target="_top" xlink:title=" ">
<polygon fill="white" stroke="black" points="70.5,-168.5 70.5,-187.5 139.5,-187.5 139.5,-168.5 70.5,-168.5"/>
<text text-anchor="middle" x="105" y="-175.5" font-family="Helvetica,sans-Serif" font-size="10.00">Building.hpp</text>
</a>
</g>
</g>
<!-- Node1&#45;&gt;Node9 -->
<g id="edge10" class="edge">
<title>Node1&#45;&gt;Node9</title>
<path fill="none" stroke="midnightblue" d="M170.62,-224.4C157.09,-215.04 139.39,-202.79 125.78,-193.38"/>
<polygon fill="midnightblue" stroke="midnightblue" points="127.73,-190.47 117.51,-187.66 123.75,-196.23 127.73,-190.47"/>
</g>
<!-- Node3 -->
<g id="node3" class="node">
<title>Node3</title>
<g id="a_node3"><a xlink:title=" ">
<polygon fill="white" stroke="#bfbfbf" points="0,-56.5 0,-75.5 66,-75.5 66,-56.5 0,-56.5"/>
<text text-anchor="middle" x="33" y="-63.5" font-family="Helvetica,sans-Serif" font-size="10.00">string_view</text>
</a>
</g>
</g>
<!-- Node2&#45;&gt;Node3 -->
<g id="edge2" class="edge">
<title>Node2&#45;&gt;Node3</title>
<path fill="none" stroke="midnightblue" d="M77.25,-112.08C69.53,-104.22 58.1,-92.57 48.78,-83.08"/>
<polygon fill="midnightblue" stroke="midnightblue" points="51.09,-80.44 41.59,-75.75 46.1,-85.34 51.09,-80.44"/>
</g>
<!-- Node4 -->
<g id="node4" class="node">
<title>Node4</title>
<g id="a_node4"><a xlink:href="_vector2_d_8hpp.html" target="_top" xlink:title=" ">
<polygon fill="white" stroke="black" points="84,-56.5 84,-75.5 196,-75.5 196,-56.5 84,-56.5"/>
<text text-anchor="middle" x="140" y="-63.5" font-family="Helvetica,sans-Serif" font-size="10.00">Helpers/Vector2D.hpp</text>
</a>
</g>
</g>
<!-- Node2&#45;&gt;Node4 -->
<g id="edge3" class="edge">
<title>Node2&#45;&gt;Node4</title>
<path fill="none" stroke="midnightblue" d="M94.92,-112.08C102.78,-104.22 114.43,-92.57 123.92,-83.08"/>
<polygon fill="midnightblue" stroke="midnightblue" points="126.65,-85.3 131.25,-75.75 121.7,-80.35 126.65,-85.3"/>
</g>
<!-- Node5 -->
<g id="node5" class="node">
<title>Node5</title>
<g id="a_node5"><a xlink:title=" ">
<polygon fill="white" stroke="#bfbfbf" points="120.5,-0.5 120.5,-19.5 159.5,-19.5 159.5,-0.5 120.5,-0.5"/>
<text text-anchor="middle" x="140" y="-7.5" font-family="Helvetica,sans-Serif" font-size="10.00">utility</text>
</a>
</g>
</g>
<!-- Node4&#45;&gt;Node5 -->
<g id="edge4" class="edge">
<title>Node4&#45;&gt;Node5</title>
<path fill="none" stroke="midnightblue" d="M140,-56.08C140,-49.01 140,-38.86 140,-29.99"/>
<polygon fill="midnightblue" stroke="midnightblue" points="143.5,-29.75 140,-19.75 136.5,-29.75 143.5,-29.75"/>
</g>
<!-- Node8&#45;&gt;Node2 -->
<g id="edge8" class="edge">
<title>Node8&#45;&gt;Node2</title>
<path fill="none" stroke="midnightblue" d="M174.13,-168.32C157.29,-159.66 131.19,-146.24 111.76,-136.25"/>
<polygon fill="midnightblue" stroke="midnightblue" points="113.32,-133.12 102.83,-131.65 110.12,-139.34 113.32,-133.12"/>
</g>
<!-- Node8&#45;&gt;Node6 -->
<g id="edge9" class="edge">
<title>Node8&#45;&gt;Node6</title>
<path fill="none" stroke="midnightblue" d="M193.97,-168.08C196.38,-160.85 199.86,-150.41 202.87,-141.4"/>
<polygon fill="midnightblue" stroke="midnightblue" points="206.24,-142.34 206.08,-131.75 199.6,-140.13 206.24,-142.34"/>
</g>
<!-- Node9&#45;&gt;Node2 -->
<g id="edge11" class="edge">
<title>Node9&#45;&gt;Node2</title>
<path fill="none" stroke="midnightblue" d="M101.86,-168.08C99.32,-160.85 95.64,-150.41 92.47,-141.4"/>
<polygon fill="midnightblue" stroke="midnightblue" points="95.7,-140.02 89.08,-131.75 89.1,-142.35 95.7,-140.02"/>
</g>
<!-- Node9&#45;&gt;Node6 -->
<g id="edge12" class="edge">
<title>Node9&#45;&gt;Node6</title>
<path fill="none" stroke="midnightblue" d="M121.71,-168.32C138.31,-159.7 164,-146.36 183.22,-136.39"/>
<polygon fill="midnightblue" stroke="midnightblue" points="185.07,-139.37 192.33,-131.65 181.84,-133.16 185.07,-139.37"/>
</g>
</g>
</svg>
