<?xml version="1.0" encoding="UTF-8" standalone="no"?>
<!DOCTYPE svg PUBLIC "-//W3C//DTD SVG 1.1//EN"
 "http://www.w3.org/Graphics/SVG/1.1/DTD/svg11.dtd">
<!-- Generated by graphviz version 2.47.0 (20210407.0042)
 -->
<!-- Title: src/Console.cpp Pages: 1 -->
<svg width="266pt" height="140pt"
 viewBox="0.00 0.00 265.50 140.00" xmlns="http://www.w3.org/2000/svg" xmlns:xlink="http://www.w3.org/1999/xlink">
<g id="graph0" class="graph" transform="scale(1 1) rotate(0) translate(4 136)">
<title>src/Console.cpp</title>
<polygon fill="white" stroke="transparent" points="-4,4 -4,-136 261.5,-136 261.5,4 -4,4"/>
<!-- Node1 -->
<g id="node1" class="node">
<title>Node1</title>
<g id="a_node1"><a xlink:title=" ">
<polygon fill="#bfbfbf" stroke="black" points="69.5,-112.5 69.5,-131.5 155.5,-131.5 155.5,-112.5 69.5,-112.5"/>
<text text-anchor="middle" x="112.5" y="-119.5" font-family="Helvetica,sans-Serif" font-size="10.00">src/Console.cpp</text>
</a>
</g>
</g>
<!-- Node2 -->
<g id="node2" class="node">
<title>Node2</title>
<g id="a_node2"><a xlink:href="_console_8hpp.html" target="_top" xlink:title=" ">
<polygon fill="white" stroke="black" points="77.5,-56.5 77.5,-75.5 147.5,-75.5 147.5,-56.5 77.5,-56.5"/>
<text text-anchor="middle" x="112.5" y="-63.5" font-family="Helvetica,sans-Serif" font-size="10.00">Console.hpp</text>
</a>
</g>
</g>
<!-- Node1&#45;&gt;Node2 -->
<g id="edge1" class="edge">
<title>Node1&#45;&gt;Node2</title>
<path fill="none" stroke="midnightblue" d="M112.5,-112.08C112.5,-105.01 112.5,-94.86 112.5,-85.99"/>
<polygon fill="midnightblue" stroke="midnightblue" points="116,-85.75 112.5,-75.75 109,-85.75 116,-85.75"/>
</g>
<!-- Node3 -->
<g id="node3" class="node">
<title>Node3</title>
<g id="a_node3"><a xlink:title=" ">
<polygon fill="white" stroke="#bfbfbf" points="0,-0.5 0,-19.5 39,-19.5 39,-0.5 0,-0.5"/>
<text text-anchor="middle" x="19.5" y="-7.5" font-family="Helvetica,sans-Serif" font-size="10.00">utility</text>
</a>
</g>
</g>
<!-- Node2&#45;&gt;Node3 -->
<g id="edge2" class="edge">
<title>Node2&#45;&gt;Node3</title>
<path fill="none" stroke="midnightblue" d="M97.56,-56.32C82.91,-47.82 60.37,-34.73 43.26,-24.8"/>
<polygon fill="midnightblue" stroke="midnightblue" points="44.81,-21.65 34.4,-19.65 41.3,-27.7 44.81,-21.65"/>
</g>
<!-- Node4 -->
<g id="node4" class="node">
<title>Node4</title>
<g id="a_node4"><a xlink:title=" ">
<polygon fill="white" stroke="#bfbfbf" points="57.5,-0.5 57.5,-19.5 101.5,-19.5 101.5,-0.5 57.5,-0.5"/>
<text text-anchor="middle" x="79.5" y="-7.5" font-family="Helvetica,sans-Serif" font-size="10.00">vector</text>
</a>
</g>
</g>
<!-- Node2&#45;&gt;Node4 -->
<g id="edge3" class="edge">
<title>Node2&#45;&gt;Node4</title>
<path fill="none" stroke="midnightblue" d="M107.05,-56.08C102.49,-48.61 95.83,-37.72 90.21,-28.52"/>
<polygon fill="midnightblue" stroke="midnightblue" points="93.05,-26.46 84.85,-19.75 87.08,-30.11 93.05,-26.46"/>
</g>
<!-- Node5 -->
<g id="node5" class="node">
<title>Node5</title>
<g id="a_node5"><a xlink:title=" ">
<polygon fill="white" stroke="#bfbfbf" points="119.5,-0.5 119.5,-19.5 173.5,-19.5 173.5,-0.5 119.5,-0.5"/>
<text text-anchor="middle" x="146.5" y="-7.5" font-family="Helvetica,sans-Serif" font-size="10.00">iostream</text>
</a>
</g>
</g>
<!-- Node2&#45;&gt;Node5 -->
<g id="edge4" class="edge">
<title>Node2&#45;&gt;Node5</title>
<path fill="none" stroke="midnightblue" d="M118.11,-56.08C122.87,-48.53 129.82,-37.49 135.65,-28.23"/>
<polygon fill="midnightblue" stroke="midnightblue" points="138.62,-30.08 140.99,-19.75 132.7,-26.35 138.62,-30.08"/>
</g>
<!-- Node6 -->
<g id="node6" class="node">
<title>Node6</title>
<g id="a_node6"><a xlink:title=" ">
<polygon fill="white" stroke="#bfbfbf" points="191.5,-0.5 191.5,-19.5 257.5,-19.5 257.5,-0.5 191.5,-0.5"/>
<text text-anchor="middle" x="224.5" y="-7.5" font-family="Helvetica,sans-Serif" font-size="10.00">string_view</text>
</a>
</g>
</g>
<!-- Node2&#45;&gt;Node6 -->
<g id="edge5" class="edge">
<title>Node2&#45;&gt;Node6</title>
<path fill="none" stroke="midnightblue" d="M130.49,-56.32C148.54,-47.62 176.55,-34.12 197.3,-24.11"/>
<polygon fill="midnightblue" stroke="midnightblue" points="199.06,-27.15 206.55,-19.65 196.02,-20.84 199.06,-27.15"/>
</g>
</g>
</svg>
