<?xml version="1.0" encoding="UTF-8" standalone="no"?>
<!DOCTYPE svg PUBLIC "-//W3C//DTD SVG 1.1//EN"
 "http://www.w3.org/Graphics/SVG/1.1/DTD/svg11.dtd">
<!-- Generated by graphviz version 2.47.1 (20210421.1823)
 -->
<!-- Title: include/engine/Drawable.hpp Pages: 1 -->
<svg width="1073pt" height="542pt"
 viewBox="0.00 0.00 1072.50 542.00" xmlns="http://www.w3.org/2000/svg" xmlns:xlink="http://www.w3.org/1999/xlink">
<g id="graph0" class="graph" transform="scale(1 1) rotate(0) translate(4 538)">
<title>include/engine/Drawable.hpp</title>
<polygon fill="white" stroke="transparent" points="-4,4 -4,-538 1068.5,-538 1068.5,4 -4,4"/>
<!-- Node1 -->
<g id="node1" class="node">
<title>Node1</title>
<g id="a_node1"><a xlink:title=" ">
<polygon fill="#bfbfbf" stroke="black" points="149.5,-514.5 149.5,-533.5 289.5,-533.5 289.5,-514.5 149.5,-514.5"/>
<text text-anchor="middle" x="219.5" y="-521.5" font-family="Helvetica,sans-Serif" font-size="10.00">include/engine/Drawable.hpp</text>
</a>
</g>
</g>
<!-- Node2 -->
<g id="node2" class="node">
<title>Node2</title>
<g id="a_node2"><a xlink:href="_drawable_8cpp.html" target="_top" xlink:title=" ">
<polygon fill="white" stroke="black" points="0,-6 0,-25 123,-25 123,-6 0,-6"/>
<text text-anchor="middle" x="61.5" y="-13" font-family="Helvetica,sans-Serif" font-size="10.00">src/engine/Drawable.cpp</text>
</a>
</g>
</g>
<!-- Node1&#45;&gt;Node2 -->
<g id="edge1" class="edge">
<title>Node1&#45;&gt;Node2</title>
<path fill="none" stroke="midnightblue" d="M151.86,-512.04C126.32,-505.39 98.22,-494.8 76.5,-478 42.7,-451.86 25.5,-439.23 25.5,-396.5 25.5,-396.5 25.5,-396.5 25.5,-137.5 25.5,-93.67 47.47,-44.47 57.09,-25.04"/>
<polygon fill="midnightblue" stroke="midnightblue" points="151.33,-515.52 161.87,-514.49 152.99,-508.72 151.33,-515.52"/>
</g>
<!-- Node3 -->
<g id="node3" class="node">
<title>Node3</title>
<g id="a_node3"><a xlink:href="_building_8hpp.html" target="_top" xlink:title=" ">
<polygon fill="white" stroke="black" points="121,-447.5 121,-477.5 234,-477.5 234,-447.5 121,-447.5"/>
<text text-anchor="start" x="129" y="-465.5" font-family="Helvetica,sans-Serif" font-size="10.00">include/engine/objects</text>
<text text-anchor="middle" x="177.5" y="-454.5" font-family="Helvetica,sans-Serif" font-size="10.00">/Building.hpp</text>
</a>
</g>
</g>
<!-- Node1&#45;&gt;Node3 -->
<g id="edge2" class="edge">
<title>Node1&#45;&gt;Node3</title>
<path fill="none" stroke="midnightblue" d="M207.67,-506.25C201.28,-497.19 193.47,-486.12 187.4,-477.52"/>
<polygon fill="midnightblue" stroke="midnightblue" points="204.86,-508.32 213.48,-514.48 210.57,-504.29 204.86,-508.32"/>
</g>
<!-- Node5 -->
<g id="node5" class="node">
<title>Node5</title>
<g id="a_node5"><a xlink:href="_cell_8hpp.html" target="_top" xlink:title=" ">
<polygon fill="white" stroke="black" points="206,-380.5 206,-410.5 319,-410.5 319,-380.5 206,-380.5"/>
<text text-anchor="start" x="214" y="-398.5" font-family="Helvetica,sans-Serif" font-size="10.00">include/engine/objects</text>
<text text-anchor="middle" x="262.5" y="-387.5" font-family="Helvetica,sans-Serif" font-size="10.00">/Cell.hpp</text>
</a>
</g>
</g>
<!-- Node1&#45;&gt;Node5 -->
<g id="edge27" class="edge">
<title>Node1&#45;&gt;Node5</title>
<path fill="none" stroke="midnightblue" d="M230.21,-505.49C234.82,-497.36 239.96,-487.43 243.5,-478 252.09,-455.15 257.59,-427.19 260.35,-410.67"/>
<polygon fill="midnightblue" stroke="midnightblue" points="227.05,-503.96 224.99,-514.36 233.08,-507.52 227.05,-503.96"/>
</g>
<!-- Node11 -->
<g id="node11" class="node">
<title>Node11</title>
<g id="a_node11"><a xlink:href="_player_8hpp.html" target="_top" xlink:title=" ">
<polygon fill="white" stroke="black" points="54,-190.5 54,-220.5 167,-220.5 167,-190.5 54,-190.5"/>
<text text-anchor="start" x="62" y="-208.5" font-family="Helvetica,sans-Serif" font-size="10.00">include/engine/objects</text>
<text text-anchor="middle" x="110.5" y="-197.5" font-family="Helvetica,sans-Serif" font-size="10.00">/Player.hpp</text>
</a>
</g>
</g>
<!-- Node1&#45;&gt;Node11 -->
<g id="edge44" class="edge">
<title>Node1&#45;&gt;Node11</title>
<path fill="none" stroke="midnightblue" d="M174.39,-511.41C153.51,-504.35 129.42,-493.61 111.5,-478 79.8,-450.39 63.5,-438.54 63.5,-396.5 63.5,-396.5 63.5,-396.5 63.5,-327.5 63.5,-286.48 87.26,-242.63 100.99,-220.7"/>
<polygon fill="midnightblue" stroke="midnightblue" points="173.44,-514.78 184.03,-514.49 175.58,-508.11 173.44,-514.78"/>
</g>
<!-- Node22 -->
<g id="node22" class="node">
<title>Node22</title>
<g id="a_node22"><a xlink:href="_ground_8hpp.html" target="_top" xlink:title=" ">
<polygon fill="white" stroke="black" points="457,-447.5 457,-477.5 570,-477.5 570,-447.5 457,-447.5"/>
<text text-anchor="start" x="465" y="-465.5" font-family="Helvetica,sans-Serif" font-size="10.00">include/engine/objects</text>
<text text-anchor="middle" x="513.5" y="-454.5" font-family="Helvetica,sans-Serif" font-size="10.00">/Ground.hpp</text>
</a>
</g>
</g>
<!-- Node1&#45;&gt;Node22 -->
<g id="edge28" class="edge">
<title>Node1&#45;&gt;Node22</title>
<path fill="none" stroke="midnightblue" d="M271.64,-512.45C323.64,-501.92 403.3,-485.8 456.84,-474.97"/>
<polygon fill="midnightblue" stroke="midnightblue" points="270.73,-509.06 261.62,-514.48 272.12,-515.92 270.73,-509.06"/>
</g>
<!-- Node32 -->
<g id="node32" class="node">
<title>Node32</title>
<g id="a_node32"><a xlink:href="_g_u_i_manager_8hpp.html" target="_top" xlink:title=" ">
<polygon fill="white" stroke="black" points="595,-67.5 595,-86.5 740,-86.5 740,-67.5 595,-67.5"/>
<text text-anchor="middle" x="667.5" y="-74.5" font-family="Helvetica,sans-Serif" font-size="10.00">include/GUI/GUIManager.hpp</text>
</a>
</g>
</g>
<!-- Node1&#45;&gt;Node32 -->
<g id="edge45" class="edge">
<title>Node1&#45;&gt;Node32</title>
<path fill="none" stroke="midnightblue" d="M299.81,-519.34C510.78,-508.67 1064.5,-473.35 1064.5,-396.5 1064.5,-396.5 1064.5,-396.5 1064.5,-204.5 1064.5,-137.23 854.93,-100.93 740.32,-86.11"/>
<polygon fill="midnightblue" stroke="midnightblue" points="299.54,-515.85 289.73,-519.85 299.89,-522.84 299.54,-515.85"/>
</g>
<!-- Node4 -->
<g id="node4" class="node">
<title>Node4</title>
<g id="a_node4"><a xlink:href="_building_8cpp.html" target="_top" xlink:title=" ">
<polygon fill="white" stroke="black" points="91.5,-380.5 91.5,-410.5 187.5,-410.5 187.5,-380.5 91.5,-380.5"/>
<text text-anchor="start" x="99.5" y="-398.5" font-family="Helvetica,sans-Serif" font-size="10.00">src/engine/objects</text>
<text text-anchor="middle" x="139.5" y="-387.5" font-family="Helvetica,sans-Serif" font-size="10.00">/Building.cpp</text>
</a>
</g>
</g>
<!-- Node3&#45;&gt;Node4 -->
<g id="edge3" class="edge">
<title>Node3&#45;&gt;Node4</title>
<path fill="none" stroke="midnightblue" d="M164.1,-438.58C158.64,-429.24 152.51,-418.75 147.73,-410.58"/>
<polygon fill="midnightblue" stroke="midnightblue" points="161.19,-440.53 169.25,-447.4 167.23,-437 161.19,-440.53"/>
</g>
<!-- Node3&#45;&gt;Node5 -->
<g id="edge4" class="edge">
<title>Node3&#45;&gt;Node5</title>
<path fill="none" stroke="midnightblue" d="M204.09,-441.17C217.09,-431.23 232.4,-419.51 244.09,-410.58"/>
<polygon fill="midnightblue" stroke="midnightblue" points="201.76,-438.54 195.94,-447.4 206.01,-444.1 201.76,-438.54"/>
</g>
<!-- Node6 -->
<g id="node6" class="node">
<title>Node6</title>
<g id="a_node6"><a xlink:href="_cell_8cpp.html" target="_top" xlink:title=" ">
<polygon fill="white" stroke="black" points="231.5,-313.5 231.5,-343.5 327.5,-343.5 327.5,-313.5 231.5,-313.5"/>
<text text-anchor="start" x="239.5" y="-331.5" font-family="Helvetica,sans-Serif" font-size="10.00">src/engine/objects</text>
<text text-anchor="middle" x="279.5" y="-320.5" font-family="Helvetica,sans-Serif" font-size="10.00">/Cell.cpp</text>
</a>
</g>
</g>
<!-- Node5&#45;&gt;Node6 -->
<g id="edge5" class="edge">
<title>Node5&#45;&gt;Node6</title>
<path fill="none" stroke="midnightblue" d="M268.73,-370.7C271.11,-361.59 273.75,-351.49 275.82,-343.58"/>
<polygon fill="midnightblue" stroke="midnightblue" points="265.33,-369.84 266.19,-380.4 272.11,-371.61 265.33,-369.84"/>
</g>
<!-- Node7 -->
<g id="node7" class="node">
<title>Node7</title>
<g id="a_node7"><a xlink:href="_field_8hpp.html" target="_top" xlink:title=" ">
<polygon fill="white" stroke="black" points="92,-319 92,-338 213,-338 213,-319 92,-319"/>
<text text-anchor="middle" x="152.5" y="-326" font-family="Helvetica,sans-Serif" font-size="10.00">include/engine/Field.hpp</text>
</a>
</g>
</g>
<!-- Node5&#45;&gt;Node7 -->
<g id="edge6" class="edge">
<title>Node5&#45;&gt;Node7</title>
<path fill="none" stroke="midnightblue" d="M230.02,-375.31C209.07,-362.93 182.84,-347.43 166.9,-338.01"/>
<polygon fill="midnightblue" stroke="midnightblue" points="228.24,-378.32 238.63,-380.4 231.8,-372.3 228.24,-378.32"/>
</g>
<!-- Node20 -->
<g id="node20" class="node">
<title>Node20</title>
<g id="a_node20"><a xlink:href="_sprites_manager_8hpp.html" target="_top" xlink:title=" ">
<polygon fill="white" stroke="black" points="488,-319 488,-338 625,-338 625,-319 488,-319"/>
<text text-anchor="middle" x="556.5" y="-326" font-family="Helvetica,sans-Serif" font-size="10.00">include/SpritesManager.hpp</text>
</a>
</g>
</g>
<!-- Node5&#45;&gt;Node20 -->
<g id="edge23" class="edge">
<title>Node5&#45;&gt;Node20</title>
<path fill="none" stroke="midnightblue" d="M329.03,-379.79C387.26,-366.92 469.82,-348.66 517.8,-338.06"/>
<polygon fill="midnightblue" stroke="midnightblue" points="328.19,-376.39 319.19,-381.97 329.71,-383.23 328.19,-376.39"/>
</g>
<!-- Node8 -->
<g id="node8" class="node">
<title>Node8</title>
<g id="a_node8"><a xlink:href="_field_8cpp.html" target="_top" xlink:title=" ">
<polygon fill="white" stroke="black" points="279.5,-257.5 279.5,-276.5 383.5,-276.5 383.5,-257.5 279.5,-257.5"/>
<text text-anchor="middle" x="331.5" y="-264.5" font-family="Helvetica,sans-Serif" font-size="10.00">src/engine/Field.cpp</text>
</a>
</g>
</g>
<!-- Node7&#45;&gt;Node8 -->
<g id="edge7" class="edge">
<title>Node7&#45;&gt;Node8</title>
<path fill="none" stroke="midnightblue" d="M187.9,-315.73C222.7,-304.17 274.95,-286.8 305.9,-276.51"/>
<polygon fill="midnightblue" stroke="midnightblue" points="186.53,-312.5 178.15,-318.98 188.74,-319.14 186.53,-312.5"/>
</g>
<!-- Node9 -->
<g id="node9" class="node">
<title>Node9</title>
<g id="a_node9"><a xlink:href="_world_actor_8hpp.html" target="_top" xlink:title=" ">
<polygon fill="white" stroke="black" points="99.5,-257.5 99.5,-276.5 247.5,-276.5 247.5,-257.5 99.5,-257.5"/>
<text text-anchor="middle" x="173.5" y="-264.5" font-family="Helvetica,sans-Serif" font-size="10.00">include/engine/WorldActor.hpp</text>
</a>
</g>
</g>
<!-- Node7&#45;&gt;Node9 -->
<g id="edge8" class="edge">
<title>Node7&#45;&gt;Node9</title>
<path fill="none" stroke="midnightblue" d="M158.85,-309.5C162.72,-298.55 167.47,-285.07 170.5,-276.51"/>
<polygon fill="midnightblue" stroke="midnightblue" points="155.54,-308.38 155.51,-318.98 162.14,-310.71 155.54,-308.38"/>
</g>
<!-- Node10 -->
<g id="node10" class="node">
<title>Node10</title>
<g id="a_node10"><a xlink:href="_world_actor_8cpp.html" target="_top" xlink:title=" ">
<polygon fill="white" stroke="black" points="316,-196 316,-215 447,-215 447,-196 316,-196"/>
<text text-anchor="middle" x="381.5" y="-203" font-family="Helvetica,sans-Serif" font-size="10.00">src/engine/WorldActor.cpp</text>
</a>
</g>
</g>
<!-- Node9&#45;&gt;Node10 -->
<g id="edge9" class="edge">
<title>Node9&#45;&gt;Node10</title>
<path fill="none" stroke="midnightblue" d="M213.09,-254.68C253.5,-243.11 315.33,-225.43 351.75,-215.01"/>
<polygon fill="midnightblue" stroke="midnightblue" points="211.95,-251.36 203.3,-257.48 213.88,-258.09 211.95,-251.36"/>
</g>
<!-- Node9&#45;&gt;Node11 -->
<g id="edge10" class="edge">
<title>Node9&#45;&gt;Node11</title>
<path fill="none" stroke="midnightblue" d="M156.95,-250.37C147.15,-241.11 134.83,-229.48 125.35,-220.52"/>
<polygon fill="midnightblue" stroke="midnightblue" points="154.8,-253.15 164.47,-257.48 159.61,-248.06 154.8,-253.15"/>
</g>
<!-- Node18 -->
<g id="node18" class="node">
<title>Node18</title>
<g id="a_node18"><a xlink:href="_unit_8hpp.html" target="_top" xlink:title=" ">
<polygon fill="white" stroke="black" points="185,-190.5 185,-220.5 298,-220.5 298,-190.5 185,-190.5"/>
<text text-anchor="start" x="193" y="-208.5" font-family="Helvetica,sans-Serif" font-size="10.00">include/engine/objects</text>
<text text-anchor="middle" x="241.5" y="-197.5" font-family="Helvetica,sans-Serif" font-size="10.00">/Unit.hpp</text>
</a>
</g>
</g>
<!-- Node9&#45;&gt;Node18 -->
<g id="edge18" class="edge">
<title>Node9&#45;&gt;Node18</title>
<path fill="none" stroke="midnightblue" d="M191.05,-250.65C201.68,-241.35 215.13,-229.57 225.47,-220.52"/>
<polygon fill="midnightblue" stroke="midnightblue" points="188.46,-248.26 183.24,-257.48 193.07,-253.52 188.46,-248.26"/>
</g>
<!-- Node12 -->
<g id="node12" class="node">
<title>Node12</title>
<g id="a_node12"><a xlink:href="_player_8cpp.html" target="_top" xlink:title=" ">
<polygon fill="white" stroke="black" points="62.5,-123.5 62.5,-153.5 158.5,-153.5 158.5,-123.5 62.5,-123.5"/>
<text text-anchor="start" x="70.5" y="-141.5" font-family="Helvetica,sans-Serif" font-size="10.00">src/engine/objects</text>
<text text-anchor="middle" x="110.5" y="-130.5" font-family="Helvetica,sans-Serif" font-size="10.00">/Player.cpp</text>
</a>
</g>
</g>
<!-- Node11&#45;&gt;Node12 -->
<g id="edge11" class="edge">
<title>Node11&#45;&gt;Node12</title>
<path fill="none" stroke="midnightblue" d="M110.5,-180.11C110.5,-171.15 110.5,-161.32 110.5,-153.58"/>
<polygon fill="midnightblue" stroke="midnightblue" points="107,-180.4 110.5,-190.4 114,-180.4 107,-180.4"/>
</g>
<!-- Node13 -->
<g id="node13" class="node">
<title>Node13</title>
<g id="a_node13"><a xlink:href="_engine_8hpp.html" target="_top" xlink:title=" ">
<polygon fill="white" stroke="black" points="260.5,-67.5 260.5,-86.5 358.5,-86.5 358.5,-67.5 260.5,-67.5"/>
<text text-anchor="middle" x="309.5" y="-74.5" font-family="Helvetica,sans-Serif" font-size="10.00">include/Engine.hpp</text>
</a>
</g>
</g>
<!-- Node11&#45;&gt;Node13 -->
<g id="edge12" class="edge">
<title>Node11&#45;&gt;Node13</title>
<path fill="none" stroke="midnightblue" d="M141.09,-185.05C184.94,-157.18 263.88,-107 295.67,-86.79"/>
<polygon fill="midnightblue" stroke="midnightblue" points="139.12,-182.16 132.56,-190.48 142.87,-188.07 139.12,-182.16"/>
</g>
<!-- Node13&#45;&gt;Node2 -->
<g id="edge13" class="edge">
<title>Node13&#45;&gt;Node2</title>
<path fill="none" stroke="midnightblue" d="M264.13,-65.11C215.99,-53.57 140.95,-35.56 96.97,-25.01"/>
<polygon fill="midnightblue" stroke="midnightblue" points="263.43,-68.55 273.97,-67.48 265.06,-61.74 263.43,-68.55"/>
</g>
<!-- Node14 -->
<g id="node14" class="node">
<title>Node14</title>
<g id="a_node14"><a xlink:href="_unit_8cpp.html" target="_top" xlink:title=" ">
<polygon fill="white" stroke="black" points="184.5,-0.5 184.5,-30.5 280.5,-30.5 280.5,-0.5 184.5,-0.5"/>
<text text-anchor="start" x="192.5" y="-18.5" font-family="Helvetica,sans-Serif" font-size="10.00">src/engine/objects</text>
<text text-anchor="middle" x="232.5" y="-7.5" font-family="Helvetica,sans-Serif" font-size="10.00">/Unit.cpp</text>
</a>
</g>
</g>
<!-- Node13&#45;&gt;Node14 -->
<g id="edge14" class="edge">
<title>Node13&#45;&gt;Node14</title>
<path fill="none" stroke="midnightblue" d="M290.34,-61.2C278.2,-51.81 262.59,-39.75 250.65,-30.52"/>
<polygon fill="midnightblue" stroke="midnightblue" points="288.41,-64.13 298.47,-67.48 292.69,-58.59 288.41,-64.13"/>
</g>
<!-- Node15 -->
<g id="node15" class="node">
<title>Node15</title>
<g id="a_node15"><a xlink:href="_unit_group_8cpp.html" target="_top" xlink:title=" ">
<polygon fill="white" stroke="black" points="302.5,-0.5 302.5,-30.5 398.5,-30.5 398.5,-0.5 302.5,-0.5"/>
<text text-anchor="start" x="310.5" y="-18.5" font-family="Helvetica,sans-Serif" font-size="10.00">src/engine/objects</text>
<text text-anchor="middle" x="350.5" y="-7.5" font-family="Helvetica,sans-Serif" font-size="10.00">/UnitGroup.cpp</text>
</a>
</g>
</g>
<!-- Node13&#45;&gt;Node15 -->
<g id="edge15" class="edge">
<title>Node13&#45;&gt;Node15</title>
<path fill="none" stroke="midnightblue" d="M321.24,-58.96C327.45,-49.96 334.97,-39.03 340.84,-30.52"/>
<polygon fill="midnightblue" stroke="midnightblue" points="318.17,-57.25 315.37,-67.48 323.93,-61.23 318.17,-57.25"/>
</g>
<!-- Node16 -->
<g id="node16" class="node">
<title>Node16</title>
<g id="a_node16"><a xlink:href="_engine_8cpp.html" target="_top" xlink:title=" ">
<polygon fill="white" stroke="black" points="418.5,-6 418.5,-25 498.5,-25 498.5,-6 418.5,-6"/>
<text text-anchor="middle" x="458.5" y="-13" font-family="Helvetica,sans-Serif" font-size="10.00">src/Engine.cpp</text>
</a>
</g>
</g>
<!-- Node13&#45;&gt;Node16 -->
<g id="edge16" class="edge">
<title>Node13&#45;&gt;Node16</title>
<path fill="none" stroke="midnightblue" d="M340.47,-63.63C369.42,-52.07 411.87,-35.12 437.19,-25.01"/>
<polygon fill="midnightblue" stroke="midnightblue" points="338.84,-60.52 330.85,-67.48 341.43,-67.02 338.84,-60.52"/>
</g>
<!-- Node17 -->
<g id="node17" class="node">
<title>Node17</title>
<g id="a_node17"><a xlink:href="_game_8cpp.html" target="_top" xlink:title=" ">
<polygon fill="white" stroke="black" points="518,-6 518,-25 595,-25 595,-6 518,-6"/>
<text text-anchor="middle" x="556.5" y="-13" font-family="Helvetica,sans-Serif" font-size="10.00">src/Game.cpp</text>
</a>
</g>
</g>
<!-- Node13&#45;&gt;Node17 -->
<g id="edge17" class="edge">
<title>Node13&#45;&gt;Node17</title>
<path fill="none" stroke="midnightblue" d="M360.46,-65.36C400.58,-56.76 457.82,-43.98 507.5,-31 514.45,-29.18 521.91,-27.06 528.86,-25.02"/>
<polygon fill="midnightblue" stroke="midnightblue" points="359.69,-61.95 350.64,-67.46 361.15,-68.79 359.69,-61.95"/>
</g>
<!-- Node18&#45;&gt;Node14 -->
<g id="edge19" class="edge">
<title>Node18&#45;&gt;Node14</title>
<path fill="none" stroke="midnightblue" d="M240.34,-180.21C238.43,-140.37 234.7,-62.37 233.17,-30.54"/>
<polygon fill="midnightblue" stroke="midnightblue" points="236.85,-180.55 240.82,-190.37 243.84,-180.21 236.85,-180.55"/>
</g>
<!-- Node19 -->
<g id="node19" class="node">
<title>Node19</title>
<g id="a_node19"><a xlink:href="_unit_group_8hpp.html" target="_top" xlink:title=" ">
<polygon fill="white" stroke="black" points="261,-123.5 261,-153.5 374,-153.5 374,-123.5 261,-123.5"/>
<text text-anchor="start" x="269" y="-141.5" font-family="Helvetica,sans-Serif" font-size="10.00">include/engine/objects</text>
<text text-anchor="middle" x="317.5" y="-130.5" font-family="Helvetica,sans-Serif" font-size="10.00">/UnitGroup.hpp</text>
</a>
</g>
</g>
<!-- Node18&#45;&gt;Node19 -->
<g id="edge20" class="edge">
<title>Node18&#45;&gt;Node19</title>
<path fill="none" stroke="midnightblue" d="M265.61,-183.88C277.16,-174.01 290.69,-162.43 301.04,-153.58"/>
<polygon fill="midnightblue" stroke="midnightblue" points="263.32,-181.24 257.99,-190.4 267.87,-186.56 263.32,-181.24"/>
</g>
<!-- Node19&#45;&gt;Node13 -->
<g id="edge22" class="edge">
<title>Node19&#45;&gt;Node13</title>
<path fill="none" stroke="midnightblue" d="M314.24,-113.29C312.98,-103.86 311.6,-93.65 310.66,-86.66"/>
<polygon fill="midnightblue" stroke="midnightblue" points="310.8,-113.95 315.6,-123.4 317.74,-113.02 310.8,-113.95"/>
</g>
<!-- Node19&#45;&gt;Node15 -->
<g id="edge21" class="edge">
<title>Node19&#45;&gt;Node15</title>
<path fill="none" stroke="midnightblue" d="M345.4,-116.75C354.19,-108.57 362.82,-98.38 367.5,-87 375.21,-68.25 366.5,-45.2 358.97,-30.68"/>
<polygon fill="midnightblue" stroke="midnightblue" points="342.99,-114.21 337.74,-123.41 347.58,-119.5 342.99,-114.21"/>
</g>
<!-- Node20&#45;&gt;Node8 -->
<g id="edge24" class="edge">
<title>Node20&#45;&gt;Node8</title>
<path fill="none" stroke="midnightblue" d="M514.51,-316.4C470.81,-304.84 403.33,-287 363.68,-276.51"/>
<polygon fill="midnightblue" stroke="midnightblue" points="513.7,-319.8 524.26,-318.98 515.49,-313.03 513.7,-319.8"/>
</g>
<!-- Node20&#45;&gt;Node17 -->
<g id="edge25" class="edge">
<title>Node20&#45;&gt;Node17</title>
<path fill="none" stroke="midnightblue" d="M556.5,-308.94C556.5,-285.19 556.5,-242.79 556.5,-206.5 556.5,-206.5 556.5,-206.5 556.5,-137.5 556.5,-95.28 556.5,-44.76 556.5,-25.01"/>
<polygon fill="midnightblue" stroke="midnightblue" points="553,-308.99 556.5,-318.99 560,-308.99 553,-308.99"/>
</g>
<!-- Node21 -->
<g id="node21" class="node">
<title>Node21</title>
<g id="a_node21"><a xlink:href="_sprites_manager_8cpp.html" target="_top" xlink:title=" ">
<polygon fill="white" stroke="black" points="409,-257.5 409,-276.5 528,-276.5 528,-257.5 409,-257.5"/>
<text text-anchor="middle" x="468.5" y="-264.5" font-family="Helvetica,sans-Serif" font-size="10.00">src/SpritesManager.cpp</text>
</a>
</g>
</g>
<!-- Node20&#45;&gt;Node21 -->
<g id="edge26" class="edge">
<title>Node20&#45;&gt;Node21</title>
<path fill="none" stroke="midnightblue" d="M535.22,-313.11C518.3,-301.67 495.19,-286.05 481.08,-276.51"/>
<polygon fill="midnightblue" stroke="midnightblue" points="533.65,-316.27 543.89,-318.98 537.57,-310.47 533.65,-316.27"/>
</g>
<!-- Node22&#45;&gt;Node5 -->
<g id="edge30" class="edge">
<title>Node22&#45;&gt;Node5</title>
<path fill="none" stroke="midnightblue" d="M449.46,-444.92C408.5,-434.31 355.94,-420.7 316.99,-410.61"/>
<polygon fill="midnightblue" stroke="midnightblue" points="448.79,-448.36 459.35,-447.48 450.54,-441.58 448.79,-448.36"/>
</g>
<!-- Node23 -->
<g id="node23" class="node">
<title>Node23</title>
<g id="a_node23"><a xlink:href="_ground_8cpp.html" target="_top" xlink:title=" ">
<polygon fill="white" stroke="black" points="337.5,-380.5 337.5,-410.5 433.5,-410.5 433.5,-380.5 337.5,-380.5"/>
<text text-anchor="start" x="345.5" y="-398.5" font-family="Helvetica,sans-Serif" font-size="10.00">src/engine/objects</text>
<text text-anchor="middle" x="385.5" y="-387.5" font-family="Helvetica,sans-Serif" font-size="10.00">/Ground.cpp</text>
</a>
</g>
</g>
<!-- Node22&#45;&gt;Node23 -->
<g id="edge29" class="edge">
<title>Node22&#45;&gt;Node23</title>
<path fill="none" stroke="midnightblue" d="M476.78,-442.85C456.54,-432.58 431.83,-420.03 413.22,-410.58"/>
<polygon fill="midnightblue" stroke="midnightblue" points="475.22,-445.99 485.73,-447.4 478.39,-439.75 475.22,-445.99"/>
</g>
<!-- Node24 -->
<g id="node24" class="node">
<title>Node24</title>
<g id="a_node24"><a xlink:href="_ground_earth_8hpp.html" target="_top" xlink:title=" ">
<polygon fill="white" stroke="black" points="451.5,-380.5 451.5,-410.5 575.5,-410.5 575.5,-380.5 451.5,-380.5"/>
<text text-anchor="start" x="459.5" y="-398.5" font-family="Helvetica,sans-Serif" font-size="10.00">include/engine/objects</text>
<text text-anchor="middle" x="513.5" y="-387.5" font-family="Helvetica,sans-Serif" font-size="10.00">/ground/GroundEarth.hpp</text>
</a>
</g>
</g>
<!-- Node22&#45;&gt;Node24 -->
<g id="edge31" class="edge">
<title>Node22&#45;&gt;Node24</title>
<path fill="none" stroke="midnightblue" d="M513.5,-437.11C513.5,-428.15 513.5,-418.32 513.5,-410.58"/>
<polygon fill="midnightblue" stroke="midnightblue" points="510,-437.4 513.5,-447.4 517,-437.4 510,-437.4"/>
</g>
<!-- Node26 -->
<g id="node26" class="node">
<title>Node26</title>
<g id="a_node26"><a xlink:href="_ground_empty_8hpp.html" target="_top" xlink:title=" ">
<polygon fill="white" stroke="black" points="593.5,-380.5 593.5,-410.5 721.5,-410.5 721.5,-380.5 593.5,-380.5"/>
<text text-anchor="start" x="601.5" y="-398.5" font-family="Helvetica,sans-Serif" font-size="10.00">include/engine/objects</text>
<text text-anchor="middle" x="657.5" y="-387.5" font-family="Helvetica,sans-Serif" font-size="10.00">/ground/GroundEmpty.hpp</text>
</a>
</g>
</g>
<!-- Node22&#45;&gt;Node26 -->
<g id="edge35" class="edge">
<title>Node22&#45;&gt;Node26</title>
<path fill="none" stroke="midnightblue" d="M553.89,-443.27C576.82,-432.92 605.1,-420.15 626.32,-410.58"/>
<polygon fill="midnightblue" stroke="midnightblue" points="552.42,-440.09 544.75,-447.4 555.3,-446.47 552.42,-440.09"/>
</g>
<!-- Node28 -->
<g id="node28" class="node">
<title>Node28</title>
<g id="a_node28"><a xlink:href="_ground_water_8hpp.html" target="_top" xlink:title=" ">
<polygon fill="white" stroke="black" points="740,-380.5 740,-410.5 867,-410.5 867,-380.5 740,-380.5"/>
<text text-anchor="start" x="748" y="-398.5" font-family="Helvetica,sans-Serif" font-size="10.00">include/engine/objects</text>
<text text-anchor="middle" x="803.5" y="-387.5" font-family="Helvetica,sans-Serif" font-size="10.00">/ground/GroundWater.hpp</text>
</a>
</g>
</g>
<!-- Node22&#45;&gt;Node28 -->
<g id="edge38" class="edge">
<title>Node22&#45;&gt;Node28</title>
<path fill="none" stroke="midnightblue" d="M579.86,-446.63C628.29,-435.77 693.5,-421.15 741.01,-410.51"/>
<polygon fill="midnightblue" stroke="midnightblue" points="579.1,-443.21 570.1,-448.81 580.63,-450.04 579.1,-443.21"/>
</g>
<!-- Node30 -->
<g id="node30" class="node">
<title>Node30</title>
<g id="a_node30"><a xlink:href="_mineral_8hpp.html" target="_top" xlink:title=" ">
<polygon fill="white" stroke="black" points="885,-380.5 885,-410.5 998,-410.5 998,-380.5 885,-380.5"/>
<text text-anchor="start" x="893" y="-398.5" font-family="Helvetica,sans-Serif" font-size="10.00">include/engine/objects</text>
<text text-anchor="middle" x="941.5" y="-387.5" font-family="Helvetica,sans-Serif" font-size="10.00">/ground/Mineral.hpp</text>
</a>
</g>
</g>
<!-- Node22&#45;&gt;Node30 -->
<g id="edge41" class="edge">
<title>Node22&#45;&gt;Node30</title>
<path fill="none" stroke="midnightblue" d="M579.98,-453.9C652.97,-445.17 773.49,-429.62 876.5,-411 879.23,-410.51 882.02,-409.98 884.83,-409.43"/>
<polygon fill="midnightblue" stroke="midnightblue" points="579.52,-450.43 570,-455.08 580.35,-457.38 579.52,-450.43"/>
</g>
<!-- Node24&#45;&gt;Node6 -->
<g id="edge32" class="edge">
<title>Node24&#45;&gt;Node6</title>
<path fill="none" stroke="midnightblue" d="M453.36,-377.79C414.39,-366.97 364.29,-353.05 327.9,-342.94"/>
<polygon fill="midnightblue" stroke="midnightblue" points="452.44,-381.17 463.01,-380.48 454.32,-374.43 452.44,-381.17"/>
</g>
<!-- Node24&#45;&gt;Node20 -->
<g id="edge34" class="edge">
<title>Node24&#45;&gt;Node20</title>
<path fill="none" stroke="midnightblue" d="M528.4,-371.97C536.1,-360.33 545.06,-346.8 550.75,-338.19"/>
<polygon fill="midnightblue" stroke="midnightblue" points="525.43,-370.12 522.83,-380.4 531.27,-373.99 525.43,-370.12"/>
</g>
<!-- Node25 -->
<g id="node25" class="node">
<title>Node25</title>
<g id="a_node25"><a xlink:href="_ground_earth_8cpp.html" target="_top" xlink:title=" ">
<polygon fill="white" stroke="black" points="345.5,-313.5 345.5,-343.5 469.5,-343.5 469.5,-313.5 345.5,-313.5"/>
<text text-anchor="start" x="353.5" y="-331.5" font-family="Helvetica,sans-Serif" font-size="10.00">src/engine/objects</text>
<text text-anchor="middle" x="407.5" y="-320.5" font-family="Helvetica,sans-Serif" font-size="10.00">/ground/GroundEarth.cpp</text>
</a>
</g>
</g>
<!-- Node24&#45;&gt;Node25 -->
<g id="edge33" class="edge">
<title>Node24&#45;&gt;Node25</title>
<path fill="none" stroke="midnightblue" d="M481.72,-375.02C465.23,-364.9 445.45,-352.77 430.46,-343.58"/>
<polygon fill="midnightblue" stroke="midnightblue" points="480.15,-378.15 490.5,-380.4 483.8,-372.18 480.15,-378.15"/>
</g>
<!-- Node26&#45;&gt;Node20 -->
<g id="edge37" class="edge">
<title>Node26&#45;&gt;Node20</title>
<path fill="none" stroke="midnightblue" d="M627.16,-374.97C608.01,-362.65 584.23,-347.35 569.72,-338.01"/>
<polygon fill="midnightblue" stroke="midnightblue" points="625.28,-377.93 635.58,-380.4 629.07,-372.04 625.28,-377.93"/>
</g>
<!-- Node27 -->
<g id="node27" class="node">
<title>Node27</title>
<g id="a_node27"><a xlink:href="_ground_empty_8cpp.html" target="_top" xlink:title=" ">
<polygon fill="white" stroke="black" points="643.5,-313.5 643.5,-343.5 771.5,-343.5 771.5,-313.5 643.5,-313.5"/>
<text text-anchor="start" x="651.5" y="-331.5" font-family="Helvetica,sans-Serif" font-size="10.00">src/engine/objects</text>
<text text-anchor="middle" x="707.5" y="-320.5" font-family="Helvetica,sans-Serif" font-size="10.00">/ground/GroundEmpty.cpp</text>
</a>
</g>
</g>
<!-- Node26&#45;&gt;Node27 -->
<g id="edge36" class="edge">
<title>Node26&#45;&gt;Node27</title>
<path fill="none" stroke="midnightblue" d="M674.46,-372.45C681.81,-362.9 690.19,-352 696.67,-343.58"/>
<polygon fill="midnightblue" stroke="midnightblue" points="671.67,-370.34 668.35,-380.4 677.22,-374.6 671.67,-370.34"/>
</g>
<!-- Node28&#45;&gt;Node20 -->
<g id="edge40" class="edge">
<title>Node28&#45;&gt;Node20</title>
<path fill="none" stroke="midnightblue" d="M740.46,-377.91C692.09,-365.18 627.28,-348.13 588.91,-338.03"/>
<polygon fill="midnightblue" stroke="midnightblue" points="739.65,-381.32 750.21,-380.48 741.43,-374.55 739.65,-381.32"/>
</g>
<!-- Node29 -->
<g id="node29" class="node">
<title>Node29</title>
<g id="a_node29"><a xlink:href="_ground_water_8cpp.html" target="_top" xlink:title=" ">
<polygon fill="white" stroke="black" points="790,-313.5 790,-343.5 917,-343.5 917,-313.5 790,-313.5"/>
<text text-anchor="start" x="798" y="-331.5" font-family="Helvetica,sans-Serif" font-size="10.00">src/engine/objects</text>
<text text-anchor="middle" x="853.5" y="-320.5" font-family="Helvetica,sans-Serif" font-size="10.00">/ground/GroundWater.cpp</text>
</a>
</g>
</g>
<!-- Node28&#45;&gt;Node29 -->
<g id="edge39" class="edge">
<title>Node28&#45;&gt;Node29</title>
<path fill="none" stroke="midnightblue" d="M820.46,-372.45C827.81,-362.9 836.19,-352 842.67,-343.58"/>
<polygon fill="midnightblue" stroke="midnightblue" points="817.67,-370.34 814.35,-380.4 823.22,-374.6 817.67,-370.34"/>
</g>
<!-- Node30&#45;&gt;Node20 -->
<g id="edge43" class="edge">
<title>Node30&#45;&gt;Node20</title>
<path fill="none" stroke="midnightblue" d="M874.92,-379.78C767.89,-360.24 738.61,-361.41 634.5,-344 623.63,-342.18 611.94,-340.08 601,-338.06"/>
<polygon fill="midnightblue" stroke="midnightblue" points="874.36,-383.23 884.83,-381.61 875.63,-376.35 874.36,-383.23"/>
</g>
<!-- Node31 -->
<g id="node31" class="node">
<title>Node31</title>
<g id="a_node31"><a xlink:href="_mineral_8cpp.html" target="_top" xlink:title=" ">
<polygon fill="white" stroke="black" points="935,-313.5 935,-343.5 1036,-343.5 1036,-313.5 935,-313.5"/>
<text text-anchor="start" x="943" y="-331.5" font-family="Helvetica,sans-Serif" font-size="10.00">src/engine/objects</text>
<text text-anchor="middle" x="985.5" y="-320.5" font-family="Helvetica,sans-Serif" font-size="10.00">/ground/Mineral.cpp</text>
</a>
</g>
</g>
<!-- Node30&#45;&gt;Node31 -->
<g id="edge42" class="edge">
<title>Node30&#45;&gt;Node31</title>
<path fill="none" stroke="midnightblue" d="M956.82,-371.87C963.19,-362.46 970.38,-351.83 975.97,-343.58"/>
<polygon fill="midnightblue" stroke="midnightblue" points="953.75,-370.15 951.05,-380.4 959.55,-374.08 953.75,-370.15"/>
</g>
<!-- Node32&#45;&gt;Node16 -->
<g id="edge46" class="edge">
<title>Node32&#45;&gt;Node16</title>
<path fill="none" stroke="midnightblue" d="M627.72,-64.68C587.11,-53.11 524.99,-35.43 488.39,-25.01"/>
<polygon fill="midnightblue" stroke="midnightblue" points="626.98,-68.1 637.56,-67.48 628.9,-61.37 626.98,-68.1"/>
</g>
<!-- Node32&#45;&gt;Node17 -->
<g id="edge47" class="edge">
<title>Node32&#45;&gt;Node17</title>
<path fill="none" stroke="midnightblue" d="M642.71,-62.71C621.21,-51.19 590.74,-34.86 572.37,-25.01"/>
<polygon fill="midnightblue" stroke="midnightblue" points="641.13,-65.84 651.6,-67.48 644.44,-59.67 641.13,-65.84"/>
</g>
<!-- Node33 -->
<g id="node33" class="node">
<title>Node33</title>
<g id="a_node33"><a xlink:href="_g_u_i_manager_8cpp.html" target="_top" xlink:title=" ">
<polygon fill="white" stroke="black" points="613.5,-6 613.5,-25 741.5,-25 741.5,-6 613.5,-6"/>
<text text-anchor="middle" x="677.5" y="-13" font-family="Helvetica,sans-Serif" font-size="10.00">src/GUI/GUIManager.cpp</text>
</a>
</g>
</g>
<!-- Node32&#45;&gt;Node33 -->
<g id="edge48" class="edge">
<title>Node32&#45;&gt;Node33</title>
<path fill="none" stroke="midnightblue" d="M670.64,-57.32C672.46,-46.5 674.66,-33.4 676.07,-25.01"/>
<polygon fill="midnightblue" stroke="midnightblue" points="667.14,-57.03 668.93,-67.48 674.04,-58.19 667.14,-57.03"/>
</g>
</g>
</svg>
