<?xml version="1.0" encoding="UTF-8" standalone="no"?>
<!DOCTYPE svg PUBLIC "-//W3C//DTD SVG 1.1//EN"
 "http://www.w3.org/Graphics/SVG/1.1/DTD/svg11.dtd">
<!-- Generated by graphviz version 2.47.0 (20210407.0042)
 -->
<!-- Title: include/engine/Drawable.hpp Pages: 1 -->
<svg width="1179pt" height="542pt"
 viewBox="0.00 0.00 1179.00 542.00" xmlns="http://www.w3.org/2000/svg" xmlns:xlink="http://www.w3.org/1999/xlink">
<g id="graph0" class="graph" transform="scale(1 1) rotate(0) translate(4 538)">
<title>include/engine/Drawable.hpp</title>
<polygon fill="white" stroke="transparent" points="-4,4 -4,-538 1175,-538 1175,4 -4,4"/>
<!-- Node1 -->
<g id="node1" class="node">
<title>Node1</title>
<g id="a_node1"><a xlink:title=" ">
<polygon fill="#bfbfbf" stroke="black" points="254.5,-514.5 254.5,-533.5 394.5,-533.5 394.5,-514.5 254.5,-514.5"/>
<text text-anchor="middle" x="324.5" y="-521.5" font-family="Helvetica,sans-Serif" font-size="10.00">include/engine/Drawable.hpp</text>
</a>
</g>
</g>
<!-- Node2 -->
<g id="node2" class="node">
<title>Node2</title>
<g id="a_node2"><a xlink:href="_drawable_8cpp.html" target="_top" xlink:title=" ">
<polygon fill="white" stroke="black" points="0,-0.5 0,-19.5 123,-19.5 123,-0.5 0,-0.5"/>
<text text-anchor="middle" x="61.5" y="-7.5" font-family="Helvetica,sans-Serif" font-size="10.00">src/engine/Drawable.cpp</text>
</a>
</g>
</g>
<!-- Node1&#45;&gt;Node2 -->
<g id="edge1" class="edge">
<title>Node1&#45;&gt;Node2</title>
<path fill="none" stroke="midnightblue" d="M266.92,-512.48C174.79,-494 4.5,-452.28 4.5,-396.5 4.5,-396.5 4.5,-396.5 4.5,-137.5 4.5,-89.32 39.29,-39.21 54.51,-19.6"/>
<polygon fill="midnightblue" stroke="midnightblue" points="266.45,-515.96 276.94,-514.46 267.81,-509.09 266.45,-515.96"/>
</g>
<!-- Node3 -->
<g id="node3" class="node">
<title>Node3</title>
<g id="a_node3"><a xlink:href="_building_8hpp.html" target="_top" xlink:title=" ">
<polygon fill="white" stroke="black" points="226,-447.5 226,-477.5 339,-477.5 339,-447.5 226,-447.5"/>
<text text-anchor="start" x="234" y="-465.5" font-family="Helvetica,sans-Serif" font-size="10.00">include/engine/objects</text>
<text text-anchor="middle" x="282.5" y="-454.5" font-family="Helvetica,sans-Serif" font-size="10.00">/Building.hpp</text>
</a>
</g>
</g>
<!-- Node1&#45;&gt;Node3 -->
<g id="edge2" class="edge">
<title>Node1&#45;&gt;Node3</title>
<path fill="none" stroke="midnightblue" d="M312.67,-506.25C306.28,-497.19 298.47,-486.12 292.4,-477.52"/>
<polygon fill="midnightblue" stroke="midnightblue" points="309.86,-508.32 318.48,-514.48 315.57,-504.29 309.86,-508.32"/>
</g>
<!-- Node5 -->
<g id="node5" class="node">
<title>Node5</title>
<g id="a_node5"><a xlink:href="_cell_8hpp.html" target="_top" xlink:title=" ">
<polygon fill="white" stroke="black" points="311,-380.5 311,-410.5 424,-410.5 424,-380.5 311,-380.5"/>
<text text-anchor="start" x="319" y="-398.5" font-family="Helvetica,sans-Serif" font-size="10.00">include/engine/objects</text>
<text text-anchor="middle" x="367.5" y="-387.5" font-family="Helvetica,sans-Serif" font-size="10.00">/Cell.hpp</text>
</a>
</g>
</g>
<!-- Node1&#45;&gt;Node5 -->
<g id="edge25" class="edge">
<title>Node1&#45;&gt;Node5</title>
<path fill="none" stroke="midnightblue" d="M334.69,-505.42C339.09,-497.28 344.02,-487.35 347.5,-478 356.04,-455.06 361.99,-427.13 365.06,-410.64"/>
<polygon fill="midnightblue" stroke="midnightblue" points="331.54,-503.88 329.71,-514.31 337.65,-507.29 331.54,-503.88"/>
</g>
<!-- Node11 -->
<g id="node11" class="node">
<title>Node11</title>
<g id="a_node11"><a xlink:href="_player_8hpp.html" target="_top" xlink:title=" ">
<polygon fill="white" stroke="black" points="45,-190.5 45,-220.5 158,-220.5 158,-190.5 45,-190.5"/>
<text text-anchor="start" x="53" y="-208.5" font-family="Helvetica,sans-Serif" font-size="10.00">include/engine/objects</text>
<text text-anchor="middle" x="101.5" y="-197.5" font-family="Helvetica,sans-Serif" font-size="10.00">/Player.hpp</text>
</a>
</g>
</g>
<!-- Node1&#45;&gt;Node11 -->
<g id="edge41" class="edge">
<title>Node1&#45;&gt;Node11</title>
<path fill="none" stroke="midnightblue" d="M262.31,-512.21C201.35,-497.64 117.5,-465.12 117.5,-396.5 117.5,-396.5 117.5,-396.5 117.5,-327.5 117.5,-288.51 109.23,-243.06 104.58,-220.58"/>
<polygon fill="midnightblue" stroke="midnightblue" points="261.74,-515.67 272.27,-514.48 263.29,-508.84 261.74,-515.67"/>
</g>
<!-- Node22 -->
<g id="node22" class="node">
<title>Node22</title>
<g id="a_node22"><a xlink:href="_ground_8hpp.html" target="_top" xlink:title=" ">
<polygon fill="white" stroke="black" points="632,-447.5 632,-477.5 745,-477.5 745,-447.5 632,-447.5"/>
<text text-anchor="start" x="640" y="-465.5" font-family="Helvetica,sans-Serif" font-size="10.00">include/engine/objects</text>
<text text-anchor="middle" x="688.5" y="-454.5" font-family="Helvetica,sans-Serif" font-size="10.00">/Ground.hpp</text>
</a>
</g>
</g>
<!-- Node1&#45;&gt;Node22 -->
<g id="edge26" class="edge">
<title>Node1&#45;&gt;Node22</title>
<path fill="none" stroke="midnightblue" d="M386.92,-512.8C455.76,-501.54 565.55,-483.6 631.95,-472.74"/>
<polygon fill="midnightblue" stroke="midnightblue" points="385.96,-509.41 376.65,-514.48 387.09,-516.32 385.96,-509.41"/>
</g>
<!-- Node32 -->
<g id="node32" class="node">
<title>Node32</title>
<g id="a_node32"><a xlink:href="_g_u_i_manager_8hpp.html" target="_top" xlink:title=" ">
<polygon fill="white" stroke="black" points="406,-62 406,-81 551,-81 551,-62 406,-62"/>
<text text-anchor="middle" x="478.5" y="-69" font-family="Helvetica,sans-Serif" font-size="10.00">include/GUI/GUIManager.hpp</text>
</a>
</g>
</g>
<!-- Node1&#45;&gt;Node32 -->
<g id="edge42" class="edge">
<title>Node1&#45;&gt;Node32</title>
<path fill="none" stroke="midnightblue" d="M345.32,-508.16C370.58,-488.89 412.27,-452.75 432.5,-411 490.55,-291.18 482.16,-121.19 479.22,-81.17"/>
<polygon fill="midnightblue" stroke="midnightblue" points="343.07,-505.47 337.14,-514.25 347.25,-511.09 343.07,-505.47"/>
</g>
<!-- Node4 -->
<g id="node4" class="node">
<title>Node4</title>
<g id="a_node4"><a xlink:href="_building_8cpp.html" target="_top" xlink:title=" ">
<polygon fill="white" stroke="black" points="196.5,-380.5 196.5,-410.5 292.5,-410.5 292.5,-380.5 196.5,-380.5"/>
<text text-anchor="start" x="204.5" y="-398.5" font-family="Helvetica,sans-Serif" font-size="10.00">src/engine/objects</text>
<text text-anchor="middle" x="244.5" y="-387.5" font-family="Helvetica,sans-Serif" font-size="10.00">/Building.cpp</text>
</a>
</g>
</g>
<!-- Node3&#45;&gt;Node4 -->
<g id="edge3" class="edge">
<title>Node3&#45;&gt;Node4</title>
<path fill="none" stroke="midnightblue" d="M269.1,-438.58C263.64,-429.24 257.51,-418.75 252.73,-410.58"/>
<polygon fill="midnightblue" stroke="midnightblue" points="266.19,-440.53 274.25,-447.4 272.23,-437 266.19,-440.53"/>
</g>
<!-- Node3&#45;&gt;Node5 -->
<g id="edge4" class="edge">
<title>Node3&#45;&gt;Node5</title>
<path fill="none" stroke="midnightblue" d="M309.09,-441.17C322.09,-431.23 337.4,-419.51 349.09,-410.58"/>
<polygon fill="midnightblue" stroke="midnightblue" points="306.76,-438.54 300.94,-447.4 311.01,-444.1 306.76,-438.54"/>
</g>
<!-- Node6 -->
<g id="node6" class="node">
<title>Node6</title>
<g id="a_node6"><a xlink:href="_cell_8cpp.html" target="_top" xlink:title=" ">
<polygon fill="white" stroke="black" points="324.5,-313.5 324.5,-343.5 420.5,-343.5 420.5,-313.5 324.5,-313.5"/>
<text text-anchor="start" x="332.5" y="-331.5" font-family="Helvetica,sans-Serif" font-size="10.00">src/engine/objects</text>
<text text-anchor="middle" x="372.5" y="-320.5" font-family="Helvetica,sans-Serif" font-size="10.00">/Cell.cpp</text>
</a>
</g>
</g>
<!-- Node5&#45;&gt;Node6 -->
<g id="edge5" class="edge">
<title>Node5&#45;&gt;Node6</title>
<path fill="none" stroke="midnightblue" d="M369.35,-370.4C370.05,-361.37 370.81,-351.41 371.42,-343.58"/>
<polygon fill="midnightblue" stroke="midnightblue" points="365.86,-370.16 368.58,-380.4 372.84,-370.69 365.86,-370.16"/>
</g>
<!-- Node7 -->
<g id="node7" class="node">
<title>Node7</title>
<g id="a_node7"><a xlink:href="_field_8hpp.html" target="_top" xlink:title=" ">
<polygon fill="white" stroke="black" points="185,-319 185,-338 306,-338 306,-319 185,-319"/>
<text text-anchor="middle" x="245.5" y="-326" font-family="Helvetica,sans-Serif" font-size="10.00">include/engine/Field.hpp</text>
</a>
</g>
</g>
<!-- Node5&#45;&gt;Node7 -->
<g id="edge6" class="edge">
<title>Node5&#45;&gt;Node7</title>
<path fill="none" stroke="midnightblue" d="M332.1,-375.64C308.76,-363.2 279.31,-347.51 261.47,-338.01"/>
<polygon fill="midnightblue" stroke="midnightblue" points="330.56,-378.78 341.03,-380.4 333.85,-372.6 330.56,-378.78"/>
</g>
<!-- Node20 -->
<g id="node20" class="node">
<title>Node20</title>
<g id="a_node20"><a xlink:href="_sprites_manager_8hpp.html" target="_top" xlink:title=" ">
<polygon fill="white" stroke="black" points="623,-319 623,-338 760,-338 760,-319 623,-319"/>
<text text-anchor="middle" x="691.5" y="-326" font-family="Helvetica,sans-Serif" font-size="10.00">include/SpritesManager.hpp</text>
</a>
</g>
</g>
<!-- Node5&#45;&gt;Node20 -->
<g id="edge21" class="edge">
<title>Node5&#45;&gt;Node20</title>
<path fill="none" stroke="midnightblue" d="M434.36,-381.09C498.69,-368.18 594.03,-349.05 648.74,-338.08"/>
<polygon fill="midnightblue" stroke="midnightblue" points="433.42,-377.7 424.31,-383.1 434.8,-384.57 433.42,-377.7"/>
</g>
<!-- Node8 -->
<g id="node8" class="node">
<title>Node8</title>
<g id="a_node8"><a xlink:href="_field_8cpp.html" target="_top" xlink:title=" ">
<polygon fill="white" stroke="black" points="327.5,-257.5 327.5,-276.5 431.5,-276.5 431.5,-257.5 327.5,-257.5"/>
<text text-anchor="middle" x="379.5" y="-264.5" font-family="Helvetica,sans-Serif" font-size="10.00">src/engine/Field.cpp</text>
</a>
</g>
</g>
<!-- Node7&#45;&gt;Node8 -->
<g id="edge7" class="edge">
<title>Node7&#45;&gt;Node8</title>
<path fill="none" stroke="midnightblue" d="M274.04,-314.83C300.05,-303.28 337.76,-286.53 360.34,-276.51"/>
<polygon fill="midnightblue" stroke="midnightblue" points="272.42,-311.72 264.7,-318.98 275.26,-318.12 272.42,-311.72"/>
</g>
<!-- Node9 -->
<g id="node9" class="node">
<title>Node9</title>
<g id="a_node9"><a xlink:href="_world_actor_8hpp.html" target="_top" xlink:title=" ">
<polygon fill="white" stroke="black" points="159.5,-257.5 159.5,-276.5 307.5,-276.5 307.5,-257.5 159.5,-257.5"/>
<text text-anchor="middle" x="233.5" y="-264.5" font-family="Helvetica,sans-Serif" font-size="10.00">include/engine/WorldActor.hpp</text>
</a>
</g>
</g>
<!-- Node7&#45;&gt;Node9 -->
<g id="edge8" class="edge">
<title>Node7&#45;&gt;Node9</title>
<path fill="none" stroke="midnightblue" d="M241.8,-309.16C239.61,-298.27 236.93,-284.99 235.22,-276.51"/>
<polygon fill="midnightblue" stroke="midnightblue" points="238.37,-309.86 243.78,-318.98 245.23,-308.48 238.37,-309.86"/>
</g>
<!-- Node10 -->
<g id="node10" class="node">
<title>Node10</title>
<g id="a_node10"><a xlink:href="_world_actor_8cpp.html" target="_top" xlink:title=" ">
<polygon fill="white" stroke="black" points="307,-196 307,-215 438,-215 438,-196 307,-196"/>
<text text-anchor="middle" x="372.5" y="-203" font-family="Helvetica,sans-Serif" font-size="10.00">src/engine/WorldActor.cpp</text>
</a>
</g>
</g>
<!-- Node9&#45;&gt;Node10 -->
<g id="edge9" class="edge">
<title>Node9&#45;&gt;Node10</title>
<path fill="none" stroke="midnightblue" d="M262.75,-253.48C289.75,-241.92 329.1,-225.08 352.62,-215.01"/>
<polygon fill="midnightblue" stroke="midnightblue" points="261.23,-250.32 253.42,-257.48 263.99,-256.76 261.23,-250.32"/>
</g>
<!-- Node9&#45;&gt;Node11 -->
<g id="edge10" class="edge">
<title>Node9&#45;&gt;Node11</title>
<path fill="none" stroke="midnightblue" d="M205.39,-253.33C184.04,-243.7 154.67,-230.47 132.61,-220.52"/>
<polygon fill="midnightblue" stroke="midnightblue" points="204.03,-256.56 214.59,-257.48 206.91,-250.17 204.03,-256.56"/>
</g>
<!-- Node16 -->
<g id="node16" class="node">
<title>Node16</title>
<g id="a_node16"><a xlink:href="_unit_8hpp.html" target="_top" xlink:title=" ">
<polygon fill="white" stroke="black" points="176,-190.5 176,-220.5 289,-220.5 289,-190.5 176,-190.5"/>
<text text-anchor="start" x="184" y="-208.5" font-family="Helvetica,sans-Serif" font-size="10.00">include/engine/objects</text>
<text text-anchor="middle" x="232.5" y="-197.5" font-family="Helvetica,sans-Serif" font-size="10.00">/Unit.hpp</text>
</a>
</g>
</g>
<!-- Node9&#45;&gt;Node16 -->
<g id="edge16" class="edge">
<title>Node9&#45;&gt;Node16</title>
<path fill="none" stroke="midnightblue" d="M233.18,-247.23C233.04,-238.59 232.87,-228.5 232.74,-220.52"/>
<polygon fill="midnightblue" stroke="midnightblue" points="229.69,-247.54 233.36,-257.48 236.69,-247.42 229.69,-247.54"/>
</g>
<!-- Node12 -->
<g id="node12" class="node">
<title>Node12</title>
<g id="a_node12"><a xlink:href="_player_8cpp.html" target="_top" xlink:title=" ">
<polygon fill="white" stroke="black" points="32.5,-123.5 32.5,-153.5 128.5,-153.5 128.5,-123.5 32.5,-123.5"/>
<text text-anchor="start" x="40.5" y="-141.5" font-family="Helvetica,sans-Serif" font-size="10.00">src/engine/objects</text>
<text text-anchor="middle" x="80.5" y="-130.5" font-family="Helvetica,sans-Serif" font-size="10.00">/Player.cpp</text>
</a>
</g>
</g>
<!-- Node11&#45;&gt;Node12 -->
<g id="edge11" class="edge">
<title>Node11&#45;&gt;Node12</title>
<path fill="none" stroke="midnightblue" d="M93.81,-180.7C90.87,-171.59 87.61,-161.49 85.05,-153.58"/>
<polygon fill="midnightblue" stroke="midnightblue" points="90.54,-181.96 96.94,-190.4 97.2,-179.8 90.54,-181.96"/>
</g>
<!-- Node13 -->
<g id="node13" class="node">
<title>Node13</title>
<g id="a_node13"><a xlink:href="_engine_8hpp.html" target="_top" xlink:title=" ">
<polygon fill="white" stroke="black" points="175.5,-62 175.5,-81 273.5,-81 273.5,-62 175.5,-62"/>
<text text-anchor="middle" x="224.5" y="-69" font-family="Helvetica,sans-Serif" font-size="10.00">include/Engine.hpp</text>
</a>
</g>
</g>
<!-- Node11&#45;&gt;Node13 -->
<g id="edge12" class="edge">
<title>Node11&#45;&gt;Node13</title>
<path fill="none" stroke="midnightblue" d="M120.93,-182.71C135.75,-166.19 156.73,-143 175.5,-123 189.38,-108.21 205.86,-91.37 215.74,-81.35"/>
<polygon fill="midnightblue" stroke="midnightblue" points="118.25,-180.45 114.19,-190.24 123.47,-185.12 118.25,-180.45"/>
</g>
<!-- Node13&#45;&gt;Node2 -->
<g id="edge13" class="edge">
<title>Node13&#45;&gt;Node2</title>
<path fill="none" stroke="midnightblue" d="M191.44,-58.43C159.76,-46.87 112.75,-29.71 84.81,-19.51"/>
<polygon fill="midnightblue" stroke="midnightblue" points="190.55,-61.83 201.15,-61.98 192.95,-55.26 190.55,-61.83"/>
</g>
<!-- Node14 -->
<g id="node14" class="node">
<title>Node14</title>
<g id="a_node14"><a xlink:href="_engine_8cpp.html" target="_top" xlink:title=" ">
<polygon fill="white" stroke="black" points="225.5,-0.5 225.5,-19.5 305.5,-19.5 305.5,-0.5 225.5,-0.5"/>
<text text-anchor="middle" x="265.5" y="-7.5" font-family="Helvetica,sans-Serif" font-size="10.00">src/Engine.cpp</text>
</a>
</g>
</g>
<!-- Node13&#45;&gt;Node14 -->
<g id="edge14" class="edge">
<title>Node13&#45;&gt;Node14</title>
<path fill="none" stroke="midnightblue" d="M236.21,-53.51C243.87,-42.39 253.55,-28.34 259.64,-19.51"/>
<polygon fill="midnightblue" stroke="midnightblue" points="233.17,-51.75 230.37,-61.98 238.93,-55.73 233.17,-51.75"/>
</g>
<!-- Node15 -->
<g id="node15" class="node">
<title>Node15</title>
<g id="a_node15"><a xlink:href="main_8cpp.html" target="_top" xlink:title=" ">
<polygon fill="white" stroke="black" points="363.5,-0.5 363.5,-19.5 435.5,-19.5 435.5,-0.5 363.5,-0.5"/>
<text text-anchor="middle" x="399.5" y="-7.5" font-family="Helvetica,sans-Serif" font-size="10.00">src/main.cpp</text>
</a>
</g>
</g>
<!-- Node13&#45;&gt;Node15 -->
<g id="edge15" class="edge">
<title>Node13&#45;&gt;Node15</title>
<path fill="none" stroke="midnightblue" d="M259.11,-58.73C293.13,-47.17 344.22,-29.8 374.47,-19.51"/>
<polygon fill="midnightblue" stroke="midnightblue" points="257.91,-55.44 249.57,-61.98 260.17,-62.07 257.91,-55.44"/>
</g>
<!-- Node17 -->
<g id="node17" class="node">
<title>Node17</title>
<g id="a_node17"><a xlink:href="_unit_8cpp.html" target="_top" xlink:title=" ">
<polygon fill="white" stroke="black" points="184.5,-123.5 184.5,-153.5 280.5,-153.5 280.5,-123.5 184.5,-123.5"/>
<text text-anchor="start" x="192.5" y="-141.5" font-family="Helvetica,sans-Serif" font-size="10.00">src/engine/objects</text>
<text text-anchor="middle" x="232.5" y="-130.5" font-family="Helvetica,sans-Serif" font-size="10.00">/Unit.cpp</text>
</a>
</g>
</g>
<!-- Node16&#45;&gt;Node17 -->
<g id="edge17" class="edge">
<title>Node16&#45;&gt;Node17</title>
<path fill="none" stroke="midnightblue" d="M232.5,-180.11C232.5,-171.15 232.5,-161.32 232.5,-153.58"/>
<polygon fill="midnightblue" stroke="midnightblue" points="229,-180.4 232.5,-190.4 236,-180.4 229,-180.4"/>
</g>
<!-- Node18 -->
<g id="node18" class="node">
<title>Node18</title>
<g id="a_node18"><a xlink:href="_unit_group_8hpp.html" target="_top" xlink:title=" ">
<polygon fill="white" stroke="black" points="299,-123.5 299,-153.5 412,-153.5 412,-123.5 299,-123.5"/>
<text text-anchor="start" x="307" y="-141.5" font-family="Helvetica,sans-Serif" font-size="10.00">include/engine/objects</text>
<text text-anchor="middle" x="355.5" y="-130.5" font-family="Helvetica,sans-Serif" font-size="10.00">/UnitGroup.hpp</text>
</a>
</g>
</g>
<!-- Node16&#45;&gt;Node18 -->
<g id="edge18" class="edge">
<title>Node16&#45;&gt;Node18</title>
<path fill="none" stroke="midnightblue" d="M268.05,-185.71C287.45,-175.46 311.06,-162.98 328.86,-153.58"/>
<polygon fill="midnightblue" stroke="midnightblue" points="266.4,-182.63 259.19,-190.4 269.67,-188.82 266.4,-182.63"/>
</g>
<!-- Node18&#45;&gt;Node13 -->
<g id="edge20" class="edge">
<title>Node18&#45;&gt;Node13</title>
<path fill="none" stroke="midnightblue" d="M317.82,-118.8C292.7,-106.34 260.89,-90.56 241.64,-81.01"/>
<polygon fill="midnightblue" stroke="midnightblue" points="316.56,-122.09 327.07,-123.4 319.67,-115.82 316.56,-122.09"/>
</g>
<!-- Node19 -->
<g id="node19" class="node">
<title>Node19</title>
<g id="a_node19"><a xlink:href="_unit_group_8cpp.html" target="_top" xlink:title=" ">
<polygon fill="white" stroke="black" points="291.5,-56.5 291.5,-86.5 387.5,-86.5 387.5,-56.5 291.5,-56.5"/>
<text text-anchor="start" x="299.5" y="-74.5" font-family="Helvetica,sans-Serif" font-size="10.00">src/engine/objects</text>
<text text-anchor="middle" x="339.5" y="-63.5" font-family="Helvetica,sans-Serif" font-size="10.00">/UnitGroup.cpp</text>
</a>
</g>
</g>
<!-- Node18&#45;&gt;Node19 -->
<g id="edge19" class="edge">
<title>Node18&#45;&gt;Node19</title>
<path fill="none" stroke="midnightblue" d="M349.57,-113.4C347.34,-104.37 344.89,-94.41 342.96,-86.58"/>
<polygon fill="midnightblue" stroke="midnightblue" points="346.24,-114.52 352.03,-123.4 353.04,-112.85 346.24,-114.52"/>
</g>
<!-- Node20&#45;&gt;Node8 -->
<g id="edge22" class="edge">
<title>Node20&#45;&gt;Node8</title>
<path fill="none" stroke="midnightblue" d="M636.68,-317.05C576.24,-305.52 480.15,-287.19 424.12,-276.51"/>
<polygon fill="midnightblue" stroke="midnightblue" points="636.32,-320.54 646.8,-318.98 637.63,-313.66 636.32,-320.54"/>
</g>
<!-- Node20&#45;&gt;Node15 -->
<g id="edge23" class="edge">
<title>Node20&#45;&gt;Node15</title>
<path fill="none" stroke="midnightblue" d="M666.96,-313.52C652.84,-304.52 635.56,-291.76 623.5,-277 601.61,-250.21 590.5,-241.1 590.5,-206.5 590.5,-206.5 590.5,-206.5 590.5,-137.5 590.5,-98.9 588.86,-82.18 560.5,-56 551.22,-47.44 480.18,-29.73 435.62,-19.26"/>
<polygon fill="midnightblue" stroke="midnightblue" points="665.34,-316.63 675.7,-318.88 669,-310.67 665.34,-316.63"/>
</g>
<!-- Node21 -->
<g id="node21" class="node">
<title>Node21</title>
<g id="a_node21"><a xlink:href="_sprites_manager_8cpp.html" target="_top" xlink:title=" ">
<polygon fill="white" stroke="black" points="632,-257.5 632,-276.5 751,-276.5 751,-257.5 632,-257.5"/>
<text text-anchor="middle" x="691.5" y="-264.5" font-family="Helvetica,sans-Serif" font-size="10.00">src/SpritesManager.cpp</text>
</a>
</g>
</g>
<!-- Node20&#45;&gt;Node21 -->
<g id="edge24" class="edge">
<title>Node20&#45;&gt;Node21</title>
<path fill="none" stroke="midnightblue" d="M691.5,-308.82C691.5,-298 691.5,-284.9 691.5,-276.51"/>
<polygon fill="midnightblue" stroke="midnightblue" points="688,-308.98 691.5,-318.98 695,-308.98 688,-308.98"/>
</g>
<!-- Node22&#45;&gt;Node5 -->
<g id="edge28" class="edge">
<title>Node22&#45;&gt;Node5</title>
<path fill="none" stroke="midnightblue" d="M621.97,-448.03C563.53,-436.19 479.41,-419.16 424.12,-407.97"/>
<polygon fill="midnightblue" stroke="midnightblue" points="621.35,-451.47 631.85,-450.03 622.74,-444.61 621.35,-451.47"/>
</g>
<!-- Node23 -->
<g id="node23" class="node">
<title>Node23</title>
<g id="a_node23"><a xlink:href="_ground_8cpp.html" target="_top" xlink:title=" ">
<polygon fill="white" stroke="black" points="1047.5,-380.5 1047.5,-410.5 1143.5,-410.5 1143.5,-380.5 1047.5,-380.5"/>
<text text-anchor="start" x="1055.5" y="-398.5" font-family="Helvetica,sans-Serif" font-size="10.00">src/engine/objects</text>
<text text-anchor="middle" x="1095.5" y="-387.5" font-family="Helvetica,sans-Serif" font-size="10.00">/Ground.cpp</text>
</a>
</g>
</g>
<!-- Node22&#45;&gt;Node23 -->
<g id="edge27" class="edge">
<title>Node22&#45;&gt;Node23</title>
<path fill="none" stroke="midnightblue" d="M755.29,-454C825.99,-445.56 940.65,-430.45 1038.5,-411 1041.4,-410.42 1044.38,-409.79 1047.38,-409.12"/>
<polygon fill="midnightblue" stroke="midnightblue" points="754.71,-450.54 745.19,-455.19 755.53,-457.49 754.71,-450.54"/>
</g>
<!-- Node24 -->
<g id="node24" class="node">
<title>Node24</title>
<g id="a_node24"><a xlink:href="_ground_earth_8hpp.html" target="_top" xlink:title=" ">
<polygon fill="white" stroke="black" points="482.5,-380.5 482.5,-410.5 606.5,-410.5 606.5,-380.5 482.5,-380.5"/>
<text text-anchor="start" x="490.5" y="-398.5" font-family="Helvetica,sans-Serif" font-size="10.00">include/engine/objects</text>
<text text-anchor="middle" x="544.5" y="-387.5" font-family="Helvetica,sans-Serif" font-size="10.00">/ground/GroundEarth.hpp</text>
</a>
</g>
</g>
<!-- Node22&#45;&gt;Node24 -->
<g id="edge29" class="edge">
<title>Node22&#45;&gt;Node24</title>
<path fill="none" stroke="midnightblue" d="M648.11,-443.27C625.18,-432.92 596.9,-420.15 575.68,-410.58"/>
<polygon fill="midnightblue" stroke="midnightblue" points="646.7,-446.47 657.25,-447.4 649.58,-440.09 646.7,-446.47"/>
</g>
<!-- Node26 -->
<g id="node26" class="node">
<title>Node26</title>
<g id="a_node26"><a xlink:href="_ground_empty_8hpp.html" target="_top" xlink:title=" ">
<polygon fill="white" stroke="black" points="624.5,-380.5 624.5,-410.5 752.5,-410.5 752.5,-380.5 624.5,-380.5"/>
<text text-anchor="start" x="632.5" y="-398.5" font-family="Helvetica,sans-Serif" font-size="10.00">include/engine/objects</text>
<text text-anchor="middle" x="688.5" y="-387.5" font-family="Helvetica,sans-Serif" font-size="10.00">/ground/GroundEmpty.hpp</text>
</a>
</g>
</g>
<!-- Node22&#45;&gt;Node26 -->
<g id="edge32" class="edge">
<title>Node22&#45;&gt;Node26</title>
<path fill="none" stroke="midnightblue" d="M688.5,-437.11C688.5,-428.15 688.5,-418.32 688.5,-410.58"/>
<polygon fill="midnightblue" stroke="midnightblue" points="685,-437.4 688.5,-447.4 692,-437.4 685,-437.4"/>
</g>
<!-- Node28 -->
<g id="node28" class="node">
<title>Node28</title>
<g id="a_node28"><a xlink:href="_ground_water_8hpp.html" target="_top" xlink:title=" ">
<polygon fill="white" stroke="black" points="771,-380.5 771,-410.5 898,-410.5 898,-380.5 771,-380.5"/>
<text text-anchor="start" x="779" y="-398.5" font-family="Helvetica,sans-Serif" font-size="10.00">include/engine/objects</text>
<text text-anchor="middle" x="834.5" y="-387.5" font-family="Helvetica,sans-Serif" font-size="10.00">/ground/GroundWater.hpp</text>
</a>
</g>
</g>
<!-- Node22&#45;&gt;Node28 -->
<g id="edge35" class="edge">
<title>Node22&#45;&gt;Node28</title>
<path fill="none" stroke="midnightblue" d="M729.45,-443.27C752.7,-432.92 781.37,-420.15 802.88,-410.58"/>
<polygon fill="midnightblue" stroke="midnightblue" points="727.89,-440.13 720.18,-447.4 730.74,-446.53 727.89,-440.13"/>
</g>
<!-- Node30 -->
<g id="node30" class="node">
<title>Node30</title>
<g id="a_node30"><a xlink:href="_mineral_8hpp.html" target="_top" xlink:title=" ">
<polygon fill="white" stroke="black" points="916,-380.5 916,-410.5 1029,-410.5 1029,-380.5 916,-380.5"/>
<text text-anchor="start" x="924" y="-398.5" font-family="Helvetica,sans-Serif" font-size="10.00">include/engine/objects</text>
<text text-anchor="middle" x="972.5" y="-387.5" font-family="Helvetica,sans-Serif" font-size="10.00">/ground/Mineral.hpp</text>
</a>
</g>
</g>
<!-- Node22&#45;&gt;Node30 -->
<g id="edge38" class="edge">
<title>Node22&#45;&gt;Node30</title>
<path fill="none" stroke="midnightblue" d="M755.13,-446.25C803.95,-435.08 869.5,-420.07 915.81,-409.47"/>
<polygon fill="midnightblue" stroke="midnightblue" points="754.26,-442.86 745.29,-448.5 755.82,-449.68 754.26,-442.86"/>
</g>
<!-- Node24&#45;&gt;Node20 -->
<g id="edge31" class="edge">
<title>Node24&#45;&gt;Node20</title>
<path fill="none" stroke="midnightblue" d="M585.67,-376.3C614.02,-363.76 650.38,-347.68 672.26,-338.01"/>
<polygon fill="midnightblue" stroke="midnightblue" points="584.13,-373.15 576.4,-380.4 586.96,-379.55 584.13,-373.15"/>
</g>
<!-- Node25 -->
<g id="node25" class="node">
<title>Node25</title>
<g id="a_node25"><a xlink:href="_ground_earth_8cpp.html" target="_top" xlink:title=" ">
<polygon fill="white" stroke="black" points="480.5,-313.5 480.5,-343.5 604.5,-343.5 604.5,-313.5 480.5,-313.5"/>
<text text-anchor="start" x="488.5" y="-331.5" font-family="Helvetica,sans-Serif" font-size="10.00">src/engine/objects</text>
<text text-anchor="middle" x="542.5" y="-320.5" font-family="Helvetica,sans-Serif" font-size="10.00">/ground/GroundEarth.cpp</text>
</a>
</g>
</g>
<!-- Node24&#45;&gt;Node25 -->
<g id="edge30" class="edge">
<title>Node24&#45;&gt;Node25</title>
<path fill="none" stroke="midnightblue" d="M543.75,-370.11C543.47,-361.15 543.17,-351.32 542.93,-343.58"/>
<polygon fill="midnightblue" stroke="midnightblue" points="540.26,-370.51 544.07,-380.4 547.26,-370.29 540.26,-370.51"/>
</g>
<!-- Node26&#45;&gt;Node20 -->
<g id="edge34" class="edge">
<title>Node26&#45;&gt;Node20</title>
<path fill="none" stroke="midnightblue" d="M689.62,-370.25C690.14,-359.02 690.72,-346.38 691.1,-338.19"/>
<polygon fill="midnightblue" stroke="midnightblue" points="686.12,-370.25 689.15,-380.4 693.11,-370.57 686.12,-370.25"/>
</g>
<!-- Node27 -->
<g id="node27" class="node">
<title>Node27</title>
<g id="a_node27"><a xlink:href="_ground_empty_8cpp.html" target="_top" xlink:title=" ">
<polygon fill="white" stroke="black" points="778.5,-313.5 778.5,-343.5 906.5,-343.5 906.5,-313.5 778.5,-313.5"/>
<text text-anchor="start" x="786.5" y="-331.5" font-family="Helvetica,sans-Serif" font-size="10.00">src/engine/objects</text>
<text text-anchor="middle" x="842.5" y="-320.5" font-family="Helvetica,sans-Serif" font-size="10.00">/ground/GroundEmpty.cpp</text>
</a>
</g>
</g>
<!-- Node26&#45;&gt;Node27 -->
<g id="edge33" class="edge">
<title>Node26&#45;&gt;Node27</title>
<path fill="none" stroke="midnightblue" d="M731.37,-376.41C755.95,-366.03 786.36,-353.2 809.15,-343.58"/>
<polygon fill="midnightblue" stroke="midnightblue" points="729.77,-373.28 721.92,-380.4 732.49,-379.73 729.77,-373.28"/>
</g>
<!-- Node28&#45;&gt;Node20 -->
<g id="edge37" class="edge">
<title>Node28&#45;&gt;Node20</title>
<path fill="none" stroke="midnightblue" d="M794.09,-376.13C766.57,-363.62 731.41,-347.64 710.22,-338.01"/>
<polygon fill="midnightblue" stroke="midnightblue" points="792.92,-379.44 803.47,-380.4 795.82,-373.07 792.92,-379.44"/>
</g>
<!-- Node29 -->
<g id="node29" class="node">
<title>Node29</title>
<g id="a_node29"><a xlink:href="_ground_water_8cpp.html" target="_top" xlink:title=" ">
<polygon fill="white" stroke="black" points="925,-313.5 925,-343.5 1052,-343.5 1052,-313.5 925,-313.5"/>
<text text-anchor="start" x="933" y="-331.5" font-family="Helvetica,sans-Serif" font-size="10.00">src/engine/objects</text>
<text text-anchor="middle" x="988.5" y="-320.5" font-family="Helvetica,sans-Serif" font-size="10.00">/ground/GroundWater.cpp</text>
</a>
</g>
</g>
<!-- Node28&#45;&gt;Node29 -->
<g id="edge36" class="edge">
<title>Node28&#45;&gt;Node29</title>
<path fill="none" stroke="midnightblue" d="M877.37,-376.41C901.95,-366.03 932.36,-353.2 955.15,-343.58"/>
<polygon fill="midnightblue" stroke="midnightblue" points="875.77,-373.28 867.92,-380.4 878.49,-379.73 875.77,-373.28"/>
</g>
<!-- Node30&#45;&gt;Node20 -->
<g id="edge40" class="edge">
<title>Node30&#45;&gt;Node20</title>
<path fill="none" stroke="midnightblue" d="M906.21,-379.17C850.64,-366.31 773.35,-348.43 728.26,-338"/>
<polygon fill="midnightblue" stroke="midnightblue" points="905.44,-382.58 915.97,-381.42 907.02,-375.76 905.44,-382.58"/>
</g>
<!-- Node31 -->
<g id="node31" class="node">
<title>Node31</title>
<g id="a_node31"><a xlink:href="_mineral_8cpp.html" target="_top" xlink:title=" ">
<polygon fill="white" stroke="black" points="1070,-313.5 1070,-343.5 1171,-343.5 1171,-313.5 1070,-313.5"/>
<text text-anchor="start" x="1078" y="-331.5" font-family="Helvetica,sans-Serif" font-size="10.00">src/engine/objects</text>
<text text-anchor="middle" x="1120.5" y="-320.5" font-family="Helvetica,sans-Serif" font-size="10.00">/ground/Mineral.cpp</text>
</a>
</g>
</g>
<!-- Node30&#45;&gt;Node31 -->
<g id="edge39" class="edge">
<title>Node30&#45;&gt;Node31</title>
<path fill="none" stroke="midnightblue" d="M1014.01,-376.27C1037.58,-365.92 1066.64,-353.15 1088.45,-343.58"/>
<polygon fill="midnightblue" stroke="midnightblue" points="1012.36,-373.17 1004.61,-380.4 1015.18,-379.58 1012.36,-373.17"/>
</g>
<!-- Node32&#45;&gt;Node14 -->
<g id="edge43" class="edge">
<title>Node32&#45;&gt;Node14</title>
<path fill="none" stroke="midnightblue" d="M438.22,-59.25C396.84,-47.69 333.34,-29.95 295.96,-19.51"/>
<polygon fill="midnightblue" stroke="midnightblue" points="437.41,-62.66 447.98,-61.98 439.29,-55.91 437.41,-62.66"/>
</g>
<!-- Node32&#45;&gt;Node15 -->
<g id="edge45" class="edge">
<title>Node32&#45;&gt;Node15</title>
<path fill="none" stroke="midnightblue" d="M458.97,-55.79C443.82,-44.38 423.34,-28.96 410.8,-19.51"/>
<polygon fill="midnightblue" stroke="midnightblue" points="457.09,-58.75 467.18,-61.98 461.3,-53.16 457.09,-58.75"/>
</g>
<!-- Node33 -->
<g id="node33" class="node">
<title>Node33</title>
<g id="a_node33"><a xlink:href="_g_u_i_manager_8cpp.html" target="_top" xlink:title=" ">
<polygon fill="white" stroke="black" points="453.5,-0.5 453.5,-19.5 581.5,-19.5 581.5,-0.5 453.5,-0.5"/>
<text text-anchor="middle" x="517.5" y="-7.5" font-family="Helvetica,sans-Serif" font-size="10.00">src/GUI/GUIManager.cpp</text>
</a>
</g>
</g>
<!-- Node32&#45;&gt;Node33 -->
<g id="edge44" class="edge">
<title>Node32&#45;&gt;Node33</title>
<path fill="none" stroke="midnightblue" d="M489.64,-53.51C496.93,-42.39 506.13,-28.34 511.92,-19.51"/>
<polygon fill="midnightblue" stroke="midnightblue" points="486.64,-51.69 484.09,-61.98 492.5,-55.53 486.64,-51.69"/>
</g>
</g>
</svg>
