<?xml version="1.0" encoding="UTF-8" standalone="no"?>
<!DOCTYPE svg PUBLIC "-//W3C//DTD SVG 1.1//EN"
 "http://www.w3.org/Graphics/SVG/1.1/DTD/svg11.dtd">
<!-- Generated by graphviz version 2.47.0 (20210407.0042)
 -->
<!-- Title: src/engine/Drawable.cpp Pages: 1 -->
<svg width="856pt" height="644pt"
 viewBox="0.00 0.00 855.92 644.00" xmlns="http://www.w3.org/2000/svg" xmlns:xlink="http://www.w3.org/1999/xlink">
<g id="graph0" class="graph" transform="scale(1 1) rotate(0) translate(4 640)">
<title>src/engine/Drawable.cpp</title>
<polygon fill="white" stroke="transparent" points="-4,4 -4,-640 851.92,-640 851.92,4 -4,4"/>
<!-- Node1 -->
<g id="node1" class="node">
<title>Node1</title>
<g id="a_node1"><a xlink:title=" ">
<polygon fill="#bfbfbf" stroke="black" points="103.92,-616.5 103.92,-635.5 226.92,-635.5 226.92,-616.5 103.92,-616.5"/>
<text text-anchor="middle" x="165.42" y="-623.5" font-family="Helvetica,sans-Serif" font-size="10.00">src/engine/Drawable.cpp</text>
</a>
</g>
</g>
<!-- Node2 -->
<g id="node2" class="node">
<title>Node2</title>
<g id="a_node2"><a xlink:href="_drawable_8hpp.html" target="_top" xlink:title=" ">
<polygon fill="white" stroke="black" points="11.92,-168.5 11.92,-187.5 118.92,-187.5 118.92,-168.5 11.92,-168.5"/>
<text text-anchor="middle" x="65.42" y="-175.5" font-family="Helvetica,sans-Serif" font-size="10.00">engine/Drawable.hpp</text>
</a>
</g>
</g>
<!-- Node1&#45;&gt;Node2 -->
<g id="edge1" class="edge">
<title>Node1&#45;&gt;Node2</title>
<path fill="none" stroke="midnightblue" d="M131.76,-616.48C87.54,-603.04 15.42,-572.32 15.42,-515 15.42,-515 15.42,-515 15.42,-289 15.42,-253.18 37.66,-216.21 52.48,-195.56"/>
<polygon fill="midnightblue" stroke="midnightblue" points="55.3,-197.63 58.47,-187.52 49.69,-193.45 55.3,-197.63"/>
</g>
<!-- Node7 -->
<g id="node7" class="node">
<title>Node7</title>
<g id="a_node7"><a xlink:href="_engine_8hpp.html" target="_top" xlink:title=" ">
<polygon fill="white" stroke="black" points="133.42,-560.5 133.42,-579.5 197.42,-579.5 197.42,-560.5 133.42,-560.5"/>
<text text-anchor="middle" x="165.42" y="-567.5" font-family="Helvetica,sans-Serif" font-size="10.00">Engine.hpp</text>
</a>
</g>
</g>
<!-- Node1&#45;&gt;Node7 -->
<g id="edge6" class="edge">
<title>Node1&#45;&gt;Node7</title>
<path fill="none" stroke="midnightblue" d="M165.42,-616.08C165.42,-609.01 165.42,-598.86 165.42,-589.99"/>
<polygon fill="midnightblue" stroke="midnightblue" points="168.92,-589.75 165.42,-579.75 161.92,-589.75 168.92,-589.75"/>
</g>
<!-- Node20 -->
<g id="node20" class="node">
<title>Node20</title>
<g id="a_node20"><a xlink:href="_resource_manager_8hpp.html" target="_top" xlink:title=" ">
<polygon fill="white" stroke="black" points="542.92,-280.5 542.92,-299.5 695.92,-299.5 695.92,-280.5 542.92,-280.5"/>
<text text-anchor="middle" x="619.42" y="-287.5" font-family="Helvetica,sans-Serif" font-size="10.00">graphics/ResourceManager.hpp</text>
</a>
</g>
</g>
<!-- Node1&#45;&gt;Node20 -->
<g id="edge28" class="edge">
<title>Node1&#45;&gt;Node20</title>
<path fill="none" stroke="midnightblue" d="M227.28,-617.42C323.58,-603.86 498.42,-571.47 498.42,-515 498.42,-515 498.42,-515 498.42,-401 498.42,-352.99 551.22,-320.41 587.06,-303.82"/>
<polygon fill="midnightblue" stroke="midnightblue" points="588.94,-306.82 596.66,-299.57 586.1,-300.42 588.94,-306.82"/>
</g>
<!-- Node3 -->
<g id="node3" class="node">
<title>Node3</title>
<g id="a_node3"><a xlink:title=" ">
<polygon fill="white" stroke="#bfbfbf" points="32.42,-112.5 32.42,-131.5 98.42,-131.5 98.42,-112.5 32.42,-112.5"/>
<text text-anchor="middle" x="65.42" y="-119.5" font-family="Helvetica,sans-Serif" font-size="10.00">string_view</text>
</a>
</g>
</g>
<!-- Node2&#45;&gt;Node3 -->
<g id="edge2" class="edge">
<title>Node2&#45;&gt;Node3</title>
<path fill="none" stroke="midnightblue" d="M65.42,-168.08C65.42,-161.01 65.42,-150.86 65.42,-141.99"/>
<polygon fill="midnightblue" stroke="midnightblue" points="68.92,-141.75 65.42,-131.75 61.92,-141.75 68.92,-141.75"/>
</g>
<!-- Node4 -->
<g id="node4" class="node">
<title>Node4</title>
<g id="a_node4"><a xlink:href="_vector2_d_8hpp.html" target="_top" xlink:title=" ">
<polygon fill="white" stroke="black" points="361.42,-112.5 361.42,-131.5 473.42,-131.5 473.42,-112.5 361.42,-112.5"/>
<text text-anchor="middle" x="417.42" y="-119.5" font-family="Helvetica,sans-Serif" font-size="10.00">Helpers/Vector2D.hpp</text>
</a>
</g>
</g>
<!-- Node2&#45;&gt;Node4 -->
<g id="edge3" class="edge">
<title>Node2&#45;&gt;Node4</title>
<path fill="none" stroke="midnightblue" d="M119.27,-168.74C181.73,-159.16 284.71,-143.36 351.8,-133.07"/>
<polygon fill="midnightblue" stroke="midnightblue" points="352.49,-136.5 361.84,-131.53 351.43,-129.58 352.49,-136.5"/>
</g>
<!-- Node5 -->
<g id="node5" class="node">
<title>Node5</title>
<g id="a_node5"><a xlink:title=" ">
<polygon fill="white" stroke="#bfbfbf" points="410.92,-56.5 410.92,-75.5 449.92,-75.5 449.92,-56.5 410.92,-56.5"/>
<text text-anchor="middle" x="430.42" y="-63.5" font-family="Helvetica,sans-Serif" font-size="10.00">utility</text>
</a>
</g>
</g>
<!-- Node4&#45;&gt;Node5 -->
<g id="edge4" class="edge">
<title>Node4&#45;&gt;Node5</title>
<path fill="none" stroke="midnightblue" d="M419.57,-112.08C421.29,-104.93 423.77,-94.64 425.92,-85.69"/>
<polygon fill="midnightblue" stroke="midnightblue" points="429.38,-86.29 428.32,-75.75 422.57,-84.65 429.38,-86.29"/>
</g>
<!-- Node6 -->
<g id="node6" class="node">
<title>Node6</title>
<g id="a_node6"><a xlink:title=" ">
<polygon fill="white" stroke="#bfbfbf" points="348.42,-56.5 348.42,-75.5 392.42,-75.5 392.42,-56.5 348.42,-56.5"/>
<text text-anchor="middle" x="370.42" y="-63.5" font-family="Helvetica,sans-Serif" font-size="10.00">cmath</text>
</a>
</g>
</g>
<!-- Node4&#45;&gt;Node6 -->
<g id="edge5" class="edge">
<title>Node4&#45;&gt;Node6</title>
<path fill="none" stroke="midnightblue" d="M409.66,-112.08C402.89,-104.3 392.88,-92.8 384.67,-83.37"/>
<polygon fill="midnightblue" stroke="midnightblue" points="387.25,-81 378.04,-75.75 381.97,-85.59 387.25,-81"/>
</g>
<!-- Node8 -->
<g id="node8" class="node">
<title>Node8</title>
<g id="a_node8"><a xlink:href="_player_8hpp.html" target="_top" xlink:title=" ">
<polygon fill="white" stroke="black" points="51.42,-448.5 51.42,-467.5 179.42,-467.5 179.42,-448.5 51.42,-448.5"/>
<text text-anchor="middle" x="115.42" y="-455.5" font-family="Helvetica,sans-Serif" font-size="10.00">engine/objects/Player.hpp</text>
</a>
</g>
</g>
<!-- Node7&#45;&gt;Node8 -->
<g id="edge7" class="edge">
<title>Node7&#45;&gt;Node8</title>
<path fill="none" stroke="midnightblue" d="M158.1,-560.22C151.16,-551.51 140.86,-537.54 134.42,-524 127.32,-509.07 122.29,-490.93 119.2,-477.61"/>
<polygon fill="midnightblue" stroke="midnightblue" points="122.59,-476.76 117.05,-467.73 115.75,-478.25 122.59,-476.76"/>
</g>
<!-- Node17 -->
<g id="node17" class="node">
<title>Node17</title>
<g id="a_node17"><a xlink:href="_unit_group_8hpp.html" target="_top" xlink:title=" ">
<polygon fill="white" stroke="black" points="143.92,-504.5 143.92,-523.5 288.92,-523.5 288.92,-504.5 143.92,-504.5"/>
<text text-anchor="middle" x="216.42" y="-511.5" font-family="Helvetica,sans-Serif" font-size="10.00">engine/objects/UnitGroup.hpp</text>
</a>
</g>
</g>
<!-- Node7&#45;&gt;Node17 -->
<g id="edge24" class="edge">
<title>Node7&#45;&gt;Node17</title>
<path fill="none" stroke="midnightblue" d="M173.85,-560.08C181.27,-552.22 192.28,-540.57 201.24,-531.08"/>
<polygon fill="midnightblue" stroke="midnightblue" points="203.84,-533.42 208.16,-523.75 198.75,-528.62 203.84,-533.42"/>
</g>
<!-- Node8&#45;&gt;Node2 -->
<g id="edge8" class="edge">
<title>Node8&#45;&gt;Node2</title>
<path fill="none" stroke="midnightblue" d="M112.36,-448.22C102.48,-419.42 71.53,-325.01 61.42,-244 59.5,-228.55 60.8,-210.92 62.41,-197.92"/>
<polygon fill="midnightblue" stroke="midnightblue" points="65.9,-198.26 63.84,-187.86 58.97,-197.27 65.9,-198.26"/>
</g>
<!-- Node9 -->
<g id="node9" class="node">
<title>Node9</title>
<g id="a_node9"><a xlink:href="_world_actor_8hpp.html" target="_top" xlink:title=" ">
<polygon fill="white" stroke="black" points="216.42,-392.5 216.42,-411.5 330.42,-411.5 330.42,-392.5 216.42,-392.5"/>
<text text-anchor="middle" x="273.42" y="-399.5" font-family="Helvetica,sans-Serif" font-size="10.00">engine/WorldActor.hpp</text>
</a>
</g>
</g>
<!-- Node8&#45;&gt;Node9 -->
<g id="edge9" class="edge">
<title>Node8&#45;&gt;Node9</title>
<path fill="none" stroke="midnightblue" d="M140.46,-448.44C167.04,-439.36 209.23,-424.94 238.95,-414.78"/>
<polygon fill="midnightblue" stroke="midnightblue" points="240.17,-418.06 248.51,-411.52 237.91,-411.44 240.17,-418.06"/>
</g>
<!-- Node9&#45;&gt;Node4 -->
<g id="edge10" class="edge">
<title>Node9&#45;&gt;Node4</title>
<path fill="none" stroke="midnightblue" d="M282.04,-392.36C290.23,-383.75 302.46,-369.85 310.42,-356 341.62,-301.75 324.59,-275.98 359.42,-224 372.56,-204.4 386,-208.05 398.42,-188 407.23,-173.79 412.12,-155.31 414.72,-141.69"/>
<polygon fill="midnightblue" stroke="midnightblue" points="418.21,-142.03 416.4,-131.59 411.31,-140.88 418.21,-142.03"/>
</g>
<!-- Node10 -->
<g id="node10" class="node">
<title>Node10</title>
<g id="a_node10"><a xlink:href="_field_8hpp.html" target="_top" xlink:title=" ">
<polygon fill="white" stroke="black" points="245.42,-336.5 245.42,-355.5 301.42,-355.5 301.42,-336.5 245.42,-336.5"/>
<text text-anchor="middle" x="273.42" y="-343.5" font-family="Helvetica,sans-Serif" font-size="10.00">Field.hpp</text>
</a>
</g>
</g>
<!-- Node9&#45;&gt;Node10 -->
<g id="edge11" class="edge">
<title>Node9&#45;&gt;Node10</title>
<path fill="none" stroke="midnightblue" d="M273.42,-392.08C273.42,-385.01 273.42,-374.86 273.42,-365.99"/>
<polygon fill="midnightblue" stroke="midnightblue" points="276.92,-365.75 273.42,-355.75 269.92,-365.75 276.92,-365.75"/>
</g>
<!-- Node10&#45;&gt;Node4 -->
<g id="edge23" class="edge">
<title>Node10&#45;&gt;Node4</title>
<path fill="none" stroke="midnightblue" d="M273.34,-336.48C273.5,-308.81 277.6,-220.17 321.42,-168 334.57,-152.35 354.37,-141.81 372.59,-134.89"/>
<polygon fill="midnightblue" stroke="midnightblue" points="373.93,-138.13 382.2,-131.5 371.61,-131.52 373.93,-138.13"/>
</g>
<!-- Node11 -->
<g id="node11" class="node">
<title>Node11</title>
<g id="a_node11"><a xlink:href="_cell_8hpp.html" target="_top" xlink:title=" ">
<polygon fill="white" stroke="black" points="98.92,-280.5 98.92,-299.5 215.92,-299.5 215.92,-280.5 98.92,-280.5"/>
<text text-anchor="middle" x="157.42" y="-287.5" font-family="Helvetica,sans-Serif" font-size="10.00">engine/objects/Cell.hpp</text>
</a>
</g>
</g>
<!-- Node10&#45;&gt;Node11 -->
<g id="edge12" class="edge">
<title>Node10&#45;&gt;Node11</title>
<path fill="none" stroke="midnightblue" d="M255.04,-336.44C236.21,-327.68 206.69,-313.94 185.04,-303.86"/>
<polygon fill="midnightblue" stroke="midnightblue" points="186.26,-300.56 175.72,-299.52 183.31,-306.91 186.26,-300.56"/>
</g>
<!-- Node11&#45;&gt;Node2 -->
<g id="edge13" class="edge">
<title>Node11&#45;&gt;Node2</title>
<path fill="none" stroke="midnightblue" d="M125.62,-280.4C107,-273.64 84.79,-262.25 72.42,-244 63.37,-230.64 62.21,-212.07 62.98,-198.2"/>
<polygon fill="midnightblue" stroke="midnightblue" points="66.5,-198.15 63.94,-187.87 59.53,-197.5 66.5,-198.15"/>
</g>
<!-- Node12 -->
<g id="node12" class="node">
<title>Node12</title>
<g id="a_node12"><a xlink:href="_tickable_8hpp.html" target="_top" xlink:title=" ">
<polygon fill="white" stroke="black" points="148.92,-168.5 148.92,-187.5 251.92,-187.5 251.92,-168.5 148.92,-168.5"/>
<text text-anchor="middle" x="200.42" y="-175.5" font-family="Helvetica,sans-Serif" font-size="10.00">engine/Tickable.hpp</text>
</a>
</g>
</g>
<!-- Node11&#45;&gt;Node12 -->
<g id="edge14" class="edge">
<title>Node11&#45;&gt;Node12</title>
<path fill="none" stroke="midnightblue" d="M191.61,-280.49C210.42,-273.88 232.17,-262.6 243.42,-244 254.04,-226.46 237.01,-206.9 221.35,-193.86"/>
<polygon fill="midnightblue" stroke="midnightblue" points="223.48,-191.08 213.44,-187.69 219.17,-196.6 223.48,-191.08"/>
</g>
<!-- Node13 -->
<g id="node13" class="node">
<title>Node13</title>
<g id="a_node13"><a xlink:title=" ">
<polygon fill="white" stroke="#bfbfbf" points="80.42,-56.5 80.42,-75.5 124.42,-75.5 124.42,-56.5 80.42,-56.5"/>
<text text-anchor="middle" x="102.42" y="-63.5" font-family="Helvetica,sans-Serif" font-size="10.00">vector</text>
</a>
</g>
</g>
<!-- Node11&#45;&gt;Node13 -->
<g id="edge15" class="edge">
<title>Node11&#45;&gt;Node13</title>
<path fill="none" stroke="midnightblue" d="M127.02,-280.47C88.53,-267.72 24.55,-239.5 2.42,-188 -8.35,-162.93 22.34,-113.27 23.42,-112 35.97,-97.28 54.61,-86.34 70.64,-78.93"/>
<polygon fill="midnightblue" stroke="midnightblue" points="72.42,-81.97 80.2,-74.78 69.63,-75.55 72.42,-81.97"/>
</g>
<!-- Node14 -->
<g id="node14" class="node">
<title>Node14</title>
<g id="a_node14"><a xlink:href="_ground_8hpp.html" target="_top" xlink:title=" ">
<polygon fill="white" stroke="black" points="81.42,-224.5 81.42,-243.5 147.42,-243.5 147.42,-224.5 81.42,-224.5"/>
<text text-anchor="middle" x="114.42" y="-231.5" font-family="Helvetica,sans-Serif" font-size="10.00">Ground.hpp</text>
</a>
</g>
</g>
<!-- Node11&#45;&gt;Node14 -->
<g id="edge16" class="edge">
<title>Node11&#45;&gt;Node14</title>
<path fill="none" stroke="midnightblue" d="M150.32,-280.08C144.19,-272.38 135.15,-261.03 127.68,-251.65"/>
<polygon fill="midnightblue" stroke="midnightblue" points="130.36,-249.39 121.39,-243.75 124.88,-253.75 130.36,-249.39"/>
</g>
<!-- Node15 -->
<g id="node15" class="node">
<title>Node15</title>
<g id="a_node15"><a xlink:href="_building_8hpp.html" target="_top" xlink:title=" ">
<polygon fill="white" stroke="black" points="165.92,-224.5 165.92,-243.5 234.92,-243.5 234.92,-224.5 165.92,-224.5"/>
<text text-anchor="middle" x="200.42" y="-231.5" font-family="Helvetica,sans-Serif" font-size="10.00">Building.hpp</text>
</a>
</g>
</g>
<!-- Node11&#45;&gt;Node15 -->
<g id="edge19" class="edge">
<title>Node11&#45;&gt;Node15</title>
<path fill="none" stroke="midnightblue" d="M164.52,-280.08C170.66,-272.38 179.69,-261.03 187.16,-251.65"/>
<polygon fill="midnightblue" stroke="midnightblue" points="189.96,-253.75 193.46,-243.75 184.49,-249.39 189.96,-253.75"/>
</g>
<!-- Node14&#45;&gt;Node2 -->
<g id="edge17" class="edge">
<title>Node14&#45;&gt;Node2</title>
<path fill="none" stroke="midnightblue" d="M106.33,-224.08C99.27,-216.3 88.84,-204.8 80.27,-195.37"/>
<polygon fill="midnightblue" stroke="midnightblue" points="82.68,-192.8 73.36,-187.75 77.49,-197.51 82.68,-192.8"/>
</g>
<!-- Node14&#45;&gt;Node12 -->
<g id="edge18" class="edge">
<title>Node14&#45;&gt;Node12</title>
<path fill="none" stroke="midnightblue" d="M128.24,-224.32C141.66,-215.9 162.25,-202.97 178.01,-193.07"/>
<polygon fill="midnightblue" stroke="midnightblue" points="180.03,-195.94 186.64,-187.65 176.31,-190.01 180.03,-195.94"/>
</g>
<!-- Node15&#45;&gt;Node2 -->
<g id="edge20" class="edge">
<title>Node15&#45;&gt;Node2</title>
<path fill="none" stroke="midnightblue" d="M179.03,-224.44C156.72,-215.52 121.52,-201.44 96.22,-191.32"/>
<polygon fill="midnightblue" stroke="midnightblue" points="97.3,-187.98 86.71,-187.52 94.7,-194.48 97.3,-187.98"/>
</g>
<!-- Node15&#45;&gt;Node12 -->
<g id="edge21" class="edge">
<title>Node15&#45;&gt;Node12</title>
<path fill="none" stroke="midnightblue" d="M200.42,-224.08C200.42,-217.01 200.42,-206.86 200.42,-197.99"/>
<polygon fill="midnightblue" stroke="midnightblue" points="203.92,-197.75 200.42,-187.75 196.92,-197.75 203.92,-197.75"/>
</g>
<!-- Node16 -->
<g id="node16" class="node">
<title>Node16</title>
<g id="a_node16"><a xlink:title=" ">
<polygon fill="white" stroke="#bfbfbf" points="329.92,-168.5 329.92,-187.5 388.92,-187.5 388.92,-168.5 329.92,-168.5"/>
<text text-anchor="middle" x="359.42" y="-175.5" font-family="Helvetica,sans-Serif" font-size="10.00">functional</text>
</a>
</g>
</g>
<!-- Node15&#45;&gt;Node16 -->
<g id="edge22" class="edge">
<title>Node15&#45;&gt;Node16</title>
<path fill="none" stroke="midnightblue" d="M225.62,-224.44C252.37,-215.36 294.83,-200.94 324.73,-190.78"/>
<polygon fill="midnightblue" stroke="midnightblue" points="326,-194.05 334.35,-187.52 323.75,-187.42 326,-194.05"/>
</g>
<!-- Node18 -->
<g id="node18" class="node">
<title>Node18</title>
<g id="a_node18"><a xlink:href="_unit_8hpp.html" target="_top" xlink:title=" ">
<polygon fill="white" stroke="black" points="246.92,-448.5 246.92,-467.5 299.92,-467.5 299.92,-448.5 246.92,-448.5"/>
<text text-anchor="middle" x="273.42" y="-455.5" font-family="Helvetica,sans-Serif" font-size="10.00">Unit.hpp</text>
</a>
</g>
</g>
<!-- Node17&#45;&gt;Node18 -->
<g id="edge25" class="edge">
<title>Node17&#45;&gt;Node18</title>
<path fill="none" stroke="midnightblue" d="M225.58,-504.32C233.93,-496.42 246.46,-484.55 256.6,-474.94"/>
<polygon fill="midnightblue" stroke="midnightblue" points="259.25,-477.25 264.1,-467.83 254.43,-472.17 259.25,-477.25"/>
</g>
<!-- Node19 -->
<g id="node19" class="node">
<title>Node19</title>
<g id="a_node19"><a xlink:title=" ">
<polygon fill="white" stroke="#bfbfbf" points="199.92,-448.5 199.92,-467.5 228.92,-467.5 228.92,-448.5 199.92,-448.5"/>
<text text-anchor="middle" x="214.42" y="-455.5" font-family="Helvetica,sans-Serif" font-size="10.00">list</text>
</a>
</g>
</g>
<!-- Node17&#45;&gt;Node19 -->
<g id="edge27" class="edge">
<title>Node17&#45;&gt;Node19</title>
<path fill="none" stroke="midnightblue" d="M216.09,-504.08C215.83,-497.01 215.46,-486.86 215.13,-477.99"/>
<polygon fill="midnightblue" stroke="midnightblue" points="218.62,-477.61 214.75,-467.75 211.62,-477.87 218.62,-477.61"/>
</g>
<!-- Node18&#45;&gt;Node9 -->
<g id="edge26" class="edge">
<title>Node18&#45;&gt;Node9</title>
<path fill="none" stroke="midnightblue" d="M273.42,-448.08C273.42,-441.01 273.42,-430.86 273.42,-421.99"/>
<polygon fill="midnightblue" stroke="midnightblue" points="276.92,-421.75 273.42,-411.75 269.92,-421.75 276.92,-421.75"/>
</g>
<!-- Node21 -->
<g id="node21" class="node">
<title>Node21</title>
<g id="a_node21"><a xlink:title=" ">
<polygon fill="white" stroke="#bfbfbf" points="367.92,-224.5 367.92,-243.5 402.92,-243.5 402.92,-224.5 367.92,-224.5"/>
<text text-anchor="middle" x="385.42" y="-231.5" font-family="Helvetica,sans-Serif" font-size="10.00">map</text>
</a>
</g>
</g>
<!-- Node20&#45;&gt;Node21 -->
<g id="edge29" class="edge">
<title>Node20&#45;&gt;Node21</title>
<path fill="none" stroke="midnightblue" d="M573.45,-280.48C533.41,-272.73 473.67,-260.38 412.83,-243.87"/>
<polygon fill="midnightblue" stroke="midnightblue" points="413.63,-240.46 403.06,-241.18 411.77,-247.21 413.63,-240.46"/>
</g>
<!-- Node22 -->
<g id="node22" class="node">
<title>Node22</title>
<g id="a_node22"><a xlink:title=" ">
<polygon fill="white" stroke="#bfbfbf" points="806.92,-168.5 806.92,-187.5 847.92,-187.5 847.92,-168.5 806.92,-168.5"/>
<text text-anchor="middle" x="827.42" y="-175.5" font-family="Helvetica,sans-Serif" font-size="10.00">string</text>
</a>
</g>
</g>
<!-- Node20&#45;&gt;Node22 -->
<g id="edge30" class="edge">
<title>Node20&#45;&gt;Node22</title>
<path fill="none" stroke="midnightblue" d="M695.03,-280.46C743.24,-273.43 799.71,-261.69 816.42,-244 827.83,-231.92 829.84,-212.64 829.44,-198.2"/>
<polygon fill="midnightblue" stroke="midnightblue" points="832.91,-197.64 828.73,-187.9 825.92,-198.12 832.91,-197.64"/>
</g>
<!-- Node23 -->
<g id="node23" class="node">
<title>Node23</title>
<g id="a_node23"><a xlink:title=" ">
<polygon fill="white" stroke="#bfbfbf" points="593.92,-224.5 593.92,-243.5 644.92,-243.5 644.92,-224.5 593.92,-224.5"/>
<text text-anchor="middle" x="619.42" y="-231.5" font-family="Helvetica,sans-Serif" font-size="10.00">memory</text>
</a>
</g>
</g>
<!-- Node20&#45;&gt;Node23 -->
<g id="edge31" class="edge">
<title>Node20&#45;&gt;Node23</title>
<path fill="none" stroke="midnightblue" d="M619.42,-280.08C619.42,-273.01 619.42,-262.86 619.42,-253.99"/>
<polygon fill="midnightblue" stroke="midnightblue" points="622.92,-253.75 619.42,-243.75 615.92,-253.75 622.92,-253.75"/>
</g>
<!-- Node24 -->
<g id="node24" class="node">
<title>Node24</title>
<g id="a_node24"><a xlink:href="_shader_8hpp.html" target="_top" xlink:title=" ">
<polygon fill="white" stroke="black" points="701.92,-224.5 701.92,-243.5 806.92,-243.5 806.92,-224.5 701.92,-224.5"/>
<text text-anchor="middle" x="754.42" y="-231.5" font-family="Helvetica,sans-Serif" font-size="10.00">graphics/Shader.hpp</text>
</a>
</g>
</g>
<!-- Node20&#45;&gt;Node24 -->
<g id="edge32" class="edge">
<title>Node20&#45;&gt;Node24</title>
<path fill="none" stroke="midnightblue" d="M640.81,-280.44C663.13,-271.52 698.33,-257.44 723.63,-247.32"/>
<polygon fill="midnightblue" stroke="midnightblue" points="725.15,-250.48 733.13,-243.52 722.55,-243.98 725.15,-250.48"/>
</g>
<!-- Node25 -->
<g id="node25" class="node">
<title>Node25</title>
<g id="a_node25"><a xlink:href="_g_shape_8hpp.html" target="_top" xlink:title=" ">
<polygon fill="white" stroke="black" points="586.42,-168.5 586.42,-187.5 696.42,-187.5 696.42,-168.5 586.42,-168.5"/>
<text text-anchor="middle" x="641.42" y="-175.5" font-family="Helvetica,sans-Serif" font-size="10.00">graphics/GShape.hpp</text>
</a>
</g>
</g>
<!-- Node20&#45;&gt;Node25 -->
<g id="edge47" class="edge">
<title>Node20&#45;&gt;Node25</title>
<path fill="none" stroke="midnightblue" d="M628.98,-280.45C637.51,-272.12 649.41,-258.6 654.42,-244 659.73,-228.54 655.15,-210.23 650.01,-196.98"/>
<polygon fill="midnightblue" stroke="midnightblue" points="653.14,-195.39 645.96,-187.6 646.71,-198.17 653.14,-195.39"/>
</g>
<!-- Node31 -->
<g id="node31" class="node">
<title>Node31</title>
<g id="a_node31"><a xlink:href="_event_handler_8hpp.html" target="_top" xlink:title=" ">
<polygon fill="white" stroke="black" points="420.92,-224.5 420.92,-243.5 575.92,-243.5 575.92,-224.5 420.92,-224.5"/>
<text text-anchor="middle" x="498.42" y="-231.5" font-family="Helvetica,sans-Serif" font-size="10.00">EventHandler/EventHandler.hpp</text>
</a>
</g>
</g>
<!-- Node20&#45;&gt;Node31 -->
<g id="edge48" class="edge">
<title>Node20&#45;&gt;Node31</title>
<path fill="none" stroke="midnightblue" d="M600.25,-280.44C580.51,-271.64 549.54,-257.81 526.93,-247.72"/>
<polygon fill="midnightblue" stroke="midnightblue" points="528.07,-244.4 517.51,-243.52 525.21,-250.79 528.07,-244.4"/>
</g>
<!-- Node24&#45;&gt;Node22 -->
<g id="edge33" class="edge">
<title>Node24&#45;&gt;Node22</title>
<path fill="none" stroke="midnightblue" d="M766.15,-224.32C777.26,-216.11 794.17,-203.6 807.41,-193.81"/>
<polygon fill="midnightblue" stroke="midnightblue" points="809.52,-196.59 815.48,-187.83 805.36,-190.97 809.52,-196.59"/>
</g>
<!-- Node24&#45;&gt;Node25 -->
<g id="edge34" class="edge">
<title>Node24&#45;&gt;Node25</title>
<path fill="none" stroke="midnightblue" d="M731.43,-224.44C711.43,-215.79 682.94,-202.31 663.28,-192.27"/>
<polygon fill="midnightblue" stroke="midnightblue" points="664.65,-189.03 654.17,-187.52 661.42,-195.24 664.65,-189.03"/>
</g>
<!-- Node29 -->
<g id="node29" class="node">
<title>Node29</title>
<g id="a_node29"><a xlink:href="_transform_8hpp.html" target="_top" xlink:title=" ">
<polygon fill="white" stroke="black" points="645.92,-56.5 645.92,-75.5 764.92,-75.5 764.92,-56.5 645.92,-56.5"/>
<text text-anchor="middle" x="705.42" y="-63.5" font-family="Helvetica,sans-Serif" font-size="10.00">graphics/Transform.hpp</text>
</a>
</g>
</g>
<!-- Node24&#45;&gt;Node29 -->
<g id="edge46" class="edge">
<title>Node24&#45;&gt;Node29</title>
<path fill="none" stroke="midnightblue" d="M751.79,-224.08C744.08,-197.95 721.43,-121.21 710.91,-85.58"/>
<polygon fill="midnightblue" stroke="midnightblue" points="714.14,-84.17 707.95,-75.57 707.43,-86.15 714.14,-84.17"/>
</g>
<!-- Node25&#45;&gt;Node4 -->
<g id="edge45" class="edge">
<title>Node25&#45;&gt;Node4</title>
<path fill="none" stroke="midnightblue" d="M605.93,-168.44C567.1,-159.08 504.77,-144.06 462.51,-133.87"/>
<polygon fill="midnightblue" stroke="midnightblue" points="463.29,-130.46 452.75,-131.52 461.65,-137.26 463.29,-130.46"/>
</g>
<!-- Node25&#45;&gt;Node24 -->
<g id="edge43" class="edge">
<title>Node25&#45;&gt;Node24</title>
<path fill="none" stroke="midnightblue" d="M664.64,-187.65C684.54,-196.27 712.72,-209.61 732.29,-219.59"/>
<polygon fill="midnightblue" stroke="midnightblue" points="730.9,-222.81 741.38,-224.32 734.13,-216.6 730.9,-222.81"/>
</g>
<!-- Node26 -->
<g id="node26" class="node">
<title>Node26</title>
<g id="a_node26"><a xlink:href="_window_8hpp.html" target="_top" xlink:title=" ">
<polygon fill="white" stroke="black" points="512.92,-112.5 512.92,-131.5 621.92,-131.5 621.92,-112.5 512.92,-112.5"/>
<text text-anchor="middle" x="567.42" y="-119.5" font-family="Helvetica,sans-Serif" font-size="10.00">graphics/Window.hpp</text>
</a>
</g>
</g>
<!-- Node25&#45;&gt;Node26 -->
<g id="edge35" class="edge">
<title>Node25&#45;&gt;Node26</title>
<path fill="none" stroke="midnightblue" d="M629.53,-168.32C618.27,-160.11 601.14,-147.6 587.71,-137.81"/>
<polygon fill="midnightblue" stroke="midnightblue" points="589.67,-134.9 579.53,-131.83 585.54,-140.56 589.67,-134.9"/>
</g>
<!-- Node25&#45;&gt;Node29 -->
<g id="edge44" class="edge">
<title>Node25&#45;&gt;Node29</title>
<path fill="none" stroke="midnightblue" d="M646.45,-168.37C656.96,-150.3 681.47,-108.18 695.35,-84.31"/>
<polygon fill="midnightblue" stroke="midnightblue" points="698.42,-86 700.43,-75.59 692.37,-82.47 698.42,-86"/>
</g>
<!-- Node26&#45;&gt;Node5 -->
<g id="edge38" class="edge">
<title>Node26&#45;&gt;Node5</title>
<path fill="none" stroke="midnightblue" d="M545.72,-112.44C522.54,-103.31 485.66,-88.77 459.88,-78.61"/>
<polygon fill="midnightblue" stroke="midnightblue" points="460.84,-75.23 450.25,-74.82 458.27,-81.74 460.84,-75.23"/>
</g>
<!-- Node26&#45;&gt;Node13 -->
<g id="edge39" class="edge">
<title>Node26&#45;&gt;Node13</title>
<path fill="none" stroke="midnightblue" d="M512.71,-114.65C415.04,-103.3 213.51,-79.9 134.86,-70.77"/>
<polygon fill="midnightblue" stroke="midnightblue" points="134.94,-67.25 124.61,-69.58 134.14,-74.21 134.94,-67.25"/>
</g>
<!-- Node26&#45;&gt;Node24 -->
<g id="edge40" class="edge">
<title>Node26&#45;&gt;Node24</title>
<path fill="none" stroke="midnightblue" d="M617.06,-131.52C644.94,-138.1 679.27,-149.33 705.42,-168 722.62,-180.28 736.44,-200.38 744.97,-214.99"/>
<polygon fill="midnightblue" stroke="midnightblue" points="742.09,-217.01 750,-224.05 748.21,-213.61 742.09,-217.01"/>
</g>
<!-- Node27 -->
<g id="node27" class="node">
<title>Node27</title>
<g id="a_node27"><a xlink:title=" ">
<polygon fill="white" stroke="#bfbfbf" points="467.92,-56.5 467.92,-75.5 530.92,-75.5 530.92,-56.5 467.92,-56.5"/>
<text text-anchor="middle" x="499.42" y="-63.5" font-family="Helvetica,sans-Serif" font-size="10.00">glad/glad.h</text>
</a>
</g>
</g>
<!-- Node26&#45;&gt;Node27 -->
<g id="edge36" class="edge">
<title>Node26&#45;&gt;Node27</title>
<path fill="none" stroke="midnightblue" d="M556.5,-112.32C546.25,-104.18 530.7,-91.84 518.42,-82.09"/>
<polygon fill="midnightblue" stroke="midnightblue" points="520.56,-79.31 510.55,-75.83 516.2,-84.79 520.56,-79.31"/>
</g>
<!-- Node28 -->
<g id="node28" class="node">
<title>Node28</title>
<g id="a_node28"><a xlink:title=" ">
<polygon fill="white" stroke="#bfbfbf" points="548.92,-56.5 548.92,-75.5 627.92,-75.5 627.92,-56.5 548.92,-56.5"/>
<text text-anchor="middle" x="588.42" y="-63.5" font-family="Helvetica,sans-Serif" font-size="10.00">GLFW/glfw3.h</text>
</a>
</g>
</g>
<!-- Node26&#45;&gt;Node28 -->
<g id="edge37" class="edge">
<title>Node26&#45;&gt;Node28</title>
<path fill="none" stroke="midnightblue" d="M570.89,-112.08C573.74,-104.77 577.85,-94.18 581.38,-85.1"/>
<polygon fill="midnightblue" stroke="midnightblue" points="584.66,-86.34 585.02,-75.75 578.13,-83.8 584.66,-86.34"/>
</g>
<!-- Node26&#45;&gt;Node29 -->
<g id="edge41" class="edge">
<title>Node26&#45;&gt;Node29</title>
<path fill="none" stroke="midnightblue" d="M589.29,-112.44C612.2,-103.48 648.4,-89.31 674.29,-79.18"/>
<polygon fill="midnightblue" stroke="midnightblue" points="675.62,-82.42 683.66,-75.52 673.07,-75.9 675.62,-82.42"/>
</g>
<!-- Node30 -->
<g id="node30" class="node">
<title>Node30</title>
<g id="a_node30"><a xlink:title=" ">
<polygon fill="white" stroke="#bfbfbf" points="653.42,-0.5 653.42,-19.5 757.42,-19.5 757.42,-0.5 653.42,-0.5"/>
<text text-anchor="middle" x="705.42" y="-7.5" font-family="Helvetica,sans-Serif" font-size="10.00">glm/gtc/type_ptr.hpp</text>
</a>
</g>
</g>
<!-- Node29&#45;&gt;Node30 -->
<g id="edge42" class="edge">
<title>Node29&#45;&gt;Node30</title>
<path fill="none" stroke="midnightblue" d="M705.42,-56.08C705.42,-49.01 705.42,-38.86 705.42,-29.99"/>
<polygon fill="midnightblue" stroke="midnightblue" points="708.92,-29.75 705.42,-19.75 701.92,-29.75 708.92,-29.75"/>
</g>
<!-- Node31&#45;&gt;Node4 -->
<g id="edge51" class="edge">
<title>Node31&#45;&gt;Node4</title>
<path fill="none" stroke="midnightblue" d="M492.07,-224.37C478.64,-206.14 447.19,-163.43 429.7,-139.68"/>
<polygon fill="midnightblue" stroke="midnightblue" points="432.5,-137.57 423.75,-131.59 426.86,-141.72 432.5,-137.57"/>
</g>
<!-- Node31&#45;&gt;Node16 -->
<g id="edge49" class="edge">
<title>Node31&#45;&gt;Node16</title>
<path fill="none" stroke="midnightblue" d="M476.4,-224.44C453.32,-215.48 416.86,-201.31 390.78,-191.18"/>
<polygon fill="midnightblue" stroke="midnightblue" points="391.93,-187.88 381.35,-187.52 389.4,-194.4 391.93,-187.88"/>
</g>
<!-- Node31&#45;&gt;Node26 -->
<g id="edge50" class="edge">
<title>Node31&#45;&gt;Node26</title>
<path fill="none" stroke="midnightblue" d="M503.84,-224.37C515.17,-206.3 541.59,-164.18 556.57,-140.31"/>
<polygon fill="midnightblue" stroke="midnightblue" points="559.69,-141.92 562.03,-131.59 553.76,-138.2 559.69,-141.92"/>
</g>
</g>
</svg>
