<?xml version="1.0" encoding="UTF-8" standalone="no"?>
<!DOCTYPE svg PUBLIC "-//W3C//DTD SVG 1.1//EN"
 "http://www.w3.org/Graphics/SVG/1.1/DTD/svg11.dtd">
<!-- Generated by graphviz version 2.47.0 (20210407.0042)
 -->
<!-- Title: include/engine/Drawable.hpp Pages: 1 -->
<svg width="1055pt" height="542pt"
 viewBox="0.00 0.00 1054.50 542.00" xmlns="http://www.w3.org/2000/svg" xmlns:xlink="http://www.w3.org/1999/xlink">
<g id="graph0" class="graph" transform="scale(1 1) rotate(0) translate(4 538)">
<title>include/engine/Drawable.hpp</title>
<polygon fill="white" stroke="transparent" points="-4,4 -4,-538 1050.5,-538 1050.5,4 -4,4"/>
<!-- Node1 -->
<g id="node1" class="node">
<title>Node1</title>
<g id="a_node1"><a xlink:title=" ">
<polygon fill="#bfbfbf" stroke="black" points="106.5,-514.5 106.5,-533.5 246.5,-533.5 246.5,-514.5 106.5,-514.5"/>
<text text-anchor="middle" x="176.5" y="-521.5" font-family="Helvetica,sans-Serif" font-size="10.00">include/engine/Drawable.hpp</text>
</a>
</g>
</g>
<!-- Node2 -->
<g id="node2" class="node">
<title>Node2</title>
<g id="a_node2"><a xlink:href="_drawable_8cpp.html" target="_top" xlink:title=" ">
<polygon fill="white" stroke="black" points="0,-0.5 0,-19.5 123,-19.5 123,-0.5 0,-0.5"/>
<text text-anchor="middle" x="61.5" y="-7.5" font-family="Helvetica,sans-Serif" font-size="10.00">src/engine/Drawable.cpp</text>
</a>
</g>
</g>
<!-- Node1&#45;&gt;Node2 -->
<g id="edge1" class="edge">
<title>Node1&#45;&gt;Node2</title>
<path fill="none" stroke="midnightblue" d="M138.71,-510.78C120.44,-503.45 99.13,-492.67 83.5,-478 53.17,-449.53 37.5,-438.09 37.5,-396.5 37.5,-396.5 37.5,-396.5 37.5,-137.5 37.5,-92.57 52.3,-40.21 58.65,-19.79"/>
<polygon fill="midnightblue" stroke="midnightblue" points="137.63,-514.11 148.22,-514.39 140.12,-507.57 137.63,-514.11"/>
</g>
<!-- Node3 -->
<g id="node3" class="node">
<title>Node3</title>
<g id="a_node3"><a xlink:href="_building_8hpp.html" target="_top" xlink:title=" ">
<polygon fill="white" stroke="black" points="120,-447.5 120,-477.5 233,-477.5 233,-447.5 120,-447.5"/>
<text text-anchor="start" x="128" y="-465.5" font-family="Helvetica,sans-Serif" font-size="10.00">include/engine/objects</text>
<text text-anchor="middle" x="176.5" y="-454.5" font-family="Helvetica,sans-Serif" font-size="10.00">/Building.hpp</text>
</a>
</g>
</g>
<!-- Node1&#45;&gt;Node3 -->
<g id="edge2" class="edge">
<title>Node1&#45;&gt;Node3</title>
<path fill="none" stroke="midnightblue" d="M176.5,-504.23C176.5,-495.59 176.5,-485.5 176.5,-477.52"/>
<polygon fill="midnightblue" stroke="midnightblue" points="173,-504.48 176.5,-514.48 180,-504.48 173,-504.48"/>
</g>
<!-- Node5 -->
<g id="node5" class="node">
<title>Node5</title>
<g id="a_node5"><a xlink:href="_cell_8hpp.html" target="_top" xlink:title=" ">
<polygon fill="white" stroke="black" points="222,-380.5 222,-410.5 335,-410.5 335,-380.5 222,-380.5"/>
<text text-anchor="start" x="230" y="-398.5" font-family="Helvetica,sans-Serif" font-size="10.00">include/engine/objects</text>
<text text-anchor="middle" x="278.5" y="-387.5" font-family="Helvetica,sans-Serif" font-size="10.00">/Cell.hpp</text>
</a>
</g>
</g>
<!-- Node1&#45;&gt;Node5 -->
<g id="edge25" class="edge">
<title>Node1&#45;&gt;Node5</title>
<path fill="none" stroke="midnightblue" d="M202.88,-509.23C215.83,-501.45 230.88,-490.72 241.5,-478 258.53,-457.6 269.32,-428.09 274.6,-410.74"/>
<polygon fill="midnightblue" stroke="midnightblue" points="200.85,-506.36 193.92,-514.37 204.33,-512.43 200.85,-506.36"/>
</g>
<!-- Node11 -->
<g id="node11" class="node">
<title>Node11</title>
<g id="a_node11"><a xlink:href="_player_8hpp.html" target="_top" xlink:title=" ">
<polygon fill="white" stroke="black" points="74,-190.5 74,-220.5 187,-220.5 187,-190.5 74,-190.5"/>
<text text-anchor="start" x="82" y="-208.5" font-family="Helvetica,sans-Serif" font-size="10.00">include/engine/objects</text>
<text text-anchor="middle" x="130.5" y="-197.5" font-family="Helvetica,sans-Serif" font-size="10.00">/Player.hpp</text>
</a>
</g>
</g>
<!-- Node1&#45;&gt;Node11 -->
<g id="edge41" class="edge">
<title>Node1&#45;&gt;Node11</title>
<path fill="none" stroke="midnightblue" d="M149.34,-509.25C136.22,-501.52 121.07,-490.83 110.5,-478 85.44,-447.57 75.5,-435.92 75.5,-396.5 75.5,-396.5 75.5,-396.5 75.5,-327.5 75.5,-285.73 102.99,-242.54 119.1,-220.82"/>
<polygon fill="midnightblue" stroke="midnightblue" points="148,-512.51 158.43,-514.35 151.42,-506.41 148,-512.51"/>
</g>
<!-- Node22 -->
<g id="node22" class="node">
<title>Node22</title>
<g id="a_node22"><a xlink:href="_ground_8hpp.html" target="_top" xlink:title=" ">
<polygon fill="white" stroke="black" points="500,-447.5 500,-477.5 613,-477.5 613,-447.5 500,-447.5"/>
<text text-anchor="start" x="508" y="-465.5" font-family="Helvetica,sans-Serif" font-size="10.00">include/engine/objects</text>
<text text-anchor="middle" x="556.5" y="-454.5" font-family="Helvetica,sans-Serif" font-size="10.00">/Ground.hpp</text>
</a>
</g>
</g>
<!-- Node1&#45;&gt;Node22 -->
<g id="edge26" class="edge">
<title>Node1&#45;&gt;Node22</title>
<path fill="none" stroke="midnightblue" d="M240.9,-512.92C313.59,-501.53 430.71,-483.2 499.99,-472.35"/>
<polygon fill="midnightblue" stroke="midnightblue" points="240.28,-509.47 230.94,-514.48 241.37,-516.39 240.28,-509.47"/>
</g>
<!-- Node4 -->
<g id="node4" class="node">
<title>Node4</title>
<g id="a_node4"><a xlink:href="_building_8cpp.html" target="_top" xlink:title=" ">
<polygon fill="white" stroke="black" points="107.5,-380.5 107.5,-410.5 203.5,-410.5 203.5,-380.5 107.5,-380.5"/>
<text text-anchor="start" x="115.5" y="-398.5" font-family="Helvetica,sans-Serif" font-size="10.00">src/engine/objects</text>
<text text-anchor="middle" x="155.5" y="-387.5" font-family="Helvetica,sans-Serif" font-size="10.00">/Building.cpp</text>
</a>
</g>
</g>
<!-- Node3&#45;&gt;Node4 -->
<g id="edge3" class="edge">
<title>Node3&#45;&gt;Node4</title>
<path fill="none" stroke="midnightblue" d="M168.81,-437.7C165.87,-428.59 162.61,-418.49 160.05,-410.58"/>
<polygon fill="midnightblue" stroke="midnightblue" points="165.54,-438.96 171.94,-447.4 172.2,-436.8 165.54,-438.96"/>
</g>
<!-- Node3&#45;&gt;Node5 -->
<g id="edge4" class="edge">
<title>Node3&#45;&gt;Node5</title>
<path fill="none" stroke="midnightblue" d="M207.08,-442.02C222.95,-431.9 241.98,-419.77 256.41,-410.58"/>
<polygon fill="midnightblue" stroke="midnightblue" points="205.18,-439.07 198.63,-447.4 208.95,-444.97 205.18,-439.07"/>
</g>
<!-- Node6 -->
<g id="node6" class="node">
<title>Node6</title>
<g id="a_node6"><a xlink:href="_cell_8cpp.html" target="_top" xlink:title=" ">
<polygon fill="white" stroke="black" points="103.5,-313.5 103.5,-343.5 199.5,-343.5 199.5,-313.5 103.5,-313.5"/>
<text text-anchor="start" x="111.5" y="-331.5" font-family="Helvetica,sans-Serif" font-size="10.00">src/engine/objects</text>
<text text-anchor="middle" x="151.5" y="-320.5" font-family="Helvetica,sans-Serif" font-size="10.00">/Cell.cpp</text>
</a>
</g>
</g>
<!-- Node5&#45;&gt;Node6 -->
<g id="edge5" class="edge">
<title>Node5&#45;&gt;Node6</title>
<path fill="none" stroke="midnightblue" d="M241.8,-375.71C221.77,-365.46 197.38,-352.98 179,-343.58"/>
<polygon fill="midnightblue" stroke="midnightblue" points="240.45,-378.96 250.94,-380.4 243.64,-372.72 240.45,-378.96"/>
</g>
<!-- Node7 -->
<g id="node7" class="node">
<title>Node7</title>
<g id="a_node7"><a xlink:href="_field_8hpp.html" target="_top" xlink:title=" ">
<polygon fill="white" stroke="black" points="218,-319 218,-338 339,-338 339,-319 218,-319"/>
<text text-anchor="middle" x="278.5" y="-326" font-family="Helvetica,sans-Serif" font-size="10.00">include/engine/Field.hpp</text>
</a>
</g>
</g>
<!-- Node5&#45;&gt;Node7 -->
<g id="edge6" class="edge">
<title>Node5&#45;&gt;Node7</title>
<path fill="none" stroke="midnightblue" d="M278.5,-370.25C278.5,-359.02 278.5,-346.38 278.5,-338.19"/>
<polygon fill="midnightblue" stroke="midnightblue" points="275,-370.4 278.5,-380.4 282,-370.4 275,-370.4"/>
</g>
<!-- Node20 -->
<g id="node20" class="node">
<title>Node20</title>
<g id="a_node20"><a xlink:href="_sprites_manager_8hpp.html" target="_top" xlink:title=" ">
<polygon fill="white" stroke="black" points="621,-319 621,-338 758,-338 758,-319 621,-319"/>
<text text-anchor="middle" x="689.5" y="-326" font-family="Helvetica,sans-Serif" font-size="10.00">include/SpritesManager.hpp</text>
</a>
</g>
</g>
<!-- Node5&#45;&gt;Node20 -->
<g id="edge21" class="edge">
<title>Node5&#45;&gt;Node20</title>
<path fill="none" stroke="midnightblue" d="M345.18,-380.06C345.29,-380.04 345.39,-380.02 345.5,-380 463.44,-359.32 494.29,-363.09 612.5,-344 623.51,-342.22 635.37,-340.1 646.4,-338.03"/>
<polygon fill="midnightblue" stroke="midnightblue" points="344.29,-376.66 335.1,-381.92 345.57,-383.54 344.29,-376.66"/>
</g>
<!-- Node8 -->
<g id="node8" class="node">
<title>Node8</title>
<g id="a_node8"><a xlink:href="_field_8cpp.html" target="_top" xlink:title=" ">
<polygon fill="white" stroke="black" points="418.5,-257.5 418.5,-276.5 522.5,-276.5 522.5,-257.5 418.5,-257.5"/>
<text text-anchor="middle" x="470.5" y="-264.5" font-family="Helvetica,sans-Serif" font-size="10.00">src/engine/Field.cpp</text>
</a>
</g>
</g>
<!-- Node7&#45;&gt;Node8 -->
<g id="edge7" class="edge">
<title>Node7&#45;&gt;Node8</title>
<path fill="none" stroke="midnightblue" d="M315.99,-315.88C353.31,-304.32 409.7,-286.84 443.04,-276.51"/>
<polygon fill="midnightblue" stroke="midnightblue" points="314.52,-312.67 306.01,-318.98 316.6,-319.36 314.52,-312.67"/>
</g>
<!-- Node9 -->
<g id="node9" class="node">
<title>Node9</title>
<g id="a_node9"><a xlink:href="_world_actor_8hpp.html" target="_top" xlink:title=" ">
<polygon fill="white" stroke="black" points="202.5,-257.5 202.5,-276.5 350.5,-276.5 350.5,-257.5 202.5,-257.5"/>
<text text-anchor="middle" x="276.5" y="-264.5" font-family="Helvetica,sans-Serif" font-size="10.00">include/engine/WorldActor.hpp</text>
</a>
</g>
</g>
<!-- Node7&#45;&gt;Node9 -->
<g id="edge8" class="edge">
<title>Node7&#45;&gt;Node9</title>
<path fill="none" stroke="midnightblue" d="M277.87,-308.82C277.51,-298 277.07,-284.9 276.79,-276.51"/>
<polygon fill="midnightblue" stroke="midnightblue" points="274.38,-309.1 278.21,-318.98 281.38,-308.86 274.38,-309.1"/>
</g>
<!-- Node10 -->
<g id="node10" class="node">
<title>Node10</title>
<g id="a_node10"><a xlink:href="_world_actor_8cpp.html" target="_top" xlink:title=" ">
<polygon fill="white" stroke="black" points="209,-196 209,-215 340,-215 340,-196 209,-196"/>
<text text-anchor="middle" x="274.5" y="-203" font-family="Helvetica,sans-Serif" font-size="10.00">src/engine/WorldActor.cpp</text>
</a>
</g>
</g>
<!-- Node9&#45;&gt;Node10 -->
<g id="edge9" class="edge">
<title>Node9&#45;&gt;Node10</title>
<path fill="none" stroke="midnightblue" d="M275.87,-247.32C275.51,-236.5 275.07,-223.4 274.79,-215.01"/>
<polygon fill="midnightblue" stroke="midnightblue" points="272.38,-247.6 276.21,-257.48 279.38,-247.36 272.38,-247.6"/>
</g>
<!-- Node9&#45;&gt;Node11 -->
<g id="edge10" class="edge">
<title>Node9&#45;&gt;Node11</title>
<path fill="none" stroke="midnightblue" d="M246.05,-253.59C222.38,-243.94 189.53,-230.56 164.91,-220.52"/>
<polygon fill="midnightblue" stroke="midnightblue" points="245,-256.94 255.58,-257.48 247.64,-250.46 245,-256.94"/>
</g>
<!-- Node16 -->
<g id="node16" class="node">
<title>Node16</title>
<g id="a_node16"><a xlink:href="_unit_8hpp.html" target="_top" xlink:title=" ">
<polygon fill="white" stroke="black" points="358,-190.5 358,-220.5 471,-220.5 471,-190.5 358,-190.5"/>
<text text-anchor="start" x="366" y="-208.5" font-family="Helvetica,sans-Serif" font-size="10.00">include/engine/objects</text>
<text text-anchor="middle" x="414.5" y="-197.5" font-family="Helvetica,sans-Serif" font-size="10.00">/Unit.hpp</text>
</a>
</g>
</g>
<!-- Node9&#45;&gt;Node16 -->
<g id="edge16" class="edge">
<title>Node9&#45;&gt;Node16</title>
<path fill="none" stroke="midnightblue" d="M305.58,-253.46C327.94,-243.82 358.81,-230.51 381.98,-220.52"/>
<polygon fill="midnightblue" stroke="midnightblue" points="304.07,-250.3 296.27,-257.48 306.84,-256.73 304.07,-250.3"/>
</g>
<!-- Node12 -->
<g id="node12" class="node">
<title>Node12</title>
<g id="a_node12"><a xlink:href="_player_8cpp.html" target="_top" xlink:title=" ">
<polygon fill="white" stroke="black" points="139.5,-123.5 139.5,-153.5 235.5,-153.5 235.5,-123.5 139.5,-123.5"/>
<text text-anchor="start" x="147.5" y="-141.5" font-family="Helvetica,sans-Serif" font-size="10.00">src/engine/objects</text>
<text text-anchor="middle" x="187.5" y="-130.5" font-family="Helvetica,sans-Serif" font-size="10.00">/Player.cpp</text>
</a>
</g>
</g>
<!-- Node11&#45;&gt;Node12 -->
<g id="edge11" class="edge">
<title>Node11&#45;&gt;Node12</title>
<path fill="none" stroke="midnightblue" d="M149.59,-182.74C158.02,-173.12 167.69,-162.09 175.16,-153.58"/>
<polygon fill="midnightblue" stroke="midnightblue" points="146.83,-180.57 142.87,-190.4 152.09,-185.18 146.83,-180.57"/>
</g>
<!-- Node13 -->
<g id="node13" class="node">
<title>Node13</title>
<g id="a_node13"><a xlink:href="_engine_8hpp.html" target="_top" xlink:title=" ">
<polygon fill="white" stroke="black" points="137.5,-62 137.5,-81 235.5,-81 235.5,-62 137.5,-62"/>
<text text-anchor="middle" x="186.5" y="-69" font-family="Helvetica,sans-Serif" font-size="10.00">include/Engine.hpp</text>
</a>
</g>
</g>
<!-- Node11&#45;&gt;Node13 -->
<g id="edge12" class="edge">
<title>Node11&#45;&gt;Node13</title>
<path fill="none" stroke="midnightblue" d="M125.47,-180.12C123.19,-163.33 122.53,-140.92 130.5,-123 138.8,-104.34 157.78,-89.67 171.34,-81.05"/>
<polygon fill="midnightblue" stroke="midnightblue" points="122.06,-180.93 127.13,-190.23 128.97,-179.79 122.06,-180.93"/>
</g>
<!-- Node13&#45;&gt;Node2 -->
<g id="edge13" class="edge">
<title>Node13&#45;&gt;Node2</title>
<path fill="none" stroke="midnightblue" d="M159.56,-57.67C135.3,-46.13 100.34,-29.49 79.38,-19.51"/>
<polygon fill="midnightblue" stroke="midnightblue" points="158.06,-60.84 168.59,-61.98 161.07,-54.52 158.06,-60.84"/>
</g>
<!-- Node14 -->
<g id="node14" class="node">
<title>Node14</title>
<g id="a_node14"><a xlink:href="_engine_8cpp.html" target="_top" xlink:title=" ">
<polygon fill="white" stroke="black" points="146.5,-0.5 146.5,-19.5 226.5,-19.5 226.5,-0.5 146.5,-0.5"/>
<text text-anchor="middle" x="186.5" y="-7.5" font-family="Helvetica,sans-Serif" font-size="10.00">src/Engine.cpp</text>
</a>
</g>
</g>
<!-- Node13&#45;&gt;Node14 -->
<g id="edge14" class="edge">
<title>Node13&#45;&gt;Node14</title>
<path fill="none" stroke="midnightblue" d="M186.5,-51.82C186.5,-41 186.5,-27.9 186.5,-19.51"/>
<polygon fill="midnightblue" stroke="midnightblue" points="183,-51.98 186.5,-61.98 190,-51.98 183,-51.98"/>
</g>
<!-- Node15 -->
<g id="node15" class="node">
<title>Node15</title>
<g id="a_node15"><a xlink:href="main_8cpp.html" target="_top" xlink:title=" ">
<polygon fill="white" stroke="black" points="388.5,-0.5 388.5,-19.5 460.5,-19.5 460.5,-0.5 388.5,-0.5"/>
<text text-anchor="middle" x="424.5" y="-7.5" font-family="Helvetica,sans-Serif" font-size="10.00">src/main.cpp</text>
</a>
</g>
</g>
<!-- Node13&#45;&gt;Node15 -->
<g id="edge15" class="edge">
<title>Node13&#45;&gt;Node15</title>
<path fill="none" stroke="midnightblue" d="M230.34,-59.54C276.54,-47.99 348.34,-30.04 390.46,-19.51"/>
<polygon fill="midnightblue" stroke="midnightblue" points="229.45,-56.15 220.6,-61.98 231.15,-62.95 229.45,-56.15"/>
</g>
<!-- Node17 -->
<g id="node17" class="node">
<title>Node17</title>
<g id="a_node17"><a xlink:href="_unit_8cpp.html" target="_top" xlink:title=" ">
<polygon fill="white" stroke="black" points="385.5,-123.5 385.5,-153.5 481.5,-153.5 481.5,-123.5 385.5,-123.5"/>
<text text-anchor="start" x="393.5" y="-141.5" font-family="Helvetica,sans-Serif" font-size="10.00">src/engine/objects</text>
<text text-anchor="middle" x="433.5" y="-130.5" font-family="Helvetica,sans-Serif" font-size="10.00">/Unit.cpp</text>
</a>
</g>
</g>
<!-- Node16&#45;&gt;Node17 -->
<g id="edge17" class="edge">
<title>Node16&#45;&gt;Node17</title>
<path fill="none" stroke="midnightblue" d="M421.46,-180.7C424.12,-171.59 427.07,-161.49 429.39,-153.58"/>
<polygon fill="midnightblue" stroke="midnightblue" points="418.07,-179.82 418.62,-190.4 424.79,-181.78 418.07,-179.82"/>
</g>
<!-- Node18 -->
<g id="node18" class="node">
<title>Node18</title>
<g id="a_node18"><a xlink:href="_unit_group_8hpp.html" target="_top" xlink:title=" ">
<polygon fill="white" stroke="black" points="254,-123.5 254,-153.5 367,-153.5 367,-123.5 254,-123.5"/>
<text text-anchor="start" x="262" y="-141.5" font-family="Helvetica,sans-Serif" font-size="10.00">include/engine/objects</text>
<text text-anchor="middle" x="310.5" y="-130.5" font-family="Helvetica,sans-Serif" font-size="10.00">/UnitGroup.hpp</text>
</a>
</g>
</g>
<!-- Node16&#45;&gt;Node18 -->
<g id="edge18" class="edge">
<title>Node16&#45;&gt;Node18</title>
<path fill="none" stroke="midnightblue" d="M383.32,-185.02C367.14,-174.9 347.73,-162.77 333.02,-153.58"/>
<polygon fill="midnightblue" stroke="midnightblue" points="381.6,-188.06 391.93,-190.4 385.31,-182.13 381.6,-188.06"/>
</g>
<!-- Node18&#45;&gt;Node13 -->
<g id="edge20" class="edge">
<title>Node18&#45;&gt;Node13</title>
<path fill="none" stroke="midnightblue" d="M274.52,-118.64C250.79,-106.2 220.86,-90.51 202.73,-81.01"/>
<polygon fill="midnightblue" stroke="midnightblue" points="273.11,-121.85 283.59,-123.4 276.36,-115.65 273.11,-121.85"/>
</g>
<!-- Node19 -->
<g id="node19" class="node">
<title>Node19</title>
<g id="a_node19"><a xlink:href="_unit_group_8cpp.html" target="_top" xlink:title=" ">
<polygon fill="white" stroke="black" points="262.5,-56.5 262.5,-86.5 358.5,-86.5 358.5,-56.5 262.5,-56.5"/>
<text text-anchor="start" x="270.5" y="-74.5" font-family="Helvetica,sans-Serif" font-size="10.00">src/engine/objects</text>
<text text-anchor="middle" x="310.5" y="-63.5" font-family="Helvetica,sans-Serif" font-size="10.00">/UnitGroup.cpp</text>
</a>
</g>
</g>
<!-- Node18&#45;&gt;Node19 -->
<g id="edge19" class="edge">
<title>Node18&#45;&gt;Node19</title>
<path fill="none" stroke="midnightblue" d="M310.5,-113.11C310.5,-104.15 310.5,-94.32 310.5,-86.58"/>
<polygon fill="midnightblue" stroke="midnightblue" points="307,-113.4 310.5,-123.4 314,-113.4 307,-113.4"/>
</g>
<!-- Node20&#45;&gt;Node8 -->
<g id="edge22" class="edge">
<title>Node20&#45;&gt;Node8</title>
<path fill="none" stroke="midnightblue" d="M648.36,-316.32C605.82,-304.76 540.33,-286.97 501.82,-276.51"/>
<polygon fill="midnightblue" stroke="midnightblue" points="647.55,-319.73 658.12,-318.98 649.39,-312.98 647.55,-319.73"/>
</g>
<!-- Node20&#45;&gt;Node15 -->
<g id="edge23" class="edge">
<title>Node20&#45;&gt;Node15</title>
<path fill="none" stroke="midnightblue" d="M655.23,-315.08C614.07,-297.7 550.5,-261.89 550.5,-206.5 550.5,-206.5 550.5,-206.5 550.5,-137.5 550.5,-77.99 479.62,-36.59 444.19,-19.61"/>
<polygon fill="midnightblue" stroke="midnightblue" points="654.07,-318.39 664.65,-318.91 656.7,-311.9 654.07,-318.39"/>
</g>
<!-- Node21 -->
<g id="node21" class="node">
<title>Node21</title>
<g id="a_node21"><a xlink:href="_sprites_manager_8cpp.html" target="_top" xlink:title=" ">
<polygon fill="white" stroke="black" points="630,-257.5 630,-276.5 749,-276.5 749,-257.5 630,-257.5"/>
<text text-anchor="middle" x="689.5" y="-264.5" font-family="Helvetica,sans-Serif" font-size="10.00">src/SpritesManager.cpp</text>
</a>
</g>
</g>
<!-- Node20&#45;&gt;Node21 -->
<g id="edge24" class="edge">
<title>Node20&#45;&gt;Node21</title>
<path fill="none" stroke="midnightblue" d="M689.5,-308.82C689.5,-298 689.5,-284.9 689.5,-276.51"/>
<polygon fill="midnightblue" stroke="midnightblue" points="686,-308.98 689.5,-318.98 693,-308.98 686,-308.98"/>
</g>
<!-- Node22&#45;&gt;Node5 -->
<g id="edge28" class="edge">
<title>Node22&#45;&gt;Node5</title>
<path fill="none" stroke="midnightblue" d="M490.06,-445.97C442.77,-434.91 379.9,-420.21 335.01,-409.71"/>
<polygon fill="midnightblue" stroke="midnightblue" points="489.37,-449.4 499.91,-448.27 490.97,-442.58 489.37,-449.4"/>
</g>
<!-- Node23 -->
<g id="node23" class="node">
<title>Node23</title>
<g id="a_node23"><a xlink:href="_ground_8cpp.html" target="_top" xlink:title=" ">
<polygon fill="white" stroke="black" points="631.5,-380.5 631.5,-410.5 727.5,-410.5 727.5,-380.5 631.5,-380.5"/>
<text text-anchor="start" x="639.5" y="-398.5" font-family="Helvetica,sans-Serif" font-size="10.00">src/engine/objects</text>
<text text-anchor="middle" x="679.5" y="-387.5" font-family="Helvetica,sans-Serif" font-size="10.00">/Ground.cpp</text>
</a>
</g>
</g>
<!-- Node22&#45;&gt;Node23 -->
<g id="edge27" class="edge">
<title>Node22&#45;&gt;Node23</title>
<path fill="none" stroke="midnightblue" d="M592.05,-442.71C611.45,-432.46 635.06,-419.98 652.86,-410.58"/>
<polygon fill="midnightblue" stroke="midnightblue" points="590.4,-439.63 583.19,-447.4 593.67,-445.82 590.4,-439.63"/>
</g>
<!-- Node24 -->
<g id="node24" class="node">
<title>Node24</title>
<g id="a_node24"><a xlink:href="_ground_earth_8hpp.html" target="_top" xlink:title=" ">
<polygon fill="white" stroke="black" points="745.5,-380.5 745.5,-410.5 869.5,-410.5 869.5,-380.5 745.5,-380.5"/>
<text text-anchor="start" x="753.5" y="-398.5" font-family="Helvetica,sans-Serif" font-size="10.00">include/engine/objects</text>
<text text-anchor="middle" x="807.5" y="-387.5" font-family="Helvetica,sans-Serif" font-size="10.00">/ground/GroundEarth.hpp</text>
</a>
</g>
</g>
<!-- Node22&#45;&gt;Node24 -->
<g id="edge29" class="edge">
<title>Node22&#45;&gt;Node24</title>
<path fill="none" stroke="midnightblue" d="M620.54,-444.92C661.5,-434.31 714.06,-420.7 753.01,-410.61"/>
<polygon fill="midnightblue" stroke="midnightblue" points="619.46,-441.58 610.65,-447.48 621.21,-448.36 619.46,-441.58"/>
</g>
<!-- Node26 -->
<g id="node26" class="node">
<title>Node26</title>
<g id="a_node26"><a xlink:href="_ground_empty_8hpp.html" target="_top" xlink:title=" ">
<polygon fill="white" stroke="black" points="887.5,-380.5 887.5,-410.5 1015.5,-410.5 1015.5,-380.5 887.5,-380.5"/>
<text text-anchor="start" x="895.5" y="-398.5" font-family="Helvetica,sans-Serif" font-size="10.00">include/engine/objects</text>
<text text-anchor="middle" x="951.5" y="-387.5" font-family="Helvetica,sans-Serif" font-size="10.00">/ground/GroundEmpty.hpp</text>
</a>
</g>
</g>
<!-- Node22&#45;&gt;Node26 -->
<g id="edge32" class="edge">
<title>Node22&#45;&gt;Node26</title>
<path fill="none" stroke="midnightblue" d="M623.18,-451.85C688.39,-442.22 790.45,-426.64 878.5,-411 881.43,-410.48 884.42,-409.94 887.43,-409.38"/>
<polygon fill="midnightblue" stroke="midnightblue" points="622.42,-448.42 613.04,-453.34 623.44,-455.35 622.42,-448.42"/>
</g>
<!-- Node28 -->
<g id="node28" class="node">
<title>Node28</title>
<g id="a_node28"><a xlink:href="_ground_water_8hpp.html" target="_top" xlink:title=" ">
<polygon fill="white" stroke="black" points="355,-380.5 355,-410.5 482,-410.5 482,-380.5 355,-380.5"/>
<text text-anchor="start" x="363" y="-398.5" font-family="Helvetica,sans-Serif" font-size="10.00">include/engine/objects</text>
<text text-anchor="middle" x="418.5" y="-387.5" font-family="Helvetica,sans-Serif" font-size="10.00">/ground/GroundWater.hpp</text>
</a>
</g>
</g>
<!-- Node22&#45;&gt;Node28 -->
<g id="edge35" class="edge">
<title>Node22&#45;&gt;Node28</title>
<path fill="none" stroke="midnightblue" d="M517.5,-443.13C495.57,-432.8 468.63,-420.11 448.39,-410.58"/>
<polygon fill="midnightblue" stroke="midnightblue" points="516.02,-446.3 526.56,-447.4 519,-439.97 516.02,-446.3"/>
</g>
<!-- Node30 -->
<g id="node30" class="node">
<title>Node30</title>
<g id="a_node30"><a xlink:href="_mineral_8hpp.html" target="_top" xlink:title=" ">
<polygon fill="white" stroke="black" points="500,-380.5 500,-410.5 613,-410.5 613,-380.5 500,-380.5"/>
<text text-anchor="start" x="508" y="-398.5" font-family="Helvetica,sans-Serif" font-size="10.00">include/engine/objects</text>
<text text-anchor="middle" x="556.5" y="-387.5" font-family="Helvetica,sans-Serif" font-size="10.00">/ground/Mineral.hpp</text>
</a>
</g>
</g>
<!-- Node22&#45;&gt;Node30 -->
<g id="edge38" class="edge">
<title>Node22&#45;&gt;Node30</title>
<path fill="none" stroke="midnightblue" d="M556.5,-437.11C556.5,-428.15 556.5,-418.32 556.5,-410.58"/>
<polygon fill="midnightblue" stroke="midnightblue" points="553,-437.4 556.5,-447.4 560,-437.4 553,-437.4"/>
</g>
<!-- Node24&#45;&gt;Node20 -->
<g id="edge31" class="edge">
<title>Node24&#45;&gt;Node20</title>
<path fill="none" stroke="midnightblue" d="M772.96,-375.47C750.43,-363.06 722.13,-347.47 704.94,-338.01"/>
<polygon fill="midnightblue" stroke="midnightblue" points="771.45,-378.64 781.9,-380.4 774.83,-372.51 771.45,-378.64"/>
</g>
<!-- Node25 -->
<g id="node25" class="node">
<title>Node25</title>
<g id="a_node25"><a xlink:href="_ground_earth_8cpp.html" target="_top" xlink:title=" ">
<polygon fill="white" stroke="black" points="776.5,-313.5 776.5,-343.5 900.5,-343.5 900.5,-313.5 776.5,-313.5"/>
<text text-anchor="start" x="784.5" y="-331.5" font-family="Helvetica,sans-Serif" font-size="10.00">src/engine/objects</text>
<text text-anchor="middle" x="838.5" y="-320.5" font-family="Helvetica,sans-Serif" font-size="10.00">/ground/GroundEarth.cpp</text>
</a>
</g>
</g>
<!-- Node24&#45;&gt;Node25 -->
<g id="edge30" class="edge">
<title>Node24&#45;&gt;Node25</title>
<path fill="none" stroke="midnightblue" d="M818.57,-371.28C822.99,-362.02 827.93,-351.66 831.79,-343.58"/>
<polygon fill="midnightblue" stroke="midnightblue" points="815.37,-369.86 814.23,-380.4 821.69,-372.88 815.37,-369.86"/>
</g>
<!-- Node26&#45;&gt;Node20 -->
<g id="edge34" class="edge">
<title>Node26&#45;&gt;Node20</title>
<path fill="none" stroke="midnightblue" d="M884.95,-377.99C833.61,-365.25 764.67,-348.15 723.88,-338.03"/>
<polygon fill="midnightblue" stroke="midnightblue" points="884.42,-381.47 894.97,-380.48 886.11,-374.67 884.42,-381.47"/>
</g>
<!-- Node27 -->
<g id="node27" class="node">
<title>Node27</title>
<g id="a_node27"><a xlink:href="_ground_empty_8cpp.html" target="_top" xlink:title=" ">
<polygon fill="white" stroke="black" points="918.5,-313.5 918.5,-343.5 1046.5,-343.5 1046.5,-313.5 918.5,-313.5"/>
<text text-anchor="start" x="926.5" y="-331.5" font-family="Helvetica,sans-Serif" font-size="10.00">src/engine/objects</text>
<text text-anchor="middle" x="982.5" y="-320.5" font-family="Helvetica,sans-Serif" font-size="10.00">/ground/GroundEmpty.cpp</text>
</a>
</g>
</g>
<!-- Node26&#45;&gt;Node27 -->
<g id="edge33" class="edge">
<title>Node26&#45;&gt;Node27</title>
<path fill="none" stroke="midnightblue" d="M962.57,-371.28C966.99,-362.02 971.93,-351.66 975.79,-343.58"/>
<polygon fill="midnightblue" stroke="midnightblue" points="959.37,-369.86 958.23,-380.4 965.69,-372.88 959.37,-369.86"/>
</g>
<!-- Node28&#45;&gt;Node20 -->
<g id="edge37" class="edge">
<title>Node28&#45;&gt;Node20</title>
<path fill="none" stroke="midnightblue" d="M487,-378.07C540.15,-365.32 611.66,-348.17 653.94,-338.03"/>
<polygon fill="midnightblue" stroke="midnightblue" points="485.88,-374.74 476.97,-380.48 487.51,-381.55 485.88,-374.74"/>
</g>
<!-- Node29 -->
<g id="node29" class="node">
<title>Node29</title>
<g id="a_node29"><a xlink:href="_ground_water_8cpp.html" target="_top" xlink:title=" ">
<polygon fill="white" stroke="black" points="357,-313.5 357,-343.5 484,-343.5 484,-313.5 357,-313.5"/>
<text text-anchor="start" x="365" y="-331.5" font-family="Helvetica,sans-Serif" font-size="10.00">src/engine/objects</text>
<text text-anchor="middle" x="420.5" y="-320.5" font-family="Helvetica,sans-Serif" font-size="10.00">/ground/GroundWater.cpp</text>
</a>
</g>
</g>
<!-- Node28&#45;&gt;Node29 -->
<g id="edge36" class="edge">
<title>Node28&#45;&gt;Node29</title>
<path fill="none" stroke="midnightblue" d="M419.25,-370.11C419.53,-361.15 419.83,-351.32 420.07,-343.58"/>
<polygon fill="midnightblue" stroke="midnightblue" points="415.74,-370.29 418.93,-380.4 422.74,-370.51 415.74,-370.29"/>
</g>
<!-- Node30&#45;&gt;Node20 -->
<g id="edge40" class="edge">
<title>Node30&#45;&gt;Node20</title>
<path fill="none" stroke="midnightblue" d="M594.42,-375.97C619.97,-363.48 652.47,-347.6 672.09,-338.01"/>
<polygon fill="midnightblue" stroke="midnightblue" points="592.81,-372.86 585.36,-380.4 595.88,-379.15 592.81,-372.86"/>
</g>
<!-- Node31 -->
<g id="node31" class="node">
<title>Node31</title>
<g id="a_node31"><a xlink:href="_mineral_8cpp.html" target="_top" xlink:title=" ">
<polygon fill="white" stroke="black" points="502,-313.5 502,-343.5 603,-343.5 603,-313.5 502,-313.5"/>
<text text-anchor="start" x="510" y="-331.5" font-family="Helvetica,sans-Serif" font-size="10.00">src/engine/objects</text>
<text text-anchor="middle" x="552.5" y="-320.5" font-family="Helvetica,sans-Serif" font-size="10.00">/ground/Mineral.cpp</text>
</a>
</g>
</g>
<!-- Node30&#45;&gt;Node31 -->
<g id="edge39" class="edge">
<title>Node30&#45;&gt;Node31</title>
<path fill="none" stroke="midnightblue" d="M555.02,-370.4C554.46,-361.37 553.85,-351.41 553.37,-343.58"/>
<polygon fill="midnightblue" stroke="midnightblue" points="551.52,-370.63 555.63,-380.4 558.51,-370.2 551.52,-370.63"/>
</g>
</g>
</svg>
