<?xml version="1.0" encoding="UTF-8" standalone="no"?>
<!DOCTYPE svg PUBLIC "-//W3C//DTD SVG 1.1//EN"
 "http://www.w3.org/Graphics/SVG/1.1/DTD/svg11.dtd">
<!-- Generated by graphviz version 2.47.0 (20210407.0042)
 -->
<!-- Title: src/engine/Drawable.cpp Pages: 1 -->
<svg width="876pt" height="588pt"
 viewBox="0.00 0.00 876.00 588.00" xmlns="http://www.w3.org/2000/svg" xmlns:xlink="http://www.w3.org/1999/xlink">
<g id="graph0" class="graph" transform="scale(1 1) rotate(0) translate(4 584)">
<title>src/engine/Drawable.cpp</title>
<polygon fill="white" stroke="transparent" points="-4,4 -4,-584 872,-584 872,4 -4,4"/>
<!-- Node1 -->
<g id="node1" class="node">
<title>Node1</title>
<g id="a_node1"><a xlink:title=" ">
<polygon fill="#bfbfbf" stroke="black" points="142.5,-560.5 142.5,-579.5 265.5,-579.5 265.5,-560.5 142.5,-560.5"/>
<text text-anchor="middle" x="204" y="-567.5" font-family="Helvetica,sans-Serif" font-size="10.00">src/engine/Drawable.cpp</text>
</a>
</g>
</g>
<!-- Node2 -->
<g id="node2" class="node">
<title>Node2</title>
<g id="a_node2"><a xlink:href="_drawable_8hpp.html" target="_top" xlink:title=" ">
<polygon fill="white" stroke="black" points="35.5,-112.5 35.5,-131.5 142.5,-131.5 142.5,-112.5 35.5,-112.5"/>
<text text-anchor="middle" x="89" y="-119.5" font-family="Helvetica,sans-Serif" font-size="10.00">engine/Drawable.hpp</text>
</a>
</g>
</g>
<!-- Node1&#45;&gt;Node2 -->
<g id="edge1" class="edge">
<title>Node1&#45;&gt;Node2</title>
<path fill="none" stroke="midnightblue" d="M142.24,-561.86C82.2,-551.08 0,-524.39 0,-459 0,-459 0,-459 0,-233 0,-190.85 39.99,-155.78 66.36,-137.24"/>
<polygon fill="midnightblue" stroke="midnightblue" points="68.38,-140.1 74.7,-131.6 64.46,-134.3 68.38,-140.1"/>
</g>
<!-- Node6 -->
<g id="node6" class="node">
<title>Node6</title>
<g id="a_node6"><a xlink:href="_engine_8hpp.html" target="_top" xlink:title=" ">
<polygon fill="white" stroke="black" points="172,-504.5 172,-523.5 236,-523.5 236,-504.5 172,-504.5"/>
<text text-anchor="middle" x="204" y="-511.5" font-family="Helvetica,sans-Serif" font-size="10.00">Engine.hpp</text>
</a>
</g>
</g>
<!-- Node1&#45;&gt;Node6 -->
<g id="edge5" class="edge">
<title>Node1&#45;&gt;Node6</title>
<path fill="none" stroke="midnightblue" d="M204,-560.08C204,-553.01 204,-542.86 204,-533.99"/>
<polygon fill="midnightblue" stroke="midnightblue" points="207.5,-533.75 204,-523.75 200.5,-533.75 207.5,-533.75"/>
</g>
<!-- Node18 -->
<g id="node18" class="node">
<title>Node18</title>
<g id="a_node18"><a xlink:href="_resource_manager_8hpp.html" target="_top" xlink:title=" ">
<polygon fill="white" stroke="black" points="518.5,-392.5 518.5,-411.5 671.5,-411.5 671.5,-392.5 518.5,-392.5"/>
<text text-anchor="middle" x="595" y="-399.5" font-family="Helvetica,sans-Serif" font-size="10.00">graphics/ResourceManager.hpp</text>
</a>
</g>
</g>
<!-- Node1&#45;&gt;Node18 -->
<g id="edge26" class="edge">
<title>Node1&#45;&gt;Node18</title>
<path fill="none" stroke="midnightblue" d="M224.2,-560.42C288.55,-533.1 489,-448 565.2,-415.65"/>
<polygon fill="midnightblue" stroke="midnightblue" points="566.85,-418.75 574.69,-411.62 564.12,-412.31 566.85,-418.75"/>
</g>
<!-- Node3 -->
<g id="node3" class="node">
<title>Node3</title>
<g id="a_node3"><a xlink:title=" ">
<polygon fill="white" stroke="#bfbfbf" points="56,-56.5 56,-75.5 122,-75.5 122,-56.5 56,-56.5"/>
<text text-anchor="middle" x="89" y="-63.5" font-family="Helvetica,sans-Serif" font-size="10.00">string_view</text>
</a>
</g>
</g>
<!-- Node2&#45;&gt;Node3 -->
<g id="edge2" class="edge">
<title>Node2&#45;&gt;Node3</title>
<path fill="none" stroke="midnightblue" d="M89,-112.08C89,-105.01 89,-94.86 89,-85.99"/>
<polygon fill="midnightblue" stroke="midnightblue" points="92.5,-85.75 89,-75.75 85.5,-85.75 92.5,-85.75"/>
</g>
<!-- Node4 -->
<g id="node4" class="node">
<title>Node4</title>
<g id="a_node4"><a xlink:href="_vector2_d_8hpp.html" target="_top" xlink:title=" ">
<polygon fill="white" stroke="black" points="365,-56.5 365,-75.5 477,-75.5 477,-56.5 365,-56.5"/>
<text text-anchor="middle" x="421" y="-63.5" font-family="Helvetica,sans-Serif" font-size="10.00">Helpers/Vector2D.hpp</text>
</a>
</g>
</g>
<!-- Node2&#45;&gt;Node4 -->
<g id="edge3" class="edge">
<title>Node2&#45;&gt;Node4</title>
<path fill="none" stroke="midnightblue" d="M141.61,-112.44C200.49,-102.87 295.85,-87.36 358.49,-77.17"/>
<polygon fill="midnightblue" stroke="midnightblue" points="359.33,-80.58 368.64,-75.52 358.21,-73.67 359.33,-80.58"/>
</g>
<!-- Node5 -->
<g id="node5" class="node">
<title>Node5</title>
<g id="a_node5"><a xlink:title=" ">
<polygon fill="white" stroke="#bfbfbf" points="443.5,-0.5 443.5,-19.5 482.5,-19.5 482.5,-0.5 443.5,-0.5"/>
<text text-anchor="middle" x="463" y="-7.5" font-family="Helvetica,sans-Serif" font-size="10.00">utility</text>
</a>
</g>
</g>
<!-- Node4&#45;&gt;Node5 -->
<g id="edge4" class="edge">
<title>Node4&#45;&gt;Node5</title>
<path fill="none" stroke="midnightblue" d="M427.94,-56.08C433.93,-48.38 442.75,-37.03 450.05,-27.65"/>
<polygon fill="midnightblue" stroke="midnightblue" points="452.82,-29.79 456.19,-19.75 447.29,-25.5 452.82,-29.79"/>
</g>
<!-- Node7 -->
<g id="node7" class="node">
<title>Node7</title>
<g id="a_node7"><a xlink:href="_player_8hpp.html" target="_top" xlink:title=" ">
<polygon fill="white" stroke="black" points="90,-392.5 90,-411.5 218,-411.5 218,-392.5 90,-392.5"/>
<text text-anchor="middle" x="154" y="-399.5" font-family="Helvetica,sans-Serif" font-size="10.00">engine/objects/Player.hpp</text>
</a>
</g>
</g>
<!-- Node6&#45;&gt;Node7 -->
<g id="edge6" class="edge">
<title>Node6&#45;&gt;Node7</title>
<path fill="none" stroke="midnightblue" d="M196.68,-504.22C189.74,-495.51 179.44,-481.54 173,-468 165.9,-453.07 160.87,-434.93 157.77,-421.61"/>
<polygon fill="midnightblue" stroke="midnightblue" points="161.17,-420.76 155.63,-411.73 154.33,-422.25 161.17,-420.76"/>
</g>
<!-- Node15 -->
<g id="node15" class="node">
<title>Node15</title>
<g id="a_node15"><a xlink:href="_unit_group_8hpp.html" target="_top" xlink:title=" ">
<polygon fill="white" stroke="black" points="182.5,-448.5 182.5,-467.5 327.5,-467.5 327.5,-448.5 182.5,-448.5"/>
<text text-anchor="middle" x="255" y="-455.5" font-family="Helvetica,sans-Serif" font-size="10.00">engine/objects/UnitGroup.hpp</text>
</a>
</g>
</g>
<!-- Node6&#45;&gt;Node15 -->
<g id="edge22" class="edge">
<title>Node6&#45;&gt;Node15</title>
<path fill="none" stroke="midnightblue" d="M212.42,-504.08C219.85,-496.22 230.85,-484.57 239.81,-475.08"/>
<polygon fill="midnightblue" stroke="midnightblue" points="242.41,-477.42 246.74,-467.75 237.32,-472.62 242.41,-477.42"/>
</g>
<!-- Node7&#45;&gt;Node2 -->
<g id="edge7" class="edge">
<title>Node7&#45;&gt;Node2</title>
<path fill="none" stroke="midnightblue" d="M132.72,-392.4C99.24,-377.3 38,-342.62 38,-291 38,-291 38,-291 38,-233 38,-197.24 60.45,-160.51 75.56,-139.84"/>
<polygon fill="midnightblue" stroke="midnightblue" points="78.43,-141.85 81.69,-131.77 72.86,-137.61 78.43,-141.85"/>
</g>
<!-- Node8 -->
<g id="node8" class="node">
<title>Node8</title>
<g id="a_node8"><a xlink:href="_world_actor_8hpp.html" target="_top" xlink:title=" ">
<polygon fill="white" stroke="black" points="255,-336.5 255,-355.5 369,-355.5 369,-336.5 255,-336.5"/>
<text text-anchor="middle" x="312" y="-343.5" font-family="Helvetica,sans-Serif" font-size="10.00">engine/WorldActor.hpp</text>
</a>
</g>
</g>
<!-- Node7&#45;&gt;Node8 -->
<g id="edge8" class="edge">
<title>Node7&#45;&gt;Node8</title>
<path fill="none" stroke="midnightblue" d="M179.04,-392.44C205.62,-383.36 247.81,-368.94 277.52,-358.78"/>
<polygon fill="midnightblue" stroke="midnightblue" points="278.75,-362.06 287.08,-355.52 276.49,-355.44 278.75,-362.06"/>
</g>
<!-- Node8&#45;&gt;Node4 -->
<g id="edge9" class="edge">
<title>Node8&#45;&gt;Node4</title>
<path fill="none" stroke="midnightblue" d="M320.64,-336.37C328.85,-327.77 341.08,-313.88 349,-300 388.35,-230.99 389.73,-208.81 410,-132 414.06,-116.59 416.96,-98.72 418.76,-85.62"/>
<polygon fill="midnightblue" stroke="midnightblue" points="422.25,-85.88 420.06,-75.52 415.31,-84.99 422.25,-85.88"/>
</g>
<!-- Node9 -->
<g id="node9" class="node">
<title>Node9</title>
<g id="a_node9"><a xlink:href="_field_8hpp.html" target="_top" xlink:title=" ">
<polygon fill="white" stroke="black" points="284,-280.5 284,-299.5 340,-299.5 340,-280.5 284,-280.5"/>
<text text-anchor="middle" x="312" y="-287.5" font-family="Helvetica,sans-Serif" font-size="10.00">Field.hpp</text>
</a>
</g>
</g>
<!-- Node8&#45;&gt;Node9 -->
<g id="edge10" class="edge">
<title>Node8&#45;&gt;Node9</title>
<path fill="none" stroke="midnightblue" d="M312,-336.08C312,-329.01 312,-318.86 312,-309.99"/>
<polygon fill="midnightblue" stroke="midnightblue" points="315.5,-309.75 312,-299.75 308.5,-309.75 315.5,-309.75"/>
</g>
<!-- Node9&#45;&gt;Node4 -->
<g id="edge21" class="edge">
<title>Node9&#45;&gt;Node4</title>
<path fill="none" stroke="midnightblue" d="M316.94,-280.47C326.86,-263.23 349.74,-222.9 367,-188 384.77,-152.06 403.38,-108.96 413.44,-85.12"/>
<polygon fill="midnightblue" stroke="midnightblue" points="416.79,-86.19 417.43,-75.62 410.33,-83.48 416.79,-86.19"/>
</g>
<!-- Node10 -->
<g id="node10" class="node">
<title>Node10</title>
<g id="a_node10"><a xlink:href="_cell_8hpp.html" target="_top" xlink:title=" ">
<polygon fill="white" stroke="black" points="196.5,-224.5 196.5,-243.5 313.5,-243.5 313.5,-224.5 196.5,-224.5"/>
<text text-anchor="middle" x="255" y="-231.5" font-family="Helvetica,sans-Serif" font-size="10.00">engine/objects/Cell.hpp</text>
</a>
</g>
</g>
<!-- Node9&#45;&gt;Node10 -->
<g id="edge11" class="edge">
<title>Node9&#45;&gt;Node10</title>
<path fill="none" stroke="midnightblue" d="M302.84,-280.32C294.5,-272.42 281.97,-260.55 271.82,-250.94"/>
<polygon fill="midnightblue" stroke="midnightblue" points="273.99,-248.17 264.32,-243.83 269.18,-253.25 273.99,-248.17"/>
</g>
<!-- Node10&#45;&gt;Node2 -->
<g id="edge12" class="edge">
<title>Node10&#45;&gt;Node2</title>
<path fill="none" stroke="midnightblue" d="M200.89,-224.49C160.01,-216.89 108.66,-204.41 95,-188 84.47,-175.36 83.96,-156.15 85.48,-141.89"/>
<polygon fill="midnightblue" stroke="midnightblue" points="88.98,-142.14 86.99,-131.73 82.06,-141.11 88.98,-142.14"/>
</g>
<!-- Node11 -->
<g id="node11" class="node">
<title>Node11</title>
<g id="a_node11"><a xlink:href="_tickable_8hpp.html" target="_top" xlink:title=" ">
<polygon fill="white" stroke="black" points="173.5,-112.5 173.5,-131.5 276.5,-131.5 276.5,-112.5 173.5,-112.5"/>
<text text-anchor="middle" x="225" y="-119.5" font-family="Helvetica,sans-Serif" font-size="10.00">engine/Tickable.hpp</text>
</a>
</g>
</g>
<!-- Node10&#45;&gt;Node11 -->
<g id="edge13" class="edge">
<title>Node10&#45;&gt;Node11</title>
<path fill="none" stroke="midnightblue" d="M259.55,-224.3C265.56,-211.54 274.57,-187.22 267,-168 262.49,-156.55 253.53,-146.29 245.05,-138.47"/>
<polygon fill="midnightblue" stroke="midnightblue" points="247.09,-135.61 237.21,-131.76 242.53,-140.93 247.09,-135.61"/>
</g>
<!-- Node12 -->
<g id="node12" class="node">
<title>Node12</title>
<g id="a_node12"><a xlink:title=" ">
<polygon fill="white" stroke="#bfbfbf" points="314,-168.5 314,-187.5 358,-187.5 358,-168.5 314,-168.5"/>
<text text-anchor="middle" x="336" y="-175.5" font-family="Helvetica,sans-Serif" font-size="10.00">vector</text>
</a>
</g>
</g>
<!-- Node10&#45;&gt;Node12 -->
<g id="edge14" class="edge">
<title>Node10&#45;&gt;Node12</title>
<path fill="none" stroke="midnightblue" d="M268.01,-224.32C280.53,-215.98 299.68,-203.21 314.47,-193.35"/>
<polygon fill="midnightblue" stroke="midnightblue" points="316.64,-196.11 323.02,-187.65 312.76,-190.29 316.64,-196.11"/>
</g>
<!-- Node13 -->
<g id="node13" class="node">
<title>Node13</title>
<g id="a_node13"><a xlink:href="_ground_8hpp.html" target="_top" xlink:title=" ">
<polygon fill="white" stroke="black" points="192,-168.5 192,-187.5 258,-187.5 258,-168.5 192,-168.5"/>
<text text-anchor="middle" x="225" y="-175.5" font-family="Helvetica,sans-Serif" font-size="10.00">Ground.hpp</text>
</a>
</g>
</g>
<!-- Node10&#45;&gt;Node13 -->
<g id="edge15" class="edge">
<title>Node10&#45;&gt;Node13</title>
<path fill="none" stroke="midnightblue" d="M250.05,-224.08C245.9,-216.61 239.85,-205.72 234.73,-196.52"/>
<polygon fill="midnightblue" stroke="midnightblue" points="237.78,-194.79 229.86,-187.75 231.66,-198.19 237.78,-194.79"/>
</g>
<!-- Node14 -->
<g id="node14" class="node">
<title>Node14</title>
<g id="a_node14"><a xlink:href="_building_8hpp.html" target="_top" xlink:title=" ">
<polygon fill="white" stroke="black" points="104.5,-168.5 104.5,-187.5 173.5,-187.5 173.5,-168.5 104.5,-168.5"/>
<text text-anchor="middle" x="139" y="-175.5" font-family="Helvetica,sans-Serif" font-size="10.00">Building.hpp</text>
</a>
</g>
</g>
<!-- Node10&#45;&gt;Node14 -->
<g id="edge18" class="edge">
<title>Node10&#45;&gt;Node14</title>
<path fill="none" stroke="midnightblue" d="M236.62,-224.44C217.78,-215.68 188.27,-201.94 166.62,-191.86"/>
<polygon fill="midnightblue" stroke="midnightblue" points="167.84,-188.56 157.29,-187.52 164.88,-194.91 167.84,-188.56"/>
</g>
<!-- Node13&#45;&gt;Node2 -->
<g id="edge16" class="edge">
<title>Node13&#45;&gt;Node2</title>
<path fill="none" stroke="midnightblue" d="M203.45,-168.44C180.97,-159.52 145.51,-145.44 120.02,-135.32"/>
<polygon fill="midnightblue" stroke="midnightblue" points="121.03,-131.95 110.45,-131.52 118.45,-138.46 121.03,-131.95"/>
</g>
<!-- Node13&#45;&gt;Node11 -->
<g id="edge17" class="edge">
<title>Node13&#45;&gt;Node11</title>
<path fill="none" stroke="midnightblue" d="M225,-168.08C225,-161.01 225,-150.86 225,-141.99"/>
<polygon fill="midnightblue" stroke="midnightblue" points="228.5,-141.75 225,-131.75 221.5,-141.75 228.5,-141.75"/>
</g>
<!-- Node14&#45;&gt;Node2 -->
<g id="edge19" class="edge">
<title>Node14&#45;&gt;Node2</title>
<path fill="none" stroke="midnightblue" d="M130.74,-168.08C123.54,-160.3 112.89,-148.8 104.15,-139.37"/>
<polygon fill="midnightblue" stroke="midnightblue" points="106.47,-136.71 97.1,-131.75 101.33,-141.47 106.47,-136.71"/>
</g>
<!-- Node14&#45;&gt;Node11 -->
<g id="edge20" class="edge">
<title>Node14&#45;&gt;Node11</title>
<path fill="none" stroke="midnightblue" d="M152.82,-168.32C166.23,-159.9 186.82,-146.97 202.59,-137.07"/>
<polygon fill="midnightblue" stroke="midnightblue" points="204.61,-139.94 211.22,-131.65 200.89,-134.01 204.61,-139.94"/>
</g>
<!-- Node16 -->
<g id="node16" class="node">
<title>Node16</title>
<g id="a_node16"><a xlink:href="_unit_8hpp.html" target="_top" xlink:title=" ">
<polygon fill="white" stroke="black" points="285.5,-392.5 285.5,-411.5 338.5,-411.5 338.5,-392.5 285.5,-392.5"/>
<text text-anchor="middle" x="312" y="-399.5" font-family="Helvetica,sans-Serif" font-size="10.00">Unit.hpp</text>
</a>
</g>
</g>
<!-- Node15&#45;&gt;Node16 -->
<g id="edge23" class="edge">
<title>Node15&#45;&gt;Node16</title>
<path fill="none" stroke="midnightblue" d="M264.16,-448.32C272.5,-440.42 285.03,-428.55 295.18,-418.94"/>
<polygon fill="midnightblue" stroke="midnightblue" points="297.82,-421.25 302.68,-411.83 293.01,-416.17 297.82,-421.25"/>
</g>
<!-- Node17 -->
<g id="node17" class="node">
<title>Node17</title>
<g id="a_node17"><a xlink:title=" ">
<polygon fill="white" stroke="#bfbfbf" points="238.5,-392.5 238.5,-411.5 267.5,-411.5 267.5,-392.5 238.5,-392.5"/>
<text text-anchor="middle" x="253" y="-399.5" font-family="Helvetica,sans-Serif" font-size="10.00">list</text>
</a>
</g>
</g>
<!-- Node15&#45;&gt;Node17 -->
<g id="edge25" class="edge">
<title>Node15&#45;&gt;Node17</title>
<path fill="none" stroke="midnightblue" d="M254.67,-448.08C254.41,-441.01 254.03,-430.86 253.7,-421.99"/>
<polygon fill="midnightblue" stroke="midnightblue" points="257.19,-421.61 253.32,-411.75 250.2,-421.87 257.19,-421.61"/>
</g>
<!-- Node16&#45;&gt;Node8 -->
<g id="edge24" class="edge">
<title>Node16&#45;&gt;Node8</title>
<path fill="none" stroke="midnightblue" d="M312,-392.08C312,-385.01 312,-374.86 312,-365.99"/>
<polygon fill="midnightblue" stroke="midnightblue" points="315.5,-365.75 312,-355.75 308.5,-365.75 315.5,-365.75"/>
</g>
<!-- Node19 -->
<g id="node19" class="node">
<title>Node19</title>
<g id="a_node19"><a xlink:title=" ">
<polygon fill="white" stroke="#bfbfbf" points="516.5,-336.5 516.5,-355.5 551.5,-355.5 551.5,-336.5 516.5,-336.5"/>
<text text-anchor="middle" x="534" y="-343.5" font-family="Helvetica,sans-Serif" font-size="10.00">map</text>
</a>
</g>
</g>
<!-- Node18&#45;&gt;Node19 -->
<g id="edge27" class="edge">
<title>Node18&#45;&gt;Node19</title>
<path fill="none" stroke="midnightblue" d="M585.2,-392.32C576.18,-384.34 562.59,-372.31 551.68,-362.65"/>
<polygon fill="midnightblue" stroke="midnightblue" points="553.79,-359.84 543.98,-355.83 549.15,-365.08 553.79,-359.84"/>
</g>
<!-- Node20 -->
<g id="node20" class="node">
<title>Node20</title>
<g id="a_node20"><a xlink:title=" ">
<polygon fill="white" stroke="#bfbfbf" points="622.5,-280.5 622.5,-299.5 663.5,-299.5 663.5,-280.5 622.5,-280.5"/>
<text text-anchor="middle" x="643" y="-287.5" font-family="Helvetica,sans-Serif" font-size="10.00">string</text>
</a>
</g>
</g>
<!-- Node18&#45;&gt;Node20 -->
<g id="edge28" class="edge">
<title>Node18&#45;&gt;Node20</title>
<path fill="none" stroke="midnightblue" d="M603.91,-392.19C611.98,-383.68 623.57,-370.04 630,-356 636.67,-341.43 639.93,-323.49 641.51,-310.14"/>
<polygon fill="midnightblue" stroke="midnightblue" points="645.04,-310.1 642.52,-299.8 638.07,-309.42 645.04,-310.1"/>
</g>
<!-- Node21 -->
<g id="node21" class="node">
<title>Node21</title>
<g id="a_node21"><a xlink:title=" ">
<polygon fill="white" stroke="#bfbfbf" points="569.5,-336.5 569.5,-355.5 620.5,-355.5 620.5,-336.5 569.5,-336.5"/>
<text text-anchor="middle" x="595" y="-343.5" font-family="Helvetica,sans-Serif" font-size="10.00">memory</text>
</a>
</g>
</g>
<!-- Node18&#45;&gt;Node21 -->
<g id="edge29" class="edge">
<title>Node18&#45;&gt;Node21</title>
<path fill="none" stroke="midnightblue" d="M595,-392.08C595,-385.01 595,-374.86 595,-365.99"/>
<polygon fill="midnightblue" stroke="midnightblue" points="598.5,-365.75 595,-355.75 591.5,-365.75 598.5,-365.75"/>
</g>
<!-- Node22 -->
<g id="node22" class="node">
<title>Node22</title>
<g id="a_node22"><a xlink:href="_shader_8hpp.html" target="_top" xlink:title=" ">
<polygon fill="white" stroke="black" points="677.5,-336.5 677.5,-355.5 782.5,-355.5 782.5,-336.5 677.5,-336.5"/>
<text text-anchor="middle" x="730" y="-343.5" font-family="Helvetica,sans-Serif" font-size="10.00">graphics/Shader.hpp</text>
</a>
</g>
</g>
<!-- Node18&#45;&gt;Node22 -->
<g id="edge30" class="edge">
<title>Node18&#45;&gt;Node22</title>
<path fill="none" stroke="midnightblue" d="M616.39,-392.44C638.71,-383.52 673.9,-369.44 699.21,-359.32"/>
<polygon fill="midnightblue" stroke="midnightblue" points="700.72,-362.48 708.71,-355.52 698.12,-355.98 700.72,-362.48"/>
</g>
<!-- Node23 -->
<g id="node23" class="node">
<title>Node23</title>
<g id="a_node23"><a xlink:href="_g_shape_8hpp.html" target="_top" xlink:title=" ">
<polygon fill="white" stroke="black" points="758,-280.5 758,-299.5 868,-299.5 868,-280.5 758,-280.5"/>
<text text-anchor="middle" x="813" y="-287.5" font-family="Helvetica,sans-Serif" font-size="10.00">graphics/GShape.hpp</text>
</a>
</g>
</g>
<!-- Node18&#45;&gt;Node23 -->
<g id="edge44" class="edge">
<title>Node18&#45;&gt;Node23</title>
<path fill="none" stroke="midnightblue" d="M664.43,-392.49C713.37,-385.16 773.37,-373.06 792,-356 804.96,-344.13 809.96,-324.22 811.86,-309.55"/>
<polygon fill="midnightblue" stroke="midnightblue" points="815.35,-309.86 812.8,-299.58 808.38,-309.21 815.35,-309.86"/>
</g>
<!-- Node29 -->
<g id="node29" class="node">
<title>Node29</title>
<g id="a_node29"><a xlink:href="_event_handler_8hpp.html" target="_top" xlink:title=" ">
<polygon fill="white" stroke="black" points="449.5,-280.5 449.5,-299.5 604.5,-299.5 604.5,-280.5 449.5,-280.5"/>
<text text-anchor="middle" x="527" y="-287.5" font-family="Helvetica,sans-Serif" font-size="10.00">EventHandler/EventHandler.hpp</text>
</a>
</g>
</g>
<!-- Node18&#45;&gt;Node29 -->
<g id="edge45" class="edge">
<title>Node18&#45;&gt;Node29</title>
<path fill="none" stroke="midnightblue" d="M559.99,-392.45C541.07,-385.84 519.32,-374.59 508,-356 498.96,-341.15 506.7,-321.77 514.86,-308.04"/>
<polygon fill="midnightblue" stroke="midnightblue" points="517.85,-309.86 520.37,-299.57 511.98,-306.05 517.85,-309.86"/>
</g>
<!-- Node22&#45;&gt;Node20 -->
<g id="edge31" class="edge">
<title>Node22&#45;&gt;Node20</title>
<path fill="none" stroke="midnightblue" d="M716.02,-336.32C702.45,-327.9 681.62,-314.97 665.68,-305.07"/>
<polygon fill="midnightblue" stroke="midnightblue" points="667.29,-301.95 656.94,-299.65 663.59,-307.9 667.29,-301.95"/>
</g>
<!-- Node22&#45;&gt;Node23 -->
<g id="edge32" class="edge">
<title>Node22&#45;&gt;Node23</title>
<path fill="none" stroke="midnightblue" d="M738.22,-336.32C749.45,-327.82 769.29,-314.73 785.82,-304.8"/>
<polygon fill="midnightblue" stroke="midnightblue" points="787.73,-307.73 794.59,-299.65 784.19,-301.69 787.73,-307.73"/>
</g>
<!-- Node27 -->
<g id="node27" class="node">
<title>Node27</title>
<g id="a_node27"><a xlink:href="_transform_8hpp.html" target="_top" xlink:title=" ">
<polygon fill="white" stroke="black" points="711.5,-168.5 711.5,-187.5 830.5,-187.5 830.5,-168.5 711.5,-168.5"/>
<text text-anchor="middle" x="771" y="-175.5" font-family="Helvetica,sans-Serif" font-size="10.00">graphics/Transform.hpp</text>
</a>
</g>
</g>
<!-- Node22&#45;&gt;Node27 -->
<g id="edge43" class="edge">
<title>Node22&#45;&gt;Node27</title>
<path fill="none" stroke="midnightblue" d="M732.2,-336.08C738.66,-309.95 757.61,-233.21 766.41,-197.58"/>
<polygon fill="midnightblue" stroke="midnightblue" points="769.88,-198.12 768.88,-187.57 763.09,-196.44 769.88,-198.12"/>
</g>
<!-- Node23&#45;&gt;Node22 -->
<g id="edge41" class="edge">
<title>Node23&#45;&gt;Node22</title>
<path fill="none" stroke="midnightblue" d="M804.57,-299.83C793.3,-308.34 773.6,-321.34 757.17,-331.21"/>
<polygon fill="midnightblue" stroke="midnightblue" points="755.31,-328.25 748.45,-336.32 758.85,-334.28 755.31,-328.25"/>
</g>
<!-- Node24 -->
<g id="node24" class="node">
<title>Node24</title>
<g id="a_node24"><a xlink:href="_window_8hpp.html" target="_top" xlink:title=" ">
<polygon fill="white" stroke="black" points="583.5,-224.5 583.5,-243.5 692.5,-243.5 692.5,-224.5 583.5,-224.5"/>
<text text-anchor="middle" x="638" y="-231.5" font-family="Helvetica,sans-Serif" font-size="10.00">graphics/Window.hpp</text>
</a>
</g>
</g>
<!-- Node23&#45;&gt;Node24 -->
<g id="edge33" class="edge">
<title>Node23&#45;&gt;Node24</title>
<path fill="none" stroke="midnightblue" d="M785.27,-280.44C755.57,-271.28 708.28,-256.69 675.33,-246.52"/>
<polygon fill="midnightblue" stroke="midnightblue" points="676.19,-243.12 665.6,-243.52 674.12,-249.81 676.19,-243.12"/>
</g>
<!-- Node23&#45;&gt;Node27 -->
<g id="edge42" class="edge">
<title>Node23&#45;&gt;Node27</title>
<path fill="none" stroke="midnightblue" d="M809.7,-280.37C802.87,-262.46 787.01,-220.92 777.85,-196.95"/>
<polygon fill="midnightblue" stroke="midnightblue" points="781.12,-195.69 774.28,-187.59 774.58,-198.18 781.12,-195.69"/>
</g>
<!-- Node24&#45;&gt;Node5 -->
<g id="edge36" class="edge">
<title>Node24&#45;&gt;Node5</title>
<path fill="none" stroke="midnightblue" d="M591.52,-224.48C568.62,-218.05 542.29,-206.95 525,-188 483.77,-142.81 508.68,-112.81 486,-56 482.3,-46.73 477.35,-36.81 472.98,-28.66"/>
<polygon fill="midnightblue" stroke="midnightblue" points="475.97,-26.81 468.08,-19.74 469.83,-30.19 475.97,-26.81"/>
</g>
<!-- Node24&#45;&gt;Node12 -->
<g id="edge37" class="edge">
<title>Node24&#45;&gt;Node12</title>
<path fill="none" stroke="midnightblue" d="M590.15,-224.44C528.09,-213.35 421.51,-194.29 368.25,-184.77"/>
<polygon fill="midnightblue" stroke="midnightblue" points="368.8,-181.31 358.34,-183 367.57,-188.2 368.8,-181.31"/>
</g>
<!-- Node24&#45;&gt;Node22 -->
<g id="edge38" class="edge">
<title>Node24&#45;&gt;Node22</title>
<path fill="none" stroke="midnightblue" d="M645.19,-243.59C660.47,-261.87 696.44,-304.87 716.27,-328.59"/>
<polygon fill="midnightblue" stroke="midnightblue" points="713.68,-330.94 722.78,-336.37 719.05,-326.45 713.68,-330.94"/>
</g>
<!-- Node25 -->
<g id="node25" class="node">
<title>Node25</title>
<g id="a_node25"><a xlink:title=" ">
<polygon fill="white" stroke="#bfbfbf" points="630.5,-168.5 630.5,-187.5 693.5,-187.5 693.5,-168.5 630.5,-168.5"/>
<text text-anchor="middle" x="662" y="-175.5" font-family="Helvetica,sans-Serif" font-size="10.00">glad/glad.h</text>
</a>
</g>
</g>
<!-- Node24&#45;&gt;Node25 -->
<g id="edge34" class="edge">
<title>Node24&#45;&gt;Node25</title>
<path fill="none" stroke="midnightblue" d="M641.96,-224.08C645.21,-216.77 649.92,-206.18 653.95,-197.1"/>
<polygon fill="midnightblue" stroke="midnightblue" points="657.25,-198.31 658.11,-187.75 650.85,-195.47 657.25,-198.31"/>
</g>
<!-- Node26 -->
<g id="node26" class="node">
<title>Node26</title>
<g id="a_node26"><a xlink:title=" ">
<polygon fill="white" stroke="#bfbfbf" points="533.5,-168.5 533.5,-187.5 612.5,-187.5 612.5,-168.5 533.5,-168.5"/>
<text text-anchor="middle" x="573" y="-175.5" font-family="Helvetica,sans-Serif" font-size="10.00">GLFW/glfw3.h</text>
</a>
</g>
</g>
<!-- Node24&#45;&gt;Node26 -->
<g id="edge35" class="edge">
<title>Node24&#45;&gt;Node26</title>
<path fill="none" stroke="midnightblue" d="M627.56,-224.32C617.85,-216.26 603.18,-204.08 591.5,-194.37"/>
<polygon fill="midnightblue" stroke="midnightblue" points="593.56,-191.53 583.63,-187.83 589.09,-196.92 593.56,-191.53"/>
</g>
<!-- Node24&#45;&gt;Node27 -->
<g id="edge39" class="edge">
<title>Node24&#45;&gt;Node27</title>
<path fill="none" stroke="midnightblue" d="M659.07,-224.44C681.06,-215.52 715.73,-201.44 740.66,-191.32"/>
<polygon fill="midnightblue" stroke="midnightblue" points="742.08,-194.52 750.02,-187.52 739.44,-188.04 742.08,-194.52"/>
</g>
<!-- Node28 -->
<g id="node28" class="node">
<title>Node28</title>
<g id="a_node28"><a xlink:title=" ">
<polygon fill="white" stroke="#bfbfbf" points="719,-112.5 719,-131.5 823,-131.5 823,-112.5 719,-112.5"/>
<text text-anchor="middle" x="771" y="-119.5" font-family="Helvetica,sans-Serif" font-size="10.00">glm/gtc/type_ptr.hpp</text>
</a>
</g>
</g>
<!-- Node27&#45;&gt;Node28 -->
<g id="edge40" class="edge">
<title>Node27&#45;&gt;Node28</title>
<path fill="none" stroke="midnightblue" d="M771,-168.08C771,-161.01 771,-150.86 771,-141.99"/>
<polygon fill="midnightblue" stroke="midnightblue" points="774.5,-141.75 771,-131.75 767.5,-141.75 774.5,-141.75"/>
</g>
<!-- Node29&#45;&gt;Node4 -->
<g id="edge48" class="edge">
<title>Node29&#45;&gt;Node4</title>
<path fill="none" stroke="midnightblue" d="M518.17,-280.38C509.77,-271.79 497.22,-257.91 489,-244 486.86,-240.38 444.88,-129.96 427.97,-85.39"/>
<polygon fill="midnightblue" stroke="midnightblue" points="431.15,-83.91 424.34,-75.8 424.61,-86.39 431.15,-83.91"/>
</g>
<!-- Node29&#45;&gt;Node24 -->
<g id="edge47" class="edge">
<title>Node29&#45;&gt;Node24</title>
<path fill="none" stroke="midnightblue" d="M544.83,-280.32C562.72,-271.62 590.48,-258.12 611.05,-248.11"/>
<polygon fill="midnightblue" stroke="midnightblue" points="612.75,-251.18 620.21,-243.65 609.69,-244.88 612.75,-251.18"/>
</g>
<!-- Node30 -->
<g id="node30" class="node">
<title>Node30</title>
<g id="a_node30"><a xlink:title=" ">
<polygon fill="white" stroke="#bfbfbf" points="497.5,-224.5 497.5,-243.5 556.5,-243.5 556.5,-224.5 497.5,-224.5"/>
<text text-anchor="middle" x="527" y="-231.5" font-family="Helvetica,sans-Serif" font-size="10.00">functional</text>
</a>
</g>
</g>
<!-- Node29&#45;&gt;Node30 -->
<g id="edge46" class="edge">
<title>Node29&#45;&gt;Node30</title>
<path fill="none" stroke="midnightblue" d="M527,-280.08C527,-273.01 527,-262.86 527,-253.99"/>
<polygon fill="midnightblue" stroke="midnightblue" points="530.5,-253.75 527,-243.75 523.5,-253.75 530.5,-253.75"/>
</g>
</g>
</svg>
