<?xml version="1.0" encoding="UTF-8" standalone="no"?>
<!DOCTYPE svg PUBLIC "-//W3C//DTD SVG 1.1//EN"
 "http://www.w3.org/Graphics/SVG/1.1/DTD/svg11.dtd">
<!-- Generated by graphviz version 2.47.0 (20210407.0042)
 -->
<!-- Title: src/engine/Drawable.cpp Pages: 1 -->
<svg width="750pt" height="532pt"
 viewBox="0.00 0.00 749.50 532.00" xmlns="http://www.w3.org/2000/svg" xmlns:xlink="http://www.w3.org/1999/xlink">
<g id="graph0" class="graph" transform="scale(1 1) rotate(0) translate(4 528)">
<title>src/engine/Drawable.cpp</title>
<polygon fill="white" stroke="transparent" points="-4,4 -4,-528 745.5,-528 745.5,4 -4,4"/>
<!-- Node1 -->
<g id="node1" class="node">
<title>Node1</title>
<g id="a_node1"><a xlink:title=" ">
<polygon fill="#bfbfbf" stroke="black" points="117.5,-504.5 117.5,-523.5 240.5,-523.5 240.5,-504.5 117.5,-504.5"/>
<text text-anchor="middle" x="179" y="-511.5" font-family="Helvetica,sans-Serif" font-size="10.00">src/engine/Drawable.cpp</text>
</a>
</g>
</g>
<!-- Node2 -->
<g id="node2" class="node">
<title>Node2</title>
<g id="a_node2"><a xlink:href="_drawable_8hpp.html" target="_top" xlink:title=" ">
<polygon fill="white" stroke="black" points="145.5,-56.5 145.5,-75.5 252.5,-75.5 252.5,-56.5 145.5,-56.5"/>
<text text-anchor="middle" x="199" y="-63.5" font-family="Helvetica,sans-Serif" font-size="10.00">engine/Drawable.hpp</text>
</a>
</g>
</g>
<!-- Node1&#45;&gt;Node2 -->
<g id="edge1" class="edge">
<title>Node1&#45;&gt;Node2</title>
<path fill="none" stroke="midnightblue" d="M140.27,-504.43C92.92,-491.39 19,-461.65 19,-403 19,-403 19,-403 19,-345 19,-227.54 133.62,-120.52 179.93,-82.07"/>
<polygon fill="midnightblue" stroke="midnightblue" points="182.2,-84.74 187.74,-75.7 177.78,-79.31 182.2,-84.74"/>
</g>
<!-- Node5 -->
<g id="node5" class="node">
<title>Node5</title>
<g id="a_node5"><a xlink:href="_engine_8hpp.html" target="_top" xlink:title=" ">
<polygon fill="white" stroke="black" points="147,-448.5 147,-467.5 211,-467.5 211,-448.5 147,-448.5"/>
<text text-anchor="middle" x="179" y="-455.5" font-family="Helvetica,sans-Serif" font-size="10.00">Engine.hpp</text>
</a>
</g>
</g>
<!-- Node1&#45;&gt;Node5 -->
<g id="edge4" class="edge">
<title>Node1&#45;&gt;Node5</title>
<path fill="none" stroke="midnightblue" d="M179,-504.08C179,-497.01 179,-486.86 179,-477.99"/>
<polygon fill="midnightblue" stroke="midnightblue" points="182.5,-477.75 179,-467.75 175.5,-477.75 182.5,-477.75"/>
</g>
<!-- Node17 -->
<g id="node17" class="node">
<title>Node17</title>
<g id="a_node17"><a xlink:href="_resource_manager_8hpp.html" target="_top" xlink:title=" ">
<polygon fill="white" stroke="black" points="287.5,-448.5 287.5,-467.5 440.5,-467.5 440.5,-448.5 287.5,-448.5"/>
<text text-anchor="middle" x="364" y="-455.5" font-family="Helvetica,sans-Serif" font-size="10.00">graphics/ResourceManager.hpp</text>
</a>
</g>
</g>
<!-- Node1&#45;&gt;Node17 -->
<g id="edge25" class="edge">
<title>Node1&#45;&gt;Node17</title>
<path fill="none" stroke="midnightblue" d="M208.31,-504.44C239.84,-495.24 290.13,-480.56 324.99,-470.39"/>
<polygon fill="midnightblue" stroke="midnightblue" points="326.2,-473.68 334.82,-467.52 324.24,-466.96 326.2,-473.68"/>
</g>
<!-- Node3 -->
<g id="node3" class="node">
<title>Node3</title>
<g id="a_node3"><a xlink:title=" ">
<polygon fill="white" stroke="#bfbfbf" points="166,-0.5 166,-19.5 232,-19.5 232,-0.5 166,-0.5"/>
<text text-anchor="middle" x="199" y="-7.5" font-family="Helvetica,sans-Serif" font-size="10.00">string_view</text>
</a>
</g>
</g>
<!-- Node2&#45;&gt;Node3 -->
<g id="edge2" class="edge">
<title>Node2&#45;&gt;Node3</title>
<path fill="none" stroke="midnightblue" d="M199,-56.08C199,-49.01 199,-38.86 199,-29.99"/>
<polygon fill="midnightblue" stroke="midnightblue" points="202.5,-29.75 199,-19.75 195.5,-29.75 202.5,-29.75"/>
</g>
<!-- Node4 -->
<g id="node4" class="node">
<title>Node4</title>
<g id="a_node4"><a xlink:href="_vector2_d_8hpp.html" target="_top" xlink:title=" ">
<polygon fill="white" stroke="black" points="20,-0.5 20,-19.5 132,-19.5 132,-0.5 20,-0.5"/>
<text text-anchor="middle" x="76" y="-7.5" font-family="Helvetica,sans-Serif" font-size="10.00">Helpers/Vector2D.hpp</text>
</a>
</g>
</g>
<!-- Node2&#45;&gt;Node4 -->
<g id="edge3" class="edge">
<title>Node2&#45;&gt;Node4</title>
<path fill="none" stroke="midnightblue" d="M179.51,-56.44C159.36,-47.6 127.68,-33.69 104.67,-23.59"/>
<polygon fill="midnightblue" stroke="midnightblue" points="105.96,-20.33 95.4,-19.52 103.15,-26.74 105.96,-20.33"/>
</g>
<!-- Node6 -->
<g id="node6" class="node">
<title>Node6</title>
<g id="a_node6"><a xlink:href="_player_8hpp.html" target="_top" xlink:title=" ">
<polygon fill="white" stroke="black" points="166,-336.5 166,-355.5 294,-355.5 294,-336.5 166,-336.5"/>
<text text-anchor="middle" x="230" y="-343.5" font-family="Helvetica,sans-Serif" font-size="10.00">engine/objects/Player.hpp</text>
</a>
</g>
</g>
<!-- Node5&#45;&gt;Node6 -->
<g id="edge5" class="edge">
<title>Node5&#45;&gt;Node6</title>
<path fill="none" stroke="midnightblue" d="M186.57,-448.26C193.75,-439.58 204.39,-425.63 211,-412 218.21,-397.12 223.23,-378.98 226.29,-365.64"/>
<polygon fill="midnightblue" stroke="midnightblue" points="229.74,-366.26 228.41,-355.75 222.9,-364.8 229.74,-366.26"/>
</g>
<!-- Node14 -->
<g id="node14" class="node">
<title>Node14</title>
<g id="a_node14"><a xlink:href="_unit_group_8hpp.html" target="_top" xlink:title=" ">
<polygon fill="white" stroke="black" points="56.5,-392.5 56.5,-411.5 201.5,-411.5 201.5,-392.5 56.5,-392.5"/>
<text text-anchor="middle" x="129" y="-399.5" font-family="Helvetica,sans-Serif" font-size="10.00">engine/objects/UnitGroup.hpp</text>
</a>
</g>
</g>
<!-- Node5&#45;&gt;Node14 -->
<g id="edge21" class="edge">
<title>Node5&#45;&gt;Node14</title>
<path fill="none" stroke="midnightblue" d="M170.74,-448.08C163.54,-440.3 152.89,-428.8 144.15,-419.37"/>
<polygon fill="midnightblue" stroke="midnightblue" points="146.47,-416.71 137.1,-411.75 141.33,-421.47 146.47,-416.71"/>
</g>
<!-- Node6&#45;&gt;Node2 -->
<g id="edge6" class="edge">
<title>Node6&#45;&gt;Node2</title>
<path fill="none" stroke="midnightblue" d="M229.04,-336.38C224.73,-297.7 207.12,-139.79 201.06,-85.47"/>
<polygon fill="midnightblue" stroke="midnightblue" points="204.54,-85.07 199.95,-75.52 197.58,-85.85 204.54,-85.07"/>
</g>
<!-- Node7 -->
<g id="node7" class="node">
<title>Node7</title>
<g id="a_node7"><a xlink:href="_world_actor_8hpp.html" target="_top" xlink:title=" ">
<polygon fill="white" stroke="black" points="47,-280.5 47,-299.5 161,-299.5 161,-280.5 47,-280.5"/>
<text text-anchor="middle" x="104" y="-287.5" font-family="Helvetica,sans-Serif" font-size="10.00">engine/WorldActor.hpp</text>
</a>
</g>
</g>
<!-- Node6&#45;&gt;Node7 -->
<g id="edge7" class="edge">
<title>Node6&#45;&gt;Node7</title>
<path fill="none" stroke="midnightblue" d="M210.03,-336.44C189.39,-327.6 156.94,-313.69 133.37,-303.59"/>
<polygon fill="midnightblue" stroke="midnightblue" points="134.44,-300.24 123.87,-299.52 131.68,-306.67 134.44,-300.24"/>
</g>
<!-- Node7&#45;&gt;Node4 -->
<g id="edge8" class="edge">
<title>Node7&#45;&gt;Node4</title>
<path fill="none" stroke="midnightblue" d="M85.88,-280.3C56.09,-264.57 0,-228.41 0,-179 0,-179 0,-179 0,-121 0,-81.28 33.96,-45.5 56.48,-26.15"/>
<polygon fill="midnightblue" stroke="midnightblue" points="58.98,-28.63 64.46,-19.57 54.52,-23.24 58.98,-28.63"/>
</g>
<!-- Node8 -->
<g id="node8" class="node">
<title>Node8</title>
<g id="a_node8"><a xlink:href="_field_8hpp.html" target="_top" xlink:title=" ">
<polygon fill="white" stroke="black" points="76,-224.5 76,-243.5 132,-243.5 132,-224.5 76,-224.5"/>
<text text-anchor="middle" x="104" y="-231.5" font-family="Helvetica,sans-Serif" font-size="10.00">Field.hpp</text>
</a>
</g>
</g>
<!-- Node7&#45;&gt;Node8 -->
<g id="edge9" class="edge">
<title>Node7&#45;&gt;Node8</title>
<path fill="none" stroke="midnightblue" d="M104,-280.08C104,-273.01 104,-262.86 104,-253.99"/>
<polygon fill="midnightblue" stroke="midnightblue" points="107.5,-253.75 104,-243.75 100.5,-253.75 107.5,-253.75"/>
</g>
<!-- Node8&#45;&gt;Node4 -->
<g id="edge20" class="edge">
<title>Node8&#45;&gt;Node4</title>
<path fill="none" stroke="midnightblue" d="M102.9,-224.3C98.78,-191.63 84.18,-75.87 78.39,-29.96"/>
<polygon fill="midnightblue" stroke="midnightblue" points="81.84,-29.37 77.12,-19.88 74.9,-30.24 81.84,-29.37"/>
</g>
<!-- Node9 -->
<g id="node9" class="node">
<title>Node9</title>
<g id="a_node9"><a xlink:href="_cell_8hpp.html" target="_top" xlink:title=" ">
<polygon fill="white" stroke="black" points="228.5,-168.5 228.5,-187.5 345.5,-187.5 345.5,-168.5 228.5,-168.5"/>
<text text-anchor="middle" x="287" y="-175.5" font-family="Helvetica,sans-Serif" font-size="10.00">engine/objects/Cell.hpp</text>
</a>
</g>
</g>
<!-- Node8&#45;&gt;Node9 -->
<g id="edge10" class="edge">
<title>Node8&#45;&gt;Node9</title>
<path fill="none" stroke="midnightblue" d="M132.19,-224.68C163.31,-215.5 213.59,-200.66 248.36,-190.4"/>
<polygon fill="midnightblue" stroke="midnightblue" points="249.57,-193.69 258.17,-187.51 247.59,-186.98 249.57,-193.69"/>
</g>
<!-- Node9&#45;&gt;Node2 -->
<g id="edge11" class="edge">
<title>Node9&#45;&gt;Node2</title>
<path fill="none" stroke="midnightblue" d="M278.27,-168.36C269.5,-159.52 255.8,-145.26 245,-132 232.36,-116.47 219.29,-97.71 210.33,-84.34"/>
<polygon fill="midnightblue" stroke="midnightblue" points="213.04,-82.09 204.6,-75.68 207.21,-85.95 213.04,-82.09"/>
</g>
<!-- Node10 -->
<g id="node10" class="node">
<title>Node10</title>
<g id="a_node10"><a xlink:href="_tickable_8hpp.html" target="_top" xlink:title=" ">
<polygon fill="white" stroke="black" points="321.5,-56.5 321.5,-75.5 424.5,-75.5 424.5,-56.5 321.5,-56.5"/>
<text text-anchor="middle" x="373" y="-63.5" font-family="Helvetica,sans-Serif" font-size="10.00">engine/Tickable.hpp</text>
</a>
</g>
</g>
<!-- Node9&#45;&gt;Node10 -->
<g id="edge12" class="edge">
<title>Node9&#45;&gt;Node10</title>
<path fill="none" stroke="midnightblue" d="M327.06,-168.48C361.16,-160.31 406.3,-147.03 417,-132 429.12,-114.99 410.95,-95.04 394.42,-81.78"/>
<polygon fill="midnightblue" stroke="midnightblue" points="396.19,-78.73 386.09,-75.5 391.97,-84.32 396.19,-78.73"/>
</g>
<!-- Node11 -->
<g id="node11" class="node">
<title>Node11</title>
<g id="a_node11"><a xlink:title=" ">
<polygon fill="white" stroke="#bfbfbf" points="469,-112.5 469,-131.5 513,-131.5 513,-112.5 469,-112.5"/>
<text text-anchor="middle" x="491" y="-119.5" font-family="Helvetica,sans-Serif" font-size="10.00">vector</text>
</a>
</g>
</g>
<!-- Node9&#45;&gt;Node11 -->
<g id="edge13" class="edge">
<title>Node9&#45;&gt;Node11</title>
<path fill="none" stroke="midnightblue" d="M319.32,-168.44C357.53,-158.33 420.71,-141.61 458.84,-131.51"/>
<polygon fill="midnightblue" stroke="midnightblue" points="460.12,-134.8 468.89,-128.85 458.32,-128.03 460.12,-134.8"/>
</g>
<!-- Node12 -->
<g id="node12" class="node">
<title>Node12</title>
<g id="a_node12"><a xlink:href="_ground_8hpp.html" target="_top" xlink:title=" ">
<polygon fill="white" stroke="black" points="254,-112.5 254,-131.5 320,-131.5 320,-112.5 254,-112.5"/>
<text text-anchor="middle" x="287" y="-119.5" font-family="Helvetica,sans-Serif" font-size="10.00">Ground.hpp</text>
</a>
</g>
</g>
<!-- Node9&#45;&gt;Node12 -->
<g id="edge14" class="edge">
<title>Node9&#45;&gt;Node12</title>
<path fill="none" stroke="midnightblue" d="M287,-168.08C287,-161.01 287,-150.86 287,-141.99"/>
<polygon fill="midnightblue" stroke="midnightblue" points="290.5,-141.75 287,-131.75 283.5,-141.75 290.5,-141.75"/>
</g>
<!-- Node13 -->
<g id="node13" class="node">
<title>Node13</title>
<g id="a_node13"><a xlink:href="_building_8hpp.html" target="_top" xlink:title=" ">
<polygon fill="white" stroke="black" points="338.5,-112.5 338.5,-131.5 407.5,-131.5 407.5,-112.5 338.5,-112.5"/>
<text text-anchor="middle" x="373" y="-119.5" font-family="Helvetica,sans-Serif" font-size="10.00">Building.hpp</text>
</a>
</g>
</g>
<!-- Node9&#45;&gt;Node13 -->
<g id="edge17" class="edge">
<title>Node9&#45;&gt;Node13</title>
<path fill="none" stroke="midnightblue" d="M300.82,-168.32C314.23,-159.9 334.82,-146.97 350.59,-137.07"/>
<polygon fill="midnightblue" stroke="midnightblue" points="352.61,-139.94 359.22,-131.65 348.89,-134.01 352.61,-139.94"/>
</g>
<!-- Node12&#45;&gt;Node2 -->
<g id="edge15" class="edge">
<title>Node12&#45;&gt;Node2</title>
<path fill="none" stroke="midnightblue" d="M272.86,-112.32C259.13,-103.9 238.06,-90.97 221.94,-81.07"/>
<polygon fill="midnightblue" stroke="midnightblue" points="223.46,-77.9 213.1,-75.65 219.8,-83.87 223.46,-77.9"/>
</g>
<!-- Node12&#45;&gt;Node10 -->
<g id="edge16" class="edge">
<title>Node12&#45;&gt;Node10</title>
<path fill="none" stroke="midnightblue" d="M300.82,-112.32C314.23,-103.9 334.82,-90.97 350.59,-81.07"/>
<polygon fill="midnightblue" stroke="midnightblue" points="352.61,-83.94 359.22,-75.65 348.89,-78.01 352.61,-83.94"/>
</g>
<!-- Node13&#45;&gt;Node2 -->
<g id="edge18" class="edge">
<title>Node13&#45;&gt;Node2</title>
<path fill="none" stroke="midnightblue" d="M345.43,-112.44C315.9,-103.28 268.88,-88.69 236.12,-78.52"/>
<polygon fill="midnightblue" stroke="midnightblue" points="237.03,-75.14 226.44,-75.52 234.96,-81.82 237.03,-75.14"/>
</g>
<!-- Node13&#45;&gt;Node10 -->
<g id="edge19" class="edge">
<title>Node13&#45;&gt;Node10</title>
<path fill="none" stroke="midnightblue" d="M373,-112.08C373,-105.01 373,-94.86 373,-85.99"/>
<polygon fill="midnightblue" stroke="midnightblue" points="376.5,-85.75 373,-75.75 369.5,-85.75 376.5,-85.75"/>
</g>
<!-- Node15 -->
<g id="node15" class="node">
<title>Node15</title>
<g id="a_node15"><a xlink:href="_unit_8hpp.html" target="_top" xlink:title=" ">
<polygon fill="white" stroke="black" points="47.5,-336.5 47.5,-355.5 100.5,-355.5 100.5,-336.5 47.5,-336.5"/>
<text text-anchor="middle" x="74" y="-343.5" font-family="Helvetica,sans-Serif" font-size="10.00">Unit.hpp</text>
</a>
</g>
</g>
<!-- Node14&#45;&gt;Node15 -->
<g id="edge22" class="edge">
<title>Node14&#45;&gt;Node15</title>
<path fill="none" stroke="midnightblue" d="M119.92,-392.08C111.83,-384.14 99.8,-372.34 90.09,-362.8"/>
<polygon fill="midnightblue" stroke="midnightblue" points="92.5,-360.26 82.91,-355.75 87.6,-365.25 92.5,-360.26"/>
</g>
<!-- Node16 -->
<g id="node16" class="node">
<title>Node16</title>
<g id="a_node16"><a xlink:title=" ">
<polygon fill="white" stroke="#bfbfbf" points="118.5,-336.5 118.5,-355.5 147.5,-355.5 147.5,-336.5 118.5,-336.5"/>
<text text-anchor="middle" x="133" y="-343.5" font-family="Helvetica,sans-Serif" font-size="10.00">list</text>
</a>
</g>
</g>
<!-- Node14&#45;&gt;Node16 -->
<g id="edge24" class="edge">
<title>Node14&#45;&gt;Node16</title>
<path fill="none" stroke="midnightblue" d="M129.66,-392.08C130.18,-385.01 130.94,-374.86 131.59,-365.99"/>
<polygon fill="midnightblue" stroke="midnightblue" points="135.1,-365.98 132.35,-355.75 128.12,-365.47 135.1,-365.98"/>
</g>
<!-- Node15&#45;&gt;Node7 -->
<g id="edge23" class="edge">
<title>Node15&#45;&gt;Node7</title>
<path fill="none" stroke="midnightblue" d="M78.95,-336.08C83.1,-328.61 89.15,-317.72 94.27,-308.52"/>
<polygon fill="midnightblue" stroke="midnightblue" points="97.34,-310.19 99.14,-299.75 91.22,-306.79 97.34,-310.19"/>
</g>
<!-- Node18 -->
<g id="node18" class="node">
<title>Node18</title>
<g id="a_node18"><a xlink:title=" ">
<polygon fill="white" stroke="#bfbfbf" points="258.5,-392.5 258.5,-411.5 293.5,-411.5 293.5,-392.5 258.5,-392.5"/>
<text text-anchor="middle" x="276" y="-399.5" font-family="Helvetica,sans-Serif" font-size="10.00">map</text>
</a>
</g>
</g>
<!-- Node17&#45;&gt;Node18 -->
<g id="edge26" class="edge">
<title>Node17&#45;&gt;Node18</title>
<path fill="none" stroke="midnightblue" d="M349.86,-448.32C336.13,-439.9 315.06,-426.97 298.94,-417.07"/>
<polygon fill="midnightblue" stroke="midnightblue" points="300.46,-413.9 290.1,-411.65 296.8,-419.87 300.46,-413.9"/>
</g>
<!-- Node19 -->
<g id="node19" class="node">
<title>Node19</title>
<g id="a_node19"><a xlink:title=" ">
<polygon fill="white" stroke="#bfbfbf" points="538.5,-336.5 538.5,-355.5 579.5,-355.5 579.5,-336.5 538.5,-336.5"/>
<text text-anchor="middle" x="559" y="-343.5" font-family="Helvetica,sans-Serif" font-size="10.00">string</text>
</a>
</g>
</g>
<!-- Node17&#45;&gt;Node19 -->
<g id="edge27" class="edge">
<title>Node17&#45;&gt;Node19</title>
<path fill="none" stroke="midnightblue" d="M440.69,-451.98C472.83,-446.3 508.55,-434.83 534,-412 547.34,-400.03 553.61,-380.13 556.53,-365.5"/>
<polygon fill="midnightblue" stroke="midnightblue" points="560,-365.99 558.17,-355.55 553.09,-364.85 560,-365.99"/>
</g>
<!-- Node20 -->
<g id="node20" class="node">
<title>Node20</title>
<g id="a_node20"><a xlink:title=" ">
<polygon fill="white" stroke="#bfbfbf" points="311.5,-392.5 311.5,-411.5 362.5,-411.5 362.5,-392.5 311.5,-392.5"/>
<text text-anchor="middle" x="337" y="-399.5" font-family="Helvetica,sans-Serif" font-size="10.00">memory</text>
</a>
</g>
</g>
<!-- Node17&#45;&gt;Node20 -->
<g id="edge28" class="edge">
<title>Node17&#45;&gt;Node20</title>
<path fill="none" stroke="midnightblue" d="M359.54,-448.08C355.85,-440.69 350.48,-429.95 345.91,-420.81"/>
<polygon fill="midnightblue" stroke="midnightblue" points="348.98,-419.13 341.38,-411.75 342.72,-422.26 348.98,-419.13"/>
</g>
<!-- Node21 -->
<g id="node21" class="node">
<title>Node21</title>
<g id="a_node21"><a xlink:href="_shader_8hpp.html" target="_top" xlink:title=" ">
<polygon fill="white" stroke="black" points="419.5,-392.5 419.5,-411.5 524.5,-411.5 524.5,-392.5 419.5,-392.5"/>
<text text-anchor="middle" x="472" y="-399.5" font-family="Helvetica,sans-Serif" font-size="10.00">graphics/Shader.hpp</text>
</a>
</g>
</g>
<!-- Node17&#45;&gt;Node21 -->
<g id="edge29" class="edge">
<title>Node17&#45;&gt;Node21</title>
<path fill="none" stroke="midnightblue" d="M381.35,-448.32C398.67,-439.66 425.52,-426.24 445.5,-416.25"/>
<polygon fill="midnightblue" stroke="midnightblue" points="447.31,-419.26 454.69,-411.65 444.18,-413 447.31,-419.26"/>
</g>
<!-- Node22 -->
<g id="node22" class="node">
<title>Node22</title>
<g id="a_node22"><a xlink:href="_g_shape_8hpp.html" target="_top" xlink:title=" ">
<polygon fill="white" stroke="black" points="334,-336.5 334,-355.5 444,-355.5 444,-336.5 334,-336.5"/>
<text text-anchor="middle" x="389" y="-343.5" font-family="Helvetica,sans-Serif" font-size="10.00">graphics/GShape.hpp</text>
</a>
</g>
</g>
<!-- Node17&#45;&gt;Node22 -->
<g id="edge43" class="edge">
<title>Node17&#45;&gt;Node22</title>
<path fill="none" stroke="midnightblue" d="M365.96,-448.37C370,-430.62 379.3,-389.67 384.77,-365.6"/>
<polygon fill="midnightblue" stroke="midnightblue" points="388.24,-366.12 387.05,-355.59 381.42,-364.57 388.24,-366.12"/>
</g>
<!-- Node21&#45;&gt;Node19 -->
<g id="edge30" class="edge">
<title>Node21&#45;&gt;Node19</title>
<path fill="none" stroke="midnightblue" d="M485.98,-392.32C499.55,-383.9 520.38,-370.97 536.32,-361.07"/>
<polygon fill="midnightblue" stroke="midnightblue" points="538.41,-363.9 545.06,-355.65 534.71,-357.95 538.41,-363.9"/>
</g>
<!-- Node21&#45;&gt;Node22 -->
<g id="edge31" class="edge">
<title>Node21&#45;&gt;Node22</title>
<path fill="none" stroke="midnightblue" d="M453.55,-392.32C439.14,-384.11 419.59,-371.6 405.66,-361.81"/>
<polygon fill="midnightblue" stroke="midnightblue" points="407.58,-358.87 397.43,-355.83 403.47,-364.54 407.58,-358.87"/>
</g>
<!-- Node27 -->
<g id="node27" class="node">
<title>Node27</title>
<g id="a_node27"><a xlink:href="_transform_8hpp.html" target="_top" xlink:title=" ">
<polygon fill="white" stroke="black" points="348.5,-224.5 348.5,-243.5 467.5,-243.5 467.5,-224.5 348.5,-224.5"/>
<text text-anchor="middle" x="408" y="-231.5" font-family="Helvetica,sans-Serif" font-size="10.00">graphics/Transform.hpp</text>
</a>
</g>
</g>
<!-- Node21&#45;&gt;Node27 -->
<g id="edge42" class="edge">
<title>Node21&#45;&gt;Node27</title>
<path fill="none" stroke="midnightblue" d="M469.9,-392.47C466.72,-379.93 460.29,-355.87 453,-336 442.07,-306.23 426.51,-272.82 416.84,-252.87"/>
<polygon fill="midnightblue" stroke="midnightblue" points="419.92,-251.2 412.38,-243.75 413.63,-254.27 419.92,-251.2"/>
</g>
<!-- Node22&#45;&gt;Node21 -->
<g id="edge40" class="edge">
<title>Node22&#45;&gt;Node21</title>
<path fill="none" stroke="midnightblue" d="M407.41,-355.65C421.9,-363.91 441.59,-376.52 455.55,-386.34"/>
<polygon fill="midnightblue" stroke="midnightblue" points="453.63,-389.28 463.78,-392.32 457.75,-383.61 453.63,-389.28"/>
</g>
<!-- Node23 -->
<g id="node23" class="node">
<title>Node23</title>
<g id="a_node23"><a xlink:href="_window_8hpp.html" target="_top" xlink:title=" ">
<polygon fill="white" stroke="black" points="500.5,-280.5 500.5,-299.5 609.5,-299.5 609.5,-280.5 500.5,-280.5"/>
<text text-anchor="middle" x="555" y="-287.5" font-family="Helvetica,sans-Serif" font-size="10.00">graphics/Window.hpp</text>
</a>
</g>
</g>
<!-- Node22&#45;&gt;Node23 -->
<g id="edge32" class="edge">
<title>Node22&#45;&gt;Node23</title>
<path fill="none" stroke="midnightblue" d="M415.3,-336.44C443.35,-327.32 487.94,-312.81 519.18,-302.65"/>
<polygon fill="midnightblue" stroke="midnightblue" points="520.39,-305.94 528.82,-299.52 518.23,-299.28 520.39,-305.94"/>
</g>
<!-- Node22&#45;&gt;Node27 -->
<g id="edge41" class="edge">
<title>Node22&#45;&gt;Node27</title>
<path fill="none" stroke="midnightblue" d="M390.49,-336.37C393.56,-318.62 400.63,-277.67 404.79,-253.6"/>
<polygon fill="midnightblue" stroke="midnightblue" points="408.26,-254.04 406.52,-243.59 401.36,-252.85 408.26,-254.04"/>
</g>
<!-- Node23&#45;&gt;Node11 -->
<g id="edge36" class="edge">
<title>Node23&#45;&gt;Node11</title>
<path fill="none" stroke="midnightblue" d="M545.07,-280.38C536.06,-272.01 523.14,-258.46 516,-244 499.43,-210.46 493.83,-166.47 491.95,-141.83"/>
<polygon fill="midnightblue" stroke="midnightblue" points="495.43,-141.45 491.31,-131.69 488.45,-141.9 495.43,-141.45"/>
</g>
<!-- Node23&#45;&gt;Node21 -->
<g id="edge37" class="edge">
<title>Node23&#45;&gt;Node21</title>
<path fill="none" stroke="midnightblue" d="M548.52,-299.59C534.79,-317.79 502.56,-360.49 484.62,-384.27"/>
<polygon fill="midnightblue" stroke="midnightblue" points="481.74,-382.28 478.51,-392.37 487.33,-386.49 481.74,-382.28"/>
</g>
<!-- Node24 -->
<g id="node24" class="node">
<title>Node24</title>
<g id="a_node24"><a xlink:title=" ">
<polygon fill="white" stroke="#bfbfbf" points="524.5,-224.5 524.5,-243.5 587.5,-243.5 587.5,-224.5 524.5,-224.5"/>
<text text-anchor="middle" x="556" y="-231.5" font-family="Helvetica,sans-Serif" font-size="10.00">glad/glad.h</text>
</a>
</g>
</g>
<!-- Node23&#45;&gt;Node24 -->
<g id="edge33" class="edge">
<title>Node23&#45;&gt;Node24</title>
<path fill="none" stroke="midnightblue" d="M555.17,-280.08C555.3,-273.01 555.48,-262.86 555.65,-253.99"/>
<polygon fill="midnightblue" stroke="midnightblue" points="559.15,-253.81 555.84,-243.75 552.15,-253.68 559.15,-253.81"/>
</g>
<!-- Node25 -->
<g id="node25" class="node">
<title>Node25</title>
<g id="a_node25"><a xlink:title=" ">
<polygon fill="white" stroke="#bfbfbf" points="605.5,-224.5 605.5,-243.5 684.5,-243.5 684.5,-224.5 605.5,-224.5"/>
<text text-anchor="middle" x="645" y="-231.5" font-family="Helvetica,sans-Serif" font-size="10.00">GLFW/glfw3.h</text>
</a>
</g>
</g>
<!-- Node23&#45;&gt;Node25 -->
<g id="edge34" class="edge">
<title>Node23&#45;&gt;Node25</title>
<path fill="none" stroke="midnightblue" d="M569.46,-280.32C583.5,-271.9 605.05,-258.97 621.54,-249.07"/>
<polygon fill="midnightblue" stroke="midnightblue" points="623.8,-251.8 630.58,-243.65 620.2,-245.8 623.8,-251.8"/>
</g>
<!-- Node26 -->
<g id="node26" class="node">
<title>Node26</title>
<g id="a_node26"><a xlink:title=" ">
<polygon fill="white" stroke="#bfbfbf" points="702.5,-224.5 702.5,-243.5 741.5,-243.5 741.5,-224.5 702.5,-224.5"/>
<text text-anchor="middle" x="722" y="-231.5" font-family="Helvetica,sans-Serif" font-size="10.00">utility</text>
</a>
</g>
</g>
<!-- Node23&#45;&gt;Node26 -->
<g id="edge35" class="edge">
<title>Node23&#45;&gt;Node26</title>
<path fill="none" stroke="midnightblue" d="M581.46,-280.44C611.84,-270.62 661.5,-254.56 692.93,-244.4"/>
<polygon fill="midnightblue" stroke="midnightblue" points="694.01,-247.73 702.45,-241.32 691.85,-241.07 694.01,-247.73"/>
</g>
<!-- Node23&#45;&gt;Node27 -->
<g id="edge38" class="edge">
<title>Node23&#45;&gt;Node27</title>
<path fill="none" stroke="midnightblue" d="M531.71,-280.44C507.19,-271.44 468.4,-257.19 440.8,-247.05"/>
<polygon fill="midnightblue" stroke="midnightblue" points="441.78,-243.68 431.18,-243.52 439.36,-250.25 441.78,-243.68"/>
</g>
<!-- Node28 -->
<g id="node28" class="node">
<title>Node28</title>
<g id="a_node28"><a xlink:title=" ">
<polygon fill="white" stroke="#bfbfbf" points="364,-168.5 364,-187.5 468,-187.5 468,-168.5 364,-168.5"/>
<text text-anchor="middle" x="416" y="-175.5" font-family="Helvetica,sans-Serif" font-size="10.00">glm/gtc/type_ptr.hpp</text>
</a>
</g>
</g>
<!-- Node27&#45;&gt;Node28 -->
<g id="edge39" class="edge">
<title>Node27&#45;&gt;Node28</title>
<path fill="none" stroke="midnightblue" d="M409.32,-224.08C410.38,-216.93 411.91,-206.64 413.23,-197.69"/>
<polygon fill="midnightblue" stroke="midnightblue" points="416.7,-198.16 414.7,-187.75 409.78,-197.13 416.7,-198.16"/>
</g>
</g>
</svg>
