<?xml version="1.0" encoding="UTF-8" standalone="no"?>
<!DOCTYPE svg PUBLIC "-//W3C//DTD SVG 1.1//EN"
 "http://www.w3.org/Graphics/SVG/1.1/DTD/svg11.dtd">
<!-- Generated by graphviz version 2.47.0 (20210407.0042)
 -->
<!-- Title: src/engine/Drawable.cpp Pages: 1 -->
<svg width="893pt" height="588pt"
 viewBox="0.00 0.00 893.00 588.00" xmlns="http://www.w3.org/2000/svg" xmlns:xlink="http://www.w3.org/1999/xlink">
<g id="graph0" class="graph" transform="scale(1 1) rotate(0) translate(4 584)">
<title>src/engine/Drawable.cpp</title>
<polygon fill="white" stroke="transparent" points="-4,4 -4,-584 889,-584 889,4 -4,4"/>
<!-- Node1 -->
<g id="node1" class="node">
<title>Node1</title>
<g id="a_node1"><a xlink:title=" ">
<polygon fill="#bfbfbf" stroke="black" points="88.5,-560.5 88.5,-579.5 211.5,-579.5 211.5,-560.5 88.5,-560.5"/>
<text text-anchor="middle" x="150" y="-567.5" font-family="Helvetica,sans-Serif" font-size="10.00">src/engine/Drawable.cpp</text>
</a>
</g>
</g>
<!-- Node2 -->
<g id="node2" class="node">
<title>Node2</title>
<g id="a_node2"><a xlink:href="_drawable_8hpp.html" target="_top" xlink:title=" ">
<polygon fill="white" stroke="black" points="142.5,-112.5 142.5,-131.5 249.5,-131.5 249.5,-112.5 142.5,-112.5"/>
<text text-anchor="middle" x="196" y="-119.5" font-family="Helvetica,sans-Serif" font-size="10.00">engine/Drawable.hpp</text>
</a>
</g>
</g>
<!-- Node1&#45;&gt;Node2 -->
<g id="edge1" class="edge">
<title>Node1&#45;&gt;Node2</title>
<path fill="none" stroke="midnightblue" d="M116.34,-560.48C72.11,-547.04 0,-516.32 0,-459 0,-459 0,-459 0,-233 0,-171.16 75.12,-143.73 132.35,-131.8"/>
<polygon fill="midnightblue" stroke="midnightblue" points="133.31,-135.18 142.44,-129.82 131.95,-128.31 133.31,-135.18"/>
</g>
<!-- Node7 -->
<g id="node7" class="node">
<title>Node7</title>
<g id="a_node7"><a xlink:href="_engine_8hpp.html" target="_top" xlink:title=" ">
<polygon fill="white" stroke="black" points="118,-504.5 118,-523.5 182,-523.5 182,-504.5 118,-504.5"/>
<text text-anchor="middle" x="150" y="-511.5" font-family="Helvetica,sans-Serif" font-size="10.00">Engine.hpp</text>
</a>
</g>
</g>
<!-- Node1&#45;&gt;Node7 -->
<g id="edge6" class="edge">
<title>Node1&#45;&gt;Node7</title>
<path fill="none" stroke="midnightblue" d="M150,-560.08C150,-553.01 150,-542.86 150,-533.99"/>
<polygon fill="midnightblue" stroke="midnightblue" points="153.5,-533.75 150,-523.75 146.5,-533.75 153.5,-533.75"/>
</g>
<!-- Node20 -->
<g id="node20" class="node">
<title>Node20</title>
<g id="a_node20"><a xlink:href="_resource_manager_8hpp.html" target="_top" xlink:title=" ">
<polygon fill="white" stroke="black" points="520.5,-280.5 520.5,-299.5 673.5,-299.5 673.5,-280.5 520.5,-280.5"/>
<text text-anchor="middle" x="597" y="-287.5" font-family="Helvetica,sans-Serif" font-size="10.00">graphics/ResourceManager.hpp</text>
</a>
</g>
</g>
<!-- Node1&#45;&gt;Node20 -->
<g id="edge28" class="edge">
<title>Node1&#45;&gt;Node20</title>
<path fill="none" stroke="midnightblue" d="M204.68,-560.46C291.21,-545.38 450,-510.66 450,-459 450,-459 450,-459 450,-401 450,-348.25 511.43,-317.73 554.86,-302.75"/>
<polygon fill="midnightblue" stroke="midnightblue" points="555.97,-306.07 564.38,-299.61 553.78,-299.42 555.97,-306.07"/>
</g>
<!-- Node3 -->
<g id="node3" class="node">
<title>Node3</title>
<g id="a_node3"><a xlink:title=" ">
<polygon fill="white" stroke="#bfbfbf" points="229,-56.5 229,-75.5 295,-75.5 295,-56.5 229,-56.5"/>
<text text-anchor="middle" x="262" y="-63.5" font-family="Helvetica,sans-Serif" font-size="10.00">string_view</text>
</a>
</g>
</g>
<!-- Node2&#45;&gt;Node3 -->
<g id="edge2" class="edge">
<title>Node2&#45;&gt;Node3</title>
<path fill="none" stroke="midnightblue" d="M206.6,-112.32C216.46,-104.26 231.35,-92.08 243.22,-82.37"/>
<polygon fill="midnightblue" stroke="midnightblue" points="245.68,-84.88 251.2,-75.83 241.25,-79.46 245.68,-84.88"/>
</g>
<!-- Node4 -->
<g id="node4" class="node">
<title>Node4</title>
<g id="a_node4"><a xlink:href="_vector2_d_8hpp.html" target="_top" xlink:title=" ">
<polygon fill="white" stroke="black" points="99,-56.5 99,-75.5 211,-75.5 211,-56.5 99,-56.5"/>
<text text-anchor="middle" x="155" y="-63.5" font-family="Helvetica,sans-Serif" font-size="10.00">Helpers/Vector2D.hpp</text>
</a>
</g>
</g>
<!-- Node2&#45;&gt;Node4 -->
<g id="edge3" class="edge">
<title>Node2&#45;&gt;Node4</title>
<path fill="none" stroke="midnightblue" d="M189.23,-112.08C183.44,-104.46 174.94,-93.26 167.86,-83.94"/>
<polygon fill="midnightblue" stroke="midnightblue" points="170.48,-81.6 161.64,-75.75 164.9,-85.83 170.48,-81.6"/>
</g>
<!-- Node5 -->
<g id="node5" class="node">
<title>Node5</title>
<g id="a_node5"><a xlink:title=" ">
<polygon fill="white" stroke="#bfbfbf" points="352.5,-0.5 352.5,-19.5 391.5,-19.5 391.5,-0.5 352.5,-0.5"/>
<text text-anchor="middle" x="372" y="-7.5" font-family="Helvetica,sans-Serif" font-size="10.00">utility</text>
</a>
</g>
</g>
<!-- Node4&#45;&gt;Node5 -->
<g id="edge4" class="edge">
<title>Node4&#45;&gt;Node5</title>
<path fill="none" stroke="midnightblue" d="M189.38,-56.44C231.62,-45.93 302.56,-28.28 342.45,-18.35"/>
<polygon fill="midnightblue" stroke="midnightblue" points="343.5,-21.7 352.36,-15.89 341.81,-14.91 343.5,-21.7"/>
</g>
<!-- Node6 -->
<g id="node6" class="node">
<title>Node6</title>
<g id="a_node6"><a xlink:title=" ">
<polygon fill="white" stroke="#bfbfbf" points="133,-0.5 133,-19.5 177,-19.5 177,-0.5 133,-0.5"/>
<text text-anchor="middle" x="155" y="-7.5" font-family="Helvetica,sans-Serif" font-size="10.00">cmath</text>
</a>
</g>
</g>
<!-- Node4&#45;&gt;Node6 -->
<g id="edge5" class="edge">
<title>Node4&#45;&gt;Node6</title>
<path fill="none" stroke="midnightblue" d="M155,-56.08C155,-49.01 155,-38.86 155,-29.99"/>
<polygon fill="midnightblue" stroke="midnightblue" points="158.5,-29.75 155,-19.75 151.5,-29.75 158.5,-29.75"/>
</g>
<!-- Node8 -->
<g id="node8" class="node">
<title>Node8</title>
<g id="a_node8"><a xlink:href="_player_8hpp.html" target="_top" xlink:title=" ">
<polygon fill="white" stroke="black" points="28,-392.5 28,-411.5 156,-411.5 156,-392.5 28,-392.5"/>
<text text-anchor="middle" x="92" y="-399.5" font-family="Helvetica,sans-Serif" font-size="10.00">engine/objects/Player.hpp</text>
</a>
</g>
</g>
<!-- Node7&#45;&gt;Node8 -->
<g id="edge7" class="edge">
<title>Node7&#45;&gt;Node8</title>
<path fill="none" stroke="midnightblue" d="M143.25,-504.39C136.55,-495.58 126.26,-481.33 119,-468 110.7,-452.76 103.3,-434.42 98.36,-421.11"/>
<polygon fill="midnightblue" stroke="midnightblue" points="101.64,-419.89 94.95,-411.68 95.05,-422.27 101.64,-419.89"/>
</g>
<!-- Node17 -->
<g id="node17" class="node">
<title>Node17</title>
<g id="a_node17"><a xlink:href="_unit_group_8hpp.html" target="_top" xlink:title=" ">
<polygon fill="white" stroke="black" points="128.5,-448.5 128.5,-467.5 273.5,-467.5 273.5,-448.5 128.5,-448.5"/>
<text text-anchor="middle" x="201" y="-455.5" font-family="Helvetica,sans-Serif" font-size="10.00">engine/objects/UnitGroup.hpp</text>
</a>
</g>
</g>
<!-- Node7&#45;&gt;Node17 -->
<g id="edge24" class="edge">
<title>Node7&#45;&gt;Node17</title>
<path fill="none" stroke="midnightblue" d="M158.42,-504.08C165.85,-496.22 176.85,-484.57 185.81,-475.08"/>
<polygon fill="midnightblue" stroke="midnightblue" points="188.41,-477.42 192.74,-467.75 183.32,-472.62 188.41,-477.42"/>
</g>
<!-- Node8&#45;&gt;Node2 -->
<g id="edge8" class="edge">
<title>Node8&#45;&gt;Node2</title>
<path fill="none" stroke="midnightblue" d="M83.79,-392.18C76.46,-383.66 66.24,-370.02 62,-356 59.42,-347.49 59.66,-344.58 62,-336 84.47,-253.63 150.73,-172.88 180.82,-139.29"/>
<polygon fill="midnightblue" stroke="midnightblue" points="183.5,-141.55 187.64,-131.79 178.33,-136.83 183.5,-141.55"/>
</g>
<!-- Node9 -->
<g id="node9" class="node">
<title>Node9</title>
<g id="a_node9"><a xlink:href="_world_actor_8hpp.html" target="_top" xlink:title=" ">
<polygon fill="white" stroke="black" points="71,-336.5 71,-355.5 185,-355.5 185,-336.5 71,-336.5"/>
<text text-anchor="middle" x="128" y="-343.5" font-family="Helvetica,sans-Serif" font-size="10.00">engine/WorldActor.hpp</text>
</a>
</g>
</g>
<!-- Node8&#45;&gt;Node9 -->
<g id="edge9" class="edge">
<title>Node8&#45;&gt;Node9</title>
<path fill="none" stroke="midnightblue" d="M97.94,-392.08C102.98,-384.53 110.34,-373.49 116.51,-364.23"/>
<polygon fill="midnightblue" stroke="midnightblue" points="119.53,-366.01 122.17,-355.75 113.71,-362.13 119.53,-366.01"/>
</g>
<!-- Node9&#45;&gt;Node4 -->
<g id="edge10" class="edge">
<title>Node9&#45;&gt;Node4</title>
<path fill="none" stroke="midnightblue" d="M120.17,-336.3C112.76,-327.65 101.78,-313.73 95,-300 81.68,-273.01 76,-265.1 76,-235 76,-235 76,-235 76,-177 76,-136.79 111.25,-101.22 134.66,-82.03"/>
<polygon fill="midnightblue" stroke="midnightblue" points="136.97,-84.66 142.66,-75.72 132.64,-79.17 136.97,-84.66"/>
</g>
<!-- Node10 -->
<g id="node10" class="node">
<title>Node10</title>
<g id="a_node10"><a xlink:href="_field_8hpp.html" target="_top" xlink:title=" ">
<polygon fill="white" stroke="black" points="104,-280.5 104,-299.5 160,-299.5 160,-280.5 104,-280.5"/>
<text text-anchor="middle" x="132" y="-287.5" font-family="Helvetica,sans-Serif" font-size="10.00">Field.hpp</text>
</a>
</g>
</g>
<!-- Node9&#45;&gt;Node10 -->
<g id="edge11" class="edge">
<title>Node9&#45;&gt;Node10</title>
<path fill="none" stroke="midnightblue" d="M128.66,-336.08C129.18,-329.01 129.94,-318.86 130.59,-309.99"/>
<polygon fill="midnightblue" stroke="midnightblue" points="134.1,-309.98 131.35,-299.75 127.12,-309.47 134.1,-309.98"/>
</g>
<!-- Node10&#45;&gt;Node4 -->
<g id="edge23" class="edge">
<title>Node10&#45;&gt;Node4</title>
<path fill="none" stroke="midnightblue" d="M130.83,-280.38C127.58,-254.47 119.6,-175.22 134,-112 136.18,-102.44 140.57,-92.49 144.77,-84.38"/>
<polygon fill="midnightblue" stroke="midnightblue" points="147.87,-86.01 149.65,-75.56 141.75,-82.62 147.87,-86.01"/>
</g>
<!-- Node11 -->
<g id="node11" class="node">
<title>Node11</title>
<g id="a_node11"><a xlink:href="_cell_8hpp.html" target="_top" xlink:title=" ">
<polygon fill="white" stroke="black" points="235.5,-224.5 235.5,-243.5 352.5,-243.5 352.5,-224.5 235.5,-224.5"/>
<text text-anchor="middle" x="294" y="-231.5" font-family="Helvetica,sans-Serif" font-size="10.00">engine/objects/Cell.hpp</text>
</a>
</g>
</g>
<!-- Node10&#45;&gt;Node11 -->
<g id="edge12" class="edge">
<title>Node10&#45;&gt;Node11</title>
<path fill="none" stroke="midnightblue" d="M157.67,-280.44C184.92,-271.36 228.18,-256.94 258.65,-246.78"/>
<polygon fill="midnightblue" stroke="midnightblue" points="260.07,-250 268.45,-243.52 257.86,-243.36 260.07,-250"/>
</g>
<!-- Node11&#45;&gt;Node2 -->
<g id="edge13" class="edge">
<title>Node11&#45;&gt;Node2</title>
<path fill="none" stroke="midnightblue" d="M264.01,-224.46C245.37,-217.6 222.47,-206.07 209,-188 199.11,-174.74 196.23,-155.87 195.6,-141.88"/>
<polygon fill="midnightblue" stroke="midnightblue" points="199.1,-141.47 195.5,-131.5 192.1,-141.54 199.1,-141.47"/>
</g>
<!-- Node12 -->
<g id="node12" class="node">
<title>Node12</title>
<g id="a_node12"><a xlink:href="_tickable_8hpp.html" target="_top" xlink:title=" ">
<polygon fill="white" stroke="black" points="285.5,-112.5 285.5,-131.5 388.5,-131.5 388.5,-112.5 285.5,-112.5"/>
<text text-anchor="middle" x="337" y="-119.5" font-family="Helvetica,sans-Serif" font-size="10.00">engine/Tickable.hpp</text>
</a>
</g>
</g>
<!-- Node11&#45;&gt;Node12 -->
<g id="edge14" class="edge">
<title>Node11&#45;&gt;Node12</title>
<path fill="none" stroke="midnightblue" d="M329.01,-224.45C347.93,-217.84 369.68,-206.59 381,-188 391.74,-170.36 374.33,-150.82 358.35,-137.81"/>
<polygon fill="midnightblue" stroke="midnightblue" points="360.35,-134.94 350.28,-131.65 356.1,-140.5 360.35,-134.94"/>
</g>
<!-- Node13 -->
<g id="node13" class="node">
<title>Node13</title>
<g id="a_node13"><a xlink:title=" ">
<polygon fill="white" stroke="#bfbfbf" points="416,-56.5 416,-75.5 460,-75.5 460,-56.5 416,-56.5"/>
<text text-anchor="middle" x="438" y="-63.5" font-family="Helvetica,sans-Serif" font-size="10.00">vector</text>
</a>
</g>
</g>
<!-- Node11&#45;&gt;Node13 -->
<g id="edge15" class="edge">
<title>Node11&#45;&gt;Node13</title>
<path fill="none" stroke="midnightblue" d="M331.41,-224.47C352.91,-217.82 378.95,-206.5 396,-188 422.91,-158.8 432.72,-111.46 436.18,-85.5"/>
<polygon fill="midnightblue" stroke="midnightblue" points="439.67,-85.84 437.34,-75.5 432.71,-85.03 439.67,-85.84"/>
</g>
<!-- Node14 -->
<g id="node14" class="node">
<title>Node14</title>
<g id="a_node14"><a xlink:href="_ground_8hpp.html" target="_top" xlink:title=" ">
<polygon fill="white" stroke="black" points="218,-168.5 218,-187.5 284,-187.5 284,-168.5 218,-168.5"/>
<text text-anchor="middle" x="251" y="-175.5" font-family="Helvetica,sans-Serif" font-size="10.00">Ground.hpp</text>
</a>
</g>
</g>
<!-- Node11&#45;&gt;Node14 -->
<g id="edge16" class="edge">
<title>Node11&#45;&gt;Node14</title>
<path fill="none" stroke="midnightblue" d="M286.9,-224.08C280.76,-216.38 271.73,-205.03 264.26,-195.65"/>
<polygon fill="midnightblue" stroke="midnightblue" points="266.94,-193.39 257.97,-187.75 261.46,-197.75 266.94,-193.39"/>
</g>
<!-- Node15 -->
<g id="node15" class="node">
<title>Node15</title>
<g id="a_node15"><a xlink:href="_building_8hpp.html" target="_top" xlink:title=" ">
<polygon fill="white" stroke="black" points="302.5,-168.5 302.5,-187.5 371.5,-187.5 371.5,-168.5 302.5,-168.5"/>
<text text-anchor="middle" x="337" y="-175.5" font-family="Helvetica,sans-Serif" font-size="10.00">Building.hpp</text>
</a>
</g>
</g>
<!-- Node11&#45;&gt;Node15 -->
<g id="edge19" class="edge">
<title>Node11&#45;&gt;Node15</title>
<path fill="none" stroke="midnightblue" d="M301.1,-224.08C307.24,-216.38 316.27,-205.03 323.74,-195.65"/>
<polygon fill="midnightblue" stroke="midnightblue" points="326.54,-197.75 330.03,-187.75 321.06,-193.39 326.54,-197.75"/>
</g>
<!-- Node14&#45;&gt;Node2 -->
<g id="edge17" class="edge">
<title>Node14&#45;&gt;Node2</title>
<path fill="none" stroke="midnightblue" d="M241.92,-168.08C233.83,-160.14 221.8,-148.34 212.09,-138.8"/>
<polygon fill="midnightblue" stroke="midnightblue" points="214.5,-136.26 204.91,-131.75 209.6,-141.25 214.5,-136.26"/>
</g>
<!-- Node14&#45;&gt;Node12 -->
<g id="edge18" class="edge">
<title>Node14&#45;&gt;Node12</title>
<path fill="none" stroke="midnightblue" d="M264.82,-168.32C278.23,-159.9 298.82,-146.97 314.59,-137.07"/>
<polygon fill="midnightblue" stroke="midnightblue" points="316.61,-139.94 323.22,-131.65 312.89,-134.01 316.61,-139.94"/>
</g>
<!-- Node15&#45;&gt;Node2 -->
<g id="edge20" class="edge">
<title>Node15&#45;&gt;Node2</title>
<path fill="none" stroke="midnightblue" d="M314.66,-168.44C291.25,-159.48 254.26,-145.31 227.81,-135.18"/>
<polygon fill="midnightblue" stroke="midnightblue" points="228.83,-131.82 218.24,-131.52 226.32,-138.36 228.83,-131.82"/>
</g>
<!-- Node15&#45;&gt;Node12 -->
<g id="edge21" class="edge">
<title>Node15&#45;&gt;Node12</title>
<path fill="none" stroke="midnightblue" d="M337,-168.08C337,-161.01 337,-150.86 337,-141.99"/>
<polygon fill="midnightblue" stroke="midnightblue" points="340.5,-141.75 337,-131.75 333.5,-141.75 340.5,-141.75"/>
</g>
<!-- Node16 -->
<g id="node16" class="node">
<title>Node16</title>
<g id="a_node16"><a xlink:title=" ">
<polygon fill="white" stroke="#bfbfbf" points="466.5,-112.5 466.5,-131.5 525.5,-131.5 525.5,-112.5 466.5,-112.5"/>
<text text-anchor="middle" x="496" y="-119.5" font-family="Helvetica,sans-Serif" font-size="10.00">functional</text>
</a>
</g>
</g>
<!-- Node15&#45;&gt;Node16 -->
<g id="edge22" class="edge">
<title>Node15&#45;&gt;Node16</title>
<path fill="none" stroke="midnightblue" d="M362.19,-168.44C388.94,-159.36 431.4,-144.94 461.31,-134.78"/>
<polygon fill="midnightblue" stroke="midnightblue" points="462.58,-138.05 470.92,-131.52 460.33,-131.42 462.58,-138.05"/>
</g>
<!-- Node18 -->
<g id="node18" class="node">
<title>Node18</title>
<g id="a_node18"><a xlink:href="_unit_8hpp.html" target="_top" xlink:title=" ">
<polygon fill="white" stroke="black" points="174.5,-392.5 174.5,-411.5 227.5,-411.5 227.5,-392.5 174.5,-392.5"/>
<text text-anchor="middle" x="201" y="-399.5" font-family="Helvetica,sans-Serif" font-size="10.00">Unit.hpp</text>
</a>
</g>
</g>
<!-- Node17&#45;&gt;Node18 -->
<g id="edge25" class="edge">
<title>Node17&#45;&gt;Node18</title>
<path fill="none" stroke="midnightblue" d="M201,-448.08C201,-441.01 201,-430.86 201,-421.99"/>
<polygon fill="midnightblue" stroke="midnightblue" points="204.5,-421.75 201,-411.75 197.5,-421.75 204.5,-421.75"/>
</g>
<!-- Node19 -->
<g id="node19" class="node">
<title>Node19</title>
<g id="a_node19"><a xlink:title=" ">
<polygon fill="white" stroke="#bfbfbf" points="245.5,-392.5 245.5,-411.5 274.5,-411.5 274.5,-392.5 245.5,-392.5"/>
<text text-anchor="middle" x="260" y="-399.5" font-family="Helvetica,sans-Serif" font-size="10.00">list</text>
</a>
</g>
</g>
<!-- Node17&#45;&gt;Node19 -->
<g id="edge27" class="edge">
<title>Node17&#45;&gt;Node19</title>
<path fill="none" stroke="midnightblue" d="M210.48,-448.32C219.2,-440.34 232.34,-428.31 242.9,-418.65"/>
<polygon fill="midnightblue" stroke="midnightblue" points="245.33,-421.17 250.35,-411.83 240.61,-416 245.33,-421.17"/>
</g>
<!-- Node18&#45;&gt;Node9 -->
<g id="edge26" class="edge">
<title>Node18&#45;&gt;Node9</title>
<path fill="none" stroke="midnightblue" d="M189.27,-392.32C178.16,-384.11 161.26,-371.6 148.02,-361.81"/>
<polygon fill="midnightblue" stroke="midnightblue" points="150.06,-358.97 139.94,-355.83 145.9,-364.59 150.06,-358.97"/>
</g>
<!-- Node21 -->
<g id="node21" class="node">
<title>Node21</title>
<g id="a_node21"><a xlink:title=" ">
<polygon fill="white" stroke="#bfbfbf" points="495.5,-224.5 495.5,-243.5 530.5,-243.5 530.5,-224.5 495.5,-224.5"/>
<text text-anchor="middle" x="513" y="-231.5" font-family="Helvetica,sans-Serif" font-size="10.00">map</text>
</a>
</g>
</g>
<!-- Node20&#45;&gt;Node21 -->
<g id="edge29" class="edge">
<title>Node20&#45;&gt;Node21</title>
<path fill="none" stroke="midnightblue" d="M583.5,-280.32C570.4,-271.9 550.29,-258.97 534.89,-249.07"/>
<polygon fill="midnightblue" stroke="midnightblue" points="536.77,-246.12 526.46,-243.65 532.98,-252.01 536.77,-246.12"/>
</g>
<!-- Node22 -->
<g id="node22" class="node">
<title>Node22</title>
<g id="a_node22"><a xlink:title=" ">
<polygon fill="white" stroke="#bfbfbf" points="639.5,-168.5 639.5,-187.5 680.5,-187.5 680.5,-168.5 639.5,-168.5"/>
<text text-anchor="middle" x="660" y="-175.5" font-family="Helvetica,sans-Serif" font-size="10.00">string</text>
</a>
</g>
</g>
<!-- Node20&#45;&gt;Node22 -->
<g id="edge30" class="edge">
<title>Node20&#45;&gt;Node22</title>
<path fill="none" stroke="midnightblue" d="M598.32,-280.49C600.6,-267.57 606.13,-242.53 617,-224 623.46,-212.98 633.13,-202.54 641.66,-194.5"/>
<polygon fill="midnightblue" stroke="midnightblue" points="644.26,-196.87 649.35,-187.58 639.57,-191.67 644.26,-196.87"/>
</g>
<!-- Node23 -->
<g id="node23" class="node">
<title>Node23</title>
<g id="a_node23"><a xlink:title=" ">
<polygon fill="white" stroke="#bfbfbf" points="625.5,-224.5 625.5,-243.5 676.5,-243.5 676.5,-224.5 625.5,-224.5"/>
<text text-anchor="middle" x="651" y="-231.5" font-family="Helvetica,sans-Serif" font-size="10.00">memory</text>
</a>
</g>
</g>
<!-- Node20&#45;&gt;Node23 -->
<g id="edge31" class="edge">
<title>Node20&#45;&gt;Node23</title>
<path fill="none" stroke="midnightblue" d="M605.92,-280.08C613.78,-272.22 625.43,-260.57 634.92,-251.08"/>
<polygon fill="midnightblue" stroke="midnightblue" points="637.65,-253.3 642.25,-243.75 632.7,-248.35 637.65,-253.3"/>
</g>
<!-- Node24 -->
<g id="node24" class="node">
<title>Node24</title>
<g id="a_node24"><a xlink:href="_shader_8hpp.html" target="_top" xlink:title=" ">
<polygon fill="white" stroke="black" points="694.5,-224.5 694.5,-243.5 799.5,-243.5 799.5,-224.5 694.5,-224.5"/>
<text text-anchor="middle" x="747" y="-231.5" font-family="Helvetica,sans-Serif" font-size="10.00">graphics/Shader.hpp</text>
</a>
</g>
</g>
<!-- Node20&#45;&gt;Node24 -->
<g id="edge32" class="edge">
<title>Node20&#45;&gt;Node24</title>
<path fill="none" stroke="midnightblue" d="M620.77,-280.44C645.89,-271.4 685.71,-257.06 713.9,-246.92"/>
<polygon fill="midnightblue" stroke="midnightblue" points="715.12,-250.2 723.34,-243.52 712.75,-243.61 715.12,-250.2"/>
</g>
<!-- Node25 -->
<g id="node25" class="node">
<title>Node25</title>
<g id="a_node25"><a xlink:href="_g_shape_8hpp.html" target="_top" xlink:title=" ">
<polygon fill="white" stroke="black" points="775,-168.5 775,-187.5 885,-187.5 885,-168.5 775,-168.5"/>
<text text-anchor="middle" x="830" y="-175.5" font-family="Helvetica,sans-Serif" font-size="10.00">graphics/GShape.hpp</text>
</a>
</g>
</g>
<!-- Node20&#45;&gt;Node25 -->
<g id="edge46" class="edge">
<title>Node20&#45;&gt;Node25</title>
<path fill="none" stroke="midnightblue" d="M673.6,-280.86C725.88,-273.82 789.12,-261.92 809,-244 822.05,-232.23 827.03,-212.3 828.91,-197.6"/>
<polygon fill="midnightblue" stroke="midnightblue" points="832.4,-197.89 829.82,-187.61 825.43,-197.25 832.4,-197.89"/>
</g>
<!-- Node31 -->
<g id="node31" class="node">
<title>Node31</title>
<g id="a_node31"><a xlink:href="_event_handler_8hpp.html" target="_top" xlink:title=" ">
<polygon fill="white" stroke="black" points="466.5,-168.5 466.5,-187.5 621.5,-187.5 621.5,-168.5 466.5,-168.5"/>
<text text-anchor="middle" x="544" y="-175.5" font-family="Helvetica,sans-Serif" font-size="10.00">EventHandler/EventHandler.hpp</text>
</a>
</g>
</g>
<!-- Node20&#45;&gt;Node31 -->
<g id="edge47" class="edge">
<title>Node20&#45;&gt;Node31</title>
<path fill="none" stroke="midnightblue" d="M592.84,-280.37C584.17,-262.38 564.02,-220.55 552.49,-196.63"/>
<polygon fill="midnightblue" stroke="midnightblue" points="555.63,-195.08 548.14,-187.59 549.33,-198.12 555.63,-195.08"/>
</g>
<!-- Node24&#45;&gt;Node22 -->
<g id="edge33" class="edge">
<title>Node24&#45;&gt;Node22</title>
<path fill="none" stroke="midnightblue" d="M733.02,-224.32C719.45,-215.9 698.62,-202.97 682.68,-193.07"/>
<polygon fill="midnightblue" stroke="midnightblue" points="684.29,-189.95 673.94,-187.65 680.59,-195.9 684.29,-189.95"/>
</g>
<!-- Node24&#45;&gt;Node25 -->
<g id="edge34" class="edge">
<title>Node24&#45;&gt;Node25</title>
<path fill="none" stroke="midnightblue" d="M755.22,-224.32C766.45,-215.82 786.29,-202.73 802.82,-192.8"/>
<polygon fill="midnightblue" stroke="midnightblue" points="804.73,-195.73 811.59,-187.65 801.19,-189.69 804.73,-195.73"/>
</g>
<!-- Node29 -->
<g id="node29" class="node">
<title>Node29</title>
<g id="a_node29"><a xlink:href="_transform_8hpp.html" target="_top" xlink:title=" ">
<polygon fill="white" stroke="black" points="694.5,-56.5 694.5,-75.5 813.5,-75.5 813.5,-56.5 694.5,-56.5"/>
<text text-anchor="middle" x="754" y="-63.5" font-family="Helvetica,sans-Serif" font-size="10.00">graphics/Transform.hpp</text>
</a>
</g>
</g>
<!-- Node24&#45;&gt;Node29 -->
<g id="edge45" class="edge">
<title>Node24&#45;&gt;Node29</title>
<path fill="none" stroke="midnightblue" d="M747.38,-224.08C748.48,-197.95 751.71,-121.21 753.22,-85.58"/>
<polygon fill="midnightblue" stroke="midnightblue" points="756.71,-85.71 753.64,-75.57 749.72,-85.41 756.71,-85.71"/>
</g>
<!-- Node25&#45;&gt;Node24 -->
<g id="edge43" class="edge">
<title>Node25&#45;&gt;Node24</title>
<path fill="none" stroke="midnightblue" d="M821.57,-187.83C810.3,-196.34 790.6,-209.34 774.17,-219.21"/>
<polygon fill="midnightblue" stroke="midnightblue" points="772.31,-216.25 765.45,-224.32 775.85,-222.28 772.31,-216.25"/>
</g>
<!-- Node26 -->
<g id="node26" class="node">
<title>Node26</title>
<g id="a_node26"><a xlink:href="_window_8hpp.html" target="_top" xlink:title=" ">
<polygon fill="white" stroke="black" points="582.5,-112.5 582.5,-131.5 691.5,-131.5 691.5,-112.5 582.5,-112.5"/>
<text text-anchor="middle" x="637" y="-119.5" font-family="Helvetica,sans-Serif" font-size="10.00">graphics/Window.hpp</text>
</a>
</g>
</g>
<!-- Node25&#45;&gt;Node26 -->
<g id="edge35" class="edge">
<title>Node25&#45;&gt;Node26</title>
<path fill="none" stroke="midnightblue" d="M799.42,-168.44C766.39,-159.2 713.61,-144.44 677.23,-134.26"/>
<polygon fill="midnightblue" stroke="midnightblue" points="678.01,-130.84 667.44,-131.52 676.13,-137.58 678.01,-130.84"/>
</g>
<!-- Node25&#45;&gt;Node29 -->
<g id="edge44" class="edge">
<title>Node25&#45;&gt;Node29</title>
<path fill="none" stroke="midnightblue" d="M824.04,-168.37C811.49,-150.22 782.19,-107.8 765.74,-83.99"/>
<polygon fill="midnightblue" stroke="midnightblue" points="768.5,-81.83 759.94,-75.59 762.74,-85.81 768.5,-81.83"/>
</g>
<!-- Node26&#45;&gt;Node5 -->
<g id="edge38" class="edge">
<title>Node26&#45;&gt;Node5</title>
<path fill="none" stroke="midnightblue" d="M608.9,-112.44C582.47,-104.09 542.01,-90.57 508,-76 490.09,-68.33 486.51,-64.54 469,-56 446.02,-44.78 419.69,-32.61 400.27,-23.76"/>
<polygon fill="midnightblue" stroke="midnightblue" points="401.62,-20.53 391.06,-19.58 398.72,-26.9 401.62,-20.53"/>
</g>
<!-- Node26&#45;&gt;Node13 -->
<g id="edge39" class="edge">
<title>Node26&#45;&gt;Node13</title>
<path fill="none" stroke="midnightblue" d="M605.47,-112.44C568.4,-102.39 507.23,-85.79 469.98,-75.68"/>
<polygon fill="midnightblue" stroke="midnightblue" points="470.71,-72.25 460.14,-73.01 468.88,-79.01 470.71,-72.25"/>
</g>
<!-- Node26&#45;&gt;Node24 -->
<g id="edge40" class="edge">
<title>Node26&#45;&gt;Node24</title>
<path fill="none" stroke="midnightblue" d="M647.96,-131.52C658.97,-140.26 676.23,-154.45 690,-168 705.8,-183.55 722.33,-202.78 733.5,-216.28"/>
<polygon fill="midnightblue" stroke="midnightblue" points="730.96,-218.7 740,-224.23 736.38,-214.27 730.96,-218.7"/>
</g>
<!-- Node27 -->
<g id="node27" class="node">
<title>Node27</title>
<g id="a_node27"><a xlink:title=" ">
<polygon fill="white" stroke="#bfbfbf" points="516.5,-56.5 516.5,-75.5 579.5,-75.5 579.5,-56.5 516.5,-56.5"/>
<text text-anchor="middle" x="548" y="-63.5" font-family="Helvetica,sans-Serif" font-size="10.00">glad/glad.h</text>
</a>
</g>
</g>
<!-- Node26&#45;&gt;Node27 -->
<g id="edge36" class="edge">
<title>Node26&#45;&gt;Node27</title>
<path fill="none" stroke="midnightblue" d="M622.7,-112.32C608.82,-103.9 587.51,-90.97 571.2,-81.07"/>
<polygon fill="midnightblue" stroke="midnightblue" points="572.63,-77.85 562.26,-75.65 569,-83.83 572.63,-77.85"/>
</g>
<!-- Node28 -->
<g id="node28" class="node">
<title>Node28</title>
<g id="a_node28"><a xlink:title=" ">
<polygon fill="white" stroke="#bfbfbf" points="597.5,-56.5 597.5,-75.5 676.5,-75.5 676.5,-56.5 597.5,-56.5"/>
<text text-anchor="middle" x="637" y="-63.5" font-family="Helvetica,sans-Serif" font-size="10.00">GLFW/glfw3.h</text>
</a>
</g>
</g>
<!-- Node26&#45;&gt;Node28 -->
<g id="edge37" class="edge">
<title>Node26&#45;&gt;Node28</title>
<path fill="none" stroke="midnightblue" d="M637,-112.08C637,-105.01 637,-94.86 637,-85.99"/>
<polygon fill="midnightblue" stroke="midnightblue" points="640.5,-85.75 637,-75.75 633.5,-85.75 640.5,-85.75"/>
</g>
<!-- Node26&#45;&gt;Node29 -->
<g id="edge41" class="edge">
<title>Node26&#45;&gt;Node29</title>
<path fill="none" stroke="midnightblue" d="M655.54,-112.44C674.62,-103.64 704.57,-89.81 726.44,-79.72"/>
<polygon fill="midnightblue" stroke="midnightblue" points="727.93,-82.88 735.55,-75.52 725,-76.53 727.93,-82.88"/>
</g>
<!-- Node30 -->
<g id="node30" class="node">
<title>Node30</title>
<g id="a_node30"><a xlink:title=" ">
<polygon fill="white" stroke="#bfbfbf" points="702,-0.5 702,-19.5 806,-19.5 806,-0.5 702,-0.5"/>
<text text-anchor="middle" x="754" y="-7.5" font-family="Helvetica,sans-Serif" font-size="10.00">glm/gtc/type_ptr.hpp</text>
</a>
</g>
</g>
<!-- Node29&#45;&gt;Node30 -->
<g id="edge42" class="edge">
<title>Node29&#45;&gt;Node30</title>
<path fill="none" stroke="midnightblue" d="M754,-56.08C754,-49.01 754,-38.86 754,-29.99"/>
<polygon fill="midnightblue" stroke="midnightblue" points="757.5,-29.75 754,-19.75 750.5,-29.75 757.5,-29.75"/>
</g>
<!-- Node31&#45;&gt;Node4 -->
<g id="edge50" class="edge">
<title>Node31&#45;&gt;Node4</title>
<path fill="none" stroke="midnightblue" d="M545.75,-168.4C548.04,-154.41 550.16,-126.8 535,-112 486.61,-64.75 305.26,-83.18 221.03,-75.89"/>
<polygon fill="midnightblue" stroke="midnightblue" points="221.32,-72.41 211.01,-74.84 220.59,-79.37 221.32,-72.41"/>
</g>
<!-- Node31&#45;&gt;Node16 -->
<g id="edge48" class="edge">
<title>Node31&#45;&gt;Node16</title>
<path fill="none" stroke="midnightblue" d="M536.07,-168.08C529.15,-160.3 518.93,-148.8 510.55,-139.37"/>
<polygon fill="midnightblue" stroke="midnightblue" points="513.04,-136.9 503.78,-131.75 507.81,-141.55 513.04,-136.9"/>
</g>
<!-- Node31&#45;&gt;Node26 -->
<g id="edge49" class="edge">
<title>Node31&#45;&gt;Node26</title>
<path fill="none" stroke="midnightblue" d="M558.94,-168.32C573.59,-159.82 596.13,-146.73 613.24,-136.8"/>
<polygon fill="midnightblue" stroke="midnightblue" points="615.2,-139.7 622.1,-131.65 611.69,-133.65 615.2,-139.7"/>
</g>
</g>
</svg>
