<?xml version="1.0" encoding="UTF-8" standalone="no"?>
<!DOCTYPE svg PUBLIC "-//W3C//DTD SVG 1.1//EN"
 "http://www.w3.org/Graphics/SVG/1.1/DTD/svg11.dtd">
<!-- Generated by graphviz version 2.47.0 (20210407.0042)
 -->
<!-- Title: src/engine/Drawable.cpp Pages: 1 -->
<svg width="908pt" height="588pt"
 viewBox="0.00 0.00 907.50 588.00" xmlns="http://www.w3.org/2000/svg" xmlns:xlink="http://www.w3.org/1999/xlink">
<g id="graph0" class="graph" transform="scale(1 1) rotate(0) translate(4 584)">
<title>src/engine/Drawable.cpp</title>
<polygon fill="white" stroke="transparent" points="-4,4 -4,-584 903.5,-584 903.5,4 -4,4"/>
<!-- Node1 -->
<g id="node1" class="node">
<title>Node1</title>
<g id="a_node1"><a xlink:title=" ">
<polygon fill="#bfbfbf" stroke="black" points="84.5,-560.5 84.5,-579.5 207.5,-579.5 207.5,-560.5 84.5,-560.5"/>
<text text-anchor="middle" x="146" y="-567.5" font-family="Helvetica,sans-Serif" font-size="10.00">src/engine/Drawable.cpp</text>
</a>
</g>
</g>
<!-- Node2 -->
<g id="node2" class="node">
<title>Node2</title>
<g id="a_node2"><a xlink:href="_drawable_8hpp.html" target="_top" xlink:title=" ">
<polygon fill="white" stroke="black" points="72.5,-112.5 72.5,-131.5 179.5,-131.5 179.5,-112.5 72.5,-112.5"/>
<text text-anchor="middle" x="126" y="-119.5" font-family="Helvetica,sans-Serif" font-size="10.00">engine/Drawable.hpp</text>
</a>
</g>
</g>
<!-- Node1&#45;&gt;Node2 -->
<g id="edge1" class="edge">
<title>Node1&#45;&gt;Node2</title>
<path fill="none" stroke="midnightblue" d="M113.96,-560.44C70.98,-546.78 0,-515.65 0,-459 0,-459 0,-459 0,-233 0,-183.95 54.85,-151.74 92.17,-135.5"/>
<polygon fill="midnightblue" stroke="midnightblue" points="93.82,-138.61 101.71,-131.53 91.13,-132.14 93.82,-138.61"/>
</g>
<!-- Node6 -->
<g id="node6" class="node">
<title>Node6</title>
<g id="a_node6"><a xlink:href="_engine_8hpp.html" target="_top" xlink:title=" ">
<polygon fill="white" stroke="black" points="114,-504.5 114,-523.5 178,-523.5 178,-504.5 114,-504.5"/>
<text text-anchor="middle" x="146" y="-511.5" font-family="Helvetica,sans-Serif" font-size="10.00">Engine.hpp</text>
</a>
</g>
</g>
<!-- Node1&#45;&gt;Node6 -->
<g id="edge5" class="edge">
<title>Node1&#45;&gt;Node6</title>
<path fill="none" stroke="midnightblue" d="M146,-560.08C146,-553.01 146,-542.86 146,-533.99"/>
<polygon fill="midnightblue" stroke="midnightblue" points="149.5,-533.75 146,-523.75 142.5,-533.75 149.5,-533.75"/>
</g>
<!-- Node19 -->
<g id="node19" class="node">
<title>Node19</title>
<g id="a_node19"><a xlink:href="_resource_manager_8hpp.html" target="_top" xlink:title=" ">
<polygon fill="white" stroke="black" points="581.5,-280.5 581.5,-299.5 734.5,-299.5 734.5,-280.5 581.5,-280.5"/>
<text text-anchor="middle" x="658" y="-287.5" font-family="Helvetica,sans-Serif" font-size="10.00">graphics/ResourceManager.hpp</text>
</a>
</g>
</g>
<!-- Node1&#45;&gt;Node19 -->
<g id="edge27" class="edge">
<title>Node1&#45;&gt;Node19</title>
<path fill="none" stroke="midnightblue" d="M207.68,-562.14C306.91,-549.38 491,-517.78 491,-459 491,-459 491,-459 491,-401 491,-345.3 556.6,-316.21 605.57,-302.25"/>
<polygon fill="midnightblue" stroke="midnightblue" points="606.69,-305.58 615.43,-299.58 604.86,-298.82 606.69,-305.58"/>
</g>
<!-- Node3 -->
<g id="node3" class="node">
<title>Node3</title>
<g id="a_node3"><a xlink:title=" ">
<polygon fill="white" stroke="#bfbfbf" points="93,-56.5 93,-75.5 159,-75.5 159,-56.5 93,-56.5"/>
<text text-anchor="middle" x="126" y="-63.5" font-family="Helvetica,sans-Serif" font-size="10.00">string_view</text>
</a>
</g>
</g>
<!-- Node2&#45;&gt;Node3 -->
<g id="edge2" class="edge">
<title>Node2&#45;&gt;Node3</title>
<path fill="none" stroke="midnightblue" d="M126,-112.08C126,-105.01 126,-94.86 126,-85.99"/>
<polygon fill="midnightblue" stroke="midnightblue" points="129.5,-85.75 126,-75.75 122.5,-85.75 129.5,-85.75"/>
</g>
<!-- Node4 -->
<g id="node4" class="node">
<title>Node4</title>
<g id="a_node4"><a xlink:href="_vector2_d_8hpp.html" target="_top" xlink:title=" ">
<polygon fill="white" stroke="black" points="319,-56.5 319,-75.5 431,-75.5 431,-56.5 319,-56.5"/>
<text text-anchor="middle" x="375" y="-63.5" font-family="Helvetica,sans-Serif" font-size="10.00">Helpers/Vector2D.hpp</text>
</a>
</g>
</g>
<!-- Node2&#45;&gt;Node4 -->
<g id="edge3" class="edge">
<title>Node2&#45;&gt;Node4</title>
<path fill="none" stroke="midnightblue" d="M165.45,-112.44C208.89,-103.02 278.79,-87.87 325.78,-77.68"/>
<polygon fill="midnightblue" stroke="midnightblue" points="326.7,-81.06 335.73,-75.52 325.22,-74.22 326.7,-81.06"/>
</g>
<!-- Node5 -->
<g id="node5" class="node">
<title>Node5</title>
<g id="a_node5"><a xlink:title=" ">
<polygon fill="white" stroke="#bfbfbf" points="428.5,-0.5 428.5,-19.5 467.5,-19.5 467.5,-0.5 428.5,-0.5"/>
<text text-anchor="middle" x="448" y="-7.5" font-family="Helvetica,sans-Serif" font-size="10.00">utility</text>
</a>
</g>
</g>
<!-- Node4&#45;&gt;Node5 -->
<g id="edge4" class="edge">
<title>Node4&#45;&gt;Node5</title>
<path fill="none" stroke="midnightblue" d="M386.73,-56.32C397.84,-48.11 414.74,-35.6 427.98,-25.81"/>
<polygon fill="midnightblue" stroke="midnightblue" points="430.1,-28.59 436.06,-19.83 425.94,-22.97 430.1,-28.59"/>
</g>
<!-- Node7 -->
<g id="node7" class="node">
<title>Node7</title>
<g id="a_node7"><a xlink:href="_player_8hpp.html" target="_top" xlink:title=" ">
<polygon fill="white" stroke="black" points="32,-392.5 32,-411.5 160,-411.5 160,-392.5 32,-392.5"/>
<text text-anchor="middle" x="96" y="-399.5" font-family="Helvetica,sans-Serif" font-size="10.00">engine/objects/Player.hpp</text>
</a>
</g>
</g>
<!-- Node6&#45;&gt;Node7 -->
<g id="edge6" class="edge">
<title>Node6&#45;&gt;Node7</title>
<path fill="none" stroke="midnightblue" d="M138.68,-504.22C131.74,-495.51 121.44,-481.54 115,-468 107.9,-453.07 102.87,-434.93 99.77,-421.61"/>
<polygon fill="midnightblue" stroke="midnightblue" points="103.17,-420.76 97.63,-411.73 96.33,-422.25 103.17,-420.76"/>
</g>
<!-- Node16 -->
<g id="node16" class="node">
<title>Node16</title>
<g id="a_node16"><a xlink:href="_unit_group_8hpp.html" target="_top" xlink:title=" ">
<polygon fill="white" stroke="black" points="124.5,-448.5 124.5,-467.5 269.5,-467.5 269.5,-448.5 124.5,-448.5"/>
<text text-anchor="middle" x="197" y="-455.5" font-family="Helvetica,sans-Serif" font-size="10.00">engine/objects/UnitGroup.hpp</text>
</a>
</g>
</g>
<!-- Node6&#45;&gt;Node16 -->
<g id="edge23" class="edge">
<title>Node6&#45;&gt;Node16</title>
<path fill="none" stroke="midnightblue" d="M154.42,-504.08C161.85,-496.22 172.85,-484.57 181.81,-475.08"/>
<polygon fill="midnightblue" stroke="midnightblue" points="184.41,-477.42 188.74,-467.75 179.32,-472.62 184.41,-477.42"/>
</g>
<!-- Node7&#45;&gt;Node2 -->
<g id="edge7" class="edge">
<title>Node7&#45;&gt;Node2</title>
<path fill="none" stroke="midnightblue" d="M87.69,-392.41C71.65,-374.89 38,-333.1 38,-291 38,-291 38,-291 38,-233 38,-191.03 77.54,-155.9 103.61,-137.3"/>
<polygon fill="midnightblue" stroke="midnightblue" points="105.6,-140.18 111.86,-131.64 101.64,-134.41 105.6,-140.18"/>
</g>
<!-- Node8 -->
<g id="node8" class="node">
<title>Node8</title>
<g id="a_node8"><a xlink:href="_world_actor_8hpp.html" target="_top" xlink:title=" ">
<polygon fill="white" stroke="black" points="197,-336.5 197,-355.5 311,-355.5 311,-336.5 197,-336.5"/>
<text text-anchor="middle" x="254" y="-343.5" font-family="Helvetica,sans-Serif" font-size="10.00">engine/WorldActor.hpp</text>
</a>
</g>
</g>
<!-- Node7&#45;&gt;Node8 -->
<g id="edge8" class="edge">
<title>Node7&#45;&gt;Node8</title>
<path fill="none" stroke="midnightblue" d="M121.04,-392.44C147.62,-383.36 189.81,-368.94 219.52,-358.78"/>
<polygon fill="midnightblue" stroke="midnightblue" points="220.75,-362.06 229.08,-355.52 218.49,-355.44 220.75,-362.06"/>
</g>
<!-- Node8&#45;&gt;Node4 -->
<g id="edge9" class="edge">
<title>Node8&#45;&gt;Node4</title>
<path fill="none" stroke="midnightblue" d="M311.01,-336.59C366.97,-324.74 444,-297.13 444,-235 444,-235 444,-235 444,-177 444,-138.39 413.12,-102.21 392.67,-82.49"/>
<polygon fill="midnightblue" stroke="midnightblue" points="394.89,-79.77 385.18,-75.54 390.13,-84.9 394.89,-79.77"/>
</g>
<!-- Node9 -->
<g id="node9" class="node">
<title>Node9</title>
<g id="a_node9"><a xlink:href="_field_8hpp.html" target="_top" xlink:title=" ">
<polygon fill="white" stroke="black" points="226,-280.5 226,-299.5 282,-299.5 282,-280.5 226,-280.5"/>
<text text-anchor="middle" x="254" y="-287.5" font-family="Helvetica,sans-Serif" font-size="10.00">Field.hpp</text>
</a>
</g>
</g>
<!-- Node8&#45;&gt;Node9 -->
<g id="edge10" class="edge">
<title>Node8&#45;&gt;Node9</title>
<path fill="none" stroke="midnightblue" d="M254,-336.08C254,-329.01 254,-318.86 254,-309.99"/>
<polygon fill="midnightblue" stroke="midnightblue" points="257.5,-309.75 254,-299.75 250.5,-309.75 257.5,-309.75"/>
</g>
<!-- Node9&#45;&gt;Node4 -->
<g id="edge22" class="edge">
<title>Node9&#45;&gt;Node4</title>
<path fill="none" stroke="midnightblue" d="M230.34,-280.34C166.8,-255.85 1.29,-183.25 63,-112 94.1,-76.1 226.46,-68.19 308.47,-66.83"/>
<polygon fill="midnightblue" stroke="midnightblue" points="308.75,-70.32 318.7,-66.68 308.66,-63.32 308.75,-70.32"/>
</g>
<!-- Node10 -->
<g id="node10" class="node">
<title>Node10</title>
<g id="a_node10"><a xlink:href="_cell_8hpp.html" target="_top" xlink:title=" ">
<polygon fill="white" stroke="black" points="200.5,-224.5 200.5,-243.5 317.5,-243.5 317.5,-224.5 200.5,-224.5"/>
<text text-anchor="middle" x="259" y="-231.5" font-family="Helvetica,sans-Serif" font-size="10.00">engine/objects/Cell.hpp</text>
</a>
</g>
</g>
<!-- Node9&#45;&gt;Node10 -->
<g id="edge11" class="edge">
<title>Node9&#45;&gt;Node10</title>
<path fill="none" stroke="midnightblue" d="M254.83,-280.08C255.48,-273.01 256.42,-262.86 257.24,-253.99"/>
<polygon fill="midnightblue" stroke="midnightblue" points="260.75,-254.03 258.19,-243.75 253.78,-253.39 260.75,-254.03"/>
</g>
<!-- Node10&#45;&gt;Node2 -->
<g id="edge12" class="edge">
<title>Node10&#45;&gt;Node2</title>
<path fill="none" stroke="midnightblue" d="M200.19,-225.86C175.7,-219.8 149.25,-208.61 133,-188 122.8,-175.06 121.92,-155.89 123.07,-141.72"/>
<polygon fill="midnightblue" stroke="midnightblue" points="126.56,-141.99 124.28,-131.64 119.61,-141.15 126.56,-141.99"/>
</g>
<!-- Node11 -->
<g id="node11" class="node">
<title>Node11</title>
<g id="a_node11"><a xlink:href="_tickable_8hpp.html" target="_top" xlink:title=" ">
<polygon fill="white" stroke="black" points="197.5,-112.5 197.5,-131.5 300.5,-131.5 300.5,-112.5 197.5,-112.5"/>
<text text-anchor="middle" x="249" y="-119.5" font-family="Helvetica,sans-Serif" font-size="10.00">engine/Tickable.hpp</text>
</a>
</g>
</g>
<!-- Node10&#45;&gt;Node11 -->
<g id="edge13" class="edge">
<title>Node10&#45;&gt;Node11</title>
<path fill="none" stroke="midnightblue" d="M272.75,-224.35C289.83,-212.44 315.52,-189.94 305,-168 298.75,-154.95 286.66,-144.49 275.32,-136.95"/>
<polygon fill="midnightblue" stroke="midnightblue" points="276.85,-133.79 266.5,-131.54 273.19,-139.75 276.85,-133.79"/>
</g>
<!-- Node12 -->
<g id="node12" class="node">
<title>Node12</title>
<g id="a_node12"><a xlink:title=" ">
<polygon fill="white" stroke="#bfbfbf" points="449,-56.5 449,-75.5 493,-75.5 493,-56.5 449,-56.5"/>
<text text-anchor="middle" x="471" y="-63.5" font-family="Helvetica,sans-Serif" font-size="10.00">vector</text>
</a>
</g>
</g>
<!-- Node10&#45;&gt;Node12 -->
<g id="edge14" class="edge">
<title>Node10&#45;&gt;Node12</title>
<path fill="none" stroke="midnightblue" d="M271.26,-224.18C283.65,-215.21 303.31,-200.84 320,-188 368.51,-150.7 424.44,-105.22 452.66,-82.08"/>
<polygon fill="midnightblue" stroke="midnightblue" points="454.99,-84.71 460.5,-75.66 450.55,-79.29 454.99,-84.71"/>
</g>
<!-- Node13 -->
<g id="node13" class="node">
<title>Node13</title>
<g id="a_node13"><a xlink:href="_ground_8hpp.html" target="_top" xlink:title=" ">
<polygon fill="white" stroke="black" points="142,-168.5 142,-187.5 208,-187.5 208,-168.5 142,-168.5"/>
<text text-anchor="middle" x="175" y="-175.5" font-family="Helvetica,sans-Serif" font-size="10.00">Ground.hpp</text>
</a>
</g>
</g>
<!-- Node10&#45;&gt;Node13 -->
<g id="edge15" class="edge">
<title>Node10&#45;&gt;Node13</title>
<path fill="none" stroke="midnightblue" d="M245.5,-224.32C232.4,-215.9 212.29,-202.97 196.89,-193.07"/>
<polygon fill="midnightblue" stroke="midnightblue" points="198.77,-190.12 188.46,-187.65 194.98,-196.01 198.77,-190.12"/>
</g>
<!-- Node14 -->
<g id="node14" class="node">
<title>Node14</title>
<g id="a_node14"><a xlink:href="_building_8hpp.html" target="_top" xlink:title=" ">
<polygon fill="white" stroke="black" points="226.5,-168.5 226.5,-187.5 295.5,-187.5 295.5,-168.5 226.5,-168.5"/>
<text text-anchor="middle" x="261" y="-175.5" font-family="Helvetica,sans-Serif" font-size="10.00">Building.hpp</text>
</a>
</g>
</g>
<!-- Node10&#45;&gt;Node14 -->
<g id="edge18" class="edge">
<title>Node10&#45;&gt;Node14</title>
<path fill="none" stroke="midnightblue" d="M259.33,-224.08C259.59,-217.01 259.97,-206.86 260.3,-197.99"/>
<polygon fill="midnightblue" stroke="midnightblue" points="263.8,-197.87 260.68,-187.75 256.81,-197.61 263.8,-197.87"/>
</g>
<!-- Node13&#45;&gt;Node2 -->
<g id="edge16" class="edge">
<title>Node13&#45;&gt;Node2</title>
<path fill="none" stroke="midnightblue" d="M166.91,-168.08C159.84,-160.3 149.41,-148.8 140.85,-139.37"/>
<polygon fill="midnightblue" stroke="midnightblue" points="143.25,-136.8 133.94,-131.75 138.07,-141.51 143.25,-136.8"/>
</g>
<!-- Node13&#45;&gt;Node11 -->
<g id="edge17" class="edge">
<title>Node13&#45;&gt;Node11</title>
<path fill="none" stroke="midnightblue" d="M186.89,-168.32C198.15,-160.11 215.29,-147.6 228.71,-137.81"/>
<polygon fill="midnightblue" stroke="midnightblue" points="230.88,-140.56 236.89,-131.83 226.75,-134.9 230.88,-140.56"/>
</g>
<!-- Node14&#45;&gt;Node2 -->
<g id="edge19" class="edge">
<title>Node14&#45;&gt;Node2</title>
<path fill="none" stroke="midnightblue" d="M239.61,-168.44C217.29,-159.52 182.1,-145.44 156.79,-135.32"/>
<polygon fill="midnightblue" stroke="midnightblue" points="157.88,-131.98 147.29,-131.52 155.28,-138.48 157.88,-131.98"/>
</g>
<!-- Node14&#45;&gt;Node11 -->
<g id="edge20" class="edge">
<title>Node14&#45;&gt;Node11</title>
<path fill="none" stroke="midnightblue" d="M259.02,-168.08C257.43,-160.93 255.14,-150.64 253.15,-141.69"/>
<polygon fill="midnightblue" stroke="midnightblue" points="256.53,-140.75 250.94,-131.75 249.7,-142.27 256.53,-140.75"/>
</g>
<!-- Node15 -->
<g id="node15" class="node">
<title>Node15</title>
<g id="a_node15"><a xlink:title=" ">
<polygon fill="white" stroke="#bfbfbf" points="318.5,-112.5 318.5,-131.5 377.5,-131.5 377.5,-112.5 318.5,-112.5"/>
<text text-anchor="middle" x="348" y="-119.5" font-family="Helvetica,sans-Serif" font-size="10.00">functional</text>
</a>
</g>
</g>
<!-- Node14&#45;&gt;Node15 -->
<g id="edge21" class="edge">
<title>Node14&#45;&gt;Node15</title>
<path fill="none" stroke="midnightblue" d="M274.98,-168.32C288.55,-159.9 309.38,-146.97 325.32,-137.07"/>
<polygon fill="midnightblue" stroke="midnightblue" points="327.41,-139.9 334.06,-131.65 323.71,-133.95 327.41,-139.9"/>
</g>
<!-- Node17 -->
<g id="node17" class="node">
<title>Node17</title>
<g id="a_node17"><a xlink:href="_unit_8hpp.html" target="_top" xlink:title=" ">
<polygon fill="white" stroke="black" points="227.5,-392.5 227.5,-411.5 280.5,-411.5 280.5,-392.5 227.5,-392.5"/>
<text text-anchor="middle" x="254" y="-399.5" font-family="Helvetica,sans-Serif" font-size="10.00">Unit.hpp</text>
</a>
</g>
</g>
<!-- Node16&#45;&gt;Node17 -->
<g id="edge24" class="edge">
<title>Node16&#45;&gt;Node17</title>
<path fill="none" stroke="midnightblue" d="M206.16,-448.32C214.5,-440.42 227.03,-428.55 237.18,-418.94"/>
<polygon fill="midnightblue" stroke="midnightblue" points="239.82,-421.25 244.68,-411.83 235.01,-416.17 239.82,-421.25"/>
</g>
<!-- Node18 -->
<g id="node18" class="node">
<title>Node18</title>
<g id="a_node18"><a xlink:title=" ">
<polygon fill="white" stroke="#bfbfbf" points="180.5,-392.5 180.5,-411.5 209.5,-411.5 209.5,-392.5 180.5,-392.5"/>
<text text-anchor="middle" x="195" y="-399.5" font-family="Helvetica,sans-Serif" font-size="10.00">list</text>
</a>
</g>
</g>
<!-- Node16&#45;&gt;Node18 -->
<g id="edge26" class="edge">
<title>Node16&#45;&gt;Node18</title>
<path fill="none" stroke="midnightblue" d="M196.67,-448.08C196.41,-441.01 196.03,-430.86 195.7,-421.99"/>
<polygon fill="midnightblue" stroke="midnightblue" points="199.19,-421.61 195.32,-411.75 192.2,-421.87 199.19,-421.61"/>
</g>
<!-- Node17&#45;&gt;Node8 -->
<g id="edge25" class="edge">
<title>Node17&#45;&gt;Node8</title>
<path fill="none" stroke="midnightblue" d="M254,-392.08C254,-385.01 254,-374.86 254,-365.99"/>
<polygon fill="midnightblue" stroke="midnightblue" points="257.5,-365.75 254,-355.75 250.5,-365.75 257.5,-365.75"/>
</g>
<!-- Node20 -->
<g id="node20" class="node">
<title>Node20</title>
<g id="a_node20"><a xlink:title=" ">
<polygon fill="white" stroke="#bfbfbf" points="594.5,-224.5 594.5,-243.5 629.5,-243.5 629.5,-224.5 594.5,-224.5"/>
<text text-anchor="middle" x="612" y="-231.5" font-family="Helvetica,sans-Serif" font-size="10.00">map</text>
</a>
</g>
</g>
<!-- Node19&#45;&gt;Node20 -->
<g id="edge28" class="edge">
<title>Node19&#45;&gt;Node20</title>
<path fill="none" stroke="midnightblue" d="M650.4,-280.08C643.77,-272.3 633.98,-260.8 625.94,-251.37"/>
<polygon fill="midnightblue" stroke="midnightblue" points="628.6,-249.09 619.45,-243.75 623.27,-253.63 628.6,-249.09"/>
</g>
<!-- Node21 -->
<g id="node21" class="node">
<title>Node21</title>
<g id="a_node21"><a xlink:title=" ">
<polygon fill="white" stroke="#bfbfbf" points="850.5,-168.5 850.5,-187.5 891.5,-187.5 891.5,-168.5 850.5,-168.5"/>
<text text-anchor="middle" x="871" y="-175.5" font-family="Helvetica,sans-Serif" font-size="10.00">string</text>
</a>
</g>
</g>
<!-- Node19&#45;&gt;Node21 -->
<g id="edge29" class="edge">
<title>Node19&#45;&gt;Node21</title>
<path fill="none" stroke="midnightblue" d="M701.99,-280.49C731.39,-273.55 770.17,-261.92 801,-244 823.05,-231.18 843.88,-210.3 856.98,-195.67"/>
<polygon fill="midnightblue" stroke="midnightblue" points="859.83,-197.73 863.76,-187.89 854.56,-193.13 859.83,-197.73"/>
</g>
<!-- Node22 -->
<g id="node22" class="node">
<title>Node22</title>
<g id="a_node22"><a xlink:title=" ">
<polygon fill="white" stroke="#bfbfbf" points="848.5,-224.5 848.5,-243.5 899.5,-243.5 899.5,-224.5 848.5,-224.5"/>
<text text-anchor="middle" x="874" y="-231.5" font-family="Helvetica,sans-Serif" font-size="10.00">memory</text>
</a>
</g>
</g>
<!-- Node19&#45;&gt;Node22 -->
<g id="edge30" class="edge">
<title>Node19&#45;&gt;Node22</title>
<path fill="none" stroke="midnightblue" d="M692.23,-280.44C732.25,-270.44 798.18,-253.96 838.67,-243.83"/>
<polygon fill="midnightblue" stroke="midnightblue" points="839.54,-247.22 848.39,-241.4 837.84,-240.43 839.54,-247.22"/>
</g>
<!-- Node23 -->
<g id="node23" class="node">
<title>Node23</title>
<g id="a_node23"><a xlink:href="_shader_8hpp.html" target="_top" xlink:title=" ">
<polygon fill="white" stroke="black" points="686.5,-224.5 686.5,-243.5 791.5,-243.5 791.5,-224.5 686.5,-224.5"/>
<text text-anchor="middle" x="739" y="-231.5" font-family="Helvetica,sans-Serif" font-size="10.00">graphics/Shader.hpp</text>
</a>
</g>
</g>
<!-- Node19&#45;&gt;Node23 -->
<g id="edge31" class="edge">
<title>Node19&#45;&gt;Node23</title>
<path fill="none" stroke="midnightblue" d="M671.01,-280.32C683.53,-271.98 702.68,-259.21 717.47,-249.35"/>
<polygon fill="midnightblue" stroke="midnightblue" points="719.64,-252.11 726.02,-243.65 715.76,-246.29 719.64,-252.11"/>
</g>
<!-- Node24 -->
<g id="node24" class="node">
<title>Node24</title>
<g id="a_node24"><a xlink:href="_g_shape_8hpp.html" target="_top" xlink:title=" ">
<polygon fill="white" stroke="black" points="684,-168.5 684,-187.5 794,-187.5 794,-168.5 684,-168.5"/>
<text text-anchor="middle" x="739" y="-175.5" font-family="Helvetica,sans-Serif" font-size="10.00">graphics/GShape.hpp</text>
</a>
</g>
</g>
<!-- Node19&#45;&gt;Node24 -->
<g id="edge45" class="edge">
<title>Node19&#45;&gt;Node24</title>
<path fill="none" stroke="midnightblue" d="M658.93,-280.24C660.7,-266.99 665.57,-241.53 678,-224 687.04,-211.25 700.82,-200.65 712.99,-192.95"/>
<polygon fill="midnightblue" stroke="midnightblue" points="715.1,-195.76 721.88,-187.63 711.5,-189.76 715.1,-195.76"/>
</g>
<!-- Node30 -->
<g id="node30" class="node">
<title>Node30</title>
<g id="a_node30"><a xlink:href="_event_handler_8hpp.html" target="_top" xlink:title=" ">
<polygon fill="white" stroke="black" points="472.5,-168.5 472.5,-187.5 627.5,-187.5 627.5,-168.5 472.5,-168.5"/>
<text text-anchor="middle" x="550" y="-175.5" font-family="Helvetica,sans-Serif" font-size="10.00">EventHandler/EventHandler.hpp</text>
</a>
</g>
</g>
<!-- Node19&#45;&gt;Node30 -->
<g id="edge46" class="edge">
<title>Node19&#45;&gt;Node30</title>
<path fill="none" stroke="midnightblue" d="M639.02,-280.49C623.32,-272.73 601.22,-260.04 586,-244 573.12,-230.43 563.28,-211.37 557.17,-197.4"/>
<polygon fill="midnightblue" stroke="midnightblue" points="560.29,-195.79 553.23,-187.88 553.82,-198.46 560.29,-195.79"/>
</g>
<!-- Node23&#45;&gt;Node21 -->
<g id="edge32" class="edge">
<title>Node23&#45;&gt;Node21</title>
<path fill="none" stroke="midnightblue" d="M759.92,-224.44C781.74,-215.52 816.15,-201.44 840.89,-191.32"/>
<polygon fill="midnightblue" stroke="midnightblue" points="842.25,-194.54 850.18,-187.52 839.6,-188.06 842.25,-194.54"/>
</g>
<!-- Node23&#45;&gt;Node24 -->
<g id="edge33" class="edge">
<title>Node23&#45;&gt;Node24</title>
<path fill="none" stroke="midnightblue" d="M733.83,-224.08C732.32,-216.93 731.89,-206.64 732.54,-197.69"/>
<polygon fill="midnightblue" stroke="midnightblue" points="736.02,-198.13 733.87,-187.75 729.08,-197.2 736.02,-198.13"/>
</g>
<!-- Node28 -->
<g id="node28" class="node">
<title>Node28</title>
<g id="a_node28"><a xlink:href="_transform_8hpp.html" target="_top" xlink:title=" ">
<polygon fill="white" stroke="black" points="727.5,-56.5 727.5,-75.5 846.5,-75.5 846.5,-56.5 727.5,-56.5"/>
<text text-anchor="middle" x="787" y="-63.5" font-family="Helvetica,sans-Serif" font-size="10.00">graphics/Transform.hpp</text>
</a>
</g>
</g>
<!-- Node23&#45;&gt;Node28 -->
<g id="edge44" class="edge">
<title>Node23&#45;&gt;Node28</title>
<path fill="none" stroke="midnightblue" d="M760.48,-224.36C775.39,-217.09 794.11,-205.12 803,-188 820.35,-154.6 805.92,-109.3 795.46,-84.69"/>
<polygon fill="midnightblue" stroke="midnightblue" points="798.62,-83.18 791.32,-75.5 792.24,-86.06 798.62,-83.18"/>
</g>
<!-- Node24&#45;&gt;Node23 -->
<g id="edge42" class="edge">
<title>Node24&#45;&gt;Node23</title>
<path fill="none" stroke="midnightblue" d="M744.13,-187.75C745.66,-194.86 746.1,-205.14 745.47,-214.1"/>
<polygon fill="midnightblue" stroke="midnightblue" points="741.99,-213.71 744.17,-224.08 748.93,-214.62 741.99,-213.71"/>
</g>
<!-- Node25 -->
<g id="node25" class="node">
<title>Node25</title>
<g id="a_node25"><a xlink:href="_window_8hpp.html" target="_top" xlink:title=" ">
<polygon fill="white" stroke="black" points="552.5,-112.5 552.5,-131.5 661.5,-131.5 661.5,-112.5 552.5,-112.5"/>
<text text-anchor="middle" x="607" y="-119.5" font-family="Helvetica,sans-Serif" font-size="10.00">graphics/Window.hpp</text>
</a>
</g>
</g>
<!-- Node24&#45;&gt;Node25 -->
<g id="edge34" class="edge">
<title>Node24&#45;&gt;Node25</title>
<path fill="none" stroke="midnightblue" d="M718.08,-168.44C696.26,-159.52 661.85,-145.44 637.11,-135.32"/>
<polygon fill="midnightblue" stroke="midnightblue" points="638.4,-132.06 627.82,-131.52 635.75,-138.54 638.4,-132.06"/>
</g>
<!-- Node24&#45;&gt;Node28 -->
<g id="edge43" class="edge">
<title>Node24&#45;&gt;Node28</title>
<path fill="none" stroke="midnightblue" d="M742.77,-168.37C750.58,-150.46 768.71,-108.92 779.17,-84.95"/>
<polygon fill="midnightblue" stroke="midnightblue" points="782.46,-86.16 783.25,-75.59 776.04,-83.36 782.46,-86.16"/>
</g>
<!-- Node25&#45;&gt;Node5 -->
<g id="edge37" class="edge">
<title>Node25&#45;&gt;Node5</title>
<path fill="none" stroke="midnightblue" d="M594.32,-112.42C581.01,-103.39 559.49,-88.76 541,-76 516.06,-58.79 487.52,-38.79 468.7,-25.57"/>
<polygon fill="midnightblue" stroke="midnightblue" points="470.5,-22.56 460.3,-19.67 466.47,-28.28 470.5,-22.56"/>
</g>
<!-- Node25&#45;&gt;Node12 -->
<g id="edge38" class="edge">
<title>Node25&#45;&gt;Node12</title>
<path fill="none" stroke="midnightblue" d="M585.45,-112.44C562.97,-103.52 527.51,-89.44 502.02,-79.32"/>
<polygon fill="midnightblue" stroke="midnightblue" points="503.03,-75.95 492.45,-75.52 500.45,-82.46 503.03,-75.95"/>
</g>
<!-- Node25&#45;&gt;Node23 -->
<g id="edge39" class="edge">
<title>Node25&#45;&gt;Node23</title>
<path fill="none" stroke="midnightblue" d="M615.42,-131.85C627.9,-144.78 652.29,-169.34 675,-188 688.43,-199.03 704.42,-210.28 717.06,-218.77"/>
<polygon fill="midnightblue" stroke="midnightblue" points="715.32,-221.81 725.58,-224.42 719.18,-215.98 715.32,-221.81"/>
</g>
<!-- Node26 -->
<g id="node26" class="node">
<title>Node26</title>
<g id="a_node26"><a xlink:title=" ">
<polygon fill="white" stroke="#bfbfbf" points="549.5,-56.5 549.5,-75.5 612.5,-75.5 612.5,-56.5 549.5,-56.5"/>
<text text-anchor="middle" x="581" y="-63.5" font-family="Helvetica,sans-Serif" font-size="10.00">glad/glad.h</text>
</a>
</g>
</g>
<!-- Node25&#45;&gt;Node26 -->
<g id="edge35" class="edge">
<title>Node25&#45;&gt;Node26</title>
<path fill="none" stroke="midnightblue" d="M602.71,-112.08C599.15,-104.69 593.98,-93.95 589.58,-84.81"/>
<polygon fill="midnightblue" stroke="midnightblue" points="592.71,-83.24 585.21,-75.75 586.4,-86.28 592.71,-83.24"/>
</g>
<!-- Node27 -->
<g id="node27" class="node">
<title>Node27</title>
<g id="a_node27"><a xlink:title=" ">
<polygon fill="white" stroke="#bfbfbf" points="630.5,-56.5 630.5,-75.5 709.5,-75.5 709.5,-56.5 630.5,-56.5"/>
<text text-anchor="middle" x="670" y="-63.5" font-family="Helvetica,sans-Serif" font-size="10.00">GLFW/glfw3.h</text>
</a>
</g>
</g>
<!-- Node25&#45;&gt;Node27 -->
<g id="edge36" class="edge">
<title>Node25&#45;&gt;Node27</title>
<path fill="none" stroke="midnightblue" d="M617.12,-112.32C626.53,-104.26 640.74,-92.08 652.07,-82.37"/>
<polygon fill="midnightblue" stroke="midnightblue" points="654.38,-85 659.69,-75.83 649.82,-79.68 654.38,-85"/>
</g>
<!-- Node25&#45;&gt;Node28 -->
<g id="edge40" class="edge">
<title>Node25&#45;&gt;Node28</title>
<path fill="none" stroke="midnightblue" d="M635.52,-112.44C666.07,-103.28 714.71,-88.69 748.6,-78.52"/>
<polygon fill="midnightblue" stroke="midnightblue" points="750.04,-81.74 758.61,-75.52 748.03,-75.04 750.04,-81.74"/>
</g>
<!-- Node29 -->
<g id="node29" class="node">
<title>Node29</title>
<g id="a_node29"><a xlink:title=" ">
<polygon fill="white" stroke="#bfbfbf" points="735,-0.5 735,-19.5 839,-19.5 839,-0.5 735,-0.5"/>
<text text-anchor="middle" x="787" y="-7.5" font-family="Helvetica,sans-Serif" font-size="10.00">glm/gtc/type_ptr.hpp</text>
</a>
</g>
</g>
<!-- Node28&#45;&gt;Node29 -->
<g id="edge41" class="edge">
<title>Node28&#45;&gt;Node29</title>
<path fill="none" stroke="midnightblue" d="M787,-56.08C787,-49.01 787,-38.86 787,-29.99"/>
<polygon fill="midnightblue" stroke="midnightblue" points="790.5,-29.75 787,-19.75 783.5,-29.75 790.5,-29.75"/>
</g>
<!-- Node30&#45;&gt;Node4 -->
<g id="edge49" class="edge">
<title>Node30&#45;&gt;Node4</title>
<path fill="none" stroke="midnightblue" d="M538.68,-168.34C521.61,-155.44 488.07,-130.68 458,-112 439.49,-100.5 417.83,-88.81 401.28,-80.23"/>
<polygon fill="midnightblue" stroke="midnightblue" points="402.68,-77.02 392.18,-75.56 399.48,-83.24 402.68,-77.02"/>
</g>
<!-- Node30&#45;&gt;Node15 -->
<g id="edge47" class="edge">
<title>Node30&#45;&gt;Node15</title>
<path fill="none" stroke="midnightblue" d="M517.99,-168.44C482.56,-158.97 425.42,-143.7 387.29,-133.5"/>
<polygon fill="midnightblue" stroke="midnightblue" points="388.12,-130.1 377.56,-130.9 386.31,-136.87 388.12,-130.1"/>
</g>
<!-- Node30&#45;&gt;Node25 -->
<g id="edge48" class="edge">
<title>Node30&#45;&gt;Node25</title>
<path fill="none" stroke="midnightblue" d="M559.16,-168.32C567.5,-160.42 580.03,-148.55 590.18,-138.94"/>
<polygon fill="midnightblue" stroke="midnightblue" points="592.82,-141.25 597.68,-131.83 588.01,-136.17 592.82,-141.25"/>
</g>
</g>
</svg>
