<?xml version="1.0" encoding="UTF-8" standalone="no"?>
<!DOCTYPE svg PUBLIC "-//W3C//DTD SVG 1.1//EN"
 "http://www.w3.org/Graphics/SVG/1.1/DTD/svg11.dtd">
<!-- Generated by graphviz version 2.47.1 (20210421.1823)
 -->
<!-- Title: include/Engine.hpp Pages: 1 -->
<svg width="553pt" height="95pt"
 viewBox="0.00 0.00 553.00 95.00" xmlns="http://www.w3.org/2000/svg" xmlns:xlink="http://www.w3.org/1999/xlink">
<g id="graph0" class="graph" transform="scale(1 1) rotate(0) translate(4 91)">
<title>include/Engine.hpp</title>
<polygon fill="white" stroke="transparent" points="-4,4 -4,-91 549,-91 549,4 -4,4"/>
<!-- Node1 -->
<g id="node1" class="node">
<title>Node1</title>
<g id="a_node1"><a xlink:title=" ">
<polygon fill="#bfbfbf" stroke="black" points="254.5,-67.5 254.5,-86.5 352.5,-86.5 352.5,-67.5 254.5,-67.5"/>
<text text-anchor="middle" x="303.5" y="-74.5" font-family="Helvetica,sans-Serif" font-size="10.00">include/Engine.hpp</text>
</a>
</g>
</g>
<!-- Node2 -->
<g id="node2" class="node">
<title>Node2</title>
<g id="a_node2"><a xlink:href="_drawable_8cpp.html" target="_top" xlink:title=" ">
<polygon fill="white" stroke="black" points="0,-6 0,-25 123,-25 123,-6 0,-6"/>
<text text-anchor="middle" x="61.5" y="-13" font-family="Helvetica,sans-Serif" font-size="10.00">src/engine/Drawable.cpp</text>
</a>
</g>
</g>
<!-- Node1&#45;&gt;Node2 -->
<g id="edge1" class="edge">
<title>Node1&#45;&gt;Node2</title>
<path fill="none" stroke="midnightblue" d="M258.93,-65.04C211.95,-53.49 138.94,-35.54 96.11,-25.01"/>
<polygon fill="midnightblue" stroke="midnightblue" points="258.28,-68.49 268.83,-67.48 259.95,-61.69 258.28,-68.49"/>
</g>
<!-- Node3 -->
<g id="node3" class="node">
<title>Node3</title>
<g id="a_node3"><a xlink:href="_unit_8cpp.html" target="_top" xlink:title=" ">
<polygon fill="white" stroke="black" points="141.5,-0.5 141.5,-30.5 237.5,-30.5 237.5,-0.5 141.5,-0.5"/>
<text text-anchor="start" x="149.5" y="-18.5" font-family="Helvetica,sans-Serif" font-size="10.00">src/engine/objects</text>
<text text-anchor="middle" x="189.5" y="-7.5" font-family="Helvetica,sans-Serif" font-size="10.00">/Unit.cpp</text>
</a>
</g>
</g>
<!-- Node1&#45;&gt;Node3 -->
<g id="edge2" class="edge">
<title>Node1&#45;&gt;Node3</title>
<path fill="none" stroke="midnightblue" d="M278.22,-62.81C259.87,-53.23 235.08,-40.29 216.37,-30.52"/>
<polygon fill="midnightblue" stroke="midnightblue" points="276.68,-65.95 287.17,-67.48 279.92,-59.75 276.68,-65.95"/>
</g>
<!-- Node4 -->
<g id="node4" class="node">
<title>Node4</title>
<g id="a_node4"><a xlink:href="_unit_group_8cpp.html" target="_top" xlink:title=" ">
<polygon fill="white" stroke="black" points="255.5,-0.5 255.5,-30.5 351.5,-30.5 351.5,-0.5 255.5,-0.5"/>
<text text-anchor="start" x="263.5" y="-18.5" font-family="Helvetica,sans-Serif" font-size="10.00">src/engine/objects</text>
<text text-anchor="middle" x="303.5" y="-7.5" font-family="Helvetica,sans-Serif" font-size="10.00">/UnitGroup.cpp</text>
</a>
</g>
</g>
<!-- Node1&#45;&gt;Node4 -->
<g id="edge3" class="edge">
<title>Node1&#45;&gt;Node4</title>
<path fill="none" stroke="midnightblue" d="M303.5,-57.23C303.5,-48.59 303.5,-38.5 303.5,-30.52"/>
<polygon fill="midnightblue" stroke="midnightblue" points="300,-57.48 303.5,-67.48 307,-57.48 300,-57.48"/>
</g>
<!-- Node5 -->
<g id="node5" class="node">
<title>Node5</title>
<g id="a_node5"><a xlink:href="_engine_8cpp.html" target="_top" xlink:title=" ">
<polygon fill="white" stroke="black" points="369.5,-6 369.5,-25 449.5,-25 449.5,-6 369.5,-6"/>
<text text-anchor="middle" x="409.5" y="-13" font-family="Helvetica,sans-Serif" font-size="10.00">src/Engine.cpp</text>
</a>
</g>
</g>
<!-- Node1&#45;&gt;Node5 -->
<g id="edge4" class="edge">
<title>Node1&#45;&gt;Node5</title>
<path fill="none" stroke="midnightblue" d="M327.45,-62.56C347.96,-51.04 376.88,-34.81 394.34,-25.01"/>
<polygon fill="midnightblue" stroke="midnightblue" points="325.69,-59.53 318.69,-67.48 329.12,-65.63 325.69,-59.53"/>
</g>
<!-- Node6 -->
<g id="node6" class="node">
<title>Node6</title>
<g id="a_node6"><a xlink:href="_game_8cpp.html" target="_top" xlink:title=" ">
<polygon fill="white" stroke="black" points="468,-6 468,-25 545,-25 545,-6 468,-6"/>
<text text-anchor="middle" x="506.5" y="-13" font-family="Helvetica,sans-Serif" font-size="10.00">src/Game.cpp</text>
</a>
</g>
</g>
<!-- Node1&#45;&gt;Node6 -->
<g id="edge5" class="edge">
<title>Node1&#45;&gt;Node6</title>
<path fill="none" stroke="midnightblue" d="M342.92,-64.68C374.26,-55.65 419.23,-42.63 458.5,-31 464.93,-29.1 471.83,-27.03 478.34,-25.06"/>
<polygon fill="midnightblue" stroke="midnightblue" points="341.88,-61.34 333.24,-67.47 343.82,-68.07 341.88,-61.34"/>
</g>
</g>
</svg>
