<?xml version="1.0" encoding="UTF-8" standalone="no"?>
<!DOCTYPE svg PUBLIC "-//W3C//DTD SVG 1.1//EN"
 "http://www.w3.org/Graphics/SVG/1.1/DTD/svg11.dtd">
<!-- Generated by graphviz version 2.47.0 (20210407.0042)
 -->
<!-- Title: src/Engine.cpp Pages: 1 -->
<svg width="769pt" height="588pt"
 viewBox="0.00 0.00 768.95 588.00" xmlns="http://www.w3.org/2000/svg" xmlns:xlink="http://www.w3.org/1999/xlink">
<g id="graph0" class="graph" transform="scale(1 1) rotate(0) translate(4 584)">
<title>src/Engine.cpp</title>
<polygon fill="white" stroke="transparent" points="-4,4 -4,-584 764.95,-584 764.95,4 -4,4"/>
<!-- Node1 -->
<g id="node1" class="node">
<title>Node1</title>
<g id="a_node1"><a xlink:title=" ">
<polygon fill="#bfbfbf" stroke="black" points="402,-560.5 402,-579.5 482,-579.5 482,-560.5 402,-560.5"/>
<text text-anchor="middle" x="442" y="-567.5" font-family="Helvetica,sans-Serif" font-size="10.00">src/Engine.cpp</text>
</a>
</g>
</g>
<!-- Node2 -->
<g id="node2" class="node">
<title>Node2</title>
<g id="a_node2"><a xlink:href="_engine_8hpp.html" target="_top" xlink:title=" ">
<polygon fill="white" stroke="black" points="313,-504.5 313,-523.5 377,-523.5 377,-504.5 313,-504.5"/>
<text text-anchor="middle" x="345" y="-511.5" font-family="Helvetica,sans-Serif" font-size="10.00">Engine.hpp</text>
</a>
</g>
</g>
<!-- Node1&#45;&gt;Node2 -->
<g id="edge1" class="edge">
<title>Node1&#45;&gt;Node2</title>
<path fill="none" stroke="midnightblue" d="M426.42,-560.32C411,-551.74 387.19,-538.49 369.29,-528.52"/>
<polygon fill="midnightblue" stroke="midnightblue" points="370.99,-525.46 360.55,-523.65 367.58,-531.58 370.99,-525.46"/>
</g>
<!-- Node19 -->
<g id="node19" class="node">
<title>Node19</title>
<g id="a_node19"><a xlink:title=" ">
<polygon fill="white" stroke="#bfbfbf" points="415,-504.5 415,-523.5 469,-523.5 469,-504.5 415,-504.5"/>
<text text-anchor="middle" x="442" y="-511.5" font-family="Helvetica,sans-Serif" font-size="10.00">iostream</text>
</a>
</g>
</g>
<!-- Node1&#45;&gt;Node19 -->
<g id="edge26" class="edge">
<title>Node1&#45;&gt;Node19</title>
<path fill="none" stroke="midnightblue" d="M442,-560.08C442,-553.01 442,-542.86 442,-533.99"/>
<polygon fill="midnightblue" stroke="midnightblue" points="445.5,-533.75 442,-523.75 438.5,-533.75 445.5,-533.75"/>
</g>
<!-- Node20 -->
<g id="node20" class="node">
<title>Node20</title>
<g id="a_node20"><a xlink:href="_resource_manager_8hpp.html" target="_top" xlink:title=" ">
<polygon fill="white" stroke="black" points="431.5,-280.5 431.5,-299.5 584.5,-299.5 584.5,-280.5 431.5,-280.5"/>
<text text-anchor="middle" x="508" y="-287.5" font-family="Helvetica,sans-Serif" font-size="10.00">graphics/ResourceManager.hpp</text>
</a>
</g>
</g>
<!-- Node1&#45;&gt;Node20 -->
<g id="edge27" class="edge">
<title>Node1&#45;&gt;Node20</title>
<path fill="none" stroke="midnightblue" d="M451.59,-560.34C469.67,-543.02 507,-502.03 507,-459 507,-459 507,-459 507,-401 507,-368.95 507.43,-331.64 507.73,-309.75"/>
<polygon fill="midnightblue" stroke="midnightblue" points="511.23,-309.61 507.87,-299.56 504.23,-309.51 511.23,-309.61"/>
</g>
<!-- Node3 -->
<g id="node3" class="node">
<title>Node3</title>
<g id="a_node3"><a xlink:href="_player_8hpp.html" target="_top" xlink:title=" ">
<polygon fill="white" stroke="black" points="281,-392.5 281,-411.5 409,-411.5 409,-392.5 281,-392.5"/>
<text text-anchor="middle" x="345" y="-399.5" font-family="Helvetica,sans-Serif" font-size="10.00">engine/objects/Player.hpp</text>
</a>
</g>
</g>
<!-- Node2&#45;&gt;Node3 -->
<g id="edge2" class="edge">
<title>Node2&#45;&gt;Node3</title>
<path fill="none" stroke="midnightblue" d="M345,-504.37C345,-486.62 345,-445.67 345,-421.6"/>
<polygon fill="midnightblue" stroke="midnightblue" points="348.5,-421.59 345,-411.59 341.5,-421.59 348.5,-421.59"/>
</g>
<!-- Node16 -->
<g id="node16" class="node">
<title>Node16</title>
<g id="a_node16"><a xlink:href="_unit_group_8hpp.html" target="_top" xlink:title=" ">
<polygon fill="white" stroke="black" points="170.5,-448.5 170.5,-467.5 315.5,-467.5 315.5,-448.5 170.5,-448.5"/>
<text text-anchor="middle" x="243" y="-455.5" font-family="Helvetica,sans-Serif" font-size="10.00">engine/objects/UnitGroup.hpp</text>
</a>
</g>
</g>
<!-- Node2&#45;&gt;Node16 -->
<g id="edge22" class="edge">
<title>Node2&#45;&gt;Node16</title>
<path fill="none" stroke="midnightblue" d="M328.61,-504.32C312.33,-495.7 287.13,-482.36 268.28,-472.39"/>
<polygon fill="midnightblue" stroke="midnightblue" points="269.82,-469.24 259.35,-467.65 266.55,-475.43 269.82,-469.24"/>
</g>
<!-- Node4 -->
<g id="node4" class="node">
<title>Node4</title>
<g id="a_node4"><a xlink:href="_drawable_8hpp.html" target="_top" xlink:title=" ">
<polygon fill="white" stroke="black" points="246.5,-112.5 246.5,-131.5 353.5,-131.5 353.5,-112.5 246.5,-112.5"/>
<text text-anchor="middle" x="300" y="-119.5" font-family="Helvetica,sans-Serif" font-size="10.00">engine/Drawable.hpp</text>
</a>
</g>
</g>
<!-- Node3&#45;&gt;Node4 -->
<g id="edge3" class="edge">
<title>Node3&#45;&gt;Node4</title>
<path fill="none" stroke="midnightblue" d="M347.29,-392.23C351.93,-373.69 362,-329.07 362,-291 362,-291 362,-291 362,-233 362,-195.62 334.5,-159.24 316.13,-139.1"/>
<polygon fill="midnightblue" stroke="midnightblue" points="318.57,-136.59 309.15,-131.75 313.49,-141.41 318.57,-136.59"/>
</g>
<!-- Node8 -->
<g id="node8" class="node">
<title>Node8</title>
<g id="a_node8"><a xlink:href="_world_actor_8hpp.html" target="_top" xlink:title=" ">
<polygon fill="white" stroke="black" points="121,-336.5 121,-355.5 235,-355.5 235,-336.5 121,-336.5"/>
<text text-anchor="middle" x="178" y="-343.5" font-family="Helvetica,sans-Serif" font-size="10.00">engine/WorldActor.hpp</text>
</a>
</g>
</g>
<!-- Node3&#45;&gt;Node8 -->
<g id="edge7" class="edge">
<title>Node3&#45;&gt;Node8</title>
<path fill="none" stroke="midnightblue" d="M318.54,-392.44C290.32,-383.32 245.46,-368.81 214.03,-358.65"/>
<polygon fill="midnightblue" stroke="midnightblue" points="214.93,-355.26 204.34,-355.52 212.78,-361.92 214.93,-355.26"/>
</g>
<!-- Node5 -->
<g id="node5" class="node">
<title>Node5</title>
<g id="a_node5"><a xlink:title=" ">
<polygon fill="white" stroke="#bfbfbf" points="283,-56.5 283,-75.5 349,-75.5 349,-56.5 283,-56.5"/>
<text text-anchor="middle" x="316" y="-63.5" font-family="Helvetica,sans-Serif" font-size="10.00">string_view</text>
</a>
</g>
</g>
<!-- Node4&#45;&gt;Node5 -->
<g id="edge4" class="edge">
<title>Node4&#45;&gt;Node5</title>
<path fill="none" stroke="midnightblue" d="M302.64,-112.08C304.79,-104.85 307.88,-94.41 310.55,-85.4"/>
<polygon fill="midnightblue" stroke="midnightblue" points="313.92,-86.33 313.41,-75.75 307.21,-84.34 313.92,-86.33"/>
</g>
<!-- Node6 -->
<g id="node6" class="node">
<title>Node6</title>
<g id="a_node6"><a xlink:href="_vector2_d_8hpp.html" target="_top" xlink:title=" ">
<polygon fill="white" stroke="black" points="91,-56.5 91,-75.5 203,-75.5 203,-56.5 91,-56.5"/>
<text text-anchor="middle" x="147" y="-63.5" font-family="Helvetica,sans-Serif" font-size="10.00">Helpers/Vector2D.hpp</text>
</a>
</g>
</g>
<!-- Node4&#45;&gt;Node6 -->
<g id="edge5" class="edge">
<title>Node4&#45;&gt;Node6</title>
<path fill="none" stroke="midnightblue" d="M275.76,-112.44C250.13,-103.4 209.51,-89.06 180.76,-78.92"/>
<polygon fill="midnightblue" stroke="midnightblue" points="181.72,-75.54 171.13,-75.52 179.39,-82.15 181.72,-75.54"/>
</g>
<!-- Node7 -->
<g id="node7" class="node">
<title>Node7</title>
<g id="a_node7"><a xlink:title=" ">
<polygon fill="white" stroke="#bfbfbf" points="365.5,-0.5 365.5,-19.5 404.5,-19.5 404.5,-0.5 365.5,-0.5"/>
<text text-anchor="middle" x="385" y="-7.5" font-family="Helvetica,sans-Serif" font-size="10.00">utility</text>
</a>
</g>
</g>
<!-- Node6&#45;&gt;Node7 -->
<g id="edge6" class="edge">
<title>Node6&#45;&gt;Node7</title>
<path fill="none" stroke="midnightblue" d="M184.71,-56.44C232.06,-45.7 312.29,-27.5 355.44,-17.71"/>
<polygon fill="midnightblue" stroke="midnightblue" points="356.34,-21.09 365.32,-15.47 354.79,-14.27 356.34,-21.09"/>
</g>
<!-- Node8&#45;&gt;Node6 -->
<g id="edge8" class="edge">
<title>Node8&#45;&gt;Node6</title>
<path fill="none" stroke="midnightblue" d="M128.89,-336.47C76.2,-324.16 0,-295.85 0,-235 0,-235 0,-235 0,-177 0,-124.25 61.43,-93.73 104.86,-78.75"/>
<polygon fill="midnightblue" stroke="midnightblue" points="105.97,-82.07 114.38,-75.61 103.78,-75.42 105.97,-82.07"/>
</g>
<!-- Node9 -->
<g id="node9" class="node">
<title>Node9</title>
<g id="a_node9"><a xlink:href="_field_8hpp.html" target="_top" xlink:title=" ">
<polygon fill="white" stroke="black" points="147,-280.5 147,-299.5 203,-299.5 203,-280.5 147,-280.5"/>
<text text-anchor="middle" x="175" y="-287.5" font-family="Helvetica,sans-Serif" font-size="10.00">Field.hpp</text>
</a>
</g>
</g>
<!-- Node8&#45;&gt;Node9 -->
<g id="edge9" class="edge">
<title>Node8&#45;&gt;Node9</title>
<path fill="none" stroke="midnightblue" d="M177.5,-336.08C177.11,-329.01 176.55,-318.86 176.05,-309.99"/>
<polygon fill="midnightblue" stroke="midnightblue" points="179.54,-309.54 175.49,-299.75 172.55,-309.93 179.54,-309.54"/>
</g>
<!-- Node9&#45;&gt;Node6 -->
<g id="edge21" class="edge">
<title>Node9&#45;&gt;Node6</title>
<path fill="none" stroke="midnightblue" d="M152.12,-280.43C136.47,-273.25 116.84,-261.37 107,-244 78.06,-192.92 79.53,-166.24 102,-112 106.92,-100.12 116.67,-89.74 125.83,-81.96"/>
<polygon fill="midnightblue" stroke="midnightblue" points="128.25,-84.51 133.94,-75.56 123.92,-79.01 128.25,-84.51"/>
</g>
<!-- Node10 -->
<g id="node10" class="node">
<title>Node10</title>
<g id="a_node10"><a xlink:href="_cell_8hpp.html" target="_top" xlink:title=" ">
<polygon fill="white" stroke="black" points="116.5,-224.5 116.5,-243.5 233.5,-243.5 233.5,-224.5 116.5,-224.5"/>
<text text-anchor="middle" x="175" y="-231.5" font-family="Helvetica,sans-Serif" font-size="10.00">engine/objects/Cell.hpp</text>
</a>
</g>
</g>
<!-- Node9&#45;&gt;Node10 -->
<g id="edge10" class="edge">
<title>Node9&#45;&gt;Node10</title>
<path fill="none" stroke="midnightblue" d="M175,-280.08C175,-273.01 175,-262.86 175,-253.99"/>
<polygon fill="midnightblue" stroke="midnightblue" points="178.5,-253.75 175,-243.75 171.5,-253.75 178.5,-253.75"/>
</g>
<!-- Node10&#45;&gt;Node4 -->
<g id="edge11" class="edge">
<title>Node10&#45;&gt;Node4</title>
<path fill="none" stroke="midnightblue" d="M233.69,-227.81C260,-222.21 288.72,-210.86 305,-188 314.63,-174.48 311.58,-155.13 307.23,-141.05"/>
<polygon fill="midnightblue" stroke="midnightblue" points="310.48,-139.75 303.83,-131.51 303.89,-142.1 310.48,-139.75"/>
</g>
<!-- Node11 -->
<g id="node11" class="node">
<title>Node11</title>
<g id="a_node11"><a xlink:href="_tickable_8hpp.html" target="_top" xlink:title=" ">
<polygon fill="white" stroke="black" points="123.5,-112.5 123.5,-131.5 226.5,-131.5 226.5,-112.5 123.5,-112.5"/>
<text text-anchor="middle" x="175" y="-119.5" font-family="Helvetica,sans-Serif" font-size="10.00">engine/Tickable.hpp</text>
</a>
</g>
</g>
<!-- Node10&#45;&gt;Node11 -->
<g id="edge12" class="edge">
<title>Node10&#45;&gt;Node11</title>
<path fill="none" stroke="midnightblue" d="M162.72,-224.37C147.43,-212.47 124.33,-190 133,-168 137.51,-156.55 146.47,-146.29 154.95,-138.47"/>
<polygon fill="midnightblue" stroke="midnightblue" points="157.47,-140.93 162.79,-131.76 152.91,-135.61 157.47,-140.93"/>
</g>
<!-- Node12 -->
<g id="node12" class="node">
<title>Node12</title>
<g id="a_node12"><a xlink:title=" ">
<polygon fill="white" stroke="#bfbfbf" points="221,-56.5 221,-75.5 265,-75.5 265,-56.5 221,-56.5"/>
<text text-anchor="middle" x="243" y="-63.5" font-family="Helvetica,sans-Serif" font-size="10.00">vector</text>
</a>
</g>
</g>
<!-- Node10&#45;&gt;Node12 -->
<g id="edge13" class="edge">
<title>Node10&#45;&gt;Node12</title>
<path fill="none" stroke="midnightblue" d="M162.72,-224.43C151.97,-216.27 136.74,-203.04 128,-188 110.75,-158.3 94.11,-140 114,-112 116.94,-107.86 173.76,-89.09 211,-77.14"/>
<polygon fill="midnightblue" stroke="midnightblue" points="212.47,-80.35 220.93,-73.97 210.33,-73.68 212.47,-80.35"/>
</g>
<!-- Node13 -->
<g id="node13" class="node">
<title>Node13</title>
<g id="a_node13"><a xlink:href="_ground_8hpp.html" target="_top" xlink:title=" ">
<polygon fill="white" stroke="black" points="142,-168.5 142,-187.5 208,-187.5 208,-168.5 142,-168.5"/>
<text text-anchor="middle" x="175" y="-175.5" font-family="Helvetica,sans-Serif" font-size="10.00">Ground.hpp</text>
</a>
</g>
</g>
<!-- Node10&#45;&gt;Node13 -->
<g id="edge14" class="edge">
<title>Node10&#45;&gt;Node13</title>
<path fill="none" stroke="midnightblue" d="M175,-224.08C175,-217.01 175,-206.86 175,-197.99"/>
<polygon fill="midnightblue" stroke="midnightblue" points="178.5,-197.75 175,-187.75 171.5,-197.75 178.5,-197.75"/>
</g>
<!-- Node14 -->
<g id="node14" class="node">
<title>Node14</title>
<g id="a_node14"><a xlink:href="_building_8hpp.html" target="_top" xlink:title=" ">
<polygon fill="white" stroke="black" points="226.5,-168.5 226.5,-187.5 295.5,-187.5 295.5,-168.5 226.5,-168.5"/>
<text text-anchor="middle" x="261" y="-175.5" font-family="Helvetica,sans-Serif" font-size="10.00">Building.hpp</text>
</a>
</g>
</g>
<!-- Node10&#45;&gt;Node14 -->
<g id="edge17" class="edge">
<title>Node10&#45;&gt;Node14</title>
<path fill="none" stroke="midnightblue" d="M188.82,-224.32C202.23,-215.9 222.82,-202.97 238.59,-193.07"/>
<polygon fill="midnightblue" stroke="midnightblue" points="240.61,-195.94 247.22,-187.65 236.89,-190.01 240.61,-195.94"/>
</g>
<!-- Node13&#45;&gt;Node4 -->
<g id="edge15" class="edge">
<title>Node13&#45;&gt;Node4</title>
<path fill="none" stroke="midnightblue" d="M194.81,-168.44C215.29,-159.6 247.48,-145.69 270.86,-135.59"/>
<polygon fill="midnightblue" stroke="midnightblue" points="272.49,-138.7 280.29,-131.52 269.72,-132.27 272.49,-138.7"/>
</g>
<!-- Node13&#45;&gt;Node11 -->
<g id="edge16" class="edge">
<title>Node13&#45;&gt;Node11</title>
<path fill="none" stroke="midnightblue" d="M175,-168.08C175,-161.01 175,-150.86 175,-141.99"/>
<polygon fill="midnightblue" stroke="midnightblue" points="178.5,-141.75 175,-131.75 171.5,-141.75 178.5,-141.75"/>
</g>
<!-- Node14&#45;&gt;Node4 -->
<g id="edge18" class="edge">
<title>Node14&#45;&gt;Node4</title>
<path fill="none" stroke="midnightblue" d="M267.44,-168.08C272.95,-160.46 281.03,-149.26 287.76,-139.94"/>
<polygon fill="midnightblue" stroke="midnightblue" points="290.66,-141.91 293.68,-131.75 284.99,-137.81 290.66,-141.91"/>
</g>
<!-- Node14&#45;&gt;Node11 -->
<g id="edge19" class="edge">
<title>Node14&#45;&gt;Node11</title>
<path fill="none" stroke="midnightblue" d="M247.18,-168.32C233.77,-159.9 213.18,-146.97 197.41,-137.07"/>
<polygon fill="midnightblue" stroke="midnightblue" points="199.11,-134.01 188.78,-131.65 195.39,-139.94 199.11,-134.01"/>
</g>
<!-- Node15 -->
<g id="node15" class="node">
<title>Node15</title>
<g id="a_node15"><a xlink:title=" ">
<polygon fill="white" stroke="#bfbfbf" points="374.5,-112.5 374.5,-131.5 433.5,-131.5 433.5,-112.5 374.5,-112.5"/>
<text text-anchor="middle" x="404" y="-119.5" font-family="Helvetica,sans-Serif" font-size="10.00">functional</text>
</a>
</g>
</g>
<!-- Node14&#45;&gt;Node15 -->
<g id="edge20" class="edge">
<title>Node14&#45;&gt;Node15</title>
<path fill="none" stroke="midnightblue" d="M283.66,-168.44C307.4,-159.48 344.91,-145.31 371.74,-135.18"/>
<polygon fill="midnightblue" stroke="midnightblue" points="373.33,-138.32 381.45,-131.52 370.86,-131.77 373.33,-138.32"/>
</g>
<!-- Node17 -->
<g id="node17" class="node">
<title>Node17</title>
<g id="a_node17"><a xlink:href="_unit_8hpp.html" target="_top" xlink:title=" ">
<polygon fill="white" stroke="black" points="156.5,-392.5 156.5,-411.5 209.5,-411.5 209.5,-392.5 156.5,-392.5"/>
<text text-anchor="middle" x="183" y="-399.5" font-family="Helvetica,sans-Serif" font-size="10.00">Unit.hpp</text>
</a>
</g>
</g>
<!-- Node16&#45;&gt;Node17 -->
<g id="edge23" class="edge">
<title>Node16&#45;&gt;Node17</title>
<path fill="none" stroke="midnightblue" d="M233.36,-448.32C224.49,-440.34 211.13,-428.31 200.39,-418.65"/>
<polygon fill="midnightblue" stroke="midnightblue" points="202.59,-415.92 192.82,-411.83 197.91,-421.13 202.59,-415.92"/>
</g>
<!-- Node18 -->
<g id="node18" class="node">
<title>Node18</title>
<g id="a_node18"><a xlink:title=" ">
<polygon fill="white" stroke="#bfbfbf" points="228.5,-392.5 228.5,-411.5 257.5,-411.5 257.5,-392.5 228.5,-392.5"/>
<text text-anchor="middle" x="243" y="-399.5" font-family="Helvetica,sans-Serif" font-size="10.00">list</text>
</a>
</g>
</g>
<!-- Node16&#45;&gt;Node18 -->
<g id="edge25" class="edge">
<title>Node16&#45;&gt;Node18</title>
<path fill="none" stroke="midnightblue" d="M243,-448.08C243,-441.01 243,-430.86 243,-421.99"/>
<polygon fill="midnightblue" stroke="midnightblue" points="246.5,-421.75 243,-411.75 239.5,-421.75 246.5,-421.75"/>
</g>
<!-- Node17&#45;&gt;Node8 -->
<g id="edge24" class="edge">
<title>Node17&#45;&gt;Node8</title>
<path fill="none" stroke="midnightblue" d="M182.17,-392.08C181.52,-385.01 180.58,-374.86 179.76,-365.99"/>
<polygon fill="midnightblue" stroke="midnightblue" points="183.22,-365.39 178.81,-355.75 176.25,-366.03 183.22,-365.39"/>
</g>
<!-- Node21 -->
<g id="node21" class="node">
<title>Node21</title>
<g id="a_node21"><a xlink:title=" ">
<polygon fill="white" stroke="#bfbfbf" points="574.5,-224.5 574.5,-243.5 609.5,-243.5 609.5,-224.5 574.5,-224.5"/>
<text text-anchor="middle" x="592" y="-231.5" font-family="Helvetica,sans-Serif" font-size="10.00">map</text>
</a>
</g>
</g>
<!-- Node20&#45;&gt;Node21 -->
<g id="edge28" class="edge">
<title>Node20&#45;&gt;Node21</title>
<path fill="none" stroke="midnightblue" d="M521.5,-280.32C534.6,-271.9 554.71,-258.97 570.11,-249.07"/>
<polygon fill="midnightblue" stroke="midnightblue" points="572.02,-252.01 578.54,-243.65 568.23,-246.12 572.02,-252.01"/>
</g>
<!-- Node22 -->
<g id="node22" class="node">
<title>Node22</title>
<g id="a_node22"><a xlink:title=" ">
<polygon fill="white" stroke="#bfbfbf" points="563.5,-168.5 563.5,-187.5 604.5,-187.5 604.5,-168.5 563.5,-168.5"/>
<text text-anchor="middle" x="584" y="-175.5" font-family="Helvetica,sans-Serif" font-size="10.00">string</text>
</a>
</g>
</g>
<!-- Node20&#45;&gt;Node22 -->
<g id="edge29" class="edge">
<title>Node20&#45;&gt;Node22</title>
<path fill="none" stroke="midnightblue" d="M509.73,-280.36C512.66,-267.26 519.54,-242 532,-224 540.18,-212.19 552.15,-201.54 562.55,-193.57"/>
<polygon fill="midnightblue" stroke="midnightblue" points="564.79,-196.27 570.8,-187.54 560.66,-190.62 564.79,-196.27"/>
</g>
<!-- Node23 -->
<g id="node23" class="node">
<title>Node23</title>
<g id="a_node23"><a xlink:title=" ">
<polygon fill="white" stroke="#bfbfbf" points="390.5,-224.5 390.5,-243.5 441.5,-243.5 441.5,-224.5 390.5,-224.5"/>
<text text-anchor="middle" x="416" y="-231.5" font-family="Helvetica,sans-Serif" font-size="10.00">memory</text>
</a>
</g>
</g>
<!-- Node20&#45;&gt;Node23 -->
<g id="edge30" class="edge">
<title>Node20&#45;&gt;Node23</title>
<path fill="none" stroke="midnightblue" d="M493.22,-280.32C478.73,-271.82 456.43,-258.73 439.51,-248.8"/>
<polygon fill="midnightblue" stroke="midnightblue" points="441.14,-245.7 430.74,-243.65 437.6,-251.74 441.14,-245.7"/>
</g>
<!-- Node24 -->
<g id="node24" class="node">
<title>Node24</title>
<g id="a_node24"><a xlink:href="_shader_8hpp.html" target="_top" xlink:title=" ">
<polygon fill="white" stroke="black" points="627.5,-224.5 627.5,-243.5 732.5,-243.5 732.5,-224.5 627.5,-224.5"/>
<text text-anchor="middle" x="680" y="-231.5" font-family="Helvetica,sans-Serif" font-size="10.00">graphics/Shader.hpp</text>
</a>
</g>
</g>
<!-- Node20&#45;&gt;Node24 -->
<g id="edge31" class="edge">
<title>Node20&#45;&gt;Node24</title>
<path fill="none" stroke="midnightblue" d="M535.25,-280.44C564.44,-271.28 610.92,-256.69 643.31,-246.52"/>
<polygon fill="midnightblue" stroke="midnightblue" points="644.38,-249.85 652.87,-243.52 642.28,-243.17 644.38,-249.85"/>
</g>
<!-- Node25 -->
<g id="node25" class="node">
<title>Node25</title>
<g id="a_node25"><a xlink:href="_g_shape_8hpp.html" target="_top" xlink:title=" ">
<polygon fill="white" stroke="black" points="623,-168.5 623,-187.5 733,-187.5 733,-168.5 623,-168.5"/>
<text text-anchor="middle" x="678" y="-175.5" font-family="Helvetica,sans-Serif" font-size="10.00">graphics/GShape.hpp</text>
</a>
</g>
</g>
<!-- Node20&#45;&gt;Node25 -->
<g id="edge45" class="edge">
<title>Node20&#45;&gt;Node25</title>
<path fill="none" stroke="midnightblue" d="M513.78,-280.26C523.23,-266.57 543.22,-239.99 566,-224 587.12,-209.17 613.83,-198.2 635.88,-190.8"/>
<polygon fill="midnightblue" stroke="midnightblue" points="637.2,-194.05 645.64,-187.65 635.05,-187.39 637.2,-194.05"/>
</g>
<!-- Node31 -->
<g id="node31" class="node">
<title>Node31</title>
<g id="a_node31"><a xlink:href="_event_handler_8hpp.html" target="_top" xlink:title=" ">
<polygon fill="white" stroke="black" points="390.5,-168.5 390.5,-187.5 545.5,-187.5 545.5,-168.5 390.5,-168.5"/>
<text text-anchor="middle" x="468" y="-175.5" font-family="Helvetica,sans-Serif" font-size="10.00">EventHandler/EventHandler.hpp</text>
</a>
</g>
</g>
<!-- Node20&#45;&gt;Node31 -->
<g id="edge46" class="edge">
<title>Node20&#45;&gt;Node31</title>
<path fill="none" stroke="midnightblue" d="M504.86,-280.37C498.38,-262.54 483.38,-221.3 474.64,-197.27"/>
<polygon fill="midnightblue" stroke="midnightblue" points="477.83,-195.79 471.12,-187.59 471.25,-198.19 477.83,-195.79"/>
</g>
<!-- Node24&#45;&gt;Node22 -->
<g id="edge32" class="edge">
<title>Node24&#45;&gt;Node22</title>
<path fill="none" stroke="midnightblue" d="M664.58,-224.32C649.46,-215.82 626.18,-202.73 608.53,-192.8"/>
<polygon fill="midnightblue" stroke="midnightblue" points="609.82,-189.51 599.39,-187.65 606.39,-195.61 609.82,-189.51"/>
</g>
<!-- Node24&#45;&gt;Node25 -->
<g id="edge33" class="edge">
<title>Node24&#45;&gt;Node25</title>
<path fill="none" stroke="midnightblue" d="M674.5,-224.08C672.75,-217.01 671.94,-206.86 672.22,-197.99"/>
<polygon fill="midnightblue" stroke="midnightblue" points="675.74,-198.04 673.19,-187.75 668.77,-197.38 675.74,-198.04"/>
</g>
<!-- Node29 -->
<g id="node29" class="node">
<title>Node29</title>
<g id="a_node29"><a xlink:href="_transform_8hpp.html" target="_top" xlink:title=" ">
<polygon fill="white" stroke="black" points="618.5,-56.5 618.5,-75.5 737.5,-75.5 737.5,-56.5 618.5,-56.5"/>
<text text-anchor="middle" x="678" y="-63.5" font-family="Helvetica,sans-Serif" font-size="10.00">graphics/Transform.hpp</text>
</a>
</g>
</g>
<!-- Node24&#45;&gt;Node29 -->
<g id="edge44" class="edge">
<title>Node24&#45;&gt;Node29</title>
<path fill="none" stroke="midnightblue" d="M709.12,-224.44C726.64,-217.62 747.52,-206.14 758,-188 762.45,-180.3 760.92,-176.39 758,-168 745.78,-132.88 715.69,-100.78 696.1,-82.59"/>
<polygon fill="midnightblue" stroke="midnightblue" points="698.2,-79.77 688.42,-75.67 693.51,-84.97 698.2,-79.77"/>
</g>
<!-- Node25&#45;&gt;Node24 -->
<g id="edge42" class="edge">
<title>Node25&#45;&gt;Node24</title>
<path fill="none" stroke="midnightblue" d="M683.46,-187.75C685.24,-194.86 686.07,-205.14 685.77,-214.1"/>
<polygon fill="midnightblue" stroke="midnightblue" points="682.29,-213.8 684.84,-224.08 689.25,-214.45 682.29,-213.8"/>
</g>
<!-- Node26 -->
<g id="node26" class="node">
<title>Node26</title>
<g id="a_node26"><a xlink:href="_window_8hpp.html" target="_top" xlink:title=" ">
<polygon fill="white" stroke="black" points="508.5,-112.5 508.5,-131.5 617.5,-131.5 617.5,-112.5 508.5,-112.5"/>
<text text-anchor="middle" x="563" y="-119.5" font-family="Helvetica,sans-Serif" font-size="10.00">graphics/Window.hpp</text>
</a>
</g>
</g>
<!-- Node25&#45;&gt;Node26 -->
<g id="edge34" class="edge">
<title>Node25&#45;&gt;Node26</title>
<path fill="none" stroke="midnightblue" d="M659.78,-168.44C641.1,-159.68 611.84,-145.94 590.38,-135.86"/>
<polygon fill="midnightblue" stroke="midnightblue" points="591.68,-132.6 581.14,-131.52 588.7,-138.93 591.68,-132.6"/>
</g>
<!-- Node25&#45;&gt;Node29 -->
<g id="edge43" class="edge">
<title>Node25&#45;&gt;Node29</title>
<path fill="none" stroke="midnightblue" d="M678,-168.37C678,-150.62 678,-109.67 678,-85.6"/>
<polygon fill="midnightblue" stroke="midnightblue" points="681.5,-85.59 678,-75.59 674.5,-85.59 681.5,-85.59"/>
</g>
<!-- Node26&#45;&gt;Node7 -->
<g id="edge37" class="edge">
<title>Node26&#45;&gt;Node7</title>
<path fill="none" stroke="midnightblue" d="M565.53,-112.29C568.93,-98.65 573.11,-72.13 560,-56 541.82,-33.63 459.56,-20.19 414.59,-14.38"/>
<polygon fill="midnightblue" stroke="midnightblue" points="414.9,-10.9 404.55,-13.13 414.04,-17.84 414.9,-10.9"/>
</g>
<!-- Node26&#45;&gt;Node12 -->
<g id="edge38" class="edge">
<title>Node26&#45;&gt;Node12</title>
<path fill="none" stroke="midnightblue" d="M508.28,-114.6C452.04,-107.55 361.81,-94.92 275.25,-76.04"/>
<polygon fill="midnightblue" stroke="midnightblue" points="275.78,-72.58 265.26,-73.83 274.27,-79.41 275.78,-72.58"/>
</g>
<!-- Node26&#45;&gt;Node24 -->
<g id="edge39" class="edge">
<title>Node26&#45;&gt;Node24</title>
<path fill="none" stroke="midnightblue" d="M617.93,-129.41C664.73,-136.13 726.78,-148.48 742,-168 756.92,-187.13 730.81,-207.01 708.03,-219.67"/>
<polygon fill="midnightblue" stroke="midnightblue" points="706.13,-216.71 698.92,-224.47 709.4,-222.91 706.13,-216.71"/>
</g>
<!-- Node27 -->
<g id="node27" class="node">
<title>Node27</title>
<g id="a_node27"><a xlink:title=" ">
<polygon fill="white" stroke="#bfbfbf" points="390.5,-56.5 390.5,-75.5 453.5,-75.5 453.5,-56.5 390.5,-56.5"/>
<text text-anchor="middle" x="422" y="-63.5" font-family="Helvetica,sans-Serif" font-size="10.00">glad/glad.h</text>
</a>
</g>
</g>
<!-- Node26&#45;&gt;Node27 -->
<g id="edge35" class="edge">
<title>Node26&#45;&gt;Node27</title>
<path fill="none" stroke="midnightblue" d="M540.66,-112.44C517.25,-103.48 480.26,-89.31 453.81,-79.18"/>
<polygon fill="midnightblue" stroke="midnightblue" points="454.83,-75.82 444.24,-75.52 452.32,-82.36 454.83,-75.82"/>
</g>
<!-- Node28 -->
<g id="node28" class="node">
<title>Node28</title>
<g id="a_node28"><a xlink:title=" ">
<polygon fill="white" stroke="#bfbfbf" points="471.5,-56.5 471.5,-75.5 550.5,-75.5 550.5,-56.5 471.5,-56.5"/>
<text text-anchor="middle" x="511" y="-63.5" font-family="Helvetica,sans-Serif" font-size="10.00">GLFW/glfw3.h</text>
</a>
</g>
</g>
<!-- Node26&#45;&gt;Node28 -->
<g id="edge36" class="edge">
<title>Node26&#45;&gt;Node28</title>
<path fill="none" stroke="midnightblue" d="M554.41,-112.08C546.84,-104.22 535.62,-92.57 526.49,-83.08"/>
<polygon fill="midnightblue" stroke="midnightblue" points="528.88,-80.53 519.43,-75.75 523.84,-85.38 528.88,-80.53"/>
</g>
<!-- Node26&#45;&gt;Node29 -->
<g id="edge40" class="edge">
<title>Node26&#45;&gt;Node29</title>
<path fill="none" stroke="midnightblue" d="M581.22,-112.44C599.9,-103.68 629.16,-89.94 650.62,-79.86"/>
<polygon fill="midnightblue" stroke="midnightblue" points="652.3,-82.93 659.86,-75.52 649.32,-76.6 652.3,-82.93"/>
</g>
<!-- Node30 -->
<g id="node30" class="node">
<title>Node30</title>
<g id="a_node30"><a xlink:title=" ">
<polygon fill="white" stroke="#bfbfbf" points="626,-0.5 626,-19.5 730,-19.5 730,-0.5 626,-0.5"/>
<text text-anchor="middle" x="678" y="-7.5" font-family="Helvetica,sans-Serif" font-size="10.00">glm/gtc/type_ptr.hpp</text>
</a>
</g>
</g>
<!-- Node29&#45;&gt;Node30 -->
<g id="edge41" class="edge">
<title>Node29&#45;&gt;Node30</title>
<path fill="none" stroke="midnightblue" d="M678,-56.08C678,-49.01 678,-38.86 678,-29.99"/>
<polygon fill="midnightblue" stroke="midnightblue" points="681.5,-29.75 678,-19.75 674.5,-29.75 681.5,-29.75"/>
</g>
<!-- Node31&#45;&gt;Node6 -->
<g id="edge49" class="edge">
<title>Node31&#45;&gt;Node6</title>
<path fill="none" stroke="midnightblue" d="M467.35,-168.24C465.78,-154.02 460.53,-126.09 443,-112 438.53,-108.4 299.13,-88.32 213.25,-76.23"/>
<polygon fill="midnightblue" stroke="midnightblue" points="213.7,-72.76 203.31,-74.84 212.73,-79.69 213.7,-72.76"/>
</g>
<!-- Node31&#45;&gt;Node15 -->
<g id="edge47" class="edge">
<title>Node31&#45;&gt;Node15</title>
<path fill="none" stroke="midnightblue" d="M457.72,-168.32C448.16,-160.26 433.72,-148.08 422.22,-138.37"/>
<polygon fill="midnightblue" stroke="midnightblue" points="424.37,-135.61 414.47,-131.83 419.86,-140.96 424.37,-135.61"/>
</g>
<!-- Node31&#45;&gt;Node26 -->
<g id="edge48" class="edge">
<title>Node31&#45;&gt;Node26</title>
<path fill="none" stroke="midnightblue" d="M483.26,-168.32C498.22,-159.82 521.25,-146.73 538.73,-136.8"/>
<polygon fill="midnightblue" stroke="midnightblue" points="540.81,-139.64 547.77,-131.65 537.35,-133.55 540.81,-139.64"/>
</g>
</g>
</svg>
