<?xml version="1.0" encoding="UTF-8" standalone="no"?>
<!DOCTYPE svg PUBLIC "-//W3C//DTD SVG 1.1//EN"
 "http://www.w3.org/Graphics/SVG/1.1/DTD/svg11.dtd">
<!-- Generated by graphviz version 2.47.0 (20210407.0042)
 -->
<!-- Title: src/Engine.cpp Pages: 1 -->
<svg width="817pt" height="588pt"
 viewBox="0.00 0.00 816.50 588.00" xmlns="http://www.w3.org/2000/svg" xmlns:xlink="http://www.w3.org/1999/xlink">
<g id="graph0" class="graph" transform="scale(1 1) rotate(0) translate(4 584)">
<title>src/Engine.cpp</title>
<polygon fill="white" stroke="transparent" points="-4,4 -4,-584 812.5,-584 812.5,4 -4,4"/>
<!-- Node1 -->
<g id="node1" class="node">
<title>Node1</title>
<g id="a_node1"><a xlink:title=" ">
<polygon fill="#bfbfbf" stroke="black" points="446,-560.5 446,-579.5 526,-579.5 526,-560.5 446,-560.5"/>
<text text-anchor="middle" x="486" y="-567.5" font-family="Helvetica,sans-Serif" font-size="10.00">src/Engine.cpp</text>
</a>
</g>
</g>
<!-- Node2 -->
<g id="node2" class="node">
<title>Node2</title>
<g id="a_node2"><a xlink:href="_engine_8hpp.html" target="_top" xlink:title=" ">
<polygon fill="white" stroke="black" points="336,-504.5 336,-523.5 400,-523.5 400,-504.5 336,-504.5"/>
<text text-anchor="middle" x="368" y="-511.5" font-family="Helvetica,sans-Serif" font-size="10.00">Engine.hpp</text>
</a>
</g>
</g>
<!-- Node1&#45;&gt;Node2 -->
<g id="edge1" class="edge">
<title>Node1&#45;&gt;Node2</title>
<path fill="none" stroke="midnightblue" d="M467.3,-560.44C448.06,-551.64 417.85,-537.81 395.8,-527.72"/>
<polygon fill="midnightblue" stroke="midnightblue" points="397.16,-524.5 386.61,-523.52 394.25,-530.86 397.16,-524.5"/>
</g>
<!-- Node18 -->
<g id="node18" class="node">
<title>Node18</title>
<g id="a_node18"><a xlink:title=" ">
<polygon fill="white" stroke="#bfbfbf" points="514,-504.5 514,-523.5 568,-523.5 568,-504.5 514,-504.5"/>
<text text-anchor="middle" x="541" y="-511.5" font-family="Helvetica,sans-Serif" font-size="10.00">iostream</text>
</a>
</g>
</g>
<!-- Node1&#45;&gt;Node18 -->
<g id="edge25" class="edge">
<title>Node1&#45;&gt;Node18</title>
<path fill="none" stroke="midnightblue" d="M495.08,-560.08C503.17,-552.14 515.2,-540.34 524.91,-530.8"/>
<polygon fill="midnightblue" stroke="midnightblue" points="527.4,-533.25 532.09,-523.75 522.5,-528.26 527.4,-533.25"/>
</g>
<!-- Node19 -->
<g id="node19" class="node">
<title>Node19</title>
<g id="a_node19"><a xlink:href="_resource_manager_8hpp.html" target="_top" xlink:title=" ">
<polygon fill="white" stroke="black" points="473.5,-392.5 473.5,-411.5 626.5,-411.5 626.5,-392.5 473.5,-392.5"/>
<text text-anchor="middle" x="550" y="-399.5" font-family="Helvetica,sans-Serif" font-size="10.00">graphics/ResourceManager.hpp</text>
</a>
</g>
</g>
<!-- Node1&#45;&gt;Node19 -->
<g id="edge26" class="edge">
<title>Node1&#45;&gt;Node19</title>
<path fill="none" stroke="midnightblue" d="M488.1,-560.47C491.28,-547.93 497.71,-523.87 505,-504 515.93,-474.23 531.49,-440.82 541.16,-420.87"/>
<polygon fill="midnightblue" stroke="midnightblue" points="544.37,-422.27 545.62,-411.75 538.08,-419.2 544.37,-422.27"/>
</g>
<!-- Node3 -->
<g id="node3" class="node">
<title>Node3</title>
<g id="a_node3"><a xlink:href="_player_8hpp.html" target="_top" xlink:title=" ">
<polygon fill="white" stroke="black" points="162,-392.5 162,-411.5 290,-411.5 290,-392.5 162,-392.5"/>
<text text-anchor="middle" x="226" y="-399.5" font-family="Helvetica,sans-Serif" font-size="10.00">engine/objects/Player.hpp</text>
</a>
</g>
</g>
<!-- Node2&#45;&gt;Node3 -->
<g id="edge2" class="edge">
<title>Node2&#45;&gt;Node3</title>
<path fill="none" stroke="midnightblue" d="M348.36,-504.44C331.04,-496.39 305.57,-483.3 286,-468 267.77,-453.74 250.21,-433.74 238.85,-419.7"/>
<polygon fill="midnightblue" stroke="midnightblue" points="241.57,-417.51 232.62,-411.84 236.08,-421.85 241.57,-417.51"/>
</g>
<!-- Node15 -->
<g id="node15" class="node">
<title>Node15</title>
<g id="a_node15"><a xlink:href="_unit_group_8hpp.html" target="_top" xlink:title=" ">
<polygon fill="white" stroke="black" points="295.5,-448.5 295.5,-467.5 440.5,-467.5 440.5,-448.5 295.5,-448.5"/>
<text text-anchor="middle" x="368" y="-455.5" font-family="Helvetica,sans-Serif" font-size="10.00">engine/objects/UnitGroup.hpp</text>
</a>
</g>
</g>
<!-- Node2&#45;&gt;Node15 -->
<g id="edge21" class="edge">
<title>Node2&#45;&gt;Node15</title>
<path fill="none" stroke="midnightblue" d="M368,-504.08C368,-497.01 368,-486.86 368,-477.99"/>
<polygon fill="midnightblue" stroke="midnightblue" points="371.5,-477.75 368,-467.75 364.5,-477.75 371.5,-477.75"/>
</g>
<!-- Node4 -->
<g id="node4" class="node">
<title>Node4</title>
<g id="a_node4"><a xlink:href="_drawable_8hpp.html" target="_top" xlink:title=" ">
<polygon fill="white" stroke="black" points="19.5,-112.5 19.5,-131.5 126.5,-131.5 126.5,-112.5 19.5,-112.5"/>
<text text-anchor="middle" x="73" y="-119.5" font-family="Helvetica,sans-Serif" font-size="10.00">engine/Drawable.hpp</text>
</a>
</g>
</g>
<!-- Node3&#45;&gt;Node4 -->
<g id="edge3" class="edge">
<title>Node3&#45;&gt;Node4</title>
<path fill="none" stroke="midnightblue" d="M161.84,-396.63C95.03,-388.18 0,-363.44 0,-291 0,-291 0,-291 0,-233 0,-193.78 32.62,-157.84 54.25,-138.32"/>
<polygon fill="midnightblue" stroke="midnightblue" points="56.65,-140.87 61.91,-131.67 52.07,-135.58 56.65,-140.87"/>
</g>
<!-- Node8 -->
<g id="node8" class="node">
<title>Node8</title>
<g id="a_node8"><a xlink:href="_world_actor_8hpp.html" target="_top" xlink:title=" ">
<polygon fill="white" stroke="black" points="239,-336.5 239,-355.5 353,-355.5 353,-336.5 239,-336.5"/>
<text text-anchor="middle" x="296" y="-343.5" font-family="Helvetica,sans-Serif" font-size="10.00">engine/WorldActor.hpp</text>
</a>
</g>
</g>
<!-- Node3&#45;&gt;Node8 -->
<g id="edge7" class="edge">
<title>Node3&#45;&gt;Node8</title>
<path fill="none" stroke="midnightblue" d="M237.25,-392.32C247.8,-384.18 263.8,-371.84 276.44,-362.09"/>
<polygon fill="midnightblue" stroke="midnightblue" points="278.77,-364.71 284.55,-355.83 274.49,-359.17 278.77,-364.71"/>
</g>
<!-- Node5 -->
<g id="node5" class="node">
<title>Node5</title>
<g id="a_node5"><a xlink:title=" ">
<polygon fill="white" stroke="#bfbfbf" points="40,-56.5 40,-75.5 106,-75.5 106,-56.5 40,-56.5"/>
<text text-anchor="middle" x="73" y="-63.5" font-family="Helvetica,sans-Serif" font-size="10.00">string_view</text>
</a>
</g>
</g>
<!-- Node4&#45;&gt;Node5 -->
<g id="edge4" class="edge">
<title>Node4&#45;&gt;Node5</title>
<path fill="none" stroke="midnightblue" d="M73,-112.08C73,-105.01 73,-94.86 73,-85.99"/>
<polygon fill="midnightblue" stroke="midnightblue" points="76.5,-85.75 73,-75.75 69.5,-85.75 76.5,-85.75"/>
</g>
<!-- Node6 -->
<g id="node6" class="node">
<title>Node6</title>
<g id="a_node6"><a xlink:href="_vector2_d_8hpp.html" target="_top" xlink:title=" ">
<polygon fill="white" stroke="black" points="268,-56.5 268,-75.5 380,-75.5 380,-56.5 268,-56.5"/>
<text text-anchor="middle" x="324" y="-63.5" font-family="Helvetica,sans-Serif" font-size="10.00">Helpers/Vector2D.hpp</text>
</a>
</g>
</g>
<!-- Node4&#45;&gt;Node6 -->
<g id="edge5" class="edge">
<title>Node4&#45;&gt;Node6</title>
<path fill="none" stroke="midnightblue" d="M112.77,-112.44C156.56,-103.02 227.01,-87.87 274.38,-77.68"/>
<polygon fill="midnightblue" stroke="midnightblue" points="275.37,-81.04 284.41,-75.52 273.9,-74.2 275.37,-81.04"/>
</g>
<!-- Node7 -->
<g id="node7" class="node">
<title>Node7</title>
<g id="a_node7"><a xlink:title=" ">
<polygon fill="white" stroke="#bfbfbf" points="462.5,-0.5 462.5,-19.5 501.5,-19.5 501.5,-0.5 462.5,-0.5"/>
<text text-anchor="middle" x="482" y="-7.5" font-family="Helvetica,sans-Serif" font-size="10.00">utility</text>
</a>
</g>
</g>
<!-- Node6&#45;&gt;Node7 -->
<g id="edge6" class="edge">
<title>Node6&#45;&gt;Node7</title>
<path fill="none" stroke="midnightblue" d="M349.04,-56.44C377.06,-46.87 422.43,-31.36 452.24,-21.17"/>
<polygon fill="midnightblue" stroke="midnightblue" points="453.75,-24.35 462.08,-17.81 451.49,-17.73 453.75,-24.35"/>
</g>
<!-- Node8&#45;&gt;Node6 -->
<g id="edge8" class="edge">
<title>Node8&#45;&gt;Node6</title>
<path fill="none" stroke="midnightblue" d="M299.78,-336.35C307.42,-318.03 324,-273.82 324,-235 324,-235 324,-235 324,-177 324,-144.95 324,-107.64 324,-85.75"/>
<polygon fill="midnightblue" stroke="midnightblue" points="327.5,-85.56 324,-75.56 320.5,-85.56 327.5,-85.56"/>
</g>
<!-- Node9 -->
<g id="node9" class="node">
<title>Node9</title>
<g id="a_node9"><a xlink:href="_field_8hpp.html" target="_top" xlink:title=" ">
<polygon fill="white" stroke="black" points="240,-280.5 240,-299.5 296,-299.5 296,-280.5 240,-280.5"/>
<text text-anchor="middle" x="268" y="-287.5" font-family="Helvetica,sans-Serif" font-size="10.00">Field.hpp</text>
</a>
</g>
</g>
<!-- Node8&#45;&gt;Node9 -->
<g id="edge9" class="edge">
<title>Node8&#45;&gt;Node9</title>
<path fill="none" stroke="midnightblue" d="M291.38,-336.08C287.54,-328.69 281.98,-317.95 277.24,-308.81"/>
<polygon fill="midnightblue" stroke="midnightblue" points="280.25,-307.02 272.54,-299.75 274.03,-310.24 280.25,-307.02"/>
</g>
<!-- Node9&#45;&gt;Node6 -->
<g id="edge20" class="edge">
<title>Node9&#45;&gt;Node6</title>
<path fill="none" stroke="midnightblue" d="M269.81,-280.47C275.28,-254.84 292.4,-176.27 310,-112 312.43,-103.11 315.44,-93.33 318.04,-85.17"/>
<polygon fill="midnightblue" stroke="midnightblue" points="321.39,-86.17 321.14,-75.58 314.73,-84.01 321.39,-86.17"/>
</g>
<!-- Node10 -->
<g id="node10" class="node">
<title>Node10</title>
<g id="a_node10"><a xlink:href="_cell_8hpp.html" target="_top" xlink:title=" ">
<polygon fill="white" stroke="black" points="133.5,-224.5 133.5,-243.5 250.5,-243.5 250.5,-224.5 133.5,-224.5"/>
<text text-anchor="middle" x="192" y="-231.5" font-family="Helvetica,sans-Serif" font-size="10.00">engine/objects/Cell.hpp</text>
</a>
</g>
</g>
<!-- Node9&#45;&gt;Node10 -->
<g id="edge10" class="edge">
<title>Node9&#45;&gt;Node10</title>
<path fill="none" stroke="midnightblue" d="M255.79,-280.32C244.22,-272.11 226.62,-259.6 212.84,-249.81"/>
<polygon fill="midnightblue" stroke="midnightblue" points="214.61,-246.77 204.43,-243.83 210.56,-252.48 214.61,-246.77"/>
</g>
<!-- Node10&#45;&gt;Node4 -->
<g id="edge11" class="edge">
<title>Node10&#45;&gt;Node4</title>
<path fill="none" stroke="midnightblue" d="M133.2,-228.82C105.34,-223.54 74.41,-212.15 57,-188 46.95,-174.06 53.85,-154.54 61.47,-140.53"/>
<polygon fill="midnightblue" stroke="midnightblue" points="64.53,-142.23 66.66,-131.85 58.52,-138.64 64.53,-142.23"/>
</g>
<!-- Node11 -->
<g id="node11" class="node">
<title>Node11</title>
<g id="a_node11"><a xlink:href="_tickable_8hpp.html" target="_top" xlink:title=" ">
<polygon fill="white" stroke="black" points="144.5,-112.5 144.5,-131.5 247.5,-131.5 247.5,-112.5 144.5,-112.5"/>
<text text-anchor="middle" x="196" y="-119.5" font-family="Helvetica,sans-Serif" font-size="10.00">engine/Tickable.hpp</text>
</a>
</g>
</g>
<!-- Node10&#45;&gt;Node11 -->
<g id="edge12" class="edge">
<title>Node10&#45;&gt;Node11</title>
<path fill="none" stroke="midnightblue" d="M202.16,-224.19C210.91,-215.87 222.9,-202.54 228,-188 234.08,-170.67 222.81,-151.96 212.01,-139.09"/>
<polygon fill="midnightblue" stroke="midnightblue" points="214.48,-136.6 205.17,-131.54 209.29,-141.3 214.48,-136.6"/>
</g>
<!-- Node12 -->
<g id="node12" class="node">
<title>Node12</title>
<g id="a_node12"><a xlink:title=" ">
<polygon fill="white" stroke="#bfbfbf" points="352,-168.5 352,-187.5 396,-187.5 396,-168.5 352,-168.5"/>
<text text-anchor="middle" x="374" y="-175.5" font-family="Helvetica,sans-Serif" font-size="10.00">vector</text>
</a>
</g>
</g>
<!-- Node10&#45;&gt;Node12 -->
<g id="edge13" class="edge">
<title>Node10&#45;&gt;Node12</title>
<path fill="none" stroke="midnightblue" d="M220.84,-224.44C253.81,-214.66 307.64,-198.69 341.92,-188.52"/>
<polygon fill="midnightblue" stroke="midnightblue" points="343.29,-191.76 351.88,-185.56 341.3,-185.05 343.29,-191.76"/>
</g>
<!-- Node13 -->
<g id="node13" class="node">
<title>Node13</title>
<g id="a_node13"><a xlink:href="_ground_8hpp.html" target="_top" xlink:title=" ">
<polygon fill="white" stroke="black" points="66,-168.5 66,-187.5 132,-187.5 132,-168.5 66,-168.5"/>
<text text-anchor="middle" x="99" y="-175.5" font-family="Helvetica,sans-Serif" font-size="10.00">Ground.hpp</text>
</a>
</g>
</g>
<!-- Node10&#45;&gt;Node13 -->
<g id="edge14" class="edge">
<title>Node10&#45;&gt;Node13</title>
<path fill="none" stroke="midnightblue" d="M177.06,-224.32C162.41,-215.82 139.87,-202.73 122.76,-192.8"/>
<polygon fill="midnightblue" stroke="midnightblue" points="124.31,-189.65 113.9,-187.65 120.8,-195.7 124.31,-189.65"/>
</g>
<!-- Node14 -->
<g id="node14" class="node">
<title>Node14</title>
<g id="a_node14"><a xlink:href="_building_8hpp.html" target="_top" xlink:title=" ">
<polygon fill="white" stroke="black" points="150.5,-168.5 150.5,-187.5 219.5,-187.5 219.5,-168.5 150.5,-168.5"/>
<text text-anchor="middle" x="185" y="-175.5" font-family="Helvetica,sans-Serif" font-size="10.00">Building.hpp</text>
</a>
</g>
</g>
<!-- Node10&#45;&gt;Node14 -->
<g id="edge17" class="edge">
<title>Node10&#45;&gt;Node14</title>
<path fill="none" stroke="midnightblue" d="M190.84,-224.08C189.92,-216.93 188.58,-206.64 187.42,-197.69"/>
<polygon fill="midnightblue" stroke="midnightblue" points="190.89,-197.22 186.13,-187.75 183.95,-198.12 190.89,-197.22"/>
</g>
<!-- Node13&#45;&gt;Node4 -->
<g id="edge15" class="edge">
<title>Node13&#45;&gt;Node4</title>
<path fill="none" stroke="midnightblue" d="M94.71,-168.08C91.15,-160.69 85.98,-149.95 81.58,-140.81"/>
<polygon fill="midnightblue" stroke="midnightblue" points="84.71,-139.24 77.21,-131.75 78.4,-142.28 84.71,-139.24"/>
</g>
<!-- Node13&#45;&gt;Node11 -->
<g id="edge16" class="edge">
<title>Node13&#45;&gt;Node11</title>
<path fill="none" stroke="midnightblue" d="M114.58,-168.32C130,-159.74 153.81,-146.49 171.71,-136.52"/>
<polygon fill="midnightblue" stroke="midnightblue" points="173.42,-139.58 180.45,-131.65 170.01,-133.46 173.42,-139.58"/>
</g>
<!-- Node14&#45;&gt;Node4 -->
<g id="edge18" class="edge">
<title>Node14&#45;&gt;Node4</title>
<path fill="none" stroke="midnightblue" d="M167.01,-168.32C148.96,-159.62 120.95,-146.12 100.2,-136.11"/>
<polygon fill="midnightblue" stroke="midnightblue" points="101.48,-132.84 90.95,-131.65 98.44,-139.15 101.48,-132.84"/>
</g>
<!-- Node14&#45;&gt;Node11 -->
<g id="edge19" class="edge">
<title>Node14&#45;&gt;Node11</title>
<path fill="none" stroke="midnightblue" d="M186.82,-168.08C188.27,-160.93 190.37,-150.64 192.19,-141.69"/>
<polygon fill="midnightblue" stroke="midnightblue" points="195.65,-142.25 194.22,-131.75 188.79,-140.85 195.65,-142.25"/>
</g>
<!-- Node16 -->
<g id="node16" class="node">
<title>Node16</title>
<g id="a_node16"><a xlink:href="_unit_8hpp.html" target="_top" xlink:title=" ">
<polygon fill="white" stroke="black" points="355.5,-392.5 355.5,-411.5 408.5,-411.5 408.5,-392.5 355.5,-392.5"/>
<text text-anchor="middle" x="382" y="-399.5" font-family="Helvetica,sans-Serif" font-size="10.00">Unit.hpp</text>
</a>
</g>
</g>
<!-- Node15&#45;&gt;Node16 -->
<g id="edge22" class="edge">
<title>Node15&#45;&gt;Node16</title>
<path fill="none" stroke="midnightblue" d="M370.31,-448.08C372.17,-440.93 374.84,-430.64 377.15,-421.69"/>
<polygon fill="midnightblue" stroke="midnightblue" points="380.61,-422.31 379.73,-411.75 373.83,-420.55 380.61,-422.31"/>
</g>
<!-- Node17 -->
<g id="node17" class="node">
<title>Node17</title>
<g id="a_node17"><a xlink:title=" ">
<polygon fill="white" stroke="#bfbfbf" points="308.5,-392.5 308.5,-411.5 337.5,-411.5 337.5,-392.5 308.5,-392.5"/>
<text text-anchor="middle" x="323" y="-399.5" font-family="Helvetica,sans-Serif" font-size="10.00">list</text>
</a>
</g>
</g>
<!-- Node15&#45;&gt;Node17 -->
<g id="edge24" class="edge">
<title>Node15&#45;&gt;Node17</title>
<path fill="none" stroke="midnightblue" d="M360.57,-448.08C354.15,-440.38 344.69,-429.03 336.88,-419.65"/>
<polygon fill="midnightblue" stroke="midnightblue" points="339.38,-417.19 330.29,-411.75 334.01,-421.67 339.38,-417.19"/>
</g>
<!-- Node16&#45;&gt;Node8 -->
<g id="edge23" class="edge">
<title>Node16&#45;&gt;Node8</title>
<path fill="none" stroke="midnightblue" d="M368.18,-392.32C354.77,-383.9 334.18,-370.97 318.41,-361.07"/>
<polygon fill="midnightblue" stroke="midnightblue" points="320.11,-358.01 309.78,-355.65 316.39,-363.94 320.11,-358.01"/>
</g>
<!-- Node20 -->
<g id="node20" class="node">
<title>Node20</title>
<g id="a_node20"><a xlink:title=" ">
<polygon fill="white" stroke="#bfbfbf" points="532.5,-336.5 532.5,-355.5 567.5,-355.5 567.5,-336.5 532.5,-336.5"/>
<text text-anchor="middle" x="550" y="-343.5" font-family="Helvetica,sans-Serif" font-size="10.00">map</text>
</a>
</g>
</g>
<!-- Node19&#45;&gt;Node20 -->
<g id="edge27" class="edge">
<title>Node19&#45;&gt;Node20</title>
<path fill="none" stroke="midnightblue" d="M550,-392.08C550,-385.01 550,-374.86 550,-365.99"/>
<polygon fill="midnightblue" stroke="midnightblue" points="553.5,-365.75 550,-355.75 546.5,-365.75 553.5,-365.75"/>
</g>
<!-- Node21 -->
<g id="node21" class="node">
<title>Node21</title>
<g id="a_node21"><a xlink:title=" ">
<polygon fill="white" stroke="#bfbfbf" points="767.5,-280.5 767.5,-299.5 808.5,-299.5 808.5,-280.5 767.5,-280.5"/>
<text text-anchor="middle" x="788" y="-287.5" font-family="Helvetica,sans-Serif" font-size="10.00">string</text>
</a>
</g>
</g>
<!-- Node19&#45;&gt;Node21 -->
<g id="edge28" class="edge">
<title>Node19&#45;&gt;Node21</title>
<path fill="none" stroke="midnightblue" d="M626.71,-393.64C681.26,-386.89 748.38,-375 769,-356 781.82,-344.19 786.16,-324.27 787.55,-309.58"/>
<polygon fill="midnightblue" stroke="midnightblue" points="791.04,-309.78 788.12,-299.6 784.05,-309.38 791.04,-309.78"/>
</g>
<!-- Node22 -->
<g id="node22" class="node">
<title>Node22</title>
<g id="a_node22"><a xlink:title=" ">
<polygon fill="white" stroke="#bfbfbf" points="585.5,-336.5 585.5,-355.5 636.5,-355.5 636.5,-336.5 585.5,-336.5"/>
<text text-anchor="middle" x="611" y="-343.5" font-family="Helvetica,sans-Serif" font-size="10.00">memory</text>
</a>
</g>
</g>
<!-- Node19&#45;&gt;Node22 -->
<g id="edge29" class="edge">
<title>Node19&#45;&gt;Node22</title>
<path fill="none" stroke="midnightblue" d="M559.8,-392.32C568.82,-384.34 582.41,-372.31 593.32,-362.65"/>
<polygon fill="midnightblue" stroke="midnightblue" points="595.85,-365.08 601.02,-355.83 591.21,-359.84 595.85,-365.08"/>
</g>
<!-- Node23 -->
<g id="node23" class="node">
<title>Node23</title>
<g id="a_node23"><a xlink:href="_shader_8hpp.html" target="_top" xlink:title=" ">
<polygon fill="white" stroke="black" points="654.5,-336.5 654.5,-355.5 759.5,-355.5 759.5,-336.5 654.5,-336.5"/>
<text text-anchor="middle" x="707" y="-343.5" font-family="Helvetica,sans-Serif" font-size="10.00">graphics/Shader.hpp</text>
</a>
</g>
</g>
<!-- Node19&#45;&gt;Node23 -->
<g id="edge30" class="edge">
<title>Node19&#45;&gt;Node23</title>
<path fill="none" stroke="midnightblue" d="M574.88,-392.44C601.29,-383.36 643.22,-368.94 672.74,-358.78"/>
<polygon fill="midnightblue" stroke="midnightblue" points="673.92,-362.08 682.24,-355.52 671.64,-355.46 673.92,-362.08"/>
</g>
<!-- Node24 -->
<g id="node24" class="node">
<title>Node24</title>
<g id="a_node24"><a xlink:href="_g_shape_8hpp.html" target="_top" xlink:title=" ">
<polygon fill="white" stroke="black" points="601,-280.5 601,-299.5 711,-299.5 711,-280.5 601,-280.5"/>
<text text-anchor="middle" x="656" y="-287.5" font-family="Helvetica,sans-Serif" font-size="10.00">graphics/GShape.hpp</text>
</a>
</g>
</g>
<!-- Node19&#45;&gt;Node24 -->
<g id="edge44" class="edge">
<title>Node19&#45;&gt;Node24</title>
<path fill="none" stroke="midnightblue" d="M541.51,-392.36C529.7,-379.25 511.13,-353.99 524,-336 539.42,-314.45 565.79,-303.1 590.93,-297.17"/>
<polygon fill="midnightblue" stroke="midnightblue" points="591.78,-300.56 600.84,-295.08 590.34,-293.71 591.78,-300.56"/>
</g>
<!-- Node30 -->
<g id="node30" class="node">
<title>Node30</title>
<g id="a_node30"><a xlink:href="_event_handler_8hpp.html" target="_top" xlink:title=" ">
<polygon fill="white" stroke="black" points="389.5,-280.5 389.5,-299.5 544.5,-299.5 544.5,-280.5 389.5,-280.5"/>
<text text-anchor="middle" x="467" y="-287.5" font-family="Helvetica,sans-Serif" font-size="10.00">EventHandler/EventHandler.hpp</text>
</a>
</g>
</g>
<!-- Node19&#45;&gt;Node30 -->
<g id="edge45" class="edge">
<title>Node19&#45;&gt;Node30</title>
<path fill="none" stroke="midnightblue" d="M533.87,-392.5C520.43,-384.65 501.64,-371.84 490,-356 479.82,-342.15 473.82,-323.38 470.52,-309.57"/>
<polygon fill="midnightblue" stroke="midnightblue" points="473.93,-308.8 468.42,-299.75 467.09,-310.26 473.93,-308.8"/>
</g>
<!-- Node23&#45;&gt;Node21 -->
<g id="edge31" class="edge">
<title>Node23&#45;&gt;Node21</title>
<path fill="none" stroke="midnightblue" d="M720.01,-336.32C732.53,-327.98 751.68,-315.21 766.47,-305.35"/>
<polygon fill="midnightblue" stroke="midnightblue" points="768.64,-308.11 775.02,-299.65 764.76,-302.29 768.64,-308.11"/>
</g>
<!-- Node23&#45;&gt;Node24 -->
<g id="edge32" class="edge">
<title>Node23&#45;&gt;Node24</title>
<path fill="none" stroke="midnightblue" d="M693.69,-336.32C684.79,-328.65 673.62,-317.25 665.56,-307.8"/>
<polygon fill="midnightblue" stroke="midnightblue" points="668.17,-305.46 659.19,-299.83 662.71,-309.83 668.17,-305.46"/>
</g>
<!-- Node28 -->
<g id="node28" class="node">
<title>Node28</title>
<g id="a_node28"><a xlink:href="_transform_8hpp.html" target="_top" xlink:title=" ">
<polygon fill="white" stroke="black" points="669.5,-168.5 669.5,-187.5 788.5,-187.5 788.5,-168.5 669.5,-168.5"/>
<text text-anchor="middle" x="729" y="-175.5" font-family="Helvetica,sans-Serif" font-size="10.00">graphics/Transform.hpp</text>
</a>
</g>
</g>
<!-- Node23&#45;&gt;Node28 -->
<g id="edge43" class="edge">
<title>Node23&#45;&gt;Node28</title>
<path fill="none" stroke="midnightblue" d="M710.03,-336.5C713.08,-327.54 717.67,-312.97 720,-300 726.43,-264.19 728.28,-221.61 728.8,-197.71"/>
<polygon fill="midnightblue" stroke="midnightblue" points="732.31,-197.64 728.97,-187.58 725.31,-197.53 732.31,-197.64"/>
</g>
<!-- Node24&#45;&gt;Node23 -->
<g id="edge41" class="edge">
<title>Node24&#45;&gt;Node23</title>
<path fill="none" stroke="midnightblue" d="M669.4,-299.75C678.27,-307.4 689.36,-318.74 697.39,-328.14"/>
<polygon fill="midnightblue" stroke="midnightblue" points="694.76,-330.46 703.74,-336.08 700.23,-326.09 694.76,-330.46"/>
</g>
<!-- Node25 -->
<g id="node25" class="node">
<title>Node25</title>
<g id="a_node25"><a xlink:href="_window_8hpp.html" target="_top" xlink:title=" ">
<polygon fill="white" stroke="black" points="529.5,-224.5 529.5,-243.5 638.5,-243.5 638.5,-224.5 529.5,-224.5"/>
<text text-anchor="middle" x="584" y="-231.5" font-family="Helvetica,sans-Serif" font-size="10.00">graphics/Window.hpp</text>
</a>
</g>
</g>
<!-- Node24&#45;&gt;Node25 -->
<g id="edge33" class="edge">
<title>Node24&#45;&gt;Node25</title>
<path fill="none" stroke="midnightblue" d="M644.43,-280.32C633.58,-272.18 617.12,-259.84 604.12,-250.09"/>
<polygon fill="midnightblue" stroke="midnightblue" points="605.88,-247.03 595.78,-243.83 601.68,-252.63 605.88,-247.03"/>
</g>
<!-- Node24&#45;&gt;Node28 -->
<g id="edge42" class="edge">
<title>Node24&#45;&gt;Node28</title>
<path fill="none" stroke="midnightblue" d="M661.73,-280.37C673.78,-262.22 701.92,-219.8 717.72,-195.99"/>
<polygon fill="midnightblue" stroke="midnightblue" points="720.69,-197.86 723.3,-187.59 714.85,-193.99 720.69,-197.86"/>
</g>
<!-- Node25&#45;&gt;Node7 -->
<g id="edge36" class="edge">
<title>Node25&#45;&gt;Node7</title>
<path fill="none" stroke="midnightblue" d="M595.21,-224.22C609.16,-212.16 630.19,-189.5 622,-168 597.99,-104.99 535.78,-51.2 502.97,-26.11"/>
<polygon fill="midnightblue" stroke="midnightblue" points="504.66,-23 494.55,-19.81 500.46,-28.6 504.66,-23"/>
</g>
<!-- Node25&#45;&gt;Node12 -->
<g id="edge37" class="edge">
<title>Node25&#45;&gt;Node12</title>
<path fill="none" stroke="midnightblue" d="M550.72,-224.44C511.02,-214.23 445.1,-197.28 405.98,-187.22"/>
<polygon fill="midnightblue" stroke="midnightblue" points="406.72,-183.8 396.17,-184.7 404.98,-190.58 406.72,-183.8"/>
</g>
<!-- Node25&#45;&gt;Node23 -->
<g id="edge38" class="edge">
<title>Node25&#45;&gt;Node23</title>
<path fill="none" stroke="midnightblue" d="M582.5,-243.61C580.65,-257.13 579.17,-283.47 592,-300 604.94,-316.66 624.92,-327.17 644.62,-333.78"/>
<polygon fill="midnightblue" stroke="midnightblue" points="643.65,-337.14 654.23,-336.73 645.7,-330.45 643.65,-337.14"/>
</g>
<!-- Node26 -->
<g id="node26" class="node">
<title>Node26</title>
<g id="a_node26"><a xlink:title=" ">
<polygon fill="white" stroke="#bfbfbf" points="452.5,-168.5 452.5,-187.5 515.5,-187.5 515.5,-168.5 452.5,-168.5"/>
<text text-anchor="middle" x="484" y="-175.5" font-family="Helvetica,sans-Serif" font-size="10.00">glad/glad.h</text>
</a>
</g>
</g>
<!-- Node25&#45;&gt;Node26 -->
<g id="edge34" class="edge">
<title>Node25&#45;&gt;Node26</title>
<path fill="none" stroke="midnightblue" d="M567.93,-224.32C552.04,-215.74 527.49,-202.49 509.04,-192.52"/>
<polygon fill="midnightblue" stroke="midnightblue" points="510.49,-189.33 500.03,-187.65 507.16,-195.49 510.49,-189.33"/>
</g>
<!-- Node27 -->
<g id="node27" class="node">
<title>Node27</title>
<g id="a_node27"><a xlink:title=" ">
<polygon fill="white" stroke="#bfbfbf" points="533.5,-168.5 533.5,-187.5 612.5,-187.5 612.5,-168.5 533.5,-168.5"/>
<text text-anchor="middle" x="573" y="-175.5" font-family="Helvetica,sans-Serif" font-size="10.00">GLFW/glfw3.h</text>
</a>
</g>
</g>
<!-- Node25&#45;&gt;Node27 -->
<g id="edge35" class="edge">
<title>Node25&#45;&gt;Node27</title>
<path fill="none" stroke="midnightblue" d="M582.18,-224.08C580.73,-216.93 578.63,-206.64 576.81,-197.69"/>
<polygon fill="midnightblue" stroke="midnightblue" points="580.21,-196.85 574.78,-187.75 573.35,-198.25 580.21,-196.85"/>
</g>
<!-- Node25&#45;&gt;Node28 -->
<g id="edge39" class="edge">
<title>Node25&#45;&gt;Node28</title>
<path fill="none" stroke="midnightblue" d="M606.98,-224.44C631.16,-215.44 669.42,-201.19 696.65,-191.05"/>
<polygon fill="midnightblue" stroke="midnightblue" points="697.98,-194.29 706.13,-187.52 695.54,-187.73 697.98,-194.29"/>
</g>
<!-- Node29 -->
<g id="node29" class="node">
<title>Node29</title>
<g id="a_node29"><a xlink:title=" ">
<polygon fill="white" stroke="#bfbfbf" points="677,-112.5 677,-131.5 781,-131.5 781,-112.5 677,-112.5"/>
<text text-anchor="middle" x="729" y="-119.5" font-family="Helvetica,sans-Serif" font-size="10.00">glm/gtc/type_ptr.hpp</text>
</a>
</g>
</g>
<!-- Node28&#45;&gt;Node29 -->
<g id="edge40" class="edge">
<title>Node28&#45;&gt;Node29</title>
<path fill="none" stroke="midnightblue" d="M729,-168.08C729,-161.01 729,-150.86 729,-141.99"/>
<polygon fill="midnightblue" stroke="midnightblue" points="732.5,-141.75 729,-131.75 725.5,-141.75 732.5,-141.75"/>
</g>
<!-- Node30&#45;&gt;Node6 -->
<g id="edge48" class="edge">
<title>Node30&#45;&gt;Node6</title>
<path fill="none" stroke="midnightblue" d="M462.61,-280.4C448.61,-252.99 405.86,-169.32 405,-168 384.46,-136.28 355.96,-102.66 338.82,-83.32"/>
<polygon fill="midnightblue" stroke="midnightblue" points="341.3,-80.84 332.02,-75.72 336.08,-85.51 341.3,-80.84"/>
</g>
<!-- Node30&#45;&gt;Node25 -->
<g id="edge47" class="edge">
<title>Node30&#45;&gt;Node25</title>
<path fill="none" stroke="midnightblue" d="M485.54,-280.44C504.62,-271.64 534.57,-257.81 556.44,-247.72"/>
<polygon fill="midnightblue" stroke="midnightblue" points="557.93,-250.88 565.55,-243.52 555,-244.53 557.93,-250.88"/>
</g>
<!-- Node31 -->
<g id="node31" class="node">
<title>Node31</title>
<g id="a_node31"><a xlink:title=" ">
<polygon fill="white" stroke="#bfbfbf" points="452.5,-224.5 452.5,-243.5 511.5,-243.5 511.5,-224.5 452.5,-224.5"/>
<text text-anchor="middle" x="482" y="-231.5" font-family="Helvetica,sans-Serif" font-size="10.00">functional</text>
</a>
</g>
</g>
<!-- Node30&#45;&gt;Node31 -->
<g id="edge46" class="edge">
<title>Node30&#45;&gt;Node31</title>
<path fill="none" stroke="midnightblue" d="M469.48,-280.08C471.49,-272.85 474.39,-262.41 476.89,-253.4"/>
<polygon fill="midnightblue" stroke="midnightblue" points="480.26,-254.32 479.57,-243.75 473.52,-252.45 480.26,-254.32"/>
</g>
</g>
</svg>
