<?xml version="1.0" encoding="UTF-8" standalone="no"?>
<!DOCTYPE svg PUBLIC "-//W3C//DTD SVG 1.1//EN"
 "http://www.w3.org/Graphics/SVG/1.1/DTD/svg11.dtd">
<!-- Generated by graphviz version 2.47.0 (20210407.0042)
 -->
<!-- Title: include/Engine.hpp Pages: 1 -->
<svg width="412pt" height="476pt"
 viewBox="0.00 0.00 412.00 476.00" xmlns="http://www.w3.org/2000/svg" xmlns:xlink="http://www.w3.org/1999/xlink">
<g id="graph0" class="graph" transform="scale(1 1) rotate(0) translate(4 472)">
<title>include/Engine.hpp</title>
<polygon fill="white" stroke="transparent" points="-4,4 -4,-472 408,-472 408,4 -4,4"/>
<!-- Node1 -->
<g id="node1" class="node">
<title>Node1</title>
<g id="a_node1"><a xlink:title=" ">
<polygon fill="#bfbfbf" stroke="black" points="96,-448.5 96,-467.5 194,-467.5 194,-448.5 96,-448.5"/>
<text text-anchor="middle" x="145" y="-455.5" font-family="Helvetica,sans-Serif" font-size="10.00">include/Engine.hpp</text>
</a>
</g>
</g>
<!-- Node2 -->
<g id="node2" class="node">
<title>Node2</title>
<g id="a_node2"><a xlink:href="_player_8hpp.html" target="_top" xlink:title=" ">
<polygon fill="white" stroke="black" points="31,-336.5 31,-355.5 159,-355.5 159,-336.5 31,-336.5"/>
<text text-anchor="middle" x="95" y="-343.5" font-family="Helvetica,sans-Serif" font-size="10.00">engine/objects/Player.hpp</text>
</a>
</g>
</g>
<!-- Node1&#45;&gt;Node2 -->
<g id="edge1" class="edge">
<title>Node1&#45;&gt;Node2</title>
<path fill="none" stroke="midnightblue" d="M137.68,-448.22C130.74,-439.51 120.44,-425.54 114,-412 106.9,-397.07 101.87,-378.93 98.77,-365.61"/>
<polygon fill="midnightblue" stroke="midnightblue" points="102.17,-364.76 96.63,-355.73 95.33,-366.25 102.17,-364.76"/>
</g>
<!-- Node13 -->
<g id="node13" class="node">
<title>Node13</title>
<g id="a_node13"><a xlink:href="_unit_group_8hpp.html" target="_top" xlink:title=" ">
<polygon fill="white" stroke="black" points="123.5,-392.5 123.5,-411.5 268.5,-411.5 268.5,-392.5 123.5,-392.5"/>
<text text-anchor="middle" x="196" y="-399.5" font-family="Helvetica,sans-Serif" font-size="10.00">engine/objects/UnitGroup.hpp</text>
</a>
</g>
</g>
<!-- Node1&#45;&gt;Node13 -->
<g id="edge19" class="edge">
<title>Node1&#45;&gt;Node13</title>
<path fill="none" stroke="midnightblue" d="M153.42,-448.08C160.85,-440.22 171.85,-428.57 180.81,-419.08"/>
<polygon fill="midnightblue" stroke="midnightblue" points="183.41,-421.42 187.74,-411.75 178.32,-416.62 183.41,-421.42"/>
</g>
<!-- Node3 -->
<g id="node3" class="node">
<title>Node3</title>
<g id="a_node3"><a xlink:href="_drawable_8hpp.html" target="_top" xlink:title=" ">
<polygon fill="white" stroke="black" points="47.5,-56.5 47.5,-75.5 154.5,-75.5 154.5,-56.5 47.5,-56.5"/>
<text text-anchor="middle" x="101" y="-63.5" font-family="Helvetica,sans-Serif" font-size="10.00">engine/Drawable.hpp</text>
</a>
</g>
</g>
<!-- Node2&#45;&gt;Node3 -->
<g id="edge2" class="edge">
<title>Node2&#45;&gt;Node3</title>
<path fill="none" stroke="midnightblue" d="M79.31,-336.4C52.33,-320.31 0,-282.94 0,-235 0,-235 0,-235 0,-177 0,-132.59 45.21,-98.37 75.14,-80.58"/>
<polygon fill="midnightblue" stroke="midnightblue" points="76.92,-83.59 83.87,-75.59 73.45,-77.51 76.92,-83.59"/>
</g>
<!-- Node6 -->
<g id="node6" class="node">
<title>Node6</title>
<g id="a_node6"><a xlink:href="_world_actor_8hpp.html" target="_top" xlink:title=" ">
<polygon fill="white" stroke="black" points="196,-280.5 196,-299.5 310,-299.5 310,-280.5 196,-280.5"/>
<text text-anchor="middle" x="253" y="-287.5" font-family="Helvetica,sans-Serif" font-size="10.00">engine/WorldActor.hpp</text>
</a>
</g>
</g>
<!-- Node2&#45;&gt;Node6 -->
<g id="edge5" class="edge">
<title>Node2&#45;&gt;Node6</title>
<path fill="none" stroke="midnightblue" d="M120.04,-336.44C146.62,-327.36 188.81,-312.94 218.52,-302.78"/>
<polygon fill="midnightblue" stroke="midnightblue" points="219.75,-306.06 228.08,-299.52 217.49,-299.44 219.75,-306.06"/>
</g>
<!-- Node4 -->
<g id="node4" class="node">
<title>Node4</title>
<g id="a_node4"><a xlink:title=" ">
<polygon fill="white" stroke="#bfbfbf" points="68,-0.5 68,-19.5 134,-19.5 134,-0.5 68,-0.5"/>
<text text-anchor="middle" x="101" y="-7.5" font-family="Helvetica,sans-Serif" font-size="10.00">string_view</text>
</a>
</g>
</g>
<!-- Node3&#45;&gt;Node4 -->
<g id="edge3" class="edge">
<title>Node3&#45;&gt;Node4</title>
<path fill="none" stroke="midnightblue" d="M101,-56.08C101,-49.01 101,-38.86 101,-29.99"/>
<polygon fill="midnightblue" stroke="midnightblue" points="104.5,-29.75 101,-19.75 97.5,-29.75 104.5,-29.75"/>
</g>
<!-- Node5 -->
<g id="node5" class="node">
<title>Node5</title>
<g id="a_node5"><a xlink:href="_vector2_d_8hpp.html" target="_top" xlink:title=" ">
<polygon fill="white" stroke="black" points="292,-0.5 292,-19.5 404,-19.5 404,-0.5 292,-0.5"/>
<text text-anchor="middle" x="348" y="-7.5" font-family="Helvetica,sans-Serif" font-size="10.00">Helpers/Vector2D.hpp</text>
</a>
</g>
</g>
<!-- Node3&#45;&gt;Node5 -->
<g id="edge4" class="edge">
<title>Node3&#45;&gt;Node5</title>
<path fill="none" stroke="midnightblue" d="M140.14,-56.44C183.23,-47.02 252.56,-31.87 299.17,-21.68"/>
<polygon fill="midnightblue" stroke="midnightblue" points="300.02,-25.07 309.05,-19.52 298.53,-18.23 300.02,-25.07"/>
</g>
<!-- Node6&#45;&gt;Node5 -->
<g id="edge6" class="edge">
<title>Node6&#45;&gt;Node5</title>
<path fill="none" stroke="midnightblue" d="M279.91,-280.41C318.78,-266.13 386,-233.54 386,-179 386,-179 386,-179 386,-121 386,-86.81 369.4,-49.76 358.14,-28.57"/>
<polygon fill="midnightblue" stroke="midnightblue" points="361.18,-26.83 353.28,-19.77 355.05,-30.22 361.18,-26.83"/>
</g>
<!-- Node7 -->
<g id="node7" class="node">
<title>Node7</title>
<g id="a_node7"><a xlink:href="_field_8hpp.html" target="_top" xlink:title=" ">
<polygon fill="white" stroke="black" points="225,-224.5 225,-243.5 281,-243.5 281,-224.5 225,-224.5"/>
<text text-anchor="middle" x="253" y="-231.5" font-family="Helvetica,sans-Serif" font-size="10.00">Field.hpp</text>
</a>
</g>
</g>
<!-- Node6&#45;&gt;Node7 -->
<g id="edge7" class="edge">
<title>Node6&#45;&gt;Node7</title>
<path fill="none" stroke="midnightblue" d="M253,-280.08C253,-273.01 253,-262.86 253,-253.99"/>
<polygon fill="midnightblue" stroke="midnightblue" points="256.5,-253.75 253,-243.75 249.5,-253.75 256.5,-253.75"/>
</g>
<!-- Node7&#45;&gt;Node5 -->
<g id="edge18" class="edge">
<title>Node7&#45;&gt;Node5</title>
<path fill="none" stroke="midnightblue" d="M258.95,-224.25C264.88,-215.33 274.09,-201 281,-188 310.22,-132.99 332.9,-62.39 342.71,-29.46"/>
<polygon fill="midnightblue" stroke="midnightblue" points="346.08,-30.39 345.53,-19.81 339.36,-28.42 346.08,-30.39"/>
</g>
<!-- Node8 -->
<g id="node8" class="node">
<title>Node8</title>
<g id="a_node8"><a xlink:href="_cell_8hpp.html" target="_top" xlink:title=" ">
<polygon fill="white" stroke="black" points="154.5,-168.5 154.5,-187.5 271.5,-187.5 271.5,-168.5 154.5,-168.5"/>
<text text-anchor="middle" x="213" y="-175.5" font-family="Helvetica,sans-Serif" font-size="10.00">engine/objects/Cell.hpp</text>
</a>
</g>
</g>
<!-- Node7&#45;&gt;Node8 -->
<g id="edge8" class="edge">
<title>Node7&#45;&gt;Node8</title>
<path fill="none" stroke="midnightblue" d="M246.39,-224.08C240.74,-216.46 232.46,-205.26 225.55,-195.94"/>
<polygon fill="midnightblue" stroke="midnightblue" points="228.25,-193.7 219.48,-187.75 222.62,-197.87 228.25,-193.7"/>
</g>
<!-- Node8&#45;&gt;Node3 -->
<g id="edge9" class="edge">
<title>Node8&#45;&gt;Node3</title>
<path fill="none" stroke="midnightblue" d="M159.01,-168.48C119.04,-160.94 69.46,-148.56 57,-132 44.44,-115.31 62.7,-95.3 79.37,-81.93"/>
<polygon fill="midnightblue" stroke="midnightblue" points="81.89,-84.42 87.77,-75.6 77.68,-78.83 81.89,-84.42"/>
</g>
<!-- Node9 -->
<g id="node9" class="node">
<title>Node9</title>
<g id="a_node9"><a xlink:href="_tickable_8hpp.html" target="_top" xlink:title=" ">
<polygon fill="white" stroke="black" points="197.5,-56.5 197.5,-75.5 300.5,-75.5 300.5,-56.5 197.5,-56.5"/>
<text text-anchor="middle" x="249" y="-63.5" font-family="Helvetica,sans-Serif" font-size="10.00">engine/Tickable.hpp</text>
</a>
</g>
</g>
<!-- Node8&#45;&gt;Node9 -->
<g id="edge10" class="edge">
<title>Node8&#45;&gt;Node9</title>
<path fill="none" stroke="midnightblue" d="M242.12,-168.44C259.64,-161.62 280.52,-150.14 291,-132 301.09,-114.53 284.89,-95.18 269.77,-82.18"/>
<polygon fill="midnightblue" stroke="midnightblue" points="271.64,-79.19 261.65,-75.66 267.25,-84.65 271.64,-79.19"/>
</g>
<!-- Node10 -->
<g id="node10" class="node">
<title>Node10</title>
<g id="a_node10"><a xlink:title=" ">
<polygon fill="white" stroke="#bfbfbf" points="154,-112.5 154,-131.5 198,-131.5 198,-112.5 154,-112.5"/>
<text text-anchor="middle" x="176" y="-119.5" font-family="Helvetica,sans-Serif" font-size="10.00">vector</text>
</a>
</g>
</g>
<!-- Node8&#45;&gt;Node10 -->
<g id="edge11" class="edge">
<title>Node8&#45;&gt;Node10</title>
<path fill="none" stroke="midnightblue" d="M206.89,-168.08C201.72,-160.53 194.15,-149.49 187.81,-140.23"/>
<polygon fill="midnightblue" stroke="midnightblue" points="190.54,-138.02 182,-131.75 184.76,-141.98 190.54,-138.02"/>
</g>
<!-- Node11 -->
<g id="node11" class="node">
<title>Node11</title>
<g id="a_node11"><a xlink:href="_ground_8hpp.html" target="_top" xlink:title=" ">
<polygon fill="white" stroke="black" points="216,-112.5 216,-131.5 282,-131.5 282,-112.5 216,-112.5"/>
<text text-anchor="middle" x="249" y="-119.5" font-family="Helvetica,sans-Serif" font-size="10.00">Ground.hpp</text>
</a>
</g>
</g>
<!-- Node8&#45;&gt;Node11 -->
<g id="edge12" class="edge">
<title>Node8&#45;&gt;Node11</title>
<path fill="none" stroke="midnightblue" d="M218.94,-168.08C223.98,-160.53 231.34,-149.49 237.51,-140.23"/>
<polygon fill="midnightblue" stroke="midnightblue" points="240.53,-142.01 243.17,-131.75 234.71,-138.13 240.53,-142.01"/>
</g>
<!-- Node12 -->
<g id="node12" class="node">
<title>Node12</title>
<g id="a_node12"><a xlink:href="_building_8hpp.html" target="_top" xlink:title=" ">
<polygon fill="white" stroke="black" points="66.5,-112.5 66.5,-131.5 135.5,-131.5 135.5,-112.5 66.5,-112.5"/>
<text text-anchor="middle" x="101" y="-119.5" font-family="Helvetica,sans-Serif" font-size="10.00">Building.hpp</text>
</a>
</g>
</g>
<!-- Node8&#45;&gt;Node12 -->
<g id="edge15" class="edge">
<title>Node8&#45;&gt;Node12</title>
<path fill="none" stroke="midnightblue" d="M195.01,-168.32C176.96,-159.62 148.95,-146.12 128.2,-136.11"/>
<polygon fill="midnightblue" stroke="midnightblue" points="129.48,-132.84 118.95,-131.65 126.44,-139.15 129.48,-132.84"/>
</g>
<!-- Node11&#45;&gt;Node3 -->
<g id="edge13" class="edge">
<title>Node11&#45;&gt;Node3</title>
<path fill="none" stroke="midnightblue" d="M225.55,-112.44C200.87,-103.44 161.81,-89.19 134.02,-79.05"/>
<polygon fill="midnightblue" stroke="midnightblue" points="134.94,-75.66 124.34,-75.52 132.54,-82.23 134.94,-75.66"/>
</g>
<!-- Node11&#45;&gt;Node9 -->
<g id="edge14" class="edge">
<title>Node11&#45;&gt;Node9</title>
<path fill="none" stroke="midnightblue" d="M249,-112.08C249,-105.01 249,-94.86 249,-85.99"/>
<polygon fill="midnightblue" stroke="midnightblue" points="252.5,-85.75 249,-75.75 245.5,-85.75 252.5,-85.75"/>
</g>
<!-- Node12&#45;&gt;Node3 -->
<g id="edge16" class="edge">
<title>Node12&#45;&gt;Node3</title>
<path fill="none" stroke="midnightblue" d="M101,-112.08C101,-105.01 101,-94.86 101,-85.99"/>
<polygon fill="midnightblue" stroke="midnightblue" points="104.5,-85.75 101,-75.75 97.5,-85.75 104.5,-85.75"/>
</g>
<!-- Node12&#45;&gt;Node9 -->
<g id="edge17" class="edge">
<title>Node12&#45;&gt;Node9</title>
<path fill="none" stroke="midnightblue" d="M124.45,-112.44C149.13,-103.44 188.19,-89.19 215.98,-79.05"/>
<polygon fill="midnightblue" stroke="midnightblue" points="217.46,-82.23 225.66,-75.52 215.06,-75.66 217.46,-82.23"/>
</g>
<!-- Node14 -->
<g id="node14" class="node">
<title>Node14</title>
<g id="a_node14"><a xlink:href="_unit_8hpp.html" target="_top" xlink:title=" ">
<polygon fill="white" stroke="black" points="226.5,-336.5 226.5,-355.5 279.5,-355.5 279.5,-336.5 226.5,-336.5"/>
<text text-anchor="middle" x="253" y="-343.5" font-family="Helvetica,sans-Serif" font-size="10.00">Unit.hpp</text>
</a>
</g>
</g>
<!-- Node13&#45;&gt;Node14 -->
<g id="edge20" class="edge">
<title>Node13&#45;&gt;Node14</title>
<path fill="none" stroke="midnightblue" d="M205.16,-392.32C213.5,-384.42 226.03,-372.55 236.18,-362.94"/>
<polygon fill="midnightblue" stroke="midnightblue" points="238.82,-365.25 243.68,-355.83 234.01,-360.17 238.82,-365.25"/>
</g>
<!-- Node15 -->
<g id="node15" class="node">
<title>Node15</title>
<g id="a_node15"><a xlink:title=" ">
<polygon fill="white" stroke="#bfbfbf" points="179.5,-336.5 179.5,-355.5 208.5,-355.5 208.5,-336.5 179.5,-336.5"/>
<text text-anchor="middle" x="194" y="-343.5" font-family="Helvetica,sans-Serif" font-size="10.00">list</text>
</a>
</g>
</g>
<!-- Node13&#45;&gt;Node15 -->
<g id="edge22" class="edge">
<title>Node13&#45;&gt;Node15</title>
<path fill="none" stroke="midnightblue" d="M195.67,-392.08C195.41,-385.01 195.03,-374.86 194.7,-365.99"/>
<polygon fill="midnightblue" stroke="midnightblue" points="198.19,-365.61 194.32,-355.75 191.2,-365.87 198.19,-365.61"/>
</g>
<!-- Node14&#45;&gt;Node6 -->
<g id="edge21" class="edge">
<title>Node14&#45;&gt;Node6</title>
<path fill="none" stroke="midnightblue" d="M253,-336.08C253,-329.01 253,-318.86 253,-309.99"/>
<polygon fill="midnightblue" stroke="midnightblue" points="256.5,-309.75 253,-299.75 249.5,-309.75 256.5,-309.75"/>
</g>
</g>
</svg>
