<?xml version="1.0" encoding="UTF-8" standalone="no"?>
<!DOCTYPE svg PUBLIC "-//W3C//DTD SVG 1.1//EN"
 "http://www.w3.org/Graphics/SVG/1.1/DTD/svg11.dtd">
<!-- Generated by graphviz version 2.47.0 (20210407.0042)
 -->
<!-- Title: include/Engine.hpp Pages: 1 -->
<svg width="412pt" height="532pt"
 viewBox="0.00 0.00 412.00 532.00" xmlns="http://www.w3.org/2000/svg" xmlns:xlink="http://www.w3.org/1999/xlink">
<g id="graph0" class="graph" transform="scale(1 1) rotate(0) translate(4 528)">
<title>include/Engine.hpp</title>
<polygon fill="white" stroke="transparent" points="-4,4 -4,-528 408,-528 408,4 -4,4"/>
<!-- Node1 -->
<g id="node1" class="node">
<title>Node1</title>
<g id="a_node1"><a xlink:title=" ">
<polygon fill="#bfbfbf" stroke="black" points="96,-504.5 96,-523.5 194,-523.5 194,-504.5 96,-504.5"/>
<text text-anchor="middle" x="145" y="-511.5" font-family="Helvetica,sans-Serif" font-size="10.00">include/Engine.hpp</text>
</a>
</g>
</g>
<!-- Node2 -->
<g id="node2" class="node">
<title>Node2</title>
<g id="a_node2"><a xlink:href="_player_8hpp.html" target="_top" xlink:title=" ">
<polygon fill="white" stroke="black" points="31,-392.5 31,-411.5 159,-411.5 159,-392.5 31,-392.5"/>
<text text-anchor="middle" x="95" y="-399.5" font-family="Helvetica,sans-Serif" font-size="10.00">engine/objects/Player.hpp</text>
</a>
</g>
</g>
<!-- Node1&#45;&gt;Node2 -->
<g id="edge1" class="edge">
<title>Node1&#45;&gt;Node2</title>
<path fill="none" stroke="midnightblue" d="M137.68,-504.22C130.74,-495.51 120.44,-481.54 114,-468 106.9,-453.07 101.87,-434.93 98.77,-421.61"/>
<polygon fill="midnightblue" stroke="midnightblue" points="102.17,-420.76 96.63,-411.73 95.33,-422.25 102.17,-420.76"/>
</g>
<!-- Node14 -->
<g id="node14" class="node">
<title>Node14</title>
<g id="a_node14"><a xlink:href="_unit_group_8hpp.html" target="_top" xlink:title=" ">
<polygon fill="white" stroke="black" points="123.5,-448.5 123.5,-467.5 268.5,-467.5 268.5,-448.5 123.5,-448.5"/>
<text text-anchor="middle" x="196" y="-455.5" font-family="Helvetica,sans-Serif" font-size="10.00">engine/objects/UnitGroup.hpp</text>
</a>
</g>
</g>
<!-- Node1&#45;&gt;Node14 -->
<g id="edge20" class="edge">
<title>Node1&#45;&gt;Node14</title>
<path fill="none" stroke="midnightblue" d="M153.42,-504.08C160.85,-496.22 171.85,-484.57 180.81,-475.08"/>
<polygon fill="midnightblue" stroke="midnightblue" points="183.41,-477.42 187.74,-467.75 178.32,-472.62 183.41,-477.42"/>
</g>
<!-- Node3 -->
<g id="node3" class="node">
<title>Node3</title>
<g id="a_node3"><a xlink:href="_drawable_8hpp.html" target="_top" xlink:title=" ">
<polygon fill="white" stroke="black" points="47.5,-112.5 47.5,-131.5 154.5,-131.5 154.5,-112.5 47.5,-112.5"/>
<text text-anchor="middle" x="101" y="-119.5" font-family="Helvetica,sans-Serif" font-size="10.00">engine/Drawable.hpp</text>
</a>
</g>
</g>
<!-- Node2&#45;&gt;Node3 -->
<g id="edge2" class="edge">
<title>Node2&#45;&gt;Node3</title>
<path fill="none" stroke="midnightblue" d="M79.31,-392.4C52.33,-376.31 0,-338.94 0,-291 0,-291 0,-291 0,-233 0,-188.59 45.21,-154.37 75.14,-136.58"/>
<polygon fill="midnightblue" stroke="midnightblue" points="76.92,-139.59 83.87,-131.59 73.45,-133.51 76.92,-139.59"/>
</g>
<!-- Node7 -->
<g id="node7" class="node">
<title>Node7</title>
<g id="a_node7"><a xlink:href="_world_actor_8hpp.html" target="_top" xlink:title=" ">
<polygon fill="white" stroke="black" points="196,-336.5 196,-355.5 310,-355.5 310,-336.5 196,-336.5"/>
<text text-anchor="middle" x="253" y="-343.5" font-family="Helvetica,sans-Serif" font-size="10.00">engine/WorldActor.hpp</text>
</a>
</g>
</g>
<!-- Node2&#45;&gt;Node7 -->
<g id="edge6" class="edge">
<title>Node2&#45;&gt;Node7</title>
<path fill="none" stroke="midnightblue" d="M120.04,-392.44C146.62,-383.36 188.81,-368.94 218.52,-358.78"/>
<polygon fill="midnightblue" stroke="midnightblue" points="219.75,-362.06 228.08,-355.52 217.49,-355.44 219.75,-362.06"/>
</g>
<!-- Node4 -->
<g id="node4" class="node">
<title>Node4</title>
<g id="a_node4"><a xlink:title=" ">
<polygon fill="white" stroke="#bfbfbf" points="68,-56.5 68,-75.5 134,-75.5 134,-56.5 68,-56.5"/>
<text text-anchor="middle" x="101" y="-63.5" font-family="Helvetica,sans-Serif" font-size="10.00">string_view</text>
</a>
</g>
</g>
<!-- Node3&#45;&gt;Node4 -->
<g id="edge3" class="edge">
<title>Node3&#45;&gt;Node4</title>
<path fill="none" stroke="midnightblue" d="M101,-112.08C101,-105.01 101,-94.86 101,-85.99"/>
<polygon fill="midnightblue" stroke="midnightblue" points="104.5,-85.75 101,-75.75 97.5,-85.75 104.5,-85.75"/>
</g>
<!-- Node5 -->
<g id="node5" class="node">
<title>Node5</title>
<g id="a_node5"><a xlink:href="_vector2_d_8hpp.html" target="_top" xlink:title=" ">
<polygon fill="white" stroke="black" points="292,-56.5 292,-75.5 404,-75.5 404,-56.5 292,-56.5"/>
<text text-anchor="middle" x="348" y="-63.5" font-family="Helvetica,sans-Serif" font-size="10.00">Helpers/Vector2D.hpp</text>
</a>
</g>
</g>
<!-- Node3&#45;&gt;Node5 -->
<g id="edge4" class="edge">
<title>Node3&#45;&gt;Node5</title>
<path fill="none" stroke="midnightblue" d="M140.14,-112.44C183.23,-103.02 252.56,-87.87 299.17,-77.68"/>
<polygon fill="midnightblue" stroke="midnightblue" points="300.02,-81.07 309.05,-75.52 298.53,-74.23 300.02,-81.07"/>
</g>
<!-- Node6 -->
<g id="node6" class="node">
<title>Node6</title>
<g id="a_node6"><a xlink:title=" ">
<polygon fill="white" stroke="#bfbfbf" points="328.5,-0.5 328.5,-19.5 367.5,-19.5 367.5,-0.5 328.5,-0.5"/>
<text text-anchor="middle" x="348" y="-7.5" font-family="Helvetica,sans-Serif" font-size="10.00">utility</text>
</a>
</g>
</g>
<!-- Node5&#45;&gt;Node6 -->
<g id="edge5" class="edge">
<title>Node5&#45;&gt;Node6</title>
<path fill="none" stroke="midnightblue" d="M348,-56.08C348,-49.01 348,-38.86 348,-29.99"/>
<polygon fill="midnightblue" stroke="midnightblue" points="351.5,-29.75 348,-19.75 344.5,-29.75 351.5,-29.75"/>
</g>
<!-- Node7&#45;&gt;Node5 -->
<g id="edge7" class="edge">
<title>Node7&#45;&gt;Node5</title>
<path fill="none" stroke="midnightblue" d="M279.91,-336.41C318.78,-322.13 386,-289.54 386,-235 386,-235 386,-235 386,-177 386,-142.81 369.4,-105.76 358.14,-84.57"/>
<polygon fill="midnightblue" stroke="midnightblue" points="361.18,-82.83 353.28,-75.77 355.05,-86.22 361.18,-82.83"/>
</g>
<!-- Node8 -->
<g id="node8" class="node">
<title>Node8</title>
<g id="a_node8"><a xlink:href="_field_8hpp.html" target="_top" xlink:title=" ">
<polygon fill="white" stroke="black" points="225,-280.5 225,-299.5 281,-299.5 281,-280.5 225,-280.5"/>
<text text-anchor="middle" x="253" y="-287.5" font-family="Helvetica,sans-Serif" font-size="10.00">Field.hpp</text>
</a>
</g>
</g>
<!-- Node7&#45;&gt;Node8 -->
<g id="edge8" class="edge">
<title>Node7&#45;&gt;Node8</title>
<path fill="none" stroke="midnightblue" d="M253,-336.08C253,-329.01 253,-318.86 253,-309.99"/>
<polygon fill="midnightblue" stroke="midnightblue" points="256.5,-309.75 253,-299.75 249.5,-309.75 256.5,-309.75"/>
</g>
<!-- Node8&#45;&gt;Node5 -->
<g id="edge19" class="edge">
<title>Node8&#45;&gt;Node5</title>
<path fill="none" stroke="midnightblue" d="M258.95,-280.25C264.88,-271.33 274.09,-257 281,-244 310.22,-188.99 332.9,-118.39 342.71,-85.46"/>
<polygon fill="midnightblue" stroke="midnightblue" points="346.08,-86.39 345.53,-75.81 339.36,-84.42 346.08,-86.39"/>
</g>
<!-- Node9 -->
<g id="node9" class="node">
<title>Node9</title>
<g id="a_node9"><a xlink:href="_cell_8hpp.html" target="_top" xlink:title=" ">
<polygon fill="white" stroke="black" points="154.5,-224.5 154.5,-243.5 271.5,-243.5 271.5,-224.5 154.5,-224.5"/>
<text text-anchor="middle" x="213" y="-231.5" font-family="Helvetica,sans-Serif" font-size="10.00">engine/objects/Cell.hpp</text>
</a>
</g>
</g>
<!-- Node8&#45;&gt;Node9 -->
<g id="edge9" class="edge">
<title>Node8&#45;&gt;Node9</title>
<path fill="none" stroke="midnightblue" d="M246.39,-280.08C240.74,-272.46 232.46,-261.26 225.55,-251.94"/>
<polygon fill="midnightblue" stroke="midnightblue" points="228.25,-249.7 219.48,-243.75 222.62,-253.87 228.25,-249.7"/>
</g>
<!-- Node9&#45;&gt;Node3 -->
<g id="edge10" class="edge">
<title>Node9&#45;&gt;Node3</title>
<path fill="none" stroke="midnightblue" d="M159.01,-224.48C119.04,-216.94 69.46,-204.56 57,-188 44.44,-171.31 62.7,-151.3 79.37,-137.93"/>
<polygon fill="midnightblue" stroke="midnightblue" points="81.89,-140.42 87.77,-131.6 77.68,-134.83 81.89,-140.42"/>
</g>
<!-- Node10 -->
<g id="node10" class="node">
<title>Node10</title>
<g id="a_node10"><a xlink:href="_tickable_8hpp.html" target="_top" xlink:title=" ">
<polygon fill="white" stroke="black" points="197.5,-112.5 197.5,-131.5 300.5,-131.5 300.5,-112.5 197.5,-112.5"/>
<text text-anchor="middle" x="249" y="-119.5" font-family="Helvetica,sans-Serif" font-size="10.00">engine/Tickable.hpp</text>
</a>
</g>
</g>
<!-- Node9&#45;&gt;Node10 -->
<g id="edge11" class="edge">
<title>Node9&#45;&gt;Node10</title>
<path fill="none" stroke="midnightblue" d="M242.12,-224.44C259.64,-217.62 280.52,-206.14 291,-188 301.09,-170.53 284.89,-151.18 269.77,-138.18"/>
<polygon fill="midnightblue" stroke="midnightblue" points="271.64,-135.19 261.65,-131.66 267.25,-140.65 271.64,-135.19"/>
</g>
<!-- Node11 -->
<g id="node11" class="node">
<title>Node11</title>
<g id="a_node11"><a xlink:title=" ">
<polygon fill="white" stroke="#bfbfbf" points="154,-168.5 154,-187.5 198,-187.5 198,-168.5 154,-168.5"/>
<text text-anchor="middle" x="176" y="-175.5" font-family="Helvetica,sans-Serif" font-size="10.00">vector</text>
</a>
</g>
</g>
<!-- Node9&#45;&gt;Node11 -->
<g id="edge12" class="edge">
<title>Node9&#45;&gt;Node11</title>
<path fill="none" stroke="midnightblue" d="M206.89,-224.08C201.72,-216.53 194.15,-205.49 187.81,-196.23"/>
<polygon fill="midnightblue" stroke="midnightblue" points="190.54,-194.02 182,-187.75 184.76,-197.98 190.54,-194.02"/>
</g>
<!-- Node12 -->
<g id="node12" class="node">
<title>Node12</title>
<g id="a_node12"><a xlink:href="_ground_8hpp.html" target="_top" xlink:title=" ">
<polygon fill="white" stroke="black" points="216,-168.5 216,-187.5 282,-187.5 282,-168.5 216,-168.5"/>
<text text-anchor="middle" x="249" y="-175.5" font-family="Helvetica,sans-Serif" font-size="10.00">Ground.hpp</text>
</a>
</g>
</g>
<!-- Node9&#45;&gt;Node12 -->
<g id="edge13" class="edge">
<title>Node9&#45;&gt;Node12</title>
<path fill="none" stroke="midnightblue" d="M218.94,-224.08C223.98,-216.53 231.34,-205.49 237.51,-196.23"/>
<polygon fill="midnightblue" stroke="midnightblue" points="240.53,-198.01 243.17,-187.75 234.71,-194.13 240.53,-198.01"/>
</g>
<!-- Node13 -->
<g id="node13" class="node">
<title>Node13</title>
<g id="a_node13"><a xlink:href="_building_8hpp.html" target="_top" xlink:title=" ">
<polygon fill="white" stroke="black" points="66.5,-168.5 66.5,-187.5 135.5,-187.5 135.5,-168.5 66.5,-168.5"/>
<text text-anchor="middle" x="101" y="-175.5" font-family="Helvetica,sans-Serif" font-size="10.00">Building.hpp</text>
</a>
</g>
</g>
<!-- Node9&#45;&gt;Node13 -->
<g id="edge16" class="edge">
<title>Node9&#45;&gt;Node13</title>
<path fill="none" stroke="midnightblue" d="M195.01,-224.32C176.96,-215.62 148.95,-202.12 128.2,-192.11"/>
<polygon fill="midnightblue" stroke="midnightblue" points="129.48,-188.84 118.95,-187.65 126.44,-195.15 129.48,-188.84"/>
</g>
<!-- Node12&#45;&gt;Node3 -->
<g id="edge14" class="edge">
<title>Node12&#45;&gt;Node3</title>
<path fill="none" stroke="midnightblue" d="M225.55,-168.44C200.87,-159.44 161.81,-145.19 134.02,-135.05"/>
<polygon fill="midnightblue" stroke="midnightblue" points="134.94,-131.66 124.34,-131.52 132.54,-138.23 134.94,-131.66"/>
</g>
<!-- Node12&#45;&gt;Node10 -->
<g id="edge15" class="edge">
<title>Node12&#45;&gt;Node10</title>
<path fill="none" stroke="midnightblue" d="M249,-168.08C249,-161.01 249,-150.86 249,-141.99"/>
<polygon fill="midnightblue" stroke="midnightblue" points="252.5,-141.75 249,-131.75 245.5,-141.75 252.5,-141.75"/>
</g>
<!-- Node13&#45;&gt;Node3 -->
<g id="edge17" class="edge">
<title>Node13&#45;&gt;Node3</title>
<path fill="none" stroke="midnightblue" d="M101,-168.08C101,-161.01 101,-150.86 101,-141.99"/>
<polygon fill="midnightblue" stroke="midnightblue" points="104.5,-141.75 101,-131.75 97.5,-141.75 104.5,-141.75"/>
</g>
<!-- Node13&#45;&gt;Node10 -->
<g id="edge18" class="edge">
<title>Node13&#45;&gt;Node10</title>
<path fill="none" stroke="midnightblue" d="M124.45,-168.44C149.13,-159.44 188.19,-145.19 215.98,-135.05"/>
<polygon fill="midnightblue" stroke="midnightblue" points="217.46,-138.23 225.66,-131.52 215.06,-131.66 217.46,-138.23"/>
</g>
<!-- Node15 -->
<g id="node15" class="node">
<title>Node15</title>
<g id="a_node15"><a xlink:href="_unit_8hpp.html" target="_top" xlink:title=" ">
<polygon fill="white" stroke="black" points="226.5,-392.5 226.5,-411.5 279.5,-411.5 279.5,-392.5 226.5,-392.5"/>
<text text-anchor="middle" x="253" y="-399.5" font-family="Helvetica,sans-Serif" font-size="10.00">Unit.hpp</text>
</a>
</g>
</g>
<!-- Node14&#45;&gt;Node15 -->
<g id="edge21" class="edge">
<title>Node14&#45;&gt;Node15</title>
<path fill="none" stroke="midnightblue" d="M205.16,-448.32C213.5,-440.42 226.03,-428.55 236.18,-418.94"/>
<polygon fill="midnightblue" stroke="midnightblue" points="238.82,-421.25 243.68,-411.83 234.01,-416.17 238.82,-421.25"/>
</g>
<!-- Node16 -->
<g id="node16" class="node">
<title>Node16</title>
<g id="a_node16"><a xlink:title=" ">
<polygon fill="white" stroke="#bfbfbf" points="179.5,-392.5 179.5,-411.5 208.5,-411.5 208.5,-392.5 179.5,-392.5"/>
<text text-anchor="middle" x="194" y="-399.5" font-family="Helvetica,sans-Serif" font-size="10.00">list</text>
</a>
</g>
</g>
<!-- Node14&#45;&gt;Node16 -->
<g id="edge23" class="edge">
<title>Node14&#45;&gt;Node16</title>
<path fill="none" stroke="midnightblue" d="M195.67,-448.08C195.41,-441.01 195.03,-430.86 194.7,-421.99"/>
<polygon fill="midnightblue" stroke="midnightblue" points="198.19,-421.61 194.32,-411.75 191.2,-421.87 198.19,-421.61"/>
</g>
<!-- Node15&#45;&gt;Node7 -->
<g id="edge22" class="edge">
<title>Node15&#45;&gt;Node7</title>
<path fill="none" stroke="midnightblue" d="M253,-392.08C253,-385.01 253,-374.86 253,-365.99"/>
<polygon fill="midnightblue" stroke="midnightblue" points="256.5,-365.75 253,-355.75 249.5,-365.75 256.5,-365.75"/>
</g>
</g>
</svg>
