<?xml version="1.0" encoding="UTF-8" standalone="no"?>
<!DOCTYPE svg PUBLIC "-//W3C//DTD SVG 1.1//EN"
 "http://www.w3.org/Graphics/SVG/1.1/DTD/svg11.dtd">
<!-- Generated by graphviz version 2.47.1 (20210421.1823)
 -->
<!-- Title: src/Engine.cpp Pages: 1 -->
<svg width="1112pt" height="644pt"
 viewBox="0.00 0.00 1111.50 644.00" xmlns="http://www.w3.org/2000/svg" xmlns:xlink="http://www.w3.org/1999/xlink">
<g id="graph0" class="graph" transform="scale(1 1) rotate(0) translate(4 640)">
<title>src/Engine.cpp</title>
<polygon fill="white" stroke="transparent" points="-4,4 -4,-640 1107.5,-640 1107.5,4 -4,4"/>
<!-- Node1 -->
<g id="node1" class="node">
<title>Node1</title>
<g id="a_node1"><a xlink:title=" ">
<polygon fill="#bfbfbf" stroke="black" points="532,-616.5 532,-635.5 612,-635.5 612,-616.5 532,-616.5"/>
<text text-anchor="middle" x="572" y="-623.5" font-family="Helvetica,sans-Serif" font-size="10.00">src/Engine.cpp</text>
</a>
</g>
</g>
<!-- Node2 -->
<g id="node2" class="node">
<title>Node2</title>
<g id="a_node2"><a xlink:href="_engine_8hpp.html" target="_top" xlink:title=" ">
<polygon fill="white" stroke="black" points="446,-560.5 446,-579.5 510,-579.5 510,-560.5 446,-560.5"/>
<text text-anchor="middle" x="478" y="-567.5" font-family="Helvetica,sans-Serif" font-size="10.00">Engine.hpp</text>
</a>
</g>
</g>
<!-- Node1&#45;&gt;Node2 -->
<g id="edge1" class="edge">
<title>Node1&#45;&gt;Node2</title>
<path fill="none" stroke="midnightblue" d="M556.9,-616.32C542.1,-607.82 519.31,-594.73 502.02,-584.8"/>
<polygon fill="midnightblue" stroke="midnightblue" points="503.48,-581.6 493.07,-579.65 499.99,-587.67 503.48,-581.6"/>
</g>
<!-- Node20 -->
<g id="node20" class="node">
<title>Node20</title>
<g id="a_node20"><a xlink:href="_resource_manager_8hpp.html" target="_top" xlink:title=" ">
<polygon fill="white" stroke="black" points="801.5,-280.5 801.5,-299.5 954.5,-299.5 954.5,-280.5 801.5,-280.5"/>
<text text-anchor="middle" x="878" y="-287.5" font-family="Helvetica,sans-Serif" font-size="10.00">graphics/ResourceManager.hpp</text>
</a>
</g>
</g>
<!-- Node1&#45;&gt;Node20 -->
<g id="edge27" class="edge">
<title>Node1&#45;&gt;Node20</title>
<path fill="none" stroke="midnightblue" d="M577.28,-616.23C587.73,-598.04 610,-554.6 610,-515 610,-515 610,-515 610,-401 610,-321.34 712.59,-298.14 790.82,-292.04"/>
<polygon fill="midnightblue" stroke="midnightblue" points="791.47,-295.5 801.2,-291.31 790.98,-288.52 791.47,-295.5"/>
</g>
<!-- Node32 -->
<g id="node32" class="node">
<title>Node32</title>
<g id="a_node32"><a xlink:href="_g_u_i_manager_8hpp.html" target="_top" xlink:title=" ">
<polygon fill="white" stroke="black" points="517.5,-224.5 517.5,-243.5 628.5,-243.5 628.5,-224.5 517.5,-224.5"/>
<text text-anchor="middle" x="573" y="-231.5" font-family="Helvetica,sans-Serif" font-size="10.00">GUI/GUIManager.hpp</text>
</a>
</g>
</g>
<!-- Node1&#45;&gt;Node32 -->
<g id="edge51" class="edge">
<title>Node1&#45;&gt;Node32</title>
<path fill="none" stroke="midnightblue" d="M572,-616.44C572,-597.94 572,-552.81 572,-515 572,-515 572,-515 572,-345 572,-312.95 572.43,-275.64 572.73,-253.75"/>
<polygon fill="midnightblue" stroke="midnightblue" points="576.23,-253.61 572.87,-243.56 569.23,-253.51 576.23,-253.61"/>
</g>
<!-- Node34 -->
<g id="node34" class="node">
<title>Node34</title>
<g id="a_node34"><a xlink:href="_states_8hpp.html" target="_top" xlink:title=" ">
<polygon fill="white" stroke="black" points="108,-392.5 108,-411.5 192,-411.5 192,-392.5 108,-392.5"/>
<text text-anchor="middle" x="150" y="-399.5" font-family="Helvetica,sans-Serif" font-size="10.00">GUI/States.hpp</text>
</a>
</g>
</g>
<!-- Node1&#45;&gt;Node34 -->
<g id="edge58" class="edge">
<title>Node1&#45;&gt;Node34</title>
<path fill="none" stroke="midnightblue" d="M532.98,-616.43C476.01,-602.8 368.03,-572.61 287,-524 236.88,-493.93 187.97,-444.5 164.46,-419.13"/>
<polygon fill="midnightblue" stroke="midnightblue" points="166.83,-416.53 157.5,-411.51 161.66,-421.25 166.83,-416.53"/>
</g>
<!-- Node35 -->
<g id="node35" class="node">
<title>Node35</title>
<g id="a_node35"><a xlink:href="_constants_manager_8hpp.html" target="_top" xlink:title=" ">
<polygon fill="white" stroke="black" points="638,-560.5 638,-579.5 754,-579.5 754,-560.5 638,-560.5"/>
<text text-anchor="middle" x="696" y="-567.5" font-family="Helvetica,sans-Serif" font-size="10.00">ConstantsManager.hpp</text>
</a>
</g>
</g>
<!-- Node1&#45;&gt;Node35 -->
<g id="edge60" class="edge">
<title>Node1&#45;&gt;Node35</title>
<path fill="none" stroke="midnightblue" d="M591.65,-616.44C611.96,-607.6 643.9,-593.69 667.1,-583.59"/>
<polygon fill="midnightblue" stroke="midnightblue" points="668.67,-586.72 676.44,-579.52 665.88,-580.3 668.67,-586.72"/>
</g>
<!-- Node3 -->
<g id="node3" class="node">
<title>Node3</title>
<g id="a_node3"><a xlink:href="_player_8hpp.html" target="_top" xlink:title=" ">
<polygon fill="white" stroke="black" points="414,-448.5 414,-467.5 542,-467.5 542,-448.5 414,-448.5"/>
<text text-anchor="middle" x="478" y="-455.5" font-family="Helvetica,sans-Serif" font-size="10.00">engine/objects/Player.hpp</text>
</a>
</g>
</g>
<!-- Node2&#45;&gt;Node3 -->
<g id="edge2" class="edge">
<title>Node2&#45;&gt;Node3</title>
<path fill="none" stroke="midnightblue" d="M478,-560.37C478,-542.62 478,-501.67 478,-477.6"/>
<polygon fill="midnightblue" stroke="midnightblue" points="481.5,-477.59 478,-467.59 474.5,-477.59 481.5,-477.59"/>
</g>
<!-- Node17 -->
<g id="node17" class="node">
<title>Node17</title>
<g id="a_node17"><a xlink:href="_unit_group_8hpp.html" target="_top" xlink:title=" ">
<polygon fill="white" stroke="black" points="296.5,-504.5 296.5,-523.5 441.5,-523.5 441.5,-504.5 296.5,-504.5"/>
<text text-anchor="middle" x="369" y="-511.5" font-family="Helvetica,sans-Serif" font-size="10.00">engine/objects/UnitGroup.hpp</text>
</a>
</g>
</g>
<!-- Node2&#45;&gt;Node17 -->
<g id="edge23" class="edge">
<title>Node2&#45;&gt;Node17</title>
<path fill="none" stroke="midnightblue" d="M460.49,-560.32C442.93,-551.62 415.67,-538.12 395.47,-528.11"/>
<polygon fill="midnightblue" stroke="midnightblue" points="396.98,-524.96 386.47,-523.65 393.88,-531.23 396.98,-524.96"/>
</g>
<!-- Node4 -->
<g id="node4" class="node">
<title>Node4</title>
<g id="a_node4"><a xlink:href="_drawable_8hpp.html" target="_top" xlink:title=" ">
<polygon fill="white" stroke="black" points="244.5,-168.5 244.5,-187.5 351.5,-187.5 351.5,-168.5 244.5,-168.5"/>
<text text-anchor="middle" x="298" y="-175.5" font-family="Helvetica,sans-Serif" font-size="10.00">engine/Drawable.hpp</text>
</a>
</g>
</g>
<!-- Node3&#45;&gt;Node4 -->
<g id="edge3" class="edge">
<title>Node3&#45;&gt;Node4</title>
<path fill="none" stroke="midnightblue" d="M477.35,-448.45C475.99,-429.95 473,-384.85 473,-347 473,-347 473,-347 473,-289 473,-232.31 406.37,-203.7 355.33,-190.1"/>
<polygon fill="midnightblue" stroke="midnightblue" points="355.91,-186.64 345.36,-187.58 354.19,-193.42 355.91,-186.64"/>
</g>
<!-- Node9 -->
<g id="node9" class="node">
<title>Node9</title>
<g id="a_node9"><a xlink:href="_world_actor_8hpp.html" target="_top" xlink:title=" ">
<polygon fill="white" stroke="black" points="322,-392.5 322,-411.5 436,-411.5 436,-392.5 322,-392.5"/>
<text text-anchor="middle" x="379" y="-399.5" font-family="Helvetica,sans-Serif" font-size="10.00">engine/WorldActor.hpp</text>
</a>
</g>
</g>
<!-- Node3&#45;&gt;Node9 -->
<g id="edge8" class="edge">
<title>Node3&#45;&gt;Node9</title>
<path fill="none" stroke="midnightblue" d="M462.09,-448.32C446.36,-439.74 422.06,-426.49 403.79,-416.52"/>
<polygon fill="midnightblue" stroke="midnightblue" points="405.32,-413.37 394.87,-411.65 401.97,-419.52 405.32,-413.37"/>
</g>
<!-- Node5 -->
<g id="node5" class="node">
<title>Node5</title>
<g id="a_node5"><a xlink:title=" ">
<polygon fill="white" stroke="#bfbfbf" points="0,-112.5 0,-131.5 66,-131.5 66,-112.5 0,-112.5"/>
<text text-anchor="middle" x="33" y="-119.5" font-family="Helvetica,sans-Serif" font-size="10.00">string_view</text>
</a>
</g>
</g>
<!-- Node4&#45;&gt;Node5 -->
<g id="edge4" class="edge">
<title>Node4&#45;&gt;Node5</title>
<path fill="none" stroke="midnightblue" d="M256.01,-168.44C206.82,-158.42 125.76,-141.9 76.1,-131.78"/>
<polygon fill="midnightblue" stroke="midnightblue" points="76.5,-128.29 66,-129.73 75.1,-135.15 76.5,-128.29"/>
</g>
<!-- Node6 -->
<g id="node6" class="node">
<title>Node6</title>
<g id="a_node6"><a xlink:href="_vector2_d_8hpp.html" target="_top" xlink:title=" ">
<polygon fill="white" stroke="black" points="485,-112.5 485,-131.5 597,-131.5 597,-112.5 485,-112.5"/>
<text text-anchor="middle" x="541" y="-119.5" font-family="Helvetica,sans-Serif" font-size="10.00">Helpers/Vector2D.hpp</text>
</a>
</g>
</g>
<!-- Node4&#45;&gt;Node6 -->
<g id="edge5" class="edge">
<title>Node4&#45;&gt;Node6</title>
<path fill="none" stroke="midnightblue" d="M336.5,-168.44C378.81,-159.04 446.82,-143.93 492.67,-133.74"/>
<polygon fill="midnightblue" stroke="midnightblue" points="493.67,-137.1 502.68,-131.52 492.15,-130.27 493.67,-137.1"/>
</g>
<!-- Node7 -->
<g id="node7" class="node">
<title>Node7</title>
<g id="a_node7"><a xlink:title=" ">
<polygon fill="white" stroke="#bfbfbf" points="726.5,-56.5 726.5,-75.5 765.5,-75.5 765.5,-56.5 726.5,-56.5"/>
<text text-anchor="middle" x="746" y="-63.5" font-family="Helvetica,sans-Serif" font-size="10.00">utility</text>
</a>
</g>
</g>
<!-- Node6&#45;&gt;Node7 -->
<g id="edge6" class="edge">
<title>Node6&#45;&gt;Node7</title>
<path fill="none" stroke="midnightblue" d="M576.54,-112.47C610.17,-104.28 662.27,-91.27 716.58,-76.01"/>
<polygon fill="midnightblue" stroke="midnightblue" points="717.71,-79.32 726.38,-73.23 715.81,-72.59 717.71,-79.32"/>
</g>
<!-- Node8 -->
<g id="node8" class="node">
<title>Node8</title>
<g id="a_node8"><a xlink:title=" ">
<polygon fill="white" stroke="#bfbfbf" points="519,-56.5 519,-75.5 563,-75.5 563,-56.5 519,-56.5"/>
<text text-anchor="middle" x="541" y="-63.5" font-family="Helvetica,sans-Serif" font-size="10.00">cmath</text>
</a>
</g>
</g>
<!-- Node6&#45;&gt;Node8 -->
<g id="edge7" class="edge">
<title>Node6&#45;&gt;Node8</title>
<path fill="none" stroke="midnightblue" d="M541,-112.08C541,-105.01 541,-94.86 541,-85.99"/>
<polygon fill="midnightblue" stroke="midnightblue" points="544.5,-85.75 541,-75.75 537.5,-85.75 544.5,-85.75"/>
</g>
<!-- Node9&#45;&gt;Node6 -->
<g id="edge9" class="edge">
<title>Node9&#45;&gt;Node6</title>
<path fill="none" stroke="midnightblue" d="M384.42,-392.25C395.14,-374.1 418,-330.71 418,-291 418,-291 418,-291 418,-233 418,-202.9 417.08,-190.56 437,-168 451.09,-152.04 471.85,-141.53 491.13,-134.72"/>
<polygon fill="midnightblue" stroke="midnightblue" points="492.32,-138.01 500.73,-131.58 490.14,-131.36 492.32,-138.01"/>
</g>
<!-- Node10 -->
<g id="node10" class="node">
<title>Node10</title>
<g id="a_node10"><a xlink:href="_field_8hpp.html" target="_top" xlink:title=" ">
<polygon fill="white" stroke="black" points="334,-336.5 334,-355.5 390,-355.5 390,-336.5 334,-336.5"/>
<text text-anchor="middle" x="362" y="-343.5" font-family="Helvetica,sans-Serif" font-size="10.00">Field.hpp</text>
</a>
</g>
</g>
<!-- Node9&#45;&gt;Node10 -->
<g id="edge10" class="edge">
<title>Node9&#45;&gt;Node10</title>
<path fill="none" stroke="midnightblue" d="M376.19,-392.08C373.92,-384.85 370.63,-374.41 367.79,-365.4"/>
<polygon fill="midnightblue" stroke="midnightblue" points="371.1,-364.24 364.75,-355.75 364.42,-366.34 371.1,-364.24"/>
</g>
<!-- Node10&#45;&gt;Node6 -->
<g id="edge22" class="edge">
<title>Node10&#45;&gt;Node6</title>
<path fill="none" stroke="midnightblue" d="M361.33,-336.29C359.64,-308.01 358.27,-217.76 404,-168 422.24,-148.15 449.39,-137.03 474.71,-130.82"/>
<polygon fill="midnightblue" stroke="midnightblue" points="475.68,-134.19 484.67,-128.6 474.15,-127.36 475.68,-134.19"/>
</g>
<!-- Node11 -->
<g id="node11" class="node">
<title>Node11</title>
<g id="a_node11"><a xlink:href="_cell_8hpp.html" target="_top" xlink:title=" ">
<polygon fill="white" stroke="black" points="165.5,-280.5 165.5,-299.5 282.5,-299.5 282.5,-280.5 165.5,-280.5"/>
<text text-anchor="middle" x="224" y="-287.5" font-family="Helvetica,sans-Serif" font-size="10.00">engine/objects/Cell.hpp</text>
</a>
</g>
</g>
<!-- Node10&#45;&gt;Node11 -->
<g id="edge11" class="edge">
<title>Node10&#45;&gt;Node11</title>
<path fill="none" stroke="midnightblue" d="M340.13,-336.44C317.22,-327.48 281.02,-313.31 255.13,-303.18"/>
<polygon fill="midnightblue" stroke="midnightblue" points="256.35,-299.9 245.76,-299.52 253.8,-306.42 256.35,-299.9"/>
</g>
<!-- Node11&#45;&gt;Node4 -->
<g id="edge12" class="edge">
<title>Node11&#45;&gt;Node4</title>
<path fill="none" stroke="midnightblue" d="M229.81,-280.37C242.02,-262.22 270.55,-219.8 286.57,-195.99"/>
<polygon fill="midnightblue" stroke="midnightblue" points="289.54,-197.84 292.22,-187.59 283.73,-193.94 289.54,-197.84"/>
</g>
<!-- Node12 -->
<g id="node12" class="node">
<title>Node12</title>
<g id="a_node12"><a xlink:href="_tickable_8hpp.html" target="_top" xlink:title=" ">
<polygon fill="white" stroke="black" points="123.5,-168.5 123.5,-187.5 226.5,-187.5 226.5,-168.5 123.5,-168.5"/>
<text text-anchor="middle" x="175" y="-175.5" font-family="Helvetica,sans-Serif" font-size="10.00">engine/Tickable.hpp</text>
</a>
</g>
</g>
<!-- Node11&#45;&gt;Node12 -->
<g id="edge13" class="edge">
<title>Node11&#45;&gt;Node12</title>
<path fill="none" stroke="midnightblue" d="M197.79,-280.41C181.15,-273.44 160.94,-261.81 151,-244 142.42,-228.64 151.48,-209.61 160.82,-196.13"/>
<polygon fill="midnightblue" stroke="midnightblue" points="163.89,-197.88 167.12,-187.79 158.3,-193.66 163.89,-197.88"/>
</g>
<!-- Node13 -->
<g id="node13" class="node">
<title>Node13</title>
<g id="a_node13"><a xlink:title=" ">
<polygon fill="white" stroke="#bfbfbf" points="664,-56.5 664,-75.5 708,-75.5 708,-56.5 664,-56.5"/>
<text text-anchor="middle" x="686" y="-63.5" font-family="Helvetica,sans-Serif" font-size="10.00">vector</text>
</a>
</g>
</g>
<!-- Node11&#45;&gt;Node13 -->
<g id="edge14" class="edge">
<title>Node11&#45;&gt;Node13</title>
<path fill="none" stroke="midnightblue" d="M201.4,-280.42C184.01,-272.92 160.28,-260.62 144,-244 118.59,-218.06 90.66,-195.82 114,-168 149.27,-125.95 538.22,-82.38 653.8,-70.28"/>
<polygon fill="midnightblue" stroke="midnightblue" points="654.22,-73.76 663.8,-69.24 653.49,-66.79 654.22,-73.76"/>
</g>
<!-- Node14 -->
<g id="node14" class="node">
<title>Node14</title>
<g id="a_node14"><a xlink:href="_ground_8hpp.html" target="_top" xlink:title=" ">
<polygon fill="white" stroke="black" points="160,-224.5 160,-243.5 226,-243.5 226,-224.5 160,-224.5"/>
<text text-anchor="middle" x="193" y="-231.5" font-family="Helvetica,sans-Serif" font-size="10.00">Ground.hpp</text>
</a>
</g>
</g>
<!-- Node11&#45;&gt;Node14 -->
<g id="edge15" class="edge">
<title>Node11&#45;&gt;Node14</title>
<path fill="none" stroke="midnightblue" d="M218.88,-280.08C214.59,-272.61 208.34,-261.72 203.06,-252.52"/>
<polygon fill="midnightblue" stroke="midnightblue" points="206.04,-250.68 198.02,-243.75 199.97,-254.17 206.04,-250.68"/>
</g>
<!-- Node15 -->
<g id="node15" class="node">
<title>Node15</title>
<g id="a_node15"><a xlink:href="_building_8hpp.html" target="_top" xlink:title=" ">
<polygon fill="white" stroke="black" points="282.5,-224.5 282.5,-243.5 351.5,-243.5 351.5,-224.5 282.5,-224.5"/>
<text text-anchor="middle" x="317" y="-231.5" font-family="Helvetica,sans-Serif" font-size="10.00">Building.hpp</text>
</a>
</g>
</g>
<!-- Node11&#45;&gt;Node15 -->
<g id="edge18" class="edge">
<title>Node11&#45;&gt;Node15</title>
<path fill="none" stroke="midnightblue" d="M238.94,-280.32C253.59,-271.82 276.13,-258.73 293.24,-248.8"/>
<polygon fill="midnightblue" stroke="midnightblue" points="295.2,-251.7 302.1,-243.65 291.69,-245.65 295.2,-251.7"/>
</g>
<!-- Node14&#45;&gt;Node4 -->
<g id="edge16" class="edge">
<title>Node14&#45;&gt;Node4</title>
<path fill="none" stroke="midnightblue" d="M209.87,-224.32C226.71,-215.66 252.81,-202.24 272.24,-192.25"/>
<polygon fill="midnightblue" stroke="midnightblue" points="273.88,-195.34 281.17,-187.65 270.68,-189.12 273.88,-195.34"/>
</g>
<!-- Node14&#45;&gt;Node12 -->
<g id="edge17" class="edge">
<title>Node14&#45;&gt;Node12</title>
<path fill="none" stroke="midnightblue" d="M190.03,-224.08C187.62,-216.85 184.14,-206.41 181.13,-197.4"/>
<polygon fill="midnightblue" stroke="midnightblue" points="184.4,-196.13 177.92,-187.75 177.76,-198.34 184.4,-196.13"/>
</g>
<!-- Node15&#45;&gt;Node4 -->
<g id="edge19" class="edge">
<title>Node15&#45;&gt;Node4</title>
<path fill="none" stroke="midnightblue" d="M313.86,-224.08C311.32,-216.85 307.64,-206.41 304.47,-197.4"/>
<polygon fill="midnightblue" stroke="midnightblue" points="307.7,-196.02 301.08,-187.75 301.1,-198.35 307.7,-196.02"/>
</g>
<!-- Node15&#45;&gt;Node12 -->
<g id="edge20" class="edge">
<title>Node15&#45;&gt;Node12</title>
<path fill="none" stroke="midnightblue" d="M294.5,-224.44C270.92,-215.48 233.68,-201.31 207.04,-191.18"/>
<polygon fill="midnightblue" stroke="midnightblue" points="207.99,-187.8 197.4,-187.52 205.5,-194.34 207.99,-187.8"/>
</g>
<!-- Node16 -->
<g id="node16" class="node">
<title>Node16</title>
<g id="a_node16"><a xlink:title=" ">
<polygon fill="white" stroke="#bfbfbf" points="610.5,-168.5 610.5,-187.5 669.5,-187.5 669.5,-168.5 610.5,-168.5"/>
<text text-anchor="middle" x="640" y="-175.5" font-family="Helvetica,sans-Serif" font-size="10.00">functional</text>
</a>
</g>
</g>
<!-- Node15&#45;&gt;Node16 -->
<g id="edge21" class="edge">
<title>Node15&#45;&gt;Node16</title>
<path fill="none" stroke="midnightblue" d="M351.57,-227.22C412,-217.12 536.49,-196.31 600.33,-185.63"/>
<polygon fill="midnightblue" stroke="midnightblue" points="601.12,-189.05 610.41,-183.95 599.97,-182.14 601.12,-189.05"/>
</g>
<!-- Node18 -->
<g id="node18" class="node">
<title>Node18</title>
<g id="a_node18"><a xlink:href="_unit_8hpp.html" target="_top" xlink:title=" ">
<polygon fill="white" stroke="black" points="342.5,-448.5 342.5,-467.5 395.5,-467.5 395.5,-448.5 342.5,-448.5"/>
<text text-anchor="middle" x="369" y="-455.5" font-family="Helvetica,sans-Serif" font-size="10.00">Unit.hpp</text>
</a>
</g>
</g>
<!-- Node17&#45;&gt;Node18 -->
<g id="edge24" class="edge">
<title>Node17&#45;&gt;Node18</title>
<path fill="none" stroke="midnightblue" d="M369,-504.08C369,-497.01 369,-486.86 369,-477.99"/>
<polygon fill="midnightblue" stroke="midnightblue" points="372.5,-477.75 369,-467.75 365.5,-477.75 372.5,-477.75"/>
</g>
<!-- Node19 -->
<g id="node19" class="node">
<title>Node19</title>
<g id="a_node19"><a xlink:title=" ">
<polygon fill="white" stroke="#bfbfbf" points="295.5,-448.5 295.5,-467.5 324.5,-467.5 324.5,-448.5 295.5,-448.5"/>
<text text-anchor="middle" x="310" y="-455.5" font-family="Helvetica,sans-Serif" font-size="10.00">list</text>
</a>
</g>
</g>
<!-- Node17&#45;&gt;Node19 -->
<g id="edge26" class="edge">
<title>Node17&#45;&gt;Node19</title>
<path fill="none" stroke="midnightblue" d="M359.52,-504.32C350.8,-496.34 337.66,-484.31 327.1,-474.65"/>
<polygon fill="midnightblue" stroke="midnightblue" points="329.39,-472 319.65,-467.83 324.67,-477.17 329.39,-472"/>
</g>
<!-- Node18&#45;&gt;Node9 -->
<g id="edge25" class="edge">
<title>Node18&#45;&gt;Node9</title>
<path fill="none" stroke="midnightblue" d="M370.65,-448.08C371.98,-440.93 373.88,-430.64 375.54,-421.69"/>
<polygon fill="midnightblue" stroke="midnightblue" points="379,-422.22 377.38,-411.75 372.12,-420.95 379,-422.22"/>
</g>
<!-- Node21 -->
<g id="node21" class="node">
<title>Node21</title>
<g id="a_node21"><a xlink:title=" ">
<polygon fill="white" stroke="#bfbfbf" points="906.5,-224.5 906.5,-243.5 941.5,-243.5 941.5,-224.5 906.5,-224.5"/>
<text text-anchor="middle" x="924" y="-231.5" font-family="Helvetica,sans-Serif" font-size="10.00">map</text>
</a>
</g>
</g>
<!-- Node20&#45;&gt;Node21 -->
<g id="edge28" class="edge">
<title>Node20&#45;&gt;Node21</title>
<path fill="none" stroke="midnightblue" d="M885.6,-280.08C892.23,-272.3 902.02,-260.8 910.06,-251.37"/>
<polygon fill="midnightblue" stroke="midnightblue" points="912.73,-253.63 916.55,-243.75 907.4,-249.09 912.73,-253.63"/>
</g>
<!-- Node22 -->
<g id="node22" class="node">
<title>Node22</title>
<g id="a_node22"><a xlink:title=" ">
<polygon fill="white" stroke="#bfbfbf" points="872.5,-168.5 872.5,-187.5 913.5,-187.5 913.5,-168.5 872.5,-168.5"/>
<text text-anchor="middle" x="893" y="-175.5" font-family="Helvetica,sans-Serif" font-size="10.00">string</text>
</a>
</g>
</g>
<!-- Node20&#45;&gt;Node22 -->
<g id="edge29" class="edge">
<title>Node20&#45;&gt;Node22</title>
<path fill="none" stroke="midnightblue" d="M879.18,-280.37C881.6,-262.62 887.18,-221.67 890.46,-197.6"/>
<polygon fill="midnightblue" stroke="midnightblue" points="893.95,-197.97 891.83,-187.59 887.01,-197.03 893.95,-197.97"/>
</g>
<!-- Node23 -->
<g id="node23" class="node">
<title>Node23</title>
<g id="a_node23"><a xlink:title=" ">
<polygon fill="white" stroke="#bfbfbf" points="764.5,-168.5 764.5,-187.5 815.5,-187.5 815.5,-168.5 764.5,-168.5"/>
<text text-anchor="middle" x="790" y="-175.5" font-family="Helvetica,sans-Serif" font-size="10.00">memory</text>
</a>
</g>
</g>
<!-- Node20&#45;&gt;Node23 -->
<g id="edge30" class="edge">
<title>Node20&#45;&gt;Node23</title>
<path fill="none" stroke="midnightblue" d="M871.09,-280.37C856.51,-262.14 822.34,-219.43 803.34,-195.68"/>
<polygon fill="midnightblue" stroke="midnightblue" points="805.85,-193.21 796.87,-187.59 800.39,-197.59 805.85,-193.21"/>
</g>
<!-- Node24 -->
<g id="node24" class="node">
<title>Node24</title>
<g id="a_node24"><a xlink:href="_shader_8hpp.html" target="_top" xlink:title=" ">
<polygon fill="white" stroke="black" points="998.5,-224.5 998.5,-243.5 1103.5,-243.5 1103.5,-224.5 998.5,-224.5"/>
<text text-anchor="middle" x="1051" y="-231.5" font-family="Helvetica,sans-Serif" font-size="10.00">graphics/Shader.hpp</text>
</a>
</g>
</g>
<!-- Node20&#45;&gt;Node24 -->
<g id="edge31" class="edge">
<title>Node20&#45;&gt;Node24</title>
<path fill="none" stroke="midnightblue" d="M905.41,-280.44C934.77,-271.28 981.52,-256.69 1014.1,-246.52"/>
<polygon fill="midnightblue" stroke="midnightblue" points="1015.21,-249.84 1023.72,-243.52 1013.13,-243.16 1015.21,-249.84"/>
</g>
<!-- Node25 -->
<g id="node25" class="node">
<title>Node25</title>
<g id="a_node25"><a xlink:href="_g_shape_8hpp.html" target="_top" xlink:title=" ">
<polygon fill="white" stroke="black" points="932,-168.5 932,-187.5 1042,-187.5 1042,-168.5 932,-168.5"/>
<text text-anchor="middle" x="987" y="-175.5" font-family="Helvetica,sans-Serif" font-size="10.00">graphics/GShape.hpp</text>
</a>
</g>
</g>
<!-- Node20&#45;&gt;Node25 -->
<g id="edge46" class="edge">
<title>Node20&#45;&gt;Node25</title>
<path fill="none" stroke="midnightblue" d="M897.57,-280.4C913.47,-272.66 935.68,-260.05 951,-244 963.92,-230.47 973.75,-211.4 979.85,-197.42"/>
<polygon fill="midnightblue" stroke="midnightblue" points="983.2,-198.48 983.78,-187.9 976.73,-195.81 983.2,-198.48"/>
</g>
<!-- Node31 -->
<g id="node31" class="node">
<title>Node31</title>
<g id="a_node31"><a xlink:href="_event_handler_8hpp.html" target="_top" xlink:title=" ">
<polygon fill="white" stroke="black" points="656.5,-224.5 656.5,-243.5 811.5,-243.5 811.5,-224.5 656.5,-224.5"/>
<text text-anchor="middle" x="734" y="-231.5" font-family="Helvetica,sans-Serif" font-size="10.00">EventHandler/EventHandler.hpp</text>
</a>
</g>
</g>
<!-- Node20&#45;&gt;Node31 -->
<g id="edge47" class="edge">
<title>Node20&#45;&gt;Node31</title>
<path fill="none" stroke="midnightblue" d="M855.18,-280.44C831.17,-271.44 793.17,-257.19 766.13,-247.05"/>
<polygon fill="midnightblue" stroke="midnightblue" points="767.3,-243.75 756.71,-243.52 764.84,-250.3 767.3,-243.75"/>
</g>
<!-- Node24&#45;&gt;Node22 -->
<g id="edge32" class="edge">
<title>Node24&#45;&gt;Node22</title>
<path fill="none" stroke="midnightblue" d="M1025.96,-224.44C998.13,-214.93 953.19,-199.57 923.37,-189.38"/>
<polygon fill="midnightblue" stroke="midnightblue" points="924.48,-186.06 913.88,-186.14 922.21,-192.68 924.48,-186.06"/>
</g>
<!-- Node24&#45;&gt;Node25 -->
<g id="edge33" class="edge">
<title>Node24&#45;&gt;Node25</title>
<path fill="none" stroke="midnightblue" d="M1035.6,-224.32C1024.52,-216.42 1010.09,-204.55 999.67,-194.94"/>
<polygon fill="midnightblue" stroke="midnightblue" points="1001.94,-192.27 992.32,-187.83 997.08,-197.3 1001.94,-192.27"/>
</g>
<!-- Node29 -->
<g id="node29" class="node">
<title>Node29</title>
<g id="a_node29"><a xlink:href="_transform_8hpp.html" target="_top" xlink:title=" ">
<polygon fill="white" stroke="black" points="961.5,-56.5 961.5,-75.5 1080.5,-75.5 1080.5,-56.5 961.5,-56.5"/>
<text text-anchor="middle" x="1021" y="-63.5" font-family="Helvetica,sans-Serif" font-size="10.00">graphics/Transform.hpp</text>
</a>
</g>
</g>
<!-- Node24&#45;&gt;Node29 -->
<g id="edge45" class="edge">
<title>Node24&#45;&gt;Node29</title>
<path fill="none" stroke="midnightblue" d="M1056.02,-224.22C1062.51,-211.78 1072.49,-188.27 1068,-168 1061.1,-136.82 1043.55,-103.85 1031.96,-84.36"/>
<polygon fill="midnightblue" stroke="midnightblue" points="1034.87,-82.42 1026.67,-75.72 1028.9,-86.08 1034.87,-82.42"/>
</g>
<!-- Node25&#45;&gt;Node6 -->
<g id="edge44" class="edge">
<title>Node25&#45;&gt;Node6</title>
<path fill="none" stroke="midnightblue" d="M931.85,-169.16C928.86,-168.76 925.89,-168.37 923,-168 812.47,-153.72 683.69,-138.93 607.44,-130.37"/>
<polygon fill="midnightblue" stroke="midnightblue" points="607.37,-126.84 597.04,-129.2 606.59,-133.8 607.37,-126.84"/>
</g>
<!-- Node25&#45;&gt;Node24 -->
<g id="edge42" class="edge">
<title>Node25&#45;&gt;Node24</title>
<path fill="none" stroke="midnightblue" d="M1002.5,-187.75C1013.55,-195.64 1027.89,-207.43 1038.26,-217"/>
<polygon fill="midnightblue" stroke="midnightblue" points="1035.97,-219.65 1045.6,-224.08 1040.84,-214.62 1035.97,-219.65"/>
</g>
<!-- Node26 -->
<g id="node26" class="node">
<title>Node26</title>
<g id="a_node26"><a xlink:href="_window_8hpp.html" target="_top" xlink:title=" ">
<polygon fill="white" stroke="black" points="806.5,-112.5 806.5,-131.5 915.5,-131.5 915.5,-112.5 806.5,-112.5"/>
<text text-anchor="middle" x="861" y="-119.5" font-family="Helvetica,sans-Serif" font-size="10.00">graphics/Window.hpp</text>
</a>
</g>
</g>
<!-- Node25&#45;&gt;Node26 -->
<g id="edge34" class="edge">
<title>Node25&#45;&gt;Node26</title>
<path fill="none" stroke="midnightblue" d="M967.03,-168.44C946.39,-159.6 913.94,-145.69 890.37,-135.59"/>
<polygon fill="midnightblue" stroke="midnightblue" points="891.44,-132.24 880.87,-131.52 888.68,-138.67 891.44,-132.24"/>
</g>
<!-- Node25&#45;&gt;Node29 -->
<g id="edge43" class="edge">
<title>Node25&#45;&gt;Node29</title>
<path fill="none" stroke="midnightblue" d="M989.67,-168.37C995.18,-150.54 1007.93,-109.3 1015.35,-85.27"/>
<polygon fill="midnightblue" stroke="midnightblue" points="1018.74,-86.18 1018.34,-75.59 1012.05,-84.11 1018.74,-86.18"/>
</g>
<!-- Node26&#45;&gt;Node7 -->
<g id="edge37" class="edge">
<title>Node26&#45;&gt;Node7</title>
<path fill="none" stroke="midnightblue" d="M842.78,-112.44C824.1,-103.68 794.84,-89.94 773.38,-79.86"/>
<polygon fill="midnightblue" stroke="midnightblue" points="774.68,-76.6 764.14,-75.52 771.7,-82.93 774.68,-76.6"/>
</g>
<!-- Node26&#45;&gt;Node13 -->
<g id="edge38" class="edge">
<title>Node26&#45;&gt;Node13</title>
<path fill="none" stroke="midnightblue" d="M833.27,-112.44C801.83,-102.74 750.66,-86.95 717.67,-76.77"/>
<polygon fill="midnightblue" stroke="midnightblue" points="718.65,-73.41 708.06,-73.81 716.58,-80.1 718.65,-73.41"/>
</g>
<!-- Node26&#45;&gt;Node24 -->
<g id="edge39" class="edge">
<title>Node26&#45;&gt;Node24</title>
<path fill="none" stroke="midnightblue" d="M915.91,-128.5C965.91,-134.78 1034.39,-146.99 1051,-168 1061.26,-180.98 1059.77,-200.41 1056.62,-214.65"/>
<polygon fill="midnightblue" stroke="midnightblue" points="1053.23,-213.77 1054.06,-224.33 1060,-215.56 1053.23,-213.77"/>
</g>
<!-- Node27 -->
<g id="node27" class="node">
<title>Node27</title>
<g id="a_node27"><a xlink:title=" ">
<polygon fill="white" stroke="#bfbfbf" points="880.5,-56.5 880.5,-75.5 943.5,-75.5 943.5,-56.5 880.5,-56.5"/>
<text text-anchor="middle" x="912" y="-63.5" font-family="Helvetica,sans-Serif" font-size="10.00">glad/glad.h</text>
</a>
</g>
</g>
<!-- Node26&#45;&gt;Node27 -->
<g id="edge35" class="edge">
<title>Node26&#45;&gt;Node27</title>
<path fill="none" stroke="midnightblue" d="M869.42,-112.08C876.85,-104.22 887.85,-92.57 896.81,-83.08"/>
<polygon fill="midnightblue" stroke="midnightblue" points="899.41,-85.42 903.74,-75.75 894.32,-80.62 899.41,-85.42"/>
</g>
<!-- Node28 -->
<g id="node28" class="node">
<title>Node28</title>
<g id="a_node28"><a xlink:title=" ">
<polygon fill="white" stroke="#bfbfbf" points="783.5,-56.5 783.5,-75.5 862.5,-75.5 862.5,-56.5 783.5,-56.5"/>
<text text-anchor="middle" x="823" y="-63.5" font-family="Helvetica,sans-Serif" font-size="10.00">GLFW/glfw3.h</text>
</a>
</g>
</g>
<!-- Node26&#45;&gt;Node28 -->
<g id="edge36" class="edge">
<title>Node26&#45;&gt;Node28</title>
<path fill="none" stroke="midnightblue" d="M854.73,-112.08C849.36,-104.46 841.48,-93.26 834.92,-83.94"/>
<polygon fill="midnightblue" stroke="midnightblue" points="837.78,-81.91 829.16,-75.75 832.05,-85.94 837.78,-81.91"/>
</g>
<!-- Node26&#45;&gt;Node29 -->
<g id="edge40" class="edge">
<title>Node26&#45;&gt;Node29</title>
<path fill="none" stroke="midnightblue" d="M886.35,-112.44C913.27,-103.36 956,-88.94 986.09,-78.78"/>
<polygon fill="midnightblue" stroke="midnightblue" points="987.41,-82.03 995.77,-75.52 985.17,-75.4 987.41,-82.03"/>
</g>
<!-- Node30 -->
<g id="node30" class="node">
<title>Node30</title>
<g id="a_node30"><a xlink:title=" ">
<polygon fill="white" stroke="#bfbfbf" points="969,-0.5 969,-19.5 1073,-19.5 1073,-0.5 969,-0.5"/>
<text text-anchor="middle" x="1021" y="-7.5" font-family="Helvetica,sans-Serif" font-size="10.00">glm/gtc/type_ptr.hpp</text>
</a>
</g>
</g>
<!-- Node29&#45;&gt;Node30 -->
<g id="edge41" class="edge">
<title>Node29&#45;&gt;Node30</title>
<path fill="none" stroke="midnightblue" d="M1021,-56.08C1021,-49.01 1021,-38.86 1021,-29.99"/>
<polygon fill="midnightblue" stroke="midnightblue" points="1024.5,-29.75 1021,-19.75 1017.5,-29.75 1024.5,-29.75"/>
</g>
<!-- Node31&#45;&gt;Node6 -->
<g id="edge50" class="edge">
<title>Node31&#45;&gt;Node6</title>
<path fill="none" stroke="midnightblue" d="M728.75,-224.07C720.11,-210.12 701.57,-183.18 679,-168 654.71,-151.67 624.05,-140.89 597.8,-133.99"/>
<polygon fill="midnightblue" stroke="midnightblue" points="598.53,-130.57 587.98,-131.54 596.83,-137.36 598.53,-130.57"/>
</g>
<!-- Node31&#45;&gt;Node16 -->
<g id="edge48" class="edge">
<title>Node31&#45;&gt;Node16</title>
<path fill="none" stroke="midnightblue" d="M718.9,-224.32C704.1,-215.82 681.31,-202.73 664.02,-192.8"/>
<polygon fill="midnightblue" stroke="midnightblue" points="665.48,-189.6 655.07,-187.65 661.99,-195.67 665.48,-189.6"/>
</g>
<!-- Node31&#45;&gt;Node26 -->
<g id="edge49" class="edge">
<title>Node31&#45;&gt;Node26</title>
<path fill="none" stroke="midnightblue" d="M761.29,-224.46C780.88,-217.24 806.9,-205.28 825,-188 838.68,-174.94 848.5,-155.52 854.39,-141.3"/>
<polygon fill="midnightblue" stroke="midnightblue" points="857.79,-142.23 858.13,-131.64 851.26,-139.71 857.79,-142.23"/>
</g>
<!-- Node32&#45;&gt;Node4 -->
<g id="edge57" class="edge">
<title>Node32&#45;&gt;Node4</title>
<path fill="none" stroke="midnightblue" d="M529.43,-224.44C481.15,-214.96 403.29,-199.67 351.39,-189.48"/>
<polygon fill="midnightblue" stroke="midnightblue" points="351.86,-186.01 341.37,-187.52 350.51,-192.88 351.86,-186.01"/>
</g>
<!-- Node32&#45;&gt;Node6 -->
<g id="edge56" class="edge">
<title>Node32&#45;&gt;Node6</title>
<path fill="none" stroke="midnightblue" d="M572.5,-224.4C571.59,-211.78 569.15,-187.61 563,-168 560.04,-158.56 555.37,-148.63 551.09,-140.5"/>
<polygon fill="midnightblue" stroke="midnightblue" points="554.1,-138.71 546.21,-131.64 547.97,-142.08 554.1,-138.71"/>
</g>
<!-- Node32&#45;&gt;Node13 -->
<g id="edge53" class="edge">
<title>Node32&#45;&gt;Node13</title>
<path fill="none" stroke="midnightblue" d="M621.18,-224.44C642.43,-218.07 665.59,-207.04 679,-188 700.53,-157.43 695.54,-111 690.48,-85.45"/>
<polygon fill="midnightblue" stroke="midnightblue" points="693.88,-84.62 688.31,-75.6 687.04,-86.12 693.88,-84.62"/>
</g>
<!-- Node32&#45;&gt;Node23 -->
<g id="edge52" class="edge">
<title>Node32&#45;&gt;Node23</title>
<path fill="none" stroke="midnightblue" d="M607.38,-224.44C647.6,-214.44 713.83,-197.96 754.51,-187.83"/>
<polygon fill="midnightblue" stroke="midnightblue" points="755.41,-191.21 764.27,-185.4 753.72,-184.42 755.41,-191.21"/>
</g>
<!-- Node33 -->
<g id="node33" class="node">
<title>Node33</title>
<g id="a_node33"><a xlink:href="_g_u_i_window_8hpp.html" target="_top" xlink:title=" ">
<polygon fill="white" stroke="black" points="446,-168.5 446,-187.5 554,-187.5 554,-168.5 446,-168.5"/>
<text text-anchor="middle" x="500" y="-175.5" font-family="Helvetica,sans-Serif" font-size="10.00">GUI/GUIWindow.hpp</text>
</a>
</g>
</g>
<!-- Node32&#45;&gt;Node33 -->
<g id="edge54" class="edge">
<title>Node32&#45;&gt;Node33</title>
<path fill="none" stroke="midnightblue" d="M561.27,-224.32C550.16,-216.11 533.26,-203.6 520.02,-193.81"/>
<polygon fill="midnightblue" stroke="midnightblue" points="522.06,-190.97 511.94,-187.83 517.9,-196.59 522.06,-190.97"/>
</g>
<!-- Node33&#45;&gt;Node6 -->
<g id="edge55" class="edge">
<title>Node33&#45;&gt;Node6</title>
<path fill="none" stroke="midnightblue" d="M506.77,-168.08C512.56,-160.46 521.06,-149.26 528.14,-139.94"/>
<polygon fill="midnightblue" stroke="midnightblue" points="531.1,-141.83 534.36,-131.75 525.52,-137.6 531.1,-141.83"/>
</g>
<!-- Node34&#45;&gt;Node5 -->
<g id="edge59" class="edge">
<title>Node34&#45;&gt;Node5</title>
<path fill="none" stroke="midnightblue" d="M131.54,-392.39C101.17,-376.81 44,-340.86 44,-291 44,-291 44,-291 44,-233 44,-200.79 39.27,-163.53 36.02,-141.69"/>
<polygon fill="midnightblue" stroke="midnightblue" points="39.43,-140.87 34.44,-131.53 32.51,-141.95 39.43,-140.87"/>
</g>
<!-- Node36 -->
<g id="node36" class="node">
<title>Node36</title>
<g id="a_node36"><a xlink:title=" ">
<polygon fill="white" stroke="#bfbfbf" points="673,-504.5 673,-523.5 719,-523.5 719,-504.5 673,-504.5"/>
<text text-anchor="middle" x="696" y="-511.5" font-family="Helvetica,sans-Serif" font-size="10.00">cstdint</text>
</a>
</g>
</g>
<!-- Node35&#45;&gt;Node36 -->
<g id="edge61" class="edge">
<title>Node35&#45;&gt;Node36</title>
<path fill="none" stroke="midnightblue" d="M696,-560.08C696,-553.01 696,-542.86 696,-533.99"/>
<polygon fill="midnightblue" stroke="midnightblue" points="699.5,-533.75 696,-523.75 692.5,-533.75 699.5,-533.75"/>
</g>
</g>
</svg>
