<?xml version="1.0" encoding="UTF-8" standalone="no"?>
<!DOCTYPE svg PUBLIC "-//W3C//DTD SVG 1.1//EN"
 "http://www.w3.org/Graphics/SVG/1.1/DTD/svg11.dtd">
<!-- Generated by graphviz version 2.47.0 (20210407.0042)
 -->
<!-- Title: src/Engine.cpp Pages: 1 -->
<svg width="851pt" height="588pt"
 viewBox="0.00 0.00 851.00 588.00" xmlns="http://www.w3.org/2000/svg" xmlns:xlink="http://www.w3.org/1999/xlink">
<g id="graph0" class="graph" transform="scale(1 1) rotate(0) translate(4 584)">
<title>src/Engine.cpp</title>
<polygon fill="white" stroke="transparent" points="-4,4 -4,-584 847,-584 847,4 -4,4"/>
<!-- Node1 -->
<g id="node1" class="node">
<title>Node1</title>
<g id="a_node1"><a xlink:title=" ">
<polygon fill="#bfbfbf" stroke="black" points="615,-560.5 615,-579.5 695,-579.5 695,-560.5 615,-560.5"/>
<text text-anchor="middle" x="655" y="-567.5" font-family="Helvetica,sans-Serif" font-size="10.00">src/Engine.cpp</text>
</a>
</g>
</g>
<!-- Node2 -->
<g id="node2" class="node">
<title>Node2</title>
<g id="a_node2"><a xlink:href="_engine_8hpp.html" target="_top" xlink:title=" ">
<polygon fill="white" stroke="black" points="623,-504.5 623,-523.5 687,-523.5 687,-504.5 623,-504.5"/>
<text text-anchor="middle" x="655" y="-511.5" font-family="Helvetica,sans-Serif" font-size="10.00">Engine.hpp</text>
</a>
</g>
</g>
<!-- Node1&#45;&gt;Node2 -->
<g id="edge1" class="edge">
<title>Node1&#45;&gt;Node2</title>
<path fill="none" stroke="midnightblue" d="M655,-560.08C655,-553.01 655,-542.86 655,-533.99"/>
<polygon fill="midnightblue" stroke="midnightblue" points="658.5,-533.75 655,-523.75 651.5,-533.75 658.5,-533.75"/>
</g>
<!-- Node20 -->
<g id="node20" class="node">
<title>Node20</title>
<g id="a_node20"><a xlink:title=" ">
<polygon fill="white" stroke="#bfbfbf" points="705,-504.5 705,-523.5 759,-523.5 759,-504.5 705,-504.5"/>
<text text-anchor="middle" x="732" y="-511.5" font-family="Helvetica,sans-Serif" font-size="10.00">iostream</text>
</a>
</g>
</g>
<!-- Node1&#45;&gt;Node20 -->
<g id="edge27" class="edge">
<title>Node1&#45;&gt;Node20</title>
<path fill="none" stroke="midnightblue" d="M667.37,-560.32C679.16,-552.06 697.13,-539.45 711.14,-529.63"/>
<polygon fill="midnightblue" stroke="midnightblue" points="713.48,-532.26 719.66,-523.65 709.46,-526.53 713.48,-532.26"/>
</g>
<!-- Node21 -->
<g id="node21" class="node">
<title>Node21</title>
<g id="a_node21"><a xlink:href="_resource_manager_8hpp.html" target="_top" xlink:title=" ">
<polygon fill="white" stroke="black" points="193.5,-280.5 193.5,-299.5 346.5,-299.5 346.5,-280.5 193.5,-280.5"/>
<text text-anchor="middle" x="270" y="-287.5" font-family="Helvetica,sans-Serif" font-size="10.00">graphics/ResourceManager.hpp</text>
</a>
</g>
</g>
<!-- Node1&#45;&gt;Node21 -->
<g id="edge28" class="edge">
<title>Node1&#45;&gt;Node21</title>
<path fill="none" stroke="midnightblue" d="M633.72,-560.4C600.24,-545.3 539,-510.62 539,-459 539,-459 539,-459 539,-401 539,-355.07 402.93,-318.83 324.34,-301.73"/>
<polygon fill="midnightblue" stroke="midnightblue" points="324.63,-298.21 314.12,-299.54 323.17,-305.06 324.63,-298.21"/>
</g>
<!-- Node3 -->
<g id="node3" class="node">
<title>Node3</title>
<g id="a_node3"><a xlink:href="_player_8hpp.html" target="_top" xlink:title=" ">
<polygon fill="white" stroke="black" points="715,-392.5 715,-411.5 843,-411.5 843,-392.5 715,-392.5"/>
<text text-anchor="middle" x="779" y="-399.5" font-family="Helvetica,sans-Serif" font-size="10.00">engine/objects/Player.hpp</text>
</a>
</g>
</g>
<!-- Node2&#45;&gt;Node3 -->
<g id="edge2" class="edge">
<title>Node2&#45;&gt;Node3</title>
<path fill="none" stroke="midnightblue" d="M677.08,-504.47C694.75,-496.86 719.41,-484.37 737,-468 751.56,-454.45 763.33,-434.83 770.66,-420.69"/>
<polygon fill="midnightblue" stroke="midnightblue" points="773.9,-422.05 775.2,-411.54 767.62,-418.95 773.9,-422.05"/>
</g>
<!-- Node17 -->
<g id="node17" class="node">
<title>Node17</title>
<g id="a_node17"><a xlink:href="_unit_group_8hpp.html" target="_top" xlink:title=" ">
<polygon fill="white" stroke="black" points="582.5,-448.5 582.5,-467.5 727.5,-467.5 727.5,-448.5 582.5,-448.5"/>
<text text-anchor="middle" x="655" y="-455.5" font-family="Helvetica,sans-Serif" font-size="10.00">engine/objects/UnitGroup.hpp</text>
</a>
</g>
</g>
<!-- Node2&#45;&gt;Node17 -->
<g id="edge23" class="edge">
<title>Node2&#45;&gt;Node17</title>
<path fill="none" stroke="midnightblue" d="M655,-504.08C655,-497.01 655,-486.86 655,-477.99"/>
<polygon fill="midnightblue" stroke="midnightblue" points="658.5,-477.75 655,-467.75 651.5,-477.75 658.5,-477.75"/>
</g>
<!-- Node4 -->
<g id="node4" class="node">
<title>Node4</title>
<g id="a_node4"><a xlink:href="_drawable_8hpp.html" target="_top" xlink:title=" ">
<polygon fill="white" stroke="black" points="614.5,-112.5 614.5,-131.5 721.5,-131.5 721.5,-112.5 614.5,-112.5"/>
<text text-anchor="middle" x="668" y="-119.5" font-family="Helvetica,sans-Serif" font-size="10.00">engine/Drawable.hpp</text>
</a>
</g>
</g>
<!-- Node3&#45;&gt;Node4 -->
<g id="edge3" class="edge">
<title>Node3&#45;&gt;Node4</title>
<path fill="none" stroke="midnightblue" d="M785.54,-392.41C798.45,-374.56 826,-331.7 826,-291 826,-291 826,-291 826,-233 826,-178.39 761.65,-148.68 715.08,-134.33"/>
<polygon fill="midnightblue" stroke="midnightblue" points="716.02,-130.96 705.44,-131.5 714.05,-137.68 716.02,-130.96"/>
</g>
<!-- Node9 -->
<g id="node9" class="node">
<title>Node9</title>
<g id="a_node9"><a xlink:href="_world_actor_8hpp.html" target="_top" xlink:title=" ">
<polygon fill="white" stroke="black" points="679,-336.5 679,-355.5 793,-355.5 793,-336.5 679,-336.5"/>
<text text-anchor="middle" x="736" y="-343.5" font-family="Helvetica,sans-Serif" font-size="10.00">engine/WorldActor.hpp</text>
</a>
</g>
</g>
<!-- Node3&#45;&gt;Node9 -->
<g id="edge8" class="edge">
<title>Node3&#45;&gt;Node9</title>
<path fill="none" stroke="midnightblue" d="M771.9,-392.08C765.76,-384.38 756.73,-373.03 749.26,-363.65"/>
<polygon fill="midnightblue" stroke="midnightblue" points="751.94,-361.39 742.97,-355.75 746.46,-365.75 751.94,-361.39"/>
</g>
<!-- Node5 -->
<g id="node5" class="node">
<title>Node5</title>
<g id="a_node5"><a xlink:title=" ">
<polygon fill="white" stroke="#bfbfbf" points="569,-56.5 569,-75.5 635,-75.5 635,-56.5 569,-56.5"/>
<text text-anchor="middle" x="602" y="-63.5" font-family="Helvetica,sans-Serif" font-size="10.00">string_view</text>
</a>
</g>
</g>
<!-- Node4&#45;&gt;Node5 -->
<g id="edge4" class="edge">
<title>Node4&#45;&gt;Node5</title>
<path fill="none" stroke="midnightblue" d="M657.4,-112.32C647.54,-104.26 632.65,-92.08 620.78,-82.37"/>
<polygon fill="midnightblue" stroke="midnightblue" points="622.75,-79.46 612.8,-75.83 618.32,-84.88 622.75,-79.46"/>
</g>
<!-- Node6 -->
<g id="node6" class="node">
<title>Node6</title>
<g id="a_node6"><a xlink:href="_vector2_d_8hpp.html" target="_top" xlink:title=" ">
<polygon fill="white" stroke="black" points="653,-56.5 653,-75.5 765,-75.5 765,-56.5 653,-56.5"/>
<text text-anchor="middle" x="709" y="-63.5" font-family="Helvetica,sans-Serif" font-size="10.00">Helpers/Vector2D.hpp</text>
</a>
</g>
</g>
<!-- Node4&#45;&gt;Node6 -->
<g id="edge5" class="edge">
<title>Node4&#45;&gt;Node6</title>
<path fill="none" stroke="midnightblue" d="M674.77,-112.08C680.56,-104.46 689.06,-93.26 696.14,-83.94"/>
<polygon fill="midnightblue" stroke="midnightblue" points="699.1,-85.83 702.36,-75.75 693.52,-81.6 699.1,-85.83"/>
</g>
<!-- Node7 -->
<g id="node7" class="node">
<title>Node7</title>
<g id="a_node7"><a xlink:title=" ">
<polygon fill="white" stroke="#bfbfbf" points="473.5,-0.5 473.5,-19.5 512.5,-19.5 512.5,-0.5 473.5,-0.5"/>
<text text-anchor="middle" x="493" y="-7.5" font-family="Helvetica,sans-Serif" font-size="10.00">utility</text>
</a>
</g>
</g>
<!-- Node6&#45;&gt;Node7 -->
<g id="edge6" class="edge">
<title>Node6&#45;&gt;Node7</title>
<path fill="none" stroke="midnightblue" d="M674.77,-56.44C632.73,-45.93 562.12,-28.28 522.41,-18.35"/>
<polygon fill="midnightblue" stroke="midnightblue" points="523.1,-14.92 512.55,-15.89 521.4,-21.71 523.1,-14.92"/>
</g>
<!-- Node8 -->
<g id="node8" class="node">
<title>Node8</title>
<g id="a_node8"><a xlink:title=" ">
<polygon fill="white" stroke="#bfbfbf" points="687,-0.5 687,-19.5 731,-19.5 731,-0.5 687,-0.5"/>
<text text-anchor="middle" x="709" y="-7.5" font-family="Helvetica,sans-Serif" font-size="10.00">cmath</text>
</a>
</g>
</g>
<!-- Node6&#45;&gt;Node8 -->
<g id="edge7" class="edge">
<title>Node6&#45;&gt;Node8</title>
<path fill="none" stroke="midnightblue" d="M709,-56.08C709,-49.01 709,-38.86 709,-29.99"/>
<polygon fill="midnightblue" stroke="midnightblue" points="712.5,-29.75 709,-19.75 705.5,-29.75 712.5,-29.75"/>
</g>
<!-- Node9&#45;&gt;Node6 -->
<g id="edge9" class="edge">
<title>Node9&#45;&gt;Node6</title>
<path fill="none" stroke="midnightblue" d="M743.83,-336.3C751.24,-327.65 762.22,-313.73 769,-300 782.32,-273.01 788,-265.1 788,-235 788,-235 788,-235 788,-177 788,-136.79 752.75,-101.22 729.34,-82.03"/>
<polygon fill="midnightblue" stroke="midnightblue" points="731.36,-79.17 721.34,-75.72 727.03,-84.66 731.36,-79.17"/>
</g>
<!-- Node10 -->
<g id="node10" class="node">
<title>Node10</title>
<g id="a_node10"><a xlink:href="_field_8hpp.html" target="_top" xlink:title=" ">
<polygon fill="white" stroke="black" points="704,-280.5 704,-299.5 760,-299.5 760,-280.5 704,-280.5"/>
<text text-anchor="middle" x="732" y="-287.5" font-family="Helvetica,sans-Serif" font-size="10.00">Field.hpp</text>
</a>
</g>
</g>
<!-- Node9&#45;&gt;Node10 -->
<g id="edge10" class="edge">
<title>Node9&#45;&gt;Node10</title>
<path fill="none" stroke="midnightblue" d="M735.34,-336.08C734.82,-329.01 734.06,-318.86 733.41,-309.99"/>
<polygon fill="midnightblue" stroke="midnightblue" points="736.88,-309.47 732.65,-299.75 729.9,-309.98 736.88,-309.47"/>
</g>
<!-- Node10&#45;&gt;Node6 -->
<g id="edge22" class="edge">
<title>Node10&#45;&gt;Node6</title>
<path fill="none" stroke="midnightblue" d="M733.17,-280.38C736.42,-254.47 744.4,-175.22 730,-112 727.82,-102.44 723.43,-92.49 719.23,-84.38"/>
<polygon fill="midnightblue" stroke="midnightblue" points="722.25,-82.62 714.35,-75.56 716.13,-86.01 722.25,-82.62"/>
</g>
<!-- Node11 -->
<g id="node11" class="node">
<title>Node11</title>
<g id="a_node11"><a xlink:href="_cell_8hpp.html" target="_top" xlink:title=" ">
<polygon fill="white" stroke="black" points="532.5,-224.5 532.5,-243.5 649.5,-243.5 649.5,-224.5 532.5,-224.5"/>
<text text-anchor="middle" x="591" y="-231.5" font-family="Helvetica,sans-Serif" font-size="10.00">engine/objects/Cell.hpp</text>
</a>
</g>
</g>
<!-- Node10&#45;&gt;Node11 -->
<g id="edge11" class="edge">
<title>Node10&#45;&gt;Node11</title>
<path fill="none" stroke="midnightblue" d="M709.66,-280.44C686.25,-271.48 649.26,-257.31 622.81,-247.18"/>
<polygon fill="midnightblue" stroke="midnightblue" points="623.83,-243.82 613.24,-243.52 621.32,-250.36 623.83,-243.82"/>
</g>
<!-- Node11&#45;&gt;Node4 -->
<g id="edge12" class="edge">
<title>Node11&#45;&gt;Node4</title>
<path fill="none" stroke="midnightblue" d="M624.8,-224.39C643.39,-217.74 664.89,-206.45 676,-188 684.51,-173.87 680.81,-154.89 676,-141.09"/>
<polygon fill="midnightblue" stroke="midnightblue" points="679.22,-139.72 672.29,-131.71 672.71,-142.3 679.22,-139.72"/>
</g>
<!-- Node12 -->
<g id="node12" class="node">
<title>Node12</title>
<g id="a_node12"><a xlink:href="_tickable_8hpp.html" target="_top" xlink:title=" ">
<polygon fill="white" stroke="black" points="493.5,-112.5 493.5,-131.5 596.5,-131.5 596.5,-112.5 493.5,-112.5"/>
<text text-anchor="middle" x="545" y="-119.5" font-family="Helvetica,sans-Serif" font-size="10.00">engine/Tickable.hpp</text>
</a>
</g>
</g>
<!-- Node11&#45;&gt;Node12 -->
<g id="edge13" class="edge">
<title>Node11&#45;&gt;Node12</title>
<path fill="none" stroke="midnightblue" d="M555.99,-224.45C537.07,-217.84 515.32,-206.59 504,-188 493.52,-170.79 509.68,-151.26 524.69,-138.14"/>
<polygon fill="midnightblue" stroke="midnightblue" points="527.21,-140.6 532.73,-131.57 522.78,-135.18 527.21,-140.6"/>
</g>
<!-- Node13 -->
<g id="node13" class="node">
<title>Node13</title>
<g id="a_node13"><a xlink:title=" ">
<polygon fill="white" stroke="#bfbfbf" points="366,-56.5 366,-75.5 410,-75.5 410,-56.5 366,-56.5"/>
<text text-anchor="middle" x="388" y="-63.5" font-family="Helvetica,sans-Serif" font-size="10.00">vector</text>
</a>
</g>
</g>
<!-- Node11&#45;&gt;Node13 -->
<g id="edge14" class="edge">
<title>Node11&#45;&gt;Node13</title>
<path fill="none" stroke="midnightblue" d="M559.33,-224.43C517.79,-211.5 445.67,-182.94 407,-132 396.79,-118.55 392.06,-99.74 389.87,-85.81"/>
<polygon fill="midnightblue" stroke="midnightblue" points="393.34,-85.36 388.6,-75.88 386.4,-86.24 393.34,-85.36"/>
</g>
<!-- Node14 -->
<g id="node14" class="node">
<title>Node14</title>
<g id="a_node14"><a xlink:href="_ground_8hpp.html" target="_top" xlink:title=" ">
<polygon fill="white" stroke="black" points="601,-168.5 601,-187.5 667,-187.5 667,-168.5 601,-168.5"/>
<text text-anchor="middle" x="634" y="-175.5" font-family="Helvetica,sans-Serif" font-size="10.00">Ground.hpp</text>
</a>
</g>
</g>
<!-- Node11&#45;&gt;Node14 -->
<g id="edge15" class="edge">
<title>Node11&#45;&gt;Node14</title>
<path fill="none" stroke="midnightblue" d="M598.1,-224.08C604.24,-216.38 613.27,-205.03 620.74,-195.65"/>
<polygon fill="midnightblue" stroke="midnightblue" points="623.54,-197.75 627.03,-187.75 618.06,-193.39 623.54,-197.75"/>
</g>
<!-- Node15 -->
<g id="node15" class="node">
<title>Node15</title>
<g id="a_node15"><a xlink:href="_building_8hpp.html" target="_top" xlink:title=" ">
<polygon fill="white" stroke="black" points="513.5,-168.5 513.5,-187.5 582.5,-187.5 582.5,-168.5 513.5,-168.5"/>
<text text-anchor="middle" x="548" y="-175.5" font-family="Helvetica,sans-Serif" font-size="10.00">Building.hpp</text>
</a>
</g>
</g>
<!-- Node11&#45;&gt;Node15 -->
<g id="edge18" class="edge">
<title>Node11&#45;&gt;Node15</title>
<path fill="none" stroke="midnightblue" d="M583.9,-224.08C577.76,-216.38 568.73,-205.03 561.26,-195.65"/>
<polygon fill="midnightblue" stroke="midnightblue" points="563.94,-193.39 554.97,-187.75 558.46,-197.75 563.94,-193.39"/>
</g>
<!-- Node14&#45;&gt;Node4 -->
<g id="edge16" class="edge">
<title>Node14&#45;&gt;Node4</title>
<path fill="none" stroke="midnightblue" d="M639.61,-168.08C644.37,-160.53 651.32,-149.49 657.15,-140.23"/>
<polygon fill="midnightblue" stroke="midnightblue" points="660.12,-142.08 662.49,-131.75 654.2,-138.35 660.12,-142.08"/>
</g>
<!-- Node14&#45;&gt;Node12 -->
<g id="edge17" class="edge">
<title>Node14&#45;&gt;Node12</title>
<path fill="none" stroke="midnightblue" d="M619.7,-168.32C605.82,-159.9 584.51,-146.97 568.2,-137.07"/>
<polygon fill="midnightblue" stroke="midnightblue" points="569.63,-133.85 559.26,-131.65 566,-139.83 569.63,-133.85"/>
</g>
<!-- Node15&#45;&gt;Node4 -->
<g id="edge19" class="edge">
<title>Node15&#45;&gt;Node4</title>
<path fill="none" stroke="midnightblue" d="M567.01,-168.44C586.59,-159.64 617.31,-145.81 639.73,-135.72"/>
<polygon fill="midnightblue" stroke="midnightblue" points="641.39,-138.81 649.07,-131.52 638.52,-132.43 641.39,-138.81"/>
</g>
<!-- Node15&#45;&gt;Node12 -->
<g id="edge20" class="edge">
<title>Node15&#45;&gt;Node12</title>
<path fill="none" stroke="midnightblue" d="M547.5,-168.08C547.11,-161.01 546.55,-150.86 546.05,-141.99"/>
<polygon fill="midnightblue" stroke="midnightblue" points="549.54,-141.54 545.49,-131.75 542.55,-141.93 549.54,-141.54"/>
</g>
<!-- Node16 -->
<g id="node16" class="node">
<title>Node16</title>
<g id="a_node16"><a xlink:title=" ">
<polygon fill="white" stroke="#bfbfbf" points="416.5,-112.5 416.5,-131.5 475.5,-131.5 475.5,-112.5 416.5,-112.5"/>
<text text-anchor="middle" x="446" y="-119.5" font-family="Helvetica,sans-Serif" font-size="10.00">functional</text>
</a>
</g>
</g>
<!-- Node15&#45;&gt;Node16 -->
<g id="edge21" class="edge">
<title>Node15&#45;&gt;Node16</title>
<path fill="none" stroke="midnightblue" d="M531.61,-168.32C515.33,-159.7 490.13,-146.36 471.28,-136.39"/>
<polygon fill="midnightblue" stroke="midnightblue" points="472.82,-133.24 462.35,-131.65 469.55,-139.43 472.82,-133.24"/>
</g>
<!-- Node18 -->
<g id="node18" class="node">
<title>Node18</title>
<g id="a_node18"><a xlink:href="_unit_8hpp.html" target="_top" xlink:title=" ">
<polygon fill="white" stroke="black" points="643.5,-392.5 643.5,-411.5 696.5,-411.5 696.5,-392.5 643.5,-392.5"/>
<text text-anchor="middle" x="670" y="-399.5" font-family="Helvetica,sans-Serif" font-size="10.00">Unit.hpp</text>
</a>
</g>
</g>
<!-- Node17&#45;&gt;Node18 -->
<g id="edge24" class="edge">
<title>Node17&#45;&gt;Node18</title>
<path fill="none" stroke="midnightblue" d="M657.48,-448.08C659.49,-440.85 662.39,-430.41 664.89,-421.4"/>
<polygon fill="midnightblue" stroke="midnightblue" points="668.26,-422.32 667.57,-411.75 661.52,-420.45 668.26,-422.32"/>
</g>
<!-- Node19 -->
<g id="node19" class="node">
<title>Node19</title>
<g id="a_node19"><a xlink:title=" ">
<polygon fill="white" stroke="#bfbfbf" points="596.5,-392.5 596.5,-411.5 625.5,-411.5 625.5,-392.5 596.5,-392.5"/>
<text text-anchor="middle" x="611" y="-399.5" font-family="Helvetica,sans-Serif" font-size="10.00">list</text>
</a>
</g>
</g>
<!-- Node17&#45;&gt;Node19 -->
<g id="edge26" class="edge">
<title>Node17&#45;&gt;Node19</title>
<path fill="none" stroke="midnightblue" d="M647.73,-448.08C641.46,-440.38 632.21,-429.03 624.57,-419.65"/>
<polygon fill="midnightblue" stroke="midnightblue" points="627.16,-417.29 618.13,-411.75 621.73,-421.71 627.16,-417.29"/>
</g>
<!-- Node18&#45;&gt;Node9 -->
<g id="edge25" class="edge">
<title>Node18&#45;&gt;Node9</title>
<path fill="none" stroke="midnightblue" d="M680.6,-392.32C690.46,-384.26 705.35,-372.08 717.22,-362.37"/>
<polygon fill="midnightblue" stroke="midnightblue" points="719.68,-364.88 725.2,-355.83 715.25,-359.46 719.68,-364.88"/>
</g>
<!-- Node22 -->
<g id="node22" class="node">
<title>Node22</title>
<g id="a_node22"><a xlink:title=" ">
<polygon fill="white" stroke="#bfbfbf" points="206.5,-224.5 206.5,-243.5 241.5,-243.5 241.5,-224.5 206.5,-224.5"/>
<text text-anchor="middle" x="224" y="-231.5" font-family="Helvetica,sans-Serif" font-size="10.00">map</text>
</a>
</g>
</g>
<!-- Node21&#45;&gt;Node22 -->
<g id="edge29" class="edge">
<title>Node21&#45;&gt;Node22</title>
<path fill="none" stroke="midnightblue" d="M262.4,-280.08C255.77,-272.3 245.98,-260.8 237.94,-251.37"/>
<polygon fill="midnightblue" stroke="midnightblue" points="240.6,-249.09 231.45,-243.75 235.27,-253.63 240.6,-249.09"/>
</g>
<!-- Node23 -->
<g id="node23" class="node">
<title>Node23</title>
<g id="a_node23"><a xlink:title=" ">
<polygon fill="white" stroke="#bfbfbf" points="204.5,-168.5 204.5,-187.5 245.5,-187.5 245.5,-168.5 204.5,-168.5"/>
<text text-anchor="middle" x="225" y="-175.5" font-family="Helvetica,sans-Serif" font-size="10.00">string</text>
</a>
</g>
</g>
<!-- Node21&#45;&gt;Node23 -->
<g id="edge30" class="edge">
<title>Node21&#45;&gt;Node23</title>
<path fill="none" stroke="midnightblue" d="M267.96,-280.38C264.83,-267.74 258.33,-243.55 250,-224 245.97,-214.54 240.52,-204.5 235.73,-196.31"/>
<polygon fill="midnightblue" stroke="midnightblue" points="238.7,-194.45 230.55,-187.69 232.7,-198.06 238.7,-194.45"/>
</g>
<!-- Node24 -->
<g id="node24" class="node">
<title>Node24</title>
<g id="a_node24"><a xlink:title=" ">
<polygon fill="white" stroke="#bfbfbf" points="298.5,-224.5 298.5,-243.5 349.5,-243.5 349.5,-224.5 298.5,-224.5"/>
<text text-anchor="middle" x="324" y="-231.5" font-family="Helvetica,sans-Serif" font-size="10.00">memory</text>
</a>
</g>
</g>
<!-- Node21&#45;&gt;Node24 -->
<g id="edge31" class="edge">
<title>Node21&#45;&gt;Node24</title>
<path fill="none" stroke="midnightblue" d="M278.92,-280.08C286.78,-272.22 298.43,-260.57 307.92,-251.08"/>
<polygon fill="midnightblue" stroke="midnightblue" points="310.65,-253.3 315.25,-243.75 305.7,-248.35 310.65,-253.3"/>
</g>
<!-- Node25 -->
<g id="node25" class="node">
<title>Node25</title>
<g id="a_node25"><a xlink:href="_shader_8hpp.html" target="_top" xlink:title=" ">
<polygon fill="white" stroke="black" points="83.5,-224.5 83.5,-243.5 188.5,-243.5 188.5,-224.5 83.5,-224.5"/>
<text text-anchor="middle" x="136" y="-231.5" font-family="Helvetica,sans-Serif" font-size="10.00">graphics/Shader.hpp</text>
</a>
</g>
</g>
<!-- Node21&#45;&gt;Node25 -->
<g id="edge32" class="edge">
<title>Node21&#45;&gt;Node25</title>
<path fill="none" stroke="midnightblue" d="M248.77,-280.44C226.62,-271.52 191.68,-257.44 166.56,-247.32"/>
<polygon fill="midnightblue" stroke="midnightblue" points="167.72,-244.01 157.13,-243.52 165.1,-250.5 167.72,-244.01"/>
</g>
<!-- Node26 -->
<g id="node26" class="node">
<title>Node26</title>
<g id="a_node26"><a xlink:href="_g_shape_8hpp.html" target="_top" xlink:title=" ">
<polygon fill="white" stroke="black" points="0,-168.5 0,-187.5 110,-187.5 110,-168.5 0,-168.5"/>
<text text-anchor="middle" x="55" y="-175.5" font-family="Helvetica,sans-Serif" font-size="10.00">graphics/GShape.hpp</text>
</a>
</g>
</g>
<!-- Node21&#45;&gt;Node26 -->
<g id="edge46" class="edge">
<title>Node21&#45;&gt;Node26</title>
<path fill="none" stroke="midnightblue" d="M200.02,-280.49C151.4,-273.2 92.19,-261.16 74,-244 61.45,-232.16 57.04,-212.53 55.57,-197.94"/>
<polygon fill="midnightblue" stroke="midnightblue" points="59.04,-197.32 54.92,-187.56 52.05,-197.76 59.04,-197.32"/>
</g>
<!-- Node32 -->
<g id="node32" class="node">
<title>Node32</title>
<g id="a_node32"><a xlink:href="_event_handler_8hpp.html" target="_top" xlink:title=" ">
<polygon fill="white" stroke="black" points="263.5,-168.5 263.5,-187.5 418.5,-187.5 418.5,-168.5 263.5,-168.5"/>
<text text-anchor="middle" x="341" y="-175.5" font-family="Helvetica,sans-Serif" font-size="10.00">EventHandler/EventHandler.hpp</text>
</a>
</g>
</g>
<!-- Node21&#45;&gt;Node32 -->
<g id="edge47" class="edge">
<title>Node21&#45;&gt;Node32</title>
<path fill="none" stroke="midnightblue" d="M305.85,-280.4C324.88,-273.81 346.63,-262.59 358,-244 366.92,-229.43 360.07,-210.26 352.57,-196.52"/>
<polygon fill="midnightblue" stroke="midnightblue" points="355.37,-194.38 347.22,-187.61 349.37,-197.99 355.37,-194.38"/>
</g>
<!-- Node25&#45;&gt;Node23 -->
<g id="edge33" class="edge">
<title>Node25&#45;&gt;Node23</title>
<path fill="none" stroke="midnightblue" d="M150.3,-224.32C164.18,-215.9 185.49,-202.97 201.8,-193.07"/>
<polygon fill="midnightblue" stroke="midnightblue" points="204,-195.83 210.74,-187.65 200.37,-189.85 204,-195.83"/>
</g>
<!-- Node25&#45;&gt;Node26 -->
<g id="edge34" class="edge">
<title>Node25&#45;&gt;Node26</title>
<path fill="none" stroke="midnightblue" d="M117.87,-224.32C103.9,-216.18 85.04,-203.84 71.5,-194.09"/>
<polygon fill="midnightblue" stroke="midnightblue" points="73.21,-191 63.1,-187.83 69.03,-196.61 73.21,-191"/>
</g>
<!-- Node30 -->
<g id="node30" class="node">
<title>Node30</title>
<g id="a_node30"><a xlink:href="_transform_8hpp.html" target="_top" xlink:title=" ">
<polygon fill="white" stroke="black" points="12.5,-56.5 12.5,-75.5 131.5,-75.5 131.5,-56.5 12.5,-56.5"/>
<text text-anchor="middle" x="72" y="-63.5" font-family="Helvetica,sans-Serif" font-size="10.00">graphics/Transform.hpp</text>
</a>
</g>
</g>
<!-- Node25&#45;&gt;Node30 -->
<g id="edge45" class="edge">
<title>Node25&#45;&gt;Node30</title>
<path fill="none" stroke="midnightblue" d="M134.28,-224.44C131.63,-211.86 126.11,-187.75 119,-168 108.17,-137.94 91.75,-104.62 81.46,-84.76"/>
<polygon fill="midnightblue" stroke="midnightblue" points="84.44,-82.92 76.7,-75.69 78.25,-86.17 84.44,-82.92"/>
</g>
<!-- Node26&#45;&gt;Node25 -->
<g id="edge43" class="edge">
<title>Node26&#45;&gt;Node25</title>
<path fill="none" stroke="midnightblue" d="M73.09,-187.65C87.14,-195.83 106.14,-208.28 119.7,-218.06"/>
<polygon fill="midnightblue" stroke="midnightblue" points="117.99,-221.15 128.1,-224.32 122.18,-215.54 117.99,-221.15"/>
</g>
<!-- Node27 -->
<g id="node27" class="node">
<title>Node27</title>
<g id="a_node27"><a xlink:href="_window_8hpp.html" target="_top" xlink:title=" ">
<polygon fill="white" stroke="black" points="188.5,-112.5 188.5,-131.5 297.5,-131.5 297.5,-112.5 188.5,-112.5"/>
<text text-anchor="middle" x="243" y="-119.5" font-family="Helvetica,sans-Serif" font-size="10.00">graphics/Window.hpp</text>
</a>
</g>
</g>
<!-- Node26&#45;&gt;Node27 -->
<g id="edge35" class="edge">
<title>Node26&#45;&gt;Node27</title>
<path fill="none" stroke="midnightblue" d="M84.79,-168.44C116.83,-159.24 167.93,-144.56 203.35,-134.39"/>
<polygon fill="midnightblue" stroke="midnightblue" points="204.71,-137.64 213.35,-131.52 202.77,-130.91 204.71,-137.64"/>
</g>
<!-- Node26&#45;&gt;Node30 -->
<g id="edge44" class="edge">
<title>Node26&#45;&gt;Node30</title>
<path fill="none" stroke="midnightblue" d="M56.33,-168.37C59.08,-150.62 65.41,-109.67 69.13,-85.6"/>
<polygon fill="midnightblue" stroke="midnightblue" points="72.6,-86.01 70.67,-75.59 65.69,-84.94 72.6,-86.01"/>
</g>
<!-- Node27&#45;&gt;Node7 -->
<g id="edge38" class="edge">
<title>Node27&#45;&gt;Node7</title>
<path fill="none" stroke="midnightblue" d="M257.47,-112.27C283.45,-96.68 337.12,-64.85 357,-56 392.46,-40.21 435.23,-26.95 463.21,-19"/>
<polygon fill="midnightblue" stroke="midnightblue" points="464.48,-22.28 473.17,-16.22 462.6,-15.54 464.48,-22.28"/>
</g>
<!-- Node27&#45;&gt;Node13 -->
<g id="edge39" class="edge">
<title>Node27&#45;&gt;Node13</title>
<path fill="none" stroke="midnightblue" d="M265.98,-112.44C290.3,-103.39 328.87,-89.02 356.13,-78.87"/>
<polygon fill="midnightblue" stroke="midnightblue" points="357.46,-82.11 365.61,-75.34 355.02,-75.55 357.46,-82.11"/>
</g>
<!-- Node27&#45;&gt;Node25 -->
<g id="edge40" class="edge">
<title>Node27&#45;&gt;Node25</title>
<path fill="none" stroke="midnightblue" d="M233.22,-131.74C223.36,-140.65 207.82,-154.97 195,-168 179.22,-184.04 162.01,-203.2 150.28,-216.55"/>
<polygon fill="midnightblue" stroke="midnightblue" points="147.37,-214.55 143.43,-224.39 152.64,-219.16 147.37,-214.55"/>
</g>
<!-- Node28 -->
<g id="node28" class="node">
<title>Node28</title>
<g id="a_node28"><a xlink:title=" ">
<polygon fill="white" stroke="#bfbfbf" points="149.5,-56.5 149.5,-75.5 212.5,-75.5 212.5,-56.5 149.5,-56.5"/>
<text text-anchor="middle" x="181" y="-63.5" font-family="Helvetica,sans-Serif" font-size="10.00">glad/glad.h</text>
</a>
</g>
</g>
<!-- Node27&#45;&gt;Node28 -->
<g id="edge36" class="edge">
<title>Node27&#45;&gt;Node28</title>
<path fill="none" stroke="midnightblue" d="M233.04,-112.32C223.87,-104.34 210.06,-92.31 198.97,-82.65"/>
<polygon fill="midnightblue" stroke="midnightblue" points="200.98,-79.76 191.14,-75.83 196.38,-85.04 200.98,-79.76"/>
</g>
<!-- Node29 -->
<g id="node29" class="node">
<title>Node29</title>
<g id="a_node29"><a xlink:title=" ">
<polygon fill="white" stroke="#bfbfbf" points="230.5,-56.5 230.5,-75.5 309.5,-75.5 309.5,-56.5 230.5,-56.5"/>
<text text-anchor="middle" x="270" y="-63.5" font-family="Helvetica,sans-Serif" font-size="10.00">GLFW/glfw3.h</text>
</a>
</g>
</g>
<!-- Node27&#45;&gt;Node29 -->
<g id="edge37" class="edge">
<title>Node27&#45;&gt;Node29</title>
<path fill="none" stroke="midnightblue" d="M247.46,-112.08C251.15,-104.69 256.52,-93.95 261.09,-84.81"/>
<polygon fill="midnightblue" stroke="midnightblue" points="264.28,-86.26 265.62,-75.75 258.02,-83.13 264.28,-86.26"/>
</g>
<!-- Node27&#45;&gt;Node30 -->
<g id="edge41" class="edge">
<title>Node27&#45;&gt;Node30</title>
<path fill="none" stroke="midnightblue" d="M215.9,-112.44C187.01,-103.32 141.08,-88.81 108.89,-78.65"/>
<polygon fill="midnightblue" stroke="midnightblue" points="109.56,-75.19 98.97,-75.52 107.45,-81.87 109.56,-75.19"/>
</g>
<!-- Node31 -->
<g id="node31" class="node">
<title>Node31</title>
<g id="a_node31"><a xlink:title=" ">
<polygon fill="white" stroke="#bfbfbf" points="20,-0.5 20,-19.5 124,-19.5 124,-0.5 20,-0.5"/>
<text text-anchor="middle" x="72" y="-7.5" font-family="Helvetica,sans-Serif" font-size="10.00">glm/gtc/type_ptr.hpp</text>
</a>
</g>
</g>
<!-- Node30&#45;&gt;Node31 -->
<g id="edge42" class="edge">
<title>Node30&#45;&gt;Node31</title>
<path fill="none" stroke="midnightblue" d="M72,-56.08C72,-49.01 72,-38.86 72,-29.99"/>
<polygon fill="midnightblue" stroke="midnightblue" points="75.5,-29.75 72,-19.75 68.5,-29.75 75.5,-29.75"/>
</g>
<!-- Node32&#45;&gt;Node6 -->
<g id="edge50" class="edge">
<title>Node32&#45;&gt;Node6</title>
<path fill="none" stroke="midnightblue" d="M347.1,-168.07C357.52,-153.62 380.23,-125.36 407,-112 412.26,-109.37 555.37,-88.76 642.67,-76.36"/>
<polygon fill="midnightblue" stroke="midnightblue" points="643.36,-79.8 652.77,-74.93 642.37,-72.87 643.36,-79.8"/>
</g>
<!-- Node32&#45;&gt;Node16 -->
<g id="edge48" class="edge">
<title>Node32&#45;&gt;Node16</title>
<path fill="none" stroke="midnightblue" d="M357.87,-168.32C374.71,-159.66 400.81,-146.24 420.24,-136.25"/>
<polygon fill="midnightblue" stroke="midnightblue" points="421.88,-139.34 429.17,-131.65 418.68,-133.12 421.88,-139.34"/>
</g>
<!-- Node32&#45;&gt;Node27 -->
<g id="edge49" class="edge">
<title>Node32&#45;&gt;Node27</title>
<path fill="none" stroke="midnightblue" d="M325.25,-168.32C309.68,-159.74 285.62,-146.49 267.54,-136.52"/>
<polygon fill="midnightblue" stroke="midnightblue" points="269.15,-133.42 258.71,-131.65 265.78,-139.55 269.15,-133.42"/>
</g>
</g>
</svg>
