<?xml version="1.0" encoding="UTF-8" standalone="no"?>
<!DOCTYPE svg PUBLIC "-//W3C//DTD SVG 1.1//EN"
 "http://www.w3.org/Graphics/SVG/1.1/DTD/svg11.dtd">
<!-- Generated by graphviz version 2.47.0 (20210407.0042)
 -->
<!-- Title: src/Engine.cpp Pages: 1 -->
<svg width="1104pt" height="644pt"
 viewBox="0.00 0.00 1103.50 644.00" xmlns="http://www.w3.org/2000/svg" xmlns:xlink="http://www.w3.org/1999/xlink">
<g id="graph0" class="graph" transform="scale(1 1) rotate(0) translate(4 640)">
<title>src/Engine.cpp</title>
<polygon fill="white" stroke="transparent" points="-4,4 -4,-640 1099.5,-640 1099.5,4 -4,4"/>
<!-- Node1 -->
<g id="node1" class="node">
<title>Node1</title>
<g id="a_node1"><a xlink:title=" ">
<polygon fill="#bfbfbf" stroke="black" points="468,-616.5 468,-635.5 548,-635.5 548,-616.5 468,-616.5"/>
<text text-anchor="middle" x="508" y="-623.5" font-family="Helvetica,sans-Serif" font-size="10.00">src/Engine.cpp</text>
</a>
</g>
</g>
<!-- Node2 -->
<g id="node2" class="node">
<title>Node2</title>
<g id="a_node2"><a xlink:href="_engine_8hpp.html" target="_top" xlink:title=" ">
<polygon fill="white" stroke="black" points="323,-560.5 323,-579.5 387,-579.5 387,-560.5 323,-560.5"/>
<text text-anchor="middle" x="355" y="-567.5" font-family="Helvetica,sans-Serif" font-size="10.00">Engine.hpp</text>
</a>
</g>
</g>
<!-- Node1&#45;&gt;Node2 -->
<g id="edge1" class="edge">
<title>Node1&#45;&gt;Node2</title>
<path fill="none" stroke="midnightblue" d="M483.76,-616.44C458.13,-607.4 417.51,-593.06 388.76,-582.92"/>
<polygon fill="midnightblue" stroke="midnightblue" points="389.72,-579.54 379.13,-579.52 387.39,-586.15 389.72,-579.54"/>
</g>
<!-- Node20 -->
<g id="node20" class="node">
<title>Node20</title>
<g id="a_node20"><a xlink:href="_resource_manager_8hpp.html" target="_top" xlink:title=" ">
<polygon fill="white" stroke="black" points="793.5,-280.5 793.5,-299.5 946.5,-299.5 946.5,-280.5 793.5,-280.5"/>
<text text-anchor="middle" x="870" y="-287.5" font-family="Helvetica,sans-Serif" font-size="10.00">graphics/ResourceManager.hpp</text>
</a>
</g>
</g>
<!-- Node1&#45;&gt;Node20 -->
<g id="edge27" class="edge">
<title>Node1&#45;&gt;Node20</title>
<path fill="none" stroke="midnightblue" d="M546.08,-616.46C593.12,-603.4 667,-573.57 667,-515 667,-515 667,-515 667,-401 667,-341.7 734.79,-314.2 792.03,-301.55"/>
<polygon fill="midnightblue" stroke="midnightblue" points="792.77,-304.97 801.84,-299.5 791.33,-298.12 792.77,-304.97"/>
</g>
<!-- Node32 -->
<g id="node32" class="node">
<title>Node32</title>
<g id="a_node32"><a xlink:href="_g_u_i_manager_8hpp.html" target="_top" xlink:title=" ">
<polygon fill="white" stroke="black" points="404.5,-224.5 404.5,-243.5 515.5,-243.5 515.5,-224.5 404.5,-224.5"/>
<text text-anchor="middle" x="460" y="-231.5" font-family="Helvetica,sans-Serif" font-size="10.00">GUI/GUIManager.hpp</text>
</a>
</g>
</g>
<!-- Node1&#45;&gt;Node32 -->
<g id="edge51" class="edge">
<title>Node1&#45;&gt;Node32</title>
<path fill="none" stroke="midnightblue" d="M503.28,-616.46C493.73,-598.34 473,-554.48 473,-515 473,-515 473,-515 473,-345 473,-312.58 467.36,-275.15 463.51,-253.37"/>
<polygon fill="midnightblue" stroke="midnightblue" points="466.95,-252.72 461.7,-243.52 460.07,-253.99 466.95,-252.72"/>
</g>
<!-- Node34 -->
<g id="node34" class="node">
<title>Node34</title>
<g id="a_node34"><a xlink:href="_states_8hpp.html" target="_top" xlink:title=" ">
<polygon fill="white" stroke="black" points="537,-504.5 537,-523.5 621,-523.5 621,-504.5 537,-504.5"/>
<text text-anchor="middle" x="579" y="-511.5" font-family="Helvetica,sans-Serif" font-size="10.00">GUI/States.hpp</text>
</a>
</g>
</g>
<!-- Node1&#45;&gt;Node34 -->
<g id="edge58" class="edge">
<title>Node1&#45;&gt;Node34</title>
<path fill="none" stroke="midnightblue" d="M513.57,-616.37C525.24,-598.3 552.42,-556.18 567.83,-532.31"/>
<polygon fill="midnightblue" stroke="midnightblue" points="570.97,-533.89 573.45,-523.59 565.09,-530.1 570.97,-533.89"/>
</g>
<!-- Node3 -->
<g id="node3" class="node">
<title>Node3</title>
<g id="a_node3"><a xlink:href="_player_8hpp.html" target="_top" xlink:title=" ">
<polygon fill="white" stroke="black" points="291,-448.5 291,-467.5 419,-467.5 419,-448.5 291,-448.5"/>
<text text-anchor="middle" x="355" y="-455.5" font-family="Helvetica,sans-Serif" font-size="10.00">engine/objects/Player.hpp</text>
</a>
</g>
</g>
<!-- Node2&#45;&gt;Node3 -->
<g id="edge2" class="edge">
<title>Node2&#45;&gt;Node3</title>
<path fill="none" stroke="midnightblue" d="M355,-560.37C355,-542.62 355,-501.67 355,-477.6"/>
<polygon fill="midnightblue" stroke="midnightblue" points="358.5,-477.59 355,-467.59 351.5,-477.59 358.5,-477.59"/>
</g>
<!-- Node17 -->
<g id="node17" class="node">
<title>Node17</title>
<g id="a_node17"><a xlink:href="_unit_group_8hpp.html" target="_top" xlink:title=" ">
<polygon fill="white" stroke="black" points="146.5,-504.5 146.5,-523.5 291.5,-523.5 291.5,-504.5 146.5,-504.5"/>
<text text-anchor="middle" x="219" y="-511.5" font-family="Helvetica,sans-Serif" font-size="10.00">engine/objects/UnitGroup.hpp</text>
</a>
</g>
</g>
<!-- Node2&#45;&gt;Node17 -->
<g id="edge23" class="edge">
<title>Node2&#45;&gt;Node17</title>
<path fill="none" stroke="midnightblue" d="M333.45,-560.44C310.97,-551.52 275.51,-537.44 250.02,-527.32"/>
<polygon fill="midnightblue" stroke="midnightblue" points="251.03,-523.95 240.45,-523.52 248.45,-530.46 251.03,-523.95"/>
</g>
<!-- Node4 -->
<g id="node4" class="node">
<title>Node4</title>
<g id="a_node4"><a xlink:href="_drawable_8hpp.html" target="_top" xlink:title=" ">
<polygon fill="white" stroke="black" points="226.5,-168.5 226.5,-187.5 333.5,-187.5 333.5,-168.5 226.5,-168.5"/>
<text text-anchor="middle" x="280" y="-175.5" font-family="Helvetica,sans-Serif" font-size="10.00">engine/Drawable.hpp</text>
</a>
</g>
</g>
<!-- Node3&#45;&gt;Node4 -->
<g id="edge3" class="edge">
<title>Node3&#45;&gt;Node4</title>
<path fill="none" stroke="midnightblue" d="M355.92,-448.45C357.81,-429.97 362,-384.89 362,-347 362,-347 362,-347 362,-289 362,-248.27 325.41,-212.87 301.12,-193.86"/>
<polygon fill="midnightblue" stroke="midnightblue" points="302.91,-190.82 292.81,-187.61 298.7,-196.42 302.91,-190.82"/>
</g>
<!-- Node9 -->
<g id="node9" class="node">
<title>Node9</title>
<g id="a_node9"><a xlink:href="_world_actor_8hpp.html" target="_top" xlink:title=" ">
<polygon fill="white" stroke="black" points="155,-392.5 155,-411.5 269,-411.5 269,-392.5 155,-392.5"/>
<text text-anchor="middle" x="212" y="-399.5" font-family="Helvetica,sans-Serif" font-size="10.00">engine/WorldActor.hpp</text>
</a>
</g>
</g>
<!-- Node3&#45;&gt;Node9 -->
<g id="edge8" class="edge">
<title>Node3&#45;&gt;Node9</title>
<path fill="none" stroke="midnightblue" d="M332.34,-448.44C308.6,-439.48 271.09,-425.31 244.26,-415.18"/>
<polygon fill="midnightblue" stroke="midnightblue" points="245.14,-411.77 234.55,-411.52 242.67,-418.32 245.14,-411.77"/>
</g>
<!-- Node5 -->
<g id="node5" class="node">
<title>Node5</title>
<g id="a_node5"><a xlink:title=" ">
<polygon fill="white" stroke="#bfbfbf" points="660,-112.5 660,-131.5 726,-131.5 726,-112.5 660,-112.5"/>
<text text-anchor="middle" x="693" y="-119.5" font-family="Helvetica,sans-Serif" font-size="10.00">string_view</text>
</a>
</g>
</g>
<!-- Node4&#45;&gt;Node5 -->
<g id="edge4" class="edge">
<title>Node4&#45;&gt;Node5</title>
<path fill="none" stroke="midnightblue" d="M333.57,-170C416.32,-159.18 573.63,-138.61 649.68,-128.66"/>
<polygon fill="midnightblue" stroke="midnightblue" points="650.4,-132.1 659.86,-127.33 649.49,-125.16 650.4,-132.1"/>
</g>
<!-- Node6 -->
<g id="node6" class="node">
<title>Node6</title>
<g id="a_node6"><a xlink:href="_vector2_d_8hpp.html" target="_top" xlink:title=" ">
<polygon fill="white" stroke="black" points="347,-112.5 347,-131.5 459,-131.5 459,-112.5 347,-112.5"/>
<text text-anchor="middle" x="403" y="-119.5" font-family="Helvetica,sans-Serif" font-size="10.00">Helpers/Vector2D.hpp</text>
</a>
</g>
</g>
<!-- Node4&#45;&gt;Node6 -->
<g id="edge5" class="edge">
<title>Node4&#45;&gt;Node6</title>
<path fill="none" stroke="midnightblue" d="M299.49,-168.44C319.64,-159.6 351.32,-145.69 374.33,-135.59"/>
<polygon fill="midnightblue" stroke="midnightblue" points="375.85,-138.74 383.6,-131.52 373.04,-132.33 375.85,-138.74"/>
</g>
<!-- Node7 -->
<g id="node7" class="node">
<title>Node7</title>
<g id="a_node7"><a xlink:title=" ">
<polygon fill="white" stroke="#bfbfbf" points="652.5,-56.5 652.5,-75.5 691.5,-75.5 691.5,-56.5 652.5,-56.5"/>
<text text-anchor="middle" x="672" y="-63.5" font-family="Helvetica,sans-Serif" font-size="10.00">utility</text>
</a>
</g>
</g>
<!-- Node6&#45;&gt;Node7 -->
<g id="edge6" class="edge">
<title>Node6&#45;&gt;Node7</title>
<path fill="none" stroke="midnightblue" d="M450.68,-112.43C497.67,-103.82 571.47,-89.88 635,-76 637.49,-75.46 640.06,-74.87 642.64,-74.27"/>
<polygon fill="midnightblue" stroke="midnightblue" points="643.54,-77.66 652.45,-71.94 641.91,-70.85 643.54,-77.66"/>
</g>
<!-- Node8 -->
<g id="node8" class="node">
<title>Node8</title>
<g id="a_node8"><a xlink:title=" ">
<polygon fill="white" stroke="#bfbfbf" points="381,-56.5 381,-75.5 425,-75.5 425,-56.5 381,-56.5"/>
<text text-anchor="middle" x="403" y="-63.5" font-family="Helvetica,sans-Serif" font-size="10.00">cmath</text>
</a>
</g>
</g>
<!-- Node6&#45;&gt;Node8 -->
<g id="edge7" class="edge">
<title>Node6&#45;&gt;Node8</title>
<path fill="none" stroke="midnightblue" d="M403,-112.08C403,-105.01 403,-94.86 403,-85.99"/>
<polygon fill="midnightblue" stroke="midnightblue" points="406.5,-85.75 403,-75.75 399.5,-85.75 406.5,-85.75"/>
</g>
<!-- Node9&#45;&gt;Node6 -->
<g id="edge9" class="edge">
<title>Node9&#45;&gt;Node6</title>
<path fill="none" stroke="midnightblue" d="M154.91,-395.76C92.12,-386.49 0,-360.97 0,-291 0,-291 0,-291 0,-233 0,-198.36 13.57,-186.26 43,-168 90.67,-138.42 246.31,-128.22 336.58,-124.75"/>
<polygon fill="midnightblue" stroke="midnightblue" points="336.85,-128.24 346.71,-124.38 336.59,-121.24 336.85,-128.24"/>
</g>
<!-- Node10 -->
<g id="node10" class="node">
<title>Node10</title>
<g id="a_node10"><a xlink:href="_field_8hpp.html" target="_top" xlink:title=" ">
<polygon fill="white" stroke="black" points="170,-336.5 170,-355.5 226,-355.5 226,-336.5 170,-336.5"/>
<text text-anchor="middle" x="198" y="-343.5" font-family="Helvetica,sans-Serif" font-size="10.00">Field.hpp</text>
</a>
</g>
</g>
<!-- Node9&#45;&gt;Node10 -->
<g id="edge10" class="edge">
<title>Node9&#45;&gt;Node10</title>
<path fill="none" stroke="midnightblue" d="M209.69,-392.08C207.83,-384.93 205.16,-374.64 202.85,-365.69"/>
<polygon fill="midnightblue" stroke="midnightblue" points="206.17,-364.55 200.27,-355.75 199.39,-366.31 206.17,-364.55"/>
</g>
<!-- Node10&#45;&gt;Node6 -->
<g id="edge22" class="edge">
<title>Node10&#45;&gt;Node6</title>
<path fill="none" stroke="midnightblue" d="M181.73,-336.47C134.18,-310.52 2.16,-230.43 57,-168 75.13,-147.36 241.28,-133.38 336.58,-126.98"/>
<polygon fill="midnightblue" stroke="midnightblue" points="336.96,-130.46 346.71,-126.31 336.5,-123.48 336.96,-130.46"/>
</g>
<!-- Node11 -->
<g id="node11" class="node">
<title>Node11</title>
<g id="a_node11"><a xlink:href="_cell_8hpp.html" target="_top" xlink:title=" ">
<polygon fill="white" stroke="black" points="139.5,-280.5 139.5,-299.5 256.5,-299.5 256.5,-280.5 139.5,-280.5"/>
<text text-anchor="middle" x="198" y="-287.5" font-family="Helvetica,sans-Serif" font-size="10.00">engine/objects/Cell.hpp</text>
</a>
</g>
</g>
<!-- Node10&#45;&gt;Node11 -->
<g id="edge11" class="edge">
<title>Node10&#45;&gt;Node11</title>
<path fill="none" stroke="midnightblue" d="M198,-336.08C198,-329.01 198,-318.86 198,-309.99"/>
<polygon fill="midnightblue" stroke="midnightblue" points="201.5,-309.75 198,-299.75 194.5,-309.75 201.5,-309.75"/>
</g>
<!-- Node11&#45;&gt;Node4 -->
<g id="edge12" class="edge">
<title>Node11&#45;&gt;Node4</title>
<path fill="none" stroke="midnightblue" d="M248.51,-280.49C269.68,-274.15 292.29,-263.14 305,-244 314.99,-228.96 304.82,-209.36 294.61,-195.63"/>
<polygon fill="midnightblue" stroke="midnightblue" points="297.11,-193.15 288.11,-187.56 291.66,-197.54 297.11,-193.15"/>
</g>
<!-- Node12 -->
<g id="node12" class="node">
<title>Node12</title>
<g id="a_node12"><a xlink:href="_tickable_8hpp.html" target="_top" xlink:title=" ">
<polygon fill="white" stroke="black" points="66.5,-168.5 66.5,-187.5 169.5,-187.5 169.5,-168.5 66.5,-168.5"/>
<text text-anchor="middle" x="118" y="-175.5" font-family="Helvetica,sans-Serif" font-size="10.00">engine/Tickable.hpp</text>
</a>
</g>
</g>
<!-- Node11&#45;&gt;Node12 -->
<g id="edge13" class="edge">
<title>Node11&#45;&gt;Node12</title>
<path fill="none" stroke="midnightblue" d="M150.67,-280.42C129.9,-274.05 107.45,-263.02 95,-244 85.21,-229.05 94.67,-209.43 104.24,-195.67"/>
<polygon fill="midnightblue" stroke="midnightblue" points="107.12,-197.67 110.36,-187.58 101.53,-193.45 107.12,-197.67"/>
</g>
<!-- Node13 -->
<g id="node13" class="node">
<title>Node13</title>
<g id="a_node13"><a xlink:title=" ">
<polygon fill="white" stroke="#bfbfbf" points="582,-56.5 582,-75.5 626,-75.5 626,-56.5 582,-56.5"/>
<text text-anchor="middle" x="604" y="-63.5" font-family="Helvetica,sans-Serif" font-size="10.00">vector</text>
</a>
</g>
</g>
<!-- Node11&#45;&gt;Node13 -->
<g id="edge14" class="edge">
<title>Node11&#45;&gt;Node13</title>
<path fill="none" stroke="midnightblue" d="M196.89,-280.33C194.64,-258.89 191.75,-202.6 218,-168 261.36,-110.84 487.27,-80.06 571.92,-70.39"/>
<polygon fill="midnightblue" stroke="midnightblue" points="572.44,-73.85 581.99,-69.26 571.66,-66.89 572.44,-73.85"/>
</g>
<!-- Node14 -->
<g id="node14" class="node">
<title>Node14</title>
<g id="a_node14"><a xlink:href="_ground_8hpp.html" target="_top" xlink:title=" ">
<polygon fill="white" stroke="black" points="104,-224.5 104,-243.5 170,-243.5 170,-224.5 104,-224.5"/>
<text text-anchor="middle" x="137" y="-231.5" font-family="Helvetica,sans-Serif" font-size="10.00">Ground.hpp</text>
</a>
</g>
</g>
<!-- Node11&#45;&gt;Node14 -->
<g id="edge15" class="edge">
<title>Node11&#45;&gt;Node14</title>
<path fill="none" stroke="midnightblue" d="M188.2,-280.32C179.18,-272.34 165.59,-260.31 154.68,-250.65"/>
<polygon fill="midnightblue" stroke="midnightblue" points="156.79,-247.84 146.98,-243.83 152.15,-253.08 156.79,-247.84"/>
</g>
<!-- Node15 -->
<g id="node15" class="node">
<title>Node15</title>
<g id="a_node15"><a xlink:href="_building_8hpp.html" target="_top" xlink:title=" ">
<polygon fill="white" stroke="black" points="226.5,-224.5 226.5,-243.5 295.5,-243.5 295.5,-224.5 226.5,-224.5"/>
<text text-anchor="middle" x="261" y="-231.5" font-family="Helvetica,sans-Serif" font-size="10.00">Building.hpp</text>
</a>
</g>
</g>
<!-- Node11&#45;&gt;Node15 -->
<g id="edge18" class="edge">
<title>Node11&#45;&gt;Node15</title>
<path fill="none" stroke="midnightblue" d="M208.12,-280.32C217.53,-272.26 231.74,-260.08 243.07,-250.37"/>
<polygon fill="midnightblue" stroke="midnightblue" points="245.38,-253 250.69,-243.83 240.82,-247.68 245.38,-253"/>
</g>
<!-- Node14&#45;&gt;Node4 -->
<g id="edge16" class="edge">
<title>Node14&#45;&gt;Node4</title>
<path fill="none" stroke="midnightblue" d="M159.66,-224.44C183.4,-215.48 220.91,-201.31 247.74,-191.18"/>
<polygon fill="midnightblue" stroke="midnightblue" points="249.33,-194.32 257.45,-187.52 246.86,-187.77 249.33,-194.32"/>
</g>
<!-- Node14&#45;&gt;Node12 -->
<g id="edge17" class="edge">
<title>Node14&#45;&gt;Node12</title>
<path fill="none" stroke="midnightblue" d="M133.86,-224.08C131.32,-216.85 127.64,-206.41 124.47,-197.4"/>
<polygon fill="midnightblue" stroke="midnightblue" points="127.7,-196.02 121.08,-187.75 121.1,-198.35 127.7,-196.02"/>
</g>
<!-- Node15&#45;&gt;Node4 -->
<g id="edge19" class="edge">
<title>Node15&#45;&gt;Node4</title>
<path fill="none" stroke="midnightblue" d="M264.14,-224.08C266.68,-216.85 270.36,-206.41 273.53,-197.4"/>
<polygon fill="midnightblue" stroke="midnightblue" points="276.9,-198.35 276.92,-187.75 270.3,-196.02 276.9,-198.35"/>
</g>
<!-- Node15&#45;&gt;Node12 -->
<g id="edge20" class="edge">
<title>Node15&#45;&gt;Node12</title>
<path fill="none" stroke="midnightblue" d="M238.34,-224.44C214.6,-215.48 177.09,-201.31 150.26,-191.18"/>
<polygon fill="midnightblue" stroke="midnightblue" points="151.14,-187.77 140.55,-187.52 148.67,-194.32 151.14,-187.77"/>
</g>
<!-- Node16 -->
<g id="node16" class="node">
<title>Node16</title>
<g id="a_node16"><a xlink:title=" ">
<polygon fill="white" stroke="#bfbfbf" points="516.5,-168.5 516.5,-187.5 575.5,-187.5 575.5,-168.5 516.5,-168.5"/>
<text text-anchor="middle" x="546" y="-175.5" font-family="Helvetica,sans-Serif" font-size="10.00">functional</text>
</a>
</g>
</g>
<!-- Node15&#45;&gt;Node16 -->
<g id="edge21" class="edge">
<title>Node15&#45;&gt;Node16</title>
<path fill="none" stroke="midnightblue" d="M295.73,-227.16C341.59,-219.34 425.1,-204.71 506.33,-188.06"/>
<polygon fill="midnightblue" stroke="midnightblue" points="507.13,-191.47 516.22,-186.02 505.72,-184.61 507.13,-191.47"/>
</g>
<!-- Node18 -->
<g id="node18" class="node">
<title>Node18</title>
<g id="a_node18"><a xlink:href="_unit_8hpp.html" target="_top" xlink:title=" ">
<polygon fill="white" stroke="black" points="192.5,-448.5 192.5,-467.5 245.5,-467.5 245.5,-448.5 192.5,-448.5"/>
<text text-anchor="middle" x="219" y="-455.5" font-family="Helvetica,sans-Serif" font-size="10.00">Unit.hpp</text>
</a>
</g>
</g>
<!-- Node17&#45;&gt;Node18 -->
<g id="edge24" class="edge">
<title>Node17&#45;&gt;Node18</title>
<path fill="none" stroke="midnightblue" d="M219,-504.08C219,-497.01 219,-486.86 219,-477.99"/>
<polygon fill="midnightblue" stroke="midnightblue" points="222.5,-477.75 219,-467.75 215.5,-477.75 222.5,-477.75"/>
</g>
<!-- Node19 -->
<g id="node19" class="node">
<title>Node19</title>
<g id="a_node19"><a xlink:title=" ">
<polygon fill="white" stroke="#bfbfbf" points="145.5,-448.5 145.5,-467.5 174.5,-467.5 174.5,-448.5 145.5,-448.5"/>
<text text-anchor="middle" x="160" y="-455.5" font-family="Helvetica,sans-Serif" font-size="10.00">list</text>
</a>
</g>
</g>
<!-- Node17&#45;&gt;Node19 -->
<g id="edge26" class="edge">
<title>Node17&#45;&gt;Node19</title>
<path fill="none" stroke="midnightblue" d="M209.52,-504.32C200.8,-496.34 187.66,-484.31 177.1,-474.65"/>
<polygon fill="midnightblue" stroke="midnightblue" points="179.39,-472 169.65,-467.83 174.67,-477.17 179.39,-472"/>
</g>
<!-- Node18&#45;&gt;Node9 -->
<g id="edge25" class="edge">
<title>Node18&#45;&gt;Node9</title>
<path fill="none" stroke="midnightblue" d="M217.84,-448.08C216.92,-440.93 215.58,-430.64 214.42,-421.69"/>
<polygon fill="midnightblue" stroke="midnightblue" points="217.89,-421.22 213.13,-411.75 210.95,-422.12 217.89,-421.22"/>
</g>
<!-- Node21 -->
<g id="node21" class="node">
<title>Node21</title>
<g id="a_node21"><a xlink:title=" ">
<polygon fill="white" stroke="#bfbfbf" points="1060.5,-224.5 1060.5,-243.5 1095.5,-243.5 1095.5,-224.5 1060.5,-224.5"/>
<text text-anchor="middle" x="1078" y="-231.5" font-family="Helvetica,sans-Serif" font-size="10.00">map</text>
</a>
</g>
</g>
<!-- Node20&#45;&gt;Node21 -->
<g id="edge28" class="edge">
<title>Node20&#45;&gt;Node21</title>
<path fill="none" stroke="midnightblue" d="M904.46,-280.45C939.99,-271.57 996.96,-257.16 1046,-244 1047.46,-243.61 1048.96,-243.2 1050.48,-242.79"/>
<polygon fill="midnightblue" stroke="midnightblue" points="1051.72,-246.07 1060.42,-240.03 1049.84,-239.33 1051.72,-246.07"/>
</g>
<!-- Node22 -->
<g id="node22" class="node">
<title>Node22</title>
<g id="a_node22"><a xlink:title=" ">
<polygon fill="white" stroke="#bfbfbf" points="816.5,-168.5 816.5,-187.5 857.5,-187.5 857.5,-168.5 816.5,-168.5"/>
<text text-anchor="middle" x="837" y="-175.5" font-family="Helvetica,sans-Serif" font-size="10.00">string</text>
</a>
</g>
</g>
<!-- Node20&#45;&gt;Node22 -->
<g id="edge29" class="edge">
<title>Node20&#45;&gt;Node22</title>
<path fill="none" stroke="midnightblue" d="M867.47,-280.15C863.87,-267.63 857.04,-244.04 851,-224 848.34,-215.18 845.31,-205.41 842.75,-197.23"/>
<polygon fill="midnightblue" stroke="midnightblue" points="846.06,-196.1 839.73,-187.61 839.39,-198.2 846.06,-196.1"/>
</g>
<!-- Node23 -->
<g id="node23" class="node">
<title>Node23</title>
<g id="a_node23"><a xlink:title=" ">
<polygon fill="white" stroke="#bfbfbf" points="632.5,-168.5 632.5,-187.5 683.5,-187.5 683.5,-168.5 632.5,-168.5"/>
<text text-anchor="middle" x="658" y="-175.5" font-family="Helvetica,sans-Serif" font-size="10.00">memory</text>
</a>
</g>
</g>
<!-- Node20&#45;&gt;Node23 -->
<g id="edge30" class="edge">
<title>Node20&#45;&gt;Node23</title>
<path fill="none" stroke="midnightblue" d="M802.75,-280.44C754.92,-273.04 696.08,-260.88 678,-244 665.34,-232.17 660.62,-212.54 658.9,-197.94"/>
<polygon fill="midnightblue" stroke="midnightblue" points="662.36,-197.25 658.07,-187.56 655.38,-197.81 662.36,-197.25"/>
</g>
<!-- Node24 -->
<g id="node24" class="node">
<title>Node24</title>
<g id="a_node24"><a xlink:href="_shader_8hpp.html" target="_top" xlink:title=" ">
<polygon fill="white" stroke="black" points="898.5,-224.5 898.5,-243.5 1003.5,-243.5 1003.5,-224.5 898.5,-224.5"/>
<text text-anchor="middle" x="951" y="-231.5" font-family="Helvetica,sans-Serif" font-size="10.00">graphics/Shader.hpp</text>
</a>
</g>
</g>
<!-- Node20&#45;&gt;Node24 -->
<g id="edge31" class="edge">
<title>Node20&#45;&gt;Node24</title>
<path fill="none" stroke="midnightblue" d="M883.01,-280.32C895.53,-271.98 914.68,-259.21 929.47,-249.35"/>
<polygon fill="midnightblue" stroke="midnightblue" points="931.64,-252.11 938.02,-243.65 927.76,-246.29 931.64,-252.11"/>
</g>
<!-- Node25 -->
<g id="node25" class="node">
<title>Node25</title>
<g id="a_node25"><a xlink:href="_g_shape_8hpp.html" target="_top" xlink:title=" ">
<polygon fill="white" stroke="black" points="914,-168.5 914,-187.5 1024,-187.5 1024,-168.5 914,-168.5"/>
<text text-anchor="middle" x="969" y="-175.5" font-family="Helvetica,sans-Serif" font-size="10.00">graphics/GShape.hpp</text>
</a>
</g>
</g>
<!-- Node20&#45;&gt;Node25 -->
<g id="edge46" class="edge">
<title>Node20&#45;&gt;Node25</title>
<path fill="none" stroke="midnightblue" d="M946.69,-282.8C971.91,-276.67 997.45,-265.19 1013,-244 1025.36,-227.16 1007.14,-207.18 990.53,-193.86"/>
<polygon fill="midnightblue" stroke="midnightblue" points="992.26,-190.78 982.17,-187.56 988.05,-196.37 992.26,-190.78"/>
</g>
<!-- Node31 -->
<g id="node31" class="node">
<title>Node31</title>
<g id="a_node31"><a xlink:href="_event_handler_8hpp.html" target="_top" xlink:title=" ">
<polygon fill="white" stroke="black" points="686.5,-224.5 686.5,-243.5 841.5,-243.5 841.5,-224.5 686.5,-224.5"/>
<text text-anchor="middle" x="764" y="-231.5" font-family="Helvetica,sans-Serif" font-size="10.00">EventHandler/EventHandler.hpp</text>
</a>
</g>
</g>
<!-- Node20&#45;&gt;Node31 -->
<g id="edge47" class="edge">
<title>Node20&#45;&gt;Node31</title>
<path fill="none" stroke="midnightblue" d="M852.97,-280.32C835.97,-271.66 809.62,-258.24 790.01,-248.25"/>
<polygon fill="midnightblue" stroke="midnightblue" points="791.49,-245.08 780.99,-243.65 788.31,-251.31 791.49,-245.08"/>
</g>
<!-- Node24&#45;&gt;Node22 -->
<g id="edge32" class="edge">
<title>Node24&#45;&gt;Node22</title>
<path fill="none" stroke="midnightblue" d="M932.94,-224.44C914.43,-215.68 885.42,-201.94 864.14,-191.86"/>
<polygon fill="midnightblue" stroke="midnightblue" points="865.51,-188.63 854.98,-187.52 862.52,-194.96 865.51,-188.63"/>
</g>
<!-- Node24&#45;&gt;Node25 -->
<g id="edge33" class="edge">
<title>Node24&#45;&gt;Node25</title>
<path fill="none" stroke="midnightblue" d="M948.81,-224.08C949.71,-216.69 952.88,-205.95 956.67,-196.81"/>
<polygon fill="midnightblue" stroke="midnightblue" points="959.85,-198.29 960.95,-187.75 953.52,-195.3 959.85,-198.29"/>
</g>
<!-- Node29 -->
<g id="node29" class="node">
<title>Node29</title>
<g id="a_node29"><a xlink:href="_transform_8hpp.html" target="_top" xlink:title=" ">
<polygon fill="white" stroke="black" points="909.5,-56.5 909.5,-75.5 1028.5,-75.5 1028.5,-56.5 909.5,-56.5"/>
<text text-anchor="middle" x="969" y="-63.5" font-family="Helvetica,sans-Serif" font-size="10.00">graphics/Transform.hpp</text>
</a>
</g>
</g>
<!-- Node24&#45;&gt;Node29 -->
<g id="edge45" class="edge">
<title>Node24&#45;&gt;Node29</title>
<path fill="none" stroke="midnightblue" d="M982.81,-224.38C1000.95,-217.66 1022.16,-206.31 1033,-188 1054.95,-150.91 1013.68,-105.64 987.74,-82.4"/>
<polygon fill="midnightblue" stroke="midnightblue" points="989.81,-79.56 979.96,-75.66 985.23,-84.85 989.81,-79.56"/>
</g>
<!-- Node25&#45;&gt;Node6 -->
<g id="edge44" class="edge">
<title>Node25&#45;&gt;Node6</title>
<path fill="none" stroke="midnightblue" d="M913.96,-171.75C809.3,-161.76 582.01,-140.08 469.23,-129.32"/>
<polygon fill="midnightblue" stroke="midnightblue" points="469.29,-125.81 459.01,-128.34 468.63,-132.78 469.29,-125.81"/>
</g>
<!-- Node25&#45;&gt;Node24 -->
<g id="edge42" class="edge">
<title>Node25&#45;&gt;Node24</title>
<path fill="none" stroke="midnightblue" d="M971.21,-187.75C970.34,-195.09 967.19,-205.82 963.41,-214.98"/>
<polygon fill="midnightblue" stroke="midnightblue" points="960.22,-213.54 959.14,-224.08 966.56,-216.52 960.22,-213.54"/>
</g>
<!-- Node26 -->
<g id="node26" class="node">
<title>Node26</title>
<g id="a_node26"><a xlink:href="_window_8hpp.html" target="_top" xlink:title=" ">
<polygon fill="white" stroke="black" points="752.5,-112.5 752.5,-131.5 861.5,-131.5 861.5,-112.5 752.5,-112.5"/>
<text text-anchor="middle" x="807" y="-119.5" font-family="Helvetica,sans-Serif" font-size="10.00">graphics/Window.hpp</text>
</a>
</g>
</g>
<!-- Node25&#45;&gt;Node26 -->
<g id="edge34" class="edge">
<title>Node25&#45;&gt;Node26</title>
<path fill="none" stroke="midnightblue" d="M943.33,-168.44C916.08,-159.36 872.82,-144.94 842.35,-134.78"/>
<polygon fill="midnightblue" stroke="midnightblue" points="843.14,-131.36 832.55,-131.52 840.93,-138 843.14,-131.36"/>
</g>
<!-- Node25&#45;&gt;Node29 -->
<g id="edge43" class="edge">
<title>Node25&#45;&gt;Node29</title>
<path fill="none" stroke="midnightblue" d="M969,-168.37C969,-150.62 969,-109.67 969,-85.6"/>
<polygon fill="midnightblue" stroke="midnightblue" points="972.5,-85.59 969,-75.59 965.5,-85.59 972.5,-85.59"/>
</g>
<!-- Node26&#45;&gt;Node7 -->
<g id="edge37" class="edge">
<title>Node26&#45;&gt;Node7</title>
<path fill="none" stroke="midnightblue" d="M785.61,-112.44C762.77,-103.31 726.43,-88.77 701.02,-78.61"/>
<polygon fill="midnightblue" stroke="midnightblue" points="702.12,-75.28 691.54,-74.82 699.52,-81.78 702.12,-75.28"/>
</g>
<!-- Node26&#45;&gt;Node13 -->
<g id="edge38" class="edge">
<title>Node26&#45;&gt;Node13</title>
<path fill="none" stroke="midnightblue" d="M774.83,-112.44C736.82,-102.33 673.95,-85.61 636.01,-75.51"/>
<polygon fill="midnightblue" stroke="midnightblue" points="636.57,-72.04 626.01,-72.85 634.77,-78.81 636.57,-72.04"/>
</g>
<!-- Node26&#45;&gt;Node24 -->
<g id="edge39" class="edge">
<title>Node26&#45;&gt;Node24</title>
<path fill="none" stroke="midnightblue" d="M818.54,-131.58C830.65,-140.59 850.22,-155.22 867,-168 889.36,-185.03 914.87,-204.83 931.86,-218.06"/>
<polygon fill="midnightblue" stroke="midnightblue" points="929.86,-220.94 939.9,-224.32 934.16,-215.42 929.86,-220.94"/>
</g>
<!-- Node27 -->
<g id="node27" class="node">
<title>Node27</title>
<g id="a_node27"><a xlink:title=" ">
<polygon fill="white" stroke="#bfbfbf" points="724.5,-56.5 724.5,-75.5 787.5,-75.5 787.5,-56.5 724.5,-56.5"/>
<text text-anchor="middle" x="756" y="-63.5" font-family="Helvetica,sans-Serif" font-size="10.00">glad/glad.h</text>
</a>
</g>
</g>
<!-- Node26&#45;&gt;Node27 -->
<g id="edge35" class="edge">
<title>Node26&#45;&gt;Node27</title>
<path fill="none" stroke="midnightblue" d="M798.58,-112.08C791.15,-104.22 780.15,-92.57 771.19,-83.08"/>
<polygon fill="midnightblue" stroke="midnightblue" points="773.68,-80.62 764.26,-75.75 768.59,-85.42 773.68,-80.62"/>
</g>
<!-- Node28 -->
<g id="node28" class="node">
<title>Node28</title>
<g id="a_node28"><a xlink:title=" ">
<polygon fill="white" stroke="#bfbfbf" points="805.5,-56.5 805.5,-75.5 884.5,-75.5 884.5,-56.5 805.5,-56.5"/>
<text text-anchor="middle" x="845" y="-63.5" font-family="Helvetica,sans-Serif" font-size="10.00">GLFW/glfw3.h</text>
</a>
</g>
</g>
<!-- Node26&#45;&gt;Node28 -->
<g id="edge36" class="edge">
<title>Node26&#45;&gt;Node28</title>
<path fill="none" stroke="midnightblue" d="M813.27,-112.08C818.64,-104.46 826.52,-93.26 833.08,-83.94"/>
<polygon fill="midnightblue" stroke="midnightblue" points="835.95,-85.94 838.84,-75.75 830.22,-81.91 835.95,-85.94"/>
</g>
<!-- Node26&#45;&gt;Node29 -->
<g id="edge40" class="edge">
<title>Node26&#45;&gt;Node29</title>
<path fill="none" stroke="midnightblue" d="M832.67,-112.44C859.92,-103.36 903.18,-88.94 933.65,-78.78"/>
<polygon fill="midnightblue" stroke="midnightblue" points="935.07,-82 943.45,-75.52 932.86,-75.36 935.07,-82"/>
</g>
<!-- Node30 -->
<g id="node30" class="node">
<title>Node30</title>
<g id="a_node30"><a xlink:title=" ">
<polygon fill="white" stroke="#bfbfbf" points="917,-0.5 917,-19.5 1021,-19.5 1021,-0.5 917,-0.5"/>
<text text-anchor="middle" x="969" y="-7.5" font-family="Helvetica,sans-Serif" font-size="10.00">glm/gtc/type_ptr.hpp</text>
</a>
</g>
</g>
<!-- Node29&#45;&gt;Node30 -->
<g id="edge41" class="edge">
<title>Node29&#45;&gt;Node30</title>
<path fill="none" stroke="midnightblue" d="M969,-56.08C969,-49.01 969,-38.86 969,-29.99"/>
<polygon fill="midnightblue" stroke="midnightblue" points="972.5,-29.75 969,-19.75 965.5,-29.75 972.5,-29.75"/>
</g>
<!-- Node31&#45;&gt;Node6 -->
<g id="edge50" class="edge">
<title>Node31&#45;&gt;Node6</title>
<path fill="none" stroke="midnightblue" d="M757.26,-224.1C745.8,-209.67 721.02,-181.45 693,-168 621.79,-133.81 530.48,-124.53 469.52,-122.52"/>
<polygon fill="midnightblue" stroke="midnightblue" points="469.35,-119.02 459.26,-122.25 469.16,-126.02 469.35,-119.02"/>
</g>
<!-- Node31&#45;&gt;Node16 -->
<g id="edge48" class="edge">
<title>Node31&#45;&gt;Node16</title>
<path fill="none" stroke="midnightblue" d="M729.46,-224.44C690.39,-214.77 626.87,-199.03 585.77,-188.85"/>
<polygon fill="midnightblue" stroke="midnightblue" points="586.38,-185.4 575.83,-186.39 584.69,-192.19 586.38,-185.4"/>
</g>
<!-- Node31&#45;&gt;Node26 -->
<g id="edge49" class="edge">
<title>Node31&#45;&gt;Node26</title>
<path fill="none" stroke="midnightblue" d="M767.37,-224.37C774.38,-206.46 790.61,-164.92 799.98,-140.95"/>
<polygon fill="midnightblue" stroke="midnightblue" points="803.26,-142.18 803.64,-131.59 796.74,-139.63 803.26,-142.18"/>
</g>
<!-- Node32&#45;&gt;Node4 -->
<g id="edge57" class="edge">
<title>Node32&#45;&gt;Node4</title>
<path fill="none" stroke="midnightblue" d="M431.48,-224.44C400.93,-215.28 352.29,-200.69 318.4,-190.52"/>
<polygon fill="midnightblue" stroke="midnightblue" points="318.97,-187.04 308.39,-187.52 316.96,-193.74 318.97,-187.04"/>
</g>
<!-- Node32&#45;&gt;Node6 -->
<g id="edge56" class="edge">
<title>Node32&#45;&gt;Node6</title>
<path fill="none" stroke="midnightblue" d="M430.12,-224.39C412.46,-217.59 391.55,-206.15 381,-188 372.24,-172.94 380.67,-153.87 389.51,-140.29"/>
<polygon fill="midnightblue" stroke="midnightblue" points="392.54,-142.06 395.49,-131.88 386.84,-138.01 392.54,-142.06"/>
</g>
<!-- Node32&#45;&gt;Node13 -->
<g id="edge53" class="edge">
<title>Node32&#45;&gt;Node13</title>
<path fill="none" stroke="midnightblue" d="M515.65,-225.93C540.46,-219.9 567.89,-208.72 585,-188 609.07,-158.87 608.88,-111.88 606.51,-85.86"/>
<polygon fill="midnightblue" stroke="midnightblue" points="609.98,-85.36 605.39,-75.81 603.02,-86.14 609.98,-85.36"/>
</g>
<!-- Node32&#45;&gt;Node23 -->
<g id="edge52" class="edge">
<title>Node32&#45;&gt;Node23</title>
<path fill="none" stroke="midnightblue" d="M491.37,-224.44C527.06,-214.71 585.19,-198.86 622.5,-188.68"/>
<polygon fill="midnightblue" stroke="midnightblue" points="623.71,-191.98 632.44,-185.97 621.87,-185.23 623.71,-191.98"/>
</g>
<!-- Node33 -->
<g id="node33" class="node">
<title>Node33</title>
<g id="a_node33"><a xlink:href="_g_u_i_window_8hpp.html" target="_top" xlink:title=" ">
<polygon fill="white" stroke="black" points="390,-168.5 390,-187.5 498,-187.5 498,-168.5 390,-168.5"/>
<text text-anchor="middle" x="444" y="-175.5" font-family="Helvetica,sans-Serif" font-size="10.00">GUI/GUIWindow.hpp</text>
</a>
</g>
</g>
<!-- Node32&#45;&gt;Node33 -->
<g id="edge54" class="edge">
<title>Node32&#45;&gt;Node33</title>
<path fill="none" stroke="midnightblue" d="M457.36,-224.08C455.21,-216.85 452.12,-206.41 449.45,-197.4"/>
<polygon fill="midnightblue" stroke="midnightblue" points="452.79,-196.34 446.59,-187.75 446.08,-198.33 452.79,-196.34"/>
</g>
<!-- Node33&#45;&gt;Node6 -->
<g id="edge55" class="edge">
<title>Node33&#45;&gt;Node6</title>
<path fill="none" stroke="midnightblue" d="M437.23,-168.08C431.44,-160.46 422.94,-149.26 415.86,-139.94"/>
<polygon fill="midnightblue" stroke="midnightblue" points="418.48,-137.6 409.64,-131.75 412.9,-141.83 418.48,-137.6"/>
</g>
<!-- Node34&#45;&gt;Node5 -->
<g id="edge59" class="edge">
<title>Node34&#45;&gt;Node5</title>
<path fill="none" stroke="midnightblue" d="M584.7,-504.29C595.97,-486.2 620,-442.95 620,-403 620,-403 620,-403 620,-289 620,-233.61 675.95,-240.7 693,-188 697.84,-173.05 697.41,-155.14 696.02,-141.91"/>
<polygon fill="midnightblue" stroke="midnightblue" points="699.45,-141.12 694.65,-131.67 692.51,-142.05 699.45,-141.12"/>
</g>
</g>
</svg>
