<?xml version="1.0" encoding="UTF-8" standalone="no"?>
<!DOCTYPE svg PUBLIC "-//W3C//DTD SVG 1.1//EN"
 "http://www.w3.org/Graphics/SVG/1.1/DTD/svg11.dtd">
<!-- Generated by graphviz version 2.47.0 (20210407.0042)
 -->
<!-- Title: include/Engine.hpp Pages: 1 -->
<svg width="422pt" height="532pt"
 viewBox="0.00 0.00 421.50 532.00" xmlns="http://www.w3.org/2000/svg" xmlns:xlink="http://www.w3.org/1999/xlink">
<g id="graph0" class="graph" transform="scale(1 1) rotate(0) translate(4 528)">
<title>include/Engine.hpp</title>
<polygon fill="white" stroke="transparent" points="-4,4 -4,-528 417.5,-528 417.5,4 -4,4"/>
<!-- Node1 -->
<g id="node1" class="node">
<title>Node1</title>
<g id="a_node1"><a xlink:title=" ">
<polygon fill="#bfbfbf" stroke="black" points="105.5,-504.5 105.5,-523.5 203.5,-523.5 203.5,-504.5 105.5,-504.5"/>
<text text-anchor="middle" x="154.5" y="-511.5" font-family="Helvetica,sans-Serif" font-size="10.00">include/Engine.hpp</text>
</a>
</g>
</g>
<!-- Node2 -->
<g id="node2" class="node">
<title>Node2</title>
<g id="a_node2"><a xlink:href="_player_8hpp.html" target="_top" xlink:title=" ">
<polygon fill="white" stroke="black" points="40.5,-392.5 40.5,-411.5 168.5,-411.5 168.5,-392.5 40.5,-392.5"/>
<text text-anchor="middle" x="104.5" y="-399.5" font-family="Helvetica,sans-Serif" font-size="10.00">engine/objects/Player.hpp</text>
</a>
</g>
</g>
<!-- Node1&#45;&gt;Node2 -->
<g id="edge1" class="edge">
<title>Node1&#45;&gt;Node2</title>
<path fill="none" stroke="midnightblue" d="M147.18,-504.22C140.24,-495.51 129.94,-481.54 123.5,-468 116.4,-453.07 111.37,-434.93 108.27,-421.61"/>
<polygon fill="midnightblue" stroke="midnightblue" points="111.67,-420.76 106.13,-411.73 104.83,-422.25 111.67,-420.76"/>
</g>
<!-- Node15 -->
<g id="node15" class="node">
<title>Node15</title>
<g id="a_node15"><a xlink:href="_unit_group_8hpp.html" target="_top" xlink:title=" ">
<polygon fill="white" stroke="black" points="133,-448.5 133,-467.5 278,-467.5 278,-448.5 133,-448.5"/>
<text text-anchor="middle" x="205.5" y="-455.5" font-family="Helvetica,sans-Serif" font-size="10.00">engine/objects/UnitGroup.hpp</text>
</a>
</g>
</g>
<!-- Node1&#45;&gt;Node15 -->
<g id="edge21" class="edge">
<title>Node1&#45;&gt;Node15</title>
<path fill="none" stroke="midnightblue" d="M162.92,-504.08C170.35,-496.22 181.35,-484.57 190.31,-475.08"/>
<polygon fill="midnightblue" stroke="midnightblue" points="192.91,-477.42 197.24,-467.75 187.82,-472.62 192.91,-477.42"/>
</g>
<!-- Node3 -->
<g id="node3" class="node">
<title>Node3</title>
<g id="a_node3"><a xlink:href="_drawable_8hpp.html" target="_top" xlink:title=" ">
<polygon fill="white" stroke="black" points="0,-112.5 0,-131.5 107,-131.5 107,-112.5 0,-112.5"/>
<text text-anchor="middle" x="53.5" y="-119.5" font-family="Helvetica,sans-Serif" font-size="10.00">engine/Drawable.hpp</text>
</a>
</g>
</g>
<!-- Node2&#45;&gt;Node3 -->
<g id="edge2" class="edge">
<title>Node2&#45;&gt;Node3</title>
<path fill="none" stroke="midnightblue" d="M88.81,-392.4C61.83,-376.31 9.5,-338.94 9.5,-291 9.5,-291 9.5,-291 9.5,-233 9.5,-198.04 28.9,-161.01 41.93,-140.07"/>
<polygon fill="midnightblue" stroke="midnightblue" points="44.89,-141.95 47.38,-131.65 39.01,-138.15 44.89,-141.95"/>
</g>
<!-- Node7 -->
<g id="node7" class="node">
<title>Node7</title>
<g id="a_node7"><a xlink:href="_world_actor_8hpp.html" target="_top" xlink:title=" ">
<polygon fill="white" stroke="black" points="205.5,-336.5 205.5,-355.5 319.5,-355.5 319.5,-336.5 205.5,-336.5"/>
<text text-anchor="middle" x="262.5" y="-343.5" font-family="Helvetica,sans-Serif" font-size="10.00">engine/WorldActor.hpp</text>
</a>
</g>
</g>
<!-- Node2&#45;&gt;Node7 -->
<g id="edge6" class="edge">
<title>Node2&#45;&gt;Node7</title>
<path fill="none" stroke="midnightblue" d="M129.54,-392.44C156.12,-383.36 198.31,-368.94 228.02,-358.78"/>
<polygon fill="midnightblue" stroke="midnightblue" points="229.25,-362.06 237.58,-355.52 226.99,-355.44 229.25,-362.06"/>
</g>
<!-- Node4 -->
<g id="node4" class="node">
<title>Node4</title>
<g id="a_node4"><a xlink:title=" ">
<polygon fill="white" stroke="#bfbfbf" points="20.5,-56.5 20.5,-75.5 86.5,-75.5 86.5,-56.5 20.5,-56.5"/>
<text text-anchor="middle" x="53.5" y="-63.5" font-family="Helvetica,sans-Serif" font-size="10.00">string_view</text>
</a>
</g>
</g>
<!-- Node3&#45;&gt;Node4 -->
<g id="edge3" class="edge">
<title>Node3&#45;&gt;Node4</title>
<path fill="none" stroke="midnightblue" d="M53.5,-112.08C53.5,-105.01 53.5,-94.86 53.5,-85.99"/>
<polygon fill="midnightblue" stroke="midnightblue" points="57,-85.75 53.5,-75.75 50,-85.75 57,-85.75"/>
</g>
<!-- Node5 -->
<g id="node5" class="node">
<title>Node5</title>
<g id="a_node5"><a xlink:href="_vector2_d_8hpp.html" target="_top" xlink:title=" ">
<polygon fill="white" stroke="black" points="301.5,-56.5 301.5,-75.5 413.5,-75.5 413.5,-56.5 301.5,-56.5"/>
<text text-anchor="middle" x="357.5" y="-63.5" font-family="Helvetica,sans-Serif" font-size="10.00">Helpers/Vector2D.hpp</text>
</a>
</g>
</g>
<!-- Node3&#45;&gt;Node5 -->
<g id="edge4" class="edge">
<title>Node3&#45;&gt;Node5</title>
<path fill="none" stroke="midnightblue" d="M101.67,-112.44C155.37,-102.9 242.19,-87.48 299.55,-77.29"/>
<polygon fill="midnightblue" stroke="midnightblue" points="300.32,-80.71 309.56,-75.52 299.1,-73.82 300.32,-80.71"/>
</g>
<!-- Node6 -->
<g id="node6" class="node">
<title>Node6</title>
<g id="a_node6"><a xlink:title=" ">
<polygon fill="white" stroke="#bfbfbf" points="338,-0.5 338,-19.5 377,-19.5 377,-0.5 338,-0.5"/>
<text text-anchor="middle" x="357.5" y="-7.5" font-family="Helvetica,sans-Serif" font-size="10.00">utility</text>
</a>
</g>
</g>
<!-- Node5&#45;&gt;Node6 -->
<g id="edge5" class="edge">
<title>Node5&#45;&gt;Node6</title>
<path fill="none" stroke="midnightblue" d="M357.5,-56.08C357.5,-49.01 357.5,-38.86 357.5,-29.99"/>
<polygon fill="midnightblue" stroke="midnightblue" points="361,-29.75 357.5,-19.75 354,-29.75 361,-29.75"/>
</g>
<!-- Node7&#45;&gt;Node5 -->
<g id="edge7" class="edge">
<title>Node7&#45;&gt;Node5</title>
<path fill="none" stroke="midnightblue" d="M289.41,-336.41C328.28,-322.13 395.5,-289.54 395.5,-235 395.5,-235 395.5,-235 395.5,-177 395.5,-142.81 378.9,-105.76 367.64,-84.57"/>
<polygon fill="midnightblue" stroke="midnightblue" points="370.68,-82.83 362.78,-75.77 364.55,-86.22 370.68,-82.83"/>
</g>
<!-- Node8 -->
<g id="node8" class="node">
<title>Node8</title>
<g id="a_node8"><a xlink:href="_field_8hpp.html" target="_top" xlink:title=" ">
<polygon fill="white" stroke="black" points="234.5,-280.5 234.5,-299.5 290.5,-299.5 290.5,-280.5 234.5,-280.5"/>
<text text-anchor="middle" x="262.5" y="-287.5" font-family="Helvetica,sans-Serif" font-size="10.00">Field.hpp</text>
</a>
</g>
</g>
<!-- Node7&#45;&gt;Node8 -->
<g id="edge8" class="edge">
<title>Node7&#45;&gt;Node8</title>
<path fill="none" stroke="midnightblue" d="M262.5,-336.08C262.5,-329.01 262.5,-318.86 262.5,-309.99"/>
<polygon fill="midnightblue" stroke="midnightblue" points="266,-309.75 262.5,-299.75 259,-309.75 266,-309.75"/>
</g>
<!-- Node8&#45;&gt;Node5 -->
<g id="edge20" class="edge">
<title>Node8&#45;&gt;Node5</title>
<path fill="none" stroke="midnightblue" d="M268.45,-280.25C274.38,-271.33 283.59,-257 290.5,-244 319.72,-188.99 342.4,-118.39 352.21,-85.46"/>
<polygon fill="midnightblue" stroke="midnightblue" points="355.58,-86.39 355.03,-75.81 348.86,-84.42 355.58,-86.39"/>
</g>
<!-- Node9 -->
<g id="node9" class="node">
<title>Node9</title>
<g id="a_node9"><a xlink:href="_cell_8hpp.html" target="_top" xlink:title=" ">
<polygon fill="white" stroke="black" points="164,-224.5 164,-243.5 281,-243.5 281,-224.5 164,-224.5"/>
<text text-anchor="middle" x="222.5" y="-231.5" font-family="Helvetica,sans-Serif" font-size="10.00">engine/objects/Cell.hpp</text>
</a>
</g>
</g>
<!-- Node8&#45;&gt;Node9 -->
<g id="edge9" class="edge">
<title>Node8&#45;&gt;Node9</title>
<path fill="none" stroke="midnightblue" d="M255.89,-280.08C250.24,-272.46 241.96,-261.26 235.05,-251.94"/>
<polygon fill="midnightblue" stroke="midnightblue" points="237.75,-249.7 228.98,-243.75 232.12,-253.87 237.75,-249.7"/>
</g>
<!-- Node9&#45;&gt;Node3 -->
<g id="edge10" class="edge">
<title>Node9&#45;&gt;Node3</title>
<path fill="none" stroke="midnightblue" d="M163.97,-230.58C130.84,-226.07 91.21,-214.87 66.5,-188 55.19,-175.7 52.53,-156.45 52.34,-142.08"/>
<polygon fill="midnightblue" stroke="midnightblue" points="55.85,-141.92 52.6,-131.83 48.85,-141.74 55.85,-141.92"/>
</g>
<!-- Node10 -->
<g id="node10" class="node">
<title>Node10</title>
<g id="a_node10"><a xlink:href="_tickable_8hpp.html" target="_top" xlink:title=" ">
<polygon fill="white" stroke="black" points="207,-112.5 207,-131.5 310,-131.5 310,-112.5 207,-112.5"/>
<text text-anchor="middle" x="258.5" y="-119.5" font-family="Helvetica,sans-Serif" font-size="10.00">engine/Tickable.hpp</text>
</a>
</g>
</g>
<!-- Node9&#45;&gt;Node10 -->
<g id="edge11" class="edge">
<title>Node9&#45;&gt;Node10</title>
<path fill="none" stroke="midnightblue" d="M251.62,-224.44C269.14,-217.62 290.02,-206.14 300.5,-188 310.59,-170.53 294.39,-151.18 279.27,-138.18"/>
<polygon fill="midnightblue" stroke="midnightblue" points="281.14,-135.19 271.15,-131.66 276.75,-140.65 281.14,-135.19"/>
</g>
<!-- Node11 -->
<g id="node11" class="node">
<title>Node11</title>
<g id="a_node11"><a xlink:title=" ">
<polygon fill="white" stroke="#bfbfbf" points="163.5,-168.5 163.5,-187.5 207.5,-187.5 207.5,-168.5 163.5,-168.5"/>
<text text-anchor="middle" x="185.5" y="-175.5" font-family="Helvetica,sans-Serif" font-size="10.00">vector</text>
</a>
</g>
</g>
<!-- Node9&#45;&gt;Node11 -->
<g id="edge12" class="edge">
<title>Node9&#45;&gt;Node11</title>
<path fill="none" stroke="midnightblue" d="M216.39,-224.08C211.22,-216.53 203.65,-205.49 197.31,-196.23"/>
<polygon fill="midnightblue" stroke="midnightblue" points="200.04,-194.02 191.5,-187.75 194.26,-197.98 200.04,-194.02"/>
</g>
<!-- Node12 -->
<g id="node12" class="node">
<title>Node12</title>
<g id="a_node12"><a xlink:href="_ground_8hpp.html" target="_top" xlink:title=" ">
<polygon fill="white" stroke="black" points="225.5,-168.5 225.5,-187.5 291.5,-187.5 291.5,-168.5 225.5,-168.5"/>
<text text-anchor="middle" x="258.5" y="-175.5" font-family="Helvetica,sans-Serif" font-size="10.00">Ground.hpp</text>
</a>
</g>
</g>
<!-- Node9&#45;&gt;Node12 -->
<g id="edge13" class="edge">
<title>Node9&#45;&gt;Node12</title>
<path fill="none" stroke="midnightblue" d="M228.44,-224.08C233.48,-216.53 240.84,-205.49 247.01,-196.23"/>
<polygon fill="midnightblue" stroke="midnightblue" points="250.03,-198.01 252.67,-187.75 244.21,-194.13 250.03,-198.01"/>
</g>
<!-- Node13 -->
<g id="node13" class="node">
<title>Node13</title>
<g id="a_node13"><a xlink:href="_building_8hpp.html" target="_top" xlink:title=" ">
<polygon fill="white" stroke="black" points="76,-168.5 76,-187.5 145,-187.5 145,-168.5 76,-168.5"/>
<text text-anchor="middle" x="110.5" y="-175.5" font-family="Helvetica,sans-Serif" font-size="10.00">Building.hpp</text>
</a>
</g>
</g>
<!-- Node9&#45;&gt;Node13 -->
<g id="edge16" class="edge">
<title>Node9&#45;&gt;Node13</title>
<path fill="none" stroke="midnightblue" d="M204.51,-224.32C186.46,-215.62 158.45,-202.12 137.7,-192.11"/>
<polygon fill="midnightblue" stroke="midnightblue" points="138.98,-188.84 128.45,-187.65 135.94,-195.15 138.98,-188.84"/>
</g>
<!-- Node12&#45;&gt;Node3 -->
<g id="edge14" class="edge">
<title>Node12&#45;&gt;Node3</title>
<path fill="none" stroke="midnightblue" d="M226.02,-168.44C190.78,-159.16 134.4,-144.31 95.74,-134.13"/>
<polygon fill="midnightblue" stroke="midnightblue" points="96.39,-130.68 85.83,-131.52 94.61,-137.45 96.39,-130.68"/>
</g>
<!-- Node12&#45;&gt;Node10 -->
<g id="edge15" class="edge">
<title>Node12&#45;&gt;Node10</title>
<path fill="none" stroke="midnightblue" d="M258.5,-168.08C258.5,-161.01 258.5,-150.86 258.5,-141.99"/>
<polygon fill="midnightblue" stroke="midnightblue" points="262,-141.75 258.5,-131.75 255,-141.75 262,-141.75"/>
</g>
<!-- Node13&#45;&gt;Node3 -->
<g id="edge17" class="edge">
<title>Node13&#45;&gt;Node3</title>
<path fill="none" stroke="midnightblue" d="M101.34,-168.32C93,-160.42 80.47,-148.55 70.32,-138.94"/>
<polygon fill="midnightblue" stroke="midnightblue" points="72.49,-136.17 62.82,-131.83 67.68,-141.25 72.49,-136.17"/>
</g>
<!-- Node13&#45;&gt;Node10 -->
<g id="edge18" class="edge">
<title>Node13&#45;&gt;Node10</title>
<path fill="none" stroke="midnightblue" d="M133.95,-168.44C158.63,-159.44 197.69,-145.19 225.48,-135.05"/>
<polygon fill="midnightblue" stroke="midnightblue" points="226.96,-138.23 235.16,-131.52 224.56,-131.66 226.96,-138.23"/>
</g>
<!-- Node14 -->
<g id="node14" class="node">
<title>Node14</title>
<g id="a_node14"><a xlink:title=" ">
<polygon fill="white" stroke="#bfbfbf" points="125,-112.5 125,-131.5 184,-131.5 184,-112.5 125,-112.5"/>
<text text-anchor="middle" x="154.5" y="-119.5" font-family="Helvetica,sans-Serif" font-size="10.00">functional</text>
</a>
</g>
</g>
<!-- Node13&#45;&gt;Node14 -->
<g id="edge19" class="edge">
<title>Node13&#45;&gt;Node14</title>
<path fill="none" stroke="midnightblue" d="M117.77,-168.08C124.04,-160.38 133.29,-149.03 140.93,-139.65"/>
<polygon fill="midnightblue" stroke="midnightblue" points="143.77,-141.71 147.37,-131.75 138.34,-137.29 143.77,-141.71"/>
</g>
<!-- Node16 -->
<g id="node16" class="node">
<title>Node16</title>
<g id="a_node16"><a xlink:href="_unit_8hpp.html" target="_top" xlink:title=" ">
<polygon fill="white" stroke="black" points="236,-392.5 236,-411.5 289,-411.5 289,-392.5 236,-392.5"/>
<text text-anchor="middle" x="262.5" y="-399.5" font-family="Helvetica,sans-Serif" font-size="10.00">Unit.hpp</text>
</a>
</g>
</g>
<!-- Node15&#45;&gt;Node16 -->
<g id="edge22" class="edge">
<title>Node15&#45;&gt;Node16</title>
<path fill="none" stroke="midnightblue" d="M214.66,-448.32C223,-440.42 235.53,-428.55 245.68,-418.94"/>
<polygon fill="midnightblue" stroke="midnightblue" points="248.32,-421.25 253.18,-411.83 243.51,-416.17 248.32,-421.25"/>
</g>
<!-- Node17 -->
<g id="node17" class="node">
<title>Node17</title>
<g id="a_node17"><a xlink:title=" ">
<polygon fill="white" stroke="#bfbfbf" points="189,-392.5 189,-411.5 218,-411.5 218,-392.5 189,-392.5"/>
<text text-anchor="middle" x="203.5" y="-399.5" font-family="Helvetica,sans-Serif" font-size="10.00">list</text>
</a>
</g>
</g>
<!-- Node15&#45;&gt;Node17 -->
<g id="edge24" class="edge">
<title>Node15&#45;&gt;Node17</title>
<path fill="none" stroke="midnightblue" d="M205.17,-448.08C204.91,-441.01 204.53,-430.86 204.2,-421.99"/>
<polygon fill="midnightblue" stroke="midnightblue" points="207.69,-421.61 203.82,-411.75 200.7,-421.87 207.69,-421.61"/>
</g>
<!-- Node16&#45;&gt;Node7 -->
<g id="edge23" class="edge">
<title>Node16&#45;&gt;Node7</title>
<path fill="none" stroke="midnightblue" d="M262.5,-392.08C262.5,-385.01 262.5,-374.86 262.5,-365.99"/>
<polygon fill="midnightblue" stroke="midnightblue" points="266,-365.75 262.5,-355.75 259,-365.75 266,-365.75"/>
</g>
</g>
</svg>
