<?xml version="1.0" encoding="UTF-8" standalone="no"?>
<!DOCTYPE svg PUBLIC "-//W3C//DTD SVG 1.1//EN"
 "http://www.w3.org/Graphics/SVG/1.1/DTD/svg11.dtd">
<!-- Generated by graphviz version 2.47.0 (20210407.0042)
 -->
<!-- Title: src/Engine.cpp Pages: 1 -->
<svg width="834pt" height="532pt"
 viewBox="0.00 0.00 833.50 532.00" xmlns="http://www.w3.org/2000/svg" xmlns:xlink="http://www.w3.org/1999/xlink">
<g id="graph0" class="graph" transform="scale(1 1) rotate(0) translate(4 528)">
<title>src/Engine.cpp</title>
<polygon fill="white" stroke="transparent" points="-4,4 -4,-528 829.5,-528 829.5,4 -4,4"/>
<!-- Node1 -->
<g id="node1" class="node">
<title>Node1</title>
<g id="a_node1"><a xlink:title=" ">
<polygon fill="#bfbfbf" stroke="black" points="514,-504.5 514,-523.5 594,-523.5 594,-504.5 514,-504.5"/>
<text text-anchor="middle" x="554" y="-511.5" font-family="Helvetica,sans-Serif" font-size="10.00">src/Engine.cpp</text>
</a>
</g>
</g>
<!-- Node2 -->
<g id="node2" class="node">
<title>Node2</title>
<g id="a_node2"><a xlink:href="_engine_8hpp.html" target="_top" xlink:title=" ">
<polygon fill="white" stroke="black" points="325,-448.5 325,-467.5 389,-467.5 389,-448.5 325,-448.5"/>
<text text-anchor="middle" x="357" y="-455.5" font-family="Helvetica,sans-Serif" font-size="10.00">Engine.hpp</text>
</a>
</g>
</g>
<!-- Node1&#45;&gt;Node2 -->
<g id="edge1" class="edge">
<title>Node1&#45;&gt;Node2</title>
<path fill="none" stroke="midnightblue" d="M522.78,-504.44C489.07,-495.2 435.2,-480.44 398.07,-470.26"/>
<polygon fill="midnightblue" stroke="midnightblue" points="398.64,-466.78 388.07,-467.52 396.79,-473.54 398.64,-466.78"/>
</g>
<!-- Node17 -->
<g id="node17" class="node">
<title>Node17</title>
<g id="a_node17"><a xlink:title=" ">
<polygon fill="white" stroke="#bfbfbf" points="649,-448.5 649,-467.5 703,-467.5 703,-448.5 649,-448.5"/>
<text text-anchor="middle" x="676" y="-455.5" font-family="Helvetica,sans-Serif" font-size="10.00">iostream</text>
</a>
</g>
</g>
<!-- Node1&#45;&gt;Node17 -->
<g id="edge24" class="edge">
<title>Node1&#45;&gt;Node17</title>
<path fill="none" stroke="midnightblue" d="M573.33,-504.44C593.32,-495.6 624.74,-481.69 647.56,-471.59"/>
<polygon fill="midnightblue" stroke="midnightblue" points="649.03,-474.76 656.76,-467.52 646.2,-468.36 649.03,-474.76"/>
</g>
<!-- Node18 -->
<g id="node18" class="node">
<title>Node18</title>
<g id="a_node18"><a xlink:href="_resource_manager_8hpp.html" target="_top" xlink:title=" ">
<polygon fill="white" stroke="black" points="477.5,-448.5 477.5,-467.5 630.5,-467.5 630.5,-448.5 477.5,-448.5"/>
<text text-anchor="middle" x="554" y="-455.5" font-family="Helvetica,sans-Serif" font-size="10.00">graphics/ResourceManager.hpp</text>
</a>
</g>
</g>
<!-- Node1&#45;&gt;Node18 -->
<g id="edge25" class="edge">
<title>Node1&#45;&gt;Node18</title>
<path fill="none" stroke="midnightblue" d="M554,-504.08C554,-497.01 554,-486.86 554,-477.99"/>
<polygon fill="midnightblue" stroke="midnightblue" points="557.5,-477.75 554,-467.75 550.5,-477.75 557.5,-477.75"/>
</g>
<!-- Node3 -->
<g id="node3" class="node">
<title>Node3</title>
<g id="a_node3"><a xlink:href="_player_8hpp.html" target="_top" xlink:title=" ">
<polygon fill="white" stroke="black" points="291,-336.5 291,-355.5 419,-355.5 419,-336.5 291,-336.5"/>
<text text-anchor="middle" x="355" y="-343.5" font-family="Helvetica,sans-Serif" font-size="10.00">engine/objects/Player.hpp</text>
</a>
</g>
</g>
<!-- Node2&#45;&gt;Node3 -->
<g id="edge2" class="edge">
<title>Node2&#45;&gt;Node3</title>
<path fill="none" stroke="midnightblue" d="M356.84,-448.37C356.52,-430.62 355.78,-389.67 355.34,-365.6"/>
<polygon fill="midnightblue" stroke="midnightblue" points="358.84,-365.53 355.16,-355.59 351.84,-365.65 358.84,-365.53"/>
</g>
<!-- Node14 -->
<g id="node14" class="node">
<title>Node14</title>
<g id="a_node14"><a xlink:href="_unit_group_8hpp.html" target="_top" xlink:title=" ">
<polygon fill="white" stroke="black" points="183.5,-392.5 183.5,-411.5 328.5,-411.5 328.5,-392.5 183.5,-392.5"/>
<text text-anchor="middle" x="256" y="-399.5" font-family="Helvetica,sans-Serif" font-size="10.00">engine/objects/UnitGroup.hpp</text>
</a>
</g>
</g>
<!-- Node2&#45;&gt;Node14 -->
<g id="edge20" class="edge">
<title>Node2&#45;&gt;Node14</title>
<path fill="none" stroke="midnightblue" d="M340.77,-448.32C324.65,-439.7 299.7,-426.36 281.04,-416.39"/>
<polygon fill="midnightblue" stroke="midnightblue" points="282.66,-413.28 272.19,-411.65 279.36,-419.46 282.66,-413.28"/>
</g>
<!-- Node4 -->
<g id="node4" class="node">
<title>Node4</title>
<g id="a_node4"><a xlink:href="_drawable_8hpp.html" target="_top" xlink:title=" ">
<polygon fill="white" stroke="black" points="215.5,-56.5 215.5,-75.5 322.5,-75.5 322.5,-56.5 215.5,-56.5"/>
<text text-anchor="middle" x="269" y="-63.5" font-family="Helvetica,sans-Serif" font-size="10.00">engine/Drawable.hpp</text>
</a>
</g>
</g>
<!-- Node3&#45;&gt;Node4 -->
<g id="edge3" class="edge">
<title>Node3&#45;&gt;Node4</title>
<path fill="none" stroke="midnightblue" d="M361.81,-336.46C375.28,-318.69 404,-275.98 404,-235 404,-235 404,-235 404,-177 404,-146.9 405.35,-134.17 385,-112 369.93,-95.58 348.17,-85.09 327.56,-78.41"/>
<polygon fill="midnightblue" stroke="midnightblue" points="328.47,-75.03 317.88,-75.52 326.46,-81.74 328.47,-75.03"/>
</g>
<!-- Node7 -->
<g id="node7" class="node">
<title>Node7</title>
<g id="a_node7"><a xlink:href="_world_actor_8hpp.html" target="_top" xlink:title=" ">
<polygon fill="white" stroke="black" points="141,-280.5 141,-299.5 255,-299.5 255,-280.5 141,-280.5"/>
<text text-anchor="middle" x="198" y="-287.5" font-family="Helvetica,sans-Serif" font-size="10.00">engine/WorldActor.hpp</text>
</a>
</g>
</g>
<!-- Node3&#45;&gt;Node7 -->
<g id="edge6" class="edge">
<title>Node3&#45;&gt;Node7</title>
<path fill="none" stroke="midnightblue" d="M330.12,-336.44C303.71,-327.36 261.78,-312.94 232.26,-302.78"/>
<polygon fill="midnightblue" stroke="midnightblue" points="233.36,-299.46 222.76,-299.52 231.08,-306.08 233.36,-299.46"/>
</g>
<!-- Node5 -->
<g id="node5" class="node">
<title>Node5</title>
<g id="a_node5"><a xlink:title=" ">
<polygon fill="white" stroke="#bfbfbf" points="236,-0.5 236,-19.5 302,-19.5 302,-0.5 236,-0.5"/>
<text text-anchor="middle" x="269" y="-7.5" font-family="Helvetica,sans-Serif" font-size="10.00">string_view</text>
</a>
</g>
</g>
<!-- Node4&#45;&gt;Node5 -->
<g id="edge4" class="edge">
<title>Node4&#45;&gt;Node5</title>
<path fill="none" stroke="midnightblue" d="M269,-56.08C269,-49.01 269,-38.86 269,-29.99"/>
<polygon fill="midnightblue" stroke="midnightblue" points="272.5,-29.75 269,-19.75 265.5,-29.75 272.5,-29.75"/>
</g>
<!-- Node6 -->
<g id="node6" class="node">
<title>Node6</title>
<g id="a_node6"><a xlink:href="_vector2_d_8hpp.html" target="_top" xlink:title=" ">
<polygon fill="white" stroke="black" points="0,-0.5 0,-19.5 112,-19.5 112,-0.5 0,-0.5"/>
<text text-anchor="middle" x="56" y="-7.5" font-family="Helvetica,sans-Serif" font-size="10.00">Helpers/Vector2D.hpp</text>
</a>
</g>
</g>
<!-- Node4&#45;&gt;Node6 -->
<g id="edge5" class="edge">
<title>Node4&#45;&gt;Node6</title>
<path fill="none" stroke="midnightblue" d="M235.25,-56.44C198.48,-47.12 139.55,-32.18 99.38,-22"/>
<polygon fill="midnightblue" stroke="midnightblue" points="100.15,-18.58 89.59,-19.52 98.43,-25.37 100.15,-18.58"/>
</g>
<!-- Node7&#45;&gt;Node6 -->
<g id="edge7" class="edge">
<title>Node7&#45;&gt;Node6</title>
<path fill="none" stroke="midnightblue" d="M147.38,-280.43C94.14,-268.17 18,-239.98 18,-179 18,-179 18,-179 18,-121 18,-86.81 34.6,-49.76 45.86,-28.57"/>
<polygon fill="midnightblue" stroke="midnightblue" points="48.95,-30.22 50.72,-19.77 42.82,-26.83 48.95,-30.22"/>
</g>
<!-- Node8 -->
<g id="node8" class="node">
<title>Node8</title>
<g id="a_node8"><a xlink:href="_field_8hpp.html" target="_top" xlink:title=" ">
<polygon fill="white" stroke="black" points="170,-224.5 170,-243.5 226,-243.5 226,-224.5 170,-224.5"/>
<text text-anchor="middle" x="198" y="-231.5" font-family="Helvetica,sans-Serif" font-size="10.00">Field.hpp</text>
</a>
</g>
</g>
<!-- Node7&#45;&gt;Node8 -->
<g id="edge8" class="edge">
<title>Node7&#45;&gt;Node8</title>
<path fill="none" stroke="midnightblue" d="M198,-280.08C198,-273.01 198,-262.86 198,-253.99"/>
<polygon fill="midnightblue" stroke="midnightblue" points="201.5,-253.75 198,-243.75 194.5,-253.75 201.5,-253.75"/>
</g>
<!-- Node8&#45;&gt;Node6 -->
<g id="edge19" class="edge">
<title>Node8&#45;&gt;Node6</title>
<path fill="none" stroke="midnightblue" d="M189.06,-224.2C180.04,-215.25 165.81,-200.89 154,-188 131.86,-163.82 123.14,-159.94 106,-132 85.18,-98.06 69.44,-53.91 61.58,-29.42"/>
<polygon fill="midnightblue" stroke="midnightblue" points="64.85,-28.16 58.53,-19.66 58.17,-30.24 64.85,-28.16"/>
</g>
<!-- Node9 -->
<g id="node9" class="node">
<title>Node9</title>
<g id="a_node9"><a xlink:href="_cell_8hpp.html" target="_top" xlink:title=" ">
<polygon fill="white" stroke="black" points="163.5,-168.5 163.5,-187.5 280.5,-187.5 280.5,-168.5 163.5,-168.5"/>
<text text-anchor="middle" x="222" y="-175.5" font-family="Helvetica,sans-Serif" font-size="10.00">engine/objects/Cell.hpp</text>
</a>
</g>
</g>
<!-- Node8&#45;&gt;Node9 -->
<g id="edge9" class="edge">
<title>Node8&#45;&gt;Node9</title>
<path fill="none" stroke="midnightblue" d="M201.96,-224.08C205.21,-216.77 209.92,-206.18 213.95,-197.1"/>
<polygon fill="midnightblue" stroke="midnightblue" points="217.25,-198.31 218.11,-187.75 210.85,-195.47 217.25,-198.31"/>
</g>
<!-- Node9&#45;&gt;Node4 -->
<g id="edge10" class="edge">
<title>Node9&#45;&gt;Node4</title>
<path fill="none" stroke="midnightblue" d="M242.85,-168.43C257.58,-161.13 276.2,-149.09 285,-132 292.7,-117.03 286.57,-98.19 279.79,-84.66"/>
<polygon fill="midnightblue" stroke="midnightblue" points="282.83,-82.92 274.92,-75.87 276.7,-86.31 282.83,-82.92"/>
</g>
<!-- Node10 -->
<g id="node10" class="node">
<title>Node10</title>
<g id="a_node10"><a xlink:href="_tickable_8hpp.html" target="_top" xlink:title=" ">
<polygon fill="white" stroke="black" points="94.5,-56.5 94.5,-75.5 197.5,-75.5 197.5,-56.5 94.5,-56.5"/>
<text text-anchor="middle" x="146" y="-63.5" font-family="Helvetica,sans-Serif" font-size="10.00">engine/Tickable.hpp</text>
</a>
</g>
</g>
<!-- Node9&#45;&gt;Node10 -->
<g id="edge11" class="edge">
<title>Node9&#45;&gt;Node10</title>
<path fill="none" stroke="midnightblue" d="M169.72,-168.48C148.41,-162.15 125.81,-151.14 113,-132 102.41,-116.17 115.67,-96.5 128.4,-82.96"/>
<polygon fill="midnightblue" stroke="midnightblue" points="131.01,-85.3 135.65,-75.78 126.08,-80.33 131.01,-85.3"/>
</g>
<!-- Node11 -->
<g id="node11" class="node">
<title>Node11</title>
<g id="a_node11"><a xlink:title=" ">
<polygon fill="white" stroke="#bfbfbf" points="332,-112.5 332,-131.5 376,-131.5 376,-112.5 332,-112.5"/>
<text text-anchor="middle" x="354" y="-119.5" font-family="Helvetica,sans-Serif" font-size="10.00">vector</text>
</a>
</g>
</g>
<!-- Node9&#45;&gt;Node11 -->
<g id="edge12" class="edge">
<title>Node9&#45;&gt;Node11</title>
<path fill="none" stroke="midnightblue" d="M242.92,-168.44C264.74,-159.52 299.15,-145.44 323.89,-135.32"/>
<polygon fill="midnightblue" stroke="midnightblue" points="325.25,-138.54 333.18,-131.52 322.6,-132.06 325.25,-138.54"/>
</g>
<!-- Node12 -->
<g id="node12" class="node">
<title>Node12</title>
<g id="a_node12"><a xlink:href="_ground_8hpp.html" target="_top" xlink:title=" ">
<polygon fill="white" stroke="black" points="210,-112.5 210,-131.5 276,-131.5 276,-112.5 210,-112.5"/>
<text text-anchor="middle" x="243" y="-119.5" font-family="Helvetica,sans-Serif" font-size="10.00">Ground.hpp</text>
</a>
</g>
</g>
<!-- Node9&#45;&gt;Node12 -->
<g id="edge13" class="edge">
<title>Node9&#45;&gt;Node12</title>
<path fill="none" stroke="midnightblue" d="M225.47,-168.08C228.31,-160.77 232.43,-150.18 235.96,-141.1"/>
<polygon fill="midnightblue" stroke="midnightblue" points="239.23,-142.34 239.6,-131.75 232.71,-139.8 239.23,-142.34"/>
</g>
<!-- Node13 -->
<g id="node13" class="node">
<title>Node13</title>
<g id="a_node13"><a xlink:href="_building_8hpp.html" target="_top" xlink:title=" ">
<polygon fill="white" stroke="black" points="122.5,-112.5 122.5,-131.5 191.5,-131.5 191.5,-112.5 122.5,-112.5"/>
<text text-anchor="middle" x="157" y="-119.5" font-family="Helvetica,sans-Serif" font-size="10.00">Building.hpp</text>
</a>
</g>
</g>
<!-- Node9&#45;&gt;Node13 -->
<g id="edge16" class="edge">
<title>Node9&#45;&gt;Node13</title>
<path fill="none" stroke="midnightblue" d="M211.56,-168.32C201.85,-160.26 187.18,-148.08 175.5,-138.37"/>
<polygon fill="midnightblue" stroke="midnightblue" points="177.56,-135.53 167.63,-131.83 173.09,-140.92 177.56,-135.53"/>
</g>
<!-- Node12&#45;&gt;Node4 -->
<g id="edge14" class="edge">
<title>Node12&#45;&gt;Node4</title>
<path fill="none" stroke="midnightblue" d="M247.29,-112.08C250.85,-104.69 256.02,-93.95 260.42,-84.81"/>
<polygon fill="midnightblue" stroke="midnightblue" points="263.6,-86.28 264.79,-75.75 257.29,-83.24 263.6,-86.28"/>
</g>
<!-- Node12&#45;&gt;Node10 -->
<g id="edge15" class="edge">
<title>Node12&#45;&gt;Node10</title>
<path fill="none" stroke="midnightblue" d="M227.42,-112.32C212,-103.74 188.19,-90.49 170.29,-80.52"/>
<polygon fill="midnightblue" stroke="midnightblue" points="171.99,-77.46 161.55,-75.65 168.58,-83.58 171.99,-77.46"/>
</g>
<!-- Node13&#45;&gt;Node4 -->
<g id="edge17" class="edge">
<title>Node13&#45;&gt;Node4</title>
<path fill="none" stroke="midnightblue" d="M174.99,-112.32C193.04,-103.62 221.05,-90.12 241.8,-80.11"/>
<polygon fill="midnightblue" stroke="midnightblue" points="243.56,-83.15 251.05,-75.65 240.52,-76.84 243.56,-83.15"/>
</g>
<!-- Node13&#45;&gt;Node10 -->
<g id="edge18" class="edge">
<title>Node13&#45;&gt;Node10</title>
<path fill="none" stroke="midnightblue" d="M155.18,-112.08C153.73,-104.93 151.63,-94.64 149.81,-85.69"/>
<polygon fill="midnightblue" stroke="midnightblue" points="153.21,-84.85 147.78,-75.75 146.35,-86.25 153.21,-84.85"/>
</g>
<!-- Node15 -->
<g id="node15" class="node">
<title>Node15</title>
<g id="a_node15"><a xlink:href="_unit_8hpp.html" target="_top" xlink:title=" ">
<polygon fill="white" stroke="black" points="171.5,-336.5 171.5,-355.5 224.5,-355.5 224.5,-336.5 171.5,-336.5"/>
<text text-anchor="middle" x="198" y="-343.5" font-family="Helvetica,sans-Serif" font-size="10.00">Unit.hpp</text>
</a>
</g>
</g>
<!-- Node14&#45;&gt;Node15 -->
<g id="edge21" class="edge">
<title>Node14&#45;&gt;Node15</title>
<path fill="none" stroke="midnightblue" d="M246.68,-392.32C238.11,-384.34 225.19,-372.31 214.81,-362.65"/>
<polygon fill="midnightblue" stroke="midnightblue" points="217.19,-360.09 207.49,-355.83 212.42,-365.21 217.19,-360.09"/>
</g>
<!-- Node16 -->
<g id="node16" class="node">
<title>Node16</title>
<g id="a_node16"><a xlink:title=" ">
<polygon fill="white" stroke="#bfbfbf" points="242.5,-336.5 242.5,-355.5 271.5,-355.5 271.5,-336.5 242.5,-336.5"/>
<text text-anchor="middle" x="257" y="-343.5" font-family="Helvetica,sans-Serif" font-size="10.00">list</text>
</a>
</g>
</g>
<!-- Node14&#45;&gt;Node16 -->
<g id="edge23" class="edge">
<title>Node14&#45;&gt;Node16</title>
<path fill="none" stroke="midnightblue" d="M256.17,-392.08C256.3,-385.01 256.48,-374.86 256.65,-365.99"/>
<polygon fill="midnightblue" stroke="midnightblue" points="260.15,-365.81 256.84,-355.75 253.15,-365.68 260.15,-365.81"/>
</g>
<!-- Node15&#45;&gt;Node7 -->
<g id="edge22" class="edge">
<title>Node15&#45;&gt;Node7</title>
<path fill="none" stroke="midnightblue" d="M198,-336.08C198,-329.01 198,-318.86 198,-309.99"/>
<polygon fill="midnightblue" stroke="midnightblue" points="201.5,-309.75 198,-299.75 194.5,-309.75 201.5,-309.75"/>
</g>
<!-- Node19 -->
<g id="node19" class="node">
<title>Node19</title>
<g id="a_node19"><a xlink:title=" ">
<polygon fill="white" stroke="#bfbfbf" points="580.5,-392.5 580.5,-411.5 615.5,-411.5 615.5,-392.5 580.5,-392.5"/>
<text text-anchor="middle" x="598" y="-399.5" font-family="Helvetica,sans-Serif" font-size="10.00">map</text>
</a>
</g>
</g>
<!-- Node18&#45;&gt;Node19 -->
<g id="edge26" class="edge">
<title>Node18&#45;&gt;Node19</title>
<path fill="none" stroke="midnightblue" d="M561.27,-448.08C567.54,-440.38 576.79,-429.03 584.43,-419.65"/>
<polygon fill="midnightblue" stroke="midnightblue" points="587.27,-421.71 590.87,-411.75 581.84,-417.29 587.27,-421.71"/>
</g>
<!-- Node20 -->
<g id="node20" class="node">
<title>Node20</title>
<g id="a_node20"><a xlink:title=" ">
<polygon fill="white" stroke="#bfbfbf" points="684.5,-336.5 684.5,-355.5 725.5,-355.5 725.5,-336.5 684.5,-336.5"/>
<text text-anchor="middle" x="705" y="-343.5" font-family="Helvetica,sans-Serif" font-size="10.00">string</text>
</a>
</g>
</g>
<!-- Node18&#45;&gt;Node20 -->
<g id="edge27" class="edge">
<title>Node18&#45;&gt;Node20</title>
<path fill="none" stroke="midnightblue" d="M629.08,-448.45C653.02,-442.05 677.54,-431.01 694,-412 704.88,-399.44 706.96,-380.22 706.72,-365.93"/>
<polygon fill="midnightblue" stroke="midnightblue" points="710.2,-365.55 706.15,-355.75 703.21,-365.93 710.2,-365.55"/>
</g>
<!-- Node21 -->
<g id="node21" class="node">
<title>Node21</title>
<g id="a_node21"><a xlink:title=" ">
<polygon fill="white" stroke="#bfbfbf" points="633.5,-392.5 633.5,-411.5 684.5,-411.5 684.5,-392.5 633.5,-392.5"/>
<text text-anchor="middle" x="659" y="-399.5" font-family="Helvetica,sans-Serif" font-size="10.00">memory</text>
</a>
</g>
</g>
<!-- Node18&#45;&gt;Node21 -->
<g id="edge28" class="edge">
<title>Node18&#45;&gt;Node21</title>
<path fill="none" stroke="midnightblue" d="M570.87,-448.32C587.71,-439.66 613.81,-426.24 633.24,-416.25"/>
<polygon fill="midnightblue" stroke="midnightblue" points="634.88,-419.34 642.17,-411.65 631.68,-413.12 634.88,-419.34"/>
</g>
<!-- Node22 -->
<g id="node22" class="node">
<title>Node22</title>
<g id="a_node22"><a xlink:href="_shader_8hpp.html" target="_top" xlink:title=" ">
<polygon fill="white" stroke="black" points="457.5,-392.5 457.5,-411.5 562.5,-411.5 562.5,-392.5 457.5,-392.5"/>
<text text-anchor="middle" x="510" y="-399.5" font-family="Helvetica,sans-Serif" font-size="10.00">graphics/Shader.hpp</text>
</a>
</g>
</g>
<!-- Node18&#45;&gt;Node22 -->
<g id="edge29" class="edge">
<title>Node18&#45;&gt;Node22</title>
<path fill="none" stroke="midnightblue" d="M546.73,-448.08C540.46,-440.38 531.21,-429.03 523.57,-419.65"/>
<polygon fill="midnightblue" stroke="midnightblue" points="526.16,-417.29 517.13,-411.75 520.73,-421.71 526.16,-417.29"/>
</g>
<!-- Node23 -->
<g id="node23" class="node">
<title>Node23</title>
<g id="a_node23"><a xlink:href="_g_shape_8hpp.html" target="_top" xlink:title=" ">
<polygon fill="white" stroke="black" points="437,-336.5 437,-355.5 547,-355.5 547,-336.5 437,-336.5"/>
<text text-anchor="middle" x="492" y="-343.5" font-family="Helvetica,sans-Serif" font-size="10.00">graphics/GShape.hpp</text>
</a>
</g>
</g>
<!-- Node18&#45;&gt;Node23 -->
<g id="edge43" class="edge">
<title>Node18&#45;&gt;Node23</title>
<path fill="none" stroke="midnightblue" d="M504.23,-448.45C483.17,-442.1 460.63,-431.09 448,-412 436.54,-394.68 454.32,-374.94 470.59,-361.8"/>
<polygon fill="midnightblue" stroke="midnightblue" points="472.94,-364.41 478.8,-355.58 468.72,-358.83 472.94,-364.41"/>
</g>
<!-- Node22&#45;&gt;Node20 -->
<g id="edge30" class="edge">
<title>Node22&#45;&gt;Node20</title>
<path fill="none" stroke="midnightblue" d="M540.9,-392.44C577.45,-382.32 637.94,-365.57 674.37,-355.48"/>
<polygon fill="midnightblue" stroke="midnightblue" points="675.71,-358.74 684.42,-352.7 673.84,-352 675.71,-358.74"/>
</g>
<!-- Node22&#45;&gt;Node23 -->
<g id="edge31" class="edge">
<title>Node22&#45;&gt;Node23</title>
<path fill="none" stroke="midnightblue" d="M501.86,-392.08C497.97,-384.93 494.11,-374.64 491.77,-365.69"/>
<polygon fill="midnightblue" stroke="midnightblue" points="495.18,-364.87 489.79,-355.75 488.31,-366.24 495.18,-364.87"/>
</g>
<!-- Node28 -->
<g id="node28" class="node">
<title>Node28</title>
<g id="a_node28"><a xlink:href="_transform_8hpp.html" target="_top" xlink:title=" ">
<polygon fill="white" stroke="black" points="432.5,-224.5 432.5,-243.5 551.5,-243.5 551.5,-224.5 432.5,-224.5"/>
<text text-anchor="middle" x="492" y="-231.5" font-family="Helvetica,sans-Serif" font-size="10.00">graphics/Transform.hpp</text>
</a>
</g>
</g>
<!-- Node22&#45;&gt;Node28 -->
<g id="edge42" class="edge">
<title>Node22&#45;&gt;Node28</title>
<path fill="none" stroke="midnightblue" d="M523.79,-392.19C534.83,-384.24 549.5,-371.45 556,-356 559.45,-347.81 558.48,-344.54 556,-336 546.37,-302.81 522.19,-270.07 506.47,-251.23"/>
<polygon fill="midnightblue" stroke="midnightblue" points="509.09,-248.91 499.92,-243.6 503.78,-253.47 509.09,-248.91"/>
</g>
<!-- Node23&#45;&gt;Node22 -->
<g id="edge40" class="edge">
<title>Node23&#45;&gt;Node22</title>
<path fill="none" stroke="midnightblue" d="M500.05,-355.75C503.94,-362.86 507.82,-373.14 510.17,-382.1"/>
<polygon fill="midnightblue" stroke="midnightblue" points="506.78,-382.98 512.19,-392.08 513.64,-381.59 506.78,-382.98"/>
</g>
<!-- Node24 -->
<g id="node24" class="node">
<title>Node24</title>
<g id="a_node24"><a xlink:href="_window_8hpp.html" target="_top" xlink:title=" ">
<polygon fill="white" stroke="black" points="603.5,-280.5 603.5,-299.5 712.5,-299.5 712.5,-280.5 603.5,-280.5"/>
<text text-anchor="middle" x="658" y="-287.5" font-family="Helvetica,sans-Serif" font-size="10.00">graphics/Window.hpp</text>
</a>
</g>
</g>
<!-- Node23&#45;&gt;Node24 -->
<g id="edge32" class="edge">
<title>Node23&#45;&gt;Node24</title>
<path fill="none" stroke="midnightblue" d="M518.3,-336.44C546.35,-327.32 590.94,-312.81 622.18,-302.65"/>
<polygon fill="midnightblue" stroke="midnightblue" points="623.39,-305.94 631.82,-299.52 621.23,-299.28 623.39,-305.94"/>
</g>
<!-- Node23&#45;&gt;Node28 -->
<g id="edge41" class="edge">
<title>Node23&#45;&gt;Node28</title>
<path fill="none" stroke="midnightblue" d="M492,-336.37C492,-318.62 492,-277.67 492,-253.6"/>
<polygon fill="midnightblue" stroke="midnightblue" points="495.5,-253.59 492,-243.59 488.5,-253.59 495.5,-253.59"/>
</g>
<!-- Node24&#45;&gt;Node11 -->
<g id="edge36" class="edge">
<title>Node24&#45;&gt;Node11</title>
<path fill="none" stroke="midnightblue" d="M670.29,-280.45C686.81,-267.89 712.61,-243.79 699,-224 662.95,-171.57 465.45,-138.58 386.56,-127.33"/>
<polygon fill="midnightblue" stroke="midnightblue" points="386.64,-123.81 376.25,-125.89 385.67,-130.74 386.64,-123.81"/>
</g>
<!-- Node24&#45;&gt;Node22 -->
<g id="edge37" class="edge">
<title>Node24&#45;&gt;Node22</title>
<path fill="none" stroke="midnightblue" d="M650.07,-299.69C637.8,-312.85 613.08,-338.19 589,-356 572.6,-368.12 552.64,-379.47 536.88,-387.74"/>
<polygon fill="midnightblue" stroke="midnightblue" points="534.98,-384.78 527.68,-392.47 538.18,-391.01 534.98,-384.78"/>
</g>
<!-- Node25 -->
<g id="node25" class="node">
<title>Node25</title>
<g id="a_node25"><a xlink:title=" ">
<polygon fill="white" stroke="#bfbfbf" points="626.5,-224.5 626.5,-243.5 689.5,-243.5 689.5,-224.5 626.5,-224.5"/>
<text text-anchor="middle" x="658" y="-231.5" font-family="Helvetica,sans-Serif" font-size="10.00">glad/glad.h</text>
</a>
</g>
</g>
<!-- Node24&#45;&gt;Node25 -->
<g id="edge33" class="edge">
<title>Node24&#45;&gt;Node25</title>
<path fill="none" stroke="midnightblue" d="M658,-280.08C658,-273.01 658,-262.86 658,-253.99"/>
<polygon fill="midnightblue" stroke="midnightblue" points="661.5,-253.75 658,-243.75 654.5,-253.75 661.5,-253.75"/>
</g>
<!-- Node26 -->
<g id="node26" class="node">
<title>Node26</title>
<g id="a_node26"><a xlink:title=" ">
<polygon fill="white" stroke="#bfbfbf" points="746.5,-224.5 746.5,-243.5 825.5,-243.5 825.5,-224.5 746.5,-224.5"/>
<text text-anchor="middle" x="786" y="-231.5" font-family="Helvetica,sans-Serif" font-size="10.00">GLFW/glfw3.h</text>
</a>
</g>
</g>
<!-- Node24&#45;&gt;Node26 -->
<g id="edge34" class="edge">
<title>Node24&#45;&gt;Node26</title>
<path fill="none" stroke="midnightblue" d="M678.28,-280.44C699.35,-271.56 732.52,-257.56 756.49,-247.45"/>
<polygon fill="midnightblue" stroke="midnightblue" points="757.96,-250.63 765.81,-243.52 755.24,-244.18 757.96,-250.63"/>
</g>
<!-- Node27 -->
<g id="node27" class="node">
<title>Node27</title>
<g id="a_node27"><a xlink:title=" ">
<polygon fill="white" stroke="#bfbfbf" points="569.5,-224.5 569.5,-243.5 608.5,-243.5 608.5,-224.5 569.5,-224.5"/>
<text text-anchor="middle" x="589" y="-231.5" font-family="Helvetica,sans-Serif" font-size="10.00">utility</text>
</a>
</g>
</g>
<!-- Node24&#45;&gt;Node27 -->
<g id="edge35" class="edge">
<title>Node24&#45;&gt;Node27</title>
<path fill="none" stroke="midnightblue" d="M646.91,-280.32C636.51,-272.18 620.74,-259.84 608.28,-250.09"/>
<polygon fill="midnightblue" stroke="midnightblue" points="610.32,-247.24 600.29,-243.83 606.01,-252.75 610.32,-247.24"/>
</g>
<!-- Node24&#45;&gt;Node28 -->
<g id="edge38" class="edge">
<title>Node24&#45;&gt;Node28</title>
<path fill="none" stroke="midnightblue" d="M631.7,-280.44C603.65,-271.32 559.06,-256.81 527.82,-246.65"/>
<polygon fill="midnightblue" stroke="midnightblue" points="528.77,-243.28 518.18,-243.52 526.61,-249.94 528.77,-243.28"/>
</g>
<!-- Node29 -->
<g id="node29" class="node">
<title>Node29</title>
<g id="a_node29"><a xlink:title=" ">
<polygon fill="white" stroke="#bfbfbf" points="440,-168.5 440,-187.5 544,-187.5 544,-168.5 440,-168.5"/>
<text text-anchor="middle" x="492" y="-175.5" font-family="Helvetica,sans-Serif" font-size="10.00">glm/gtc/type_ptr.hpp</text>
</a>
</g>
</g>
<!-- Node28&#45;&gt;Node29 -->
<g id="edge39" class="edge">
<title>Node28&#45;&gt;Node29</title>
<path fill="none" stroke="midnightblue" d="M492,-224.08C492,-217.01 492,-206.86 492,-197.99"/>
<polygon fill="midnightblue" stroke="midnightblue" points="495.5,-197.75 492,-187.75 488.5,-197.75 495.5,-197.75"/>
</g>
</g>
</svg>
