<?xml version="1.0" encoding="UTF-8" standalone="no"?>
<!DOCTYPE svg PUBLIC "-//W3C//DTD SVG 1.1//EN"
 "http://www.w3.org/Graphics/SVG/1.1/DTD/svg11.dtd">
<!-- Generated by graphviz version 2.47.0 (20210407.0042)
 -->
<!-- Title: include/EventHandler/EventHandler.hpp Pages: 1 -->
<svg width="1025pt" height="274pt"
 viewBox="0.00 0.00 1024.50 274.00" xmlns="http://www.w3.org/2000/svg" xmlns:xlink="http://www.w3.org/1999/xlink">
<g id="graph0" class="graph" transform="scale(1 1) rotate(0) translate(4 270)">
<title>include/EventHandler/EventHandler.hpp</title>
<polygon fill="white" stroke="transparent" points="-4,4 -4,-270 1020.5,-270 1020.5,4 -4,4"/>
<!-- Node1 -->
<g id="node1" class="node">
<title>Node1</title>
<g id="a_node1"><a xlink:title=" ">
<polygon fill="#bfbfbf" stroke="black" points="235,-235.5 235,-265.5 344,-265.5 344,-235.5 235,-235.5"/>
<text text-anchor="start" x="243" y="-253.5" font-family="Helvetica,sans-Serif" font-size="10.00">include/EventHandler</text>
<text text-anchor="middle" x="289.5" y="-242.5" font-family="Helvetica,sans-Serif" font-size="10.00">/EventHandler.hpp</text>
</a>
</g>
</g>
<!-- Node2 -->
<g id="node2" class="node">
<title>Node2</title>
<g id="a_node2"><a xlink:href="_event_handler_8cpp.html" target="_top" xlink:title=" ">
<polygon fill="white" stroke="black" points="0,-112.5 0,-131.5 171,-131.5 171,-112.5 0,-112.5"/>
<text text-anchor="middle" x="85.5" y="-119.5" font-family="Helvetica,sans-Serif" font-size="10.00">src/EventHandler/EventHandler.cpp</text>
</a>
</g>
</g>
<!-- Node1&#45;&gt;Node2 -->
<g id="edge1" class="edge">
<title>Node1&#45;&gt;Node2</title>
<path fill="none" stroke="midnightblue" d="M258.11,-230.04C213.04,-202.09 131.84,-151.73 99.42,-131.63"/>
<polygon fill="midnightblue" stroke="midnightblue" points="256.55,-233.18 266.89,-235.48 260.23,-227.23 256.55,-233.18"/>
</g>
<!-- Node3 -->
<g id="node3" class="node">
<title>Node3</title>
<g id="a_node3"><a xlink:href="_resource_manager_8hpp.html" target="_top" xlink:title=" ">
<polygon fill="white" stroke="black" points="427,-168.5 427,-198.5 558,-198.5 558,-168.5 427,-168.5"/>
<text text-anchor="start" x="435" y="-186.5" font-family="Helvetica,sans-Serif" font-size="10.00">include/graphics/Resource</text>
<text text-anchor="middle" x="492.5" y="-175.5" font-family="Helvetica,sans-Serif" font-size="10.00">Manager.hpp</text>
</a>
</g>
</g>
<!-- Node1&#45;&gt;Node3 -->
<g id="edge2" class="edge">
<title>Node1&#45;&gt;Node3</title>
<path fill="none" stroke="midnightblue" d="M343.44,-232.23C376.28,-221.71 417.7,-208.45 448.54,-198.58"/>
<polygon fill="midnightblue" stroke="midnightblue" points="342,-229.01 333.55,-235.4 344.14,-235.68 342,-229.01"/>
</g>
<!-- Node3&#45;&gt;Node2 -->
<g id="edge6" class="edge">
<title>Node3&#45;&gt;Node2</title>
<path fill="none" stroke="midnightblue" d="M416.76,-171.43C337.7,-159.87 215.45,-142 143.66,-131.5"/>
<polygon fill="midnightblue" stroke="midnightblue" points="416.25,-174.89 426.66,-172.87 417.27,-167.96 416.25,-174.89"/>
</g>
<!-- Node4 -->
<g id="node4" class="node">
<title>Node4</title>
<g id="a_node4"><a xlink:href="_drawable_8cpp.html" target="_top" xlink:title=" ">
<polygon fill="white" stroke="black" points="189,-112.5 189,-131.5 312,-131.5 312,-112.5 189,-112.5"/>
<text text-anchor="middle" x="250.5" y="-119.5" font-family="Helvetica,sans-Serif" font-size="10.00">src/engine/Drawable.cpp</text>
</a>
</g>
</g>
<!-- Node3&#45;&gt;Node4 -->
<g id="edge3" class="edge">
<title>Node3&#45;&gt;Node4</title>
<path fill="none" stroke="midnightblue" d="M425.65,-166.06C380.08,-154.86 321.62,-140.49 285.1,-131.51"/>
<polygon fill="midnightblue" stroke="midnightblue" points="424.91,-169.49 435.46,-168.47 426.58,-162.69 424.91,-169.49"/>
</g>
<!-- Node5 -->
<g id="node5" class="node">
<title>Node5</title>
<g id="a_node5"><a xlink:href="_field_8cpp.html" target="_top" xlink:title=" ">
<polygon fill="white" stroke="black" points="330.5,-112.5 330.5,-131.5 434.5,-131.5 434.5,-112.5 330.5,-112.5"/>
<text text-anchor="middle" x="382.5" y="-119.5" font-family="Helvetica,sans-Serif" font-size="10.00">src/engine/Field.cpp</text>
</a>
</g>
</g>
<!-- Node3&#45;&gt;Node5 -->
<g id="edge4" class="edge">
<title>Node3&#45;&gt;Node5</title>
<path fill="none" stroke="midnightblue" d="M457.38,-163.51C437.61,-152.81 413.88,-139.97 398.51,-131.66"/>
<polygon fill="midnightblue" stroke="midnightblue" points="455.97,-166.72 466.43,-168.4 459.3,-160.56 455.97,-166.72"/>
</g>
<!-- Node6 -->
<g id="node6" class="node">
<title>Node6</title>
<g id="a_node6"><a xlink:href="_engine_8cpp.html" target="_top" xlink:title=" ">
<polygon fill="white" stroke="black" points="452.5,-112.5 452.5,-131.5 532.5,-131.5 532.5,-112.5 452.5,-112.5"/>
<text text-anchor="middle" x="492.5" y="-119.5" font-family="Helvetica,sans-Serif" font-size="10.00">src/Engine.cpp</text>
</a>
</g>
</g>
<!-- Node3&#45;&gt;Node6 -->
<g id="edge5" class="edge">
<title>Node3&#45;&gt;Node6</title>
<path fill="none" stroke="midnightblue" d="M492.5,-158.29C492.5,-148.86 492.5,-138.65 492.5,-131.66"/>
<polygon fill="midnightblue" stroke="midnightblue" points="489,-158.4 492.5,-168.4 496,-158.4 489,-158.4"/>
</g>
<!-- Node7 -->
<g id="node7" class="node">
<title>Node7</title>
<g id="a_node7"><a xlink:href="_resource_manager_8cpp.html" target="_top" xlink:title=" ">
<polygon fill="white" stroke="black" points="550.5,-112.5 550.5,-131.5 720.5,-131.5 720.5,-112.5 550.5,-112.5"/>
<text text-anchor="middle" x="635.5" y="-119.5" font-family="Helvetica,sans-Serif" font-size="10.00">src/graphics/ResourceManager.cpp</text>
</a>
</g>
</g>
<!-- Node3&#45;&gt;Node7 -->
<g id="edge7" class="edge">
<title>Node3&#45;&gt;Node7</title>
<path fill="none" stroke="midnightblue" d="M535.72,-164.52C561.89,-153.63 594.08,-140.23 614.69,-131.66"/>
<polygon fill="midnightblue" stroke="midnightblue" points="534.28,-161.33 526.39,-168.4 536.97,-167.79 534.28,-161.33"/>
</g>
<!-- Node8 -->
<g id="node8" class="node">
<title>Node8</title>
<g id="a_node8"><a xlink:href="main_8cpp.html" target="_top" xlink:title=" ">
<polygon fill="white" stroke="black" points="712.5,-0.5 712.5,-19.5 784.5,-19.5 784.5,-0.5 712.5,-0.5"/>
<text text-anchor="middle" x="748.5" y="-7.5" font-family="Helvetica,sans-Serif" font-size="10.00">src/main.cpp</text>
</a>
</g>
</g>
<!-- Node3&#45;&gt;Node8 -->
<g id="edge8" class="edge">
<title>Node3&#45;&gt;Node8</title>
<path fill="none" stroke="midnightblue" d="M567.99,-175.67C628.79,-168.54 707.61,-155.11 729.5,-132 759.48,-100.35 753.63,-41.8 750.11,-19.73"/>
<polygon fill="midnightblue" stroke="midnightblue" points="567.56,-172.19 558.01,-176.8 568.34,-179.15 567.56,-172.19"/>
</g>
<!-- Node9 -->
<g id="node9" class="node">
<title>Node9</title>
<g id="a_node9"><a xlink:href="_inventory_8hpp.html" target="_top" xlink:title=" ">
<polygon fill="white" stroke="black" points="777,-56.5 777,-75.5 906,-75.5 906,-56.5 777,-56.5"/>
<text text-anchor="middle" x="841.5" y="-63.5" font-family="Helvetica,sans-Serif" font-size="10.00">include/GUI/Inventory.hpp</text>
</a>
</g>
</g>
<!-- Node3&#45;&gt;Node9 -->
<g id="edge9" class="edge">
<title>Node3&#45;&gt;Node9</title>
<path fill="none" stroke="midnightblue" d="M568.2,-178.48C624.11,-173.15 700.87,-160.77 762.5,-132 792.44,-118.03 820.57,-90.05 833.72,-75.79"/>
<polygon fill="midnightblue" stroke="midnightblue" points="567.66,-175.02 558.01,-179.4 568.29,-181.99 567.66,-175.02"/>
</g>
<!-- Node11 -->
<g id="node11" class="node">
<title>Node11</title>
<g id="a_node11"><a xlink:href="_item_8hpp.html" target="_top" xlink:title=" ">
<polygon fill="white" stroke="black" points="815,-112.5 815,-131.5 924,-131.5 924,-112.5 815,-112.5"/>
<text text-anchor="middle" x="869.5" y="-119.5" font-family="Helvetica,sans-Serif" font-size="10.00">include/GUI/Item.hpp</text>
</a>
</g>
</g>
<!-- Node3&#45;&gt;Node11 -->
<g id="edge12" class="edge">
<title>Node3&#45;&gt;Node11</title>
<path fill="none" stroke="midnightblue" d="M568.26,-170.54C641.53,-158.98 750.73,-141.75 815.56,-131.51"/>
<polygon fill="midnightblue" stroke="midnightblue" points="567.5,-167.12 558.17,-172.14 568.59,-174.03 567.5,-167.12"/>
</g>
<!-- Node9&#45;&gt;Node8 -->
<g id="edge11" class="edge">
<title>Node9&#45;&gt;Node8</title>
<path fill="none" stroke="midnightblue" d="M817.69,-51.18C800.58,-41.24 778.03,-28.15 763.4,-19.65"/>
<polygon fill="midnightblue" stroke="midnightblue" points="816.15,-54.33 826.56,-56.32 819.67,-48.28 816.15,-54.33"/>
</g>
<!-- Node10 -->
<g id="node10" class="node">
<title>Node10</title>
<g id="a_node10"><a xlink:href="_inventory_8cpp.html" target="_top" xlink:title=" ">
<polygon fill="white" stroke="black" points="802.5,-0.5 802.5,-19.5 914.5,-19.5 914.5,-0.5 802.5,-0.5"/>
<text text-anchor="middle" x="858.5" y="-7.5" font-family="Helvetica,sans-Serif" font-size="10.00">src/GUI/Inventory.cpp</text>
</a>
</g>
</g>
<!-- Node9&#45;&gt;Node10 -->
<g id="edge10" class="edge">
<title>Node9&#45;&gt;Node10</title>
<path fill="none" stroke="midnightblue" d="M847.36,-46.4C850.2,-37.36 853.48,-26.94 855.75,-19.75"/>
<polygon fill="midnightblue" stroke="midnightblue" points="843.97,-45.49 844.31,-56.08 850.65,-47.6 843.97,-45.49"/>
</g>
<!-- Node11&#45;&gt;Node9 -->
<g id="edge14" class="edge">
<title>Node11&#45;&gt;Node9</title>
<path fill="none" stroke="midnightblue" d="M860.16,-102.98C855.41,-93.82 849.84,-83.09 846.04,-75.75"/>
<polygon fill="midnightblue" stroke="midnightblue" points="857.17,-104.82 864.88,-112.08 863.38,-101.59 857.17,-104.82"/>
</g>
<!-- Node12 -->
<g id="node12" class="node">
<title>Node12</title>
<g id="a_node12"><a xlink:href="_item_8cpp.html" target="_top" xlink:title=" ">
<polygon fill="white" stroke="black" points="924.5,-56.5 924.5,-75.5 1016.5,-75.5 1016.5,-56.5 924.5,-56.5"/>
<text text-anchor="middle" x="970.5" y="-63.5" font-family="Helvetica,sans-Serif" font-size="10.00">src/GUI/Item.cpp</text>
</a>
</g>
</g>
<!-- Node11&#45;&gt;Node12 -->
<g id="edge13" class="edge">
<title>Node11&#45;&gt;Node12</title>
<path fill="none" stroke="midnightblue" d="M894.58,-107.59C913.26,-97.61 938.2,-84.27 954.31,-75.65"/>
<polygon fill="midnightblue" stroke="midnightblue" points="892.9,-104.52 885.73,-112.32 896.2,-110.7 892.9,-104.52"/>
</g>
</g>
</svg>
