<?xml version="1.0" encoding="UTF-8" standalone="no"?>
<!DOCTYPE svg PUBLIC "-//W3C//DTD SVG 1.1//EN"
 "http://www.w3.org/Graphics/SVG/1.1/DTD/svg11.dtd">
<!-- Generated by graphviz version 2.47.1 (20210421.1823)
 -->
<!-- Title: include/EventHandler/EventHandler.hpp Pages: 1 -->
<svg width="947pt" height="274pt"
 viewBox="0.00 0.00 946.50 274.00" xmlns="http://www.w3.org/2000/svg" xmlns:xlink="http://www.w3.org/1999/xlink">
<g id="graph0" class="graph" transform="scale(1 1) rotate(0) translate(4 270)">
<title>include/EventHandler/EventHandler.hpp</title>
<polygon fill="white" stroke="transparent" points="-4,4 -4,-270 942.5,-270 942.5,4 -4,4"/>
<!-- Node1 -->
<g id="node1" class="node">
<title>Node1</title>
<g id="a_node1"><a xlink:title=" ">
<polygon fill="#bfbfbf" stroke="black" points="235,-235.5 235,-265.5 344,-265.5 344,-235.5 235,-235.5"/>
<text text-anchor="start" x="243" y="-253.5" font-family="Helvetica,sans-Serif" font-size="10.00">include/EventHandler</text>
<text text-anchor="middle" x="289.5" y="-242.5" font-family="Helvetica,sans-Serif" font-size="10.00">/EventHandler.hpp</text>
</a>
</g>
</g>
<!-- Node2 -->
<g id="node2" class="node">
<title>Node2</title>
<g id="a_node2"><a xlink:href="_event_handler_8cpp.html" target="_top" xlink:title=" ">
<polygon fill="white" stroke="black" points="0,-112.5 0,-131.5 171,-131.5 171,-112.5 0,-112.5"/>
<text text-anchor="middle" x="85.5" y="-119.5" font-family="Helvetica,sans-Serif" font-size="10.00">src/EventHandler/EventHandler.cpp</text>
</a>
</g>
</g>
<!-- Node1&#45;&gt;Node2 -->
<g id="edge1" class="edge">
<title>Node1&#45;&gt;Node2</title>
<path fill="none" stroke="midnightblue" d="M258.11,-230.04C213.04,-202.09 131.84,-151.73 99.42,-131.63"/>
<polygon fill="midnightblue" stroke="midnightblue" points="256.55,-233.18 266.89,-235.48 260.23,-227.23 256.55,-233.18"/>
</g>
<!-- Node3 -->
<g id="node3" class="node">
<title>Node3</title>
<g id="a_node3"><a xlink:href="_resource_manager_8hpp.html" target="_top" xlink:title=" ">
<polygon fill="white" stroke="black" points="427,-168.5 427,-198.5 558,-198.5 558,-168.5 427,-168.5"/>
<text text-anchor="start" x="435" y="-186.5" font-family="Helvetica,sans-Serif" font-size="10.00">include/graphics/Resource</text>
<text text-anchor="middle" x="492.5" y="-175.5" font-family="Helvetica,sans-Serif" font-size="10.00">Manager.hpp</text>
</a>
</g>
</g>
<!-- Node1&#45;&gt;Node3 -->
<g id="edge2" class="edge">
<title>Node1&#45;&gt;Node3</title>
<path fill="none" stroke="midnightblue" d="M343.44,-232.23C376.28,-221.71 417.7,-208.45 448.54,-198.58"/>
<polygon fill="midnightblue" stroke="midnightblue" points="342,-229.01 333.55,-235.4 344.14,-235.68 342,-229.01"/>
</g>
<!-- Node3&#45;&gt;Node2 -->
<g id="edge6" class="edge">
<title>Node3&#45;&gt;Node2</title>
<path fill="none" stroke="midnightblue" d="M416.76,-171.43C337.7,-159.87 215.45,-142 143.66,-131.5"/>
<polygon fill="midnightblue" stroke="midnightblue" points="416.25,-174.89 426.66,-172.87 417.27,-167.96 416.25,-174.89"/>
</g>
<!-- Node4 -->
<g id="node4" class="node">
<title>Node4</title>
<g id="a_node4"><a xlink:href="_drawable_8cpp.html" target="_top" xlink:title=" ">
<polygon fill="white" stroke="black" points="189,-112.5 189,-131.5 312,-131.5 312,-112.5 189,-112.5"/>
<text text-anchor="middle" x="250.5" y="-119.5" font-family="Helvetica,sans-Serif" font-size="10.00">src/engine/Drawable.cpp</text>
</a>
</g>
</g>
<!-- Node3&#45;&gt;Node4 -->
<g id="edge3" class="edge">
<title>Node3&#45;&gt;Node4</title>
<path fill="none" stroke="midnightblue" d="M425.65,-166.06C380.08,-154.86 321.62,-140.49 285.1,-131.51"/>
<polygon fill="midnightblue" stroke="midnightblue" points="424.91,-169.49 435.46,-168.47 426.58,-162.69 424.91,-169.49"/>
</g>
<!-- Node5 -->
<g id="node5" class="node">
<title>Node5</title>
<g id="a_node5"><a xlink:href="_field_8cpp.html" target="_top" xlink:title=" ">
<polygon fill="white" stroke="black" points="330.5,-112.5 330.5,-131.5 434.5,-131.5 434.5,-112.5 330.5,-112.5"/>
<text text-anchor="middle" x="382.5" y="-119.5" font-family="Helvetica,sans-Serif" font-size="10.00">src/engine/Field.cpp</text>
</a>
</g>
</g>
<!-- Node3&#45;&gt;Node5 -->
<g id="edge4" class="edge">
<title>Node3&#45;&gt;Node5</title>
<path fill="none" stroke="midnightblue" d="M457.38,-163.51C437.61,-152.81 413.88,-139.97 398.51,-131.66"/>
<polygon fill="midnightblue" stroke="midnightblue" points="455.97,-166.72 466.43,-168.4 459.3,-160.56 455.97,-166.72"/>
</g>
<!-- Node6 -->
<g id="node6" class="node">
<title>Node6</title>
<g id="a_node6"><a xlink:href="_engine_8cpp.html" target="_top" xlink:title=" ">
<polygon fill="white" stroke="black" points="452.5,-112.5 452.5,-131.5 532.5,-131.5 532.5,-112.5 452.5,-112.5"/>
<text text-anchor="middle" x="492.5" y="-119.5" font-family="Helvetica,sans-Serif" font-size="10.00">src/Engine.cpp</text>
</a>
</g>
</g>
<!-- Node3&#45;&gt;Node6 -->
<g id="edge5" class="edge">
<title>Node3&#45;&gt;Node6</title>
<path fill="none" stroke="midnightblue" d="M492.5,-158.29C492.5,-148.86 492.5,-138.65 492.5,-131.66"/>
<polygon fill="midnightblue" stroke="midnightblue" points="489,-158.4 492.5,-168.4 496,-158.4 489,-158.4"/>
</g>
<!-- Node7 -->
<g id="node7" class="node">
<title>Node7</title>
<g id="a_node7"><a xlink:href="_game_8cpp.html" target="_top" xlink:title=" ">
<polygon fill="white" stroke="black" points="579,-0.5 579,-19.5 656,-19.5 656,-0.5 579,-0.5"/>
<text text-anchor="middle" x="617.5" y="-7.5" font-family="Helvetica,sans-Serif" font-size="10.00">src/Game.cpp</text>
</a>
</g>
</g>
<!-- Node3&#45;&gt;Node7 -->
<g id="edge7" class="edge">
<title>Node3&#45;&gt;Node7</title>
<path fill="none" stroke="midnightblue" d="M515.22,-161.09C523.88,-152.43 533.57,-142.11 541.5,-132 572.44,-92.59 601.87,-40.03 612.91,-19.62"/>
<polygon fill="midnightblue" stroke="midnightblue" points="512.63,-158.73 507.94,-168.23 517.53,-163.73 512.63,-158.73"/>
</g>
<!-- Node8 -->
<g id="node8" class="node">
<title>Node8</title>
<g id="a_node8"><a xlink:href="_resource_manager_8cpp.html" target="_top" xlink:title=" ">
<polygon fill="white" stroke="black" points="588.5,-112.5 588.5,-131.5 758.5,-131.5 758.5,-112.5 588.5,-112.5"/>
<text text-anchor="middle" x="673.5" y="-119.5" font-family="Helvetica,sans-Serif" font-size="10.00">src/graphics/ResourceManager.cpp</text>
</a>
</g>
</g>
<!-- Node3&#45;&gt;Node8 -->
<g id="edge8" class="edge">
<title>Node3&#45;&gt;Node8</title>
<path fill="none" stroke="midnightblue" d="M545.07,-165.22C578.67,-154.17 620.79,-140.33 647.43,-131.57"/>
<polygon fill="midnightblue" stroke="midnightblue" points="543.8,-161.95 535.39,-168.4 545.99,-168.6 543.8,-161.95"/>
</g>
<!-- Node9 -->
<g id="node9" class="node">
<title>Node9</title>
<g id="a_node9"><a xlink:href="_inventory_8hpp.html" target="_top" xlink:title=" ">
<polygon fill="white" stroke="black" points="699,-56.5 699,-75.5 828,-75.5 828,-56.5 699,-56.5"/>
<text text-anchor="middle" x="763.5" y="-63.5" font-family="Helvetica,sans-Serif" font-size="10.00">include/GUI/Inventory.hpp</text>
</a>
</g>
</g>
<!-- Node3&#45;&gt;Node9 -->
<g id="edge9" class="edge">
<title>Node3&#45;&gt;Node9</title>
<path fill="none" stroke="midnightblue" d="M568.09,-179.17C640.56,-174.21 742.54,-161.97 767.5,-132 780.82,-116.02 772.92,-89.43 767.43,-75.74"/>
<polygon fill="midnightblue" stroke="midnightblue" points="567.82,-175.68 558.07,-179.83 568.28,-182.67 567.82,-175.68"/>
</g>
<!-- Node11 -->
<g id="node11" class="node">
<title>Node11</title>
<g id="a_node11"><a xlink:href="_item_8hpp.html" target="_top" xlink:title=" ">
<polygon fill="white" stroke="black" points="815,-112.5 815,-131.5 924,-131.5 924,-112.5 815,-112.5"/>
<text text-anchor="middle" x="869.5" y="-119.5" font-family="Helvetica,sans-Serif" font-size="10.00">include/GUI/Item.hpp</text>
</a>
</g>
</g>
<!-- Node3&#45;&gt;Node11 -->
<g id="edge12" class="edge">
<title>Node3&#45;&gt;Node11</title>
<path fill="none" stroke="midnightblue" d="M568.26,-170.54C641.53,-158.98 750.73,-141.75 815.56,-131.51"/>
<polygon fill="midnightblue" stroke="midnightblue" points="567.5,-167.12 558.17,-172.14 568.59,-174.03 567.5,-167.12"/>
</g>
<!-- Node9&#45;&gt;Node7 -->
<g id="edge10" class="edge">
<title>Node9&#45;&gt;Node7</title>
<path fill="none" stroke="midnightblue" d="M730.8,-52.91C703.35,-42.75 664.83,-28.51 640.53,-19.52"/>
<polygon fill="midnightblue" stroke="midnightblue" points="729.77,-56.26 740.37,-56.44 732.2,-49.69 729.77,-56.26"/>
</g>
<!-- Node10 -->
<g id="node10" class="node">
<title>Node10</title>
<g id="a_node10"><a xlink:href="_inventory_8cpp.html" target="_top" xlink:title=" ">
<polygon fill="white" stroke="black" points="707.5,-0.5 707.5,-19.5 819.5,-19.5 819.5,-0.5 707.5,-0.5"/>
<text text-anchor="middle" x="763.5" y="-7.5" font-family="Helvetica,sans-Serif" font-size="10.00">src/GUI/Inventory.cpp</text>
</a>
</g>
</g>
<!-- Node9&#45;&gt;Node10 -->
<g id="edge11" class="edge">
<title>Node9&#45;&gt;Node10</title>
<path fill="none" stroke="midnightblue" d="M763.5,-45.8C763.5,-36.91 763.5,-26.78 763.5,-19.75"/>
<polygon fill="midnightblue" stroke="midnightblue" points="760,-46.08 763.5,-56.08 767,-46.08 760,-46.08"/>
</g>
<!-- Node11&#45;&gt;Node9 -->
<g id="edge14" class="edge">
<title>Node11&#45;&gt;Node9</title>
<path fill="none" stroke="midnightblue" d="M843.44,-107.73C823.82,-97.73 797.47,-84.31 780.49,-75.65"/>
<polygon fill="midnightblue" stroke="midnightblue" points="841.97,-110.9 852.47,-112.32 845.15,-104.67 841.97,-110.9"/>
</g>
<!-- Node12 -->
<g id="node12" class="node">
<title>Node12</title>
<g id="a_node12"><a xlink:href="_item_8cpp.html" target="_top" xlink:title=" ">
<polygon fill="white" stroke="black" points="846.5,-56.5 846.5,-75.5 938.5,-75.5 938.5,-56.5 846.5,-56.5"/>
<text text-anchor="middle" x="892.5" y="-63.5" font-family="Helvetica,sans-Serif" font-size="10.00">src/GUI/Item.cpp</text>
</a>
</g>
</g>
<!-- Node11&#45;&gt;Node12 -->
<g id="edge13" class="edge">
<title>Node11&#45;&gt;Node12</title>
<path fill="none" stroke="midnightblue" d="M877.3,-102.69C881.18,-93.59 885.68,-83.01 888.77,-75.75"/>
<polygon fill="midnightblue" stroke="midnightblue" points="874,-101.51 873.3,-112.08 880.44,-104.25 874,-101.51"/>
</g>
</g>
</svg>
