<?xml version="1.0" encoding="UTF-8" standalone="no"?>
<!DOCTYPE svg PUBLIC "-//W3C//DTD SVG 1.1//EN"
 "http://www.w3.org/Graphics/SVG/1.1/DTD/svg11.dtd">
<!-- Generated by graphviz version 2.47.0 (20210407.0042)
 -->
<!-- Title: src/EventHandler/EventHandler.cpp Pages: 1 -->
<svg width="686pt" height="420pt"
 viewBox="0.00 0.00 686.00 420.00" xmlns="http://www.w3.org/2000/svg" xmlns:xlink="http://www.w3.org/1999/xlink">
<g id="graph0" class="graph" transform="scale(1 1) rotate(0) translate(4 416)">
<title>src/EventHandler/EventHandler.cpp</title>
<polygon fill="white" stroke="transparent" points="-4,4 -4,-416 682,-416 682,4 -4,4"/>
<!-- Node1 -->
<g id="node1" class="node">
<title>Node1</title>
<g id="a_node1"><a xlink:title=" ">
<polygon fill="#bfbfbf" stroke="black" points="428,-392.5 428,-411.5 599,-411.5 599,-392.5 428,-392.5"/>
<text text-anchor="middle" x="513.5" y="-399.5" font-family="Helvetica,sans-Serif" font-size="10.00">src/EventHandler/EventHandler.cpp</text>
</a>
</g>
</g>
<!-- Node2 -->
<g id="node2" class="node">
<title>Node2</title>
<g id="a_node2"><a xlink:href="_event_handler_8hpp.html" target="_top" xlink:title=" ">
<polygon fill="white" stroke="black" points="200,-280.5 200,-299.5 355,-299.5 355,-280.5 200,-280.5"/>
<text text-anchor="middle" x="277.5" y="-287.5" font-family="Helvetica,sans-Serif" font-size="10.00">EventHandler/EventHandler.hpp</text>
</a>
</g>
</g>
<!-- Node1&#45;&gt;Node2 -->
<g id="edge1" class="edge">
<title>Node1&#45;&gt;Node2</title>
<path fill="none" stroke="midnightblue" d="M473.75,-392.48C443.61,-385.14 401.69,-373.03 367.5,-356 340.22,-342.41 312.3,-320.81 294.94,-306.28"/>
<polygon fill="midnightblue" stroke="midnightblue" points="297.2,-303.6 287.32,-299.78 292.66,-308.93 297.2,-303.6"/>
</g>
<!-- Node16 -->
<g id="node16" class="node">
<title>Node16</title>
<g id="a_node16"><a xlink:href="_resource_manager_8hpp.html" target="_top" xlink:title=" ">
<polygon fill="white" stroke="black" points="376,-336.5 376,-355.5 529,-355.5 529,-336.5 376,-336.5"/>
<text text-anchor="middle" x="452.5" y="-343.5" font-family="Helvetica,sans-Serif" font-size="10.00">graphics/ResourceManager.hpp</text>
</a>
</g>
</g>
<!-- Node1&#45;&gt;Node16 -->
<g id="edge20" class="edge">
<title>Node1&#45;&gt;Node16</title>
<path fill="none" stroke="midnightblue" d="M503.7,-392.32C494.68,-384.34 481.09,-372.31 470.18,-362.65"/>
<polygon fill="midnightblue" stroke="midnightblue" points="472.29,-359.84 462.48,-355.83 467.65,-365.08 472.29,-359.84"/>
</g>
<!-- Node19 -->
<g id="node19" class="node">
<title>Node19</title>
<g id="a_node19"><a xlink:title=" ">
<polygon fill="white" stroke="#bfbfbf" points="547.5,-336.5 547.5,-355.5 603.5,-355.5 603.5,-336.5 547.5,-336.5"/>
<text text-anchor="middle" x="575.5" y="-343.5" font-family="Helvetica,sans-Serif" font-size="10.00">algorithm</text>
</a>
</g>
</g>
<!-- Node1&#45;&gt;Node19 -->
<g id="edge27" class="edge">
<title>Node1&#45;&gt;Node19</title>
<path fill="none" stroke="midnightblue" d="M523.46,-392.32C532.63,-384.34 546.44,-372.31 557.53,-362.65"/>
<polygon fill="midnightblue" stroke="midnightblue" points="560.12,-365.04 565.36,-355.83 555.52,-359.76 560.12,-365.04"/>
</g>
<!-- Node20 -->
<g id="node20" class="node">
<title>Node20</title>
<g id="a_node20"><a xlink:title=" ">
<polygon fill="white" stroke="#bfbfbf" points="621.5,-336.5 621.5,-355.5 675.5,-355.5 675.5,-336.5 621.5,-336.5"/>
<text text-anchor="middle" x="648.5" y="-343.5" font-family="Helvetica,sans-Serif" font-size="10.00">iostream</text>
</a>
</g>
</g>
<!-- Node1&#45;&gt;Node20 -->
<g id="edge28" class="edge">
<title>Node1&#45;&gt;Node20</title>
<path fill="none" stroke="midnightblue" d="M534.89,-392.44C557.21,-383.52 592.4,-369.44 617.71,-359.32"/>
<polygon fill="midnightblue" stroke="midnightblue" points="619.22,-362.48 627.21,-355.52 616.62,-355.98 619.22,-362.48"/>
</g>
<!-- Node3 -->
<g id="node3" class="node">
<title>Node3</title>
<g id="a_node3"><a xlink:title=" ">
<polygon fill="white" stroke="#bfbfbf" points="0,-224.5 0,-243.5 59,-243.5 59,-224.5 0,-224.5"/>
<text text-anchor="middle" x="29.5" y="-231.5" font-family="Helvetica,sans-Serif" font-size="10.00">functional</text>
</a>
</g>
</g>
<!-- Node2&#45;&gt;Node3 -->
<g id="edge2" class="edge">
<title>Node2&#45;&gt;Node3</title>
<path fill="none" stroke="midnightblue" d="M237,-280.47C196.93,-271.98 133.57,-258.45 69.22,-244.13"/>
<polygon fill="midnightblue" stroke="midnightblue" points="69.82,-240.68 59.3,-241.92 68.3,-247.52 69.82,-240.68"/>
</g>
<!-- Node4 -->
<g id="node4" class="node">
<title>Node4</title>
<g id="a_node4"><a xlink:href="_window_8hpp.html" target="_top" xlink:title=" ">
<polygon fill="white" stroke="black" points="238,-224.5 238,-243.5 347,-243.5 347,-224.5 238,-224.5"/>
<text text-anchor="middle" x="292.5" y="-231.5" font-family="Helvetica,sans-Serif" font-size="10.00">graphics/Window.hpp</text>
</a>
</g>
</g>
<!-- Node2&#45;&gt;Node4 -->
<g id="edge3" class="edge">
<title>Node2&#45;&gt;Node4</title>
<path fill="none" stroke="midnightblue" d="M279.98,-280.08C281.99,-272.85 284.89,-262.41 287.39,-253.4"/>
<polygon fill="midnightblue" stroke="midnightblue" points="290.76,-254.32 290.07,-243.75 284.02,-252.45 290.76,-254.32"/>
</g>
<!-- Node14 -->
<g id="node14" class="node">
<title>Node14</title>
<g id="a_node14"><a xlink:href="_vector2_d_8hpp.html" target="_top" xlink:title=" ">
<polygon fill="white" stroke="black" points="77.5,-224.5 77.5,-243.5 189.5,-243.5 189.5,-224.5 77.5,-224.5"/>
<text text-anchor="middle" x="133.5" y="-231.5" font-family="Helvetica,sans-Serif" font-size="10.00">Helpers/Vector2D.hpp</text>
</a>
</g>
</g>
<!-- Node2&#45;&gt;Node14 -->
<g id="edge17" class="edge">
<title>Node2&#45;&gt;Node14</title>
<path fill="none" stroke="midnightblue" d="M254.68,-280.44C230.67,-271.44 192.67,-257.19 165.63,-247.05"/>
<polygon fill="midnightblue" stroke="midnightblue" points="166.8,-243.75 156.21,-243.52 164.34,-250.3 166.8,-243.75"/>
</g>
<!-- Node5 -->
<g id="node5" class="node">
<title>Node5</title>
<g id="a_node5"><a xlink:title=" ">
<polygon fill="white" stroke="#bfbfbf" points="188,-168.5 188,-187.5 251,-187.5 251,-168.5 188,-168.5"/>
<text text-anchor="middle" x="219.5" y="-175.5" font-family="Helvetica,sans-Serif" font-size="10.00">glad/glad.h</text>
</a>
</g>
</g>
<!-- Node4&#45;&gt;Node5 -->
<g id="edge4" class="edge">
<title>Node4&#45;&gt;Node5</title>
<path fill="none" stroke="midnightblue" d="M280.77,-224.32C269.66,-216.11 252.76,-203.6 239.52,-193.81"/>
<polygon fill="midnightblue" stroke="midnightblue" points="241.56,-190.97 231.44,-187.83 237.4,-196.59 241.56,-190.97"/>
</g>
<!-- Node6 -->
<g id="node6" class="node">
<title>Node6</title>
<g id="a_node6"><a xlink:title=" ">
<polygon fill="white" stroke="#bfbfbf" points="269,-168.5 269,-187.5 348,-187.5 348,-168.5 269,-168.5"/>
<text text-anchor="middle" x="308.5" y="-175.5" font-family="Helvetica,sans-Serif" font-size="10.00">GLFW/glfw3.h</text>
</a>
</g>
</g>
<!-- Node4&#45;&gt;Node6 -->
<g id="edge5" class="edge">
<title>Node4&#45;&gt;Node6</title>
<path fill="none" stroke="midnightblue" d="M295.14,-224.08C297.29,-216.85 300.38,-206.41 303.05,-197.4"/>
<polygon fill="midnightblue" stroke="midnightblue" points="306.42,-198.33 305.91,-187.75 299.71,-196.34 306.42,-198.33"/>
</g>
<!-- Node7 -->
<g id="node7" class="node">
<title>Node7</title>
<g id="a_node7"><a xlink:title=" ">
<polygon fill="white" stroke="#bfbfbf" points="68,-168.5 68,-187.5 107,-187.5 107,-168.5 68,-168.5"/>
<text text-anchor="middle" x="87.5" y="-175.5" font-family="Helvetica,sans-Serif" font-size="10.00">utility</text>
</a>
</g>
</g>
<!-- Node4&#45;&gt;Node7 -->
<g id="edge6" class="edge">
<title>Node4&#45;&gt;Node7</title>
<path fill="none" stroke="midnightblue" d="M256.96,-224.47C223.33,-216.28 171.23,-203.27 116.92,-188.01"/>
<polygon fill="midnightblue" stroke="midnightblue" points="117.69,-184.59 107.12,-185.23 115.79,-191.32 117.69,-184.59"/>
</g>
<!-- Node8 -->
<g id="node8" class="node">
<title>Node8</title>
<g id="a_node8"><a xlink:title=" ">
<polygon fill="white" stroke="#bfbfbf" points="125.5,-168.5 125.5,-187.5 169.5,-187.5 169.5,-168.5 125.5,-168.5"/>
<text text-anchor="middle" x="147.5" y="-175.5" font-family="Helvetica,sans-Serif" font-size="10.00">vector</text>
</a>
</g>
</g>
<!-- Node4&#45;&gt;Node8 -->
<g id="edge7" class="edge">
<title>Node4&#45;&gt;Node8</title>
<path fill="none" stroke="midnightblue" d="M269.52,-224.44C245.2,-215.39 206.63,-201.02 179.37,-190.87"/>
<polygon fill="midnightblue" stroke="midnightblue" points="180.48,-187.55 169.89,-187.34 178.04,-194.11 180.48,-187.55"/>
</g>
<!-- Node9 -->
<g id="node9" class="node">
<title>Node9</title>
<g id="a_node9"><a xlink:href="_shader_8hpp.html" target="_top" xlink:title=" ">
<polygon fill="white" stroke="black" points="481,-168.5 481,-187.5 586,-187.5 586,-168.5 481,-168.5"/>
<text text-anchor="middle" x="533.5" y="-175.5" font-family="Helvetica,sans-Serif" font-size="10.00">graphics/Shader.hpp</text>
</a>
</g>
</g>
<!-- Node4&#45;&gt;Node9 -->
<g id="edge8" class="edge">
<title>Node4&#45;&gt;Node9</title>
<path fill="none" stroke="midnightblue" d="M330.69,-224.44C372.64,-215.04 440.09,-199.93 485.57,-189.74"/>
<polygon fill="midnightblue" stroke="midnightblue" points="486.5,-193.12 495.49,-187.52 484.97,-186.29 486.5,-193.12"/>
</g>
<!-- Node12 -->
<g id="node12" class="node">
<title>Node12</title>
<g id="a_node12"><a xlink:href="_transform_8hpp.html" target="_top" xlink:title=" ">
<polygon fill="white" stroke="black" points="400,-56.5 400,-75.5 519,-75.5 519,-56.5 400,-56.5"/>
<text text-anchor="middle" x="459.5" y="-63.5" font-family="Helvetica,sans-Serif" font-size="10.00">graphics/Transform.hpp</text>
</a>
</g>
</g>
<!-- Node4&#45;&gt;Node12 -->
<g id="edge16" class="edge">
<title>Node4&#45;&gt;Node12</title>
<path fill="none" stroke="midnightblue" d="M308.9,-224.47C322.93,-216.52 342.95,-203.58 356.5,-188 381.42,-159.36 370.58,-140.64 395.5,-112 406.41,-99.47 421.5,-88.64 434.29,-80.74"/>
<polygon fill="midnightblue" stroke="midnightblue" points="436.28,-83.64 443.1,-75.53 432.71,-77.61 436.28,-83.64"/>
</g>
<!-- Node10 -->
<g id="node10" class="node">
<title>Node10</title>
<g id="a_node10"><a xlink:title=" ">
<polygon fill="white" stroke="#bfbfbf" points="582,-112.5 582,-131.5 623,-131.5 623,-112.5 582,-112.5"/>
<text text-anchor="middle" x="602.5" y="-119.5" font-family="Helvetica,sans-Serif" font-size="10.00">string</text>
</a>
</g>
</g>
<!-- Node9&#45;&gt;Node10 -->
<g id="edge9" class="edge">
<title>Node9&#45;&gt;Node10</title>
<path fill="none" stroke="midnightblue" d="M544.59,-168.32C554.99,-160.18 570.76,-147.84 583.22,-138.09"/>
<polygon fill="midnightblue" stroke="midnightblue" points="585.49,-140.75 591.21,-131.83 581.18,-135.24 585.49,-140.75"/>
</g>
<!-- Node11 -->
<g id="node11" class="node">
<title>Node11</title>
<g id="a_node11"><a xlink:href="_g_shape_8hpp.html" target="_top" xlink:title=" ">
<polygon fill="white" stroke="black" points="404.5,-112.5 404.5,-131.5 514.5,-131.5 514.5,-112.5 404.5,-112.5"/>
<text text-anchor="middle" x="459.5" y="-119.5" font-family="Helvetica,sans-Serif" font-size="10.00">graphics/GShape.hpp</text>
</a>
</g>
</g>
<!-- Node9&#45;&gt;Node11 -->
<g id="edge10" class="edge">
<title>Node9&#45;&gt;Node11</title>
<path fill="none" stroke="midnightblue" d="M516.5,-168.32C503.7,-160.26 486.66,-148.08 474.4,-138.37"/>
<polygon fill="midnightblue" stroke="midnightblue" points="476.4,-135.48 466.46,-131.83 471.96,-140.89 476.4,-135.48"/>
</g>
<!-- Node9&#45;&gt;Node12 -->
<g id="edge15" class="edge">
<title>Node9&#45;&gt;Node12</title>
<path fill="none" stroke="midnightblue" d="M534.22,-168.27C534.89,-155.06 534.46,-129.66 523.5,-112 515.14,-98.53 501.11,-87.99 488.31,-80.51"/>
<polygon fill="midnightblue" stroke="midnightblue" points="489.76,-77.32 479.31,-75.6 486.41,-83.46 489.76,-77.32"/>
</g>
<!-- Node11&#45;&gt;Node4 -->
<g id="edge11" class="edge">
<title>Node11&#45;&gt;Node4</title>
<path fill="none" stroke="midnightblue" d="M452.16,-131.52C440.27,-144.9 415.61,-171.08 390.5,-188 370.45,-201.52 345.68,-212.85 326.06,-220.76"/>
<polygon fill="midnightblue" stroke="midnightblue" points="324.63,-217.56 316.6,-224.47 327.19,-224.08 324.63,-217.56"/>
</g>
<!-- Node11&#45;&gt;Node9 -->
<g id="edge12" class="edge">
<title>Node11&#45;&gt;Node9</title>
<path fill="none" stroke="midnightblue" d="M476.47,-131.65C489.33,-139.76 506.51,-152.04 518.78,-161.78"/>
<polygon fill="midnightblue" stroke="midnightblue" points="516.78,-164.66 526.73,-168.32 521.23,-159.26 516.78,-164.66"/>
</g>
<!-- Node11&#45;&gt;Node12 -->
<g id="edge13" class="edge">
<title>Node11&#45;&gt;Node12</title>
<path fill="none" stroke="midnightblue" d="M459.5,-112.08C459.5,-105.01 459.5,-94.86 459.5,-85.99"/>
<polygon fill="midnightblue" stroke="midnightblue" points="463,-85.75 459.5,-75.75 456,-85.75 463,-85.75"/>
</g>
<!-- Node13 -->
<g id="node13" class="node">
<title>Node13</title>
<g id="a_node13"><a xlink:title=" ">
<polygon fill="white" stroke="#bfbfbf" points="407.5,-0.5 407.5,-19.5 511.5,-19.5 511.5,-0.5 407.5,-0.5"/>
<text text-anchor="middle" x="459.5" y="-7.5" font-family="Helvetica,sans-Serif" font-size="10.00">glm/gtc/type_ptr.hpp</text>
</a>
</g>
</g>
<!-- Node12&#45;&gt;Node13 -->
<g id="edge14" class="edge">
<title>Node12&#45;&gt;Node13</title>
<path fill="none" stroke="midnightblue" d="M459.5,-56.08C459.5,-49.01 459.5,-38.86 459.5,-29.99"/>
<polygon fill="midnightblue" stroke="midnightblue" points="463,-29.75 459.5,-19.75 456,-29.75 463,-29.75"/>
</g>
<!-- Node14&#45;&gt;Node7 -->
<g id="edge18" class="edge">
<title>Node14&#45;&gt;Node7</title>
<path fill="none" stroke="midnightblue" d="M125.9,-224.08C119.27,-216.3 109.48,-204.8 101.44,-195.37"/>
<polygon fill="midnightblue" stroke="midnightblue" points="104.1,-193.09 94.95,-187.75 98.77,-197.63 104.1,-193.09"/>
</g>
<!-- Node15 -->
<g id="node15" class="node">
<title>Node15</title>
<g id="a_node15"><a xlink:title=" ">
<polygon fill="white" stroke="#bfbfbf" points="5.5,-168.5 5.5,-187.5 49.5,-187.5 49.5,-168.5 5.5,-168.5"/>
<text text-anchor="middle" x="27.5" y="-175.5" font-family="Helvetica,sans-Serif" font-size="10.00">cmath</text>
</a>
</g>
</g>
<!-- Node14&#45;&gt;Node15 -->
<g id="edge19" class="edge">
<title>Node14&#45;&gt;Node15</title>
<path fill="none" stroke="midnightblue" d="M116.47,-224.32C99.47,-215.66 73.12,-202.24 53.51,-192.25"/>
<polygon fill="midnightblue" stroke="midnightblue" points="54.99,-189.08 44.49,-187.65 51.81,-195.31 54.99,-189.08"/>
</g>
<!-- Node16&#45;&gt;Node2 -->
<g id="edge26" class="edge">
<title>Node16&#45;&gt;Node2</title>
<path fill="none" stroke="midnightblue" d="M424.77,-336.44C395.07,-327.28 347.78,-312.69 314.83,-302.52"/>
<polygon fill="midnightblue" stroke="midnightblue" points="315.69,-299.12 305.1,-299.52 313.62,-305.81 315.69,-299.12"/>
</g>
<!-- Node16&#45;&gt;Node9 -->
<g id="edge24" class="edge">
<title>Node16&#45;&gt;Node9</title>
<path fill="none" stroke="midnightblue" d="M456.85,-336.08C469.72,-309.72 507.7,-231.88 524.88,-196.66"/>
<polygon fill="midnightblue" stroke="midnightblue" points="528.08,-198.09 529.32,-187.57 521.79,-195.02 528.08,-198.09"/>
</g>
<!-- Node16&#45;&gt;Node10 -->
<g id="edge22" class="edge">
<title>Node16&#45;&gt;Node10</title>
<path fill="none" stroke="midnightblue" d="M464.4,-336.37C492.86,-314.98 564.78,-256.25 595.5,-188 601.99,-173.59 603.49,-155.63 603.51,-142.24"/>
<polygon fill="midnightblue" stroke="midnightblue" points="607,-141.76 603.23,-131.86 600,-141.95 607,-141.76"/>
</g>
<!-- Node16&#45;&gt;Node11 -->
<g id="edge25" class="edge">
<title>Node16&#45;&gt;Node11</title>
<path fill="none" stroke="midnightblue" d="M452.77,-336.3C453.8,-303.63 457.45,-187.87 458.9,-141.96"/>
<polygon fill="midnightblue" stroke="midnightblue" points="462.4,-141.99 459.22,-131.88 455.41,-141.77 462.4,-141.99"/>
</g>
<!-- Node17 -->
<g id="node17" class="node">
<title>Node17</title>
<g id="a_node17"><a xlink:title=" ">
<polygon fill="white" stroke="#bfbfbf" points="643,-280.5 643,-299.5 678,-299.5 678,-280.5 643,-280.5"/>
<text text-anchor="middle" x="660.5" y="-287.5" font-family="Helvetica,sans-Serif" font-size="10.00">map</text>
</a>
</g>
</g>
<!-- Node16&#45;&gt;Node17 -->
<g id="edge21" class="edge">
<title>Node16&#45;&gt;Node17</title>
<path fill="none" stroke="midnightblue" d="M486.96,-336.45C522.49,-327.57 579.46,-313.16 628.5,-300 629.96,-299.61 631.46,-299.2 632.98,-298.79"/>
<polygon fill="midnightblue" stroke="midnightblue" points="634.22,-302.07 642.92,-296.03 632.34,-295.33 634.22,-302.07"/>
</g>
<!-- Node18 -->
<g id="node18" class="node">
<title>Node18</title>
<g id="a_node18"><a xlink:title=" ">
<polygon fill="white" stroke="#bfbfbf" points="373,-280.5 373,-299.5 424,-299.5 424,-280.5 373,-280.5"/>
<text text-anchor="middle" x="398.5" y="-287.5" font-family="Helvetica,sans-Serif" font-size="10.00">memory</text>
</a>
</g>
</g>
<!-- Node16&#45;&gt;Node18 -->
<g id="edge23" class="edge">
<title>Node16&#45;&gt;Node18</title>
<path fill="none" stroke="midnightblue" d="M443.58,-336.08C435.72,-328.22 424.07,-316.57 414.58,-307.08"/>
<polygon fill="midnightblue" stroke="midnightblue" points="416.8,-304.35 407.25,-299.75 411.85,-309.3 416.8,-304.35"/>
</g>
</g>
</svg>
