<?xml version="1.0" encoding="UTF-8" standalone="no"?>
<!DOCTYPE svg PUBLIC "-//W3C//DTD SVG 1.1//EN"
 "http://www.w3.org/Graphics/SVG/1.1/DTD/svg11.dtd">
<!-- Generated by graphviz version 2.47.0 (20210407.0042)
 -->
<!-- Title: src/EventHandler/EventHandler.cpp Pages: 1 -->
<svg width="610pt" height="420pt"
 viewBox="0.00 0.00 609.50 420.00" xmlns="http://www.w3.org/2000/svg" xmlns:xlink="http://www.w3.org/1999/xlink">
<g id="graph0" class="graph" transform="scale(1 1) rotate(0) translate(4 416)">
<title>src/EventHandler/EventHandler.cpp</title>
<polygon fill="white" stroke="transparent" points="-4,4 -4,-416 605.5,-416 605.5,4 -4,4"/>
<!-- Node1 -->
<g id="node1" class="node">
<title>Node1</title>
<g id="a_node1"><a xlink:title=" ">
<polygon fill="#bfbfbf" stroke="black" points="354,-392.5 354,-411.5 525,-411.5 525,-392.5 354,-392.5"/>
<text text-anchor="middle" x="439.5" y="-399.5" font-family="Helvetica,sans-Serif" font-size="10.00">src/EventHandler/EventHandler.cpp</text>
</a>
</g>
</g>
<!-- Node2 -->
<g id="node2" class="node">
<title>Node2</title>
<g id="a_node2"><a xlink:href="_event_handler_8hpp.html" target="_top" xlink:title=" ">
<polygon fill="white" stroke="black" points="127,-280.5 127,-299.5 282,-299.5 282,-280.5 127,-280.5"/>
<text text-anchor="middle" x="204.5" y="-287.5" font-family="Helvetica,sans-Serif" font-size="10.00">EventHandler/EventHandler.hpp</text>
</a>
</g>
</g>
<!-- Node1&#45;&gt;Node2 -->
<g id="edge1" class="edge">
<title>Node1&#45;&gt;Node2</title>
<path fill="none" stroke="midnightblue" d="M398.78,-392.47C368.46,-385.2 326.59,-373.17 292.5,-356 265.92,-342.61 238.91,-321.26 221.96,-306.71"/>
<polygon fill="midnightblue" stroke="midnightblue" points="223.89,-303.75 214.06,-299.8 219.28,-309.02 223.89,-303.75"/>
</g>
<!-- Node15 -->
<g id="node15" class="node">
<title>Node15</title>
<g id="a_node15"><a xlink:href="_resource_manager_8hpp.html" target="_top" xlink:title=" ">
<polygon fill="white" stroke="black" points="302,-336.5 302,-355.5 455,-355.5 455,-336.5 302,-336.5"/>
<text text-anchor="middle" x="378.5" y="-343.5" font-family="Helvetica,sans-Serif" font-size="10.00">graphics/ResourceManager.hpp</text>
</a>
</g>
</g>
<!-- Node1&#45;&gt;Node15 -->
<g id="edge19" class="edge">
<title>Node1&#45;&gt;Node15</title>
<path fill="none" stroke="midnightblue" d="M429.7,-392.32C420.68,-384.34 407.09,-372.31 396.18,-362.65"/>
<polygon fill="midnightblue" stroke="midnightblue" points="398.29,-359.84 388.48,-355.83 393.65,-365.08 398.29,-359.84"/>
</g>
<!-- Node18 -->
<g id="node18" class="node">
<title>Node18</title>
<g id="a_node18"><a xlink:title=" ">
<polygon fill="white" stroke="#bfbfbf" points="473.5,-336.5 473.5,-355.5 529.5,-355.5 529.5,-336.5 473.5,-336.5"/>
<text text-anchor="middle" x="501.5" y="-343.5" font-family="Helvetica,sans-Serif" font-size="10.00">algorithm</text>
</a>
</g>
</g>
<!-- Node1&#45;&gt;Node18 -->
<g id="edge26" class="edge">
<title>Node1&#45;&gt;Node18</title>
<path fill="none" stroke="midnightblue" d="M449.46,-392.32C458.63,-384.34 472.44,-372.31 483.53,-362.65"/>
<polygon fill="midnightblue" stroke="midnightblue" points="486.12,-365.04 491.36,-355.83 481.52,-359.76 486.12,-365.04"/>
</g>
<!-- Node19 -->
<g id="node19" class="node">
<title>Node19</title>
<g id="a_node19"><a xlink:title=" ">
<polygon fill="white" stroke="#bfbfbf" points="547.5,-336.5 547.5,-355.5 601.5,-355.5 601.5,-336.5 547.5,-336.5"/>
<text text-anchor="middle" x="574.5" y="-343.5" font-family="Helvetica,sans-Serif" font-size="10.00">iostream</text>
</a>
</g>
</g>
<!-- Node1&#45;&gt;Node19 -->
<g id="edge27" class="edge">
<title>Node1&#45;&gt;Node19</title>
<path fill="none" stroke="midnightblue" d="M460.89,-392.44C483.21,-383.52 518.4,-369.44 543.71,-359.32"/>
<polygon fill="midnightblue" stroke="midnightblue" points="545.22,-362.48 553.21,-355.52 542.62,-355.98 545.22,-362.48"/>
</g>
<!-- Node3 -->
<g id="node3" class="node">
<title>Node3</title>
<g id="a_node3"><a xlink:title=" ">
<polygon fill="white" stroke="#bfbfbf" points="0,-224.5 0,-243.5 59,-243.5 59,-224.5 0,-224.5"/>
<text text-anchor="middle" x="29.5" y="-231.5" font-family="Helvetica,sans-Serif" font-size="10.00">functional</text>
</a>
</g>
</g>
<!-- Node2&#45;&gt;Node3 -->
<g id="edge2" class="edge">
<title>Node2&#45;&gt;Node3</title>
<path fill="none" stroke="midnightblue" d="M176.77,-280.44C147.07,-271.28 99.78,-256.69 66.83,-246.52"/>
<polygon fill="midnightblue" stroke="midnightblue" points="67.69,-243.12 57.1,-243.52 65.62,-249.81 67.69,-243.12"/>
</g>
<!-- Node4 -->
<g id="node4" class="node">
<title>Node4</title>
<g id="a_node4"><a xlink:href="_window_8hpp.html" target="_top" xlink:title=" ">
<polygon fill="white" stroke="black" points="208,-224.5 208,-243.5 317,-243.5 317,-224.5 208,-224.5"/>
<text text-anchor="middle" x="262.5" y="-231.5" font-family="Helvetica,sans-Serif" font-size="10.00">graphics/Window.hpp</text>
</a>
</g>
</g>
<!-- Node2&#45;&gt;Node4 -->
<g id="edge3" class="edge">
<title>Node2&#45;&gt;Node4</title>
<path fill="none" stroke="midnightblue" d="M213.82,-280.32C222.39,-272.34 235.31,-260.31 245.69,-250.65"/>
<polygon fill="midnightblue" stroke="midnightblue" points="248.08,-253.21 253.01,-243.83 243.31,-248.09 248.08,-253.21"/>
</g>
<!-- Node14 -->
<g id="node14" class="node">
<title>Node14</title>
<g id="a_node14"><a xlink:href="_vector2_d_8hpp.html" target="_top" xlink:title=" ">
<polygon fill="white" stroke="black" points="77.5,-224.5 77.5,-243.5 189.5,-243.5 189.5,-224.5 77.5,-224.5"/>
<text text-anchor="middle" x="133.5" y="-231.5" font-family="Helvetica,sans-Serif" font-size="10.00">Helpers/Vector2D.hpp</text>
</a>
</g>
</g>
<!-- Node2&#45;&gt;Node14 -->
<g id="edge17" class="edge">
<title>Node2&#45;&gt;Node14</title>
<path fill="none" stroke="midnightblue" d="M193.09,-280.32C182.39,-272.18 166.16,-259.84 153.34,-250.09"/>
<polygon fill="midnightblue" stroke="midnightblue" points="155.19,-247.1 145.11,-243.83 150.96,-252.67 155.19,-247.1"/>
</g>
<!-- Node5 -->
<g id="node5" class="node">
<title>Node5</title>
<g id="a_node5"><a xlink:title=" ">
<polygon fill="white" stroke="#bfbfbf" points="303,-168.5 303,-187.5 366,-187.5 366,-168.5 303,-168.5"/>
<text text-anchor="middle" x="334.5" y="-175.5" font-family="Helvetica,sans-Serif" font-size="10.00">glad/glad.h</text>
</a>
</g>
</g>
<!-- Node4&#45;&gt;Node5 -->
<g id="edge4" class="edge">
<title>Node4&#45;&gt;Node5</title>
<path fill="none" stroke="midnightblue" d="M274.07,-224.32C284.92,-216.18 301.38,-203.84 314.38,-194.09"/>
<polygon fill="midnightblue" stroke="midnightblue" points="316.82,-196.63 322.72,-187.83 312.62,-191.03 316.82,-196.63"/>
</g>
<!-- Node6 -->
<g id="node6" class="node">
<title>Node6</title>
<g id="a_node6"><a xlink:title=" ">
<polygon fill="white" stroke="#bfbfbf" points="144,-168.5 144,-187.5 223,-187.5 223,-168.5 144,-168.5"/>
<text text-anchor="middle" x="183.5" y="-175.5" font-family="Helvetica,sans-Serif" font-size="10.00">GLFW/glfw3.h</text>
</a>
</g>
</g>
<!-- Node4&#45;&gt;Node6 -->
<g id="edge5" class="edge">
<title>Node4&#45;&gt;Node6</title>
<path fill="none" stroke="midnightblue" d="M249.81,-224.32C237.6,-215.98 218.92,-203.21 204.5,-193.35"/>
<polygon fill="midnightblue" stroke="midnightblue" points="206.39,-190.41 196.16,-187.65 202.44,-196.19 206.39,-190.41"/>
</g>
<!-- Node7 -->
<g id="node7" class="node">
<title>Node7</title>
<g id="a_node7"><a xlink:title=" ">
<polygon fill="white" stroke="#bfbfbf" points="48,-168.5 48,-187.5 87,-187.5 87,-168.5 48,-168.5"/>
<text text-anchor="middle" x="67.5" y="-175.5" font-family="Helvetica,sans-Serif" font-size="10.00">utility</text>
</a>
</g>
</g>
<!-- Node4&#45;&gt;Node7 -->
<g id="edge6" class="edge">
<title>Node4&#45;&gt;Node7</title>
<path fill="none" stroke="midnightblue" d="M231.6,-224.44C194.75,-214.24 133.59,-197.3 97.25,-187.24"/>
<polygon fill="midnightblue" stroke="midnightblue" points="97.84,-183.77 87.27,-184.47 95.97,-190.52 97.84,-183.77"/>
</g>
<!-- Node8 -->
<g id="node8" class="node">
<title>Node8</title>
<g id="a_node8"><a xlink:title=" ">
<polygon fill="white" stroke="#bfbfbf" points="240.5,-168.5 240.5,-187.5 284.5,-187.5 284.5,-168.5 240.5,-168.5"/>
<text text-anchor="middle" x="262.5" y="-175.5" font-family="Helvetica,sans-Serif" font-size="10.00">vector</text>
</a>
</g>
</g>
<!-- Node4&#45;&gt;Node8 -->
<g id="edge7" class="edge">
<title>Node4&#45;&gt;Node8</title>
<path fill="none" stroke="midnightblue" d="M262.5,-224.08C262.5,-217.01 262.5,-206.86 262.5,-197.99"/>
<polygon fill="midnightblue" stroke="midnightblue" points="266,-197.75 262.5,-187.75 259,-197.75 266,-197.75"/>
</g>
<!-- Node9 -->
<g id="node9" class="node">
<title>Node9</title>
<g id="a_node9"><a xlink:href="_shader_8hpp.html" target="_top" xlink:title=" ">
<polygon fill="white" stroke="black" points="461,-168.5 461,-187.5 566,-187.5 566,-168.5 461,-168.5"/>
<text text-anchor="middle" x="513.5" y="-175.5" font-family="Helvetica,sans-Serif" font-size="10.00">graphics/Shader.hpp</text>
</a>
</g>
</g>
<!-- Node4&#45;&gt;Node9 -->
<g id="edge8" class="edge">
<title>Node4&#45;&gt;Node9</title>
<path fill="none" stroke="midnightblue" d="M302.27,-224.44C346.06,-215.02 416.51,-199.87 463.88,-189.68"/>
<polygon fill="midnightblue" stroke="midnightblue" points="464.87,-193.04 473.91,-187.52 463.4,-186.2 464.87,-193.04"/>
</g>
<!-- Node12 -->
<g id="node12" class="node">
<title>Node12</title>
<g id="a_node12"><a xlink:href="_transform_8hpp.html" target="_top" xlink:title=" ">
<polygon fill="white" stroke="black" points="372,-56.5 372,-75.5 491,-75.5 491,-56.5 372,-56.5"/>
<text text-anchor="middle" x="431.5" y="-63.5" font-family="Helvetica,sans-Serif" font-size="10.00">graphics/Transform.hpp</text>
</a>
</g>
</g>
<!-- Node4&#45;&gt;Node12 -->
<g id="edge16" class="edge">
<title>Node4&#45;&gt;Node12</title>
<path fill="none" stroke="midnightblue" d="M207.95,-225.3C163.68,-216.61 112.01,-199.41 134.5,-168 185.88,-96.26 291.2,-74.87 361.6,-68.83"/>
<polygon fill="midnightblue" stroke="midnightblue" points="362.02,-72.31 371.72,-68.05 361.48,-65.33 362.02,-72.31"/>
</g>
<!-- Node10 -->
<g id="node10" class="node">
<title>Node10</title>
<g id="a_node10"><a xlink:title=" ">
<polygon fill="white" stroke="#bfbfbf" points="559,-112.5 559,-131.5 600,-131.5 600,-112.5 559,-112.5"/>
<text text-anchor="middle" x="579.5" y="-119.5" font-family="Helvetica,sans-Serif" font-size="10.00">string</text>
</a>
</g>
</g>
<!-- Node9&#45;&gt;Node10 -->
<g id="edge9" class="edge">
<title>Node9&#45;&gt;Node10</title>
<path fill="none" stroke="midnightblue" d="M524.1,-168.32C533.96,-160.26 548.85,-148.08 560.72,-138.37"/>
<polygon fill="midnightblue" stroke="midnightblue" points="563.18,-140.88 568.7,-131.83 558.75,-135.46 563.18,-140.88"/>
</g>
<!-- Node11 -->
<g id="node11" class="node">
<title>Node11</title>
<g id="a_node11"><a xlink:href="_g_shape_8hpp.html" target="_top" xlink:title=" ">
<polygon fill="white" stroke="black" points="376.5,-112.5 376.5,-131.5 486.5,-131.5 486.5,-112.5 376.5,-112.5"/>
<text text-anchor="middle" x="431.5" y="-119.5" font-family="Helvetica,sans-Serif" font-size="10.00">graphics/GShape.hpp</text>
</a>
</g>
</g>
<!-- Node9&#45;&gt;Node11 -->
<g id="edge10" class="edge">
<title>Node9&#45;&gt;Node11</title>
<path fill="none" stroke="midnightblue" d="M495.21,-168.32C480.95,-160.11 461.64,-147.6 447.89,-137.81"/>
<polygon fill="midnightblue" stroke="midnightblue" points="449.9,-134.94 439.77,-131.83 445.75,-140.58 449.9,-134.94"/>
</g>
<!-- Node9&#45;&gt;Node12 -->
<g id="edge15" class="edge">
<title>Node9&#45;&gt;Node12</title>
<path fill="none" stroke="midnightblue" d="M512.94,-168.21C511.7,-154.92 507.78,-129.42 495.5,-112 486.24,-98.87 471.88,-88.26 459.1,-80.66"/>
<polygon fill="midnightblue" stroke="midnightblue" points="460.6,-77.49 450.17,-75.65 457.18,-83.59 460.6,-77.49"/>
</g>
<!-- Node11&#45;&gt;Node4 -->
<g id="edge11" class="edge">
<title>Node11&#45;&gt;Node4</title>
<path fill="none" stroke="midnightblue" d="M426,-131.76C416.98,-145.47 397.82,-172.09 375.5,-188 354.31,-203.11 327.32,-214.1 305.04,-221.44"/>
<polygon fill="midnightblue" stroke="midnightblue" points="303.97,-218.1 295.49,-224.46 306.08,-224.78 303.97,-218.1"/>
</g>
<!-- Node11&#45;&gt;Node9 -->
<g id="edge12" class="edge">
<title>Node11&#45;&gt;Node9</title>
<path fill="none" stroke="midnightblue" d="M449.75,-131.65C464.09,-139.91 483.55,-152.52 497.32,-162.34"/>
<polygon fill="midnightblue" stroke="midnightblue" points="495.31,-165.21 505.44,-168.32 499.47,-159.57 495.31,-165.21"/>
</g>
<!-- Node11&#45;&gt;Node12 -->
<g id="edge13" class="edge">
<title>Node11&#45;&gt;Node12</title>
<path fill="none" stroke="midnightblue" d="M431.5,-112.08C431.5,-105.01 431.5,-94.86 431.5,-85.99"/>
<polygon fill="midnightblue" stroke="midnightblue" points="435,-85.75 431.5,-75.75 428,-85.75 435,-85.75"/>
</g>
<!-- Node13 -->
<g id="node13" class="node">
<title>Node13</title>
<g id="a_node13"><a xlink:title=" ">
<polygon fill="white" stroke="#bfbfbf" points="379.5,-0.5 379.5,-19.5 483.5,-19.5 483.5,-0.5 379.5,-0.5"/>
<text text-anchor="middle" x="431.5" y="-7.5" font-family="Helvetica,sans-Serif" font-size="10.00">glm/gtc/type_ptr.hpp</text>
</a>
</g>
</g>
<!-- Node12&#45;&gt;Node13 -->
<g id="edge14" class="edge">
<title>Node12&#45;&gt;Node13</title>
<path fill="none" stroke="midnightblue" d="M431.5,-56.08C431.5,-49.01 431.5,-38.86 431.5,-29.99"/>
<polygon fill="midnightblue" stroke="midnightblue" points="435,-29.75 431.5,-19.75 428,-29.75 435,-29.75"/>
</g>
<!-- Node14&#45;&gt;Node7 -->
<g id="edge18" class="edge">
<title>Node14&#45;&gt;Node7</title>
<path fill="none" stroke="midnightblue" d="M122.9,-224.32C113.04,-216.26 98.15,-204.08 86.28,-194.37"/>
<polygon fill="midnightblue" stroke="midnightblue" points="88.25,-191.46 78.3,-187.83 83.82,-196.88 88.25,-191.46"/>
</g>
<!-- Node15&#45;&gt;Node2 -->
<g id="edge25" class="edge">
<title>Node15&#45;&gt;Node2</title>
<path fill="none" stroke="midnightblue" d="M350.93,-336.44C321.4,-327.28 274.38,-312.69 241.62,-302.52"/>
<polygon fill="midnightblue" stroke="midnightblue" points="242.53,-299.14 231.94,-299.52 240.46,-305.82 242.53,-299.14"/>
</g>
<!-- Node15&#45;&gt;Node9 -->
<g id="edge23" class="edge">
<title>Node15&#45;&gt;Node9</title>
<path fill="none" stroke="midnightblue" d="M396.11,-336.42C410.94,-328.53 431.99,-315.7 446.5,-300 475.45,-268.67 496.48,-222.57 506.64,-197.27"/>
<polygon fill="midnightblue" stroke="midnightblue" points="509.96,-198.4 510.33,-187.81 503.44,-195.86 509.96,-198.4"/>
</g>
<!-- Node15&#45;&gt;Node10 -->
<g id="edge21" class="edge">
<title>Node15&#45;&gt;Node10</title>
<path fill="none" stroke="midnightblue" d="M399.54,-336.39C442.85,-317.32 540.81,-266.87 575.5,-188 581.9,-173.45 582.48,-155.27 581.7,-141.84"/>
<polygon fill="midnightblue" stroke="midnightblue" points="585.18,-141.51 580.82,-131.86 578.21,-142.13 585.18,-141.51"/>
</g>
<!-- Node15&#45;&gt;Node11 -->
<g id="edge24" class="edge">
<title>Node15&#45;&gt;Node11</title>
<path fill="none" stroke="midnightblue" d="M387.72,-336.33C396.02,-327.91 407.76,-314.33 413.5,-300 435.29,-245.63 434.68,-174.68 432.89,-141.55"/>
<polygon fill="midnightblue" stroke="midnightblue" points="436.38,-141.26 432.25,-131.5 429.39,-141.71 436.38,-141.26"/>
</g>
<!-- Node16 -->
<g id="node16" class="node">
<title>Node16</title>
<g id="a_node16"><a xlink:title=" ">
<polygon fill="white" stroke="#bfbfbf" points="300,-280.5 300,-299.5 335,-299.5 335,-280.5 300,-280.5"/>
<text text-anchor="middle" x="317.5" y="-287.5" font-family="Helvetica,sans-Serif" font-size="10.00">map</text>
</a>
</g>
</g>
<!-- Node15&#45;&gt;Node16 -->
<g id="edge20" class="edge">
<title>Node15&#45;&gt;Node16</title>
<path fill="none" stroke="midnightblue" d="M368.7,-336.32C359.68,-328.34 346.09,-316.31 335.18,-306.65"/>
<polygon fill="midnightblue" stroke="midnightblue" points="337.29,-303.84 327.48,-299.83 332.65,-309.08 337.29,-303.84"/>
</g>
<!-- Node17 -->
<g id="node17" class="node">
<title>Node17</title>
<g id="a_node17"><a xlink:title=" ">
<polygon fill="white" stroke="#bfbfbf" points="353,-280.5 353,-299.5 404,-299.5 404,-280.5 353,-280.5"/>
<text text-anchor="middle" x="378.5" y="-287.5" font-family="Helvetica,sans-Serif" font-size="10.00">memory</text>
</a>
</g>
</g>
<!-- Node15&#45;&gt;Node17 -->
<g id="edge22" class="edge">
<title>Node15&#45;&gt;Node17</title>
<path fill="none" stroke="midnightblue" d="M378.5,-336.08C378.5,-329.01 378.5,-318.86 378.5,-309.99"/>
<polygon fill="midnightblue" stroke="midnightblue" points="382,-309.75 378.5,-299.75 375,-309.75 382,-309.75"/>
</g>
</g>
</svg>
