<?xml version="1.0" encoding="UTF-8" standalone="no"?>
<!DOCTYPE svg PUBLIC "-//W3C//DTD SVG 1.1//EN"
 "http://www.w3.org/Graphics/SVG/1.1/DTD/svg11.dtd">
<!-- Generated by graphviz version 2.47.1 (20210421.1823)
 -->
<!-- Title: src/EventHandler/EventHandler.cpp Pages: 1 -->
<svg width="749pt" height="420pt"
 viewBox="0.00 0.00 748.50 420.00" xmlns="http://www.w3.org/2000/svg" xmlns:xlink="http://www.w3.org/1999/xlink">
<g id="graph0" class="graph" transform="scale(1 1) rotate(0) translate(4 416)">
<title>src/EventHandler/EventHandler.cpp</title>
<polygon fill="white" stroke="transparent" points="-4,4 -4,-416 744.5,-416 744.5,4 -4,4"/>
<!-- Node1 -->
<g id="node1" class="node">
<title>Node1</title>
<g id="a_node1"><a xlink:title=" ">
<polygon fill="#bfbfbf" stroke="black" points="493,-392.5 493,-411.5 664,-411.5 664,-392.5 493,-392.5"/>
<text text-anchor="middle" x="578.5" y="-399.5" font-family="Helvetica,sans-Serif" font-size="10.00">src/EventHandler/EventHandler.cpp</text>
</a>
</g>
</g>
<!-- Node2 -->
<g id="node2" class="node">
<title>Node2</title>
<g id="a_node2"><a xlink:href="_event_handler_8hpp.html" target="_top" xlink:title=" ">
<polygon fill="white" stroke="black" points="276,-280.5 276,-299.5 431,-299.5 431,-280.5 276,-280.5"/>
<text text-anchor="middle" x="353.5" y="-287.5" font-family="Helvetica,sans-Serif" font-size="10.00">EventHandler/EventHandler.hpp</text>
</a>
</g>
</g>
<!-- Node1&#45;&gt;Node2 -->
<g id="edge1" class="edge">
<title>Node1&#45;&gt;Node2</title>
<path fill="none" stroke="midnightblue" d="M534.9,-392.45C504.66,-385.4 464.13,-373.65 431.5,-356 407.43,-342.98 383.87,-321.85 369.05,-307.23"/>
<polygon fill="midnightblue" stroke="midnightblue" points="371.29,-304.52 361.77,-299.87 366.32,-309.44 371.29,-304.52"/>
</g>
<!-- Node16 -->
<g id="node16" class="node">
<title>Node16</title>
<g id="a_node16"><a xlink:href="_resource_manager_8hpp.html" target="_top" xlink:title=" ">
<polygon fill="white" stroke="black" points="441,-336.5 441,-355.5 594,-355.5 594,-336.5 441,-336.5"/>
<text text-anchor="middle" x="517.5" y="-343.5" font-family="Helvetica,sans-Serif" font-size="10.00">graphics/ResourceManager.hpp</text>
</a>
</g>
</g>
<!-- Node1&#45;&gt;Node16 -->
<g id="edge21" class="edge">
<title>Node1&#45;&gt;Node16</title>
<path fill="none" stroke="midnightblue" d="M568.7,-392.32C559.68,-384.34 546.09,-372.31 535.18,-362.65"/>
<polygon fill="midnightblue" stroke="midnightblue" points="537.29,-359.84 527.48,-355.83 532.65,-365.08 537.29,-359.84"/>
</g>
<!-- Node19 -->
<g id="node19" class="node">
<title>Node19</title>
<g id="a_node19"><a xlink:title=" ">
<polygon fill="white" stroke="#bfbfbf" points="612.5,-336.5 612.5,-355.5 668.5,-355.5 668.5,-336.5 612.5,-336.5"/>
<text text-anchor="middle" x="640.5" y="-343.5" font-family="Helvetica,sans-Serif" font-size="10.00">algorithm</text>
</a>
</g>
</g>
<!-- Node1&#45;&gt;Node19 -->
<g id="edge28" class="edge">
<title>Node1&#45;&gt;Node19</title>
<path fill="none" stroke="midnightblue" d="M588.46,-392.32C597.63,-384.34 611.44,-372.31 622.53,-362.65"/>
<polygon fill="midnightblue" stroke="midnightblue" points="625.12,-365.04 630.36,-355.83 620.52,-359.76 625.12,-365.04"/>
</g>
<!-- Node20 -->
<g id="node20" class="node">
<title>Node20</title>
<g id="a_node20"><a xlink:title=" ">
<polygon fill="white" stroke="#bfbfbf" points="686.5,-336.5 686.5,-355.5 740.5,-355.5 740.5,-336.5 686.5,-336.5"/>
<text text-anchor="middle" x="713.5" y="-343.5" font-family="Helvetica,sans-Serif" font-size="10.00">iostream</text>
</a>
</g>
</g>
<!-- Node1&#45;&gt;Node20 -->
<g id="edge29" class="edge">
<title>Node1&#45;&gt;Node20</title>
<path fill="none" stroke="midnightblue" d="M599.89,-392.44C622.21,-383.52 657.4,-369.44 682.71,-359.32"/>
<polygon fill="midnightblue" stroke="midnightblue" points="684.22,-362.48 692.21,-355.52 681.62,-355.98 684.22,-362.48"/>
</g>
<!-- Node3 -->
<g id="node3" class="node">
<title>Node3</title>
<g id="a_node3"><a xlink:title=" ">
<polygon fill="white" stroke="#bfbfbf" points="0,-224.5 0,-243.5 59,-243.5 59,-224.5 0,-224.5"/>
<text text-anchor="middle" x="29.5" y="-231.5" font-family="Helvetica,sans-Serif" font-size="10.00">functional</text>
</a>
</g>
</g>
<!-- Node2&#45;&gt;Node3 -->
<g id="edge2" class="edge">
<title>Node2&#45;&gt;Node3</title>
<path fill="none" stroke="midnightblue" d="M296,-280.49C239.31,-271.92 150.27,-258.01 73.5,-244 72.06,-243.74 70.6,-243.47 69.12,-243.19"/>
<polygon fill="midnightblue" stroke="midnightblue" points="69.77,-239.75 59.29,-241.27 68.44,-246.62 69.77,-239.75"/>
</g>
<!-- Node4 -->
<g id="node4" class="node">
<title>Node4</title>
<g id="a_node4"><a xlink:href="_window_8hpp.html" target="_top" xlink:title=" ">
<polygon fill="white" stroke="black" points="299,-224.5 299,-243.5 408,-243.5 408,-224.5 299,-224.5"/>
<text text-anchor="middle" x="353.5" y="-231.5" font-family="Helvetica,sans-Serif" font-size="10.00">graphics/Window.hpp</text>
</a>
</g>
</g>
<!-- Node2&#45;&gt;Node4 -->
<g id="edge3" class="edge">
<title>Node2&#45;&gt;Node4</title>
<path fill="none" stroke="midnightblue" d="M353.5,-280.08C353.5,-273.01 353.5,-262.86 353.5,-253.99"/>
<polygon fill="midnightblue" stroke="midnightblue" points="357,-253.75 353.5,-243.75 350,-253.75 357,-253.75"/>
</g>
<!-- Node14 -->
<g id="node14" class="node">
<title>Node14</title>
<g id="a_node14"><a xlink:href="_vector2_d_8hpp.html" target="_top" xlink:title=" ">
<polygon fill="white" stroke="black" points="153.5,-56.5 153.5,-75.5 265.5,-75.5 265.5,-56.5 153.5,-56.5"/>
<text text-anchor="middle" x="209.5" y="-63.5" font-family="Helvetica,sans-Serif" font-size="10.00">Helpers/Vector2D.hpp</text>
</a>
</g>
</g>
<!-- Node2&#45;&gt;Node14 -->
<g id="edge20" class="edge">
<title>Node2&#45;&gt;Node14</title>
<path fill="none" stroke="midnightblue" d="M303.23,-280.41C253.22,-268.9 179.09,-243.13 144.5,-188 121.42,-151.2 164.09,-105.51 190.63,-82.21"/>
<polygon fill="midnightblue" stroke="midnightblue" points="192.9,-84.87 198.26,-75.73 188.37,-79.54 192.9,-84.87"/>
</g>
<!-- Node5 -->
<g id="node5" class="node">
<title>Node5</title>
<g id="a_node5"><a xlink:title=" ">
<polygon fill="white" stroke="#bfbfbf" points="154,-168.5 154,-187.5 217,-187.5 217,-168.5 154,-168.5"/>
<text text-anchor="middle" x="185.5" y="-175.5" font-family="Helvetica,sans-Serif" font-size="10.00">glad/glad.h</text>
</a>
</g>
</g>
<!-- Node4&#45;&gt;Node5 -->
<g id="edge4" class="edge">
<title>Node4&#45;&gt;Node5</title>
<path fill="none" stroke="midnightblue" d="M326.88,-224.44C298.49,-215.32 253.36,-200.81 221.75,-190.65"/>
<polygon fill="midnightblue" stroke="midnightblue" points="222.59,-187.24 212,-187.52 220.44,-193.91 222.59,-187.24"/>
</g>
<!-- Node6 -->
<g id="node6" class="node">
<title>Node6</title>
<g id="a_node6"><a xlink:title=" ">
<polygon fill="white" stroke="#bfbfbf" points="235,-168.5 235,-187.5 314,-187.5 314,-168.5 235,-168.5"/>
<text text-anchor="middle" x="274.5" y="-175.5" font-family="Helvetica,sans-Serif" font-size="10.00">GLFW/glfw3.h</text>
</a>
</g>
</g>
<!-- Node4&#45;&gt;Node6 -->
<g id="edge5" class="edge">
<title>Node4&#45;&gt;Node6</title>
<path fill="none" stroke="midnightblue" d="M340.81,-224.32C328.6,-215.98 309.92,-203.21 295.5,-193.35"/>
<polygon fill="midnightblue" stroke="midnightblue" points="297.39,-190.41 287.16,-187.65 293.44,-196.19 297.39,-190.41"/>
</g>
<!-- Node7 -->
<g id="node7" class="node">
<title>Node7</title>
<g id="a_node7"><a xlink:title=" ">
<polygon fill="white" stroke="#bfbfbf" points="118,-0.5 118,-19.5 157,-19.5 157,-0.5 118,-0.5"/>
<text text-anchor="middle" x="137.5" y="-7.5" font-family="Helvetica,sans-Serif" font-size="10.00">utility</text>
</a>
</g>
</g>
<!-- Node4&#45;&gt;Node7 -->
<g id="edge6" class="edge">
<title>Node4&#45;&gt;Node7</title>
<path fill="none" stroke="midnightblue" d="M298.75,-228.69C243.62,-223.1 164,-211.19 144.5,-188 106.28,-142.55 121.74,-64.96 131.64,-29.57"/>
<polygon fill="midnightblue" stroke="midnightblue" points="135.09,-30.24 134.58,-19.66 128.38,-28.25 135.09,-30.24"/>
</g>
<!-- Node8 -->
<g id="node8" class="node">
<title>Node8</title>
<g id="a_node8"><a xlink:title=" ">
<polygon fill="white" stroke="#bfbfbf" points="331.5,-168.5 331.5,-187.5 375.5,-187.5 375.5,-168.5 331.5,-168.5"/>
<text text-anchor="middle" x="353.5" y="-175.5" font-family="Helvetica,sans-Serif" font-size="10.00">vector</text>
</a>
</g>
</g>
<!-- Node4&#45;&gt;Node8 -->
<g id="edge7" class="edge">
<title>Node4&#45;&gt;Node8</title>
<path fill="none" stroke="midnightblue" d="M353.5,-224.08C353.5,-217.01 353.5,-206.86 353.5,-197.99"/>
<polygon fill="midnightblue" stroke="midnightblue" points="357,-197.75 353.5,-187.75 350,-197.75 357,-197.75"/>
</g>
<!-- Node9 -->
<g id="node9" class="node">
<title>Node9</title>
<g id="a_node9"><a xlink:href="_shader_8hpp.html" target="_top" xlink:title=" ">
<polygon fill="white" stroke="black" points="508,-168.5 508,-187.5 613,-187.5 613,-168.5 508,-168.5"/>
<text text-anchor="middle" x="560.5" y="-175.5" font-family="Helvetica,sans-Serif" font-size="10.00">graphics/Shader.hpp</text>
</a>
</g>
</g>
<!-- Node4&#45;&gt;Node9 -->
<g id="edge8" class="edge">
<title>Node4&#45;&gt;Node9</title>
<path fill="none" stroke="midnightblue" d="M386.3,-224.44C421.88,-215.16 478.81,-200.31 517.85,-190.13"/>
<polygon fill="midnightblue" stroke="midnightblue" points="519.06,-193.43 527.85,-187.52 517.29,-186.65 519.06,-193.43"/>
</g>
<!-- Node12 -->
<g id="node12" class="node">
<title>Node12</title>
<g id="a_node12"><a xlink:href="_transform_8hpp.html" target="_top" xlink:title=" ">
<polygon fill="white" stroke="black" points="427,-56.5 427,-75.5 546,-75.5 546,-56.5 427,-56.5"/>
<text text-anchor="middle" x="486.5" y="-63.5" font-family="Helvetica,sans-Serif" font-size="10.00">graphics/Transform.hpp</text>
</a>
</g>
</g>
<!-- Node4&#45;&gt;Node12 -->
<g id="edge19" class="edge">
<title>Node4&#45;&gt;Node12</title>
<path fill="none" stroke="midnightblue" d="M360.05,-224.28C366.6,-215.38 376.78,-201.07 384.5,-188 403.7,-155.48 397.86,-140.62 422.5,-112 433.27,-99.49 448.23,-88.72 460.98,-80.85"/>
<polygon fill="midnightblue" stroke="midnightblue" points="462.95,-83.75 469.79,-75.66 459.4,-77.73 462.95,-83.75"/>
</g>
<!-- Node10 -->
<g id="node10" class="node">
<title>Node10</title>
<g id="a_node10"><a xlink:title=" ">
<polygon fill="white" stroke="#bfbfbf" points="628,-112.5 628,-131.5 669,-131.5 669,-112.5 628,-112.5"/>
<text text-anchor="middle" x="648.5" y="-119.5" font-family="Helvetica,sans-Serif" font-size="10.00">string</text>
</a>
</g>
</g>
<!-- Node9&#45;&gt;Node10 -->
<g id="edge9" class="edge">
<title>Node9&#45;&gt;Node10</title>
<path fill="none" stroke="midnightblue" d="M574.64,-168.32C588.37,-159.9 609.44,-146.97 625.56,-137.07"/>
<polygon fill="midnightblue" stroke="midnightblue" points="627.7,-139.87 634.4,-131.65 624.04,-133.9 627.7,-139.87"/>
</g>
<!-- Node11 -->
<g id="node11" class="node">
<title>Node11</title>
<g id="a_node11"><a xlink:href="_g_shape_8hpp.html" target="_top" xlink:title=" ">
<polygon fill="white" stroke="black" points="431.5,-112.5 431.5,-131.5 541.5,-131.5 541.5,-112.5 431.5,-112.5"/>
<text text-anchor="middle" x="486.5" y="-119.5" font-family="Helvetica,sans-Serif" font-size="10.00">graphics/GShape.hpp</text>
</a>
</g>
</g>
<!-- Node9&#45;&gt;Node11 -->
<g id="edge10" class="edge">
<title>Node9&#45;&gt;Node11</title>
<path fill="none" stroke="midnightblue" d="M543.5,-168.32C530.7,-160.26 513.66,-148.08 501.4,-138.37"/>
<polygon fill="midnightblue" stroke="midnightblue" points="503.4,-135.48 493.46,-131.83 498.96,-140.89 503.4,-135.48"/>
</g>
<!-- Node9&#45;&gt;Node12 -->
<g id="edge18" class="edge">
<title>Node9&#45;&gt;Node12</title>
<path fill="none" stroke="midnightblue" d="M561.22,-168.27C561.89,-155.06 561.46,-129.66 550.5,-112 542.14,-98.53 528.11,-87.99 515.31,-80.51"/>
<polygon fill="midnightblue" stroke="midnightblue" points="516.76,-77.32 506.31,-75.6 513.41,-83.46 516.76,-77.32"/>
</g>
<!-- Node11&#45;&gt;Node4 -->
<g id="edge11" class="edge">
<title>Node11&#45;&gt;Node4</title>
<path fill="none" stroke="midnightblue" d="M477.94,-131.83C465.24,-144.75 440.46,-169.28 417.5,-188 404.03,-198.98 388.04,-210.23 375.41,-218.73"/>
<polygon fill="midnightblue" stroke="midnightblue" points="373.28,-215.94 366.89,-224.39 377.16,-221.77 373.28,-215.94"/>
</g>
<!-- Node11&#45;&gt;Node9 -->
<g id="edge12" class="edge">
<title>Node11&#45;&gt;Node9</title>
<path fill="none" stroke="midnightblue" d="M503.47,-131.65C516.33,-139.76 533.51,-152.04 545.78,-161.78"/>
<polygon fill="midnightblue" stroke="midnightblue" points="543.78,-164.66 553.73,-168.32 548.23,-159.26 543.78,-164.66"/>
</g>
<!-- Node11&#45;&gt;Node12 -->
<g id="edge13" class="edge">
<title>Node11&#45;&gt;Node12</title>
<path fill="none" stroke="midnightblue" d="M486.5,-112.08C486.5,-105.01 486.5,-94.86 486.5,-85.99"/>
<polygon fill="midnightblue" stroke="midnightblue" points="490,-85.75 486.5,-75.75 483,-85.75 490,-85.75"/>
</g>
<!-- Node11&#45;&gt;Node14 -->
<g id="edge15" class="edge">
<title>Node11&#45;&gt;Node14</title>
<path fill="none" stroke="midnightblue" d="M442.61,-112.44C393.98,-102.96 315.55,-87.67 263.28,-77.48"/>
<polygon fill="midnightblue" stroke="midnightblue" points="263.67,-73.99 253.19,-75.52 262.33,-80.87 263.67,-73.99"/>
</g>
<!-- Node13 -->
<g id="node13" class="node">
<title>Node13</title>
<g id="a_node13"><a xlink:title=" ">
<polygon fill="white" stroke="#bfbfbf" points="434.5,-0.5 434.5,-19.5 538.5,-19.5 538.5,-0.5 434.5,-0.5"/>
<text text-anchor="middle" x="486.5" y="-7.5" font-family="Helvetica,sans-Serif" font-size="10.00">glm/gtc/type_ptr.hpp</text>
</a>
</g>
</g>
<!-- Node12&#45;&gt;Node13 -->
<g id="edge14" class="edge">
<title>Node12&#45;&gt;Node13</title>
<path fill="none" stroke="midnightblue" d="M486.5,-56.08C486.5,-49.01 486.5,-38.86 486.5,-29.99"/>
<polygon fill="midnightblue" stroke="midnightblue" points="490,-29.75 486.5,-19.75 483,-29.75 490,-29.75"/>
</g>
<!-- Node14&#45;&gt;Node7 -->
<g id="edge16" class="edge">
<title>Node14&#45;&gt;Node7</title>
<path fill="none" stroke="midnightblue" d="M197.93,-56.32C187.08,-48.18 170.62,-35.84 157.62,-26.09"/>
<polygon fill="midnightblue" stroke="midnightblue" points="159.38,-23.03 149.28,-19.83 155.18,-28.63 159.38,-23.03"/>
</g>
<!-- Node15 -->
<g id="node15" class="node">
<title>Node15</title>
<g id="a_node15"><a xlink:title=" ">
<polygon fill="white" stroke="#bfbfbf" points="187.5,-0.5 187.5,-19.5 231.5,-19.5 231.5,-0.5 187.5,-0.5"/>
<text text-anchor="middle" x="209.5" y="-7.5" font-family="Helvetica,sans-Serif" font-size="10.00">cmath</text>
</a>
</g>
</g>
<!-- Node14&#45;&gt;Node15 -->
<g id="edge17" class="edge">
<title>Node14&#45;&gt;Node15</title>
<path fill="none" stroke="midnightblue" d="M209.5,-56.08C209.5,-49.01 209.5,-38.86 209.5,-29.99"/>
<polygon fill="midnightblue" stroke="midnightblue" points="213,-29.75 209.5,-19.75 206,-29.75 213,-29.75"/>
</g>
<!-- Node16&#45;&gt;Node2 -->
<g id="edge27" class="edge">
<title>Node16&#45;&gt;Node2</title>
<path fill="none" stroke="midnightblue" d="M491.51,-336.44C463.8,-327.32 419.75,-312.81 388.88,-302.65"/>
<polygon fill="midnightblue" stroke="midnightblue" points="389.96,-299.32 379.36,-299.52 387.77,-305.97 389.96,-299.32"/>
</g>
<!-- Node16&#45;&gt;Node9 -->
<g id="edge25" class="edge">
<title>Node16&#45;&gt;Node9</title>
<path fill="none" stroke="midnightblue" d="M519.81,-336.08C526.58,-309.95 546.46,-233.21 555.69,-197.58"/>
<polygon fill="midnightblue" stroke="midnightblue" points="559.16,-198.13 558.28,-187.57 552.38,-196.37 559.16,-198.13"/>
</g>
<!-- Node16&#45;&gt;Node10 -->
<g id="edge23" class="edge">
<title>Node16&#45;&gt;Node10</title>
<path fill="none" stroke="midnightblue" d="M594.03,-338.57C618.96,-332.41 644.15,-320.97 659.5,-300 694.61,-252.05 670.52,-175.77 656.54,-141.15"/>
<polygon fill="midnightblue" stroke="midnightblue" points="659.72,-139.68 652.61,-131.83 653.27,-142.4 659.72,-139.68"/>
</g>
<!-- Node16&#45;&gt;Node11 -->
<g id="edge26" class="edge">
<title>Node16&#45;&gt;Node11</title>
<path fill="none" stroke="midnightblue" d="M516.28,-336.3C511.72,-303.63 495.56,-187.87 489.15,-141.96"/>
<polygon fill="midnightblue" stroke="midnightblue" points="492.59,-141.3 487.74,-131.88 485.66,-142.27 492.59,-141.3"/>
</g>
<!-- Node17 -->
<g id="node17" class="node">
<title>Node17</title>
<g id="a_node17"><a xlink:title=" ">
<polygon fill="white" stroke="#bfbfbf" points="546,-280.5 546,-299.5 581,-299.5 581,-280.5 546,-280.5"/>
<text text-anchor="middle" x="563.5" y="-287.5" font-family="Helvetica,sans-Serif" font-size="10.00">map</text>
</a>
</g>
</g>
<!-- Node16&#45;&gt;Node17 -->
<g id="edge22" class="edge">
<title>Node16&#45;&gt;Node17</title>
<path fill="none" stroke="midnightblue" d="M525.1,-336.08C531.73,-328.3 541.52,-316.8 549.56,-307.37"/>
<polygon fill="midnightblue" stroke="midnightblue" points="552.23,-309.63 556.05,-299.75 546.9,-305.09 552.23,-309.63"/>
</g>
<!-- Node18 -->
<g id="node18" class="node">
<title>Node18</title>
<g id="a_node18"><a xlink:title=" ">
<polygon fill="white" stroke="#bfbfbf" points="599,-280.5 599,-299.5 650,-299.5 650,-280.5 599,-280.5"/>
<text text-anchor="middle" x="624.5" y="-287.5" font-family="Helvetica,sans-Serif" font-size="10.00">memory</text>
</a>
</g>
</g>
<!-- Node16&#45;&gt;Node18 -->
<g id="edge24" class="edge">
<title>Node16&#45;&gt;Node18</title>
<path fill="none" stroke="midnightblue" d="M534.69,-336.32C551.85,-327.66 578.45,-314.24 598.25,-304.25"/>
<polygon fill="midnightblue" stroke="midnightblue" points="600,-307.28 607.35,-299.65 596.85,-301.04 600,-307.28"/>
</g>
</g>
</svg>
