<?xml version="1.0" encoding="UTF-8" standalone="no"?>
<!DOCTYPE svg PUBLIC "-//W3C//DTD SVG 1.1//EN"
 "http://www.w3.org/Graphics/SVG/1.1/DTD/svg11.dtd">
<!-- Generated by graphviz version 2.47.0 (20210407.0042)
 -->
<!-- Title: include/EventHandler/EventHandler.hpp Pages: 1 -->
<svg width="572pt" height="319pt"
 viewBox="0.00 0.00 572.24 319.00" xmlns="http://www.w3.org/2000/svg" xmlns:xlink="http://www.w3.org/1999/xlink">
<g id="graph0" class="graph" transform="scale(1 1) rotate(0) translate(4 315)">
<title>include/EventHandler/EventHandler.hpp</title>
<polygon fill="white" stroke="transparent" points="-4,4 -4,-315 568.24,-315 568.24,4 -4,4"/>
<!-- Node1 -->
<g id="node1" class="node">
<title>Node1</title>
<g id="a_node1"><a xlink:title=" ">
<polygon fill="#bfbfbf" stroke="black" points="79,-280.5 79,-310.5 188,-310.5 188,-280.5 79,-280.5"/>
<text text-anchor="start" x="87" y="-298.5" font-family="Helvetica,sans-Serif" font-size="10.00">include/EventHandler</text>
<text text-anchor="middle" x="133.5" y="-287.5" font-family="Helvetica,sans-Serif" font-size="10.00">/EventHandler.hpp</text>
</a>
</g>
</g>
<!-- Node2 -->
<g id="node2" class="node">
<title>Node2</title>
<g id="a_node2"><a xlink:title=" ">
<polygon fill="white" stroke="#bfbfbf" points="0,-224.5 0,-243.5 59,-243.5 59,-224.5 0,-224.5"/>
<text text-anchor="middle" x="29.5" y="-231.5" font-family="Helvetica,sans-Serif" font-size="10.00">functional</text>
</a>
</g>
</g>
<!-- Node1&#45;&gt;Node2 -->
<g id="edge1" class="edge">
<title>Node1&#45;&gt;Node2</title>
<path fill="none" stroke="midnightblue" d="M108.85,-280.4C92.18,-270.86 70.27,-258.32 53.69,-248.84"/>
<polygon fill="midnightblue" stroke="midnightblue" points="55.05,-245.59 44.63,-243.66 51.57,-251.66 55.05,-245.59"/>
</g>
<!-- Node3 -->
<g id="node3" class="node">
<title>Node3</title>
<g id="a_node3"><a xlink:href="_window_8hpp.html" target="_top" xlink:title=" ">
<polygon fill="white" stroke="black" points="262,-224.5 262,-243.5 371,-243.5 371,-224.5 262,-224.5"/>
<text text-anchor="middle" x="316.5" y="-231.5" font-family="Helvetica,sans-Serif" font-size="10.00">graphics/Window.hpp</text>
</a>
</g>
</g>
<!-- Node1&#45;&gt;Node3 -->
<g id="edge2" class="edge">
<title>Node1&#45;&gt;Node3</title>
<path fill="none" stroke="midnightblue" d="M176.87,-280.4C208.49,-270.12 250.83,-256.35 280.57,-246.68"/>
<polygon fill="midnightblue" stroke="midnightblue" points="281.71,-249.99 290.14,-243.57 279.55,-243.33 281.71,-249.99"/>
</g>
<!-- Node13 -->
<g id="node13" class="node">
<title>Node13</title>
<g id="a_node13"><a xlink:href="_vector2_d_8hpp.html" target="_top" xlink:title=" ">
<polygon fill="white" stroke="black" points="77.5,-224.5 77.5,-243.5 189.5,-243.5 189.5,-224.5 77.5,-224.5"/>
<text text-anchor="middle" x="133.5" y="-231.5" font-family="Helvetica,sans-Serif" font-size="10.00">Helpers/Vector2D.hpp</text>
</a>
</g>
</g>
<!-- Node1&#45;&gt;Node13 -->
<g id="edge16" class="edge">
<title>Node1&#45;&gt;Node13</title>
<path fill="none" stroke="midnightblue" d="M133.5,-280.4C133.5,-272.47 133.5,-262.46 133.5,-253.86"/>
<polygon fill="midnightblue" stroke="midnightblue" points="137,-253.66 133.5,-243.66 130,-253.66 137,-253.66"/>
</g>
<!-- Node4 -->
<g id="node4" class="node">
<title>Node4</title>
<g id="a_node4"><a xlink:title=" ">
<polygon fill="white" stroke="#bfbfbf" points="144,-168.5 144,-187.5 207,-187.5 207,-168.5 144,-168.5"/>
<text text-anchor="middle" x="175.5" y="-175.5" font-family="Helvetica,sans-Serif" font-size="10.00">glad/glad.h</text>
</a>
</g>
</g>
<!-- Node3&#45;&gt;Node4 -->
<g id="edge3" class="edge">
<title>Node3&#45;&gt;Node4</title>
<path fill="none" stroke="midnightblue" d="M294.16,-224.44C270.75,-215.48 233.76,-201.31 207.31,-191.18"/>
<polygon fill="midnightblue" stroke="midnightblue" points="208.33,-187.82 197.74,-187.52 205.82,-194.36 208.33,-187.82"/>
</g>
<!-- Node5 -->
<g id="node5" class="node">
<title>Node5</title>
<g id="a_node5"><a xlink:title=" ">
<polygon fill="white" stroke="#bfbfbf" points="225,-168.5 225,-187.5 304,-187.5 304,-168.5 225,-168.5"/>
<text text-anchor="middle" x="264.5" y="-175.5" font-family="Helvetica,sans-Serif" font-size="10.00">GLFW/glfw3.h</text>
</a>
</g>
</g>
<!-- Node3&#45;&gt;Node5 -->
<g id="edge4" class="edge">
<title>Node3&#45;&gt;Node5</title>
<path fill="none" stroke="midnightblue" d="M307.91,-224.08C300.34,-216.22 289.12,-204.57 279.99,-195.08"/>
<polygon fill="midnightblue" stroke="midnightblue" points="282.38,-192.53 272.93,-187.75 277.34,-197.38 282.38,-192.53"/>
</g>
<!-- Node6 -->
<g id="node6" class="node">
<title>Node6</title>
<g id="a_node6"><a xlink:title=" ">
<polygon fill="white" stroke="#bfbfbf" points="87,-168.5 87,-187.5 126,-187.5 126,-168.5 87,-168.5"/>
<text text-anchor="middle" x="106.5" y="-175.5" font-family="Helvetica,sans-Serif" font-size="10.00">utility</text>
</a>
</g>
</g>
<!-- Node3&#45;&gt;Node6 -->
<g id="edge5" class="edge">
<title>Node3&#45;&gt;Node6</title>
<path fill="none" stroke="midnightblue" d="M278.66,-224.44C243.8,-216.38 190.44,-203.6 135.87,-188.26"/>
<polygon fill="midnightblue" stroke="midnightblue" points="136.61,-184.83 126.03,-185.47 134.7,-191.56 136.61,-184.83"/>
</g>
<!-- Node7 -->
<g id="node7" class="node">
<title>Node7</title>
<g id="a_node7"><a xlink:title=" ">
<polygon fill="white" stroke="#bfbfbf" points="321.5,-168.5 321.5,-187.5 365.5,-187.5 365.5,-168.5 321.5,-168.5"/>
<text text-anchor="middle" x="343.5" y="-175.5" font-family="Helvetica,sans-Serif" font-size="10.00">vector</text>
</a>
</g>
</g>
<!-- Node3&#45;&gt;Node7 -->
<g id="edge6" class="edge">
<title>Node3&#45;&gt;Node7</title>
<path fill="none" stroke="midnightblue" d="M320.96,-224.08C324.65,-216.69 330.02,-205.95 334.59,-196.81"/>
<polygon fill="midnightblue" stroke="midnightblue" points="337.78,-198.26 339.12,-187.75 331.52,-195.13 337.78,-198.26"/>
</g>
<!-- Node8 -->
<g id="node8" class="node">
<title>Node8</title>
<g id="a_node8"><a xlink:href="_shader_8hpp.html" target="_top" xlink:title=" ">
<polygon fill="white" stroke="black" points="384,-168.5 384,-187.5 489,-187.5 489,-168.5 384,-168.5"/>
<text text-anchor="middle" x="436.5" y="-175.5" font-family="Helvetica,sans-Serif" font-size="10.00">graphics/Shader.hpp</text>
</a>
</g>
</g>
<!-- Node3&#45;&gt;Node8 -->
<g id="edge7" class="edge">
<title>Node3&#45;&gt;Node8</title>
<path fill="none" stroke="midnightblue" d="M335.51,-224.44C355.09,-215.64 385.81,-201.81 408.23,-191.72"/>
<polygon fill="midnightblue" stroke="midnightblue" points="409.89,-194.81 417.57,-187.52 407.02,-188.43 409.89,-194.81"/>
</g>
<!-- Node11 -->
<g id="node11" class="node">
<title>Node11</title>
<g id="a_node11"><a xlink:href="_transform_8hpp.html" target="_top" xlink:title=" ">
<polygon fill="white" stroke="black" points="435,-56.5 435,-75.5 554,-75.5 554,-56.5 435,-56.5"/>
<text text-anchor="middle" x="494.5" y="-63.5" font-family="Helvetica,sans-Serif" font-size="10.00">graphics/Transform.hpp</text>
</a>
</g>
</g>
<!-- Node3&#45;&gt;Node11 -->
<g id="edge15" class="edge">
<title>Node3&#45;&gt;Node11</title>
<path fill="none" stroke="midnightblue" d="M371.02,-230.65C413.34,-226.59 471.94,-215.87 515.5,-188 548.19,-167.08 576.39,-146.44 558.5,-112 551.35,-98.23 537.83,-87.78 525.05,-80.44"/>
<polygon fill="midnightblue" stroke="midnightblue" points="526.46,-77.23 515.98,-75.64 523.18,-83.41 526.46,-77.23"/>
</g>
<!-- Node9 -->
<g id="node9" class="node">
<title>Node9</title>
<g id="a_node9"><a xlink:title=" ">
<polygon fill="white" stroke="#bfbfbf" points="342,-112.5 342,-131.5 383,-131.5 383,-112.5 342,-112.5"/>
<text text-anchor="middle" x="362.5" y="-119.5" font-family="Helvetica,sans-Serif" font-size="10.00">string</text>
</a>
</g>
</g>
<!-- Node8&#45;&gt;Node9 -->
<g id="edge8" class="edge">
<title>Node8&#45;&gt;Node9</title>
<path fill="none" stroke="midnightblue" d="M424.61,-168.32C413.35,-160.11 396.21,-147.6 382.79,-137.81"/>
<polygon fill="midnightblue" stroke="midnightblue" points="384.75,-134.9 374.61,-131.83 380.62,-140.56 384.75,-134.9"/>
</g>
<!-- Node10 -->
<g id="node10" class="node">
<title>Node10</title>
<g id="a_node10"><a xlink:href="_g_shape_8hpp.html" target="_top" xlink:title=" ">
<polygon fill="white" stroke="black" points="439.5,-112.5 439.5,-131.5 549.5,-131.5 549.5,-112.5 439.5,-112.5"/>
<text text-anchor="middle" x="494.5" y="-119.5" font-family="Helvetica,sans-Serif" font-size="10.00">graphics/GShape.hpp</text>
</a>
</g>
</g>
<!-- Node8&#45;&gt;Node10 -->
<g id="edge9" class="edge">
<title>Node8&#45;&gt;Node10</title>
<path fill="none" stroke="midnightblue" d="M440.91,-168.08C447.9,-159.98 460.59,-147.87 471.99,-138.23"/>
<polygon fill="midnightblue" stroke="midnightblue" points="474.42,-140.77 479.97,-131.75 470,-135.34 474.42,-140.77"/>
</g>
<!-- Node8&#45;&gt;Node11 -->
<g id="edge14" class="edge">
<title>Node8&#45;&gt;Node11</title>
<path fill="none" stroke="midnightblue" d="M432.9,-168.43C428.04,-155.44 420.99,-130.3 430.5,-112 437.65,-98.23 451.17,-87.78 463.95,-80.44"/>
<polygon fill="midnightblue" stroke="midnightblue" points="465.82,-83.41 473.02,-75.64 462.54,-77.23 465.82,-83.41"/>
</g>
<!-- Node10&#45;&gt;Node3 -->
<g id="edge10" class="edge">
<title>Node10&#45;&gt;Node3</title>
<path fill="none" stroke="midnightblue" d="M498.31,-131.65C503.65,-145.21 511.32,-171.62 498.5,-188 483.97,-206.56 427.6,-218.53 381.4,-225.42"/>
<polygon fill="midnightblue" stroke="midnightblue" points="380.81,-221.97 371.41,-226.85 381.81,-228.89 380.81,-221.97"/>
</g>
<!-- Node10&#45;&gt;Node8 -->
<g id="edge11" class="edge">
<title>Node10&#45;&gt;Node8</title>
<path fill="none" stroke="midnightblue" d="M490.16,-131.83C483.17,-139.95 470.4,-152.15 458.94,-161.82"/>
<polygon fill="midnightblue" stroke="midnightblue" points="456.49,-159.3 450.93,-168.32 460.9,-164.74 456.49,-159.3"/>
</g>
<!-- Node10&#45;&gt;Node11 -->
<g id="edge12" class="edge">
<title>Node10&#45;&gt;Node11</title>
<path fill="none" stroke="midnightblue" d="M494.5,-112.08C494.5,-105.01 494.5,-94.86 494.5,-85.99"/>
<polygon fill="midnightblue" stroke="midnightblue" points="498,-85.75 494.5,-75.75 491,-85.75 498,-85.75"/>
</g>
<!-- Node12 -->
<g id="node12" class="node">
<title>Node12</title>
<g id="a_node12"><a xlink:title=" ">
<polygon fill="white" stroke="#bfbfbf" points="442.5,-0.5 442.5,-19.5 546.5,-19.5 546.5,-0.5 442.5,-0.5"/>
<text text-anchor="middle" x="494.5" y="-7.5" font-family="Helvetica,sans-Serif" font-size="10.00">glm/gtc/type_ptr.hpp</text>
</a>
</g>
</g>
<!-- Node11&#45;&gt;Node12 -->
<g id="edge13" class="edge">
<title>Node11&#45;&gt;Node12</title>
<path fill="none" stroke="midnightblue" d="M494.5,-56.08C494.5,-49.01 494.5,-38.86 494.5,-29.99"/>
<polygon fill="midnightblue" stroke="midnightblue" points="498,-29.75 494.5,-19.75 491,-29.75 498,-29.75"/>
</g>
<!-- Node13&#45;&gt;Node6 -->
<g id="edge17" class="edge">
<title>Node13&#45;&gt;Node6</title>
<path fill="none" stroke="midnightblue" d="M129.04,-224.08C125.35,-216.69 119.98,-205.95 115.41,-196.81"/>
<polygon fill="midnightblue" stroke="midnightblue" points="118.48,-195.13 110.88,-187.75 112.22,-198.26 118.48,-195.13"/>
</g>
</g>
</svg>
