<?xml version="1.0" encoding="UTF-8" standalone="no"?>
<!DOCTYPE svg PUBLIC "-//W3C//DTD SVG 1.1//EN"
 "http://www.w3.org/Graphics/SVG/1.1/DTD/svg11.dtd">
<!-- Generated by graphviz version 2.47.0 (20210407.0042)
 -->
<!-- Title: include/EventHandler/EventHandler.hpp Pages: 1 -->
<svg width="550pt" height="319pt"
 viewBox="0.00 0.00 549.50 319.00" xmlns="http://www.w3.org/2000/svg" xmlns:xlink="http://www.w3.org/1999/xlink">
<g id="graph0" class="graph" transform="scale(1 1) rotate(0) translate(4 315)">
<title>include/EventHandler/EventHandler.hpp</title>
<polygon fill="white" stroke="transparent" points="-4,4 -4,-315 545.5,-315 545.5,4 -4,4"/>
<!-- Node1 -->
<g id="node1" class="node">
<title>Node1</title>
<g id="a_node1"><a xlink:title=" ">
<polygon fill="#bfbfbf" stroke="black" points="257,-280.5 257,-310.5 366,-310.5 366,-280.5 257,-280.5"/>
<text text-anchor="start" x="265" y="-298.5" font-family="Helvetica,sans-Serif" font-size="10.00">include/EventHandler</text>
<text text-anchor="middle" x="311.5" y="-287.5" font-family="Helvetica,sans-Serif" font-size="10.00">/EventHandler.hpp</text>
</a>
</g>
</g>
<!-- Node2 -->
<g id="node2" class="node">
<title>Node2</title>
<g id="a_node2"><a xlink:title=" ">
<polygon fill="white" stroke="#bfbfbf" points="180,-224.5 180,-243.5 239,-243.5 239,-224.5 180,-224.5"/>
<text text-anchor="middle" x="209.5" y="-231.5" font-family="Helvetica,sans-Serif" font-size="10.00">functional</text>
</a>
</g>
</g>
<!-- Node1&#45;&gt;Node2 -->
<g id="edge1" class="edge">
<title>Node1&#45;&gt;Node2</title>
<path fill="none" stroke="midnightblue" d="M287.33,-280.4C270.98,-270.86 249.49,-258.32 233.23,-248.84"/>
<polygon fill="midnightblue" stroke="midnightblue" points="234.74,-245.67 224.34,-243.66 231.22,-251.72 234.74,-245.67"/>
</g>
<!-- Node3 -->
<g id="node3" class="node">
<title>Node3</title>
<g id="a_node3"><a xlink:href="_window_8hpp.html" target="_top" xlink:title=" ">
<polygon fill="white" stroke="black" points="257,-224.5 257,-243.5 366,-243.5 366,-224.5 257,-224.5"/>
<text text-anchor="middle" x="311.5" y="-231.5" font-family="Helvetica,sans-Serif" font-size="10.00">graphics/Window.hpp</text>
</a>
</g>
</g>
<!-- Node1&#45;&gt;Node3 -->
<g id="edge2" class="edge">
<title>Node1&#45;&gt;Node3</title>
<path fill="none" stroke="midnightblue" d="M311.5,-280.4C311.5,-272.47 311.5,-262.46 311.5,-253.86"/>
<polygon fill="midnightblue" stroke="midnightblue" points="315,-253.66 311.5,-243.66 308,-253.66 315,-253.66"/>
</g>
<!-- Node13 -->
<g id="node13" class="node">
<title>Node13</title>
<g id="a_node13"><a xlink:href="_vector2_d_8hpp.html" target="_top" xlink:title=" ">
<polygon fill="white" stroke="black" points="403.5,-224.5 403.5,-243.5 515.5,-243.5 515.5,-224.5 403.5,-224.5"/>
<text text-anchor="middle" x="459.5" y="-231.5" font-family="Helvetica,sans-Serif" font-size="10.00">Helpers/Vector2D.hpp</text>
</a>
</g>
</g>
<!-- Node1&#45;&gt;Node13 -->
<g id="edge16" class="edge">
<title>Node1&#45;&gt;Node13</title>
<path fill="none" stroke="midnightblue" d="M346.57,-280.4C371.52,-270.37 404.71,-257.03 428.64,-247.4"/>
<polygon fill="midnightblue" stroke="midnightblue" points="429.99,-250.64 437.96,-243.66 427.38,-244.14 429.99,-250.64"/>
</g>
<!-- Node4 -->
<g id="node4" class="node">
<title>Node4</title>
<g id="a_node4"><a xlink:title=" ">
<polygon fill="white" stroke="#bfbfbf" points="0,-168.5 0,-187.5 63,-187.5 63,-168.5 0,-168.5"/>
<text text-anchor="middle" x="31.5" y="-175.5" font-family="Helvetica,sans-Serif" font-size="10.00">glad/glad.h</text>
</a>
</g>
</g>
<!-- Node3&#45;&gt;Node4 -->
<g id="edge3" class="edge">
<title>Node3&#45;&gt;Node4</title>
<path fill="none" stroke="midnightblue" d="M263.13,-224.46C216.77,-216.15 144.57,-202.91 73.39,-188.34"/>
<polygon fill="midnightblue" stroke="midnightblue" points="73.85,-184.86 63.35,-186.28 72.44,-191.72 73.85,-184.86"/>
</g>
<!-- Node5 -->
<g id="node5" class="node">
<title>Node5</title>
<g id="a_node5"><a xlink:title=" ">
<polygon fill="white" stroke="#bfbfbf" points="81,-168.5 81,-187.5 160,-187.5 160,-168.5 81,-168.5"/>
<text text-anchor="middle" x="120.5" y="-175.5" font-family="Helvetica,sans-Serif" font-size="10.00">GLFW/glfw3.h</text>
</a>
</g>
</g>
<!-- Node3&#45;&gt;Node5 -->
<g id="edge4" class="edge">
<title>Node3&#45;&gt;Node5</title>
<path fill="none" stroke="midnightblue" d="M281.24,-224.44C248.54,-215.2 196.32,-200.44 160.32,-190.26"/>
<polygon fill="midnightblue" stroke="midnightblue" points="161.2,-186.87 150.62,-187.52 159.29,-193.61 161.2,-186.87"/>
</g>
<!-- Node6 -->
<g id="node6" class="node">
<title>Node6</title>
<g id="a_node6"><a xlink:title=" ">
<polygon fill="white" stroke="#bfbfbf" points="440,-168.5 440,-187.5 479,-187.5 479,-168.5 440,-168.5"/>
<text text-anchor="middle" x="459.5" y="-175.5" font-family="Helvetica,sans-Serif" font-size="10.00">utility</text>
</a>
</g>
</g>
<!-- Node3&#45;&gt;Node6 -->
<g id="edge5" class="edge">
<title>Node3&#45;&gt;Node6</title>
<path fill="none" stroke="midnightblue" d="M334.95,-224.44C360.79,-215.01 402.39,-199.84 430.32,-189.65"/>
<polygon fill="midnightblue" stroke="midnightblue" points="431.75,-192.85 439.94,-186.14 429.35,-186.28 431.75,-192.85"/>
</g>
<!-- Node7 -->
<g id="node7" class="node">
<title>Node7</title>
<g id="a_node7"><a xlink:title=" ">
<polygon fill="white" stroke="#bfbfbf" points="177.5,-168.5 177.5,-187.5 221.5,-187.5 221.5,-168.5 177.5,-168.5"/>
<text text-anchor="middle" x="199.5" y="-175.5" font-family="Helvetica,sans-Serif" font-size="10.00">vector</text>
</a>
</g>
</g>
<!-- Node3&#45;&gt;Node7 -->
<g id="edge6" class="edge">
<title>Node3&#45;&gt;Node7</title>
<path fill="none" stroke="midnightblue" d="M293.51,-224.32C275.46,-215.62 247.45,-202.12 226.7,-192.11"/>
<polygon fill="midnightblue" stroke="midnightblue" points="227.98,-188.84 217.45,-187.65 224.94,-195.15 227.98,-188.84"/>
</g>
<!-- Node8 -->
<g id="node8" class="node">
<title>Node8</title>
<g id="a_node8"><a xlink:href="_shader_8hpp.html" target="_top" xlink:title=" ">
<polygon fill="white" stroke="black" points="240,-168.5 240,-187.5 345,-187.5 345,-168.5 240,-168.5"/>
<text text-anchor="middle" x="292.5" y="-175.5" font-family="Helvetica,sans-Serif" font-size="10.00">graphics/Shader.hpp</text>
</a>
</g>
</g>
<!-- Node3&#45;&gt;Node8 -->
<g id="edge7" class="edge">
<title>Node3&#45;&gt;Node8</title>
<path fill="none" stroke="midnightblue" d="M308.36,-224.08C305.82,-216.85 302.14,-206.41 298.97,-197.4"/>
<polygon fill="midnightblue" stroke="midnightblue" points="302.2,-196.02 295.58,-187.75 295.6,-198.35 302.2,-196.02"/>
</g>
<!-- Node11 -->
<g id="node11" class="node">
<title>Node11</title>
<g id="a_node11"><a xlink:href="_transform_8hpp.html" target="_top" xlink:title=" ">
<polygon fill="white" stroke="black" points="269,-56.5 269,-75.5 388,-75.5 388,-56.5 269,-56.5"/>
<text text-anchor="middle" x="328.5" y="-63.5" font-family="Helvetica,sans-Serif" font-size="10.00">graphics/Transform.hpp</text>
</a>
</g>
</g>
<!-- Node3&#45;&gt;Node11 -->
<g id="edge15" class="edge">
<title>Node3&#45;&gt;Node11</title>
<path fill="none" stroke="midnightblue" d="M326.63,-224.39C339.52,-216.39 357.77,-203.42 369.5,-188 385.79,-166.59 387.29,-158.4 392.5,-132 394.22,-123.28 396.6,-119.89 392.5,-112 385.35,-98.23 371.83,-87.78 359.05,-80.44"/>
<polygon fill="midnightblue" stroke="midnightblue" points="360.46,-77.23 349.98,-75.64 357.18,-83.41 360.46,-77.23"/>
</g>
<!-- Node9 -->
<g id="node9" class="node">
<title>Node9</title>
<g id="a_node9"><a xlink:title=" ">
<polygon fill="white" stroke="#bfbfbf" points="176,-112.5 176,-131.5 217,-131.5 217,-112.5 176,-112.5"/>
<text text-anchor="middle" x="196.5" y="-119.5" font-family="Helvetica,sans-Serif" font-size="10.00">string</text>
</a>
</g>
</g>
<!-- Node8&#45;&gt;Node9 -->
<g id="edge8" class="edge">
<title>Node8&#45;&gt;Node9</title>
<path fill="none" stroke="midnightblue" d="M277.08,-168.32C261.96,-159.82 238.68,-146.73 221.03,-136.8"/>
<polygon fill="midnightblue" stroke="midnightblue" points="222.32,-133.51 211.89,-131.65 218.89,-139.61 222.32,-133.51"/>
</g>
<!-- Node10 -->
<g id="node10" class="node">
<title>Node10</title>
<g id="a_node10"><a xlink:href="_g_shape_8hpp.html" target="_top" xlink:title=" ">
<polygon fill="white" stroke="black" points="273.5,-112.5 273.5,-131.5 383.5,-131.5 383.5,-112.5 273.5,-112.5"/>
<text text-anchor="middle" x="328.5" y="-119.5" font-family="Helvetica,sans-Serif" font-size="10.00">graphics/GShape.hpp</text>
</a>
</g>
</g>
<!-- Node8&#45;&gt;Node10 -->
<g id="edge9" class="edge">
<title>Node8&#45;&gt;Node10</title>
<path fill="none" stroke="midnightblue" d="M293.28,-168.08C296.79,-160.38 303.98,-149.03 311.11,-139.65"/>
<polygon fill="midnightblue" stroke="midnightblue" points="313.94,-141.72 317.53,-131.75 308.51,-137.3 313.94,-141.72"/>
</g>
<!-- Node8&#45;&gt;Node11 -->
<g id="edge14" class="edge">
<title>Node8&#45;&gt;Node11</title>
<path fill="none" stroke="midnightblue" d="M283.87,-168.4C272.29,-155.79 254.31,-131.63 264.5,-112 271.65,-98.23 285.17,-87.78 297.95,-80.44"/>
<polygon fill="midnightblue" stroke="midnightblue" points="299.82,-83.41 307.02,-75.64 296.54,-77.23 299.82,-83.41"/>
</g>
<!-- Node10&#45;&gt;Node3 -->
<g id="edge10" class="edge">
<title>Node10&#45;&gt;Node3</title>
<path fill="none" stroke="midnightblue" d="M336.51,-131.83C346.84,-144.34 362.55,-167.92 354.5,-188 349.82,-199.67 340.51,-210.03 331.74,-217.86"/>
<polygon fill="midnightblue" stroke="midnightblue" points="329.45,-215.22 324,-224.3 333.92,-220.6 329.45,-215.22"/>
</g>
<!-- Node10&#45;&gt;Node8 -->
<g id="edge11" class="edge">
<title>Node10&#45;&gt;Node8</title>
<path fill="none" stroke="midnightblue" d="M327.8,-131.75C324.34,-139.4 317.18,-150.74 310.04,-160.14"/>
<polygon fill="midnightblue" stroke="midnightblue" points="307.19,-158.11 303.61,-168.08 312.63,-162.52 307.19,-158.11"/>
</g>
<!-- Node10&#45;&gt;Node11 -->
<g id="edge12" class="edge">
<title>Node10&#45;&gt;Node11</title>
<path fill="none" stroke="midnightblue" d="M328.5,-112.08C328.5,-105.01 328.5,-94.86 328.5,-85.99"/>
<polygon fill="midnightblue" stroke="midnightblue" points="332,-85.75 328.5,-75.75 325,-85.75 332,-85.75"/>
</g>
<!-- Node12 -->
<g id="node12" class="node">
<title>Node12</title>
<g id="a_node12"><a xlink:title=" ">
<polygon fill="white" stroke="#bfbfbf" points="276.5,-0.5 276.5,-19.5 380.5,-19.5 380.5,-0.5 276.5,-0.5"/>
<text text-anchor="middle" x="328.5" y="-7.5" font-family="Helvetica,sans-Serif" font-size="10.00">glm/gtc/type_ptr.hpp</text>
</a>
</g>
</g>
<!-- Node11&#45;&gt;Node12 -->
<g id="edge13" class="edge">
<title>Node11&#45;&gt;Node12</title>
<path fill="none" stroke="midnightblue" d="M328.5,-56.08C328.5,-49.01 328.5,-38.86 328.5,-29.99"/>
<polygon fill="midnightblue" stroke="midnightblue" points="332,-29.75 328.5,-19.75 325,-29.75 332,-29.75"/>
</g>
<!-- Node13&#45;&gt;Node6 -->
<g id="edge17" class="edge">
<title>Node13&#45;&gt;Node6</title>
<path fill="none" stroke="midnightblue" d="M459.5,-224.08C459.5,-217.01 459.5,-206.86 459.5,-197.99"/>
<polygon fill="midnightblue" stroke="midnightblue" points="463,-197.75 459.5,-187.75 456,-197.75 463,-197.75"/>
</g>
<!-- Node14 -->
<g id="node14" class="node">
<title>Node14</title>
<g id="a_node14"><a xlink:title=" ">
<polygon fill="white" stroke="#bfbfbf" points="497.5,-168.5 497.5,-187.5 541.5,-187.5 541.5,-168.5 497.5,-168.5"/>
<text text-anchor="middle" x="519.5" y="-175.5" font-family="Helvetica,sans-Serif" font-size="10.00">cmath</text>
</a>
</g>
</g>
<!-- Node13&#45;&gt;Node14 -->
<g id="edge18" class="edge">
<title>Node13&#45;&gt;Node14</title>
<path fill="none" stroke="midnightblue" d="M469.14,-224.32C478.01,-216.34 491.37,-204.31 502.11,-194.65"/>
<polygon fill="midnightblue" stroke="midnightblue" points="504.59,-197.13 509.68,-187.83 499.91,-191.92 504.59,-197.13"/>
</g>
</g>
</svg>
