<?xml version="1.0" encoding="UTF-8" standalone="no"?>
<!DOCTYPE svg PUBLIC "-//W3C//DTD SVG 1.1//EN"
 "http://www.w3.org/Graphics/SVG/1.1/DTD/svg11.dtd">
<!-- Generated by graphviz version 2.47.0 (20210407.0042)
 -->
<!-- Title: include/EventHandler/EventHandler.hpp Pages: 1 -->
<svg width="630pt" height="319pt"
 viewBox="0.00 0.00 629.69 319.00" xmlns="http://www.w3.org/2000/svg" xmlns:xlink="http://www.w3.org/1999/xlink">
<g id="graph0" class="graph" transform="scale(1 1) rotate(0) translate(4 315)">
<title>include/EventHandler/EventHandler.hpp</title>
<polygon fill="white" stroke="transparent" points="-4,4 -4,-315 625.69,-315 625.69,4 -4,4"/>
<!-- Node1 -->
<g id="node1" class="node">
<title>Node1</title>
<g id="a_node1"><a xlink:title=" ">
<polygon fill="#bfbfbf" stroke="black" points="33,-280.5 33,-310.5 142,-310.5 142,-280.5 33,-280.5"/>
<text text-anchor="start" x="41" y="-298.5" font-family="Helvetica,sans-Serif" font-size="10.00">include/EventHandler</text>
<text text-anchor="middle" x="87.5" y="-287.5" font-family="Helvetica,sans-Serif" font-size="10.00">/EventHandler.hpp</text>
</a>
</g>
</g>
<!-- Node2 -->
<g id="node2" class="node">
<title>Node2</title>
<g id="a_node2"><a xlink:title=" ">
<polygon fill="white" stroke="#bfbfbf" points="0,-224.5 0,-243.5 59,-243.5 59,-224.5 0,-224.5"/>
<text text-anchor="middle" x="29.5" y="-231.5" font-family="Helvetica,sans-Serif" font-size="10.00">functional</text>
</a>
</g>
</g>
<!-- Node1&#45;&gt;Node2 -->
<g id="edge1" class="edge">
<title>Node1&#45;&gt;Node2</title>
<path fill="none" stroke="midnightblue" d="M73.75,-280.4C65.15,-271.58 54.05,-260.18 45.11,-251.02"/>
<polygon fill="midnightblue" stroke="midnightblue" points="47.43,-248.38 37.94,-243.66 42.41,-253.26 47.43,-248.38"/>
</g>
<!-- Node3 -->
<g id="node3" class="node">
<title>Node3</title>
<g id="a_node3"><a xlink:href="_window_8hpp.html" target="_top" xlink:title=" ">
<polygon fill="white" stroke="black" points="319,-224.5 319,-243.5 428,-243.5 428,-224.5 319,-224.5"/>
<text text-anchor="middle" x="373.5" y="-231.5" font-family="Helvetica,sans-Serif" font-size="10.00">graphics/Window.hpp</text>
</a>
</g>
</g>
<!-- Node1&#45;&gt;Node3 -->
<g id="edge2" class="edge">
<title>Node1&#45;&gt;Node3</title>
<path fill="none" stroke="midnightblue" d="M142.31,-283.1C194.2,-272.3 271.52,-256.22 322.22,-245.67"/>
<polygon fill="midnightblue" stroke="midnightblue" points="323.23,-249.03 332.31,-243.57 321.8,-242.18 323.23,-249.03"/>
</g>
<!-- Node13 -->
<g id="node13" class="node">
<title>Node13</title>
<g id="a_node13"><a xlink:href="_vector2_d_8hpp.html" target="_top" xlink:title=" ">
<polygon fill="white" stroke="black" points="114.5,-56.5 114.5,-75.5 226.5,-75.5 226.5,-56.5 114.5,-56.5"/>
<text text-anchor="middle" x="170.5" y="-63.5" font-family="Helvetica,sans-Serif" font-size="10.00">Helpers/Vector2D.hpp</text>
</a>
</g>
</g>
<!-- Node1&#45;&gt;Node13 -->
<g id="edge19" class="edge">
<title>Node1&#45;&gt;Node13</title>
<path fill="none" stroke="midnightblue" d="M85.27,-280.49C80.86,-248.23 74.08,-167.22 106.5,-112 114.47,-98.43 128.34,-87.92 141.13,-80.49"/>
<polygon fill="midnightblue" stroke="midnightblue" points="143.02,-83.45 150.15,-75.62 139.69,-77.29 143.02,-83.45"/>
</g>
<!-- Node4 -->
<g id="node4" class="node">
<title>Node4</title>
<g id="a_node4"><a xlink:title=" ">
<polygon fill="white" stroke="#bfbfbf" points="439,-168.5 439,-187.5 502,-187.5 502,-168.5 439,-168.5"/>
<text text-anchor="middle" x="470.5" y="-175.5" font-family="Helvetica,sans-Serif" font-size="10.00">glad/glad.h</text>
</a>
</g>
</g>
<!-- Node3&#45;&gt;Node4 -->
<g id="edge3" class="edge">
<title>Node3&#45;&gt;Node4</title>
<path fill="none" stroke="midnightblue" d="M389.08,-224.32C404.5,-215.74 428.31,-202.49 446.21,-192.52"/>
<polygon fill="midnightblue" stroke="midnightblue" points="447.92,-195.58 454.95,-187.65 444.51,-189.46 447.92,-195.58"/>
</g>
<!-- Node5 -->
<g id="node5" class="node">
<title>Node5</title>
<g id="a_node5"><a xlink:title=" ">
<polygon fill="white" stroke="#bfbfbf" points="520,-168.5 520,-187.5 599,-187.5 599,-168.5 520,-168.5"/>
<text text-anchor="middle" x="559.5" y="-175.5" font-family="Helvetica,sans-Serif" font-size="10.00">GLFW/glfw3.h</text>
</a>
</g>
</g>
<!-- Node3&#45;&gt;Node5 -->
<g id="edge4" class="edge">
<title>Node3&#45;&gt;Node5</title>
<path fill="none" stroke="midnightblue" d="M402.97,-224.44C434.67,-215.24 485.23,-200.56 520.27,-190.39"/>
<polygon fill="midnightblue" stroke="midnightblue" points="521.54,-193.67 530.17,-187.52 519.59,-186.94 521.54,-193.67"/>
</g>
<!-- Node6 -->
<g id="node6" class="node">
<title>Node6</title>
<g id="a_node6"><a xlink:title=" ">
<polygon fill="white" stroke="#bfbfbf" points="494,-0.5 494,-19.5 533,-19.5 533,-0.5 494,-0.5"/>
<text text-anchor="middle" x="513.5" y="-7.5" font-family="Helvetica,sans-Serif" font-size="10.00">utility</text>
</a>
</g>
</g>
<!-- Node3&#45;&gt;Node6 -->
<g id="edge5" class="edge">
<title>Node3&#45;&gt;Node6</title>
<path fill="none" stroke="midnightblue" d="M428.18,-230.35C490.32,-226.06 586.07,-215.13 608.5,-188 652.3,-135.02 572.34,-58.7 533.23,-26.39"/>
<polygon fill="midnightblue" stroke="midnightblue" points="535.11,-23.4 525.13,-19.84 530.71,-28.85 535.11,-23.4"/>
</g>
<!-- Node7 -->
<g id="node7" class="node">
<title>Node7</title>
<g id="a_node7"><a xlink:title=" ">
<polygon fill="white" stroke="#bfbfbf" points="376.5,-168.5 376.5,-187.5 420.5,-187.5 420.5,-168.5 376.5,-168.5"/>
<text text-anchor="middle" x="398.5" y="-175.5" font-family="Helvetica,sans-Serif" font-size="10.00">vector</text>
</a>
</g>
</g>
<!-- Node3&#45;&gt;Node7 -->
<g id="edge6" class="edge">
<title>Node3&#45;&gt;Node7</title>
<path fill="none" stroke="midnightblue" d="M377.63,-224.08C381.01,-216.77 385.92,-206.18 390.12,-197.1"/>
<polygon fill="midnightblue" stroke="midnightblue" points="393.42,-198.3 394.45,-187.75 387.07,-195.36 393.42,-198.3"/>
</g>
<!-- Node8 -->
<g id="node8" class="node">
<title>Node8</title>
<g id="a_node8"><a xlink:href="_shader_8hpp.html" target="_top" xlink:title=" ">
<polygon fill="white" stroke="black" points="212,-168.5 212,-187.5 317,-187.5 317,-168.5 212,-168.5"/>
<text text-anchor="middle" x="264.5" y="-175.5" font-family="Helvetica,sans-Serif" font-size="10.00">graphics/Shader.hpp</text>
</a>
</g>
</g>
<!-- Node3&#45;&gt;Node8 -->
<g id="edge7" class="edge">
<title>Node3&#45;&gt;Node8</title>
<path fill="none" stroke="midnightblue" d="M355.99,-224.32C338.43,-215.62 311.17,-202.12 290.97,-192.11"/>
<polygon fill="midnightblue" stroke="midnightblue" points="292.48,-188.96 281.97,-187.65 289.38,-195.23 292.48,-188.96"/>
</g>
<!-- Node11 -->
<g id="node11" class="node">
<title>Node11</title>
<g id="a_node11"><a xlink:href="_transform_8hpp.html" target="_top" xlink:title=" ">
<polygon fill="white" stroke="black" points="254,-56.5 254,-75.5 373,-75.5 373,-56.5 254,-56.5"/>
<text text-anchor="middle" x="313.5" y="-63.5" font-family="Helvetica,sans-Serif" font-size="10.00">graphics/Transform.hpp</text>
</a>
</g>
</g>
<!-- Node3&#45;&gt;Node11 -->
<g id="edge18" class="edge">
<title>Node3&#45;&gt;Node11</title>
<path fill="none" stroke="midnightblue" d="M370.27,-224.08C360.79,-197.83 332.85,-120.55 320.05,-85.12"/>
<polygon fill="midnightblue" stroke="midnightblue" points="323.29,-83.78 316.6,-75.57 316.7,-86.16 323.29,-83.78"/>
</g>
<!-- Node9 -->
<g id="node9" class="node">
<title>Node9</title>
<g id="a_node9"><a xlink:title=" ">
<polygon fill="white" stroke="#bfbfbf" points="244,-112.5 244,-131.5 285,-131.5 285,-112.5 244,-112.5"/>
<text text-anchor="middle" x="264.5" y="-119.5" font-family="Helvetica,sans-Serif" font-size="10.00">string</text>
</a>
</g>
</g>
<!-- Node8&#45;&gt;Node9 -->
<g id="edge8" class="edge">
<title>Node8&#45;&gt;Node9</title>
<path fill="none" stroke="midnightblue" d="M264.5,-168.08C264.5,-161.01 264.5,-150.86 264.5,-141.99"/>
<polygon fill="midnightblue" stroke="midnightblue" points="268,-141.75 264.5,-131.75 261,-141.75 268,-141.75"/>
</g>
<!-- Node10 -->
<g id="node10" class="node">
<title>Node10</title>
<g id="a_node10"><a xlink:href="_g_shape_8hpp.html" target="_top" xlink:title=" ">
<polygon fill="white" stroke="black" points="115.5,-112.5 115.5,-131.5 225.5,-131.5 225.5,-112.5 115.5,-112.5"/>
<text text-anchor="middle" x="170.5" y="-119.5" font-family="Helvetica,sans-Serif" font-size="10.00">graphics/GShape.hpp</text>
</a>
</g>
</g>
<!-- Node8&#45;&gt;Node10 -->
<g id="edge9" class="edge">
<title>Node8&#45;&gt;Node10</title>
<path fill="none" stroke="midnightblue" d="M244.28,-168.32C227.8,-159.9 204.99,-146.97 188.99,-137.07"/>
<polygon fill="midnightblue" stroke="midnightblue" points="190.77,-134.06 180.46,-131.65 187.02,-139.97 190.77,-134.06"/>
</g>
<!-- Node8&#45;&gt;Node11 -->
<g id="edge17" class="edge">
<title>Node8&#45;&gt;Node11</title>
<path fill="none" stroke="midnightblue" d="M271.57,-168.18C278.27,-159.44 288.23,-145.45 294.5,-132 301.49,-117.01 306.53,-98.88 309.66,-85.58"/>
<polygon fill="midnightblue" stroke="midnightblue" points="313.1,-86.23 311.83,-75.71 306.26,-84.72 313.1,-86.23"/>
</g>
<!-- Node10&#45;&gt;Node3 -->
<g id="edge10" class="edge">
<title>Node10&#45;&gt;Node3</title>
<path fill="none" stroke="midnightblue" d="M172.31,-131.6C175.7,-145.59 184.39,-173.19 202.5,-188 232.35,-212.4 274.07,-223.69 308.83,-228.86"/>
<polygon fill="midnightblue" stroke="midnightblue" points="308.53,-232.35 318.9,-230.22 309.46,-225.42 308.53,-232.35"/>
</g>
<!-- Node10&#45;&gt;Node8 -->
<g id="edge11" class="edge">
<title>Node10&#45;&gt;Node8</title>
<path fill="none" stroke="midnightblue" d="M190.68,-131.65C207.15,-140.07 229.96,-153 245.97,-162.9"/>
<polygon fill="midnightblue" stroke="midnightblue" points="244.19,-165.92 254.51,-168.32 247.95,-160.01 244.19,-165.92"/>
</g>
<!-- Node10&#45;&gt;Node11 -->
<g id="edge12" class="edge">
<title>Node10&#45;&gt;Node11</title>
<path fill="none" stroke="midnightblue" d="M193.16,-112.44C216.9,-103.48 254.41,-89.31 281.24,-79.18"/>
<polygon fill="midnightblue" stroke="midnightblue" points="282.83,-82.32 290.95,-75.52 280.36,-75.77 282.83,-82.32"/>
</g>
<!-- Node10&#45;&gt;Node13 -->
<g id="edge14" class="edge">
<title>Node10&#45;&gt;Node13</title>
<path fill="none" stroke="midnightblue" d="M170.5,-112.08C170.5,-105.01 170.5,-94.86 170.5,-85.99"/>
<polygon fill="midnightblue" stroke="midnightblue" points="174,-85.75 170.5,-75.75 167,-85.75 174,-85.75"/>
</g>
<!-- Node12 -->
<g id="node12" class="node">
<title>Node12</title>
<g id="a_node12"><a xlink:title=" ">
<polygon fill="white" stroke="#bfbfbf" points="261.5,-0.5 261.5,-19.5 365.5,-19.5 365.5,-0.5 261.5,-0.5"/>
<text text-anchor="middle" x="313.5" y="-7.5" font-family="Helvetica,sans-Serif" font-size="10.00">glm/gtc/type_ptr.hpp</text>
</a>
</g>
</g>
<!-- Node11&#45;&gt;Node12 -->
<g id="edge13" class="edge">
<title>Node11&#45;&gt;Node12</title>
<path fill="none" stroke="midnightblue" d="M313.5,-56.08C313.5,-49.01 313.5,-38.86 313.5,-29.99"/>
<polygon fill="midnightblue" stroke="midnightblue" points="317,-29.75 313.5,-19.75 310,-29.75 317,-29.75"/>
</g>
<!-- Node13&#45;&gt;Node6 -->
<g id="edge15" class="edge">
<title>Node13&#45;&gt;Node6</title>
<path fill="none" stroke="midnightblue" d="M224.85,-56.44C298.12,-44.91 426.02,-24.77 483.74,-15.68"/>
<polygon fill="midnightblue" stroke="midnightblue" points="484.34,-19.13 493.67,-14.12 483.25,-12.22 484.34,-19.13"/>
</g>
<!-- Node14 -->
<g id="node14" class="node">
<title>Node14</title>
<g id="a_node14"><a xlink:title=" ">
<polygon fill="white" stroke="#bfbfbf" points="148.5,-0.5 148.5,-19.5 192.5,-19.5 192.5,-0.5 148.5,-0.5"/>
<text text-anchor="middle" x="170.5" y="-7.5" font-family="Helvetica,sans-Serif" font-size="10.00">cmath</text>
</a>
</g>
</g>
<!-- Node13&#45;&gt;Node14 -->
<g id="edge16" class="edge">
<title>Node13&#45;&gt;Node14</title>
<path fill="none" stroke="midnightblue" d="M170.5,-56.08C170.5,-49.01 170.5,-38.86 170.5,-29.99"/>
<polygon fill="midnightblue" stroke="midnightblue" points="174,-29.75 170.5,-19.75 167,-29.75 174,-29.75"/>
</g>
</g>
</svg>
