<?xml version="1.0" encoding="UTF-8" standalone="no"?>
<!DOCTYPE svg PUBLIC "-//W3C//DTD SVG 1.1//EN"
 "http://www.w3.org/Graphics/SVG/1.1/DTD/svg11.dtd">
<!-- Generated by graphviz version 2.47.0 (20210407.0042)
 -->
<!-- Title: src/engine/Field.cpp Pages: 1 -->
<svg width="1149pt" height="375pt"
 viewBox="0.00 0.00 1149.00 375.00" xmlns="http://www.w3.org/2000/svg" xmlns:xlink="http://www.w3.org/1999/xlink">
<g id="graph0" class="graph" transform="scale(1 1) rotate(0) translate(4 371)">
<title>src/engine/Field.cpp</title>
<polygon fill="white" stroke="transparent" points="-4,4 -4,-371 1145,-371 1145,4 -4,4"/>
<!-- Node1 -->
<g id="node1" class="node">
<title>Node1</title>
<g id="a_node1"><a xlink:title=" ">
<polygon fill="#bfbfbf" stroke="black" points="799,-347.5 799,-366.5 903,-366.5 903,-347.5 799,-347.5"/>
<text text-anchor="middle" x="851" y="-354.5" font-family="Helvetica,sans-Serif" font-size="10.00">src/engine/Field.cpp</text>
</a>
</g>
</g>
<!-- Node2 -->
<g id="node2" class="node">
<title>Node2</title>
<g id="a_node2"><a xlink:href="_field_8hpp.html" target="_top" xlink:title=" ">
<polygon fill="white" stroke="black" points="622.5,-291.5 622.5,-310.5 709.5,-310.5 709.5,-291.5 622.5,-291.5"/>
<text text-anchor="middle" x="666" y="-298.5" font-family="Helvetica,sans-Serif" font-size="10.00">engine/Field.hpp</text>
</a>
</g>
</g>
<!-- Node1&#45;&gt;Node2 -->
<g id="edge1" class="edge">
<title>Node1&#45;&gt;Node2</title>
<path fill="none" stroke="midnightblue" d="M821.69,-347.44C790.16,-338.24 739.87,-323.56 705.01,-313.39"/>
<polygon fill="midnightblue" stroke="midnightblue" points="705.76,-309.96 695.18,-310.52 703.8,-316.68 705.76,-309.96"/>
</g>
<!-- Node13 -->
<g id="node13" class="node">
<title>Node13</title>
<g id="a_node13"><a xlink:href="_sprites_manager_8hpp.html" target="_top" xlink:title=" ">
<polygon fill="white" stroke="black" points="329.5,-291.5 329.5,-310.5 432.5,-310.5 432.5,-291.5 329.5,-291.5"/>
<text text-anchor="middle" x="381" y="-298.5" font-family="Helvetica,sans-Serif" font-size="10.00">SpritesManager.hpp</text>
</a>
</g>
</g>
<!-- Node1&#45;&gt;Node13 -->
<g id="edge17" class="edge">
<title>Node1&#45;&gt;Node13</title>
<path fill="none" stroke="midnightblue" d="M798.91,-350.01C711.6,-339.98 536.13,-319.82 442.76,-309.1"/>
<polygon fill="midnightblue" stroke="midnightblue" points="442.95,-305.59 432.61,-307.93 442.15,-312.55 442.95,-305.59"/>
</g>
<!-- Node18 -->
<g id="node18" class="node">
<title>Node18</title>
<g id="a_node18"><a xlink:href="_constants_manager_8hpp.html" target="_top" xlink:title=" ">
<polygon fill="white" stroke="black" points="946,-291.5 946,-310.5 1062,-310.5 1062,-291.5 946,-291.5"/>
<text text-anchor="middle" x="1004" y="-298.5" font-family="Helvetica,sans-Serif" font-size="10.00">ConstantsManager.hpp</text>
</a>
</g>
</g>
<!-- Node1&#45;&gt;Node18 -->
<g id="edge27" class="edge">
<title>Node1&#45;&gt;Node18</title>
<path fill="none" stroke="midnightblue" d="M875.24,-347.44C900.87,-338.4 941.49,-324.06 970.24,-313.92"/>
<polygon fill="midnightblue" stroke="midnightblue" points="971.61,-317.15 979.87,-310.52 969.28,-310.54 971.61,-317.15"/>
</g>
<!-- Node20 -->
<g id="node20" class="node">
<title>Node20</title>
<g id="a_node20"><a xlink:title=" ">
<polygon fill="white" stroke="#bfbfbf" points="1080,-291.5 1080,-310.5 1124,-310.5 1124,-291.5 1080,-291.5"/>
<text text-anchor="middle" x="1102" y="-298.5" font-family="Helvetica,sans-Serif" font-size="10.00">cmath</text>
</a>
</g>
</g>
<!-- Node1&#45;&gt;Node20 -->
<g id="edge29" class="edge">
<title>Node1&#45;&gt;Node20</title>
<path fill="none" stroke="midnightblue" d="M898.45,-347.44C940.99,-339.51 1005.3,-326.89 1069.78,-311.15"/>
<polygon fill="midnightblue" stroke="midnightblue" points="1070.84,-314.5 1079.71,-308.71 1069.16,-307.7 1070.84,-314.5"/>
</g>
<!-- Node21 -->
<g id="node21" class="node">
<title>Node21</title>
<g id="a_node21"><a xlink:href="_resource_manager_8hpp.html" target="_top" xlink:title=" ">
<polygon fill="white" stroke="black" points="774.5,-291.5 774.5,-310.5 927.5,-310.5 927.5,-291.5 774.5,-291.5"/>
<text text-anchor="middle" x="851" y="-298.5" font-family="Helvetica,sans-Serif" font-size="10.00">graphics/ResourceManager.hpp</text>
</a>
</g>
</g>
<!-- Node1&#45;&gt;Node21 -->
<g id="edge30" class="edge">
<title>Node1&#45;&gt;Node21</title>
<path fill="none" stroke="midnightblue" d="M851,-347.08C851,-340.01 851,-329.86 851,-320.99"/>
<polygon fill="midnightblue" stroke="midnightblue" points="854.5,-320.75 851,-310.75 847.5,-320.75 854.5,-320.75"/>
</g>
<!-- Node3 -->
<g id="node3" class="node">
<title>Node3</title>
<g id="a_node3"><a xlink:href="_cell_8hpp.html" target="_top" xlink:title=" ">
<polygon fill="white" stroke="black" points="520.5,-230 520.5,-249 637.5,-249 637.5,-230 520.5,-230"/>
<text text-anchor="middle" x="579" y="-237" font-family="Helvetica,sans-Serif" font-size="10.00">engine/objects/Cell.hpp</text>
</a>
</g>
</g>
<!-- Node2&#45;&gt;Node3 -->
<g id="edge2" class="edge">
<title>Node2&#45;&gt;Node3</title>
<path fill="none" stroke="midnightblue" d="M653.54,-291.48C639.58,-281.93 616.74,-266.31 600.01,-254.87"/>
<polygon fill="midnightblue" stroke="midnightblue" points="601.67,-251.77 591.44,-249.01 597.72,-257.54 601.67,-251.77"/>
</g>
<!-- Node6 -->
<g id="node6" class="node">
<title>Node6</title>
<g id="a_node6"><a xlink:href="_vector2_d_8hpp.html" target="_top" xlink:title=" ">
<polygon fill="white" stroke="black" points="568,-56.5 568,-75.5 680,-75.5 680,-56.5 568,-56.5"/>
<text text-anchor="middle" x="624" y="-63.5" font-family="Helvetica,sans-Serif" font-size="10.00">Helpers/Vector2D.hpp</text>
</a>
</g>
</g>
<!-- Node2&#45;&gt;Node6 -->
<g id="edge16" class="edge">
<title>Node2&#45;&gt;Node6</title>
<path fill="none" stroke="midnightblue" d="M664.46,-291.43C658.37,-257.68 635.98,-133.47 627.39,-85.8"/>
<polygon fill="midnightblue" stroke="midnightblue" points="630.82,-85.12 625.6,-75.9 623.93,-86.36 630.82,-85.12"/>
</g>
<!-- Node4 -->
<g id="node4" class="node">
<title>Node4</title>
<g id="a_node4"><a xlink:href="_drawable_8hpp.html" target="_top" xlink:title=" ">
<polygon fill="white" stroke="black" points="367.5,-112.5 367.5,-131.5 474.5,-131.5 474.5,-112.5 367.5,-112.5"/>
<text text-anchor="middle" x="421" y="-119.5" font-family="Helvetica,sans-Serif" font-size="10.00">engine/Drawable.hpp</text>
</a>
</g>
</g>
<!-- Node3&#45;&gt;Node4 -->
<g id="edge3" class="edge">
<title>Node3&#45;&gt;Node4</title>
<path fill="none" stroke="midnightblue" d="M567.12,-229.82C540.25,-210.17 474.5,-162.11 441.13,-137.72"/>
<polygon fill="midnightblue" stroke="midnightblue" points="443.15,-134.86 433.01,-131.78 439.02,-140.51 443.15,-134.86"/>
</g>
<!-- Node8 -->
<g id="node8" class="node">
<title>Node8</title>
<g id="a_node8"><a xlink:href="_tickable_8hpp.html" target="_top" xlink:title=" ">
<polygon fill="white" stroke="black" points="492.5,-112.5 492.5,-131.5 595.5,-131.5 595.5,-112.5 492.5,-112.5"/>
<text text-anchor="middle" x="544" y="-119.5" font-family="Helvetica,sans-Serif" font-size="10.00">engine/Tickable.hpp</text>
</a>
</g>
</g>
<!-- Node3&#45;&gt;Node8 -->
<g id="edge7" class="edge">
<title>Node3&#45;&gt;Node8</title>
<path fill="none" stroke="midnightblue" d="M563.04,-229.92C549.03,-221.37 529.57,-206.83 521,-188 513.75,-172.07 522.29,-153.12 530.94,-139.81"/>
<polygon fill="midnightblue" stroke="midnightblue" points="533.84,-141.78 536.76,-131.6 528.12,-137.74 533.84,-141.78"/>
</g>
<!-- Node9 -->
<g id="node9" class="node">
<title>Node9</title>
<g id="a_node9"><a xlink:title=" ">
<polygon fill="white" stroke="#bfbfbf" points="698,-56.5 698,-75.5 742,-75.5 742,-56.5 698,-56.5"/>
<text text-anchor="middle" x="720" y="-63.5" font-family="Helvetica,sans-Serif" font-size="10.00">vector</text>
</a>
</g>
</g>
<!-- Node3&#45;&gt;Node9 -->
<g id="edge8" class="edge">
<title>Node3&#45;&gt;Node9</title>
<path fill="none" stroke="midnightblue" d="M585.82,-229.82C602.07,-209.21 644.45,-155.72 681,-112 689.06,-102.36 698.25,-91.74 705.69,-83.23"/>
<polygon fill="midnightblue" stroke="midnightblue" points="708.47,-85.37 712.43,-75.55 703.2,-80.76 708.47,-85.37"/>
</g>
<!-- Node10 -->
<g id="node10" class="node">
<title>Node10</title>
<g id="a_node10"><a xlink:href="_ground_8hpp.html" target="_top" xlink:title=" ">
<polygon fill="white" stroke="black" points="370,-168.5 370,-187.5 436,-187.5 436,-168.5 370,-168.5"/>
<text text-anchor="middle" x="403" y="-175.5" font-family="Helvetica,sans-Serif" font-size="10.00">Ground.hpp</text>
</a>
</g>
</g>
<!-- Node3&#45;&gt;Node10 -->
<g id="edge9" class="edge">
<title>Node3&#45;&gt;Node10</title>
<path fill="none" stroke="midnightblue" d="M553.78,-229.98C523.33,-219.68 471.95,-202.31 437.76,-190.75"/>
<polygon fill="midnightblue" stroke="midnightblue" points="438.76,-187.4 428.17,-187.51 436.52,-194.03 438.76,-187.4"/>
</g>
<!-- Node11 -->
<g id="node11" class="node">
<title>Node11</title>
<g id="a_node11"><a xlink:href="_building_8hpp.html" target="_top" xlink:title=" ">
<polygon fill="white" stroke="black" points="530.5,-168.5 530.5,-187.5 599.5,-187.5 599.5,-168.5 530.5,-168.5"/>
<text text-anchor="middle" x="565" y="-175.5" font-family="Helvetica,sans-Serif" font-size="10.00">Building.hpp</text>
</a>
</g>
</g>
<!-- Node3&#45;&gt;Node11 -->
<g id="edge12" class="edge">
<title>Node3&#45;&gt;Node11</title>
<path fill="none" stroke="midnightblue" d="M576.99,-229.98C575,-221.49 571.87,-208.2 569.31,-197.32"/>
<polygon fill="midnightblue" stroke="midnightblue" points="572.7,-196.44 567,-187.51 565.89,-198.04 572.7,-196.44"/>
</g>
<!-- Node5 -->
<g id="node5" class="node">
<title>Node5</title>
<g id="a_node5"><a xlink:title=" ">
<polygon fill="white" stroke="#bfbfbf" points="388,-56.5 388,-75.5 454,-75.5 454,-56.5 388,-56.5"/>
<text text-anchor="middle" x="421" y="-63.5" font-family="Helvetica,sans-Serif" font-size="10.00">string_view</text>
</a>
</g>
</g>
<!-- Node4&#45;&gt;Node5 -->
<g id="edge4" class="edge">
<title>Node4&#45;&gt;Node5</title>
<path fill="none" stroke="midnightblue" d="M421,-112.08C421,-105.01 421,-94.86 421,-85.99"/>
<polygon fill="midnightblue" stroke="midnightblue" points="424.5,-85.75 421,-75.75 417.5,-85.75 424.5,-85.75"/>
</g>
<!-- Node4&#45;&gt;Node6 -->
<g id="edge5" class="edge">
<title>Node4&#45;&gt;Node6</title>
<path fill="none" stroke="midnightblue" d="M453.17,-112.44C488.06,-103.16 543.89,-88.31 582.17,-78.13"/>
<polygon fill="midnightblue" stroke="midnightblue" points="583.22,-81.47 591.98,-75.52 581.42,-74.7 583.22,-81.47"/>
</g>
<!-- Node7 -->
<g id="node7" class="node">
<title>Node7</title>
<g id="a_node7"><a xlink:title=" ">
<polygon fill="white" stroke="#bfbfbf" points="677.5,-0.5 677.5,-19.5 716.5,-19.5 716.5,-0.5 677.5,-0.5"/>
<text text-anchor="middle" x="697" y="-7.5" font-family="Helvetica,sans-Serif" font-size="10.00">utility</text>
</a>
</g>
</g>
<!-- Node6&#45;&gt;Node7 -->
<g id="edge6" class="edge">
<title>Node6&#45;&gt;Node7</title>
<path fill="none" stroke="midnightblue" d="M635.73,-56.32C646.84,-48.11 663.74,-35.6 676.98,-25.81"/>
<polygon fill="midnightblue" stroke="midnightblue" points="679.1,-28.59 685.06,-19.83 674.94,-22.97 679.1,-28.59"/>
</g>
<!-- Node10&#45;&gt;Node4 -->
<g id="edge10" class="edge">
<title>Node10&#45;&gt;Node4</title>
<path fill="none" stroke="midnightblue" d="M405.97,-168.08C408.38,-160.85 411.86,-150.41 414.87,-141.4"/>
<polygon fill="midnightblue" stroke="midnightblue" points="418.24,-142.34 418.08,-131.75 411.6,-140.13 418.24,-142.34"/>
</g>
<!-- Node10&#45;&gt;Node8 -->
<g id="edge11" class="edge">
<title>Node10&#45;&gt;Node8</title>
<path fill="none" stroke="midnightblue" d="M425.34,-168.44C448.75,-159.48 485.74,-145.31 512.19,-135.18"/>
<polygon fill="midnightblue" stroke="midnightblue" points="513.68,-138.36 521.76,-131.52 511.17,-131.82 513.68,-138.36"/>
</g>
<!-- Node11&#45;&gt;Node4 -->
<g id="edge13" class="edge">
<title>Node11&#45;&gt;Node4</title>
<path fill="none" stroke="midnightblue" d="M542.18,-168.44C518.17,-159.44 480.17,-145.19 453.13,-135.05"/>
<polygon fill="midnightblue" stroke="midnightblue" points="454.3,-131.75 443.71,-131.52 451.84,-138.3 454.3,-131.75"/>
</g>
<!-- Node11&#45;&gt;Node8 -->
<g id="edge14" class="edge">
<title>Node11&#45;&gt;Node8</title>
<path fill="none" stroke="midnightblue" d="M561.53,-168.08C558.69,-160.77 554.57,-150.18 551.04,-141.1"/>
<polygon fill="midnightblue" stroke="midnightblue" points="554.29,-139.8 547.4,-131.75 547.77,-142.34 554.29,-139.8"/>
</g>
<!-- Node12 -->
<g id="node12" class="node">
<title>Node12</title>
<g id="a_node12"><a xlink:title=" ">
<polygon fill="white" stroke="#bfbfbf" points="690.5,-112.5 690.5,-131.5 749.5,-131.5 749.5,-112.5 690.5,-112.5"/>
<text text-anchor="middle" x="720" y="-119.5" font-family="Helvetica,sans-Serif" font-size="10.00">functional</text>
</a>
</g>
</g>
<!-- Node11&#45;&gt;Node12 -->
<g id="edge15" class="edge">
<title>Node11&#45;&gt;Node12</title>
<path fill="none" stroke="midnightblue" d="M589.56,-168.44C615.52,-159.4 656.67,-145.06 685.8,-134.92"/>
<polygon fill="midnightblue" stroke="midnightblue" points="687.26,-138.11 695.55,-131.52 684.96,-131.5 687.26,-138.11"/>
</g>
<!-- Node13&#45;&gt;Node3 -->
<g id="edge20" class="edge">
<title>Node13&#45;&gt;Node3</title>
<path fill="none" stroke="midnightblue" d="M409.37,-291.48C443.92,-281.09 502.42,-263.51 540.88,-251.95"/>
<polygon fill="midnightblue" stroke="midnightblue" points="542.11,-255.24 550.68,-249.01 540.1,-248.54 542.11,-255.24"/>
</g>
<!-- Node14 -->
<g id="node14" class="node">
<title>Node14</title>
<g id="a_node14"><a xlink:href="_ground_empty_8hpp.html" target="_top" xlink:title=" ">
<polygon fill="white" stroke="black" points="260,-224.5 260,-254.5 372,-254.5 372,-224.5 260,-224.5"/>
<text text-anchor="start" x="268" y="-242.5" font-family="Helvetica,sans-Serif" font-size="10.00">engine/objects/ground</text>
<text text-anchor="middle" x="316" y="-231.5" font-family="Helvetica,sans-Serif" font-size="10.00">/GroundEmpty.hpp</text>
</a>
</g>
</g>
<!-- Node13&#45;&gt;Node14 -->
<g id="edge18" class="edge">
<title>Node13&#45;&gt;Node14</title>
<path fill="none" stroke="midnightblue" d="M371.69,-291.48C363.13,-283.64 350.1,-271.71 338.79,-261.37"/>
<polygon fill="midnightblue" stroke="midnightblue" points="341.06,-258.69 331.32,-254.52 336.33,-263.86 341.06,-258.69"/>
</g>
<!-- Node15 -->
<g id="node15" class="node">
<title>Node15</title>
<g id="a_node15"><a xlink:href="_ground_earth_8hpp.html" target="_top" xlink:title=" ">
<polygon fill="white" stroke="black" points="390,-224.5 390,-254.5 502,-254.5 502,-224.5 390,-224.5"/>
<text text-anchor="start" x="398" y="-242.5" font-family="Helvetica,sans-Serif" font-size="10.00">engine/objects/ground</text>
<text text-anchor="middle" x="446" y="-231.5" font-family="Helvetica,sans-Serif" font-size="10.00">/GroundEarth.hpp</text>
</a>
</g>
</g>
<!-- Node13&#45;&gt;Node15 -->
<g id="edge21" class="edge">
<title>Node13&#45;&gt;Node15</title>
<path fill="none" stroke="midnightblue" d="M390.31,-291.48C398.87,-283.64 411.9,-271.71 423.21,-261.37"/>
<polygon fill="midnightblue" stroke="midnightblue" points="425.67,-263.86 430.68,-254.52 420.94,-258.69 425.67,-263.86"/>
</g>
<!-- Node16 -->
<g id="node16" class="node">
<title>Node16</title>
<g id="a_node16"><a xlink:href="_ground_water_8hpp.html" target="_top" xlink:title=" ">
<polygon fill="white" stroke="black" points="0,-224.5 0,-254.5 112,-254.5 112,-224.5 0,-224.5"/>
<text text-anchor="start" x="8" y="-242.5" font-family="Helvetica,sans-Serif" font-size="10.00">engine/objects/ground</text>
<text text-anchor="middle" x="56" y="-231.5" font-family="Helvetica,sans-Serif" font-size="10.00">/GroundWater.hpp</text>
</a>
</g>
</g>
<!-- Node13&#45;&gt;Node16 -->
<g id="edge23" class="edge">
<title>Node13&#45;&gt;Node16</title>
<path fill="none" stroke="midnightblue" d="M329.07,-291.77C278.64,-283.6 199.71,-270.37 122.26,-255.2"/>
<polygon fill="midnightblue" stroke="midnightblue" points="122.82,-251.74 112.34,-253.24 121.47,-258.61 122.82,-251.74"/>
</g>
<!-- Node17 -->
<g id="node17" class="node">
<title>Node17</title>
<g id="a_node17"><a xlink:href="_mineral_8hpp.html" target="_top" xlink:title=" ">
<polygon fill="white" stroke="black" points="130,-224.5 130,-254.5 242,-254.5 242,-224.5 130,-224.5"/>
<text text-anchor="start" x="138" y="-242.5" font-family="Helvetica,sans-Serif" font-size="10.00">engine/objects/ground</text>
<text text-anchor="middle" x="186" y="-231.5" font-family="Helvetica,sans-Serif" font-size="10.00">/Mineral.hpp</text>
</a>
</g>
</g>
<!-- Node13&#45;&gt;Node17 -->
<g id="edge25" class="edge">
<title>Node13&#45;&gt;Node17</title>
<path fill="none" stroke="midnightblue" d="M353.06,-291.48C324.18,-282.66 278.32,-268.67 241.94,-257.57"/>
<polygon fill="midnightblue" stroke="midnightblue" points="242.54,-254.09 231.96,-254.52 240.5,-260.79 242.54,-254.09"/>
</g>
<!-- Node14&#45;&gt;Node10 -->
<g id="edge19" class="edge">
<title>Node14&#45;&gt;Node10</title>
<path fill="none" stroke="midnightblue" d="M336.62,-224.4C350.3,-215.04 368.21,-202.79 381.98,-193.38"/>
<polygon fill="midnightblue" stroke="midnightblue" points="384.06,-196.19 390.34,-187.66 380.11,-190.41 384.06,-196.19"/>
</g>
<!-- Node15&#45;&gt;Node10 -->
<g id="edge22" class="edge">
<title>Node15&#45;&gt;Node10</title>
<path fill="none" stroke="midnightblue" d="M435.81,-224.4C429.63,-215.84 421.7,-204.87 415.18,-195.86"/>
<polygon fill="midnightblue" stroke="midnightblue" points="417.95,-193.71 409.26,-187.66 412.28,-197.81 417.95,-193.71"/>
</g>
<!-- Node16&#45;&gt;Node10 -->
<g id="edge24" class="edge">
<title>Node16&#45;&gt;Node10</title>
<path fill="none" stroke="midnightblue" d="M112.33,-225.71C115.26,-225.12 118.16,-224.54 121,-224 205.18,-207.91 304.25,-193.03 359.72,-185.07"/>
<polygon fill="midnightblue" stroke="midnightblue" points="360.49,-188.49 369.89,-183.61 359.5,-181.56 360.49,-188.49"/>
</g>
<!-- Node17&#45;&gt;Node10 -->
<g id="edge26" class="edge">
<title>Node17&#45;&gt;Node10</title>
<path fill="none" stroke="midnightblue" d="M237.15,-224.47C275.24,-214.03 326.57,-199.96 361.98,-190.25"/>
<polygon fill="midnightblue" stroke="midnightblue" points="363.26,-193.53 371.98,-187.51 361.41,-186.78 363.26,-193.53"/>
</g>
<!-- Node19 -->
<g id="node19" class="node">
<title>Node19</title>
<g id="a_node19"><a xlink:title=" ">
<polygon fill="white" stroke="#bfbfbf" points="1095,-230 1095,-249 1141,-249 1141,-230 1095,-230"/>
<text text-anchor="middle" x="1118" y="-237" font-family="Helvetica,sans-Serif" font-size="10.00">cstdint</text>
</a>
</g>
</g>
<!-- Node18&#45;&gt;Node19 -->
<g id="edge28" class="edge">
<title>Node18&#45;&gt;Node19</title>
<path fill="none" stroke="midnightblue" d="M1020.33,-291.48C1039.21,-281.62 1070.51,-265.29 1092.58,-253.77"/>
<polygon fill="midnightblue" stroke="midnightblue" points="1094.45,-256.74 1101.7,-249.01 1091.21,-250.53 1094.45,-256.74"/>
</g>
<!-- Node22 -->
<g id="node22" class="node">
<title>Node22</title>
<g id="a_node22"><a xlink:title=" ">
<polygon fill="white" stroke="#bfbfbf" points="772.5,-230 772.5,-249 807.5,-249 807.5,-230 772.5,-230"/>
<text text-anchor="middle" x="790" y="-237" font-family="Helvetica,sans-Serif" font-size="10.00">map</text>
</a>
</g>
</g>
<!-- Node21&#45;&gt;Node22 -->
<g id="edge31" class="edge">
<title>Node21&#45;&gt;Node22</title>
<path fill="none" stroke="midnightblue" d="M842.26,-291.48C832.84,-282.28 817.64,-267.46 806.05,-256.16"/>
<polygon fill="midnightblue" stroke="midnightblue" points="808.33,-253.49 798.72,-249.01 803.44,-258.5 808.33,-253.49"/>
</g>
<!-- Node23 -->
<g id="node23" class="node">
<title>Node23</title>
<g id="a_node23"><a xlink:title=" ">
<polygon fill="white" stroke="#bfbfbf" points="1072.5,-168.5 1072.5,-187.5 1113.5,-187.5 1113.5,-168.5 1072.5,-168.5"/>
<text text-anchor="middle" x="1093" y="-175.5" font-family="Helvetica,sans-Serif" font-size="10.00">string</text>
</a>
</g>
</g>
<!-- Node21&#45;&gt;Node23 -->
<g id="edge32" class="edge">
<title>Node21&#45;&gt;Node23</title>
<path fill="none" stroke="midnightblue" d="M911.95,-291.46C961.48,-283.55 1026.53,-270.66 1048,-255 1067.69,-240.63 1080.28,-214.79 1087,-197.28"/>
<polygon fill="midnightblue" stroke="midnightblue" points="1090.38,-198.22 1090.43,-187.62 1083.78,-195.87 1090.38,-198.22"/>
</g>
<!-- Node24 -->
<g id="node24" class="node">
<title>Node24</title>
<g id="a_node24"><a xlink:title=" ">
<polygon fill="white" stroke="#bfbfbf" points="825.5,-230 825.5,-249 876.5,-249 876.5,-230 825.5,-230"/>
<text text-anchor="middle" x="851" y="-237" font-family="Helvetica,sans-Serif" font-size="10.00">memory</text>
</a>
</g>
</g>
<!-- Node21&#45;&gt;Node24 -->
<g id="edge33" class="edge">
<title>Node21&#45;&gt;Node24</title>
<path fill="none" stroke="midnightblue" d="M851,-291.48C851,-283.08 851,-269.98 851,-259.16"/>
<polygon fill="midnightblue" stroke="midnightblue" points="854.5,-259.01 851,-249.01 847.5,-259.01 854.5,-259.01"/>
</g>
<!-- Node25 -->
<g id="node25" class="node">
<title>Node25</title>
<g id="a_node25"><a xlink:href="_shader_8hpp.html" target="_top" xlink:title=" ">
<polygon fill="white" stroke="black" points="933.5,-230 933.5,-249 1038.5,-249 1038.5,-230 933.5,-230"/>
<text text-anchor="middle" x="986" y="-237" font-family="Helvetica,sans-Serif" font-size="10.00">graphics/Shader.hpp</text>
</a>
</g>
</g>
<!-- Node21&#45;&gt;Node25 -->
<g id="edge34" class="edge">
<title>Node21&#45;&gt;Node25</title>
<path fill="none" stroke="midnightblue" d="M870.34,-291.48C893.1,-281.45 931.09,-264.7 957.29,-253.15"/>
<polygon fill="midnightblue" stroke="midnightblue" points="958.95,-256.24 966.69,-249.01 956.13,-249.84 958.95,-256.24"/>
</g>
<!-- Node26 -->
<g id="node26" class="node">
<title>Node26</title>
<g id="a_node26"><a xlink:href="_g_shape_8hpp.html" target="_top" xlink:title=" ">
<polygon fill="white" stroke="black" points="906,-168.5 906,-187.5 1016,-187.5 1016,-168.5 906,-168.5"/>
<text text-anchor="middle" x="961" y="-175.5" font-family="Helvetica,sans-Serif" font-size="10.00">graphics/GShape.hpp</text>
</a>
</g>
</g>
<!-- Node21&#45;&gt;Node26 -->
<g id="edge48" class="edge">
<title>Node21&#45;&gt;Node26</title>
<path fill="none" stroke="midnightblue" d="M858.91,-291.3C877.22,-271.15 922.77,-221.06 946.34,-195.12"/>
<polygon fill="midnightblue" stroke="midnightblue" points="949.02,-197.38 953.16,-187.62 943.84,-192.67 949.02,-197.38"/>
</g>
<!-- Node32 -->
<g id="node32" class="node">
<title>Node32</title>
<g id="a_node32"><a xlink:href="_event_handler_8hpp.html" target="_top" xlink:title=" ">
<polygon fill="white" stroke="black" points="694.5,-168.5 694.5,-187.5 849.5,-187.5 849.5,-168.5 694.5,-168.5"/>
<text text-anchor="middle" x="772" y="-175.5" font-family="Helvetica,sans-Serif" font-size="10.00">EventHandler/EventHandler.hpp</text>
</a>
</g>
</g>
<!-- Node21&#45;&gt;Node32 -->
<g id="edge49" class="edge">
<title>Node21&#45;&gt;Node32</title>
<path fill="none" stroke="midnightblue" d="M815.15,-291.4C796.12,-284.81 774.37,-273.59 763,-255 752.31,-237.52 757.76,-213.52 763.79,-197.2"/>
<polygon fill="midnightblue" stroke="midnightblue" points="767.12,-198.31 767.67,-187.73 760.64,-195.65 767.12,-198.31"/>
</g>
<!-- Node25&#45;&gt;Node23 -->
<g id="edge35" class="edge">
<title>Node25&#45;&gt;Node23</title>
<path fill="none" stroke="midnightblue" d="M1001.33,-229.98C1018.97,-220.17 1048.16,-203.93 1068.86,-192.42"/>
<polygon fill="midnightblue" stroke="midnightblue" points="1070.66,-195.43 1077.7,-187.51 1067.26,-189.31 1070.66,-195.43"/>
</g>
<!-- Node25&#45;&gt;Node26 -->
<g id="edge36" class="edge">
<title>Node25&#45;&gt;Node26</title>
<path fill="none" stroke="midnightblue" d="M977.52,-229.98C972.1,-221.49 966.06,-208.2 962.41,-197.32"/>
<polygon fill="midnightblue" stroke="midnightblue" points="965.73,-196.2 959.68,-187.51 958.99,-198.08 965.73,-196.2"/>
</g>
<!-- Node30 -->
<g id="node30" class="node">
<title>Node30</title>
<g id="a_node30"><a xlink:href="_transform_8hpp.html" target="_top" xlink:title=" ">
<polygon fill="white" stroke="black" points="976.5,-56.5 976.5,-75.5 1095.5,-75.5 1095.5,-56.5 976.5,-56.5"/>
<text text-anchor="middle" x="1036" y="-63.5" font-family="Helvetica,sans-Serif" font-size="10.00">graphics/Transform.hpp</text>
</a>
</g>
</g>
<!-- Node25&#45;&gt;Node30 -->
<g id="edge47" class="edge">
<title>Node25&#45;&gt;Node30</title>
<path fill="none" stroke="midnightblue" d="M995.26,-229.83C1004.57,-220.49 1018.44,-204.7 1025,-188 1038.44,-153.76 1038.68,-110.02 1037.46,-85.61"/>
<polygon fill="midnightblue" stroke="midnightblue" points="1040.95,-85.34 1036.82,-75.59 1033.96,-85.79 1040.95,-85.34"/>
</g>
<!-- Node26&#45;&gt;Node25 -->
<g id="edge45" class="edge">
<title>Node26&#45;&gt;Node25</title>
<path fill="none" stroke="midnightblue" d="M969.47,-187.51C974.89,-195.99 980.93,-209.27 984.58,-220.16"/>
<polygon fill="midnightblue" stroke="midnightblue" points="981.26,-221.28 987.32,-229.98 988,-219.4 981.26,-221.28"/>
</g>
<!-- Node27 -->
<g id="node27" class="node">
<title>Node27</title>
<g id="a_node27"><a xlink:href="_window_8hpp.html" target="_top" xlink:title=" ">
<polygon fill="white" stroke="black" points="812.5,-112.5 812.5,-131.5 921.5,-131.5 921.5,-112.5 812.5,-112.5"/>
<text text-anchor="middle" x="867" y="-119.5" font-family="Helvetica,sans-Serif" font-size="10.00">graphics/Window.hpp</text>
</a>
</g>
</g>
<!-- Node26&#45;&gt;Node27 -->
<g id="edge37" class="edge">
<title>Node26&#45;&gt;Node27</title>
<path fill="none" stroke="midnightblue" d="M945.9,-168.32C931.1,-159.82 908.31,-146.73 891.02,-136.8"/>
<polygon fill="midnightblue" stroke="midnightblue" points="892.48,-133.6 882.07,-131.65 888.99,-139.67 892.48,-133.6"/>
</g>
<!-- Node26&#45;&gt;Node30 -->
<g id="edge46" class="edge">
<title>Node26&#45;&gt;Node30</title>
<path fill="none" stroke="midnightblue" d="M966.89,-168.37C979.26,-150.22 1008.18,-107.8 1024.42,-83.99"/>
<polygon fill="midnightblue" stroke="midnightblue" points="1027.4,-85.83 1030.14,-75.59 1021.62,-81.88 1027.4,-85.83"/>
</g>
<!-- Node27&#45;&gt;Node7 -->
<g id="edge40" class="edge">
<title>Node27&#45;&gt;Node7</title>
<path fill="none" stroke="midnightblue" d="M851.21,-112.45C835.27,-103.69 810.07,-89.48 789,-76 763.38,-59.61 734.93,-39.14 716.54,-25.6"/>
<polygon fill="midnightblue" stroke="midnightblue" points="718.5,-22.69 708.38,-19.56 714.34,-28.32 718.5,-22.69"/>
</g>
<!-- Node27&#45;&gt;Node9 -->
<g id="edge41" class="edge">
<title>Node27&#45;&gt;Node9</title>
<path fill="none" stroke="midnightblue" d="M843.71,-112.44C818.9,-103.33 779.49,-88.85 751.83,-78.69"/>
<polygon fill="midnightblue" stroke="midnightblue" points="752.81,-75.33 742.22,-75.16 750.4,-81.9 752.81,-75.33"/>
</g>
<!-- Node27&#45;&gt;Node25 -->
<g id="edge42" class="edge">
<title>Node27&#45;&gt;Node25</title>
<path fill="none" stroke="midnightblue" d="M869.11,-131.54C872.79,-144.95 881.52,-171.17 897,-188 912.46,-204.81 934.85,-217.48 953.3,-225.92"/>
<polygon fill="midnightblue" stroke="midnightblue" points="951.96,-229.16 962.53,-229.95 954.76,-222.74 951.96,-229.16"/>
</g>
<!-- Node28 -->
<g id="node28" class="node">
<title>Node28</title>
<g id="a_node28"><a xlink:title=" ">
<polygon fill="white" stroke="#bfbfbf" points="798.5,-56.5 798.5,-75.5 861.5,-75.5 861.5,-56.5 798.5,-56.5"/>
<text text-anchor="middle" x="830" y="-63.5" font-family="Helvetica,sans-Serif" font-size="10.00">glad/glad.h</text>
</a>
</g>
</g>
<!-- Node27&#45;&gt;Node28 -->
<g id="edge38" class="edge">
<title>Node27&#45;&gt;Node28</title>
<path fill="none" stroke="midnightblue" d="M860.89,-112.08C855.72,-104.53 848.15,-93.49 841.81,-84.23"/>
<polygon fill="midnightblue" stroke="midnightblue" points="844.54,-82.02 836,-75.75 838.76,-85.98 844.54,-82.02"/>
</g>
<!-- Node29 -->
<g id="node29" class="node">
<title>Node29</title>
<g id="a_node29"><a xlink:title=" ">
<polygon fill="white" stroke="#bfbfbf" points="879.5,-56.5 879.5,-75.5 958.5,-75.5 958.5,-56.5 879.5,-56.5"/>
<text text-anchor="middle" x="919" y="-63.5" font-family="Helvetica,sans-Serif" font-size="10.00">GLFW/glfw3.h</text>
</a>
</g>
</g>
<!-- Node27&#45;&gt;Node29 -->
<g id="edge39" class="edge">
<title>Node27&#45;&gt;Node29</title>
<path fill="none" stroke="midnightblue" d="M875.59,-112.08C883.16,-104.22 894.38,-92.57 903.51,-83.08"/>
<polygon fill="midnightblue" stroke="midnightblue" points="906.16,-85.38 910.57,-75.75 901.12,-80.53 906.16,-85.38"/>
</g>
<!-- Node27&#45;&gt;Node30 -->
<g id="edge43" class="edge">
<title>Node27&#45;&gt;Node30</title>
<path fill="none" stroke="midnightblue" d="M893.78,-112.44C922.33,-103.32 967.73,-88.81 999.54,-78.65"/>
<polygon fill="midnightblue" stroke="midnightblue" points="1000.89,-81.89 1009.35,-75.52 998.76,-75.23 1000.89,-81.89"/>
</g>
<!-- Node31 -->
<g id="node31" class="node">
<title>Node31</title>
<g id="a_node31"><a xlink:title=" ">
<polygon fill="white" stroke="#bfbfbf" points="984,-0.5 984,-19.5 1088,-19.5 1088,-0.5 984,-0.5"/>
<text text-anchor="middle" x="1036" y="-7.5" font-family="Helvetica,sans-Serif" font-size="10.00">glm/gtc/type_ptr.hpp</text>
</a>
</g>
</g>
<!-- Node30&#45;&gt;Node31 -->
<g id="edge44" class="edge">
<title>Node30&#45;&gt;Node31</title>
<path fill="none" stroke="midnightblue" d="M1036,-56.08C1036,-49.01 1036,-38.86 1036,-29.99"/>
<polygon fill="midnightblue" stroke="midnightblue" points="1039.5,-29.75 1036,-19.75 1032.5,-29.75 1039.5,-29.75"/>
</g>
<!-- Node32&#45;&gt;Node6 -->
<g id="edge52" class="edge">
<title>Node32&#45;&gt;Node6</title>
<path fill="none" stroke="midnightblue" d="M772.66,-168.23C773.2,-154.49 772.16,-127.83 758,-112 746.36,-98.98 706.27,-86.54 672.95,-78.05"/>
<polygon fill="midnightblue" stroke="midnightblue" points="673.41,-74.55 662.86,-75.54 671.72,-81.35 673.41,-74.55"/>
</g>
<!-- Node32&#45;&gt;Node12 -->
<g id="edge50" class="edge">
<title>Node32&#45;&gt;Node12</title>
<path fill="none" stroke="midnightblue" d="M763.41,-168.08C755.84,-160.22 744.62,-148.57 735.49,-139.08"/>
<polygon fill="midnightblue" stroke="midnightblue" points="737.88,-136.53 728.43,-131.75 732.84,-141.38 737.88,-136.53"/>
</g>
<!-- Node32&#45;&gt;Node27 -->
<g id="edge51" class="edge">
<title>Node32&#45;&gt;Node27</title>
<path fill="none" stroke="midnightblue" d="M787.26,-168.32C802.22,-159.82 825.25,-146.73 842.73,-136.8"/>
<polygon fill="midnightblue" stroke="midnightblue" points="844.81,-139.64 851.77,-131.65 841.35,-133.55 844.81,-139.64"/>
</g>
</g>
</svg>
