<?xml version="1.0" encoding="UTF-8" standalone="no"?>
<!DOCTYPE svg PUBLIC "-//W3C//DTD SVG 1.1//EN"
 "http://www.w3.org/Graphics/SVG/1.1/DTD/svg11.dtd">
<!-- Generated by graphviz version 2.47.0 (20210407.0042)
 -->
<!-- Title: include/engine/Field.hpp Pages: 1 -->
<svg width="496pt" height="341pt"
 viewBox="0.00 0.00 496.00 341.00" xmlns="http://www.w3.org/2000/svg" xmlns:xlink="http://www.w3.org/1999/xlink">
<g id="graph0" class="graph" transform="scale(1 1) rotate(0) translate(4 337)">
<title>include/engine/Field.hpp</title>
<polygon fill="white" stroke="transparent" points="-4,4 -4,-337 492,-337 492,4 -4,4"/>
<!-- Node1 -->
<g id="node1" class="node">
<title>Node1</title>
<g id="a_node1"><a xlink:title=" ">
<polygon fill="#bfbfbf" stroke="black" points="73,-313.5 73,-332.5 194,-332.5 194,-313.5 73,-313.5"/>
<text text-anchor="middle" x="133.5" y="-320.5" font-family="Helvetica,sans-Serif" font-size="10.00">include/engine/Field.hpp</text>
</a>
</g>
</g>
<!-- Node2 -->
<g id="node2" class="node">
<title>Node2</title>
<g id="a_node2"><a xlink:href="_field_8cpp.html" target="_top" xlink:title=" ">
<polygon fill="white" stroke="black" points="9.5,-257.5 9.5,-276.5 113.5,-276.5 113.5,-257.5 9.5,-257.5"/>
<text text-anchor="middle" x="61.5" y="-264.5" font-family="Helvetica,sans-Serif" font-size="10.00">src/engine/Field.cpp</text>
</a>
</g>
</g>
<!-- Node1&#45;&gt;Node2 -->
<g id="edge1" class="edge">
<title>Node1&#45;&gt;Node2</title>
<path fill="none" stroke="midnightblue" d="M113.63,-307.1C100.68,-297.38 84.2,-285.03 73.28,-276.83"/>
<polygon fill="midnightblue" stroke="midnightblue" points="111.83,-310.12 121.93,-313.32 116.03,-304.52 111.83,-310.12"/>
</g>
<!-- Node3 -->
<g id="node3" class="node">
<title>Node3</title>
<g id="a_node3"><a xlink:href="_world_actor_8hpp.html" target="_top" xlink:title=" ">
<polygon fill="white" stroke="black" points="131.5,-257.5 131.5,-276.5 279.5,-276.5 279.5,-257.5 131.5,-257.5"/>
<text text-anchor="middle" x="205.5" y="-264.5" font-family="Helvetica,sans-Serif" font-size="10.00">include/engine/WorldActor.hpp</text>
</a>
</g>
</g>
<!-- Node1&#45;&gt;Node3 -->
<g id="edge2" class="edge">
<title>Node1&#45;&gt;Node3</title>
<path fill="none" stroke="midnightblue" d="M153.37,-307.1C166.32,-297.38 182.8,-285.03 193.72,-276.83"/>
<polygon fill="midnightblue" stroke="midnightblue" points="150.97,-304.52 145.07,-313.32 155.17,-310.12 150.97,-304.52"/>
</g>
<!-- Node4 -->
<g id="node4" class="node">
<title>Node4</title>
<g id="a_node4"><a xlink:href="_world_actor_8cpp.html" target="_top" xlink:title=" ">
<polygon fill="white" stroke="black" points="0,-196 0,-215 131,-215 131,-196 0,-196"/>
<text text-anchor="middle" x="65.5" y="-203" font-family="Helvetica,sans-Serif" font-size="10.00">src/engine/WorldActor.cpp</text>
</a>
</g>
</g>
<!-- Node3&#45;&gt;Node4 -->
<g id="edge3" class="edge">
<title>Node3&#45;&gt;Node4</title>
<path fill="none" stroke="midnightblue" d="M176.04,-253.48C148.85,-241.92 109.21,-225.08 85.52,-215.01"/>
<polygon fill="midnightblue" stroke="midnightblue" points="174.87,-256.78 185.44,-257.48 177.61,-250.34 174.87,-256.78"/>
</g>
<!-- Node5 -->
<g id="node5" class="node">
<title>Node5</title>
<g id="a_node5"><a xlink:href="_player_8hpp.html" target="_top" xlink:title=" ">
<polygon fill="white" stroke="black" points="149,-190.5 149,-220.5 262,-220.5 262,-190.5 149,-190.5"/>
<text text-anchor="start" x="157" y="-208.5" font-family="Helvetica,sans-Serif" font-size="10.00">include/engine/objects</text>
<text text-anchor="middle" x="205.5" y="-197.5" font-family="Helvetica,sans-Serif" font-size="10.00">/Player.hpp</text>
</a>
</g>
</g>
<!-- Node3&#45;&gt;Node5 -->
<g id="edge4" class="edge">
<title>Node3&#45;&gt;Node5</title>
<path fill="none" stroke="midnightblue" d="M205.5,-247.23C205.5,-238.59 205.5,-228.5 205.5,-220.52"/>
<polygon fill="midnightblue" stroke="midnightblue" points="202,-247.48 205.5,-257.48 209,-247.48 202,-247.48"/>
</g>
<!-- Node11 -->
<g id="node11" class="node">
<title>Node11</title>
<g id="a_node11"><a xlink:href="_unit_8hpp.html" target="_top" xlink:title=" ">
<polygon fill="white" stroke="black" points="280,-190.5 280,-220.5 393,-220.5 393,-190.5 280,-190.5"/>
<text text-anchor="start" x="288" y="-208.5" font-family="Helvetica,sans-Serif" font-size="10.00">include/engine/objects</text>
<text text-anchor="middle" x="336.5" y="-197.5" font-family="Helvetica,sans-Serif" font-size="10.00">/Unit.hpp</text>
</a>
</g>
</g>
<!-- Node3&#45;&gt;Node11 -->
<g id="edge10" class="edge">
<title>Node3&#45;&gt;Node11</title>
<path fill="none" stroke="midnightblue" d="M233.39,-253.33C254.59,-243.7 283.73,-230.47 305.63,-220.52"/>
<polygon fill="midnightblue" stroke="midnightblue" points="231.93,-250.15 224.27,-257.48 234.82,-256.53 231.93,-250.15"/>
</g>
<!-- Node6 -->
<g id="node6" class="node">
<title>Node6</title>
<g id="a_node6"><a xlink:href="_player_8cpp.html" target="_top" xlink:title=" ">
<polygon fill="white" stroke="black" points="108.5,-123.5 108.5,-153.5 204.5,-153.5 204.5,-123.5 108.5,-123.5"/>
<text text-anchor="start" x="116.5" y="-141.5" font-family="Helvetica,sans-Serif" font-size="10.00">src/engine/objects</text>
<text text-anchor="middle" x="156.5" y="-130.5" font-family="Helvetica,sans-Serif" font-size="10.00">/Player.cpp</text>
</a>
</g>
</g>
<!-- Node5&#45;&gt;Node6 -->
<g id="edge5" class="edge">
<title>Node5&#45;&gt;Node6</title>
<path fill="none" stroke="midnightblue" d="M188.66,-182.16C181.51,-172.68 173.4,-161.92 167.11,-153.58"/>
<polygon fill="midnightblue" stroke="midnightblue" points="186.05,-184.52 194.87,-190.4 191.64,-180.3 186.05,-184.52"/>
</g>
<!-- Node7 -->
<g id="node7" class="node">
<title>Node7</title>
<g id="a_node7"><a xlink:href="_engine_8hpp.html" target="_top" xlink:title=" ">
<polygon fill="white" stroke="black" points="225.5,-62 225.5,-81 323.5,-81 323.5,-62 225.5,-62"/>
<text text-anchor="middle" x="274.5" y="-69" font-family="Helvetica,sans-Serif" font-size="10.00">include/Engine.hpp</text>
</a>
</g>
</g>
<!-- Node5&#45;&gt;Node7 -->
<g id="edge6" class="edge">
<title>Node5&#45;&gt;Node7</title>
<path fill="none" stroke="midnightblue" d="M217.53,-181.49C233.11,-151.68 259.51,-101.17 270.01,-81.1"/>
<polygon fill="midnightblue" stroke="midnightblue" points="214.42,-179.89 212.88,-190.37 220.62,-183.13 214.42,-179.89"/>
</g>
<!-- Node8 -->
<g id="node8" class="node">
<title>Node8</title>
<g id="a_node8"><a xlink:href="_drawable_8cpp.html" target="_top" xlink:title=" ">
<polygon fill="white" stroke="black" points="93,-0.5 93,-19.5 216,-19.5 216,-0.5 93,-0.5"/>
<text text-anchor="middle" x="154.5" y="-7.5" font-family="Helvetica,sans-Serif" font-size="10.00">src/engine/Drawable.cpp</text>
</a>
</g>
</g>
<!-- Node7&#45;&gt;Node8 -->
<g id="edge7" class="edge">
<title>Node7&#45;&gt;Node8</title>
<path fill="none" stroke="midnightblue" d="M248.32,-57.52C225.05,-45.98 191.7,-29.44 171.66,-19.51"/>
<polygon fill="midnightblue" stroke="midnightblue" points="246.79,-60.67 257.31,-61.98 249.9,-54.4 246.79,-60.67"/>
</g>
<!-- Node9 -->
<g id="node9" class="node">
<title>Node9</title>
<g id="a_node9"><a xlink:href="_engine_8cpp.html" target="_top" xlink:title=" ">
<polygon fill="white" stroke="black" points="234.5,-0.5 234.5,-19.5 314.5,-19.5 314.5,-0.5 234.5,-0.5"/>
<text text-anchor="middle" x="274.5" y="-7.5" font-family="Helvetica,sans-Serif" font-size="10.00">src/Engine.cpp</text>
</a>
</g>
</g>
<!-- Node7&#45;&gt;Node9 -->
<g id="edge8" class="edge">
<title>Node7&#45;&gt;Node9</title>
<path fill="none" stroke="midnightblue" d="M274.5,-51.82C274.5,-41 274.5,-27.9 274.5,-19.51"/>
<polygon fill="midnightblue" stroke="midnightblue" points="271,-51.98 274.5,-61.98 278,-51.98 271,-51.98"/>
</g>
<!-- Node10 -->
<g id="node10" class="node">
<title>Node10</title>
<g id="a_node10"><a xlink:href="main_8cpp.html" target="_top" xlink:title=" ">
<polygon fill="white" stroke="black" points="332.5,-0.5 332.5,-19.5 404.5,-19.5 404.5,-0.5 332.5,-0.5"/>
<text text-anchor="middle" x="368.5" y="-7.5" font-family="Helvetica,sans-Serif" font-size="10.00">src/main.cpp</text>
</a>
</g>
</g>
<!-- Node7&#45;&gt;Node10 -->
<g id="edge9" class="edge">
<title>Node7&#45;&gt;Node10</title>
<path fill="none" stroke="midnightblue" d="M296.73,-56.43C314.85,-44.96 339.85,-29.13 355.06,-19.51"/>
<polygon fill="midnightblue" stroke="midnightblue" points="294.55,-53.67 287.97,-61.98 298.29,-59.58 294.55,-53.67"/>
</g>
<!-- Node12 -->
<g id="node12" class="node">
<title>Node12</title>
<g id="a_node12"><a xlink:href="_unit_8cpp.html" target="_top" xlink:title=" ">
<polygon fill="white" stroke="black" points="260.5,-123.5 260.5,-153.5 356.5,-153.5 356.5,-123.5 260.5,-123.5"/>
<text text-anchor="start" x="268.5" y="-141.5" font-family="Helvetica,sans-Serif" font-size="10.00">src/engine/objects</text>
<text text-anchor="middle" x="308.5" y="-130.5" font-family="Helvetica,sans-Serif" font-size="10.00">/Unit.cpp</text>
</a>
</g>
</g>
<!-- Node11&#45;&gt;Node12 -->
<g id="edge11" class="edge">
<title>Node11&#45;&gt;Node12</title>
<path fill="none" stroke="midnightblue" d="M326.37,-180.99C322.42,-171.8 318.01,-161.58 314.56,-153.58"/>
<polygon fill="midnightblue" stroke="midnightblue" points="323.25,-182.6 330.42,-190.4 329.68,-179.83 323.25,-182.6"/>
</g>
<!-- Node13 -->
<g id="node13" class="node">
<title>Node13</title>
<g id="a_node13"><a xlink:href="_unit_group_8hpp.html" target="_top" xlink:title=" ">
<polygon fill="white" stroke="black" points="375,-123.5 375,-153.5 488,-153.5 488,-123.5 375,-123.5"/>
<text text-anchor="start" x="383" y="-141.5" font-family="Helvetica,sans-Serif" font-size="10.00">include/engine/objects</text>
<text text-anchor="middle" x="431.5" y="-130.5" font-family="Helvetica,sans-Serif" font-size="10.00">/UnitGroup.hpp</text>
</a>
</g>
</g>
<!-- Node11&#45;&gt;Node13 -->
<g id="edge12" class="edge">
<title>Node11&#45;&gt;Node13</title>
<path fill="none" stroke="midnightblue" d="M365.39,-184.73C380.09,-174.68 397.61,-162.68 410.93,-153.58"/>
<polygon fill="midnightblue" stroke="midnightblue" points="363.39,-181.86 357.11,-190.4 367.34,-187.64 363.39,-181.86"/>
</g>
<!-- Node13&#45;&gt;Node7 -->
<g id="edge14" class="edge">
<title>Node13&#45;&gt;Node7</title>
<path fill="none" stroke="midnightblue" d="M387.92,-119.46C357.59,-106.9 318.52,-90.72 295.05,-81.01"/>
<polygon fill="midnightblue" stroke="midnightblue" points="386.86,-122.8 397.43,-123.4 389.53,-116.34 386.86,-122.8"/>
</g>
<!-- Node14 -->
<g id="node14" class="node">
<title>Node14</title>
<g id="a_node14"><a xlink:href="_unit_group_8cpp.html" target="_top" xlink:title=" ">
<polygon fill="white" stroke="black" points="383.5,-56.5 383.5,-86.5 479.5,-86.5 479.5,-56.5 383.5,-56.5"/>
<text text-anchor="start" x="391.5" y="-74.5" font-family="Helvetica,sans-Serif" font-size="10.00">src/engine/objects</text>
<text text-anchor="middle" x="431.5" y="-63.5" font-family="Helvetica,sans-Serif" font-size="10.00">/UnitGroup.cpp</text>
</a>
</g>
</g>
<!-- Node13&#45;&gt;Node14 -->
<g id="edge13" class="edge">
<title>Node13&#45;&gt;Node14</title>
<path fill="none" stroke="midnightblue" d="M431.5,-113.11C431.5,-104.15 431.5,-94.32 431.5,-86.58"/>
<polygon fill="midnightblue" stroke="midnightblue" points="428,-113.4 431.5,-123.4 435,-113.4 428,-113.4"/>
</g>
</g>
</svg>
