<?xml version="1.0" encoding="UTF-8" standalone="no"?>
<!DOCTYPE svg PUBLIC "-//W3C//DTD SVG 1.1//EN"
 "http://www.w3.org/Graphics/SVG/1.1/DTD/svg11.dtd">
<!-- Generated by graphviz version 2.47.0 (20210407.0042)
 -->
<!-- Title: src/engine/Field.cpp Pages: 1 -->
<svg width="1136pt" height="375pt"
 viewBox="0.00 0.00 1135.50 375.00" xmlns="http://www.w3.org/2000/svg" xmlns:xlink="http://www.w3.org/1999/xlink">
<g id="graph0" class="graph" transform="scale(1 1) rotate(0) translate(4 371)">
<title>src/engine/Field.cpp</title>
<polygon fill="white" stroke="transparent" points="-4,4 -4,-371 1131.5,-371 1131.5,4 -4,4"/>
<!-- Node1 -->
<g id="node1" class="node">
<title>Node1</title>
<g id="a_node1"><a xlink:title=" ">
<polygon fill="#bfbfbf" stroke="black" points="656,-347.5 656,-366.5 760,-366.5 760,-347.5 656,-347.5"/>
<text text-anchor="middle" x="708" y="-354.5" font-family="Helvetica,sans-Serif" font-size="10.00">src/engine/Field.cpp</text>
</a>
</g>
</g>
<!-- Node2 -->
<g id="node2" class="node">
<title>Node2</title>
<g id="a_node2"><a xlink:href="_field_8hpp.html" target="_top" xlink:title=" ">
<polygon fill="white" stroke="black" points="544.5,-291.5 544.5,-310.5 631.5,-310.5 631.5,-291.5 544.5,-291.5"/>
<text text-anchor="middle" x="588" y="-298.5" font-family="Helvetica,sans-Serif" font-size="10.00">engine/Field.hpp</text>
</a>
</g>
</g>
<!-- Node1&#45;&gt;Node2 -->
<g id="edge1" class="edge">
<title>Node1&#45;&gt;Node2</title>
<path fill="none" stroke="midnightblue" d="M688.99,-347.44C669.41,-338.64 638.69,-324.81 616.27,-314.72"/>
<polygon fill="midnightblue" stroke="midnightblue" points="617.48,-311.43 606.93,-310.52 614.61,-317.81 617.48,-311.43"/>
</g>
<!-- Node12 -->
<g id="node12" class="node">
<title>Node12</title>
<g id="a_node12"><a xlink:href="_sprites_manager_8hpp.html" target="_top" xlink:title=" ">
<polygon fill="white" stroke="black" points="329.5,-291.5 329.5,-310.5 432.5,-310.5 432.5,-291.5 329.5,-291.5"/>
<text text-anchor="middle" x="381" y="-298.5" font-family="Helvetica,sans-Serif" font-size="10.00">SpritesManager.hpp</text>
</a>
</g>
</g>
<!-- Node1&#45;&gt;Node12 -->
<g id="edge16" class="edge">
<title>Node1&#45;&gt;Node12</title>
<path fill="none" stroke="midnightblue" d="M656.19,-347.44C598.18,-337.87 504.26,-322.36 442.56,-312.17"/>
<polygon fill="midnightblue" stroke="midnightblue" points="443.01,-308.69 432.57,-310.52 441.87,-315.6 443.01,-308.69"/>
</g>
<!-- Node17 -->
<g id="node17" class="node">
<title>Node17</title>
<g id="a_node17"><a xlink:href="_constants_manager_8hpp.html" target="_top" xlink:title=" ">
<polygon fill="white" stroke="black" points="650,-291.5 650,-310.5 766,-310.5 766,-291.5 650,-291.5"/>
<text text-anchor="middle" x="708" y="-298.5" font-family="Helvetica,sans-Serif" font-size="10.00">ConstantsManager.hpp</text>
</a>
</g>
</g>
<!-- Node1&#45;&gt;Node17 -->
<g id="edge26" class="edge">
<title>Node1&#45;&gt;Node17</title>
<path fill="none" stroke="midnightblue" d="M708,-347.08C708,-340.01 708,-329.86 708,-320.99"/>
<polygon fill="midnightblue" stroke="midnightblue" points="711.5,-320.75 708,-310.75 704.5,-320.75 711.5,-320.75"/>
</g>
<!-- Node19 -->
<g id="node19" class="node">
<title>Node19</title>
<g id="a_node19"><a xlink:title=" ">
<polygon fill="white" stroke="#bfbfbf" points="784,-291.5 784,-310.5 828,-310.5 828,-291.5 784,-291.5"/>
<text text-anchor="middle" x="806" y="-298.5" font-family="Helvetica,sans-Serif" font-size="10.00">cmath</text>
</a>
</g>
</g>
<!-- Node1&#45;&gt;Node19 -->
<g id="edge28" class="edge">
<title>Node1&#45;&gt;Node19</title>
<path fill="none" stroke="midnightblue" d="M723.75,-347.32C739.32,-338.74 763.38,-325.49 781.46,-315.52"/>
<polygon fill="midnightblue" stroke="midnightblue" points="783.22,-318.55 790.29,-310.65 779.85,-312.42 783.22,-318.55"/>
</g>
<!-- Node20 -->
<g id="node20" class="node">
<title>Node20</title>
<g id="a_node20"><a xlink:href="_resource_manager_8hpp.html" target="_top" xlink:title=" ">
<polygon fill="white" stroke="black" points="846.5,-291.5 846.5,-310.5 999.5,-310.5 999.5,-291.5 846.5,-291.5"/>
<text text-anchor="middle" x="923" y="-298.5" font-family="Helvetica,sans-Serif" font-size="10.00">graphics/ResourceManager.hpp</text>
</a>
</g>
</g>
<!-- Node1&#45;&gt;Node20 -->
<g id="edge29" class="edge">
<title>Node1&#45;&gt;Node20</title>
<path fill="none" stroke="midnightblue" d="M742.07,-347.44C779.18,-338.12 838.66,-323.18 879.21,-313"/>
<polygon fill="midnightblue" stroke="midnightblue" points="880.25,-316.35 889.09,-310.52 878.54,-309.56 880.25,-316.35"/>
</g>
<!-- Node3 -->
<g id="node3" class="node">
<title>Node3</title>
<g id="a_node3"><a xlink:href="_cell_8hpp.html" target="_top" xlink:title=" ">
<polygon fill="white" stroke="black" points="520.5,-230 520.5,-249 637.5,-249 637.5,-230 520.5,-230"/>
<text text-anchor="middle" x="579" y="-237" font-family="Helvetica,sans-Serif" font-size="10.00">engine/objects/Cell.hpp</text>
</a>
</g>
</g>
<!-- Node2&#45;&gt;Node3 -->
<g id="edge2" class="edge">
<title>Node2&#45;&gt;Node3</title>
<path fill="none" stroke="midnightblue" d="M586.71,-291.48C585.44,-283.08 583.46,-269.98 581.82,-259.16"/>
<polygon fill="midnightblue" stroke="midnightblue" points="585.24,-258.37 580.29,-249.01 578.32,-259.42 585.24,-258.37"/>
</g>
<!-- Node6 -->
<g id="node6" class="node">
<title>Node6</title>
<g id="a_node6"><a xlink:href="_vector2_d_8hpp.html" target="_top" xlink:title=" ">
<polygon fill="white" stroke="black" points="600,-56.5 600,-75.5 712,-75.5 712,-56.5 600,-56.5"/>
<text text-anchor="middle" x="656" y="-63.5" font-family="Helvetica,sans-Serif" font-size="10.00">Helpers/Vector2D.hpp</text>
</a>
</g>
</g>
<!-- Node2&#45;&gt;Node6 -->
<g id="edge15" class="edge">
<title>Node2&#45;&gt;Node6</title>
<path fill="none" stroke="midnightblue" d="M606.48,-291.44C620.3,-283.95 638.26,-271.65 647,-255 676.33,-199.14 666.54,-120.58 659.95,-85.35"/>
<polygon fill="midnightblue" stroke="midnightblue" points="663.38,-84.64 657.98,-75.52 656.51,-86.01 663.38,-84.64"/>
</g>
<!-- Node4 -->
<g id="node4" class="node">
<title>Node4</title>
<g id="a_node4"><a xlink:href="_drawable_8hpp.html" target="_top" xlink:title=" ">
<polygon fill="white" stroke="black" points="404.5,-112.5 404.5,-131.5 511.5,-131.5 511.5,-112.5 404.5,-112.5"/>
<text text-anchor="middle" x="458" y="-119.5" font-family="Helvetica,sans-Serif" font-size="10.00">engine/Drawable.hpp</text>
</a>
</g>
</g>
<!-- Node3&#45;&gt;Node4 -->
<g id="edge3" class="edge">
<title>Node3&#45;&gt;Node4</title>
<path fill="none" stroke="midnightblue" d="M546.98,-229.85C524.69,-222.27 495.87,-209.09 478,-188 466.92,-174.92 461.97,-155.77 459.77,-141.64"/>
<polygon fill="midnightblue" stroke="midnightblue" points="463.23,-141.09 458.52,-131.6 456.28,-141.95 463.23,-141.09"/>
</g>
<!-- Node8 -->
<g id="node8" class="node">
<title>Node8</title>
<g id="a_node8"><a xlink:href="_tickable_8hpp.html" target="_top" xlink:title=" ">
<polygon fill="white" stroke="black" points="529.5,-112.5 529.5,-131.5 632.5,-131.5 632.5,-112.5 529.5,-112.5"/>
<text text-anchor="middle" x="581" y="-119.5" font-family="Helvetica,sans-Serif" font-size="10.00">engine/Tickable.hpp</text>
</a>
</g>
</g>
<!-- Node3&#45;&gt;Node8 -->
<g id="edge7" class="edge">
<title>Node3&#45;&gt;Node8</title>
<path fill="none" stroke="midnightblue" d="M579.15,-229.82C579.47,-211.26 580.23,-167.34 580.67,-141.97"/>
<polygon fill="midnightblue" stroke="midnightblue" points="584.17,-141.84 580.85,-131.78 577.18,-141.72 584.17,-141.84"/>
</g>
<!-- Node9 -->
<g id="node9" class="node">
<title>Node9</title>
<g id="a_node9"><a xlink:title=" ">
<polygon fill="white" stroke="#bfbfbf" points="730,-56.5 730,-75.5 774,-75.5 774,-56.5 730,-56.5"/>
<text text-anchor="middle" x="752" y="-63.5" font-family="Helvetica,sans-Serif" font-size="10.00">vector</text>
</a>
</g>
</g>
<!-- Node3&#45;&gt;Node9 -->
<g id="edge8" class="edge">
<title>Node3&#45;&gt;Node9</title>
<path fill="none" stroke="midnightblue" d="M587.82,-229.76C615.47,-202.35 700.77,-117.79 736.25,-82.61"/>
<polygon fill="midnightblue" stroke="midnightblue" points="738.77,-85.05 743.41,-75.52 733.84,-80.07 738.77,-85.05"/>
</g>
<!-- Node10 -->
<g id="node10" class="node">
<title>Node10</title>
<g id="a_node10"><a xlink:href="_ground_8hpp.html" target="_top" xlink:title=" ">
<polygon fill="white" stroke="black" points="364,-168.5 364,-187.5 430,-187.5 430,-168.5 364,-168.5"/>
<text text-anchor="middle" x="397" y="-175.5" font-family="Helvetica,sans-Serif" font-size="10.00">Ground.hpp</text>
</a>
</g>
</g>
<!-- Node3&#45;&gt;Node10 -->
<g id="edge9" class="edge">
<title>Node3&#45;&gt;Node10</title>
<path fill="none" stroke="midnightblue" d="M552.92,-229.98C521.43,-219.68 468.3,-202.31 432.94,-190.75"/>
<polygon fill="midnightblue" stroke="midnightblue" points="433.62,-187.29 423.03,-187.51 431.45,-193.94 433.62,-187.29"/>
</g>
<!-- Node11 -->
<g id="node11" class="node">
<title>Node11</title>
<g id="a_node11"><a xlink:href="_building_8hpp.html" target="_top" xlink:title=" ">
<polygon fill="white" stroke="black" points="486.5,-168.5 486.5,-187.5 555.5,-187.5 555.5,-168.5 486.5,-168.5"/>
<text text-anchor="middle" x="521" y="-175.5" font-family="Helvetica,sans-Serif" font-size="10.00">Building.hpp</text>
</a>
</g>
</g>
<!-- Node3&#45;&gt;Node11 -->
<g id="edge12" class="edge">
<title>Node3&#45;&gt;Node11</title>
<path fill="none" stroke="midnightblue" d="M570.69,-229.98C561.82,-220.87 547.55,-206.24 536.58,-194.98"/>
<polygon fill="midnightblue" stroke="midnightblue" points="538.78,-192.23 529.29,-187.51 533.77,-197.11 538.78,-192.23"/>
</g>
<!-- Node5 -->
<g id="node5" class="node">
<title>Node5</title>
<g id="a_node5"><a xlink:title=" ">
<polygon fill="white" stroke="#bfbfbf" points="425,-56.5 425,-75.5 491,-75.5 491,-56.5 425,-56.5"/>
<text text-anchor="middle" x="458" y="-63.5" font-family="Helvetica,sans-Serif" font-size="10.00">string_view</text>
</a>
</g>
</g>
<!-- Node4&#45;&gt;Node5 -->
<g id="edge4" class="edge">
<title>Node4&#45;&gt;Node5</title>
<path fill="none" stroke="midnightblue" d="M458,-112.08C458,-105.01 458,-94.86 458,-85.99"/>
<polygon fill="midnightblue" stroke="midnightblue" points="461.5,-85.75 458,-75.75 454.5,-85.75 461.5,-85.75"/>
</g>
<!-- Node4&#45;&gt;Node6 -->
<g id="edge5" class="edge">
<title>Node4&#45;&gt;Node6</title>
<path fill="none" stroke="midnightblue" d="M489.37,-112.44C523.26,-103.2 577.4,-88.44 614.72,-78.26"/>
<polygon fill="midnightblue" stroke="midnightblue" points="616.05,-81.52 624.77,-75.52 614.2,-74.77 616.05,-81.52"/>
</g>
<!-- Node7 -->
<g id="node7" class="node">
<title>Node7</title>
<g id="a_node7"><a xlink:title=" ">
<polygon fill="white" stroke="#bfbfbf" points="709.5,-0.5 709.5,-19.5 748.5,-19.5 748.5,-0.5 709.5,-0.5"/>
<text text-anchor="middle" x="729" y="-7.5" font-family="Helvetica,sans-Serif" font-size="10.00">utility</text>
</a>
</g>
</g>
<!-- Node6&#45;&gt;Node7 -->
<g id="edge6" class="edge">
<title>Node6&#45;&gt;Node7</title>
<path fill="none" stroke="midnightblue" d="M667.73,-56.32C678.84,-48.11 695.74,-35.6 708.98,-25.81"/>
<polygon fill="midnightblue" stroke="midnightblue" points="711.1,-28.59 717.06,-19.83 706.94,-22.97 711.1,-28.59"/>
</g>
<!-- Node10&#45;&gt;Node4 -->
<g id="edge10" class="edge">
<title>Node10&#45;&gt;Node4</title>
<path fill="none" stroke="midnightblue" d="M406.8,-168.32C415.82,-160.34 429.41,-148.31 440.32,-138.65"/>
<polygon fill="midnightblue" stroke="midnightblue" points="442.85,-141.08 448.02,-131.83 438.21,-135.84 442.85,-141.08"/>
</g>
<!-- Node10&#45;&gt;Node8 -->
<g id="edge11" class="edge">
<title>Node10&#45;&gt;Node8</title>
<path fill="none" stroke="midnightblue" d="M426.16,-168.44C457.51,-159.24 507.53,-144.56 542.2,-134.39"/>
<polygon fill="midnightblue" stroke="midnightblue" points="543.37,-137.69 551.98,-131.52 541.4,-130.97 543.37,-137.69"/>
</g>
<!-- Node11&#45;&gt;Node4 -->
<g id="edge13" class="edge">
<title>Node11&#45;&gt;Node4</title>
<path fill="none" stroke="midnightblue" d="M510.88,-168.32C501.47,-160.26 487.26,-148.08 475.93,-138.37"/>
<polygon fill="midnightblue" stroke="midnightblue" points="478.18,-135.68 468.31,-131.83 473.62,-141 478.18,-135.68"/>
</g>
<!-- Node11&#45;&gt;Node8 -->
<g id="edge14" class="edge">
<title>Node11&#45;&gt;Node8</title>
<path fill="none" stroke="midnightblue" d="M530.64,-168.32C539.51,-160.34 552.87,-148.31 563.61,-138.65"/>
<polygon fill="midnightblue" stroke="midnightblue" points="566.09,-141.13 571.18,-131.83 561.41,-135.92 566.09,-141.13"/>
</g>
<!-- Node12&#45;&gt;Node3 -->
<g id="edge19" class="edge">
<title>Node12&#45;&gt;Node3</title>
<path fill="none" stroke="midnightblue" d="M409.37,-291.48C443.92,-281.09 502.42,-263.51 540.88,-251.95"/>
<polygon fill="midnightblue" stroke="midnightblue" points="542.11,-255.24 550.68,-249.01 540.1,-248.54 542.11,-255.24"/>
</g>
<!-- Node13 -->
<g id="node13" class="node">
<title>Node13</title>
<g id="a_node13"><a xlink:href="_ground_empty_8hpp.html" target="_top" xlink:title=" ">
<polygon fill="white" stroke="black" points="390,-224.5 390,-254.5 502,-254.5 502,-224.5 390,-224.5"/>
<text text-anchor="start" x="398" y="-242.5" font-family="Helvetica,sans-Serif" font-size="10.00">engine/objects/ground</text>
<text text-anchor="middle" x="446" y="-231.5" font-family="Helvetica,sans-Serif" font-size="10.00">/GroundEmpty.hpp</text>
</a>
</g>
</g>
<!-- Node12&#45;&gt;Node13 -->
<g id="edge17" class="edge">
<title>Node12&#45;&gt;Node13</title>
<path fill="none" stroke="midnightblue" d="M390.31,-291.48C398.87,-283.64 411.9,-271.71 423.21,-261.37"/>
<polygon fill="midnightblue" stroke="midnightblue" points="425.67,-263.86 430.68,-254.52 420.94,-258.69 425.67,-263.86"/>
</g>
<!-- Node14 -->
<g id="node14" class="node">
<title>Node14</title>
<g id="a_node14"><a xlink:href="_ground_earth_8hpp.html" target="_top" xlink:title=" ">
<polygon fill="white" stroke="black" points="0,-224.5 0,-254.5 112,-254.5 112,-224.5 0,-224.5"/>
<text text-anchor="start" x="8" y="-242.5" font-family="Helvetica,sans-Serif" font-size="10.00">engine/objects/ground</text>
<text text-anchor="middle" x="56" y="-231.5" font-family="Helvetica,sans-Serif" font-size="10.00">/GroundEarth.hpp</text>
</a>
</g>
</g>
<!-- Node12&#45;&gt;Node14 -->
<g id="edge20" class="edge">
<title>Node12&#45;&gt;Node14</title>
<path fill="none" stroke="midnightblue" d="M329.07,-291.77C278.64,-283.6 199.71,-270.37 122.26,-255.2"/>
<polygon fill="midnightblue" stroke="midnightblue" points="122.82,-251.74 112.34,-253.24 121.47,-258.61 122.82,-251.74"/>
</g>
<!-- Node15 -->
<g id="node15" class="node">
<title>Node15</title>
<g id="a_node15"><a xlink:href="_ground_water_8hpp.html" target="_top" xlink:title=" ">
<polygon fill="white" stroke="black" points="130,-224.5 130,-254.5 242,-254.5 242,-224.5 130,-224.5"/>
<text text-anchor="start" x="138" y="-242.5" font-family="Helvetica,sans-Serif" font-size="10.00">engine/objects/ground</text>
<text text-anchor="middle" x="186" y="-231.5" font-family="Helvetica,sans-Serif" font-size="10.00">/GroundWater.hpp</text>
</a>
</g>
</g>
<!-- Node12&#45;&gt;Node15 -->
<g id="edge22" class="edge">
<title>Node12&#45;&gt;Node15</title>
<path fill="none" stroke="midnightblue" d="M353.06,-291.48C324.18,-282.66 278.32,-268.67 241.94,-257.57"/>
<polygon fill="midnightblue" stroke="midnightblue" points="242.54,-254.09 231.96,-254.52 240.5,-260.79 242.54,-254.09"/>
</g>
<!-- Node16 -->
<g id="node16" class="node">
<title>Node16</title>
<g id="a_node16"><a xlink:href="_mineral_8hpp.html" target="_top" xlink:title=" ">
<polygon fill="white" stroke="black" points="260,-224.5 260,-254.5 372,-254.5 372,-224.5 260,-224.5"/>
<text text-anchor="start" x="268" y="-242.5" font-family="Helvetica,sans-Serif" font-size="10.00">engine/objects/ground</text>
<text text-anchor="middle" x="316" y="-231.5" font-family="Helvetica,sans-Serif" font-size="10.00">/Mineral.hpp</text>
</a>
</g>
</g>
<!-- Node12&#45;&gt;Node16 -->
<g id="edge24" class="edge">
<title>Node12&#45;&gt;Node16</title>
<path fill="none" stroke="midnightblue" d="M371.69,-291.48C363.13,-283.64 350.1,-271.71 338.79,-261.37"/>
<polygon fill="midnightblue" stroke="midnightblue" points="341.06,-258.69 331.32,-254.52 336.33,-263.86 341.06,-258.69"/>
</g>
<!-- Node13&#45;&gt;Node10 -->
<g id="edge18" class="edge">
<title>Node13&#45;&gt;Node10</title>
<path fill="none" stroke="midnightblue" d="M434.39,-224.4C427.27,-215.75 418.12,-204.64 410.65,-195.58"/>
<polygon fill="midnightblue" stroke="midnightblue" points="413.19,-193.15 404.13,-187.66 407.79,-197.6 413.19,-193.15"/>
</g>
<!-- Node14&#45;&gt;Node10 -->
<g id="edge21" class="edge">
<title>Node14&#45;&gt;Node10</title>
<path fill="none" stroke="midnightblue" d="M112.33,-225.73C115.26,-225.13 118.16,-224.55 121,-224 202.96,-208.19 299.31,-193.32 353.76,-185.26"/>
<polygon fill="midnightblue" stroke="midnightblue" points="354.37,-188.71 363.75,-183.79 353.35,-181.78 354.37,-188.71"/>
</g>
<!-- Node15&#45;&gt;Node10 -->
<g id="edge23" class="edge">
<title>Node15&#45;&gt;Node10</title>
<path fill="none" stroke="midnightblue" d="M235.74,-224.47C272.77,-214.03 322.68,-199.96 357.12,-190.25"/>
<polygon fill="midnightblue" stroke="midnightblue" points="358.16,-193.59 366.83,-187.51 356.26,-186.85 358.16,-193.59"/>
</g>
<!-- Node16&#45;&gt;Node10 -->
<g id="edge25" class="edge">
<title>Node16&#45;&gt;Node10</title>
<path fill="none" stroke="midnightblue" d="M335.2,-224.4C347.82,-215.13 364.29,-203.03 377.06,-193.65"/>
<polygon fill="midnightblue" stroke="midnightblue" points="379.23,-196.4 385.21,-187.66 375.08,-190.76 379.23,-196.4"/>
</g>
<!-- Node18 -->
<g id="node18" class="node">
<title>Node18</title>
<g id="a_node18"><a xlink:title=" ">
<polygon fill="white" stroke="#bfbfbf" points="694,-230 694,-249 740,-249 740,-230 694,-230"/>
<text text-anchor="middle" x="717" y="-237" font-family="Helvetica,sans-Serif" font-size="10.00">cstdint</text>
</a>
</g>
</g>
<!-- Node17&#45;&gt;Node18 -->
<g id="edge27" class="edge">
<title>Node17&#45;&gt;Node18</title>
<path fill="none" stroke="midnightblue" d="M709.29,-291.48C710.56,-283.08 712.54,-269.98 714.18,-259.16"/>
<polygon fill="midnightblue" stroke="midnightblue" points="717.68,-259.42 715.71,-249.01 710.76,-258.37 717.68,-259.42"/>
</g>
<!-- Node21 -->
<g id="node21" class="node">
<title>Node21</title>
<g id="a_node21"><a xlink:title=" ">
<polygon fill="white" stroke="#bfbfbf" points="1036.5,-230 1036.5,-249 1071.5,-249 1071.5,-230 1036.5,-230"/>
<text text-anchor="middle" x="1054" y="-237" font-family="Helvetica,sans-Serif" font-size="10.00">map</text>
</a>
</g>
</g>
<!-- Node20&#45;&gt;Node21 -->
<g id="edge30" class="edge">
<title>Node20&#45;&gt;Node21</title>
<path fill="none" stroke="midnightblue" d="M945.02,-291.34C966.47,-282.72 999.88,-268.82 1028,-255 1028.81,-254.6 1029.63,-254.19 1030.46,-253.77"/>
<polygon fill="midnightblue" stroke="midnightblue" points="1032.12,-256.85 1039.29,-249.05 1028.82,-250.67 1032.12,-256.85"/>
</g>
<!-- Node22 -->
<g id="node22" class="node">
<title>Node22</title>
<g id="a_node22"><a xlink:title=" ">
<polygon fill="white" stroke="#bfbfbf" points="877.5,-168.5 877.5,-187.5 918.5,-187.5 918.5,-168.5 877.5,-168.5"/>
<text text-anchor="middle" x="898" y="-175.5" font-family="Helvetica,sans-Serif" font-size="10.00">string</text>
</a>
</g>
</g>
<!-- Node20&#45;&gt;Node22 -->
<g id="edge31" class="edge">
<title>Node20&#45;&gt;Node22</title>
<path fill="none" stroke="midnightblue" d="M918.63,-291.28C914.39,-282.4 908.15,-268.09 905,-255 900.4,-235.91 898.78,-213.45 898.23,-197.92"/>
<polygon fill="midnightblue" stroke="midnightblue" points="901.72,-197.48 897.99,-187.56 894.73,-197.64 901.72,-197.48"/>
</g>
<!-- Node23 -->
<g id="node23" class="node">
<title>Node23</title>
<g id="a_node23"><a xlink:title=" ">
<polygon fill="white" stroke="#bfbfbf" points="767.5,-230 767.5,-249 818.5,-249 818.5,-230 767.5,-230"/>
<text text-anchor="middle" x="793" y="-237" font-family="Helvetica,sans-Serif" font-size="10.00">memory</text>
</a>
</g>
</g>
<!-- Node20&#45;&gt;Node23 -->
<g id="edge32" class="edge">
<title>Node20&#45;&gt;Node23</title>
<path fill="none" stroke="midnightblue" d="M904.37,-291.48C882.56,-281.49 846.2,-264.85 820.98,-253.31"/>
<polygon fill="midnightblue" stroke="midnightblue" points="822.14,-249.99 811.59,-249.01 819.23,-256.35 822.14,-249.99"/>
</g>
<!-- Node24 -->
<g id="node24" class="node">
<title>Node24</title>
<g id="a_node24"><a xlink:href="_shader_8hpp.html" target="_top" xlink:title=" ">
<polygon fill="white" stroke="black" points="913.5,-230 913.5,-249 1018.5,-249 1018.5,-230 913.5,-230"/>
<text text-anchor="middle" x="966" y="-237" font-family="Helvetica,sans-Serif" font-size="10.00">graphics/Shader.hpp</text>
</a>
</g>
</g>
<!-- Node20&#45;&gt;Node24 -->
<g id="edge33" class="edge">
<title>Node20&#45;&gt;Node24</title>
<path fill="none" stroke="midnightblue" d="M929.16,-291.48C935.61,-282.55 945.9,-268.31 953.97,-257.14"/>
<polygon fill="midnightblue" stroke="midnightblue" points="956.83,-259.16 959.85,-249.01 951.16,-255.06 956.83,-259.16"/>
</g>
<!-- Node25 -->
<g id="node25" class="node">
<title>Node25</title>
<g id="a_node25"><a xlink:href="_g_shape_8hpp.html" target="_top" xlink:title=" ">
<polygon fill="white" stroke="black" points="1013,-168.5 1013,-187.5 1123,-187.5 1123,-168.5 1013,-168.5"/>
<text text-anchor="middle" x="1068" y="-175.5" font-family="Helvetica,sans-Serif" font-size="10.00">graphics/GShape.hpp</text>
</a>
</g>
</g>
<!-- Node20&#45;&gt;Node25 -->
<g id="edge47" class="edge">
<title>Node20&#45;&gt;Node25</title>
<path fill="none" stroke="midnightblue" d="M978.08,-291.5C1018.49,-284 1068.41,-271.67 1081,-255 1093.69,-238.19 1085.87,-213.33 1077.96,-196.67"/>
<polygon fill="midnightblue" stroke="midnightblue" points="1080.91,-194.77 1073.2,-187.5 1074.7,-197.99 1080.91,-194.77"/>
</g>
<!-- Node31 -->
<g id="node31" class="node">
<title>Node31</title>
<g id="a_node31"><a xlink:href="_event_handler_8hpp.html" target="_top" xlink:title=" ">
<polygon fill="white" stroke="black" points="704.5,-168.5 704.5,-187.5 859.5,-187.5 859.5,-168.5 704.5,-168.5"/>
<text text-anchor="middle" x="782" y="-175.5" font-family="Helvetica,sans-Serif" font-size="10.00">EventHandler/EventHandler.hpp</text>
</a>
</g>
</g>
<!-- Node20&#45;&gt;Node31 -->
<g id="edge48" class="edge">
<title>Node20&#45;&gt;Node31</title>
<path fill="none" stroke="midnightblue" d="M912.86,-291.3C889.18,-270.98 829.99,-220.19 800.01,-194.46"/>
<polygon fill="midnightblue" stroke="midnightblue" points="801.92,-191.48 792.05,-187.62 797.36,-196.79 801.92,-191.48"/>
</g>
<!-- Node24&#45;&gt;Node22 -->
<g id="edge34" class="edge">
<title>Node24&#45;&gt;Node22</title>
<path fill="none" stroke="midnightblue" d="M956.26,-229.98C945.65,-220.7 928.48,-205.67 915.52,-194.33"/>
<polygon fill="midnightblue" stroke="midnightblue" points="917.56,-191.46 907.72,-187.51 912.95,-196.73 917.56,-191.46"/>
</g>
<!-- Node24&#45;&gt;Node25 -->
<g id="edge35" class="edge">
<title>Node24&#45;&gt;Node25</title>
<path fill="none" stroke="midnightblue" d="M975.71,-229.98C990.46,-220.12 1018.18,-203.79 1039.52,-192.27"/>
<polygon fill="midnightblue" stroke="midnightblue" points="1041.32,-195.28 1048.52,-187.51 1038.04,-189.09 1041.32,-195.28"/>
</g>
<!-- Node29 -->
<g id="node29" class="node">
<title>Node29</title>
<g id="a_node29"><a xlink:href="_transform_8hpp.html" target="_top" xlink:title=" ">
<polygon fill="white" stroke="black" points="1008.5,-56.5 1008.5,-75.5 1127.5,-75.5 1127.5,-56.5 1008.5,-56.5"/>
<text text-anchor="middle" x="1068" y="-63.5" font-family="Helvetica,sans-Serif" font-size="10.00">graphics/Transform.hpp</text>
</a>
</g>
</g>
<!-- Node24&#45;&gt;Node29 -->
<g id="edge46" class="edge">
<title>Node24&#45;&gt;Node29</title>
<path fill="none" stroke="midnightblue" d="M970.49,-229.71C977.4,-216.26 991.22,-189.84 1004,-168 1021.57,-137.98 1043.56,-103.98 1056.66,-84.08"/>
<polygon fill="midnightblue" stroke="midnightblue" points="1059.72,-85.79 1062.31,-75.52 1053.88,-81.93 1059.72,-85.79"/>
</g>
<!-- Node25&#45;&gt;Node24 -->
<g id="edge44" class="edge">
<title>Node25&#45;&gt;Node24</title>
<path fill="none" stroke="midnightblue" d="M1058.31,-187.51C1043.58,-197.36 1015.86,-213.69 994.51,-225.21"/>
<polygon fill="midnightblue" stroke="midnightblue" points="992.71,-222.2 985.51,-229.98 995.99,-228.39 992.71,-222.2"/>
</g>
<!-- Node26 -->
<g id="node26" class="node">
<title>Node26</title>
<g id="a_node26"><a xlink:href="_window_8hpp.html" target="_top" xlink:title=" ">
<polygon fill="white" stroke="black" points="845.5,-112.5 845.5,-131.5 954.5,-131.5 954.5,-112.5 845.5,-112.5"/>
<text text-anchor="middle" x="900" y="-119.5" font-family="Helvetica,sans-Serif" font-size="10.00">graphics/Window.hpp</text>
</a>
</g>
</g>
<!-- Node25&#45;&gt;Node26 -->
<g id="edge36" class="edge">
<title>Node25&#45;&gt;Node26</title>
<path fill="none" stroke="midnightblue" d="M1041.38,-168.44C1012.99,-159.32 967.86,-144.81 936.25,-134.65"/>
<polygon fill="midnightblue" stroke="midnightblue" points="937.09,-131.24 926.5,-131.52 934.94,-137.91 937.09,-131.24"/>
</g>
<!-- Node25&#45;&gt;Node29 -->
<g id="edge45" class="edge">
<title>Node25&#45;&gt;Node29</title>
<path fill="none" stroke="midnightblue" d="M1068,-168.37C1068,-150.62 1068,-109.67 1068,-85.6"/>
<polygon fill="midnightblue" stroke="midnightblue" points="1071.5,-85.59 1068,-75.59 1064.5,-85.59 1071.5,-85.59"/>
</g>
<!-- Node26&#45;&gt;Node7 -->
<g id="edge39" class="edge">
<title>Node26&#45;&gt;Node7</title>
<path fill="none" stroke="midnightblue" d="M884.22,-112.43C868.3,-103.65 843.1,-89.43 822,-76 796.15,-59.55 767.38,-39.09 748.78,-25.57"/>
<polygon fill="midnightblue" stroke="midnightblue" points="750.66,-22.61 740.52,-19.54 746.53,-28.27 750.66,-22.61"/>
</g>
<!-- Node26&#45;&gt;Node9 -->
<g id="edge40" class="edge">
<title>Node26&#45;&gt;Node9</title>
<path fill="none" stroke="midnightblue" d="M876.55,-112.44C851.58,-103.33 811.89,-88.85 784.05,-78.69"/>
<polygon fill="midnightblue" stroke="midnightblue" points="784.97,-75.3 774.37,-75.16 782.57,-81.88 784.97,-75.3"/>
</g>
<!-- Node26&#45;&gt;Node24 -->
<g id="edge41" class="edge">
<title>Node26&#45;&gt;Node24</title>
<path fill="none" stroke="midnightblue" d="M905.53,-131.53C911.3,-140.51 920.52,-155.1 928,-168 938.21,-185.62 949.18,-206.15 956.69,-220.5"/>
<polygon fill="midnightblue" stroke="midnightblue" points="953.77,-222.47 961.49,-229.72 959.98,-219.23 953.77,-222.47"/>
</g>
<!-- Node27 -->
<g id="node27" class="node">
<title>Node27</title>
<g id="a_node27"><a xlink:title=" ">
<polygon fill="white" stroke="#bfbfbf" points="927.5,-56.5 927.5,-75.5 990.5,-75.5 990.5,-56.5 927.5,-56.5"/>
<text text-anchor="middle" x="959" y="-63.5" font-family="Helvetica,sans-Serif" font-size="10.00">glad/glad.h</text>
</a>
</g>
</g>
<!-- Node26&#45;&gt;Node27 -->
<g id="edge37" class="edge">
<title>Node26&#45;&gt;Node27</title>
<path fill="none" stroke="midnightblue" d="M909.48,-112.32C918.2,-104.34 931.34,-92.31 941.9,-82.65"/>
<polygon fill="midnightblue" stroke="midnightblue" points="944.33,-85.17 949.35,-75.83 939.61,-80 944.33,-85.17"/>
</g>
<!-- Node28 -->
<g id="node28" class="node">
<title>Node28</title>
<g id="a_node28"><a xlink:title=" ">
<polygon fill="white" stroke="#bfbfbf" points="830.5,-56.5 830.5,-75.5 909.5,-75.5 909.5,-56.5 830.5,-56.5"/>
<text text-anchor="middle" x="870" y="-63.5" font-family="Helvetica,sans-Serif" font-size="10.00">GLFW/glfw3.h</text>
</a>
</g>
</g>
<!-- Node26&#45;&gt;Node28 -->
<g id="edge38" class="edge">
<title>Node26&#45;&gt;Node28</title>
<path fill="none" stroke="midnightblue" d="M895.05,-112.08C890.9,-104.61 884.85,-93.72 879.73,-84.52"/>
<polygon fill="midnightblue" stroke="midnightblue" points="882.78,-82.79 874.86,-75.75 876.66,-86.19 882.78,-82.79"/>
</g>
<!-- Node26&#45;&gt;Node29 -->
<g id="edge42" class="edge">
<title>Node26&#45;&gt;Node29</title>
<path fill="none" stroke="midnightblue" d="M926.62,-112.44C955.01,-103.32 1000.14,-88.81 1031.75,-78.65"/>
<polygon fill="midnightblue" stroke="midnightblue" points="1033.06,-81.91 1041.5,-75.52 1030.91,-75.24 1033.06,-81.91"/>
</g>
<!-- Node30 -->
<g id="node30" class="node">
<title>Node30</title>
<g id="a_node30"><a xlink:title=" ">
<polygon fill="white" stroke="#bfbfbf" points="1016,-0.5 1016,-19.5 1120,-19.5 1120,-0.5 1016,-0.5"/>
<text text-anchor="middle" x="1068" y="-7.5" font-family="Helvetica,sans-Serif" font-size="10.00">glm/gtc/type_ptr.hpp</text>
</a>
</g>
</g>
<!-- Node29&#45;&gt;Node30 -->
<g id="edge43" class="edge">
<title>Node29&#45;&gt;Node30</title>
<path fill="none" stroke="midnightblue" d="M1068,-56.08C1068,-49.01 1068,-38.86 1068,-29.99"/>
<polygon fill="midnightblue" stroke="midnightblue" points="1071.5,-29.75 1068,-19.75 1064.5,-29.75 1071.5,-29.75"/>
</g>
<!-- Node31&#45;&gt;Node6 -->
<g id="edge51" class="edge">
<title>Node31&#45;&gt;Node6</title>
<path fill="none" stroke="midnightblue" d="M772.11,-168.37C750.86,-149.81 700.57,-105.91 673.68,-82.44"/>
<polygon fill="midnightblue" stroke="midnightblue" points="675.68,-79.53 665.84,-75.59 671.07,-84.8 675.68,-79.53"/>
</g>
<!-- Node31&#45;&gt;Node26 -->
<g id="edge50" class="edge">
<title>Node31&#45;&gt;Node26</title>
<path fill="none" stroke="midnightblue" d="M800.7,-168.44C819.94,-159.64 850.15,-145.81 872.2,-135.72"/>
<polygon fill="midnightblue" stroke="midnightblue" points="873.75,-138.86 881.39,-131.52 870.84,-132.5 873.75,-138.86"/>
</g>
<!-- Node32 -->
<g id="node32" class="node">
<title>Node32</title>
<g id="a_node32"><a xlink:title=" ">
<polygon fill="white" stroke="#bfbfbf" points="765.5,-112.5 765.5,-131.5 824.5,-131.5 824.5,-112.5 765.5,-112.5"/>
<text text-anchor="middle" x="795" y="-119.5" font-family="Helvetica,sans-Serif" font-size="10.00">functional</text>
</a>
</g>
</g>
<!-- Node31&#45;&gt;Node32 -->
<g id="edge49" class="edge">
<title>Node31&#45;&gt;Node32</title>
<path fill="none" stroke="midnightblue" d="M784.15,-168.08C785.87,-160.93 788.35,-150.64 790.5,-141.69"/>
<polygon fill="midnightblue" stroke="midnightblue" points="793.96,-142.29 792.89,-131.75 787.15,-140.65 793.96,-142.29"/>
</g>
</g>
</svg>
