<?xml version="1.0" encoding="UTF-8" standalone="no"?>
<!DOCTYPE svg PUBLIC "-//W3C//DTD SVG 1.1//EN"
 "http://www.w3.org/Graphics/SVG/1.1/DTD/svg11.dtd">
<!-- Generated by graphviz version 2.47.0 (20210407.0042)
 -->
<!-- Title: include/engine/Field.hpp Pages: 1 -->
<svg width="360pt" height="252pt"
 viewBox="0.00 0.00 359.50 252.00" xmlns="http://www.w3.org/2000/svg" xmlns:xlink="http://www.w3.org/1999/xlink">
<g id="graph0" class="graph" transform="scale(1 1) rotate(0) translate(4 248)">
<title>include/engine/Field.hpp</title>
<polygon fill="white" stroke="transparent" points="-4,4 -4,-248 355.5,-248 355.5,4 -4,4"/>
<!-- Node1 -->
<g id="node1" class="node">
<title>Node1</title>
<g id="a_node1"><a xlink:title=" ">
<polygon fill="#bfbfbf" stroke="black" points="141,-224.5 141,-243.5 262,-243.5 262,-224.5 141,-224.5"/>
<text text-anchor="middle" x="201.5" y="-231.5" font-family="Helvetica,sans-Serif" font-size="10.00">include/engine/Field.hpp</text>
</a>
</g>
</g>
<!-- Node2 -->
<g id="node2" class="node">
<title>Node2</title>
<g id="a_node2"><a xlink:href="_cell_8hpp.html" target="_top" xlink:title=" ">
<polygon fill="white" stroke="black" points="93,-168.5 93,-187.5 210,-187.5 210,-168.5 93,-168.5"/>
<text text-anchor="middle" x="151.5" y="-175.5" font-family="Helvetica,sans-Serif" font-size="10.00">engine/objects/Cell.hpp</text>
</a>
</g>
</g>
<!-- Node1&#45;&gt;Node2 -->
<g id="edge1" class="edge">
<title>Node1&#45;&gt;Node2</title>
<path fill="none" stroke="midnightblue" d="M193.25,-224.08C186.04,-216.3 175.39,-204.8 166.66,-195.37"/>
<polygon fill="midnightblue" stroke="midnightblue" points="168.97,-192.71 159.61,-187.75 163.83,-197.47 168.97,-192.71"/>
</g>
<!-- Node5 -->
<g id="node5" class="node">
<title>Node5</title>
<g id="a_node5"><a xlink:href="_vector2_d_8hpp.html" target="_top" xlink:title=" ">
<polygon fill="white" stroke="black" points="239.5,-0.5 239.5,-19.5 351.5,-19.5 351.5,-0.5 239.5,-0.5"/>
<text text-anchor="middle" x="295.5" y="-7.5" font-family="Helvetica,sans-Serif" font-size="10.00">Helpers/Vector2D.hpp</text>
</a>
</g>
</g>
<!-- Node1&#45;&gt;Node5 -->
<g id="edge13" class="edge">
<title>Node1&#45;&gt;Node5</title>
<path fill="none" stroke="midnightblue" d="M206.52,-224.29C216.34,-207.04 238.43,-167.17 253.5,-132 268.7,-96.53 282.59,-53.56 289.96,-29.54"/>
<polygon fill="midnightblue" stroke="midnightblue" points="293.41,-30.25 292.96,-19.67 286.71,-28.22 293.41,-30.25"/>
</g>
<!-- Node3 -->
<g id="node3" class="node">
<title>Node3</title>
<g id="a_node3"><a xlink:href="_drawable_8hpp.html" target="_top" xlink:title=" ">
<polygon fill="white" stroke="black" points="150,-56.5 150,-75.5 257,-75.5 257,-56.5 150,-56.5"/>
<text text-anchor="middle" x="203.5" y="-63.5" font-family="Helvetica,sans-Serif" font-size="10.00">engine/Drawable.hpp</text>
</a>
</g>
</g>
<!-- Node2&#45;&gt;Node3 -->
<g id="edge2" class="edge">
<title>Node2&#45;&gt;Node3</title>
<path fill="none" stroke="midnightblue" d="M186.52,-168.45C205.44,-161.84 227.19,-150.59 238.5,-132 248.53,-115.53 234.68,-95.96 221.55,-82.63"/>
<polygon fill="midnightblue" stroke="midnightblue" points="223.77,-79.91 214.1,-75.57 218.95,-84.99 223.77,-79.91"/>
</g>
<!-- Node6 -->
<g id="node6" class="node">
<title>Node6</title>
<g id="a_node6"><a xlink:href="_tickable_8hpp.html" target="_top" xlink:title=" ">
<polygon fill="white" stroke="black" points="29,-56.5 29,-75.5 132,-75.5 132,-56.5 29,-56.5"/>
<text text-anchor="middle" x="80.5" y="-63.5" font-family="Helvetica,sans-Serif" font-size="10.00">engine/Tickable.hpp</text>
</a>
</g>
</g>
<!-- Node2&#45;&gt;Node6 -->
<g id="edge5" class="edge">
<title>Node2&#45;&gt;Node6</title>
<path fill="none" stroke="midnightblue" d="M92.87,-175.05C61.28,-170.63 24.74,-159.36 4.5,-132 -11.38,-110.52 19.28,-91.38 46.27,-79.53"/>
<polygon fill="midnightblue" stroke="midnightblue" points="47.7,-82.72 55.59,-75.65 45.01,-76.26 47.7,-82.72"/>
</g>
<!-- Node7 -->
<g id="node7" class="node">
<title>Node7</title>
<g id="a_node7"><a xlink:title=" ">
<polygon fill="white" stroke="#bfbfbf" points="13.5,-112.5 13.5,-131.5 57.5,-131.5 57.5,-112.5 13.5,-112.5"/>
<text text-anchor="middle" x="35.5" y="-119.5" font-family="Helvetica,sans-Serif" font-size="10.00">vector</text>
</a>
</g>
</g>
<!-- Node2&#45;&gt;Node7 -->
<g id="edge6" class="edge">
<title>Node2&#45;&gt;Node7</title>
<path fill="none" stroke="midnightblue" d="M133.12,-168.44C114.29,-159.68 84.77,-145.94 63.12,-135.86"/>
<polygon fill="midnightblue" stroke="midnightblue" points="64.34,-132.56 53.8,-131.52 61.39,-138.91 64.34,-132.56"/>
</g>
<!-- Node8 -->
<g id="node8" class="node">
<title>Node8</title>
<g id="a_node8"><a xlink:href="_ground_8hpp.html" target="_top" xlink:title=" ">
<polygon fill="white" stroke="black" points="75.5,-112.5 75.5,-131.5 141.5,-131.5 141.5,-112.5 75.5,-112.5"/>
<text text-anchor="middle" x="108.5" y="-119.5" font-family="Helvetica,sans-Serif" font-size="10.00">Ground.hpp</text>
</a>
</g>
</g>
<!-- Node2&#45;&gt;Node8 -->
<g id="edge7" class="edge">
<title>Node2&#45;&gt;Node8</title>
<path fill="none" stroke="midnightblue" d="M144.4,-168.08C138.27,-160.38 129.23,-149.03 121.76,-139.65"/>
<polygon fill="midnightblue" stroke="midnightblue" points="124.44,-137.39 115.47,-131.75 118.96,-141.75 124.44,-137.39"/>
</g>
<!-- Node9 -->
<g id="node9" class="node">
<title>Node9</title>
<g id="a_node9"><a xlink:href="_building_8hpp.html" target="_top" xlink:title=" ">
<polygon fill="white" stroke="black" points="160,-112.5 160,-131.5 229,-131.5 229,-112.5 160,-112.5"/>
<text text-anchor="middle" x="194.5" y="-119.5" font-family="Helvetica,sans-Serif" font-size="10.00">Building.hpp</text>
</a>
</g>
</g>
<!-- Node2&#45;&gt;Node9 -->
<g id="edge10" class="edge">
<title>Node2&#45;&gt;Node9</title>
<path fill="none" stroke="midnightblue" d="M158.6,-168.08C164.74,-160.38 173.77,-149.03 181.24,-139.65"/>
<polygon fill="midnightblue" stroke="midnightblue" points="184.04,-141.75 187.53,-131.75 178.57,-137.39 184.04,-141.75"/>
</g>
<!-- Node4 -->
<g id="node4" class="node">
<title>Node4</title>
<g id="a_node4"><a xlink:title=" ">
<polygon fill="white" stroke="#bfbfbf" points="155.5,-0.5 155.5,-19.5 221.5,-19.5 221.5,-0.5 155.5,-0.5"/>
<text text-anchor="middle" x="188.5" y="-7.5" font-family="Helvetica,sans-Serif" font-size="10.00">string_view</text>
</a>
</g>
</g>
<!-- Node3&#45;&gt;Node4 -->
<g id="edge3" class="edge">
<title>Node3&#45;&gt;Node4</title>
<path fill="none" stroke="midnightblue" d="M201.03,-56.08C199.02,-48.85 196.12,-38.41 193.61,-29.4"/>
<polygon fill="midnightblue" stroke="midnightblue" points="196.98,-28.45 190.93,-19.75 190.24,-30.32 196.98,-28.45"/>
</g>
<!-- Node3&#45;&gt;Node5 -->
<g id="edge4" class="edge">
<title>Node3&#45;&gt;Node5</title>
<path fill="none" stroke="midnightblue" d="M218.28,-56.32C232.77,-47.82 255.08,-34.73 272,-24.8"/>
<polygon fill="midnightblue" stroke="midnightblue" points="273.91,-27.74 280.76,-19.65 270.36,-21.7 273.91,-27.74"/>
</g>
<!-- Node8&#45;&gt;Node3 -->
<g id="edge8" class="edge">
<title>Node8&#45;&gt;Node3</title>
<path fill="none" stroke="midnightblue" d="M123.77,-112.32C138.72,-103.82 161.76,-90.73 179.23,-80.8"/>
<polygon fill="midnightblue" stroke="midnightblue" points="181.31,-83.64 188.28,-75.65 177.85,-77.55 181.31,-83.64"/>
</g>
<!-- Node8&#45;&gt;Node6 -->
<g id="edge9" class="edge">
<title>Node8&#45;&gt;Node6</title>
<path fill="none" stroke="midnightblue" d="M103.88,-112.08C100.05,-104.69 94.48,-93.95 89.74,-84.81"/>
<polygon fill="midnightblue" stroke="midnightblue" points="92.75,-83.02 85.04,-75.75 86.54,-86.24 92.75,-83.02"/>
</g>
<!-- Node9&#45;&gt;Node3 -->
<g id="edge11" class="edge">
<title>Node9&#45;&gt;Node3</title>
<path fill="none" stroke="midnightblue" d="M195.99,-112.08C197.18,-104.93 198.9,-94.64 200.39,-85.69"/>
<polygon fill="midnightblue" stroke="midnightblue" points="203.85,-86.19 202.04,-75.75 196.95,-85.04 203.85,-86.19"/>
</g>
<!-- Node9&#45;&gt;Node6 -->
<g id="edge12" class="edge">
<title>Node9&#45;&gt;Node6</title>
<path fill="none" stroke="midnightblue" d="M176.44,-112.44C157.93,-103.68 128.92,-89.94 107.65,-79.86"/>
<polygon fill="midnightblue" stroke="midnightblue" points="109.02,-76.63 98.48,-75.52 106.02,-82.96 109.02,-76.63"/>
</g>
</g>
</svg>
