<?xml version="1.0" encoding="UTF-8" standalone="no"?>
<!DOCTYPE svg PUBLIC "-//W3C//DTD SVG 1.1//EN"
 "http://www.w3.org/Graphics/SVG/1.1/DTD/svg11.dtd">
<!-- Generated by graphviz version 2.47.0 (20210407.0042)
 -->
<!-- Title: include/engine/Field.hpp Pages: 1 -->
<svg width="325pt" height="308pt"
 viewBox="0.00 0.00 324.94 308.00" xmlns="http://www.w3.org/2000/svg" xmlns:xlink="http://www.w3.org/1999/xlink">
<g id="graph0" class="graph" transform="scale(1 1) rotate(0) translate(4 304)">
<title>include/engine/Field.hpp</title>
<polygon fill="white" stroke="transparent" points="-4,4 -4,-304 320.94,-304 320.94,4 -4,4"/>
<!-- Node1 -->
<g id="node1" class="node">
<title>Node1</title>
<g id="a_node1"><a xlink:title=" ">
<polygon fill="#bfbfbf" stroke="black" points="183,-280.5 183,-299.5 304,-299.5 304,-280.5 183,-280.5"/>
<text text-anchor="middle" x="243.5" y="-287.5" font-family="Helvetica,sans-Serif" font-size="10.00">include/engine/Field.hpp</text>
</a>
</g>
</g>
<!-- Node2 -->
<g id="node2" class="node">
<title>Node2</title>
<g id="a_node2"><a xlink:href="_cell_8hpp.html" target="_top" xlink:title=" ">
<polygon fill="white" stroke="black" points="136,-224.5 136,-243.5 253,-243.5 253,-224.5 136,-224.5"/>
<text text-anchor="middle" x="194.5" y="-231.5" font-family="Helvetica,sans-Serif" font-size="10.00">engine/objects/Cell.hpp</text>
</a>
</g>
</g>
<!-- Node1&#45;&gt;Node2 -->
<g id="edge1" class="edge">
<title>Node1&#45;&gt;Node2</title>
<path fill="none" stroke="midnightblue" d="M235.41,-280.08C228.34,-272.3 217.91,-260.8 209.35,-251.37"/>
<polygon fill="midnightblue" stroke="midnightblue" points="211.75,-248.8 202.44,-243.75 206.57,-253.51 211.75,-248.8"/>
</g>
<!-- Node5 -->
<g id="node5" class="node">
<title>Node5</title>
<g id="a_node5"><a xlink:href="_vector2_d_8hpp.html" target="_top" xlink:title=" ">
<polygon fill="white" stroke="black" points="193.5,-56.5 193.5,-75.5 305.5,-75.5 305.5,-56.5 193.5,-56.5"/>
<text text-anchor="middle" x="249.5" y="-63.5" font-family="Helvetica,sans-Serif" font-size="10.00">Helpers/Vector2D.hpp</text>
</a>
</g>
</g>
<!-- Node1&#45;&gt;Node5 -->
<g id="edge15" class="edge">
<title>Node1&#45;&gt;Node5</title>
<path fill="none" stroke="midnightblue" d="M249.36,-280.32C264.42,-257.38 303.98,-192.72 314.5,-132 316.02,-123.24 318.63,-119.87 314.5,-112 307.22,-98.11 293.49,-87.65 280.52,-80.33"/>
<polygon fill="midnightblue" stroke="midnightblue" points="281.8,-77.05 271.31,-75.55 278.57,-83.27 281.8,-77.05"/>
</g>
<!-- Node3 -->
<g id="node3" class="node">
<title>Node3</title>
<g id="a_node3"><a xlink:href="_drawable_8hpp.html" target="_top" xlink:title=" ">
<polygon fill="white" stroke="black" points="0,-112.5 0,-131.5 107,-131.5 107,-112.5 0,-112.5"/>
<text text-anchor="middle" x="53.5" y="-119.5" font-family="Helvetica,sans-Serif" font-size="10.00">engine/Drawable.hpp</text>
</a>
</g>
</g>
<!-- Node2&#45;&gt;Node3 -->
<g id="edge2" class="edge">
<title>Node2&#45;&gt;Node3</title>
<path fill="none" stroke="midnightblue" d="M135.84,-231.38C103.66,-227.11 66.2,-215.88 45.5,-188 35.56,-174.62 39.63,-155.24 44.92,-141.13"/>
<polygon fill="midnightblue" stroke="midnightblue" points="48.31,-142.12 49,-131.55 41.86,-139.38 48.31,-142.12"/>
</g>
<!-- Node7 -->
<g id="node7" class="node">
<title>Node7</title>
<g id="a_node7"><a xlink:href="_tickable_8hpp.html" target="_top" xlink:title=" ">
<polygon fill="white" stroke="black" points="202,-112.5 202,-131.5 305,-131.5 305,-112.5 202,-112.5"/>
<text text-anchor="middle" x="253.5" y="-119.5" font-family="Helvetica,sans-Serif" font-size="10.00">engine/Tickable.hpp</text>
</a>
</g>
</g>
<!-- Node2&#45;&gt;Node7 -->
<g id="edge6" class="edge">
<title>Node2&#45;&gt;Node7</title>
<path fill="none" stroke="midnightblue" d="M228.3,-224.39C246.89,-217.74 268.39,-206.45 279.5,-188 288.76,-172.63 278.69,-153.36 268.5,-139.81"/>
<polygon fill="midnightblue" stroke="midnightblue" points="271.03,-137.37 262,-131.83 265.6,-141.79 271.03,-137.37"/>
</g>
<!-- Node8 -->
<g id="node8" class="node">
<title>Node8</title>
<g id="a_node8"><a xlink:title=" ">
<polygon fill="white" stroke="#bfbfbf" points="54.5,-168.5 54.5,-187.5 98.5,-187.5 98.5,-168.5 54.5,-168.5"/>
<text text-anchor="middle" x="76.5" y="-175.5" font-family="Helvetica,sans-Serif" font-size="10.00">vector</text>
</a>
</g>
</g>
<!-- Node2&#45;&gt;Node8 -->
<g id="edge7" class="edge">
<title>Node2&#45;&gt;Node8</title>
<path fill="none" stroke="midnightblue" d="M175.8,-224.44C156.56,-215.64 126.35,-201.81 104.3,-191.72"/>
<polygon fill="midnightblue" stroke="midnightblue" points="105.66,-188.5 95.11,-187.52 102.75,-194.86 105.66,-188.5"/>
</g>
<!-- Node9 -->
<g id="node9" class="node">
<title>Node9</title>
<g id="a_node9"><a xlink:href="_ground_8hpp.html" target="_top" xlink:title=" ">
<polygon fill="white" stroke="black" points="204.5,-168.5 204.5,-187.5 270.5,-187.5 270.5,-168.5 204.5,-168.5"/>
<text text-anchor="middle" x="237.5" y="-175.5" font-family="Helvetica,sans-Serif" font-size="10.00">Ground.hpp</text>
</a>
</g>
</g>
<!-- Node2&#45;&gt;Node9 -->
<g id="edge8" class="edge">
<title>Node2&#45;&gt;Node9</title>
<path fill="none" stroke="midnightblue" d="M201.6,-224.08C207.74,-216.38 216.77,-205.03 224.24,-195.65"/>
<polygon fill="midnightblue" stroke="midnightblue" points="227.04,-197.75 230.53,-187.75 221.56,-193.39 227.04,-197.75"/>
</g>
<!-- Node10 -->
<g id="node10" class="node">
<title>Node10</title>
<g id="a_node10"><a xlink:href="_building_8hpp.html" target="_top" xlink:title=" ">
<polygon fill="white" stroke="black" points="117,-168.5 117,-187.5 186,-187.5 186,-168.5 117,-168.5"/>
<text text-anchor="middle" x="151.5" y="-175.5" font-family="Helvetica,sans-Serif" font-size="10.00">Building.hpp</text>
</a>
</g>
</g>
<!-- Node2&#45;&gt;Node10 -->
<g id="edge11" class="edge">
<title>Node2&#45;&gt;Node10</title>
<path fill="none" stroke="midnightblue" d="M187.4,-224.08C181.26,-216.38 172.23,-205.03 164.76,-195.65"/>
<polygon fill="midnightblue" stroke="midnightblue" points="167.44,-193.39 158.47,-187.75 161.96,-197.75 167.44,-193.39"/>
</g>
<!-- Node4 -->
<g id="node4" class="node">
<title>Node4</title>
<g id="a_node4"><a xlink:title=" ">
<polygon fill="white" stroke="#bfbfbf" points="20.5,-56.5 20.5,-75.5 86.5,-75.5 86.5,-56.5 20.5,-56.5"/>
<text text-anchor="middle" x="53.5" y="-63.5" font-family="Helvetica,sans-Serif" font-size="10.00">string_view</text>
</a>
</g>
</g>
<!-- Node3&#45;&gt;Node4 -->
<g id="edge3" class="edge">
<title>Node3&#45;&gt;Node4</title>
<path fill="none" stroke="midnightblue" d="M53.5,-112.08C53.5,-105.01 53.5,-94.86 53.5,-85.99"/>
<polygon fill="midnightblue" stroke="midnightblue" points="57,-85.75 53.5,-75.75 50,-85.75 57,-85.75"/>
</g>
<!-- Node3&#45;&gt;Node5 -->
<g id="edge4" class="edge">
<title>Node3&#45;&gt;Node5</title>
<path fill="none" stroke="midnightblue" d="M84.56,-112.44C118.1,-103.2 171.7,-88.44 208.64,-78.26"/>
<polygon fill="midnightblue" stroke="midnightblue" points="209.88,-81.55 218.59,-75.52 208.02,-74.8 209.88,-81.55"/>
</g>
<!-- Node6 -->
<g id="node6" class="node">
<title>Node6</title>
<g id="a_node6"><a xlink:title=" ">
<polygon fill="white" stroke="#bfbfbf" points="230,-0.5 230,-19.5 269,-19.5 269,-0.5 230,-0.5"/>
<text text-anchor="middle" x="249.5" y="-7.5" font-family="Helvetica,sans-Serif" font-size="10.00">utility</text>
</a>
</g>
</g>
<!-- Node5&#45;&gt;Node6 -->
<g id="edge5" class="edge">
<title>Node5&#45;&gt;Node6</title>
<path fill="none" stroke="midnightblue" d="M249.5,-56.08C249.5,-49.01 249.5,-38.86 249.5,-29.99"/>
<polygon fill="midnightblue" stroke="midnightblue" points="253,-29.75 249.5,-19.75 246,-29.75 253,-29.75"/>
</g>
<!-- Node9&#45;&gt;Node3 -->
<g id="edge9" class="edge">
<title>Node9&#45;&gt;Node3</title>
<path fill="none" stroke="midnightblue" d="M208.34,-168.44C176.99,-159.24 126.97,-144.56 92.3,-134.39"/>
<polygon fill="midnightblue" stroke="midnightblue" points="93.1,-130.97 82.52,-131.52 91.13,-137.69 93.1,-130.97"/>
</g>
<!-- Node9&#45;&gt;Node7 -->
<g id="edge10" class="edge">
<title>Node9&#45;&gt;Node7</title>
<path fill="none" stroke="midnightblue" d="M240.14,-168.08C242.29,-160.85 245.38,-150.41 248.05,-141.4"/>
<polygon fill="midnightblue" stroke="midnightblue" points="251.42,-142.33 250.91,-131.75 244.71,-140.34 251.42,-142.33"/>
</g>
<!-- Node10&#45;&gt;Node3 -->
<g id="edge12" class="edge">
<title>Node10&#45;&gt;Node3</title>
<path fill="none" stroke="midnightblue" d="M135.75,-168.32C120.18,-159.74 96.12,-146.49 78.04,-136.52"/>
<polygon fill="midnightblue" stroke="midnightblue" points="79.65,-133.42 69.21,-131.65 76.28,-139.55 79.65,-133.42"/>
</g>
<!-- Node10&#45;&gt;Node7 -->
<g id="edge13" class="edge">
<title>Node10&#45;&gt;Node7</title>
<path fill="none" stroke="midnightblue" d="M167.89,-168.32C184.17,-159.7 209.37,-146.36 228.22,-136.39"/>
<polygon fill="midnightblue" stroke="midnightblue" points="229.95,-139.43 237.15,-131.65 226.68,-133.24 229.95,-139.43"/>
</g>
<!-- Node11 -->
<g id="node11" class="node">
<title>Node11</title>
<g id="a_node11"><a xlink:title=" ">
<polygon fill="white" stroke="#bfbfbf" points="125,-112.5 125,-131.5 184,-131.5 184,-112.5 125,-112.5"/>
<text text-anchor="middle" x="154.5" y="-119.5" font-family="Helvetica,sans-Serif" font-size="10.00">functional</text>
</a>
</g>
</g>
<!-- Node10&#45;&gt;Node11 -->
<g id="edge14" class="edge">
<title>Node10&#45;&gt;Node11</title>
<path fill="none" stroke="midnightblue" d="M152,-168.08C152.39,-161.01 152.95,-150.86 153.45,-141.99"/>
<polygon fill="midnightblue" stroke="midnightblue" points="156.95,-141.93 154.01,-131.75 149.96,-141.54 156.95,-141.93"/>
</g>
</g>
</svg>
