<?xml version="1.0" encoding="UTF-8" standalone="no"?>
<!DOCTYPE svg PUBLIC "-//W3C//DTD SVG 1.1//EN"
 "http://www.w3.org/Graphics/SVG/1.1/DTD/svg11.dtd">
<!-- Generated by graphviz version 2.47.1 (20210421.1823)
 -->
<!-- Title: src/engine/Field.cpp Pages: 1 -->
<svg width="1209pt" height="431pt"
 viewBox="0.00 0.00 1208.50 431.00" xmlns="http://www.w3.org/2000/svg" xmlns:xlink="http://www.w3.org/1999/xlink">
<g id="graph0" class="graph" transform="scale(1 1) rotate(0) translate(4 427)">
<title>src/engine/Field.cpp</title>
<polygon fill="white" stroke="transparent" points="-4,4 -4,-427 1204.5,-427 1204.5,4 -4,4"/>
<!-- Node1 -->
<g id="node1" class="node">
<title>Node1</title>
<g id="a_node1"><a xlink:title=" ">
<polygon fill="#bfbfbf" stroke="black" points="559,-403.5 559,-422.5 663,-422.5 663,-403.5 559,-403.5"/>
<text text-anchor="middle" x="611" y="-410.5" font-family="Helvetica,sans-Serif" font-size="10.00">src/engine/Field.cpp</text>
</a>
</g>
</g>
<!-- Node2 -->
<g id="node2" class="node">
<title>Node2</title>
<g id="a_node2"><a xlink:href="_field_8hpp.html" target="_top" xlink:title=" ">
<polygon fill="white" stroke="black" points="567.5,-347.5 567.5,-366.5 654.5,-366.5 654.5,-347.5 567.5,-347.5"/>
<text text-anchor="middle" x="611" y="-354.5" font-family="Helvetica,sans-Serif" font-size="10.00">engine/Field.hpp</text>
</a>
</g>
</g>
<!-- Node1&#45;&gt;Node2 -->
<g id="edge1" class="edge">
<title>Node1&#45;&gt;Node2</title>
<path fill="none" stroke="midnightblue" d="M611,-403.08C611,-396.01 611,-385.86 611,-376.99"/>
<polygon fill="midnightblue" stroke="midnightblue" points="614.5,-376.75 611,-366.75 607.5,-376.75 614.5,-376.75"/>
</g>
<!-- Node8 -->
<g id="node8" class="node">
<title>Node8</title>
<g id="a_node8"><a xlink:title=" ">
<polygon fill="white" stroke="#bfbfbf" points="289,-56.5 289,-75.5 333,-75.5 333,-56.5 289,-56.5"/>
<text text-anchor="middle" x="311" y="-63.5" font-family="Helvetica,sans-Serif" font-size="10.00">cmath</text>
</a>
</g>
</g>
<!-- Node1&#45;&gt;Node8 -->
<g id="edge30" class="edge">
<title>Node1&#45;&gt;Node8</title>
<path fill="none" stroke="midnightblue" d="M558.91,-407.64C411.15,-394.59 0,-353.18 0,-296.5 0,-296.5 0,-296.5 0,-177 0,-118.35 199.05,-83.14 278.66,-71.4"/>
<polygon fill="midnightblue" stroke="midnightblue" points="279.24,-74.86 288.63,-69.96 278.24,-67.93 279.24,-74.86"/>
</g>
<!-- Node14 -->
<g id="node14" class="node">
<title>Node14</title>
<g id="a_node14"><a xlink:href="_sprites_manager_8hpp.html" target="_top" xlink:title=" ">
<polygon fill="white" stroke="black" points="357.5,-347.5 357.5,-366.5 460.5,-366.5 460.5,-347.5 357.5,-347.5"/>
<text text-anchor="middle" x="409" y="-354.5" font-family="Helvetica,sans-Serif" font-size="10.00">SpritesManager.hpp</text>
</a>
</g>
</g>
<!-- Node1&#45;&gt;Node14 -->
<g id="edge18" class="edge">
<title>Node1&#45;&gt;Node14</title>
<path fill="none" stroke="midnightblue" d="M578.99,-403.44C544.27,-394.16 488.71,-379.31 450.62,-369.13"/>
<polygon fill="midnightblue" stroke="midnightblue" points="451.42,-365.72 440.86,-366.52 449.61,-372.48 451.42,-365.72"/>
</g>
<!-- Node19 -->
<g id="node19" class="node">
<title>Node19</title>
<g id="a_node19"><a xlink:href="_constants_manager_8hpp.html" target="_top" xlink:title=" ">
<polygon fill="white" stroke="black" points="682,-347.5 682,-366.5 798,-366.5 798,-347.5 682,-347.5"/>
<text text-anchor="middle" x="740" y="-354.5" font-family="Helvetica,sans-Serif" font-size="10.00">ConstantsManager.hpp</text>
</a>
</g>
</g>
<!-- Node1&#45;&gt;Node19 -->
<g id="edge28" class="edge">
<title>Node1&#45;&gt;Node19</title>
<path fill="none" stroke="midnightblue" d="M631.44,-403.44C652.67,-394.56 686.1,-380.56 710.25,-370.45"/>
<polygon fill="midnightblue" stroke="midnightblue" points="711.78,-373.61 719.66,-366.52 709.08,-367.15 711.78,-373.61"/>
</g>
<!-- Node21 -->
<g id="node21" class="node">
<title>Node21</title>
<g id="a_node21"><a xlink:href="_resource_manager_8hpp.html" target="_top" xlink:title=" ">
<polygon fill="white" stroke="black" points="883.5,-286 883.5,-305 1036.5,-305 1036.5,-286 883.5,-286"/>
<text text-anchor="middle" x="960" y="-293" font-family="Helvetica,sans-Serif" font-size="10.00">graphics/ResourceManager.hpp</text>
</a>
</g>
</g>
<!-- Node1&#45;&gt;Node21 -->
<g id="edge31" class="edge">
<title>Node1&#45;&gt;Node21</title>
<path fill="none" stroke="midnightblue" d="M660.92,-403.48C701.01,-395.95 758.43,-383.57 807,-367 853.75,-351.05 905.42,-325.46 935.16,-309.89"/>
<polygon fill="midnightblue" stroke="midnightblue" points="937.16,-312.79 944.36,-305.02 933.89,-306.6 937.16,-312.79"/>
</g>
<!-- Node3 -->
<g id="node3" class="node">
<title>Node3</title>
<g id="a_node3"><a xlink:href="_cell_8hpp.html" target="_top" xlink:title=" ">
<polygon fill="white" stroke="black" points="548.5,-286 548.5,-305 665.5,-305 665.5,-286 548.5,-286"/>
<text text-anchor="middle" x="607" y="-293" font-family="Helvetica,sans-Serif" font-size="10.00">engine/objects/Cell.hpp</text>
</a>
</g>
</g>
<!-- Node2&#45;&gt;Node3 -->
<g id="edge2" class="edge">
<title>Node2&#45;&gt;Node3</title>
<path fill="none" stroke="midnightblue" d="M610.43,-347.48C609.86,-339.08 608.98,-325.98 608.25,-315.16"/>
<polygon fill="midnightblue" stroke="midnightblue" points="611.74,-314.75 607.57,-305.01 604.75,-315.22 611.74,-314.75"/>
</g>
<!-- Node6 -->
<g id="node6" class="node">
<title>Node6</title>
<g id="a_node6"><a xlink:href="_vector2_d_8hpp.html" target="_top" xlink:title=" ">
<polygon fill="white" stroke="black" points="687,-112.5 687,-131.5 799,-131.5 799,-112.5 687,-112.5"/>
<text text-anchor="middle" x="743" y="-119.5" font-family="Helvetica,sans-Serif" font-size="10.00">Helpers/Vector2D.hpp</text>
</a>
</g>
</g>
<!-- Node2&#45;&gt;Node6 -->
<g id="edge17" class="edge">
<title>Node2&#45;&gt;Node6</title>
<path fill="none" stroke="midnightblue" d="M629.11,-347.45C643.35,-339.81 662.63,-327.32 674,-311 711.65,-256.94 685.71,-227.96 713,-168 717.47,-158.19 723.96,-148.13 729.76,-140.01"/>
<polygon fill="midnightblue" stroke="midnightblue" points="732.72,-141.91 735.88,-131.8 727.1,-137.73 732.72,-141.91"/>
</g>
<!-- Node4 -->
<g id="node4" class="node">
<title>Node4</title>
<g id="a_node4"><a xlink:href="_drawable_8hpp.html" target="_top" xlink:title=" ">
<polygon fill="white" stroke="black" points="520.5,-168.5 520.5,-187.5 627.5,-187.5 627.5,-168.5 520.5,-168.5"/>
<text text-anchor="middle" x="574" y="-175.5" font-family="Helvetica,sans-Serif" font-size="10.00">engine/Drawable.hpp</text>
</a>
</g>
</g>
<!-- Node3&#45;&gt;Node4 -->
<g id="edge3" class="edge">
<title>Node3&#45;&gt;Node4</title>
<path fill="none" stroke="midnightblue" d="M591.04,-285.92C577.03,-277.37 557.57,-262.83 549,-244 541.67,-227.91 550.88,-208.99 560.12,-195.72"/>
<polygon fill="midnightblue" stroke="midnightblue" points="563.06,-197.63 566.31,-187.55 557.48,-193.4 563.06,-197.63"/>
</g>
<!-- Node9 -->
<g id="node9" class="node">
<title>Node9</title>
<g id="a_node9"><a xlink:href="_tickable_8hpp.html" target="_top" xlink:title=" ">
<polygon fill="white" stroke="black" points="399.5,-168.5 399.5,-187.5 502.5,-187.5 502.5,-168.5 399.5,-168.5"/>
<text text-anchor="middle" x="451" y="-175.5" font-family="Helvetica,sans-Serif" font-size="10.00">engine/Tickable.hpp</text>
</a>
</g>
</g>
<!-- Node3&#45;&gt;Node9 -->
<g id="edge8" class="edge">
<title>Node3&#45;&gt;Node9</title>
<path fill="none" stroke="midnightblue" d="M595.27,-285.82C568.85,-266.25 504.37,-218.52 471.3,-194.03"/>
<polygon fill="midnightblue" stroke="midnightblue" points="472.98,-190.92 462.86,-187.78 468.82,-196.55 472.98,-190.92"/>
</g>
<!-- Node10 -->
<g id="node10" class="node">
<title>Node10</title>
<g id="a_node10"><a xlink:title=" ">
<polygon fill="white" stroke="#bfbfbf" points="648,-56.5 648,-75.5 692,-75.5 692,-56.5 648,-56.5"/>
<text text-anchor="middle" x="670" y="-63.5" font-family="Helvetica,sans-Serif" font-size="10.00">vector</text>
</a>
</g>
</g>
<!-- Node3&#45;&gt;Node10 -->
<g id="edge9" class="edge">
<title>Node3&#45;&gt;Node10</title>
<path fill="none" stroke="midnightblue" d="M613.07,-286C619.7,-276.3 630.16,-259.73 636,-244 656.56,-188.63 665.28,-118.69 668.45,-85.77"/>
<polygon fill="midnightblue" stroke="midnightblue" points="671.94,-86.02 669.35,-75.75 664.97,-85.39 671.94,-86.02"/>
</g>
<!-- Node11 -->
<g id="node11" class="node">
<title>Node11</title>
<g id="a_node11"><a xlink:href="_ground_8hpp.html" target="_top" xlink:title=" ">
<polygon fill="white" stroke="black" points="398,-224.5 398,-243.5 464,-243.5 464,-224.5 398,-224.5"/>
<text text-anchor="middle" x="431" y="-231.5" font-family="Helvetica,sans-Serif" font-size="10.00">Ground.hpp</text>
</a>
</g>
</g>
<!-- Node3&#45;&gt;Node11 -->
<g id="edge10" class="edge">
<title>Node3&#45;&gt;Node11</title>
<path fill="none" stroke="midnightblue" d="M581.78,-285.98C551.33,-275.68 499.95,-258.31 465.76,-246.75"/>
<polygon fill="midnightblue" stroke="midnightblue" points="466.76,-243.4 456.17,-243.51 464.52,-250.03 466.76,-243.4"/>
</g>
<!-- Node12 -->
<g id="node12" class="node">
<title>Node12</title>
<g id="a_node12"><a xlink:href="_building_8hpp.html" target="_top" xlink:title=" ">
<polygon fill="white" stroke="black" points="558.5,-224.5 558.5,-243.5 627.5,-243.5 627.5,-224.5 558.5,-224.5"/>
<text text-anchor="middle" x="593" y="-231.5" font-family="Helvetica,sans-Serif" font-size="10.00">Building.hpp</text>
</a>
</g>
</g>
<!-- Node3&#45;&gt;Node12 -->
<g id="edge13" class="edge">
<title>Node3&#45;&gt;Node12</title>
<path fill="none" stroke="midnightblue" d="M604.99,-285.98C603,-277.49 599.87,-264.2 597.31,-253.32"/>
<polygon fill="midnightblue" stroke="midnightblue" points="600.7,-252.44 595,-243.51 593.89,-254.04 600.7,-252.44"/>
</g>
<!-- Node5 -->
<g id="node5" class="node">
<title>Node5</title>
<g id="a_node5"><a xlink:title=" ">
<polygon fill="white" stroke="#bfbfbf" points="541,-112.5 541,-131.5 607,-131.5 607,-112.5 541,-112.5"/>
<text text-anchor="middle" x="574" y="-119.5" font-family="Helvetica,sans-Serif" font-size="10.00">string_view</text>
</a>
</g>
</g>
<!-- Node4&#45;&gt;Node5 -->
<g id="edge4" class="edge">
<title>Node4&#45;&gt;Node5</title>
<path fill="none" stroke="midnightblue" d="M574,-168.08C574,-161.01 574,-150.86 574,-141.99"/>
<polygon fill="midnightblue" stroke="midnightblue" points="577.5,-141.75 574,-131.75 570.5,-141.75 577.5,-141.75"/>
</g>
<!-- Node4&#45;&gt;Node6 -->
<g id="edge5" class="edge">
<title>Node4&#45;&gt;Node6</title>
<path fill="none" stroke="midnightblue" d="M600.78,-168.44C629.33,-159.32 674.73,-144.81 706.54,-134.65"/>
<polygon fill="midnightblue" stroke="midnightblue" points="707.89,-137.89 716.35,-131.52 705.76,-131.23 707.89,-137.89"/>
</g>
<!-- Node7 -->
<g id="node7" class="node">
<title>Node7</title>
<g id="a_node7"><a xlink:title=" ">
<polygon fill="white" stroke="#bfbfbf" points="724.5,-56.5 724.5,-75.5 763.5,-75.5 763.5,-56.5 724.5,-56.5"/>
<text text-anchor="middle" x="744" y="-63.5" font-family="Helvetica,sans-Serif" font-size="10.00">utility</text>
</a>
</g>
</g>
<!-- Node6&#45;&gt;Node7 -->
<g id="edge6" class="edge">
<title>Node6&#45;&gt;Node7</title>
<path fill="none" stroke="midnightblue" d="M743.17,-112.08C743.3,-105.01 743.48,-94.86 743.65,-85.99"/>
<polygon fill="midnightblue" stroke="midnightblue" points="747.15,-85.81 743.84,-75.75 740.15,-85.68 747.15,-85.81"/>
</g>
<!-- Node6&#45;&gt;Node8 -->
<g id="edge7" class="edge">
<title>Node6&#45;&gt;Node8</title>
<path fill="none" stroke="midnightblue" d="M686.97,-114C595.36,-102.54 416.41,-80.18 343.3,-71.04"/>
<polygon fill="midnightblue" stroke="midnightblue" points="343.66,-67.55 333.3,-69.79 342.79,-74.5 343.66,-67.55"/>
</g>
<!-- Node11&#45;&gt;Node4 -->
<g id="edge11" class="edge">
<title>Node11&#45;&gt;Node4</title>
<path fill="none" stroke="midnightblue" d="M453.66,-224.44C477.4,-215.48 514.91,-201.31 541.74,-191.18"/>
<polygon fill="midnightblue" stroke="midnightblue" points="543.33,-194.32 551.45,-187.52 540.86,-187.77 543.33,-194.32"/>
</g>
<!-- Node11&#45;&gt;Node9 -->
<g id="edge12" class="edge">
<title>Node11&#45;&gt;Node9</title>
<path fill="none" stroke="midnightblue" d="M434.3,-224.08C436.98,-216.85 440.85,-206.41 444.19,-197.4"/>
<polygon fill="midnightblue" stroke="midnightblue" points="447.57,-198.34 447.76,-187.75 441,-195.91 447.57,-198.34"/>
</g>
<!-- Node12&#45;&gt;Node4 -->
<g id="edge14" class="edge">
<title>Node12&#45;&gt;Node4</title>
<path fill="none" stroke="midnightblue" d="M589.86,-224.08C587.32,-216.85 583.64,-206.41 580.47,-197.4"/>
<polygon fill="midnightblue" stroke="midnightblue" points="583.7,-196.02 577.08,-187.75 577.1,-198.35 583.7,-196.02"/>
</g>
<!-- Node12&#45;&gt;Node9 -->
<g id="edge15" class="edge">
<title>Node12&#45;&gt;Node9</title>
<path fill="none" stroke="midnightblue" d="M570.5,-224.44C546.92,-215.48 509.68,-201.31 483.04,-191.18"/>
<polygon fill="midnightblue" stroke="midnightblue" points="483.99,-187.8 473.4,-187.52 481.5,-194.34 483.99,-187.8"/>
</g>
<!-- Node13 -->
<g id="node13" class="node">
<title>Node13</title>
<g id="a_node13"><a xlink:title=" ">
<polygon fill="white" stroke="#bfbfbf" points="722.5,-168.5 722.5,-187.5 781.5,-187.5 781.5,-168.5 722.5,-168.5"/>
<text text-anchor="middle" x="752" y="-175.5" font-family="Helvetica,sans-Serif" font-size="10.00">functional</text>
</a>
</g>
</g>
<!-- Node12&#45;&gt;Node13 -->
<g id="edge16" class="edge">
<title>Node12&#45;&gt;Node13</title>
<path fill="none" stroke="midnightblue" d="M618.19,-224.44C644.94,-215.36 687.4,-200.94 717.31,-190.78"/>
<polygon fill="midnightblue" stroke="midnightblue" points="718.58,-194.05 726.92,-187.52 716.33,-187.42 718.58,-194.05"/>
</g>
<!-- Node14&#45;&gt;Node3 -->
<g id="edge21" class="edge">
<title>Node14&#45;&gt;Node3</title>
<path fill="none" stroke="midnightblue" d="M437.37,-347.48C471.92,-337.09 530.42,-319.51 568.88,-307.95"/>
<polygon fill="midnightblue" stroke="midnightblue" points="570.11,-311.24 578.68,-305.01 568.1,-304.54 570.11,-311.24"/>
</g>
<!-- Node15 -->
<g id="node15" class="node">
<title>Node15</title>
<g id="a_node15"><a xlink:href="_ground_empty_8hpp.html" target="_top" xlink:title=" ">
<polygon fill="white" stroke="black" points="158,-280.5 158,-310.5 270,-310.5 270,-280.5 158,-280.5"/>
<text text-anchor="start" x="166" y="-298.5" font-family="Helvetica,sans-Serif" font-size="10.00">engine/objects/ground</text>
<text text-anchor="middle" x="214" y="-287.5" font-family="Helvetica,sans-Serif" font-size="10.00">/GroundEmpty.hpp</text>
</a>
</g>
</g>
<!-- Node14&#45;&gt;Node15 -->
<g id="edge19" class="edge">
<title>Node14&#45;&gt;Node15</title>
<path fill="none" stroke="midnightblue" d="M381.06,-347.48C352.18,-338.66 306.32,-324.67 269.94,-313.57"/>
<polygon fill="midnightblue" stroke="midnightblue" points="270.54,-310.09 259.96,-310.52 268.5,-316.79 270.54,-310.09"/>
</g>
<!-- Node16 -->
<g id="node16" class="node">
<title>Node16</title>
<g id="a_node16"><a xlink:href="_ground_earth_8hpp.html" target="_top" xlink:title=" ">
<polygon fill="white" stroke="black" points="288,-280.5 288,-310.5 400,-310.5 400,-280.5 288,-280.5"/>
<text text-anchor="start" x="296" y="-298.5" font-family="Helvetica,sans-Serif" font-size="10.00">engine/objects/ground</text>
<text text-anchor="middle" x="344" y="-287.5" font-family="Helvetica,sans-Serif" font-size="10.00">/GroundEarth.hpp</text>
</a>
</g>
</g>
<!-- Node14&#45;&gt;Node16 -->
<g id="edge22" class="edge">
<title>Node14&#45;&gt;Node16</title>
<path fill="none" stroke="midnightblue" d="M399.69,-347.48C391.13,-339.64 378.1,-327.71 366.79,-317.37"/>
<polygon fill="midnightblue" stroke="midnightblue" points="369.06,-314.69 359.32,-310.52 364.33,-319.86 369.06,-314.69"/>
</g>
<!-- Node17 -->
<g id="node17" class="node">
<title>Node17</title>
<g id="a_node17"><a xlink:href="_ground_water_8hpp.html" target="_top" xlink:title=" ">
<polygon fill="white" stroke="black" points="418,-280.5 418,-310.5 530,-310.5 530,-280.5 418,-280.5"/>
<text text-anchor="start" x="426" y="-298.5" font-family="Helvetica,sans-Serif" font-size="10.00">engine/objects/ground</text>
<text text-anchor="middle" x="474" y="-287.5" font-family="Helvetica,sans-Serif" font-size="10.00">/GroundWater.hpp</text>
</a>
</g>
</g>
<!-- Node14&#45;&gt;Node17 -->
<g id="edge24" class="edge">
<title>Node14&#45;&gt;Node17</title>
<path fill="none" stroke="midnightblue" d="M418.31,-347.48C426.87,-339.64 439.9,-327.71 451.21,-317.37"/>
<polygon fill="midnightblue" stroke="midnightblue" points="453.67,-319.86 458.68,-310.52 448.94,-314.69 453.67,-319.86"/>
</g>
<!-- Node18 -->
<g id="node18" class="node">
<title>Node18</title>
<g id="a_node18"><a xlink:href="_mineral_8hpp.html" target="_top" xlink:title=" ">
<polygon fill="white" stroke="black" points="28,-280.5 28,-310.5 140,-310.5 140,-280.5 28,-280.5"/>
<text text-anchor="start" x="36" y="-298.5" font-family="Helvetica,sans-Serif" font-size="10.00">engine/objects/ground</text>
<text text-anchor="middle" x="84" y="-287.5" font-family="Helvetica,sans-Serif" font-size="10.00">/Mineral.hpp</text>
</a>
</g>
</g>
<!-- Node14&#45;&gt;Node18 -->
<g id="edge26" class="edge">
<title>Node14&#45;&gt;Node18</title>
<path fill="none" stroke="midnightblue" d="M357.07,-347.77C306.64,-339.6 227.71,-326.37 150.26,-311.2"/>
<polygon fill="midnightblue" stroke="midnightblue" points="150.82,-307.74 140.34,-309.24 149.47,-314.61 150.82,-307.74"/>
</g>
<!-- Node15&#45;&gt;Node11 -->
<g id="edge20" class="edge">
<title>Node15&#45;&gt;Node11</title>
<path fill="none" stroke="midnightblue" d="M265.15,-280.47C303.24,-270.03 354.57,-255.96 389.98,-246.25"/>
<polygon fill="midnightblue" stroke="midnightblue" points="391.26,-249.53 399.98,-243.51 389.41,-242.78 391.26,-249.53"/>
</g>
<!-- Node16&#45;&gt;Node11 -->
<g id="edge23" class="edge">
<title>Node16&#45;&gt;Node11</title>
<path fill="none" stroke="midnightblue" d="M364.62,-280.4C378.3,-271.04 396.21,-258.79 409.98,-249.38"/>
<polygon fill="midnightblue" stroke="midnightblue" points="412.06,-252.19 418.34,-243.66 408.11,-246.41 412.06,-252.19"/>
</g>
<!-- Node17&#45;&gt;Node11 -->
<g id="edge25" class="edge">
<title>Node17&#45;&gt;Node11</title>
<path fill="none" stroke="midnightblue" d="M463.81,-280.4C457.63,-271.84 449.7,-260.87 443.18,-251.86"/>
<polygon fill="midnightblue" stroke="midnightblue" points="445.95,-249.71 437.26,-243.66 440.28,-253.81 445.95,-249.71"/>
</g>
<!-- Node18&#45;&gt;Node11 -->
<g id="edge27" class="edge">
<title>Node18&#45;&gt;Node11</title>
<path fill="none" stroke="midnightblue" d="M140.33,-281.71C143.26,-281.12 146.16,-280.54 149,-280 233.18,-263.91 332.25,-249.03 387.72,-241.07"/>
<polygon fill="midnightblue" stroke="midnightblue" points="388.49,-244.49 397.89,-239.61 387.5,-237.56 388.49,-244.49"/>
</g>
<!-- Node20 -->
<g id="node20" class="node">
<title>Node20</title>
<g id="a_node20"><a xlink:title=" ">
<polygon fill="white" stroke="#bfbfbf" points="722,-286 722,-305 768,-305 768,-286 722,-286"/>
<text text-anchor="middle" x="745" y="-293" font-family="Helvetica,sans-Serif" font-size="10.00">cstdint</text>
</a>
</g>
</g>
<!-- Node19&#45;&gt;Node20 -->
<g id="edge29" class="edge">
<title>Node19&#45;&gt;Node20</title>
<path fill="none" stroke="midnightblue" d="M740.72,-347.48C741.42,-339.08 742.52,-325.98 743.43,-315.16"/>
<polygon fill="midnightblue" stroke="midnightblue" points="746.94,-315.27 744.28,-305.01 739.96,-314.68 746.94,-315.27"/>
</g>
<!-- Node22 -->
<g id="node22" class="node">
<title>Node22</title>
<g id="a_node22"><a xlink:title=" ">
<polygon fill="white" stroke="#bfbfbf" points="1003.5,-224.5 1003.5,-243.5 1038.5,-243.5 1038.5,-224.5 1003.5,-224.5"/>
<text text-anchor="middle" x="1021" y="-231.5" font-family="Helvetica,sans-Serif" font-size="10.00">map</text>
</a>
</g>
</g>
<!-- Node21&#45;&gt;Node22 -->
<g id="edge32" class="edge">
<title>Node21&#45;&gt;Node22</title>
<path fill="none" stroke="midnightblue" d="M968.74,-285.98C978.16,-276.78 993.36,-261.96 1004.95,-250.66"/>
<polygon fill="midnightblue" stroke="midnightblue" points="1007.56,-253 1012.28,-243.51 1002.67,-247.99 1007.56,-253"/>
</g>
<!-- Node23 -->
<g id="node23" class="node">
<title>Node23</title>
<g id="a_node23"><a xlink:title=" ">
<polygon fill="white" stroke="#bfbfbf" points="898.5,-168.5 898.5,-187.5 939.5,-187.5 939.5,-168.5 898.5,-168.5"/>
<text text-anchor="middle" x="919" y="-175.5" font-family="Helvetica,sans-Serif" font-size="10.00">string</text>
</a>
</g>
</g>
<!-- Node21&#45;&gt;Node23 -->
<g id="edge33" class="edge">
<title>Node21&#45;&gt;Node23</title>
<path fill="none" stroke="midnightblue" d="M952.29,-285.93C944.22,-276.43 931.94,-260.28 926,-244 920.58,-229.16 918.99,-211.23 918.66,-197.97"/>
<polygon fill="midnightblue" stroke="midnightblue" points="922.16,-197.7 918.63,-187.71 915.16,-197.72 922.16,-197.7"/>
</g>
<!-- Node24 -->
<g id="node24" class="node">
<title>Node24</title>
<g id="a_node24"><a xlink:title=" ">
<polygon fill="white" stroke="#bfbfbf" points="934.5,-224.5 934.5,-243.5 985.5,-243.5 985.5,-224.5 934.5,-224.5"/>
<text text-anchor="middle" x="960" y="-231.5" font-family="Helvetica,sans-Serif" font-size="10.00">memory</text>
</a>
</g>
</g>
<!-- Node21&#45;&gt;Node24 -->
<g id="edge34" class="edge">
<title>Node21&#45;&gt;Node24</title>
<path fill="none" stroke="midnightblue" d="M960,-285.98C960,-277.58 960,-264.48 960,-253.66"/>
<polygon fill="midnightblue" stroke="midnightblue" points="963.5,-253.51 960,-243.51 956.5,-253.51 963.5,-253.51"/>
</g>
<!-- Node25 -->
<g id="node25" class="node">
<title>Node25</title>
<g id="a_node25"><a xlink:href="_shader_8hpp.html" target="_top" xlink:title=" ">
<polygon fill="white" stroke="black" points="1095.5,-224.5 1095.5,-243.5 1200.5,-243.5 1200.5,-224.5 1095.5,-224.5"/>
<text text-anchor="middle" x="1148" y="-231.5" font-family="Helvetica,sans-Serif" font-size="10.00">graphics/Shader.hpp</text>
</a>
</g>
</g>
<!-- Node21&#45;&gt;Node25 -->
<g id="edge35" class="edge">
<title>Node21&#45;&gt;Node25</title>
<path fill="none" stroke="midnightblue" d="M986.94,-285.98C1019.6,-275.64 1074.82,-258.16 1111.34,-246.6"/>
<polygon fill="midnightblue" stroke="midnightblue" points="1112.64,-249.86 1121.11,-243.51 1110.52,-243.19 1112.64,-249.86"/>
</g>
<!-- Node26 -->
<g id="node26" class="node">
<title>Node26</title>
<g id="a_node26"><a xlink:href="_g_shape_8hpp.html" target="_top" xlink:title=" ">
<polygon fill="white" stroke="black" points="972,-168.5 972,-187.5 1082,-187.5 1082,-168.5 972,-168.5"/>
<text text-anchor="middle" x="1027" y="-175.5" font-family="Helvetica,sans-Serif" font-size="10.00">graphics/GShape.hpp</text>
</a>
</g>
</g>
<!-- Node21&#45;&gt;Node26 -->
<g id="edge50" class="edge">
<title>Node21&#45;&gt;Node26</title>
<path fill="none" stroke="midnightblue" d="M990.22,-285.94C1010.48,-278.44 1035.64,-265.34 1048,-244 1056.69,-228.99 1048.6,-209.92 1040.06,-196.32"/>
<polygon fill="midnightblue" stroke="midnightblue" points="1042.83,-194.16 1034.28,-187.9 1037.06,-198.13 1042.83,-194.16"/>
</g>
<!-- Node32 -->
<g id="node32" class="node">
<title>Node32</title>
<g id="a_node32"><a xlink:href="_event_handler_8hpp.html" target="_top" xlink:title=" ">
<polygon fill="white" stroke="black" points="722.5,-224.5 722.5,-243.5 877.5,-243.5 877.5,-224.5 722.5,-224.5"/>
<text text-anchor="middle" x="800" y="-231.5" font-family="Helvetica,sans-Serif" font-size="10.00">EventHandler/EventHandler.hpp</text>
</a>
</g>
</g>
<!-- Node21&#45;&gt;Node32 -->
<g id="edge51" class="edge">
<title>Node21&#45;&gt;Node32</title>
<path fill="none" stroke="midnightblue" d="M937.08,-285.98C909.63,-275.77 863.48,-258.61 832.4,-247.05"/>
<polygon fill="midnightblue" stroke="midnightblue" points="833.47,-243.71 822.88,-243.51 831.03,-250.28 833.47,-243.71"/>
</g>
<!-- Node25&#45;&gt;Node23 -->
<g id="edge36" class="edge">
<title>Node25&#45;&gt;Node23</title>
<path fill="none" stroke="midnightblue" d="M1111.71,-224.44C1066.95,-213.89 991.64,-196.13 949.65,-186.23"/>
<polygon fill="midnightblue" stroke="midnightblue" points="950.26,-182.78 939.73,-183.89 948.66,-189.59 950.26,-182.78"/>
</g>
<!-- Node25&#45;&gt;Node26 -->
<g id="edge37" class="edge">
<title>Node25&#45;&gt;Node26</title>
<path fill="none" stroke="midnightblue" d="M1123.74,-224.44C1102.26,-215.71 1071.41,-202.06 1050.25,-191.99"/>
<polygon fill="midnightblue" stroke="midnightblue" points="1051.53,-188.73 1041,-187.52 1048.48,-195.03 1051.53,-188.73"/>
</g>
<!-- Node30 -->
<g id="node30" class="node">
<title>Node30</title>
<g id="a_node30"><a xlink:href="_transform_8hpp.html" target="_top" xlink:title=" ">
<polygon fill="white" stroke="black" points="967.5,-56.5 967.5,-75.5 1086.5,-75.5 1086.5,-56.5 967.5,-56.5"/>
<text text-anchor="middle" x="1027" y="-63.5" font-family="Helvetica,sans-Serif" font-size="10.00">graphics/Transform.hpp</text>
</a>
</g>
</g>
<!-- Node25&#45;&gt;Node30 -->
<g id="edge49" class="edge">
<title>Node25&#45;&gt;Node30</title>
<path fill="none" stroke="midnightblue" d="M1144.54,-224.19C1139.3,-211.31 1128.59,-186.81 1116,-168 1094.04,-135.2 1062.33,-101.72 1043.28,-82.74"/>
<polygon fill="midnightblue" stroke="midnightblue" points="1045.54,-80.05 1035.96,-75.53 1040.63,-85.04 1045.54,-80.05"/>
</g>
<!-- Node26&#45;&gt;Node6 -->
<g id="edge48" class="edge">
<title>Node26&#45;&gt;Node6</title>
<path fill="none" stroke="midnightblue" d="M982,-168.44C932.04,-158.94 851.4,-143.61 797.8,-133.42"/>
<polygon fill="midnightblue" stroke="midnightblue" points="798.27,-129.95 787.79,-131.52 796.96,-136.82 798.27,-129.95"/>
</g>
<!-- Node26&#45;&gt;Node25 -->
<g id="edge46" class="edge">
<title>Node26&#45;&gt;Node25</title>
<path fill="none" stroke="midnightblue" d="M1051.5,-187.65C1072.86,-196.35 1103.38,-209.85 1124.45,-219.86"/>
<polygon fill="midnightblue" stroke="midnightblue" points="1123.15,-223.12 1133.67,-224.32 1126.2,-216.82 1123.15,-223.12"/>
</g>
<!-- Node27 -->
<g id="node27" class="node">
<title>Node27</title>
<g id="a_node27"><a xlink:href="_window_8hpp.html" target="_top" xlink:title=" ">
<polygon fill="white" stroke="black" points="833.5,-112.5 833.5,-131.5 942.5,-131.5 942.5,-112.5 833.5,-112.5"/>
<text text-anchor="middle" x="888" y="-119.5" font-family="Helvetica,sans-Serif" font-size="10.00">graphics/Window.hpp</text>
</a>
</g>
</g>
<!-- Node26&#45;&gt;Node27 -->
<g id="edge38" class="edge">
<title>Node26&#45;&gt;Node27</title>
<path fill="none" stroke="midnightblue" d="M1004.98,-168.44C981.9,-159.48 945.44,-145.31 919.36,-135.18"/>
<polygon fill="midnightblue" stroke="midnightblue" points="920.51,-131.88 909.92,-131.52 917.98,-138.4 920.51,-131.88"/>
</g>
<!-- Node26&#45;&gt;Node30 -->
<g id="edge47" class="edge">
<title>Node26&#45;&gt;Node30</title>
<path fill="none" stroke="midnightblue" d="M1027,-168.37C1027,-150.62 1027,-109.67 1027,-85.6"/>
<polygon fill="midnightblue" stroke="midnightblue" points="1030.5,-85.59 1027,-75.59 1023.5,-85.59 1030.5,-85.59"/>
</g>
<!-- Node27&#45;&gt;Node7 -->
<g id="edge41" class="edge">
<title>Node27&#45;&gt;Node7</title>
<path fill="none" stroke="midnightblue" d="M865.18,-112.44C840.32,-103.12 800.47,-88.18 773.31,-77.99"/>
<polygon fill="midnightblue" stroke="midnightblue" points="774.52,-74.71 763.93,-74.47 772.06,-81.26 774.52,-74.71"/>
</g>
<!-- Node27&#45;&gt;Node10 -->
<g id="edge42" class="edge">
<title>Node27&#45;&gt;Node10</title>
<path fill="none" stroke="midnightblue" d="M853.46,-112.44C811.82,-102.13 742.42,-84.94 701.97,-74.92"/>
<polygon fill="midnightblue" stroke="midnightblue" points="702.65,-71.48 692.1,-72.47 700.96,-78.28 702.65,-71.48"/>
</g>
<!-- Node27&#45;&gt;Node25 -->
<g id="edge43" class="edge">
<title>Node27&#45;&gt;Node25</title>
<path fill="none" stroke="midnightblue" d="M942.67,-125.87C985.59,-130.22 1045.49,-141.06 1091,-168 1110.71,-179.67 1127.17,-200.52 1137.26,-215.46"/>
<polygon fill="midnightblue" stroke="midnightblue" points="1134.57,-217.76 1142.93,-224.27 1140.46,-213.97 1134.57,-217.76"/>
</g>
<!-- Node28 -->
<g id="node28" class="node">
<title>Node28</title>
<g id="a_node28"><a xlink:title=" ">
<polygon fill="white" stroke="#bfbfbf" points="783.5,-56.5 783.5,-75.5 846.5,-75.5 846.5,-56.5 783.5,-56.5"/>
<text text-anchor="middle" x="815" y="-63.5" font-family="Helvetica,sans-Serif" font-size="10.00">glad/glad.h</text>
</a>
</g>
</g>
<!-- Node27&#45;&gt;Node28 -->
<g id="edge39" class="edge">
<title>Node27&#45;&gt;Node28</title>
<path fill="none" stroke="midnightblue" d="M876.27,-112.32C865.16,-104.11 848.26,-91.6 835.02,-81.81"/>
<polygon fill="midnightblue" stroke="midnightblue" points="837.06,-78.97 826.94,-75.83 832.9,-84.59 837.06,-78.97"/>
</g>
<!-- Node29 -->
<g id="node29" class="node">
<title>Node29</title>
<g id="a_node29"><a xlink:title=" ">
<polygon fill="white" stroke="#bfbfbf" points="864.5,-56.5 864.5,-75.5 943.5,-75.5 943.5,-56.5 864.5,-56.5"/>
<text text-anchor="middle" x="904" y="-63.5" font-family="Helvetica,sans-Serif" font-size="10.00">GLFW/glfw3.h</text>
</a>
</g>
</g>
<!-- Node27&#45;&gt;Node29 -->
<g id="edge40" class="edge">
<title>Node27&#45;&gt;Node29</title>
<path fill="none" stroke="midnightblue" d="M890.64,-112.08C892.79,-104.85 895.88,-94.41 898.55,-85.4"/>
<polygon fill="midnightblue" stroke="midnightblue" points="901.92,-86.33 901.41,-75.75 895.21,-84.34 901.92,-86.33"/>
</g>
<!-- Node27&#45;&gt;Node30 -->
<g id="edge44" class="edge">
<title>Node27&#45;&gt;Node30</title>
<path fill="none" stroke="midnightblue" d="M910.02,-112.44C933.1,-103.48 969.56,-89.31 995.64,-79.18"/>
<polygon fill="midnightblue" stroke="midnightblue" points="997.02,-82.4 1005.08,-75.52 994.49,-75.88 997.02,-82.4"/>
</g>
<!-- Node31 -->
<g id="node31" class="node">
<title>Node31</title>
<g id="a_node31"><a xlink:title=" ">
<polygon fill="white" stroke="#bfbfbf" points="975,-0.5 975,-19.5 1079,-19.5 1079,-0.5 975,-0.5"/>
<text text-anchor="middle" x="1027" y="-7.5" font-family="Helvetica,sans-Serif" font-size="10.00">glm/gtc/type_ptr.hpp</text>
</a>
</g>
</g>
<!-- Node30&#45;&gt;Node31 -->
<g id="edge45" class="edge">
<title>Node30&#45;&gt;Node31</title>
<path fill="none" stroke="midnightblue" d="M1027,-56.08C1027,-49.01 1027,-38.86 1027,-29.99"/>
<polygon fill="midnightblue" stroke="midnightblue" points="1030.5,-29.75 1027,-19.75 1023.5,-29.75 1030.5,-29.75"/>
</g>
<!-- Node32&#45;&gt;Node6 -->
<g id="edge54" class="edge">
<title>Node32&#45;&gt;Node6</title>
<path fill="none" stroke="midnightblue" d="M800.57,-224.46C801.06,-211.5 800.53,-186.41 791,-168 784.83,-156.07 774.2,-145.61 764.51,-137.78"/>
<polygon fill="midnightblue" stroke="midnightblue" points="766.46,-134.87 756.38,-131.61 762.23,-140.44 766.46,-134.87"/>
</g>
<!-- Node32&#45;&gt;Node13 -->
<g id="edge52" class="edge">
<title>Node32&#45;&gt;Node13</title>
<path fill="none" stroke="midnightblue" d="M792.07,-224.08C785.15,-216.3 774.93,-204.8 766.55,-195.37"/>
<polygon fill="midnightblue" stroke="midnightblue" points="769.04,-192.9 759.78,-187.75 763.81,-197.55 769.04,-192.9"/>
</g>
<!-- Node32&#45;&gt;Node27 -->
<g id="edge53" class="edge">
<title>Node32&#45;&gt;Node27</title>
<path fill="none" stroke="midnightblue" d="M806.91,-224.37C821.49,-206.14 855.66,-163.43 874.66,-139.68"/>
<polygon fill="midnightblue" stroke="midnightblue" points="877.61,-141.59 881.13,-131.59 872.15,-137.21 877.61,-141.59"/>
</g>
</g>
</svg>
