<?xml version="1.0" encoding="UTF-8" standalone="no"?>
<!DOCTYPE svg PUBLIC "-//W3C//DTD SVG 1.1//EN"
 "http://www.w3.org/Graphics/SVG/1.1/DTD/svg11.dtd">
<!-- Generated by graphviz version 2.47.0 (20210407.0042)
 -->
<!-- Title: src/engine/Field.cpp Pages: 1 -->
<svg width="1189pt" height="375pt"
 viewBox="0.00 0.00 1189.00 375.00" xmlns="http://www.w3.org/2000/svg" xmlns:xlink="http://www.w3.org/1999/xlink">
<g id="graph0" class="graph" transform="scale(1 1) rotate(0) translate(4 371)">
<title>src/engine/Field.cpp</title>
<polygon fill="white" stroke="transparent" points="-4,4 -4,-371 1185,-371 1185,4 -4,4"/>
<!-- Node1 -->
<g id="node1" class="node">
<title>Node1</title>
<g id="a_node1"><a xlink:title=" ">
<polygon fill="#bfbfbf" stroke="black" points="856,-347.5 856,-366.5 960,-366.5 960,-347.5 856,-347.5"/>
<text text-anchor="middle" x="908" y="-354.5" font-family="Helvetica,sans-Serif" font-size="10.00">src/engine/Field.cpp</text>
</a>
</g>
</g>
<!-- Node2 -->
<g id="node2" class="node">
<title>Node2</title>
<g id="a_node2"><a xlink:href="_field_8hpp.html" target="_top" xlink:title=" ">
<polygon fill="white" stroke="black" points="622.5,-291.5 622.5,-310.5 709.5,-310.5 709.5,-291.5 622.5,-291.5"/>
<text text-anchor="middle" x="666" y="-298.5" font-family="Helvetica,sans-Serif" font-size="10.00">engine/Field.hpp</text>
</a>
</g>
</g>
<!-- Node1&#45;&gt;Node2 -->
<g id="edge1" class="edge">
<title>Node1&#45;&gt;Node2</title>
<path fill="none" stroke="midnightblue" d="M869.65,-347.44C827.53,-338.04 759.79,-322.93 714.13,-312.74"/>
<polygon fill="midnightblue" stroke="midnightblue" points="714.69,-309.28 704.17,-310.52 713.16,-316.11 714.69,-309.28"/>
</g>
<!-- Node11 -->
<g id="node11" class="node">
<title>Node11</title>
<g id="a_node11"><a xlink:href="_sprites_manager_8hpp.html" target="_top" xlink:title=" ">
<polygon fill="white" stroke="black" points="329.5,-291.5 329.5,-310.5 432.5,-310.5 432.5,-291.5 329.5,-291.5"/>
<text text-anchor="middle" x="381" y="-298.5" font-family="Helvetica,sans-Serif" font-size="10.00">SpritesManager.hpp</text>
</a>
</g>
</g>
<!-- Node1&#45;&gt;Node11 -->
<g id="edge15" class="edge">
<title>Node1&#45;&gt;Node11</title>
<path fill="none" stroke="midnightblue" d="M855.54,-350.62C757.66,-340.59 547.64,-319.07 442.96,-308.35"/>
<polygon fill="midnightblue" stroke="midnightblue" points="443.16,-304.85 432.86,-307.31 442.45,-311.81 443.16,-304.85"/>
</g>
<!-- Node16 -->
<g id="node16" class="node">
<title>Node16</title>
<g id="a_node16"><a xlink:href="_constants_manager_8hpp.html" target="_top" xlink:title=" ">
<polygon fill="white" stroke="black" points="1003,-291.5 1003,-310.5 1119,-310.5 1119,-291.5 1003,-291.5"/>
<text text-anchor="middle" x="1061" y="-298.5" font-family="Helvetica,sans-Serif" font-size="10.00">ConstantsManager.hpp</text>
</a>
</g>
</g>
<!-- Node1&#45;&gt;Node16 -->
<g id="edge25" class="edge">
<title>Node1&#45;&gt;Node16</title>
<path fill="none" stroke="midnightblue" d="M932.24,-347.44C957.87,-338.4 998.49,-324.06 1027.24,-313.92"/>
<polygon fill="midnightblue" stroke="midnightblue" points="1028.61,-317.15 1036.87,-310.52 1026.28,-310.54 1028.61,-317.15"/>
</g>
<!-- Node18 -->
<g id="node18" class="node">
<title>Node18</title>
<g id="a_node18"><a xlink:title=" ">
<polygon fill="white" stroke="#bfbfbf" points="1137,-291.5 1137,-310.5 1181,-310.5 1181,-291.5 1137,-291.5"/>
<text text-anchor="middle" x="1159" y="-298.5" font-family="Helvetica,sans-Serif" font-size="10.00">cmath</text>
</a>
</g>
</g>
<!-- Node1&#45;&gt;Node18 -->
<g id="edge27" class="edge">
<title>Node1&#45;&gt;Node18</title>
<path fill="none" stroke="midnightblue" d="M955.45,-347.44C997.99,-339.51 1062.3,-326.89 1126.78,-311.15"/>
<polygon fill="midnightblue" stroke="midnightblue" points="1127.84,-314.5 1136.71,-308.71 1126.16,-307.7 1127.84,-314.5"/>
</g>
<!-- Node19 -->
<g id="node19" class="node">
<title>Node19</title>
<g id="a_node19"><a xlink:href="_resource_manager_8hpp.html" target="_top" xlink:title=" ">
<polygon fill="white" stroke="black" points="831.5,-291.5 831.5,-310.5 984.5,-310.5 984.5,-291.5 831.5,-291.5"/>
<text text-anchor="middle" x="908" y="-298.5" font-family="Helvetica,sans-Serif" font-size="10.00">graphics/ResourceManager.hpp</text>
</a>
</g>
</g>
<!-- Node1&#45;&gt;Node19 -->
<g id="edge28" class="edge">
<title>Node1&#45;&gt;Node19</title>
<path fill="none" stroke="midnightblue" d="M908,-347.08C908,-340.01 908,-329.86 908,-320.99"/>
<polygon fill="midnightblue" stroke="midnightblue" points="911.5,-320.75 908,-310.75 904.5,-320.75 911.5,-320.75"/>
</g>
<!-- Node3 -->
<g id="node3" class="node">
<title>Node3</title>
<g id="a_node3"><a xlink:href="_cell_8hpp.html" target="_top" xlink:title=" ">
<polygon fill="white" stroke="black" points="520.5,-230 520.5,-249 637.5,-249 637.5,-230 520.5,-230"/>
<text text-anchor="middle" x="579" y="-237" font-family="Helvetica,sans-Serif" font-size="10.00">engine/objects/Cell.hpp</text>
</a>
</g>
</g>
<!-- Node2&#45;&gt;Node3 -->
<g id="edge2" class="edge">
<title>Node2&#45;&gt;Node3</title>
<path fill="none" stroke="midnightblue" d="M653.54,-291.48C639.58,-281.93 616.74,-266.31 600.01,-254.87"/>
<polygon fill="midnightblue" stroke="midnightblue" points="601.67,-251.77 591.44,-249.01 597.72,-257.54 601.67,-251.77"/>
</g>
<!-- Node6 -->
<g id="node6" class="node">
<title>Node6</title>
<g id="a_node6"><a xlink:href="_vector2_d_8hpp.html" target="_top" xlink:title=" ">
<polygon fill="white" stroke="black" points="474,-56.5 474,-75.5 586,-75.5 586,-56.5 474,-56.5"/>
<text text-anchor="middle" x="530" y="-63.5" font-family="Helvetica,sans-Serif" font-size="10.00">Helpers/Vector2D.hpp</text>
</a>
</g>
</g>
<!-- Node2&#45;&gt;Node6 -->
<g id="edge14" class="edge">
<title>Node2&#45;&gt;Node6</title>
<path fill="none" stroke="midnightblue" d="M666,-291.44C665.56,-262.76 660.55,-168.68 615,-112 603.02,-97.09 584.75,-86.52 568.21,-79.38"/>
<polygon fill="midnightblue" stroke="midnightblue" points="569.32,-76.06 558.74,-75.57 566.71,-82.55 569.32,-76.06"/>
</g>
<!-- Node4 -->
<g id="node4" class="node">
<title>Node4</title>
<g id="a_node4"><a xlink:href="_drawable_8hpp.html" target="_top" xlink:title=" ">
<polygon fill="white" stroke="black" points="378.5,-112.5 378.5,-131.5 485.5,-131.5 485.5,-112.5 378.5,-112.5"/>
<text text-anchor="middle" x="432" y="-119.5" font-family="Helvetica,sans-Serif" font-size="10.00">engine/Drawable.hpp</text>
</a>
</g>
</g>
<!-- Node3&#45;&gt;Node4 -->
<g id="edge3" class="edge">
<title>Node3&#45;&gt;Node4</title>
<path fill="none" stroke="midnightblue" d="M560.67,-229.89C542.34,-220.83 513.8,-205.48 492,-188 473.94,-173.52 456.35,-153.56 444.93,-139.59"/>
<polygon fill="midnightblue" stroke="midnightblue" points="447.66,-137.39 438.67,-131.77 442.19,-141.77 447.66,-137.39"/>
</g>
<!-- Node7 -->
<g id="node7" class="node">
<title>Node7</title>
<g id="a_node7"><a xlink:href="_tickable_8hpp.html" target="_top" xlink:title=" ">
<polygon fill="white" stroke="black" points="503.5,-112.5 503.5,-131.5 606.5,-131.5 606.5,-112.5 503.5,-112.5"/>
<text text-anchor="middle" x="555" y="-119.5" font-family="Helvetica,sans-Serif" font-size="10.00">engine/Tickable.hpp</text>
</a>
</g>
</g>
<!-- Node3&#45;&gt;Node7 -->
<g id="edge6" class="edge">
<title>Node3&#45;&gt;Node7</title>
<path fill="none" stroke="midnightblue" d="M580.35,-229.65C582.12,-216.13 584.4,-189.61 579,-168 576.56,-158.25 571.56,-148.29 566.76,-140.23"/>
<polygon fill="midnightblue" stroke="midnightblue" points="569.69,-138.32 561.37,-131.77 563.79,-142.08 569.69,-138.32"/>
</g>
<!-- Node8 -->
<g id="node8" class="node">
<title>Node8</title>
<g id="a_node8"><a xlink:title=" ">
<polygon fill="white" stroke="#bfbfbf" points="604,-56.5 604,-75.5 648,-75.5 648,-56.5 604,-56.5"/>
<text text-anchor="middle" x="626" y="-63.5" font-family="Helvetica,sans-Serif" font-size="10.00">vector</text>
</a>
</g>
</g>
<!-- Node3&#45;&gt;Node8 -->
<g id="edge7" class="edge">
<title>Node3&#45;&gt;Node8</title>
<path fill="none" stroke="midnightblue" d="M582.47,-229.8C589.52,-211.82 605.65,-169.09 615,-132 618.89,-116.55 621.8,-98.68 623.65,-85.59"/>
<polygon fill="midnightblue" stroke="midnightblue" points="627.14,-85.88 625,-75.5 620.21,-84.95 627.14,-85.88"/>
</g>
<!-- Node9 -->
<g id="node9" class="node">
<title>Node9</title>
<g id="a_node9"><a xlink:href="_ground_8hpp.html" target="_top" xlink:title=" ">
<polygon fill="white" stroke="black" points="379,-168.5 379,-187.5 445,-187.5 445,-168.5 379,-168.5"/>
<text text-anchor="middle" x="412" y="-175.5" font-family="Helvetica,sans-Serif" font-size="10.00">Ground.hpp</text>
</a>
</g>
</g>
<!-- Node3&#45;&gt;Node9 -->
<g id="edge8" class="edge">
<title>Node3&#45;&gt;Node9</title>
<path fill="none" stroke="midnightblue" d="M555.07,-229.98C526.3,-219.72 477.84,-202.46 445.4,-190.9"/>
<polygon fill="midnightblue" stroke="midnightblue" points="446.48,-187.57 435.88,-187.51 444.13,-194.16 446.48,-187.57"/>
</g>
<!-- Node10 -->
<g id="node10" class="node">
<title>Node10</title>
<g id="a_node10"><a xlink:href="_building_8hpp.html" target="_top" xlink:title=" ">
<polygon fill="white" stroke="black" points="501.5,-168.5 501.5,-187.5 570.5,-187.5 570.5,-168.5 501.5,-168.5"/>
<text text-anchor="middle" x="536" y="-175.5" font-family="Helvetica,sans-Serif" font-size="10.00">Building.hpp</text>
</a>
</g>
</g>
<!-- Node3&#45;&gt;Node10 -->
<g id="edge11" class="edge">
<title>Node3&#45;&gt;Node10</title>
<path fill="none" stroke="midnightblue" d="M572.84,-229.98C566.39,-221.05 556.1,-206.81 548.03,-195.64"/>
<polygon fill="midnightblue" stroke="midnightblue" points="550.84,-193.56 542.15,-187.51 545.17,-197.66 550.84,-193.56"/>
</g>
<!-- Node5 -->
<g id="node5" class="node">
<title>Node5</title>
<g id="a_node5"><a xlink:title=" ">
<polygon fill="white" stroke="#bfbfbf" points="390,-56.5 390,-75.5 456,-75.5 456,-56.5 390,-56.5"/>
<text text-anchor="middle" x="423" y="-63.5" font-family="Helvetica,sans-Serif" font-size="10.00">string_view</text>
</a>
</g>
</g>
<!-- Node4&#45;&gt;Node5 -->
<g id="edge4" class="edge">
<title>Node4&#45;&gt;Node5</title>
<path fill="none" stroke="midnightblue" d="M430.51,-112.08C429.32,-104.93 427.61,-94.64 426.12,-85.69"/>
<polygon fill="midnightblue" stroke="midnightblue" points="429.55,-85.04 424.46,-75.75 422.65,-86.19 429.55,-85.04"/>
</g>
<!-- Node4&#45;&gt;Node6 -->
<g id="edge5" class="edge">
<title>Node4&#45;&gt;Node6</title>
<path fill="none" stroke="midnightblue" d="M447.75,-112.32C463.32,-103.74 487.38,-90.49 505.46,-80.52"/>
<polygon fill="midnightblue" stroke="midnightblue" points="507.22,-83.55 514.29,-75.65 503.85,-77.42 507.22,-83.55"/>
</g>
<!-- Node9&#45;&gt;Node4 -->
<g id="edge9" class="edge">
<title>Node9&#45;&gt;Node4</title>
<path fill="none" stroke="midnightblue" d="M415.3,-168.08C417.98,-160.85 421.85,-150.41 425.19,-141.4"/>
<polygon fill="midnightblue" stroke="midnightblue" points="428.57,-142.34 428.76,-131.75 422,-139.91 428.57,-142.34"/>
</g>
<!-- Node9&#45;&gt;Node7 -->
<g id="edge10" class="edge">
<title>Node9&#45;&gt;Node7</title>
<path fill="none" stroke="midnightblue" d="M434.66,-168.44C458.4,-159.48 495.91,-145.31 522.74,-135.18"/>
<polygon fill="midnightblue" stroke="midnightblue" points="524.33,-138.32 532.45,-131.52 521.86,-131.77 524.33,-138.32"/>
</g>
<!-- Node10&#45;&gt;Node4 -->
<g id="edge12" class="edge">
<title>Node10&#45;&gt;Node4</title>
<path fill="none" stroke="midnightblue" d="M519.29,-168.32C502.69,-159.7 477,-146.36 457.78,-136.39"/>
<polygon fill="midnightblue" stroke="midnightblue" points="459.16,-133.16 448.67,-131.65 455.93,-139.37 459.16,-133.16"/>
</g>
<!-- Node10&#45;&gt;Node7 -->
<g id="edge13" class="edge">
<title>Node10&#45;&gt;Node7</title>
<path fill="none" stroke="midnightblue" d="M539.14,-168.08C541.68,-160.85 545.36,-150.41 548.53,-141.4"/>
<polygon fill="midnightblue" stroke="midnightblue" points="551.9,-142.35 551.92,-131.75 545.3,-140.02 551.9,-142.35"/>
</g>
<!-- Node11&#45;&gt;Node3 -->
<g id="edge18" class="edge">
<title>Node11&#45;&gt;Node3</title>
<path fill="none" stroke="midnightblue" d="M409.37,-291.48C443.92,-281.09 502.42,-263.51 540.88,-251.95"/>
<polygon fill="midnightblue" stroke="midnightblue" points="542.11,-255.24 550.68,-249.01 540.1,-248.54 542.11,-255.24"/>
</g>
<!-- Node12 -->
<g id="node12" class="node">
<title>Node12</title>
<g id="a_node12"><a xlink:href="_ground_empty_8hpp.html" target="_top" xlink:title=" ">
<polygon fill="white" stroke="black" points="0,-224.5 0,-254.5 112,-254.5 112,-224.5 0,-224.5"/>
<text text-anchor="start" x="8" y="-242.5" font-family="Helvetica,sans-Serif" font-size="10.00">engine/objects/ground</text>
<text text-anchor="middle" x="56" y="-231.5" font-family="Helvetica,sans-Serif" font-size="10.00">/GroundEmpty.hpp</text>
</a>
</g>
</g>
<!-- Node11&#45;&gt;Node12 -->
<g id="edge16" class="edge">
<title>Node11&#45;&gt;Node12</title>
<path fill="none" stroke="midnightblue" d="M329.07,-291.77C278.64,-283.6 199.71,-270.37 122.26,-255.2"/>
<polygon fill="midnightblue" stroke="midnightblue" points="122.82,-251.74 112.34,-253.24 121.47,-258.61 122.82,-251.74"/>
</g>
<!-- Node13 -->
<g id="node13" class="node">
<title>Node13</title>
<g id="a_node13"><a xlink:href="_ground_earth_8hpp.html" target="_top" xlink:title=" ">
<polygon fill="white" stroke="black" points="130,-224.5 130,-254.5 242,-254.5 242,-224.5 130,-224.5"/>
<text text-anchor="start" x="138" y="-242.5" font-family="Helvetica,sans-Serif" font-size="10.00">engine/objects/ground</text>
<text text-anchor="middle" x="186" y="-231.5" font-family="Helvetica,sans-Serif" font-size="10.00">/GroundEarth.hpp</text>
</a>
</g>
</g>
<!-- Node11&#45;&gt;Node13 -->
<g id="edge19" class="edge">
<title>Node11&#45;&gt;Node13</title>
<path fill="none" stroke="midnightblue" d="M353.06,-291.48C324.18,-282.66 278.32,-268.67 241.94,-257.57"/>
<polygon fill="midnightblue" stroke="midnightblue" points="242.54,-254.09 231.96,-254.52 240.5,-260.79 242.54,-254.09"/>
</g>
<!-- Node14 -->
<g id="node14" class="node">
<title>Node14</title>
<g id="a_node14"><a xlink:href="_ground_water_8hpp.html" target="_top" xlink:title=" ">
<polygon fill="white" stroke="black" points="260,-224.5 260,-254.5 372,-254.5 372,-224.5 260,-224.5"/>
<text text-anchor="start" x="268" y="-242.5" font-family="Helvetica,sans-Serif" font-size="10.00">engine/objects/ground</text>
<text text-anchor="middle" x="316" y="-231.5" font-family="Helvetica,sans-Serif" font-size="10.00">/GroundWater.hpp</text>
</a>
</g>
</g>
<!-- Node11&#45;&gt;Node14 -->
<g id="edge21" class="edge">
<title>Node11&#45;&gt;Node14</title>
<path fill="none" stroke="midnightblue" d="M371.69,-291.48C363.13,-283.64 350.1,-271.71 338.79,-261.37"/>
<polygon fill="midnightblue" stroke="midnightblue" points="341.06,-258.69 331.32,-254.52 336.33,-263.86 341.06,-258.69"/>
</g>
<!-- Node15 -->
<g id="node15" class="node">
<title>Node15</title>
<g id="a_node15"><a xlink:href="_mineral_8hpp.html" target="_top" xlink:title=" ">
<polygon fill="white" stroke="black" points="390,-224.5 390,-254.5 502,-254.5 502,-224.5 390,-224.5"/>
<text text-anchor="start" x="398" y="-242.5" font-family="Helvetica,sans-Serif" font-size="10.00">engine/objects/ground</text>
<text text-anchor="middle" x="446" y="-231.5" font-family="Helvetica,sans-Serif" font-size="10.00">/Mineral.hpp</text>
</a>
</g>
</g>
<!-- Node11&#45;&gt;Node15 -->
<g id="edge23" class="edge">
<title>Node11&#45;&gt;Node15</title>
<path fill="none" stroke="midnightblue" d="M390.31,-291.48C398.87,-283.64 411.9,-271.71 423.21,-261.37"/>
<polygon fill="midnightblue" stroke="midnightblue" points="425.67,-263.86 430.68,-254.52 420.94,-258.69 425.67,-263.86"/>
</g>
<!-- Node12&#45;&gt;Node9 -->
<g id="edge17" class="edge">
<title>Node12&#45;&gt;Node9</title>
<path fill="none" stroke="midnightblue" d="M112.32,-225.7C115.25,-225.11 118.16,-224.54 121,-224 208.49,-207.5 311.62,-192.62 368.62,-184.8"/>
<polygon fill="midnightblue" stroke="midnightblue" points="369.28,-188.24 378.71,-183.42 368.33,-181.3 369.28,-188.24"/>
</g>
<!-- Node13&#45;&gt;Node9 -->
<g id="edge20" class="edge">
<title>Node13&#45;&gt;Node9</title>
<path fill="none" stroke="midnightblue" d="M239.27,-224.47C279.11,-213.99 332.86,-199.84 369.75,-190.12"/>
<polygon fill="midnightblue" stroke="midnightblue" points="370.91,-193.44 379.69,-187.51 369.13,-186.67 370.91,-193.44"/>
</g>
<!-- Node14&#45;&gt;Node9 -->
<g id="edge22" class="edge">
<title>Node14&#45;&gt;Node9</title>
<path fill="none" stroke="midnightblue" d="M338.75,-224.4C353.99,-214.95 373.99,-202.56 389.24,-193.11"/>
<polygon fill="midnightblue" stroke="midnightblue" points="391.38,-195.9 398.03,-187.66 387.69,-189.95 391.38,-195.9"/>
</g>
<!-- Node15&#45;&gt;Node9 -->
<g id="edge24" class="edge">
<title>Node15&#45;&gt;Node9</title>
<path fill="none" stroke="midnightblue" d="M437.94,-224.4C433.15,-216.02 427.04,-205.33 421.96,-196.42"/>
<polygon fill="midnightblue" stroke="midnightblue" points="424.95,-194.6 416.95,-187.66 418.87,-198.08 424.95,-194.6"/>
</g>
<!-- Node17 -->
<g id="node17" class="node">
<title>Node17</title>
<g id="a_node17"><a xlink:title=" ">
<polygon fill="white" stroke="#bfbfbf" points="1100,-230 1100,-249 1146,-249 1146,-230 1100,-230"/>
<text text-anchor="middle" x="1123" y="-237" font-family="Helvetica,sans-Serif" font-size="10.00">cstdint</text>
</a>
</g>
</g>
<!-- Node16&#45;&gt;Node17 -->
<g id="edge26" class="edge">
<title>Node16&#45;&gt;Node17</title>
<path fill="none" stroke="midnightblue" d="M1069.88,-291.48C1079.46,-282.28 1094.91,-267.46 1106.69,-256.16"/>
<polygon fill="midnightblue" stroke="midnightblue" points="1109.34,-258.46 1114.13,-249.01 1104.49,-253.41 1109.34,-258.46"/>
</g>
<!-- Node20 -->
<g id="node20" class="node">
<title>Node20</title>
<g id="a_node20"><a xlink:title=" ">
<polygon fill="white" stroke="#bfbfbf" points="977.5,-230 977.5,-249 1012.5,-249 1012.5,-230 977.5,-230"/>
<text text-anchor="middle" x="995" y="-237" font-family="Helvetica,sans-Serif" font-size="10.00">map</text>
</a>
</g>
</g>
<!-- Node19&#45;&gt;Node20 -->
<g id="edge29" class="edge">
<title>Node19&#45;&gt;Node20</title>
<path fill="none" stroke="midnightblue" d="M920.46,-291.48C934.42,-281.93 957.26,-266.31 973.99,-254.87"/>
<polygon fill="midnightblue" stroke="midnightblue" points="976.28,-257.54 982.56,-249.01 972.33,-251.77 976.28,-257.54"/>
</g>
<!-- Node21 -->
<g id="node21" class="node">
<title>Node21</title>
<g id="a_node21"><a xlink:title=" ">
<polygon fill="white" stroke="#bfbfbf" points="936.5,-168.5 936.5,-187.5 977.5,-187.5 977.5,-168.5 936.5,-168.5"/>
<text text-anchor="middle" x="957" y="-175.5" font-family="Helvetica,sans-Serif" font-size="10.00">string</text>
</a>
</g>
</g>
<!-- Node19&#45;&gt;Node21 -->
<g id="edge30" class="edge">
<title>Node19&#45;&gt;Node21</title>
<path fill="none" stroke="midnightblue" d="M912.24,-291.47C916.65,-282.49 923.63,-267.89 929,-255 937.09,-235.57 945.3,-212.88 950.71,-197.39"/>
<polygon fill="midnightblue" stroke="midnightblue" points="954.16,-198.12 954.12,-187.52 947.55,-195.83 954.16,-198.12"/>
</g>
<!-- Node22 -->
<g id="node22" class="node">
<title>Node22</title>
<g id="a_node22"><a xlink:title=" ">
<polygon fill="white" stroke="#bfbfbf" points="1030.5,-230 1030.5,-249 1081.5,-249 1081.5,-230 1030.5,-230"/>
<text text-anchor="middle" x="1056" y="-237" font-family="Helvetica,sans-Serif" font-size="10.00">memory</text>
</a>
</g>
</g>
<!-- Node19&#45;&gt;Node22 -->
<g id="edge31" class="edge">
<title>Node19&#45;&gt;Node22</title>
<path fill="none" stroke="midnightblue" d="M930.35,-291.38C953.39,-282.45 990.31,-268.01 1022,-255 1023.59,-254.35 1025.22,-253.67 1026.87,-252.99"/>
<polygon fill="midnightblue" stroke="midnightblue" points="1028.41,-256.13 1036.26,-249.03 1025.69,-249.68 1028.41,-256.13"/>
</g>
<!-- Node23 -->
<g id="node23" class="node">
<title>Node23</title>
<g id="a_node23"><a xlink:href="_shader_8hpp.html" target="_top" xlink:title=" ">
<polygon fill="white" stroke="black" points="815.5,-230 815.5,-249 920.5,-249 920.5,-230 815.5,-230"/>
<text text-anchor="middle" x="868" y="-237" font-family="Helvetica,sans-Serif" font-size="10.00">graphics/Shader.hpp</text>
</a>
</g>
</g>
<!-- Node19&#45;&gt;Node23 -->
<g id="edge32" class="edge">
<title>Node19&#45;&gt;Node23</title>
<path fill="none" stroke="midnightblue" d="M902.27,-291.48C896.33,-282.64 886.88,-268.59 879.41,-257.48"/>
<polygon fill="midnightblue" stroke="midnightblue" points="882.2,-255.36 873.72,-249.01 876.39,-259.26 882.2,-255.36"/>
</g>
<!-- Node24 -->
<g id="node24" class="node">
<title>Node24</title>
<g id="a_node24"><a xlink:href="_g_shape_8hpp.html" target="_top" xlink:title=" ">
<polygon fill="white" stroke="black" points="732,-168.5 732,-187.5 842,-187.5 842,-168.5 732,-168.5"/>
<text text-anchor="middle" x="787" y="-175.5" font-family="Helvetica,sans-Serif" font-size="10.00">graphics/GShape.hpp</text>
</a>
</g>
</g>
<!-- Node19&#45;&gt;Node24 -->
<g id="edge46" class="edge">
<title>Node19&#45;&gt;Node24</title>
<path fill="none" stroke="midnightblue" d="M868.21,-291.48C846.87,-284.93 821.78,-273.72 806,-255 792.47,-238.94 788.35,-214.62 787.21,-197.83"/>
<polygon fill="midnightblue" stroke="midnightblue" points="790.7,-197.47 786.82,-187.61 783.7,-197.74 790.7,-197.47"/>
</g>
<!-- Node23&#45;&gt;Node21 -->
<g id="edge33" class="edge">
<title>Node23&#45;&gt;Node21</title>
<path fill="none" stroke="midnightblue" d="M880.75,-229.98C895.03,-220.43 918.4,-204.81 935.51,-193.37"/>
<polygon fill="midnightblue" stroke="midnightblue" points="937.9,-195.98 944.27,-187.51 934.01,-190.16 937.9,-195.98"/>
</g>
<!-- Node23&#45;&gt;Node24 -->
<g id="edge34" class="edge">
<title>Node23&#45;&gt;Node24</title>
<path fill="none" stroke="midnightblue" d="M851.49,-229.98C836.7,-220.61 815.62,-205.38 801.48,-194.01"/>
<polygon fill="midnightblue" stroke="midnightblue" points="803.61,-191.23 793.69,-187.51 799.12,-196.6 803.61,-191.23"/>
</g>
<!-- Node29 -->
<g id="node29" class="node">
<title>Node29</title>
<g id="a_node29"><a xlink:href="_transform_8hpp.html" target="_top" xlink:title=" ">
<polygon fill="white" stroke="black" points="901.5,-56.5 901.5,-75.5 1020.5,-75.5 1020.5,-56.5 901.5,-56.5"/>
<text text-anchor="middle" x="961" y="-63.5" font-family="Helvetica,sans-Serif" font-size="10.00">graphics/Transform.hpp</text>
</a>
</g>
</g>
<!-- Node23&#45;&gt;Node29 -->
<g id="edge45" class="edge">
<title>Node23&#45;&gt;Node29</title>
<path fill="none" stroke="midnightblue" d="M872.74,-229.76C887.36,-202.81 931.93,-120.62 951.55,-84.42"/>
<polygon fill="midnightblue" stroke="midnightblue" points="954.69,-85.98 956.38,-75.52 948.54,-82.64 954.69,-85.98"/>
</g>
<!-- Node24&#45;&gt;Node23 -->
<g id="edge43" class="edge">
<title>Node24&#45;&gt;Node23</title>
<path fill="none" stroke="midnightblue" d="M803.48,-187.51C818.27,-196.87 839.34,-212.09 853.5,-223.47"/>
<polygon fill="midnightblue" stroke="midnightblue" points="851.37,-226.26 861.3,-229.98 855.86,-220.88 851.37,-226.26"/>
</g>
<!-- Node25 -->
<g id="node25" class="node">
<title>Node25</title>
<g id="a_node25"><a xlink:href="_window_8hpp.html" target="_top" xlink:title=" ">
<polygon fill="white" stroke="black" points="732.5,-112.5 732.5,-131.5 841.5,-131.5 841.5,-112.5 732.5,-112.5"/>
<text text-anchor="middle" x="787" y="-119.5" font-family="Helvetica,sans-Serif" font-size="10.00">graphics/Window.hpp</text>
</a>
</g>
</g>
<!-- Node24&#45;&gt;Node25 -->
<g id="edge35" class="edge">
<title>Node24&#45;&gt;Node25</title>
<path fill="none" stroke="midnightblue" d="M787,-168.08C787,-161.01 787,-150.86 787,-141.99"/>
<polygon fill="midnightblue" stroke="midnightblue" points="790.5,-141.75 787,-131.75 783.5,-141.75 790.5,-141.75"/>
</g>
<!-- Node24&#45;&gt;Node29 -->
<g id="edge44" class="edge">
<title>Node24&#45;&gt;Node29</title>
<path fill="none" stroke="midnightblue" d="M800.65,-168.37C830.64,-149.41 902.47,-104 938.95,-80.94"/>
<polygon fill="midnightblue" stroke="midnightblue" points="940.83,-83.89 947.41,-75.59 937.09,-77.98 940.83,-83.89"/>
</g>
<!-- Node25&#45;&gt;Node8 -->
<g id="edge39" class="edge">
<title>Node25&#45;&gt;Node8</title>
<path fill="none" stroke="midnightblue" d="M761.49,-112.44C733.45,-103.04 688.36,-87.91 657.97,-77.72"/>
<polygon fill="midnightblue" stroke="midnightblue" points="658.87,-74.33 648.28,-74.47 656.65,-80.97 658.87,-74.33"/>
</g>
<!-- Node25&#45;&gt;Node23 -->
<g id="edge40" class="edge">
<title>Node25&#45;&gt;Node23</title>
<path fill="none" stroke="midnightblue" d="M805.82,-131.55C820.33,-139.1 839.77,-151.49 851,-168 861.5,-183.43 865.54,-204.63 867.08,-219.74"/>
<polygon fill="midnightblue" stroke="midnightblue" points="863.6,-220.2 867.84,-229.91 870.58,-219.68 863.6,-220.2"/>
</g>
<!-- Node26 -->
<g id="node26" class="node">
<title>Node26</title>
<g id="a_node26"><a xlink:title=" ">
<polygon fill="white" stroke="#bfbfbf" points="666.5,-56.5 666.5,-75.5 729.5,-75.5 729.5,-56.5 666.5,-56.5"/>
<text text-anchor="middle" x="698" y="-63.5" font-family="Helvetica,sans-Serif" font-size="10.00">glad/glad.h</text>
</a>
</g>
</g>
<!-- Node25&#45;&gt;Node26 -->
<g id="edge36" class="edge">
<title>Node25&#45;&gt;Node26</title>
<path fill="none" stroke="midnightblue" d="M772.7,-112.32C758.82,-103.9 737.51,-90.97 721.2,-81.07"/>
<polygon fill="midnightblue" stroke="midnightblue" points="722.63,-77.85 712.26,-75.65 719,-83.83 722.63,-77.85"/>
</g>
<!-- Node27 -->
<g id="node27" class="node">
<title>Node27</title>
<g id="a_node27"><a xlink:title=" ">
<polygon fill="white" stroke="#bfbfbf" points="747.5,-56.5 747.5,-75.5 826.5,-75.5 826.5,-56.5 747.5,-56.5"/>
<text text-anchor="middle" x="787" y="-63.5" font-family="Helvetica,sans-Serif" font-size="10.00">GLFW/glfw3.h</text>
</a>
</g>
</g>
<!-- Node25&#45;&gt;Node27 -->
<g id="edge37" class="edge">
<title>Node25&#45;&gt;Node27</title>
<path fill="none" stroke="midnightblue" d="M787,-112.08C787,-105.01 787,-94.86 787,-85.99"/>
<polygon fill="midnightblue" stroke="midnightblue" points="790.5,-85.75 787,-75.75 783.5,-85.75 790.5,-85.75"/>
</g>
<!-- Node28 -->
<g id="node28" class="node">
<title>Node28</title>
<g id="a_node28"><a xlink:title=" ">
<polygon fill="white" stroke="#bfbfbf" points="844.5,-56.5 844.5,-75.5 883.5,-75.5 883.5,-56.5 844.5,-56.5"/>
<text text-anchor="middle" x="864" y="-63.5" font-family="Helvetica,sans-Serif" font-size="10.00">utility</text>
</a>
</g>
</g>
<!-- Node25&#45;&gt;Node28 -->
<g id="edge38" class="edge">
<title>Node25&#45;&gt;Node28</title>
<path fill="none" stroke="midnightblue" d="M799.37,-112.32C811.16,-104.06 829.13,-91.45 843.14,-81.63"/>
<polygon fill="midnightblue" stroke="midnightblue" points="845.48,-84.26 851.66,-75.65 841.46,-78.53 845.48,-84.26"/>
</g>
<!-- Node25&#45;&gt;Node29 -->
<g id="edge41" class="edge">
<title>Node25&#45;&gt;Node29</title>
<path fill="none" stroke="midnightblue" d="M814.57,-112.44C844.1,-103.28 891.12,-88.69 923.88,-78.52"/>
<polygon fill="midnightblue" stroke="midnightblue" points="925.04,-81.82 933.56,-75.52 922.97,-75.14 925.04,-81.82"/>
</g>
<!-- Node30 -->
<g id="node30" class="node">
<title>Node30</title>
<g id="a_node30"><a xlink:title=" ">
<polygon fill="white" stroke="#bfbfbf" points="909,-0.5 909,-19.5 1013,-19.5 1013,-0.5 909,-0.5"/>
<text text-anchor="middle" x="961" y="-7.5" font-family="Helvetica,sans-Serif" font-size="10.00">glm/gtc/type_ptr.hpp</text>
</a>
</g>
</g>
<!-- Node29&#45;&gt;Node30 -->
<g id="edge42" class="edge">
<title>Node29&#45;&gt;Node30</title>
<path fill="none" stroke="midnightblue" d="M961,-56.08C961,-49.01 961,-38.86 961,-29.99"/>
<polygon fill="midnightblue" stroke="midnightblue" points="964.5,-29.75 961,-19.75 957.5,-29.75 964.5,-29.75"/>
</g>
</g>
</svg>
