<?xml version="1.0" encoding="UTF-8" standalone="no"?>
<!DOCTYPE svg PUBLIC "-//W3C//DTD SVG 1.1//EN"
 "http://www.w3.org/Graphics/SVG/1.1/DTD/svg11.dtd">
<!-- Generated by graphviz version 2.47.0 (20210407.0042)
 -->
<!-- Title: include/engine/Field.hpp Pages: 1 -->
<svg width="360pt" height="308pt"
 viewBox="0.00 0.00 359.50 308.00" xmlns="http://www.w3.org/2000/svg" xmlns:xlink="http://www.w3.org/1999/xlink">
<g id="graph0" class="graph" transform="scale(1 1) rotate(0) translate(4 304)">
<title>include/engine/Field.hpp</title>
<polygon fill="white" stroke="transparent" points="-4,4 -4,-304 355.5,-304 355.5,4 -4,4"/>
<!-- Node1 -->
<g id="node1" class="node">
<title>Node1</title>
<g id="a_node1"><a xlink:title=" ">
<polygon fill="#bfbfbf" stroke="black" points="141,-280.5 141,-299.5 262,-299.5 262,-280.5 141,-280.5"/>
<text text-anchor="middle" x="201.5" y="-287.5" font-family="Helvetica,sans-Serif" font-size="10.00">include/engine/Field.hpp</text>
</a>
</g>
</g>
<!-- Node2 -->
<g id="node2" class="node">
<title>Node2</title>
<g id="a_node2"><a xlink:href="_cell_8hpp.html" target="_top" xlink:title=" ">
<polygon fill="white" stroke="black" points="93,-224.5 93,-243.5 210,-243.5 210,-224.5 93,-224.5"/>
<text text-anchor="middle" x="151.5" y="-231.5" font-family="Helvetica,sans-Serif" font-size="10.00">engine/objects/Cell.hpp</text>
</a>
</g>
</g>
<!-- Node1&#45;&gt;Node2 -->
<g id="edge1" class="edge">
<title>Node1&#45;&gt;Node2</title>
<path fill="none" stroke="midnightblue" d="M193.25,-280.08C186.04,-272.3 175.39,-260.8 166.66,-251.37"/>
<polygon fill="midnightblue" stroke="midnightblue" points="168.97,-248.71 159.61,-243.75 163.83,-253.47 168.97,-248.71"/>
</g>
<!-- Node5 -->
<g id="node5" class="node">
<title>Node5</title>
<g id="a_node5"><a xlink:href="_vector2_d_8hpp.html" target="_top" xlink:title=" ">
<polygon fill="white" stroke="black" points="239.5,-56.5 239.5,-75.5 351.5,-75.5 351.5,-56.5 239.5,-56.5"/>
<text text-anchor="middle" x="295.5" y="-63.5" font-family="Helvetica,sans-Serif" font-size="10.00">Helpers/Vector2D.hpp</text>
</a>
</g>
</g>
<!-- Node1&#45;&gt;Node5 -->
<g id="edge14" class="edge">
<title>Node1&#45;&gt;Node5</title>
<path fill="none" stroke="midnightblue" d="M206.52,-280.29C216.34,-263.04 238.43,-223.17 253.5,-188 268.7,-152.53 282.59,-109.56 289.96,-85.54"/>
<polygon fill="midnightblue" stroke="midnightblue" points="293.41,-86.25 292.96,-75.67 286.71,-84.22 293.41,-86.25"/>
</g>
<!-- Node3 -->
<g id="node3" class="node">
<title>Node3</title>
<g id="a_node3"><a xlink:href="_drawable_8hpp.html" target="_top" xlink:title=" ">
<polygon fill="white" stroke="black" points="150,-112.5 150,-131.5 257,-131.5 257,-112.5 150,-112.5"/>
<text text-anchor="middle" x="203.5" y="-119.5" font-family="Helvetica,sans-Serif" font-size="10.00">engine/Drawable.hpp</text>
</a>
</g>
</g>
<!-- Node2&#45;&gt;Node3 -->
<g id="edge2" class="edge">
<title>Node2&#45;&gt;Node3</title>
<path fill="none" stroke="midnightblue" d="M186.52,-224.45C205.44,-217.84 227.19,-206.59 238.5,-188 248.53,-171.53 234.68,-151.96 221.55,-138.63"/>
<polygon fill="midnightblue" stroke="midnightblue" points="223.77,-135.91 214.1,-131.57 218.95,-140.99 223.77,-135.91"/>
</g>
<!-- Node7 -->
<g id="node7" class="node">
<title>Node7</title>
<g id="a_node7"><a xlink:href="_tickable_8hpp.html" target="_top" xlink:title=" ">
<polygon fill="white" stroke="black" points="29,-112.5 29,-131.5 132,-131.5 132,-112.5 29,-112.5"/>
<text text-anchor="middle" x="80.5" y="-119.5" font-family="Helvetica,sans-Serif" font-size="10.00">engine/Tickable.hpp</text>
</a>
</g>
</g>
<!-- Node2&#45;&gt;Node7 -->
<g id="edge6" class="edge">
<title>Node2&#45;&gt;Node7</title>
<path fill="none" stroke="midnightblue" d="M92.87,-231.05C61.28,-226.63 24.74,-215.36 4.5,-188 -11.38,-166.52 19.28,-147.38 46.27,-135.53"/>
<polygon fill="midnightblue" stroke="midnightblue" points="47.7,-138.72 55.59,-131.65 45.01,-132.26 47.7,-138.72"/>
</g>
<!-- Node8 -->
<g id="node8" class="node">
<title>Node8</title>
<g id="a_node8"><a xlink:title=" ">
<polygon fill="white" stroke="#bfbfbf" points="13.5,-168.5 13.5,-187.5 57.5,-187.5 57.5,-168.5 13.5,-168.5"/>
<text text-anchor="middle" x="35.5" y="-175.5" font-family="Helvetica,sans-Serif" font-size="10.00">vector</text>
</a>
</g>
</g>
<!-- Node2&#45;&gt;Node8 -->
<g id="edge7" class="edge">
<title>Node2&#45;&gt;Node8</title>
<path fill="none" stroke="midnightblue" d="M133.12,-224.44C114.29,-215.68 84.77,-201.94 63.12,-191.86"/>
<polygon fill="midnightblue" stroke="midnightblue" points="64.34,-188.56 53.8,-187.52 61.39,-194.91 64.34,-188.56"/>
</g>
<!-- Node9 -->
<g id="node9" class="node">
<title>Node9</title>
<g id="a_node9"><a xlink:href="_ground_8hpp.html" target="_top" xlink:title=" ">
<polygon fill="white" stroke="black" points="75.5,-168.5 75.5,-187.5 141.5,-187.5 141.5,-168.5 75.5,-168.5"/>
<text text-anchor="middle" x="108.5" y="-175.5" font-family="Helvetica,sans-Serif" font-size="10.00">Ground.hpp</text>
</a>
</g>
</g>
<!-- Node2&#45;&gt;Node9 -->
<g id="edge8" class="edge">
<title>Node2&#45;&gt;Node9</title>
<path fill="none" stroke="midnightblue" d="M144.4,-224.08C138.27,-216.38 129.23,-205.03 121.76,-195.65"/>
<polygon fill="midnightblue" stroke="midnightblue" points="124.44,-193.39 115.47,-187.75 118.96,-197.75 124.44,-193.39"/>
</g>
<!-- Node10 -->
<g id="node10" class="node">
<title>Node10</title>
<g id="a_node10"><a xlink:href="_building_8hpp.html" target="_top" xlink:title=" ">
<polygon fill="white" stroke="black" points="160,-168.5 160,-187.5 229,-187.5 229,-168.5 160,-168.5"/>
<text text-anchor="middle" x="194.5" y="-175.5" font-family="Helvetica,sans-Serif" font-size="10.00">Building.hpp</text>
</a>
</g>
</g>
<!-- Node2&#45;&gt;Node10 -->
<g id="edge11" class="edge">
<title>Node2&#45;&gt;Node10</title>
<path fill="none" stroke="midnightblue" d="M158.6,-224.08C164.74,-216.38 173.77,-205.03 181.24,-195.65"/>
<polygon fill="midnightblue" stroke="midnightblue" points="184.04,-197.75 187.53,-187.75 178.57,-193.39 184.04,-197.75"/>
</g>
<!-- Node4 -->
<g id="node4" class="node">
<title>Node4</title>
<g id="a_node4"><a xlink:title=" ">
<polygon fill="white" stroke="#bfbfbf" points="155.5,-56.5 155.5,-75.5 221.5,-75.5 221.5,-56.5 155.5,-56.5"/>
<text text-anchor="middle" x="188.5" y="-63.5" font-family="Helvetica,sans-Serif" font-size="10.00">string_view</text>
</a>
</g>
</g>
<!-- Node3&#45;&gt;Node4 -->
<g id="edge3" class="edge">
<title>Node3&#45;&gt;Node4</title>
<path fill="none" stroke="midnightblue" d="M201.03,-112.08C199.02,-104.85 196.12,-94.41 193.61,-85.4"/>
<polygon fill="midnightblue" stroke="midnightblue" points="196.98,-84.45 190.93,-75.75 190.24,-86.32 196.98,-84.45"/>
</g>
<!-- Node3&#45;&gt;Node5 -->
<g id="edge4" class="edge">
<title>Node3&#45;&gt;Node5</title>
<path fill="none" stroke="midnightblue" d="M218.28,-112.32C232.77,-103.82 255.08,-90.73 272,-80.8"/>
<polygon fill="midnightblue" stroke="midnightblue" points="273.91,-83.74 280.76,-75.65 270.36,-77.7 273.91,-83.74"/>
</g>
<!-- Node6 -->
<g id="node6" class="node">
<title>Node6</title>
<g id="a_node6"><a xlink:title=" ">
<polygon fill="white" stroke="#bfbfbf" points="276,-0.5 276,-19.5 315,-19.5 315,-0.5 276,-0.5"/>
<text text-anchor="middle" x="295.5" y="-7.5" font-family="Helvetica,sans-Serif" font-size="10.00">utility</text>
</a>
</g>
</g>
<!-- Node5&#45;&gt;Node6 -->
<g id="edge5" class="edge">
<title>Node5&#45;&gt;Node6</title>
<path fill="none" stroke="midnightblue" d="M295.5,-56.08C295.5,-49.01 295.5,-38.86 295.5,-29.99"/>
<polygon fill="midnightblue" stroke="midnightblue" points="299,-29.75 295.5,-19.75 292,-29.75 299,-29.75"/>
</g>
<!-- Node9&#45;&gt;Node3 -->
<g id="edge9" class="edge">
<title>Node9&#45;&gt;Node3</title>
<path fill="none" stroke="midnightblue" d="M123.77,-168.32C138.72,-159.82 161.76,-146.73 179.23,-136.8"/>
<polygon fill="midnightblue" stroke="midnightblue" points="181.31,-139.64 188.28,-131.65 177.85,-133.55 181.31,-139.64"/>
</g>
<!-- Node9&#45;&gt;Node7 -->
<g id="edge10" class="edge">
<title>Node9&#45;&gt;Node7</title>
<path fill="none" stroke="midnightblue" d="M103.88,-168.08C100.05,-160.69 94.48,-149.95 89.74,-140.81"/>
<polygon fill="midnightblue" stroke="midnightblue" points="92.75,-139.02 85.04,-131.75 86.54,-142.24 92.75,-139.02"/>
</g>
<!-- Node10&#45;&gt;Node3 -->
<g id="edge12" class="edge">
<title>Node10&#45;&gt;Node3</title>
<path fill="none" stroke="midnightblue" d="M195.99,-168.08C197.18,-160.93 198.9,-150.64 200.39,-141.69"/>
<polygon fill="midnightblue" stroke="midnightblue" points="203.85,-142.19 202.04,-131.75 196.95,-141.04 203.85,-142.19"/>
</g>
<!-- Node10&#45;&gt;Node7 -->
<g id="edge13" class="edge">
<title>Node10&#45;&gt;Node7</title>
<path fill="none" stroke="midnightblue" d="M176.44,-168.44C157.93,-159.68 128.92,-145.94 107.65,-135.86"/>
<polygon fill="midnightblue" stroke="midnightblue" points="109.02,-132.63 98.48,-131.52 106.02,-138.96 109.02,-132.63"/>
</g>
</g>
</svg>
