<?xml version="1.0" encoding="UTF-8" standalone="no"?>
<!DOCTYPE svg PUBLIC "-//W3C//DTD SVG 1.1//EN"
 "http://www.w3.org/Graphics/SVG/1.1/DTD/svg11.dtd">
<!-- Generated by graphviz version 2.47.0 (20210407.0042)
 -->
<!-- Title: src/engine/Field.cpp Pages: 1 -->
<svg width="1183pt" height="375pt"
 viewBox="0.00 0.00 1183.00 375.00" xmlns="http://www.w3.org/2000/svg" xmlns:xlink="http://www.w3.org/1999/xlink">
<g id="graph0" class="graph" transform="scale(1 1) rotate(0) translate(4 371)">
<title>src/engine/Field.cpp</title>
<polygon fill="white" stroke="transparent" points="-4,4 -4,-371 1179,-371 1179,4 -4,4"/>
<!-- Node1 -->
<g id="node1" class="node">
<title>Node1</title>
<g id="a_node1"><a xlink:title=" ">
<polygon fill="#bfbfbf" stroke="black" points="559,-347.5 559,-366.5 663,-366.5 663,-347.5 559,-347.5"/>
<text text-anchor="middle" x="611" y="-354.5" font-family="Helvetica,sans-Serif" font-size="10.00">src/engine/Field.cpp</text>
</a>
</g>
</g>
<!-- Node2 -->
<g id="node2" class="node">
<title>Node2</title>
<g id="a_node2"><a xlink:href="_field_8hpp.html" target="_top" xlink:title=" ">
<polygon fill="white" stroke="black" points="567.5,-291.5 567.5,-310.5 654.5,-310.5 654.5,-291.5 567.5,-291.5"/>
<text text-anchor="middle" x="611" y="-298.5" font-family="Helvetica,sans-Serif" font-size="10.00">engine/Field.hpp</text>
</a>
</g>
</g>
<!-- Node1&#45;&gt;Node2 -->
<g id="edge1" class="edge">
<title>Node1&#45;&gt;Node2</title>
<path fill="none" stroke="midnightblue" d="M611,-347.08C611,-340.01 611,-329.86 611,-320.99"/>
<polygon fill="midnightblue" stroke="midnightblue" points="614.5,-320.75 611,-310.75 607.5,-320.75 614.5,-320.75"/>
</g>
<!-- Node8 -->
<g id="node8" class="node">
<title>Node8</title>
<g id="a_node8"><a xlink:title=" ">
<polygon fill="white" stroke="#bfbfbf" points="354,-0.5 354,-19.5 398,-19.5 398,-0.5 354,-0.5"/>
<text text-anchor="middle" x="376" y="-7.5" font-family="Helvetica,sans-Serif" font-size="10.00">cmath</text>
</a>
</g>
</g>
<!-- Node1&#45;&gt;Node8 -->
<g id="edge30" class="edge">
<title>Node1&#45;&gt;Node8</title>
<path fill="none" stroke="midnightblue" d="M558.91,-351.64C411.15,-338.59 0,-297.18 0,-240.5 0,-240.5 0,-240.5 0,-121 0,-49.61 252.87,-21.33 343.86,-13.47"/>
<polygon fill="midnightblue" stroke="midnightblue" points="344.21,-16.95 353.88,-12.63 343.63,-9.98 344.21,-16.95"/>
</g>
<!-- Node14 -->
<g id="node14" class="node">
<title>Node14</title>
<g id="a_node14"><a xlink:href="_sprites_manager_8hpp.html" target="_top" xlink:title=" ">
<polygon fill="white" stroke="black" points="357.5,-291.5 357.5,-310.5 460.5,-310.5 460.5,-291.5 357.5,-291.5"/>
<text text-anchor="middle" x="409" y="-298.5" font-family="Helvetica,sans-Serif" font-size="10.00">SpritesManager.hpp</text>
</a>
</g>
</g>
<!-- Node1&#45;&gt;Node14 -->
<g id="edge18" class="edge">
<title>Node1&#45;&gt;Node14</title>
<path fill="none" stroke="midnightblue" d="M578.99,-347.44C544.27,-338.16 488.71,-323.31 450.62,-313.13"/>
<polygon fill="midnightblue" stroke="midnightblue" points="451.42,-309.72 440.86,-310.52 449.61,-316.48 451.42,-309.72"/>
</g>
<!-- Node19 -->
<g id="node19" class="node">
<title>Node19</title>
<g id="a_node19"><a xlink:href="_constants_manager_8hpp.html" target="_top" xlink:title=" ">
<polygon fill="white" stroke="black" points="678,-291.5 678,-310.5 794,-310.5 794,-291.5 678,-291.5"/>
<text text-anchor="middle" x="736" y="-298.5" font-family="Helvetica,sans-Serif" font-size="10.00">ConstantsManager.hpp</text>
</a>
</g>
</g>
<!-- Node1&#45;&gt;Node19 -->
<g id="edge28" class="edge">
<title>Node1&#45;&gt;Node19</title>
<path fill="none" stroke="midnightblue" d="M630.81,-347.44C651.29,-338.6 683.48,-324.69 706.86,-314.59"/>
<polygon fill="midnightblue" stroke="midnightblue" points="708.49,-317.7 716.29,-310.52 705.72,-311.27 708.49,-317.7"/>
</g>
<!-- Node21 -->
<g id="node21" class="node">
<title>Node21</title>
<g id="a_node21"><a xlink:href="_resource_manager_8hpp.html" target="_top" xlink:title=" ">
<polygon fill="white" stroke="black" points="827.5,-291.5 827.5,-310.5 980.5,-310.5 980.5,-291.5 827.5,-291.5"/>
<text text-anchor="middle" x="904" y="-298.5" font-family="Helvetica,sans-Serif" font-size="10.00">graphics/ResourceManager.hpp</text>
</a>
</g>
</g>
<!-- Node1&#45;&gt;Node21 -->
<g id="edge31" class="edge">
<title>Node1&#45;&gt;Node21</title>
<path fill="none" stroke="midnightblue" d="M657.43,-347.44C709.08,-337.92 792.51,-322.55 847.81,-312.36"/>
<polygon fill="midnightblue" stroke="midnightblue" points="848.59,-315.77 857.79,-310.52 847.32,-308.89 848.59,-315.77"/>
</g>
<!-- Node3 -->
<g id="node3" class="node">
<title>Node3</title>
<g id="a_node3"><a xlink:href="_cell_8hpp.html" target="_top" xlink:title=" ">
<polygon fill="white" stroke="black" points="548.5,-230 548.5,-249 665.5,-249 665.5,-230 548.5,-230"/>
<text text-anchor="middle" x="607" y="-237" font-family="Helvetica,sans-Serif" font-size="10.00">engine/objects/Cell.hpp</text>
</a>
</g>
</g>
<!-- Node2&#45;&gt;Node3 -->
<g id="edge2" class="edge">
<title>Node2&#45;&gt;Node3</title>
<path fill="none" stroke="midnightblue" d="M610.43,-291.48C609.86,-283.08 608.98,-269.98 608.25,-259.16"/>
<polygon fill="midnightblue" stroke="midnightblue" points="611.74,-258.75 607.57,-249.01 604.75,-259.22 611.74,-258.75"/>
</g>
<!-- Node6 -->
<g id="node6" class="node">
<title>Node6</title>
<g id="a_node6"><a xlink:href="_vector2_d_8hpp.html" target="_top" xlink:title=" ">
<polygon fill="white" stroke="black" points="589,-56.5 589,-75.5 701,-75.5 701,-56.5 589,-56.5"/>
<text text-anchor="middle" x="645" y="-63.5" font-family="Helvetica,sans-Serif" font-size="10.00">Helpers/Vector2D.hpp</text>
</a>
</g>
</g>
<!-- Node2&#45;&gt;Node6 -->
<g id="edge17" class="edge">
<title>Node2&#45;&gt;Node6</title>
<path fill="none" stroke="midnightblue" d="M631.85,-291.43C646.58,-284.13 665.2,-272.09 674,-255 703.3,-198.07 671.59,-119.55 654.47,-84.79"/>
<polygon fill="midnightblue" stroke="midnightblue" points="657.57,-83.15 649.9,-75.84 651.33,-86.33 657.57,-83.15"/>
</g>
<!-- Node4 -->
<g id="node4" class="node">
<title>Node4</title>
<g id="a_node4"><a xlink:href="_drawable_8hpp.html" target="_top" xlink:title=" ">
<polygon fill="white" stroke="black" points="322.5,-112.5 322.5,-131.5 429.5,-131.5 429.5,-112.5 322.5,-112.5"/>
<text text-anchor="middle" x="376" y="-119.5" font-family="Helvetica,sans-Serif" font-size="10.00">engine/Drawable.hpp</text>
</a>
</g>
</g>
<!-- Node3&#45;&gt;Node4 -->
<g id="edge3" class="edge">
<title>Node3&#45;&gt;Node4</title>
<path fill="none" stroke="midnightblue" d="M582.94,-229.87C557.79,-220.55 517.41,-204.79 484,-188 453,-172.42 418.98,-151.21 397.56,-137.32"/>
<polygon fill="midnightblue" stroke="midnightblue" points="399.22,-134.22 388.93,-131.67 395.39,-140.07 399.22,-134.22"/>
</g>
<!-- Node9 -->
<g id="node9" class="node">
<title>Node9</title>
<g id="a_node9"><a xlink:href="_tickable_8hpp.html" target="_top" xlink:title=" ">
<polygon fill="white" stroke="black" points="447.5,-112.5 447.5,-131.5 550.5,-131.5 550.5,-112.5 447.5,-112.5"/>
<text text-anchor="middle" x="499" y="-119.5" font-family="Helvetica,sans-Serif" font-size="10.00">engine/Tickable.hpp</text>
</a>
</g>
</g>
<!-- Node3&#45;&gt;Node9 -->
<g id="edge8" class="edge">
<title>Node3&#45;&gt;Node9</title>
<path fill="none" stroke="midnightblue" d="M604.27,-229.79C599.45,-215.52 588.28,-186.84 571,-168 558.82,-154.72 541.86,-143.86 527.46,-136.14"/>
<polygon fill="midnightblue" stroke="midnightblue" points="528.94,-132.97 518.44,-131.53 525.75,-139.2 528.94,-132.97"/>
</g>
<!-- Node10 -->
<g id="node10" class="node">
<title>Node10</title>
<g id="a_node10"><a xlink:title=" ">
<polygon fill="white" stroke="#bfbfbf" points="719,-56.5 719,-75.5 763,-75.5 763,-56.5 719,-56.5"/>
<text text-anchor="middle" x="741" y="-63.5" font-family="Helvetica,sans-Serif" font-size="10.00">vector</text>
</a>
</g>
</g>
<!-- Node3&#45;&gt;Node10 -->
<g id="edge9" class="edge">
<title>Node3&#45;&gt;Node10</title>
<path fill="none" stroke="midnightblue" d="M613.83,-229.76C635.07,-202.58 700.21,-119.21 728.1,-83.51"/>
<polygon fill="midnightblue" stroke="midnightblue" points="730.94,-85.55 734.34,-75.52 725.43,-81.24 730.94,-85.55"/>
</g>
<!-- Node11 -->
<g id="node11" class="node">
<title>Node11</title>
<g id="a_node11"><a xlink:href="_ground_8hpp.html" target="_top" xlink:title=" ">
<polygon fill="white" stroke="black" points="343,-168.5 343,-187.5 409,-187.5 409,-168.5 343,-168.5"/>
<text text-anchor="middle" x="376" y="-175.5" font-family="Helvetica,sans-Serif" font-size="10.00">Ground.hpp</text>
</a>
</g>
</g>
<!-- Node3&#45;&gt;Node11 -->
<g id="edge10" class="edge">
<title>Node3&#45;&gt;Node11</title>
<path fill="none" stroke="midnightblue" d="M573.9,-229.98C533.08,-219.46 463.59,-201.56 418.76,-190.01"/>
<polygon fill="midnightblue" stroke="midnightblue" points="419.59,-186.61 409.04,-187.51 417.85,-193.39 419.59,-186.61"/>
</g>
<!-- Node12 -->
<g id="node12" class="node">
<title>Node12</title>
<g id="a_node12"><a xlink:href="_building_8hpp.html" target="_top" xlink:title=" ">
<polygon fill="white" stroke="black" points="493.5,-168.5 493.5,-187.5 562.5,-187.5 562.5,-168.5 493.5,-168.5"/>
<text text-anchor="middle" x="528" y="-175.5" font-family="Helvetica,sans-Serif" font-size="10.00">Building.hpp</text>
</a>
</g>
</g>
<!-- Node3&#45;&gt;Node12 -->
<g id="edge13" class="edge">
<title>Node3&#45;&gt;Node12</title>
<path fill="none" stroke="midnightblue" d="M595.68,-229.98C583.13,-220.52 562.65,-205.1 547.5,-193.69"/>
<polygon fill="midnightblue" stroke="midnightblue" points="549.39,-190.73 539.3,-187.51 545.18,-196.32 549.39,-190.73"/>
</g>
<!-- Node5 -->
<g id="node5" class="node">
<title>Node5</title>
<g id="a_node5"><a xlink:title=" ">
<polygon fill="white" stroke="#bfbfbf" points="343,-56.5 343,-75.5 409,-75.5 409,-56.5 343,-56.5"/>
<text text-anchor="middle" x="376" y="-63.5" font-family="Helvetica,sans-Serif" font-size="10.00">string_view</text>
</a>
</g>
</g>
<!-- Node4&#45;&gt;Node5 -->
<g id="edge4" class="edge">
<title>Node4&#45;&gt;Node5</title>
<path fill="none" stroke="midnightblue" d="M376,-112.08C376,-105.01 376,-94.86 376,-85.99"/>
<polygon fill="midnightblue" stroke="midnightblue" points="379.5,-85.75 376,-75.75 372.5,-85.75 379.5,-85.75"/>
</g>
<!-- Node4&#45;&gt;Node6 -->
<g id="edge5" class="edge">
<title>Node4&#45;&gt;Node6</title>
<path fill="none" stroke="midnightblue" d="M418.62,-112.44C465.75,-102.98 541.69,-87.74 592.46,-77.55"/>
<polygon fill="midnightblue" stroke="midnightblue" points="593.46,-80.92 602.58,-75.52 592.08,-74.05 593.46,-80.92"/>
</g>
<!-- Node7 -->
<g id="node7" class="node">
<title>Node7</title>
<g id="a_node7"><a xlink:title=" ">
<polygon fill="white" stroke="#bfbfbf" points="698.5,-0.5 698.5,-19.5 737.5,-19.5 737.5,-0.5 698.5,-0.5"/>
<text text-anchor="middle" x="718" y="-7.5" font-family="Helvetica,sans-Serif" font-size="10.00">utility</text>
</a>
</g>
</g>
<!-- Node6&#45;&gt;Node7 -->
<g id="edge6" class="edge">
<title>Node6&#45;&gt;Node7</title>
<path fill="none" stroke="midnightblue" d="M656.73,-56.32C667.84,-48.11 684.74,-35.6 697.98,-25.81"/>
<polygon fill="midnightblue" stroke="midnightblue" points="700.1,-28.59 706.06,-19.83 695.94,-22.97 700.1,-28.59"/>
</g>
<!-- Node6&#45;&gt;Node8 -->
<g id="edge7" class="edge">
<title>Node6&#45;&gt;Node8</title>
<path fill="none" stroke="midnightblue" d="M602.38,-56.44C548.41,-45.61 456.65,-27.19 408.18,-17.46"/>
<polygon fill="midnightblue" stroke="midnightblue" points="408.74,-14 398.25,-15.47 407.36,-20.87 408.74,-14"/>
</g>
<!-- Node11&#45;&gt;Node4 -->
<g id="edge11" class="edge">
<title>Node11&#45;&gt;Node4</title>
<path fill="none" stroke="midnightblue" d="M376,-168.08C376,-161.01 376,-150.86 376,-141.99"/>
<polygon fill="midnightblue" stroke="midnightblue" points="379.5,-141.75 376,-131.75 372.5,-141.75 379.5,-141.75"/>
</g>
<!-- Node11&#45;&gt;Node9 -->
<g id="edge12" class="edge">
<title>Node11&#45;&gt;Node9</title>
<path fill="none" stroke="midnightblue" d="M395.49,-168.44C415.64,-159.6 447.32,-145.69 470.33,-135.59"/>
<polygon fill="midnightblue" stroke="midnightblue" points="471.85,-138.74 479.6,-131.52 469.04,-132.33 471.85,-138.74"/>
</g>
<!-- Node12&#45;&gt;Node4 -->
<g id="edge14" class="edge">
<title>Node12&#45;&gt;Node4</title>
<path fill="none" stroke="midnightblue" d="M503.92,-168.44C478.46,-159.4 438.11,-145.06 409.54,-134.92"/>
<polygon fill="midnightblue" stroke="midnightblue" points="410.57,-131.57 399.97,-131.52 408.22,-138.16 410.57,-131.57"/>
</g>
<!-- Node12&#45;&gt;Node9 -->
<g id="edge15" class="edge">
<title>Node12&#45;&gt;Node9</title>
<path fill="none" stroke="midnightblue" d="M523.21,-168.08C519.24,-160.69 513.47,-149.95 508.57,-140.81"/>
<polygon fill="midnightblue" stroke="midnightblue" points="511.51,-138.91 503.7,-131.75 505.35,-142.22 511.51,-138.91"/>
</g>
<!-- Node13 -->
<g id="node13" class="node">
<title>Node13</title>
<g id="a_node13"><a xlink:title=" ">
<polygon fill="white" stroke="#bfbfbf" points="568.5,-112.5 568.5,-131.5 627.5,-131.5 627.5,-112.5 568.5,-112.5"/>
<text text-anchor="middle" x="598" y="-119.5" font-family="Helvetica,sans-Serif" font-size="10.00">functional</text>
</a>
</g>
</g>
<!-- Node12&#45;&gt;Node13 -->
<g id="edge16" class="edge">
<title>Node12&#45;&gt;Node13</title>
<path fill="none" stroke="midnightblue" d="M539.25,-168.32C549.8,-160.18 565.8,-147.84 578.44,-138.09"/>
<polygon fill="midnightblue" stroke="midnightblue" points="580.77,-140.71 586.55,-131.83 576.49,-135.17 580.77,-140.71"/>
</g>
<!-- Node14&#45;&gt;Node3 -->
<g id="edge21" class="edge">
<title>Node14&#45;&gt;Node3</title>
<path fill="none" stroke="midnightblue" d="M437.37,-291.48C471.92,-281.09 530.42,-263.51 568.88,-251.95"/>
<polygon fill="midnightblue" stroke="midnightblue" points="570.11,-255.24 578.68,-249.01 568.1,-248.54 570.11,-255.24"/>
</g>
<!-- Node15 -->
<g id="node15" class="node">
<title>Node15</title>
<g id="a_node15"><a xlink:href="_ground_empty_8hpp.html" target="_top" xlink:title=" ">
<polygon fill="white" stroke="black" points="288,-224.5 288,-254.5 400,-254.5 400,-224.5 288,-224.5"/>
<text text-anchor="start" x="296" y="-242.5" font-family="Helvetica,sans-Serif" font-size="10.00">engine/objects/ground</text>
<text text-anchor="middle" x="344" y="-231.5" font-family="Helvetica,sans-Serif" font-size="10.00">/GroundEmpty.hpp</text>
</a>
</g>
</g>
<!-- Node14&#45;&gt;Node15 -->
<g id="edge19" class="edge">
<title>Node14&#45;&gt;Node15</title>
<path fill="none" stroke="midnightblue" d="M399.69,-291.48C391.13,-283.64 378.1,-271.71 366.79,-261.37"/>
<polygon fill="midnightblue" stroke="midnightblue" points="369.06,-258.69 359.32,-254.52 364.33,-263.86 369.06,-258.69"/>
</g>
<!-- Node16 -->
<g id="node16" class="node">
<title>Node16</title>
<g id="a_node16"><a xlink:href="_ground_earth_8hpp.html" target="_top" xlink:title=" ">
<polygon fill="white" stroke="black" points="418,-224.5 418,-254.5 530,-254.5 530,-224.5 418,-224.5"/>
<text text-anchor="start" x="426" y="-242.5" font-family="Helvetica,sans-Serif" font-size="10.00">engine/objects/ground</text>
<text text-anchor="middle" x="474" y="-231.5" font-family="Helvetica,sans-Serif" font-size="10.00">/GroundEarth.hpp</text>
</a>
</g>
</g>
<!-- Node14&#45;&gt;Node16 -->
<g id="edge22" class="edge">
<title>Node14&#45;&gt;Node16</title>
<path fill="none" stroke="midnightblue" d="M418.31,-291.48C426.87,-283.64 439.9,-271.71 451.21,-261.37"/>
<polygon fill="midnightblue" stroke="midnightblue" points="453.67,-263.86 458.68,-254.52 448.94,-258.69 453.67,-263.86"/>
</g>
<!-- Node17 -->
<g id="node17" class="node">
<title>Node17</title>
<g id="a_node17"><a xlink:href="_ground_water_8hpp.html" target="_top" xlink:title=" ">
<polygon fill="white" stroke="black" points="28,-224.5 28,-254.5 140,-254.5 140,-224.5 28,-224.5"/>
<text text-anchor="start" x="36" y="-242.5" font-family="Helvetica,sans-Serif" font-size="10.00">engine/objects/ground</text>
<text text-anchor="middle" x="84" y="-231.5" font-family="Helvetica,sans-Serif" font-size="10.00">/GroundWater.hpp</text>
</a>
</g>
</g>
<!-- Node14&#45;&gt;Node17 -->
<g id="edge24" class="edge">
<title>Node14&#45;&gt;Node17</title>
<path fill="none" stroke="midnightblue" d="M357.07,-291.77C306.64,-283.6 227.71,-270.37 150.26,-255.2"/>
<polygon fill="midnightblue" stroke="midnightblue" points="150.82,-251.74 140.34,-253.24 149.47,-258.61 150.82,-251.74"/>
</g>
<!-- Node18 -->
<g id="node18" class="node">
<title>Node18</title>
<g id="a_node18"><a xlink:href="_mineral_8hpp.html" target="_top" xlink:title=" ">
<polygon fill="white" stroke="black" points="158,-224.5 158,-254.5 270,-254.5 270,-224.5 158,-224.5"/>
<text text-anchor="start" x="166" y="-242.5" font-family="Helvetica,sans-Serif" font-size="10.00">engine/objects/ground</text>
<text text-anchor="middle" x="214" y="-231.5" font-family="Helvetica,sans-Serif" font-size="10.00">/Mineral.hpp</text>
</a>
</g>
</g>
<!-- Node14&#45;&gt;Node18 -->
<g id="edge26" class="edge">
<title>Node14&#45;&gt;Node18</title>
<path fill="none" stroke="midnightblue" d="M381.06,-291.48C352.18,-282.66 306.32,-268.67 269.94,-257.57"/>
<polygon fill="midnightblue" stroke="midnightblue" points="270.54,-254.09 259.96,-254.52 268.5,-260.79 270.54,-254.09"/>
</g>
<!-- Node15&#45;&gt;Node11 -->
<g id="edge20" class="edge">
<title>Node15&#45;&gt;Node11</title>
<path fill="none" stroke="midnightblue" d="M351.58,-224.4C356.04,-216.11 361.72,-205.55 366.48,-196.71"/>
<polygon fill="midnightblue" stroke="midnightblue" points="369.69,-198.12 371.34,-187.66 363.52,-194.81 369.69,-198.12"/>
</g>
<!-- Node16&#45;&gt;Node11 -->
<g id="edge23" class="edge">
<title>Node16&#45;&gt;Node11</title>
<path fill="none" stroke="midnightblue" d="M450.78,-224.4C435.21,-214.95 414.8,-202.56 399.24,-193.11"/>
<polygon fill="midnightblue" stroke="midnightblue" points="400.62,-189.86 390.26,-187.66 396.99,-195.84 400.62,-189.86"/>
</g>
<!-- Node17&#45;&gt;Node11 -->
<g id="edge25" class="edge">
<title>Node17&#45;&gt;Node11</title>
<path fill="none" stroke="midnightblue" d="M140,-225.92C143.04,-225.26 146.06,-224.62 149,-224 212.96,-210.53 287.31,-196 333.01,-187.21"/>
<polygon fill="midnightblue" stroke="midnightblue" points="333.71,-190.64 342.87,-185.31 332.39,-183.76 333.71,-190.64"/>
</g>
<!-- Node18&#45;&gt;Node11 -->
<g id="edge27" class="edge">
<title>Node18&#45;&gt;Node11</title>
<path fill="none" stroke="midnightblue" d="M252.39,-224.4C279.94,-214.28 316.67,-200.79 342.92,-191.15"/>
<polygon fill="midnightblue" stroke="midnightblue" points="344.25,-194.39 352.43,-187.66 341.83,-187.82 344.25,-194.39"/>
</g>
<!-- Node20 -->
<g id="node20" class="node">
<title>Node20</title>
<g id="a_node20"><a xlink:title=" ">
<polygon fill="white" stroke="#bfbfbf" points="722,-230 722,-249 768,-249 768,-230 722,-230"/>
<text text-anchor="middle" x="745" y="-237" font-family="Helvetica,sans-Serif" font-size="10.00">cstdint</text>
</a>
</g>
</g>
<!-- Node19&#45;&gt;Node20 -->
<g id="edge29" class="edge">
<title>Node19&#45;&gt;Node20</title>
<path fill="none" stroke="midnightblue" d="M737.29,-291.48C738.56,-283.08 740.54,-269.98 742.18,-259.16"/>
<polygon fill="midnightblue" stroke="midnightblue" points="745.68,-259.42 743.71,-249.01 738.76,-258.37 745.68,-259.42"/>
</g>
<!-- Node22 -->
<g id="node22" class="node">
<title>Node22</title>
<g id="a_node22"><a xlink:title=" ">
<polygon fill="white" stroke="#bfbfbf" points="786.5,-230 786.5,-249 821.5,-249 821.5,-230 786.5,-230"/>
<text text-anchor="middle" x="804" y="-237" font-family="Helvetica,sans-Serif" font-size="10.00">map</text>
</a>
</g>
</g>
<!-- Node21&#45;&gt;Node22 -->
<g id="edge32" class="edge">
<title>Node21&#45;&gt;Node22</title>
<path fill="none" stroke="midnightblue" d="M889.67,-291.48C873.34,-281.75 846.4,-265.73 827.09,-254.24"/>
<polygon fill="midnightblue" stroke="midnightblue" points="828.68,-251.11 818.3,-249.01 825.11,-257.13 828.68,-251.11"/>
</g>
<!-- Node23 -->
<g id="node23" class="node">
<title>Node23</title>
<g id="a_node23"><a xlink:title=" ">
<polygon fill="white" stroke="#bfbfbf" points="929.5,-168.5 929.5,-187.5 970.5,-187.5 970.5,-168.5 929.5,-168.5"/>
<text text-anchor="middle" x="950" y="-175.5" font-family="Helvetica,sans-Serif" font-size="10.00">string</text>
</a>
</g>
</g>
<!-- Node21&#45;&gt;Node23 -->
<g id="edge33" class="edge">
<title>Node21&#45;&gt;Node23</title>
<path fill="none" stroke="midnightblue" d="M913.08,-291.27C921.28,-282.81 932.95,-269.21 939,-255 946.81,-236.64 949.25,-213.77 949.93,-197.94"/>
<polygon fill="midnightblue" stroke="midnightblue" points="953.43,-197.9 950.16,-187.82 946.43,-197.74 953.43,-197.9"/>
</g>
<!-- Node24 -->
<g id="node24" class="node">
<title>Node24</title>
<g id="a_node24"><a xlink:title=" ">
<polygon fill="white" stroke="#bfbfbf" points="878.5,-230 878.5,-249 929.5,-249 929.5,-230 878.5,-230"/>
<text text-anchor="middle" x="904" y="-237" font-family="Helvetica,sans-Serif" font-size="10.00">memory</text>
</a>
</g>
</g>
<!-- Node21&#45;&gt;Node24 -->
<g id="edge34" class="edge">
<title>Node21&#45;&gt;Node24</title>
<path fill="none" stroke="midnightblue" d="M904,-291.48C904,-283.08 904,-269.98 904,-259.16"/>
<polygon fill="midnightblue" stroke="midnightblue" points="907.5,-259.01 904,-249.01 900.5,-259.01 907.5,-259.01"/>
</g>
<!-- Node25 -->
<g id="node25" class="node">
<title>Node25</title>
<g id="a_node25"><a xlink:href="_shader_8hpp.html" target="_top" xlink:title=" ">
<polygon fill="white" stroke="black" points="986.5,-230 986.5,-249 1091.5,-249 1091.5,-230 986.5,-230"/>
<text text-anchor="middle" x="1039" y="-237" font-family="Helvetica,sans-Serif" font-size="10.00">graphics/Shader.hpp</text>
</a>
</g>
</g>
<!-- Node21&#45;&gt;Node25 -->
<g id="edge35" class="edge">
<title>Node21&#45;&gt;Node25</title>
<path fill="none" stroke="midnightblue" d="M923.34,-291.48C946.1,-281.45 984.09,-264.7 1010.29,-253.15"/>
<polygon fill="midnightblue" stroke="midnightblue" points="1011.95,-256.24 1019.69,-249.01 1009.13,-249.84 1011.95,-256.24"/>
</g>
<!-- Node26 -->
<g id="node26" class="node">
<title>Node26</title>
<g id="a_node26"><a xlink:href="_g_shape_8hpp.html" target="_top" xlink:title=" ">
<polygon fill="white" stroke="black" points="1065,-168.5 1065,-187.5 1175,-187.5 1175,-168.5 1065,-168.5"/>
<text text-anchor="middle" x="1120" y="-175.5" font-family="Helvetica,sans-Serif" font-size="10.00">graphics/GShape.hpp</text>
</a>
</g>
</g>
<!-- Node21&#45;&gt;Node26 -->
<g id="edge49" class="edge">
<title>Node21&#45;&gt;Node26</title>
<path fill="none" stroke="midnightblue" d="M976.33,-291.47C1024.95,-284.29 1083.27,-272.37 1101,-255 1116.22,-240.09 1119.93,-214.96 1120.51,-197.71"/>
<polygon fill="midnightblue" stroke="midnightblue" points="1124.01,-197.7 1120.54,-187.69 1117.01,-197.69 1124.01,-197.7"/>
</g>
<!-- Node32 -->
<g id="node32" class="node">
<title>Node32</title>
<g id="a_node32"><a xlink:href="_event_handler_8hpp.html" target="_top" xlink:title=" ">
<polygon fill="white" stroke="black" points="739.5,-168.5 739.5,-187.5 894.5,-187.5 894.5,-168.5 739.5,-168.5"/>
<text text-anchor="middle" x="817" y="-175.5" font-family="Helvetica,sans-Serif" font-size="10.00">EventHandler/EventHandler.hpp</text>
</a>
</g>
</g>
<!-- Node21&#45;&gt;Node32 -->
<g id="edge50" class="edge">
<title>Node21&#45;&gt;Node32</title>
<path fill="none" stroke="midnightblue" d="M897.38,-291.45C890.46,-282.45 879.32,-267.84 870,-255 855.44,-234.95 839.22,-211.51 828.6,-196.02"/>
<polygon fill="midnightblue" stroke="midnightblue" points="831.31,-193.79 822.78,-187.51 825.53,-197.74 831.31,-193.79"/>
</g>
<!-- Node25&#45;&gt;Node23 -->
<g id="edge36" class="edge">
<title>Node25&#45;&gt;Node23</title>
<path fill="none" stroke="midnightblue" d="M1026.25,-229.98C1011.97,-220.43 988.6,-204.81 971.49,-193.37"/>
<polygon fill="midnightblue" stroke="midnightblue" points="972.99,-190.16 962.73,-187.51 969.1,-195.98 972.99,-190.16"/>
</g>
<!-- Node25&#45;&gt;Node26 -->
<g id="edge37" class="edge">
<title>Node25&#45;&gt;Node26</title>
<path fill="none" stroke="midnightblue" d="M1045.7,-229.98C1056.72,-220.34 1077.95,-204.52 1095.04,-193.05"/>
<polygon fill="midnightblue" stroke="midnightblue" points="1097.06,-195.91 1103.52,-187.51 1093.23,-190.05 1097.06,-195.91"/>
</g>
<!-- Node30 -->
<g id="node30" class="node">
<title>Node30</title>
<g id="a_node30"><a xlink:href="_transform_8hpp.html" target="_top" xlink:title=" ">
<polygon fill="white" stroke="black" points="997.5,-56.5 997.5,-75.5 1116.5,-75.5 1116.5,-56.5 997.5,-56.5"/>
<text text-anchor="middle" x="1057" y="-63.5" font-family="Helvetica,sans-Serif" font-size="10.00">graphics/Transform.hpp</text>
</a>
</g>
</g>
<!-- Node25&#45;&gt;Node30 -->
<g id="edge48" class="edge">
<title>Node25&#45;&gt;Node30</title>
<path fill="none" stroke="midnightblue" d="M1039.92,-229.76C1042.71,-203.15 1051.15,-122.71 1055.02,-85.84"/>
<polygon fill="midnightblue" stroke="midnightblue" points="1058.54,-85.83 1056.11,-75.52 1051.58,-85.1 1058.54,-85.83"/>
</g>
<!-- Node26&#45;&gt;Node25 -->
<g id="edge46" class="edge">
<title>Node26&#45;&gt;Node25</title>
<path fill="none" stroke="midnightblue" d="M1113.31,-187.51C1102.31,-197.13 1081.08,-212.96 1063.99,-224.43"/>
<polygon fill="midnightblue" stroke="midnightblue" points="1061.96,-221.57 1055.51,-229.98 1065.79,-227.43 1061.96,-221.57"/>
</g>
<!-- Node27 -->
<g id="node27" class="node">
<title>Node27</title>
<g id="a_node27"><a xlink:href="_window_8hpp.html" target="_top" xlink:title=" ">
<polygon fill="white" stroke="black" points="879.5,-112.5 879.5,-131.5 988.5,-131.5 988.5,-112.5 879.5,-112.5"/>
<text text-anchor="middle" x="934" y="-119.5" font-family="Helvetica,sans-Serif" font-size="10.00">graphics/Window.hpp</text>
</a>
</g>
</g>
<!-- Node26&#45;&gt;Node27 -->
<g id="edge38" class="edge">
<title>Node26&#45;&gt;Node27</title>
<path fill="none" stroke="midnightblue" d="M1090.53,-168.44C1058.83,-159.24 1008.27,-144.56 973.23,-134.39"/>
<polygon fill="midnightblue" stroke="midnightblue" points="973.91,-130.94 963.33,-131.52 971.96,-137.67 973.91,-130.94"/>
</g>
<!-- Node26&#45;&gt;Node30 -->
<g id="edge47" class="edge">
<title>Node26&#45;&gt;Node30</title>
<path fill="none" stroke="midnightblue" d="M1115.06,-168.37C1104.71,-150.3 1080.58,-108.18 1066.91,-84.31"/>
<polygon fill="midnightblue" stroke="midnightblue" points="1069.93,-82.53 1061.92,-75.59 1063.85,-86.01 1069.93,-82.53"/>
</g>
<!-- Node27&#45;&gt;Node7 -->
<g id="edge41" class="edge">
<title>Node27&#45;&gt;Node7</title>
<path fill="none" stroke="midnightblue" d="M904.01,-112.43C878.52,-104.59 841.35,-91.81 811,-76 783.38,-61.61 754.4,-40.19 736.27,-25.93"/>
<polygon fill="midnightblue" stroke="midnightblue" points="738.3,-23.07 728.3,-19.56 733.93,-28.53 738.3,-23.07"/>
</g>
<!-- Node27&#45;&gt;Node10 -->
<g id="edge42" class="edge">
<title>Node27&#45;&gt;Node10</title>
<path fill="none" stroke="midnightblue" d="M903.42,-112.44C867.82,-102.48 809.29,-86.11 773.07,-75.97"/>
<polygon fill="midnightblue" stroke="midnightblue" points="773.61,-72.49 763.03,-73.16 771.72,-79.23 773.61,-72.49"/>
</g>
<!-- Node27&#45;&gt;Node25 -->
<g id="edge43" class="edge">
<title>Node27&#45;&gt;Node25</title>
<path fill="none" stroke="midnightblue" d="M943.43,-131.7C952.93,-140.58 967.86,-154.88 980,-168 996.34,-185.66 1013.89,-206.96 1025.56,-221.49"/>
<polygon fill="midnightblue" stroke="midnightblue" points="1023.03,-223.94 1032.01,-229.58 1028.51,-219.58 1023.03,-223.94"/>
</g>
<!-- Node28 -->
<g id="node28" class="node">
<title>Node28</title>
<g id="a_node28"><a xlink:title=" ">
<polygon fill="white" stroke="#bfbfbf" points="916.5,-56.5 916.5,-75.5 979.5,-75.5 979.5,-56.5 916.5,-56.5"/>
<text text-anchor="middle" x="948" y="-63.5" font-family="Helvetica,sans-Serif" font-size="10.00">glad/glad.h</text>
</a>
</g>
</g>
<!-- Node27&#45;&gt;Node28 -->
<g id="edge39" class="edge">
<title>Node27&#45;&gt;Node28</title>
<path fill="none" stroke="midnightblue" d="M936.31,-112.08C938.17,-104.93 940.84,-94.64 943.15,-85.69"/>
<polygon fill="midnightblue" stroke="midnightblue" points="946.61,-86.31 945.73,-75.75 939.83,-84.55 946.61,-86.31"/>
</g>
<!-- Node29 -->
<g id="node29" class="node">
<title>Node29</title>
<g id="a_node29"><a xlink:title=" ">
<polygon fill="white" stroke="#bfbfbf" points="819.5,-56.5 819.5,-75.5 898.5,-75.5 898.5,-56.5 819.5,-56.5"/>
<text text-anchor="middle" x="859" y="-63.5" font-family="Helvetica,sans-Serif" font-size="10.00">GLFW/glfw3.h</text>
</a>
</g>
</g>
<!-- Node27&#45;&gt;Node29 -->
<g id="edge40" class="edge">
<title>Node27&#45;&gt;Node29</title>
<path fill="none" stroke="midnightblue" d="M921.95,-112.32C910.54,-104.11 893.17,-91.6 879.57,-81.81"/>
<polygon fill="midnightblue" stroke="midnightblue" points="881.43,-78.84 871.27,-75.83 877.34,-84.52 881.43,-78.84"/>
</g>
<!-- Node27&#45;&gt;Node30 -->
<g id="edge44" class="edge">
<title>Node27&#45;&gt;Node30</title>
<path fill="none" stroke="midnightblue" d="M953.49,-112.44C973.64,-103.6 1005.32,-89.69 1028.33,-79.59"/>
<polygon fill="midnightblue" stroke="midnightblue" points="1029.85,-82.74 1037.6,-75.52 1027.04,-76.33 1029.85,-82.74"/>
</g>
<!-- Node31 -->
<g id="node31" class="node">
<title>Node31</title>
<g id="a_node31"><a xlink:title=" ">
<polygon fill="white" stroke="#bfbfbf" points="1005,-0.5 1005,-19.5 1109,-19.5 1109,-0.5 1005,-0.5"/>
<text text-anchor="middle" x="1057" y="-7.5" font-family="Helvetica,sans-Serif" font-size="10.00">glm/gtc/type_ptr.hpp</text>
</a>
</g>
</g>
<!-- Node30&#45;&gt;Node31 -->
<g id="edge45" class="edge">
<title>Node30&#45;&gt;Node31</title>
<path fill="none" stroke="midnightblue" d="M1057,-56.08C1057,-49.01 1057,-38.86 1057,-29.99"/>
<polygon fill="midnightblue" stroke="midnightblue" points="1060.5,-29.75 1057,-19.75 1053.5,-29.75 1060.5,-29.75"/>
</g>
<!-- Node32&#45;&gt;Node6 -->
<g id="edge53" class="edge">
<title>Node32&#45;&gt;Node6</title>
<path fill="none" stroke="midnightblue" d="M803.5,-168.37C773.99,-149.49 703.46,-104.38 667.26,-81.24"/>
<polygon fill="midnightblue" stroke="midnightblue" points="668.74,-78.03 658.43,-75.59 664.97,-83.93 668.74,-78.03"/>
</g>
<!-- Node32&#45;&gt;Node13 -->
<g id="edge51" class="edge">
<title>Node32&#45;&gt;Node13</title>
<path fill="none" stroke="midnightblue" d="M782.3,-168.44C742.86,-158.72 678.61,-142.88 637.34,-132.7"/>
<polygon fill="midnightblue" stroke="midnightblue" points="638.17,-129.3 627.62,-130.3 636.49,-136.1 638.17,-129.3"/>
</g>
<!-- Node32&#45;&gt;Node27 -->
<g id="edge52" class="edge">
<title>Node32&#45;&gt;Node27</title>
<path fill="none" stroke="midnightblue" d="M835.54,-168.44C854.62,-159.64 884.57,-145.81 906.44,-135.72"/>
<polygon fill="midnightblue" stroke="midnightblue" points="907.93,-138.88 915.55,-131.52 905,-132.53 907.93,-138.88"/>
</g>
</g>
</svg>
