<?xml version="1.0" encoding="UTF-8" standalone="no"?>
<!DOCTYPE svg PUBLIC "-//W3C//DTD SVG 1.1//EN"
 "http://www.w3.org/Graphics/SVG/1.1/DTD/svg11.dtd">
<!-- Generated by graphviz version 2.47.0 (20210407.0042)
 -->
<!-- Title: include/graphics/GShape.hpp Pages: 1 -->
<svg width="499pt" height="252pt"
 viewBox="0.00 0.00 499.00 252.00" xmlns="http://www.w3.org/2000/svg" xmlns:xlink="http://www.w3.org/1999/xlink">
<g id="graph0" class="graph" transform="scale(1 1) rotate(0) translate(4 248)">
<title>include/graphics/GShape.hpp</title>
<polygon fill="white" stroke="transparent" points="-4,4 -4,-248 495,-248 495,4 -4,4"/>
<!-- Node1 -->
<g id="node1" class="node">
<title>Node1</title>
<g id="a_node1"><a xlink:title=" ">
<polygon fill="#bfbfbf" stroke="black" points="56,-224.5 56,-243.5 199,-243.5 199,-224.5 56,-224.5"/>
<text text-anchor="middle" x="127.5" y="-231.5" font-family="Helvetica,sans-Serif" font-size="10.00">include/graphics/GShape.hpp</text>
</a>
</g>
</g>
<!-- Node2 -->
<g id="node2" class="node">
<title>Node2</title>
<g id="a_node2"><a xlink:href="_window_8hpp.html" target="_top" xlink:title=" ">
<polygon fill="white" stroke="black" points="148,-168.5 148,-187.5 257,-187.5 257,-168.5 148,-168.5"/>
<text text-anchor="middle" x="202.5" y="-175.5" font-family="Helvetica,sans-Serif" font-size="10.00">graphics/Window.hpp</text>
</a>
</g>
</g>
<!-- Node1&#45;&gt;Node2 -->
<g id="edge1" class="edge">
<title>Node1&#45;&gt;Node2</title>
<path fill="none" stroke="midnightblue" d="M139.55,-224.32C150.96,-216.11 168.33,-203.6 181.93,-193.81"/>
<polygon fill="midnightblue" stroke="midnightblue" points="184.16,-196.52 190.23,-187.83 180.07,-190.84 184.16,-196.52"/>
</g>
<!-- Node7 -->
<g id="node7" class="node">
<title>Node7</title>
<g id="a_node7"><a xlink:href="_shader_8hpp.html" target="_top" xlink:title=" ">
<polygon fill="white" stroke="black" points="0,-112.5 0,-131.5 105,-131.5 105,-112.5 0,-112.5"/>
<text text-anchor="middle" x="52.5" y="-119.5" font-family="Helvetica,sans-Serif" font-size="10.00">graphics/Shader.hpp</text>
</a>
</g>
</g>
<!-- Node1&#45;&gt;Node7 -->
<g id="edge12" class="edge">
<title>Node1&#45;&gt;Node7</title>
<path fill="none" stroke="midnightblue" d="M117.77,-224.37C102.11,-206.38 73.17,-164.55 59.41,-140.63"/>
<polygon fill="midnightblue" stroke="midnightblue" points="62.36,-138.72 54.52,-131.59 56.2,-142.05 62.36,-138.72"/>
</g>
<!-- Node9 -->
<g id="node9" class="node">
<title>Node9</title>
<g id="a_node9"><a xlink:href="_transform_8hpp.html" target="_top" xlink:title=" ">
<polygon fill="white" stroke="black" points="372,-56.5 372,-75.5 491,-75.5 491,-56.5 372,-56.5"/>
<text text-anchor="middle" x="431.5" y="-63.5" font-family="Helvetica,sans-Serif" font-size="10.00">graphics/Transform.hpp</text>
</a>
</g>
</g>
<!-- Node1&#45;&gt;Node9 -->
<g id="edge13" class="edge">
<title>Node1&#45;&gt;Node9</title>
<path fill="none" stroke="midnightblue" d="M199.02,-231.86C271.32,-226.41 379.72,-205.51 432.5,-132 442.06,-118.69 440.45,-99.57 437.27,-85.51"/>
<polygon fill="midnightblue" stroke="midnightblue" points="440.56,-84.27 434.57,-75.53 433.8,-86.1 440.56,-84.27"/>
</g>
<!-- Node3 -->
<g id="node3" class="node">
<title>Node3</title>
<g id="a_node3"><a xlink:title=" ">
<polygon fill="white" stroke="#bfbfbf" points="243,-112.5 243,-131.5 306,-131.5 306,-112.5 243,-112.5"/>
<text text-anchor="middle" x="274.5" y="-119.5" font-family="Helvetica,sans-Serif" font-size="10.00">glad/glad.h</text>
</a>
</g>
</g>
<!-- Node2&#45;&gt;Node3 -->
<g id="edge2" class="edge">
<title>Node2&#45;&gt;Node3</title>
<path fill="none" stroke="midnightblue" d="M214.07,-168.32C224.92,-160.18 241.38,-147.84 254.38,-138.09"/>
<polygon fill="midnightblue" stroke="midnightblue" points="256.82,-140.63 262.72,-131.83 252.62,-135.03 256.82,-140.63"/>
</g>
<!-- Node4 -->
<g id="node4" class="node">
<title>Node4</title>
<g id="a_node4"><a xlink:title=" ">
<polygon fill="white" stroke="#bfbfbf" points="324,-112.5 324,-131.5 403,-131.5 403,-112.5 324,-112.5"/>
<text text-anchor="middle" x="363.5" y="-119.5" font-family="Helvetica,sans-Serif" font-size="10.00">GLFW/glfw3.h</text>
</a>
</g>
</g>
<!-- Node2&#45;&gt;Node4 -->
<g id="edge3" class="edge">
<title>Node2&#45;&gt;Node4</title>
<path fill="none" stroke="midnightblue" d="M228.01,-168.44C255.1,-159.36 298.09,-144.94 328.37,-134.78"/>
<polygon fill="midnightblue" stroke="midnightblue" points="329.74,-138.01 338.11,-131.52 327.51,-131.38 329.74,-138.01"/>
</g>
<!-- Node5 -->
<g id="node5" class="node">
<title>Node5</title>
<g id="a_node5"><a xlink:title=" ">
<polygon fill="white" stroke="#bfbfbf" points="123,-112.5 123,-131.5 162,-131.5 162,-112.5 123,-112.5"/>
<text text-anchor="middle" x="142.5" y="-119.5" font-family="Helvetica,sans-Serif" font-size="10.00">utility</text>
</a>
</g>
</g>
<!-- Node2&#45;&gt;Node5 -->
<g id="edge4" class="edge">
<title>Node2&#45;&gt;Node5</title>
<path fill="none" stroke="midnightblue" d="M192.86,-168.32C183.99,-160.34 170.63,-148.31 159.89,-138.65"/>
<polygon fill="midnightblue" stroke="midnightblue" points="162.09,-135.92 152.32,-131.83 157.41,-141.13 162.09,-135.92"/>
</g>
<!-- Node6 -->
<g id="node6" class="node">
<title>Node6</title>
<g id="a_node6"><a xlink:title=" ">
<polygon fill="white" stroke="#bfbfbf" points="180.5,-112.5 180.5,-131.5 224.5,-131.5 224.5,-112.5 180.5,-112.5"/>
<text text-anchor="middle" x="202.5" y="-119.5" font-family="Helvetica,sans-Serif" font-size="10.00">vector</text>
</a>
</g>
</g>
<!-- Node2&#45;&gt;Node6 -->
<g id="edge5" class="edge">
<title>Node2&#45;&gt;Node6</title>
<path fill="none" stroke="midnightblue" d="M202.5,-168.08C202.5,-161.01 202.5,-150.86 202.5,-141.99"/>
<polygon fill="midnightblue" stroke="midnightblue" points="206,-141.75 202.5,-131.75 199,-141.75 206,-141.75"/>
</g>
<!-- Node2&#45;&gt;Node7 -->
<g id="edge6" class="edge">
<title>Node2&#45;&gt;Node7</title>
<path fill="none" stroke="midnightblue" d="M178.73,-168.44C153.61,-159.4 113.79,-145.06 85.6,-134.92"/>
<polygon fill="midnightblue" stroke="midnightblue" points="86.75,-131.61 76.16,-131.52 84.38,-138.2 86.75,-131.61"/>
</g>
<!-- Node2&#45;&gt;Node9 -->
<g id="edge11" class="edge">
<title>Node2&#45;&gt;Node9</title>
<path fill="none" stroke="midnightblue" d="M257.2,-171.63C311.67,-165.2 390.31,-152.62 412.5,-132 425.14,-120.25 429.53,-100.61 430.98,-85.99"/>
<polygon fill="midnightblue" stroke="midnightblue" points="434.5,-85.78 431.61,-75.58 427.51,-85.35 434.5,-85.78"/>
</g>
<!-- Node7&#45;&gt;Node1 -->
<g id="edge8" class="edge">
<title>Node7&#45;&gt;Node1</title>
<path fill="none" stroke="midnightblue" d="M62.19,-131.59C77.83,-149.55 106.78,-191.37 120.56,-215.32"/>
<polygon fill="midnightblue" stroke="midnightblue" points="117.62,-217.24 125.46,-224.37 123.78,-213.91 117.62,-217.24"/>
</g>
<!-- Node8 -->
<g id="node8" class="node">
<title>Node8</title>
<g id="a_node8"><a xlink:title=" ">
<polygon fill="white" stroke="#bfbfbf" points="32,-56.5 32,-75.5 73,-75.5 73,-56.5 32,-56.5"/>
<text text-anchor="middle" x="52.5" y="-63.5" font-family="Helvetica,sans-Serif" font-size="10.00">string</text>
</a>
</g>
</g>
<!-- Node7&#45;&gt;Node8 -->
<g id="edge7" class="edge">
<title>Node7&#45;&gt;Node8</title>
<path fill="none" stroke="midnightblue" d="M52.5,-112.08C52.5,-105.01 52.5,-94.86 52.5,-85.99"/>
<polygon fill="midnightblue" stroke="midnightblue" points="56,-85.75 52.5,-75.75 49,-85.75 56,-85.75"/>
</g>
<!-- Node7&#45;&gt;Node9 -->
<g id="edge9" class="edge">
<title>Node7&#45;&gt;Node9</title>
<path fill="none" stroke="midnightblue" d="M105.07,-113.22C107.92,-112.81 110.75,-112.4 113.5,-112 199.01,-99.64 297.52,-85.76 361.96,-76.72"/>
<polygon fill="midnightblue" stroke="midnightblue" points="362.58,-80.17 372,-75.31 361.61,-73.24 362.58,-80.17"/>
</g>
<!-- Node10 -->
<g id="node10" class="node">
<title>Node10</title>
<g id="a_node10"><a xlink:title=" ">
<polygon fill="white" stroke="#bfbfbf" points="379.5,-0.5 379.5,-19.5 483.5,-19.5 483.5,-0.5 379.5,-0.5"/>
<text text-anchor="middle" x="431.5" y="-7.5" font-family="Helvetica,sans-Serif" font-size="10.00">glm/gtc/type_ptr.hpp</text>
</a>
</g>
</g>
<!-- Node9&#45;&gt;Node10 -->
<g id="edge10" class="edge">
<title>Node9&#45;&gt;Node10</title>
<path fill="none" stroke="midnightblue" d="M431.5,-56.08C431.5,-49.01 431.5,-38.86 431.5,-29.99"/>
<polygon fill="midnightblue" stroke="midnightblue" points="435,-29.75 431.5,-19.75 428,-29.75 435,-29.75"/>
</g>
</g>
</svg>
