<?xml version="1.0" encoding="UTF-8" standalone="no"?>
<!DOCTYPE svg PUBLIC "-//W3C//DTD SVG 1.1//EN"
 "http://www.w3.org/Graphics/SVG/1.1/DTD/svg11.dtd">
<!-- Generated by graphviz version 2.47.0 (20210407.0042)
 -->
<!-- Title: include/graphics/GShape.hpp Pages: 1 -->
<svg width="945pt" height="442pt"
 viewBox="0.00 0.00 945.15 442.00" xmlns="http://www.w3.org/2000/svg" xmlns:xlink="http://www.w3.org/1999/xlink">
<g id="graph0" class="graph" transform="scale(1 1) rotate(0) translate(4 438)">
<title>include/graphics/GShape.hpp</title>
<polygon fill="white" stroke="transparent" points="-4,4 -4,-438 941.15,-438 941.15,4 -4,4"/>
<!-- Node1 -->
<g id="node1" class="node">
<title>Node1</title>
<g id="a_node1"><a xlink:title=" ">
<polygon fill="#bfbfbf" stroke="black" points="544.2,-414.5 544.2,-433.5 687.2,-433.5 687.2,-414.5 544.2,-414.5"/>
<text text-anchor="middle" x="615.7" y="-421.5" font-family="Helvetica,sans-Serif" font-size="10.00">include/graphics/GShape.hpp</text>
</a>
</g>
</g>
<!-- Node2 -->
<g id="node2" class="node">
<title>Node2</title>
<g id="a_node2"><a xlink:href="_g_shape_8cpp.html" target="_top" xlink:title=" ">
<polygon fill="white" stroke="black" points="334.7,-358.5 334.7,-377.5 460.7,-377.5 460.7,-358.5 334.7,-358.5"/>
<text text-anchor="middle" x="397.7" y="-365.5" font-family="Helvetica,sans-Serif" font-size="10.00">src/graphics/GShape.cpp</text>
</a>
</g>
</g>
<!-- Node1&#45;&gt;Node2 -->
<g id="edge1" class="edge">
<title>Node1&#45;&gt;Node2</title>
<path fill="none" stroke="midnightblue" d="M571.39,-412.02C530.21,-401.82 469.72,-386.84 432.08,-377.52"/>
<polygon fill="midnightblue" stroke="midnightblue" points="570.61,-415.44 581.15,-414.44 572.29,-408.64 570.61,-415.44"/>
</g>
<!-- Node3 -->
<g id="node3" class="node">
<title>Node3</title>
<g id="a_node3"><a xlink:href="_resource_manager_8hpp.html" target="_top" xlink:title=" ">
<polygon fill="white" stroke="black" points="423.2,-168.5 423.2,-198.5 554.2,-198.5 554.2,-168.5 423.2,-168.5"/>
<text text-anchor="start" x="431.2" y="-186.5" font-family="Helvetica,sans-Serif" font-size="10.00">include/graphics/Resource</text>
<text text-anchor="middle" x="488.7" y="-175.5" font-family="Helvetica,sans-Serif" font-size="10.00">Manager.hpp</text>
</a>
</g>
</g>
<!-- Node1&#45;&gt;Node3 -->
<g id="edge2" class="edge">
<title>Node1&#45;&gt;Node3</title>
<path fill="none" stroke="midnightblue" d="M582.03,-410.35C566.58,-403.01 549.19,-392.35 537.7,-378 493.62,-322.95 488.65,-233.15 488.47,-198.63"/>
<polygon fill="midnightblue" stroke="midnightblue" points="580.77,-413.62 591.33,-414.49 583.61,-407.22 580.77,-413.62"/>
</g>
<!-- Node10 -->
<g id="node10" class="node">
<title>Node10</title>
<g id="a_node10"><a xlink:href="_inventory_8hpp.html" target="_top" xlink:title=" ">
<polygon fill="white" stroke="black" points="379.2,-56.5 379.2,-75.5 508.2,-75.5 508.2,-56.5 379.2,-56.5"/>
<text text-anchor="middle" x="443.7" y="-63.5" font-family="Helvetica,sans-Serif" font-size="10.00">include/GUI/Inventory.hpp</text>
</a>
</g>
</g>
<!-- Node1&#45;&gt;Node10 -->
<g id="edge25" class="edge">
<title>Node1&#45;&gt;Node10</title>
<path fill="none" stroke="midnightblue" d="M688.23,-412.91C782.64,-397.69 935.7,-365 935.7,-313 935.7,-313 935.7,-313 935.7,-182.5 935.7,-150.05 941.49,-132.94 916.7,-112 886.17,-86.22 630.92,-73.69 508.58,-69.12"/>
<polygon fill="midnightblue" stroke="midnightblue" points="687.49,-409.48 678.16,-414.5 688.58,-416.39 687.49,-409.48"/>
</g>
<!-- Node14 -->
<g id="node14" class="node">
<title>Node14</title>
<g id="a_node14"><a xlink:href="_shader_8hpp.html" target="_top" xlink:title=" ">
<polygon fill="white" stroke="black" points="546.2,-358.5 546.2,-377.5 685.2,-377.5 685.2,-358.5 546.2,-358.5"/>
<text text-anchor="middle" x="615.7" y="-365.5" font-family="Helvetica,sans-Serif" font-size="10.00">include/graphics/Shader.hpp</text>
</a>
</g>
</g>
<!-- Node1&#45;&gt;Node14 -->
<g id="edge15" class="edge">
<title>Node1&#45;&gt;Node14</title>
<path fill="none" stroke="midnightblue" d="M609.22,-404.1C608.59,-395.14 609.04,-384.86 610.57,-377.75"/>
<polygon fill="midnightblue" stroke="midnightblue" points="605.76,-404.62 610.53,-414.08 612.7,-403.71 605.76,-404.62"/>
</g>
<!-- Node4 -->
<g id="node4" class="node">
<title>Node4</title>
<g id="a_node4"><a xlink:href="_drawable_8cpp.html" target="_top" xlink:title=" ">
<polygon fill="white" stroke="black" points="472.2,-112.5 472.2,-131.5 595.2,-131.5 595.2,-112.5 472.2,-112.5"/>
<text text-anchor="middle" x="533.7" y="-119.5" font-family="Helvetica,sans-Serif" font-size="10.00">src/engine/Drawable.cpp</text>
</a>
</g>
</g>
<!-- Node3&#45;&gt;Node4 -->
<g id="edge3" class="edge">
<title>Node3&#45;&gt;Node4</title>
<path fill="none" stroke="midnightblue" d="M505.41,-160.4C512.97,-150.41 521.46,-139.18 527.15,-131.66"/>
<polygon fill="midnightblue" stroke="midnightblue" points="502.6,-158.31 499.36,-168.4 508.19,-162.53 502.6,-158.31"/>
</g>
<!-- Node5 -->
<g id="node5" class="node">
<title>Node5</title>
<g id="a_node5"><a xlink:href="_field_8cpp.html" target="_top" xlink:title=" ">
<polygon fill="white" stroke="black" points="613.7,-112.5 613.7,-131.5 717.7,-131.5 717.7,-112.5 613.7,-112.5"/>
<text text-anchor="middle" x="665.7" y="-119.5" font-family="Helvetica,sans-Serif" font-size="10.00">src/engine/Field.cpp</text>
</a>
</g>
</g>
<!-- Node3&#45;&gt;Node5 -->
<g id="edge4" class="edge">
<title>Node3&#45;&gt;Node5</title>
<path fill="none" stroke="midnightblue" d="M540.53,-165.08C573.32,-154.05 614.26,-140.29 640.2,-131.57"/>
<polygon fill="midnightblue" stroke="midnightblue" points="539.01,-161.9 530.64,-168.4 541.24,-168.53 539.01,-161.9"/>
</g>
<!-- Node6 -->
<g id="node6" class="node">
<title>Node6</title>
<g id="a_node6"><a xlink:href="_engine_8cpp.html" target="_top" xlink:title=" ">
<polygon fill="white" stroke="black" points="19.7,-112.5 19.7,-131.5 99.7,-131.5 99.7,-112.5 19.7,-112.5"/>
<text text-anchor="middle" x="59.7" y="-119.5" font-family="Helvetica,sans-Serif" font-size="10.00">src/Engine.cpp</text>
</a>
</g>
</g>
<!-- Node3&#45;&gt;Node6 -->
<g id="edge5" class="edge">
<title>Node3&#45;&gt;Node6</title>
<path fill="none" stroke="midnightblue" d="M412.93,-173.55C336.11,-164.22 213.91,-148.64 108.7,-132 105.79,-131.54 102.8,-131.04 99.78,-130.53"/>
<polygon fill="midnightblue" stroke="midnightblue" points="412.64,-177.04 422.99,-174.77 413.48,-170.09 412.64,-177.04"/>
</g>
<!-- Node7 -->
<g id="node7" class="node">
<title>Node7</title>
<g id="a_node7"><a xlink:href="_event_handler_8cpp.html" target="_top" xlink:title=" ">
<polygon fill="white" stroke="black" points="736.2,-112.5 736.2,-131.5 907.2,-131.5 907.2,-112.5 736.2,-112.5"/>
<text text-anchor="middle" x="821.7" y="-119.5" font-family="Helvetica,sans-Serif" font-size="10.00">src/EventHandler/EventHandler.cpp</text>
</a>
</g>
</g>
<!-- Node3&#45;&gt;Node7 -->
<g id="edge6" class="edge">
<title>Node3&#45;&gt;Node7</title>
<path fill="none" stroke="midnightblue" d="M564.59,-168.94C628.99,-157.43 719.4,-141.28 774.07,-131.51"/>
<polygon fill="midnightblue" stroke="midnightblue" points="563.72,-165.54 554.49,-170.74 564.95,-172.43 563.72,-165.54"/>
</g>
<!-- Node8 -->
<g id="node8" class="node">
<title>Node8</title>
<g id="a_node8"><a xlink:href="_resource_manager_8cpp.html" target="_top" xlink:title=" ">
<polygon fill="white" stroke="black" points="117.7,-112.5 117.7,-131.5 287.7,-131.5 287.7,-112.5 117.7,-112.5"/>
<text text-anchor="middle" x="202.7" y="-119.5" font-family="Helvetica,sans-Serif" font-size="10.00">src/graphics/ResourceManager.cpp</text>
</a>
</g>
</g>
<!-- Node3&#45;&gt;Node8 -->
<g id="edge7" class="edge">
<title>Node3&#45;&gt;Node8</title>
<path fill="none" stroke="midnightblue" d="M413.15,-166.78C358.88,-155.49 287.79,-140.7 243.69,-131.53"/>
<polygon fill="midnightblue" stroke="midnightblue" points="412.58,-170.24 423.08,-168.85 414.01,-163.39 412.58,-170.24"/>
</g>
<!-- Node9 -->
<g id="node9" class="node">
<title>Node9</title>
<g id="a_node9"><a xlink:href="main_8cpp.html" target="_top" xlink:title=" ">
<polygon fill="white" stroke="black" points="126.7,-0.5 126.7,-19.5 198.7,-19.5 198.7,-0.5 126.7,-0.5"/>
<text text-anchor="middle" x="162.7" y="-7.5" font-family="Helvetica,sans-Serif" font-size="10.00">src/main.cpp</text>
</a>
</g>
</g>
<!-- Node3&#45;&gt;Node9 -->
<g id="edge8" class="edge">
<title>Node3&#45;&gt;Node9</title>
<path fill="none" stroke="midnightblue" d="M412.8,-179.95C284.74,-174.85 37.06,-161.29 10.7,-132 -33.64,-82.73 79.64,-37.81 134.7,-19.59"/>
<polygon fill="midnightblue" stroke="midnightblue" points="412.8,-183.45 422.93,-180.34 413.07,-176.45 412.8,-183.45"/>
</g>
<!-- Node3&#45;&gt;Node10 -->
<g id="edge9" class="edge">
<title>Node3&#45;&gt;Node10</title>
<path fill="none" stroke="midnightblue" d="M476.23,-159.29C471.95,-150.83 467.33,-141.11 463.7,-132 455.83,-112.26 449.14,-88.14 445.86,-75.56"/>
<polygon fill="midnightblue" stroke="midnightblue" points="473.14,-160.93 480.84,-168.2 479.35,-157.71 473.14,-160.93"/>
</g>
<!-- Node12 -->
<g id="node12" class="node">
<title>Node12</title>
<g id="a_node12"><a xlink:href="_item_8hpp.html" target="_top" xlink:title=" ">
<polygon fill="white" stroke="black" points="306.2,-112.5 306.2,-131.5 415.2,-131.5 415.2,-112.5 306.2,-112.5"/>
<text text-anchor="middle" x="360.7" y="-119.5" font-family="Helvetica,sans-Serif" font-size="10.00">include/GUI/Item.hpp</text>
</a>
</g>
</g>
<!-- Node3&#45;&gt;Node12 -->
<g id="edge12" class="edge">
<title>Node3&#45;&gt;Node12</title>
<path fill="none" stroke="midnightblue" d="M449.08,-164.08C425.83,-153.28 397.53,-140.12 379.32,-131.66"/>
<polygon fill="midnightblue" stroke="midnightblue" points="447.82,-167.36 458.36,-168.4 450.77,-161.01 447.82,-167.36"/>
</g>
<!-- Node10&#45;&gt;Node9 -->
<g id="edge11" class="edge">
<title>Node10&#45;&gt;Node9</title>
<path fill="none" stroke="midnightblue" d="M389.06,-54.5C332.95,-43.72 247.23,-27.24 198.97,-17.97"/>
<polygon fill="midnightblue" stroke="midnightblue" points="388.69,-57.99 399.17,-56.44 390.01,-51.12 388.69,-57.99"/>
</g>
<!-- Node11 -->
<g id="node11" class="node">
<title>Node11</title>
<g id="a_node11"><a xlink:href="_inventory_8cpp.html" target="_top" xlink:title=" ">
<polygon fill="white" stroke="black" points="387.7,-0.5 387.7,-19.5 499.7,-19.5 499.7,-0.5 387.7,-0.5"/>
<text text-anchor="middle" x="443.7" y="-7.5" font-family="Helvetica,sans-Serif" font-size="10.00">src/GUI/Inventory.cpp</text>
</a>
</g>
</g>
<!-- Node10&#45;&gt;Node11 -->
<g id="edge10" class="edge">
<title>Node10&#45;&gt;Node11</title>
<path fill="none" stroke="midnightblue" d="M443.7,-45.8C443.7,-36.91 443.7,-26.78 443.7,-19.75"/>
<polygon fill="midnightblue" stroke="midnightblue" points="440.2,-46.08 443.7,-56.08 447.2,-46.08 440.2,-46.08"/>
</g>
<!-- Node12&#45;&gt;Node10 -->
<g id="edge14" class="edge">
<title>Node12&#45;&gt;Node10</title>
<path fill="none" stroke="midnightblue" d="M382.8,-106.62C397.96,-96.76 417.58,-83.99 430.39,-75.65"/>
<polygon fill="midnightblue" stroke="midnightblue" points="380.51,-103.94 374.03,-112.32 384.32,-109.8 380.51,-103.94"/>
</g>
<!-- Node13 -->
<g id="node13" class="node">
<title>Node13</title>
<g id="a_node13"><a xlink:href="_item_8cpp.html" target="_top" xlink:title=" ">
<polygon fill="white" stroke="black" points="268.7,-56.5 268.7,-75.5 360.7,-75.5 360.7,-56.5 268.7,-56.5"/>
<text text-anchor="middle" x="314.7" y="-63.5" font-family="Helvetica,sans-Serif" font-size="10.00">src/GUI/Item.cpp</text>
</a>
</g>
</g>
<!-- Node12&#45;&gt;Node13 -->
<g id="edge13" class="edge">
<title>Node12&#45;&gt;Node13</title>
<path fill="none" stroke="midnightblue" d="M346.58,-104.43C338.52,-94.97 328.74,-83.48 322.15,-75.75"/>
<polygon fill="midnightblue" stroke="midnightblue" points="343.95,-106.74 353.1,-112.08 349.28,-102.2 343.95,-106.74"/>
</g>
<!-- Node14&#45;&gt;Node1 -->
<g id="edge17" class="edge">
<title>Node14&#45;&gt;Node1</title>
<path fill="none" stroke="midnightblue" d="M622.15,-387.69C622.8,-396.64 622.37,-406.93 620.86,-414.08"/>
<polygon fill="midnightblue" stroke="midnightblue" points="625.62,-387.2 620.83,-377.75 618.68,-388.13 625.62,-387.2"/>
</g>
<!-- Node14&#45;&gt;Node3 -->
<g id="edge18" class="edge">
<title>Node14&#45;&gt;Node3</title>
<path fill="none" stroke="midnightblue" d="M586.92,-353.7C572.96,-346.07 556.84,-335.33 545.7,-322 529.12,-302.17 503.66,-229.4 493.31,-198.51"/>
<polygon fill="midnightblue" stroke="midnightblue" points="585.67,-357 596.16,-358.49 588.89,-350.78 585.67,-357"/>
</g>
<!-- Node15 -->
<g id="node15" class="node">
<title>Node15</title>
<g id="a_node15"><a xlink:href="_shader_8cpp.html" target="_top" xlink:title=" ">
<polygon fill="white" stroke="black" points="554.7,-302.5 554.7,-321.5 676.7,-321.5 676.7,-302.5 554.7,-302.5"/>
<text text-anchor="middle" x="615.7" y="-309.5" font-family="Helvetica,sans-Serif" font-size="10.00">src/graphics/Shader.cpp</text>
</a>
</g>
</g>
<!-- Node14&#45;&gt;Node15 -->
<g id="edge16" class="edge">
<title>Node14&#45;&gt;Node15</title>
<path fill="none" stroke="midnightblue" d="M615.7,-347.8C615.7,-338.91 615.7,-328.78 615.7,-321.75"/>
<polygon fill="midnightblue" stroke="midnightblue" points="612.2,-348.08 615.7,-358.08 619.2,-348.08 612.2,-348.08"/>
</g>
<!-- Node16 -->
<g id="node16" class="node">
<title>Node16</title>
<g id="a_node16"><a xlink:href="_window_8hpp.html" target="_top" xlink:title=" ">
<polygon fill="white" stroke="black" points="695.2,-302.5 695.2,-321.5 838.2,-321.5 838.2,-302.5 695.2,-302.5"/>
<text text-anchor="middle" x="766.7" y="-309.5" font-family="Helvetica,sans-Serif" font-size="10.00">include/graphics/Window.hpp</text>
</a>
</g>
</g>
<!-- Node14&#45;&gt;Node16 -->
<g id="edge19" class="edge">
<title>Node14&#45;&gt;Node16</title>
<path fill="none" stroke="midnightblue" d="M649.14,-355.04C677.55,-344.88 717.63,-330.55 742.88,-321.52"/>
<polygon fill="midnightblue" stroke="midnightblue" points="647.86,-351.78 639.62,-358.44 650.22,-358.37 647.86,-351.78"/>
</g>
<!-- Node16&#45;&gt;Node1 -->
<g id="edge24" class="edge">
<title>Node16&#45;&gt;Node1</title>
<path fill="none" stroke="midnightblue" d="M751.01,-329C736.97,-342.86 715.46,-362.99 694.7,-378 674.74,-392.43 649.77,-405.98 633.31,-414.37"/>
<polygon fill="midnightblue" stroke="midnightblue" points="753.76,-331.2 758.35,-321.65 748.81,-326.25 753.76,-331.2"/>
</g>
<!-- Node17 -->
<g id="node17" class="node">
<title>Node17</title>
<g id="a_node17"><a xlink:href="_window_8cpp.html" target="_top" xlink:title=" ">
<polygon fill="white" stroke="black" points="743.2,-241 743.2,-260 868.2,-260 868.2,-241 743.2,-241"/>
<text text-anchor="middle" x="805.7" y="-248" font-family="Helvetica,sans-Serif" font-size="10.00">src/graphics/Window.cpp</text>
</a>
</g>
</g>
<!-- Node16&#45;&gt;Node17 -->
<g id="edge20" class="edge">
<title>Node16&#45;&gt;Node17</title>
<path fill="none" stroke="midnightblue" d="M777.84,-294.01C785.12,-282.89 794.33,-268.84 800.12,-260.01"/>
<polygon fill="midnightblue" stroke="midnightblue" points="774.84,-292.19 772.28,-302.48 780.69,-296.03 774.84,-292.19"/>
</g>
<!-- Node18 -->
<g id="node18" class="node">
<title>Node18</title>
<g id="a_node18"><a xlink:href="_event_handler_8hpp.html" target="_top" xlink:title=" ">
<polygon fill="white" stroke="black" points="616.2,-235.5 616.2,-265.5 725.2,-265.5 725.2,-235.5 616.2,-235.5"/>
<text text-anchor="start" x="624.2" y="-253.5" font-family="Helvetica,sans-Serif" font-size="10.00">include/EventHandler</text>
<text text-anchor="middle" x="670.7" y="-242.5" font-family="Helvetica,sans-Serif" font-size="10.00">/EventHandler.hpp</text>
</a>
</g>
</g>
<!-- Node16&#45;&gt;Node18 -->
<g id="edge21" class="edge">
<title>Node16&#45;&gt;Node18</title>
<path fill="none" stroke="midnightblue" d="M744.12,-297.01C728.81,-287.52 708.65,-275.02 693.32,-265.52"/>
<polygon fill="midnightblue" stroke="midnightblue" points="742.6,-300.18 752.94,-302.48 746.29,-294.23 742.6,-300.18"/>
</g>
<!-- Node18&#45;&gt;Node3 -->
<g id="edge23" class="edge">
<title>Node18&#45;&gt;Node3</title>
<path fill="none" stroke="midnightblue" d="M621.57,-231.96C592.25,-221.48 555.52,-208.37 528.11,-198.58"/>
<polygon fill="midnightblue" stroke="midnightblue" points="620.61,-235.33 631.21,-235.4 622.97,-228.74 620.61,-235.33"/>
</g>
<!-- Node18&#45;&gt;Node7 -->
<g id="edge22" class="edge">
<title>Node18&#45;&gt;Node7</title>
<path fill="none" stroke="midnightblue" d="M695.39,-228.82C728.93,-200.72 787.43,-151.7 811.21,-131.79"/>
<polygon fill="midnightblue" stroke="midnightblue" points="692.85,-226.37 687.43,-235.48 697.35,-231.74 692.85,-226.37"/>
</g>
</g>
</svg>
