<?xml version="1.0" encoding="UTF-8" standalone="no"?>
<!DOCTYPE svg PUBLIC "-//W3C//DTD SVG 1.1//EN"
 "http://www.w3.org/Graphics/SVG/1.1/DTD/svg11.dtd">
<!-- Generated by graphviz version 2.47.0 (20210407.0042)
 -->
<!-- Title: include/graphics/GShape.hpp Pages: 1 -->
<svg width="819pt" height="330pt"
 viewBox="0.00 0.00 819.00 330.00" xmlns="http://www.w3.org/2000/svg" xmlns:xlink="http://www.w3.org/1999/xlink">
<g id="graph0" class="graph" transform="scale(1 1) rotate(0) translate(4 326)">
<title>include/graphics/GShape.hpp</title>
<polygon fill="white" stroke="transparent" points="-4,4 -4,-326 815,-326 815,4 -4,4"/>
<!-- Node1 -->
<g id="node1" class="node">
<title>Node1</title>
<g id="a_node1"><a xlink:title=" ">
<polygon fill="#bfbfbf" stroke="black" points="468,-302.5 468,-321.5 611,-321.5 611,-302.5 468,-302.5"/>
<text text-anchor="middle" x="539.5" y="-309.5" font-family="Helvetica,sans-Serif" font-size="10.00">include/graphics/GShape.hpp</text>
</a>
</g>
</g>
<!-- Node2 -->
<g id="node2" class="node">
<title>Node2</title>
<g id="a_node2"><a xlink:href="_g_shape_8cpp.html" target="_top" xlink:title=" ">
<polygon fill="white" stroke="black" points="273.5,-246.5 273.5,-265.5 399.5,-265.5 399.5,-246.5 273.5,-246.5"/>
<text text-anchor="middle" x="336.5" y="-253.5" font-family="Helvetica,sans-Serif" font-size="10.00">src/graphics/GShape.cpp</text>
</a>
</g>
</g>
<!-- Node1&#45;&gt;Node2 -->
<g id="edge1" class="edge">
<title>Node1&#45;&gt;Node2</title>
<path fill="none" stroke="midnightblue" d="M497.51,-299.83C459.18,-289.63 403.35,-274.78 368.52,-265.52"/>
<polygon fill="midnightblue" stroke="midnightblue" points="496.77,-303.26 507.33,-302.44 498.57,-296.49 496.77,-303.26"/>
</g>
<!-- Node3 -->
<g id="node3" class="node">
<title>Node3</title>
<g id="a_node3"><a xlink:href="_resource_manager_8hpp.html" target="_top" xlink:title=" ">
<polygon fill="white" stroke="black" points="381,-56.5 381,-86.5 512,-86.5 512,-56.5 381,-56.5"/>
<text text-anchor="start" x="389" y="-74.5" font-family="Helvetica,sans-Serif" font-size="10.00">include/graphics/Resource</text>
<text text-anchor="middle" x="446.5" y="-63.5" font-family="Helvetica,sans-Serif" font-size="10.00">Manager.hpp</text>
</a>
</g>
</g>
<!-- Node1&#45;&gt;Node3 -->
<g id="edge2" class="edge">
<title>Node1&#45;&gt;Node3</title>
<path fill="none" stroke="midnightblue" d="M502.94,-298.47C487.67,-291.34 471.24,-280.82 461.5,-266 423.93,-208.84 436.51,-120.66 443.33,-86.6"/>
<polygon fill="midnightblue" stroke="midnightblue" points="501.66,-301.73 512.23,-302.47 504.43,-295.3 501.66,-301.73"/>
</g>
<!-- Node10 -->
<g id="node10" class="node">
<title>Node10</title>
<g id="a_node10"><a xlink:href="_shader_8hpp.html" target="_top" xlink:title=" ">
<polygon fill="white" stroke="black" points="470,-246.5 470,-265.5 609,-265.5 609,-246.5 470,-246.5"/>
<text text-anchor="middle" x="539.5" y="-253.5" font-family="Helvetica,sans-Serif" font-size="10.00">include/graphics/Shader.hpp</text>
</a>
</g>
</g>
<!-- Node1&#45;&gt;Node10 -->
<g id="edge9" class="edge">
<title>Node1&#45;&gt;Node10</title>
<path fill="none" stroke="midnightblue" d="M533.03,-292.1C532.4,-283.14 532.84,-272.86 534.37,-265.75"/>
<polygon fill="midnightblue" stroke="midnightblue" points="529.57,-292.62 534.33,-302.08 536.51,-291.71 529.57,-292.62"/>
</g>
<!-- Node4 -->
<g id="node4" class="node">
<title>Node4</title>
<g id="a_node4"><a xlink:href="_drawable_8cpp.html" target="_top" xlink:title=" ">
<polygon fill="white" stroke="black" points="0,-0.5 0,-19.5 123,-19.5 123,-0.5 0,-0.5"/>
<text text-anchor="middle" x="61.5" y="-7.5" font-family="Helvetica,sans-Serif" font-size="10.00">src/engine/Drawable.cpp</text>
</a>
</g>
</g>
<!-- Node3&#45;&gt;Node4 -->
<g id="edge3" class="edge">
<title>Node3&#45;&gt;Node4</title>
<path fill="none" stroke="midnightblue" d="M370.46,-58.75C295.66,-47.19 183.29,-29.82 116.68,-19.53"/>
<polygon fill="midnightblue" stroke="midnightblue" points="370.34,-62.27 380.75,-60.34 371.41,-55.35 370.34,-62.27"/>
</g>
<!-- Node5 -->
<g id="node5" class="node">
<title>Node5</title>
<g id="a_node5"><a xlink:href="_field_8cpp.html" target="_top" xlink:title=" ">
<polygon fill="white" stroke="black" points="141.5,-0.5 141.5,-19.5 245.5,-19.5 245.5,-0.5 141.5,-0.5"/>
<text text-anchor="middle" x="193.5" y="-7.5" font-family="Helvetica,sans-Serif" font-size="10.00">src/engine/Field.cpp</text>
</a>
</g>
</g>
<!-- Node3&#45;&gt;Node5 -->
<g id="edge4" class="edge">
<title>Node3&#45;&gt;Node5</title>
<path fill="none" stroke="midnightblue" d="M376.91,-54.13C329.23,-42.92 267.93,-28.5 229.67,-19.51"/>
<polygon fill="midnightblue" stroke="midnightblue" points="376.33,-57.59 386.86,-56.47 377.93,-50.78 376.33,-57.59"/>
</g>
<!-- Node6 -->
<g id="node6" class="node">
<title>Node6</title>
<g id="a_node6"><a xlink:href="_engine_8cpp.html" target="_top" xlink:title=" ">
<polygon fill="white" stroke="black" points="263.5,-0.5 263.5,-19.5 343.5,-19.5 343.5,-0.5 263.5,-0.5"/>
<text text-anchor="middle" x="303.5" y="-7.5" font-family="Helvetica,sans-Serif" font-size="10.00">src/Engine.cpp</text>
</a>
</g>
</g>
<!-- Node3&#45;&gt;Node6 -->
<g id="edge5" class="edge">
<title>Node3&#45;&gt;Node6</title>
<path fill="none" stroke="midnightblue" d="M403.28,-52.52C377.11,-41.63 344.92,-28.23 324.31,-19.66"/>
<polygon fill="midnightblue" stroke="midnightblue" points="402.03,-55.79 412.61,-56.4 404.72,-49.33 402.03,-55.79"/>
</g>
<!-- Node7 -->
<g id="node7" class="node">
<title>Node7</title>
<g id="a_node7"><a xlink:href="_event_handler_8cpp.html" target="_top" xlink:title=" ">
<polygon fill="white" stroke="black" points="640,-0.5 640,-19.5 811,-19.5 811,-0.5 640,-0.5"/>
<text text-anchor="middle" x="725.5" y="-7.5" font-family="Helvetica,sans-Serif" font-size="10.00">src/EventHandler/EventHandler.cpp</text>
</a>
</g>
</g>
<!-- Node3&#45;&gt;Node7 -->
<g id="edge6" class="edge">
<title>Node3&#45;&gt;Node7</title>
<path fill="none" stroke="midnightblue" d="M522.25,-54.34C574.97,-43.1 643.16,-28.56 685.61,-19.51"/>
<polygon fill="midnightblue" stroke="midnightblue" points="521.32,-50.97 512.27,-56.47 522.78,-57.81 521.32,-50.97"/>
</g>
<!-- Node8 -->
<g id="node8" class="node">
<title>Node8</title>
<g id="a_node8"><a xlink:href="_resource_manager_8cpp.html" target="_top" xlink:title=" ">
<polygon fill="white" stroke="black" points="361.5,-0.5 361.5,-19.5 531.5,-19.5 531.5,-0.5 361.5,-0.5"/>
<text text-anchor="middle" x="446.5" y="-7.5" font-family="Helvetica,sans-Serif" font-size="10.00">src/graphics/ResourceManager.cpp</text>
</a>
</g>
</g>
<!-- Node3&#45;&gt;Node8 -->
<g id="edge7" class="edge">
<title>Node3&#45;&gt;Node8</title>
<path fill="none" stroke="midnightblue" d="M446.5,-46.29C446.5,-36.86 446.5,-26.65 446.5,-19.66"/>
<polygon fill="midnightblue" stroke="midnightblue" points="443,-46.4 446.5,-56.4 450,-46.4 443,-46.4"/>
</g>
<!-- Node9 -->
<g id="node9" class="node">
<title>Node9</title>
<g id="a_node9"><a xlink:href="main_8cpp.html" target="_top" xlink:title=" ">
<polygon fill="white" stroke="black" points="549.5,-0.5 549.5,-19.5 621.5,-19.5 621.5,-0.5 549.5,-0.5"/>
<text text-anchor="middle" x="585.5" y="-7.5" font-family="Helvetica,sans-Serif" font-size="10.00">src/main.cpp</text>
</a>
</g>
</g>
<!-- Node3&#45;&gt;Node9 -->
<g id="edge8" class="edge">
<title>Node3&#45;&gt;Node9</title>
<path fill="none" stroke="midnightblue" d="M488.85,-52.37C514.22,-41.51 545.33,-28.2 565.27,-19.66"/>
<polygon fill="midnightblue" stroke="midnightblue" points="487.26,-49.25 479.44,-56.4 490.01,-55.68 487.26,-49.25"/>
</g>
<!-- Node10&#45;&gt;Node1 -->
<g id="edge11" class="edge">
<title>Node10&#45;&gt;Node1</title>
<path fill="none" stroke="midnightblue" d="M545.96,-275.69C546.61,-284.64 546.18,-294.93 544.67,-302.08"/>
<polygon fill="midnightblue" stroke="midnightblue" points="549.42,-275.2 544.63,-265.75 542.48,-276.13 549.42,-275.2"/>
</g>
<!-- Node10&#45;&gt;Node3 -->
<g id="edge12" class="edge">
<title>Node10&#45;&gt;Node3</title>
<path fill="none" stroke="midnightblue" d="M516.03,-240.73C504.99,-232.92 492.52,-222.32 484.5,-210 458.55,-170.16 450.15,-112.73 447.57,-86.51"/>
<polygon fill="midnightblue" stroke="midnightblue" points="514.21,-243.72 524.46,-246.38 518.1,-237.9 514.21,-243.72"/>
</g>
<!-- Node11 -->
<g id="node11" class="node">
<title>Node11</title>
<g id="a_node11"><a xlink:href="_shader_8cpp.html" target="_top" xlink:title=" ">
<polygon fill="white" stroke="black" points="493.5,-190.5 493.5,-209.5 615.5,-209.5 615.5,-190.5 493.5,-190.5"/>
<text text-anchor="middle" x="554.5" y="-197.5" font-family="Helvetica,sans-Serif" font-size="10.00">src/graphics/Shader.cpp</text>
</a>
</g>
</g>
<!-- Node10&#45;&gt;Node11 -->
<g id="edge10" class="edge">
<title>Node10&#45;&gt;Node11</title>
<path fill="none" stroke="midnightblue" d="M544.67,-236.4C547.18,-227.36 550.07,-216.94 552.07,-209.75"/>
<polygon fill="midnightblue" stroke="midnightblue" points="541.28,-235.51 541.98,-246.08 548.03,-237.38 541.28,-235.51"/>
</g>
<!-- Node12 -->
<g id="node12" class="node">
<title>Node12</title>
<g id="a_node12"><a xlink:href="_window_8hpp.html" target="_top" xlink:title=" ">
<polygon fill="white" stroke="black" points="634,-190.5 634,-209.5 777,-209.5 777,-190.5 634,-190.5"/>
<text text-anchor="middle" x="705.5" y="-197.5" font-family="Helvetica,sans-Serif" font-size="10.00">include/graphics/Window.hpp</text>
</a>
</g>
</g>
<!-- Node10&#45;&gt;Node12 -->
<g id="edge13" class="edge">
<title>Node10&#45;&gt;Node12</title>
<path fill="none" stroke="midnightblue" d="M575.45,-243.3C606.73,-233.13 651.32,-218.62 679.32,-209.52"/>
<polygon fill="midnightblue" stroke="midnightblue" points="574.23,-240.02 565.8,-246.44 576.4,-246.68 574.23,-240.02"/>
</g>
<!-- Node12&#45;&gt;Node1 -->
<g id="edge18" class="edge">
<title>Node12&#45;&gt;Node1</title>
<path fill="none" stroke="midnightblue" d="M686.69,-216.12C669.39,-229.77 642.81,-250.08 618.5,-266 597.5,-279.75 572.11,-293.78 555.89,-302.44"/>
<polygon fill="midnightblue" stroke="midnightblue" points="689.17,-218.62 694.83,-209.65 684.82,-213.14 689.17,-218.62"/>
</g>
<!-- Node13 -->
<g id="node13" class="node">
<title>Node13</title>
<g id="a_node13"><a xlink:href="_window_8cpp.html" target="_top" xlink:title=" ">
<polygon fill="white" stroke="black" points="513,-129 513,-148 638,-148 638,-129 513,-129"/>
<text text-anchor="middle" x="575.5" y="-136" font-family="Helvetica,sans-Serif" font-size="10.00">src/graphics/Window.cpp</text>
</a>
</g>
</g>
<!-- Node12&#45;&gt;Node13 -->
<g id="edge14" class="edge">
<title>Node12&#45;&gt;Node13</title>
<path fill="none" stroke="midnightblue" d="M677.48,-186.17C652.25,-174.63 615.89,-157.99 594.09,-148.01"/>
<polygon fill="midnightblue" stroke="midnightblue" points="676.32,-189.5 686.87,-190.48 679.24,-183.13 676.32,-189.5"/>
</g>
<!-- Node14 -->
<g id="node14" class="node">
<title>Node14</title>
<g id="a_node14"><a xlink:href="_event_handler_8hpp.html" target="_top" xlink:title=" ">
<polygon fill="white" stroke="black" points="656,-123.5 656,-153.5 765,-153.5 765,-123.5 656,-123.5"/>
<text text-anchor="start" x="664" y="-141.5" font-family="Helvetica,sans-Serif" font-size="10.00">include/EventHandler</text>
<text text-anchor="middle" x="710.5" y="-130.5" font-family="Helvetica,sans-Serif" font-size="10.00">/EventHandler.hpp</text>
</a>
</g>
</g>
<!-- Node12&#45;&gt;Node14 -->
<g id="edge15" class="edge">
<title>Node12&#45;&gt;Node14</title>
<path fill="none" stroke="midnightblue" d="M707.08,-180.23C707.8,-171.59 708.65,-161.5 709.32,-153.52"/>
<polygon fill="midnightblue" stroke="midnightblue" points="703.57,-180.22 706.22,-190.48 710.54,-180.8 703.57,-180.22"/>
</g>
<!-- Node14&#45;&gt;Node3 -->
<g id="edge17" class="edge">
<title>Node14&#45;&gt;Node3</title>
<path fill="none" stroke="midnightblue" d="M645.87,-121.59C602.28,-110.85 545.29,-96.82 503.41,-86.51"/>
<polygon fill="midnightblue" stroke="midnightblue" points="645.25,-125.04 655.8,-124.03 646.93,-118.24 645.25,-125.04"/>
</g>
<!-- Node14&#45;&gt;Node7 -->
<g id="edge16" class="edge">
<title>Node14&#45;&gt;Node7</title>
<path fill="none" stroke="midnightblue" d="M713.34,-113.51C716.72,-85.02 722.19,-38.94 724.46,-19.79"/>
<polygon fill="midnightblue" stroke="midnightblue" points="709.86,-113.14 712.16,-123.48 716.82,-113.96 709.86,-113.14"/>
</g>
</g>
</svg>
