<?xml version="1.0" encoding="UTF-8" standalone="no"?>
<!DOCTYPE svg PUBLIC "-//W3C//DTD SVG 1.1//EN"
 "http://www.w3.org/Graphics/SVG/1.1/DTD/svg11.dtd">
<!-- Generated by graphviz version 2.47.0 (20210407.0042)
 -->
<!-- Title: src/graphics/GShape.cpp Pages: 1 -->
<svg width="741pt" height="308pt"
 viewBox="0.00 0.00 741.00 308.00" xmlns="http://www.w3.org/2000/svg" xmlns:xlink="http://www.w3.org/1999/xlink">
<g id="graph0" class="graph" transform="scale(1 1) rotate(0) translate(4 304)">
<title>src/graphics/GShape.cpp</title>
<polygon fill="white" stroke="transparent" points="-4,4 -4,-304 737,-304 737,4 -4,4"/>
<!-- Node1 -->
<g id="node1" class="node">
<title>Node1</title>
<g id="a_node1"><a xlink:title=" ">
<polygon fill="#bfbfbf" stroke="black" points="110.5,-280.5 110.5,-299.5 236.5,-299.5 236.5,-280.5 110.5,-280.5"/>
<text text-anchor="middle" x="173.5" y="-287.5" font-family="Helvetica,sans-Serif" font-size="10.00">src/graphics/GShape.cpp</text>
</a>
</g>
</g>
<!-- Node2 -->
<g id="node2" class="node">
<title>Node2</title>
<g id="a_node2"><a xlink:title=" ">
<polygon fill="white" stroke="#bfbfbf" points="0,-224.5 0,-243.5 69,-243.5 69,-224.5 0,-224.5"/>
<text text-anchor="middle" x="34.5" y="-231.5" font-family="Helvetica,sans-Serif" font-size="10.00">stb_image.h</text>
</a>
</g>
</g>
<!-- Node1&#45;&gt;Node2 -->
<g id="edge1" class="edge">
<title>Node1&#45;&gt;Node2</title>
<path fill="none" stroke="midnightblue" d="M151.48,-280.44C128.4,-271.48 91.94,-257.31 65.86,-247.18"/>
<polygon fill="midnightblue" stroke="midnightblue" points="67.01,-243.88 56.42,-243.52 64.48,-250.4 67.01,-243.88"/>
</g>
<!-- Node3 -->
<g id="node3" class="node">
<title>Node3</title>
<g id="a_node3"><a xlink:title=" ">
<polygon fill="white" stroke="#bfbfbf" points="87.5,-224.5 87.5,-243.5 125.5,-243.5 125.5,-224.5 87.5,-224.5"/>
<text text-anchor="middle" x="106.5" y="-231.5" font-family="Helvetica,sans-Serif" font-size="10.00">array</text>
</a>
</g>
</g>
<!-- Node1&#45;&gt;Node3 -->
<g id="edge2" class="edge">
<title>Node1&#45;&gt;Node3</title>
<path fill="none" stroke="midnightblue" d="M162.74,-280.32C152.73,-272.26 137.61,-260.08 125.57,-250.37"/>
<polygon fill="midnightblue" stroke="midnightblue" points="127.44,-247.38 117.46,-243.83 123.05,-252.83 127.44,-247.38"/>
</g>
<!-- Node4 -->
<g id="node4" class="node">
<title>Node4</title>
<g id="a_node4"><a xlink:title=" ">
<polygon fill="white" stroke="#bfbfbf" points="144,-224.5 144,-243.5 203,-243.5 203,-224.5 144,-224.5"/>
<text text-anchor="middle" x="173.5" y="-231.5" font-family="Helvetica,sans-Serif" font-size="10.00">stdexcept</text>
</a>
</g>
</g>
<!-- Node1&#45;&gt;Node4 -->
<g id="edge3" class="edge">
<title>Node1&#45;&gt;Node4</title>
<path fill="none" stroke="midnightblue" d="M173.5,-280.08C173.5,-273.01 173.5,-262.86 173.5,-253.99"/>
<polygon fill="midnightblue" stroke="midnightblue" points="177,-253.75 173.5,-243.75 170,-253.75 177,-253.75"/>
</g>
<!-- Node5 -->
<g id="node5" class="node">
<title>Node5</title>
<g id="a_node5"><a xlink:href="_g_shape_8hpp.html" target="_top" xlink:title=" ">
<polygon fill="white" stroke="black" points="329.5,-224.5 329.5,-243.5 439.5,-243.5 439.5,-224.5 329.5,-224.5"/>
<text text-anchor="middle" x="384.5" y="-231.5" font-family="Helvetica,sans-Serif" font-size="10.00">graphics/GShape.hpp</text>
</a>
</g>
</g>
<!-- Node1&#45;&gt;Node5 -->
<g id="edge4" class="edge">
<title>Node1&#45;&gt;Node5</title>
<path fill="none" stroke="midnightblue" d="M206.93,-280.44C243.36,-271.12 301.73,-256.18 341.53,-246"/>
<polygon fill="midnightblue" stroke="midnightblue" points="342.4,-249.39 351.22,-243.52 340.67,-242.61 342.4,-249.39"/>
</g>
<!-- Node15 -->
<g id="node15" class="node">
<title>Node15</title>
<g id="a_node15"><a xlink:href="_vector2_d_8hpp.html" target="_top" xlink:title=" ">
<polygon fill="white" stroke="black" points="140.5,-168.5 140.5,-187.5 252.5,-187.5 252.5,-168.5 140.5,-168.5"/>
<text text-anchor="middle" x="196.5" y="-175.5" font-family="Helvetica,sans-Serif" font-size="10.00">Helpers/Vector2D.hpp</text>
</a>
</g>
</g>
<!-- Node1&#45;&gt;Node15 -->
<g id="edge21" class="edge">
<title>Node1&#45;&gt;Node15</title>
<path fill="none" stroke="midnightblue" d="M184.21,-280.3C193.44,-272.07 206.09,-258.79 211.5,-244 217.21,-228.4 211.81,-209.87 205.96,-196.6"/>
<polygon fill="midnightblue" stroke="midnightblue" points="209.1,-195.06 201.57,-187.61 202.81,-198.13 209.1,-195.06"/>
</g>
<!-- Node6 -->
<g id="node6" class="node">
<title>Node6</title>
<g id="a_node6"><a xlink:href="_window_8hpp.html" target="_top" xlink:title=" ">
<polygon fill="white" stroke="black" points="365,-168.5 365,-187.5 474,-187.5 474,-168.5 365,-168.5"/>
<text text-anchor="middle" x="419.5" y="-175.5" font-family="Helvetica,sans-Serif" font-size="10.00">graphics/Window.hpp</text>
</a>
</g>
</g>
<!-- Node5&#45;&gt;Node6 -->
<g id="edge5" class="edge">
<title>Node5&#45;&gt;Node6</title>
<path fill="none" stroke="midnightblue" d="M390.28,-224.08C395.17,-216.53 402.33,-205.49 408.33,-196.23"/>
<polygon fill="midnightblue" stroke="midnightblue" points="411.33,-198.05 413.83,-187.75 405.45,-194.24 411.33,-198.05"/>
</g>
<!-- Node11 -->
<g id="node11" class="node">
<title>Node11</title>
<g id="a_node11"><a xlink:href="_shader_8hpp.html" target="_top" xlink:title=" ">
<polygon fill="white" stroke="black" points="628,-112.5 628,-131.5 733,-131.5 733,-112.5 628,-112.5"/>
<text text-anchor="middle" x="680.5" y="-119.5" font-family="Helvetica,sans-Serif" font-size="10.00">graphics/Shader.hpp</text>
</a>
</g>
</g>
<!-- Node5&#45;&gt;Node11 -->
<g id="edge16" class="edge">
<title>Node5&#45;&gt;Node11</title>
<path fill="none" stroke="midnightblue" d="M403.88,-224.37C452.72,-204.85 580.54,-157.28 643.94,-134.95"/>
<polygon fill="midnightblue" stroke="midnightblue" points="645.26,-138.2 653.55,-131.59 642.95,-131.59 645.26,-138.2"/>
</g>
<!-- Node13 -->
<g id="node13" class="node">
<title>Node13</title>
<g id="a_node13"><a xlink:href="_transform_8hpp.html" target="_top" xlink:title=" ">
<polygon fill="white" stroke="black" points="300,-56.5 300,-75.5 419,-75.5 419,-56.5 300,-56.5"/>
<text text-anchor="middle" x="359.5" y="-63.5" font-family="Helvetica,sans-Serif" font-size="10.00">graphics/Transform.hpp</text>
</a>
</g>
</g>
<!-- Node5&#45;&gt;Node13 -->
<g id="edge17" class="edge">
<title>Node5&#45;&gt;Node13</title>
<path fill="none" stroke="midnightblue" d="M370.17,-224.32C346.6,-209.08 300.44,-175.01 282.5,-132 279.08,-123.8 278.08,-119.71 282.5,-112 291.12,-96.99 306.89,-86.5 321.93,-79.46"/>
<polygon fill="midnightblue" stroke="midnightblue" points="323.32,-82.67 331.13,-75.51 320.56,-76.24 323.32,-82.67"/>
</g>
<!-- Node5&#45;&gt;Node15 -->
<g id="edge18" class="edge">
<title>Node5&#45;&gt;Node15</title>
<path fill="none" stroke="midnightblue" d="M354.71,-224.44C322.67,-215.24 271.57,-200.56 236.15,-190.39"/>
<polygon fill="midnightblue" stroke="midnightblue" points="236.73,-186.91 226.15,-187.52 234.79,-193.64 236.73,-186.91"/>
</g>
<!-- Node7 -->
<g id="node7" class="node">
<title>Node7</title>
<g id="a_node7"><a xlink:title=" ">
<polygon fill="white" stroke="#bfbfbf" points="388,-112.5 388,-131.5 451,-131.5 451,-112.5 388,-112.5"/>
<text text-anchor="middle" x="419.5" y="-119.5" font-family="Helvetica,sans-Serif" font-size="10.00">glad/glad.h</text>
</a>
</g>
</g>
<!-- Node6&#45;&gt;Node7 -->
<g id="edge6" class="edge">
<title>Node6&#45;&gt;Node7</title>
<path fill="none" stroke="midnightblue" d="M419.5,-168.08C419.5,-161.01 419.5,-150.86 419.5,-141.99"/>
<polygon fill="midnightblue" stroke="midnightblue" points="423,-141.75 419.5,-131.75 416,-141.75 423,-141.75"/>
</g>
<!-- Node8 -->
<g id="node8" class="node">
<title>Node8</title>
<g id="a_node8"><a xlink:title=" ">
<polygon fill="white" stroke="#bfbfbf" points="469,-112.5 469,-131.5 548,-131.5 548,-112.5 469,-112.5"/>
<text text-anchor="middle" x="508.5" y="-119.5" font-family="Helvetica,sans-Serif" font-size="10.00">GLFW/glfw3.h</text>
</a>
</g>
</g>
<!-- Node6&#45;&gt;Node8 -->
<g id="edge7" class="edge">
<title>Node6&#45;&gt;Node8</title>
<path fill="none" stroke="midnightblue" d="M433.8,-168.32C447.68,-159.9 468.99,-146.97 485.3,-137.07"/>
<polygon fill="midnightblue" stroke="midnightblue" points="487.5,-139.83 494.24,-131.65 483.87,-133.85 487.5,-139.83"/>
</g>
<!-- Node9 -->
<g id="node9" class="node">
<title>Node9</title>
<g id="a_node9"><a xlink:title=" ">
<polygon fill="white" stroke="#bfbfbf" points="292,-112.5 292,-131.5 331,-131.5 331,-112.5 292,-112.5"/>
<text text-anchor="middle" x="311.5" y="-119.5" font-family="Helvetica,sans-Serif" font-size="10.00">utility</text>
</a>
</g>
</g>
<!-- Node6&#45;&gt;Node9 -->
<g id="edge8" class="edge">
<title>Node6&#45;&gt;Node9</title>
<path fill="none" stroke="midnightblue" d="M402.15,-168.32C384.83,-159.66 357.98,-146.24 338,-136.25"/>
<polygon fill="midnightblue" stroke="midnightblue" points="339.32,-133 328.81,-131.65 336.19,-139.26 339.32,-133"/>
</g>
<!-- Node10 -->
<g id="node10" class="node">
<title>Node10</title>
<g id="a_node10"><a xlink:title=" ">
<polygon fill="white" stroke="#bfbfbf" points="565.5,-112.5 565.5,-131.5 609.5,-131.5 609.5,-112.5 565.5,-112.5"/>
<text text-anchor="middle" x="587.5" y="-119.5" font-family="Helvetica,sans-Serif" font-size="10.00">vector</text>
</a>
</g>
</g>
<!-- Node6&#45;&gt;Node10 -->
<g id="edge9" class="edge">
<title>Node6&#45;&gt;Node10</title>
<path fill="none" stroke="midnightblue" d="M446.12,-168.44C475.84,-158.89 523.92,-143.44 555.62,-133.25"/>
<polygon fill="midnightblue" stroke="midnightblue" points="556.85,-136.53 565.3,-130.14 554.71,-129.86 556.85,-136.53"/>
</g>
<!-- Node6&#45;&gt;Node11 -->
<g id="edge10" class="edge">
<title>Node6&#45;&gt;Node11</title>
<path fill="none" stroke="midnightblue" d="M460.86,-168.44C506.58,-158.98 580.26,-143.74 629.52,-133.55"/>
<polygon fill="midnightblue" stroke="midnightblue" points="630.25,-136.97 639.34,-131.52 628.84,-130.12 630.25,-136.97"/>
</g>
<!-- Node6&#45;&gt;Node13 -->
<g id="edge15" class="edge">
<title>Node6&#45;&gt;Node13</title>
<path fill="none" stroke="midnightblue" d="M409.31,-168.35C400.03,-159.94 386.57,-146.38 378.5,-132 370.41,-117.58 365.47,-99.39 362.67,-85.92"/>
<polygon fill="midnightblue" stroke="midnightblue" points="366.07,-85.09 360.79,-75.91 359.19,-86.38 366.07,-85.09"/>
</g>
<!-- Node11&#45;&gt;Node5 -->
<g id="edge12" class="edge">
<title>Node11&#45;&gt;Node5</title>
<path fill="none" stroke="midnightblue" d="M661.17,-131.61C612.33,-151.13 484.28,-198.79 420.9,-221.1"/>
<polygon fill="midnightblue" stroke="midnightblue" points="419.59,-217.85 411.31,-224.46 421.9,-224.46 419.59,-217.85"/>
</g>
<!-- Node12 -->
<g id="node12" class="node">
<title>Node12</title>
<g id="a_node12"><a xlink:title=" ">
<polygon fill="white" stroke="#bfbfbf" points="660,-56.5 660,-75.5 701,-75.5 701,-56.5 660,-56.5"/>
<text text-anchor="middle" x="680.5" y="-63.5" font-family="Helvetica,sans-Serif" font-size="10.00">string</text>
</a>
</g>
</g>
<!-- Node11&#45;&gt;Node12 -->
<g id="edge11" class="edge">
<title>Node11&#45;&gt;Node12</title>
<path fill="none" stroke="midnightblue" d="M680.5,-112.08C680.5,-105.01 680.5,-94.86 680.5,-85.99"/>
<polygon fill="midnightblue" stroke="midnightblue" points="684,-85.75 680.5,-75.75 677,-85.75 684,-85.75"/>
</g>
<!-- Node11&#45;&gt;Node13 -->
<g id="edge13" class="edge">
<title>Node11&#45;&gt;Node13</title>
<path fill="none" stroke="midnightblue" d="M629.64,-112.44C572.82,-102.89 480.88,-87.42 420.31,-77.23"/>
<polygon fill="midnightblue" stroke="midnightblue" points="420.57,-73.72 410.13,-75.52 419.41,-80.63 420.57,-73.72"/>
</g>
<!-- Node14 -->
<g id="node14" class="node">
<title>Node14</title>
<g id="a_node14"><a xlink:title=" ">
<polygon fill="white" stroke="#bfbfbf" points="307.5,-0.5 307.5,-19.5 411.5,-19.5 411.5,-0.5 307.5,-0.5"/>
<text text-anchor="middle" x="359.5" y="-7.5" font-family="Helvetica,sans-Serif" font-size="10.00">glm/gtc/type_ptr.hpp</text>
</a>
</g>
</g>
<!-- Node13&#45;&gt;Node14 -->
<g id="edge14" class="edge">
<title>Node13&#45;&gt;Node14</title>
<path fill="none" stroke="midnightblue" d="M359.5,-56.08C359.5,-49.01 359.5,-38.86 359.5,-29.99"/>
<polygon fill="midnightblue" stroke="midnightblue" points="363,-29.75 359.5,-19.75 356,-29.75 363,-29.75"/>
</g>
<!-- Node15&#45;&gt;Node9 -->
<g id="edge19" class="edge">
<title>Node15&#45;&gt;Node9</title>
<path fill="none" stroke="midnightblue" d="M214.72,-168.44C233.4,-159.68 262.66,-145.94 284.12,-135.86"/>
<polygon fill="midnightblue" stroke="midnightblue" points="285.8,-138.93 293.36,-131.52 282.82,-132.6 285.8,-138.93"/>
</g>
<!-- Node16 -->
<g id="node16" class="node">
<title>Node16</title>
<g id="a_node16"><a xlink:title=" ">
<polygon fill="white" stroke="#bfbfbf" points="174.5,-112.5 174.5,-131.5 218.5,-131.5 218.5,-112.5 174.5,-112.5"/>
<text text-anchor="middle" x="196.5" y="-119.5" font-family="Helvetica,sans-Serif" font-size="10.00">cmath</text>
</a>
</g>
</g>
<!-- Node15&#45;&gt;Node16 -->
<g id="edge20" class="edge">
<title>Node15&#45;&gt;Node16</title>
<path fill="none" stroke="midnightblue" d="M196.5,-168.08C196.5,-161.01 196.5,-150.86 196.5,-141.99"/>
<polygon fill="midnightblue" stroke="midnightblue" points="200,-141.75 196.5,-131.75 193,-141.75 200,-141.75"/>
</g>
</g>
</svg>
