<?xml version="1.0" encoding="UTF-8" standalone="no"?>
<!DOCTYPE svg PUBLIC "-//W3C//DTD SVG 1.1//EN"
 "http://www.w3.org/Graphics/SVG/1.1/DTD/svg11.dtd">
<!-- Generated by graphviz version 2.47.1 (20210421.1823)
 -->
<!-- Title: include/graphics/GShape.hpp Pages: 1 -->
<svg width="549pt" height="252pt"
 viewBox="0.00 0.00 548.50 252.00" xmlns="http://www.w3.org/2000/svg" xmlns:xlink="http://www.w3.org/1999/xlink">
<g id="graph0" class="graph" transform="scale(1 1) rotate(0) translate(4 248)">
<title>include/graphics/GShape.hpp</title>
<polygon fill="white" stroke="transparent" points="-4,4 -4,-248 544.5,-248 544.5,4 -4,4"/>
<!-- Node1 -->
<g id="node1" class="node">
<title>Node1</title>
<g id="a_node1"><a xlink:title=" ">
<polygon fill="#bfbfbf" stroke="black" points="335.5,-224.5 335.5,-243.5 478.5,-243.5 478.5,-224.5 335.5,-224.5"/>
<text text-anchor="middle" x="407" y="-231.5" font-family="Helvetica,sans-Serif" font-size="10.00">include/graphics/GShape.hpp</text>
</a>
</g>
</g>
<!-- Node2 -->
<g id="node2" class="node">
<title>Node2</title>
<g id="a_node2"><a xlink:href="_window_8hpp.html" target="_top" xlink:title=" ">
<polygon fill="white" stroke="black" points="264.5,-168.5 264.5,-187.5 373.5,-187.5 373.5,-168.5 264.5,-168.5"/>
<text text-anchor="middle" x="319" y="-175.5" font-family="Helvetica,sans-Serif" font-size="10.00">graphics/Window.hpp</text>
</a>
</g>
</g>
<!-- Node1&#45;&gt;Node2 -->
<g id="edge1" class="edge">
<title>Node1&#45;&gt;Node2</title>
<path fill="none" stroke="midnightblue" d="M392.86,-224.32C379.13,-215.9 358.06,-202.97 341.94,-193.07"/>
<polygon fill="midnightblue" stroke="midnightblue" points="343.46,-189.9 333.1,-187.65 339.8,-195.87 343.46,-189.9"/>
</g>
<!-- Node7 -->
<g id="node7" class="node">
<title>Node7</title>
<g id="a_node7"><a xlink:href="_shader_8hpp.html" target="_top" xlink:title=" ">
<polygon fill="white" stroke="black" points="435.5,-112.5 435.5,-131.5 540.5,-131.5 540.5,-112.5 435.5,-112.5"/>
<text text-anchor="middle" x="488" y="-119.5" font-family="Helvetica,sans-Serif" font-size="10.00">graphics/Shader.hpp</text>
</a>
</g>
</g>
<!-- Node1&#45;&gt;Node7 -->
<g id="edge12" class="edge">
<title>Node1&#45;&gt;Node7</title>
<path fill="none" stroke="midnightblue" d="M409.51,-224.37C419.54,-206.05 450.84,-163.05 470.98,-139.36"/>
<polygon fill="midnightblue" stroke="midnightblue" points="473.85,-141.41 477.84,-131.59 468.6,-136.77 473.85,-141.41"/>
</g>
<!-- Node9 -->
<g id="node9" class="node">
<title>Node9</title>
<g id="a_node9"><a xlink:href="_transform_8hpp.html" target="_top" xlink:title=" ">
<polygon fill="white" stroke="black" points="338.5,-56.5 338.5,-75.5 457.5,-75.5 457.5,-56.5 338.5,-56.5"/>
<text text-anchor="middle" x="398" y="-63.5" font-family="Helvetica,sans-Serif" font-size="10.00">graphics/Transform.hpp</text>
</a>
</g>
</g>
<!-- Node1&#45;&gt;Node9 -->
<g id="edge13" class="edge">
<title>Node1&#45;&gt;Node9</title>
<path fill="none" stroke="midnightblue" d="M406.52,-224.08C405.1,-197.95 400.94,-121.21 399.01,-85.58"/>
<polygon fill="midnightblue" stroke="midnightblue" points="402.5,-85.36 398.46,-75.57 395.51,-85.74 402.5,-85.36"/>
</g>
<!-- Node11 -->
<g id="node11" class="node">
<title>Node11</title>
<g id="a_node11"><a xlink:href="_vector2_d_8hpp.html" target="_top" xlink:title=" ">
<polygon fill="white" stroke="black" points="26,-168.5 26,-187.5 138,-187.5 138,-168.5 26,-168.5"/>
<text text-anchor="middle" x="82" y="-175.5" font-family="Helvetica,sans-Serif" font-size="10.00">Helpers/Vector2D.hpp</text>
</a>
</g>
</g>
<!-- Node1&#45;&gt;Node11 -->
<g id="edge14" class="edge">
<title>Node1&#45;&gt;Node11</title>
<path fill="none" stroke="midnightblue" d="M355.5,-224.44C297.86,-214.87 204.51,-199.36 143.19,-189.17"/>
<polygon fill="midnightblue" stroke="midnightblue" points="143.69,-185.7 133.26,-187.52 142.55,-192.61 143.69,-185.7"/>
</g>
<!-- Node3 -->
<g id="node3" class="node">
<title>Node3</title>
<g id="a_node3"><a xlink:title=" ">
<polygon fill="white" stroke="#bfbfbf" points="119.5,-112.5 119.5,-131.5 182.5,-131.5 182.5,-112.5 119.5,-112.5"/>
<text text-anchor="middle" x="151" y="-119.5" font-family="Helvetica,sans-Serif" font-size="10.00">glad/glad.h</text>
</a>
</g>
</g>
<!-- Node2&#45;&gt;Node3 -->
<g id="edge2" class="edge">
<title>Node2&#45;&gt;Node3</title>
<path fill="none" stroke="midnightblue" d="M292.38,-168.44C263.99,-159.32 218.86,-144.81 187.25,-134.65"/>
<polygon fill="midnightblue" stroke="midnightblue" points="188.09,-131.24 177.5,-131.52 185.94,-137.91 188.09,-131.24"/>
</g>
<!-- Node4 -->
<g id="node4" class="node">
<title>Node4</title>
<g id="a_node4"><a xlink:title=" ">
<polygon fill="white" stroke="#bfbfbf" points="200.5,-112.5 200.5,-131.5 279.5,-131.5 279.5,-112.5 200.5,-112.5"/>
<text text-anchor="middle" x="240" y="-119.5" font-family="Helvetica,sans-Serif" font-size="10.00">GLFW/glfw3.h</text>
</a>
</g>
</g>
<!-- Node2&#45;&gt;Node4 -->
<g id="edge3" class="edge">
<title>Node2&#45;&gt;Node4</title>
<path fill="none" stroke="midnightblue" d="M306.31,-168.32C294.1,-159.98 275.42,-147.21 261,-137.35"/>
<polygon fill="midnightblue" stroke="midnightblue" points="262.89,-134.41 252.66,-131.65 258.94,-140.19 262.89,-134.41"/>
</g>
<!-- Node5 -->
<g id="node5" class="node">
<title>Node5</title>
<g id="a_node5"><a xlink:title=" ">
<polygon fill="white" stroke="#bfbfbf" points="62.5,-112.5 62.5,-131.5 101.5,-131.5 101.5,-112.5 62.5,-112.5"/>
<text text-anchor="middle" x="82" y="-119.5" font-family="Helvetica,sans-Serif" font-size="10.00">utility</text>
</a>
</g>
</g>
<!-- Node2&#45;&gt;Node5 -->
<g id="edge4" class="edge">
<title>Node2&#45;&gt;Node5</title>
<path fill="none" stroke="midnightblue" d="M273.03,-168.46C232.63,-160.65 172.11,-148.22 111.27,-132.15"/>
<polygon fill="midnightblue" stroke="midnightblue" points="112.07,-128.74 101.51,-129.54 110.27,-135.51 112.07,-128.74"/>
</g>
<!-- Node6 -->
<g id="node6" class="node">
<title>Node6</title>
<g id="a_node6"><a xlink:title=" ">
<polygon fill="white" stroke="#bfbfbf" points="297,-112.5 297,-131.5 341,-131.5 341,-112.5 297,-112.5"/>
<text text-anchor="middle" x="319" y="-119.5" font-family="Helvetica,sans-Serif" font-size="10.00">vector</text>
</a>
</g>
</g>
<!-- Node2&#45;&gt;Node6 -->
<g id="edge5" class="edge">
<title>Node2&#45;&gt;Node6</title>
<path fill="none" stroke="midnightblue" d="M319,-168.08C319,-161.01 319,-150.86 319,-141.99"/>
<polygon fill="midnightblue" stroke="midnightblue" points="322.5,-141.75 319,-131.75 315.5,-141.75 322.5,-141.75"/>
</g>
<!-- Node2&#45;&gt;Node7 -->
<g id="edge6" class="edge">
<title>Node2&#45;&gt;Node7</title>
<path fill="none" stroke="midnightblue" d="M345.78,-168.44C374.33,-159.32 419.73,-144.81 451.54,-134.65"/>
<polygon fill="midnightblue" stroke="midnightblue" points="452.89,-137.89 461.35,-131.52 450.76,-131.23 452.89,-137.89"/>
</g>
<!-- Node2&#45;&gt;Node9 -->
<g id="edge11" class="edge">
<title>Node2&#45;&gt;Node9</title>
<path fill="none" stroke="midnightblue" d="M325.2,-168.37C338.24,-150.22 368.7,-107.8 385.8,-83.99"/>
<polygon fill="midnightblue" stroke="midnightblue" points="388.84,-85.76 391.83,-75.59 383.15,-81.67 388.84,-85.76"/>
</g>
<!-- Node7&#45;&gt;Node1 -->
<g id="edge8" class="edge">
<title>Node7&#45;&gt;Node1</title>
<path fill="none" stroke="midnightblue" d="M485.51,-131.59C475.51,-149.87 444.22,-192.87 424.06,-216.59"/>
<polygon fill="midnightblue" stroke="midnightblue" points="421.19,-214.55 417.2,-224.37 426.44,-219.18 421.19,-214.55"/>
</g>
<!-- Node8 -->
<g id="node8" class="node">
<title>Node8</title>
<g id="a_node8"><a xlink:title=" ">
<polygon fill="white" stroke="#bfbfbf" points="475.5,-56.5 475.5,-75.5 516.5,-75.5 516.5,-56.5 475.5,-56.5"/>
<text text-anchor="middle" x="496" y="-63.5" font-family="Helvetica,sans-Serif" font-size="10.00">string</text>
</a>
</g>
</g>
<!-- Node7&#45;&gt;Node8 -->
<g id="edge7" class="edge">
<title>Node7&#45;&gt;Node8</title>
<path fill="none" stroke="midnightblue" d="M489.32,-112.08C490.38,-104.93 491.91,-94.64 493.23,-85.69"/>
<polygon fill="midnightblue" stroke="midnightblue" points="496.7,-86.16 494.7,-75.75 489.78,-85.13 496.7,-86.16"/>
</g>
<!-- Node7&#45;&gt;Node9 -->
<g id="edge9" class="edge">
<title>Node7&#45;&gt;Node9</title>
<path fill="none" stroke="midnightblue" d="M473.54,-112.32C459.5,-103.9 437.95,-90.97 421.46,-81.07"/>
<polygon fill="midnightblue" stroke="midnightblue" points="422.8,-77.8 412.42,-75.65 419.2,-83.8 422.8,-77.8"/>
</g>
<!-- Node10 -->
<g id="node10" class="node">
<title>Node10</title>
<g id="a_node10"><a xlink:title=" ">
<polygon fill="white" stroke="#bfbfbf" points="346,-0.5 346,-19.5 450,-19.5 450,-0.5 346,-0.5"/>
<text text-anchor="middle" x="398" y="-7.5" font-family="Helvetica,sans-Serif" font-size="10.00">glm/gtc/type_ptr.hpp</text>
</a>
</g>
</g>
<!-- Node9&#45;&gt;Node10 -->
<g id="edge10" class="edge">
<title>Node9&#45;&gt;Node10</title>
<path fill="none" stroke="midnightblue" d="M398,-56.08C398,-49.01 398,-38.86 398,-29.99"/>
<polygon fill="midnightblue" stroke="midnightblue" points="401.5,-29.75 398,-19.75 394.5,-29.75 401.5,-29.75"/>
</g>
<!-- Node11&#45;&gt;Node5 -->
<g id="edge15" class="edge">
<title>Node11&#45;&gt;Node5</title>
<path fill="none" stroke="midnightblue" d="M82,-168.08C82,-161.01 82,-150.86 82,-141.99"/>
<polygon fill="midnightblue" stroke="midnightblue" points="85.5,-141.75 82,-131.75 78.5,-141.75 85.5,-141.75"/>
</g>
<!-- Node12 -->
<g id="node12" class="node">
<title>Node12</title>
<g id="a_node12"><a xlink:title=" ">
<polygon fill="white" stroke="#bfbfbf" points="0,-112.5 0,-131.5 44,-131.5 44,-112.5 0,-112.5"/>
<text text-anchor="middle" x="22" y="-119.5" font-family="Helvetica,sans-Serif" font-size="10.00">cmath</text>
</a>
</g>
</g>
<!-- Node11&#45;&gt;Node12 -->
<g id="edge16" class="edge">
<title>Node11&#45;&gt;Node12</title>
<path fill="none" stroke="midnightblue" d="M72.36,-168.32C63.49,-160.34 50.13,-148.31 39.39,-138.65"/>
<polygon fill="midnightblue" stroke="midnightblue" points="41.59,-135.92 31.82,-131.83 36.91,-141.13 41.59,-135.92"/>
</g>
</g>
</svg>
