<?xml version="1.0" encoding="UTF-8" standalone="no"?>
<!DOCTYPE svg PUBLIC "-//W3C//DTD SVG 1.1//EN"
 "http://www.w3.org/Graphics/SVG/1.1/DTD/svg11.dtd">
<!-- Generated by graphviz version 2.47.1 (20210421.1823)
 -->
<!-- Title: include/graphics/GShape.hpp Pages: 1 -->
<svg width="944pt" height="442pt"
 viewBox="0.00 0.00 944.36 442.00" xmlns="http://www.w3.org/2000/svg" xmlns:xlink="http://www.w3.org/1999/xlink">
<g id="graph0" class="graph" transform="scale(1 1) rotate(0) translate(4 438)">
<title>include/graphics/GShape.hpp</title>
<polygon fill="white" stroke="transparent" points="-4,4 -4,-438 940.36,-438 940.36,4 -4,4"/>
<!-- Node1 -->
<g id="node1" class="node">
<title>Node1</title>
<g id="a_node1"><a xlink:title=" ">
<polygon fill="#bfbfbf" stroke="black" points="543.38,-414.5 543.38,-433.5 686.38,-433.5 686.38,-414.5 543.38,-414.5"/>
<text text-anchor="middle" x="614.88" y="-421.5" font-family="Helvetica,sans-Serif" font-size="10.00">include/graphics/GShape.hpp</text>
</a>
</g>
</g>
<!-- Node2 -->
<g id="node2" class="node">
<title>Node2</title>
<g id="a_node2"><a xlink:href="_g_shape_8cpp.html" target="_top" xlink:title=" ">
<polygon fill="white" stroke="black" points="333.88,-358.5 333.88,-377.5 459.88,-377.5 459.88,-358.5 333.88,-358.5"/>
<text text-anchor="middle" x="396.88" y="-365.5" font-family="Helvetica,sans-Serif" font-size="10.00">src/graphics/GShape.cpp</text>
</a>
</g>
</g>
<!-- Node1&#45;&gt;Node2 -->
<g id="edge1" class="edge">
<title>Node1&#45;&gt;Node2</title>
<path fill="none" stroke="midnightblue" d="M570.57,-412.02C529.39,-401.82 468.9,-386.84 431.26,-377.52"/>
<polygon fill="midnightblue" stroke="midnightblue" points="569.79,-415.44 580.34,-414.44 571.47,-408.64 569.79,-415.44"/>
</g>
<!-- Node3 -->
<g id="node3" class="node">
<title>Node3</title>
<g id="a_node3"><a xlink:href="_resource_manager_8hpp.html" target="_top" xlink:title=" ">
<polygon fill="white" stroke="black" points="422.38,-168.5 422.38,-198.5 553.38,-198.5 553.38,-168.5 422.38,-168.5"/>
<text text-anchor="start" x="430.38" y="-186.5" font-family="Helvetica,sans-Serif" font-size="10.00">include/graphics/Resource</text>
<text text-anchor="middle" x="487.88" y="-175.5" font-family="Helvetica,sans-Serif" font-size="10.00">Manager.hpp</text>
</a>
</g>
</g>
<!-- Node1&#45;&gt;Node3 -->
<g id="edge2" class="edge">
<title>Node1&#45;&gt;Node3</title>
<path fill="none" stroke="midnightblue" d="M581.21,-410.35C565.76,-403.01 548.37,-392.35 536.88,-378 492.8,-322.95 487.84,-233.15 487.65,-198.63"/>
<polygon fill="midnightblue" stroke="midnightblue" points="579.95,-413.62 590.51,-414.49 582.79,-407.22 579.95,-413.62"/>
</g>
<!-- Node10 -->
<g id="node10" class="node">
<title>Node10</title>
<g id="a_node10"><a xlink:href="_inventory_8hpp.html" target="_top" xlink:title=" ">
<polygon fill="white" stroke="black" points="307.38,-56.5 307.38,-75.5 436.38,-75.5 436.38,-56.5 307.38,-56.5"/>
<text text-anchor="middle" x="371.88" y="-63.5" font-family="Helvetica,sans-Serif" font-size="10.00">include/GUI/Inventory.hpp</text>
</a>
</g>
</g>
<!-- Node1&#45;&gt;Node10 -->
<g id="edge25" class="edge">
<title>Node1&#45;&gt;Node10</title>
<path fill="none" stroke="midnightblue" d="M687.41,-412.91C781.82,-397.69 934.88,-365 934.88,-313 934.88,-313 934.88,-313 934.88,-182.5 934.88,-150.05 940.8,-132.78 915.88,-112 879.76,-81.88 572.58,-71.42 436.42,-68.23"/>
<polygon fill="midnightblue" stroke="midnightblue" points="686.67,-409.48 677.34,-414.5 687.76,-416.39 686.67,-409.48"/>
</g>
<!-- Node14 -->
<g id="node14" class="node">
<title>Node14</title>
<g id="a_node14"><a xlink:href="_shader_8hpp.html" target="_top" xlink:title=" ">
<polygon fill="white" stroke="black" points="545.38,-358.5 545.38,-377.5 684.38,-377.5 684.38,-358.5 545.38,-358.5"/>
<text text-anchor="middle" x="614.88" y="-365.5" font-family="Helvetica,sans-Serif" font-size="10.00">include/graphics/Shader.hpp</text>
</a>
</g>
</g>
<!-- Node1&#45;&gt;Node14 -->
<g id="edge15" class="edge">
<title>Node1&#45;&gt;Node14</title>
<path fill="none" stroke="midnightblue" d="M608.41,-404.1C607.77,-395.14 608.22,-384.86 609.75,-377.75"/>
<polygon fill="midnightblue" stroke="midnightblue" points="604.94,-404.62 609.71,-414.08 611.88,-403.71 604.94,-404.62"/>
</g>
<!-- Node4 -->
<g id="node4" class="node">
<title>Node4</title>
<g id="a_node4"><a xlink:href="_drawable_8cpp.html" target="_top" xlink:title=" ">
<polygon fill="white" stroke="black" points="471.38,-112.5 471.38,-131.5 594.38,-131.5 594.38,-112.5 471.38,-112.5"/>
<text text-anchor="middle" x="532.88" y="-119.5" font-family="Helvetica,sans-Serif" font-size="10.00">src/engine/Drawable.cpp</text>
</a>
</g>
</g>
<!-- Node3&#45;&gt;Node4 -->
<g id="edge3" class="edge">
<title>Node3&#45;&gt;Node4</title>
<path fill="none" stroke="midnightblue" d="M504.59,-160.4C512.15,-150.41 520.64,-139.18 526.33,-131.66"/>
<polygon fill="midnightblue" stroke="midnightblue" points="501.78,-158.31 498.54,-168.4 507.37,-162.53 501.78,-158.31"/>
</g>
<!-- Node5 -->
<g id="node5" class="node">
<title>Node5</title>
<g id="a_node5"><a xlink:href="_field_8cpp.html" target="_top" xlink:title=" ">
<polygon fill="white" stroke="black" points="612.88,-112.5 612.88,-131.5 716.88,-131.5 716.88,-112.5 612.88,-112.5"/>
<text text-anchor="middle" x="664.88" y="-119.5" font-family="Helvetica,sans-Serif" font-size="10.00">src/engine/Field.cpp</text>
</a>
</g>
</g>
<!-- Node3&#45;&gt;Node5 -->
<g id="edge4" class="edge">
<title>Node3&#45;&gt;Node5</title>
<path fill="none" stroke="midnightblue" d="M539.71,-165.08C572.5,-154.05 613.44,-140.29 639.38,-131.57"/>
<polygon fill="midnightblue" stroke="midnightblue" points="538.19,-161.9 529.82,-168.4 540.42,-168.53 538.19,-161.9"/>
</g>
<!-- Node6 -->
<g id="node6" class="node">
<title>Node6</title>
<g id="a_node6"><a xlink:href="_engine_8cpp.html" target="_top" xlink:title=" ">
<polygon fill="white" stroke="black" points="18.88,-112.5 18.88,-131.5 98.88,-131.5 98.88,-112.5 18.88,-112.5"/>
<text text-anchor="middle" x="58.88" y="-119.5" font-family="Helvetica,sans-Serif" font-size="10.00">src/Engine.cpp</text>
</a>
</g>
</g>
<!-- Node3&#45;&gt;Node6 -->
<g id="edge5" class="edge">
<title>Node3&#45;&gt;Node6</title>
<path fill="none" stroke="midnightblue" d="M412.11,-173.55C335.29,-164.22 213.1,-148.64 107.88,-132 104.97,-131.54 101.98,-131.04 98.96,-130.53"/>
<polygon fill="midnightblue" stroke="midnightblue" points="411.82,-177.04 422.17,-174.77 412.67,-170.09 411.82,-177.04"/>
</g>
<!-- Node7 -->
<g id="node7" class="node">
<title>Node7</title>
<g id="a_node7"><a xlink:href="_event_handler_8cpp.html" target="_top" xlink:title=" ">
<polygon fill="white" stroke="black" points="735.38,-112.5 735.38,-131.5 906.38,-131.5 906.38,-112.5 735.38,-112.5"/>
<text text-anchor="middle" x="820.88" y="-119.5" font-family="Helvetica,sans-Serif" font-size="10.00">src/EventHandler/EventHandler.cpp</text>
</a>
</g>
</g>
<!-- Node3&#45;&gt;Node7 -->
<g id="edge6" class="edge">
<title>Node3&#45;&gt;Node7</title>
<path fill="none" stroke="midnightblue" d="M563.77,-168.94C628.17,-157.43 718.58,-141.28 773.25,-131.51"/>
<polygon fill="midnightblue" stroke="midnightblue" points="562.9,-165.54 553.67,-170.74 564.13,-172.43 562.9,-165.54"/>
</g>
<!-- Node8 -->
<g id="node8" class="node">
<title>Node8</title>
<g id="a_node8"><a xlink:href="_game_8cpp.html" target="_top" xlink:title=" ">
<polygon fill="white" stroke="black" points="86.38,-0.5 86.38,-19.5 163.38,-19.5 163.38,-0.5 86.38,-0.5"/>
<text text-anchor="middle" x="124.88" y="-7.5" font-family="Helvetica,sans-Serif" font-size="10.00">src/Game.cpp</text>
</a>
</g>
</g>
<!-- Node3&#45;&gt;Node8 -->
<g id="edge7" class="edge">
<title>Node3&#45;&gt;Node8</title>
<path fill="none" stroke="midnightblue" d="M411.98,-179.95C283.92,-174.85 36.24,-161.29 9.88,-132 -28.99,-88.81 63.57,-39.05 105.53,-19.51"/>
<polygon fill="midnightblue" stroke="midnightblue" points="411.98,-183.45 422.11,-180.34 412.26,-176.45 411.98,-183.45"/>
</g>
<!-- Node9 -->
<g id="node9" class="node">
<title>Node9</title>
<g id="a_node9"><a xlink:href="_resource_manager_8cpp.html" target="_top" xlink:title=" ">
<polygon fill="white" stroke="black" points="244.88,-112.5 244.88,-131.5 414.88,-131.5 414.88,-112.5 244.88,-112.5"/>
<text text-anchor="middle" x="329.88" y="-119.5" font-family="Helvetica,sans-Serif" font-size="10.00">src/graphics/ResourceManager.cpp</text>
</a>
</g>
</g>
<!-- Node3&#45;&gt;Node9 -->
<g id="edge8" class="edge">
<title>Node3&#45;&gt;Node9</title>
<path fill="none" stroke="midnightblue" d="M440.88,-164.8C411.83,-153.86 375.84,-140.31 352.87,-131.66"/>
<polygon fill="midnightblue" stroke="midnightblue" points="439.84,-168.15 450.43,-168.4 442.31,-161.6 439.84,-168.15"/>
</g>
<!-- Node3&#45;&gt;Node10 -->
<g id="edge9" class="edge">
<title>Node3&#45;&gt;Node10</title>
<path fill="none" stroke="midnightblue" d="M469.09,-160.46C456.67,-146.23 439.8,-127.54 423.88,-112 410.21,-98.65 393.32,-84.41 382.57,-75.61"/>
<polygon fill="midnightblue" stroke="midnightblue" points="466.65,-162.99 475.85,-168.26 471.94,-158.41 466.65,-162.99"/>
</g>
<!-- Node12 -->
<g id="node12" class="node">
<title>Node12</title>
<g id="a_node12"><a xlink:href="_item_8hpp.html" target="_top" xlink:title=" ">
<polygon fill="white" stroke="black" points="117.38,-112.5 117.38,-131.5 226.38,-131.5 226.38,-112.5 117.38,-112.5"/>
<text text-anchor="middle" x="171.88" y="-119.5" font-family="Helvetica,sans-Serif" font-size="10.00">include/GUI/Item.hpp</text>
</a>
</g>
</g>
<!-- Node3&#45;&gt;Node12 -->
<g id="edge12" class="edge">
<title>Node3&#45;&gt;Node12</title>
<path fill="none" stroke="midnightblue" d="M412.09,-168.23C351.33,-156.79 268.09,-141.12 217.25,-131.54"/>
<polygon fill="midnightblue" stroke="midnightblue" points="411.54,-171.69 422.02,-170.1 412.84,-164.81 411.54,-171.69"/>
</g>
<!-- Node10&#45;&gt;Node8 -->
<g id="edge10" class="edge">
<title>Node10&#45;&gt;Node8</title>
<path fill="none" stroke="midnightblue" d="M322.82,-54.27C276,-44.04 206.4,-28.82 163.43,-19.43"/>
<polygon fill="midnightblue" stroke="midnightblue" points="322.22,-57.73 332.74,-56.44 323.72,-50.89 322.22,-57.73"/>
</g>
<!-- Node11 -->
<g id="node11" class="node">
<title>Node11</title>
<g id="a_node11"><a xlink:href="_inventory_8cpp.html" target="_top" xlink:title=" ">
<polygon fill="white" stroke="black" points="315.88,-0.5 315.88,-19.5 427.88,-19.5 427.88,-0.5 315.88,-0.5"/>
<text text-anchor="middle" x="371.88" y="-7.5" font-family="Helvetica,sans-Serif" font-size="10.00">src/GUI/Inventory.cpp</text>
</a>
</g>
</g>
<!-- Node10&#45;&gt;Node11 -->
<g id="edge11" class="edge">
<title>Node10&#45;&gt;Node11</title>
<path fill="none" stroke="midnightblue" d="M371.88,-45.8C371.88,-36.91 371.88,-26.78 371.88,-19.75"/>
<polygon fill="midnightblue" stroke="midnightblue" points="368.38,-46.08 371.88,-56.08 375.38,-46.08 368.38,-46.08"/>
</g>
<!-- Node12&#45;&gt;Node10 -->
<g id="edge14" class="edge">
<title>Node12&#45;&gt;Node10</title>
<path fill="none" stroke="midnightblue" d="M213.25,-109.83C251.01,-99.63 306.02,-84.78 340.34,-75.52"/>
<polygon fill="midnightblue" stroke="midnightblue" points="212.31,-106.46 203.57,-112.44 214.14,-113.22 212.31,-106.46"/>
</g>
<!-- Node13 -->
<g id="node13" class="node">
<title>Node13</title>
<g id="a_node13"><a xlink:href="_item_8cpp.html" target="_top" xlink:title=" ">
<polygon fill="white" stroke="black" points="125.88,-56.5 125.88,-75.5 217.88,-75.5 217.88,-56.5 125.88,-56.5"/>
<text text-anchor="middle" x="171.88" y="-63.5" font-family="Helvetica,sans-Serif" font-size="10.00">src/GUI/Item.cpp</text>
</a>
</g>
</g>
<!-- Node12&#45;&gt;Node13 -->
<g id="edge13" class="edge">
<title>Node12&#45;&gt;Node13</title>
<path fill="none" stroke="midnightblue" d="M171.88,-101.8C171.88,-92.91 171.88,-82.78 171.88,-75.75"/>
<polygon fill="midnightblue" stroke="midnightblue" points="168.38,-102.08 171.88,-112.08 175.38,-102.08 168.38,-102.08"/>
</g>
<!-- Node14&#45;&gt;Node1 -->
<g id="edge17" class="edge">
<title>Node14&#45;&gt;Node1</title>
<path fill="none" stroke="midnightblue" d="M621.34,-387.69C621.98,-396.64 621.55,-406.93 620.04,-414.08"/>
<polygon fill="midnightblue" stroke="midnightblue" points="624.8,-387.2 620.01,-377.75 617.86,-388.13 624.8,-387.2"/>
</g>
<!-- Node14&#45;&gt;Node3 -->
<g id="edge18" class="edge">
<title>Node14&#45;&gt;Node3</title>
<path fill="none" stroke="midnightblue" d="M586.1,-353.7C572.14,-346.07 556.02,-335.33 544.88,-322 528.31,-302.17 502.84,-229.4 492.49,-198.51"/>
<polygon fill="midnightblue" stroke="midnightblue" points="584.85,-357 595.34,-358.49 588.07,-350.78 584.85,-357"/>
</g>
<!-- Node15 -->
<g id="node15" class="node">
<title>Node15</title>
<g id="a_node15"><a xlink:href="_shader_8cpp.html" target="_top" xlink:title=" ">
<polygon fill="white" stroke="black" points="553.88,-302.5 553.88,-321.5 675.88,-321.5 675.88,-302.5 553.88,-302.5"/>
<text text-anchor="middle" x="614.88" y="-309.5" font-family="Helvetica,sans-Serif" font-size="10.00">src/graphics/Shader.cpp</text>
</a>
</g>
</g>
<!-- Node14&#45;&gt;Node15 -->
<g id="edge16" class="edge">
<title>Node14&#45;&gt;Node15</title>
<path fill="none" stroke="midnightblue" d="M614.88,-347.8C614.88,-338.91 614.88,-328.78 614.88,-321.75"/>
<polygon fill="midnightblue" stroke="midnightblue" points="611.38,-348.08 614.88,-358.08 618.38,-348.08 611.38,-348.08"/>
</g>
<!-- Node16 -->
<g id="node16" class="node">
<title>Node16</title>
<g id="a_node16"><a xlink:href="_window_8hpp.html" target="_top" xlink:title=" ">
<polygon fill="white" stroke="black" points="694.38,-302.5 694.38,-321.5 837.38,-321.5 837.38,-302.5 694.38,-302.5"/>
<text text-anchor="middle" x="765.88" y="-309.5" font-family="Helvetica,sans-Serif" font-size="10.00">include/graphics/Window.hpp</text>
</a>
</g>
</g>
<!-- Node14&#45;&gt;Node16 -->
<g id="edge19" class="edge">
<title>Node14&#45;&gt;Node16</title>
<path fill="none" stroke="midnightblue" d="M648.32,-355.04C676.74,-344.88 716.82,-330.55 742.06,-321.52"/>
<polygon fill="midnightblue" stroke="midnightblue" points="647.04,-351.78 638.8,-358.44 649.4,-358.37 647.04,-351.78"/>
</g>
<!-- Node16&#45;&gt;Node1 -->
<g id="edge24" class="edge">
<title>Node16&#45;&gt;Node1</title>
<path fill="none" stroke="midnightblue" d="M750.19,-329C736.15,-342.86 714.64,-362.99 693.88,-378 673.92,-392.43 648.95,-405.98 632.49,-414.37"/>
<polygon fill="midnightblue" stroke="midnightblue" points="752.94,-331.2 757.53,-321.65 747.99,-326.25 752.94,-331.2"/>
</g>
<!-- Node17 -->
<g id="node17" class="node">
<title>Node17</title>
<g id="a_node17"><a xlink:href="_window_8cpp.html" target="_top" xlink:title=" ">
<polygon fill="white" stroke="black" points="742.38,-241 742.38,-260 867.38,-260 867.38,-241 742.38,-241"/>
<text text-anchor="middle" x="804.88" y="-248" font-family="Helvetica,sans-Serif" font-size="10.00">src/graphics/Window.cpp</text>
</a>
</g>
</g>
<!-- Node16&#45;&gt;Node17 -->
<g id="edge20" class="edge">
<title>Node16&#45;&gt;Node17</title>
<path fill="none" stroke="midnightblue" d="M777.02,-294.01C784.3,-282.89 793.51,-268.84 799.3,-260.01"/>
<polygon fill="midnightblue" stroke="midnightblue" points="774.02,-292.19 771.47,-302.48 779.88,-296.03 774.02,-292.19"/>
</g>
<!-- Node18 -->
<g id="node18" class="node">
<title>Node18</title>
<g id="a_node18"><a xlink:href="_event_handler_8hpp.html" target="_top" xlink:title=" ">
<polygon fill="white" stroke="black" points="615.38,-235.5 615.38,-265.5 724.38,-265.5 724.38,-235.5 615.38,-235.5"/>
<text text-anchor="start" x="623.38" y="-253.5" font-family="Helvetica,sans-Serif" font-size="10.00">include/EventHandler</text>
<text text-anchor="middle" x="669.88" y="-242.5" font-family="Helvetica,sans-Serif" font-size="10.00">/EventHandler.hpp</text>
</a>
</g>
</g>
<!-- Node16&#45;&gt;Node18 -->
<g id="edge21" class="edge">
<title>Node16&#45;&gt;Node18</title>
<path fill="none" stroke="midnightblue" d="M743.3,-297.01C727.99,-287.52 707.83,-275.02 692.5,-265.52"/>
<polygon fill="midnightblue" stroke="midnightblue" points="741.78,-300.18 752.12,-302.48 745.47,-294.23 741.78,-300.18"/>
</g>
<!-- Node18&#45;&gt;Node3 -->
<g id="edge23" class="edge">
<title>Node18&#45;&gt;Node3</title>
<path fill="none" stroke="midnightblue" d="M620.75,-231.96C591.44,-221.48 554.7,-208.37 527.29,-198.58"/>
<polygon fill="midnightblue" stroke="midnightblue" points="619.79,-235.33 630.39,-235.4 622.15,-228.74 619.79,-235.33"/>
</g>
<!-- Node18&#45;&gt;Node7 -->
<g id="edge22" class="edge">
<title>Node18&#45;&gt;Node7</title>
<path fill="none" stroke="midnightblue" d="M694.57,-228.82C728.11,-200.72 786.62,-151.7 810.39,-131.79"/>
<polygon fill="midnightblue" stroke="midnightblue" points="692.03,-226.37 686.61,-235.48 696.53,-231.74 692.03,-226.37"/>
</g>
</g>
</svg>
