<?xml version="1.0" encoding="UTF-8" standalone="no"?>
<!DOCTYPE svg PUBLIC "-//W3C//DTD SVG 1.1//EN"
 "http://www.w3.org/Graphics/SVG/1.1/DTD/svg11.dtd">
<!-- Generated by graphviz version 2.47.0 (20210407.0042)
 -->
<!-- Title: src/graphics/GShape.cpp Pages: 1 -->
<svg width="710pt" height="308pt"
 viewBox="0.00 0.00 709.50 308.00" xmlns="http://www.w3.org/2000/svg" xmlns:xlink="http://www.w3.org/1999/xlink">
<g id="graph0" class="graph" transform="scale(1 1) rotate(0) translate(4 304)">
<title>src/graphics/GShape.cpp</title>
<polygon fill="white" stroke="transparent" points="-4,4 -4,-304 705.5,-304 705.5,4 -4,4"/>
<!-- Node1 -->
<g id="node1" class="node">
<title>Node1</title>
<g id="a_node1"><a xlink:title=" ">
<polygon fill="#bfbfbf" stroke="black" points="120,-280.5 120,-299.5 246,-299.5 246,-280.5 120,-280.5"/>
<text text-anchor="middle" x="183" y="-287.5" font-family="Helvetica,sans-Serif" font-size="10.00">src/graphics/GShape.cpp</text>
</a>
</g>
</g>
<!-- Node2 -->
<g id="node2" class="node">
<title>Node2</title>
<g id="a_node2"><a xlink:title=" ">
<polygon fill="white" stroke="#bfbfbf" points="0,-224.5 0,-243.5 58,-243.5 58,-224.5 0,-224.5"/>
<text text-anchor="middle" x="29" y="-231.5" font-family="Helvetica,sans-Serif" font-size="10.00">exception</text>
</a>
</g>
</g>
<!-- Node1&#45;&gt;Node2 -->
<g id="edge1" class="edge">
<title>Node1&#45;&gt;Node2</title>
<path fill="none" stroke="midnightblue" d="M158.6,-280.44C132.8,-271.4 91.92,-257.06 62.98,-246.92"/>
<polygon fill="midnightblue" stroke="midnightblue" points="63.88,-243.52 53.29,-243.52 61.57,-250.13 63.88,-243.52"/>
</g>
<!-- Node3 -->
<g id="node3" class="node">
<title>Node3</title>
<g id="a_node3"><a xlink:title=" ">
<polygon fill="white" stroke="#bfbfbf" points="76.5,-224.5 76.5,-243.5 145.5,-243.5 145.5,-224.5 76.5,-224.5"/>
<text text-anchor="middle" x="111" y="-231.5" font-family="Helvetica,sans-Serif" font-size="10.00">stb_image.h</text>
</a>
</g>
</g>
<!-- Node1&#45;&gt;Node3 -->
<g id="edge2" class="edge">
<title>Node1&#45;&gt;Node3</title>
<path fill="none" stroke="midnightblue" d="M171.43,-280.32C160.58,-272.18 144.12,-259.84 131.12,-250.09"/>
<polygon fill="midnightblue" stroke="midnightblue" points="132.88,-247.03 122.78,-243.83 128.68,-252.63 132.88,-247.03"/>
</g>
<!-- Node4 -->
<g id="node4" class="node">
<title>Node4</title>
<g id="a_node4"><a xlink:title=" ">
<polygon fill="white" stroke="#bfbfbf" points="164,-224.5 164,-243.5 202,-243.5 202,-224.5 164,-224.5"/>
<text text-anchor="middle" x="183" y="-231.5" font-family="Helvetica,sans-Serif" font-size="10.00">array</text>
</a>
</g>
</g>
<!-- Node1&#45;&gt;Node4 -->
<g id="edge3" class="edge">
<title>Node1&#45;&gt;Node4</title>
<path fill="none" stroke="midnightblue" d="M183,-280.08C183,-273.01 183,-262.86 183,-253.99"/>
<polygon fill="midnightblue" stroke="midnightblue" points="186.5,-253.75 183,-243.75 179.5,-253.75 186.5,-253.75"/>
</g>
<!-- Node5 -->
<g id="node5" class="node">
<title>Node5</title>
<g id="a_node5"><a xlink:title=" ">
<polygon fill="white" stroke="#bfbfbf" points="220.5,-224.5 220.5,-243.5 279.5,-243.5 279.5,-224.5 220.5,-224.5"/>
<text text-anchor="middle" x="250" y="-231.5" font-family="Helvetica,sans-Serif" font-size="10.00">stdexcept</text>
</a>
</g>
</g>
<!-- Node1&#45;&gt;Node5 -->
<g id="edge4" class="edge">
<title>Node1&#45;&gt;Node5</title>
<path fill="none" stroke="midnightblue" d="M193.76,-280.32C203.77,-272.26 218.89,-260.08 230.93,-250.37"/>
<polygon fill="midnightblue" stroke="midnightblue" points="233.45,-252.83 239.04,-243.83 229.06,-247.38 233.45,-252.83"/>
</g>
<!-- Node6 -->
<g id="node6" class="node">
<title>Node6</title>
<g id="a_node6"><a xlink:href="_g_shape_8hpp.html" target="_top" xlink:title=" ">
<polygon fill="white" stroke="black" points="298,-224.5 298,-243.5 408,-243.5 408,-224.5 298,-224.5"/>
<text text-anchor="middle" x="353" y="-231.5" font-family="Helvetica,sans-Serif" font-size="10.00">graphics/GShape.hpp</text>
</a>
</g>
</g>
<!-- Node1&#45;&gt;Node6 -->
<g id="edge5" class="edge">
<title>Node1&#45;&gt;Node6</title>
<path fill="none" stroke="midnightblue" d="M209.94,-280.44C238.66,-271.32 284.33,-256.81 316.32,-246.65"/>
<polygon fill="midnightblue" stroke="midnightblue" points="317.72,-249.88 326.19,-243.52 315.6,-243.21 317.72,-249.88"/>
</g>
<!-- Node7 -->
<g id="node7" class="node">
<title>Node7</title>
<g id="a_node7"><a xlink:href="_window_8hpp.html" target="_top" xlink:title=" ">
<polygon fill="white" stroke="black" points="358.5,-168.5 358.5,-187.5 467.5,-187.5 467.5,-168.5 358.5,-168.5"/>
<text text-anchor="middle" x="413" y="-175.5" font-family="Helvetica,sans-Serif" font-size="10.00">graphics/Window.hpp</text>
</a>
</g>
</g>
<!-- Node6&#45;&gt;Node7 -->
<g id="edge6" class="edge">
<title>Node6&#45;&gt;Node7</title>
<path fill="none" stroke="midnightblue" d="M362.64,-224.32C371.51,-216.34 384.87,-204.31 395.61,-194.65"/>
<polygon fill="midnightblue" stroke="midnightblue" points="398.09,-197.13 403.18,-187.83 393.41,-191.92 398.09,-197.13"/>
</g>
<!-- Node12 -->
<g id="node12" class="node">
<title>Node12</title>
<g id="a_node12"><a xlink:href="_shader_8hpp.html" target="_top" xlink:title=" ">
<polygon fill="white" stroke="black" points="210.5,-112.5 210.5,-131.5 315.5,-131.5 315.5,-112.5 210.5,-112.5"/>
<text text-anchor="middle" x="263" y="-119.5" font-family="Helvetica,sans-Serif" font-size="10.00">graphics/Shader.hpp</text>
</a>
</g>
</g>
<!-- Node6&#45;&gt;Node12 -->
<g id="edge17" class="edge">
<title>Node6&#45;&gt;Node12</title>
<path fill="none" stroke="midnightblue" d="M342.09,-224.37C323.82,-206.22 288.72,-163.8 271.86,-139.99"/>
<polygon fill="midnightblue" stroke="midnightblue" points="274.69,-137.92 266.19,-131.59 268.89,-141.84 274.69,-137.92"/>
</g>
<!-- Node14 -->
<g id="node14" class="node">
<title>Node14</title>
<g id="a_node14"><a xlink:href="_transform_8hpp.html" target="_top" xlink:title=" ">
<polygon fill="white" stroke="black" points="582.5,-56.5 582.5,-75.5 701.5,-75.5 701.5,-56.5 582.5,-56.5"/>
<text text-anchor="middle" x="642" y="-63.5" font-family="Helvetica,sans-Serif" font-size="10.00">graphics/Transform.hpp</text>
</a>
</g>
</g>
<!-- Node6&#45;&gt;Node14 -->
<g id="edge18" class="edge">
<title>Node6&#45;&gt;Node14</title>
<path fill="none" stroke="midnightblue" d="M408.13,-231.72C476.25,-226.82 589.65,-207.07 643,-132 652.49,-118.64 650.9,-99.53 647.74,-85.49"/>
<polygon fill="midnightblue" stroke="midnightblue" points="651.03,-84.26 645.05,-75.52 644.27,-86.08 651.03,-84.26"/>
</g>
<!-- Node8 -->
<g id="node8" class="node">
<title>Node8</title>
<g id="a_node8"><a xlink:title=" ">
<polygon fill="white" stroke="#bfbfbf" points="453.5,-112.5 453.5,-131.5 516.5,-131.5 516.5,-112.5 453.5,-112.5"/>
<text text-anchor="middle" x="485" y="-119.5" font-family="Helvetica,sans-Serif" font-size="10.00">glad/glad.h</text>
</a>
</g>
</g>
<!-- Node7&#45;&gt;Node8 -->
<g id="edge7" class="edge">
<title>Node7&#45;&gt;Node8</title>
<path fill="none" stroke="midnightblue" d="M424.57,-168.32C435.42,-160.18 451.88,-147.84 464.88,-138.09"/>
<polygon fill="midnightblue" stroke="midnightblue" points="467.32,-140.63 473.22,-131.83 463.12,-135.03 467.32,-140.63"/>
</g>
<!-- Node9 -->
<g id="node9" class="node">
<title>Node9</title>
<g id="a_node9"><a xlink:title=" ">
<polygon fill="white" stroke="#bfbfbf" points="534.5,-112.5 534.5,-131.5 613.5,-131.5 613.5,-112.5 534.5,-112.5"/>
<text text-anchor="middle" x="574" y="-119.5" font-family="Helvetica,sans-Serif" font-size="10.00">GLFW/glfw3.h</text>
</a>
</g>
</g>
<!-- Node7&#45;&gt;Node9 -->
<g id="edge8" class="edge">
<title>Node7&#45;&gt;Node9</title>
<path fill="none" stroke="midnightblue" d="M438.51,-168.44C465.6,-159.36 508.59,-144.94 538.87,-134.78"/>
<polygon fill="midnightblue" stroke="midnightblue" points="540.24,-138.01 548.61,-131.52 538.01,-131.38 540.24,-138.01"/>
</g>
<!-- Node10 -->
<g id="node10" class="node">
<title>Node10</title>
<g id="a_node10"><a xlink:title=" ">
<polygon fill="white" stroke="#bfbfbf" points="333.5,-112.5 333.5,-131.5 372.5,-131.5 372.5,-112.5 333.5,-112.5"/>
<text text-anchor="middle" x="353" y="-119.5" font-family="Helvetica,sans-Serif" font-size="10.00">utility</text>
</a>
</g>
</g>
<!-- Node7&#45;&gt;Node10 -->
<g id="edge9" class="edge">
<title>Node7&#45;&gt;Node10</title>
<path fill="none" stroke="midnightblue" d="M403.36,-168.32C394.49,-160.34 381.13,-148.31 370.39,-138.65"/>
<polygon fill="midnightblue" stroke="midnightblue" points="372.59,-135.92 362.82,-131.83 367.91,-141.13 372.59,-135.92"/>
</g>
<!-- Node11 -->
<g id="node11" class="node">
<title>Node11</title>
<g id="a_node11"><a xlink:title=" ">
<polygon fill="white" stroke="#bfbfbf" points="391,-112.5 391,-131.5 435,-131.5 435,-112.5 391,-112.5"/>
<text text-anchor="middle" x="413" y="-119.5" font-family="Helvetica,sans-Serif" font-size="10.00">vector</text>
</a>
</g>
</g>
<!-- Node7&#45;&gt;Node11 -->
<g id="edge10" class="edge">
<title>Node7&#45;&gt;Node11</title>
<path fill="none" stroke="midnightblue" d="M413,-168.08C413,-161.01 413,-150.86 413,-141.99"/>
<polygon fill="midnightblue" stroke="midnightblue" points="416.5,-141.75 413,-131.75 409.5,-141.75 416.5,-141.75"/>
</g>
<!-- Node7&#45;&gt;Node12 -->
<g id="edge11" class="edge">
<title>Node7&#45;&gt;Node12</title>
<path fill="none" stroke="midnightblue" d="M389.23,-168.44C364.11,-159.4 324.29,-145.06 296.1,-134.92"/>
<polygon fill="midnightblue" stroke="midnightblue" points="297.25,-131.61 286.66,-131.52 294.88,-138.2 297.25,-131.61"/>
</g>
<!-- Node7&#45;&gt;Node14 -->
<g id="edge16" class="edge">
<title>Node7&#45;&gt;Node14</title>
<path fill="none" stroke="midnightblue" d="M467.7,-171.63C522.17,-165.2 600.81,-152.62 623,-132 635.64,-120.25 640.03,-100.61 641.48,-85.99"/>
<polygon fill="midnightblue" stroke="midnightblue" points="645,-85.78 642.11,-75.58 638.01,-85.35 645,-85.78"/>
</g>
<!-- Node12&#45;&gt;Node6 -->
<g id="edge13" class="edge">
<title>Node12&#45;&gt;Node6</title>
<path fill="none" stroke="midnightblue" d="M273.86,-131.59C292.12,-149.71 327.22,-192.12 344.1,-215.96"/>
<polygon fill="midnightblue" stroke="midnightblue" points="341.28,-218.04 349.78,-224.37 347.09,-214.12 341.28,-218.04"/>
</g>
<!-- Node13 -->
<g id="node13" class="node">
<title>Node13</title>
<g id="a_node13"><a xlink:title=" ">
<polygon fill="white" stroke="#bfbfbf" points="242.5,-56.5 242.5,-75.5 283.5,-75.5 283.5,-56.5 242.5,-56.5"/>
<text text-anchor="middle" x="263" y="-63.5" font-family="Helvetica,sans-Serif" font-size="10.00">string</text>
</a>
</g>
</g>
<!-- Node12&#45;&gt;Node13 -->
<g id="edge12" class="edge">
<title>Node12&#45;&gt;Node13</title>
<path fill="none" stroke="midnightblue" d="M263,-112.08C263,-105.01 263,-94.86 263,-85.99"/>
<polygon fill="midnightblue" stroke="midnightblue" points="266.5,-85.75 263,-75.75 259.5,-85.75 266.5,-85.75"/>
</g>
<!-- Node12&#45;&gt;Node14 -->
<g id="edge14" class="edge">
<title>Node12&#45;&gt;Node14</title>
<path fill="none" stroke="midnightblue" d="M315.57,-113.22C318.42,-112.81 321.25,-112.4 324,-112 409.51,-99.64 508.02,-85.76 572.46,-76.72"/>
<polygon fill="midnightblue" stroke="midnightblue" points="573.08,-80.17 582.5,-75.31 572.11,-73.24 573.08,-80.17"/>
</g>
<!-- Node15 -->
<g id="node15" class="node">
<title>Node15</title>
<g id="a_node15"><a xlink:title=" ">
<polygon fill="white" stroke="#bfbfbf" points="590,-0.5 590,-19.5 694,-19.5 694,-0.5 590,-0.5"/>
<text text-anchor="middle" x="642" y="-7.5" font-family="Helvetica,sans-Serif" font-size="10.00">glm/gtc/type_ptr.hpp</text>
</a>
</g>
</g>
<!-- Node14&#45;&gt;Node15 -->
<g id="edge15" class="edge">
<title>Node14&#45;&gt;Node15</title>
<path fill="none" stroke="midnightblue" d="M642,-56.08C642,-49.01 642,-38.86 642,-29.99"/>
<polygon fill="midnightblue" stroke="midnightblue" points="645.5,-29.75 642,-19.75 638.5,-29.75 645.5,-29.75"/>
</g>
</g>
</svg>
