<?xml version="1.0" encoding="UTF-8" standalone="no"?>
<!DOCTYPE svg PUBLIC "-//W3C//DTD SVG 1.1//EN"
 "http://www.w3.org/Graphics/SVG/1.1/DTD/svg11.dtd">
<!-- Generated by graphviz version 2.47.0 (20210407.0042)
 -->
<!-- Title: include/graphics/GShape.hpp Pages: 1 -->
<svg width="773pt" height="207pt"
 viewBox="0.00 0.00 773.00 207.00" xmlns="http://www.w3.org/2000/svg" xmlns:xlink="http://www.w3.org/1999/xlink">
<g id="graph0" class="graph" transform="scale(1 1) rotate(0) translate(4 203)">
<title>include/graphics/GShape.hpp</title>
<polygon fill="white" stroke="transparent" points="-4,4 -4,-203 769,-203 769,4 -4,4"/>
<!-- Node1 -->
<g id="node1" class="node">
<title>Node1</title>
<g id="a_node1"><a xlink:title=" ">
<polygon fill="#bfbfbf" stroke="black" points="428,-179.5 428,-198.5 571,-198.5 571,-179.5 428,-179.5"/>
<text text-anchor="middle" x="499.5" y="-186.5" font-family="Helvetica,sans-Serif" font-size="10.00">include/graphics/GShape.hpp</text>
</a>
</g>
</g>
<!-- Node2 -->
<g id="node2" class="node">
<title>Node2</title>
<g id="a_node2"><a xlink:href="_g_shape_8cpp.html" target="_top" xlink:title=" ">
<polygon fill="white" stroke="black" points="247.5,-123.5 247.5,-142.5 373.5,-142.5 373.5,-123.5 247.5,-123.5"/>
<text text-anchor="middle" x="310.5" y="-130.5" font-family="Helvetica,sans-Serif" font-size="10.00">src/graphics/GShape.cpp</text>
</a>
</g>
</g>
<!-- Node1&#45;&gt;Node2 -->
<g id="edge1" class="edge">
<title>Node1&#45;&gt;Node2</title>
<path fill="none" stroke="midnightblue" d="M459.49,-176.57C423.83,-166.38 372.46,-151.7 340.31,-142.52"/>
<polygon fill="midnightblue" stroke="midnightblue" points="458.98,-180.06 469.55,-179.44 460.9,-173.33 458.98,-180.06"/>
</g>
<!-- Node3 -->
<g id="node3" class="node">
<title>Node3</title>
<g id="a_node3"><a xlink:href="_resource_manager_8hpp.html" target="_top" xlink:title=" ">
<polygon fill="white" stroke="black" points="289,-56.5 289,-86.5 420,-86.5 420,-56.5 289,-56.5"/>
<text text-anchor="start" x="297" y="-74.5" font-family="Helvetica,sans-Serif" font-size="10.00">include/graphics/Resource</text>
<text text-anchor="middle" x="354.5" y="-63.5" font-family="Helvetica,sans-Serif" font-size="10.00">Manager.hpp</text>
</a>
</g>
</g>
<!-- Node1&#45;&gt;Node3 -->
<g id="edge2" class="edge">
<title>Node1&#45;&gt;Node3</title>
<path fill="none" stroke="midnightblue" d="M471.72,-174.8C455.97,-166.68 436.3,-155.47 420.5,-143 398.91,-125.97 377.9,-101.82 365.58,-86.67"/>
<polygon fill="midnightblue" stroke="midnightblue" points="470.45,-178.08 480.96,-179.43 473.59,-171.82 470.45,-178.08"/>
</g>
<!-- Node9 -->
<g id="node9" class="node">
<title>Node9</title>
<g id="a_node9"><a xlink:href="_shader_8hpp.html" target="_top" xlink:title=" ">
<polygon fill="white" stroke="black" points="430,-123.5 430,-142.5 569,-142.5 569,-123.5 430,-123.5"/>
<text text-anchor="middle" x="499.5" y="-130.5" font-family="Helvetica,sans-Serif" font-size="10.00">include/graphics/Shader.hpp</text>
</a>
</g>
</g>
<!-- Node1&#45;&gt;Node9 -->
<g id="edge8" class="edge">
<title>Node1&#45;&gt;Node9</title>
<path fill="none" stroke="midnightblue" d="M493.03,-169.1C492.4,-160.14 492.84,-149.86 494.37,-142.75"/>
<polygon fill="midnightblue" stroke="midnightblue" points="489.57,-169.62 494.33,-179.08 496.51,-168.71 489.57,-169.62"/>
</g>
<!-- Node4 -->
<g id="node4" class="node">
<title>Node4</title>
<g id="a_node4"><a xlink:href="_drawable_8cpp.html" target="_top" xlink:title=" ">
<polygon fill="white" stroke="black" points="0,-0.5 0,-19.5 123,-19.5 123,-0.5 0,-0.5"/>
<text text-anchor="middle" x="61.5" y="-7.5" font-family="Helvetica,sans-Serif" font-size="10.00">src/engine/Drawable.cpp</text>
</a>
</g>
</g>
<!-- Node3&#45;&gt;Node4 -->
<g id="edge3" class="edge">
<title>Node3&#45;&gt;Node4</title>
<path fill="none" stroke="midnightblue" d="M278.9,-55.15C223.08,-43.81 149.16,-28.8 103.5,-19.53"/>
<polygon fill="midnightblue" stroke="midnightblue" points="278.25,-58.59 288.75,-57.15 279.64,-51.73 278.25,-58.59"/>
</g>
<!-- Node5 -->
<g id="node5" class="node">
<title>Node5</title>
<g id="a_node5"><a xlink:href="_field_8cpp.html" target="_top" xlink:title=" ">
<polygon fill="white" stroke="black" points="141.5,-0.5 141.5,-19.5 245.5,-19.5 245.5,-0.5 141.5,-0.5"/>
<text text-anchor="middle" x="193.5" y="-7.5" font-family="Helvetica,sans-Serif" font-size="10.00">src/engine/Field.cpp</text>
</a>
</g>
</g>
<!-- Node3&#45;&gt;Node5 -->
<g id="edge4" class="edge">
<title>Node3&#45;&gt;Node5</title>
<path fill="none" stroke="midnightblue" d="M306.61,-52.8C277.01,-41.86 240.34,-28.31 216.93,-19.66"/>
<polygon fill="midnightblue" stroke="midnightblue" points="305.75,-56.22 316.35,-56.4 308.18,-49.65 305.75,-56.22"/>
</g>
<!-- Node6 -->
<g id="node6" class="node">
<title>Node6</title>
<g id="a_node6"><a xlink:href="_engine_8cpp.html" target="_top" xlink:title=" ">
<polygon fill="white" stroke="black" points="263.5,-0.5 263.5,-19.5 343.5,-19.5 343.5,-0.5 263.5,-0.5"/>
<text text-anchor="middle" x="303.5" y="-7.5" font-family="Helvetica,sans-Serif" font-size="10.00">src/Engine.cpp</text>
</a>
</g>
</g>
<!-- Node3&#45;&gt;Node6 -->
<g id="edge5" class="edge">
<title>Node3&#45;&gt;Node6</title>
<path fill="none" stroke="midnightblue" d="M335.82,-48.7C327.19,-38.64 317.43,-27.26 310.92,-19.66"/>
<polygon fill="midnightblue" stroke="midnightblue" points="333.25,-51.08 342.41,-56.4 338.56,-46.53 333.25,-51.08"/>
</g>
<!-- Node7 -->
<g id="node7" class="node">
<title>Node7</title>
<g id="a_node7"><a xlink:href="_resource_manager_8cpp.html" target="_top" xlink:title=" ">
<polygon fill="white" stroke="black" points="361.5,-0.5 361.5,-19.5 531.5,-19.5 531.5,-0.5 361.5,-0.5"/>
<text text-anchor="middle" x="446.5" y="-7.5" font-family="Helvetica,sans-Serif" font-size="10.00">src/graphics/ResourceManager.cpp</text>
</a>
</g>
</g>
<!-- Node3&#45;&gt;Node7 -->
<g id="edge6" class="edge">
<title>Node3&#45;&gt;Node7</title>
<path fill="none" stroke="midnightblue" d="M385,-50.78C401.3,-40.23 420.55,-27.78 433.11,-19.66"/>
<polygon fill="midnightblue" stroke="midnightblue" points="382.8,-48.03 376.3,-56.4 386.6,-53.91 382.8,-48.03"/>
</g>
<!-- Node8 -->
<g id="node8" class="node">
<title>Node8</title>
<g id="a_node8"><a xlink:href="main_8cpp.html" target="_top" xlink:title=" ">
<polygon fill="white" stroke="black" points="549.5,-0.5 549.5,-19.5 621.5,-19.5 621.5,-0.5 549.5,-0.5"/>
<text text-anchor="middle" x="585.5" y="-7.5" font-family="Helvetica,sans-Serif" font-size="10.00">src/main.cpp</text>
</a>
</g>
</g>
<!-- Node3&#45;&gt;Node8 -->
<g id="edge7" class="edge">
<title>Node3&#45;&gt;Node8</title>
<path fill="none" stroke="midnightblue" d="M418.86,-53.92C462.27,-42.74 517.76,-28.45 552.48,-19.51"/>
<polygon fill="midnightblue" stroke="midnightblue" points="417.76,-50.59 408.95,-56.47 419.51,-57.37 417.76,-50.59"/>
</g>
<!-- Node9&#45;&gt;Node1 -->
<g id="edge10" class="edge">
<title>Node9&#45;&gt;Node1</title>
<path fill="none" stroke="midnightblue" d="M505.96,-152.69C506.61,-161.64 506.18,-171.93 504.67,-179.08"/>
<polygon fill="midnightblue" stroke="midnightblue" points="509.42,-152.2 504.63,-142.75 502.48,-153.13 509.42,-152.2"/>
</g>
<!-- Node9&#45;&gt;Node3 -->
<g id="edge11" class="edge">
<title>Node9&#45;&gt;Node3</title>
<path fill="none" stroke="midnightblue" d="M469.26,-119.59C445.75,-109.94 413.13,-96.56 388.67,-86.52"/>
<polygon fill="midnightblue" stroke="midnightblue" points="468.14,-122.92 478.73,-123.48 470.8,-116.44 468.14,-122.92"/>
</g>
<!-- Node10 -->
<g id="node10" class="node">
<title>Node10</title>
<g id="a_node10"><a xlink:href="_shader_8cpp.html" target="_top" xlink:title=" ">
<polygon fill="white" stroke="black" points="438.5,-62 438.5,-81 560.5,-81 560.5,-62 438.5,-62"/>
<text text-anchor="middle" x="499.5" y="-69" font-family="Helvetica,sans-Serif" font-size="10.00">src/graphics/Shader.cpp</text>
</a>
</g>
</g>
<!-- Node9&#45;&gt;Node10 -->
<g id="edge9" class="edge">
<title>Node9&#45;&gt;Node10</title>
<path fill="none" stroke="midnightblue" d="M499.5,-113.32C499.5,-102.5 499.5,-89.4 499.5,-81.01"/>
<polygon fill="midnightblue" stroke="midnightblue" points="496,-113.48 499.5,-123.48 503,-113.48 496,-113.48"/>
</g>
<!-- Node11 -->
<g id="node11" class="node">
<title>Node11</title>
<g id="a_node11"><a xlink:href="_window_8hpp.html" target="_top" xlink:title=" ">
<polygon fill="white" stroke="black" points="579,-62 579,-81 722,-81 722,-62 579,-62"/>
<text text-anchor="middle" x="650.5" y="-69" font-family="Helvetica,sans-Serif" font-size="10.00">include/graphics/Window.hpp</text>
</a>
</g>
</g>
<!-- Node9&#45;&gt;Node11 -->
<g id="edge12" class="edge">
<title>Node9&#45;&gt;Node11</title>
<path fill="none" stroke="midnightblue" d="M530.51,-119.78C559.85,-108.22 603.13,-91.16 628.91,-81.01"/>
<polygon fill="midnightblue" stroke="midnightblue" points="529.16,-116.55 521.13,-123.48 531.72,-123.07 529.16,-116.55"/>
</g>
<!-- Node11&#45;&gt;Node1 -->
<g id="edge14" class="edge">
<title>Node11&#45;&gt;Node1</title>
<path fill="none" stroke="midnightblue" d="M636.09,-88.53C622.03,-103.63 599.59,-126.36 577.5,-143 558.02,-157.67 533.32,-171.17 516.99,-179.48"/>
<polygon fill="midnightblue" stroke="midnightblue" points="638.8,-90.74 642.98,-81.01 633.64,-86.01 638.8,-90.74"/>
</g>
<!-- Node12 -->
<g id="node12" class="node">
<title>Node12</title>
<g id="a_node12"><a xlink:href="_window_8cpp.html" target="_top" xlink:title=" ">
<polygon fill="white" stroke="black" points="640,-0.5 640,-19.5 765,-19.5 765,-0.5 640,-0.5"/>
<text text-anchor="middle" x="702.5" y="-7.5" font-family="Helvetica,sans-Serif" font-size="10.00">src/graphics/Window.cpp</text>
</a>
</g>
</g>
<!-- Node11&#45;&gt;Node12 -->
<g id="edge13" class="edge">
<title>Node11&#45;&gt;Node12</title>
<path fill="none" stroke="midnightblue" d="M664.77,-54.17C674.58,-42.95 687.19,-28.52 695.06,-19.51"/>
<polygon fill="midnightblue" stroke="midnightblue" points="661.9,-52.14 657.95,-61.98 667.17,-56.75 661.9,-52.14"/>
</g>
</g>
</svg>
