<?xml version="1.0" encoding="UTF-8" standalone="no"?>
<!DOCTYPE svg PUBLIC "-//W3C//DTD SVG 1.1//EN"
 "http://www.w3.org/Graphics/SVG/1.1/DTD/svg11.dtd">
<!-- Generated by graphviz version 2.47.1 (20210421.1823)
 -->
<!-- Title: include/GUI/GUIWindow.hpp Pages: 1 -->
<svg width="564pt" height="196pt"
 viewBox="0.00 0.00 563.50 196.00" xmlns="http://www.w3.org/2000/svg" xmlns:xlink="http://www.w3.org/1999/xlink">
<g id="graph0" class="graph" transform="scale(1 1) rotate(0) translate(4 192)">
<title>include/GUI/GUIWindow.hpp</title>
<polygon fill="white" stroke="transparent" points="-4,4 -4,-192 559.5,-192 559.5,4 -4,4"/>
<!-- Node1 -->
<g id="node1" class="node">
<title>Node1</title>
<g id="a_node1"><a xlink:title=" ">
<polygon fill="#bfbfbf" stroke="black" points="194.5,-168.5 194.5,-187.5 336.5,-187.5 336.5,-168.5 194.5,-168.5"/>
<text text-anchor="middle" x="265.5" y="-175.5" font-family="Helvetica,sans-Serif" font-size="10.00">include/GUI/GUIWindow.hpp</text>
</a>
</g>
</g>
<!-- Node2 -->
<g id="node2" class="node">
<title>Node2</title>
<g id="a_node2"><a xlink:href="_g_u_i_window_8cpp.html" target="_top" xlink:title=" ">
<polygon fill="white" stroke="black" points="0,-112.5 0,-131.5 125,-131.5 125,-112.5 0,-112.5"/>
<text text-anchor="middle" x="62.5" y="-119.5" font-family="Helvetica,sans-Serif" font-size="10.00">src/GUI/GUIWindow.cpp</text>
</a>
</g>
</g>
<!-- Node1&#45;&gt;Node2 -->
<g id="edge1" class="edge">
<title>Node1&#45;&gt;Node2</title>
<path fill="none" stroke="midnightblue" d="M223.51,-165.83C185.18,-155.63 129.35,-140.78 94.52,-131.52"/>
<polygon fill="midnightblue" stroke="midnightblue" points="222.77,-169.26 233.33,-168.44 224.57,-162.49 222.77,-169.26"/>
</g>
<!-- Node3 -->
<g id="node3" class="node">
<title>Node3</title>
<g id="a_node3"><a xlink:href="_g_u_i_manager_8hpp.html" target="_top" xlink:title=" ">
<polygon fill="white" stroke="black" points="143,-112.5 143,-131.5 288,-131.5 288,-112.5 143,-112.5"/>
<text text-anchor="middle" x="215.5" y="-119.5" font-family="Helvetica,sans-Serif" font-size="10.00">include/GUI/GUIManager.hpp</text>
</a>
</g>
</g>
<!-- Node1&#45;&gt;Node3 -->
<g id="edge2" class="edge">
<title>Node1&#45;&gt;Node3</title>
<path fill="none" stroke="midnightblue" d="M250.42,-160.72C241.61,-151.2 230.83,-139.56 223.6,-131.75"/>
<polygon fill="midnightblue" stroke="midnightblue" points="247.88,-163.12 257.24,-168.08 253.02,-158.37 247.88,-163.12"/>
</g>
<!-- Node7 -->
<g id="node7" class="node">
<title>Node7</title>
<g id="a_node7"><a xlink:href="_inventory_8hpp.html" target="_top" xlink:title=" ">
<polygon fill="white" stroke="black" points="316,-56.5 316,-75.5 445,-75.5 445,-56.5 316,-56.5"/>
<text text-anchor="middle" x="380.5" y="-63.5" font-family="Helvetica,sans-Serif" font-size="10.00">include/GUI/Inventory.hpp</text>
</a>
</g>
</g>
<!-- Node1&#45;&gt;Node7 -->
<g id="edge6" class="edge">
<title>Node1&#45;&gt;Node7</title>
<path fill="none" stroke="midnightblue" d="M282.01,-161.21C306.66,-137.63 352.24,-94.03 371.52,-75.59"/>
<polygon fill="midnightblue" stroke="midnightblue" points="279.33,-158.93 274.52,-168.37 284.17,-163.99 279.33,-158.93"/>
</g>
<!-- Node9 -->
<g id="node9" class="node">
<title>Node9</title>
<g id="a_node9"><a xlink:href="_item_8hpp.html" target="_top" xlink:title=" ">
<polygon fill="white" stroke="black" points="345,-112.5 345,-131.5 454,-131.5 454,-112.5 345,-112.5"/>
<text text-anchor="middle" x="399.5" y="-119.5" font-family="Helvetica,sans-Serif" font-size="10.00">include/GUI/Item.hpp</text>
</a>
</g>
</g>
<!-- Node1&#45;&gt;Node9 -->
<g id="edge9" class="edge">
<title>Node1&#45;&gt;Node9</title>
<path fill="none" stroke="midnightblue" d="M296.18,-164.64C321.32,-154.5 356.25,-140.43 378.37,-131.52"/>
<polygon fill="midnightblue" stroke="midnightblue" points="294.7,-161.46 286.73,-168.44 297.32,-167.95 294.7,-161.46"/>
</g>
<!-- Node4 -->
<g id="node4" class="node">
<title>Node4</title>
<g id="a_node4"><a xlink:href="_engine_8cpp.html" target="_top" xlink:title=" ">
<polygon fill="white" stroke="black" points="33.5,-56.5 33.5,-75.5 113.5,-75.5 113.5,-56.5 33.5,-56.5"/>
<text text-anchor="middle" x="73.5" y="-63.5" font-family="Helvetica,sans-Serif" font-size="10.00">src/Engine.cpp</text>
</a>
</g>
</g>
<!-- Node3&#45;&gt;Node4 -->
<g id="edge3" class="edge">
<title>Node3&#45;&gt;Node4</title>
<path fill="none" stroke="midnightblue" d="M183.34,-108.77C156.67,-98.63 119.43,-84.47 95.9,-75.52"/>
<polygon fill="midnightblue" stroke="midnightblue" points="182.41,-112.16 193,-112.44 184.9,-105.62 182.41,-112.16"/>
</g>
<!-- Node5 -->
<g id="node5" class="node">
<title>Node5</title>
<g id="a_node5"><a xlink:href="_game_8cpp.html" target="_top" xlink:title=" ">
<polygon fill="white" stroke="black" points="166,-0.5 166,-19.5 243,-19.5 243,-0.5 166,-0.5"/>
<text text-anchor="middle" x="204.5" y="-7.5" font-family="Helvetica,sans-Serif" font-size="10.00">src/Game.cpp</text>
</a>
</g>
</g>
<!-- Node3&#45;&gt;Node5 -->
<g id="edge4" class="edge">
<title>Node3&#45;&gt;Node5</title>
<path fill="none" stroke="midnightblue" d="M189.64,-106.95C178.49,-99.38 166.63,-88.93 160.5,-76 150.17,-54.2 175.16,-31.47 191.56,-19.52"/>
<polygon fill="midnightblue" stroke="midnightblue" points="187.97,-110.03 198.3,-112.39 191.69,-104.1 187.97,-110.03"/>
</g>
<!-- Node6 -->
<g id="node6" class="node">
<title>Node6</title>
<g id="a_node6"><a xlink:href="_g_u_i_manager_8cpp.html" target="_top" xlink:title=" ">
<polygon fill="white" stroke="black" points="169.5,-56.5 169.5,-75.5 297.5,-75.5 297.5,-56.5 169.5,-56.5"/>
<text text-anchor="middle" x="233.5" y="-63.5" font-family="Helvetica,sans-Serif" font-size="10.00">src/GUI/GUIManager.cpp</text>
</a>
</g>
</g>
<!-- Node3&#45;&gt;Node6 -->
<g id="edge5" class="edge">
<title>Node3&#45;&gt;Node6</title>
<path fill="none" stroke="midnightblue" d="M221.7,-102.4C224.71,-93.36 228.19,-82.94 230.58,-75.75"/>
<polygon fill="midnightblue" stroke="midnightblue" points="218.31,-101.49 218.47,-112.08 224.96,-103.7 218.31,-101.49"/>
</g>
<!-- Node7&#45;&gt;Node5 -->
<g id="edge7" class="edge">
<title>Node7&#45;&gt;Node5</title>
<path fill="none" stroke="midnightblue" d="M342.81,-53.44C309.63,-43.26 262.07,-28.66 232.26,-19.52"/>
<polygon fill="midnightblue" stroke="midnightblue" points="342.03,-56.86 352.61,-56.44 344.08,-50.16 342.03,-56.86"/>
</g>
<!-- Node8 -->
<g id="node8" class="node">
<title>Node8</title>
<g id="a_node8"><a xlink:href="_inventory_8cpp.html" target="_top" xlink:title=" ">
<polygon fill="white" stroke="black" points="324.5,-0.5 324.5,-19.5 436.5,-19.5 436.5,-0.5 324.5,-0.5"/>
<text text-anchor="middle" x="380.5" y="-7.5" font-family="Helvetica,sans-Serif" font-size="10.00">src/GUI/Inventory.cpp</text>
</a>
</g>
</g>
<!-- Node7&#45;&gt;Node8 -->
<g id="edge8" class="edge">
<title>Node7&#45;&gt;Node8</title>
<path fill="none" stroke="midnightblue" d="M380.5,-45.8C380.5,-36.91 380.5,-26.78 380.5,-19.75"/>
<polygon fill="midnightblue" stroke="midnightblue" points="377,-46.08 380.5,-56.08 384,-46.08 377,-46.08"/>
</g>
<!-- Node9&#45;&gt;Node7 -->
<g id="edge11" class="edge">
<title>Node9&#45;&gt;Node7</title>
<path fill="none" stroke="midnightblue" d="M392.95,-102.4C389.78,-93.36 386.11,-82.94 383.58,-75.75"/>
<polygon fill="midnightblue" stroke="midnightblue" points="389.74,-103.81 396.36,-112.08 396.35,-101.49 389.74,-103.81"/>
</g>
<!-- Node10 -->
<g id="node10" class="node">
<title>Node10</title>
<g id="a_node10"><a xlink:href="_item_8cpp.html" target="_top" xlink:title=" ">
<polygon fill="white" stroke="black" points="463.5,-56.5 463.5,-75.5 555.5,-75.5 555.5,-56.5 463.5,-56.5"/>
<text text-anchor="middle" x="509.5" y="-63.5" font-family="Helvetica,sans-Serif" font-size="10.00">src/GUI/Item.cpp</text>
</a>
</g>
</g>
<!-- Node9&#45;&gt;Node10 -->
<g id="edge10" class="edge">
<title>Node9&#45;&gt;Node10</title>
<path fill="none" stroke="midnightblue" d="M426.26,-107.86C446.66,-97.85 474.17,-84.35 491.87,-75.65"/>
<polygon fill="midnightblue" stroke="midnightblue" points="424.61,-104.78 417.17,-112.32 427.69,-111.06 424.61,-104.78"/>
</g>
</g>
</svg>
