<?xml version="1.0" encoding="UTF-8" standalone="no"?>
<!DOCTYPE svg PUBLIC "-//W3C//DTD SVG 1.1//EN"
 "http://www.w3.org/Graphics/SVG/1.1/DTD/svg11.dtd">
<!-- Generated by graphviz version 2.47.0 (20210407.0042)
 -->
<!-- Title: include/GUI/GUIWindow.hpp Pages: 1 -->
<svg width="541pt" height="196pt"
 viewBox="0.00 0.00 540.50 196.00" xmlns="http://www.w3.org/2000/svg" xmlns:xlink="http://www.w3.org/1999/xlink">
<g id="graph0" class="graph" transform="scale(1 1) rotate(0) translate(4 192)">
<title>include/GUI/GUIWindow.hpp</title>
<polygon fill="white" stroke="transparent" points="-4,4 -4,-192 536.5,-192 536.5,4 -4,4"/>
<!-- Node1 -->
<g id="node1" class="node">
<title>Node1</title>
<g id="a_node1"><a xlink:title=" ">
<polygon fill="#bfbfbf" stroke="black" points="194.5,-168.5 194.5,-187.5 336.5,-187.5 336.5,-168.5 194.5,-168.5"/>
<text text-anchor="middle" x="265.5" y="-175.5" font-family="Helvetica,sans-Serif" font-size="10.00">include/GUI/GUIWindow.hpp</text>
</a>
</g>
</g>
<!-- Node2 -->
<g id="node2" class="node">
<title>Node2</title>
<g id="a_node2"><a xlink:href="_g_u_i_window_8cpp.html" target="_top" xlink:title=" ">
<polygon fill="white" stroke="black" points="0,-112.5 0,-131.5 125,-131.5 125,-112.5 0,-112.5"/>
<text text-anchor="middle" x="62.5" y="-119.5" font-family="Helvetica,sans-Serif" font-size="10.00">src/GUI/GUIWindow.cpp</text>
</a>
</g>
</g>
<!-- Node1&#45;&gt;Node2 -->
<g id="edge1" class="edge">
<title>Node1&#45;&gt;Node2</title>
<path fill="none" stroke="midnightblue" d="M223.51,-165.83C185.18,-155.63 129.35,-140.78 94.52,-131.52"/>
<polygon fill="midnightblue" stroke="midnightblue" points="222.77,-169.26 233.33,-168.44 224.57,-162.49 222.77,-169.26"/>
</g>
<!-- Node3 -->
<g id="node3" class="node">
<title>Node3</title>
<g id="a_node3"><a xlink:href="_g_u_i_manager_8hpp.html" target="_top" xlink:title=" ">
<polygon fill="white" stroke="black" points="143,-112.5 143,-131.5 288,-131.5 288,-112.5 143,-112.5"/>
<text text-anchor="middle" x="215.5" y="-119.5" font-family="Helvetica,sans-Serif" font-size="10.00">include/GUI/GUIManager.hpp</text>
</a>
</g>
</g>
<!-- Node1&#45;&gt;Node3 -->
<g id="edge2" class="edge">
<title>Node1&#45;&gt;Node3</title>
<path fill="none" stroke="midnightblue" d="M250.42,-160.72C241.61,-151.2 230.83,-139.56 223.6,-131.75"/>
<polygon fill="midnightblue" stroke="midnightblue" points="247.88,-163.12 257.24,-168.08 253.02,-158.37 247.88,-163.12"/>
</g>
<!-- Node7 -->
<g id="node7" class="node">
<title>Node7</title>
<g id="a_node7"><a xlink:href="_inventory_8hpp.html" target="_top" xlink:title=" ">
<polygon fill="white" stroke="black" points="293,-56.5 293,-75.5 422,-75.5 422,-56.5 293,-56.5"/>
<text text-anchor="middle" x="357.5" y="-63.5" font-family="Helvetica,sans-Serif" font-size="10.00">include/GUI/Inventory.hpp</text>
</a>
</g>
</g>
<!-- Node1&#45;&gt;Node7 -->
<g id="edge6" class="edge">
<title>Node1&#45;&gt;Node7</title>
<path fill="none" stroke="midnightblue" d="M279.23,-160.59C299.06,-136.87 335.03,-93.87 350.31,-75.59"/>
<polygon fill="midnightblue" stroke="midnightblue" points="276.45,-158.45 272.72,-168.37 281.82,-162.94 276.45,-158.45"/>
</g>
<!-- Node9 -->
<g id="node9" class="node">
<title>Node9</title>
<g id="a_node9"><a xlink:href="_item_8hpp.html" target="_top" xlink:title=" ">
<polygon fill="white" stroke="black" points="345,-112.5 345,-131.5 454,-131.5 454,-112.5 345,-112.5"/>
<text text-anchor="middle" x="399.5" y="-119.5" font-family="Helvetica,sans-Serif" font-size="10.00">include/GUI/Item.hpp</text>
</a>
</g>
</g>
<!-- Node1&#45;&gt;Node9 -->
<g id="edge9" class="edge">
<title>Node1&#45;&gt;Node9</title>
<path fill="none" stroke="midnightblue" d="M296.18,-164.64C321.32,-154.5 356.25,-140.43 378.37,-131.52"/>
<polygon fill="midnightblue" stroke="midnightblue" points="294.7,-161.46 286.73,-168.44 297.32,-167.95 294.7,-161.46"/>
</g>
<!-- Node4 -->
<g id="node4" class="node">
<title>Node4</title>
<g id="a_node4"><a xlink:href="_engine_8cpp.html" target="_top" xlink:title=" ">
<polygon fill="white" stroke="black" points="10.5,-56.5 10.5,-75.5 90.5,-75.5 90.5,-56.5 10.5,-56.5"/>
<text text-anchor="middle" x="50.5" y="-63.5" font-family="Helvetica,sans-Serif" font-size="10.00">src/Engine.cpp</text>
</a>
</g>
</g>
<!-- Node3&#45;&gt;Node4 -->
<g id="edge3" class="edge">
<title>Node3&#45;&gt;Node4</title>
<path fill="none" stroke="midnightblue" d="M179.76,-109.3C148.67,-99.13 104.35,-84.62 76.52,-75.52"/>
<polygon fill="midnightblue" stroke="midnightblue" points="178.76,-112.66 189.36,-112.44 180.94,-106.01 178.76,-112.66"/>
</g>
<!-- Node5 -->
<g id="node5" class="node">
<title>Node5</title>
<g id="a_node5"><a xlink:href="_g_u_i_manager_8cpp.html" target="_top" xlink:title=" ">
<polygon fill="white" stroke="black" points="108.5,-56.5 108.5,-75.5 236.5,-75.5 236.5,-56.5 108.5,-56.5"/>
<text text-anchor="middle" x="172.5" y="-63.5" font-family="Helvetica,sans-Serif" font-size="10.00">src/GUI/GUIManager.cpp</text>
</a>
</g>
</g>
<!-- Node3&#45;&gt;Node5 -->
<g id="edge4" class="edge">
<title>Node3&#45;&gt;Node5</title>
<path fill="none" stroke="midnightblue" d="M202.08,-104.14C194.59,-94.74 185.56,-83.4 179.47,-75.75"/>
<polygon fill="midnightblue" stroke="midnightblue" points="199.43,-106.44 208.4,-112.08 204.91,-102.08 199.43,-106.44"/>
</g>
<!-- Node6 -->
<g id="node6" class="node">
<title>Node6</title>
<g id="a_node6"><a xlink:href="main_8cpp.html" target="_top" xlink:title=" ">
<polygon fill="white" stroke="black" points="228.5,-0.5 228.5,-19.5 300.5,-19.5 300.5,-0.5 228.5,-0.5"/>
<text text-anchor="middle" x="264.5" y="-7.5" font-family="Helvetica,sans-Serif" font-size="10.00">src/main.cpp</text>
</a>
</g>
</g>
<!-- Node3&#45;&gt;Node6 -->
<g id="edge5" class="edge">
<title>Node3&#45;&gt;Node6</title>
<path fill="none" stroke="midnightblue" d="M228.66,-103.95C234.44,-95.83 240.95,-85.77 245.5,-76 254.44,-56.82 260.2,-32.48 262.83,-19.71"/>
<polygon fill="midnightblue" stroke="midnightblue" points="225.7,-102.06 222.57,-112.18 231.33,-106.22 225.7,-102.06"/>
</g>
<!-- Node7&#45;&gt;Node6 -->
<g id="edge8" class="edge">
<title>Node7&#45;&gt;Node6</title>
<path fill="none" stroke="midnightblue" d="M333.69,-51.18C316.58,-41.24 294.03,-28.15 279.4,-19.65"/>
<polygon fill="midnightblue" stroke="midnightblue" points="332.15,-54.33 342.56,-56.32 335.67,-48.28 332.15,-54.33"/>
</g>
<!-- Node8 -->
<g id="node8" class="node">
<title>Node8</title>
<g id="a_node8"><a xlink:href="_inventory_8cpp.html" target="_top" xlink:title=" ">
<polygon fill="white" stroke="black" points="318.5,-0.5 318.5,-19.5 430.5,-19.5 430.5,-0.5 318.5,-0.5"/>
<text text-anchor="middle" x="374.5" y="-7.5" font-family="Helvetica,sans-Serif" font-size="10.00">src/GUI/Inventory.cpp</text>
</a>
</g>
</g>
<!-- Node7&#45;&gt;Node8 -->
<g id="edge7" class="edge">
<title>Node7&#45;&gt;Node8</title>
<path fill="none" stroke="midnightblue" d="M363.36,-46.4C366.2,-37.36 369.48,-26.94 371.75,-19.75"/>
<polygon fill="midnightblue" stroke="midnightblue" points="359.97,-45.49 360.31,-56.08 366.65,-47.6 359.97,-45.49"/>
</g>
<!-- Node9&#45;&gt;Node7 -->
<g id="edge11" class="edge">
<title>Node9&#45;&gt;Node7</title>
<path fill="none" stroke="midnightblue" d="M386.39,-104.14C379.07,-94.74 370.26,-83.4 364.31,-75.75"/>
<polygon fill="midnightblue" stroke="midnightblue" points="383.66,-106.34 392.56,-112.08 389.19,-102.04 383.66,-106.34"/>
</g>
<!-- Node10 -->
<g id="node10" class="node">
<title>Node10</title>
<g id="a_node10"><a xlink:href="_item_8cpp.html" target="_top" xlink:title=" ">
<polygon fill="white" stroke="black" points="440.5,-56.5 440.5,-75.5 532.5,-75.5 532.5,-56.5 440.5,-56.5"/>
<text text-anchor="middle" x="486.5" y="-63.5" font-family="Helvetica,sans-Serif" font-size="10.00">src/GUI/Item.cpp</text>
</a>
</g>
</g>
<!-- Node9&#45;&gt;Node10 -->
<g id="edge10" class="edge">
<title>Node9&#45;&gt;Node10</title>
<path fill="none" stroke="midnightblue" d="M422.22,-106.9C438.17,-97 459,-84.07 472.56,-75.65"/>
<polygon fill="midnightblue" stroke="midnightblue" points="420.13,-104.08 413.48,-112.32 423.82,-110.02 420.13,-104.08"/>
</g>
</g>
</svg>
