<?xml version="1.0" encoding="UTF-8" standalone="no"?>
<!DOCTYPE svg PUBLIC "-//W3C//DTD SVG 1.1//EN"
 "http://www.w3.org/Graphics/SVG/1.1/DTD/svg11.dtd">
<!-- Generated by graphviz version 2.47.1 (20210421.1823)
 -->
<!-- Title: src/GUI/GUIManager.cpp Pages: 1 -->
<svg width="411pt" height="252pt"
 viewBox="0.00 0.00 411.00 252.00" xmlns="http://www.w3.org/2000/svg" xmlns:xlink="http://www.w3.org/1999/xlink">
<g id="graph0" class="graph" transform="scale(1 1) rotate(0) translate(4 248)">
<title>src/GUI/GUIManager.cpp</title>
<polygon fill="white" stroke="transparent" points="-4,4 -4,-248 407,-248 407,4 -4,4"/>
<!-- Node1 -->
<g id="node1" class="node">
<title>Node1</title>
<g id="a_node1"><a xlink:title=" ">
<polygon fill="#bfbfbf" stroke="black" points="121.5,-224.5 121.5,-243.5 249.5,-243.5 249.5,-224.5 121.5,-224.5"/>
<text text-anchor="middle" x="185.5" y="-231.5" font-family="Helvetica,sans-Serif" font-size="10.00">src/GUI/GUIManager.cpp</text>
</a>
</g>
</g>
<!-- Node2 -->
<g id="node2" class="node">
<title>Node2</title>
<g id="a_node2"><a xlink:href="_g_u_i_manager_8hpp.html" target="_top" xlink:title=" ">
<polygon fill="white" stroke="black" points="130,-168.5 130,-187.5 241,-187.5 241,-168.5 130,-168.5"/>
<text text-anchor="middle" x="185.5" y="-175.5" font-family="Helvetica,sans-Serif" font-size="10.00">GUI/GUIManager.hpp</text>
</a>
</g>
</g>
<!-- Node1&#45;&gt;Node2 -->
<g id="edge1" class="edge">
<title>Node1&#45;&gt;Node2</title>
<path fill="none" stroke="midnightblue" d="M185.5,-224.08C185.5,-217.01 185.5,-206.86 185.5,-197.99"/>
<polygon fill="midnightblue" stroke="midnightblue" points="189,-197.75 185.5,-187.75 182,-197.75 189,-197.75"/>
</g>
<!-- Node3 -->
<g id="node3" class="node">
<title>Node3</title>
<g id="a_node3"><a xlink:title=" ">
<polygon fill="white" stroke="#bfbfbf" points="0,-112.5 0,-131.5 51,-131.5 51,-112.5 0,-112.5"/>
<text text-anchor="middle" x="25.5" y="-119.5" font-family="Helvetica,sans-Serif" font-size="10.00">memory</text>
</a>
</g>
</g>
<!-- Node2&#45;&gt;Node3 -->
<g id="edge2" class="edge">
<title>Node2&#45;&gt;Node3</title>
<path fill="none" stroke="midnightblue" d="M160.15,-168.44C133.23,-159.36 90.5,-144.94 60.41,-134.78"/>
<polygon fill="midnightblue" stroke="midnightblue" points="61.33,-131.4 50.73,-131.52 59.09,-138.03 61.33,-131.4"/>
</g>
<!-- Node4 -->
<g id="node4" class="node">
<title>Node4</title>
<g id="a_node4"><a xlink:title=" ">
<polygon fill="white" stroke="#bfbfbf" points="69.5,-112.5 69.5,-131.5 113.5,-131.5 113.5,-112.5 69.5,-112.5"/>
<text text-anchor="middle" x="91.5" y="-119.5" font-family="Helvetica,sans-Serif" font-size="10.00">vector</text>
</a>
</g>
</g>
<!-- Node2&#45;&gt;Node4 -->
<g id="edge3" class="edge">
<title>Node2&#45;&gt;Node4</title>
<path fill="none" stroke="midnightblue" d="M170.4,-168.32C155.6,-159.82 132.81,-146.73 115.52,-136.8"/>
<polygon fill="midnightblue" stroke="midnightblue" points="116.98,-133.6 106.57,-131.65 113.49,-139.67 116.98,-133.6"/>
</g>
<!-- Node5 -->
<g id="node5" class="node">
<title>Node5</title>
<g id="a_node5"><a xlink:href="_g_u_i_window_8hpp.html" target="_top" xlink:title=" ">
<polygon fill="white" stroke="black" points="131.5,-112.5 131.5,-131.5 239.5,-131.5 239.5,-112.5 131.5,-112.5"/>
<text text-anchor="middle" x="185.5" y="-119.5" font-family="Helvetica,sans-Serif" font-size="10.00">GUI/GUIWindow.hpp</text>
</a>
</g>
</g>
<!-- Node2&#45;&gt;Node5 -->
<g id="edge4" class="edge">
<title>Node2&#45;&gt;Node5</title>
<path fill="none" stroke="midnightblue" d="M185.5,-168.08C185.5,-161.01 185.5,-150.86 185.5,-141.99"/>
<polygon fill="midnightblue" stroke="midnightblue" points="189,-141.75 185.5,-131.75 182,-141.75 189,-141.75"/>
</g>
<!-- Node6 -->
<g id="node6" class="node">
<title>Node6</title>
<g id="a_node6"><a xlink:href="_vector2_d_8hpp.html" target="_top" xlink:title=" ">
<polygon fill="white" stroke="black" points="198.5,-56.5 198.5,-75.5 310.5,-75.5 310.5,-56.5 198.5,-56.5"/>
<text text-anchor="middle" x="254.5" y="-63.5" font-family="Helvetica,sans-Serif" font-size="10.00">Helpers/Vector2D.hpp</text>
</a>
</g>
</g>
<!-- Node2&#45;&gt;Node6 -->
<g id="edge8" class="edge">
<title>Node2&#45;&gt;Node6</title>
<path fill="none" stroke="midnightblue" d="M205.29,-168.49C219.87,-161.09 238.79,-148.9 248.5,-132 256.52,-118.03 257.49,-99.52 256.76,-85.83"/>
<polygon fill="midnightblue" stroke="midnightblue" points="260.22,-85.32 255.86,-75.67 253.25,-85.94 260.22,-85.32"/>
</g>
<!-- Node9 -->
<g id="node9" class="node">
<title>Node9</title>
<g id="a_node9"><a xlink:href="_drawable_8hpp.html" target="_top" xlink:title=" ">
<polygon fill="white" stroke="black" points="296,-112.5 296,-131.5 403,-131.5 403,-112.5 296,-112.5"/>
<text text-anchor="middle" x="349.5" y="-119.5" font-family="Helvetica,sans-Serif" font-size="10.00">engine/Drawable.hpp</text>
</a>
</g>
</g>
<!-- Node2&#45;&gt;Node9 -->
<g id="edge9" class="edge">
<title>Node2&#45;&gt;Node9</title>
<path fill="none" stroke="midnightblue" d="M211.49,-168.44C239.2,-159.32 283.25,-144.81 314.12,-134.65"/>
<polygon fill="midnightblue" stroke="midnightblue" points="315.23,-137.97 323.64,-131.52 313.04,-131.32 315.23,-137.97"/>
</g>
<!-- Node5&#45;&gt;Node6 -->
<g id="edge5" class="edge">
<title>Node5&#45;&gt;Node6</title>
<path fill="none" stroke="midnightblue" d="M196.59,-112.32C206.99,-104.18 222.76,-91.84 235.22,-82.09"/>
<polygon fill="midnightblue" stroke="midnightblue" points="237.49,-84.75 243.21,-75.83 233.18,-79.24 237.49,-84.75"/>
</g>
<!-- Node7 -->
<g id="node7" class="node">
<title>Node7</title>
<g id="a_node7"><a xlink:title=" ">
<polygon fill="white" stroke="#bfbfbf" points="205,-0.5 205,-19.5 244,-19.5 244,-0.5 205,-0.5"/>
<text text-anchor="middle" x="224.5" y="-7.5" font-family="Helvetica,sans-Serif" font-size="10.00">utility</text>
</a>
</g>
</g>
<!-- Node6&#45;&gt;Node7 -->
<g id="edge6" class="edge">
<title>Node6&#45;&gt;Node7</title>
<path fill="none" stroke="midnightblue" d="M249.55,-56.08C245.4,-48.61 239.35,-37.72 234.23,-28.52"/>
<polygon fill="midnightblue" stroke="midnightblue" points="237.28,-26.79 229.36,-19.75 231.16,-30.19 237.28,-26.79"/>
</g>
<!-- Node8 -->
<g id="node8" class="node">
<title>Node8</title>
<g id="a_node8"><a xlink:title=" ">
<polygon fill="white" stroke="#bfbfbf" points="262.5,-0.5 262.5,-19.5 306.5,-19.5 306.5,-0.5 262.5,-0.5"/>
<text text-anchor="middle" x="284.5" y="-7.5" font-family="Helvetica,sans-Serif" font-size="10.00">cmath</text>
</a>
</g>
</g>
<!-- Node6&#45;&gt;Node8 -->
<g id="edge7" class="edge">
<title>Node6&#45;&gt;Node8</title>
<path fill="none" stroke="midnightblue" d="M259.45,-56.08C263.6,-48.61 269.65,-37.72 274.77,-28.52"/>
<polygon fill="midnightblue" stroke="midnightblue" points="277.84,-30.19 279.64,-19.75 271.72,-26.79 277.84,-30.19"/>
</g>
<!-- Node9&#45;&gt;Node6 -->
<g id="edge11" class="edge">
<title>Node9&#45;&gt;Node6</title>
<path fill="none" stroke="midnightblue" d="M334.24,-112.32C319.28,-103.82 296.25,-90.73 278.77,-80.8"/>
<polygon fill="midnightblue" stroke="midnightblue" points="280.15,-77.55 269.73,-75.65 276.69,-83.64 280.15,-77.55"/>
</g>
<!-- Node10 -->
<g id="node10" class="node">
<title>Node10</title>
<g id="a_node10"><a xlink:title=" ">
<polygon fill="white" stroke="#bfbfbf" points="328.5,-56.5 328.5,-75.5 394.5,-75.5 394.5,-56.5 328.5,-56.5"/>
<text text-anchor="middle" x="361.5" y="-63.5" font-family="Helvetica,sans-Serif" font-size="10.00">string_view</text>
</a>
</g>
</g>
<!-- Node9&#45;&gt;Node10 -->
<g id="edge10" class="edge">
<title>Node9&#45;&gt;Node10</title>
<path fill="none" stroke="midnightblue" d="M351.48,-112.08C353.07,-104.93 355.36,-94.64 357.35,-85.69"/>
<polygon fill="midnightblue" stroke="midnightblue" points="360.8,-86.27 359.56,-75.75 353.97,-84.75 360.8,-86.27"/>
</g>
</g>
</svg>
