<?xml version="1.0" encoding="UTF-8" standalone="no"?>
<!DOCTYPE svg PUBLIC "-//W3C//DTD SVG 1.1//EN"
 "http://www.w3.org/Graphics/SVG/1.1/DTD/svg11.dtd">
<!-- Generated by graphviz version 2.47.1 (20210421.1823)
 -->
<!-- Title: src/Game.cpp Pages: 1 -->
<svg width="1667pt" height="655pt"
 viewBox="0.00 0.00 1667.00 655.00" xmlns="http://www.w3.org/2000/svg" xmlns:xlink="http://www.w3.org/1999/xlink">
<g id="graph0" class="graph" transform="scale(1 1) rotate(0) translate(4 651)">
<title>src/Game.cpp</title>
<polygon fill="white" stroke="transparent" points="-4,4 -4,-651 1663,-651 1663,4 -4,4"/>
<!-- Node1 -->
<g id="node1" class="node">
<title>Node1</title>
<g id="a_node1"><a xlink:title=" ">
<polygon fill="#bfbfbf" stroke="black" points="724.5,-627.5 724.5,-646.5 801.5,-646.5 801.5,-627.5 724.5,-627.5"/>
<text text-anchor="middle" x="763" y="-634.5" font-family="Helvetica,sans-Serif" font-size="10.00">src/Game.cpp</text>
</a>
</g>
</g>
<!-- Node2 -->
<g id="node2" class="node">
<title>Node2</title>
<g id="a_node2"><a xlink:href="_game_8h.html" target="_top" xlink:title=" ">
<polygon fill="white" stroke="black" points="464,-571.5 464,-590.5 514,-590.5 514,-571.5 464,-571.5"/>
<text text-anchor="middle" x="489" y="-578.5" font-family="Helvetica,sans-Serif" font-size="10.00">Game.h</text>
</a>
</g>
</g>
<!-- Node1&#45;&gt;Node2 -->
<g id="edge1" class="edge">
<title>Node1&#45;&gt;Node2</title>
<path fill="none" stroke="midnightblue" d="M724.16,-629.62C678.51,-621.92 600.26,-608.11 523.97,-591.09"/>
<polygon fill="midnightblue" stroke="midnightblue" points="524.72,-587.67 514.2,-588.89 523.19,-594.5 524.72,-587.67"/>
</g>
<!-- Node3 -->
<g id="node3" class="node">
<title>Node3</title>
<g id="a_node3"><a xlink:title=" ">
<polygon fill="white" stroke="#bfbfbf" points="532,-571.5 532,-590.5 586,-590.5 586,-571.5 532,-571.5"/>
<text text-anchor="middle" x="559" y="-578.5" font-family="Helvetica,sans-Serif" font-size="10.00">iostream</text>
</a>
</g>
</g>
<!-- Node1&#45;&gt;Node3 -->
<g id="edge2" class="edge">
<title>Node1&#45;&gt;Node3</title>
<path fill="none" stroke="midnightblue" d="M730.68,-627.44C694.06,-617.75 634.51,-601.99 596.05,-591.81"/>
<polygon fill="midnightblue" stroke="midnightblue" points="596.84,-588.4 586.28,-589.22 595.05,-595.16 596.84,-588.4"/>
</g>
<!-- Node4 -->
<g id="node4" class="node">
<title>Node4</title>
<g id="a_node4"><a xlink:href="_engine_8hpp.html" target="_top" xlink:title=" ">
<polygon fill="white" stroke="black" points="731,-571.5 731,-590.5 795,-590.5 795,-571.5 731,-571.5"/>
<text text-anchor="middle" x="763" y="-578.5" font-family="Helvetica,sans-Serif" font-size="10.00">Engine.hpp</text>
</a>
</g>
</g>
<!-- Node1&#45;&gt;Node4 -->
<g id="edge3" class="edge">
<title>Node1&#45;&gt;Node4</title>
<path fill="none" stroke="midnightblue" d="M763,-627.08C763,-620.01 763,-609.86 763,-600.99"/>
<polygon fill="midnightblue" stroke="midnightblue" points="766.5,-600.75 763,-590.75 759.5,-600.75 766.5,-600.75"/>
</g>
<!-- Node22 -->
<g id="node22" class="node">
<title>Node22</title>
<g id="a_node22"><a xlink:href="_sprites_manager_8hpp.html" target="_top" xlink:title=" ">
<polygon fill="white" stroke="black" points="329.5,-347.5 329.5,-366.5 432.5,-366.5 432.5,-347.5 329.5,-347.5"/>
<text text-anchor="middle" x="381" y="-354.5" font-family="Helvetica,sans-Serif" font-size="10.00">SpritesManager.hpp</text>
</a>
</g>
</g>
<!-- Node1&#45;&gt;Node22 -->
<g id="edge29" class="edge">
<title>Node1&#45;&gt;Node22</title>
<path fill="none" stroke="midnightblue" d="M729.56,-627.41C685.63,-613.88 614,-583.07 614,-526 614,-526 614,-526 614,-468 614,-392.26 512.09,-368.59 443.06,-361.24"/>
<polygon fill="midnightblue" stroke="midnightblue" points="443,-357.72 432.71,-360.24 442.32,-364.69 443,-357.72"/>
</g>
<!-- Node27 -->
<g id="node27" class="node">
<title>Node27</title>
<g id="a_node27"><a xlink:href="_resource_manager_8hpp.html" target="_top" xlink:title=" ">
<polygon fill="white" stroke="black" points="1291.5,-286 1291.5,-305 1444.5,-305 1444.5,-286 1291.5,-286"/>
<text text-anchor="middle" x="1368" y="-293" font-family="Helvetica,sans-Serif" font-size="10.00">graphics/ResourceManager.hpp</text>
</a>
</g>
</g>
<!-- Node1&#45;&gt;Node27 -->
<g id="edge39" class="edge">
<title>Node1&#45;&gt;Node27</title>
<path fill="none" stroke="midnightblue" d="M801.79,-635.38C973.77,-632.14 1659,-613.72 1659,-526 1659,-526 1659,-526 1659,-412 1659,-362.12 1509.42,-324.39 1424.74,-307.03"/>
<polygon fill="midnightblue" stroke="midnightblue" points="1425.25,-303.56 1414.75,-305.02 1423.86,-310.43 1425.25,-303.56"/>
</g>
<!-- Node39 -->
<g id="node39" class="node">
<title>Node39</title>
<g id="a_node39"><a xlink:href="_g_u_i_manager_8hpp.html" target="_top" xlink:title=" ">
<polygon fill="white" stroke="black" points="871.5,-286 871.5,-305 982.5,-305 982.5,-286 871.5,-286"/>
<text text-anchor="middle" x="927" y="-293" font-family="Helvetica,sans-Serif" font-size="10.00">GUI/GUIManager.hpp</text>
</a>
</g>
</g>
<!-- Node1&#45;&gt;Node39 -->
<g id="edge63" class="edge">
<title>Node1&#45;&gt;Node39</title>
<path fill="none" stroke="midnightblue" d="M801.56,-627.61C849.19,-614.72 924,-585.07 924,-526 924,-526 924,-526 924,-412 924,-377.85 925.33,-338.04 926.22,-315.21"/>
<polygon fill="midnightblue" stroke="midnightblue" points="929.71,-315.32 926.62,-305.19 922.72,-315.04 929.71,-315.32"/>
</g>
<!-- Node41 -->
<g id="node41" class="node">
<title>Node41</title>
<g id="a_node41"><a xlink:href="_inventory_8hpp.html" target="_top" xlink:title=" ">
<polygon fill="white" stroke="black" points="1029.5,-403.5 1029.5,-422.5 1124.5,-422.5 1124.5,-403.5 1029.5,-403.5"/>
<text text-anchor="middle" x="1077" y="-410.5" font-family="Helvetica,sans-Serif" font-size="10.00">GUI/Inventory.hpp</text>
</a>
</g>
</g>
<!-- Node1&#45;&gt;Node41 -->
<g id="edge70" class="edge">
<title>Node1&#45;&gt;Node41</title>
<path fill="none" stroke="midnightblue" d="M801.7,-633.22C839.2,-628.95 896.37,-618.18 938,-591 1002.02,-549.2 1049.38,-467.88 1068.15,-431.89"/>
<polygon fill="midnightblue" stroke="midnightblue" points="1071.44,-433.13 1072.86,-422.63 1065.2,-429.96 1071.44,-433.13"/>
</g>
<!-- Node5 -->
<g id="node5" class="node">
<title>Node5</title>
<g id="a_node5"><a xlink:href="_player_8hpp.html" target="_top" xlink:title=" ">
<polygon fill="white" stroke="black" points="642,-459.5 642,-478.5 770,-478.5 770,-459.5 642,-459.5"/>
<text text-anchor="middle" x="706" y="-466.5" font-family="Helvetica,sans-Serif" font-size="10.00">engine/objects/Player.hpp</text>
</a>
</g>
</g>
<!-- Node4&#45;&gt;Node5 -->
<g id="edge4" class="edge">
<title>Node4&#45;&gt;Node5</title>
<path fill="none" stroke="midnightblue" d="M756.5,-571.35C750.03,-562.52 740.08,-548.25 733,-535 724.82,-519.69 717.4,-501.36 712.42,-488.08"/>
<polygon fill="midnightblue" stroke="midnightblue" points="715.7,-486.85 708.98,-478.66 709.13,-489.25 715.7,-486.85"/>
</g>
<!-- Node19 -->
<g id="node19" class="node">
<title>Node19</title>
<g id="a_node19"><a xlink:href="_unit_group_8hpp.html" target="_top" xlink:title=" ">
<polygon fill="white" stroke="black" points="742.5,-515.5 742.5,-534.5 887.5,-534.5 887.5,-515.5 742.5,-515.5"/>
<text text-anchor="middle" x="815" y="-522.5" font-family="Helvetica,sans-Serif" font-size="10.00">engine/objects/UnitGroup.hpp</text>
</a>
</g>
</g>
<!-- Node4&#45;&gt;Node19 -->
<g id="edge25" class="edge">
<title>Node4&#45;&gt;Node19</title>
<path fill="none" stroke="midnightblue" d="M771.59,-571.08C779.16,-563.22 790.38,-551.57 799.51,-542.08"/>
<polygon fill="midnightblue" stroke="midnightblue" points="802.16,-544.38 806.57,-534.75 797.12,-539.53 802.16,-544.38"/>
</g>
<!-- Node6 -->
<g id="node6" class="node">
<title>Node6</title>
<g id="a_node6"><a xlink:href="_drawable_8hpp.html" target="_top" xlink:title=" ">
<polygon fill="white" stroke="black" points="568.5,-168.5 568.5,-187.5 675.5,-187.5 675.5,-168.5 568.5,-168.5"/>
<text text-anchor="middle" x="622" y="-175.5" font-family="Helvetica,sans-Serif" font-size="10.00">engine/Drawable.hpp</text>
</a>
</g>
</g>
<!-- Node5&#45;&gt;Node6 -->
<g id="edge5" class="edge">
<title>Node5&#45;&gt;Node6</title>
<path fill="none" stroke="midnightblue" d="M701.3,-459.25C696.66,-450.33 689.61,-436 685,-423 654.88,-338.06 675.33,-309.22 646,-224 642.72,-214.48 637.62,-204.53 632.96,-196.42"/>
<polygon fill="midnightblue" stroke="midnightblue" points="635.8,-194.35 627.65,-187.59 629.8,-197.96 635.8,-194.35"/>
</g>
<!-- Node11 -->
<g id="node11" class="node">
<title>Node11</title>
<g id="a_node11"><a xlink:href="_world_actor_8hpp.html" target="_top" xlink:title=" ">
<polygon fill="white" stroke="black" points="694,-403.5 694,-422.5 808,-422.5 808,-403.5 694,-403.5"/>
<text text-anchor="middle" x="751" y="-410.5" font-family="Helvetica,sans-Serif" font-size="10.00">engine/WorldActor.hpp</text>
</a>
</g>
</g>
<!-- Node5&#45;&gt;Node11 -->
<g id="edge10" class="edge">
<title>Node5&#45;&gt;Node11</title>
<path fill="none" stroke="midnightblue" d="M713.43,-459.08C719.85,-451.38 729.31,-440.03 737.12,-430.65"/>
<polygon fill="midnightblue" stroke="midnightblue" points="739.99,-432.67 743.71,-422.75 734.62,-428.19 739.99,-432.67"/>
</g>
<!-- Node7 -->
<g id="node7" class="node">
<title>Node7</title>
<g id="a_node7"><a xlink:title=" ">
<polygon fill="white" stroke="#bfbfbf" points="656,-112.5 656,-131.5 722,-131.5 722,-112.5 656,-112.5"/>
<text text-anchor="middle" x="689" y="-119.5" font-family="Helvetica,sans-Serif" font-size="10.00">string_view</text>
</a>
</g>
</g>
<!-- Node6&#45;&gt;Node7 -->
<g id="edge6" class="edge">
<title>Node6&#45;&gt;Node7</title>
<path fill="none" stroke="midnightblue" d="M632.76,-168.32C642.77,-160.26 657.89,-148.08 669.93,-138.37"/>
<polygon fill="midnightblue" stroke="midnightblue" points="672.45,-140.83 678.04,-131.83 668.06,-135.38 672.45,-140.83"/>
</g>
<!-- Node8 -->
<g id="node8" class="node">
<title>Node8</title>
<g id="a_node8"><a xlink:href="_vector2_d_8hpp.html" target="_top" xlink:title=" ">
<polygon fill="white" stroke="black" points="951,-112.5 951,-131.5 1063,-131.5 1063,-112.5 951,-112.5"/>
<text text-anchor="middle" x="1007" y="-119.5" font-family="Helvetica,sans-Serif" font-size="10.00">Helpers/Vector2D.hpp</text>
</a>
</g>
</g>
<!-- Node6&#45;&gt;Node8 -->
<g id="edge7" class="edge">
<title>Node6&#45;&gt;Node8</title>
<path fill="none" stroke="midnightblue" d="M675.53,-169.49C744.8,-159.78 865.46,-142.85 940.52,-132.32"/>
<polygon fill="midnightblue" stroke="midnightblue" points="941.38,-135.74 950.8,-130.88 940.41,-128.81 941.38,-135.74"/>
</g>
<!-- Node9 -->
<g id="node9" class="node">
<title>Node9</title>
<g id="a_node9"><a xlink:title=" ">
<polygon fill="white" stroke="#bfbfbf" points="1110.5,-56.5 1110.5,-75.5 1149.5,-75.5 1149.5,-56.5 1110.5,-56.5"/>
<text text-anchor="middle" x="1130" y="-63.5" font-family="Helvetica,sans-Serif" font-size="10.00">utility</text>
</a>
</g>
</g>
<!-- Node8&#45;&gt;Node9 -->
<g id="edge8" class="edge">
<title>Node8&#45;&gt;Node9</title>
<path fill="none" stroke="midnightblue" d="M1026.49,-112.44C1046.64,-103.6 1078.32,-89.69 1101.33,-79.59"/>
<polygon fill="midnightblue" stroke="midnightblue" points="1102.85,-82.74 1110.6,-75.52 1100.04,-76.33 1102.85,-82.74"/>
</g>
<!-- Node10 -->
<g id="node10" class="node">
<title>Node10</title>
<g id="a_node10"><a xlink:title=" ">
<polygon fill="white" stroke="#bfbfbf" points="985,-56.5 985,-75.5 1029,-75.5 1029,-56.5 985,-56.5"/>
<text text-anchor="middle" x="1007" y="-63.5" font-family="Helvetica,sans-Serif" font-size="10.00">cmath</text>
</a>
</g>
</g>
<!-- Node8&#45;&gt;Node10 -->
<g id="edge9" class="edge">
<title>Node8&#45;&gt;Node10</title>
<path fill="none" stroke="midnightblue" d="M1007,-112.08C1007,-105.01 1007,-94.86 1007,-85.99"/>
<polygon fill="midnightblue" stroke="midnightblue" points="1010.5,-85.75 1007,-75.75 1003.5,-85.75 1010.5,-85.75"/>
</g>
<!-- Node11&#45;&gt;Node8 -->
<g id="edge11" class="edge">
<title>Node11&#45;&gt;Node8</title>
<path fill="none" stroke="midnightblue" d="M750.66,-403.48C749.78,-377.67 748.31,-300.79 761,-280 801.75,-213.25 845.27,-230.38 911,-188 937.29,-171.05 967.03,-150.73 986.35,-137.37"/>
<polygon fill="midnightblue" stroke="midnightblue" points="988.47,-140.17 994.69,-131.59 984.48,-134.41 988.47,-140.17"/>
</g>
<!-- Node12 -->
<g id="node12" class="node">
<title>Node12</title>
<g id="a_node12"><a xlink:href="_field_8hpp.html" target="_top" xlink:title=" ">
<polygon fill="white" stroke="black" points="680,-347.5 680,-366.5 736,-366.5 736,-347.5 680,-347.5"/>
<text text-anchor="middle" x="708" y="-354.5" font-family="Helvetica,sans-Serif" font-size="10.00">Field.hpp</text>
</a>
</g>
</g>
<!-- Node11&#45;&gt;Node12 -->
<g id="edge12" class="edge">
<title>Node11&#45;&gt;Node12</title>
<path fill="none" stroke="midnightblue" d="M743.9,-403.08C737.76,-395.38 728.73,-384.03 721.26,-374.65"/>
<polygon fill="midnightblue" stroke="midnightblue" points="723.94,-372.39 714.97,-366.75 718.46,-376.75 723.94,-372.39"/>
</g>
<!-- Node12&#45;&gt;Node8 -->
<g id="edge24" class="edge">
<title>Node12&#45;&gt;Node8</title>
<path fill="none" stroke="midnightblue" d="M706.83,-347.32C704.25,-324.68 700.35,-262.93 728,-224 776.13,-156.23 874.44,-133.76 940.54,-126.42"/>
<polygon fill="midnightblue" stroke="midnightblue" points="941.27,-129.86 950.86,-125.36 940.56,-122.9 941.27,-129.86"/>
</g>
<!-- Node13 -->
<g id="node13" class="node">
<title>Node13</title>
<g id="a_node13"><a xlink:href="_cell_8hpp.html" target="_top" xlink:title=" ">
<polygon fill="white" stroke="black" points="520.5,-286 520.5,-305 637.5,-305 637.5,-286 520.5,-286"/>
<text text-anchor="middle" x="579" y="-293" font-family="Helvetica,sans-Serif" font-size="10.00">engine/objects/Cell.hpp</text>
</a>
</g>
</g>
<!-- Node12&#45;&gt;Node13 -->
<g id="edge13" class="edge">
<title>Node12&#45;&gt;Node13</title>
<path fill="none" stroke="midnightblue" d="M689.52,-347.48C667.87,-337.49 631.79,-320.85 606.77,-309.31"/>
<polygon fill="midnightblue" stroke="midnightblue" points="607.99,-306.02 597.45,-305.01 605.06,-312.38 607.99,-306.02"/>
</g>
<!-- Node13&#45;&gt;Node6 -->
<g id="edge14" class="edge">
<title>Node13&#45;&gt;Node6</title>
<path fill="none" stroke="midnightblue" d="M572.6,-285.85C563.31,-272.13 548.29,-244.81 559,-224 566.08,-210.25 579.52,-199.77 592.18,-192.39"/>
<polygon fill="midnightblue" stroke="midnightblue" points="594,-195.39 601.15,-187.57 590.69,-189.22 594,-195.39"/>
</g>
<!-- Node14 -->
<g id="node14" class="node">
<title>Node14</title>
<g id="a_node14"><a xlink:href="_tickable_8hpp.html" target="_top" xlink:title=" ">
<polygon fill="white" stroke="black" points="370.5,-168.5 370.5,-187.5 473.5,-187.5 473.5,-168.5 370.5,-168.5"/>
<text text-anchor="middle" x="422" y="-175.5" font-family="Helvetica,sans-Serif" font-size="10.00">engine/Tickable.hpp</text>
</a>
</g>
</g>
<!-- Node13&#45;&gt;Node14 -->
<g id="edge15" class="edge">
<title>Node13&#45;&gt;Node14</title>
<path fill="none" stroke="midnightblue" d="M560.33,-286C541.28,-276.91 511.29,-261.42 488,-244 468.59,-229.48 449.16,-209.53 436.46,-195.57"/>
<polygon fill="midnightblue" stroke="midnightblue" points="438.75,-192.89 429.48,-187.76 433.53,-197.55 438.75,-192.89"/>
</g>
<!-- Node15 -->
<g id="node15" class="node">
<title>Node15</title>
<g id="a_node15"><a xlink:title=" ">
<polygon fill="white" stroke="#bfbfbf" points="793,-56.5 793,-75.5 837,-75.5 837,-56.5 793,-56.5"/>
<text text-anchor="middle" x="815" y="-63.5" font-family="Helvetica,sans-Serif" font-size="10.00">vector</text>
</a>
</g>
</g>
<!-- Node13&#45;&gt;Node15 -->
<g id="edge16" class="edge">
<title>Node13&#45;&gt;Node15</title>
<path fill="none" stroke="midnightblue" d="M572.58,-285.75C565.93,-276.09 555.96,-259.82 552,-244 546.97,-223.94 555.25,-173.92 559,-168 607.61,-91.19 725.34,-72.77 782.62,-68.37"/>
<polygon fill="midnightblue" stroke="midnightblue" points="783.17,-71.84 792.91,-67.68 782.7,-64.85 783.17,-71.84"/>
</g>
<!-- Node16 -->
<g id="node16" class="node">
<title>Node16</title>
<g id="a_node16"><a xlink:href="_ground_8hpp.html" target="_top" xlink:title=" ">
<polygon fill="white" stroke="black" points="370,-224.5 370,-243.5 436,-243.5 436,-224.5 370,-224.5"/>
<text text-anchor="middle" x="403" y="-231.5" font-family="Helvetica,sans-Serif" font-size="10.00">Ground.hpp</text>
</a>
</g>
</g>
<!-- Node13&#45;&gt;Node16 -->
<g id="edge17" class="edge">
<title>Node13&#45;&gt;Node16</title>
<path fill="none" stroke="midnightblue" d="M553.78,-285.98C523.33,-275.68 471.95,-258.31 437.76,-246.75"/>
<polygon fill="midnightblue" stroke="midnightblue" points="438.76,-243.4 428.17,-243.51 436.52,-250.03 438.76,-243.4"/>
</g>
<!-- Node17 -->
<g id="node17" class="node">
<title>Node17</title>
<g id="a_node17"><a xlink:href="_building_8hpp.html" target="_top" xlink:title=" ">
<polygon fill="white" stroke="black" points="568.5,-224.5 568.5,-243.5 637.5,-243.5 637.5,-224.5 568.5,-224.5"/>
<text text-anchor="middle" x="603" y="-231.5" font-family="Helvetica,sans-Serif" font-size="10.00">Building.hpp</text>
</a>
</g>
</g>
<!-- Node13&#45;&gt;Node17 -->
<g id="edge20" class="edge">
<title>Node13&#45;&gt;Node17</title>
<path fill="none" stroke="midnightblue" d="M582.44,-285.98C585.9,-277.4 591.33,-263.93 595.75,-252.98"/>
<polygon fill="midnightblue" stroke="midnightblue" points="599.07,-254.09 599.57,-243.51 592.58,-251.47 599.07,-254.09"/>
</g>
<!-- Node16&#45;&gt;Node6 -->
<g id="edge18" class="edge">
<title>Node16&#45;&gt;Node6</title>
<path fill="none" stroke="midnightblue" d="M436.26,-224.8C473.96,-215.5 535.58,-200.31 577.42,-189.99"/>
<polygon fill="midnightblue" stroke="midnightblue" points="578.47,-193.34 587.34,-187.55 576.79,-186.54 578.47,-193.34"/>
</g>
<!-- Node16&#45;&gt;Node14 -->
<g id="edge19" class="edge">
<title>Node16&#45;&gt;Node14</title>
<path fill="none" stroke="midnightblue" d="M406.14,-224.08C408.68,-216.85 412.36,-206.41 415.53,-197.4"/>
<polygon fill="midnightblue" stroke="midnightblue" points="418.9,-198.35 418.92,-187.75 412.3,-196.02 418.9,-198.35"/>
</g>
<!-- Node17&#45;&gt;Node6 -->
<g id="edge21" class="edge">
<title>Node17&#45;&gt;Node6</title>
<path fill="none" stroke="midnightblue" d="M606.14,-224.08C608.68,-216.85 612.36,-206.41 615.53,-197.4"/>
<polygon fill="midnightblue" stroke="midnightblue" points="618.9,-198.35 618.92,-187.75 612.3,-196.02 618.9,-198.35"/>
</g>
<!-- Node17&#45;&gt;Node14 -->
<g id="edge22" class="edge">
<title>Node17&#45;&gt;Node14</title>
<path fill="none" stroke="midnightblue" d="M574.32,-224.44C543.47,-215.24 494.27,-200.56 460.17,-190.39"/>
<polygon fill="midnightblue" stroke="midnightblue" points="461.13,-187.02 450.55,-187.52 459.13,-193.73 461.13,-187.02"/>
</g>
<!-- Node18 -->
<g id="node18" class="node">
<title>Node18</title>
<g id="a_node18"><a xlink:title=" ">
<polygon fill="white" stroke="#bfbfbf" points="843.5,-168.5 843.5,-187.5 902.5,-187.5 902.5,-168.5 843.5,-168.5"/>
<text text-anchor="middle" x="873" y="-175.5" font-family="Helvetica,sans-Serif" font-size="10.00">functional</text>
</a>
</g>
</g>
<!-- Node17&#45;&gt;Node18 -->
<g id="edge23" class="edge">
<title>Node17&#45;&gt;Node18</title>
<path fill="none" stroke="midnightblue" d="M637.75,-226.05C687.95,-216.01 780.54,-197.49 833.35,-186.93"/>
<polygon fill="midnightblue" stroke="midnightblue" points="834.24,-190.32 843.36,-184.93 832.86,-183.46 834.24,-190.32"/>
</g>
<!-- Node20 -->
<g id="node20" class="node">
<title>Node20</title>
<g id="a_node20"><a xlink:href="_unit_8hpp.html" target="_top" xlink:title=" ">
<polygon fill="white" stroke="black" points="788.5,-459.5 788.5,-478.5 841.5,-478.5 841.5,-459.5 788.5,-459.5"/>
<text text-anchor="middle" x="815" y="-466.5" font-family="Helvetica,sans-Serif" font-size="10.00">Unit.hpp</text>
</a>
</g>
</g>
<!-- Node19&#45;&gt;Node20 -->
<g id="edge26" class="edge">
<title>Node19&#45;&gt;Node20</title>
<path fill="none" stroke="midnightblue" d="M815,-515.08C815,-508.01 815,-497.86 815,-488.99"/>
<polygon fill="midnightblue" stroke="midnightblue" points="818.5,-488.75 815,-478.75 811.5,-488.75 818.5,-488.75"/>
</g>
<!-- Node21 -->
<g id="node21" class="node">
<title>Node21</title>
<g id="a_node21"><a xlink:title=" ">
<polygon fill="white" stroke="#bfbfbf" points="859.5,-459.5 859.5,-478.5 888.5,-478.5 888.5,-459.5 859.5,-459.5"/>
<text text-anchor="middle" x="874" y="-466.5" font-family="Helvetica,sans-Serif" font-size="10.00">list</text>
</a>
</g>
</g>
<!-- Node19&#45;&gt;Node21 -->
<g id="edge28" class="edge">
<title>Node19&#45;&gt;Node21</title>
<path fill="none" stroke="midnightblue" d="M824.48,-515.32C833.2,-507.34 846.34,-495.31 856.9,-485.65"/>
<polygon fill="midnightblue" stroke="midnightblue" points="859.33,-488.17 864.35,-478.83 854.61,-483 859.33,-488.17"/>
</g>
<!-- Node20&#45;&gt;Node11 -->
<g id="edge27" class="edge">
<title>Node20&#45;&gt;Node11</title>
<path fill="none" stroke="midnightblue" d="M804.72,-459.32C795.16,-451.26 780.72,-439.08 769.22,-429.37"/>
<polygon fill="midnightblue" stroke="midnightblue" points="771.37,-426.61 761.47,-422.83 766.86,-431.96 771.37,-426.61"/>
</g>
<!-- Node22&#45;&gt;Node13 -->
<g id="edge32" class="edge">
<title>Node22&#45;&gt;Node13</title>
<path fill="none" stroke="midnightblue" d="M409.37,-347.48C443.92,-337.09 502.42,-319.51 540.88,-307.95"/>
<polygon fill="midnightblue" stroke="midnightblue" points="542.11,-311.24 550.68,-305.01 540.1,-304.54 542.11,-311.24"/>
</g>
<!-- Node23 -->
<g id="node23" class="node">
<title>Node23</title>
<g id="a_node23"><a xlink:href="_ground_empty_8hpp.html" target="_top" xlink:title=" ">
<polygon fill="white" stroke="black" points="390,-280.5 390,-310.5 502,-310.5 502,-280.5 390,-280.5"/>
<text text-anchor="start" x="398" y="-298.5" font-family="Helvetica,sans-Serif" font-size="10.00">engine/objects/ground</text>
<text text-anchor="middle" x="446" y="-287.5" font-family="Helvetica,sans-Serif" font-size="10.00">/GroundEmpty.hpp</text>
</a>
</g>
</g>
<!-- Node22&#45;&gt;Node23 -->
<g id="edge30" class="edge">
<title>Node22&#45;&gt;Node23</title>
<path fill="none" stroke="midnightblue" d="M390.31,-347.48C398.87,-339.64 411.9,-327.71 423.21,-317.37"/>
<polygon fill="midnightblue" stroke="midnightblue" points="425.67,-319.86 430.68,-310.52 420.94,-314.69 425.67,-319.86"/>
</g>
<!-- Node24 -->
<g id="node24" class="node">
<title>Node24</title>
<g id="a_node24"><a xlink:href="_ground_earth_8hpp.html" target="_top" xlink:title=" ">
<polygon fill="white" stroke="black" points="0,-280.5 0,-310.5 112,-310.5 112,-280.5 0,-280.5"/>
<text text-anchor="start" x="8" y="-298.5" font-family="Helvetica,sans-Serif" font-size="10.00">engine/objects/ground</text>
<text text-anchor="middle" x="56" y="-287.5" font-family="Helvetica,sans-Serif" font-size="10.00">/GroundEarth.hpp</text>
</a>
</g>
</g>
<!-- Node22&#45;&gt;Node24 -->
<g id="edge33" class="edge">
<title>Node22&#45;&gt;Node24</title>
<path fill="none" stroke="midnightblue" d="M329.07,-347.77C278.64,-339.6 199.71,-326.37 122.26,-311.2"/>
<polygon fill="midnightblue" stroke="midnightblue" points="122.82,-307.74 112.34,-309.24 121.47,-314.61 122.82,-307.74"/>
</g>
<!-- Node25 -->
<g id="node25" class="node">
<title>Node25</title>
<g id="a_node25"><a xlink:href="_ground_water_8hpp.html" target="_top" xlink:title=" ">
<polygon fill="white" stroke="black" points="130,-280.5 130,-310.5 242,-310.5 242,-280.5 130,-280.5"/>
<text text-anchor="start" x="138" y="-298.5" font-family="Helvetica,sans-Serif" font-size="10.00">engine/objects/ground</text>
<text text-anchor="middle" x="186" y="-287.5" font-family="Helvetica,sans-Serif" font-size="10.00">/GroundWater.hpp</text>
</a>
</g>
</g>
<!-- Node22&#45;&gt;Node25 -->
<g id="edge35" class="edge">
<title>Node22&#45;&gt;Node25</title>
<path fill="none" stroke="midnightblue" d="M353.06,-347.48C324.18,-338.66 278.32,-324.67 241.94,-313.57"/>
<polygon fill="midnightblue" stroke="midnightblue" points="242.54,-310.09 231.96,-310.52 240.5,-316.79 242.54,-310.09"/>
</g>
<!-- Node26 -->
<g id="node26" class="node">
<title>Node26</title>
<g id="a_node26"><a xlink:href="_mineral_8hpp.html" target="_top" xlink:title=" ">
<polygon fill="white" stroke="black" points="260,-280.5 260,-310.5 372,-310.5 372,-280.5 260,-280.5"/>
<text text-anchor="start" x="268" y="-298.5" font-family="Helvetica,sans-Serif" font-size="10.00">engine/objects/ground</text>
<text text-anchor="middle" x="316" y="-287.5" font-family="Helvetica,sans-Serif" font-size="10.00">/Mineral.hpp</text>
</a>
</g>
</g>
<!-- Node22&#45;&gt;Node26 -->
<g id="edge37" class="edge">
<title>Node22&#45;&gt;Node26</title>
<path fill="none" stroke="midnightblue" d="M371.69,-347.48C363.13,-339.64 350.1,-327.71 338.79,-317.37"/>
<polygon fill="midnightblue" stroke="midnightblue" points="341.06,-314.69 331.32,-310.52 336.33,-319.86 341.06,-314.69"/>
</g>
<!-- Node23&#45;&gt;Node16 -->
<g id="edge31" class="edge">
<title>Node23&#45;&gt;Node16</title>
<path fill="none" stroke="midnightblue" d="M435.81,-280.4C429.63,-271.84 421.7,-260.87 415.18,-251.86"/>
<polygon fill="midnightblue" stroke="midnightblue" points="417.95,-249.71 409.26,-243.66 412.28,-253.81 417.95,-249.71"/>
</g>
<!-- Node24&#45;&gt;Node16 -->
<g id="edge34" class="edge">
<title>Node24&#45;&gt;Node16</title>
<path fill="none" stroke="midnightblue" d="M112.33,-281.71C115.26,-281.12 118.16,-280.54 121,-280 205.18,-263.91 304.25,-249.03 359.72,-241.07"/>
<polygon fill="midnightblue" stroke="midnightblue" points="360.49,-244.49 369.89,-239.61 359.5,-237.56 360.49,-244.49"/>
</g>
<!-- Node25&#45;&gt;Node16 -->
<g id="edge36" class="edge">
<title>Node25&#45;&gt;Node16</title>
<path fill="none" stroke="midnightblue" d="M237.15,-280.47C275.24,-270.03 326.57,-255.96 361.98,-246.25"/>
<polygon fill="midnightblue" stroke="midnightblue" points="363.26,-249.53 371.98,-243.51 361.41,-242.78 363.26,-249.53"/>
</g>
<!-- Node26&#45;&gt;Node16 -->
<g id="edge38" class="edge">
<title>Node26&#45;&gt;Node16</title>
<path fill="none" stroke="midnightblue" d="M336.62,-280.4C350.3,-271.04 368.21,-258.79 381.98,-249.38"/>
<polygon fill="midnightblue" stroke="midnightblue" points="384.06,-252.19 390.34,-243.66 380.11,-246.41 384.06,-252.19"/>
</g>
<!-- Node28 -->
<g id="node28" class="node">
<title>Node28</title>
<g id="a_node28"><a xlink:title=" ">
<polygon fill="white" stroke="#bfbfbf" points="1396.5,-224.5 1396.5,-243.5 1431.5,-243.5 1431.5,-224.5 1396.5,-224.5"/>
<text text-anchor="middle" x="1414" y="-231.5" font-family="Helvetica,sans-Serif" font-size="10.00">map</text>
</a>
</g>
</g>
<!-- Node27&#45;&gt;Node28 -->
<g id="edge40" class="edge">
<title>Node27&#45;&gt;Node28</title>
<path fill="none" stroke="midnightblue" d="M1374.59,-285.98C1381.49,-277.05 1392.5,-262.81 1401.13,-251.64"/>
<polygon fill="midnightblue" stroke="midnightblue" points="1404.07,-253.56 1407.42,-243.51 1398.54,-249.28 1404.07,-253.56"/>
</g>
<!-- Node29 -->
<g id="node29" class="node">
<title>Node29</title>
<g id="a_node29"><a xlink:title=" ">
<polygon fill="white" stroke="#bfbfbf" points="1347.5,-168.5 1347.5,-187.5 1388.5,-187.5 1388.5,-168.5 1347.5,-168.5"/>
<text text-anchor="middle" x="1368" y="-175.5" font-family="Helvetica,sans-Serif" font-size="10.00">string</text>
</a>
</g>
</g>
<!-- Node27&#45;&gt;Node29 -->
<g id="edge41" class="edge">
<title>Node27&#45;&gt;Node29</title>
<path fill="none" stroke="midnightblue" d="M1368,-285.82C1368,-267.26 1368,-223.34 1368,-197.97"/>
<polygon fill="midnightblue" stroke="midnightblue" points="1371.5,-197.78 1368,-187.78 1364.5,-197.78 1371.5,-197.78"/>
</g>
<!-- Node30 -->
<g id="node30" class="node">
<title>Node30</title>
<g id="a_node30"><a xlink:title=" ">
<polygon fill="white" stroke="#bfbfbf" points="1115.5,-224.5 1115.5,-243.5 1166.5,-243.5 1166.5,-224.5 1115.5,-224.5"/>
<text text-anchor="middle" x="1141" y="-231.5" font-family="Helvetica,sans-Serif" font-size="10.00">memory</text>
</a>
</g>
</g>
<!-- Node27&#45;&gt;Node30 -->
<g id="edge42" class="edge">
<title>Node27&#45;&gt;Node30</title>
<path fill="none" stroke="midnightblue" d="M1335.48,-285.98C1293.37,-274.94 1220.24,-255.77 1176.66,-244.35"/>
<polygon fill="midnightblue" stroke="midnightblue" points="1177.34,-240.91 1166.78,-241.76 1175.56,-247.68 1177.34,-240.91"/>
</g>
<!-- Node31 -->
<g id="node31" class="node">
<title>Node31</title>
<g id="a_node31"><a xlink:href="_shader_8hpp.html" target="_top" xlink:title=" ">
<polygon fill="white" stroke="black" points="1449.5,-224.5 1449.5,-243.5 1554.5,-243.5 1554.5,-224.5 1449.5,-224.5"/>
<text text-anchor="middle" x="1502" y="-231.5" font-family="Helvetica,sans-Serif" font-size="10.00">graphics/Shader.hpp</text>
</a>
</g>
</g>
<!-- Node27&#45;&gt;Node31 -->
<g id="edge43" class="edge">
<title>Node27&#45;&gt;Node31</title>
<path fill="none" stroke="midnightblue" d="M1387.2,-285.98C1409.79,-275.95 1447.5,-259.2 1473.5,-247.65"/>
<polygon fill="midnightblue" stroke="midnightblue" points="1475.12,-250.77 1482.84,-243.51 1472.28,-244.37 1475.12,-250.77"/>
</g>
<!-- Node32 -->
<g id="node32" class="node">
<title>Node32</title>
<g id="a_node32"><a xlink:href="_g_shape_8hpp.html" target="_top" xlink:title=" ">
<polygon fill="white" stroke="black" points="1446,-168.5 1446,-187.5 1556,-187.5 1556,-168.5 1446,-168.5"/>
<text text-anchor="middle" x="1501" y="-175.5" font-family="Helvetica,sans-Serif" font-size="10.00">graphics/GShape.hpp</text>
</a>
</g>
</g>
<!-- Node27&#45;&gt;Node32 -->
<g id="edge58" class="edge">
<title>Node27&#45;&gt;Node32</title>
<path fill="none" stroke="midnightblue" d="M1435.48,-285.97C1485.69,-278.08 1548.15,-264.45 1564,-244 1578.96,-224.7 1552.55,-204.88 1529.48,-192.29"/>
<polygon fill="midnightblue" stroke="midnightblue" points="1531.06,-189.17 1520.58,-187.67 1527.84,-195.38 1531.06,-189.17"/>
</g>
<!-- Node38 -->
<g id="node38" class="node">
<title>Node38</title>
<g id="a_node38"><a xlink:href="_event_handler_8hpp.html" target="_top" xlink:title=" ">
<polygon fill="white" stroke="black" points="1184.5,-224.5 1184.5,-243.5 1339.5,-243.5 1339.5,-224.5 1184.5,-224.5"/>
<text text-anchor="middle" x="1262" y="-231.5" font-family="Helvetica,sans-Serif" font-size="10.00">EventHandler/EventHandler.hpp</text>
</a>
</g>
</g>
<!-- Node27&#45;&gt;Node38 -->
<g id="edge59" class="edge">
<title>Node27&#45;&gt;Node38</title>
<path fill="none" stroke="midnightblue" d="M1352.81,-285.98C1335.34,-276.17 1306.42,-259.93 1285.92,-248.42"/>
<polygon fill="midnightblue" stroke="midnightblue" points="1287.59,-245.35 1277.16,-243.51 1284.17,-251.46 1287.59,-245.35"/>
</g>
<!-- Node31&#45;&gt;Node29 -->
<g id="edge44" class="edge">
<title>Node31&#45;&gt;Node29</title>
<path fill="none" stroke="midnightblue" d="M1480.77,-224.44C1458.49,-215.46 1423.27,-201.27 1398.12,-191.14"/>
<polygon fill="midnightblue" stroke="midnightblue" points="1399.28,-187.83 1388.69,-187.34 1396.66,-194.32 1399.28,-187.83"/>
</g>
<!-- Node31&#45;&gt;Node32 -->
<g id="edge45" class="edge">
<title>Node31&#45;&gt;Node32</title>
<path fill="none" stroke="midnightblue" d="M1496.67,-224.08C1495.03,-216.93 1494.41,-206.64 1494.89,-197.69"/>
<polygon fill="midnightblue" stroke="midnightblue" points="1498.37,-198.09 1496.03,-187.75 1491.41,-197.29 1498.37,-198.09"/>
</g>
<!-- Node36 -->
<g id="node36" class="node">
<title>Node36</title>
<g id="a_node36"><a xlink:href="_transform_8hpp.html" target="_top" xlink:title=" ">
<polygon fill="white" stroke="black" points="1441.5,-56.5 1441.5,-75.5 1560.5,-75.5 1560.5,-56.5 1441.5,-56.5"/>
<text text-anchor="middle" x="1501" y="-63.5" font-family="Helvetica,sans-Serif" font-size="10.00">graphics/Transform.hpp</text>
</a>
</g>
</g>
<!-- Node31&#45;&gt;Node36 -->
<g id="edge57" class="edge">
<title>Node31&#45;&gt;Node36</title>
<path fill="none" stroke="midnightblue" d="M1522.85,-224.43C1537.58,-217.13 1556.2,-205.09 1565,-188 1569.07,-180.1 1567.48,-176.54 1565,-168 1555.37,-134.81 1531.19,-102.07 1515.47,-83.23"/>
<polygon fill="midnightblue" stroke="midnightblue" points="1518.09,-80.91 1508.92,-75.6 1512.78,-85.47 1518.09,-80.91"/>
</g>
<!-- Node32&#45;&gt;Node8 -->
<g id="edge56" class="edge">
<title>Node32&#45;&gt;Node8</title>
<path fill="none" stroke="midnightblue" d="M1445.77,-170.96C1354.22,-160.95 1171.39,-140.97 1073.12,-130.23"/>
<polygon fill="midnightblue" stroke="midnightblue" points="1073.33,-126.73 1063.01,-129.12 1072.57,-133.69 1073.33,-126.73"/>
</g>
<!-- Node32&#45;&gt;Node31 -->
<g id="edge54" class="edge">
<title>Node32&#45;&gt;Node31</title>
<path fill="none" stroke="midnightblue" d="M1506.29,-187.75C1507.95,-194.86 1508.59,-205.14 1508.12,-214.1"/>
<polygon fill="midnightblue" stroke="midnightblue" points="1504.64,-213.75 1507,-224.08 1511.6,-214.54 1504.64,-213.75"/>
</g>
<!-- Node33 -->
<g id="node33" class="node">
<title>Node33</title>
<g id="a_node33"><a xlink:href="_window_8hpp.html" target="_top" xlink:title=" ">
<polygon fill="white" stroke="black" points="1244.5,-112.5 1244.5,-131.5 1353.5,-131.5 1353.5,-112.5 1244.5,-112.5"/>
<text text-anchor="middle" x="1299" y="-119.5" font-family="Helvetica,sans-Serif" font-size="10.00">graphics/Window.hpp</text>
</a>
</g>
</g>
<!-- Node32&#45;&gt;Node33 -->
<g id="edge46" class="edge">
<title>Node32&#45;&gt;Node33</title>
<path fill="none" stroke="midnightblue" d="M1468.99,-168.44C1434.27,-159.16 1378.71,-144.31 1340.62,-134.13"/>
<polygon fill="midnightblue" stroke="midnightblue" points="1341.42,-130.72 1330.86,-131.52 1339.61,-137.48 1341.42,-130.72"/>
</g>
<!-- Node32&#45;&gt;Node36 -->
<g id="edge55" class="edge">
<title>Node32&#45;&gt;Node36</title>
<path fill="none" stroke="midnightblue" d="M1501,-168.37C1501,-150.62 1501,-109.67 1501,-85.6"/>
<polygon fill="midnightblue" stroke="midnightblue" points="1504.5,-85.59 1501,-75.59 1497.5,-85.59 1504.5,-85.59"/>
</g>
<!-- Node33&#45;&gt;Node9 -->
<g id="edge49" class="edge">
<title>Node33&#45;&gt;Node9</title>
<path fill="none" stroke="midnightblue" d="M1272.22,-112.44C1241.48,-102.62 1191.23,-86.56 1159.42,-76.4"/>
<polygon fill="midnightblue" stroke="midnightblue" points="1160.38,-73.03 1149.79,-73.32 1158.25,-79.7 1160.38,-73.03"/>
</g>
<!-- Node33&#45;&gt;Node15 -->
<g id="edge50" class="edge">
<title>Node33&#45;&gt;Node15</title>
<path fill="none" stroke="midnightblue" d="M1244.42,-114.91C1143.15,-103.61 929.08,-79.73 847.5,-70.63"/>
<polygon fill="midnightblue" stroke="midnightblue" points="847.67,-67.12 837.34,-69.49 846.89,-74.08 847.67,-67.12"/>
</g>
<!-- Node33&#45;&gt;Node31 -->
<g id="edge51" class="edge">
<title>Node33&#45;&gt;Node31</title>
<path fill="none" stroke="midnightblue" d="M1319.86,-131.53C1340.17,-140.06 1371.72,-153.89 1398,-168 1427.74,-183.96 1460.53,-205.08 1481.19,-218.85"/>
<polygon fill="midnightblue" stroke="midnightblue" points="1479.26,-221.77 1489.51,-224.44 1483.16,-215.96 1479.26,-221.77"/>
</g>
<!-- Node34 -->
<g id="node34" class="node">
<title>Node34</title>
<g id="a_node34"><a xlink:title=" ">
<polygon fill="white" stroke="#bfbfbf" points="1247.5,-56.5 1247.5,-75.5 1310.5,-75.5 1310.5,-56.5 1247.5,-56.5"/>
<text text-anchor="middle" x="1279" y="-63.5" font-family="Helvetica,sans-Serif" font-size="10.00">glad/glad.h</text>
</a>
</g>
</g>
<!-- Node33&#45;&gt;Node34 -->
<g id="edge47" class="edge">
<title>Node33&#45;&gt;Node34</title>
<path fill="none" stroke="midnightblue" d="M1295.7,-112.08C1293.02,-104.85 1289.15,-94.41 1285.81,-85.4"/>
<polygon fill="midnightblue" stroke="midnightblue" points="1289,-83.91 1282.24,-75.75 1282.43,-86.34 1289,-83.91"/>
</g>
<!-- Node35 -->
<g id="node35" class="node">
<title>Node35</title>
<g id="a_node35"><a xlink:title=" ">
<polygon fill="white" stroke="#bfbfbf" points="1328.5,-56.5 1328.5,-75.5 1407.5,-75.5 1407.5,-56.5 1328.5,-56.5"/>
<text text-anchor="middle" x="1368" y="-63.5" font-family="Helvetica,sans-Serif" font-size="10.00">GLFW/glfw3.h</text>
</a>
</g>
</g>
<!-- Node33&#45;&gt;Node35 -->
<g id="edge48" class="edge">
<title>Node33&#45;&gt;Node35</title>
<path fill="none" stroke="midnightblue" d="M1310.09,-112.32C1320.49,-104.18 1336.26,-91.84 1348.72,-82.09"/>
<polygon fill="midnightblue" stroke="midnightblue" points="1350.99,-84.75 1356.71,-75.83 1346.68,-79.24 1350.99,-84.75"/>
</g>
<!-- Node33&#45;&gt;Node36 -->
<g id="edge52" class="edge">
<title>Node33&#45;&gt;Node36</title>
<path fill="none" stroke="midnightblue" d="M1331.01,-112.44C1365.73,-103.16 1421.29,-88.31 1459.38,-78.13"/>
<polygon fill="midnightblue" stroke="midnightblue" points="1460.39,-81.48 1469.14,-75.52 1458.58,-74.72 1460.39,-81.48"/>
</g>
<!-- Node37 -->
<g id="node37" class="node">
<title>Node37</title>
<g id="a_node37"><a xlink:title=" ">
<polygon fill="white" stroke="#bfbfbf" points="1449,-0.5 1449,-19.5 1553,-19.5 1553,-0.5 1449,-0.5"/>
<text text-anchor="middle" x="1501" y="-7.5" font-family="Helvetica,sans-Serif" font-size="10.00">glm/gtc/type_ptr.hpp</text>
</a>
</g>
</g>
<!-- Node36&#45;&gt;Node37 -->
<g id="edge53" class="edge">
<title>Node36&#45;&gt;Node37</title>
<path fill="none" stroke="midnightblue" d="M1501,-56.08C1501,-49.01 1501,-38.86 1501,-29.99"/>
<polygon fill="midnightblue" stroke="midnightblue" points="1504.5,-29.75 1501,-19.75 1497.5,-29.75 1504.5,-29.75"/>
</g>
<!-- Node38&#45;&gt;Node8 -->
<g id="edge62" class="edge">
<title>Node38&#45;&gt;Node8</title>
<path fill="none" stroke="midnightblue" d="M1241.99,-224.37C1197.21,-205.05 1088.74,-158.26 1036.32,-135.65"/>
<polygon fill="midnightblue" stroke="midnightblue" points="1037.48,-132.34 1026.92,-131.59 1034.71,-138.77 1037.48,-132.34"/>
</g>
<!-- Node38&#45;&gt;Node18 -->
<g id="edge60" class="edge">
<title>Node38&#45;&gt;Node18</title>
<path fill="none" stroke="midnightblue" d="M1200.36,-224.44C1119.83,-213.26 981.1,-194.01 913.03,-184.56"/>
<polygon fill="midnightblue" stroke="midnightblue" points="913.12,-181.04 902.73,-183.13 912.16,-187.97 913.12,-181.04"/>
</g>
<!-- Node38&#45;&gt;Node33 -->
<g id="edge61" class="edge">
<title>Node38&#45;&gt;Node33</title>
<path fill="none" stroke="midnightblue" d="M1264.9,-224.37C1270.9,-206.54 1284.77,-165.3 1292.85,-141.27"/>
<polygon fill="midnightblue" stroke="midnightblue" points="1296.24,-142.19 1296.11,-131.59 1289.6,-139.95 1296.24,-142.19"/>
</g>
<!-- Node39&#45;&gt;Node6 -->
<g id="edge69" class="edge">
<title>Node39&#45;&gt;Node6</title>
<path fill="none" stroke="midnightblue" d="M904.08,-285.82C850.4,-265.49 716.44,-214.76 654.44,-191.28"/>
<polygon fill="midnightblue" stroke="midnightblue" points="655.37,-187.89 644.77,-187.62 652.89,-194.44 655.37,-187.89"/>
</g>
<!-- Node39&#45;&gt;Node8 -->
<g id="edge68" class="edge">
<title>Node39&#45;&gt;Node8</title>
<path fill="none" stroke="midnightblue" d="M927.81,-285.96C929.32,-272.4 933.23,-245.29 942,-224 955.23,-191.88 978.77,-158.78 993.6,-139.59"/>
<polygon fill="midnightblue" stroke="midnightblue" points="996.47,-141.6 999.91,-131.58 990.98,-137.27 996.47,-141.6"/>
</g>
<!-- Node39&#45;&gt;Node15 -->
<g id="edge65" class="edge">
<title>Node39&#45;&gt;Node15</title>
<path fill="none" stroke="midnightblue" d="M916.21,-285.87C896.28,-269.26 853.94,-230.71 834,-188 818.31,-154.4 815.18,-110.43 814.78,-85.81"/>
<polygon fill="midnightblue" stroke="midnightblue" points="818.28,-85.68 814.75,-75.68 811.28,-85.69 818.28,-85.68"/>
</g>
<!-- Node39&#45;&gt;Node30 -->
<g id="edge64" class="edge">
<title>Node39&#45;&gt;Node30</title>
<path fill="none" stroke="midnightblue" d="M957.66,-285.98C996.85,-275.08 1064.53,-256.26 1105.79,-244.79"/>
<polygon fill="midnightblue" stroke="midnightblue" points="1106.72,-248.16 1115.42,-242.11 1104.85,-241.42 1106.72,-248.16"/>
</g>
<!-- Node40 -->
<g id="node40" class="node">
<title>Node40</title>
<g id="a_node40"><a xlink:href="_g_u_i_window_8hpp.html" target="_top" xlink:title=" ">
<polygon fill="white" stroke="black" points="951,-224.5 951,-243.5 1059,-243.5 1059,-224.5 951,-224.5"/>
<text text-anchor="middle" x="1005" y="-231.5" font-family="Helvetica,sans-Serif" font-size="10.00">GUI/GUIWindow.hpp</text>
</a>
</g>
</g>
<!-- Node39&#45;&gt;Node40 -->
<g id="edge66" class="edge">
<title>Node39&#45;&gt;Node40</title>
<path fill="none" stroke="midnightblue" d="M938.18,-285.98C950.57,-276.52 970.79,-261.1 985.75,-249.69"/>
<polygon fill="midnightblue" stroke="midnightblue" points="988.02,-252.36 993.85,-243.51 983.77,-246.79 988.02,-252.36"/>
</g>
<!-- Node40&#45;&gt;Node8 -->
<g id="edge67" class="edge">
<title>Node40&#45;&gt;Node8</title>
<path fill="none" stroke="midnightblue" d="M1005.16,-224.37C1005.48,-206.62 1006.22,-165.67 1006.66,-141.6"/>
<polygon fill="midnightblue" stroke="midnightblue" points="1010.16,-141.65 1006.84,-131.59 1003.16,-141.53 1010.16,-141.65"/>
</g>
<!-- Node41&#45;&gt;Node27 -->
<g id="edge73" class="edge">
<title>Node41&#45;&gt;Node27</title>
<path fill="none" stroke="midnightblue" d="M1098.87,-403.32C1149.98,-383.03 1277.37,-332.47 1336.69,-308.93"/>
<polygon fill="midnightblue" stroke="midnightblue" points="1338.27,-312.07 1346.27,-305.12 1335.68,-305.56 1338.27,-312.07"/>
</g>
<!-- Node41&#45;&gt;Node30 -->
<g id="edge71" class="edge">
<title>Node41&#45;&gt;Node30</title>
<path fill="none" stroke="midnightblue" d="M1090.14,-403.34C1101.14,-395.32 1116.26,-382.33 1124,-367 1142.6,-330.17 1143.52,-280.49 1142.38,-253.81"/>
<polygon fill="midnightblue" stroke="midnightblue" points="1145.86,-253.38 1141.79,-243.59 1138.87,-253.78 1145.86,-253.38"/>
</g>
<!-- Node41&#45;&gt;Node32 -->
<g id="edge72" class="edge">
<title>Node41&#45;&gt;Node32</title>
<path fill="none" stroke="midnightblue" d="M1124.84,-403.98C1240.94,-383.38 1531.63,-324.5 1580,-244 1593.83,-220.98 1563.78,-202.48 1536.85,-191.19"/>
<polygon fill="midnightblue" stroke="midnightblue" points="1538.11,-187.93 1527.53,-187.5 1535.54,-194.44 1538.11,-187.93"/>
</g>
<!-- Node41&#45;&gt;Node40 -->
<g id="edge74" class="edge">
<title>Node41&#45;&gt;Node40</title>
<path fill="none" stroke="midnightblue" d="M1064.81,-403.47C1054.16,-395.35 1039.18,-382.14 1031,-367 1011.17,-330.31 1006.35,-280.57 1005.25,-253.85"/>
<polygon fill="midnightblue" stroke="midnightblue" points="1008.75,-253.51 1004.97,-243.61 1001.75,-253.71 1008.75,-253.51"/>
</g>
<!-- Node42 -->
<g id="node42" class="node">
<title>Node42</title>
<g id="a_node42"><a xlink:href="_item_8hpp.html" target="_top" xlink:title=" ">
<polygon fill="white" stroke="black" points="1039.5,-347.5 1039.5,-366.5 1114.5,-366.5 1114.5,-347.5 1039.5,-347.5"/>
<text text-anchor="middle" x="1077" y="-354.5" font-family="Helvetica,sans-Serif" font-size="10.00">GUI/Item.hpp</text>
</a>
</g>
</g>
<!-- Node41&#45;&gt;Node42 -->
<g id="edge75" class="edge">
<title>Node41&#45;&gt;Node42</title>
<path fill="none" stroke="midnightblue" d="M1077,-403.08C1077,-396.01 1077,-385.86 1077,-376.99"/>
<polygon fill="midnightblue" stroke="midnightblue" points="1080.5,-376.75 1077,-366.75 1073.5,-376.75 1080.5,-376.75"/>
</g>
<!-- Node43 -->
<g id="node43" class="node">
<title>Node43</title>
<g id="a_node43"><a xlink:href="_states_8hpp.html" target="_top" xlink:title=" ">
<polygon fill="white" stroke="black" points="770,-286 770,-305 854,-305 854,-286 770,-286"/>
<text text-anchor="middle" x="812" y="-293" font-family="Helvetica,sans-Serif" font-size="10.00">GUI/States.hpp</text>
</a>
</g>
</g>
<!-- Node41&#45;&gt;Node43 -->
<g id="edge81" class="edge">
<title>Node41&#45;&gt;Node43</title>
<path fill="none" stroke="midnightblue" d="M1057.08,-403.32C1010.74,-383.12 895.49,-332.89 841.19,-309.22"/>
<polygon fill="midnightblue" stroke="midnightblue" points="842.35,-305.91 831.79,-305.12 839.56,-312.33 842.35,-305.91"/>
</g>
<!-- Node42&#45;&gt;Node8 -->
<g id="edge78" class="edge">
<title>Node42&#45;&gt;Node8</title>
<path fill="none" stroke="midnightblue" d="M1077.78,-347.4C1079.44,-325.97 1082.1,-268.69 1068,-224 1057.78,-191.62 1035.22,-158.83 1020.59,-139.73"/>
<polygon fill="midnightblue" stroke="midnightblue" points="1023.24,-137.45 1014.31,-131.75 1017.74,-141.77 1023.24,-137.45"/>
</g>
<!-- Node42&#45;&gt;Node27 -->
<g id="edge76" class="edge">
<title>Node42&#45;&gt;Node27</title>
<path fill="none" stroke="midnightblue" d="M1114.74,-348.28C1166.1,-337.78 1258.2,-318.95 1316.05,-307.12"/>
<polygon fill="midnightblue" stroke="midnightblue" points="1316.99,-310.5 1326.09,-305.07 1315.59,-303.64 1316.99,-310.5"/>
</g>
<!-- Node42&#45;&gt;Node40 -->
<g id="edge77" class="edge">
<title>Node42&#45;&gt;Node40</title>
<path fill="none" stroke="midnightblue" d="M1071.82,-347.3C1060.04,-327.5 1031.05,-278.78 1015.41,-252.49"/>
<polygon fill="midnightblue" stroke="midnightblue" points="1018.25,-250.43 1010.13,-243.62 1012.24,-254.01 1018.25,-250.43"/>
</g>
<!-- Node42&#45;&gt;Node43 -->
<g id="edge79" class="edge">
<title>Node42&#45;&gt;Node43</title>
<path fill="none" stroke="midnightblue" d="M1039.13,-348.98C996.03,-340.77 923.61,-326.36 862,-311 857.95,-309.99 853.74,-308.88 849.56,-307.72"/>
<polygon fill="midnightblue" stroke="midnightblue" points="850.5,-304.35 839.93,-305.01 848.6,-311.09 850.5,-304.35"/>
</g>
<!-- Node43&#45;&gt;Node7 -->
<g id="edge80" class="edge">
<title>Node43&#45;&gt;Node7</title>
<path fill="none" stroke="midnightblue" d="M805.73,-285.76C786.32,-258.69 726.95,-175.91 701.17,-139.96"/>
<polygon fill="midnightblue" stroke="midnightblue" points="703.78,-137.61 695.11,-131.52 698.09,-141.69 703.78,-137.61"/>
</g>
</g>
</svg>
