<?xml version="1.0" encoding="UTF-8" standalone="no"?>
<!DOCTYPE svg PUBLIC "-//W3C//DTD SVG 1.1//EN"
 "http://www.w3.org/Graphics/SVG/1.1/DTD/svg11.dtd">
<!-- Generated by graphviz version 2.47.1 (20210421.1823)
 -->
<!-- Title: include/engine/objects/Ground.hpp Pages: 1 -->
<svg width="1088pt" height="486pt"
 viewBox="0.00 0.00 1088.00 486.00" xmlns="http://www.w3.org/2000/svg" xmlns:xlink="http://www.w3.org/1999/xlink">
<g id="graph0" class="graph" transform="scale(1 1) rotate(0) translate(4 482)">
<title>include/engine/objects/Ground.hpp</title>
<polygon fill="white" stroke="transparent" points="-4,4 -4,-482 1084,-482 1084,4 -4,4"/>
<!-- Node1 -->
<g id="node1" class="node">
<title>Node1</title>
<g id="a_node1"><a xlink:title=" ">
<polygon fill="#bfbfbf" stroke="black" points="474,-447.5 474,-477.5 587,-477.5 587,-447.5 474,-447.5"/>
<text text-anchor="start" x="482" y="-465.5" font-family="Helvetica,sans-Serif" font-size="10.00">include/engine/objects</text>
<text text-anchor="middle" x="530.5" y="-454.5" font-family="Helvetica,sans-Serif" font-size="10.00">/Ground.hpp</text>
</a>
</g>
</g>
<!-- Node2 -->
<g id="node2" class="node">
<title>Node2</title>
<g id="a_node2"><a xlink:href="_ground_8cpp.html" target="_top" xlink:title=" ">
<polygon fill="white" stroke="black" points="150.5,-380.5 150.5,-410.5 246.5,-410.5 246.5,-380.5 150.5,-380.5"/>
<text text-anchor="start" x="158.5" y="-398.5" font-family="Helvetica,sans-Serif" font-size="10.00">src/engine/objects</text>
<text text-anchor="middle" x="198.5" y="-387.5" font-family="Helvetica,sans-Serif" font-size="10.00">/Ground.cpp</text>
</a>
</g>
</g>
<!-- Node1&#45;&gt;Node2 -->
<g id="edge1" class="edge">
<title>Node1&#45;&gt;Node2</title>
<path fill="none" stroke="midnightblue" d="M463.8,-450.55C407.96,-441.07 326.26,-426.48 255.5,-411 252.61,-410.37 249.64,-409.69 246.65,-408.99"/>
<polygon fill="midnightblue" stroke="midnightblue" points="463.48,-454.04 473.92,-452.26 464.65,-447.14 463.48,-454.04"/>
</g>
<!-- Node3 -->
<g id="node3" class="node">
<title>Node3</title>
<g id="a_node3"><a xlink:href="_cell_8hpp.html" target="_top" xlink:title=" ">
<polygon fill="white" stroke="black" points="265,-380.5 265,-410.5 378,-410.5 378,-380.5 265,-380.5"/>
<text text-anchor="start" x="273" y="-398.5" font-family="Helvetica,sans-Serif" font-size="10.00">include/engine/objects</text>
<text text-anchor="middle" x="321.5" y="-387.5" font-family="Helvetica,sans-Serif" font-size="10.00">/Cell.hpp</text>
</a>
</g>
</g>
<!-- Node1&#45;&gt;Node3 -->
<g id="edge2" class="edge">
<title>Node1&#45;&gt;Node3</title>
<path fill="none" stroke="midnightblue" d="M475.66,-444.44C441.78,-433.91 398.83,-420.55 366.87,-410.61"/>
<polygon fill="midnightblue" stroke="midnightblue" points="474.82,-447.85 485.41,-447.48 476.9,-441.16 474.82,-447.85"/>
</g>
<!-- Node21 -->
<g id="node21" class="node">
<title>Node21</title>
<g id="a_node21"><a xlink:href="_ground_earth_8hpp.html" target="_top" xlink:title=" ">
<polygon fill="white" stroke="black" points="396.5,-380.5 396.5,-410.5 520.5,-410.5 520.5,-380.5 396.5,-380.5"/>
<text text-anchor="start" x="404.5" y="-398.5" font-family="Helvetica,sans-Serif" font-size="10.00">include/engine/objects</text>
<text text-anchor="middle" x="458.5" y="-387.5" font-family="Helvetica,sans-Serif" font-size="10.00">/ground/GroundEarth.hpp</text>
</a>
</g>
</g>
<!-- Node1&#45;&gt;Node21 -->
<g id="edge25" class="edge">
<title>Node1&#45;&gt;Node21</title>
<path fill="none" stroke="midnightblue" d="M507.35,-440.6C496.48,-430.78 483.8,-419.34 474.09,-410.58"/>
<polygon fill="midnightblue" stroke="midnightblue" points="505.11,-443.29 514.88,-447.4 509.8,-438.1 505.11,-443.29"/>
</g>
<!-- Node23 -->
<g id="node23" class="node">
<title>Node23</title>
<g id="a_node23"><a xlink:href="_ground_empty_8hpp.html" target="_top" xlink:title=" ">
<polygon fill="white" stroke="black" points="538.5,-380.5 538.5,-410.5 666.5,-410.5 666.5,-380.5 538.5,-380.5"/>
<text text-anchor="start" x="546.5" y="-398.5" font-family="Helvetica,sans-Serif" font-size="10.00">include/engine/objects</text>
<text text-anchor="middle" x="602.5" y="-387.5" font-family="Helvetica,sans-Serif" font-size="10.00">/ground/GroundEmpty.hpp</text>
</a>
</g>
</g>
<!-- Node1&#45;&gt;Node23 -->
<g id="edge29" class="edge">
<title>Node1&#45;&gt;Node23</title>
<path fill="none" stroke="midnightblue" d="M553.65,-440.6C564.52,-430.78 577.2,-419.34 586.91,-410.58"/>
<polygon fill="midnightblue" stroke="midnightblue" points="551.2,-438.1 546.12,-447.4 555.89,-443.29 551.2,-438.1"/>
</g>
<!-- Node25 -->
<g id="node25" class="node">
<title>Node25</title>
<g id="a_node25"><a xlink:href="_ground_water_8hpp.html" target="_top" xlink:title=" ">
<polygon fill="white" stroke="black" points="685,-380.5 685,-410.5 812,-410.5 812,-380.5 685,-380.5"/>
<text text-anchor="start" x="693" y="-398.5" font-family="Helvetica,sans-Serif" font-size="10.00">include/engine/objects</text>
<text text-anchor="middle" x="748.5" y="-387.5" font-family="Helvetica,sans-Serif" font-size="10.00">/ground/GroundWater.hpp</text>
</a>
</g>
</g>
<!-- Node1&#45;&gt;Node25 -->
<g id="edge32" class="edge">
<title>Node1&#45;&gt;Node25</title>
<path fill="none" stroke="midnightblue" d="M587.25,-444.58C622.66,-434.02 667.7,-420.59 701.17,-410.61"/>
<polygon fill="midnightblue" stroke="midnightblue" points="586.12,-441.26 577.53,-447.48 588.12,-447.97 586.12,-441.26"/>
</g>
<!-- Node27 -->
<g id="node27" class="node">
<title>Node27</title>
<g id="a_node27"><a xlink:href="_mineral_8hpp.html" target="_top" xlink:title=" ">
<polygon fill="white" stroke="black" points="830,-380.5 830,-410.5 943,-410.5 943,-380.5 830,-380.5"/>
<text text-anchor="start" x="838" y="-398.5" font-family="Helvetica,sans-Serif" font-size="10.00">include/engine/objects</text>
<text text-anchor="middle" x="886.5" y="-387.5" font-family="Helvetica,sans-Serif" font-size="10.00">/ground/Mineral.hpp</text>
</a>
</g>
</g>
<!-- Node1&#45;&gt;Node27 -->
<g id="edge35" class="edge">
<title>Node1&#45;&gt;Node27</title>
<path fill="none" stroke="midnightblue" d="M597.2,-450.85C656.29,-441.2 744.83,-426.2 821.5,-411 824.22,-410.46 827,-409.89 829.81,-409.31"/>
<polygon fill="midnightblue" stroke="midnightblue" points="596.56,-447.41 587.25,-452.47 597.68,-454.32 596.56,-447.41"/>
</g>
<!-- Node4 -->
<g id="node4" class="node">
<title>Node4</title>
<g id="a_node4"><a xlink:href="_cell_8cpp.html" target="_top" xlink:title=" ">
<polygon fill="white" stroke="black" points="275.5,-313.5 275.5,-343.5 371.5,-343.5 371.5,-313.5 275.5,-313.5"/>
<text text-anchor="start" x="283.5" y="-331.5" font-family="Helvetica,sans-Serif" font-size="10.00">src/engine/objects</text>
<text text-anchor="middle" x="323.5" y="-320.5" font-family="Helvetica,sans-Serif" font-size="10.00">/Cell.cpp</text>
</a>
</g>
</g>
<!-- Node3&#45;&gt;Node4 -->
<g id="edge3" class="edge">
<title>Node3&#45;&gt;Node4</title>
<path fill="none" stroke="midnightblue" d="M322.25,-370.11C322.53,-361.15 322.83,-351.32 323.07,-343.58"/>
<polygon fill="midnightblue" stroke="midnightblue" points="318.74,-370.29 321.93,-380.4 325.74,-370.51 318.74,-370.29"/>
</g>
<!-- Node5 -->
<g id="node5" class="node">
<title>Node5</title>
<g id="a_node5"><a xlink:href="_field_8hpp.html" target="_top" xlink:title=" ">
<polygon fill="white" stroke="black" points="136,-319 136,-338 257,-338 257,-319 136,-319"/>
<text text-anchor="middle" x="196.5" y="-326" font-family="Helvetica,sans-Serif" font-size="10.00">include/engine/Field.hpp</text>
</a>
</g>
</g>
<!-- Node3&#45;&gt;Node5 -->
<g id="edge4" class="edge">
<title>Node3&#45;&gt;Node5</title>
<path fill="none" stroke="midnightblue" d="M285.23,-375.64C261.31,-363.2 231.14,-347.51 212.86,-338.01"/>
<polygon fill="midnightblue" stroke="midnightblue" points="283.89,-378.89 294.38,-380.4 287.12,-372.68 283.89,-378.89"/>
</g>
<!-- Node19 -->
<g id="node19" class="node">
<title>Node19</title>
<g id="a_node19"><a xlink:href="_sprites_manager_8hpp.html" target="_top" xlink:title=" ">
<polygon fill="white" stroke="black" points="532,-319 532,-338 669,-338 669,-319 532,-319"/>
<text text-anchor="middle" x="600.5" y="-326" font-family="Helvetica,sans-Serif" font-size="10.00">include/SpritesManager.hpp</text>
</a>
</g>
</g>
<!-- Node3&#45;&gt;Node19 -->
<g id="edge21" class="edge">
<title>Node3&#45;&gt;Node19</title>
<path fill="none" stroke="midnightblue" d="M388.31,-378.93C443.31,-366.12 519.24,-348.43 563.78,-338.06"/>
<polygon fill="midnightblue" stroke="midnightblue" points="387.24,-375.59 378.3,-381.27 388.83,-382.41 387.24,-375.59"/>
</g>
<!-- Node6 -->
<g id="node6" class="node">
<title>Node6</title>
<g id="a_node6"><a xlink:href="_field_8cpp.html" target="_top" xlink:title=" ">
<polygon fill="white" stroke="black" points="334.5,-257.5 334.5,-276.5 438.5,-276.5 438.5,-257.5 334.5,-257.5"/>
<text text-anchor="middle" x="386.5" y="-264.5" font-family="Helvetica,sans-Serif" font-size="10.00">src/engine/Field.cpp</text>
</a>
</g>
</g>
<!-- Node5&#45;&gt;Node6 -->
<g id="edge5" class="edge">
<title>Node5&#45;&gt;Node6</title>
<path fill="none" stroke="midnightblue" d="M233.6,-315.88C270.54,-304.32 326.34,-286.84 359.33,-276.51"/>
<polygon fill="midnightblue" stroke="midnightblue" points="232.22,-312.65 223.72,-318.98 234.31,-319.33 232.22,-312.65"/>
</g>
<!-- Node7 -->
<g id="node7" class="node">
<title>Node7</title>
<g id="a_node7"><a xlink:href="_world_actor_8hpp.html" target="_top" xlink:title=" ">
<polygon fill="white" stroke="black" points="122.5,-257.5 122.5,-276.5 270.5,-276.5 270.5,-257.5 122.5,-257.5"/>
<text text-anchor="middle" x="196.5" y="-264.5" font-family="Helvetica,sans-Serif" font-size="10.00">include/engine/WorldActor.hpp</text>
</a>
</g>
</g>
<!-- Node5&#45;&gt;Node7 -->
<g id="edge6" class="edge">
<title>Node5&#45;&gt;Node7</title>
<path fill="none" stroke="midnightblue" d="M196.5,-308.82C196.5,-298 196.5,-284.9 196.5,-276.51"/>
<polygon fill="midnightblue" stroke="midnightblue" points="193,-308.98 196.5,-318.98 200,-308.98 193,-308.98"/>
</g>
<!-- Node8 -->
<g id="node8" class="node">
<title>Node8</title>
<g id="a_node8"><a xlink:href="_world_actor_8cpp.html" target="_top" xlink:title=" ">
<polygon fill="white" stroke="black" points="131,-196 131,-215 262,-215 262,-196 131,-196"/>
<text text-anchor="middle" x="196.5" y="-203" font-family="Helvetica,sans-Serif" font-size="10.00">src/engine/WorldActor.cpp</text>
</a>
</g>
</g>
<!-- Node7&#45;&gt;Node8 -->
<g id="edge7" class="edge">
<title>Node7&#45;&gt;Node8</title>
<path fill="none" stroke="midnightblue" d="M196.5,-247.32C196.5,-236.5 196.5,-223.4 196.5,-215.01"/>
<polygon fill="midnightblue" stroke="midnightblue" points="193,-247.48 196.5,-257.48 200,-247.48 193,-247.48"/>
</g>
<!-- Node9 -->
<g id="node9" class="node">
<title>Node9</title>
<g id="a_node9"><a xlink:href="_player_8hpp.html" target="_top" xlink:title=" ">
<polygon fill="white" stroke="black" points="280,-190.5 280,-220.5 393,-220.5 393,-190.5 280,-190.5"/>
<text text-anchor="start" x="288" y="-208.5" font-family="Helvetica,sans-Serif" font-size="10.00">include/engine/objects</text>
<text text-anchor="middle" x="336.5" y="-197.5" font-family="Helvetica,sans-Serif" font-size="10.00">/Player.hpp</text>
</a>
</g>
</g>
<!-- Node7&#45;&gt;Node9 -->
<g id="edge8" class="edge">
<title>Node7&#45;&gt;Node9</title>
<path fill="none" stroke="midnightblue" d="M226,-253.46C248.68,-243.82 280,-230.51 303.5,-220.52"/>
<polygon fill="midnightblue" stroke="midnightblue" points="224.39,-250.34 216.56,-257.48 227.13,-256.78 224.39,-250.34"/>
</g>
<!-- Node17 -->
<g id="node17" class="node">
<title>Node17</title>
<g id="a_node17"><a xlink:href="_unit_8hpp.html" target="_top" xlink:title=" ">
<polygon fill="white" stroke="black" points="0,-190.5 0,-220.5 113,-220.5 113,-190.5 0,-190.5"/>
<text text-anchor="start" x="8" y="-208.5" font-family="Helvetica,sans-Serif" font-size="10.00">include/engine/objects</text>
<text text-anchor="middle" x="56.5" y="-197.5" font-family="Helvetica,sans-Serif" font-size="10.00">/Unit.hpp</text>
</a>
</g>
</g>
<!-- Node7&#45;&gt;Node17 -->
<g id="edge16" class="edge">
<title>Node7&#45;&gt;Node17</title>
<path fill="none" stroke="midnightblue" d="M167,-253.46C144.32,-243.82 113,-230.51 89.5,-220.52"/>
<polygon fill="midnightblue" stroke="midnightblue" points="165.87,-256.78 176.44,-257.48 168.61,-250.34 165.87,-256.78"/>
</g>
<!-- Node10 -->
<g id="node10" class="node">
<title>Node10</title>
<g id="a_node10"><a xlink:href="_player_8cpp.html" target="_top" xlink:title=" ">
<polygon fill="white" stroke="black" points="222.5,-123.5 222.5,-153.5 318.5,-153.5 318.5,-123.5 222.5,-123.5"/>
<text text-anchor="start" x="230.5" y="-141.5" font-family="Helvetica,sans-Serif" font-size="10.00">src/engine/objects</text>
<text text-anchor="middle" x="270.5" y="-130.5" font-family="Helvetica,sans-Serif" font-size="10.00">/Player.cpp</text>
</a>
</g>
</g>
<!-- Node9&#45;&gt;Node10 -->
<g id="edge9" class="edge">
<title>Node9&#45;&gt;Node10</title>
<path fill="none" stroke="midnightblue" d="M314.99,-183.31C305.09,-173.56 293.61,-162.26 284.79,-153.58"/>
<polygon fill="midnightblue" stroke="midnightblue" points="312.6,-185.87 322.18,-190.4 317.51,-180.89 312.6,-185.87"/>
</g>
<!-- Node11 -->
<g id="node11" class="node">
<title>Node11</title>
<g id="a_node11"><a xlink:href="_engine_8hpp.html" target="_top" xlink:title=" ">
<polygon fill="white" stroke="black" points="225.5,-67.5 225.5,-86.5 323.5,-86.5 323.5,-67.5 225.5,-67.5"/>
<text text-anchor="middle" x="274.5" y="-74.5" font-family="Helvetica,sans-Serif" font-size="10.00">include/Engine.hpp</text>
</a>
</g>
</g>
<!-- Node9&#45;&gt;Node11 -->
<g id="edge10" class="edge">
<title>Node9&#45;&gt;Node11</title>
<path fill="none" stroke="midnightblue" d="M338.39,-180.1C338.65,-163.15 336.81,-140.53 327.5,-123 319,-107.01 302.27,-94.31 289.87,-86.53"/>
<polygon fill="midnightblue" stroke="midnightblue" points="334.89,-180.19 337.98,-190.32 341.88,-180.47 334.89,-180.19"/>
</g>
<!-- Node12 -->
<g id="node12" class="node">
<title>Node12</title>
<g id="a_node12"><a xlink:href="_drawable_8cpp.html" target="_top" xlink:title=" ">
<polygon fill="white" stroke="black" points="333,-6 333,-25 456,-25 456,-6 333,-6"/>
<text text-anchor="middle" x="394.5" y="-13" font-family="Helvetica,sans-Serif" font-size="10.00">src/engine/Drawable.cpp</text>
</a>
</g>
</g>
<!-- Node11&#45;&gt;Node12 -->
<g id="edge11" class="edge">
<title>Node11&#45;&gt;Node12</title>
<path fill="none" stroke="midnightblue" d="M300.68,-63.02C323.95,-51.48 357.3,-34.94 377.34,-25.01"/>
<polygon fill="midnightblue" stroke="midnightblue" points="299.1,-59.9 291.69,-67.48 302.21,-66.17 299.1,-59.9"/>
</g>
<!-- Node13 -->
<g id="node13" class="node">
<title>Node13</title>
<g id="a_node13"><a xlink:href="_unit_8cpp.html" target="_top" xlink:title=" ">
<polygon fill="white" stroke="black" points="6.5,-0.5 6.5,-30.5 102.5,-30.5 102.5,-0.5 6.5,-0.5"/>
<text text-anchor="start" x="14.5" y="-18.5" font-family="Helvetica,sans-Serif" font-size="10.00">src/engine/objects</text>
<text text-anchor="middle" x="54.5" y="-7.5" font-family="Helvetica,sans-Serif" font-size="10.00">/Unit.cpp</text>
</a>
</g>
</g>
<!-- Node11&#45;&gt;Node13 -->
<g id="edge12" class="edge">
<title>Node11&#45;&gt;Node13</title>
<path fill="none" stroke="midnightblue" d="M233,-64.78C195.91,-54.74 141.55,-40.04 102.58,-29.5"/>
<polygon fill="midnightblue" stroke="midnightblue" points="232.41,-68.24 242.98,-67.48 234.24,-61.49 232.41,-68.24"/>
</g>
<!-- Node14 -->
<g id="node14" class="node">
<title>Node14</title>
<g id="a_node14"><a xlink:href="_unit_group_8cpp.html" target="_top" xlink:title=" ">
<polygon fill="white" stroke="black" points="120.5,-0.5 120.5,-30.5 216.5,-30.5 216.5,-0.5 120.5,-0.5"/>
<text text-anchor="start" x="128.5" y="-18.5" font-family="Helvetica,sans-Serif" font-size="10.00">src/engine/objects</text>
<text text-anchor="middle" x="168.5" y="-7.5" font-family="Helvetica,sans-Serif" font-size="10.00">/UnitGroup.cpp</text>
</a>
</g>
</g>
<!-- Node11&#45;&gt;Node14 -->
<g id="edge13" class="edge">
<title>Node11&#45;&gt;Node14</title>
<path fill="none" stroke="midnightblue" d="M250.52,-62.54C233.51,-52.99 210.72,-40.2 193.48,-30.52"/>
<polygon fill="midnightblue" stroke="midnightblue" points="248.88,-65.63 259.31,-67.48 252.31,-59.53 248.88,-65.63"/>
</g>
<!-- Node15 -->
<g id="node15" class="node">
<title>Node15</title>
<g id="a_node15"><a xlink:href="_engine_8cpp.html" target="_top" xlink:title=" ">
<polygon fill="white" stroke="black" points="234.5,-6 234.5,-25 314.5,-25 314.5,-6 234.5,-6"/>
<text text-anchor="middle" x="274.5" y="-13" font-family="Helvetica,sans-Serif" font-size="10.00">src/Engine.cpp</text>
</a>
</g>
</g>
<!-- Node11&#45;&gt;Node15 -->
<g id="edge14" class="edge">
<title>Node11&#45;&gt;Node15</title>
<path fill="none" stroke="midnightblue" d="M274.5,-57.32C274.5,-46.5 274.5,-33.4 274.5,-25.01"/>
<polygon fill="midnightblue" stroke="midnightblue" points="271,-57.48 274.5,-67.48 278,-57.48 271,-57.48"/>
</g>
<!-- Node16 -->
<g id="node16" class="node">
<title>Node16</title>
<g id="a_node16"><a xlink:href="_game_8cpp.html" target="_top" xlink:title=" ">
<polygon fill="white" stroke="black" points="474,-6 474,-25 551,-25 551,-6 474,-6"/>
<text text-anchor="middle" x="512.5" y="-13" font-family="Helvetica,sans-Serif" font-size="10.00">src/Game.cpp</text>
</a>
</g>
</g>
<!-- Node11&#45;&gt;Node16 -->
<g id="edge15" class="edge">
<title>Node11&#45;&gt;Node16</title>
<path fill="none" stroke="midnightblue" d="M323.52,-65.25C362.01,-56.6 416.87,-43.82 464.5,-31 471.22,-29.19 478.43,-27.09 485.17,-25.07"/>
<polygon fill="midnightblue" stroke="midnightblue" points="322.61,-61.87 313.61,-67.47 324.13,-68.7 322.61,-61.87"/>
</g>
<!-- Node17&#45;&gt;Node13 -->
<g id="edge17" class="edge">
<title>Node17&#45;&gt;Node13</title>
<path fill="none" stroke="midnightblue" d="M56.24,-180.21C55.82,-140.37 54.99,-62.37 54.65,-30.54"/>
<polygon fill="midnightblue" stroke="midnightblue" points="52.74,-180.41 56.35,-190.37 59.74,-180.33 52.74,-180.41"/>
</g>
<!-- Node18 -->
<g id="node18" class="node">
<title>Node18</title>
<g id="a_node18"><a xlink:href="_unit_group_8hpp.html" target="_top" xlink:title=" ">
<polygon fill="white" stroke="black" points="91,-123.5 91,-153.5 204,-153.5 204,-123.5 91,-123.5"/>
<text text-anchor="start" x="99" y="-141.5" font-family="Helvetica,sans-Serif" font-size="10.00">include/engine/objects</text>
<text text-anchor="middle" x="147.5" y="-130.5" font-family="Helvetica,sans-Serif" font-size="10.00">/UnitGroup.hpp</text>
</a>
</g>
</g>
<!-- Node17&#45;&gt;Node18 -->
<g id="edge18" class="edge">
<title>Node17&#45;&gt;Node18</title>
<path fill="none" stroke="midnightblue" d="M84.57,-184.45C98.57,-174.45 115.16,-162.6 127.79,-153.58"/>
<polygon fill="midnightblue" stroke="midnightblue" points="82.35,-181.74 76.25,-190.4 86.42,-187.43 82.35,-181.74"/>
</g>
<!-- Node18&#45;&gt;Node11 -->
<g id="edge20" class="edge">
<title>Node18&#45;&gt;Node11</title>
<path fill="none" stroke="midnightblue" d="M186.81,-119.08C209.88,-108.28 237.95,-95.12 256.02,-86.66"/>
<polygon fill="midnightblue" stroke="midnightblue" points="185.17,-115.99 177.6,-123.4 188.14,-122.33 185.17,-115.99"/>
</g>
<!-- Node18&#45;&gt;Node14 -->
<g id="edge19" class="edge">
<title>Node18&#45;&gt;Node14</title>
<path fill="none" stroke="midnightblue" d="M151.73,-113.12C156.02,-88.44 162.49,-51.11 166.01,-30.84"/>
<polygon fill="midnightblue" stroke="midnightblue" points="148.25,-112.69 149.99,-123.14 155.15,-113.89 148.25,-112.69"/>
</g>
<!-- Node19&#45;&gt;Node6 -->
<g id="edge22" class="edge">
<title>Node19&#45;&gt;Node6</title>
<path fill="none" stroke="midnightblue" d="M560.04,-316.25C518.46,-304.69 454.66,-286.95 417.1,-276.51"/>
<polygon fill="midnightblue" stroke="midnightblue" points="559.27,-319.67 569.84,-318.98 561.14,-312.92 559.27,-319.67"/>
</g>
<!-- Node19&#45;&gt;Node16 -->
<g id="edge23" class="edge">
<title>Node19&#45;&gt;Node16</title>
<path fill="none" stroke="midnightblue" d="M573.77,-313.83C559.27,-305.13 542.18,-292.57 531.5,-277 513.15,-250.24 512.5,-238.95 512.5,-206.5 512.5,-206.5 512.5,-206.5 512.5,-137.5 512.5,-95.28 512.5,-44.76 512.5,-25.01"/>
<polygon fill="midnightblue" stroke="midnightblue" points="572.41,-317.08 582.83,-318.98 575.87,-311 572.41,-317.08"/>
</g>
<!-- Node20 -->
<g id="node20" class="node">
<title>Node20</title>
<g id="a_node20"><a xlink:href="_sprites_manager_8cpp.html" target="_top" xlink:title=" ">
<polygon fill="white" stroke="black" points="541,-257.5 541,-276.5 660,-276.5 660,-257.5 541,-257.5"/>
<text text-anchor="middle" x="600.5" y="-264.5" font-family="Helvetica,sans-Serif" font-size="10.00">src/SpritesManager.cpp</text>
</a>
</g>
</g>
<!-- Node19&#45;&gt;Node20 -->
<g id="edge24" class="edge">
<title>Node19&#45;&gt;Node20</title>
<path fill="none" stroke="midnightblue" d="M600.5,-308.82C600.5,-298 600.5,-284.9 600.5,-276.51"/>
<polygon fill="midnightblue" stroke="midnightblue" points="597,-308.98 600.5,-318.98 604,-308.98 597,-308.98"/>
</g>
<!-- Node21&#45;&gt;Node4 -->
<g id="edge26" class="edge">
<title>Node21&#45;&gt;Node4</title>
<path fill="none" stroke="midnightblue" d="M420.06,-375.99C398.66,-365.69 372.45,-353.07 352.74,-343.58"/>
<polygon fill="midnightblue" stroke="midnightblue" points="418.68,-379.21 429.21,-380.4 421.72,-372.9 418.68,-379.21"/>
</g>
<!-- Node21&#45;&gt;Node19 -->
<g id="edge28" class="edge">
<title>Node21&#45;&gt;Node19</title>
<path fill="none" stroke="midnightblue" d="M498.63,-376.13C525.96,-363.62 560.87,-347.64 581.92,-338.01"/>
<polygon fill="midnightblue" stroke="midnightblue" points="496.95,-373.05 489.31,-380.4 499.86,-379.42 496.95,-373.05"/>
</g>
<!-- Node22 -->
<g id="node22" class="node">
<title>Node22</title>
<g id="a_node22"><a xlink:href="_ground_earth_8cpp.html" target="_top" xlink:title=" ">
<polygon fill="white" stroke="black" points="389.5,-313.5 389.5,-343.5 513.5,-343.5 513.5,-313.5 389.5,-313.5"/>
<text text-anchor="start" x="397.5" y="-331.5" font-family="Helvetica,sans-Serif" font-size="10.00">src/engine/objects</text>
<text text-anchor="middle" x="451.5" y="-320.5" font-family="Helvetica,sans-Serif" font-size="10.00">/ground/GroundEarth.cpp</text>
</a>
</g>
</g>
<!-- Node21&#45;&gt;Node22 -->
<g id="edge27" class="edge">
<title>Node21&#45;&gt;Node22</title>
<path fill="none" stroke="midnightblue" d="M455.9,-370.4C454.93,-361.37 453.86,-351.41 453.02,-343.58"/>
<polygon fill="midnightblue" stroke="midnightblue" points="452.43,-370.83 456.98,-380.4 459.39,-370.08 452.43,-370.83"/>
</g>
<!-- Node23&#45;&gt;Node19 -->
<g id="edge31" class="edge">
<title>Node23&#45;&gt;Node19</title>
<path fill="none" stroke="midnightblue" d="M601.75,-370.25C601.41,-359.02 601.02,-346.38 600.77,-338.19"/>
<polygon fill="midnightblue" stroke="midnightblue" points="598.26,-370.51 602.07,-380.4 605.26,-370.29 598.26,-370.51"/>
</g>
<!-- Node24 -->
<g id="node24" class="node">
<title>Node24</title>
<g id="a_node24"><a xlink:href="_ground_empty_8cpp.html" target="_top" xlink:title=" ">
<polygon fill="white" stroke="black" points="687.5,-313.5 687.5,-343.5 815.5,-343.5 815.5,-313.5 687.5,-313.5"/>
<text text-anchor="start" x="695.5" y="-331.5" font-family="Helvetica,sans-Serif" font-size="10.00">src/engine/objects</text>
<text text-anchor="middle" x="751.5" y="-320.5" font-family="Helvetica,sans-Serif" font-size="10.00">/ground/GroundEmpty.cpp</text>
</a>
</g>
</g>
<!-- Node23&#45;&gt;Node24 -->
<g id="edge30" class="edge">
<title>Node23&#45;&gt;Node24</title>
<path fill="none" stroke="midnightblue" d="M644.29,-376.27C668.02,-365.92 697.28,-353.15 719.23,-343.58"/>
<polygon fill="midnightblue" stroke="midnightblue" points="642.6,-373.19 634.83,-380.4 645.4,-379.61 642.6,-373.19"/>
</g>
<!-- Node25&#45;&gt;Node19 -->
<g id="edge34" class="edge">
<title>Node25&#45;&gt;Node19</title>
<path fill="none" stroke="midnightblue" d="M707.05,-376.3C678.51,-363.76 641.9,-347.68 619.87,-338.01"/>
<polygon fill="midnightblue" stroke="midnightblue" points="705.82,-379.58 716.39,-380.4 708.64,-373.17 705.82,-379.58"/>
</g>
<!-- Node26 -->
<g id="node26" class="node">
<title>Node26</title>
<g id="a_node26"><a xlink:href="_ground_water_8cpp.html" target="_top" xlink:title=" ">
<polygon fill="white" stroke="black" points="834,-313.5 834,-343.5 961,-343.5 961,-313.5 834,-313.5"/>
<text text-anchor="start" x="842" y="-331.5" font-family="Helvetica,sans-Serif" font-size="10.00">src/engine/objects</text>
<text text-anchor="middle" x="897.5" y="-320.5" font-family="Helvetica,sans-Serif" font-size="10.00">/ground/GroundWater.cpp</text>
</a>
</g>
</g>
<!-- Node25&#45;&gt;Node26 -->
<g id="edge33" class="edge">
<title>Node25&#45;&gt;Node26</title>
<path fill="none" stroke="midnightblue" d="M790.29,-376.27C814.02,-365.92 843.28,-353.15 865.23,-343.58"/>
<polygon fill="midnightblue" stroke="midnightblue" points="788.6,-373.19 780.83,-380.4 791.4,-379.61 788.6,-373.19"/>
</g>
<!-- Node27&#45;&gt;Node19 -->
<g id="edge37" class="edge">
<title>Node27&#45;&gt;Node19</title>
<path fill="none" stroke="midnightblue" d="M820.07,-379.4C763.56,-366.56 684.41,-348.57 638.2,-338.07"/>
<polygon fill="midnightblue" stroke="midnightblue" points="819.47,-382.85 830,-381.66 821.02,-376.03 819.47,-382.85"/>
</g>
<!-- Node28 -->
<g id="node28" class="node">
<title>Node28</title>
<g id="a_node28"><a xlink:href="_mineral_8cpp.html" target="_top" xlink:title=" ">
<polygon fill="white" stroke="black" points="979,-313.5 979,-343.5 1080,-343.5 1080,-313.5 979,-313.5"/>
<text text-anchor="start" x="987" y="-331.5" font-family="Helvetica,sans-Serif" font-size="10.00">src/engine/objects</text>
<text text-anchor="middle" x="1029.5" y="-320.5" font-family="Helvetica,sans-Serif" font-size="10.00">/ground/Mineral.cpp</text>
</a>
</g>
</g>
<!-- Node27&#45;&gt;Node28 -->
<g id="edge36" class="edge">
<title>Node27&#45;&gt;Node28</title>
<path fill="none" stroke="midnightblue" d="M926.91,-376.13C949.63,-365.8 977.56,-353.11 998.53,-343.58"/>
<polygon fill="midnightblue" stroke="midnightblue" points="925.18,-373.07 917.53,-380.4 928.08,-379.44 925.18,-373.07"/>
</g>
</g>
</svg>
