<?xml version="1.0" encoding="UTF-8" standalone="no"?>
<!DOCTYPE svg PUBLIC "-//W3C//DTD SVG 1.1//EN"
 "http://www.w3.org/Graphics/SVG/1.1/DTD/svg11.dtd">
<!-- Generated by graphviz version 2.47.0 (20210407.0042)
 -->
<!-- Title: include/engine/objects/Ground.hpp Pages: 1 -->
<svg width="977pt" height="486pt"
 viewBox="0.00 0.00 976.50 486.00" xmlns="http://www.w3.org/2000/svg" xmlns:xlink="http://www.w3.org/1999/xlink">
<g id="graph0" class="graph" transform="scale(1 1) rotate(0) translate(4 482)">
<title>include/engine/objects/Ground.hpp</title>
<polygon fill="white" stroke="transparent" points="-4,4 -4,-482 972.5,-482 972.5,4 -4,4"/>
<!-- Node1 -->
<g id="node1" class="node">
<title>Node1</title>
<g id="a_node1"><a xlink:title=" ">
<polygon fill="#bfbfbf" stroke="black" points="365.5,-447.5 365.5,-477.5 478.5,-477.5 478.5,-447.5 365.5,-447.5"/>
<text text-anchor="start" x="373.5" y="-465.5" font-family="Helvetica,sans-Serif" font-size="10.00">include/engine/objects</text>
<text text-anchor="middle" x="422" y="-454.5" font-family="Helvetica,sans-Serif" font-size="10.00">/Ground.hpp</text>
</a>
</g>
</g>
<!-- Node2 -->
<g id="node2" class="node">
<title>Node2</title>
<g id="a_node2"><a xlink:href="_ground_8cpp.html" target="_top" xlink:title=" ">
<polygon fill="white" stroke="black" points="42,-380.5 42,-410.5 138,-410.5 138,-380.5 42,-380.5"/>
<text text-anchor="start" x="50" y="-398.5" font-family="Helvetica,sans-Serif" font-size="10.00">src/engine/objects</text>
<text text-anchor="middle" x="90" y="-387.5" font-family="Helvetica,sans-Serif" font-size="10.00">/Ground.cpp</text>
</a>
</g>
</g>
<!-- Node1&#45;&gt;Node2 -->
<g id="edge1" class="edge">
<title>Node1&#45;&gt;Node2</title>
<path fill="none" stroke="midnightblue" d="M355.3,-450.55C299.46,-441.07 217.76,-426.48 147,-411 144.11,-410.37 141.14,-409.69 138.15,-408.99"/>
<polygon fill="midnightblue" stroke="midnightblue" points="354.98,-454.04 365.42,-452.26 356.15,-447.14 354.98,-454.04"/>
</g>
<!-- Node3 -->
<g id="node3" class="node">
<title>Node3</title>
<g id="a_node3"><a xlink:href="_cell_8hpp.html" target="_top" xlink:title=" ">
<polygon fill="white" stroke="black" points="156.5,-380.5 156.5,-410.5 269.5,-410.5 269.5,-380.5 156.5,-380.5"/>
<text text-anchor="start" x="164.5" y="-398.5" font-family="Helvetica,sans-Serif" font-size="10.00">include/engine/objects</text>
<text text-anchor="middle" x="213" y="-387.5" font-family="Helvetica,sans-Serif" font-size="10.00">/Cell.hpp</text>
</a>
</g>
</g>
<!-- Node1&#45;&gt;Node3 -->
<g id="edge2" class="edge">
<title>Node1&#45;&gt;Node3</title>
<path fill="none" stroke="midnightblue" d="M367.16,-444.44C333.28,-433.91 290.33,-420.55 258.37,-410.61"/>
<polygon fill="midnightblue" stroke="midnightblue" points="366.32,-447.85 376.91,-447.48 368.4,-441.16 366.32,-447.85"/>
</g>
<!-- Node21 -->
<g id="node21" class="node">
<title>Node21</title>
<g id="a_node21"><a xlink:href="_ground_earth_8hpp.html" target="_top" xlink:title=" ">
<polygon fill="white" stroke="black" points="288,-380.5 288,-410.5 412,-410.5 412,-380.5 288,-380.5"/>
<text text-anchor="start" x="296" y="-398.5" font-family="Helvetica,sans-Serif" font-size="10.00">include/engine/objects</text>
<text text-anchor="middle" x="350" y="-387.5" font-family="Helvetica,sans-Serif" font-size="10.00">/ground/GroundEarth.hpp</text>
</a>
</g>
</g>
<!-- Node1&#45;&gt;Node21 -->
<g id="edge23" class="edge">
<title>Node1&#45;&gt;Node21</title>
<path fill="none" stroke="midnightblue" d="M398.85,-440.6C387.98,-430.78 375.3,-419.34 365.59,-410.58"/>
<polygon fill="midnightblue" stroke="midnightblue" points="396.61,-443.29 406.38,-447.4 401.3,-438.1 396.61,-443.29"/>
</g>
<!-- Node23 -->
<g id="node23" class="node">
<title>Node23</title>
<g id="a_node23"><a xlink:href="_ground_empty_8hpp.html" target="_top" xlink:title=" ">
<polygon fill="white" stroke="black" points="430,-380.5 430,-410.5 558,-410.5 558,-380.5 430,-380.5"/>
<text text-anchor="start" x="438" y="-398.5" font-family="Helvetica,sans-Serif" font-size="10.00">include/engine/objects</text>
<text text-anchor="middle" x="494" y="-387.5" font-family="Helvetica,sans-Serif" font-size="10.00">/ground/GroundEmpty.hpp</text>
</a>
</g>
</g>
<!-- Node1&#45;&gt;Node23 -->
<g id="edge26" class="edge">
<title>Node1&#45;&gt;Node23</title>
<path fill="none" stroke="midnightblue" d="M445.15,-440.6C456.02,-430.78 468.7,-419.34 478.41,-410.58"/>
<polygon fill="midnightblue" stroke="midnightblue" points="442.7,-438.1 437.62,-447.4 447.39,-443.29 442.7,-438.1"/>
</g>
<!-- Node25 -->
<g id="node25" class="node">
<title>Node25</title>
<g id="a_node25"><a xlink:href="_ground_water_8hpp.html" target="_top" xlink:title=" ">
<polygon fill="white" stroke="black" points="576.5,-380.5 576.5,-410.5 703.5,-410.5 703.5,-380.5 576.5,-380.5"/>
<text text-anchor="start" x="584.5" y="-398.5" font-family="Helvetica,sans-Serif" font-size="10.00">include/engine/objects</text>
<text text-anchor="middle" x="640" y="-387.5" font-family="Helvetica,sans-Serif" font-size="10.00">/ground/GroundWater.hpp</text>
</a>
</g>
</g>
<!-- Node1&#45;&gt;Node25 -->
<g id="edge29" class="edge">
<title>Node1&#45;&gt;Node25</title>
<path fill="none" stroke="midnightblue" d="M478.75,-444.58C514.16,-434.02 559.2,-420.59 592.67,-410.61"/>
<polygon fill="midnightblue" stroke="midnightblue" points="477.62,-441.26 469.03,-447.48 479.62,-447.97 477.62,-441.26"/>
</g>
<!-- Node27 -->
<g id="node27" class="node">
<title>Node27</title>
<g id="a_node27"><a xlink:href="_mineral_8hpp.html" target="_top" xlink:title=" ">
<polygon fill="white" stroke="black" points="721.5,-380.5 721.5,-410.5 834.5,-410.5 834.5,-380.5 721.5,-380.5"/>
<text text-anchor="start" x="729.5" y="-398.5" font-family="Helvetica,sans-Serif" font-size="10.00">include/engine/objects</text>
<text text-anchor="middle" x="778" y="-387.5" font-family="Helvetica,sans-Serif" font-size="10.00">/ground/Mineral.hpp</text>
</a>
</g>
</g>
<!-- Node1&#45;&gt;Node27 -->
<g id="edge32" class="edge">
<title>Node1&#45;&gt;Node27</title>
<path fill="none" stroke="midnightblue" d="M488.46,-450.78C547.34,-441.08 635.57,-426.04 712,-411 714.99,-410.41 718.06,-409.79 721.15,-409.16"/>
<polygon fill="midnightblue" stroke="midnightblue" points="487.84,-447.33 478.54,-452.41 488.98,-454.24 487.84,-447.33"/>
</g>
<!-- Node4 -->
<g id="node4" class="node">
<title>Node4</title>
<g id="a_node4"><a xlink:href="_cell_8cpp.html" target="_top" xlink:title=" ">
<polygon fill="white" stroke="black" points="165,-313.5 165,-343.5 261,-343.5 261,-313.5 165,-313.5"/>
<text text-anchor="start" x="173" y="-331.5" font-family="Helvetica,sans-Serif" font-size="10.00">src/engine/objects</text>
<text text-anchor="middle" x="213" y="-320.5" font-family="Helvetica,sans-Serif" font-size="10.00">/Cell.cpp</text>
</a>
</g>
</g>
<!-- Node3&#45;&gt;Node4 -->
<g id="edge3" class="edge">
<title>Node3&#45;&gt;Node4</title>
<path fill="none" stroke="midnightblue" d="M213,-370.11C213,-361.15 213,-351.32 213,-343.58"/>
<polygon fill="midnightblue" stroke="midnightblue" points="209.5,-370.4 213,-380.4 216.5,-370.4 209.5,-370.4"/>
</g>
<!-- Node5 -->
<g id="node5" class="node">
<title>Node5</title>
<g id="a_node5"><a xlink:href="_field_8hpp.html" target="_top" xlink:title=" ">
<polygon fill="white" stroke="black" points="25.5,-319 25.5,-338 146.5,-338 146.5,-319 25.5,-319"/>
<text text-anchor="middle" x="86" y="-326" font-family="Helvetica,sans-Serif" font-size="10.00">include/engine/Field.hpp</text>
</a>
</g>
</g>
<!-- Node3&#45;&gt;Node5 -->
<g id="edge4" class="edge">
<title>Node3&#45;&gt;Node5</title>
<path fill="none" stroke="midnightblue" d="M176.47,-375.8C152.12,-363.34 121.28,-347.56 102.62,-338.01"/>
<polygon fill="midnightblue" stroke="midnightblue" points="174.95,-378.96 185.44,-380.4 178.14,-372.72 174.95,-378.96"/>
</g>
<!-- Node19 -->
<g id="node19" class="node">
<title>Node19</title>
<g id="a_node19"><a xlink:href="_sprites_manager_8hpp.html" target="_top" xlink:title=" ">
<polygon fill="white" stroke="black" points="567.5,-319 567.5,-338 704.5,-338 704.5,-319 567.5,-319"/>
<text text-anchor="middle" x="636" y="-326" font-family="Helvetica,sans-Serif" font-size="10.00">include/SpritesManager.hpp</text>
</a>
</g>
</g>
<!-- Node3&#45;&gt;Node19 -->
<g id="edge19" class="edge">
<title>Node3&#45;&gt;Node19</title>
<path fill="none" stroke="midnightblue" d="M279.71,-379.98C403.88,-358.8 437.63,-362.94 558,-344 569.16,-342.24 581.17,-340.13 592.34,-338.06"/>
<polygon fill="midnightblue" stroke="midnightblue" points="279.08,-376.53 269.82,-381.68 280.27,-383.43 279.08,-376.53"/>
</g>
<!-- Node6 -->
<g id="node6" class="node">
<title>Node6</title>
<g id="a_node6"><a xlink:href="_field_8cpp.html" target="_top" xlink:title=" ">
<polygon fill="white" stroke="black" points="274,-257.5 274,-276.5 378,-276.5 378,-257.5 274,-257.5"/>
<text text-anchor="middle" x="326" y="-264.5" font-family="Helvetica,sans-Serif" font-size="10.00">src/engine/Field.cpp</text>
</a>
</g>
</g>
<!-- Node5&#45;&gt;Node6 -->
<g id="edge5" class="edge">
<title>Node5&#45;&gt;Node6</title>
<path fill="none" stroke="midnightblue" d="M130.2,-316.54C176.8,-304.99 249.2,-287.04 291.68,-276.51"/>
<polygon fill="midnightblue" stroke="midnightblue" points="129.25,-313.17 120.39,-318.98 130.93,-319.97 129.25,-313.17"/>
</g>
<!-- Node7 -->
<g id="node7" class="node">
<title>Node7</title>
<g id="a_node7"><a xlink:href="_world_actor_8hpp.html" target="_top" xlink:title=" ">
<polygon fill="white" stroke="black" points="60,-257.5 60,-276.5 208,-276.5 208,-257.5 60,-257.5"/>
<text text-anchor="middle" x="134" y="-264.5" font-family="Helvetica,sans-Serif" font-size="10.00">include/engine/WorldActor.hpp</text>
</a>
</g>
</g>
<!-- Node5&#45;&gt;Node7 -->
<g id="edge6" class="edge">
<title>Node5&#45;&gt;Node7</title>
<path fill="none" stroke="midnightblue" d="M99.17,-311.17C108.22,-299.95 119.87,-285.52 127.14,-276.51"/>
<polygon fill="midnightblue" stroke="midnightblue" points="96.43,-308.99 92.88,-318.98 101.88,-313.39 96.43,-308.99"/>
</g>
<!-- Node8 -->
<g id="node8" class="node">
<title>Node8</title>
<g id="a_node8"><a xlink:href="_world_actor_8cpp.html" target="_top" xlink:title=" ">
<polygon fill="white" stroke="black" points="274.5,-196 274.5,-215 405.5,-215 405.5,-196 274.5,-196"/>
<text text-anchor="middle" x="340" y="-203" font-family="Helvetica,sans-Serif" font-size="10.00">src/engine/WorldActor.cpp</text>
</a>
</g>
</g>
<!-- Node7&#45;&gt;Node8 -->
<g id="edge7" class="edge">
<title>Node7&#45;&gt;Node8</title>
<path fill="none" stroke="midnightblue" d="M173.21,-254.68C213.23,-243.11 274.46,-225.43 310.54,-215.01"/>
<polygon fill="midnightblue" stroke="midnightblue" points="172.15,-251.34 163.51,-257.48 174.09,-258.06 172.15,-251.34"/>
</g>
<!-- Node9 -->
<g id="node9" class="node">
<title>Node9</title>
<g id="a_node9"><a xlink:href="_player_8hpp.html" target="_top" xlink:title=" ">
<polygon fill="white" stroke="black" points="12.5,-190.5 12.5,-220.5 125.5,-220.5 125.5,-190.5 12.5,-190.5"/>
<text text-anchor="start" x="20.5" y="-208.5" font-family="Helvetica,sans-Serif" font-size="10.00">include/engine/objects</text>
<text text-anchor="middle" x="69" y="-197.5" font-family="Helvetica,sans-Serif" font-size="10.00">/Player.hpp</text>
</a>
</g>
</g>
<!-- Node7&#45;&gt;Node9 -->
<g id="edge8" class="edge">
<title>Node7&#45;&gt;Node9</title>
<path fill="none" stroke="midnightblue" d="M117.23,-250.65C107.07,-241.35 94.2,-229.57 84.32,-220.52"/>
<polygon fill="midnightblue" stroke="midnightblue" points="114.95,-253.3 124.69,-257.48 119.67,-248.14 114.95,-253.3"/>
</g>
<!-- Node15 -->
<g id="node15" class="node">
<title>Node15</title>
<g id="a_node15"><a xlink:href="_unit_8hpp.html" target="_top" xlink:title=" ">
<polygon fill="white" stroke="black" points="143.5,-190.5 143.5,-220.5 256.5,-220.5 256.5,-190.5 143.5,-190.5"/>
<text text-anchor="start" x="151.5" y="-208.5" font-family="Helvetica,sans-Serif" font-size="10.00">include/engine/objects</text>
<text text-anchor="middle" x="200" y="-197.5" font-family="Helvetica,sans-Serif" font-size="10.00">/Unit.hpp</text>
</a>
</g>
</g>
<!-- Node7&#45;&gt;Node15 -->
<g id="edge14" class="edge">
<title>Node7&#45;&gt;Node15</title>
<path fill="none" stroke="midnightblue" d="M151.03,-250.65C161.35,-241.35 174.41,-229.57 184.45,-220.52"/>
<polygon fill="midnightblue" stroke="midnightblue" points="148.54,-248.18 143.46,-257.48 153.23,-253.38 148.54,-248.18"/>
</g>
<!-- Node10 -->
<g id="node10" class="node">
<title>Node10</title>
<g id="a_node10"><a xlink:href="_player_8cpp.html" target="_top" xlink:title=" ">
<polygon fill="white" stroke="black" points="0,-123.5 0,-153.5 96,-153.5 96,-123.5 0,-123.5"/>
<text text-anchor="start" x="8" y="-141.5" font-family="Helvetica,sans-Serif" font-size="10.00">src/engine/objects</text>
<text text-anchor="middle" x="48" y="-130.5" font-family="Helvetica,sans-Serif" font-size="10.00">/Player.cpp</text>
</a>
</g>
</g>
<!-- Node9&#45;&gt;Node10 -->
<g id="edge9" class="edge">
<title>Node9&#45;&gt;Node10</title>
<path fill="none" stroke="midnightblue" d="M61.31,-180.7C58.37,-171.59 55.11,-161.49 52.55,-153.58"/>
<polygon fill="midnightblue" stroke="midnightblue" points="58.04,-181.96 64.44,-190.4 64.7,-179.8 58.04,-181.96"/>
</g>
<!-- Node11 -->
<g id="node11" class="node">
<title>Node11</title>
<g id="a_node11"><a xlink:href="_engine_8hpp.html" target="_top" xlink:title=" ">
<polygon fill="white" stroke="black" points="188,-62 188,-81 286,-81 286,-62 188,-62"/>
<text text-anchor="middle" x="237" y="-69" font-family="Helvetica,sans-Serif" font-size="10.00">include/Engine.hpp</text>
</a>
</g>
</g>
<!-- Node9&#45;&gt;Node11 -->
<g id="edge10" class="edge">
<title>Node9&#45;&gt;Node11</title>
<path fill="none" stroke="midnightblue" d="M85.55,-182.45C99.52,-164.87 120.74,-140.39 143,-123 166.06,-104.98 196.46,-89.97 216.36,-81.11"/>
<polygon fill="midnightblue" stroke="midnightblue" points="82.69,-180.43 79.31,-190.47 88.21,-184.73 82.69,-180.43"/>
</g>
<!-- Node12 -->
<g id="node12" class="node">
<title>Node12</title>
<g id="a_node12"><a xlink:href="_drawable_8cpp.html" target="_top" xlink:title=" ">
<polygon fill="white" stroke="black" points="235.5,-0.5 235.5,-19.5 358.5,-19.5 358.5,-0.5 235.5,-0.5"/>
<text text-anchor="middle" x="297" y="-7.5" font-family="Helvetica,sans-Serif" font-size="10.00">src/engine/Drawable.cpp</text>
</a>
</g>
</g>
<!-- Node11&#45;&gt;Node12 -->
<g id="edge11" class="edge">
<title>Node11&#45;&gt;Node12</title>
<path fill="none" stroke="midnightblue" d="M252.81,-54.82C264.21,-43.52 279.16,-28.69 288.42,-19.51"/>
<polygon fill="midnightblue" stroke="midnightblue" points="250.23,-52.45 245.6,-61.98 255.16,-57.42 250.23,-52.45"/>
</g>
<!-- Node13 -->
<g id="node13" class="node">
<title>Node13</title>
<g id="a_node13"><a xlink:href="_engine_8cpp.html" target="_top" xlink:title=" ">
<polygon fill="white" stroke="black" points="137,-0.5 137,-19.5 217,-19.5 217,-0.5 137,-0.5"/>
<text text-anchor="middle" x="177" y="-7.5" font-family="Helvetica,sans-Serif" font-size="10.00">src/Engine.cpp</text>
</a>
</g>
</g>
<!-- Node11&#45;&gt;Node13 -->
<g id="edge12" class="edge">
<title>Node11&#45;&gt;Node13</title>
<path fill="none" stroke="midnightblue" d="M221.19,-54.82C209.79,-43.52 194.84,-28.69 185.58,-19.51"/>
<polygon fill="midnightblue" stroke="midnightblue" points="218.84,-57.42 228.4,-61.98 223.77,-52.45 218.84,-57.42"/>
</g>
<!-- Node14 -->
<g id="node14" class="node">
<title>Node14</title>
<g id="a_node14"><a xlink:href="main_8cpp.html" target="_top" xlink:title=" ">
<polygon fill="white" stroke="black" points="407,-0.5 407,-19.5 479,-19.5 479,-0.5 407,-0.5"/>
<text text-anchor="middle" x="443" y="-7.5" font-family="Helvetica,sans-Serif" font-size="10.00">src/main.cpp</text>
</a>
</g>
</g>
<!-- Node11&#45;&gt;Node14 -->
<g id="edge13" class="edge">
<title>Node11&#45;&gt;Node14</title>
<path fill="none" stroke="midnightblue" d="M276.21,-59.18C316.23,-47.61 377.46,-29.93 413.54,-19.51"/>
<polygon fill="midnightblue" stroke="midnightblue" points="275.15,-55.84 266.51,-61.98 277.09,-62.56 275.15,-55.84"/>
</g>
<!-- Node16 -->
<g id="node16" class="node">
<title>Node16</title>
<g id="a_node16"><a xlink:href="_unit_8cpp.html" target="_top" xlink:title=" ">
<polygon fill="white" stroke="black" points="152,-123.5 152,-153.5 248,-153.5 248,-123.5 152,-123.5"/>
<text text-anchor="start" x="160" y="-141.5" font-family="Helvetica,sans-Serif" font-size="10.00">src/engine/objects</text>
<text text-anchor="middle" x="200" y="-130.5" font-family="Helvetica,sans-Serif" font-size="10.00">/Unit.cpp</text>
</a>
</g>
</g>
<!-- Node15&#45;&gt;Node16 -->
<g id="edge15" class="edge">
<title>Node15&#45;&gt;Node16</title>
<path fill="none" stroke="midnightblue" d="M200,-180.11C200,-171.15 200,-161.32 200,-153.58"/>
<polygon fill="midnightblue" stroke="midnightblue" points="196.5,-180.4 200,-190.4 203.5,-180.4 196.5,-180.4"/>
</g>
<!-- Node17 -->
<g id="node17" class="node">
<title>Node17</title>
<g id="a_node17"><a xlink:href="_unit_group_8hpp.html" target="_top" xlink:title=" ">
<polygon fill="white" stroke="black" points="266.5,-123.5 266.5,-153.5 379.5,-153.5 379.5,-123.5 266.5,-123.5"/>
<text text-anchor="start" x="274.5" y="-141.5" font-family="Helvetica,sans-Serif" font-size="10.00">include/engine/objects</text>
<text text-anchor="middle" x="323" y="-130.5" font-family="Helvetica,sans-Serif" font-size="10.00">/UnitGroup.hpp</text>
</a>
</g>
</g>
<!-- Node15&#45;&gt;Node17 -->
<g id="edge16" class="edge">
<title>Node15&#45;&gt;Node17</title>
<path fill="none" stroke="midnightblue" d="M235.55,-185.71C254.95,-175.46 278.56,-162.98 296.36,-153.58"/>
<polygon fill="midnightblue" stroke="midnightblue" points="233.9,-182.63 226.69,-190.4 237.17,-188.82 233.9,-182.63"/>
</g>
<!-- Node17&#45;&gt;Node11 -->
<g id="edge18" class="edge">
<title>Node17&#45;&gt;Node11</title>
<path fill="none" stroke="midnightblue" d="M296.33,-117.34C280.28,-105.21 260.67,-90.39 248.5,-81.19"/>
<polygon fill="midnightblue" stroke="midnightblue" points="294.25,-120.16 304.34,-123.4 298.47,-114.57 294.25,-120.16"/>
</g>
<!-- Node18 -->
<g id="node18" class="node">
<title>Node18</title>
<g id="a_node18"><a xlink:href="_unit_group_8cpp.html" target="_top" xlink:title=" ">
<polygon fill="white" stroke="black" points="304,-56.5 304,-86.5 400,-86.5 400,-56.5 304,-56.5"/>
<text text-anchor="start" x="312" y="-74.5" font-family="Helvetica,sans-Serif" font-size="10.00">src/engine/objects</text>
<text text-anchor="middle" x="352" y="-63.5" font-family="Helvetica,sans-Serif" font-size="10.00">/UnitGroup.cpp</text>
</a>
</g>
</g>
<!-- Node17&#45;&gt;Node18 -->
<g id="edge17" class="edge">
<title>Node17&#45;&gt;Node18</title>
<path fill="none" stroke="midnightblue" d="M333.49,-113.99C337.59,-104.8 342.15,-94.58 345.72,-86.58"/>
<polygon fill="midnightblue" stroke="midnightblue" points="330.17,-112.84 329.29,-123.4 336.56,-115.69 330.17,-112.84"/>
</g>
<!-- Node19&#45;&gt;Node6 -->
<g id="edge20" class="edge">
<title>Node19&#45;&gt;Node6</title>
<path fill="none" stroke="midnightblue" d="M581.53,-317.05C521.47,-305.52 426,-287.19 370.33,-276.51"/>
<polygon fill="midnightblue" stroke="midnightblue" points="581.1,-320.53 591.58,-318.98 582.42,-313.65 581.1,-320.53"/>
</g>
<!-- Node19&#45;&gt;Node14 -->
<g id="edge21" class="edge">
<title>Node19&#45;&gt;Node14</title>
<path fill="none" stroke="midnightblue" d="M603.1,-314.97C563.14,-297.35 501,-261.16 501,-206.5 501,-206.5 501,-206.5 501,-137.5 501,-89.18 465.6,-39.15 450.11,-19.57"/>
<polygon fill="midnightblue" stroke="midnightblue" points="601.91,-318.27 612.48,-318.95 604.64,-311.82 601.91,-318.27"/>
</g>
<!-- Node20 -->
<g id="node20" class="node">
<title>Node20</title>
<g id="a_node20"><a xlink:href="_sprites_manager_8cpp.html" target="_top" xlink:title=" ">
<polygon fill="white" stroke="black" points="576.5,-257.5 576.5,-276.5 695.5,-276.5 695.5,-257.5 576.5,-257.5"/>
<text text-anchor="middle" x="636" y="-264.5" font-family="Helvetica,sans-Serif" font-size="10.00">src/SpritesManager.cpp</text>
</a>
</g>
</g>
<!-- Node19&#45;&gt;Node20 -->
<g id="edge22" class="edge">
<title>Node19&#45;&gt;Node20</title>
<path fill="none" stroke="midnightblue" d="M636,-308.82C636,-298 636,-284.9 636,-276.51"/>
<polygon fill="midnightblue" stroke="midnightblue" points="632.5,-308.98 636,-318.98 639.5,-308.98 632.5,-308.98"/>
</g>
<!-- Node21&#45;&gt;Node19 -->
<g id="edge25" class="edge">
<title>Node21&#45;&gt;Node19</title>
<path fill="none" stroke="midnightblue" d="M421.6,-378.23C477.75,-365.47 553.67,-348.21 598.47,-338.03"/>
<polygon fill="midnightblue" stroke="midnightblue" points="420.68,-374.85 411.71,-380.48 422.23,-381.67 420.68,-374.85"/>
</g>
<!-- Node22 -->
<g id="node22" class="node">
<title>Node22</title>
<g id="a_node22"><a xlink:href="_ground_earth_8cpp.html" target="_top" xlink:title=" ">
<polygon fill="white" stroke="black" points="279,-313.5 279,-343.5 403,-343.5 403,-313.5 279,-313.5"/>
<text text-anchor="start" x="287" y="-331.5" font-family="Helvetica,sans-Serif" font-size="10.00">src/engine/objects</text>
<text text-anchor="middle" x="341" y="-320.5" font-family="Helvetica,sans-Serif" font-size="10.00">/ground/GroundEarth.cpp</text>
</a>
</g>
</g>
<!-- Node21&#45;&gt;Node22 -->
<g id="edge24" class="edge">
<title>Node21&#45;&gt;Node22</title>
<path fill="none" stroke="midnightblue" d="M346.66,-370.4C345.41,-361.37 344.03,-351.41 342.95,-343.58"/>
<polygon fill="midnightblue" stroke="midnightblue" points="343.21,-370.97 348.05,-380.4 350.14,-370.01 343.21,-370.97"/>
</g>
<!-- Node23&#45;&gt;Node19 -->
<g id="edge28" class="edge">
<title>Node23&#45;&gt;Node19</title>
<path fill="none" stroke="midnightblue" d="M534.13,-376.13C561.46,-363.62 596.37,-347.64 617.42,-338.01"/>
<polygon fill="midnightblue" stroke="midnightblue" points="532.45,-373.05 524.81,-380.4 535.36,-379.42 532.45,-373.05"/>
</g>
<!-- Node24 -->
<g id="node24" class="node">
<title>Node24</title>
<g id="a_node24"><a xlink:href="_ground_empty_8cpp.html" target="_top" xlink:title=" ">
<polygon fill="white" stroke="black" points="421,-313.5 421,-343.5 549,-343.5 549,-313.5 421,-313.5"/>
<text text-anchor="start" x="429" y="-331.5" font-family="Helvetica,sans-Serif" font-size="10.00">src/engine/objects</text>
<text text-anchor="middle" x="485" y="-320.5" font-family="Helvetica,sans-Serif" font-size="10.00">/ground/GroundEmpty.cpp</text>
</a>
</g>
</g>
<!-- Node23&#45;&gt;Node24 -->
<g id="edge27" class="edge">
<title>Node23&#45;&gt;Node24</title>
<path fill="none" stroke="midnightblue" d="M490.66,-370.4C489.41,-361.37 488.03,-351.41 486.95,-343.58"/>
<polygon fill="midnightblue" stroke="midnightblue" points="487.21,-370.97 492.05,-380.4 494.14,-370.01 487.21,-370.97"/>
</g>
<!-- Node25&#45;&gt;Node19 -->
<g id="edge31" class="edge">
<title>Node25&#45;&gt;Node19</title>
<path fill="none" stroke="midnightblue" d="M638.51,-370.25C637.82,-359.02 637.04,-346.38 636.54,-338.19"/>
<polygon fill="midnightblue" stroke="midnightblue" points="635.02,-370.63 639.13,-380.4 642.01,-370.2 635.02,-370.63"/>
</g>
<!-- Node26 -->
<g id="node26" class="node">
<title>Node26</title>
<g id="a_node26"><a xlink:href="_ground_water_8cpp.html" target="_top" xlink:title=" ">
<polygon fill="white" stroke="black" points="722.5,-313.5 722.5,-343.5 849.5,-343.5 849.5,-313.5 722.5,-313.5"/>
<text text-anchor="start" x="730.5" y="-331.5" font-family="Helvetica,sans-Serif" font-size="10.00">src/engine/objects</text>
<text text-anchor="middle" x="786" y="-320.5" font-family="Helvetica,sans-Serif" font-size="10.00">/ground/GroundWater.cpp</text>
</a>
</g>
</g>
<!-- Node25&#45;&gt;Node26 -->
<g id="edge30" class="edge">
<title>Node25&#45;&gt;Node26</title>
<path fill="none" stroke="midnightblue" d="M680.95,-376.27C704.2,-365.92 732.87,-353.15 754.38,-343.58"/>
<polygon fill="midnightblue" stroke="midnightblue" points="679.39,-373.13 671.68,-380.4 682.24,-379.53 679.39,-373.13"/>
</g>
<!-- Node27&#45;&gt;Node19 -->
<g id="edge34" class="edge">
<title>Node27&#45;&gt;Node19</title>
<path fill="none" stroke="midnightblue" d="M737.87,-376.13C710.54,-363.62 675.63,-347.64 654.58,-338.01"/>
<polygon fill="midnightblue" stroke="midnightblue" points="736.64,-379.42 747.19,-380.4 739.55,-373.05 736.64,-379.42"/>
</g>
<!-- Node28 -->
<g id="node28" class="node">
<title>Node28</title>
<g id="a_node28"><a xlink:href="_mineral_8cpp.html" target="_top" xlink:title=" ">
<polygon fill="white" stroke="black" points="867.5,-313.5 867.5,-343.5 968.5,-343.5 968.5,-313.5 867.5,-313.5"/>
<text text-anchor="start" x="875.5" y="-331.5" font-family="Helvetica,sans-Serif" font-size="10.00">src/engine/objects</text>
<text text-anchor="middle" x="918" y="-320.5" font-family="Helvetica,sans-Serif" font-size="10.00">/ground/Mineral.cpp</text>
</a>
</g>
</g>
<!-- Node27&#45;&gt;Node28 -->
<g id="edge33" class="edge">
<title>Node27&#45;&gt;Node28</title>
<path fill="none" stroke="midnightblue" d="M817.57,-376.13C839.81,-365.8 867.15,-353.11 887.68,-343.58"/>
<polygon fill="midnightblue" stroke="midnightblue" points="815.97,-373.01 808.38,-380.4 818.92,-379.36 815.97,-373.01"/>
</g>
</g>
</svg>
