<?xml version="1.0" encoding="UTF-8" standalone="no"?>
<!DOCTYPE svg PUBLIC "-//W3C//DTD SVG 1.1//EN"
 "http://www.w3.org/Graphics/SVG/1.1/DTD/svg11.dtd">
<!-- Generated by graphviz version 2.47.0 (20210407.0042)
 -->
<!-- Title: src/engine/objects/ground/GroundEmpty.cpp Pages: 1 -->
<svg width="269pt" height="274pt"
 viewBox="0.00 0.00 268.50 274.00" xmlns="http://www.w3.org/2000/svg" xmlns:xlink="http://www.w3.org/1999/xlink">
<g id="graph0" class="graph" transform="scale(1 1) rotate(0) translate(4 270)">
<title>src/engine/objects/ground/GroundEmpty.cpp</title>
<polygon fill="white" stroke="transparent" points="-4,4 -4,-270 264.5,-270 264.5,4 -4,4"/>
<!-- Node1 -->
<g id="node1" class="node">
<title>Node1</title>
<g id="a_node1"><a xlink:title=" ">
<polygon fill="#bfbfbf" stroke="black" points="83,-235.5 83,-265.5 211,-265.5 211,-235.5 83,-235.5"/>
<text text-anchor="start" x="91" y="-253.5" font-family="Helvetica,sans-Serif" font-size="10.00">src/engine/objects</text>
<text text-anchor="middle" x="147" y="-242.5" font-family="Helvetica,sans-Serif" font-size="10.00">/ground/GroundEmpty.cpp</text>
</a>
</g>
</g>
<!-- Node2 -->
<g id="node2" class="node">
<title>Node2</title>
<g id="a_node2"><a xlink:href="_ground_empty_8hpp.html" target="_top" xlink:title=" ">
<polygon fill="white" stroke="black" points="91,-168.5 91,-198.5 203,-198.5 203,-168.5 91,-168.5"/>
<text text-anchor="start" x="99" y="-186.5" font-family="Helvetica,sans-Serif" font-size="10.00">engine/objects/ground</text>
<text text-anchor="middle" x="147" y="-175.5" font-family="Helvetica,sans-Serif" font-size="10.00">/GroundEmpty.hpp</text>
</a>
</g>
</g>
<!-- Node1&#45;&gt;Node2 -->
<g id="edge1" class="edge">
<title>Node1&#45;&gt;Node2</title>
<path fill="none" stroke="midnightblue" d="M147,-235.4C147,-227.64 147,-217.81 147,-208.86"/>
<polygon fill="midnightblue" stroke="midnightblue" points="150.5,-208.58 147,-198.58 143.5,-208.58 150.5,-208.58"/>
</g>
<!-- Node3 -->
<g id="node3" class="node">
<title>Node3</title>
<g id="a_node3"><a xlink:href="_ground_8hpp.html" target="_top" xlink:title=" ">
<polygon fill="white" stroke="black" points="81,-112.5 81,-131.5 213,-131.5 213,-112.5 81,-112.5"/>
<text text-anchor="middle" x="147" y="-119.5" font-family="Helvetica,sans-Serif" font-size="10.00">engine/objects/Ground.hpp</text>
</a>
</g>
</g>
<!-- Node2&#45;&gt;Node3 -->
<g id="edge2" class="edge">
<title>Node2&#45;&gt;Node3</title>
<path fill="none" stroke="midnightblue" d="M147,-168.4C147,-160.47 147,-150.46 147,-141.86"/>
<polygon fill="midnightblue" stroke="midnightblue" points="150.5,-141.66 147,-131.66 143.5,-141.66 150.5,-141.66"/>
</g>
<!-- Node4 -->
<g id="node4" class="node">
<title>Node4</title>
<g id="a_node4"><a xlink:href="_drawable_8hpp.html" target="_top" xlink:title=" ">
<polygon fill="white" stroke="black" points="32.5,-56.5 32.5,-75.5 139.5,-75.5 139.5,-56.5 32.5,-56.5"/>
<text text-anchor="middle" x="86" y="-63.5" font-family="Helvetica,sans-Serif" font-size="10.00">engine/Drawable.hpp</text>
</a>
</g>
</g>
<!-- Node3&#45;&gt;Node4 -->
<g id="edge3" class="edge">
<title>Node3&#45;&gt;Node4</title>
<path fill="none" stroke="midnightblue" d="M137.2,-112.32C128.18,-104.34 114.59,-92.31 103.68,-82.65"/>
<polygon fill="midnightblue" stroke="midnightblue" points="105.79,-79.84 95.98,-75.83 101.15,-85.08 105.79,-79.84"/>
</g>
<!-- Node7 -->
<g id="node7" class="node">
<title>Node7</title>
<g id="a_node7"><a xlink:href="_tickable_8hpp.html" target="_top" xlink:title=" ">
<polygon fill="white" stroke="black" points="157.5,-56.5 157.5,-75.5 260.5,-75.5 260.5,-56.5 157.5,-56.5"/>
<text text-anchor="middle" x="209" y="-63.5" font-family="Helvetica,sans-Serif" font-size="10.00">engine/Tickable.hpp</text>
</a>
</g>
</g>
<!-- Node3&#45;&gt;Node7 -->
<g id="edge6" class="edge">
<title>Node3&#45;&gt;Node7</title>
<path fill="none" stroke="midnightblue" d="M156.96,-112.32C166.13,-104.34 179.94,-92.31 191.03,-82.65"/>
<polygon fill="midnightblue" stroke="midnightblue" points="193.62,-85.04 198.86,-75.83 189.02,-79.76 193.62,-85.04"/>
</g>
<!-- Node5 -->
<g id="node5" class="node">
<title>Node5</title>
<g id="a_node5"><a xlink:title=" ">
<polygon fill="white" stroke="#bfbfbf" points="0,-0.5 0,-19.5 66,-19.5 66,-0.5 0,-0.5"/>
<text text-anchor="middle" x="33" y="-7.5" font-family="Helvetica,sans-Serif" font-size="10.00">string_view</text>
</a>
</g>
</g>
<!-- Node4&#45;&gt;Node5 -->
<g id="edge4" class="edge">
<title>Node4&#45;&gt;Node5</title>
<path fill="none" stroke="midnightblue" d="M77.25,-56.08C69.53,-48.22 58.1,-36.57 48.78,-27.08"/>
<polygon fill="midnightblue" stroke="midnightblue" points="51.09,-24.44 41.59,-19.75 46.1,-29.34 51.09,-24.44"/>
</g>
<!-- Node6 -->
<g id="node6" class="node">
<title>Node6</title>
<g id="a_node6"><a xlink:href="_vector2_d_8hpp.html" target="_top" xlink:title=" ">
<polygon fill="white" stroke="black" points="84,-0.5 84,-19.5 196,-19.5 196,-0.5 84,-0.5"/>
<text text-anchor="middle" x="140" y="-7.5" font-family="Helvetica,sans-Serif" font-size="10.00">Helpers/Vector2D.hpp</text>
</a>
</g>
</g>
<!-- Node4&#45;&gt;Node6 -->
<g id="edge5" class="edge">
<title>Node4&#45;&gt;Node6</title>
<path fill="none" stroke="midnightblue" d="M94.92,-56.08C102.78,-48.22 114.43,-36.57 123.92,-27.08"/>
<polygon fill="midnightblue" stroke="midnightblue" points="126.65,-29.3 131.25,-19.75 121.7,-24.35 126.65,-29.3"/>
</g>
</g>
</svg>
