<?xml version="1.0" encoding="UTF-8" standalone="no"?>
<!DOCTYPE svg PUBLIC "-//W3C//DTD SVG 1.1//EN"
 "http://www.w3.org/Graphics/SVG/1.1/DTD/svg11.dtd">
<!-- Generated by graphviz version 2.47.1 (20210421.1823)
 -->
<!-- Title: include/engine/objects/ground/GroundEarth.hpp Pages: 1 -->
<svg width="509pt" height="162pt"
 viewBox="0.00 0.00 508.50 162.00" xmlns="http://www.w3.org/2000/svg" xmlns:xlink="http://www.w3.org/1999/xlink">
<g id="graph0" class="graph" transform="scale(1 1) rotate(0) translate(4 158)">
<title>include/engine/objects/ground/GroundEarth.hpp</title>
<polygon fill="white" stroke="transparent" points="-4,4 -4,-158 504.5,-158 504.5,4 -4,4"/>
<!-- Node1 -->
<g id="node1" class="node">
<title>Node1</title>
<g id="a_node1"><a xlink:title=" ">
<polygon fill="#bfbfbf" stroke="black" points="114,-123.5 114,-153.5 238,-153.5 238,-123.5 114,-123.5"/>
<text text-anchor="start" x="122" y="-141.5" font-family="Helvetica,sans-Serif" font-size="10.00">include/engine/objects</text>
<text text-anchor="middle" x="176" y="-130.5" font-family="Helvetica,sans-Serif" font-size="10.00">/ground/GroundEarth.hpp</text>
</a>
</g>
</g>
<!-- Node2 -->
<g id="node2" class="node">
<title>Node2</title>
<g id="a_node2"><a xlink:href="_cell_8cpp.html" target="_top" xlink:title=" ">
<polygon fill="white" stroke="black" points="0,-56.5 0,-86.5 96,-86.5 96,-56.5 0,-56.5"/>
<text text-anchor="start" x="8" y="-74.5" font-family="Helvetica,sans-Serif" font-size="10.00">src/engine/objects</text>
<text text-anchor="middle" x="48" y="-63.5" font-family="Helvetica,sans-Serif" font-size="10.00">/Cell.cpp</text>
</a>
</g>
</g>
<!-- Node1&#45;&gt;Node2 -->
<g id="edge1" class="edge">
<title>Node1&#45;&gt;Node2</title>
<path fill="none" stroke="midnightblue" d="M139.28,-118.85C119.04,-108.58 94.33,-96.03 75.72,-86.58"/>
<polygon fill="midnightblue" stroke="midnightblue" points="137.72,-121.99 148.23,-123.4 140.89,-115.75 137.72,-121.99"/>
</g>
<!-- Node3 -->
<g id="node3" class="node">
<title>Node3</title>
<g id="a_node3"><a xlink:href="_ground_earth_8cpp.html" target="_top" xlink:title=" ">
<polygon fill="white" stroke="black" points="114,-56.5 114,-86.5 238,-86.5 238,-56.5 114,-56.5"/>
<text text-anchor="start" x="122" y="-74.5" font-family="Helvetica,sans-Serif" font-size="10.00">src/engine/objects</text>
<text text-anchor="middle" x="176" y="-63.5" font-family="Helvetica,sans-Serif" font-size="10.00">/ground/GroundEarth.cpp</text>
</a>
</g>
</g>
<!-- Node1&#45;&gt;Node3 -->
<g id="edge2" class="edge">
<title>Node1&#45;&gt;Node3</title>
<path fill="none" stroke="midnightblue" d="M176,-113.11C176,-104.15 176,-94.32 176,-86.58"/>
<polygon fill="midnightblue" stroke="midnightblue" points="172.5,-113.4 176,-123.4 179.5,-113.4 172.5,-113.4"/>
</g>
<!-- Node4 -->
<g id="node4" class="node">
<title>Node4</title>
<g id="a_node4"><a xlink:href="_sprites_manager_8hpp.html" target="_top" xlink:title=" ">
<polygon fill="white" stroke="black" points="256.5,-62 256.5,-81 393.5,-81 393.5,-62 256.5,-62"/>
<text text-anchor="middle" x="325" y="-69" font-family="Helvetica,sans-Serif" font-size="10.00">include/SpritesManager.hpp</text>
</a>
</g>
</g>
<!-- Node1&#45;&gt;Node4 -->
<g id="edge3" class="edge">
<title>Node1&#45;&gt;Node4</title>
<path fill="none" stroke="midnightblue" d="M217.73,-119.3C246.47,-106.76 283.32,-90.68 305.5,-81.01"/>
<polygon fill="midnightblue" stroke="midnightblue" points="216.1,-116.19 208.33,-123.4 218.9,-122.61 216.1,-116.19"/>
</g>
<!-- Node5 -->
<g id="node5" class="node">
<title>Node5</title>
<g id="a_node5"><a xlink:href="_field_8cpp.html" target="_top" xlink:title=" ">
<polygon fill="white" stroke="black" points="164,-0.5 164,-19.5 268,-19.5 268,-0.5 164,-0.5"/>
<text text-anchor="middle" x="216" y="-7.5" font-family="Helvetica,sans-Serif" font-size="10.00">src/engine/Field.cpp</text>
</a>
</g>
</g>
<!-- Node4&#45;&gt;Node5 -->
<g id="edge4" class="edge">
<title>Node4&#45;&gt;Node5</title>
<path fill="none" stroke="midnightblue" d="M300.37,-57.06C279.28,-45.54 249.54,-29.31 231.59,-19.51"/>
<polygon fill="midnightblue" stroke="midnightblue" points="298.93,-60.26 309.38,-61.98 302.28,-54.11 298.93,-60.26"/>
</g>
<!-- Node6 -->
<g id="node6" class="node">
<title>Node6</title>
<g id="a_node6"><a xlink:href="_game_8cpp.html" target="_top" xlink:title=" ">
<polygon fill="white" stroke="black" points="286.5,-0.5 286.5,-19.5 363.5,-19.5 363.5,-0.5 286.5,-0.5"/>
<text text-anchor="middle" x="325" y="-7.5" font-family="Helvetica,sans-Serif" font-size="10.00">src/Game.cpp</text>
</a>
</g>
</g>
<!-- Node4&#45;&gt;Node6 -->
<g id="edge5" class="edge">
<title>Node4&#45;&gt;Node6</title>
<path fill="none" stroke="midnightblue" d="M325,-51.82C325,-41 325,-27.9 325,-19.51"/>
<polygon fill="midnightblue" stroke="midnightblue" points="321.5,-51.98 325,-61.98 328.5,-51.98 321.5,-51.98"/>
</g>
<!-- Node7 -->
<g id="node7" class="node">
<title>Node7</title>
<g id="a_node7"><a xlink:href="_sprites_manager_8cpp.html" target="_top" xlink:title=" ">
<polygon fill="white" stroke="black" points="381.5,-0.5 381.5,-19.5 500.5,-19.5 500.5,-0.5 381.5,-0.5"/>
<text text-anchor="middle" x="441" y="-7.5" font-family="Helvetica,sans-Serif" font-size="10.00">src/SpritesManager.cpp</text>
</a>
</g>
</g>
<!-- Node4&#45;&gt;Node7 -->
<g id="edge6" class="edge">
<title>Node4&#45;&gt;Node7</title>
<path fill="none" stroke="midnightblue" d="M350.6,-57.37C373.09,-45.83 405.13,-29.4 424.41,-19.51"/>
<polygon fill="midnightblue" stroke="midnightblue" points="348.92,-54.3 341.62,-61.98 352.12,-60.53 348.92,-54.3"/>
</g>
</g>
</svg>
