<?xml version="1.0" encoding="UTF-8" standalone="no"?>
<!DOCTYPE svg PUBLIC "-//W3C//DTD SVG 1.1//EN"
 "http://www.w3.org/Graphics/SVG/1.1/DTD/svg11.dtd">
<!-- Generated by graphviz version 2.47.1 (20210421.1823)
 -->
<!-- Title: include/GUI/Inventory.hpp Pages: 1 -->
<svg width="670pt" height="420pt"
 viewBox="0.00 0.00 669.50 420.00" xmlns="http://www.w3.org/2000/svg" xmlns:xlink="http://www.w3.org/1999/xlink">
<g id="graph0" class="graph" transform="scale(1 1) rotate(0) translate(4 416)">
<title>include/GUI/Inventory.hpp</title>
<polygon fill="white" stroke="transparent" points="-4,4 -4,-416 665.5,-416 665.5,4 -4,4"/>
<!-- Node1 -->
<g id="node1" class="node">
<title>Node1</title>
<g id="a_node1"><a xlink:title=" ">
<polygon fill="#bfbfbf" stroke="black" points="291,-392.5 291,-411.5 420,-411.5 420,-392.5 291,-392.5"/>
<text text-anchor="middle" x="355.5" y="-399.5" font-family="Helvetica,sans-Serif" font-size="10.00">include/GUI/Inventory.hpp</text>
</a>
</g>
</g>
<!-- Node2 -->
<g id="node2" class="node">
<title>Node2</title>
<g id="a_node2"><a xlink:title=" ">
<polygon fill="white" stroke="#bfbfbf" points="0,-224.5 0,-243.5 51,-243.5 51,-224.5 0,-224.5"/>
<text text-anchor="middle" x="25.5" y="-231.5" font-family="Helvetica,sans-Serif" font-size="10.00">memory</text>
</a>
</g>
</g>
<!-- Node1&#45;&gt;Node2 -->
<g id="edge1" class="edge">
<title>Node1&#45;&gt;Node2</title>
<path fill="none" stroke="midnightblue" d="M313.43,-392.47C256.83,-379.52 154.82,-350.85 81.5,-300 63.03,-287.19 46.87,-266.89 36.72,-252.38"/>
<polygon fill="midnightblue" stroke="midnightblue" points="39.44,-250.16 30.95,-243.83 33.64,-254.07 39.44,-250.16"/>
</g>
<!-- Node3 -->
<g id="node3" class="node">
<title>Node3</title>
<g id="a_node3"><a xlink:href="_g_shape_8hpp.html" target="_top" xlink:title=" ">
<polygon fill="white" stroke="black" points="199.5,-224.5 199.5,-243.5 309.5,-243.5 309.5,-224.5 199.5,-224.5"/>
<text text-anchor="middle" x="254.5" y="-231.5" font-family="Helvetica,sans-Serif" font-size="10.00">graphics/GShape.hpp</text>
</a>
</g>
</g>
<!-- Node1&#45;&gt;Node3 -->
<g id="edge2" class="edge">
<title>Node1&#45;&gt;Node3</title>
<path fill="none" stroke="midnightblue" d="M350.07,-392.08C333.97,-365.61 286.27,-287.21 264.97,-252.21"/>
<polygon fill="midnightblue" stroke="midnightblue" points="267.9,-250.29 259.71,-243.57 261.92,-253.93 267.9,-250.29"/>
</g>
<!-- Node15 -->
<g id="node15" class="node">
<title>Node15</title>
<g id="a_node15"><a xlink:href="_resource_manager_8hpp.html" target="_top" xlink:title=" ">
<polygon fill="white" stroke="black" points="91,-280.5 91,-299.5 244,-299.5 244,-280.5 91,-280.5"/>
<text text-anchor="middle" x="167.5" y="-287.5" font-family="Helvetica,sans-Serif" font-size="10.00">graphics/ResourceManager.hpp</text>
</a>
</g>
</g>
<!-- Node1&#45;&gt;Node15 -->
<g id="edge19" class="edge">
<title>Node1&#45;&gt;Node15</title>
<path fill="none" stroke="midnightblue" d="M339.79,-392.34C323.6,-383.38 297.67,-368.91 275.5,-356 245.84,-338.74 212,-318.24 190.22,-304.94"/>
<polygon fill="midnightblue" stroke="midnightblue" points="191.76,-301.78 181.4,-299.55 188.11,-307.75 191.76,-301.78"/>
</g>
<!-- Node19 -->
<g id="node19" class="node">
<title>Node19</title>
<g id="a_node19"><a xlink:href="_g_u_i_window_8hpp.html" target="_top" xlink:title=" ">
<polygon fill="white" stroke="black" points="405.5,-280.5 405.5,-299.5 513.5,-299.5 513.5,-280.5 405.5,-280.5"/>
<text text-anchor="middle" x="459.5" y="-287.5" font-family="Helvetica,sans-Serif" font-size="10.00">GUI/GUIWindow.hpp</text>
</a>
</g>
</g>
<!-- Node1&#45;&gt;Node19 -->
<g id="edge29" class="edge">
<title>Node1&#45;&gt;Node19</title>
<path fill="none" stroke="midnightblue" d="M362.83,-392.42C373.66,-379.82 394.7,-355.69 413.5,-336 422.95,-326.1 433.89,-315.37 442.73,-306.88"/>
<polygon fill="midnightblue" stroke="midnightblue" points="445.34,-309.22 450.15,-299.79 440.51,-304.16 445.34,-309.22"/>
</g>
<!-- Node20 -->
<g id="node20" class="node">
<title>Node20</title>
<g id="a_node20"><a xlink:href="_item_8hpp.html" target="_top" xlink:title=" ">
<polygon fill="white" stroke="black" points="422,-336.5 422,-355.5 497,-355.5 497,-336.5 422,-336.5"/>
<text text-anchor="middle" x="459.5" y="-343.5" font-family="Helvetica,sans-Serif" font-size="10.00">GUI/Item.hpp</text>
</a>
</g>
</g>
<!-- Node1&#45;&gt;Node20 -->
<g id="edge31" class="edge">
<title>Node1&#45;&gt;Node20</title>
<path fill="none" stroke="midnightblue" d="M372.21,-392.32C388.81,-383.7 414.5,-370.36 433.72,-360.39"/>
<polygon fill="midnightblue" stroke="midnightblue" points="435.57,-363.37 442.83,-355.65 432.34,-357.16 435.57,-363.37"/>
</g>
<!-- Node21 -->
<g id="node21" class="node">
<title>Node21</title>
<g id="a_node21"><a xlink:href="_states_8hpp.html" target="_top" xlink:title=" ">
<polygon fill="white" stroke="black" points="577.5,-280.5 577.5,-299.5 661.5,-299.5 661.5,-280.5 577.5,-280.5"/>
<text text-anchor="middle" x="619.5" y="-287.5" font-family="Helvetica,sans-Serif" font-size="10.00">GUI/States.hpp</text>
</a>
</g>
</g>
<!-- Node1&#45;&gt;Node21 -->
<g id="edge37" class="edge">
<title>Node1&#45;&gt;Node21</title>
<path fill="none" stroke="midnightblue" d="M392.65,-392.5C423.74,-384.78 468.93,-372.14 506.5,-356 539.98,-341.62 576.04,-319.62 598.2,-305.27"/>
<polygon fill="midnightblue" stroke="midnightblue" points="600.35,-308.04 606.79,-299.63 596.51,-302.19 600.35,-308.04"/>
</g>
<!-- Node4 -->
<g id="node4" class="node">
<title>Node4</title>
<g id="a_node4"><a xlink:href="_window_8hpp.html" target="_top" xlink:title=" ">
<polygon fill="white" stroke="black" points="289,-168.5 289,-187.5 398,-187.5 398,-168.5 289,-168.5"/>
<text text-anchor="middle" x="343.5" y="-175.5" font-family="Helvetica,sans-Serif" font-size="10.00">graphics/Window.hpp</text>
</a>
</g>
</g>
<!-- Node3&#45;&gt;Node4 -->
<g id="edge3" class="edge">
<title>Node3&#45;&gt;Node4</title>
<path fill="none" stroke="midnightblue" d="M268.8,-224.32C282.68,-215.9 303.99,-202.97 320.3,-193.07"/>
<polygon fill="midnightblue" stroke="midnightblue" points="322.5,-195.83 329.24,-187.65 318.87,-189.85 322.5,-195.83"/>
</g>
<!-- Node9 -->
<g id="node9" class="node">
<title>Node9</title>
<g id="a_node9"><a xlink:href="_shader_8hpp.html" target="_top" xlink:title=" ">
<polygon fill="white" stroke="black" points="108,-112.5 108,-131.5 213,-131.5 213,-112.5 108,-112.5"/>
<text text-anchor="middle" x="160.5" y="-119.5" font-family="Helvetica,sans-Serif" font-size="10.00">graphics/Shader.hpp</text>
</a>
</g>
</g>
<!-- Node3&#45;&gt;Node9 -->
<g id="edge14" class="edge">
<title>Node3&#45;&gt;Node9</title>
<path fill="none" stroke="midnightblue" d="M243.28,-224.37C224.34,-206.22 187.7,-163.8 169.98,-139.99"/>
<polygon fill="midnightblue" stroke="midnightblue" points="172.65,-137.71 164.01,-131.59 166.95,-141.77 172.65,-137.71"/>
</g>
<!-- Node11 -->
<g id="node11" class="node">
<title>Node11</title>
<g id="a_node11"><a xlink:href="_transform_8hpp.html" target="_top" xlink:title=" ">
<polygon fill="white" stroke="black" points="182,-56.5 182,-75.5 301,-75.5 301,-56.5 182,-56.5"/>
<text text-anchor="middle" x="241.5" y="-63.5" font-family="Helvetica,sans-Serif" font-size="10.00">graphics/Transform.hpp</text>
</a>
</g>
</g>
<!-- Node3&#45;&gt;Node11 -->
<g id="edge15" class="edge">
<title>Node3&#45;&gt;Node11</title>
<path fill="none" stroke="midnightblue" d="M253.8,-224.08C251.75,-197.95 245.75,-121.21 242.95,-85.58"/>
<polygon fill="midnightblue" stroke="midnightblue" points="246.44,-85.26 242.17,-75.57 239.46,-85.81 246.44,-85.26"/>
</g>
<!-- Node13 -->
<g id="node13" class="node">
<title>Node13</title>
<g id="a_node13"><a xlink:href="_vector2_d_8hpp.html" target="_top" xlink:title=" ">
<polygon fill="white" stroke="black" points="493.5,-168.5 493.5,-187.5 605.5,-187.5 605.5,-168.5 493.5,-168.5"/>
<text text-anchor="middle" x="549.5" y="-175.5" font-family="Helvetica,sans-Serif" font-size="10.00">Helpers/Vector2D.hpp</text>
</a>
</g>
</g>
<!-- Node3&#45;&gt;Node13 -->
<g id="edge16" class="edge">
<title>Node3&#45;&gt;Node13</title>
<path fill="none" stroke="midnightblue" d="M301.24,-224.44C353.25,-214.92 437.25,-199.55 492.92,-189.36"/>
<polygon fill="midnightblue" stroke="midnightblue" points="493.77,-192.76 502.98,-187.52 492.51,-185.87 493.77,-192.76"/>
</g>
<!-- Node5 -->
<g id="node5" class="node">
<title>Node5</title>
<g id="a_node5"><a xlink:title=" ">
<polygon fill="white" stroke="#bfbfbf" points="332,-112.5 332,-131.5 395,-131.5 395,-112.5 332,-112.5"/>
<text text-anchor="middle" x="363.5" y="-119.5" font-family="Helvetica,sans-Serif" font-size="10.00">glad/glad.h</text>
</a>
</g>
</g>
<!-- Node4&#45;&gt;Node5 -->
<g id="edge4" class="edge">
<title>Node4&#45;&gt;Node5</title>
<path fill="none" stroke="midnightblue" d="M346.8,-168.08C349.48,-160.85 353.35,-150.41 356.69,-141.4"/>
<polygon fill="midnightblue" stroke="midnightblue" points="360.07,-142.34 360.26,-131.75 353.5,-139.91 360.07,-142.34"/>
</g>
<!-- Node6 -->
<g id="node6" class="node">
<title>Node6</title>
<g id="a_node6"><a xlink:title=" ">
<polygon fill="white" stroke="#bfbfbf" points="413,-112.5 413,-131.5 492,-131.5 492,-112.5 413,-112.5"/>
<text text-anchor="middle" x="452.5" y="-119.5" font-family="Helvetica,sans-Serif" font-size="10.00">GLFW/glfw3.h</text>
</a>
</g>
</g>
<!-- Node4&#45;&gt;Node6 -->
<g id="edge5" class="edge">
<title>Node4&#45;&gt;Node6</title>
<path fill="none" stroke="midnightblue" d="M361.01,-168.32C378.57,-159.62 405.83,-146.12 426.03,-136.11"/>
<polygon fill="midnightblue" stroke="midnightblue" points="427.62,-139.23 435.03,-131.65 424.52,-132.96 427.62,-139.23"/>
</g>
<!-- Node7 -->
<g id="node7" class="node">
<title>Node7</title>
<g id="a_node7"><a xlink:title=" ">
<polygon fill="white" stroke="#bfbfbf" points="549,-112.5 549,-131.5 588,-131.5 588,-112.5 549,-112.5"/>
<text text-anchor="middle" x="568.5" y="-119.5" font-family="Helvetica,sans-Serif" font-size="10.00">utility</text>
</a>
</g>
</g>
<!-- Node4&#45;&gt;Node7 -->
<g id="edge6" class="edge">
<title>Node4&#45;&gt;Node7</title>
<path fill="none" stroke="midnightblue" d="M381.26,-168.42C419.85,-159.59 481.46,-145.27 534.5,-132 535.94,-131.64 537.42,-131.26 538.91,-130.88"/>
<polygon fill="midnightblue" stroke="midnightblue" points="539.95,-134.23 548.75,-128.33 538.19,-127.46 539.95,-134.23"/>
</g>
<!-- Node8 -->
<g id="node8" class="node">
<title>Node8</title>
<g id="a_node8"><a xlink:title=" ">
<polygon fill="white" stroke="#bfbfbf" points="269.5,-112.5 269.5,-131.5 313.5,-131.5 313.5,-112.5 269.5,-112.5"/>
<text text-anchor="middle" x="291.5" y="-119.5" font-family="Helvetica,sans-Serif" font-size="10.00">vector</text>
</a>
</g>
</g>
<!-- Node4&#45;&gt;Node8 -->
<g id="edge7" class="edge">
<title>Node4&#45;&gt;Node8</title>
<path fill="none" stroke="midnightblue" d="M334.91,-168.08C327.34,-160.22 316.12,-148.57 306.99,-139.08"/>
<polygon fill="midnightblue" stroke="midnightblue" points="309.38,-136.53 299.93,-131.75 304.34,-141.38 309.38,-136.53"/>
</g>
<!-- Node4&#45;&gt;Node9 -->
<g id="edge8" class="edge">
<title>Node4&#45;&gt;Node9</title>
<path fill="none" stroke="midnightblue" d="M314.5,-168.44C283.32,-159.24 233.57,-144.56 199.09,-134.39"/>
<polygon fill="midnightblue" stroke="midnightblue" points="199.94,-130.99 189.36,-131.52 197.96,-137.7 199.94,-130.99"/>
</g>
<!-- Node4&#45;&gt;Node11 -->
<g id="edge13" class="edge">
<title>Node4&#45;&gt;Node11</title>
<path fill="none" stroke="midnightblue" d="M398.17,-168.57C438.65,-161.08 488.87,-148.73 501.5,-132 506.86,-124.91 507.22,-118.8 501.5,-112 477.61,-83.62 379.91,-73.14 311.34,-69.27"/>
<polygon fill="midnightblue" stroke="midnightblue" points="311.19,-65.76 301.02,-68.72 310.82,-72.75 311.19,-65.76"/>
</g>
<!-- Node9&#45;&gt;Node3 -->
<g id="edge10" class="edge">
<title>Node9&#45;&gt;Node3</title>
<path fill="none" stroke="midnightblue" d="M171.68,-131.59C190.59,-149.71 227.23,-192.12 244.98,-215.96"/>
<polygon fill="midnightblue" stroke="midnightblue" points="242.32,-218.25 250.97,-224.37 248.02,-214.19 242.32,-218.25"/>
</g>
<!-- Node10 -->
<g id="node10" class="node">
<title>Node10</title>
<g id="a_node10"><a xlink:title=" ">
<polygon fill="white" stroke="#bfbfbf" points="91,-56.5 91,-75.5 132,-75.5 132,-56.5 91,-56.5"/>
<text text-anchor="middle" x="111.5" y="-63.5" font-family="Helvetica,sans-Serif" font-size="10.00">string</text>
</a>
</g>
</g>
<!-- Node9&#45;&gt;Node10 -->
<g id="edge9" class="edge">
<title>Node9&#45;&gt;Node10</title>
<path fill="none" stroke="midnightblue" d="M152.41,-112.08C145.34,-104.3 134.91,-92.8 126.35,-83.37"/>
<polygon fill="midnightblue" stroke="midnightblue" points="128.75,-80.8 119.44,-75.75 123.57,-85.51 128.75,-80.8"/>
</g>
<!-- Node9&#45;&gt;Node11 -->
<g id="edge11" class="edge">
<title>Node9&#45;&gt;Node11</title>
<path fill="none" stroke="midnightblue" d="M173.51,-112.32C186.03,-103.98 205.18,-91.21 219.97,-81.35"/>
<polygon fill="midnightblue" stroke="midnightblue" points="222.14,-84.11 228.52,-75.65 218.26,-78.29 222.14,-84.11"/>
</g>
<!-- Node12 -->
<g id="node12" class="node">
<title>Node12</title>
<g id="a_node12"><a xlink:title=" ">
<polygon fill="white" stroke="#bfbfbf" points="189.5,-0.5 189.5,-19.5 293.5,-19.5 293.5,-0.5 189.5,-0.5"/>
<text text-anchor="middle" x="241.5" y="-7.5" font-family="Helvetica,sans-Serif" font-size="10.00">glm/gtc/type_ptr.hpp</text>
</a>
</g>
</g>
<!-- Node11&#45;&gt;Node12 -->
<g id="edge12" class="edge">
<title>Node11&#45;&gt;Node12</title>
<path fill="none" stroke="midnightblue" d="M241.5,-56.08C241.5,-49.01 241.5,-38.86 241.5,-29.99"/>
<polygon fill="midnightblue" stroke="midnightblue" points="245,-29.75 241.5,-19.75 238,-29.75 245,-29.75"/>
</g>
<!-- Node13&#45;&gt;Node7 -->
<g id="edge17" class="edge">
<title>Node13&#45;&gt;Node7</title>
<path fill="none" stroke="midnightblue" d="M552.64,-168.08C555.18,-160.85 558.86,-150.41 562.03,-141.4"/>
<polygon fill="midnightblue" stroke="midnightblue" points="565.4,-142.35 565.42,-131.75 558.8,-140.02 565.4,-142.35"/>
</g>
<!-- Node14 -->
<g id="node14" class="node">
<title>Node14</title>
<g id="a_node14"><a xlink:title=" ">
<polygon fill="white" stroke="#bfbfbf" points="606.5,-112.5 606.5,-131.5 650.5,-131.5 650.5,-112.5 606.5,-112.5"/>
<text text-anchor="middle" x="628.5" y="-119.5" font-family="Helvetica,sans-Serif" font-size="10.00">cmath</text>
</a>
</g>
</g>
<!-- Node13&#45;&gt;Node14 -->
<g id="edge18" class="edge">
<title>Node13&#45;&gt;Node14</title>
<path fill="none" stroke="midnightblue" d="M562.19,-168.32C574.4,-159.98 593.08,-147.21 607.5,-137.35"/>
<polygon fill="midnightblue" stroke="midnightblue" points="609.56,-140.19 615.84,-131.65 605.61,-134.41 609.56,-140.19"/>
</g>
<!-- Node15&#45;&gt;Node2 -->
<g id="edge22" class="edge">
<title>Node15&#45;&gt;Node2</title>
<path fill="none" stroke="midnightblue" d="M145,-280.44C121.42,-271.48 84.18,-257.31 57.54,-247.18"/>
<polygon fill="midnightblue" stroke="midnightblue" points="58.49,-243.8 47.9,-243.52 56,-250.34 58.49,-243.8"/>
</g>
<!-- Node15&#45;&gt;Node3 -->
<g id="edge24" class="edge">
<title>Node15&#45;&gt;Node3</title>
<path fill="none" stroke="midnightblue" d="M181.48,-280.32C195.05,-271.9 215.88,-258.97 231.82,-249.07"/>
<polygon fill="midnightblue" stroke="midnightblue" points="233.91,-251.9 240.56,-243.65 230.21,-245.95 233.91,-251.9"/>
</g>
<!-- Node15&#45;&gt;Node9 -->
<g id="edge23" class="edge">
<title>Node15&#45;&gt;Node9</title>
<path fill="none" stroke="midnightblue" d="M159.02,-280.23C151.45,-271.75 140.9,-258.13 136.5,-244 125.36,-208.2 140.69,-164.77 151.49,-140.89"/>
<polygon fill="midnightblue" stroke="midnightblue" points="154.74,-142.2 155.88,-131.66 148.42,-139.19 154.74,-142.2"/>
</g>
<!-- Node15&#45;&gt;Node10 -->
<g id="edge21" class="edge">
<title>Node15&#45;&gt;Node10</title>
<path fill="none" stroke="midnightblue" d="M158.04,-280.22C149.43,-271.73 136.95,-258.11 129.5,-244 105.39,-198.32 105.45,-183.18 98.5,-132 97.3,-123.19 97.25,-120.8 98.5,-112 99.77,-103.04 102.39,-93.37 104.95,-85.3"/>
<polygon fill="midnightblue" stroke="midnightblue" points="108.27,-86.4 108.16,-75.8 101.64,-84.16 108.27,-86.4"/>
</g>
<!-- Node16 -->
<g id="node16" class="node">
<title>Node16</title>
<g id="a_node16"><a xlink:title=" ">
<polygon fill="white" stroke="#bfbfbf" points="146,-224.5 146,-243.5 181,-243.5 181,-224.5 146,-224.5"/>
<text text-anchor="middle" x="163.5" y="-231.5" font-family="Helvetica,sans-Serif" font-size="10.00">map</text>
</a>
</g>
</g>
<!-- Node15&#45;&gt;Node16 -->
<g id="edge20" class="edge">
<title>Node15&#45;&gt;Node16</title>
<path fill="none" stroke="midnightblue" d="M166.84,-280.08C166.32,-273.01 165.56,-262.86 164.91,-253.99"/>
<polygon fill="midnightblue" stroke="midnightblue" points="168.38,-253.47 164.15,-243.75 161.4,-253.98 168.38,-253.47"/>
</g>
<!-- Node17 -->
<g id="node17" class="node">
<title>Node17</title>
<g id="a_node17"><a xlink:href="_event_handler_8hpp.html" target="_top" xlink:title=" ">
<polygon fill="white" stroke="black" points="328,-224.5 328,-243.5 483,-243.5 483,-224.5 328,-224.5"/>
<text text-anchor="middle" x="405.5" y="-231.5" font-family="Helvetica,sans-Serif" font-size="10.00">EventHandler/EventHandler.hpp</text>
</a>
</g>
</g>
<!-- Node15&#45;&gt;Node17 -->
<g id="edge25" class="edge">
<title>Node15&#45;&gt;Node17</title>
<path fill="none" stroke="midnightblue" d="M205.21,-280.44C246.64,-271.04 313.26,-255.93 358.17,-245.74"/>
<polygon fill="midnightblue" stroke="midnightblue" points="358.99,-249.14 367.96,-243.52 357.44,-242.32 358.99,-249.14"/>
</g>
<!-- Node17&#45;&gt;Node4 -->
<g id="edge27" class="edge">
<title>Node17&#45;&gt;Node4</title>
<path fill="none" stroke="midnightblue" d="M395.54,-224.32C386.37,-216.34 372.56,-204.31 361.47,-194.65"/>
<polygon fill="midnightblue" stroke="midnightblue" points="363.48,-191.76 353.64,-187.83 358.88,-197.04 363.48,-191.76"/>
</g>
<!-- Node17&#45;&gt;Node13 -->
<g id="edge28" class="edge">
<title>Node17&#45;&gt;Node13</title>
<path fill="none" stroke="midnightblue" d="M428.32,-224.44C452.33,-215.44 490.33,-201.19 517.37,-191.05"/>
<polygon fill="midnightblue" stroke="midnightblue" points="518.66,-194.3 526.79,-187.52 516.2,-187.75 518.66,-194.3"/>
</g>
<!-- Node18 -->
<g id="node18" class="node">
<title>Node18</title>
<g id="a_node18"><a xlink:title=" ">
<polygon fill="white" stroke="#bfbfbf" points="416,-168.5 416,-187.5 475,-187.5 475,-168.5 416,-168.5"/>
<text text-anchor="middle" x="445.5" y="-175.5" font-family="Helvetica,sans-Serif" font-size="10.00">functional</text>
</a>
</g>
</g>
<!-- Node17&#45;&gt;Node18 -->
<g id="edge26" class="edge">
<title>Node17&#45;&gt;Node18</title>
<path fill="none" stroke="midnightblue" d="M412.11,-224.08C417.76,-216.46 426.04,-205.26 432.95,-195.94"/>
<polygon fill="midnightblue" stroke="midnightblue" points="435.88,-197.87 439.02,-187.75 430.25,-193.7 435.88,-197.87"/>
</g>
<!-- Node19&#45;&gt;Node13 -->
<g id="edge30" class="edge">
<title>Node19&#45;&gt;Node13</title>
<path fill="none" stroke="midnightblue" d="M466.56,-280.37C481.55,-262.05 516.73,-219.05 536.11,-195.36"/>
<polygon fill="midnightblue" stroke="midnightblue" points="538.85,-197.55 542.47,-187.59 533.43,-193.11 538.85,-197.55"/>
</g>
<!-- Node20&#45;&gt;Node13 -->
<g id="edge34" class="edge">
<title>Node20&#45;&gt;Node13</title>
<path fill="none" stroke="midnightblue" d="M478.1,-336.43C492.44,-328.86 511.59,-316.47 522.5,-300 543.42,-268.41 548.34,-223.05 549.37,-197.79"/>
<polygon fill="midnightblue" stroke="midnightblue" points="552.87,-197.81 549.61,-187.73 545.87,-197.64 552.87,-197.81"/>
</g>
<!-- Node20&#45;&gt;Node15 -->
<g id="edge32" class="edge">
<title>Node20&#45;&gt;Node15</title>
<path fill="none" stroke="midnightblue" d="M421.92,-338.05C371.65,-328.75 282.07,-312.19 223.74,-301.4"/>
<polygon fill="midnightblue" stroke="midnightblue" points="224.05,-297.9 213.58,-299.52 222.78,-304.78 224.05,-297.9"/>
</g>
<!-- Node20&#45;&gt;Node19 -->
<g id="edge33" class="edge">
<title>Node20&#45;&gt;Node19</title>
<path fill="none" stroke="midnightblue" d="M459.5,-336.08C459.5,-329.01 459.5,-318.86 459.5,-309.99"/>
<polygon fill="midnightblue" stroke="midnightblue" points="463,-309.75 459.5,-299.75 456,-309.75 463,-309.75"/>
</g>
<!-- Node20&#45;&gt;Node21 -->
<g id="edge35" class="edge">
<title>Node20&#45;&gt;Node21</title>
<path fill="none" stroke="midnightblue" d="M484.85,-336.44C511.77,-327.36 554.5,-312.94 584.59,-302.78"/>
<polygon fill="midnightblue" stroke="midnightblue" points="585.91,-306.03 594.27,-299.52 583.67,-299.4 585.91,-306.03"/>
</g>
<!-- Node22 -->
<g id="node22" class="node">
<title>Node22</title>
<g id="a_node22"><a xlink:title=" ">
<polygon fill="white" stroke="#bfbfbf" points="586.5,-224.5 586.5,-243.5 652.5,-243.5 652.5,-224.5 586.5,-224.5"/>
<text text-anchor="middle" x="619.5" y="-231.5" font-family="Helvetica,sans-Serif" font-size="10.00">string_view</text>
</a>
</g>
</g>
<!-- Node21&#45;&gt;Node22 -->
<g id="edge36" class="edge">
<title>Node21&#45;&gt;Node22</title>
<path fill="none" stroke="midnightblue" d="M619.5,-280.08C619.5,-273.01 619.5,-262.86 619.5,-253.99"/>
<polygon fill="midnightblue" stroke="midnightblue" points="623,-253.75 619.5,-243.75 616,-253.75 623,-253.75"/>
</g>
</g>
</svg>
