<?xml version="1.0" encoding="UTF-8" standalone="no"?>
<!DOCTYPE svg PUBLIC "-//W3C//DTD SVG 1.1//EN"
 "http://www.w3.org/Graphics/SVG/1.1/DTD/svg11.dtd">
<!-- Generated by graphviz version 2.47.1 (20210421.1823)
 -->
<!-- Title: src/GUI/Item.cpp Pages: 1 -->
<svg width="729pt" height="420pt"
 viewBox="0.00 0.00 728.50 420.00" xmlns="http://www.w3.org/2000/svg" xmlns:xlink="http://www.w3.org/1999/xlink">
<g id="graph0" class="graph" transform="scale(1 1) rotate(0) translate(4 416)">
<title>src/GUI/Item.cpp</title>
<polygon fill="white" stroke="transparent" points="-4,4 -4,-416 724.5,-416 724.5,4 -4,4"/>
<!-- Node1 -->
<g id="node1" class="node">
<title>Node1</title>
<g id="a_node1"><a xlink:title=" ">
<polygon fill="#bfbfbf" stroke="black" points="477.5,-392.5 477.5,-411.5 569.5,-411.5 569.5,-392.5 477.5,-392.5"/>
<text text-anchor="middle" x="523.5" y="-399.5" font-family="Helvetica,sans-Serif" font-size="10.00">src/GUI/Item.cpp</text>
</a>
</g>
</g>
<!-- Node2 -->
<g id="node2" class="node">
<title>Node2</title>
<g id="a_node2"><a xlink:href="_item_8hpp.html" target="_top" xlink:title=" ">
<polygon fill="white" stroke="black" points="486,-336.5 486,-355.5 561,-355.5 561,-336.5 486,-336.5"/>
<text text-anchor="middle" x="523.5" y="-343.5" font-family="Helvetica,sans-Serif" font-size="10.00">GUI/Item.hpp</text>
</a>
</g>
</g>
<!-- Node1&#45;&gt;Node2 -->
<g id="edge1" class="edge">
<title>Node1&#45;&gt;Node2</title>
<path fill="none" stroke="midnightblue" d="M523.5,-392.08C523.5,-385.01 523.5,-374.86 523.5,-365.99"/>
<polygon fill="midnightblue" stroke="midnightblue" points="527,-365.75 523.5,-355.75 520,-365.75 527,-365.75"/>
</g>
<!-- Node3 -->
<g id="node3" class="node">
<title>Node3</title>
<g id="a_node3"><a xlink:href="_resource_manager_8hpp.html" target="_top" xlink:title=" ">
<polygon fill="white" stroke="black" points="149,-280.5 149,-299.5 302,-299.5 302,-280.5 149,-280.5"/>
<text text-anchor="middle" x="225.5" y="-287.5" font-family="Helvetica,sans-Serif" font-size="10.00">graphics/ResourceManager.hpp</text>
</a>
</g>
</g>
<!-- Node2&#45;&gt;Node3 -->
<g id="edge2" class="edge">
<title>Node2&#45;&gt;Node3</title>
<path fill="none" stroke="midnightblue" d="M485.76,-338.16C434.46,-328.86 342.28,-312.16 282.52,-301.33"/>
<polygon fill="midnightblue" stroke="midnightblue" points="282.95,-297.85 272.49,-299.51 281.7,-304.74 282.95,-297.85"/>
</g>
<!-- Node16 -->
<g id="node16" class="node">
<title>Node16</title>
<g id="a_node16"><a xlink:href="_vector2_d_8hpp.html" target="_top" xlink:title=" ">
<polygon fill="white" stroke="black" points="425.5,-112.5 425.5,-131.5 537.5,-131.5 537.5,-112.5 425.5,-112.5"/>
<text text-anchor="middle" x="481.5" y="-119.5" font-family="Helvetica,sans-Serif" font-size="10.00">Helpers/Vector2D.hpp</text>
</a>
</g>
</g>
<!-- Node2&#45;&gt;Node16 -->
<g id="edge30" class="edge">
<title>Node2&#45;&gt;Node16</title>
<path fill="none" stroke="midnightblue" d="M518.18,-336.4C513.01,-327.6 505.39,-313.36 501.5,-300 485.24,-244.21 482.07,-174.95 481.54,-142.06"/>
<polygon fill="midnightblue" stroke="midnightblue" points="485.04,-141.64 481.44,-131.68 478.04,-141.71 485.04,-141.64"/>
</g>
<!-- Node20 -->
<g id="node20" class="node">
<title>Node20</title>
<g id="a_node20"><a xlink:href="_g_u_i_window_8hpp.html" target="_top" xlink:title=" ">
<polygon fill="white" stroke="black" points="510.5,-280.5 510.5,-299.5 618.5,-299.5 618.5,-280.5 510.5,-280.5"/>
<text text-anchor="middle" x="564.5" y="-287.5" font-family="Helvetica,sans-Serif" font-size="10.00">GUI/GUIWindow.hpp</text>
</a>
</g>
</g>
<!-- Node2&#45;&gt;Node20 -->
<g id="edge28" class="edge">
<title>Node2&#45;&gt;Node20</title>
<path fill="none" stroke="midnightblue" d="M530.27,-336.08C536.06,-328.46 544.56,-317.26 551.64,-307.94"/>
<polygon fill="midnightblue" stroke="midnightblue" points="554.6,-309.83 557.86,-299.75 549.02,-305.6 554.6,-309.83"/>
</g>
<!-- Node21 -->
<g id="node21" class="node">
<title>Node21</title>
<g id="a_node21"><a xlink:href="_states_8hpp.html" target="_top" xlink:title=" ">
<polygon fill="white" stroke="black" points="636.5,-280.5 636.5,-299.5 720.5,-299.5 720.5,-280.5 636.5,-280.5"/>
<text text-anchor="middle" x="678.5" y="-287.5" font-family="Helvetica,sans-Serif" font-size="10.00">GUI/States.hpp</text>
</a>
</g>
</g>
<!-- Node2&#45;&gt;Node21 -->
<g id="edge31" class="edge">
<title>Node2&#45;&gt;Node21</title>
<path fill="none" stroke="midnightblue" d="M548.06,-336.44C574.02,-327.4 615.17,-313.06 644.3,-302.92"/>
<polygon fill="midnightblue" stroke="midnightblue" points="645.76,-306.11 654.05,-299.52 643.46,-299.5 645.76,-306.11"/>
</g>
<!-- Node4 -->
<g id="node4" class="node">
<title>Node4</title>
<g id="a_node4"><a xlink:title=" ">
<polygon fill="white" stroke="#bfbfbf" points="0,-224.5 0,-243.5 35,-243.5 35,-224.5 0,-224.5"/>
<text text-anchor="middle" x="17.5" y="-231.5" font-family="Helvetica,sans-Serif" font-size="10.00">map</text>
</a>
</g>
</g>
<!-- Node3&#45;&gt;Node4 -->
<g id="edge3" class="edge">
<title>Node3&#45;&gt;Node4</title>
<path fill="none" stroke="midnightblue" d="M191.04,-280.45C155.51,-271.57 98.54,-257.16 49.5,-244 48.04,-243.61 46.54,-243.2 45.02,-242.79"/>
<polygon fill="midnightblue" stroke="midnightblue" points="45.66,-239.33 35.08,-240.03 43.78,-246.07 45.66,-239.33"/>
</g>
<!-- Node5 -->
<g id="node5" class="node">
<title>Node5</title>
<g id="a_node5"><a xlink:title=" ">
<polygon fill="white" stroke="#bfbfbf" points="35,-168.5 35,-187.5 76,-187.5 76,-168.5 35,-168.5"/>
<text text-anchor="middle" x="55.5" y="-175.5" font-family="Helvetica,sans-Serif" font-size="10.00">string</text>
</a>
</g>
</g>
<!-- Node3&#45;&gt;Node5 -->
<g id="edge4" class="edge">
<title>Node3&#45;&gt;Node5</title>
<path fill="none" stroke="midnightblue" d="M158.9,-280.47C132.46,-274.15 103.43,-263.15 82.5,-244 69.28,-231.91 62.35,-212.34 58.84,-197.83"/>
<polygon fill="midnightblue" stroke="midnightblue" points="62.24,-197.01 56.77,-187.93 55.39,-198.44 62.24,-197.01"/>
</g>
<!-- Node6 -->
<g id="node6" class="node">
<title>Node6</title>
<g id="a_node6"><a xlink:title=" ">
<polygon fill="white" stroke="#bfbfbf" points="292,-224.5 292,-243.5 343,-243.5 343,-224.5 292,-224.5"/>
<text text-anchor="middle" x="317.5" y="-231.5" font-family="Helvetica,sans-Serif" font-size="10.00">memory</text>
</a>
</g>
</g>
<!-- Node3&#45;&gt;Node6 -->
<g id="edge5" class="edge">
<title>Node3&#45;&gt;Node6</title>
<path fill="none" stroke="midnightblue" d="M240.28,-280.32C254.77,-271.82 277.07,-258.73 293.99,-248.8"/>
<polygon fill="midnightblue" stroke="midnightblue" points="295.9,-251.74 302.76,-243.65 292.36,-245.7 295.9,-251.74"/>
</g>
<!-- Node7 -->
<g id="node7" class="node">
<title>Node7</title>
<g id="a_node7"><a xlink:href="_shader_8hpp.html" target="_top" xlink:title=" ">
<polygon fill="white" stroke="black" points="92,-224.5 92,-243.5 197,-243.5 197,-224.5 92,-224.5"/>
<text text-anchor="middle" x="144.5" y="-231.5" font-family="Helvetica,sans-Serif" font-size="10.00">graphics/Shader.hpp</text>
</a>
</g>
</g>
<!-- Node3&#45;&gt;Node7 -->
<g id="edge6" class="edge">
<title>Node3&#45;&gt;Node7</title>
<path fill="none" stroke="midnightblue" d="M212.49,-280.32C199.97,-271.98 180.82,-259.21 166.03,-249.35"/>
<polygon fill="midnightblue" stroke="midnightblue" points="167.74,-246.29 157.48,-243.65 163.86,-252.11 167.74,-246.29"/>
</g>
<!-- Node8 -->
<g id="node8" class="node">
<title>Node8</title>
<g id="a_node8"><a xlink:href="_g_shape_8hpp.html" target="_top" xlink:title=" ">
<polygon fill="white" stroke="black" points="170.5,-168.5 170.5,-187.5 280.5,-187.5 280.5,-168.5 170.5,-168.5"/>
<text text-anchor="middle" x="225.5" y="-175.5" font-family="Helvetica,sans-Serif" font-size="10.00">graphics/GShape.hpp</text>
</a>
</g>
</g>
<!-- Node3&#45;&gt;Node8 -->
<g id="edge23" class="edge">
<title>Node3&#45;&gt;Node8</title>
<path fill="none" stroke="midnightblue" d="M225.5,-280.37C225.5,-262.62 225.5,-221.67 225.5,-197.6"/>
<polygon fill="midnightblue" stroke="midnightblue" points="229,-197.59 225.5,-187.59 222,-197.59 229,-197.59"/>
</g>
<!-- Node18 -->
<g id="node18" class="node">
<title>Node18</title>
<g id="a_node18"><a xlink:href="_event_handler_8hpp.html" target="_top" xlink:title=" ">
<polygon fill="white" stroke="black" points="299,-168.5 299,-187.5 454,-187.5 454,-168.5 299,-168.5"/>
<text text-anchor="middle" x="376.5" y="-175.5" font-family="Helvetica,sans-Serif" font-size="10.00">EventHandler/EventHandler.hpp</text>
</a>
</g>
</g>
<!-- Node3&#45;&gt;Node18 -->
<g id="edge24" class="edge">
<title>Node3&#45;&gt;Node18</title>
<path fill="none" stroke="midnightblue" d="M231.27,-280.43C240.67,-266.96 260.49,-240.68 282.5,-224 300.67,-210.22 323.73,-199.11 342.47,-191.37"/>
<polygon fill="midnightblue" stroke="midnightblue" points="343.83,-194.59 351.82,-187.63 341.23,-188.09 343.83,-194.59"/>
</g>
<!-- Node7&#45;&gt;Node5 -->
<g id="edge7" class="edge">
<title>Node7&#45;&gt;Node5</title>
<path fill="none" stroke="midnightblue" d="M130.2,-224.32C116.32,-215.9 95.01,-202.97 78.7,-193.07"/>
<polygon fill="midnightblue" stroke="midnightblue" points="80.13,-189.85 69.76,-187.65 76.5,-195.83 80.13,-189.85"/>
</g>
<!-- Node7&#45;&gt;Node8 -->
<g id="edge8" class="edge">
<title>Node7&#45;&gt;Node8</title>
<path fill="none" stroke="midnightblue" d="M152.4,-224.32C163.31,-215.82 182.66,-202.73 198.83,-192.8"/>
<polygon fill="midnightblue" stroke="midnightblue" points="200.63,-195.8 207.41,-187.65 197.03,-189.79 200.63,-195.8"/>
</g>
<!-- Node14 -->
<g id="node14" class="node">
<title>Node14</title>
<g id="a_node14"><a xlink:href="_transform_8hpp.html" target="_top" xlink:title=" ">
<polygon fill="white" stroke="black" points="45,-56.5 45,-75.5 164,-75.5 164,-56.5 45,-56.5"/>
<text text-anchor="middle" x="104.5" y="-63.5" font-family="Helvetica,sans-Serif" font-size="10.00">graphics/Transform.hpp</text>
</a>
</g>
</g>
<!-- Node7&#45;&gt;Node14 -->
<g id="edge22" class="edge">
<title>Node7&#45;&gt;Node14</title>
<path fill="none" stroke="midnightblue" d="M142.35,-224.08C136.05,-197.95 117.56,-121.21 108.98,-85.58"/>
<polygon fill="midnightblue" stroke="midnightblue" points="112.31,-84.47 106.56,-75.57 105.5,-86.11 112.31,-84.47"/>
</g>
<!-- Node8&#45;&gt;Node7 -->
<g id="edge17" class="edge">
<title>Node8&#45;&gt;Node7</title>
<path fill="none" stroke="midnightblue" d="M217.4,-187.83C206.55,-196.26 187.58,-209.1 171.61,-218.94"/>
<polygon fill="midnightblue" stroke="midnightblue" points="169.4,-216.18 162.63,-224.32 173,-222.18 169.4,-216.18"/>
</g>
<!-- Node9 -->
<g id="node9" class="node">
<title>Node9</title>
<g id="a_node9"><a xlink:href="_window_8hpp.html" target="_top" xlink:title=" ">
<polygon fill="white" stroke="black" points="208,-112.5 208,-131.5 317,-131.5 317,-112.5 208,-112.5"/>
<text text-anchor="middle" x="262.5" y="-119.5" font-family="Helvetica,sans-Serif" font-size="10.00">graphics/Window.hpp</text>
</a>
</g>
</g>
<!-- Node8&#45;&gt;Node9 -->
<g id="edge9" class="edge">
<title>Node8&#45;&gt;Node9</title>
<path fill="none" stroke="midnightblue" d="M231.61,-168.08C236.78,-160.53 244.35,-149.49 250.69,-140.23"/>
<polygon fill="midnightblue" stroke="midnightblue" points="253.74,-141.98 256.5,-131.75 247.96,-138.02 253.74,-141.98"/>
</g>
<!-- Node8&#45;&gt;Node14 -->
<g id="edge18" class="edge">
<title>Node8&#45;&gt;Node14</title>
<path fill="none" stroke="midnightblue" d="M216.01,-168.37C195.6,-149.81 147.3,-105.91 121.48,-82.44"/>
<polygon fill="midnightblue" stroke="midnightblue" points="123.7,-79.73 113.95,-75.59 119,-84.91 123.7,-79.73"/>
</g>
<!-- Node8&#45;&gt;Node16 -->
<g id="edge19" class="edge">
<title>Node8&#45;&gt;Node16</title>
<path fill="none" stroke="midnightblue" d="M266.06,-168.44C310.82,-159 382.88,-143.8 431.2,-133.61"/>
<polygon fill="midnightblue" stroke="midnightblue" points="432.06,-137.01 441.13,-131.52 430.62,-130.16 432.06,-137.01"/>
</g>
<!-- Node9&#45;&gt;Node7 -->
<g id="edge14" class="edge">
<title>Node9&#45;&gt;Node7</title>
<path fill="none" stroke="midnightblue" d="M223.67,-131.53C202.45,-138.1 177.34,-149.34 161.5,-168 150.54,-180.91 146.55,-200.09 145.14,-214.26"/>
<polygon fill="midnightblue" stroke="midnightblue" points="141.64,-214.14 144.48,-224.35 148.62,-214.6 141.64,-214.14"/>
</g>
<!-- Node10 -->
<g id="node10" class="node">
<title>Node10</title>
<g id="a_node10"><a xlink:title=" ">
<polygon fill="white" stroke="#bfbfbf" points="245,-56.5 245,-75.5 308,-75.5 308,-56.5 245,-56.5"/>
<text text-anchor="middle" x="276.5" y="-63.5" font-family="Helvetica,sans-Serif" font-size="10.00">glad/glad.h</text>
</a>
</g>
</g>
<!-- Node9&#45;&gt;Node10 -->
<g id="edge10" class="edge">
<title>Node9&#45;&gt;Node10</title>
<path fill="none" stroke="midnightblue" d="M264.81,-112.08C266.67,-104.93 269.34,-94.64 271.65,-85.69"/>
<polygon fill="midnightblue" stroke="midnightblue" points="275.11,-86.31 274.23,-75.75 268.33,-84.55 275.11,-86.31"/>
</g>
<!-- Node11 -->
<g id="node11" class="node">
<title>Node11</title>
<g id="a_node11"><a xlink:title=" ">
<polygon fill="white" stroke="#bfbfbf" points="326,-56.5 326,-75.5 405,-75.5 405,-56.5 326,-56.5"/>
<text text-anchor="middle" x="365.5" y="-63.5" font-family="Helvetica,sans-Serif" font-size="10.00">GLFW/glfw3.h</text>
</a>
</g>
</g>
<!-- Node9&#45;&gt;Node11 -->
<g id="edge11" class="edge">
<title>Node9&#45;&gt;Node11</title>
<path fill="none" stroke="midnightblue" d="M279.05,-112.32C295.49,-103.7 320.93,-90.36 339.97,-80.39"/>
<polygon fill="midnightblue" stroke="midnightblue" points="341.76,-83.4 348.99,-75.65 338.51,-77.2 341.76,-83.4"/>
</g>
<!-- Node12 -->
<g id="node12" class="node">
<title>Node12</title>
<g id="a_node12"><a xlink:title=" ">
<polygon fill="white" stroke="#bfbfbf" points="423,-56.5 423,-75.5 462,-75.5 462,-56.5 423,-56.5"/>
<text text-anchor="middle" x="442.5" y="-63.5" font-family="Helvetica,sans-Serif" font-size="10.00">utility</text>
</a>
</g>
</g>
<!-- Node9&#45;&gt;Node12 -->
<g id="edge12" class="edge">
<title>Node9&#45;&gt;Node12</title>
<path fill="none" stroke="midnightblue" d="M291.48,-112.47C320,-104.05 365.03,-90.7 413.18,-76.07"/>
<polygon fill="midnightblue" stroke="midnightblue" points="414.31,-79.39 422.85,-73.13 412.27,-72.69 414.31,-79.39"/>
</g>
<!-- Node13 -->
<g id="node13" class="node">
<title>Node13</title>
<g id="a_node13"><a xlink:title=" ">
<polygon fill="white" stroke="#bfbfbf" points="182.5,-56.5 182.5,-75.5 226.5,-75.5 226.5,-56.5 182.5,-56.5"/>
<text text-anchor="middle" x="204.5" y="-63.5" font-family="Helvetica,sans-Serif" font-size="10.00">vector</text>
</a>
</g>
</g>
<!-- Node9&#45;&gt;Node13 -->
<g id="edge13" class="edge">
<title>Node9&#45;&gt;Node13</title>
<path fill="none" stroke="midnightblue" d="M253.18,-112.32C244.61,-104.34 231.69,-92.31 221.31,-82.65"/>
<polygon fill="midnightblue" stroke="midnightblue" points="223.69,-80.09 213.99,-75.83 218.92,-85.21 223.69,-80.09"/>
</g>
<!-- Node9&#45;&gt;Node14 -->
<g id="edge15" class="edge">
<title>Node9&#45;&gt;Node14</title>
<path fill="none" stroke="midnightblue" d="M237.46,-112.44C210.88,-103.36 168.69,-88.94 138.98,-78.78"/>
<polygon fill="midnightblue" stroke="midnightblue" points="140.01,-75.44 129.42,-75.52 137.75,-82.06 140.01,-75.44"/>
</g>
<!-- Node15 -->
<g id="node15" class="node">
<title>Node15</title>
<g id="a_node15"><a xlink:title=" ">
<polygon fill="white" stroke="#bfbfbf" points="52.5,-0.5 52.5,-19.5 156.5,-19.5 156.5,-0.5 52.5,-0.5"/>
<text text-anchor="middle" x="104.5" y="-7.5" font-family="Helvetica,sans-Serif" font-size="10.00">glm/gtc/type_ptr.hpp</text>
</a>
</g>
</g>
<!-- Node14&#45;&gt;Node15 -->
<g id="edge16" class="edge">
<title>Node14&#45;&gt;Node15</title>
<path fill="none" stroke="midnightblue" d="M104.5,-56.08C104.5,-49.01 104.5,-38.86 104.5,-29.99"/>
<polygon fill="midnightblue" stroke="midnightblue" points="108,-29.75 104.5,-19.75 101,-29.75 108,-29.75"/>
</g>
<!-- Node16&#45;&gt;Node12 -->
<g id="edge20" class="edge">
<title>Node16&#45;&gt;Node12</title>
<path fill="none" stroke="midnightblue" d="M475.06,-112.08C469.55,-104.46 461.47,-93.26 454.74,-83.94"/>
<polygon fill="midnightblue" stroke="midnightblue" points="457.51,-81.81 448.82,-75.75 451.84,-85.91 457.51,-81.81"/>
</g>
<!-- Node17 -->
<g id="node17" class="node">
<title>Node17</title>
<g id="a_node17"><a xlink:title=" ">
<polygon fill="white" stroke="#bfbfbf" points="480.5,-56.5 480.5,-75.5 524.5,-75.5 524.5,-56.5 480.5,-56.5"/>
<text text-anchor="middle" x="502.5" y="-63.5" font-family="Helvetica,sans-Serif" font-size="10.00">cmath</text>
</a>
</g>
</g>
<!-- Node16&#45;&gt;Node17 -->
<g id="edge21" class="edge">
<title>Node16&#45;&gt;Node17</title>
<path fill="none" stroke="midnightblue" d="M484.97,-112.08C487.81,-104.77 491.93,-94.18 495.46,-85.1"/>
<polygon fill="midnightblue" stroke="midnightblue" points="498.73,-86.34 499.1,-75.75 492.21,-83.8 498.73,-86.34"/>
</g>
<!-- Node18&#45;&gt;Node9 -->
<g id="edge26" class="edge">
<title>Node18&#45;&gt;Node9</title>
<path fill="none" stroke="midnightblue" d="M358.44,-168.44C339.93,-159.68 310.92,-145.94 289.64,-135.86"/>
<polygon fill="midnightblue" stroke="midnightblue" points="291.01,-132.63 280.48,-131.52 288.02,-138.96 291.01,-132.63"/>
</g>
<!-- Node18&#45;&gt;Node16 -->
<g id="edge27" class="edge">
<title>Node18&#45;&gt;Node16</title>
<path fill="none" stroke="midnightblue" d="M393.37,-168.32C410.21,-159.66 436.31,-146.24 455.74,-136.25"/>
<polygon fill="midnightblue" stroke="midnightblue" points="457.38,-139.34 464.67,-131.65 454.18,-133.12 457.38,-139.34"/>
</g>
<!-- Node19 -->
<g id="node19" class="node">
<title>Node19</title>
<g id="a_node19"><a xlink:title=" ">
<polygon fill="white" stroke="#bfbfbf" points="347,-112.5 347,-131.5 406,-131.5 406,-112.5 347,-112.5"/>
<text text-anchor="middle" x="376.5" y="-119.5" font-family="Helvetica,sans-Serif" font-size="10.00">functional</text>
</a>
</g>
</g>
<!-- Node18&#45;&gt;Node19 -->
<g id="edge25" class="edge">
<title>Node18&#45;&gt;Node19</title>
<path fill="none" stroke="midnightblue" d="M376.5,-168.08C376.5,-161.01 376.5,-150.86 376.5,-141.99"/>
<polygon fill="midnightblue" stroke="midnightblue" points="380,-141.75 376.5,-131.75 373,-141.75 380,-141.75"/>
</g>
<!-- Node20&#45;&gt;Node16 -->
<g id="edge29" class="edge">
<title>Node20&#45;&gt;Node16</title>
<path fill="none" stroke="midnightblue" d="M560.04,-280.08C546.86,-253.72 507.94,-175.88 490.33,-140.66"/>
<polygon fill="midnightblue" stroke="midnightblue" points="493.39,-138.95 485.78,-131.57 487.13,-142.08 493.39,-138.95"/>
</g>
<!-- Node22 -->
<g id="node22" class="node">
<title>Node22</title>
<g id="a_node22"><a xlink:title=" ">
<polygon fill="white" stroke="#bfbfbf" points="645.5,-224.5 645.5,-243.5 711.5,-243.5 711.5,-224.5 645.5,-224.5"/>
<text text-anchor="middle" x="678.5" y="-231.5" font-family="Helvetica,sans-Serif" font-size="10.00">string_view</text>
</a>
</g>
</g>
<!-- Node21&#45;&gt;Node22 -->
<g id="edge32" class="edge">
<title>Node21&#45;&gt;Node22</title>
<path fill="none" stroke="midnightblue" d="M678.5,-280.08C678.5,-273.01 678.5,-262.86 678.5,-253.99"/>
<polygon fill="midnightblue" stroke="midnightblue" points="682,-253.75 678.5,-243.75 675,-253.75 682,-253.75"/>
</g>
</g>
</svg>
