<?xml version="1.0" encoding="UTF-8" standalone="no"?>
<!DOCTYPE svg PUBLIC "-//W3C//DTD SVG 1.1//EN"
 "http://www.w3.org/Graphics/SVG/1.1/DTD/svg11.dtd">
<!-- Generated by graphviz version 2.47.1 (20210421.1823)
 -->
<!-- Title: include/engine/objects/ground/Mineral.hpp Pages: 1 -->
<svg width="371pt" height="162pt"
 viewBox="0.00 0.00 371.00 162.00" xmlns="http://www.w3.org/2000/svg" xmlns:xlink="http://www.w3.org/1999/xlink">
<g id="graph0" class="graph" transform="scale(1 1) rotate(0) translate(4 158)">
<title>include/engine/objects/ground/Mineral.hpp</title>
<polygon fill="white" stroke="transparent" points="-4,4 -4,-158 367,-158 367,4 -4,4"/>
<!-- Node1 -->
<g id="node1" class="node">
<title>Node1</title>
<g id="a_node1"><a xlink:title=" ">
<polygon fill="#bfbfbf" stroke="black" points="62,-123.5 62,-153.5 175,-153.5 175,-123.5 62,-123.5"/>
<text text-anchor="start" x="70" y="-141.5" font-family="Helvetica,sans-Serif" font-size="10.00">include/engine/objects</text>
<text text-anchor="middle" x="118.5" y="-130.5" font-family="Helvetica,sans-Serif" font-size="10.00">/ground/Mineral.hpp</text>
</a>
</g>
</g>
<!-- Node2 -->
<g id="node2" class="node">
<title>Node2</title>
<g id="a_node2"><a xlink:href="_mineral_8cpp.html" target="_top" xlink:title=" ">
<polygon fill="white" stroke="black" points="0,-56.5 0,-86.5 101,-86.5 101,-56.5 0,-56.5"/>
<text text-anchor="start" x="8" y="-74.5" font-family="Helvetica,sans-Serif" font-size="10.00">src/engine/objects</text>
<text text-anchor="middle" x="50.5" y="-63.5" font-family="Helvetica,sans-Serif" font-size="10.00">/ground/Mineral.cpp</text>
</a>
</g>
</g>
<!-- Node1&#45;&gt;Node2 -->
<g id="edge1" class="edge">
<title>Node1&#45;&gt;Node2</title>
<path fill="none" stroke="midnightblue" d="M96.33,-116.31C86.13,-106.56 74.31,-95.26 65.23,-86.58"/>
<polygon fill="midnightblue" stroke="midnightblue" points="94.1,-119.02 103.75,-123.4 98.93,-113.96 94.1,-119.02"/>
</g>
<!-- Node3 -->
<g id="node3" class="node">
<title>Node3</title>
<g id="a_node3"><a xlink:href="_sprites_manager_8hpp.html" target="_top" xlink:title=" ">
<polygon fill="white" stroke="black" points="119,-62 119,-81 256,-81 256,-62 119,-62"/>
<text text-anchor="middle" x="187.5" y="-69" font-family="Helvetica,sans-Serif" font-size="10.00">include/SpritesManager.hpp</text>
</a>
</g>
</g>
<!-- Node1&#45;&gt;Node3 -->
<g id="edge2" class="edge">
<title>Node1&#45;&gt;Node3</title>
<path fill="none" stroke="midnightblue" d="M140.97,-116.34C153.64,-104.4 168.78,-90.14 178.27,-81.19"/>
<polygon fill="midnightblue" stroke="midnightblue" points="138.35,-113.99 133.47,-123.4 143.15,-119.09 138.35,-113.99"/>
</g>
<!-- Node4 -->
<g id="node4" class="node">
<title>Node4</title>
<g id="a_node4"><a xlink:href="_field_8cpp.html" target="_top" xlink:title=" ">
<polygon fill="white" stroke="black" points="26.5,-0.5 26.5,-19.5 130.5,-19.5 130.5,-0.5 26.5,-0.5"/>
<text text-anchor="middle" x="78.5" y="-7.5" font-family="Helvetica,sans-Serif" font-size="10.00">src/engine/Field.cpp</text>
</a>
</g>
</g>
<!-- Node3&#45;&gt;Node4 -->
<g id="edge3" class="edge">
<title>Node3&#45;&gt;Node4</title>
<path fill="none" stroke="midnightblue" d="M162.87,-57.06C141.78,-45.54 112.04,-29.31 94.09,-19.51"/>
<polygon fill="midnightblue" stroke="midnightblue" points="161.43,-60.26 171.88,-61.98 164.78,-54.11 161.43,-60.26"/>
</g>
<!-- Node5 -->
<g id="node5" class="node">
<title>Node5</title>
<g id="a_node5"><a xlink:href="_game_8cpp.html" target="_top" xlink:title=" ">
<polygon fill="white" stroke="black" points="149,-0.5 149,-19.5 226,-19.5 226,-0.5 149,-0.5"/>
<text text-anchor="middle" x="187.5" y="-7.5" font-family="Helvetica,sans-Serif" font-size="10.00">src/Game.cpp</text>
</a>
</g>
</g>
<!-- Node3&#45;&gt;Node5 -->
<g id="edge4" class="edge">
<title>Node3&#45;&gt;Node5</title>
<path fill="none" stroke="midnightblue" d="M187.5,-51.82C187.5,-41 187.5,-27.9 187.5,-19.51"/>
<polygon fill="midnightblue" stroke="midnightblue" points="184,-51.98 187.5,-61.98 191,-51.98 184,-51.98"/>
</g>
<!-- Node6 -->
<g id="node6" class="node">
<title>Node6</title>
<g id="a_node6"><a xlink:href="_sprites_manager_8cpp.html" target="_top" xlink:title=" ">
<polygon fill="white" stroke="black" points="244,-0.5 244,-19.5 363,-19.5 363,-0.5 244,-0.5"/>
<text text-anchor="middle" x="303.5" y="-7.5" font-family="Helvetica,sans-Serif" font-size="10.00">src/SpritesManager.cpp</text>
</a>
</g>
</g>
<!-- Node3&#45;&gt;Node6 -->
<g id="edge5" class="edge">
<title>Node3&#45;&gt;Node6</title>
<path fill="none" stroke="midnightblue" d="M213.1,-57.37C235.59,-45.83 267.63,-29.4 286.91,-19.51"/>
<polygon fill="midnightblue" stroke="midnightblue" points="211.42,-54.3 204.12,-61.98 214.62,-60.53 211.42,-54.3"/>
</g>
</g>
</svg>
