<?xml version="1.0" encoding="UTF-8" standalone="no"?>
<!DOCTYPE svg PUBLIC "-//W3C//DTD SVG 1.1//EN"
 "http://www.w3.org/Graphics/SVG/1.1/DTD/svg11.dtd">
<!-- Generated by graphviz version 2.47.0 (20210407.0042)
 -->
<!-- Title: src/engine/objects/Player.cpp Pages: 1 -->
<svg width="514pt" height="487pt"
 viewBox="0.00 0.00 514.00 487.00" xmlns="http://www.w3.org/2000/svg" xmlns:xlink="http://www.w3.org/1999/xlink">
<g id="graph0" class="graph" transform="scale(1 1) rotate(0) translate(4 483)">
<title>src/engine/objects/Player.cpp</title>
<polygon fill="white" stroke="transparent" points="-4,4 -4,-483 510,-483 510,4 -4,4"/>
<!-- Node1 -->
<g id="node1" class="node">
<title>Node1</title>
<g id="a_node1"><a xlink:title=" ">
<polygon fill="#bfbfbf" stroke="black" points="376,-448.5 376,-478.5 472,-478.5 472,-448.5 376,-448.5"/>
<text text-anchor="start" x="384" y="-466.5" font-family="Helvetica,sans-Serif" font-size="10.00">src/engine/objects</text>
<text text-anchor="middle" x="424" y="-455.5" font-family="Helvetica,sans-Serif" font-size="10.00">/Player.cpp</text>
</a>
</g>
</g>
<!-- Node2 -->
<g id="node2" class="node">
<title>Node2</title>
<g id="a_node2"><a xlink:href="_player_8hpp.html" target="_top" xlink:title=" ">
<polygon fill="white" stroke="black" points="268,-392.5 268,-411.5 396,-411.5 396,-392.5 268,-392.5"/>
<text text-anchor="middle" x="332" y="-399.5" font-family="Helvetica,sans-Serif" font-size="10.00">engine/objects/Player.hpp</text>
</a>
</g>
</g>
<!-- Node1&#45;&gt;Node2 -->
<g id="edge1" class="edge">
<title>Node1&#45;&gt;Node2</title>
<path fill="none" stroke="midnightblue" d="M402.2,-448.4C387.59,-438.95 368.43,-426.56 353.82,-417.11"/>
<polygon fill="midnightblue" stroke="midnightblue" points="355.68,-414.15 345.39,-411.66 351.88,-420.03 355.68,-414.15"/>
</g>
<!-- Node7 -->
<g id="node7" class="node">
<title>Node7</title>
<g id="a_node7"><a xlink:title=" ">
<polygon fill="white" stroke="#bfbfbf" points="239,-0.5 239,-19.5 283,-19.5 283,-0.5 239,-0.5"/>
<text text-anchor="middle" x="261" y="-7.5" font-family="Helvetica,sans-Serif" font-size="10.00">cmath</text>
</a>
</g>
</g>
<!-- Node1&#45;&gt;Node7 -->
<g id="edge23" class="edge">
<title>Node1&#45;&gt;Node7</title>
<path fill="none" stroke="midnightblue" d="M424,-448.28C424,-426.48 424,-383.49 424,-347 424,-347 424,-347 424,-121 424,-58.5 340.65,-29.14 293.15,-17.48"/>
<polygon fill="midnightblue" stroke="midnightblue" points="293.86,-14.05 283.32,-15.19 292.27,-20.87 293.86,-14.05"/>
</g>
<!-- Node16 -->
<g id="node16" class="node">
<title>Node16</title>
<g id="a_node16"><a xlink:title=" ">
<polygon fill="white" stroke="#bfbfbf" points="452,-392.5 452,-411.5 506,-411.5 506,-392.5 452,-392.5"/>
<text text-anchor="middle" x="479" y="-399.5" font-family="Helvetica,sans-Serif" font-size="10.00">iostream</text>
</a>
</g>
</g>
<!-- Node1&#45;&gt;Node16 -->
<g id="edge22" class="edge">
<title>Node1&#45;&gt;Node16</title>
<path fill="none" stroke="midnightblue" d="M437.03,-448.4C445.19,-439.58 455.72,-428.18 464.19,-419.02"/>
<polygon fill="midnightblue" stroke="midnightblue" points="466.78,-421.38 471,-411.66 461.64,-416.63 466.78,-421.38"/>
</g>
<!-- Node3 -->
<g id="node3" class="node">
<title>Node3</title>
<g id="a_node3"><a xlink:href="_drawable_8hpp.html" target="_top" xlink:title=" ">
<polygon fill="white" stroke="black" points="264.5,-112.5 264.5,-131.5 371.5,-131.5 371.5,-112.5 264.5,-112.5"/>
<text text-anchor="middle" x="318" y="-119.5" font-family="Helvetica,sans-Serif" font-size="10.00">engine/Drawable.hpp</text>
</a>
</g>
</g>
<!-- Node2&#45;&gt;Node3 -->
<g id="edge2" class="edge">
<title>Node2&#45;&gt;Node3</title>
<path fill="none" stroke="midnightblue" d="M339.74,-392.31C354.67,-374.59 386,-332.48 386,-291 386,-291 386,-291 386,-233 386,-194.55 355.57,-158.31 335.42,-138.54"/>
<polygon fill="midnightblue" stroke="midnightblue" points="337.71,-135.89 328.03,-131.57 332.9,-140.98 337.71,-135.89"/>
</g>
<!-- Node8 -->
<g id="node8" class="node">
<title>Node8</title>
<g id="a_node8"><a xlink:href="_world_actor_8hpp.html" target="_top" xlink:title=" ">
<polygon fill="white" stroke="black" points="36,-336.5 36,-355.5 150,-355.5 150,-336.5 36,-336.5"/>
<text text-anchor="middle" x="93" y="-343.5" font-family="Helvetica,sans-Serif" font-size="10.00">engine/WorldActor.hpp</text>
</a>
</g>
</g>
<!-- Node2&#45;&gt;Node8 -->
<g id="edge7" class="edge">
<title>Node2&#45;&gt;Node8</title>
<path fill="none" stroke="midnightblue" d="M294.13,-392.44C252.52,-383.04 185.63,-367.93 140.53,-357.74"/>
<polygon fill="midnightblue" stroke="midnightblue" points="141.22,-354.31 130.69,-355.52 139.68,-361.13 141.22,-354.31"/>
</g>
<!-- Node4 -->
<g id="node4" class="node">
<title>Node4</title>
<g id="a_node4"><a xlink:title=" ">
<polygon fill="white" stroke="#bfbfbf" points="285,-56.5 285,-75.5 351,-75.5 351,-56.5 285,-56.5"/>
<text text-anchor="middle" x="318" y="-63.5" font-family="Helvetica,sans-Serif" font-size="10.00">string_view</text>
</a>
</g>
</g>
<!-- Node3&#45;&gt;Node4 -->
<g id="edge3" class="edge">
<title>Node3&#45;&gt;Node4</title>
<path fill="none" stroke="midnightblue" d="M318,-112.08C318,-105.01 318,-94.86 318,-85.99"/>
<polygon fill="midnightblue" stroke="midnightblue" points="321.5,-85.75 318,-75.75 314.5,-85.75 321.5,-85.75"/>
</g>
<!-- Node5 -->
<g id="node5" class="node">
<title>Node5</title>
<g id="a_node5"><a xlink:href="_vector2_d_8hpp.html" target="_top" xlink:title=" ">
<polygon fill="white" stroke="black" points="69,-56.5 69,-75.5 181,-75.5 181,-56.5 69,-56.5"/>
<text text-anchor="middle" x="125" y="-63.5" font-family="Helvetica,sans-Serif" font-size="10.00">Helpers/Vector2D.hpp</text>
</a>
</g>
</g>
<!-- Node3&#45;&gt;Node5 -->
<g id="edge4" class="edge">
<title>Node3&#45;&gt;Node5</title>
<path fill="none" stroke="midnightblue" d="M287.42,-112.44C254.39,-103.2 201.61,-88.44 165.23,-78.26"/>
<polygon fill="midnightblue" stroke="midnightblue" points="166.01,-74.84 155.44,-75.52 164.13,-81.58 166.01,-74.84"/>
</g>
<!-- Node6 -->
<g id="node6" class="node">
<title>Node6</title>
<g id="a_node6"><a xlink:title=" ">
<polygon fill="white" stroke="#bfbfbf" points="105.5,-0.5 105.5,-19.5 144.5,-19.5 144.5,-0.5 105.5,-0.5"/>
<text text-anchor="middle" x="125" y="-7.5" font-family="Helvetica,sans-Serif" font-size="10.00">utility</text>
</a>
</g>
</g>
<!-- Node5&#45;&gt;Node6 -->
<g id="edge5" class="edge">
<title>Node5&#45;&gt;Node6</title>
<path fill="none" stroke="midnightblue" d="M125,-56.08C125,-49.01 125,-38.86 125,-29.99"/>
<polygon fill="midnightblue" stroke="midnightblue" points="128.5,-29.75 125,-19.75 121.5,-29.75 128.5,-29.75"/>
</g>
<!-- Node5&#45;&gt;Node7 -->
<g id="edge6" class="edge">
<title>Node5&#45;&gt;Node7</title>
<path fill="none" stroke="midnightblue" d="M146.55,-56.44C169.03,-47.52 204.49,-33.44 229.98,-23.32"/>
<polygon fill="midnightblue" stroke="midnightblue" points="231.55,-26.46 239.55,-19.52 228.97,-19.95 231.55,-26.46"/>
</g>
<!-- Node8&#45;&gt;Node5 -->
<g id="edge8" class="edge">
<title>Node8&#45;&gt;Node5</title>
<path fill="none" stroke="midnightblue" d="M77.64,-336.31C51.23,-320.09 0,-282.51 0,-235 0,-235 0,-235 0,-177 0,-128.17 54.42,-95.89 91.44,-79.58"/>
<polygon fill="midnightblue" stroke="midnightblue" points="93.05,-82.7 100.9,-75.59 90.32,-76.25 93.05,-82.7"/>
</g>
<!-- Node9 -->
<g id="node9" class="node">
<title>Node9</title>
<g id="a_node9"><a xlink:href="_field_8hpp.html" target="_top" xlink:title=" ">
<polygon fill="white" stroke="black" points="65,-280.5 65,-299.5 121,-299.5 121,-280.5 65,-280.5"/>
<text text-anchor="middle" x="93" y="-287.5" font-family="Helvetica,sans-Serif" font-size="10.00">Field.hpp</text>
</a>
</g>
</g>
<!-- Node8&#45;&gt;Node9 -->
<g id="edge9" class="edge">
<title>Node8&#45;&gt;Node9</title>
<path fill="none" stroke="midnightblue" d="M93,-336.08C93,-329.01 93,-318.86 93,-309.99"/>
<polygon fill="midnightblue" stroke="midnightblue" points="96.5,-309.75 93,-299.75 89.5,-309.75 96.5,-309.75"/>
</g>
<!-- Node9&#45;&gt;Node5 -->
<g id="edge21" class="edge">
<title>Node9&#45;&gt;Node5</title>
<path fill="none" stroke="midnightblue" d="M87.39,-280.3C70.87,-253.52 25.53,-170.56 57,-112 64.62,-97.82 78.9,-87.35 92.41,-80.1"/>
<polygon fill="midnightblue" stroke="midnightblue" points="94.13,-83.16 101.55,-75.59 91.03,-76.88 94.13,-83.16"/>
</g>
<!-- Node10 -->
<g id="node10" class="node">
<title>Node10</title>
<g id="a_node10"><a xlink:href="_cell_8hpp.html" target="_top" xlink:title=" ">
<polygon fill="white" stroke="black" points="106.5,-224.5 106.5,-243.5 223.5,-243.5 223.5,-224.5 106.5,-224.5"/>
<text text-anchor="middle" x="165" y="-231.5" font-family="Helvetica,sans-Serif" font-size="10.00">engine/objects/Cell.hpp</text>
</a>
</g>
</g>
<!-- Node9&#45;&gt;Node10 -->
<g id="edge10" class="edge">
<title>Node9&#45;&gt;Node10</title>
<path fill="none" stroke="midnightblue" d="M104.57,-280.32C115.42,-272.18 131.88,-259.84 144.88,-250.09"/>
<polygon fill="midnightblue" stroke="midnightblue" points="147.32,-252.63 153.22,-243.83 143.12,-247.03 147.32,-252.63"/>
</g>
<!-- Node10&#45;&gt;Node3 -->
<g id="edge11" class="edge">
<title>Node10&#45;&gt;Node3</title>
<path fill="none" stroke="midnightblue" d="M223.87,-224.48C265.48,-217.11 316.07,-204.96 329,-188 339.28,-174.52 333.99,-154.89 327.7,-140.74"/>
<polygon fill="midnightblue" stroke="midnightblue" points="330.73,-138.97 323.15,-131.56 324.45,-142.07 330.73,-138.97"/>
</g>
<!-- Node11 -->
<g id="node11" class="node">
<title>Node11</title>
<g id="a_node11"><a xlink:href="_tickable_8hpp.html" target="_top" xlink:title=" ">
<polygon fill="white" stroke="black" points="66.5,-112.5 66.5,-131.5 169.5,-131.5 169.5,-112.5 66.5,-112.5"/>
<text text-anchor="middle" x="118" y="-119.5" font-family="Helvetica,sans-Serif" font-size="10.00">engine/Tickable.hpp</text>
</a>
</g>
</g>
<!-- Node10&#45;&gt;Node11 -->
<g id="edge12" class="edge">
<title>Node10&#45;&gt;Node11</title>
<path fill="none" stroke="midnightblue" d="M140.53,-224.44C124.43,-217.38 104.62,-205.63 95,-188 86.61,-172.63 95.31,-153.61 104.32,-140.12"/>
<polygon fill="midnightblue" stroke="midnightblue" points="107.33,-141.93 110.39,-131.78 101.68,-137.81 107.33,-141.93"/>
</g>
<!-- Node12 -->
<g id="node12" class="node">
<title>Node12</title>
<g id="a_node12"><a xlink:title=" ">
<polygon fill="white" stroke="#bfbfbf" points="104,-168.5 104,-187.5 148,-187.5 148,-168.5 104,-168.5"/>
<text text-anchor="middle" x="126" y="-175.5" font-family="Helvetica,sans-Serif" font-size="10.00">vector</text>
</a>
</g>
</g>
<!-- Node10&#45;&gt;Node12 -->
<g id="edge13" class="edge">
<title>Node10&#45;&gt;Node12</title>
<path fill="none" stroke="midnightblue" d="M158.56,-224.08C153.05,-216.46 144.97,-205.26 138.24,-195.94"/>
<polygon fill="midnightblue" stroke="midnightblue" points="141.01,-193.81 132.32,-187.75 135.34,-197.91 141.01,-193.81"/>
</g>
<!-- Node13 -->
<g id="node13" class="node">
<title>Node13</title>
<g id="a_node13"><a xlink:href="_ground_8hpp.html" target="_top" xlink:title=" ">
<polygon fill="white" stroke="black" points="254,-168.5 254,-187.5 320,-187.5 320,-168.5 254,-168.5"/>
<text text-anchor="middle" x="287" y="-175.5" font-family="Helvetica,sans-Serif" font-size="10.00">Ground.hpp</text>
</a>
</g>
</g>
<!-- Node10&#45;&gt;Node13 -->
<g id="edge14" class="edge">
<title>Node10&#45;&gt;Node13</title>
<path fill="none" stroke="midnightblue" d="M184.33,-224.44C204.32,-215.6 235.74,-201.69 258.56,-191.59"/>
<polygon fill="midnightblue" stroke="midnightblue" points="260.03,-194.76 267.76,-187.52 257.2,-188.36 260.03,-194.76"/>
</g>
<!-- Node14 -->
<g id="node14" class="node">
<title>Node14</title>
<g id="a_node14"><a xlink:href="_building_8hpp.html" target="_top" xlink:title=" ">
<polygon fill="white" stroke="black" points="166.5,-168.5 166.5,-187.5 235.5,-187.5 235.5,-168.5 166.5,-168.5"/>
<text text-anchor="middle" x="201" y="-175.5" font-family="Helvetica,sans-Serif" font-size="10.00">Building.hpp</text>
</a>
</g>
</g>
<!-- Node10&#45;&gt;Node14 -->
<g id="edge17" class="edge">
<title>Node10&#45;&gt;Node14</title>
<path fill="none" stroke="midnightblue" d="M170.94,-224.08C175.98,-216.53 183.34,-205.49 189.51,-196.23"/>
<polygon fill="midnightblue" stroke="midnightblue" points="192.53,-198.01 195.17,-187.75 186.71,-194.13 192.53,-198.01"/>
</g>
<!-- Node13&#45;&gt;Node3 -->
<g id="edge15" class="edge">
<title>Node13&#45;&gt;Node3</title>
<path fill="none" stroke="midnightblue" d="M292.12,-168.08C296.41,-160.61 302.66,-149.72 307.94,-140.52"/>
<polygon fill="midnightblue" stroke="midnightblue" points="311.03,-142.17 312.98,-131.75 304.96,-138.68 311.03,-142.17"/>
</g>
<!-- Node13&#45;&gt;Node11 -->
<g id="edge16" class="edge">
<title>Node13&#45;&gt;Node11</title>
<path fill="none" stroke="midnightblue" d="M260.22,-168.44C231.67,-159.32 186.27,-144.81 154.46,-134.65"/>
<polygon fill="midnightblue" stroke="midnightblue" points="155.24,-131.23 144.65,-131.52 153.11,-137.89 155.24,-131.23"/>
</g>
<!-- Node14&#45;&gt;Node3 -->
<g id="edge18" class="edge">
<title>Node14&#45;&gt;Node3</title>
<path fill="none" stroke="midnightblue" d="M219.54,-168.44C238.62,-159.64 268.57,-145.81 290.44,-135.72"/>
<polygon fill="midnightblue" stroke="midnightblue" points="291.93,-138.88 299.55,-131.52 289,-132.53 291.93,-138.88"/>
</g>
<!-- Node14&#45;&gt;Node11 -->
<g id="edge19" class="edge">
<title>Node14&#45;&gt;Node11</title>
<path fill="none" stroke="midnightblue" d="M187.66,-168.32C174.84,-159.98 155.22,-147.21 140.06,-137.35"/>
<polygon fill="midnightblue" stroke="midnightblue" points="141.59,-134.17 131.3,-131.65 137.78,-140.04 141.59,-134.17"/>
</g>
<!-- Node15 -->
<g id="node15" class="node">
<title>Node15</title>
<g id="a_node15"><a xlink:title=" ">
<polygon fill="white" stroke="#bfbfbf" points="187.5,-112.5 187.5,-131.5 246.5,-131.5 246.5,-112.5 187.5,-112.5"/>
<text text-anchor="middle" x="217" y="-119.5" font-family="Helvetica,sans-Serif" font-size="10.00">functional</text>
</a>
</g>
</g>
<!-- Node14&#45;&gt;Node15 -->
<g id="edge20" class="edge">
<title>Node14&#45;&gt;Node15</title>
<path fill="none" stroke="midnightblue" d="M203.64,-168.08C205.79,-160.85 208.88,-150.41 211.55,-141.4"/>
<polygon fill="midnightblue" stroke="midnightblue" points="214.92,-142.33 214.41,-131.75 208.21,-140.34 214.92,-142.33"/>
</g>
</g>
</svg>
