<?xml version="1.0" encoding="UTF-8" standalone="no"?>
<!DOCTYPE svg PUBLIC "-//W3C//DTD SVG 1.1//EN"
 "http://www.w3.org/Graphics/SVG/1.1/DTD/svg11.dtd">
<!-- Generated by graphviz version 2.47.0 (20210407.0042)
 -->
<!-- Title: include/engine/objects/Player.hpp Pages: 1 -->
<svg width="320pt" height="162pt"
 viewBox="0.00 0.00 319.50 162.00" xmlns="http://www.w3.org/2000/svg" xmlns:xlink="http://www.w3.org/1999/xlink">
<g id="graph0" class="graph" transform="scale(1 1) rotate(0) translate(4 158)">
<title>include/engine/objects/Player.hpp</title>
<polygon fill="white" stroke="transparent" points="-4,4 -4,-158 315.5,-158 315.5,4 -4,4"/>
<!-- Node1 -->
<g id="node1" class="node">
<title>Node1</title>
<g id="a_node1"><a xlink:title=" ">
<polygon fill="#bfbfbf" stroke="black" points="67,-123.5 67,-153.5 180,-153.5 180,-123.5 67,-123.5"/>
<text text-anchor="start" x="75" y="-141.5" font-family="Helvetica,sans-Serif" font-size="10.00">include/engine/objects</text>
<text text-anchor="middle" x="123.5" y="-130.5" font-family="Helvetica,sans-Serif" font-size="10.00">/Player.hpp</text>
</a>
</g>
</g>
<!-- Node2 -->
<g id="node2" class="node">
<title>Node2</title>
<g id="a_node2"><a xlink:href="_player_8cpp.html" target="_top" xlink:title=" ">
<polygon fill="white" stroke="black" points="18.5,-56.5 18.5,-86.5 114.5,-86.5 114.5,-56.5 18.5,-56.5"/>
<text text-anchor="start" x="26.5" y="-74.5" font-family="Helvetica,sans-Serif" font-size="10.00">src/engine/objects</text>
<text text-anchor="middle" x="66.5" y="-63.5" font-family="Helvetica,sans-Serif" font-size="10.00">/Player.cpp</text>
</a>
</g>
</g>
<!-- Node1&#45;&gt;Node2 -->
<g id="edge1" class="edge">
<title>Node1&#45;&gt;Node2</title>
<path fill="none" stroke="midnightblue" d="M104.41,-115.74C95.98,-106.12 86.31,-95.09 78.84,-86.58"/>
<polygon fill="midnightblue" stroke="midnightblue" points="101.91,-118.18 111.13,-123.4 107.17,-113.57 101.91,-118.18"/>
</g>
<!-- Node3 -->
<g id="node3" class="node">
<title>Node3</title>
<g id="a_node3"><a xlink:href="_engine_8hpp.html" target="_top" xlink:title=" ">
<polygon fill="white" stroke="black" points="132.5,-62 132.5,-81 230.5,-81 230.5,-62 132.5,-62"/>
<text text-anchor="middle" x="181.5" y="-69" font-family="Helvetica,sans-Serif" font-size="10.00">include/Engine.hpp</text>
</a>
</g>
</g>
<!-- Node1&#45;&gt;Node3 -->
<g id="edge2" class="edge">
<title>Node1&#45;&gt;Node3</title>
<path fill="none" stroke="midnightblue" d="M142.99,-115.66C153.51,-103.86 165.91,-89.97 173.74,-81.19"/>
<polygon fill="midnightblue" stroke="midnightblue" points="140.13,-113.6 136.09,-123.4 145.35,-118.26 140.13,-113.6"/>
</g>
<!-- Node4 -->
<g id="node4" class="node">
<title>Node4</title>
<g id="a_node4"><a xlink:href="_drawable_8cpp.html" target="_top" xlink:title=" ">
<polygon fill="white" stroke="black" points="0,-0.5 0,-19.5 123,-19.5 123,-0.5 0,-0.5"/>
<text text-anchor="middle" x="61.5" y="-7.5" font-family="Helvetica,sans-Serif" font-size="10.00">src/engine/Drawable.cpp</text>
</a>
</g>
</g>
<!-- Node3&#45;&gt;Node4 -->
<g id="edge3" class="edge">
<title>Node3&#45;&gt;Node4</title>
<path fill="none" stroke="midnightblue" d="M155.32,-57.52C132.05,-45.98 98.7,-29.44 78.66,-19.51"/>
<polygon fill="midnightblue" stroke="midnightblue" points="153.79,-60.67 164.31,-61.98 156.9,-54.4 153.79,-60.67"/>
</g>
<!-- Node5 -->
<g id="node5" class="node">
<title>Node5</title>
<g id="a_node5"><a xlink:href="_engine_8cpp.html" target="_top" xlink:title=" ">
<polygon fill="white" stroke="black" points="141.5,-0.5 141.5,-19.5 221.5,-19.5 221.5,-0.5 141.5,-0.5"/>
<text text-anchor="middle" x="181.5" y="-7.5" font-family="Helvetica,sans-Serif" font-size="10.00">src/Engine.cpp</text>
</a>
</g>
</g>
<!-- Node3&#45;&gt;Node5 -->
<g id="edge4" class="edge">
<title>Node3&#45;&gt;Node5</title>
<path fill="none" stroke="midnightblue" d="M181.5,-51.82C181.5,-41 181.5,-27.9 181.5,-19.51"/>
<polygon fill="midnightblue" stroke="midnightblue" points="178,-51.98 181.5,-61.98 185,-51.98 178,-51.98"/>
</g>
<!-- Node6 -->
<g id="node6" class="node">
<title>Node6</title>
<g id="a_node6"><a xlink:href="main_8cpp.html" target="_top" xlink:title=" ">
<polygon fill="white" stroke="black" points="239.5,-0.5 239.5,-19.5 311.5,-19.5 311.5,-0.5 239.5,-0.5"/>
<text text-anchor="middle" x="275.5" y="-7.5" font-family="Helvetica,sans-Serif" font-size="10.00">src/main.cpp</text>
</a>
</g>
</g>
<!-- Node3&#45;&gt;Node6 -->
<g id="edge5" class="edge">
<title>Node3&#45;&gt;Node6</title>
<path fill="none" stroke="midnightblue" d="M203.73,-56.43C221.85,-44.96 246.85,-29.13 262.06,-19.51"/>
<polygon fill="midnightblue" stroke="midnightblue" points="201.55,-53.67 194.97,-61.98 205.29,-59.58 201.55,-53.67"/>
</g>
</g>
</svg>
