<?xml version="1.0" encoding="UTF-8" standalone="no"?>
<!DOCTYPE svg PUBLIC "-//W3C//DTD SVG 1.1//EN"
 "http://www.w3.org/Graphics/SVG/1.1/DTD/svg11.dtd">
<!-- Generated by graphviz version 2.47.0 (20210407.0042)
 -->
<!-- Title: include/engine/objects/Player.hpp Pages: 1 -->
<svg width="412pt" height="431pt"
 viewBox="0.00 0.00 412.00 431.00" xmlns="http://www.w3.org/2000/svg" xmlns:xlink="http://www.w3.org/1999/xlink">
<g id="graph0" class="graph" transform="scale(1 1) rotate(0) translate(4 427)">
<title>include/engine/objects/Player.hpp</title>
<polygon fill="white" stroke="transparent" points="-4,4 -4,-427 408,-427 408,4 -4,4"/>
<!-- Node1 -->
<g id="node1" class="node">
<title>Node1</title>
<g id="a_node1"><a xlink:title=" ">
<polygon fill="#bfbfbf" stroke="black" points="31.5,-392.5 31.5,-422.5 144.5,-422.5 144.5,-392.5 31.5,-392.5"/>
<text text-anchor="start" x="39.5" y="-410.5" font-family="Helvetica,sans-Serif" font-size="10.00">include/engine/objects</text>
<text text-anchor="middle" x="88" y="-399.5" font-family="Helvetica,sans-Serif" font-size="10.00">/Player.hpp</text>
</a>
</g>
</g>
<!-- Node2 -->
<g id="node2" class="node">
<title>Node2</title>
<g id="a_node2"><a xlink:href="_drawable_8hpp.html" target="_top" xlink:title=" ">
<polygon fill="white" stroke="black" points="47.5,-112.5 47.5,-131.5 154.5,-131.5 154.5,-112.5 47.5,-112.5"/>
<text text-anchor="middle" x="101" y="-119.5" font-family="Helvetica,sans-Serif" font-size="10.00">engine/Drawable.hpp</text>
</a>
</g>
</g>
<!-- Node1&#45;&gt;Node2 -->
<g id="edge1" class="edge">
<title>Node1&#45;&gt;Node2</title>
<path fill="none" stroke="midnightblue" d="M67.15,-392.38C41.12,-372.89 0,-335.12 0,-291 0,-291 0,-291 0,-233 0,-188.59 45.21,-154.37 75.14,-136.58"/>
<polygon fill="midnightblue" stroke="midnightblue" points="76.92,-139.59 83.87,-131.59 73.45,-133.51 76.92,-139.59"/>
</g>
<!-- Node6 -->
<g id="node6" class="node">
<title>Node6</title>
<g id="a_node6"><a xlink:href="_world_actor_8hpp.html" target="_top" xlink:title=" ">
<polygon fill="white" stroke="black" points="232,-336.5 232,-355.5 346,-355.5 346,-336.5 232,-336.5"/>
<text text-anchor="middle" x="289" y="-343.5" font-family="Helvetica,sans-Serif" font-size="10.00">engine/WorldActor.hpp</text>
</a>
</g>
</g>
<!-- Node1&#45;&gt;Node6 -->
<g id="edge5" class="edge">
<title>Node1&#45;&gt;Node6</title>
<path fill="none" stroke="midnightblue" d="M135.38,-392.47C170.51,-382.08 217.79,-368.08 250.58,-358.37"/>
<polygon fill="midnightblue" stroke="midnightblue" points="251.67,-361.7 260.26,-355.51 249.68,-354.99 251.67,-361.7"/>
</g>
<!-- Node3 -->
<g id="node3" class="node">
<title>Node3</title>
<g id="a_node3"><a xlink:title=" ">
<polygon fill="white" stroke="#bfbfbf" points="68,-56.5 68,-75.5 134,-75.5 134,-56.5 68,-56.5"/>
<text text-anchor="middle" x="101" y="-63.5" font-family="Helvetica,sans-Serif" font-size="10.00">string_view</text>
</a>
</g>
</g>
<!-- Node2&#45;&gt;Node3 -->
<g id="edge2" class="edge">
<title>Node2&#45;&gt;Node3</title>
<path fill="none" stroke="midnightblue" d="M101,-112.08C101,-105.01 101,-94.86 101,-85.99"/>
<polygon fill="midnightblue" stroke="midnightblue" points="104.5,-85.75 101,-75.75 97.5,-85.75 104.5,-85.75"/>
</g>
<!-- Node4 -->
<g id="node4" class="node">
<title>Node4</title>
<g id="a_node4"><a xlink:href="_vector2_d_8hpp.html" target="_top" xlink:title=" ">
<polygon fill="white" stroke="black" points="292,-56.5 292,-75.5 404,-75.5 404,-56.5 292,-56.5"/>
<text text-anchor="middle" x="348" y="-63.5" font-family="Helvetica,sans-Serif" font-size="10.00">Helpers/Vector2D.hpp</text>
</a>
</g>
</g>
<!-- Node2&#45;&gt;Node4 -->
<g id="edge3" class="edge">
<title>Node2&#45;&gt;Node4</title>
<path fill="none" stroke="midnightblue" d="M140.14,-112.44C183.23,-103.02 252.56,-87.87 299.17,-77.68"/>
<polygon fill="midnightblue" stroke="midnightblue" points="300.02,-81.07 309.05,-75.52 298.53,-74.23 300.02,-81.07"/>
</g>
<!-- Node5 -->
<g id="node5" class="node">
<title>Node5</title>
<g id="a_node5"><a xlink:title=" ">
<polygon fill="white" stroke="#bfbfbf" points="328.5,-0.5 328.5,-19.5 367.5,-19.5 367.5,-0.5 328.5,-0.5"/>
<text text-anchor="middle" x="348" y="-7.5" font-family="Helvetica,sans-Serif" font-size="10.00">utility</text>
</a>
</g>
</g>
<!-- Node4&#45;&gt;Node5 -->
<g id="edge4" class="edge">
<title>Node4&#45;&gt;Node5</title>
<path fill="none" stroke="midnightblue" d="M348,-56.08C348,-49.01 348,-38.86 348,-29.99"/>
<polygon fill="midnightblue" stroke="midnightblue" points="351.5,-29.75 348,-19.75 344.5,-29.75 351.5,-29.75"/>
</g>
<!-- Node6&#45;&gt;Node4 -->
<g id="edge6" class="edge">
<title>Node6&#45;&gt;Node4</title>
<path fill="none" stroke="midnightblue" d="M305.02,-336.48C332.57,-320.54 386,-283.38 386,-235 386,-235 386,-235 386,-177 386,-142.81 369.4,-105.76 358.14,-84.57"/>
<polygon fill="midnightblue" stroke="midnightblue" points="361.18,-82.83 353.28,-75.77 355.05,-86.22 361.18,-82.83"/>
</g>
<!-- Node7 -->
<g id="node7" class="node">
<title>Node7</title>
<g id="a_node7"><a xlink:href="_field_8hpp.html" target="_top" xlink:title=" ">
<polygon fill="white" stroke="black" points="261,-280.5 261,-299.5 317,-299.5 317,-280.5 261,-280.5"/>
<text text-anchor="middle" x="289" y="-287.5" font-family="Helvetica,sans-Serif" font-size="10.00">Field.hpp</text>
</a>
</g>
</g>
<!-- Node6&#45;&gt;Node7 -->
<g id="edge7" class="edge">
<title>Node6&#45;&gt;Node7</title>
<path fill="none" stroke="midnightblue" d="M289,-336.08C289,-329.01 289,-318.86 289,-309.99"/>
<polygon fill="midnightblue" stroke="midnightblue" points="292.5,-309.75 289,-299.75 285.5,-309.75 292.5,-309.75"/>
</g>
<!-- Node7&#45;&gt;Node4 -->
<g id="edge18" class="edge">
<title>Node7&#45;&gt;Node4</title>
<path fill="none" stroke="midnightblue" d="M291.31,-280.3C300.01,-247.56 330.89,-131.38 343.04,-85.67"/>
<polygon fill="midnightblue" stroke="midnightblue" points="346.45,-86.45 345.64,-75.88 339.69,-84.65 346.45,-86.45"/>
</g>
<!-- Node8 -->
<g id="node8" class="node">
<title>Node8</title>
<g id="a_node8"><a xlink:href="_cell_8hpp.html" target="_top" xlink:title=" ">
<polygon fill="white" stroke="black" points="153.5,-224.5 153.5,-243.5 270.5,-243.5 270.5,-224.5 153.5,-224.5"/>
<text text-anchor="middle" x="212" y="-231.5" font-family="Helvetica,sans-Serif" font-size="10.00">engine/objects/Cell.hpp</text>
</a>
</g>
</g>
<!-- Node7&#45;&gt;Node8 -->
<g id="edge8" class="edge">
<title>Node7&#45;&gt;Node8</title>
<path fill="none" stroke="midnightblue" d="M276.63,-280.32C264.84,-272.06 246.87,-259.45 232.86,-249.63"/>
<polygon fill="midnightblue" stroke="midnightblue" points="234.54,-246.53 224.34,-243.65 230.52,-252.26 234.54,-246.53"/>
</g>
<!-- Node8&#45;&gt;Node2 -->
<g id="edge9" class="edge">
<title>Node8&#45;&gt;Node2</title>
<path fill="none" stroke="midnightblue" d="M159.1,-224.46C119.57,-216.87 70.32,-204.44 58,-188 45.56,-171.41 63.43,-151.38 79.78,-137.98"/>
<polygon fill="midnightblue" stroke="midnightblue" points="82.23,-140.51 88.02,-131.63 77.96,-134.96 82.23,-140.51"/>
</g>
<!-- Node9 -->
<g id="node9" class="node">
<title>Node9</title>
<g id="a_node9"><a xlink:href="_tickable_8hpp.html" target="_top" xlink:title=" ">
<polygon fill="white" stroke="black" points="197.5,-112.5 197.5,-131.5 300.5,-131.5 300.5,-112.5 197.5,-112.5"/>
<text text-anchor="middle" x="249" y="-119.5" font-family="Helvetica,sans-Serif" font-size="10.00">engine/Tickable.hpp</text>
</a>
</g>
</g>
<!-- Node8&#45;&gt;Node9 -->
<g id="edge10" class="edge">
<title>Node8&#45;&gt;Node9</title>
<path fill="none" stroke="midnightblue" d="M241.88,-224.39C259.54,-217.59 280.45,-206.15 291,-188 301.14,-170.55 284.93,-151.21 269.79,-138.19"/>
<polygon fill="midnightblue" stroke="midnightblue" points="271.66,-135.2 261.67,-131.67 267.27,-140.66 271.66,-135.2"/>
</g>
<!-- Node10 -->
<g id="node10" class="node">
<title>Node10</title>
<g id="a_node10"><a xlink:title=" ">
<polygon fill="white" stroke="#bfbfbf" points="154,-168.5 154,-187.5 198,-187.5 198,-168.5 154,-168.5"/>
<text text-anchor="middle" x="176" y="-175.5" font-family="Helvetica,sans-Serif" font-size="10.00">vector</text>
</a>
</g>
</g>
<!-- Node8&#45;&gt;Node10 -->
<g id="edge11" class="edge">
<title>Node8&#45;&gt;Node10</title>
<path fill="none" stroke="midnightblue" d="M206.06,-224.08C201.02,-216.53 193.66,-205.49 187.49,-196.23"/>
<polygon fill="midnightblue" stroke="midnightblue" points="190.29,-194.13 181.83,-187.75 184.47,-198.01 190.29,-194.13"/>
</g>
<!-- Node11 -->
<g id="node11" class="node">
<title>Node11</title>
<g id="a_node11"><a xlink:href="_ground_8hpp.html" target="_top" xlink:title=" ">
<polygon fill="white" stroke="black" points="216,-168.5 216,-187.5 282,-187.5 282,-168.5 216,-168.5"/>
<text text-anchor="middle" x="249" y="-175.5" font-family="Helvetica,sans-Serif" font-size="10.00">Ground.hpp</text>
</a>
</g>
</g>
<!-- Node8&#45;&gt;Node11 -->
<g id="edge12" class="edge">
<title>Node8&#45;&gt;Node11</title>
<path fill="none" stroke="midnightblue" d="M218.11,-224.08C223.28,-216.53 230.85,-205.49 237.19,-196.23"/>
<polygon fill="midnightblue" stroke="midnightblue" points="240.24,-197.98 243,-187.75 234.46,-194.02 240.24,-197.98"/>
</g>
<!-- Node12 -->
<g id="node12" class="node">
<title>Node12</title>
<g id="a_node12"><a xlink:href="_building_8hpp.html" target="_top" xlink:title=" ">
<polygon fill="white" stroke="black" points="66.5,-168.5 66.5,-187.5 135.5,-187.5 135.5,-168.5 66.5,-168.5"/>
<text text-anchor="middle" x="101" y="-175.5" font-family="Helvetica,sans-Serif" font-size="10.00">Building.hpp</text>
</a>
</g>
</g>
<!-- Node8&#45;&gt;Node12 -->
<g id="edge15" class="edge">
<title>Node8&#45;&gt;Node12</title>
<path fill="none" stroke="midnightblue" d="M194.17,-224.32C176.28,-215.62 148.52,-202.12 127.95,-192.11"/>
<polygon fill="midnightblue" stroke="midnightblue" points="129.31,-188.88 118.79,-187.65 126.25,-195.18 129.31,-188.88"/>
</g>
<!-- Node11&#45;&gt;Node2 -->
<g id="edge13" class="edge">
<title>Node11&#45;&gt;Node2</title>
<path fill="none" stroke="midnightblue" d="M225.55,-168.44C200.87,-159.44 161.81,-145.19 134.02,-135.05"/>
<polygon fill="midnightblue" stroke="midnightblue" points="134.94,-131.66 124.34,-131.52 132.54,-138.23 134.94,-131.66"/>
</g>
<!-- Node11&#45;&gt;Node9 -->
<g id="edge14" class="edge">
<title>Node11&#45;&gt;Node9</title>
<path fill="none" stroke="midnightblue" d="M249,-168.08C249,-161.01 249,-150.86 249,-141.99"/>
<polygon fill="midnightblue" stroke="midnightblue" points="252.5,-141.75 249,-131.75 245.5,-141.75 252.5,-141.75"/>
</g>
<!-- Node12&#45;&gt;Node2 -->
<g id="edge16" class="edge">
<title>Node12&#45;&gt;Node2</title>
<path fill="none" stroke="midnightblue" d="M101,-168.08C101,-161.01 101,-150.86 101,-141.99"/>
<polygon fill="midnightblue" stroke="midnightblue" points="104.5,-141.75 101,-131.75 97.5,-141.75 104.5,-141.75"/>
</g>
<!-- Node12&#45;&gt;Node9 -->
<g id="edge17" class="edge">
<title>Node12&#45;&gt;Node9</title>
<path fill="none" stroke="midnightblue" d="M124.45,-168.44C149.13,-159.44 188.19,-145.19 215.98,-135.05"/>
<polygon fill="midnightblue" stroke="midnightblue" points="217.46,-138.23 225.66,-131.52 215.06,-131.66 217.46,-138.23"/>
</g>
</g>
</svg>
