<?xml version="1.0" encoding="UTF-8" standalone="no"?>
<!DOCTYPE svg PUBLIC "-//W3C//DTD SVG 1.1//EN"
 "http://www.w3.org/Graphics/SVG/1.1/DTD/svg11.dtd">
<!-- Generated by graphviz version 2.47.0 (20210407.0042)
 -->
<!-- Title: src/engine/objects/Player.cpp Pages: 1 -->
<svg width="412pt" height="431pt"
 viewBox="0.00 0.00 412.00 431.00" xmlns="http://www.w3.org/2000/svg" xmlns:xlink="http://www.w3.org/1999/xlink">
<g id="graph0" class="graph" transform="scale(1 1) rotate(0) translate(4 427)">
<title>src/engine/objects/Player.cpp</title>
<polygon fill="white" stroke="transparent" points="-4,4 -4,-427 408,-427 408,4 -4,4"/>
<!-- Node1 -->
<g id="node1" class="node">
<title>Node1</title>
<g id="a_node1"><a xlink:title=" ">
<polygon fill="#bfbfbf" stroke="black" points="149,-392.5 149,-422.5 245,-422.5 245,-392.5 149,-392.5"/>
<text text-anchor="start" x="157" y="-410.5" font-family="Helvetica,sans-Serif" font-size="10.00">src/engine/objects</text>
<text text-anchor="middle" x="197" y="-399.5" font-family="Helvetica,sans-Serif" font-size="10.00">/Player.cpp</text>
</a>
</g>
</g>
<!-- Node2 -->
<g id="node2" class="node">
<title>Node2</title>
<g id="a_node2"><a xlink:href="_player_8hpp.html" target="_top" xlink:title=" ">
<polygon fill="white" stroke="black" points="24,-336.5 24,-355.5 152,-355.5 152,-336.5 24,-336.5"/>
<text text-anchor="middle" x="88" y="-343.5" font-family="Helvetica,sans-Serif" font-size="10.00">engine/objects/Player.hpp</text>
</a>
</g>
</g>
<!-- Node1&#45;&gt;Node2 -->
<g id="edge1" class="edge">
<title>Node1&#45;&gt;Node2</title>
<path fill="none" stroke="midnightblue" d="M171.17,-392.4C153.53,-382.77 130.3,-370.09 112.87,-360.58"/>
<polygon fill="midnightblue" stroke="midnightblue" points="114.31,-357.38 103.86,-355.66 110.96,-363.52 114.31,-357.38"/>
</g>
<!-- Node13 -->
<g id="node13" class="node">
<title>Node13</title>
<g id="a_node13"><a xlink:title=" ">
<polygon fill="white" stroke="#bfbfbf" points="170,-336.5 170,-355.5 224,-355.5 224,-336.5 170,-336.5"/>
<text text-anchor="middle" x="197" y="-343.5" font-family="Helvetica,sans-Serif" font-size="10.00">iostream</text>
</a>
</g>
</g>
<!-- Node1&#45;&gt;Node13 -->
<g id="edge19" class="edge">
<title>Node1&#45;&gt;Node13</title>
<path fill="none" stroke="midnightblue" d="M197,-392.4C197,-384.47 197,-374.46 197,-365.86"/>
<polygon fill="midnightblue" stroke="midnightblue" points="200.5,-365.66 197,-355.66 193.5,-365.66 200.5,-365.66"/>
</g>
<!-- Node14 -->
<g id="node14" class="node">
<title>Node14</title>
<g id="a_node14"><a xlink:title=" ">
<polygon fill="white" stroke="#bfbfbf" points="242,-336.5 242,-355.5 286,-355.5 286,-336.5 242,-336.5"/>
<text text-anchor="middle" x="264" y="-343.5" font-family="Helvetica,sans-Serif" font-size="10.00">cmath</text>
</a>
</g>
</g>
<!-- Node1&#45;&gt;Node14 -->
<g id="edge20" class="edge">
<title>Node1&#45;&gt;Node14</title>
<path fill="none" stroke="midnightblue" d="M212.88,-392.4C223.02,-383.4 236.16,-371.72 246.59,-362.47"/>
<polygon fill="midnightblue" stroke="midnightblue" points="249.1,-364.92 254.25,-355.66 244.45,-359.68 249.1,-364.92"/>
</g>
<!-- Node3 -->
<g id="node3" class="node">
<title>Node3</title>
<g id="a_node3"><a xlink:href="_drawable_8hpp.html" target="_top" xlink:title=" ">
<polygon fill="white" stroke="black" points="47.5,-56.5 47.5,-75.5 154.5,-75.5 154.5,-56.5 47.5,-56.5"/>
<text text-anchor="middle" x="101" y="-63.5" font-family="Helvetica,sans-Serif" font-size="10.00">engine/Drawable.hpp</text>
</a>
</g>
</g>
<!-- Node2&#45;&gt;Node3 -->
<g id="edge2" class="edge">
<title>Node2&#45;&gt;Node3</title>
<path fill="none" stroke="midnightblue" d="M73.86,-336.36C48.99,-319.95 0,-281.71 0,-235 0,-235 0,-235 0,-177 0,-132.59 45.21,-98.37 75.14,-80.58"/>
<polygon fill="midnightblue" stroke="midnightblue" points="76.92,-83.59 83.87,-75.59 73.45,-77.51 76.92,-83.59"/>
</g>
<!-- Node6 -->
<g id="node6" class="node">
<title>Node6</title>
<g id="a_node6"><a xlink:href="_world_actor_8hpp.html" target="_top" xlink:title=" ">
<polygon fill="white" stroke="black" points="232,-280.5 232,-299.5 346,-299.5 346,-280.5 232,-280.5"/>
<text text-anchor="middle" x="289" y="-287.5" font-family="Helvetica,sans-Serif" font-size="10.00">engine/WorldActor.hpp</text>
</a>
</g>
</g>
<!-- Node2&#45;&gt;Node6 -->
<g id="edge5" class="edge">
<title>Node2&#45;&gt;Node6</title>
<path fill="none" stroke="midnightblue" d="M119.85,-336.44C154.4,-327.16 209.68,-312.31 247.58,-302.13"/>
<polygon fill="midnightblue" stroke="midnightblue" points="248.55,-305.49 257.3,-299.52 246.73,-298.73 248.55,-305.49"/>
</g>
<!-- Node4 -->
<g id="node4" class="node">
<title>Node4</title>
<g id="a_node4"><a xlink:title=" ">
<polygon fill="white" stroke="#bfbfbf" points="68,-0.5 68,-19.5 134,-19.5 134,-0.5 68,-0.5"/>
<text text-anchor="middle" x="101" y="-7.5" font-family="Helvetica,sans-Serif" font-size="10.00">string_view</text>
</a>
</g>
</g>
<!-- Node3&#45;&gt;Node4 -->
<g id="edge3" class="edge">
<title>Node3&#45;&gt;Node4</title>
<path fill="none" stroke="midnightblue" d="M101,-56.08C101,-49.01 101,-38.86 101,-29.99"/>
<polygon fill="midnightblue" stroke="midnightblue" points="104.5,-29.75 101,-19.75 97.5,-29.75 104.5,-29.75"/>
</g>
<!-- Node5 -->
<g id="node5" class="node">
<title>Node5</title>
<g id="a_node5"><a xlink:href="_vector2_d_8hpp.html" target="_top" xlink:title=" ">
<polygon fill="white" stroke="black" points="292,-0.5 292,-19.5 404,-19.5 404,-0.5 292,-0.5"/>
<text text-anchor="middle" x="348" y="-7.5" font-family="Helvetica,sans-Serif" font-size="10.00">Helpers/Vector2D.hpp</text>
</a>
</g>
</g>
<!-- Node3&#45;&gt;Node5 -->
<g id="edge4" class="edge">
<title>Node3&#45;&gt;Node5</title>
<path fill="none" stroke="midnightblue" d="M140.14,-56.44C183.23,-47.02 252.56,-31.87 299.17,-21.68"/>
<polygon fill="midnightblue" stroke="midnightblue" points="300.02,-25.07 309.05,-19.52 298.53,-18.23 300.02,-25.07"/>
</g>
<!-- Node6&#45;&gt;Node5 -->
<g id="edge6" class="edge">
<title>Node6&#45;&gt;Node5</title>
<path fill="none" stroke="midnightblue" d="M305.02,-280.48C332.57,-264.54 386,-227.38 386,-179 386,-179 386,-179 386,-121 386,-86.81 369.4,-49.76 358.14,-28.57"/>
<polygon fill="midnightblue" stroke="midnightblue" points="361.18,-26.83 353.28,-19.77 355.05,-30.22 361.18,-26.83"/>
</g>
<!-- Node7 -->
<g id="node7" class="node">
<title>Node7</title>
<g id="a_node7"><a xlink:href="_field_8hpp.html" target="_top" xlink:title=" ">
<polygon fill="white" stroke="black" points="261,-224.5 261,-243.5 317,-243.5 317,-224.5 261,-224.5"/>
<text text-anchor="middle" x="289" y="-231.5" font-family="Helvetica,sans-Serif" font-size="10.00">Field.hpp</text>
</a>
</g>
</g>
<!-- Node6&#45;&gt;Node7 -->
<g id="edge7" class="edge">
<title>Node6&#45;&gt;Node7</title>
<path fill="none" stroke="midnightblue" d="M289,-280.08C289,-273.01 289,-262.86 289,-253.99"/>
<polygon fill="midnightblue" stroke="midnightblue" points="292.5,-253.75 289,-243.75 285.5,-253.75 292.5,-253.75"/>
</g>
<!-- Node7&#45;&gt;Node5 -->
<g id="edge18" class="edge">
<title>Node7&#45;&gt;Node5</title>
<path fill="none" stroke="midnightblue" d="M291.31,-224.3C300.01,-191.56 330.89,-75.38 343.04,-29.67"/>
<polygon fill="midnightblue" stroke="midnightblue" points="346.45,-30.45 345.64,-19.88 339.69,-28.65 346.45,-30.45"/>
</g>
<!-- Node8 -->
<g id="node8" class="node">
<title>Node8</title>
<g id="a_node8"><a xlink:href="_cell_8hpp.html" target="_top" xlink:title=" ">
<polygon fill="white" stroke="black" points="153.5,-168.5 153.5,-187.5 270.5,-187.5 270.5,-168.5 153.5,-168.5"/>
<text text-anchor="middle" x="212" y="-175.5" font-family="Helvetica,sans-Serif" font-size="10.00">engine/objects/Cell.hpp</text>
</a>
</g>
</g>
<!-- Node7&#45;&gt;Node8 -->
<g id="edge8" class="edge">
<title>Node7&#45;&gt;Node8</title>
<path fill="none" stroke="midnightblue" d="M276.63,-224.32C264.84,-216.06 246.87,-203.45 232.86,-193.63"/>
<polygon fill="midnightblue" stroke="midnightblue" points="234.54,-190.53 224.34,-187.65 230.52,-196.26 234.54,-190.53"/>
</g>
<!-- Node8&#45;&gt;Node3 -->
<g id="edge9" class="edge">
<title>Node8&#45;&gt;Node3</title>
<path fill="none" stroke="midnightblue" d="M159.1,-168.46C119.57,-160.87 70.32,-148.44 58,-132 45.56,-115.41 63.43,-95.38 79.78,-81.98"/>
<polygon fill="midnightblue" stroke="midnightblue" points="82.23,-84.51 88.02,-75.63 77.96,-78.96 82.23,-84.51"/>
</g>
<!-- Node9 -->
<g id="node9" class="node">
<title>Node9</title>
<g id="a_node9"><a xlink:href="_tickable_8hpp.html" target="_top" xlink:title=" ">
<polygon fill="white" stroke="black" points="197.5,-56.5 197.5,-75.5 300.5,-75.5 300.5,-56.5 197.5,-56.5"/>
<text text-anchor="middle" x="249" y="-63.5" font-family="Helvetica,sans-Serif" font-size="10.00">engine/Tickable.hpp</text>
</a>
</g>
</g>
<!-- Node8&#45;&gt;Node9 -->
<g id="edge10" class="edge">
<title>Node8&#45;&gt;Node9</title>
<path fill="none" stroke="midnightblue" d="M241.88,-168.39C259.54,-161.59 280.45,-150.15 291,-132 301.14,-114.55 284.93,-95.21 269.79,-82.19"/>
<polygon fill="midnightblue" stroke="midnightblue" points="271.66,-79.2 261.67,-75.67 267.27,-84.66 271.66,-79.2"/>
</g>
<!-- Node10 -->
<g id="node10" class="node">
<title>Node10</title>
<g id="a_node10"><a xlink:title=" ">
<polygon fill="white" stroke="#bfbfbf" points="154,-112.5 154,-131.5 198,-131.5 198,-112.5 154,-112.5"/>
<text text-anchor="middle" x="176" y="-119.5" font-family="Helvetica,sans-Serif" font-size="10.00">vector</text>
</a>
</g>
</g>
<!-- Node8&#45;&gt;Node10 -->
<g id="edge11" class="edge">
<title>Node8&#45;&gt;Node10</title>
<path fill="none" stroke="midnightblue" d="M206.06,-168.08C201.02,-160.53 193.66,-149.49 187.49,-140.23"/>
<polygon fill="midnightblue" stroke="midnightblue" points="190.29,-138.13 181.83,-131.75 184.47,-142.01 190.29,-138.13"/>
</g>
<!-- Node11 -->
<g id="node11" class="node">
<title>Node11</title>
<g id="a_node11"><a xlink:href="_ground_8hpp.html" target="_top" xlink:title=" ">
<polygon fill="white" stroke="black" points="216,-112.5 216,-131.5 282,-131.5 282,-112.5 216,-112.5"/>
<text text-anchor="middle" x="249" y="-119.5" font-family="Helvetica,sans-Serif" font-size="10.00">Ground.hpp</text>
</a>
</g>
</g>
<!-- Node8&#45;&gt;Node11 -->
<g id="edge12" class="edge">
<title>Node8&#45;&gt;Node11</title>
<path fill="none" stroke="midnightblue" d="M218.11,-168.08C223.28,-160.53 230.85,-149.49 237.19,-140.23"/>
<polygon fill="midnightblue" stroke="midnightblue" points="240.24,-141.98 243,-131.75 234.46,-138.02 240.24,-141.98"/>
</g>
<!-- Node12 -->
<g id="node12" class="node">
<title>Node12</title>
<g id="a_node12"><a xlink:href="_building_8hpp.html" target="_top" xlink:title=" ">
<polygon fill="white" stroke="black" points="66.5,-112.5 66.5,-131.5 135.5,-131.5 135.5,-112.5 66.5,-112.5"/>
<text text-anchor="middle" x="101" y="-119.5" font-family="Helvetica,sans-Serif" font-size="10.00">Building.hpp</text>
</a>
</g>
</g>
<!-- Node8&#45;&gt;Node12 -->
<g id="edge15" class="edge">
<title>Node8&#45;&gt;Node12</title>
<path fill="none" stroke="midnightblue" d="M194.17,-168.32C176.28,-159.62 148.52,-146.12 127.95,-136.11"/>
<polygon fill="midnightblue" stroke="midnightblue" points="129.31,-132.88 118.79,-131.65 126.25,-139.18 129.31,-132.88"/>
</g>
<!-- Node11&#45;&gt;Node3 -->
<g id="edge13" class="edge">
<title>Node11&#45;&gt;Node3</title>
<path fill="none" stroke="midnightblue" d="M225.55,-112.44C200.87,-103.44 161.81,-89.19 134.02,-79.05"/>
<polygon fill="midnightblue" stroke="midnightblue" points="134.94,-75.66 124.34,-75.52 132.54,-82.23 134.94,-75.66"/>
</g>
<!-- Node11&#45;&gt;Node9 -->
<g id="edge14" class="edge">
<title>Node11&#45;&gt;Node9</title>
<path fill="none" stroke="midnightblue" d="M249,-112.08C249,-105.01 249,-94.86 249,-85.99"/>
<polygon fill="midnightblue" stroke="midnightblue" points="252.5,-85.75 249,-75.75 245.5,-85.75 252.5,-85.75"/>
</g>
<!-- Node12&#45;&gt;Node3 -->
<g id="edge16" class="edge">
<title>Node12&#45;&gt;Node3</title>
<path fill="none" stroke="midnightblue" d="M101,-112.08C101,-105.01 101,-94.86 101,-85.99"/>
<polygon fill="midnightblue" stroke="midnightblue" points="104.5,-85.75 101,-75.75 97.5,-85.75 104.5,-85.75"/>
</g>
<!-- Node12&#45;&gt;Node9 -->
<g id="edge17" class="edge">
<title>Node12&#45;&gt;Node9</title>
<path fill="none" stroke="midnightblue" d="M124.45,-112.44C149.13,-103.44 188.19,-89.19 215.98,-79.05"/>
<polygon fill="midnightblue" stroke="midnightblue" points="217.46,-82.23 225.66,-75.52 215.06,-75.66 217.46,-82.23"/>
</g>
</g>
</svg>
