<?xml version="1.0" encoding="UTF-8" standalone="no"?>
<!DOCTYPE svg PUBLIC "-//W3C//DTD SVG 1.1//EN"
 "http://www.w3.org/Graphics/SVG/1.1/DTD/svg11.dtd">
<!-- Generated by graphviz version 2.47.0 (20210407.0042)
 -->
<!-- Title: include/engine/objects/Player.hpp Pages: 1 -->
<svg width="412pt" height="431pt"
 viewBox="0.00 0.00 412.00 431.00" xmlns="http://www.w3.org/2000/svg" xmlns:xlink="http://www.w3.org/1999/xlink">
<g id="graph0" class="graph" transform="scale(1 1) rotate(0) translate(4 427)">
<title>include/engine/objects/Player.hpp</title>
<polygon fill="white" stroke="transparent" points="-4,4 -4,-427 408,-427 408,4 -4,4"/>
<!-- Node1 -->
<g id="node1" class="node">
<title>Node1</title>
<g id="a_node1"><a xlink:title=" ">
<polygon fill="#bfbfbf" stroke="black" points="222.5,-392.5 222.5,-422.5 335.5,-422.5 335.5,-392.5 222.5,-392.5"/>
<text text-anchor="start" x="230.5" y="-410.5" font-family="Helvetica,sans-Serif" font-size="10.00">include/engine/objects</text>
<text text-anchor="middle" x="279" y="-399.5" font-family="Helvetica,sans-Serif" font-size="10.00">/Player.hpp</text>
</a>
</g>
</g>
<!-- Node2 -->
<g id="node2" class="node">
<title>Node2</title>
<g id="a_node2"><a xlink:href="_drawable_8hpp.html" target="_top" xlink:title=" ">
<polygon fill="white" stroke="black" points="288.5,-112.5 288.5,-131.5 395.5,-131.5 395.5,-112.5 288.5,-112.5"/>
<text text-anchor="middle" x="342" y="-119.5" font-family="Helvetica,sans-Serif" font-size="10.00">engine/Drawable.hpp</text>
</a>
</g>
</g>
<!-- Node1&#45;&gt;Node2 -->
<g id="edge1" class="edge">
<title>Node1&#45;&gt;Node2</title>
<path fill="none" stroke="midnightblue" d="M313.49,-392.38C350.49,-374.66 404,-340.49 404,-291 404,-291 404,-291 404,-233 404,-195.62 376.5,-159.24 358.13,-139.1"/>
<polygon fill="midnightblue" stroke="midnightblue" points="360.57,-136.59 351.15,-131.75 355.49,-141.41 360.57,-136.59"/>
</g>
<!-- Node6 -->
<g id="node6" class="node">
<title>Node6</title>
<g id="a_node6"><a xlink:href="_world_actor_8hpp.html" target="_top" xlink:title=" ">
<polygon fill="white" stroke="black" points="57,-336.5 57,-355.5 171,-355.5 171,-336.5 57,-336.5"/>
<text text-anchor="middle" x="114" y="-343.5" font-family="Helvetica,sans-Serif" font-size="10.00">engine/WorldActor.hpp</text>
</a>
</g>
</g>
<!-- Node1&#45;&gt;Node6 -->
<g id="edge5" class="edge">
<title>Node1&#45;&gt;Node6</title>
<path fill="none" stroke="midnightblue" d="M239.9,-392.4C211.84,-382.28 174.43,-368.79 147.69,-359.15"/>
<polygon fill="midnightblue" stroke="midnightblue" points="148.6,-355.76 138.01,-355.66 146.23,-362.34 148.6,-355.76"/>
</g>
<!-- Node3 -->
<g id="node3" class="node">
<title>Node3</title>
<g id="a_node3"><a xlink:title=" ">
<polygon fill="white" stroke="#bfbfbf" points="309,-56.5 309,-75.5 375,-75.5 375,-56.5 309,-56.5"/>
<text text-anchor="middle" x="342" y="-63.5" font-family="Helvetica,sans-Serif" font-size="10.00">string_view</text>
</a>
</g>
</g>
<!-- Node2&#45;&gt;Node3 -->
<g id="edge2" class="edge">
<title>Node2&#45;&gt;Node3</title>
<path fill="none" stroke="midnightblue" d="M342,-112.08C342,-105.01 342,-94.86 342,-85.99"/>
<polygon fill="midnightblue" stroke="midnightblue" points="345.5,-85.75 342,-75.75 338.5,-85.75 345.5,-85.75"/>
</g>
<!-- Node4 -->
<g id="node4" class="node">
<title>Node4</title>
<g id="a_node4"><a xlink:href="_vector2_d_8hpp.html" target="_top" xlink:title=" ">
<polygon fill="white" stroke="black" points="0,-56.5 0,-75.5 112,-75.5 112,-56.5 0,-56.5"/>
<text text-anchor="middle" x="56" y="-63.5" font-family="Helvetica,sans-Serif" font-size="10.00">Helpers/Vector2D.hpp</text>
</a>
</g>
</g>
<!-- Node2&#45;&gt;Node4 -->
<g id="edge3" class="edge">
<title>Node2&#45;&gt;Node4</title>
<path fill="none" stroke="midnightblue" d="M296.68,-112.44C246.37,-102.94 165.16,-87.61 111.19,-77.42"/>
<polygon fill="midnightblue" stroke="midnightblue" points="111.58,-73.93 101.11,-75.52 110.28,-80.81 111.58,-73.93"/>
</g>
<!-- Node5 -->
<g id="node5" class="node">
<title>Node5</title>
<g id="a_node5"><a xlink:title=" ">
<polygon fill="white" stroke="#bfbfbf" points="36.5,-0.5 36.5,-19.5 75.5,-19.5 75.5,-0.5 36.5,-0.5"/>
<text text-anchor="middle" x="56" y="-7.5" font-family="Helvetica,sans-Serif" font-size="10.00">utility</text>
</a>
</g>
</g>
<!-- Node4&#45;&gt;Node5 -->
<g id="edge4" class="edge">
<title>Node4&#45;&gt;Node5</title>
<path fill="none" stroke="midnightblue" d="M56,-56.08C56,-49.01 56,-38.86 56,-29.99"/>
<polygon fill="midnightblue" stroke="midnightblue" points="59.5,-29.75 56,-19.75 52.5,-29.75 59.5,-29.75"/>
</g>
<!-- Node6&#45;&gt;Node4 -->
<g id="edge6" class="edge">
<title>Node6&#45;&gt;Node4</title>
<path fill="none" stroke="midnightblue" d="M98.15,-336.44C70.88,-320.43 18,-283.16 18,-235 18,-235 18,-235 18,-177 18,-142.81 34.6,-105.76 45.86,-84.57"/>
<polygon fill="midnightblue" stroke="midnightblue" points="48.95,-86.22 50.72,-75.77 42.82,-82.83 48.95,-86.22"/>
</g>
<!-- Node7 -->
<g id="node7" class="node">
<title>Node7</title>
<g id="a_node7"><a xlink:href="_field_8hpp.html" target="_top" xlink:title=" ">
<polygon fill="white" stroke="black" points="86,-280.5 86,-299.5 142,-299.5 142,-280.5 86,-280.5"/>
<text text-anchor="middle" x="114" y="-287.5" font-family="Helvetica,sans-Serif" font-size="10.00">Field.hpp</text>
</a>
</g>
</g>
<!-- Node6&#45;&gt;Node7 -->
<g id="edge7" class="edge">
<title>Node6&#45;&gt;Node7</title>
<path fill="none" stroke="midnightblue" d="M114,-336.08C114,-329.01 114,-318.86 114,-309.99"/>
<polygon fill="midnightblue" stroke="midnightblue" points="117.5,-309.75 114,-299.75 110.5,-309.75 117.5,-309.75"/>
</g>
<!-- Node7&#45;&gt;Node4 -->
<g id="edge19" class="edge">
<title>Node7&#45;&gt;Node4</title>
<path fill="none" stroke="midnightblue" d="M111.73,-280.3C103.17,-247.56 72.82,-131.38 60.88,-85.67"/>
<polygon fill="midnightblue" stroke="midnightblue" points="64.24,-84.67 58.32,-75.88 57.46,-86.44 64.24,-84.67"/>
</g>
<!-- Node8 -->
<g id="node8" class="node">
<title>Node8</title>
<g id="a_node8"><a xlink:href="_cell_8hpp.html" target="_top" xlink:title=" ">
<polygon fill="white" stroke="black" points="139.5,-224.5 139.5,-243.5 256.5,-243.5 256.5,-224.5 139.5,-224.5"/>
<text text-anchor="middle" x="198" y="-231.5" font-family="Helvetica,sans-Serif" font-size="10.00">engine/objects/Cell.hpp</text>
</a>
</g>
</g>
<!-- Node7&#45;&gt;Node8 -->
<g id="edge8" class="edge">
<title>Node7&#45;&gt;Node8</title>
<path fill="none" stroke="midnightblue" d="M127.5,-280.32C140.6,-271.9 160.71,-258.97 176.11,-249.07"/>
<polygon fill="midnightblue" stroke="midnightblue" points="178.02,-252.01 184.54,-243.65 174.23,-246.12 178.02,-252.01"/>
</g>
<!-- Node8&#45;&gt;Node2 -->
<g id="edge9" class="edge">
<title>Node8&#45;&gt;Node2</title>
<path fill="none" stroke="midnightblue" d="M256.66,-231.38C288.84,-227.11 326.3,-215.88 347,-188 356.89,-174.68 353.81,-155.29 349.38,-141.16"/>
<polygon fill="midnightblue" stroke="midnightblue" points="352.6,-139.78 345.91,-131.57 346.02,-142.16 352.6,-139.78"/>
</g>
<!-- Node9 -->
<g id="node9" class="node">
<title>Node9</title>
<g id="a_node9"><a xlink:href="_tickable_8hpp.html" target="_top" xlink:title=" ">
<polygon fill="white" stroke="black" points="90.5,-112.5 90.5,-131.5 193.5,-131.5 193.5,-112.5 90.5,-112.5"/>
<text text-anchor="middle" x="142" y="-119.5" font-family="Helvetica,sans-Serif" font-size="10.00">engine/Tickable.hpp</text>
</a>
</g>
</g>
<!-- Node8&#45;&gt;Node9 -->
<g id="edge10" class="edge">
<title>Node8&#45;&gt;Node9</title>
<path fill="none" stroke="midnightblue" d="M164.2,-224.39C145.61,-217.74 124.11,-206.45 113,-188 103.5,-172.22 114.89,-152.78 126.07,-139.29"/>
<polygon fill="midnightblue" stroke="midnightblue" points="128.76,-141.53 132.82,-131.75 123.54,-136.87 128.76,-141.53"/>
</g>
<!-- Node10 -->
<g id="node10" class="node">
<title>Node10</title>
<g id="a_node10"><a xlink:title=" ">
<polygon fill="white" stroke="#bfbfbf" points="294,-168.5 294,-187.5 338,-187.5 338,-168.5 294,-168.5"/>
<text text-anchor="middle" x="316" y="-175.5" font-family="Helvetica,sans-Serif" font-size="10.00">vector</text>
</a>
</g>
</g>
<!-- Node8&#45;&gt;Node10 -->
<g id="edge11" class="edge">
<title>Node8&#45;&gt;Node10</title>
<path fill="none" stroke="midnightblue" d="M216.7,-224.44C235.94,-215.64 266.15,-201.81 288.2,-191.72"/>
<polygon fill="midnightblue" stroke="midnightblue" points="289.75,-194.86 297.39,-187.52 286.84,-188.5 289.75,-194.86"/>
</g>
<!-- Node11 -->
<g id="node11" class="node">
<title>Node11</title>
<g id="a_node11"><a xlink:href="_ground_8hpp.html" target="_top" xlink:title=" ">
<polygon fill="white" stroke="black" points="122,-168.5 122,-187.5 188,-187.5 188,-168.5 122,-168.5"/>
<text text-anchor="middle" x="155" y="-175.5" font-family="Helvetica,sans-Serif" font-size="10.00">Ground.hpp</text>
</a>
</g>
</g>
<!-- Node8&#45;&gt;Node11 -->
<g id="edge12" class="edge">
<title>Node8&#45;&gt;Node11</title>
<path fill="none" stroke="midnightblue" d="M190.9,-224.08C184.76,-216.38 175.73,-205.03 168.26,-195.65"/>
<polygon fill="midnightblue" stroke="midnightblue" points="170.94,-193.39 161.97,-187.75 165.46,-197.75 170.94,-193.39"/>
</g>
<!-- Node12 -->
<g id="node12" class="node">
<title>Node12</title>
<g id="a_node12"><a xlink:href="_building_8hpp.html" target="_top" xlink:title=" ">
<polygon fill="white" stroke="black" points="206.5,-168.5 206.5,-187.5 275.5,-187.5 275.5,-168.5 206.5,-168.5"/>
<text text-anchor="middle" x="241" y="-175.5" font-family="Helvetica,sans-Serif" font-size="10.00">Building.hpp</text>
</a>
</g>
</g>
<!-- Node8&#45;&gt;Node12 -->
<g id="edge15" class="edge">
<title>Node8&#45;&gt;Node12</title>
<path fill="none" stroke="midnightblue" d="M205.1,-224.08C211.24,-216.38 220.27,-205.03 227.74,-195.65"/>
<polygon fill="midnightblue" stroke="midnightblue" points="230.54,-197.75 234.03,-187.75 225.06,-193.39 230.54,-197.75"/>
</g>
<!-- Node11&#45;&gt;Node2 -->
<g id="edge13" class="edge">
<title>Node11&#45;&gt;Node2</title>
<path fill="none" stroke="midnightblue" d="M184.63,-168.44C216.5,-159.24 267.33,-144.56 302.56,-134.39"/>
<polygon fill="midnightblue" stroke="midnightblue" points="303.87,-137.65 312.51,-131.52 301.93,-130.93 303.87,-137.65"/>
</g>
<!-- Node11&#45;&gt;Node9 -->
<g id="edge14" class="edge">
<title>Node11&#45;&gt;Node9</title>
<path fill="none" stroke="midnightblue" d="M152.85,-168.08C151.13,-160.93 148.65,-150.64 146.5,-141.69"/>
<polygon fill="midnightblue" stroke="midnightblue" points="149.85,-140.65 144.11,-131.75 143.04,-142.29 149.85,-140.65"/>
</g>
<!-- Node12&#45;&gt;Node2 -->
<g id="edge16" class="edge">
<title>Node12&#45;&gt;Node2</title>
<path fill="none" stroke="midnightblue" d="M257.23,-168.32C273.35,-159.7 298.3,-146.36 316.96,-136.39"/>
<polygon fill="midnightblue" stroke="midnightblue" points="318.64,-139.46 325.81,-131.65 315.34,-133.28 318.64,-139.46"/>
</g>
<!-- Node12&#45;&gt;Node9 -->
<g id="edge17" class="edge">
<title>Node12&#45;&gt;Node9</title>
<path fill="none" stroke="midnightblue" d="M225.09,-168.32C209.36,-159.74 185.06,-146.49 166.79,-136.52"/>
<polygon fill="midnightblue" stroke="midnightblue" points="168.32,-133.37 157.87,-131.65 164.97,-139.52 168.32,-133.37"/>
</g>
<!-- Node13 -->
<g id="node13" class="node">
<title>Node13</title>
<g id="a_node13"><a xlink:title=" ">
<polygon fill="white" stroke="#bfbfbf" points="211.5,-112.5 211.5,-131.5 270.5,-131.5 270.5,-112.5 211.5,-112.5"/>
<text text-anchor="middle" x="241" y="-119.5" font-family="Helvetica,sans-Serif" font-size="10.00">functional</text>
</a>
</g>
</g>
<!-- Node12&#45;&gt;Node13 -->
<g id="edge18" class="edge">
<title>Node12&#45;&gt;Node13</title>
<path fill="none" stroke="midnightblue" d="M241,-168.08C241,-161.01 241,-150.86 241,-141.99"/>
<polygon fill="midnightblue" stroke="midnightblue" points="244.5,-141.75 241,-131.75 237.5,-141.75 244.5,-141.75"/>
</g>
</g>
</svg>
