<?xml version="1.0" encoding="UTF-8" standalone="no"?>
<!DOCTYPE svg PUBLIC "-//W3C//DTD SVG 1.1//EN"
 "http://www.w3.org/Graphics/SVG/1.1/DTD/svg11.dtd">
<!-- Generated by graphviz version 2.47.0 (20210407.0042)
 -->
<!-- Title: include/graphics/ResourceManager.hpp Pages: 1 -->
<svg width="1026pt" height="207pt"
 viewBox="0.00 0.00 1025.50 207.00" xmlns="http://www.w3.org/2000/svg" xmlns:xlink="http://www.w3.org/1999/xlink">
<g id="graph0" class="graph" transform="scale(1 1) rotate(0) translate(4 203)">
<title>include/graphics/ResourceManager.hpp</title>
<polygon fill="white" stroke="transparent" points="-4,4 -4,-203 1021.5,-203 1021.5,4 -4,4"/>
<!-- Node1 -->
<g id="node1" class="node">
<title>Node1</title>
<g id="a_node1"><a xlink:title=" ">
<polygon fill="#bfbfbf" stroke="black" points="476,-168.5 476,-198.5 607,-198.5 607,-168.5 476,-168.5"/>
<text text-anchor="start" x="484" y="-186.5" font-family="Helvetica,sans-Serif" font-size="10.00">include/graphics/Resource</text>
<text text-anchor="middle" x="541.5" y="-175.5" font-family="Helvetica,sans-Serif" font-size="10.00">Manager.hpp</text>
</a>
</g>
</g>
<!-- Node2 -->
<g id="node2" class="node">
<title>Node2</title>
<g id="a_node2"><a xlink:href="_drawable_8cpp.html" target="_top" xlink:title=" ">
<polygon fill="white" stroke="black" points="0,-112.5 0,-131.5 123,-131.5 123,-112.5 0,-112.5"/>
<text text-anchor="middle" x="61.5" y="-119.5" font-family="Helvetica,sans-Serif" font-size="10.00">src/engine/Drawable.cpp</text>
</a>
</g>
</g>
<!-- Node1&#45;&gt;Node2 -->
<g id="edge1" class="edge">
<title>Node1&#45;&gt;Node2</title>
<path fill="none" stroke="midnightblue" d="M465.98,-173.25C383.89,-163.18 248.87,-146.56 132.5,-132 129.42,-131.61 126.26,-131.22 123.07,-130.82"/>
<polygon fill="midnightblue" stroke="midnightblue" points="465.62,-176.73 475.97,-174.47 466.47,-169.78 465.62,-176.73"/>
</g>
<!-- Node3 -->
<g id="node3" class="node">
<title>Node3</title>
<g id="a_node3"><a xlink:href="_field_8cpp.html" target="_top" xlink:title=" ">
<polygon fill="white" stroke="black" points="141.5,-112.5 141.5,-131.5 245.5,-131.5 245.5,-112.5 141.5,-112.5"/>
<text text-anchor="middle" x="193.5" y="-119.5" font-family="Helvetica,sans-Serif" font-size="10.00">src/engine/Field.cpp</text>
</a>
</g>
</g>
<!-- Node1&#45;&gt;Node3 -->
<g id="edge2" class="edge">
<title>Node1&#45;&gt;Node3</title>
<path fill="none" stroke="midnightblue" d="M465.49,-169.5C398.03,-157.97 301.41,-141.45 243.33,-131.52"/>
<polygon fill="midnightblue" stroke="midnightblue" points="465.19,-173 475.63,-171.24 466.37,-166.1 465.19,-173"/>
</g>
<!-- Node4 -->
<g id="node4" class="node">
<title>Node4</title>
<g id="a_node4"><a xlink:href="_engine_8cpp.html" target="_top" xlink:title=" ">
<polygon fill="white" stroke="black" points="263.5,-112.5 263.5,-131.5 343.5,-131.5 343.5,-112.5 263.5,-112.5"/>
<text text-anchor="middle" x="303.5" y="-119.5" font-family="Helvetica,sans-Serif" font-size="10.00">src/Engine.cpp</text>
</a>
</g>
</g>
<!-- Node1&#45;&gt;Node4 -->
<g id="edge3" class="edge">
<title>Node1&#45;&gt;Node4</title>
<path fill="none" stroke="midnightblue" d="M475.47,-165.99C430.7,-154.8 373.37,-140.47 337.53,-131.51"/>
<polygon fill="midnightblue" stroke="midnightblue" points="474.85,-169.44 485.4,-168.47 476.55,-162.65 474.85,-169.44"/>
</g>
<!-- Node5 -->
<g id="node5" class="node">
<title>Node5</title>
<g id="a_node5"><a xlink:href="_event_handler_8cpp.html" target="_top" xlink:title=" ">
<polygon fill="white" stroke="black" points="362,-112.5 362,-131.5 533,-131.5 533,-112.5 362,-112.5"/>
<text text-anchor="middle" x="447.5" y="-119.5" font-family="Helvetica,sans-Serif" font-size="10.00">src/EventHandler/EventHandler.cpp</text>
</a>
</g>
</g>
<!-- Node1&#45;&gt;Node5 -->
<g id="edge4" class="edge">
<title>Node1&#45;&gt;Node5</title>
<path fill="none" stroke="midnightblue" d="M510.34,-162.78C493.68,-152.23 474.01,-139.78 461.18,-131.66"/>
<polygon fill="midnightblue" stroke="midnightblue" points="508.9,-166.01 519.22,-168.4 512.65,-160.09 508.9,-166.01"/>
</g>
<!-- Node6 -->
<g id="node6" class="node">
<title>Node6</title>
<g id="a_node6"><a xlink:href="_resource_manager_8cpp.html" target="_top" xlink:title=" ">
<polygon fill="white" stroke="black" points="551.5,-112.5 551.5,-131.5 721.5,-131.5 721.5,-112.5 551.5,-112.5"/>
<text text-anchor="middle" x="636.5" y="-119.5" font-family="Helvetica,sans-Serif" font-size="10.00">src/graphics/ResourceManager.cpp</text>
</a>
</g>
</g>
<!-- Node1&#45;&gt;Node6 -->
<g id="edge5" class="edge">
<title>Node1&#45;&gt;Node6</title>
<path fill="none" stroke="midnightblue" d="M572.52,-163.07C589.46,-152.46 609.58,-139.86 622.68,-131.66"/>
<polygon fill="midnightblue" stroke="midnightblue" points="570.63,-160.13 564.01,-168.4 574.35,-166.06 570.63,-160.13"/>
</g>
<!-- Node7 -->
<g id="node7" class="node">
<title>Node7</title>
<g id="a_node7"><a xlink:href="main_8cpp.html" target="_top" xlink:title=" ">
<polygon fill="white" stroke="black" points="713.5,-0.5 713.5,-19.5 785.5,-19.5 785.5,-0.5 713.5,-0.5"/>
<text text-anchor="middle" x="749.5" y="-7.5" font-family="Helvetica,sans-Serif" font-size="10.00">src/main.cpp</text>
</a>
</g>
</g>
<!-- Node1&#45;&gt;Node7 -->
<g id="edge6" class="edge">
<title>Node1&#45;&gt;Node7</title>
<path fill="none" stroke="midnightblue" d="M616.95,-170.93C662.66,-162.35 715.05,-149.17 730.5,-132 759.66,-99.6 754.3,-41.5 751.01,-19.64"/>
<polygon fill="midnightblue" stroke="midnightblue" points="616.22,-167.51 607.01,-172.75 617.48,-174.4 616.22,-167.51"/>
</g>
<!-- Node8 -->
<g id="node8" class="node">
<title>Node8</title>
<g id="a_node8"><a xlink:href="_inventory_8hpp.html" target="_top" xlink:title=" ">
<polygon fill="white" stroke="black" points="778,-56.5 778,-75.5 907,-75.5 907,-56.5 778,-56.5"/>
<text text-anchor="middle" x="842.5" y="-63.5" font-family="Helvetica,sans-Serif" font-size="10.00">include/GUI/Inventory.hpp</text>
</a>
</g>
</g>
<!-- Node1&#45;&gt;Node8 -->
<g id="edge7" class="edge">
<title>Node1&#45;&gt;Node8</title>
<path fill="none" stroke="midnightblue" d="M617.45,-174.12C661.75,-167.1 717.74,-154.45 763.5,-132 793.16,-117.45 821.42,-89.73 834.66,-75.66"/>
<polygon fill="midnightblue" stroke="midnightblue" points="616.68,-170.7 607.32,-175.66 617.73,-177.62 616.68,-170.7"/>
</g>
<!-- Node10 -->
<g id="node10" class="node">
<title>Node10</title>
<g id="a_node10"><a xlink:href="_item_8hpp.html" target="_top" xlink:title=" ">
<polygon fill="white" stroke="black" points="816,-112.5 816,-131.5 925,-131.5 925,-112.5 816,-112.5"/>
<text text-anchor="middle" x="870.5" y="-119.5" font-family="Helvetica,sans-Serif" font-size="10.00">include/GUI/Item.hpp</text>
</a>
</g>
</g>
<!-- Node1&#45;&gt;Node10 -->
<g id="edge10" class="edge">
<title>Node1&#45;&gt;Node10</title>
<path fill="none" stroke="midnightblue" d="M617.26,-168.8C680.83,-157.3 769.63,-141.24 823.43,-131.51"/>
<polygon fill="midnightblue" stroke="midnightblue" points="616.5,-165.38 607.29,-170.6 617.75,-172.27 616.5,-165.38"/>
</g>
<!-- Node8&#45;&gt;Node7 -->
<g id="edge9" class="edge">
<title>Node8&#45;&gt;Node7</title>
<path fill="none" stroke="midnightblue" d="M818.69,-51.18C801.58,-41.24 779.03,-28.15 764.4,-19.65"/>
<polygon fill="midnightblue" stroke="midnightblue" points="817.15,-54.33 827.56,-56.32 820.67,-48.28 817.15,-54.33"/>
</g>
<!-- Node9 -->
<g id="node9" class="node">
<title>Node9</title>
<g id="a_node9"><a xlink:href="_inventory_8cpp.html" target="_top" xlink:title=" ">
<polygon fill="white" stroke="black" points="803.5,-0.5 803.5,-19.5 915.5,-19.5 915.5,-0.5 803.5,-0.5"/>
<text text-anchor="middle" x="859.5" y="-7.5" font-family="Helvetica,sans-Serif" font-size="10.00">src/GUI/Inventory.cpp</text>
</a>
</g>
</g>
<!-- Node8&#45;&gt;Node9 -->
<g id="edge8" class="edge">
<title>Node8&#45;&gt;Node9</title>
<path fill="none" stroke="midnightblue" d="M848.36,-46.4C851.2,-37.36 854.48,-26.94 856.75,-19.75"/>
<polygon fill="midnightblue" stroke="midnightblue" points="844.97,-45.49 845.31,-56.08 851.65,-47.6 844.97,-45.49"/>
</g>
<!-- Node10&#45;&gt;Node8 -->
<g id="edge12" class="edge">
<title>Node10&#45;&gt;Node8</title>
<path fill="none" stroke="midnightblue" d="M861.16,-102.98C856.41,-93.82 850.84,-83.09 847.04,-75.75"/>
<polygon fill="midnightblue" stroke="midnightblue" points="858.17,-104.82 865.88,-112.08 864.38,-101.59 858.17,-104.82"/>
</g>
<!-- Node11 -->
<g id="node11" class="node">
<title>Node11</title>
<g id="a_node11"><a xlink:href="_item_8cpp.html" target="_top" xlink:title=" ">
<polygon fill="white" stroke="black" points="925.5,-56.5 925.5,-75.5 1017.5,-75.5 1017.5,-56.5 925.5,-56.5"/>
<text text-anchor="middle" x="971.5" y="-63.5" font-family="Helvetica,sans-Serif" font-size="10.00">src/GUI/Item.cpp</text>
</a>
</g>
</g>
<!-- Node10&#45;&gt;Node11 -->
<g id="edge11" class="edge">
<title>Node10&#45;&gt;Node11</title>
<path fill="none" stroke="midnightblue" d="M895.58,-107.59C914.26,-97.61 939.2,-84.27 955.31,-75.65"/>
<polygon fill="midnightblue" stroke="midnightblue" points="893.9,-104.52 886.73,-112.32 897.2,-110.7 893.9,-104.52"/>
</g>
</g>
</svg>
