<?xml version="1.0" encoding="UTF-8" standalone="no"?>
<!DOCTYPE svg PUBLIC "-//W3C//DTD SVG 1.1//EN"
 "http://www.w3.org/Graphics/SVG/1.1/DTD/svg11.dtd">
<!-- Generated by graphviz version 2.47.0 (20210407.0042)
 -->
<!-- Title: src/graphics/ResourceManager.cpp Pages: 1 -->
<svg width="641pt" height="364pt"
 viewBox="0.00 0.00 640.50 364.00" xmlns="http://www.w3.org/2000/svg" xmlns:xlink="http://www.w3.org/1999/xlink">
<g id="graph0" class="graph" transform="scale(1 1) rotate(0) translate(4 360)">
<title>src/graphics/ResourceManager.cpp</title>
<polygon fill="white" stroke="transparent" points="-4,4 -4,-360 636.5,-360 636.5,4 -4,4"/>
<!-- Node1 -->
<g id="node1" class="node">
<title>Node1</title>
<g id="a_node1"><a xlink:title=" ">
<polygon fill="#bfbfbf" stroke="black" points="415.5,-336.5 415.5,-355.5 585.5,-355.5 585.5,-336.5 415.5,-336.5"/>
<text text-anchor="middle" x="500.5" y="-343.5" font-family="Helvetica,sans-Serif" font-size="10.00">src/graphics/ResourceManager.cpp</text>
</a>
</g>
</g>
<!-- Node2 -->
<g id="node2" class="node">
<title>Node2</title>
<g id="a_node2"><a xlink:href="_resource_manager_8hpp.html" target="_top" xlink:title=" ">
<polygon fill="white" stroke="black" points="289,-280.5 289,-299.5 442,-299.5 442,-280.5 289,-280.5"/>
<text text-anchor="middle" x="365.5" y="-287.5" font-family="Helvetica,sans-Serif" font-size="10.00">graphics/ResourceManager.hpp</text>
</a>
</g>
</g>
<!-- Node1&#45;&gt;Node2 -->
<g id="edge1" class="edge">
<title>Node1&#45;&gt;Node2</title>
<path fill="none" stroke="midnightblue" d="M479.11,-336.44C456.79,-327.52 421.6,-313.44 396.29,-303.32"/>
<polygon fill="midnightblue" stroke="midnightblue" points="397.38,-299.98 386.79,-299.52 394.78,-306.48 397.38,-299.98"/>
</g>
<!-- Node3 -->
<g id="node3" class="node">
<title>Node3</title>
<g id="a_node3"><a xlink:title=" ">
<polygon fill="white" stroke="#bfbfbf" points="183,-224.5 183,-243.5 218,-243.5 218,-224.5 183,-224.5"/>
<text text-anchor="middle" x="200.5" y="-231.5" font-family="Helvetica,sans-Serif" font-size="10.00">map</text>
</a>
</g>
</g>
<!-- Node1&#45;&gt;Node3 -->
<g id="edge25" class="edge">
<title>Node1&#45;&gt;Node3</title>
<path fill="none" stroke="midnightblue" d="M415.3,-337.47C372.91,-331.32 321.83,-320.17 279.5,-300 254.34,-288.01 230.34,-266.29 215.53,-251.28"/>
<polygon fill="midnightblue" stroke="midnightblue" points="217.75,-248.53 208.3,-243.73 212.69,-253.38 217.75,-248.53"/>
</g>
<!-- Node4 -->
<g id="node4" class="node">
<title>Node4</title>
<g id="a_node4"><a xlink:title=" ">
<polygon fill="white" stroke="#bfbfbf" points="434,-168.5 434,-187.5 475,-187.5 475,-168.5 434,-168.5"/>
<text text-anchor="middle" x="454.5" y="-175.5" font-family="Helvetica,sans-Serif" font-size="10.00">string</text>
</a>
</g>
</g>
<!-- Node1&#45;&gt;Node4 -->
<g id="edge26" class="edge">
<title>Node1&#45;&gt;Node4</title>
<path fill="none" stroke="midnightblue" d="M507.51,-336.2C523.16,-315.4 557.9,-262.07 535.5,-224 524.62,-205.52 503.11,-194.08 484.99,-187.36"/>
<polygon fill="midnightblue" stroke="midnightblue" points="485.95,-184 475.36,-184.1 483.71,-190.63 485.95,-184"/>
</g>
<!-- Node5 -->
<g id="node5" class="node">
<title>Node5</title>
<g id="a_node5"><a xlink:title=" ">
<polygon fill="white" stroke="#bfbfbf" points="475,-224.5 475,-243.5 526,-243.5 526,-224.5 475,-224.5"/>
<text text-anchor="middle" x="500.5" y="-231.5" font-family="Helvetica,sans-Serif" font-size="10.00">memory</text>
</a>
</g>
</g>
<!-- Node1&#45;&gt;Node5 -->
<g id="edge27" class="edge">
<title>Node1&#45;&gt;Node5</title>
<path fill="none" stroke="midnightblue" d="M500.5,-336.37C500.5,-318.62 500.5,-277.67 500.5,-253.6"/>
<polygon fill="midnightblue" stroke="midnightblue" points="504,-253.59 500.5,-243.59 497,-253.59 504,-253.59"/>
</g>
<!-- Node18 -->
<g id="node18" class="node">
<title>Node18</title>
<g id="a_node18"><a xlink:title=" ">
<polygon fill="white" stroke="#bfbfbf" points="582.5,-280.5 582.5,-299.5 632.5,-299.5 632.5,-280.5 582.5,-280.5"/>
<text text-anchor="middle" x="607.5" y="-287.5" font-family="Helvetica,sans-Serif" font-size="10.00">fstream</text>
</a>
</g>
</g>
<!-- Node1&#45;&gt;Node18 -->
<g id="edge28" class="edge">
<title>Node1&#45;&gt;Node18</title>
<path fill="none" stroke="midnightblue" d="M517.69,-336.32C534.85,-327.66 561.45,-314.24 581.25,-304.25"/>
<polygon fill="midnightblue" stroke="midnightblue" points="583,-307.28 590.35,-299.65 579.85,-301.04 583,-307.28"/>
</g>
<!-- Node2&#45;&gt;Node3 -->
<g id="edge2" class="edge">
<title>Node2&#45;&gt;Node3</title>
<path fill="none" stroke="midnightblue" d="M339.36,-280.44C308.98,-270.5 259.1,-254.18 228.11,-244.04"/>
<polygon fill="midnightblue" stroke="midnightblue" points="228.98,-240.64 218.39,-240.85 226.8,-247.29 228.98,-240.64"/>
</g>
<!-- Node2&#45;&gt;Node4 -->
<g id="edge3" class="edge">
<title>Node2&#45;&gt;Node4</title>
<path fill="none" stroke="midnightblue" d="M381.95,-280.45C395.72,-272.59 415.05,-259.76 427.5,-244 438.37,-230.23 445.54,-211.45 449.75,-197.62"/>
<polygon fill="midnightblue" stroke="midnightblue" points="453.17,-198.35 452.49,-187.78 446.43,-196.47 453.17,-198.35"/>
</g>
<!-- Node2&#45;&gt;Node5 -->
<g id="edge4" class="edge">
<title>Node2&#45;&gt;Node5</title>
<path fill="none" stroke="midnightblue" d="M386.89,-280.44C409.21,-271.52 444.4,-257.44 469.71,-247.32"/>
<polygon fill="midnightblue" stroke="midnightblue" points="471.22,-250.48 479.21,-243.52 468.62,-243.98 471.22,-250.48"/>
</g>
<!-- Node6 -->
<g id="node6" class="node">
<title>Node6</title>
<g id="a_node6"><a xlink:href="_shader_8hpp.html" target="_top" xlink:title=" ">
<polygon fill="white" stroke="black" points="313,-224.5 313,-243.5 418,-243.5 418,-224.5 313,-224.5"/>
<text text-anchor="middle" x="365.5" y="-231.5" font-family="Helvetica,sans-Serif" font-size="10.00">graphics/Shader.hpp</text>
</a>
</g>
</g>
<!-- Node2&#45;&gt;Node6 -->
<g id="edge5" class="edge">
<title>Node2&#45;&gt;Node6</title>
<path fill="none" stroke="midnightblue" d="M365.5,-280.08C365.5,-273.01 365.5,-262.86 365.5,-253.99"/>
<polygon fill="midnightblue" stroke="midnightblue" points="369,-253.75 365.5,-243.75 362,-253.75 369,-253.75"/>
</g>
<!-- Node7 -->
<g id="node7" class="node">
<title>Node7</title>
<g id="a_node7"><a xlink:href="_g_shape_8hpp.html" target="_top" xlink:title=" ">
<polygon fill="white" stroke="black" points="229.5,-168.5 229.5,-187.5 339.5,-187.5 339.5,-168.5 229.5,-168.5"/>
<text text-anchor="middle" x="284.5" y="-175.5" font-family="Helvetica,sans-Serif" font-size="10.00">graphics/GShape.hpp</text>
</a>
</g>
</g>
<!-- Node2&#45;&gt;Node7 -->
<g id="edge19" class="edge">
<title>Node2&#45;&gt;Node7</title>
<path fill="none" stroke="midnightblue" d="M348.04,-280.48C334.04,-272.79 314.91,-260.2 303.5,-244 293.87,-230.33 289.08,-211.8 286.72,-198.01"/>
<polygon fill="midnightblue" stroke="midnightblue" points="290.13,-197.17 285.26,-187.77 283.2,-198.16 290.13,-197.17"/>
</g>
<!-- Node15 -->
<g id="node15" class="node">
<title>Node15</title>
<g id="a_node15"><a xlink:href="_event_handler_8hpp.html" target="_top" xlink:title=" ">
<polygon fill="white" stroke="black" points="56,-168.5 56,-187.5 211,-187.5 211,-168.5 56,-168.5"/>
<text text-anchor="middle" x="133.5" y="-175.5" font-family="Helvetica,sans-Serif" font-size="10.00">EventHandler/EventHandler.hpp</text>
</a>
</g>
</g>
<!-- Node2&#45;&gt;Node15 -->
<g id="edge20" class="edge">
<title>Node2&#45;&gt;Node15</title>
<path fill="none" stroke="midnightblue" d="M347.3,-280.37C306.72,-261.13 208.68,-214.65 160.77,-191.93"/>
<polygon fill="midnightblue" stroke="midnightblue" points="162.16,-188.71 151.62,-187.59 159.16,-195.04 162.16,-188.71"/>
</g>
<!-- Node6&#45;&gt;Node4 -->
<g id="edge6" class="edge">
<title>Node6&#45;&gt;Node4</title>
<path fill="none" stroke="midnightblue" d="M379.8,-224.32C393.68,-215.9 414.99,-202.97 431.3,-193.07"/>
<polygon fill="midnightblue" stroke="midnightblue" points="433.5,-195.83 440.24,-187.65 429.87,-189.85 433.5,-195.83"/>
</g>
<!-- Node6&#45;&gt;Node7 -->
<g id="edge7" class="edge">
<title>Node6&#45;&gt;Node7</title>
<path fill="none" stroke="midnightblue" d="M347.37,-224.32C333.4,-216.18 314.54,-203.84 301,-194.09"/>
<polygon fill="midnightblue" stroke="midnightblue" points="302.71,-191 292.6,-187.83 298.53,-196.61 302.71,-191"/>
</g>
<!-- Node13 -->
<g id="node13" class="node">
<title>Node13</title>
<g id="a_node13"><a xlink:href="_transform_8hpp.html" target="_top" xlink:title=" ">
<polygon fill="white" stroke="black" points="370,-56.5 370,-75.5 489,-75.5 489,-56.5 370,-56.5"/>
<text text-anchor="middle" x="429.5" y="-63.5" font-family="Helvetica,sans-Serif" font-size="10.00">graphics/Transform.hpp</text>
</a>
</g>
</g>
<!-- Node6&#45;&gt;Node13 -->
<g id="edge18" class="edge">
<title>Node6&#45;&gt;Node13</title>
<path fill="none" stroke="midnightblue" d="M368.94,-224.08C379.06,-197.83 408.86,-120.55 422.52,-85.12"/>
<polygon fill="midnightblue" stroke="midnightblue" points="425.86,-86.16 426.2,-75.57 419.33,-83.64 425.86,-86.16"/>
</g>
<!-- Node7&#45;&gt;Node6 -->
<g id="edge16" class="edge">
<title>Node7&#45;&gt;Node6</title>
<path fill="none" stroke="midnightblue" d="M302.59,-187.65C316.64,-195.83 335.64,-208.28 349.2,-218.06"/>
<polygon fill="midnightblue" stroke="midnightblue" points="347.49,-221.15 357.6,-224.32 351.68,-215.54 347.49,-221.15"/>
</g>
<!-- Node8 -->
<g id="node8" class="node">
<title>Node8</title>
<g id="a_node8"><a xlink:href="_window_8hpp.html" target="_top" xlink:title=" ">
<polygon fill="white" stroke="black" points="219,-112.5 219,-131.5 328,-131.5 328,-112.5 219,-112.5"/>
<text text-anchor="middle" x="273.5" y="-119.5" font-family="Helvetica,sans-Serif" font-size="10.00">graphics/Window.hpp</text>
</a>
</g>
</g>
<!-- Node7&#45;&gt;Node8 -->
<g id="edge8" class="edge">
<title>Node7&#45;&gt;Node8</title>
<path fill="none" stroke="midnightblue" d="M282.68,-168.08C281.23,-160.93 279.13,-150.64 277.31,-141.69"/>
<polygon fill="midnightblue" stroke="midnightblue" points="280.71,-140.85 275.28,-131.75 273.85,-142.25 280.71,-140.85"/>
</g>
<!-- Node7&#45;&gt;Node13 -->
<g id="edge17" class="edge">
<title>Node7&#45;&gt;Node13</title>
<path fill="none" stroke="midnightblue" d="M295.88,-168.37C320.55,-149.65 379.21,-105.15 409.95,-81.83"/>
<polygon fill="midnightblue" stroke="midnightblue" points="412.32,-84.42 418.17,-75.59 408.09,-78.85 412.32,-84.42"/>
</g>
<!-- Node8&#45;&gt;Node6 -->
<g id="edge13" class="edge">
<title>Node8&#45;&gt;Node6</title>
<path fill="none" stroke="midnightblue" d="M297.18,-131.56C313.91,-138.79 335.57,-150.74 348.5,-168 358.45,-181.27 362.59,-199.85 364.3,-213.75"/>
<polygon fill="midnightblue" stroke="midnightblue" points="360.86,-214.46 365.25,-224.1 367.83,-213.83 360.86,-214.46"/>
</g>
<!-- Node9 -->
<g id="node9" class="node">
<title>Node9</title>
<g id="a_node9"><a xlink:title=" ">
<polygon fill="white" stroke="#bfbfbf" points="289,-56.5 289,-75.5 352,-75.5 352,-56.5 289,-56.5"/>
<text text-anchor="middle" x="320.5" y="-63.5" font-family="Helvetica,sans-Serif" font-size="10.00">glad/glad.h</text>
</a>
</g>
</g>
<!-- Node8&#45;&gt;Node9 -->
<g id="edge9" class="edge">
<title>Node8&#45;&gt;Node9</title>
<path fill="none" stroke="midnightblue" d="M281.26,-112.08C288.04,-104.3 298.04,-92.8 306.26,-83.37"/>
<polygon fill="midnightblue" stroke="midnightblue" points="308.96,-85.59 312.88,-75.75 303.68,-81 308.96,-85.59"/>
</g>
<!-- Node10 -->
<g id="node10" class="node">
<title>Node10</title>
<g id="a_node10"><a xlink:title=" ">
<polygon fill="white" stroke="#bfbfbf" points="130,-56.5 130,-75.5 209,-75.5 209,-56.5 130,-56.5"/>
<text text-anchor="middle" x="169.5" y="-63.5" font-family="Helvetica,sans-Serif" font-size="10.00">GLFW/glfw3.h</text>
</a>
</g>
</g>
<!-- Node8&#45;&gt;Node10 -->
<g id="edge10" class="edge">
<title>Node8&#45;&gt;Node10</title>
<path fill="none" stroke="midnightblue" d="M256.79,-112.32C240.19,-103.7 214.5,-90.36 195.28,-80.39"/>
<polygon fill="midnightblue" stroke="midnightblue" points="196.66,-77.16 186.17,-75.65 193.43,-83.37 196.66,-77.16"/>
</g>
<!-- Node11 -->
<g id="node11" class="node">
<title>Node11</title>
<g id="a_node11"><a xlink:title=" ">
<polygon fill="white" stroke="#bfbfbf" points="73,-56.5 73,-75.5 112,-75.5 112,-56.5 73,-56.5"/>
<text text-anchor="middle" x="92.5" y="-63.5" font-family="Helvetica,sans-Serif" font-size="10.00">utility</text>
</a>
</g>
</g>
<!-- Node8&#45;&gt;Node11 -->
<g id="edge11" class="edge">
<title>Node8&#45;&gt;Node11</title>
<path fill="none" stroke="midnightblue" d="M243.53,-112.42C214.63,-104.1 169.41,-90.95 121.91,-76.38"/>
<polygon fill="midnightblue" stroke="midnightblue" points="122.65,-72.95 112.06,-73.36 120.59,-79.64 122.65,-72.95"/>
</g>
<!-- Node12 -->
<g id="node12" class="node">
<title>Node12</title>
<g id="a_node12"><a xlink:title=" ">
<polygon fill="white" stroke="#bfbfbf" points="226.5,-56.5 226.5,-75.5 270.5,-75.5 270.5,-56.5 226.5,-56.5"/>
<text text-anchor="middle" x="248.5" y="-63.5" font-family="Helvetica,sans-Serif" font-size="10.00">vector</text>
</a>
</g>
</g>
<!-- Node8&#45;&gt;Node12 -->
<g id="edge12" class="edge">
<title>Node8&#45;&gt;Node12</title>
<path fill="none" stroke="midnightblue" d="M269.37,-112.08C265.99,-104.77 261.08,-94.18 256.88,-85.1"/>
<polygon fill="midnightblue" stroke="midnightblue" points="259.93,-83.36 252.55,-75.75 253.58,-86.3 259.93,-83.36"/>
</g>
<!-- Node8&#45;&gt;Node13 -->
<g id="edge14" class="edge">
<title>Node8&#45;&gt;Node13</title>
<path fill="none" stroke="midnightblue" d="M298.22,-112.44C324.35,-103.4 365.76,-89.06 395.08,-78.92"/>
<polygon fill="midnightblue" stroke="midnightblue" points="396.59,-82.1 404.9,-75.52 394.3,-75.48 396.59,-82.1"/>
</g>
<!-- Node14 -->
<g id="node14" class="node">
<title>Node14</title>
<g id="a_node14"><a xlink:title=" ">
<polygon fill="white" stroke="#bfbfbf" points="377.5,-0.5 377.5,-19.5 481.5,-19.5 481.5,-0.5 377.5,-0.5"/>
<text text-anchor="middle" x="429.5" y="-7.5" font-family="Helvetica,sans-Serif" font-size="10.00">glm/gtc/type_ptr.hpp</text>
</a>
</g>
</g>
<!-- Node13&#45;&gt;Node14 -->
<g id="edge15" class="edge">
<title>Node13&#45;&gt;Node14</title>
<path fill="none" stroke="midnightblue" d="M429.5,-56.08C429.5,-49.01 429.5,-38.86 429.5,-29.99"/>
<polygon fill="midnightblue" stroke="midnightblue" points="433,-29.75 429.5,-19.75 426,-29.75 433,-29.75"/>
</g>
<!-- Node15&#45;&gt;Node8 -->
<g id="edge22" class="edge">
<title>Node15&#45;&gt;Node8</title>
<path fill="none" stroke="midnightblue" d="M155.68,-168.44C178.93,-159.48 215.65,-145.31 241.92,-135.18"/>
<polygon fill="midnightblue" stroke="midnightblue" points="243.35,-138.38 251.42,-131.52 240.83,-131.85 243.35,-138.38"/>
</g>
<!-- Node16 -->
<g id="node16" class="node">
<title>Node16</title>
<g id="a_node16"><a xlink:title=" ">
<polygon fill="white" stroke="#bfbfbf" points="0,-112.5 0,-131.5 59,-131.5 59,-112.5 0,-112.5"/>
<text text-anchor="middle" x="29.5" y="-119.5" font-family="Helvetica,sans-Serif" font-size="10.00">functional</text>
</a>
</g>
</g>
<!-- Node15&#45;&gt;Node16 -->
<g id="edge21" class="edge">
<title>Node15&#45;&gt;Node16</title>
<path fill="none" stroke="midnightblue" d="M116.79,-168.32C100.19,-159.7 74.5,-146.36 55.28,-136.39"/>
<polygon fill="midnightblue" stroke="midnightblue" points="56.66,-133.16 46.17,-131.65 53.43,-139.37 56.66,-133.16"/>
</g>
<!-- Node17 -->
<g id="node17" class="node">
<title>Node17</title>
<g id="a_node17"><a xlink:href="_vector2_d_8hpp.html" target="_top" xlink:title=" ">
<polygon fill="white" stroke="black" points="77.5,-112.5 77.5,-131.5 189.5,-131.5 189.5,-112.5 77.5,-112.5"/>
<text text-anchor="middle" x="133.5" y="-119.5" font-family="Helvetica,sans-Serif" font-size="10.00">Helpers/Vector2D.hpp</text>
</a>
</g>
</g>
<!-- Node15&#45;&gt;Node17 -->
<g id="edge23" class="edge">
<title>Node15&#45;&gt;Node17</title>
<path fill="none" stroke="midnightblue" d="M133.5,-168.08C133.5,-161.01 133.5,-150.86 133.5,-141.99"/>
<polygon fill="midnightblue" stroke="midnightblue" points="137,-141.75 133.5,-131.75 130,-141.75 137,-141.75"/>
</g>
<!-- Node17&#45;&gt;Node11 -->
<g id="edge24" class="edge">
<title>Node17&#45;&gt;Node11</title>
<path fill="none" stroke="midnightblue" d="M126.73,-112.08C120.94,-104.46 112.44,-93.26 105.36,-83.94"/>
<polygon fill="midnightblue" stroke="midnightblue" points="107.98,-81.6 99.14,-75.75 102.4,-85.83 107.98,-81.6"/>
</g>
</g>
</svg>
