<?xml version="1.0" encoding="UTF-8" standalone="no"?>
<!DOCTYPE svg PUBLIC "-//W3C//DTD SVG 1.1//EN"
 "http://www.w3.org/Graphics/SVG/1.1/DTD/svg11.dtd">
<!-- Generated by graphviz version 2.47.1 (20210421.1823)
 -->
<!-- Title: include/graphics/ResourceManager.hpp Pages: 1 -->
<svg width="948pt" height="207pt"
 viewBox="0.00 0.00 947.50 207.00" xmlns="http://www.w3.org/2000/svg" xmlns:xlink="http://www.w3.org/1999/xlink">
<g id="graph0" class="graph" transform="scale(1 1) rotate(0) translate(4 203)">
<title>include/graphics/ResourceManager.hpp</title>
<polygon fill="white" stroke="transparent" points="-4,4 -4,-203 943.5,-203 943.5,4 -4,4"/>
<!-- Node1 -->
<g id="node1" class="node">
<title>Node1</title>
<g id="a_node1"><a xlink:title=" ">
<polygon fill="#bfbfbf" stroke="black" points="439,-168.5 439,-198.5 570,-198.5 570,-168.5 439,-168.5"/>
<text text-anchor="start" x="447" y="-186.5" font-family="Helvetica,sans-Serif" font-size="10.00">include/graphics/Resource</text>
<text text-anchor="middle" x="504.5" y="-175.5" font-family="Helvetica,sans-Serif" font-size="10.00">Manager.hpp</text>
</a>
</g>
</g>
<!-- Node2 -->
<g id="node2" class="node">
<title>Node2</title>
<g id="a_node2"><a xlink:href="_drawable_8cpp.html" target="_top" xlink:title=" ">
<polygon fill="white" stroke="black" points="0,-112.5 0,-131.5 123,-131.5 123,-112.5 0,-112.5"/>
<text text-anchor="middle" x="61.5" y="-119.5" font-family="Helvetica,sans-Serif" font-size="10.00">src/engine/Drawable.cpp</text>
</a>
</g>
</g>
<!-- Node1&#45;&gt;Node2 -->
<g id="edge1" class="edge">
<title>Node1&#45;&gt;Node2</title>
<path fill="none" stroke="midnightblue" d="M428.66,-172.31C342.32,-160.72 202.95,-142 123.06,-131.27"/>
<polygon fill="midnightblue" stroke="midnightblue" points="428.28,-175.79 438.66,-173.66 429.21,-168.86 428.28,-175.79"/>
</g>
<!-- Node3 -->
<g id="node3" class="node">
<title>Node3</title>
<g id="a_node3"><a xlink:href="_field_8cpp.html" target="_top" xlink:title=" ">
<polygon fill="white" stroke="black" points="141.5,-112.5 141.5,-131.5 245.5,-131.5 245.5,-112.5 141.5,-112.5"/>
<text text-anchor="middle" x="193.5" y="-119.5" font-family="Helvetica,sans-Serif" font-size="10.00">src/engine/Field.cpp</text>
</a>
</g>
</g>
<!-- Node1&#45;&gt;Node3 -->
<g id="edge2" class="edge">
<title>Node1&#45;&gt;Node3</title>
<path fill="none" stroke="midnightblue" d="M428.78,-168.01C368.99,-156.57 287.63,-141.01 237.93,-131.5"/>
<polygon fill="midnightblue" stroke="midnightblue" points="428.45,-171.51 438.92,-169.95 429.76,-164.64 428.45,-171.51"/>
</g>
<!-- Node4 -->
<g id="node4" class="node">
<title>Node4</title>
<g id="a_node4"><a xlink:href="_engine_8cpp.html" target="_top" xlink:title=" ">
<polygon fill="white" stroke="black" points="263.5,-112.5 263.5,-131.5 343.5,-131.5 343.5,-112.5 263.5,-112.5"/>
<text text-anchor="middle" x="303.5" y="-119.5" font-family="Helvetica,sans-Serif" font-size="10.00">src/Engine.cpp</text>
</a>
</g>
</g>
<!-- Node1&#45;&gt;Node4 -->
<g id="edge3" class="edge">
<title>Node1&#45;&gt;Node4</title>
<path fill="none" stroke="midnightblue" d="M447.3,-165.57C409.71,-154.44 362.12,-140.35 332.24,-131.51"/>
<polygon fill="midnightblue" stroke="midnightblue" points="446.54,-168.99 457.12,-168.47 448.53,-162.28 446.54,-168.99"/>
</g>
<!-- Node5 -->
<g id="node5" class="node">
<title>Node5</title>
<g id="a_node5"><a xlink:href="_event_handler_8cpp.html" target="_top" xlink:title=" ">
<polygon fill="white" stroke="black" points="362,-112.5 362,-131.5 533,-131.5 533,-112.5 362,-112.5"/>
<text text-anchor="middle" x="447.5" y="-119.5" font-family="Helvetica,sans-Serif" font-size="10.00">src/EventHandler/EventHandler.cpp</text>
</a>
</g>
</g>
<!-- Node1&#45;&gt;Node5 -->
<g id="edge4" class="edge">
<title>Node1&#45;&gt;Node5</title>
<path fill="none" stroke="midnightblue" d="M483.91,-161C474.19,-150.86 463.15,-139.33 455.79,-131.66"/>
<polygon fill="midnightblue" stroke="midnightblue" points="481.55,-163.6 490.99,-168.4 486.6,-158.76 481.55,-163.6"/>
</g>
<!-- Node6 -->
<g id="node6" class="node">
<title>Node6</title>
<g id="a_node6"><a xlink:href="_game_8cpp.html" target="_top" xlink:title=" ">
<polygon fill="white" stroke="black" points="580,-0.5 580,-19.5 657,-19.5 657,-0.5 580,-0.5"/>
<text text-anchor="middle" x="618.5" y="-7.5" font-family="Helvetica,sans-Serif" font-size="10.00">src/Game.cpp</text>
</a>
</g>
</g>
<!-- Node1&#45;&gt;Node6 -->
<g id="edge5" class="edge">
<title>Node1&#45;&gt;Node6</title>
<path fill="none" stroke="midnightblue" d="M521.49,-159.98C527.89,-151.32 535.15,-141.29 541.5,-132 569.74,-90.68 601.1,-39.65 613.28,-19.63"/>
<polygon fill="midnightblue" stroke="midnightblue" points="518.61,-157.99 515.44,-168.1 524.22,-162.17 518.61,-157.99"/>
</g>
<!-- Node7 -->
<g id="node7" class="node">
<title>Node7</title>
<g id="a_node7"><a xlink:href="_resource_manager_8cpp.html" target="_top" xlink:title=" ">
<polygon fill="white" stroke="black" points="589.5,-112.5 589.5,-131.5 759.5,-131.5 759.5,-112.5 589.5,-112.5"/>
<text text-anchor="middle" x="674.5" y="-119.5" font-family="Helvetica,sans-Serif" font-size="10.00">src/graphics/ResourceManager.cpp</text>
</a>
</g>
</g>
<!-- Node1&#45;&gt;Node7 -->
<g id="edge6" class="edge">
<title>Node1&#45;&gt;Node7</title>
<path fill="none" stroke="midnightblue" d="M554.25,-165.09C585.64,-154.1 624.83,-140.39 649.76,-131.66"/>
<polygon fill="midnightblue" stroke="midnightblue" points="553.07,-161.79 544.79,-168.4 555.38,-168.4 553.07,-161.79"/>
</g>
<!-- Node8 -->
<g id="node8" class="node">
<title>Node8</title>
<g id="a_node8"><a xlink:href="_inventory_8hpp.html" target="_top" xlink:title=" ">
<polygon fill="white" stroke="black" points="700,-56.5 700,-75.5 829,-75.5 829,-56.5 700,-56.5"/>
<text text-anchor="middle" x="764.5" y="-63.5" font-family="Helvetica,sans-Serif" font-size="10.00">include/GUI/Inventory.hpp</text>
</a>
</g>
</g>
<!-- Node1&#45;&gt;Node8 -->
<g id="edge7" class="edge">
<title>Node1&#45;&gt;Node8</title>
<path fill="none" stroke="midnightblue" d="M580.33,-178.48C649.69,-173.02 744.98,-160.45 768.5,-132 781.76,-115.97 773.89,-89.4 768.42,-75.73"/>
<polygon fill="midnightblue" stroke="midnightblue" points="580,-174.99 570.29,-179.23 580.53,-181.97 580,-174.99"/>
</g>
<!-- Node10 -->
<g id="node10" class="node">
<title>Node10</title>
<g id="a_node10"><a xlink:href="_item_8hpp.html" target="_top" xlink:title=" ">
<polygon fill="white" stroke="black" points="816,-112.5 816,-131.5 925,-131.5 925,-112.5 816,-112.5"/>
<text text-anchor="middle" x="870.5" y="-119.5" font-family="Helvetica,sans-Serif" font-size="10.00">include/GUI/Item.hpp</text>
</a>
</g>
</g>
<!-- Node1&#45;&gt;Node10 -->
<g id="edge10" class="edge">
<title>Node1&#45;&gt;Node10</title>
<path fill="none" stroke="midnightblue" d="M580.6,-170.13C651.72,-158.57 756.01,-141.61 818.2,-131.5"/>
<polygon fill="midnightblue" stroke="midnightblue" points="579.66,-166.73 570.36,-171.79 580.79,-173.64 579.66,-166.73"/>
</g>
<!-- Node8&#45;&gt;Node6 -->
<g id="edge8" class="edge">
<title>Node8&#45;&gt;Node6</title>
<path fill="none" stroke="midnightblue" d="M731.8,-52.91C704.35,-42.75 665.83,-28.51 641.53,-19.52"/>
<polygon fill="midnightblue" stroke="midnightblue" points="730.77,-56.26 741.37,-56.44 733.2,-49.69 730.77,-56.26"/>
</g>
<!-- Node9 -->
<g id="node9" class="node">
<title>Node9</title>
<g id="a_node9"><a xlink:href="_inventory_8cpp.html" target="_top" xlink:title=" ">
<polygon fill="white" stroke="black" points="708.5,-0.5 708.5,-19.5 820.5,-19.5 820.5,-0.5 708.5,-0.5"/>
<text text-anchor="middle" x="764.5" y="-7.5" font-family="Helvetica,sans-Serif" font-size="10.00">src/GUI/Inventory.cpp</text>
</a>
</g>
</g>
<!-- Node8&#45;&gt;Node9 -->
<g id="edge9" class="edge">
<title>Node8&#45;&gt;Node9</title>
<path fill="none" stroke="midnightblue" d="M764.5,-45.8C764.5,-36.91 764.5,-26.78 764.5,-19.75"/>
<polygon fill="midnightblue" stroke="midnightblue" points="761,-46.08 764.5,-56.08 768,-46.08 761,-46.08"/>
</g>
<!-- Node10&#45;&gt;Node8 -->
<g id="edge12" class="edge">
<title>Node10&#45;&gt;Node8</title>
<path fill="none" stroke="midnightblue" d="M844.44,-107.73C824.82,-97.73 798.47,-84.31 781.49,-75.65"/>
<polygon fill="midnightblue" stroke="midnightblue" points="842.97,-110.9 853.47,-112.32 846.15,-104.67 842.97,-110.9"/>
</g>
<!-- Node11 -->
<g id="node11" class="node">
<title>Node11</title>
<g id="a_node11"><a xlink:href="_item_8cpp.html" target="_top" xlink:title=" ">
<polygon fill="white" stroke="black" points="847.5,-56.5 847.5,-75.5 939.5,-75.5 939.5,-56.5 847.5,-56.5"/>
<text text-anchor="middle" x="893.5" y="-63.5" font-family="Helvetica,sans-Serif" font-size="10.00">src/GUI/Item.cpp</text>
</a>
</g>
</g>
<!-- Node10&#45;&gt;Node11 -->
<g id="edge11" class="edge">
<title>Node10&#45;&gt;Node11</title>
<path fill="none" stroke="midnightblue" d="M878.3,-102.69C882.18,-93.59 886.68,-83.01 889.77,-75.75"/>
<polygon fill="midnightblue" stroke="midnightblue" points="875,-101.51 874.3,-112.08 881.44,-104.25 875,-101.51"/>
</g>
</g>
</svg>
