<?xml version="1.0" encoding="UTF-8" standalone="no"?>
<!DOCTYPE svg PUBLIC "-//W3C//DTD SVG 1.1//EN"
 "http://www.w3.org/Graphics/SVG/1.1/DTD/svg11.dtd">
<!-- Generated by graphviz version 2.47.0 (20210407.0042)
 -->
<!-- Title: include/graphics/ResourceManager.hpp Pages: 1 -->
<svg width="533pt" height="319pt"
 viewBox="0.00 0.00 532.50 319.00" xmlns="http://www.w3.org/2000/svg" xmlns:xlink="http://www.w3.org/1999/xlink">
<g id="graph0" class="graph" transform="scale(1 1) rotate(0) translate(4 315)">
<title>include/graphics/ResourceManager.hpp</title>
<polygon fill="white" stroke="transparent" points="-4,4 -4,-315 528.5,-315 528.5,4 -4,4"/>
<!-- Node1 -->
<g id="node1" class="node">
<title>Node1</title>
<g id="a_node1"><a xlink:title=" ">
<polygon fill="#bfbfbf" stroke="black" points="119,-280.5 119,-310.5 250,-310.5 250,-280.5 119,-280.5"/>
<text text-anchor="start" x="127" y="-298.5" font-family="Helvetica,sans-Serif" font-size="10.00">include/graphics/Resource</text>
<text text-anchor="middle" x="184.5" y="-287.5" font-family="Helvetica,sans-Serif" font-size="10.00">Manager.hpp</text>
</a>
</g>
</g>
<!-- Node2 -->
<g id="node2" class="node">
<title>Node2</title>
<g id="a_node2"><a xlink:title=" ">
<polygon fill="white" stroke="#bfbfbf" points="0,-224.5 0,-243.5 35,-243.5 35,-224.5 0,-224.5"/>
<text text-anchor="middle" x="17.5" y="-231.5" font-family="Helvetica,sans-Serif" font-size="10.00">map</text>
</a>
</g>
</g>
<!-- Node1&#45;&gt;Node2 -->
<g id="edge1" class="edge">
<title>Node1&#45;&gt;Node2</title>
<path fill="none" stroke="midnightblue" d="M144.92,-280.4C114.13,-269.43 72.21,-254.49 45,-244.8"/>
<polygon fill="midnightblue" stroke="midnightblue" points="45.94,-241.42 35.34,-241.36 43.59,-248.01 45.94,-241.42"/>
</g>
<!-- Node3 -->
<g id="node3" class="node">
<title>Node3</title>
<g id="a_node3"><a xlink:title=" ">
<polygon fill="white" stroke="#bfbfbf" points="36,-168.5 36,-187.5 77,-187.5 77,-168.5 36,-168.5"/>
<text text-anchor="middle" x="56.5" y="-175.5" font-family="Helvetica,sans-Serif" font-size="10.00">string</text>
</a>
</g>
</g>
<!-- Node1&#45;&gt;Node3 -->
<g id="edge2" class="edge">
<title>Node1&#45;&gt;Node3</title>
<path fill="none" stroke="midnightblue" d="M139.28,-280.4C119.68,-272.37 97.79,-260.55 82.5,-244 70.53,-231.04 63.77,-211.87 60.17,-197.71"/>
<polygon fill="midnightblue" stroke="midnightblue" points="63.51,-196.63 57.91,-187.63 56.68,-198.16 63.51,-196.63"/>
</g>
<!-- Node4 -->
<g id="node4" class="node">
<title>Node4</title>
<g id="a_node4"><a xlink:title=" ">
<polygon fill="white" stroke="#bfbfbf" points="292,-224.5 292,-243.5 343,-243.5 343,-224.5 292,-224.5"/>
<text text-anchor="middle" x="317.5" y="-231.5" font-family="Helvetica,sans-Serif" font-size="10.00">memory</text>
</a>
</g>
</g>
<!-- Node1&#45;&gt;Node4 -->
<g id="edge3" class="edge">
<title>Node1&#45;&gt;Node4</title>
<path fill="none" stroke="midnightblue" d="M216.02,-280.4C238.14,-270.51 267.47,-257.38 288.91,-247.79"/>
<polygon fill="midnightblue" stroke="midnightblue" points="290.45,-250.94 298.15,-243.66 287.59,-244.55 290.45,-250.94"/>
</g>
<!-- Node5 -->
<g id="node5" class="node">
<title>Node5</title>
<g id="a_node5"><a xlink:href="_shader_8hpp.html" target="_top" xlink:title=" ">
<polygon fill="white" stroke="black" points="92,-224.5 92,-243.5 197,-243.5 197,-224.5 92,-224.5"/>
<text text-anchor="middle" x="144.5" y="-231.5" font-family="Helvetica,sans-Serif" font-size="10.00">graphics/Shader.hpp</text>
</a>
</g>
</g>
<!-- Node1&#45;&gt;Node5 -->
<g id="edge4" class="edge">
<title>Node1&#45;&gt;Node5</title>
<path fill="none" stroke="midnightblue" d="M175.02,-280.4C169.33,-271.93 162.05,-261.1 156.02,-252.14"/>
<polygon fill="midnightblue" stroke="midnightblue" points="158.8,-250 150.32,-243.66 152.99,-253.91 158.8,-250"/>
</g>
<!-- Node6 -->
<g id="node6" class="node">
<title>Node6</title>
<g id="a_node6"><a xlink:href="_g_shape_8hpp.html" target="_top" xlink:title=" ">
<polygon fill="white" stroke="black" points="171.5,-168.5 171.5,-187.5 281.5,-187.5 281.5,-168.5 171.5,-168.5"/>
<text text-anchor="middle" x="226.5" y="-175.5" font-family="Helvetica,sans-Serif" font-size="10.00">graphics/GShape.hpp</text>
</a>
</g>
</g>
<!-- Node1&#45;&gt;Node6 -->
<g id="edge18" class="edge">
<title>Node1&#45;&gt;Node6</title>
<path fill="none" stroke="midnightblue" d="M191.29,-280.09C195.88,-270.08 201.92,-256.38 206.5,-244 212.27,-228.43 217.73,-210.35 221.49,-197.22"/>
<polygon fill="midnightblue" stroke="midnightblue" points="224.88,-198.09 224.21,-187.52 218.14,-196.2 224.88,-198.09"/>
</g>
<!-- Node14 -->
<g id="node14" class="node">
<title>Node14</title>
<g id="a_node14"><a xlink:href="_event_handler_8hpp.html" target="_top" xlink:title=" ">
<polygon fill="white" stroke="black" points="300,-168.5 300,-187.5 455,-187.5 455,-168.5 300,-168.5"/>
<text text-anchor="middle" x="377.5" y="-175.5" font-family="Helvetica,sans-Serif" font-size="10.00">EventHandler/EventHandler.hpp</text>
</a>
</g>
</g>
<!-- Node1&#45;&gt;Node14 -->
<g id="edge19" class="edge">
<title>Node1&#45;&gt;Node14</title>
<path fill="none" stroke="midnightblue" d="M202.47,-280.26C221.84,-265.27 253.87,-241.47 283.5,-224 304.34,-211.72 329.05,-199.99 347.9,-191.59"/>
<polygon fill="midnightblue" stroke="midnightblue" points="349.43,-194.74 357.18,-187.51 346.62,-188.33 349.43,-194.74"/>
</g>
<!-- Node5&#45;&gt;Node3 -->
<g id="edge5" class="edge">
<title>Node5&#45;&gt;Node3</title>
<path fill="none" stroke="midnightblue" d="M130.36,-224.32C116.63,-215.9 95.56,-202.97 79.44,-193.07"/>
<polygon fill="midnightblue" stroke="midnightblue" points="80.96,-189.9 70.6,-187.65 77.3,-195.87 80.96,-189.9"/>
</g>
<!-- Node5&#45;&gt;Node6 -->
<g id="edge6" class="edge">
<title>Node5&#45;&gt;Node6</title>
<path fill="none" stroke="midnightblue" d="M152.56,-224.32C163.63,-215.82 183.23,-202.73 199.57,-192.8"/>
<polygon fill="midnightblue" stroke="midnightblue" points="201.43,-195.77 208.25,-187.65 197.86,-189.74 201.43,-195.77"/>
</g>
<!-- Node12 -->
<g id="node12" class="node">
<title>Node12</title>
<g id="a_node12"><a xlink:href="_transform_8hpp.html" target="_top" xlink:title=" ">
<polygon fill="white" stroke="black" points="46,-56.5 46,-75.5 165,-75.5 165,-56.5 46,-56.5"/>
<text text-anchor="middle" x="105.5" y="-63.5" font-family="Helvetica,sans-Serif" font-size="10.00">graphics/Transform.hpp</text>
</a>
</g>
</g>
<!-- Node5&#45;&gt;Node12 -->
<g id="edge17" class="edge">
<title>Node5&#45;&gt;Node12</title>
<path fill="none" stroke="midnightblue" d="M142.4,-224.08C136.26,-197.95 118.24,-121.21 109.86,-85.58"/>
<polygon fill="midnightblue" stroke="midnightblue" points="113.21,-84.5 107.51,-75.57 106.39,-86.1 113.21,-84.5"/>
</g>
<!-- Node6&#45;&gt;Node5 -->
<g id="edge15" class="edge">
<title>Node6&#45;&gt;Node5</title>
<path fill="none" stroke="midnightblue" d="M218.23,-187.83C207.13,-196.34 187.66,-209.34 171.41,-219.21"/>
<polygon fill="midnightblue" stroke="midnightblue" points="169.61,-216.21 162.79,-224.32 173.18,-222.23 169.61,-216.21"/>
</g>
<!-- Node7 -->
<g id="node7" class="node">
<title>Node7</title>
<g id="a_node7"><a xlink:href="_window_8hpp.html" target="_top" xlink:title=" ">
<polygon fill="white" stroke="black" points="199,-112.5 199,-131.5 308,-131.5 308,-112.5 199,-112.5"/>
<text text-anchor="middle" x="253.5" y="-119.5" font-family="Helvetica,sans-Serif" font-size="10.00">graphics/Window.hpp</text>
</a>
</g>
</g>
<!-- Node6&#45;&gt;Node7 -->
<g id="edge7" class="edge">
<title>Node6&#45;&gt;Node7</title>
<path fill="none" stroke="midnightblue" d="M230.96,-168.08C234.65,-160.69 240.02,-149.95 244.59,-140.81"/>
<polygon fill="midnightblue" stroke="midnightblue" points="247.78,-142.26 249.12,-131.75 241.52,-139.13 247.78,-142.26"/>
</g>
<!-- Node6&#45;&gt;Node12 -->
<g id="edge16" class="edge">
<title>Node6&#45;&gt;Node12</title>
<path fill="none" stroke="midnightblue" d="M217.01,-168.37C196.6,-149.81 148.3,-105.91 122.48,-82.44"/>
<polygon fill="midnightblue" stroke="midnightblue" points="124.7,-79.73 114.95,-75.59 120,-84.91 124.7,-79.73"/>
</g>
<!-- Node7&#45;&gt;Node5 -->
<g id="edge12" class="edge">
<title>Node7&#45;&gt;Node5</title>
<path fill="none" stroke="midnightblue" d="M221.45,-131.52C201.78,-138.32 177.55,-149.8 162.5,-168 151.67,-181.1 147.33,-200.25 145.61,-214.37"/>
<polygon fill="midnightblue" stroke="midnightblue" points="142.12,-214.14 144.71,-224.41 149.09,-214.76 142.12,-214.14"/>
</g>
<!-- Node8 -->
<g id="node8" class="node">
<title>Node8</title>
<g id="a_node8"><a xlink:title=" ">
<polygon fill="white" stroke="#bfbfbf" points="342,-56.5 342,-75.5 405,-75.5 405,-56.5 342,-56.5"/>
<text text-anchor="middle" x="373.5" y="-63.5" font-family="Helvetica,sans-Serif" font-size="10.00">glad/glad.h</text>
</a>
</g>
</g>
<!-- Node7&#45;&gt;Node8 -->
<g id="edge8" class="edge">
<title>Node7&#45;&gt;Node8</title>
<path fill="none" stroke="midnightblue" d="M272.51,-112.44C292.09,-103.64 322.81,-89.81 345.23,-79.72"/>
<polygon fill="midnightblue" stroke="midnightblue" points="346.89,-82.81 354.57,-75.52 344.02,-76.43 346.89,-82.81"/>
</g>
<!-- Node9 -->
<g id="node9" class="node">
<title>Node9</title>
<g id="a_node9"><a xlink:title=" ">
<polygon fill="white" stroke="#bfbfbf" points="183,-56.5 183,-75.5 262,-75.5 262,-56.5 183,-56.5"/>
<text text-anchor="middle" x="222.5" y="-63.5" font-family="Helvetica,sans-Serif" font-size="10.00">GLFW/glfw3.h</text>
</a>
</g>
</g>
<!-- Node7&#45;&gt;Node9 -->
<g id="edge9" class="edge">
<title>Node7&#45;&gt;Node9</title>
<path fill="none" stroke="midnightblue" d="M248.38,-112.08C244.09,-104.61 237.84,-93.72 232.56,-84.52"/>
<polygon fill="midnightblue" stroke="midnightblue" points="235.54,-82.68 227.52,-75.75 229.47,-86.17 235.54,-82.68"/>
</g>
<!-- Node10 -->
<g id="node10" class="node">
<title>Node10</title>
<g id="a_node10"><a xlink:title=" ">
<polygon fill="white" stroke="#bfbfbf" points="423,-56.5 423,-75.5 462,-75.5 462,-56.5 423,-56.5"/>
<text text-anchor="middle" x="442.5" y="-63.5" font-family="Helvetica,sans-Serif" font-size="10.00">utility</text>
</a>
</g>
</g>
<!-- Node7&#45;&gt;Node10 -->
<g id="edge10" class="edge">
<title>Node7&#45;&gt;Node10</title>
<path fill="none" stroke="midnightblue" d="M285.37,-112.48C315.96,-104.22 363.67,-91.11 413.33,-76.28"/>
<polygon fill="midnightblue" stroke="midnightblue" points="414.38,-79.62 422.95,-73.39 412.36,-72.91 414.38,-79.62"/>
</g>
<!-- Node11 -->
<g id="node11" class="node">
<title>Node11</title>
<g id="a_node11"><a xlink:title=" ">
<polygon fill="white" stroke="#bfbfbf" points="279.5,-56.5 279.5,-75.5 323.5,-75.5 323.5,-56.5 279.5,-56.5"/>
<text text-anchor="middle" x="301.5" y="-63.5" font-family="Helvetica,sans-Serif" font-size="10.00">vector</text>
</a>
</g>
</g>
<!-- Node7&#45;&gt;Node11 -->
<g id="edge11" class="edge">
<title>Node7&#45;&gt;Node11</title>
<path fill="none" stroke="midnightblue" d="M261.43,-112.08C268.35,-104.3 278.57,-92.8 286.95,-83.37"/>
<polygon fill="midnightblue" stroke="midnightblue" points="289.69,-85.55 293.72,-75.75 284.46,-80.9 289.69,-85.55"/>
</g>
<!-- Node7&#45;&gt;Node12 -->
<g id="edge13" class="edge">
<title>Node7&#45;&gt;Node12</title>
<path fill="none" stroke="midnightblue" d="M230.05,-112.44C205.37,-103.44 166.31,-89.19 138.52,-79.05"/>
<polygon fill="midnightblue" stroke="midnightblue" points="139.44,-75.66 128.84,-75.52 137.04,-82.23 139.44,-75.66"/>
</g>
<!-- Node13 -->
<g id="node13" class="node">
<title>Node13</title>
<g id="a_node13"><a xlink:title=" ">
<polygon fill="white" stroke="#bfbfbf" points="53.5,-0.5 53.5,-19.5 157.5,-19.5 157.5,-0.5 53.5,-0.5"/>
<text text-anchor="middle" x="105.5" y="-7.5" font-family="Helvetica,sans-Serif" font-size="10.00">glm/gtc/type_ptr.hpp</text>
</a>
</g>
</g>
<!-- Node12&#45;&gt;Node13 -->
<g id="edge14" class="edge">
<title>Node12&#45;&gt;Node13</title>
<path fill="none" stroke="midnightblue" d="M105.5,-56.08C105.5,-49.01 105.5,-38.86 105.5,-29.99"/>
<polygon fill="midnightblue" stroke="midnightblue" points="109,-29.75 105.5,-19.75 102,-29.75 109,-29.75"/>
</g>
<!-- Node14&#45;&gt;Node7 -->
<g id="edge21" class="edge">
<title>Node14&#45;&gt;Node7</title>
<path fill="none" stroke="midnightblue" d="M357.85,-168.44C337.54,-159.6 305.6,-145.69 282.4,-135.59"/>
<polygon fill="midnightblue" stroke="midnightblue" points="283.62,-132.3 273.06,-131.52 280.83,-138.72 283.62,-132.3"/>
</g>
<!-- Node15 -->
<g id="node15" class="node">
<title>Node15</title>
<g id="a_node15"><a xlink:title=" ">
<polygon fill="white" stroke="#bfbfbf" points="328,-112.5 328,-131.5 387,-131.5 387,-112.5 328,-112.5"/>
<text text-anchor="middle" x="357.5" y="-119.5" font-family="Helvetica,sans-Serif" font-size="10.00">functional</text>
</a>
</g>
</g>
<!-- Node14&#45;&gt;Node15 -->
<g id="edge20" class="edge">
<title>Node14&#45;&gt;Node15</title>
<path fill="none" stroke="midnightblue" d="M374.2,-168.08C371.52,-160.85 367.65,-150.41 364.31,-141.4"/>
<polygon fill="midnightblue" stroke="midnightblue" points="367.5,-139.91 360.74,-131.75 360.93,-142.34 367.5,-139.91"/>
</g>
<!-- Node16 -->
<g id="node16" class="node">
<title>Node16</title>
<g id="a_node16"><a xlink:href="_vector2_d_8hpp.html" target="_top" xlink:title=" ">
<polygon fill="white" stroke="black" points="405.5,-112.5 405.5,-131.5 517.5,-131.5 517.5,-112.5 405.5,-112.5"/>
<text text-anchor="middle" x="461.5" y="-119.5" font-family="Helvetica,sans-Serif" font-size="10.00">Helpers/Vector2D.hpp</text>
</a>
</g>
</g>
<!-- Node14&#45;&gt;Node16 -->
<g id="edge22" class="edge">
<title>Node14&#45;&gt;Node16</title>
<path fill="none" stroke="midnightblue" d="M391,-168.32C404.1,-159.9 424.21,-146.97 439.61,-137.07"/>
<polygon fill="midnightblue" stroke="midnightblue" points="441.52,-140.01 448.04,-131.65 437.73,-134.12 441.52,-140.01"/>
</g>
<!-- Node16&#45;&gt;Node10 -->
<g id="edge23" class="edge">
<title>Node16&#45;&gt;Node10</title>
<path fill="none" stroke="midnightblue" d="M458.36,-112.08C455.82,-104.85 452.14,-94.41 448.97,-85.4"/>
<polygon fill="midnightblue" stroke="midnightblue" points="452.2,-84.02 445.58,-75.75 445.6,-86.35 452.2,-84.02"/>
</g>
<!-- Node17 -->
<g id="node17" class="node">
<title>Node17</title>
<g id="a_node17"><a xlink:title=" ">
<polygon fill="white" stroke="#bfbfbf" points="480.5,-56.5 480.5,-75.5 524.5,-75.5 524.5,-56.5 480.5,-56.5"/>
<text text-anchor="middle" x="502.5" y="-63.5" font-family="Helvetica,sans-Serif" font-size="10.00">cmath</text>
</a>
</g>
</g>
<!-- Node16&#45;&gt;Node17 -->
<g id="edge24" class="edge">
<title>Node16&#45;&gt;Node17</title>
<path fill="none" stroke="midnightblue" d="M468.27,-112.08C474.06,-104.46 482.56,-93.26 489.64,-83.94"/>
<polygon fill="midnightblue" stroke="midnightblue" points="492.6,-85.83 495.86,-75.75 487.02,-81.6 492.6,-85.83"/>
</g>
</g>
</svg>
