<?xml version="1.0" encoding="UTF-8" standalone="no"?>
<!DOCTYPE svg PUBLIC "-//W3C//DTD SVG 1.1//EN"
 "http://www.w3.org/Graphics/SVG/1.1/DTD/svg11.dtd">
<!-- Generated by graphviz version 2.47.0 (20210407.0042)
 -->
<!-- Title: src/graphics/ResourceManager.cpp Pages: 1 -->
<svg width="467pt" height="364pt"
 viewBox="0.00 0.00 466.50 364.00" xmlns="http://www.w3.org/2000/svg" xmlns:xlink="http://www.w3.org/1999/xlink">
<g id="graph0" class="graph" transform="scale(1 1) rotate(0) translate(4 360)">
<title>src/graphics/ResourceManager.cpp</title>
<polygon fill="white" stroke="transparent" points="-4,4 -4,-360 462.5,-360 462.5,4 -4,4"/>
<!-- Node1 -->
<g id="node1" class="node">
<title>Node1</title>
<g id="a_node1"><a xlink:title=" ">
<polygon fill="#bfbfbf" stroke="black" points="190.5,-336.5 190.5,-355.5 360.5,-355.5 360.5,-336.5 190.5,-336.5"/>
<text text-anchor="middle" x="275.5" y="-343.5" font-family="Helvetica,sans-Serif" font-size="10.00">src/graphics/ResourceManager.cpp</text>
</a>
</g>
</g>
<!-- Node2 -->
<g id="node2" class="node">
<title>Node2</title>
<g id="a_node2"><a xlink:href="_resource_manager_8hpp.html" target="_top" xlink:title=" ">
<polygon fill="white" stroke="black" points="199,-280.5 199,-299.5 352,-299.5 352,-280.5 199,-280.5"/>
<text text-anchor="middle" x="275.5" y="-287.5" font-family="Helvetica,sans-Serif" font-size="10.00">graphics/ResourceManager.hpp</text>
</a>
</g>
</g>
<!-- Node1&#45;&gt;Node2 -->
<g id="edge1" class="edge">
<title>Node1&#45;&gt;Node2</title>
<path fill="none" stroke="midnightblue" d="M275.5,-336.08C275.5,-329.01 275.5,-318.86 275.5,-309.99"/>
<polygon fill="midnightblue" stroke="midnightblue" points="279,-309.75 275.5,-299.75 272,-309.75 279,-309.75"/>
</g>
<!-- Node3 -->
<g id="node3" class="node">
<title>Node3</title>
<g id="a_node3"><a xlink:title=" ">
<polygon fill="white" stroke="#bfbfbf" points="137,-224.5 137,-243.5 172,-243.5 172,-224.5 137,-224.5"/>
<text text-anchor="middle" x="154.5" y="-231.5" font-family="Helvetica,sans-Serif" font-size="10.00">map</text>
</a>
</g>
</g>
<!-- Node1&#45;&gt;Node3 -->
<g id="edge20" class="edge">
<title>Node1&#45;&gt;Node3</title>
<path fill="none" stroke="midnightblue" d="M250.43,-336.49C231.81,-329.16 206.76,-317.06 189.5,-300 176.13,-286.79 166.6,-267.39 160.89,-253.22"/>
<polygon fill="midnightblue" stroke="midnightblue" points="164.06,-251.73 157.27,-243.6 157.51,-254.19 164.06,-251.73"/>
</g>
<!-- Node4 -->
<g id="node4" class="node">
<title>Node4</title>
<g id="a_node4"><a xlink:title=" ">
<polygon fill="white" stroke="#bfbfbf" points="173,-168.5 173,-187.5 214,-187.5 214,-168.5 173,-168.5"/>
<text text-anchor="middle" x="193.5" y="-175.5" font-family="Helvetica,sans-Serif" font-size="10.00">string</text>
</a>
</g>
</g>
<!-- Node1&#45;&gt;Node4 -->
<g id="edge21" class="edge">
<title>Node1&#45;&gt;Node4</title>
<path fill="none" stroke="midnightblue" d="M245.62,-336.47C223.62,-329.2 193.78,-317.17 171.5,-300 146.43,-280.68 137.85,-273.91 127.5,-244 124.59,-235.6 123.35,-231.86 127.5,-224 135.24,-209.36 150.12,-198.58 163.8,-191.25"/>
<polygon fill="midnightblue" stroke="midnightblue" points="165.56,-194.29 172.97,-186.72 162.46,-188.01 165.56,-194.29"/>
</g>
<!-- Node5 -->
<g id="node5" class="node">
<title>Node5</title>
<g id="a_node5"><a xlink:title=" ">
<polygon fill="white" stroke="#bfbfbf" points="391,-224.5 391,-243.5 442,-243.5 442,-224.5 391,-224.5"/>
<text text-anchor="middle" x="416.5" y="-231.5" font-family="Helvetica,sans-Serif" font-size="10.00">memory</text>
</a>
</g>
</g>
<!-- Node1&#45;&gt;Node5 -->
<g id="edge22" class="edge">
<title>Node1&#45;&gt;Node5</title>
<path fill="none" stroke="midnightblue" d="M297.38,-336.37C315.64,-328.53 341.77,-315.8 361.5,-300 378.73,-286.2 394.57,-266.39 404.78,-252.27"/>
<polygon fill="midnightblue" stroke="midnightblue" points="407.75,-254.13 410.63,-243.94 402.02,-250.11 407.75,-254.13"/>
</g>
<!-- Node15 -->
<g id="node15" class="node">
<title>Node15</title>
<g id="a_node15"><a xlink:title=" ">
<polygon fill="white" stroke="#bfbfbf" points="408.5,-280.5 408.5,-299.5 458.5,-299.5 458.5,-280.5 408.5,-280.5"/>
<text text-anchor="middle" x="433.5" y="-287.5" font-family="Helvetica,sans-Serif" font-size="10.00">fstream</text>
</a>
</g>
</g>
<!-- Node1&#45;&gt;Node15 -->
<g id="edge23" class="edge">
<title>Node1&#45;&gt;Node15</title>
<path fill="none" stroke="midnightblue" d="M300.54,-336.44C327.12,-327.36 369.31,-312.94 399.02,-302.78"/>
<polygon fill="midnightblue" stroke="midnightblue" points="400.25,-306.06 408.58,-299.52 397.99,-299.44 400.25,-306.06"/>
</g>
<!-- Node2&#45;&gt;Node3 -->
<g id="edge2" class="edge">
<title>Node2&#45;&gt;Node3</title>
<path fill="none" stroke="midnightblue" d="M256.33,-280.44C236.13,-271.43 204.15,-257.16 181.42,-247.02"/>
<polygon fill="midnightblue" stroke="midnightblue" points="182.57,-243.69 172.01,-242.82 179.72,-250.09 182.57,-243.69"/>
</g>
<!-- Node2&#45;&gt;Node4 -->
<g id="edge3" class="edge">
<title>Node2&#45;&gt;Node4</title>
<path fill="none" stroke="midnightblue" d="M260.87,-280.3C248.41,-272.24 230.78,-259.24 219.5,-244 209.12,-229.97 202.2,-211.23 198.13,-197.47"/>
<polygon fill="midnightblue" stroke="midnightblue" points="201.47,-196.42 195.46,-187.7 194.72,-198.27 201.47,-196.42"/>
</g>
<!-- Node2&#45;&gt;Node5 -->
<g id="edge4" class="edge">
<title>Node2&#45;&gt;Node5</title>
<path fill="none" stroke="midnightblue" d="M297.84,-280.44C321.25,-271.48 358.24,-257.31 384.69,-247.18"/>
<polygon fill="midnightblue" stroke="midnightblue" points="386.18,-250.36 394.26,-243.52 383.67,-243.82 386.18,-250.36"/>
</g>
<!-- Node6 -->
<g id="node6" class="node">
<title>Node6</title>
<g id="a_node6"><a xlink:href="_shader_8hpp.html" target="_top" xlink:title=" ">
<polygon fill="white" stroke="black" points="229,-224.5 229,-243.5 334,-243.5 334,-224.5 229,-224.5"/>
<text text-anchor="middle" x="281.5" y="-231.5" font-family="Helvetica,sans-Serif" font-size="10.00">graphics/Shader.hpp</text>
</a>
</g>
</g>
<!-- Node2&#45;&gt;Node6 -->
<g id="edge5" class="edge">
<title>Node2&#45;&gt;Node6</title>
<path fill="none" stroke="midnightblue" d="M276.49,-280.08C277.29,-272.93 278.43,-262.64 279.42,-253.69"/>
<polygon fill="midnightblue" stroke="midnightblue" points="282.9,-254.08 280.53,-243.75 275.94,-253.3 282.9,-254.08"/>
</g>
<!-- Node7 -->
<g id="node7" class="node">
<title>Node7</title>
<g id="a_node7"><a xlink:href="_g_shape_8hpp.html" target="_top" xlink:title=" ">
<polygon fill="white" stroke="black" points="308.5,-168.5 308.5,-187.5 418.5,-187.5 418.5,-168.5 308.5,-168.5"/>
<text text-anchor="middle" x="363.5" y="-175.5" font-family="Helvetica,sans-Serif" font-size="10.00">graphics/GShape.hpp</text>
</a>
</g>
</g>
<!-- Node2&#45;&gt;Node7 -->
<g id="edge19" class="edge">
<title>Node2&#45;&gt;Node7</title>
<path fill="none" stroke="midnightblue" d="M295.52,-280.38C310.74,-272.86 331.12,-260.55 343.5,-244 353.66,-230.42 358.71,-211.62 361.19,-197.73"/>
<polygon fill="midnightblue" stroke="midnightblue" points="364.66,-198.25 362.68,-187.84 357.73,-197.21 364.66,-198.25"/>
</g>
<!-- Node6&#45;&gt;Node4 -->
<g id="edge6" class="edge">
<title>Node6&#45;&gt;Node4</title>
<path fill="none" stroke="midnightblue" d="M267.36,-224.32C253.63,-215.9 232.56,-202.97 216.44,-193.07"/>
<polygon fill="midnightblue" stroke="midnightblue" points="217.96,-189.9 207.6,-187.65 214.3,-195.87 217.96,-189.9"/>
</g>
<!-- Node6&#45;&gt;Node7 -->
<g id="edge7" class="edge">
<title>Node6&#45;&gt;Node7</title>
<path fill="none" stroke="midnightblue" d="M289.56,-224.32C300.63,-215.82 320.23,-202.73 336.57,-192.8"/>
<polygon fill="midnightblue" stroke="midnightblue" points="338.43,-195.77 345.25,-187.65 334.86,-189.74 338.43,-195.77"/>
</g>
<!-- Node13 -->
<g id="node13" class="node">
<title>Node13</title>
<g id="a_node13"><a xlink:href="_transform_8hpp.html" target="_top" xlink:title=" ">
<polygon fill="white" stroke="black" points="298,-56.5 298,-75.5 417,-75.5 417,-56.5 298,-56.5"/>
<text text-anchor="middle" x="357.5" y="-63.5" font-family="Helvetica,sans-Serif" font-size="10.00">graphics/Transform.hpp</text>
</a>
</g>
</g>
<!-- Node6&#45;&gt;Node13 -->
<g id="edge18" class="edge">
<title>Node6&#45;&gt;Node13</title>
<path fill="none" stroke="midnightblue" d="M283.17,-224.36C285.78,-211.68 291.38,-187.45 299.5,-168 312.49,-136.89 333.16,-103.47 346,-83.94"/>
<polygon fill="midnightblue" stroke="midnightblue" points="348.97,-85.79 351.6,-75.53 343.14,-81.91 348.97,-85.79"/>
</g>
<!-- Node7&#45;&gt;Node6 -->
<g id="edge16" class="edge">
<title>Node7&#45;&gt;Node6</title>
<path fill="none" stroke="midnightblue" d="M355.23,-187.83C344.13,-196.34 324.66,-209.34 308.41,-219.21"/>
<polygon fill="midnightblue" stroke="midnightblue" points="306.61,-216.21 299.79,-224.32 310.18,-222.23 306.61,-216.21"/>
</g>
<!-- Node8 -->
<g id="node8" class="node">
<title>Node8</title>
<g id="a_node8"><a xlink:href="_window_8hpp.html" target="_top" xlink:title=" ">
<polygon fill="white" stroke="black" points="143,-112.5 143,-131.5 252,-131.5 252,-112.5 143,-112.5"/>
<text text-anchor="middle" x="197.5" y="-119.5" font-family="Helvetica,sans-Serif" font-size="10.00">graphics/Window.hpp</text>
</a>
</g>
</g>
<!-- Node7&#45;&gt;Node8 -->
<g id="edge8" class="edge">
<title>Node7&#45;&gt;Node8</title>
<path fill="none" stroke="midnightblue" d="M337.2,-168.44C309.15,-159.32 264.56,-144.81 233.32,-134.65"/>
<polygon fill="midnightblue" stroke="midnightblue" points="234.27,-131.28 223.68,-131.52 232.11,-137.94 234.27,-131.28"/>
</g>
<!-- Node7&#45;&gt;Node13 -->
<g id="edge17" class="edge">
<title>Node7&#45;&gt;Node13</title>
<path fill="none" stroke="midnightblue" d="M363.03,-168.37C362.06,-150.62 359.83,-109.67 358.51,-85.6"/>
<polygon fill="midnightblue" stroke="midnightblue" points="362.01,-85.39 357.97,-75.59 355.02,-85.77 362.01,-85.39"/>
</g>
<!-- Node8&#45;&gt;Node6 -->
<g id="edge13" class="edge">
<title>Node8&#45;&gt;Node6</title>
<path fill="none" stroke="midnightblue" d="M204.06,-131.59C217.96,-149.79 250.57,-192.49 268.73,-216.27"/>
<polygon fill="midnightblue" stroke="midnightblue" points="266.06,-218.54 274.91,-224.37 271.62,-214.3 266.06,-218.54"/>
</g>
<!-- Node9 -->
<g id="node9" class="node">
<title>Node9</title>
<g id="a_node9"><a xlink:title=" ">
<polygon fill="white" stroke="#bfbfbf" points="0,-56.5 0,-75.5 63,-75.5 63,-56.5 0,-56.5"/>
<text text-anchor="middle" x="31.5" y="-63.5" font-family="Helvetica,sans-Serif" font-size="10.00">glad/glad.h</text>
</a>
</g>
</g>
<!-- Node8&#45;&gt;Node9 -->
<g id="edge9" class="edge">
<title>Node8&#45;&gt;Node9</title>
<path fill="none" stroke="midnightblue" d="M171.2,-112.44C143.15,-103.32 98.56,-88.81 67.32,-78.65"/>
<polygon fill="midnightblue" stroke="midnightblue" points="68.27,-75.28 57.68,-75.52 66.11,-81.94 68.27,-75.28"/>
</g>
<!-- Node10 -->
<g id="node10" class="node">
<title>Node10</title>
<g id="a_node10"><a xlink:title=" ">
<polygon fill="white" stroke="#bfbfbf" points="81,-56.5 81,-75.5 160,-75.5 160,-56.5 81,-56.5"/>
<text text-anchor="middle" x="120.5" y="-63.5" font-family="Helvetica,sans-Serif" font-size="10.00">GLFW/glfw3.h</text>
</a>
</g>
</g>
<!-- Node8&#45;&gt;Node10 -->
<g id="edge10" class="edge">
<title>Node8&#45;&gt;Node10</title>
<path fill="none" stroke="midnightblue" d="M185.13,-112.32C173.34,-104.06 155.37,-91.45 141.36,-81.63"/>
<polygon fill="midnightblue" stroke="midnightblue" points="143.04,-78.53 132.84,-75.65 139.02,-84.26 143.04,-78.53"/>
</g>
<!-- Node11 -->
<g id="node11" class="node">
<title>Node11</title>
<g id="a_node11"><a xlink:title=" ">
<polygon fill="white" stroke="#bfbfbf" points="178,-56.5 178,-75.5 217,-75.5 217,-56.5 178,-56.5"/>
<text text-anchor="middle" x="197.5" y="-63.5" font-family="Helvetica,sans-Serif" font-size="10.00">utility</text>
</a>
</g>
</g>
<!-- Node8&#45;&gt;Node11 -->
<g id="edge11" class="edge">
<title>Node8&#45;&gt;Node11</title>
<path fill="none" stroke="midnightblue" d="M197.5,-112.08C197.5,-105.01 197.5,-94.86 197.5,-85.99"/>
<polygon fill="midnightblue" stroke="midnightblue" points="201,-85.75 197.5,-75.75 194,-85.75 201,-85.75"/>
</g>
<!-- Node12 -->
<g id="node12" class="node">
<title>Node12</title>
<g id="a_node12"><a xlink:title=" ">
<polygon fill="white" stroke="#bfbfbf" points="235.5,-56.5 235.5,-75.5 279.5,-75.5 279.5,-56.5 235.5,-56.5"/>
<text text-anchor="middle" x="257.5" y="-63.5" font-family="Helvetica,sans-Serif" font-size="10.00">vector</text>
</a>
</g>
</g>
<!-- Node8&#45;&gt;Node12 -->
<g id="edge12" class="edge">
<title>Node8&#45;&gt;Node12</title>
<path fill="none" stroke="midnightblue" d="M207.14,-112.32C216.01,-104.34 229.37,-92.31 240.11,-82.65"/>
<polygon fill="midnightblue" stroke="midnightblue" points="242.59,-85.13 247.68,-75.83 237.91,-79.92 242.59,-85.13"/>
</g>
<!-- Node8&#45;&gt;Node13 -->
<g id="edge14" class="edge">
<title>Node8&#45;&gt;Node13</title>
<path fill="none" stroke="midnightblue" d="M222.85,-112.44C249.77,-103.36 292.5,-88.94 322.59,-78.78"/>
<polygon fill="midnightblue" stroke="midnightblue" points="323.91,-82.03 332.27,-75.52 321.67,-75.4 323.91,-82.03"/>
</g>
<!-- Node14 -->
<g id="node14" class="node">
<title>Node14</title>
<g id="a_node14"><a xlink:title=" ">
<polygon fill="white" stroke="#bfbfbf" points="305.5,-0.5 305.5,-19.5 409.5,-19.5 409.5,-0.5 305.5,-0.5"/>
<text text-anchor="middle" x="357.5" y="-7.5" font-family="Helvetica,sans-Serif" font-size="10.00">glm/gtc/type_ptr.hpp</text>
</a>
</g>
</g>
<!-- Node13&#45;&gt;Node14 -->
<g id="edge15" class="edge">
<title>Node13&#45;&gt;Node14</title>
<path fill="none" stroke="midnightblue" d="M357.5,-56.08C357.5,-49.01 357.5,-38.86 357.5,-29.99"/>
<polygon fill="midnightblue" stroke="midnightblue" points="361,-29.75 357.5,-19.75 354,-29.75 361,-29.75"/>
</g>
</g>
</svg>
