<?xml version="1.0" encoding="UTF-8" standalone="no"?>
<!DOCTYPE svg PUBLIC "-//W3C//DTD SVG 1.1//EN"
 "http://www.w3.org/Graphics/SVG/1.1/DTD/svg11.dtd">
<!-- Generated by graphviz version 2.47.0 (20210407.0042)
 -->
<!-- Title: include/graphics/ResourceManager.hpp Pages: 1 -->
<svg width="820pt" height="95pt"
 viewBox="0.00 0.00 819.50 95.00" xmlns="http://www.w3.org/2000/svg" xmlns:xlink="http://www.w3.org/1999/xlink">
<g id="graph0" class="graph" transform="scale(1 1) rotate(0) translate(4 91)">
<title>include/graphics/ResourceManager.hpp</title>
<polygon fill="white" stroke="transparent" points="-4,4 -4,-91 815.5,-91 815.5,4 -4,4"/>
<!-- Node1 -->
<g id="node1" class="node">
<title>Node1</title>
<g id="a_node1"><a xlink:title=" ">
<polygon fill="#bfbfbf" stroke="black" points="310,-56.5 310,-86.5 441,-86.5 441,-56.5 310,-56.5"/>
<text text-anchor="start" x="318" y="-74.5" font-family="Helvetica,sans-Serif" font-size="10.00">include/graphics/Resource</text>
<text text-anchor="middle" x="375.5" y="-63.5" font-family="Helvetica,sans-Serif" font-size="10.00">Manager.hpp</text>
</a>
</g>
</g>
<!-- Node2 -->
<g id="node2" class="node">
<title>Node2</title>
<g id="a_node2"><a xlink:href="_drawable_8cpp.html" target="_top" xlink:title=" ">
<polygon fill="white" stroke="black" points="0,-0.5 0,-19.5 123,-19.5 123,-0.5 0,-0.5"/>
<text text-anchor="middle" x="61.5" y="-7.5" font-family="Helvetica,sans-Serif" font-size="10.00">src/engine/Drawable.cpp</text>
</a>
</g>
</g>
<!-- Node1&#45;&gt;Node2 -->
<g id="edge1" class="edge">
<title>Node1&#45;&gt;Node2</title>
<path fill="none" stroke="midnightblue" d="M299.81,-56.16C239.42,-44.71 156.87,-29.07 106.47,-19.52"/>
<polygon fill="midnightblue" stroke="midnightblue" points="299.2,-59.6 309.68,-58.03 300.5,-52.73 299.2,-59.6"/>
</g>
<!-- Node3 -->
<g id="node3" class="node">
<title>Node3</title>
<g id="a_node3"><a xlink:href="_field_8cpp.html" target="_top" xlink:title=" ">
<polygon fill="white" stroke="black" points="141.5,-0.5 141.5,-19.5 245.5,-19.5 245.5,-0.5 141.5,-0.5"/>
<text text-anchor="middle" x="193.5" y="-7.5" font-family="Helvetica,sans-Serif" font-size="10.00">src/engine/Field.cpp</text>
</a>
</g>
</g>
<!-- Node1&#45;&gt;Node3 -->
<g id="edge2" class="edge">
<title>Node1&#45;&gt;Node3</title>
<path fill="none" stroke="midnightblue" d="M322.64,-53.22C288.85,-42.17 246.51,-28.33 219.72,-19.57"/>
<polygon fill="midnightblue" stroke="midnightblue" points="321.78,-56.62 332.37,-56.4 323.95,-49.97 321.78,-56.62"/>
</g>
<!-- Node4 -->
<g id="node4" class="node">
<title>Node4</title>
<g id="a_node4"><a xlink:href="_engine_8cpp.html" target="_top" xlink:title=" ">
<polygon fill="white" stroke="black" points="263.5,-0.5 263.5,-19.5 343.5,-19.5 343.5,-0.5 263.5,-0.5"/>
<text text-anchor="middle" x="303.5" y="-7.5" font-family="Helvetica,sans-Serif" font-size="10.00">src/Engine.cpp</text>
</a>
</g>
</g>
<!-- Node1&#45;&gt;Node4 -->
<g id="edge3" class="edge">
<title>Node1&#45;&gt;Node4</title>
<path fill="none" stroke="midnightblue" d="M350.56,-49.89C338.04,-39.54 323.54,-27.56 313.98,-19.66"/>
<polygon fill="midnightblue" stroke="midnightblue" points="348.5,-52.73 358.44,-56.4 352.96,-47.33 348.5,-52.73"/>
</g>
<!-- Node5 -->
<g id="node5" class="node">
<title>Node5</title>
<g id="a_node5"><a xlink:href="_event_handler_8cpp.html" target="_top" xlink:title=" ">
<polygon fill="white" stroke="black" points="362,-0.5 362,-19.5 533,-19.5 533,-0.5 362,-0.5"/>
<text text-anchor="middle" x="447.5" y="-7.5" font-family="Helvetica,sans-Serif" font-size="10.00">src/EventHandler/EventHandler.cpp</text>
</a>
</g>
</g>
<!-- Node1&#45;&gt;Node5 -->
<g id="edge4" class="edge">
<title>Node1&#45;&gt;Node5</title>
<path fill="none" stroke="midnightblue" d="M400.44,-49.89C412.96,-39.54 427.46,-27.56 437.02,-19.66"/>
<polygon fill="midnightblue" stroke="midnightblue" points="398.04,-47.33 392.56,-56.4 402.5,-52.73 398.04,-47.33"/>
</g>
<!-- Node6 -->
<g id="node6" class="node">
<title>Node6</title>
<g id="a_node6"><a xlink:href="_resource_manager_8cpp.html" target="_top" xlink:title=" ">
<polygon fill="white" stroke="black" points="551.5,-0.5 551.5,-19.5 721.5,-19.5 721.5,-0.5 551.5,-0.5"/>
<text text-anchor="middle" x="636.5" y="-7.5" font-family="Helvetica,sans-Serif" font-size="10.00">src/graphics/ResourceManager.cpp</text>
</a>
</g>
</g>
<!-- Node1&#45;&gt;Node6 -->
<g id="edge5" class="edge">
<title>Node1&#45;&gt;Node6</title>
<path fill="none" stroke="midnightblue" d="M446.98,-54.2C496.21,-42.98 559.64,-28.52 599.19,-19.51"/>
<polygon fill="midnightblue" stroke="midnightblue" points="445.99,-50.84 437.02,-56.47 447.55,-57.66 445.99,-50.84"/>
</g>
<!-- Node7 -->
<g id="node7" class="node">
<title>Node7</title>
<g id="a_node7"><a xlink:href="main_8cpp.html" target="_top" xlink:title=" ">
<polygon fill="white" stroke="black" points="739.5,-0.5 739.5,-19.5 811.5,-19.5 811.5,-0.5 739.5,-0.5"/>
<text text-anchor="middle" x="775.5" y="-7.5" font-family="Helvetica,sans-Serif" font-size="10.00">src/main.cpp</text>
</a>
</g>
</g>
<!-- Node1&#45;&gt;Node7 -->
<g id="edge6" class="edge">
<title>Node1&#45;&gt;Node7</title>
<path fill="none" stroke="midnightblue" d="M451.44,-60.95C523.45,-51.6 634.58,-36.4 730.5,-20 733.33,-19.52 736.25,-18.99 739.18,-18.45"/>
<polygon fill="midnightblue" stroke="midnightblue" points="450.57,-57.53 441.1,-62.29 451.47,-64.48 450.57,-57.53"/>
</g>
</g>
</svg>
