<?xml version="1.0" encoding="UTF-8" standalone="no"?>
<!DOCTYPE svg PUBLIC "-//W3C//DTD SVG 1.1//EN"
 "http://www.w3.org/Graphics/SVG/1.1/DTD/svg11.dtd">
<!-- Generated by graphviz version 2.47.1 (20210421.1823)
 -->
<!-- Title: include/graphics/ResourceManager.hpp Pages: 1 -->
<svg width="538pt" height="319pt"
 viewBox="0.00 0.00 538.00 319.00" xmlns="http://www.w3.org/2000/svg" xmlns:xlink="http://www.w3.org/1999/xlink">
<g id="graph0" class="graph" transform="scale(1 1) rotate(0) translate(4 315)">
<title>include/graphics/ResourceManager.hpp</title>
<polygon fill="white" stroke="transparent" points="-4,4 -4,-315 534,-315 534,4 -4,4"/>
<!-- Node1 -->
<g id="node1" class="node">
<title>Node1</title>
<g id="a_node1"><a xlink:title=" ">
<polygon fill="#bfbfbf" stroke="black" points="140,-280.5 140,-310.5 271,-310.5 271,-280.5 140,-280.5"/>
<text text-anchor="start" x="148" y="-298.5" font-family="Helvetica,sans-Serif" font-size="10.00">include/graphics/Resource</text>
<text text-anchor="middle" x="205.5" y="-287.5" font-family="Helvetica,sans-Serif" font-size="10.00">Manager.hpp</text>
</a>
</g>
</g>
<!-- Node2 -->
<g id="node2" class="node">
<title>Node2</title>
<g id="a_node2"><a xlink:title=" ">
<polygon fill="white" stroke="#bfbfbf" points="21,-224.5 21,-243.5 56,-243.5 56,-224.5 21,-224.5"/>
<text text-anchor="middle" x="38.5" y="-231.5" font-family="Helvetica,sans-Serif" font-size="10.00">map</text>
</a>
</g>
</g>
<!-- Node1&#45;&gt;Node2 -->
<g id="edge1" class="edge">
<title>Node1&#45;&gt;Node2</title>
<path fill="none" stroke="midnightblue" d="M165.92,-280.4C135.13,-269.43 93.21,-254.49 66,-244.8"/>
<polygon fill="midnightblue" stroke="midnightblue" points="66.94,-241.42 56.34,-241.36 64.59,-248.01 66.94,-241.42"/>
</g>
<!-- Node3 -->
<g id="node3" class="node">
<title>Node3</title>
<g id="a_node3"><a xlink:title=" ">
<polygon fill="white" stroke="#bfbfbf" points="57,-168.5 57,-187.5 98,-187.5 98,-168.5 57,-168.5"/>
<text text-anchor="middle" x="77.5" y="-175.5" font-family="Helvetica,sans-Serif" font-size="10.00">string</text>
</a>
</g>
</g>
<!-- Node1&#45;&gt;Node3 -->
<g id="edge2" class="edge">
<title>Node1&#45;&gt;Node3</title>
<path fill="none" stroke="midnightblue" d="M160.28,-280.4C140.68,-272.37 118.79,-260.55 103.5,-244 91.53,-231.04 84.77,-211.87 81.17,-197.71"/>
<polygon fill="midnightblue" stroke="midnightblue" points="84.51,-196.63 78.91,-187.63 77.68,-198.16 84.51,-196.63"/>
</g>
<!-- Node4 -->
<g id="node4" class="node">
<title>Node4</title>
<g id="a_node4"><a xlink:title=" ">
<polygon fill="white" stroke="#bfbfbf" points="313,-224.5 313,-243.5 364,-243.5 364,-224.5 313,-224.5"/>
<text text-anchor="middle" x="338.5" y="-231.5" font-family="Helvetica,sans-Serif" font-size="10.00">memory</text>
</a>
</g>
</g>
<!-- Node1&#45;&gt;Node4 -->
<g id="edge3" class="edge">
<title>Node1&#45;&gt;Node4</title>
<path fill="none" stroke="midnightblue" d="M237.02,-280.4C259.14,-270.51 288.47,-257.38 309.91,-247.79"/>
<polygon fill="midnightblue" stroke="midnightblue" points="311.45,-250.94 319.15,-243.66 308.59,-244.55 311.45,-250.94"/>
</g>
<!-- Node5 -->
<g id="node5" class="node">
<title>Node5</title>
<g id="a_node5"><a xlink:href="_shader_8hpp.html" target="_top" xlink:title=" ">
<polygon fill="white" stroke="black" points="113,-224.5 113,-243.5 218,-243.5 218,-224.5 113,-224.5"/>
<text text-anchor="middle" x="165.5" y="-231.5" font-family="Helvetica,sans-Serif" font-size="10.00">graphics/Shader.hpp</text>
</a>
</g>
</g>
<!-- Node1&#45;&gt;Node5 -->
<g id="edge4" class="edge">
<title>Node1&#45;&gt;Node5</title>
<path fill="none" stroke="midnightblue" d="M196.02,-280.4C190.33,-271.93 183.05,-261.1 177.02,-252.14"/>
<polygon fill="midnightblue" stroke="midnightblue" points="179.8,-250 171.32,-243.66 173.99,-253.91 179.8,-250"/>
</g>
<!-- Node6 -->
<g id="node6" class="node">
<title>Node6</title>
<g id="a_node6"><a xlink:href="_g_shape_8hpp.html" target="_top" xlink:title=" ">
<polygon fill="white" stroke="black" points="192.5,-168.5 192.5,-187.5 302.5,-187.5 302.5,-168.5 192.5,-168.5"/>
<text text-anchor="middle" x="247.5" y="-175.5" font-family="Helvetica,sans-Serif" font-size="10.00">graphics/GShape.hpp</text>
</a>
</g>
</g>
<!-- Node1&#45;&gt;Node6 -->
<g id="edge21" class="edge">
<title>Node1&#45;&gt;Node6</title>
<path fill="none" stroke="midnightblue" d="M212.29,-280.09C216.88,-270.08 222.92,-256.38 227.5,-244 233.27,-228.43 238.73,-210.35 242.49,-197.22"/>
<polygon fill="midnightblue" stroke="midnightblue" points="245.88,-198.09 245.21,-187.52 239.14,-196.2 245.88,-198.09"/>
</g>
<!-- Node16 -->
<g id="node16" class="node">
<title>Node16</title>
<g id="a_node16"><a xlink:href="_event_handler_8hpp.html" target="_top" xlink:title=" ">
<polygon fill="white" stroke="black" points="321,-168.5 321,-187.5 476,-187.5 476,-168.5 321,-168.5"/>
<text text-anchor="middle" x="398.5" y="-175.5" font-family="Helvetica,sans-Serif" font-size="10.00">EventHandler/EventHandler.hpp</text>
</a>
</g>
</g>
<!-- Node1&#45;&gt;Node16 -->
<g id="edge22" class="edge">
<title>Node1&#45;&gt;Node16</title>
<path fill="none" stroke="midnightblue" d="M223.47,-280.26C242.84,-265.27 274.87,-241.47 304.5,-224 325.34,-211.72 350.05,-199.99 368.9,-191.59"/>
<polygon fill="midnightblue" stroke="midnightblue" points="370.43,-194.74 378.18,-187.51 367.62,-188.33 370.43,-194.74"/>
</g>
<!-- Node5&#45;&gt;Node3 -->
<g id="edge5" class="edge">
<title>Node5&#45;&gt;Node3</title>
<path fill="none" stroke="midnightblue" d="M151.36,-224.32C137.63,-215.9 116.56,-202.97 100.44,-193.07"/>
<polygon fill="midnightblue" stroke="midnightblue" points="101.96,-189.9 91.6,-187.65 98.3,-195.87 101.96,-189.9"/>
</g>
<!-- Node5&#45;&gt;Node6 -->
<g id="edge6" class="edge">
<title>Node5&#45;&gt;Node6</title>
<path fill="none" stroke="midnightblue" d="M173.56,-224.32C184.63,-215.82 204.23,-202.73 220.57,-192.8"/>
<polygon fill="midnightblue" stroke="midnightblue" points="222.43,-195.77 229.25,-187.65 218.86,-189.74 222.43,-195.77"/>
</g>
<!-- Node12 -->
<g id="node12" class="node">
<title>Node12</title>
<g id="a_node12"><a xlink:href="_transform_8hpp.html" target="_top" xlink:title=" ">
<polygon fill="white" stroke="black" points="0,-56.5 0,-75.5 119,-75.5 119,-56.5 0,-56.5"/>
<text text-anchor="middle" x="59.5" y="-63.5" font-family="Helvetica,sans-Serif" font-size="10.00">graphics/Transform.hpp</text>
</a>
</g>
</g>
<!-- Node5&#45;&gt;Node12 -->
<g id="edge20" class="edge">
<title>Node5&#45;&gt;Node12</title>
<path fill="none" stroke="midnightblue" d="M159.8,-224.08C142.9,-197.61 92.84,-119.21 70.49,-84.21"/>
<polygon fill="midnightblue" stroke="midnightblue" points="73.3,-82.11 64.97,-75.57 67.4,-85.88 73.3,-82.11"/>
</g>
<!-- Node6&#45;&gt;Node5 -->
<g id="edge15" class="edge">
<title>Node6&#45;&gt;Node5</title>
<path fill="none" stroke="midnightblue" d="M239.23,-187.83C228.13,-196.34 208.66,-209.34 192.41,-219.21"/>
<polygon fill="midnightblue" stroke="midnightblue" points="190.61,-216.21 183.79,-224.32 194.18,-222.23 190.61,-216.21"/>
</g>
<!-- Node7 -->
<g id="node7" class="node">
<title>Node7</title>
<g id="a_node7"><a xlink:href="_window_8hpp.html" target="_top" xlink:title=" ">
<polygon fill="white" stroke="black" points="196,-112.5 196,-131.5 305,-131.5 305,-112.5 196,-112.5"/>
<text text-anchor="middle" x="250.5" y="-119.5" font-family="Helvetica,sans-Serif" font-size="10.00">graphics/Window.hpp</text>
</a>
</g>
</g>
<!-- Node6&#45;&gt;Node7 -->
<g id="edge7" class="edge">
<title>Node6&#45;&gt;Node7</title>
<path fill="none" stroke="midnightblue" d="M248,-168.08C248.39,-161.01 248.95,-150.86 249.45,-141.99"/>
<polygon fill="midnightblue" stroke="midnightblue" points="252.95,-141.93 250.01,-131.75 245.96,-141.54 252.95,-141.93"/>
</g>
<!-- Node6&#45;&gt;Node12 -->
<g id="edge16" class="edge">
<title>Node6&#45;&gt;Node12</title>
<path fill="none" stroke="midnightblue" d="M233.75,-168.41C213.48,-155.81 174.33,-131.66 140.5,-112 121.78,-101.12 100.36,-89.24 84.25,-80.42"/>
<polygon fill="midnightblue" stroke="midnightblue" points="85.89,-77.33 75.43,-75.61 82.54,-83.48 85.89,-77.33"/>
</g>
<!-- Node14 -->
<g id="node14" class="node">
<title>Node14</title>
<g id="a_node14"><a xlink:href="_vector2_d_8hpp.html" target="_top" xlink:title=" ">
<polygon fill="white" stroke="black" points="340.5,-112.5 340.5,-131.5 452.5,-131.5 452.5,-112.5 340.5,-112.5"/>
<text text-anchor="middle" x="396.5" y="-119.5" font-family="Helvetica,sans-Serif" font-size="10.00">Helpers/Vector2D.hpp</text>
</a>
</g>
</g>
<!-- Node6&#45;&gt;Node14 -->
<g id="edge17" class="edge">
<title>Node6&#45;&gt;Node14</title>
<path fill="none" stroke="midnightblue" d="M271.11,-168.44C295.96,-159.44 335.27,-145.19 363.25,-135.05"/>
<polygon fill="midnightblue" stroke="midnightblue" points="364.79,-138.21 373,-131.52 362.41,-131.63 364.79,-138.21"/>
</g>
<!-- Node7&#45;&gt;Node5 -->
<g id="edge12" class="edge">
<title>Node7&#45;&gt;Node5</title>
<path fill="none" stroke="midnightblue" d="M230.65,-131.59C215.58,-139.1 195.47,-151.41 183.5,-168 173.76,-181.5 169.29,-200.06 167.24,-213.89"/>
<polygon fill="midnightblue" stroke="midnightblue" points="163.72,-213.84 166.02,-224.18 170.67,-214.66 163.72,-213.84"/>
</g>
<!-- Node8 -->
<g id="node8" class="node">
<title>Node8</title>
<g id="a_node8"><a xlink:title=" ">
<polygon fill="white" stroke="#bfbfbf" points="296,-56.5 296,-75.5 359,-75.5 359,-56.5 296,-56.5"/>
<text text-anchor="middle" x="327.5" y="-63.5" font-family="Helvetica,sans-Serif" font-size="10.00">glad/glad.h</text>
</a>
</g>
</g>
<!-- Node7&#45;&gt;Node8 -->
<g id="edge8" class="edge">
<title>Node7&#45;&gt;Node8</title>
<path fill="none" stroke="midnightblue" d="M262.87,-112.32C274.66,-104.06 292.63,-91.45 306.64,-81.63"/>
<polygon fill="midnightblue" stroke="midnightblue" points="308.98,-84.26 315.16,-75.65 304.96,-78.53 308.98,-84.26"/>
</g>
<!-- Node9 -->
<g id="node9" class="node">
<title>Node9</title>
<g id="a_node9"><a xlink:title=" ">
<polygon fill="white" stroke="#bfbfbf" points="137,-56.5 137,-75.5 216,-75.5 216,-56.5 137,-56.5"/>
<text text-anchor="middle" x="176.5" y="-63.5" font-family="Helvetica,sans-Serif" font-size="10.00">GLFW/glfw3.h</text>
</a>
</g>
</g>
<!-- Node7&#45;&gt;Node9 -->
<g id="edge9" class="edge">
<title>Node7&#45;&gt;Node9</title>
<path fill="none" stroke="midnightblue" d="M238.61,-112.32C227.35,-104.11 210.21,-91.6 196.79,-81.81"/>
<polygon fill="midnightblue" stroke="midnightblue" points="198.75,-78.9 188.61,-75.83 194.62,-84.56 198.75,-78.9"/>
</g>
<!-- Node10 -->
<g id="node10" class="node">
<title>Node10</title>
<g id="a_node10"><a xlink:title=" ">
<polygon fill="white" stroke="#bfbfbf" points="377,-56.5 377,-75.5 416,-75.5 416,-56.5 377,-56.5"/>
<text text-anchor="middle" x="396.5" y="-63.5" font-family="Helvetica,sans-Serif" font-size="10.00">utility</text>
</a>
</g>
</g>
<!-- Node7&#45;&gt;Node10 -->
<g id="edge10" class="edge">
<title>Node7&#45;&gt;Node10</title>
<path fill="none" stroke="midnightblue" d="M273.63,-112.44C298.98,-103.07 339.7,-88.01 367.25,-77.82"/>
<polygon fill="midnightblue" stroke="midnightblue" points="368.59,-81.06 376.75,-74.3 366.16,-74.49 368.59,-81.06"/>
</g>
<!-- Node11 -->
<g id="node11" class="node">
<title>Node11</title>
<g id="a_node11"><a xlink:title=" ">
<polygon fill="white" stroke="#bfbfbf" points="233.5,-56.5 233.5,-75.5 277.5,-75.5 277.5,-56.5 233.5,-56.5"/>
<text text-anchor="middle" x="255.5" y="-63.5" font-family="Helvetica,sans-Serif" font-size="10.00">vector</text>
</a>
</g>
</g>
<!-- Node7&#45;&gt;Node11 -->
<g id="edge11" class="edge">
<title>Node7&#45;&gt;Node11</title>
<path fill="none" stroke="midnightblue" d="M251.33,-112.08C251.98,-105.01 252.92,-94.86 253.74,-85.99"/>
<polygon fill="midnightblue" stroke="midnightblue" points="257.25,-86.03 254.69,-75.75 250.28,-85.39 257.25,-86.03"/>
</g>
<!-- Node7&#45;&gt;Node12 -->
<g id="edge13" class="edge">
<title>Node7&#45;&gt;Node12</title>
<path fill="none" stroke="midnightblue" d="M220.24,-112.44C187.54,-103.2 135.32,-88.44 99.32,-78.26"/>
<polygon fill="midnightblue" stroke="midnightblue" points="100.2,-74.87 89.62,-75.52 98.29,-81.61 100.2,-74.87"/>
</g>
<!-- Node13 -->
<g id="node13" class="node">
<title>Node13</title>
<g id="a_node13"><a xlink:title=" ">
<polygon fill="white" stroke="#bfbfbf" points="7.5,-0.5 7.5,-19.5 111.5,-19.5 111.5,-0.5 7.5,-0.5"/>
<text text-anchor="middle" x="59.5" y="-7.5" font-family="Helvetica,sans-Serif" font-size="10.00">glm/gtc/type_ptr.hpp</text>
</a>
</g>
</g>
<!-- Node12&#45;&gt;Node13 -->
<g id="edge14" class="edge">
<title>Node12&#45;&gt;Node13</title>
<path fill="none" stroke="midnightblue" d="M59.5,-56.08C59.5,-49.01 59.5,-38.86 59.5,-29.99"/>
<polygon fill="midnightblue" stroke="midnightblue" points="63,-29.75 59.5,-19.75 56,-29.75 63,-29.75"/>
</g>
<!-- Node14&#45;&gt;Node10 -->
<g id="edge18" class="edge">
<title>Node14&#45;&gt;Node10</title>
<path fill="none" stroke="midnightblue" d="M396.5,-112.08C396.5,-105.01 396.5,-94.86 396.5,-85.99"/>
<polygon fill="midnightblue" stroke="midnightblue" points="400,-85.75 396.5,-75.75 393,-85.75 400,-85.75"/>
</g>
<!-- Node15 -->
<g id="node15" class="node">
<title>Node15</title>
<g id="a_node15"><a xlink:title=" ">
<polygon fill="white" stroke="#bfbfbf" points="434.5,-56.5 434.5,-75.5 478.5,-75.5 478.5,-56.5 434.5,-56.5"/>
<text text-anchor="middle" x="456.5" y="-63.5" font-family="Helvetica,sans-Serif" font-size="10.00">cmath</text>
</a>
</g>
</g>
<!-- Node14&#45;&gt;Node15 -->
<g id="edge19" class="edge">
<title>Node14&#45;&gt;Node15</title>
<path fill="none" stroke="midnightblue" d="M406.14,-112.32C415.01,-104.34 428.37,-92.31 439.11,-82.65"/>
<polygon fill="midnightblue" stroke="midnightblue" points="441.59,-85.13 446.68,-75.83 436.91,-79.92 441.59,-85.13"/>
</g>
<!-- Node16&#45;&gt;Node7 -->
<g id="edge24" class="edge">
<title>Node16&#45;&gt;Node7</title>
<path fill="none" stroke="midnightblue" d="M375.05,-168.44C350.37,-159.44 311.31,-145.19 283.52,-135.05"/>
<polygon fill="midnightblue" stroke="midnightblue" points="284.44,-131.66 273.84,-131.52 282.04,-138.23 284.44,-131.66"/>
</g>
<!-- Node16&#45;&gt;Node14 -->
<g id="edge25" class="edge">
<title>Node16&#45;&gt;Node14</title>
<path fill="none" stroke="midnightblue" d="M398.17,-168.08C397.91,-161.01 397.53,-150.86 397.2,-141.99"/>
<polygon fill="midnightblue" stroke="midnightblue" points="400.69,-141.61 396.82,-131.75 393.7,-141.87 400.69,-141.61"/>
</g>
<!-- Node17 -->
<g id="node17" class="node">
<title>Node17</title>
<g id="a_node17"><a xlink:title=" ">
<polygon fill="white" stroke="#bfbfbf" points="471,-112.5 471,-131.5 530,-131.5 530,-112.5 471,-112.5"/>
<text text-anchor="middle" x="500.5" y="-119.5" font-family="Helvetica,sans-Serif" font-size="10.00">functional</text>
</a>
</g>
</g>
<!-- Node16&#45;&gt;Node17 -->
<g id="edge23" class="edge">
<title>Node16&#45;&gt;Node17</title>
<path fill="none" stroke="midnightblue" d="M414.89,-168.32C431.17,-159.7 456.37,-146.36 475.22,-136.39"/>
<polygon fill="midnightblue" stroke="midnightblue" points="476.95,-139.43 484.15,-131.65 473.68,-133.24 476.95,-139.43"/>
</g>
</g>
</svg>
