<?xml version="1.0" encoding="UTF-8" standalone="no"?>
<!DOCTYPE svg PUBLIC "-//W3C//DTD SVG 1.1//EN"
 "http://www.w3.org/Graphics/SVG/1.1/DTD/svg11.dtd">
<!-- Generated by graphviz version 2.47.0 (20210407.0042)
 -->
<!-- Title: include/graphics/ResourceManager.hpp Pages: 1 -->
<svg width="449pt" height="319pt"
 viewBox="0.00 0.00 449.00 319.00" xmlns="http://www.w3.org/2000/svg" xmlns:xlink="http://www.w3.org/1999/xlink">
<g id="graph0" class="graph" transform="scale(1 1) rotate(0) translate(4 315)">
<title>include/graphics/ResourceManager.hpp</title>
<polygon fill="white" stroke="transparent" points="-4,4 -4,-315 445,-315 445,4 -4,4"/>
<!-- Node1 -->
<g id="node1" class="node">
<title>Node1</title>
<g id="a_node1"><a xlink:title=" ">
<polygon fill="#bfbfbf" stroke="black" points="215,-280.5 215,-310.5 346,-310.5 346,-280.5 215,-280.5"/>
<text text-anchor="start" x="223" y="-298.5" font-family="Helvetica,sans-Serif" font-size="10.00">include/graphics/Resource</text>
<text text-anchor="middle" x="280.5" y="-287.5" font-family="Helvetica,sans-Serif" font-size="10.00">Manager.hpp</text>
</a>
</g>
</g>
<!-- Node2 -->
<g id="node2" class="node">
<title>Node2</title>
<g id="a_node2"><a xlink:title=" ">
<polygon fill="white" stroke="#bfbfbf" points="136,-224.5 136,-243.5 171,-243.5 171,-224.5 136,-224.5"/>
<text text-anchor="middle" x="153.5" y="-231.5" font-family="Helvetica,sans-Serif" font-size="10.00">map</text>
</a>
</g>
</g>
<!-- Node1&#45;&gt;Node2 -->
<g id="edge1" class="edge">
<title>Node1&#45;&gt;Node2</title>
<path fill="none" stroke="midnightblue" d="M250.4,-280.4C229.13,-270.43 200.86,-257.19 180.34,-247.58"/>
<polygon fill="midnightblue" stroke="midnightblue" points="181.78,-244.39 171.24,-243.31 178.81,-250.72 181.78,-244.39"/>
</g>
<!-- Node3 -->
<g id="node3" class="node">
<title>Node3</title>
<g id="a_node3"><a xlink:title=" ">
<polygon fill="white" stroke="#bfbfbf" points="173,-168.5 173,-187.5 214,-187.5 214,-168.5 173,-168.5"/>
<text text-anchor="middle" x="193.5" y="-175.5" font-family="Helvetica,sans-Serif" font-size="10.00">string</text>
</a>
</g>
</g>
<!-- Node1&#45;&gt;Node3 -->
<g id="edge2" class="edge">
<title>Node1&#45;&gt;Node3</title>
<path fill="none" stroke="midnightblue" d="M258.37,-280.34C245.59,-271.24 230.03,-258.44 219.5,-244 209.22,-229.9 202.29,-211.16 198.19,-197.43"/>
<polygon fill="midnightblue" stroke="midnightblue" points="201.53,-196.38 195.5,-187.67 194.78,-198.24 201.53,-196.38"/>
</g>
<!-- Node4 -->
<g id="node4" class="node">
<title>Node4</title>
<g id="a_node4"><a xlink:title=" ">
<polygon fill="white" stroke="#bfbfbf" points="390,-224.5 390,-243.5 441,-243.5 441,-224.5 390,-224.5"/>
<text text-anchor="middle" x="415.5" y="-231.5" font-family="Helvetica,sans-Serif" font-size="10.00">memory</text>
</a>
</g>
</g>
<!-- Node1&#45;&gt;Node4 -->
<g id="edge3" class="edge">
<title>Node1&#45;&gt;Node4</title>
<path fill="none" stroke="midnightblue" d="M312.49,-280.4C334.94,-270.51 364.71,-257.38 386.48,-247.79"/>
<polygon fill="midnightblue" stroke="midnightblue" points="388.12,-250.89 395.86,-243.66 385.29,-244.49 388.12,-250.89"/>
</g>
<!-- Node5 -->
<g id="node5" class="node">
<title>Node5</title>
<g id="a_node5"><a xlink:href="_shader_8hpp.html" target="_top" xlink:title=" ">
<polygon fill="white" stroke="black" points="228,-224.5 228,-243.5 333,-243.5 333,-224.5 228,-224.5"/>
<text text-anchor="middle" x="280.5" y="-231.5" font-family="Helvetica,sans-Serif" font-size="10.00">graphics/Shader.hpp</text>
</a>
</g>
</g>
<!-- Node1&#45;&gt;Node5 -->
<g id="edge4" class="edge">
<title>Node1&#45;&gt;Node5</title>
<path fill="none" stroke="midnightblue" d="M280.5,-280.4C280.5,-272.47 280.5,-262.46 280.5,-253.86"/>
<polygon fill="midnightblue" stroke="midnightblue" points="284,-253.66 280.5,-243.66 277,-253.66 284,-253.66"/>
</g>
<!-- Node6 -->
<g id="node6" class="node">
<title>Node6</title>
<g id="a_node6"><a xlink:href="_g_shape_8hpp.html" target="_top" xlink:title=" ">
<polygon fill="white" stroke="black" points="308.5,-168.5 308.5,-187.5 418.5,-187.5 418.5,-168.5 308.5,-168.5"/>
<text text-anchor="middle" x="363.5" y="-175.5" font-family="Helvetica,sans-Serif" font-size="10.00">graphics/GShape.hpp</text>
</a>
</g>
</g>
<!-- Node1&#45;&gt;Node6 -->
<g id="edge18" class="edge">
<title>Node1&#45;&gt;Node6</title>
<path fill="none" stroke="midnightblue" d="M303.67,-280.46C316.73,-271.49 332.39,-258.78 342.5,-244 352.02,-230.08 357.44,-211.57 360.38,-197.87"/>
<polygon fill="midnightblue" stroke="midnightblue" points="363.89,-198.16 362.3,-187.69 357.01,-196.87 363.89,-198.16"/>
</g>
<!-- Node5&#45;&gt;Node3 -->
<g id="edge5" class="edge">
<title>Node5&#45;&gt;Node3</title>
<path fill="none" stroke="midnightblue" d="M266.52,-224.32C252.95,-215.9 232.12,-202.97 216.18,-193.07"/>
<polygon fill="midnightblue" stroke="midnightblue" points="217.79,-189.95 207.44,-187.65 214.09,-195.9 217.79,-189.95"/>
</g>
<!-- Node5&#45;&gt;Node6 -->
<g id="edge6" class="edge">
<title>Node5&#45;&gt;Node6</title>
<path fill="none" stroke="midnightblue" d="M288.72,-224.32C299.95,-215.82 319.79,-202.73 336.32,-192.8"/>
<polygon fill="midnightblue" stroke="midnightblue" points="338.23,-195.73 345.09,-187.65 334.69,-189.69 338.23,-195.73"/>
</g>
<!-- Node12 -->
<g id="node12" class="node">
<title>Node12</title>
<g id="a_node12"><a xlink:href="_transform_8hpp.html" target="_top" xlink:title=" ">
<polygon fill="white" stroke="black" points="298,-56.5 298,-75.5 417,-75.5 417,-56.5 298,-56.5"/>
<text text-anchor="middle" x="357.5" y="-63.5" font-family="Helvetica,sans-Serif" font-size="10.00">graphics/Transform.hpp</text>
</a>
</g>
</g>
<!-- Node5&#45;&gt;Node12 -->
<g id="edge17" class="edge">
<title>Node5&#45;&gt;Node12</title>
<path fill="none" stroke="midnightblue" d="M282.34,-224.36C285.18,-211.69 291.2,-187.47 299.5,-168 312.72,-136.99 333.32,-103.53 346.08,-83.97"/>
<polygon fill="midnightblue" stroke="midnightblue" points="349.05,-85.82 351.65,-75.55 343.21,-81.96 349.05,-85.82"/>
</g>
<!-- Node6&#45;&gt;Node5 -->
<g id="edge15" class="edge">
<title>Node6&#45;&gt;Node5</title>
<path fill="none" stroke="midnightblue" d="M355.07,-187.83C343.8,-196.34 324.1,-209.34 307.67,-219.21"/>
<polygon fill="midnightblue" stroke="midnightblue" points="305.81,-216.25 298.95,-224.32 309.35,-222.28 305.81,-216.25"/>
</g>
<!-- Node7 -->
<g id="node7" class="node">
<title>Node7</title>
<g id="a_node7"><a xlink:href="_window_8hpp.html" target="_top" xlink:title=" ">
<polygon fill="white" stroke="black" points="143,-112.5 143,-131.5 252,-131.5 252,-112.5 143,-112.5"/>
<text text-anchor="middle" x="197.5" y="-119.5" font-family="Helvetica,sans-Serif" font-size="10.00">graphics/Window.hpp</text>
</a>
</g>
</g>
<!-- Node6&#45;&gt;Node7 -->
<g id="edge7" class="edge">
<title>Node6&#45;&gt;Node7</title>
<path fill="none" stroke="midnightblue" d="M337.2,-168.44C309.15,-159.32 264.56,-144.81 233.32,-134.65"/>
<polygon fill="midnightblue" stroke="midnightblue" points="234.27,-131.28 223.68,-131.52 232.11,-137.94 234.27,-131.28"/>
</g>
<!-- Node6&#45;&gt;Node12 -->
<g id="edge16" class="edge">
<title>Node6&#45;&gt;Node12</title>
<path fill="none" stroke="midnightblue" d="M363.03,-168.37C362.06,-150.62 359.83,-109.67 358.51,-85.6"/>
<polygon fill="midnightblue" stroke="midnightblue" points="362.01,-85.39 357.97,-75.59 355.02,-85.77 362.01,-85.39"/>
</g>
<!-- Node7&#45;&gt;Node5 -->
<g id="edge12" class="edge">
<title>Node7&#45;&gt;Node5</title>
<path fill="none" stroke="midnightblue" d="M203.98,-131.59C217.71,-149.79 249.94,-192.49 267.88,-216.27"/>
<polygon fill="midnightblue" stroke="midnightblue" points="265.17,-218.49 273.99,-224.37 270.76,-214.28 265.17,-218.49"/>
</g>
<!-- Node8 -->
<g id="node8" class="node">
<title>Node8</title>
<g id="a_node8"><a xlink:title=" ">
<polygon fill="white" stroke="#bfbfbf" points="0,-56.5 0,-75.5 63,-75.5 63,-56.5 0,-56.5"/>
<text text-anchor="middle" x="31.5" y="-63.5" font-family="Helvetica,sans-Serif" font-size="10.00">glad/glad.h</text>
</a>
</g>
</g>
<!-- Node7&#45;&gt;Node8 -->
<g id="edge8" class="edge">
<title>Node7&#45;&gt;Node8</title>
<path fill="none" stroke="midnightblue" d="M171.2,-112.44C143.15,-103.32 98.56,-88.81 67.32,-78.65"/>
<polygon fill="midnightblue" stroke="midnightblue" points="68.27,-75.28 57.68,-75.52 66.11,-81.94 68.27,-75.28"/>
</g>
<!-- Node9 -->
<g id="node9" class="node">
<title>Node9</title>
<g id="a_node9"><a xlink:title=" ">
<polygon fill="white" stroke="#bfbfbf" points="81,-56.5 81,-75.5 160,-75.5 160,-56.5 81,-56.5"/>
<text text-anchor="middle" x="120.5" y="-63.5" font-family="Helvetica,sans-Serif" font-size="10.00">GLFW/glfw3.h</text>
</a>
</g>
</g>
<!-- Node7&#45;&gt;Node9 -->
<g id="edge9" class="edge">
<title>Node7&#45;&gt;Node9</title>
<path fill="none" stroke="midnightblue" d="M185.13,-112.32C173.34,-104.06 155.37,-91.45 141.36,-81.63"/>
<polygon fill="midnightblue" stroke="midnightblue" points="143.04,-78.53 132.84,-75.65 139.02,-84.26 143.04,-78.53"/>
</g>
<!-- Node10 -->
<g id="node10" class="node">
<title>Node10</title>
<g id="a_node10"><a xlink:title=" ">
<polygon fill="white" stroke="#bfbfbf" points="178,-56.5 178,-75.5 217,-75.5 217,-56.5 178,-56.5"/>
<text text-anchor="middle" x="197.5" y="-63.5" font-family="Helvetica,sans-Serif" font-size="10.00">utility</text>
</a>
</g>
</g>
<!-- Node7&#45;&gt;Node10 -->
<g id="edge10" class="edge">
<title>Node7&#45;&gt;Node10</title>
<path fill="none" stroke="midnightblue" d="M197.5,-112.08C197.5,-105.01 197.5,-94.86 197.5,-85.99"/>
<polygon fill="midnightblue" stroke="midnightblue" points="201,-85.75 197.5,-75.75 194,-85.75 201,-85.75"/>
</g>
<!-- Node11 -->
<g id="node11" class="node">
<title>Node11</title>
<g id="a_node11"><a xlink:title=" ">
<polygon fill="white" stroke="#bfbfbf" points="235.5,-56.5 235.5,-75.5 279.5,-75.5 279.5,-56.5 235.5,-56.5"/>
<text text-anchor="middle" x="257.5" y="-63.5" font-family="Helvetica,sans-Serif" font-size="10.00">vector</text>
</a>
</g>
</g>
<!-- Node7&#45;&gt;Node11 -->
<g id="edge11" class="edge">
<title>Node7&#45;&gt;Node11</title>
<path fill="none" stroke="midnightblue" d="M207.14,-112.32C216.01,-104.34 229.37,-92.31 240.11,-82.65"/>
<polygon fill="midnightblue" stroke="midnightblue" points="242.59,-85.13 247.68,-75.83 237.91,-79.92 242.59,-85.13"/>
</g>
<!-- Node7&#45;&gt;Node12 -->
<g id="edge13" class="edge">
<title>Node7&#45;&gt;Node12</title>
<path fill="none" stroke="midnightblue" d="M222.85,-112.44C249.77,-103.36 292.5,-88.94 322.59,-78.78"/>
<polygon fill="midnightblue" stroke="midnightblue" points="323.91,-82.03 332.27,-75.52 321.67,-75.4 323.91,-82.03"/>
</g>
<!-- Node13 -->
<g id="node13" class="node">
<title>Node13</title>
<g id="a_node13"><a xlink:title=" ">
<polygon fill="white" stroke="#bfbfbf" points="305.5,-0.5 305.5,-19.5 409.5,-19.5 409.5,-0.5 305.5,-0.5"/>
<text text-anchor="middle" x="357.5" y="-7.5" font-family="Helvetica,sans-Serif" font-size="10.00">glm/gtc/type_ptr.hpp</text>
</a>
</g>
</g>
<!-- Node12&#45;&gt;Node13 -->
<g id="edge14" class="edge">
<title>Node12&#45;&gt;Node13</title>
<path fill="none" stroke="midnightblue" d="M357.5,-56.08C357.5,-49.01 357.5,-38.86 357.5,-29.99"/>
<polygon fill="midnightblue" stroke="midnightblue" points="361,-29.75 357.5,-19.75 354,-29.75 361,-29.75"/>
</g>
</g>
</svg>
