<?xml version="1.0" encoding="UTF-8" standalone="no"?>
<!DOCTYPE svg PUBLIC "-//W3C//DTD SVG 1.1//EN"
 "http://www.w3.org/Graphics/SVG/1.1/DTD/svg11.dtd">
<!-- Generated by graphviz version 2.47.0 (20210407.0042)
 -->
<!-- Title: include/graphics/ResourceManager.hpp Pages: 1 -->
<svg width="507pt" height="319pt"
 viewBox="0.00 0.00 506.50 319.00" xmlns="http://www.w3.org/2000/svg" xmlns:xlink="http://www.w3.org/1999/xlink">
<g id="graph0" class="graph" transform="scale(1 1) rotate(0) translate(4 315)">
<title>include/graphics/ResourceManager.hpp</title>
<polygon fill="white" stroke="transparent" points="-4,4 -4,-315 502.5,-315 502.5,4 -4,4"/>
<!-- Node1 -->
<g id="node1" class="node">
<title>Node1</title>
<g id="a_node1"><a xlink:title=" ">
<polygon fill="#bfbfbf" stroke="black" points="119,-280.5 119,-310.5 250,-310.5 250,-280.5 119,-280.5"/>
<text text-anchor="start" x="127" y="-298.5" font-family="Helvetica,sans-Serif" font-size="10.00">include/graphics/Resource</text>
<text text-anchor="middle" x="184.5" y="-287.5" font-family="Helvetica,sans-Serif" font-size="10.00">Manager.hpp</text>
</a>
</g>
</g>
<!-- Node2 -->
<g id="node2" class="node">
<title>Node2</title>
<g id="a_node2"><a xlink:title=" ">
<polygon fill="white" stroke="#bfbfbf" points="0,-224.5 0,-243.5 35,-243.5 35,-224.5 0,-224.5"/>
<text text-anchor="middle" x="17.5" y="-231.5" font-family="Helvetica,sans-Serif" font-size="10.00">map</text>
</a>
</g>
</g>
<!-- Node1&#45;&gt;Node2 -->
<g id="edge1" class="edge">
<title>Node1&#45;&gt;Node2</title>
<path fill="none" stroke="midnightblue" d="M144.92,-280.4C114.13,-269.43 72.21,-254.49 45,-244.8"/>
<polygon fill="midnightblue" stroke="midnightblue" points="45.94,-241.42 35.34,-241.36 43.59,-248.01 45.94,-241.42"/>
</g>
<!-- Node3 -->
<g id="node3" class="node">
<title>Node3</title>
<g id="a_node3"><a xlink:title=" ">
<polygon fill="white" stroke="#bfbfbf" points="36,-168.5 36,-187.5 77,-187.5 77,-168.5 36,-168.5"/>
<text text-anchor="middle" x="56.5" y="-175.5" font-family="Helvetica,sans-Serif" font-size="10.00">string</text>
</a>
</g>
</g>
<!-- Node1&#45;&gt;Node3 -->
<g id="edge2" class="edge">
<title>Node1&#45;&gt;Node3</title>
<path fill="none" stroke="midnightblue" d="M139.28,-280.4C119.68,-272.37 97.79,-260.55 82.5,-244 70.53,-231.04 63.77,-211.87 60.17,-197.71"/>
<polygon fill="midnightblue" stroke="midnightblue" points="63.51,-196.63 57.91,-187.63 56.68,-198.16 63.51,-196.63"/>
</g>
<!-- Node4 -->
<g id="node4" class="node">
<title>Node4</title>
<g id="a_node4"><a xlink:title=" ">
<polygon fill="white" stroke="#bfbfbf" points="292,-224.5 292,-243.5 343,-243.5 343,-224.5 292,-224.5"/>
<text text-anchor="middle" x="317.5" y="-231.5" font-family="Helvetica,sans-Serif" font-size="10.00">memory</text>
</a>
</g>
</g>
<!-- Node1&#45;&gt;Node4 -->
<g id="edge3" class="edge">
<title>Node1&#45;&gt;Node4</title>
<path fill="none" stroke="midnightblue" d="M216.02,-280.4C238.14,-270.51 267.47,-257.38 288.91,-247.79"/>
<polygon fill="midnightblue" stroke="midnightblue" points="290.45,-250.94 298.15,-243.66 287.59,-244.55 290.45,-250.94"/>
</g>
<!-- Node5 -->
<g id="node5" class="node">
<title>Node5</title>
<g id="a_node5"><a xlink:href="_shader_8hpp.html" target="_top" xlink:title=" ">
<polygon fill="white" stroke="black" points="92,-224.5 92,-243.5 197,-243.5 197,-224.5 92,-224.5"/>
<text text-anchor="middle" x="144.5" y="-231.5" font-family="Helvetica,sans-Serif" font-size="10.00">graphics/Shader.hpp</text>
</a>
</g>
</g>
<!-- Node1&#45;&gt;Node5 -->
<g id="edge4" class="edge">
<title>Node1&#45;&gt;Node5</title>
<path fill="none" stroke="midnightblue" d="M175.02,-280.4C169.33,-271.93 162.05,-261.1 156.02,-252.14"/>
<polygon fill="midnightblue" stroke="midnightblue" points="158.8,-250 150.32,-243.66 152.99,-253.91 158.8,-250"/>
</g>
<!-- Node6 -->
<g id="node6" class="node">
<title>Node6</title>
<g id="a_node6"><a xlink:href="_g_shape_8hpp.html" target="_top" xlink:title=" ">
<polygon fill="white" stroke="black" points="171.5,-168.5 171.5,-187.5 281.5,-187.5 281.5,-168.5 171.5,-168.5"/>
<text text-anchor="middle" x="226.5" y="-175.5" font-family="Helvetica,sans-Serif" font-size="10.00">graphics/GShape.hpp</text>
</a>
</g>
</g>
<!-- Node1&#45;&gt;Node6 -->
<g id="edge18" class="edge">
<title>Node1&#45;&gt;Node6</title>
<path fill="none" stroke="midnightblue" d="M191.29,-280.09C195.88,-270.08 201.92,-256.38 206.5,-244 212.27,-228.43 217.73,-210.35 221.49,-197.22"/>
<polygon fill="midnightblue" stroke="midnightblue" points="224.88,-198.09 224.21,-187.52 218.14,-196.2 224.88,-198.09"/>
</g>
<!-- Node14 -->
<g id="node14" class="node">
<title>Node14</title>
<g id="a_node14"><a xlink:href="_event_handler_8hpp.html" target="_top" xlink:title=" ">
<polygon fill="white" stroke="black" points="300,-168.5 300,-187.5 455,-187.5 455,-168.5 300,-168.5"/>
<text text-anchor="middle" x="377.5" y="-175.5" font-family="Helvetica,sans-Serif" font-size="10.00">EventHandler/EventHandler.hpp</text>
</a>
</g>
</g>
<!-- Node1&#45;&gt;Node14 -->
<g id="edge19" class="edge">
<title>Node1&#45;&gt;Node14</title>
<path fill="none" stroke="midnightblue" d="M202.47,-280.26C221.84,-265.27 253.87,-241.47 283.5,-224 304.34,-211.72 329.05,-199.99 347.9,-191.59"/>
<polygon fill="midnightblue" stroke="midnightblue" points="349.43,-194.74 357.18,-187.51 346.62,-188.33 349.43,-194.74"/>
</g>
<!-- Node5&#45;&gt;Node3 -->
<g id="edge5" class="edge">
<title>Node5&#45;&gt;Node3</title>
<path fill="none" stroke="midnightblue" d="M130.36,-224.32C116.63,-215.9 95.56,-202.97 79.44,-193.07"/>
<polygon fill="midnightblue" stroke="midnightblue" points="80.96,-189.9 70.6,-187.65 77.3,-195.87 80.96,-189.9"/>
</g>
<!-- Node5&#45;&gt;Node6 -->
<g id="edge6" class="edge">
<title>Node5&#45;&gt;Node6</title>
<path fill="none" stroke="midnightblue" d="M152.56,-224.32C163.63,-215.82 183.23,-202.73 199.57,-192.8"/>
<polygon fill="midnightblue" stroke="midnightblue" points="201.43,-195.77 208.25,-187.65 197.86,-189.74 201.43,-195.77"/>
</g>
<!-- Node12 -->
<g id="node12" class="node">
<title>Node12</title>
<g id="a_node12"><a xlink:href="_transform_8hpp.html" target="_top" xlink:title=" ">
<polygon fill="white" stroke="black" points="46,-56.5 46,-75.5 165,-75.5 165,-56.5 46,-56.5"/>
<text text-anchor="middle" x="105.5" y="-63.5" font-family="Helvetica,sans-Serif" font-size="10.00">graphics/Transform.hpp</text>
</a>
</g>
</g>
<!-- Node5&#45;&gt;Node12 -->
<g id="edge17" class="edge">
<title>Node5&#45;&gt;Node12</title>
<path fill="none" stroke="midnightblue" d="M142.4,-224.08C136.26,-197.95 118.24,-121.21 109.86,-85.58"/>
<polygon fill="midnightblue" stroke="midnightblue" points="113.21,-84.5 107.51,-75.57 106.39,-86.1 113.21,-84.5"/>
</g>
<!-- Node6&#45;&gt;Node5 -->
<g id="edge15" class="edge">
<title>Node6&#45;&gt;Node5</title>
<path fill="none" stroke="midnightblue" d="M218.23,-187.83C207.13,-196.34 187.66,-209.34 171.41,-219.21"/>
<polygon fill="midnightblue" stroke="midnightblue" points="169.61,-216.21 162.79,-224.32 173.18,-222.23 169.61,-216.21"/>
</g>
<!-- Node7 -->
<g id="node7" class="node">
<title>Node7</title>
<g id="a_node7"><a xlink:href="_window_8hpp.html" target="_top" xlink:title=" ">
<polygon fill="white" stroke="black" points="180,-112.5 180,-131.5 289,-131.5 289,-112.5 180,-112.5"/>
<text text-anchor="middle" x="234.5" y="-119.5" font-family="Helvetica,sans-Serif" font-size="10.00">graphics/Window.hpp</text>
</a>
</g>
</g>
<!-- Node6&#45;&gt;Node7 -->
<g id="edge7" class="edge">
<title>Node6&#45;&gt;Node7</title>
<path fill="none" stroke="midnightblue" d="M227.82,-168.08C228.88,-160.93 230.41,-150.64 231.73,-141.69"/>
<polygon fill="midnightblue" stroke="midnightblue" points="235.2,-142.16 233.2,-131.75 228.28,-141.13 235.2,-142.16"/>
</g>
<!-- Node6&#45;&gt;Node12 -->
<g id="edge16" class="edge">
<title>Node6&#45;&gt;Node12</title>
<path fill="none" stroke="midnightblue" d="M215.29,-168.33C204,-159.47 186.19,-145.19 171.5,-132 153.66,-115.98 134.22,-96.58 121.09,-83.17"/>
<polygon fill="midnightblue" stroke="midnightblue" points="123.28,-80.4 113.8,-75.67 118.27,-85.28 123.28,-80.4"/>
</g>
<!-- Node7&#45;&gt;Node5 -->
<g id="edge12" class="edge">
<title>Node7&#45;&gt;Node5</title>
<path fill="none" stroke="midnightblue" d="M212.51,-131.54C196.39,-138.88 175.2,-150.99 162.5,-168 152.54,-181.34 148.09,-199.92 146.1,-213.79"/>
<polygon fill="midnightblue" stroke="midnightblue" points="142.58,-213.8 144.95,-224.13 149.54,-214.58 142.58,-213.8"/>
</g>
<!-- Node8 -->
<g id="node8" class="node">
<title>Node8</title>
<g id="a_node8"><a xlink:title=" ">
<polygon fill="white" stroke="#bfbfbf" points="342,-56.5 342,-75.5 405,-75.5 405,-56.5 342,-56.5"/>
<text text-anchor="middle" x="373.5" y="-63.5" font-family="Helvetica,sans-Serif" font-size="10.00">glad/glad.h</text>
</a>
</g>
</g>
<!-- Node7&#45;&gt;Node8 -->
<g id="edge8" class="edge">
<title>Node7&#45;&gt;Node8</title>
<path fill="none" stroke="midnightblue" d="M256.52,-112.44C279.6,-103.48 316.06,-89.31 342.14,-79.18"/>
<polygon fill="midnightblue" stroke="midnightblue" points="343.52,-82.4 351.58,-75.52 340.99,-75.88 343.52,-82.4"/>
</g>
<!-- Node9 -->
<g id="node9" class="node">
<title>Node9</title>
<g id="a_node9"><a xlink:title=" ">
<polygon fill="white" stroke="#bfbfbf" points="183,-56.5 183,-75.5 262,-75.5 262,-56.5 183,-56.5"/>
<text text-anchor="middle" x="222.5" y="-63.5" font-family="Helvetica,sans-Serif" font-size="10.00">GLFW/glfw3.h</text>
</a>
</g>
</g>
<!-- Node7&#45;&gt;Node9 -->
<g id="edge9" class="edge">
<title>Node7&#45;&gt;Node9</title>
<path fill="none" stroke="midnightblue" d="M232.52,-112.08C230.93,-104.93 228.64,-94.64 226.65,-85.69"/>
<polygon fill="midnightblue" stroke="midnightblue" points="230.03,-84.75 224.44,-75.75 223.2,-86.27 230.03,-84.75"/>
</g>
<!-- Node10 -->
<g id="node10" class="node">
<title>Node10</title>
<g id="a_node10"><a xlink:title=" ">
<polygon fill="white" stroke="#bfbfbf" points="423,-56.5 423,-75.5 462,-75.5 462,-56.5 423,-56.5"/>
<text text-anchor="middle" x="442.5" y="-63.5" font-family="Helvetica,sans-Serif" font-size="10.00">utility</text>
</a>
</g>
</g>
<!-- Node7&#45;&gt;Node10 -->
<g id="edge10" class="edge">
<title>Node7&#45;&gt;Node10</title>
<path fill="none" stroke="midnightblue" d="M271.58,-112.49C306.03,-104.41 358.98,-91.57 413.19,-76.25"/>
<polygon fill="midnightblue" stroke="midnightblue" points="414.31,-79.57 422.97,-73.46 412.39,-72.84 414.31,-79.57"/>
</g>
<!-- Node11 -->
<g id="node11" class="node">
<title>Node11</title>
<g id="a_node11"><a xlink:title=" ">
<polygon fill="white" stroke="#bfbfbf" points="279.5,-56.5 279.5,-75.5 323.5,-75.5 323.5,-56.5 279.5,-56.5"/>
<text text-anchor="middle" x="301.5" y="-63.5" font-family="Helvetica,sans-Serif" font-size="10.00">vector</text>
</a>
</g>
</g>
<!-- Node7&#45;&gt;Node11 -->
<g id="edge11" class="edge">
<title>Node7&#45;&gt;Node11</title>
<path fill="none" stroke="midnightblue" d="M245.26,-112.32C255.27,-104.26 270.39,-92.08 282.43,-82.37"/>
<polygon fill="midnightblue" stroke="midnightblue" points="284.95,-84.83 290.54,-75.83 280.56,-79.38 284.95,-84.83"/>
</g>
<!-- Node7&#45;&gt;Node12 -->
<g id="edge13" class="edge">
<title>Node7&#45;&gt;Node12</title>
<path fill="none" stroke="midnightblue" d="M214.06,-112.44C192.83,-103.56 159.4,-89.56 135.25,-79.45"/>
<polygon fill="midnightblue" stroke="midnightblue" points="136.42,-76.15 125.84,-75.52 133.72,-82.61 136.42,-76.15"/>
</g>
<!-- Node13 -->
<g id="node13" class="node">
<title>Node13</title>
<g id="a_node13"><a xlink:title=" ">
<polygon fill="white" stroke="#bfbfbf" points="53.5,-0.5 53.5,-19.5 157.5,-19.5 157.5,-0.5 53.5,-0.5"/>
<text text-anchor="middle" x="105.5" y="-7.5" font-family="Helvetica,sans-Serif" font-size="10.00">glm/gtc/type_ptr.hpp</text>
</a>
</g>
</g>
<!-- Node12&#45;&gt;Node13 -->
<g id="edge14" class="edge">
<title>Node12&#45;&gt;Node13</title>
<path fill="none" stroke="midnightblue" d="M105.5,-56.08C105.5,-49.01 105.5,-38.86 105.5,-29.99"/>
<polygon fill="midnightblue" stroke="midnightblue" points="109,-29.75 105.5,-19.75 102,-29.75 109,-29.75"/>
</g>
<!-- Node14&#45;&gt;Node7 -->
<g id="edge21" class="edge">
<title>Node14&#45;&gt;Node7</title>
<path fill="none" stroke="midnightblue" d="M354.84,-168.44C331.1,-159.48 293.59,-145.31 266.76,-135.18"/>
<polygon fill="midnightblue" stroke="midnightblue" points="267.64,-131.77 257.05,-131.52 265.17,-138.32 267.64,-131.77"/>
</g>
<!-- Node15 -->
<g id="node15" class="node">
<title>Node15</title>
<g id="a_node15"><a xlink:title=" ">
<polygon fill="white" stroke="#bfbfbf" points="309,-112.5 309,-131.5 368,-131.5 368,-112.5 309,-112.5"/>
<text text-anchor="middle" x="338.5" y="-119.5" font-family="Helvetica,sans-Serif" font-size="10.00">functional</text>
</a>
</g>
</g>
<!-- Node14&#45;&gt;Node15 -->
<g id="edge20" class="edge">
<title>Node14&#45;&gt;Node15</title>
<path fill="none" stroke="midnightblue" d="M371.06,-168.08C365.55,-160.46 357.47,-149.26 350.74,-139.94"/>
<polygon fill="midnightblue" stroke="midnightblue" points="353.51,-137.81 344.82,-131.75 347.84,-141.91 353.51,-137.81"/>
</g>
<!-- Node16 -->
<g id="node16" class="node">
<title>Node16</title>
<g id="a_node16"><a xlink:href="_vector2_d_8hpp.html" target="_top" xlink:title=" ">
<polygon fill="white" stroke="black" points="386.5,-112.5 386.5,-131.5 498.5,-131.5 498.5,-112.5 386.5,-112.5"/>
<text text-anchor="middle" x="442.5" y="-119.5" font-family="Helvetica,sans-Serif" font-size="10.00">Helpers/Vector2D.hpp</text>
</a>
</g>
</g>
<!-- Node14&#45;&gt;Node16 -->
<g id="edge22" class="edge">
<title>Node14&#45;&gt;Node16</title>
<path fill="none" stroke="midnightblue" d="M387.94,-168.32C397.65,-160.26 412.32,-148.08 424,-138.37"/>
<polygon fill="midnightblue" stroke="midnightblue" points="426.41,-140.92 431.87,-131.83 421.94,-135.53 426.41,-140.92"/>
</g>
<!-- Node16&#45;&gt;Node10 -->
<g id="edge23" class="edge">
<title>Node16&#45;&gt;Node10</title>
<path fill="none" stroke="midnightblue" d="M442.5,-112.08C442.5,-105.01 442.5,-94.86 442.5,-85.99"/>
<polygon fill="midnightblue" stroke="midnightblue" points="446,-85.75 442.5,-75.75 439,-85.75 446,-85.75"/>
</g>
</g>
</svg>
