<?xml version="1.0" encoding="UTF-8" standalone="no"?>
<!DOCTYPE svg PUBLIC "-//W3C//DTD SVG 1.1//EN"
 "http://www.w3.org/Graphics/SVG/1.1/DTD/svg11.dtd">
<!-- Generated by graphviz version 2.47.0 (20210407.0042)
 -->
<!-- Title: src/graphics/Shader.cpp Pages: 1 -->
<svg width="449pt" height="308pt"
 viewBox="0.00 0.00 449.01 308.00" xmlns="http://www.w3.org/2000/svg" xmlns:xlink="http://www.w3.org/1999/xlink">
<g id="graph0" class="graph" transform="scale(1 1) rotate(0) translate(4 304)">
<title>src/graphics/Shader.cpp</title>
<polygon fill="white" stroke="transparent" points="-4,4 -4,-304 445.01,-304 445.01,4 -4,4"/>
<!-- Node1 -->
<g id="node1" class="node">
<title>Node1</title>
<g id="a_node1"><a xlink:title=" ">
<polygon fill="#bfbfbf" stroke="black" points="96.5,-280.5 96.5,-299.5 218.5,-299.5 218.5,-280.5 96.5,-280.5"/>
<text text-anchor="middle" x="157.5" y="-287.5" font-family="Helvetica,sans-Serif" font-size="10.00">src/graphics/Shader.cpp</text>
</a>
</g>
</g>
<!-- Node2 -->
<g id="node2" class="node">
<title>Node2</title>
<g id="a_node2"><a xlink:title=" ">
<polygon fill="white" stroke="#bfbfbf" points="0,-56.5 0,-75.5 63,-75.5 63,-56.5 0,-56.5"/>
<text text-anchor="middle" x="31.5" y="-63.5" font-family="Helvetica,sans-Serif" font-size="10.00">glad/glad.h</text>
</a>
</g>
</g>
<!-- Node1&#45;&gt;Node2 -->
<g id="edge1" class="edge">
<title>Node1&#45;&gt;Node2</title>
<path fill="none" stroke="midnightblue" d="M131.11,-280.39C113.44,-273.31 91.02,-261.55 77.5,-244 40.42,-195.86 33.07,-120.79 31.73,-85.95"/>
<polygon fill="midnightblue" stroke="midnightblue" points="35.22,-85.68 31.46,-75.77 28.22,-85.86 35.22,-85.68"/>
</g>
<!-- Node3 -->
<g id="node3" class="node">
<title>Node3</title>
<g id="a_node3"><a xlink:title=" ">
<polygon fill="white" stroke="#bfbfbf" points="81,-56.5 81,-75.5 160,-75.5 160,-56.5 81,-56.5"/>
<text text-anchor="middle" x="120.5" y="-63.5" font-family="Helvetica,sans-Serif" font-size="10.00">GLFW/glfw3.h</text>
</a>
</g>
</g>
<!-- Node1&#45;&gt;Node3 -->
<g id="edge2" class="edge">
<title>Node1&#45;&gt;Node3</title>
<path fill="none" stroke="midnightblue" d="M133.71,-280.5C117.78,-273.41 98.04,-261.61 88.5,-244 59.92,-191.25 92.26,-117.98 110.18,-84.71"/>
<polygon fill="midnightblue" stroke="midnightblue" points="113.37,-86.17 115.19,-75.73 107.26,-82.75 113.37,-86.17"/>
</g>
<!-- Node4 -->
<g id="node4" class="node">
<title>Node4</title>
<g id="a_node4"><a xlink:title=" ">
<polygon fill="white" stroke="#bfbfbf" points="97.5,-224.5 97.5,-243.5 147.5,-243.5 147.5,-224.5 97.5,-224.5"/>
<text text-anchor="middle" x="122.5" y="-231.5" font-family="Helvetica,sans-Serif" font-size="10.00">fstream</text>
</a>
</g>
</g>
<!-- Node1&#45;&gt;Node4 -->
<g id="edge3" class="edge">
<title>Node1&#45;&gt;Node4</title>
<path fill="none" stroke="midnightblue" d="M151.72,-280.08C146.83,-272.53 139.67,-261.49 133.67,-252.23"/>
<polygon fill="midnightblue" stroke="midnightblue" points="136.55,-250.24 128.17,-243.75 130.67,-254.05 136.55,-250.24"/>
</g>
<!-- Node5 -->
<g id="node5" class="node">
<title>Node5</title>
<g id="a_node5"><a xlink:title=" ">
<polygon fill="white" stroke="#bfbfbf" points="165.5,-224.5 165.5,-243.5 219.5,-243.5 219.5,-224.5 165.5,-224.5"/>
<text text-anchor="middle" x="192.5" y="-231.5" font-family="Helvetica,sans-Serif" font-size="10.00">iostream</text>
</a>
</g>
</g>
<!-- Node1&#45;&gt;Node5 -->
<g id="edge4" class="edge">
<title>Node1&#45;&gt;Node5</title>
<path fill="none" stroke="midnightblue" d="M163.28,-280.08C168.17,-272.53 175.33,-261.49 181.33,-252.23"/>
<polygon fill="midnightblue" stroke="midnightblue" points="184.33,-254.05 186.83,-243.75 178.45,-250.24 184.33,-254.05"/>
</g>
<!-- Node6 -->
<g id="node6" class="node">
<title>Node6</title>
<g id="a_node6"><a xlink:title=" ">
<polygon fill="white" stroke="#bfbfbf" points="237.5,-224.5 237.5,-243.5 275.5,-243.5 275.5,-224.5 237.5,-224.5"/>
<text text-anchor="middle" x="256.5" y="-231.5" font-family="Helvetica,sans-Serif" font-size="10.00">tuple</text>
</a>
</g>
</g>
<!-- Node1&#45;&gt;Node6 -->
<g id="edge5" class="edge">
<title>Node1&#45;&gt;Node6</title>
<path fill="none" stroke="midnightblue" d="M173.41,-280.32C189.14,-271.74 213.44,-258.49 231.71,-248.52"/>
<polygon fill="midnightblue" stroke="midnightblue" points="233.53,-251.52 240.63,-243.65 230.18,-245.37 233.53,-251.52"/>
</g>
<!-- Node7 -->
<g id="node7" class="node">
<title>Node7</title>
<g id="a_node7"><a xlink:href="_shader_8hpp.html" target="_top" xlink:title=" ">
<polygon fill="white" stroke="black" points="294,-224.5 294,-243.5 399,-243.5 399,-224.5 294,-224.5"/>
<text text-anchor="middle" x="346.5" y="-231.5" font-family="Helvetica,sans-Serif" font-size="10.00">graphics/Shader.hpp</text>
</a>
</g>
</g>
<!-- Node1&#45;&gt;Node7 -->
<g id="edge6" class="edge">
<title>Node1&#45;&gt;Node7</title>
<path fill="none" stroke="midnightblue" d="M187.45,-280.44C219.66,-271.24 271.03,-256.56 306.64,-246.39"/>
<polygon fill="midnightblue" stroke="midnightblue" points="308.04,-249.63 316.69,-243.52 306.12,-242.9 308.04,-249.63"/>
</g>
<!-- Node8 -->
<g id="node8" class="node">
<title>Node8</title>
<g id="a_node8"><a xlink:title=" ">
<polygon fill="white" stroke="#bfbfbf" points="384,-168.5 384,-187.5 425,-187.5 425,-168.5 384,-168.5"/>
<text text-anchor="middle" x="404.5" y="-175.5" font-family="Helvetica,sans-Serif" font-size="10.00">string</text>
</a>
</g>
</g>
<!-- Node7&#45;&gt;Node8 -->
<g id="edge7" class="edge">
<title>Node7&#45;&gt;Node8</title>
<path fill="none" stroke="midnightblue" d="M355.82,-224.32C364.39,-216.34 377.31,-204.31 387.69,-194.65"/>
<polygon fill="midnightblue" stroke="midnightblue" points="390.08,-197.21 395.01,-187.83 385.31,-192.09 390.08,-197.21"/>
</g>
<!-- Node9 -->
<g id="node9" class="node">
<title>Node9</title>
<g id="a_node9"><a xlink:href="_g_shape_8hpp.html" target="_top" xlink:title=" ">
<polygon fill="white" stroke="black" points="255.5,-168.5 255.5,-187.5 365.5,-187.5 365.5,-168.5 255.5,-168.5"/>
<text text-anchor="middle" x="310.5" y="-175.5" font-family="Helvetica,sans-Serif" font-size="10.00">graphics/GShape.hpp</text>
</a>
</g>
</g>
<!-- Node7&#45;&gt;Node9 -->
<g id="edge8" class="edge">
<title>Node7&#45;&gt;Node9</title>
<path fill="none" stroke="midnightblue" d="M335.39,-224.08C328.9,-216.69 321.34,-205.95 315.98,-196.81"/>
<polygon fill="midnightblue" stroke="midnightblue" points="318.97,-194.96 311.2,-187.75 312.77,-198.23 318.97,-194.96"/>
</g>
<!-- Node13 -->
<g id="node13" class="node">
<title>Node13</title>
<g id="a_node13"><a xlink:href="_transform_8hpp.html" target="_top" xlink:title=" ">
<polygon fill="white" stroke="black" points="298,-56.5 298,-75.5 417,-75.5 417,-56.5 298,-56.5"/>
<text text-anchor="middle" x="357.5" y="-63.5" font-family="Helvetica,sans-Serif" font-size="10.00">graphics/Transform.hpp</text>
</a>
</g>
</g>
<!-- Node7&#45;&gt;Node13 -->
<g id="edge19" class="edge">
<title>Node7&#45;&gt;Node13</title>
<path fill="none" stroke="midnightblue" d="M382.35,-224.4C401.38,-217.81 423.13,-206.59 434.5,-188 458.15,-149.34 409.24,-104.48 378.99,-81.78"/>
<polygon fill="midnightblue" stroke="midnightblue" points="380.82,-78.78 370.67,-75.74 376.71,-84.45 380.82,-78.78"/>
</g>
<!-- Node9&#45;&gt;Node7 -->
<g id="edge17" class="edge">
<title>Node9&#45;&gt;Node7</title>
<path fill="none" stroke="midnightblue" d="M321.47,-187.75C327.94,-195.09 335.51,-205.82 340.89,-214.98"/>
<polygon fill="midnightblue" stroke="midnightblue" points="337.94,-216.89 345.72,-224.08 344.13,-213.61 337.94,-216.89"/>
</g>
<!-- Node10 -->
<g id="node10" class="node">
<title>Node10</title>
<g id="a_node10"><a xlink:href="_window_8hpp.html" target="_top" xlink:title=" ">
<polygon fill="white" stroke="black" points="173,-112.5 173,-131.5 282,-131.5 282,-112.5 173,-112.5"/>
<text text-anchor="middle" x="227.5" y="-119.5" font-family="Helvetica,sans-Serif" font-size="10.00">graphics/Window.hpp</text>
</a>
</g>
</g>
<!-- Node9&#45;&gt;Node10 -->
<g id="edge9" class="edge">
<title>Node9&#45;&gt;Node10</title>
<path fill="none" stroke="midnightblue" d="M297.16,-168.32C284.34,-159.98 264.72,-147.21 249.56,-137.35"/>
<polygon fill="midnightblue" stroke="midnightblue" points="251.09,-134.17 240.8,-131.65 247.28,-140.04 251.09,-134.17"/>
</g>
<!-- Node9&#45;&gt;Node13 -->
<g id="edge18" class="edge">
<title>Node9&#45;&gt;Node13</title>
<path fill="none" stroke="midnightblue" d="M314.19,-168.37C321.84,-150.46 339.59,-108.92 349.83,-84.95"/>
<polygon fill="midnightblue" stroke="midnightblue" points="353.12,-86.16 353.83,-75.59 346.68,-83.41 353.12,-86.16"/>
</g>
<!-- Node10&#45;&gt;Node2 -->
<g id="edge10" class="edge">
<title>Node10&#45;&gt;Node2</title>
<path fill="none" stroke="midnightblue" d="M196.44,-112.44C162.9,-103.2 109.3,-88.44 72.36,-78.26"/>
<polygon fill="midnightblue" stroke="midnightblue" points="72.98,-74.8 62.41,-75.52 71.12,-81.55 72.98,-74.8"/>
</g>
<!-- Node10&#45;&gt;Node3 -->
<g id="edge11" class="edge">
<title>Node10&#45;&gt;Node3</title>
<path fill="none" stroke="midnightblue" d="M210.31,-112.32C193.15,-103.66 166.55,-90.24 146.75,-80.25"/>
<polygon fill="midnightblue" stroke="midnightblue" points="148.15,-77.04 137.65,-75.65 145,-83.28 148.15,-77.04"/>
</g>
<!-- Node10&#45;&gt;Node7 -->
<g id="edge14" class="edge">
<title>Node10&#45;&gt;Node7</title>
<path fill="none" stroke="midnightblue" d="M227.79,-131.66C228.7,-145.24 232.3,-171.68 246.5,-188 260.23,-203.78 280.59,-214.3 299.36,-221.17"/>
<polygon fill="midnightblue" stroke="midnightblue" points="298.4,-224.54 308.99,-224.44 300.65,-217.91 298.4,-224.54"/>
</g>
<!-- Node11 -->
<g id="node11" class="node">
<title>Node11</title>
<g id="a_node11"><a xlink:title=" ">
<polygon fill="white" stroke="#bfbfbf" points="178,-56.5 178,-75.5 217,-75.5 217,-56.5 178,-56.5"/>
<text text-anchor="middle" x="197.5" y="-63.5" font-family="Helvetica,sans-Serif" font-size="10.00">utility</text>
</a>
</g>
</g>
<!-- Node10&#45;&gt;Node11 -->
<g id="edge12" class="edge">
<title>Node10&#45;&gt;Node11</title>
<path fill="none" stroke="midnightblue" d="M222.55,-112.08C218.4,-104.61 212.35,-93.72 207.23,-84.52"/>
<polygon fill="midnightblue" stroke="midnightblue" points="210.28,-82.79 202.36,-75.75 204.16,-86.19 210.28,-82.79"/>
</g>
<!-- Node12 -->
<g id="node12" class="node">
<title>Node12</title>
<g id="a_node12"><a xlink:title=" ">
<polygon fill="white" stroke="#bfbfbf" points="235.5,-56.5 235.5,-75.5 279.5,-75.5 279.5,-56.5 235.5,-56.5"/>
<text text-anchor="middle" x="257.5" y="-63.5" font-family="Helvetica,sans-Serif" font-size="10.00">vector</text>
</a>
</g>
</g>
<!-- Node10&#45;&gt;Node12 -->
<g id="edge13" class="edge">
<title>Node10&#45;&gt;Node12</title>
<path fill="none" stroke="midnightblue" d="M232.45,-112.08C236.6,-104.61 242.65,-93.72 247.77,-84.52"/>
<polygon fill="midnightblue" stroke="midnightblue" points="250.84,-86.19 252.64,-75.75 244.72,-82.79 250.84,-86.19"/>
</g>
<!-- Node10&#45;&gt;Node13 -->
<g id="edge15" class="edge">
<title>Node10&#45;&gt;Node13</title>
<path fill="none" stroke="midnightblue" d="M248.1,-112.44C269.49,-103.56 303.18,-89.56 327.52,-79.45"/>
<polygon fill="midnightblue" stroke="midnightblue" points="329.11,-82.58 337,-75.52 326.42,-76.12 329.11,-82.58"/>
</g>
<!-- Node14 -->
<g id="node14" class="node">
<title>Node14</title>
<g id="a_node14"><a xlink:title=" ">
<polygon fill="white" stroke="#bfbfbf" points="305.5,-0.5 305.5,-19.5 409.5,-19.5 409.5,-0.5 305.5,-0.5"/>
<text text-anchor="middle" x="357.5" y="-7.5" font-family="Helvetica,sans-Serif" font-size="10.00">glm/gtc/type_ptr.hpp</text>
</a>
</g>
</g>
<!-- Node13&#45;&gt;Node14 -->
<g id="edge16" class="edge">
<title>Node13&#45;&gt;Node14</title>
<path fill="none" stroke="midnightblue" d="M357.5,-56.08C357.5,-49.01 357.5,-38.86 357.5,-29.99"/>
<polygon fill="midnightblue" stroke="midnightblue" points="361,-29.75 357.5,-19.75 354,-29.75 361,-29.75"/>
</g>
</g>
</svg>
