<?xml version="1.0" encoding="UTF-8" standalone="no"?>
<!DOCTYPE svg PUBLIC "-//W3C//DTD SVG 1.1//EN"
 "http://www.w3.org/Graphics/SVG/1.1/DTD/svg11.dtd">
<!-- Generated by graphviz version 2.47.0 (20210407.0042)
 -->
<!-- Title: include/graphics/Shader.hpp Pages: 1 -->
<svg width="1115pt" height="386pt"
 viewBox="0.00 0.00 1114.50 386.00" xmlns="http://www.w3.org/2000/svg" xmlns:xlink="http://www.w3.org/1999/xlink">
<g id="graph0" class="graph" transform="scale(1 1) rotate(0) translate(4 382)">
<title>include/graphics/Shader.hpp</title>
<polygon fill="white" stroke="transparent" points="-4,4 -4,-382 1110.5,-382 1110.5,4 -4,4"/>
<!-- Node1 -->
<g id="node1" class="node">
<title>Node1</title>
<g id="a_node1"><a xlink:title=" ">
<polygon fill="#bfbfbf" stroke="black" points="415.5,-358.5 415.5,-377.5 554.5,-377.5 554.5,-358.5 415.5,-358.5"/>
<text text-anchor="middle" x="485" y="-365.5" font-family="Helvetica,sans-Serif" font-size="10.00">include/graphics/Shader.hpp</text>
</a>
</g>
</g>
<!-- Node2 -->
<g id="node2" class="node">
<title>Node2</title>
<g id="a_node2"><a xlink:href="_shader_8cpp.html" target="_top" xlink:title=" ">
<polygon fill="white" stroke="black" points="326,-302.5 326,-321.5 448,-321.5 448,-302.5 326,-302.5"/>
<text text-anchor="middle" x="387" y="-309.5" font-family="Helvetica,sans-Serif" font-size="10.00">src/graphics/Shader.cpp</text>
</a>
</g>
</g>
<!-- Node1&#45;&gt;Node2 -->
<g id="edge1" class="edge">
<title>Node1&#45;&gt;Node2</title>
<path fill="none" stroke="midnightblue" d="M460.41,-353.45C442.32,-343.48 418.27,-330.23 402.71,-321.65"/>
<polygon fill="midnightblue" stroke="midnightblue" points="458.81,-356.56 469.25,-358.32 462.19,-350.43 458.81,-356.56"/>
</g>
<!-- Node3 -->
<g id="node3" class="node">
<title>Node3</title>
<g id="a_node3"><a xlink:href="_g_shape_8hpp.html" target="_top" xlink:title=" ">
<polygon fill="white" stroke="black" points="386.5,-241 386.5,-260 529.5,-260 529.5,-241 386.5,-241"/>
<text text-anchor="middle" x="458" y="-248" font-family="Helvetica,sans-Serif" font-size="10.00">include/graphics/GShape.hpp</text>
</a>
</g>
</g>
<!-- Node1&#45;&gt;Node3 -->
<g id="edge2" class="edge">
<title>Node1&#45;&gt;Node3</title>
<path fill="none" stroke="midnightblue" d="M475.68,-348.84C467.19,-323.66 457.2,-279.1 456.26,-260.28"/>
<polygon fill="midnightblue" stroke="midnightblue" points="472.44,-350.16 479.2,-358.32 479,-347.73 472.44,-350.16"/>
</g>
<!-- Node5 -->
<g id="node5" class="node">
<title>Node5</title>
<g id="a_node5"><a xlink:href="_resource_manager_8hpp.html" target="_top" xlink:title=" ">
<polygon fill="white" stroke="black" points="538.5,-168.5 538.5,-198.5 669.5,-198.5 669.5,-168.5 538.5,-168.5"/>
<text text-anchor="start" x="546.5" y="-186.5" font-family="Helvetica,sans-Serif" font-size="10.00">include/graphics/Resource</text>
<text text-anchor="middle" x="604" y="-175.5" font-family="Helvetica,sans-Serif" font-size="10.00">Manager.hpp</text>
</a>
</g>
</g>
<!-- Node1&#45;&gt;Node5 -->
<g id="edge19" class="edge">
<title>Node1&#45;&gt;Node5</title>
<path fill="none" stroke="midnightblue" d="M496.25,-349.75C519.64,-313.87 573.18,-231.77 594.74,-198.69"/>
<polygon fill="midnightblue" stroke="midnightblue" points="493.27,-347.91 490.74,-358.2 499.13,-351.73 493.27,-347.91"/>
</g>
<!-- Node16 -->
<g id="node16" class="node">
<title>Node16</title>
<g id="a_node16"><a xlink:href="_window_8hpp.html" target="_top" xlink:title=" ">
<polygon fill="white" stroke="black" points="586.5,-302.5 586.5,-321.5 729.5,-321.5 729.5,-302.5 586.5,-302.5"/>
<text text-anchor="middle" x="658" y="-309.5" font-family="Helvetica,sans-Serif" font-size="10.00">include/graphics/Window.hpp</text>
</a>
</g>
</g>
<!-- Node1&#45;&gt;Node16 -->
<g id="edge20" class="edge">
<title>Node1&#45;&gt;Node16</title>
<path fill="none" stroke="midnightblue" d="M522.05,-355.44C554.66,-345.26 601.41,-330.66 630.72,-321.52"/>
<polygon fill="midnightblue" stroke="midnightblue" points="520.92,-352.12 512.41,-358.44 523,-358.8 520.92,-352.12"/>
</g>
<!-- Node3&#45;&gt;Node1 -->
<g id="edge17" class="edge">
<title>Node3&#45;&gt;Node1</title>
<path fill="none" stroke="midnightblue" d="M467.36,-269.79C475.86,-295.05 485.83,-339.59 486.74,-358.32"/>
<polygon fill="midnightblue" stroke="midnightblue" points="470.6,-268.45 463.84,-260.28 464.03,-270.88 470.6,-268.45"/>
</g>
<!-- Node4 -->
<g id="node4" class="node">
<title>Node4</title>
<g id="a_node4"><a xlink:href="_g_shape_8cpp.html" target="_top" xlink:title=" ">
<polygon fill="white" stroke="black" points="0,-174 0,-193 126,-193 126,-174 0,-174"/>
<text text-anchor="middle" x="63" y="-181" font-family="Helvetica,sans-Serif" font-size="10.00">src/graphics/GShape.cpp</text>
</a>
</g>
</g>
<!-- Node3&#45;&gt;Node4 -->
<g id="edge3" class="edge">
<title>Node3&#45;&gt;Node4</title>
<path fill="none" stroke="midnightblue" d="M391.02,-239.43C326.61,-229.62 226.52,-214.01 140,-199 129.41,-197.16 118.03,-195.08 107.34,-193.07"/>
<polygon fill="midnightblue" stroke="midnightblue" points="390.64,-242.92 401.05,-240.96 391.69,-235.99 390.64,-242.92"/>
</g>
<!-- Node3&#45;&gt;Node5 -->
<g id="edge4" class="edge">
<title>Node3&#45;&gt;Node5</title>
<path fill="none" stroke="midnightblue" d="M486.6,-236.77C511.31,-225.77 546.97,-209.89 572.49,-198.53"/>
<polygon fill="midnightblue" stroke="midnightblue" points="485.1,-233.6 477.39,-240.87 487.95,-240 485.1,-233.6"/>
</g>
<!-- Node12 -->
<g id="node12" class="node">
<title>Node12</title>
<g id="a_node12"><a xlink:href="_inventory_8hpp.html" target="_top" xlink:title=" ">
<polygon fill="white" stroke="black" points="269.5,-56.5 269.5,-75.5 398.5,-75.5 398.5,-56.5 269.5,-56.5"/>
<text text-anchor="middle" x="334" y="-63.5" font-family="Helvetica,sans-Serif" font-size="10.00">include/GUI/Inventory.hpp</text>
</a>
</g>
</g>
<!-- Node3&#45;&gt;Node12 -->
<g id="edge18" class="edge">
<title>Node3&#45;&gt;Node12</title>
<path fill="none" stroke="midnightblue" d="M388.6,-238.91C327.51,-225.51 242.07,-195.93 201,-132 180.86,-100.65 226.2,-83.96 269.31,-75.38"/>
<polygon fill="midnightblue" stroke="midnightblue" points="388.06,-242.37 398.57,-241 389.5,-235.52 388.06,-242.37"/>
</g>
<!-- Node6 -->
<g id="node6" class="node">
<title>Node6</title>
<g id="a_node6"><a xlink:href="_drawable_8cpp.html" target="_top" xlink:title=" ">
<polygon fill="white" stroke="black" points="408.5,-112.5 408.5,-131.5 531.5,-131.5 531.5,-112.5 408.5,-112.5"/>
<text text-anchor="middle" x="470" y="-119.5" font-family="Helvetica,sans-Serif" font-size="10.00">src/engine/Drawable.cpp</text>
</a>
</g>
</g>
<!-- Node5&#45;&gt;Node6 -->
<g id="edge5" class="edge">
<title>Node5&#45;&gt;Node6</title>
<path fill="none" stroke="midnightblue" d="M562.85,-164.23C538.45,-153.39 508.65,-140.16 489.5,-131.66"/>
<polygon fill="midnightblue" stroke="midnightblue" points="561.68,-167.54 572.24,-168.4 564.52,-161.14 561.68,-167.54"/>
</g>
<!-- Node7 -->
<g id="node7" class="node">
<title>Node7</title>
<g id="a_node7"><a xlink:href="_field_8cpp.html" target="_top" xlink:title=" ">
<polygon fill="white" stroke="black" points="677,-112.5 677,-131.5 781,-131.5 781,-112.5 677,-112.5"/>
<text text-anchor="middle" x="729" y="-119.5" font-family="Helvetica,sans-Serif" font-size="10.00">src/engine/Field.cpp</text>
</a>
</g>
</g>
<!-- Node5&#45;&gt;Node7 -->
<g id="edge6" class="edge">
<title>Node5&#45;&gt;Node7</title>
<path fill="none" stroke="midnightblue" d="M642.69,-164.08C665.39,-153.28 693.03,-140.12 710.81,-131.66"/>
<polygon fill="midnightblue" stroke="midnightblue" points="641.15,-160.94 633.62,-168.4 644.16,-167.26 641.15,-160.94"/>
</g>
<!-- Node8 -->
<g id="node8" class="node">
<title>Node8</title>
<g id="a_node8"><a xlink:href="_engine_8cpp.html" target="_top" xlink:title=" ">
<polygon fill="white" stroke="black" points="837,-112.5 837,-131.5 917,-131.5 917,-112.5 837,-112.5"/>
<text text-anchor="middle" x="877" y="-119.5" font-family="Helvetica,sans-Serif" font-size="10.00">src/Engine.cpp</text>
</a>
</g>
</g>
<!-- Node5&#45;&gt;Node8 -->
<g id="edge7" class="edge">
<title>Node5&#45;&gt;Node8</title>
<path fill="none" stroke="midnightblue" d="M678.13,-166.34C729.71,-155.1 796.43,-140.56 837.97,-131.51"/>
<polygon fill="midnightblue" stroke="midnightblue" points="677.38,-162.93 668.35,-168.47 678.87,-169.76 677.38,-162.93"/>
</g>
<!-- Node9 -->
<g id="node9" class="node">
<title>Node9</title>
<g id="a_node9"><a xlink:href="_event_handler_8cpp.html" target="_top" xlink:title=" ">
<polygon fill="white" stroke="black" points="935.5,-112.5 935.5,-131.5 1106.5,-131.5 1106.5,-112.5 935.5,-112.5"/>
<text text-anchor="middle" x="1021" y="-119.5" font-family="Helvetica,sans-Serif" font-size="10.00">src/EventHandler/EventHandler.cpp</text>
</a>
</g>
</g>
<!-- Node5&#45;&gt;Node9 -->
<g id="edge8" class="edge">
<title>Node5&#45;&gt;Node9</title>
<path fill="none" stroke="midnightblue" d="M679.73,-171.69C760.57,-160.16 887.02,-142.12 961.17,-131.54"/>
<polygon fill="midnightblue" stroke="midnightblue" points="679.02,-168.26 669.61,-173.14 680.01,-175.19 679.02,-168.26"/>
</g>
<!-- Node10 -->
<g id="node10" class="node">
<title>Node10</title>
<g id="a_node10"><a xlink:href="_resource_manager_8cpp.html" target="_top" xlink:title=" ">
<polygon fill="white" stroke="black" points="220,-112.5 220,-131.5 390,-131.5 390,-112.5 220,-112.5"/>
<text text-anchor="middle" x="305" y="-119.5" font-family="Helvetica,sans-Serif" font-size="10.00">src/graphics/ResourceManager.cpp</text>
</a>
</g>
</g>
<!-- Node5&#45;&gt;Node10 -->
<g id="edge9" class="edge">
<title>Node5&#45;&gt;Node10</title>
<path fill="none" stroke="midnightblue" d="M528.31,-167.44C471.18,-156.07 394.85,-140.88 347.85,-131.53"/>
<polygon fill="midnightblue" stroke="midnightblue" points="527.89,-170.92 538.38,-169.44 529.26,-164.06 527.89,-170.92"/>
</g>
<!-- Node11 -->
<g id="node11" class="node">
<title>Node11</title>
<g id="a_node11"><a xlink:href="main_8cpp.html" target="_top" xlink:title=" ">
<polygon fill="white" stroke="black" points="520,-0.5 520,-19.5 592,-19.5 592,-0.5 520,-0.5"/>
<text text-anchor="middle" x="556" y="-7.5" font-family="Helvetica,sans-Serif" font-size="10.00">src/main.cpp</text>
</a>
</g>
</g>
<!-- Node5&#45;&gt;Node11 -->
<g id="edge10" class="edge">
<title>Node5&#45;&gt;Node11</title>
<path fill="none" stroke="midnightblue" d="M679.76,-179.31C743.45,-173.48 819.72,-157.19 790,-112 745.76,-44.71 646.15,-22.05 592.26,-14.57"/>
<polygon fill="midnightblue" stroke="midnightblue" points="679.34,-175.83 669.67,-180.16 679.92,-182.81 679.34,-175.83"/>
</g>
<!-- Node5&#45;&gt;Node12 -->
<g id="edge11" class="edge">
<title>Node5&#45;&gt;Node12</title>
<path fill="none" stroke="midnightblue" d="M528.14,-178.07C419.83,-170.97 231.58,-155.39 211,-132 185.63,-103.17 239.23,-85.08 283.48,-75.51"/>
<polygon fill="midnightblue" stroke="midnightblue" points="528.16,-181.58 538.37,-178.73 528.62,-174.6 528.16,-181.58"/>
</g>
<!-- Node14 -->
<g id="node14" class="node">
<title>Node14</title>
<g id="a_node14"><a xlink:href="_item_8hpp.html" target="_top" xlink:title=" ">
<polygon fill="white" stroke="black" points="549.5,-112.5 549.5,-131.5 658.5,-131.5 658.5,-112.5 549.5,-112.5"/>
<text text-anchor="middle" x="604" y="-119.5" font-family="Helvetica,sans-Serif" font-size="10.00">include/GUI/Item.hpp</text>
</a>
</g>
</g>
<!-- Node5&#45;&gt;Node14 -->
<g id="edge14" class="edge">
<title>Node5&#45;&gt;Node14</title>
<path fill="none" stroke="midnightblue" d="M604,-158.29C604,-148.86 604,-138.65 604,-131.66"/>
<polygon fill="midnightblue" stroke="midnightblue" points="600.5,-158.4 604,-168.4 607.5,-158.4 600.5,-158.4"/>
</g>
<!-- Node12&#45;&gt;Node11 -->
<g id="edge13" class="edge">
<title>Node12&#45;&gt;Node11</title>
<path fill="none" stroke="midnightblue" d="M379.12,-54.02C421.06,-43.82 482.65,-28.84 520.99,-19.52"/>
<polygon fill="midnightblue" stroke="midnightblue" points="378.07,-50.68 369.18,-56.44 379.72,-57.48 378.07,-50.68"/>
</g>
<!-- Node13 -->
<g id="node13" class="node">
<title>Node13</title>
<g id="a_node13"><a xlink:href="_inventory_8cpp.html" target="_top" xlink:title=" ">
<polygon fill="white" stroke="black" points="278,-0.5 278,-19.5 390,-19.5 390,-0.5 278,-0.5"/>
<text text-anchor="middle" x="334" y="-7.5" font-family="Helvetica,sans-Serif" font-size="10.00">src/GUI/Inventory.cpp</text>
</a>
</g>
</g>
<!-- Node12&#45;&gt;Node13 -->
<g id="edge12" class="edge">
<title>Node12&#45;&gt;Node13</title>
<path fill="none" stroke="midnightblue" d="M334,-45.8C334,-36.91 334,-26.78 334,-19.75"/>
<polygon fill="midnightblue" stroke="midnightblue" points="330.5,-46.08 334,-56.08 337.5,-46.08 330.5,-46.08"/>
</g>
<!-- Node14&#45;&gt;Node12 -->
<g id="edge16" class="edge">
<title>Node14&#45;&gt;Node12</title>
<path fill="none" stroke="midnightblue" d="M551.37,-110.47C500.34,-100.27 423.9,-84.98 376.58,-75.52"/>
<polygon fill="midnightblue" stroke="midnightblue" points="550.73,-113.91 561.22,-112.44 552.1,-107.05 550.73,-113.91"/>
</g>
<!-- Node15 -->
<g id="node15" class="node">
<title>Node15</title>
<g id="a_node15"><a xlink:href="_item_8cpp.html" target="_top" xlink:title=" ">
<polygon fill="white" stroke="black" points="558,-56.5 558,-75.5 650,-75.5 650,-56.5 558,-56.5"/>
<text text-anchor="middle" x="604" y="-63.5" font-family="Helvetica,sans-Serif" font-size="10.00">src/GUI/Item.cpp</text>
</a>
</g>
</g>
<!-- Node14&#45;&gt;Node15 -->
<g id="edge15" class="edge">
<title>Node14&#45;&gt;Node15</title>
<path fill="none" stroke="midnightblue" d="M604,-101.8C604,-92.91 604,-82.78 604,-75.75"/>
<polygon fill="midnightblue" stroke="midnightblue" points="600.5,-102.08 604,-112.08 607.5,-102.08 600.5,-102.08"/>
</g>
<!-- Node16&#45;&gt;Node3 -->
<g id="edge25" class="edge">
<title>Node16&#45;&gt;Node3</title>
<path fill="none" stroke="midnightblue" d="M619.44,-299.53C580.57,-287.96 521.48,-270.38 486.6,-260.01"/>
<polygon fill="midnightblue" stroke="midnightblue" points="618.76,-302.98 629.34,-302.48 620.76,-296.27 618.76,-302.98"/>
</g>
<!-- Node17 -->
<g id="node17" class="node">
<title>Node17</title>
<g id="a_node17"><a xlink:href="_window_8cpp.html" target="_top" xlink:title=" ">
<polygon fill="white" stroke="black" points="721.5,-241 721.5,-260 846.5,-260 846.5,-241 721.5,-241"/>
<text text-anchor="middle" x="784" y="-248" font-family="Helvetica,sans-Serif" font-size="10.00">src/graphics/Window.cpp</text>
</a>
</g>
</g>
<!-- Node16&#45;&gt;Node17 -->
<g id="edge21" class="edge">
<title>Node16&#45;&gt;Node17</title>
<path fill="none" stroke="midnightblue" d="M685.16,-298.17C709.61,-286.63 744.85,-269.99 765.98,-260.01"/>
<polygon fill="midnightblue" stroke="midnightblue" points="683.6,-295.04 676.05,-302.48 686.59,-301.37 683.6,-295.04"/>
</g>
<!-- Node18 -->
<g id="node18" class="node">
<title>Node18</title>
<g id="a_node18"><a xlink:href="_event_handler_8hpp.html" target="_top" xlink:title=" ">
<polygon fill="white" stroke="black" points="594.5,-235.5 594.5,-265.5 703.5,-265.5 703.5,-235.5 594.5,-235.5"/>
<text text-anchor="start" x="602.5" y="-253.5" font-family="Helvetica,sans-Serif" font-size="10.00">include/EventHandler</text>
<text text-anchor="middle" x="649" y="-242.5" font-family="Helvetica,sans-Serif" font-size="10.00">/EventHandler.hpp</text>
</a>
</g>
</g>
<!-- Node16&#45;&gt;Node18 -->
<g id="edge22" class="edge">
<title>Node16&#45;&gt;Node18</title>
<path fill="none" stroke="midnightblue" d="M655.21,-292.53C653.89,-283.81 652.34,-273.59 651.12,-265.52"/>
<polygon fill="midnightblue" stroke="midnightblue" points="651.75,-293.11 656.71,-302.48 658.68,-292.06 651.75,-293.11"/>
</g>
<!-- Node18&#45;&gt;Node5 -->
<g id="edge24" class="edge">
<title>Node18&#45;&gt;Node5</title>
<path fill="none" stroke="midnightblue" d="M633.53,-227.16C626.97,-217.68 619.52,-206.92 613.75,-198.58"/>
<polygon fill="midnightblue" stroke="midnightblue" points="630.67,-229.17 639.24,-235.4 636.42,-225.18 630.67,-229.17"/>
</g>
<!-- Node18&#45;&gt;Node9 -->
<g id="edge23" class="edge">
<title>Node18&#45;&gt;Node9</title>
<path fill="none" stroke="midnightblue" d="M700.18,-232.1C780.95,-204.63 935.02,-152.24 995.62,-131.63"/>
<polygon fill="midnightblue" stroke="midnightblue" points="698.57,-228.95 690.23,-235.48 700.83,-235.57 698.57,-228.95"/>
</g>
</g>
</svg>
