<?xml version="1.0" encoding="UTF-8" standalone="no"?>
<!DOCTYPE svg PUBLIC "-//W3C//DTD SVG 1.1//EN"
 "http://www.w3.org/Graphics/SVG/1.1/DTD/svg11.dtd">
<!-- Generated by graphviz version 2.47.0 (20210407.0042)
 -->
<!-- Title: include/graphics/Shader.hpp Pages: 1 -->
<svg width="820pt" height="274pt"
 viewBox="0.00 0.00 819.50 274.00" xmlns="http://www.w3.org/2000/svg" xmlns:xlink="http://www.w3.org/1999/xlink">
<g id="graph0" class="graph" transform="scale(1 1) rotate(0) translate(4 270)">
<title>include/graphics/Shader.hpp</title>
<polygon fill="white" stroke="transparent" points="-4,4 -4,-270 815.5,-270 815.5,4 -4,4"/>
<!-- Node1 -->
<g id="node1" class="node">
<title>Node1</title>
<g id="a_node1"><a xlink:title=" ">
<polygon fill="#bfbfbf" stroke="black" points="329.5,-246.5 329.5,-265.5 468.5,-265.5 468.5,-246.5 329.5,-246.5"/>
<text text-anchor="middle" x="399" y="-253.5" font-family="Helvetica,sans-Serif" font-size="10.00">include/graphics/Shader.hpp</text>
</a>
</g>
</g>
<!-- Node2 -->
<g id="node2" class="node">
<title>Node2</title>
<g id="a_node2"><a xlink:href="_shader_8cpp.html" target="_top" xlink:title=" ">
<polygon fill="white" stroke="black" points="240,-190.5 240,-209.5 362,-209.5 362,-190.5 240,-190.5"/>
<text text-anchor="middle" x="301" y="-197.5" font-family="Helvetica,sans-Serif" font-size="10.00">src/graphics/Shader.cpp</text>
</a>
</g>
</g>
<!-- Node1&#45;&gt;Node2 -->
<g id="edge1" class="edge">
<title>Node1&#45;&gt;Node2</title>
<path fill="none" stroke="midnightblue" d="M374.41,-241.45C356.32,-231.48 332.27,-218.23 316.71,-209.65"/>
<polygon fill="midnightblue" stroke="midnightblue" points="372.81,-244.56 383.25,-246.32 376.19,-238.43 372.81,-244.56"/>
</g>
<!-- Node3 -->
<g id="node3" class="node">
<title>Node3</title>
<g id="a_node3"><a xlink:href="_g_shape_8hpp.html" target="_top" xlink:title=" ">
<polygon fill="white" stroke="black" points="300.5,-129 300.5,-148 443.5,-148 443.5,-129 300.5,-129"/>
<text text-anchor="middle" x="372" y="-136" font-family="Helvetica,sans-Serif" font-size="10.00">include/graphics/GShape.hpp</text>
</a>
</g>
</g>
<!-- Node1&#45;&gt;Node3 -->
<g id="edge2" class="edge">
<title>Node1&#45;&gt;Node3</title>
<path fill="none" stroke="midnightblue" d="M389.68,-236.84C381.19,-211.66 371.2,-167.1 370.26,-148.28"/>
<polygon fill="midnightblue" stroke="midnightblue" points="386.44,-238.16 393.2,-246.32 393,-235.73 386.44,-238.16"/>
</g>
<!-- Node5 -->
<g id="node5" class="node">
<title>Node5</title>
<g id="a_node5"><a xlink:href="_resource_manager_8hpp.html" target="_top" xlink:title=" ">
<polygon fill="white" stroke="black" points="406.5,-56.5 406.5,-86.5 537.5,-86.5 537.5,-56.5 406.5,-56.5"/>
<text text-anchor="start" x="414.5" y="-74.5" font-family="Helvetica,sans-Serif" font-size="10.00">include/graphics/Resource</text>
<text text-anchor="middle" x="472" y="-63.5" font-family="Helvetica,sans-Serif" font-size="10.00">Manager.hpp</text>
</a>
</g>
</g>
<!-- Node1&#45;&gt;Node5 -->
<g id="edge12" class="edge">
<title>Node1&#45;&gt;Node5</title>
<path fill="none" stroke="midnightblue" d="M409.74,-237.71C421.54,-218.07 440.36,-184.73 452,-154 460.67,-131.11 466.57,-103.16 469.61,-86.66"/>
<polygon fill="midnightblue" stroke="midnightblue" points="406.65,-236.06 404.43,-246.42 412.62,-239.71 406.65,-236.06"/>
</g>
<!-- Node12 -->
<g id="node12" class="node">
<title>Node12</title>
<g id="a_node12"><a xlink:href="_window_8hpp.html" target="_top" xlink:title=" ">
<polygon fill="white" stroke="black" points="500.5,-190.5 500.5,-209.5 643.5,-209.5 643.5,-190.5 500.5,-190.5"/>
<text text-anchor="middle" x="572" y="-197.5" font-family="Helvetica,sans-Serif" font-size="10.00">include/graphics/Window.hpp</text>
</a>
</g>
</g>
<!-- Node1&#45;&gt;Node12 -->
<g id="edge13" class="edge">
<title>Node1&#45;&gt;Node12</title>
<path fill="none" stroke="midnightblue" d="M436.05,-243.44C468.66,-233.26 515.41,-218.66 544.72,-209.52"/>
<polygon fill="midnightblue" stroke="midnightblue" points="434.92,-240.12 426.41,-246.44 437,-246.8 434.92,-240.12"/>
</g>
<!-- Node3&#45;&gt;Node1 -->
<g id="edge11" class="edge">
<title>Node3&#45;&gt;Node1</title>
<path fill="none" stroke="midnightblue" d="M381.36,-157.79C389.86,-183.05 399.83,-227.59 400.74,-246.32"/>
<polygon fill="midnightblue" stroke="midnightblue" points="384.6,-156.45 377.84,-148.28 378.03,-158.88 384.6,-156.45"/>
</g>
<!-- Node4 -->
<g id="node4" class="node">
<title>Node4</title>
<g id="a_node4"><a xlink:href="_g_shape_8cpp.html" target="_top" xlink:title=" ">
<polygon fill="white" stroke="black" points="262,-62 262,-81 388,-81 388,-62 262,-62"/>
<text text-anchor="middle" x="325" y="-69" font-family="Helvetica,sans-Serif" font-size="10.00">src/graphics/GShape.cpp</text>
</a>
</g>
</g>
<!-- Node3&#45;&gt;Node4 -->
<g id="edge3" class="edge">
<title>Node3&#45;&gt;Node4</title>
<path fill="none" stroke="midnightblue" d="M359.64,-120.4C350.51,-107.77 338.45,-91.1 331.24,-81.13"/>
<polygon fill="midnightblue" stroke="midnightblue" points="356.97,-122.68 365.66,-128.73 362.64,-118.58 356.97,-122.68"/>
</g>
<!-- Node3&#45;&gt;Node5 -->
<g id="edge4" class="edge">
<title>Node3&#45;&gt;Node5</title>
<path fill="none" stroke="midnightblue" d="M394.07,-123.15C410.81,-112.27 433.69,-97.4 450.32,-86.59"/>
<polygon fill="midnightblue" stroke="midnightblue" points="391.96,-120.35 385.49,-128.73 395.78,-126.22 391.96,-120.35"/>
</g>
<!-- Node6 -->
<g id="node6" class="node">
<title>Node6</title>
<g id="a_node6"><a xlink:href="_drawable_8cpp.html" target="_top" xlink:title=" ">
<polygon fill="white" stroke="black" points="278.5,-0.5 278.5,-19.5 401.5,-19.5 401.5,-0.5 278.5,-0.5"/>
<text text-anchor="middle" x="340" y="-7.5" font-family="Helvetica,sans-Serif" font-size="10.00">src/engine/Drawable.cpp</text>
</a>
</g>
</g>
<!-- Node5&#45;&gt;Node6 -->
<g id="edge5" class="edge">
<title>Node5&#45;&gt;Node6</title>
<path fill="none" stroke="midnightblue" d="M431.46,-52.23C407.43,-41.39 378.07,-28.16 359.21,-19.66"/>
<polygon fill="midnightblue" stroke="midnightblue" points="430.16,-55.48 440.72,-56.4 433.04,-49.1 430.16,-55.48"/>
</g>
<!-- Node7 -->
<g id="node7" class="node">
<title>Node7</title>
<g id="a_node7"><a xlink:href="_field_8cpp.html" target="_top" xlink:title=" ">
<polygon fill="white" stroke="black" points="420,-0.5 420,-19.5 524,-19.5 524,-0.5 420,-0.5"/>
<text text-anchor="middle" x="472" y="-7.5" font-family="Helvetica,sans-Serif" font-size="10.00">src/engine/Field.cpp</text>
</a>
</g>
</g>
<!-- Node5&#45;&gt;Node7 -->
<g id="edge6" class="edge">
<title>Node5&#45;&gt;Node7</title>
<path fill="none" stroke="midnightblue" d="M472,-46.29C472,-36.86 472,-26.65 472,-19.66"/>
<polygon fill="midnightblue" stroke="midnightblue" points="468.5,-46.4 472,-56.4 475.5,-46.4 468.5,-46.4"/>
</g>
<!-- Node8 -->
<g id="node8" class="node">
<title>Node8</title>
<g id="a_node8"><a xlink:href="_engine_8cpp.html" target="_top" xlink:title=" ">
<polygon fill="white" stroke="black" points="542,-0.5 542,-19.5 622,-19.5 622,-0.5 542,-0.5"/>
<text text-anchor="middle" x="582" y="-7.5" font-family="Helvetica,sans-Serif" font-size="10.00">src/Engine.cpp</text>
</a>
</g>
</g>
<!-- Node5&#45;&gt;Node8 -->
<g id="edge7" class="edge">
<title>Node5&#45;&gt;Node8</title>
<path fill="none" stroke="midnightblue" d="M507.12,-51.51C526.89,-40.81 550.62,-27.97 565.99,-19.66"/>
<polygon fill="midnightblue" stroke="midnightblue" points="505.2,-48.56 498.07,-56.4 508.53,-54.72 505.2,-48.56"/>
</g>
<!-- Node9 -->
<g id="node9" class="node">
<title>Node9</title>
<g id="a_node9"><a xlink:href="_event_handler_8cpp.html" target="_top" xlink:title=" ">
<polygon fill="white" stroke="black" points="640.5,-0.5 640.5,-19.5 811.5,-19.5 811.5,-0.5 640.5,-0.5"/>
<text text-anchor="middle" x="726" y="-7.5" font-family="Helvetica,sans-Serif" font-size="10.00">src/EventHandler/EventHandler.cpp</text>
</a>
</g>
</g>
<!-- Node5&#45;&gt;Node9 -->
<g id="edge8" class="edge">
<title>Node5&#45;&gt;Node9</title>
<path fill="none" stroke="midnightblue" d="M541.87,-54.13C589.73,-42.92 651.28,-28.5 689.69,-19.51"/>
<polygon fill="midnightblue" stroke="midnightblue" points="540.81,-50.79 531.87,-56.47 542.41,-57.6 540.81,-50.79"/>
</g>
<!-- Node10 -->
<g id="node10" class="node">
<title>Node10</title>
<g id="a_node10"><a xlink:href="_resource_manager_8cpp.html" target="_top" xlink:title=" ">
<polygon fill="white" stroke="black" points="0,-0.5 0,-19.5 170,-19.5 170,-0.5 0,-0.5"/>
<text text-anchor="middle" x="85" y="-7.5" font-family="Helvetica,sans-Serif" font-size="10.00">src/graphics/ResourceManager.cpp</text>
</a>
</g>
</g>
<!-- Node5&#45;&gt;Node10 -->
<g id="edge9" class="edge">
<title>Node5&#45;&gt;Node10</title>
<path fill="none" stroke="midnightblue" d="M396.25,-55.92C305.27,-40.73 211.59,-27.68 150.58,-19.53"/>
<polygon fill="midnightblue" stroke="midnightblue" points="395.74,-59.39 406.18,-57.59 396.9,-52.48 395.74,-59.39"/>
</g>
<!-- Node11 -->
<g id="node11" class="node">
<title>Node11</title>
<g id="a_node11"><a xlink:href="main_8cpp.html" target="_top" xlink:title=" ">
<polygon fill="white" stroke="black" points="188,-0.5 188,-19.5 260,-19.5 260,-0.5 188,-0.5"/>
<text text-anchor="middle" x="224" y="-7.5" font-family="Helvetica,sans-Serif" font-size="10.00">src/main.cpp</text>
</a>
</g>
</g>
<!-- Node5&#45;&gt;Node11 -->
<g id="edge10" class="edge">
<title>Node5&#45;&gt;Node11</title>
<path fill="none" stroke="midnightblue" d="M403.78,-54.13C357.05,-42.92 296.96,-28.5 259.46,-19.51"/>
<polygon fill="midnightblue" stroke="midnightblue" points="403,-57.55 413.54,-56.47 404.63,-50.74 403,-57.55"/>
</g>
<!-- Node12&#45;&gt;Node3 -->
<g id="edge18" class="edge">
<title>Node12&#45;&gt;Node3</title>
<path fill="none" stroke="midnightblue" d="M533.44,-187.53C494.57,-175.96 435.48,-158.38 400.6,-148.01"/>
<polygon fill="midnightblue" stroke="midnightblue" points="532.76,-190.98 543.34,-190.48 534.76,-184.27 532.76,-190.98"/>
</g>
<!-- Node13 -->
<g id="node13" class="node">
<title>Node13</title>
<g id="a_node13"><a xlink:href="_window_8cpp.html" target="_top" xlink:title=" ">
<polygon fill="white" stroke="black" points="635.5,-129 635.5,-148 760.5,-148 760.5,-129 635.5,-129"/>
<text text-anchor="middle" x="698" y="-136" font-family="Helvetica,sans-Serif" font-size="10.00">src/graphics/Window.cpp</text>
</a>
</g>
</g>
<!-- Node12&#45;&gt;Node13 -->
<g id="edge14" class="edge">
<title>Node12&#45;&gt;Node13</title>
<path fill="none" stroke="midnightblue" d="M599.16,-186.17C623.61,-174.63 658.85,-157.99 679.98,-148.01"/>
<polygon fill="midnightblue" stroke="midnightblue" points="597.6,-183.04 590.05,-190.48 600.59,-189.37 597.6,-183.04"/>
</g>
<!-- Node14 -->
<g id="node14" class="node">
<title>Node14</title>
<g id="a_node14"><a xlink:href="_event_handler_8hpp.html" target="_top" xlink:title=" ">
<polygon fill="white" stroke="black" points="508.5,-123.5 508.5,-153.5 617.5,-153.5 617.5,-123.5 508.5,-123.5"/>
<text text-anchor="start" x="516.5" y="-141.5" font-family="Helvetica,sans-Serif" font-size="10.00">include/EventHandler</text>
<text text-anchor="middle" x="563" y="-130.5" font-family="Helvetica,sans-Serif" font-size="10.00">/EventHandler.hpp</text>
</a>
</g>
</g>
<!-- Node12&#45;&gt;Node14 -->
<g id="edge15" class="edge">
<title>Node12&#45;&gt;Node14</title>
<path fill="none" stroke="midnightblue" d="M569.21,-180.53C567.89,-171.81 566.34,-161.59 565.12,-153.52"/>
<polygon fill="midnightblue" stroke="midnightblue" points="565.75,-181.11 570.71,-190.48 572.68,-180.06 565.75,-181.11"/>
</g>
<!-- Node14&#45;&gt;Node5 -->
<g id="edge17" class="edge">
<title>Node14&#45;&gt;Node5</title>
<path fill="none" stroke="midnightblue" d="M534.93,-117.45C520.93,-107.45 504.34,-95.6 491.71,-86.58"/>
<polygon fill="midnightblue" stroke="midnightblue" points="533.08,-120.43 543.25,-123.4 537.15,-114.74 533.08,-120.43"/>
</g>
<!-- Node14&#45;&gt;Node9 -->
<g id="edge16" class="edge">
<title>Node14&#45;&gt;Node9</title>
<path fill="none" stroke="midnightblue" d="M589.19,-117.17C625.32,-89.13 688.91,-39.79 714.68,-19.79"/>
<polygon fill="midnightblue" stroke="midnightblue" points="586.82,-114.58 581.07,-123.48 591.11,-120.11 586.82,-114.58"/>
</g>
</g>
</svg>
