<?xml version="1.0" encoding="UTF-8" standalone="no"?>
<!DOCTYPE svg PUBLIC "-//W3C//DTD SVG 1.1//EN"
 "http://www.w3.org/Graphics/SVG/1.1/DTD/svg11.dtd">
<!-- Generated by graphviz version 2.47.0 (20210407.0042)
 -->
<!-- Title: include/graphics/Shader.hpp Pages: 1 -->
<svg width="630pt" height="263pt"
 viewBox="0.00 0.00 629.50 263.00" xmlns="http://www.w3.org/2000/svg" xmlns:xlink="http://www.w3.org/1999/xlink">
<g id="graph0" class="graph" transform="scale(1 1) rotate(0) translate(4 259)">
<title>include/graphics/Shader.hpp</title>
<polygon fill="white" stroke="transparent" points="-4,4 -4,-259 625.5,-259 625.5,4 -4,4"/>
<!-- Node1 -->
<g id="node1" class="node">
<title>Node1</title>
<g id="a_node1"><a xlink:title=" ">
<polygon fill="#bfbfbf" stroke="black" points="307,-235.5 307,-254.5 446,-254.5 446,-235.5 307,-235.5"/>
<text text-anchor="middle" x="376.5" y="-242.5" font-family="Helvetica,sans-Serif" font-size="10.00">include/graphics/Shader.hpp</text>
</a>
</g>
</g>
<!-- Node2 -->
<g id="node2" class="node">
<title>Node2</title>
<g id="a_node2"><a xlink:href="_shader_8cpp.html" target="_top" xlink:title=" ">
<polygon fill="white" stroke="black" points="153.5,-179.5 153.5,-198.5 275.5,-198.5 275.5,-179.5 153.5,-179.5"/>
<text text-anchor="middle" x="214.5" y="-186.5" font-family="Helvetica,sans-Serif" font-size="10.00">src/graphics/Shader.cpp</text>
</a>
</g>
</g>
<!-- Node1&#45;&gt;Node2 -->
<g id="edge1" class="edge">
<title>Node1&#45;&gt;Node2</title>
<path fill="none" stroke="midnightblue" d="M341.02,-232.17C310.51,-222 267.26,-207.59 240.05,-198.52"/>
<polygon fill="midnightblue" stroke="midnightblue" points="340.24,-235.6 350.83,-235.44 342.45,-228.96 340.24,-235.6"/>
</g>
<!-- Node3 -->
<g id="node3" class="node">
<title>Node3</title>
<g id="a_node3"><a xlink:href="_g_shape_8hpp.html" target="_top" xlink:title=" ">
<polygon fill="white" stroke="black" points="332,-123.5 332,-142.5 475,-142.5 475,-123.5 332,-123.5"/>
<text text-anchor="middle" x="403.5" y="-130.5" font-family="Helvetica,sans-Serif" font-size="10.00">include/graphics/GShape.hpp</text>
</a>
</g>
</g>
<!-- Node1&#45;&gt;Node3 -->
<g id="edge2" class="edge">
<title>Node1&#45;&gt;Node3</title>
<path fill="none" stroke="midnightblue" d="M375.86,-225.35C379.34,-201.25 389.85,-160.31 397.56,-142.59"/>
<polygon fill="midnightblue" stroke="midnightblue" points="372.37,-225.05 374.78,-235.37 379.33,-225.8 372.37,-225.05"/>
</g>
<!-- Node5 -->
<g id="node5" class="node">
<title>Node5</title>
<g id="a_node5"><a xlink:href="_resource_manager_8hpp.html" target="_top" xlink:title=" ">
<polygon fill="white" stroke="black" points="238,-56.5 238,-86.5 369,-86.5 369,-56.5 238,-56.5"/>
<text text-anchor="start" x="246" y="-74.5" font-family="Helvetica,sans-Serif" font-size="10.00">include/graphics/Resource</text>
<text text-anchor="middle" x="303.5" y="-63.5" font-family="Helvetica,sans-Serif" font-size="10.00">Manager.hpp</text>
</a>
</g>
</g>
<!-- Node1&#45;&gt;Node5 -->
<g id="edge11" class="edge">
<title>Node1&#45;&gt;Node5</title>
<path fill="none" stroke="midnightblue" d="M365.67,-226.69C353.74,-207.03 334.65,-173.68 322.5,-143 314.98,-124.03 309.41,-101.03 306.3,-86.58"/>
<polygon fill="midnightblue" stroke="midnightblue" points="362.81,-228.73 371.03,-235.41 368.77,-225.06 362.81,-228.73"/>
</g>
<!-- Node11 -->
<g id="node11" class="node">
<title>Node11</title>
<g id="a_node11"><a xlink:href="_window_8hpp.html" target="_top" xlink:title=" ">
<polygon fill="white" stroke="black" points="414,-179.5 414,-198.5 557,-198.5 557,-179.5 414,-179.5"/>
<text text-anchor="middle" x="485.5" y="-186.5" font-family="Helvetica,sans-Serif" font-size="10.00">include/graphics/Window.hpp</text>
</a>
</g>
</g>
<!-- Node1&#45;&gt;Node11 -->
<g id="edge12" class="edge">
<title>Node1&#45;&gt;Node11</title>
<path fill="none" stroke="midnightblue" d="M403.02,-230.86C423.23,-220.85 450.49,-207.35 468.03,-198.65"/>
<polygon fill="midnightblue" stroke="midnightblue" points="401.42,-227.75 394.01,-235.32 404.53,-234.02 401.42,-227.75"/>
</g>
<!-- Node3&#45;&gt;Node1 -->
<g id="edge10" class="edge">
<title>Node3&#45;&gt;Node1</title>
<path fill="none" stroke="midnightblue" d="M404.15,-152.6C400.67,-176.67 390.17,-217.62 382.46,-235.37"/>
<polygon fill="midnightblue" stroke="midnightblue" points="407.63,-152.91 405.23,-142.59 400.67,-152.16 407.63,-152.91"/>
</g>
<!-- Node4 -->
<g id="node4" class="node">
<title>Node4</title>
<g id="a_node4"><a xlink:href="_g_shape_8cpp.html" target="_top" xlink:title=" ">
<polygon fill="white" stroke="black" points="387.5,-62 387.5,-81 513.5,-81 513.5,-62 387.5,-62"/>
<text text-anchor="middle" x="450.5" y="-69" font-family="Helvetica,sans-Serif" font-size="10.00">src/graphics/GShape.cpp</text>
</a>
</g>
</g>
<!-- Node3&#45;&gt;Node4 -->
<g id="edge3" class="edge">
<title>Node3&#45;&gt;Node4</title>
<path fill="none" stroke="midnightblue" d="M416.66,-115.34C425.48,-104.17 436.73,-89.93 443.78,-81.01"/>
<polygon fill="midnightblue" stroke="midnightblue" points="413.69,-113.46 410.23,-123.48 419.18,-117.8 413.69,-113.46"/>
</g>
<!-- Node3&#45;&gt;Node5 -->
<g id="edge4" class="edge">
<title>Node3&#45;&gt;Node5</title>
<path fill="none" stroke="midnightblue" d="M380.43,-118.28C364.43,-108.75 343.18,-96.11 327.07,-86.52"/>
<polygon fill="midnightblue" stroke="midnightblue" points="378.79,-121.37 389.17,-123.48 382.37,-115.35 378.79,-121.37"/>
</g>
<!-- Node6 -->
<g id="node6" class="node">
<title>Node6</title>
<g id="a_node6"><a xlink:href="_drawable_8cpp.html" target="_top" xlink:title=" ">
<polygon fill="white" stroke="black" points="0,-0.5 0,-19.5 123,-19.5 123,-0.5 0,-0.5"/>
<text text-anchor="middle" x="61.5" y="-7.5" font-family="Helvetica,sans-Serif" font-size="10.00">src/engine/Drawable.cpp</text>
</a>
</g>
</g>
<!-- Node5&#45;&gt;Node6 -->
<g id="edge5" class="edge">
<title>Node5&#45;&gt;Node6</title>
<path fill="none" stroke="midnightblue" d="M236.65,-54.06C191.08,-42.86 132.62,-28.49 96.1,-19.51"/>
<polygon fill="midnightblue" stroke="midnightblue" points="235.91,-57.49 246.46,-56.47 237.58,-50.69 235.91,-57.49"/>
</g>
<!-- Node7 -->
<g id="node7" class="node">
<title>Node7</title>
<g id="a_node7"><a xlink:href="_field_8cpp.html" target="_top" xlink:title=" ">
<polygon fill="white" stroke="black" points="141.5,-0.5 141.5,-19.5 245.5,-19.5 245.5,-0.5 141.5,-0.5"/>
<text text-anchor="middle" x="193.5" y="-7.5" font-family="Helvetica,sans-Serif" font-size="10.00">src/engine/Field.cpp</text>
</a>
</g>
</g>
<!-- Node5&#45;&gt;Node7 -->
<g id="edge6" class="edge">
<title>Node5&#45;&gt;Node7</title>
<path fill="none" stroke="midnightblue" d="M268.38,-51.51C248.61,-40.81 224.88,-27.97 209.51,-19.66"/>
<polygon fill="midnightblue" stroke="midnightblue" points="266.97,-54.72 277.43,-56.4 270.3,-48.56 266.97,-54.72"/>
</g>
<!-- Node8 -->
<g id="node8" class="node">
<title>Node8</title>
<g id="a_node8"><a xlink:href="_engine_8cpp.html" target="_top" xlink:title=" ">
<polygon fill="white" stroke="black" points="263.5,-0.5 263.5,-19.5 343.5,-19.5 343.5,-0.5 263.5,-0.5"/>
<text text-anchor="middle" x="303.5" y="-7.5" font-family="Helvetica,sans-Serif" font-size="10.00">src/Engine.cpp</text>
</a>
</g>
</g>
<!-- Node5&#45;&gt;Node8 -->
<g id="edge7" class="edge">
<title>Node5&#45;&gt;Node8</title>
<path fill="none" stroke="midnightblue" d="M303.5,-46.29C303.5,-36.86 303.5,-26.65 303.5,-19.66"/>
<polygon fill="midnightblue" stroke="midnightblue" points="300,-46.4 303.5,-56.4 307,-46.4 300,-46.4"/>
</g>
<!-- Node9 -->
<g id="node9" class="node">
<title>Node9</title>
<g id="a_node9"><a xlink:href="_resource_manager_8cpp.html" target="_top" xlink:title=" ">
<polygon fill="white" stroke="black" points="361.5,-0.5 361.5,-19.5 531.5,-19.5 531.5,-0.5 361.5,-0.5"/>
<text text-anchor="middle" x="446.5" y="-7.5" font-family="Helvetica,sans-Serif" font-size="10.00">src/graphics/ResourceManager.cpp</text>
</a>
</g>
</g>
<!-- Node5&#45;&gt;Node9 -->
<g id="edge8" class="edge">
<title>Node5&#45;&gt;Node9</title>
<path fill="none" stroke="midnightblue" d="M346.72,-52.52C372.89,-41.63 405.08,-28.23 425.69,-19.66"/>
<polygon fill="midnightblue" stroke="midnightblue" points="345.28,-49.33 337.39,-56.4 347.97,-55.79 345.28,-49.33"/>
</g>
<!-- Node10 -->
<g id="node10" class="node">
<title>Node10</title>
<g id="a_node10"><a xlink:href="main_8cpp.html" target="_top" xlink:title=" ">
<polygon fill="white" stroke="black" points="549.5,-0.5 549.5,-19.5 621.5,-19.5 621.5,-0.5 549.5,-0.5"/>
<text text-anchor="middle" x="585.5" y="-7.5" font-family="Helvetica,sans-Serif" font-size="10.00">src/main.cpp</text>
</a>
</g>
</g>
<!-- Node5&#45;&gt;Node10 -->
<g id="edge9" class="edge">
<title>Node5&#45;&gt;Node10</title>
<path fill="none" stroke="midnightblue" d="M379.35,-54.5C434.51,-42.86 506.73,-27.62 549.41,-18.61"/>
<polygon fill="midnightblue" stroke="midnightblue" points="378.32,-51.14 369.26,-56.62 379.77,-57.99 378.32,-51.14"/>
</g>
<!-- Node11&#45;&gt;Node3 -->
<g id="edge14" class="edge">
<title>Node11&#45;&gt;Node3</title>
<path fill="none" stroke="midnightblue" d="M463.67,-173.62C448.69,-163.76 429.3,-150.99 416.64,-142.65"/>
<polygon fill="midnightblue" stroke="midnightblue" points="462.05,-176.75 472.33,-179.32 465.9,-170.9 462.05,-176.75"/>
</g>
<!-- Node12 -->
<g id="node12" class="node">
<title>Node12</title>
<g id="a_node12"><a xlink:href="_window_8cpp.html" target="_top" xlink:title=" ">
<polygon fill="white" stroke="black" points="493,-123.5 493,-142.5 618,-142.5 618,-123.5 493,-123.5"/>
<text text-anchor="middle" x="555.5" y="-130.5" font-family="Helvetica,sans-Serif" font-size="10.00">src/graphics/Window.cpp</text>
</a>
</g>
</g>
<!-- Node11&#45;&gt;Node12 -->
<g id="edge13" class="edge">
<title>Node11&#45;&gt;Node12</title>
<path fill="none" stroke="midnightblue" d="M504.81,-173.1C517.41,-163.38 533.43,-151.03 544.05,-142.83"/>
<polygon fill="midnightblue" stroke="midnightblue" points="502.53,-170.44 496.75,-179.32 506.8,-175.99 502.53,-170.44"/>
</g>
</g>
</svg>
