<?xml version="1.0" encoding="UTF-8" standalone="no"?>
<!DOCTYPE svg PUBLIC "-//W3C//DTD SVG 1.1//EN"
 "http://www.w3.org/Graphics/SVG/1.1/DTD/svg11.dtd">
<!-- Generated by graphviz version 2.47.1 (20210421.1823)
 -->
<!-- Title: src/graphics/Shader.cpp Pages: 1 -->
<svg width="493pt" height="308pt"
 viewBox="0.00 0.00 493.00 308.00" xmlns="http://www.w3.org/2000/svg" xmlns:xlink="http://www.w3.org/1999/xlink">
<g id="graph0" class="graph" transform="scale(1 1) rotate(0) translate(4 304)">
<title>src/graphics/Shader.cpp</title>
<polygon fill="white" stroke="transparent" points="-4,4 -4,-304 489,-304 489,4 -4,4"/>
<!-- Node1 -->
<g id="node1" class="node">
<title>Node1</title>
<g id="a_node1"><a xlink:title=" ">
<polygon fill="#bfbfbf" stroke="black" points="96.5,-280.5 96.5,-299.5 218.5,-299.5 218.5,-280.5 96.5,-280.5"/>
<text text-anchor="middle" x="157.5" y="-287.5" font-family="Helvetica,sans-Serif" font-size="10.00">src/graphics/Shader.cpp</text>
</a>
</g>
</g>
<!-- Node2 -->
<g id="node2" class="node">
<title>Node2</title>
<g id="a_node2"><a xlink:title=" ">
<polygon fill="white" stroke="#bfbfbf" points="0,-56.5 0,-75.5 63,-75.5 63,-56.5 0,-56.5"/>
<text text-anchor="middle" x="31.5" y="-63.5" font-family="Helvetica,sans-Serif" font-size="10.00">glad/glad.h</text>
</a>
</g>
</g>
<!-- Node1&#45;&gt;Node2 -->
<g id="edge1" class="edge">
<title>Node1&#45;&gt;Node2</title>
<path fill="none" stroke="midnightblue" d="M131.11,-280.39C113.44,-273.31 91.02,-261.55 77.5,-244 40.42,-195.86 33.07,-120.79 31.73,-85.95"/>
<polygon fill="midnightblue" stroke="midnightblue" points="35.22,-85.68 31.46,-75.77 28.22,-85.86 35.22,-85.68"/>
</g>
<!-- Node3 -->
<g id="node3" class="node">
<title>Node3</title>
<g id="a_node3"><a xlink:title=" ">
<polygon fill="white" stroke="#bfbfbf" points="81,-56.5 81,-75.5 160,-75.5 160,-56.5 81,-56.5"/>
<text text-anchor="middle" x="120.5" y="-63.5" font-family="Helvetica,sans-Serif" font-size="10.00">GLFW/glfw3.h</text>
</a>
</g>
</g>
<!-- Node1&#45;&gt;Node3 -->
<g id="edge2" class="edge">
<title>Node1&#45;&gt;Node3</title>
<path fill="none" stroke="midnightblue" d="M133.71,-280.5C117.78,-273.41 98.04,-261.61 88.5,-244 59.92,-191.25 92.26,-117.98 110.18,-84.71"/>
<polygon fill="midnightblue" stroke="midnightblue" points="113.37,-86.17 115.19,-75.73 107.26,-82.75 113.37,-86.17"/>
</g>
<!-- Node4 -->
<g id="node4" class="node">
<title>Node4</title>
<g id="a_node4"><a xlink:title=" ">
<polygon fill="white" stroke="#bfbfbf" points="97.5,-224.5 97.5,-243.5 147.5,-243.5 147.5,-224.5 97.5,-224.5"/>
<text text-anchor="middle" x="122.5" y="-231.5" font-family="Helvetica,sans-Serif" font-size="10.00">fstream</text>
</a>
</g>
</g>
<!-- Node1&#45;&gt;Node4 -->
<g id="edge3" class="edge">
<title>Node1&#45;&gt;Node4</title>
<path fill="none" stroke="midnightblue" d="M151.72,-280.08C146.83,-272.53 139.67,-261.49 133.67,-252.23"/>
<polygon fill="midnightblue" stroke="midnightblue" points="136.55,-250.24 128.17,-243.75 130.67,-254.05 136.55,-250.24"/>
</g>
<!-- Node5 -->
<g id="node5" class="node">
<title>Node5</title>
<g id="a_node5"><a xlink:title=" ">
<polygon fill="white" stroke="#bfbfbf" points="165.5,-224.5 165.5,-243.5 219.5,-243.5 219.5,-224.5 165.5,-224.5"/>
<text text-anchor="middle" x="192.5" y="-231.5" font-family="Helvetica,sans-Serif" font-size="10.00">iostream</text>
</a>
</g>
</g>
<!-- Node1&#45;&gt;Node5 -->
<g id="edge4" class="edge">
<title>Node1&#45;&gt;Node5</title>
<path fill="none" stroke="midnightblue" d="M163.28,-280.08C168.17,-272.53 175.33,-261.49 181.33,-252.23"/>
<polygon fill="midnightblue" stroke="midnightblue" points="184.33,-254.05 186.83,-243.75 178.45,-250.24 184.33,-254.05"/>
</g>
<!-- Node6 -->
<g id="node6" class="node">
<title>Node6</title>
<g id="a_node6"><a xlink:title=" ">
<polygon fill="white" stroke="#bfbfbf" points="237.5,-224.5 237.5,-243.5 275.5,-243.5 275.5,-224.5 237.5,-224.5"/>
<text text-anchor="middle" x="256.5" y="-231.5" font-family="Helvetica,sans-Serif" font-size="10.00">tuple</text>
</a>
</g>
</g>
<!-- Node1&#45;&gt;Node6 -->
<g id="edge5" class="edge">
<title>Node1&#45;&gt;Node6</title>
<path fill="none" stroke="midnightblue" d="M173.41,-280.32C189.14,-271.74 213.44,-258.49 231.71,-248.52"/>
<polygon fill="midnightblue" stroke="midnightblue" points="233.53,-251.52 240.63,-243.65 230.18,-245.37 233.53,-251.52"/>
</g>
<!-- Node7 -->
<g id="node7" class="node">
<title>Node7</title>
<g id="a_node7"><a xlink:href="_shader_8hpp.html" target="_top" xlink:title=" ">
<polygon fill="white" stroke="black" points="294,-224.5 294,-243.5 399,-243.5 399,-224.5 294,-224.5"/>
<text text-anchor="middle" x="346.5" y="-231.5" font-family="Helvetica,sans-Serif" font-size="10.00">graphics/Shader.hpp</text>
</a>
</g>
</g>
<!-- Node1&#45;&gt;Node7 -->
<g id="edge6" class="edge">
<title>Node1&#45;&gt;Node7</title>
<path fill="none" stroke="midnightblue" d="M187.45,-280.44C219.66,-271.24 271.03,-256.56 306.64,-246.39"/>
<polygon fill="midnightblue" stroke="midnightblue" points="308.04,-249.63 316.69,-243.52 306.12,-242.9 308.04,-249.63"/>
</g>
<!-- Node8 -->
<g id="node8" class="node">
<title>Node8</title>
<g id="a_node8"><a xlink:title=" ">
<polygon fill="white" stroke="#bfbfbf" points="393,-168.5 393,-187.5 434,-187.5 434,-168.5 393,-168.5"/>
<text text-anchor="middle" x="413.5" y="-175.5" font-family="Helvetica,sans-Serif" font-size="10.00">string</text>
</a>
</g>
</g>
<!-- Node7&#45;&gt;Node8 -->
<g id="edge7" class="edge">
<title>Node7&#45;&gt;Node8</title>
<path fill="none" stroke="midnightblue" d="M357.26,-224.32C367.27,-216.26 382.39,-204.08 394.43,-194.37"/>
<polygon fill="midnightblue" stroke="midnightblue" points="396.95,-196.83 402.54,-187.83 392.56,-191.38 396.95,-196.83"/>
</g>
<!-- Node9 -->
<g id="node9" class="node">
<title>Node9</title>
<g id="a_node9"><a xlink:href="_g_shape_8hpp.html" target="_top" xlink:title=" ">
<polygon fill="white" stroke="black" points="264.5,-168.5 264.5,-187.5 374.5,-187.5 374.5,-168.5 264.5,-168.5"/>
<text text-anchor="middle" x="319.5" y="-175.5" font-family="Helvetica,sans-Serif" font-size="10.00">graphics/GShape.hpp</text>
</a>
</g>
</g>
<!-- Node7&#45;&gt;Node9 -->
<g id="edge8" class="edge">
<title>Node7&#45;&gt;Node9</title>
<path fill="none" stroke="midnightblue" d="M336.88,-224.08C331.73,-216.85 326.09,-206.41 322.26,-197.4"/>
<polygon fill="midnightblue" stroke="midnightblue" points="325.46,-195.95 318.74,-187.75 318.88,-198.35 325.46,-195.95"/>
</g>
<!-- Node13 -->
<g id="node13" class="node">
<title>Node13</title>
<g id="a_node13"><a xlink:href="_transform_8hpp.html" target="_top" xlink:title=" ">
<polygon fill="white" stroke="black" points="366,-56.5 366,-75.5 485,-75.5 485,-56.5 366,-56.5"/>
<text text-anchor="middle" x="425.5" y="-63.5" font-family="Helvetica,sans-Serif" font-size="10.00">graphics/Transform.hpp</text>
</a>
</g>
</g>
<!-- Node7&#45;&gt;Node13 -->
<g id="edge22" class="edge">
<title>Node7&#45;&gt;Node13</title>
<path fill="none" stroke="midnightblue" d="M388.89,-224.45C409.08,-218.02 431.41,-206.93 443.5,-188 463.89,-156.06 447.12,-109.87 435.08,-84.8"/>
<polygon fill="midnightblue" stroke="midnightblue" points="438.12,-83.07 430.48,-75.74 431.88,-86.24 438.12,-83.07"/>
</g>
<!-- Node9&#45;&gt;Node7 -->
<g id="edge17" class="edge">
<title>Node9&#45;&gt;Node7</title>
<path fill="none" stroke="midnightblue" d="M329.01,-187.75C334.2,-195.01 339.92,-205.59 343.77,-214.69"/>
<polygon fill="midnightblue" stroke="midnightblue" points="340.49,-215.89 347.21,-224.08 347.06,-213.49 340.49,-215.89"/>
</g>
<!-- Node10 -->
<g id="node10" class="node">
<title>Node10</title>
<g id="a_node10"><a xlink:href="_window_8hpp.html" target="_top" xlink:title=" ">
<polygon fill="white" stroke="black" points="143,-112.5 143,-131.5 252,-131.5 252,-112.5 143,-112.5"/>
<text text-anchor="middle" x="197.5" y="-119.5" font-family="Helvetica,sans-Serif" font-size="10.00">graphics/Window.hpp</text>
</a>
</g>
</g>
<!-- Node9&#45;&gt;Node10 -->
<g id="edge9" class="edge">
<title>Node9&#45;&gt;Node10</title>
<path fill="none" stroke="midnightblue" d="M300.17,-168.44C280.18,-159.6 248.76,-145.69 225.94,-135.59"/>
<polygon fill="midnightblue" stroke="midnightblue" points="227.3,-132.36 216.74,-131.52 224.47,-138.76 227.3,-132.36"/>
</g>
<!-- Node9&#45;&gt;Node13 -->
<g id="edge18" class="edge">
<title>Node9&#45;&gt;Node13</title>
<path fill="none" stroke="midnightblue" d="M338.9,-168.43C354.63,-160.71 376.58,-148.11 391.5,-132 404.05,-118.45 413.29,-99.39 418.95,-85.41"/>
<polygon fill="midnightblue" stroke="midnightblue" points="422.29,-86.48 422.57,-75.89 415.74,-83.99 422.29,-86.48"/>
</g>
<!-- Node15 -->
<g id="node15" class="node">
<title>Node15</title>
<g id="a_node15"><a xlink:href="_vector2_d_8hpp.html" target="_top" xlink:title=" ">
<polygon fill="white" stroke="black" points="270.5,-112.5 270.5,-131.5 382.5,-131.5 382.5,-112.5 270.5,-112.5"/>
<text text-anchor="middle" x="326.5" y="-119.5" font-family="Helvetica,sans-Serif" font-size="10.00">Helpers/Vector2D.hpp</text>
</a>
</g>
</g>
<!-- Node9&#45;&gt;Node15 -->
<g id="edge19" class="edge">
<title>Node9&#45;&gt;Node15</title>
<path fill="none" stroke="midnightblue" d="M320.66,-168.08C321.58,-160.93 322.92,-150.64 324.08,-141.69"/>
<polygon fill="midnightblue" stroke="midnightblue" points="327.55,-142.12 325.37,-131.75 320.61,-141.22 327.55,-142.12"/>
</g>
<!-- Node10&#45;&gt;Node2 -->
<g id="edge10" class="edge">
<title>Node10&#45;&gt;Node2</title>
<path fill="none" stroke="midnightblue" d="M171.2,-112.44C143.15,-103.32 98.56,-88.81 67.32,-78.65"/>
<polygon fill="midnightblue" stroke="midnightblue" points="68.27,-75.28 57.68,-75.52 66.11,-81.94 68.27,-75.28"/>
</g>
<!-- Node10&#45;&gt;Node3 -->
<g id="edge11" class="edge">
<title>Node10&#45;&gt;Node3</title>
<path fill="none" stroke="midnightblue" d="M185.13,-112.32C173.34,-104.06 155.37,-91.45 141.36,-81.63"/>
<polygon fill="midnightblue" stroke="midnightblue" points="143.04,-78.53 132.84,-75.65 139.02,-84.26 143.04,-78.53"/>
</g>
<!-- Node10&#45;&gt;Node7 -->
<g id="edge14" class="edge">
<title>Node10&#45;&gt;Node7</title>
<path fill="none" stroke="midnightblue" d="M203.43,-131.53C213.08,-144.94 233.36,-171.14 255.5,-188 273.33,-201.58 295.9,-212.77 314.1,-220.59"/>
<polygon fill="midnightblue" stroke="midnightblue" points="312.86,-223.87 323.43,-224.48 315.55,-217.41 312.86,-223.87"/>
</g>
<!-- Node11 -->
<g id="node11" class="node">
<title>Node11</title>
<g id="a_node11"><a xlink:title=" ">
<polygon fill="white" stroke="#bfbfbf" points="244,-56.5 244,-75.5 283,-75.5 283,-56.5 244,-56.5"/>
<text text-anchor="middle" x="263.5" y="-63.5" font-family="Helvetica,sans-Serif" font-size="10.00">utility</text>
</a>
</g>
</g>
<!-- Node10&#45;&gt;Node11 -->
<g id="edge12" class="edge">
<title>Node10&#45;&gt;Node11</title>
<path fill="none" stroke="midnightblue" d="M208.1,-112.32C217.96,-104.26 232.85,-92.08 244.72,-82.37"/>
<polygon fill="midnightblue" stroke="midnightblue" points="247.18,-84.88 252.7,-75.83 242.75,-79.46 247.18,-84.88"/>
</g>
<!-- Node12 -->
<g id="node12" class="node">
<title>Node12</title>
<g id="a_node12"><a xlink:title=" ">
<polygon fill="white" stroke="#bfbfbf" points="177.5,-56.5 177.5,-75.5 221.5,-75.5 221.5,-56.5 177.5,-56.5"/>
<text text-anchor="middle" x="199.5" y="-63.5" font-family="Helvetica,sans-Serif" font-size="10.00">vector</text>
</a>
</g>
</g>
<!-- Node10&#45;&gt;Node12 -->
<g id="edge13" class="edge">
<title>Node10&#45;&gt;Node12</title>
<path fill="none" stroke="midnightblue" d="M197.83,-112.08C198.09,-105.01 198.47,-94.86 198.8,-85.99"/>
<polygon fill="midnightblue" stroke="midnightblue" points="202.3,-85.87 199.18,-75.75 195.31,-85.61 202.3,-85.87"/>
</g>
<!-- Node10&#45;&gt;Node13 -->
<g id="edge15" class="edge">
<title>Node10&#45;&gt;Node13</title>
<path fill="none" stroke="midnightblue" d="M233.63,-112.44C273.15,-103.08 336.6,-88.06 379.61,-77.87"/>
<polygon fill="midnightblue" stroke="midnightblue" points="380.62,-81.23 389.54,-75.52 379,-74.42 380.62,-81.23"/>
</g>
<!-- Node14 -->
<g id="node14" class="node">
<title>Node14</title>
<g id="a_node14"><a xlink:title=" ">
<polygon fill="white" stroke="#bfbfbf" points="373.5,-0.5 373.5,-19.5 477.5,-19.5 477.5,-0.5 373.5,-0.5"/>
<text text-anchor="middle" x="425.5" y="-7.5" font-family="Helvetica,sans-Serif" font-size="10.00">glm/gtc/type_ptr.hpp</text>
</a>
</g>
</g>
<!-- Node13&#45;&gt;Node14 -->
<g id="edge16" class="edge">
<title>Node13&#45;&gt;Node14</title>
<path fill="none" stroke="midnightblue" d="M425.5,-56.08C425.5,-49.01 425.5,-38.86 425.5,-29.99"/>
<polygon fill="midnightblue" stroke="midnightblue" points="429,-29.75 425.5,-19.75 422,-29.75 429,-29.75"/>
</g>
<!-- Node15&#45;&gt;Node11 -->
<g id="edge20" class="edge">
<title>Node15&#45;&gt;Node11</title>
<path fill="none" stroke="midnightblue" d="M316.38,-112.32C306.97,-104.26 292.76,-92.08 281.43,-82.37"/>
<polygon fill="midnightblue" stroke="midnightblue" points="283.68,-79.68 273.81,-75.83 279.12,-85 283.68,-79.68"/>
</g>
<!-- Node16 -->
<g id="node16" class="node">
<title>Node16</title>
<g id="a_node16"><a xlink:title=" ">
<polygon fill="white" stroke="#bfbfbf" points="303.5,-56.5 303.5,-75.5 347.5,-75.5 347.5,-56.5 303.5,-56.5"/>
<text text-anchor="middle" x="325.5" y="-63.5" font-family="Helvetica,sans-Serif" font-size="10.00">cmath</text>
</a>
</g>
</g>
<!-- Node15&#45;&gt;Node16 -->
<g id="edge21" class="edge">
<title>Node15&#45;&gt;Node16</title>
<path fill="none" stroke="midnightblue" d="M326.33,-112.08C326.2,-105.01 326.02,-94.86 325.85,-85.99"/>
<polygon fill="midnightblue" stroke="midnightblue" points="329.35,-85.68 325.66,-75.75 322.35,-85.81 329.35,-85.68"/>
</g>
</g>
</svg>
