<?xml version="1.0" encoding="UTF-8" standalone="no"?>
<!DOCTYPE svg PUBLIC "-//W3C//DTD SVG 1.1//EN"
 "http://www.w3.org/Graphics/SVG/1.1/DTD/svg11.dtd">
<!-- Generated by graphviz version 2.47.0 (20210407.0042)
 -->
<!-- Title: include/graphics/Shader.hpp Pages: 1 -->
<svg width="487pt" height="252pt"
 viewBox="0.00 0.00 487.00 252.00" xmlns="http://www.w3.org/2000/svg" xmlns:xlink="http://www.w3.org/1999/xlink">
<g id="graph0" class="graph" transform="scale(1 1) rotate(0) translate(4 248)">
<title>include/graphics/Shader.hpp</title>
<polygon fill="white" stroke="transparent" points="-4,4 -4,-248 483,-248 483,4 -4,4"/>
<!-- Node1 -->
<g id="node1" class="node">
<title>Node1</title>
<g id="a_node1"><a xlink:title=" ">
<polygon fill="#bfbfbf" stroke="black" points="250,-224.5 250,-243.5 389,-243.5 389,-224.5 250,-224.5"/>
<text text-anchor="middle" x="319.5" y="-231.5" font-family="Helvetica,sans-Serif" font-size="10.00">include/graphics/Shader.hpp</text>
</a>
</g>
</g>
<!-- Node2 -->
<g id="node2" class="node">
<title>Node2</title>
<g id="a_node2"><a xlink:title=" ">
<polygon fill="white" stroke="#bfbfbf" points="167,-168.5 167,-187.5 208,-187.5 208,-168.5 167,-168.5"/>
<text text-anchor="middle" x="187.5" y="-175.5" font-family="Helvetica,sans-Serif" font-size="10.00">string</text>
</a>
</g>
</g>
<!-- Node1&#45;&gt;Node2 -->
<g id="edge1" class="edge">
<title>Node1&#45;&gt;Node2</title>
<path fill="none" stroke="midnightblue" d="M298.58,-224.44C276.76,-215.52 242.35,-201.44 217.61,-191.32"/>
<polygon fill="midnightblue" stroke="midnightblue" points="218.9,-188.06 208.32,-187.52 216.25,-194.54 218.9,-188.06"/>
</g>
<!-- Node3 -->
<g id="node3" class="node">
<title>Node3</title>
<g id="a_node3"><a xlink:href="_g_shape_8hpp.html" target="_top" xlink:title=" ">
<polygon fill="white" stroke="black" points="264.5,-168.5 264.5,-187.5 374.5,-187.5 374.5,-168.5 264.5,-168.5"/>
<text text-anchor="middle" x="319.5" y="-175.5" font-family="Helvetica,sans-Serif" font-size="10.00">graphics/GShape.hpp</text>
</a>
</g>
</g>
<!-- Node1&#45;&gt;Node3 -->
<g id="edge2" class="edge">
<title>Node1&#45;&gt;Node3</title>
<path fill="none" stroke="midnightblue" d="M314.33,-224.08C312.82,-216.93 312.39,-206.64 313.04,-197.69"/>
<polygon fill="midnightblue" stroke="midnightblue" points="316.52,-198.13 314.37,-187.75 309.58,-197.2 316.52,-198.13"/>
</g>
<!-- Node9 -->
<g id="node9" class="node">
<title>Node9</title>
<g id="a_node9"><a xlink:href="_transform_8hpp.html" target="_top" xlink:title=" ">
<polygon fill="white" stroke="black" points="360,-56.5 360,-75.5 479,-75.5 479,-56.5 360,-56.5"/>
<text text-anchor="middle" x="419.5" y="-63.5" font-family="Helvetica,sans-Serif" font-size="10.00">graphics/Transform.hpp</text>
</a>
</g>
</g>
<!-- Node1&#45;&gt;Node9 -->
<g id="edge16" class="edge">
<title>Node1&#45;&gt;Node9</title>
<path fill="none" stroke="midnightblue" d="M336.79,-224.43C351,-216.63 370.79,-203.92 383.5,-188 407.69,-157.7 415.64,-111.5 418.24,-85.84"/>
<polygon fill="midnightblue" stroke="midnightblue" points="421.75,-85.88 419.1,-75.62 414.78,-85.3 421.75,-85.88"/>
</g>
<!-- Node3&#45;&gt;Node1 -->
<g id="edge11" class="edge">
<title>Node3&#45;&gt;Node1</title>
<path fill="none" stroke="midnightblue" d="M324.63,-187.75C326.16,-194.86 326.6,-205.14 325.97,-214.1"/>
<polygon fill="midnightblue" stroke="midnightblue" points="322.49,-213.71 324.67,-224.08 329.43,-214.62 322.49,-213.71"/>
</g>
<!-- Node4 -->
<g id="node4" class="node">
<title>Node4</title>
<g id="a_node4"><a xlink:href="_window_8hpp.html" target="_top" xlink:title=" ">
<polygon fill="white" stroke="black" points="136,-112.5 136,-131.5 245,-131.5 245,-112.5 136,-112.5"/>
<text text-anchor="middle" x="190.5" y="-119.5" font-family="Helvetica,sans-Serif" font-size="10.00">graphics/Window.hpp</text>
</a>
</g>
</g>
<!-- Node3&#45;&gt;Node4 -->
<g id="edge3" class="edge">
<title>Node3&#45;&gt;Node4</title>
<path fill="none" stroke="midnightblue" d="M299.06,-168.44C277.83,-159.56 244.4,-145.56 220.25,-135.45"/>
<polygon fill="midnightblue" stroke="midnightblue" points="221.42,-132.15 210.84,-131.52 218.72,-138.61 221.42,-132.15"/>
</g>
<!-- Node3&#45;&gt;Node9 -->
<g id="edge12" class="edge">
<title>Node3&#45;&gt;Node9</title>
<path fill="none" stroke="midnightblue" d="M336.08,-168.45C350.29,-160.5 370.59,-147.55 384.5,-132 396.89,-118.14 406.48,-99.13 412.46,-85.24"/>
<polygon fill="midnightblue" stroke="midnightblue" points="415.77,-86.38 416.31,-75.79 409.29,-83.73 415.77,-86.38"/>
</g>
<!-- Node11 -->
<g id="node11" class="node">
<title>Node11</title>
<g id="a_node11"><a xlink:href="_vector2_d_8hpp.html" target="_top" xlink:title=" ">
<polygon fill="white" stroke="black" points="263.5,-112.5 263.5,-131.5 375.5,-131.5 375.5,-112.5 263.5,-112.5"/>
<text text-anchor="middle" x="319.5" y="-119.5" font-family="Helvetica,sans-Serif" font-size="10.00">Helpers/Vector2D.hpp</text>
</a>
</g>
</g>
<!-- Node3&#45;&gt;Node11 -->
<g id="edge13" class="edge">
<title>Node3&#45;&gt;Node11</title>
<path fill="none" stroke="midnightblue" d="M319.5,-168.08C319.5,-161.01 319.5,-150.86 319.5,-141.99"/>
<polygon fill="midnightblue" stroke="midnightblue" points="323,-141.75 319.5,-131.75 316,-141.75 323,-141.75"/>
</g>
<!-- Node4&#45;&gt;Node1 -->
<g id="edge8" class="edge">
<title>Node4&#45;&gt;Node1</title>
<path fill="none" stroke="midnightblue" d="M198.47,-131.9C210.31,-144.89 233.51,-169.51 255.5,-188 268.72,-199.11 284.59,-210.29 297.22,-218.72"/>
<polygon fill="midnightblue" stroke="midnightblue" points="295.49,-221.77 305.77,-224.34 299.33,-215.92 295.49,-221.77"/>
</g>
<!-- Node5 -->
<g id="node5" class="node">
<title>Node5</title>
<g id="a_node5"><a xlink:title=" ">
<polygon fill="white" stroke="#bfbfbf" points="0,-56.5 0,-75.5 63,-75.5 63,-56.5 0,-56.5"/>
<text text-anchor="middle" x="31.5" y="-63.5" font-family="Helvetica,sans-Serif" font-size="10.00">glad/glad.h</text>
</a>
</g>
</g>
<!-- Node4&#45;&gt;Node5 -->
<g id="edge4" class="edge">
<title>Node4&#45;&gt;Node5</title>
<path fill="none" stroke="midnightblue" d="M165.31,-112.44C138.56,-103.36 96.1,-88.94 66.19,-78.78"/>
<polygon fill="midnightblue" stroke="midnightblue" points="67.17,-75.42 56.58,-75.52 64.92,-82.05 67.17,-75.42"/>
</g>
<!-- Node6 -->
<g id="node6" class="node">
<title>Node6</title>
<g id="a_node6"><a xlink:title=" ">
<polygon fill="white" stroke="#bfbfbf" points="81,-56.5 81,-75.5 160,-75.5 160,-56.5 81,-56.5"/>
<text text-anchor="middle" x="120.5" y="-63.5" font-family="Helvetica,sans-Serif" font-size="10.00">GLFW/glfw3.h</text>
</a>
</g>
</g>
<!-- Node4&#45;&gt;Node6 -->
<g id="edge5" class="edge">
<title>Node4&#45;&gt;Node6</title>
<path fill="none" stroke="midnightblue" d="M179.25,-112.32C168.7,-104.18 152.7,-91.84 140.06,-82.09"/>
<polygon fill="midnightblue" stroke="midnightblue" points="142.01,-79.17 131.95,-75.83 137.73,-84.71 142.01,-79.17"/>
</g>
<!-- Node7 -->
<g id="node7" class="node">
<title>Node7</title>
<g id="a_node7"><a xlink:title=" ">
<polygon fill="white" stroke="#bfbfbf" points="240,-56.5 240,-75.5 279,-75.5 279,-56.5 240,-56.5"/>
<text text-anchor="middle" x="259.5" y="-63.5" font-family="Helvetica,sans-Serif" font-size="10.00">utility</text>
</a>
</g>
</g>
<!-- Node4&#45;&gt;Node7 -->
<g id="edge6" class="edge">
<title>Node4&#45;&gt;Node7</title>
<path fill="none" stroke="midnightblue" d="M201.59,-112.32C211.99,-104.18 227.76,-91.84 240.22,-82.09"/>
<polygon fill="midnightblue" stroke="midnightblue" points="242.49,-84.75 248.21,-75.83 238.18,-79.24 242.49,-84.75"/>
</g>
<!-- Node8 -->
<g id="node8" class="node">
<title>Node8</title>
<g id="a_node8"><a xlink:title=" ">
<polygon fill="white" stroke="#bfbfbf" points="177.5,-56.5 177.5,-75.5 221.5,-75.5 221.5,-56.5 177.5,-56.5"/>
<text text-anchor="middle" x="199.5" y="-63.5" font-family="Helvetica,sans-Serif" font-size="10.00">vector</text>
</a>
</g>
</g>
<!-- Node4&#45;&gt;Node8 -->
<g id="edge7" class="edge">
<title>Node4&#45;&gt;Node8</title>
<path fill="none" stroke="midnightblue" d="M191.99,-112.08C193.18,-104.93 194.89,-94.64 196.38,-85.69"/>
<polygon fill="midnightblue" stroke="midnightblue" points="199.85,-86.19 198.04,-75.75 192.95,-85.04 199.85,-86.19"/>
</g>
<!-- Node4&#45;&gt;Node9 -->
<g id="edge9" class="edge">
<title>Node4&#45;&gt;Node9</title>
<path fill="none" stroke="midnightblue" d="M226.79,-112.44C266.48,-103.08 330.21,-88.06 373.41,-77.87"/>
<polygon fill="midnightblue" stroke="midnightblue" points="374.45,-81.22 383.38,-75.52 372.85,-74.41 374.45,-81.22"/>
</g>
<!-- Node10 -->
<g id="node10" class="node">
<title>Node10</title>
<g id="a_node10"><a xlink:title=" ">
<polygon fill="white" stroke="#bfbfbf" points="367.5,-0.5 367.5,-19.5 471.5,-19.5 471.5,-0.5 367.5,-0.5"/>
<text text-anchor="middle" x="419.5" y="-7.5" font-family="Helvetica,sans-Serif" font-size="10.00">glm/gtc/type_ptr.hpp</text>
</a>
</g>
</g>
<!-- Node9&#45;&gt;Node10 -->
<g id="edge10" class="edge">
<title>Node9&#45;&gt;Node10</title>
<path fill="none" stroke="midnightblue" d="M419.5,-56.08C419.5,-49.01 419.5,-38.86 419.5,-29.99"/>
<polygon fill="midnightblue" stroke="midnightblue" points="423,-29.75 419.5,-19.75 416,-29.75 423,-29.75"/>
</g>
<!-- Node11&#45;&gt;Node7 -->
<g id="edge14" class="edge">
<title>Node11&#45;&gt;Node7</title>
<path fill="none" stroke="midnightblue" d="M309.86,-112.32C300.99,-104.34 287.63,-92.31 276.89,-82.65"/>
<polygon fill="midnightblue" stroke="midnightblue" points="279.09,-79.92 269.32,-75.83 274.41,-85.13 279.09,-79.92"/>
</g>
<!-- Node12 -->
<g id="node12" class="node">
<title>Node12</title>
<g id="a_node12"><a xlink:title=" ">
<polygon fill="white" stroke="#bfbfbf" points="297.5,-56.5 297.5,-75.5 341.5,-75.5 341.5,-56.5 297.5,-56.5"/>
<text text-anchor="middle" x="319.5" y="-63.5" font-family="Helvetica,sans-Serif" font-size="10.00">cmath</text>
</a>
</g>
</g>
<!-- Node11&#45;&gt;Node12 -->
<g id="edge15" class="edge">
<title>Node11&#45;&gt;Node12</title>
<path fill="none" stroke="midnightblue" d="M319.5,-112.08C319.5,-105.01 319.5,-94.86 319.5,-85.99"/>
<polygon fill="midnightblue" stroke="midnightblue" points="323,-85.75 319.5,-75.75 316,-85.75 323,-85.75"/>
</g>
</g>
</svg>
