<?xml version="1.0" encoding="UTF-8" standalone="no"?>
<!DOCTYPE svg PUBLIC "-//W3C//DTD SVG 1.1//EN"
 "http://www.w3.org/Graphics/SVG/1.1/DTD/svg11.dtd">
<!-- Generated by graphviz version 2.47.1 (20210421.1823)
 -->
<!-- Title: include/graphics/Shader.hpp Pages: 1 -->
<svg width="1115pt" height="386pt"
 viewBox="0.00 0.00 1114.50 386.00" xmlns="http://www.w3.org/2000/svg" xmlns:xlink="http://www.w3.org/1999/xlink">
<g id="graph0" class="graph" transform="scale(1 1) rotate(0) translate(4 382)">
<title>include/graphics/Shader.hpp</title>
<polygon fill="white" stroke="transparent" points="-4,4 -4,-382 1110.5,-382 1110.5,4 -4,4"/>
<!-- Node1 -->
<g id="node1" class="node">
<title>Node1</title>
<g id="a_node1"><a xlink:title=" ">
<polygon fill="#bfbfbf" stroke="black" points="385.5,-358.5 385.5,-377.5 524.5,-377.5 524.5,-358.5 385.5,-358.5"/>
<text text-anchor="middle" x="455" y="-365.5" font-family="Helvetica,sans-Serif" font-size="10.00">include/graphics/Shader.hpp</text>
</a>
</g>
</g>
<!-- Node2 -->
<g id="node2" class="node">
<title>Node2</title>
<g id="a_node2"><a xlink:href="_shader_8cpp.html" target="_top" xlink:title=" ">
<polygon fill="white" stroke="black" points="296,-302.5 296,-321.5 418,-321.5 418,-302.5 296,-302.5"/>
<text text-anchor="middle" x="357" y="-309.5" font-family="Helvetica,sans-Serif" font-size="10.00">src/graphics/Shader.cpp</text>
</a>
</g>
</g>
<!-- Node1&#45;&gt;Node2 -->
<g id="edge1" class="edge">
<title>Node1&#45;&gt;Node2</title>
<path fill="none" stroke="midnightblue" d="M430.41,-353.45C412.32,-343.48 388.27,-330.23 372.71,-321.65"/>
<polygon fill="midnightblue" stroke="midnightblue" points="428.81,-356.56 439.25,-358.32 432.19,-350.43 428.81,-356.56"/>
</g>
<!-- Node3 -->
<g id="node3" class="node">
<title>Node3</title>
<g id="a_node3"><a xlink:href="_g_shape_8hpp.html" target="_top" xlink:title=" ">
<polygon fill="white" stroke="black" points="356.5,-241 356.5,-260 499.5,-260 499.5,-241 356.5,-241"/>
<text text-anchor="middle" x="428" y="-248" font-family="Helvetica,sans-Serif" font-size="10.00">include/graphics/GShape.hpp</text>
</a>
</g>
</g>
<!-- Node1&#45;&gt;Node3 -->
<g id="edge2" class="edge">
<title>Node1&#45;&gt;Node3</title>
<path fill="none" stroke="midnightblue" d="M445.68,-348.84C437.19,-323.66 427.2,-279.1 426.26,-260.28"/>
<polygon fill="midnightblue" stroke="midnightblue" points="442.44,-350.16 449.2,-358.32 449,-347.73 442.44,-350.16"/>
</g>
<!-- Node5 -->
<g id="node5" class="node">
<title>Node5</title>
<g id="a_node5"><a xlink:href="_resource_manager_8hpp.html" target="_top" xlink:title=" ">
<polygon fill="white" stroke="black" points="508.5,-168.5 508.5,-198.5 639.5,-198.5 639.5,-168.5 508.5,-168.5"/>
<text text-anchor="start" x="516.5" y="-186.5" font-family="Helvetica,sans-Serif" font-size="10.00">include/graphics/Resource</text>
<text text-anchor="middle" x="574" y="-175.5" font-family="Helvetica,sans-Serif" font-size="10.00">Manager.hpp</text>
</a>
</g>
</g>
<!-- Node1&#45;&gt;Node5 -->
<g id="edge19" class="edge">
<title>Node1&#45;&gt;Node5</title>
<path fill="none" stroke="midnightblue" d="M466.25,-349.75C489.64,-313.87 543.18,-231.77 564.74,-198.69"/>
<polygon fill="midnightblue" stroke="midnightblue" points="463.27,-347.91 460.74,-358.2 469.13,-351.73 463.27,-347.91"/>
</g>
<!-- Node16 -->
<g id="node16" class="node">
<title>Node16</title>
<g id="a_node16"><a xlink:href="_window_8hpp.html" target="_top" xlink:title=" ">
<polygon fill="white" stroke="black" points="556.5,-302.5 556.5,-321.5 699.5,-321.5 699.5,-302.5 556.5,-302.5"/>
<text text-anchor="middle" x="628" y="-309.5" font-family="Helvetica,sans-Serif" font-size="10.00">include/graphics/Window.hpp</text>
</a>
</g>
</g>
<!-- Node1&#45;&gt;Node16 -->
<g id="edge20" class="edge">
<title>Node1&#45;&gt;Node16</title>
<path fill="none" stroke="midnightblue" d="M492.05,-355.44C524.66,-345.26 571.41,-330.66 600.72,-321.52"/>
<polygon fill="midnightblue" stroke="midnightblue" points="490.92,-352.12 482.41,-358.44 493,-358.8 490.92,-352.12"/>
</g>
<!-- Node3&#45;&gt;Node1 -->
<g id="edge17" class="edge">
<title>Node3&#45;&gt;Node1</title>
<path fill="none" stroke="midnightblue" d="M437.36,-269.79C445.86,-295.05 455.83,-339.59 456.74,-358.32"/>
<polygon fill="midnightblue" stroke="midnightblue" points="440.6,-268.45 433.84,-260.28 434.03,-270.88 440.6,-268.45"/>
</g>
<!-- Node4 -->
<g id="node4" class="node">
<title>Node4</title>
<g id="a_node4"><a xlink:href="_g_shape_8cpp.html" target="_top" xlink:title=" ">
<polygon fill="white" stroke="black" points="0,-174 0,-193 126,-193 126,-174 0,-174"/>
<text text-anchor="middle" x="63" y="-181" font-family="Helvetica,sans-Serif" font-size="10.00">src/graphics/GShape.cpp</text>
</a>
</g>
</g>
<!-- Node3&#45;&gt;Node4 -->
<g id="edge3" class="edge">
<title>Node3&#45;&gt;Node4</title>
<path fill="none" stroke="midnightblue" d="M368.14,-239.23C309.86,-229.18 218.8,-213.33 140,-199 129.56,-197.1 118.33,-195.01 107.77,-193.03"/>
<polygon fill="midnightblue" stroke="midnightblue" points="367.83,-242.73 378.28,-240.98 369.02,-235.83 367.83,-242.73"/>
</g>
<!-- Node3&#45;&gt;Node5 -->
<g id="edge4" class="edge">
<title>Node3&#45;&gt;Node5</title>
<path fill="none" stroke="midnightblue" d="M456.6,-236.77C481.31,-225.77 516.97,-209.89 542.49,-198.53"/>
<polygon fill="midnightblue" stroke="midnightblue" points="455.1,-233.6 447.39,-240.87 457.95,-240 455.1,-233.6"/>
</g>
<!-- Node12 -->
<g id="node12" class="node">
<title>Node12</title>
<g id="a_node12"><a xlink:href="_inventory_8hpp.html" target="_top" xlink:title=" ">
<polygon fill="white" stroke="black" points="175.5,-56.5 175.5,-75.5 304.5,-75.5 304.5,-56.5 175.5,-56.5"/>
<text text-anchor="middle" x="240" y="-63.5" font-family="Helvetica,sans-Serif" font-size="10.00">include/GUI/Inventory.hpp</text>
</a>
</g>
</g>
<!-- Node3&#45;&gt;Node12 -->
<g id="edge18" class="edge">
<title>Node3&#45;&gt;Node12</title>
<path fill="none" stroke="midnightblue" d="M374.4,-238.48C320.2,-224.17 239.27,-193.38 202,-132 189.86,-112 213.27,-88.19 228.46,-75.68"/>
<polygon fill="midnightblue" stroke="midnightblue" points="373.64,-241.9 384.19,-240.96 375.36,-235.11 373.64,-241.9"/>
</g>
<!-- Node6 -->
<g id="node6" class="node">
<title>Node6</title>
<g id="a_node6"><a xlink:href="_drawable_8cpp.html" target="_top" xlink:title=" ">
<polygon fill="white" stroke="black" points="220.5,-112.5 220.5,-131.5 343.5,-131.5 343.5,-112.5 220.5,-112.5"/>
<text text-anchor="middle" x="282" y="-119.5" font-family="Helvetica,sans-Serif" font-size="10.00">src/engine/Drawable.cpp</text>
</a>
</g>
</g>
<!-- Node5&#45;&gt;Node6 -->
<g id="edge5" class="edge">
<title>Node5&#45;&gt;Node6</title>
<path fill="none" stroke="midnightblue" d="M498.65,-167.15C443.03,-155.81 369.36,-140.8 323.86,-131.53"/>
<polygon fill="midnightblue" stroke="midnightblue" points="497.97,-170.58 508.47,-169.15 499.37,-163.72 497.97,-170.58"/>
</g>
<!-- Node7 -->
<g id="node7" class="node">
<title>Node7</title>
<g id="a_node7"><a xlink:href="_field_8cpp.html" target="_top" xlink:title=" ">
<polygon fill="white" stroke="black" points="677,-112.5 677,-131.5 781,-131.5 781,-112.5 677,-112.5"/>
<text text-anchor="middle" x="729" y="-119.5" font-family="Helvetica,sans-Serif" font-size="10.00">src/engine/Field.cpp</text>
</a>
</g>
</g>
<!-- Node5&#45;&gt;Node7 -->
<g id="edge6" class="edge">
<title>Node5&#45;&gt;Node7</title>
<path fill="none" stroke="midnightblue" d="M620.11,-164.8C648.6,-153.86 683.91,-140.31 706.45,-131.66"/>
<polygon fill="midnightblue" stroke="midnightblue" points="618.81,-161.55 610.73,-168.4 621.32,-168.08 618.81,-161.55"/>
</g>
<!-- Node8 -->
<g id="node8" class="node">
<title>Node8</title>
<g id="a_node8"><a xlink:href="_engine_8cpp.html" target="_top" xlink:title=" ">
<polygon fill="white" stroke="black" points="837,-112.5 837,-131.5 917,-131.5 917,-112.5 837,-112.5"/>
<text text-anchor="middle" x="877" y="-119.5" font-family="Helvetica,sans-Serif" font-size="10.00">src/Engine.cpp</text>
</a>
</g>
</g>
<!-- Node5&#45;&gt;Node8 -->
<g id="edge7" class="edge">
<title>Node5&#45;&gt;Node8</title>
<path fill="none" stroke="midnightblue" d="M649.83,-167.61C709.18,-155.95 789.39,-140.2 836.91,-130.87"/>
<polygon fill="midnightblue" stroke="midnightblue" points="648.88,-164.23 639.75,-169.59 650.23,-171.1 648.88,-164.23"/>
</g>
<!-- Node9 -->
<g id="node9" class="node">
<title>Node9</title>
<g id="a_node9"><a xlink:href="_event_handler_8cpp.html" target="_top" xlink:title=" ">
<polygon fill="white" stroke="black" points="935.5,-112.5 935.5,-131.5 1106.5,-131.5 1106.5,-112.5 935.5,-112.5"/>
<text text-anchor="middle" x="1021" y="-119.5" font-family="Helvetica,sans-Serif" font-size="10.00">src/EventHandler/EventHandler.cpp</text>
</a>
</g>
</g>
<!-- Node5&#45;&gt;Node9 -->
<g id="edge8" class="edge">
<title>Node5&#45;&gt;Node9</title>
<path fill="none" stroke="midnightblue" d="M649.96,-172.39C736.34,-160.89 875.86,-142.32 956.95,-131.53"/>
<polygon fill="midnightblue" stroke="midnightblue" points="649.41,-168.93 639.96,-173.72 650.33,-175.87 649.41,-168.93"/>
</g>
<!-- Node10 -->
<g id="node10" class="node">
<title>Node10</title>
<g id="a_node10"><a xlink:href="_game_8cpp.html" target="_top" xlink:title=" ">
<polygon fill="white" stroke="black" points="518.5,-0.5 518.5,-19.5 595.5,-19.5 595.5,-0.5 518.5,-0.5"/>
<text text-anchor="middle" x="557" y="-7.5" font-family="Helvetica,sans-Serif" font-size="10.00">src/Game.cpp</text>
</a>
</g>
</g>
<!-- Node5&#45;&gt;Node10 -->
<g id="edge9" class="edge">
<title>Node5&#45;&gt;Node10</title>
<path fill="none" stroke="midnightblue" d="M649.57,-182.75C725.26,-180.02 825.79,-166.52 790,-112 746.69,-46.03 650.03,-22.93 595.8,-15.01"/>
<polygon fill="midnightblue" stroke="midnightblue" points="649.42,-179.25 639.53,-183.06 649.64,-186.25 649.42,-179.25"/>
</g>
<!-- Node11 -->
<g id="node11" class="node">
<title>Node11</title>
<g id="a_node11"><a xlink:href="_resource_manager_8cpp.html" target="_top" xlink:title=" ">
<polygon fill="white" stroke="black" points="489,-112.5 489,-131.5 659,-131.5 659,-112.5 489,-112.5"/>
<text text-anchor="middle" x="574" y="-119.5" font-family="Helvetica,sans-Serif" font-size="10.00">src/graphics/ResourceManager.cpp</text>
</a>
</g>
</g>
<!-- Node5&#45;&gt;Node11 -->
<g id="edge10" class="edge">
<title>Node5&#45;&gt;Node11</title>
<path fill="none" stroke="midnightblue" d="M574,-158.29C574,-148.86 574,-138.65 574,-131.66"/>
<polygon fill="midnightblue" stroke="midnightblue" points="570.5,-158.4 574,-168.4 577.5,-158.4 570.5,-158.4"/>
</g>
<!-- Node5&#45;&gt;Node12 -->
<g id="edge11" class="edge">
<title>Node5&#45;&gt;Node12</title>
<path fill="none" stroke="midnightblue" d="M497.96,-183.13C402.68,-182.12 247.43,-173.85 211,-132 196.23,-115.04 217.12,-89.34 230.43,-75.9"/>
<polygon fill="midnightblue" stroke="midnightblue" points="498.1,-186.63 508.13,-183.22 498.16,-179.64 498.1,-186.63"/>
</g>
<!-- Node14 -->
<g id="node14" class="node">
<title>Node14</title>
<g id="a_node14"><a xlink:href="_item_8hpp.html" target="_top" xlink:title=" ">
<polygon fill="white" stroke="black" points="361.5,-112.5 361.5,-131.5 470.5,-131.5 470.5,-112.5 361.5,-112.5"/>
<text text-anchor="middle" x="416" y="-119.5" font-family="Helvetica,sans-Serif" font-size="10.00">include/GUI/Item.hpp</text>
</a>
</g>
</g>
<!-- Node5&#45;&gt;Node14 -->
<g id="edge14" class="edge">
<title>Node5&#45;&gt;Node14</title>
<path fill="none" stroke="midnightblue" d="M527,-164.8C497.96,-153.86 461.97,-140.31 438.99,-131.66"/>
<polygon fill="midnightblue" stroke="midnightblue" points="525.96,-168.15 536.56,-168.4 528.43,-161.6 525.96,-168.15"/>
</g>
<!-- Node12&#45;&gt;Node10 -->
<g id="edge12" class="edge">
<title>Node12&#45;&gt;Node10</title>
<path fill="none" stroke="midnightblue" d="M300.21,-54.74C364.4,-43.81 464.12,-26.82 518.47,-17.56"/>
<polygon fill="midnightblue" stroke="midnightblue" points="299.5,-51.31 290.23,-56.44 300.68,-58.21 299.5,-51.31"/>
</g>
<!-- Node13 -->
<g id="node13" class="node">
<title>Node13</title>
<g id="a_node13"><a xlink:href="_inventory_8cpp.html" target="_top" xlink:title=" ">
<polygon fill="white" stroke="black" points="184,-0.5 184,-19.5 296,-19.5 296,-0.5 184,-0.5"/>
<text text-anchor="middle" x="240" y="-7.5" font-family="Helvetica,sans-Serif" font-size="10.00">src/GUI/Inventory.cpp</text>
</a>
</g>
</g>
<!-- Node12&#45;&gt;Node13 -->
<g id="edge13" class="edge">
<title>Node12&#45;&gt;Node13</title>
<path fill="none" stroke="midnightblue" d="M240,-45.8C240,-36.91 240,-26.78 240,-19.75"/>
<polygon fill="midnightblue" stroke="midnightblue" points="236.5,-46.08 240,-56.08 243.5,-46.08 236.5,-46.08"/>
</g>
<!-- Node14&#45;&gt;Node12 -->
<g id="edge16" class="edge">
<title>Node14&#45;&gt;Node12</title>
<path fill="none" stroke="midnightblue" d="M378.31,-109.44C345.13,-99.26 297.57,-84.66 267.76,-75.52"/>
<polygon fill="midnightblue" stroke="midnightblue" points="377.53,-112.86 388.11,-112.44 379.58,-106.16 377.53,-112.86"/>
</g>
<!-- Node15 -->
<g id="node15" class="node">
<title>Node15</title>
<g id="a_node15"><a xlink:href="_item_8cpp.html" target="_top" xlink:title=" ">
<polygon fill="white" stroke="black" points="370,-56.5 370,-75.5 462,-75.5 462,-56.5 370,-56.5"/>
<text text-anchor="middle" x="416" y="-63.5" font-family="Helvetica,sans-Serif" font-size="10.00">src/GUI/Item.cpp</text>
</a>
</g>
</g>
<!-- Node14&#45;&gt;Node15 -->
<g id="edge15" class="edge">
<title>Node14&#45;&gt;Node15</title>
<path fill="none" stroke="midnightblue" d="M416,-101.8C416,-92.91 416,-82.78 416,-75.75"/>
<polygon fill="midnightblue" stroke="midnightblue" points="412.5,-102.08 416,-112.08 419.5,-102.08 412.5,-102.08"/>
</g>
<!-- Node16&#45;&gt;Node3 -->
<g id="edge25" class="edge">
<title>Node16&#45;&gt;Node3</title>
<path fill="none" stroke="midnightblue" d="M589.44,-299.53C550.57,-287.96 491.48,-270.38 456.6,-260.01"/>
<polygon fill="midnightblue" stroke="midnightblue" points="588.76,-302.98 599.34,-302.48 590.76,-296.27 588.76,-302.98"/>
</g>
<!-- Node17 -->
<g id="node17" class="node">
<title>Node17</title>
<g id="a_node17"><a xlink:href="_window_8cpp.html" target="_top" xlink:title=" ">
<polygon fill="white" stroke="black" points="691.5,-241 691.5,-260 816.5,-260 816.5,-241 691.5,-241"/>
<text text-anchor="middle" x="754" y="-248" font-family="Helvetica,sans-Serif" font-size="10.00">src/graphics/Window.cpp</text>
</a>
</g>
</g>
<!-- Node16&#45;&gt;Node17 -->
<g id="edge21" class="edge">
<title>Node16&#45;&gt;Node17</title>
<path fill="none" stroke="midnightblue" d="M655.16,-298.17C679.61,-286.63 714.85,-269.99 735.98,-260.01"/>
<polygon fill="midnightblue" stroke="midnightblue" points="653.6,-295.04 646.05,-302.48 656.59,-301.37 653.6,-295.04"/>
</g>
<!-- Node18 -->
<g id="node18" class="node">
<title>Node18</title>
<g id="a_node18"><a xlink:href="_event_handler_8hpp.html" target="_top" xlink:title=" ">
<polygon fill="white" stroke="black" points="564.5,-235.5 564.5,-265.5 673.5,-265.5 673.5,-235.5 564.5,-235.5"/>
<text text-anchor="start" x="572.5" y="-253.5" font-family="Helvetica,sans-Serif" font-size="10.00">include/EventHandler</text>
<text text-anchor="middle" x="619" y="-242.5" font-family="Helvetica,sans-Serif" font-size="10.00">/EventHandler.hpp</text>
</a>
</g>
</g>
<!-- Node16&#45;&gt;Node18 -->
<g id="edge22" class="edge">
<title>Node16&#45;&gt;Node18</title>
<path fill="none" stroke="midnightblue" d="M625.21,-292.53C623.89,-283.81 622.34,-273.59 621.12,-265.52"/>
<polygon fill="midnightblue" stroke="midnightblue" points="621.75,-293.11 626.71,-302.48 628.68,-292.06 621.75,-293.11"/>
</g>
<!-- Node18&#45;&gt;Node5 -->
<g id="edge24" class="edge">
<title>Node18&#45;&gt;Node5</title>
<path fill="none" stroke="midnightblue" d="M603.53,-227.16C596.97,-217.68 589.52,-206.92 583.75,-198.58"/>
<polygon fill="midnightblue" stroke="midnightblue" points="600.67,-229.17 609.24,-235.4 606.42,-225.18 600.67,-229.17"/>
</g>
<!-- Node18&#45;&gt;Node9 -->
<g id="edge23" class="edge">
<title>Node18&#45;&gt;Node9</title>
<path fill="none" stroke="midnightblue" d="M673.25,-232.43C760.24,-205.06 927.82,-152.32 993.57,-131.63"/>
<polygon fill="midnightblue" stroke="midnightblue" points="672.05,-229.14 663.56,-235.48 674.15,-235.82 672.05,-229.14"/>
</g>
</g>
</svg>
