<?xml version="1.0" encoding="UTF-8" standalone="no"?>
<!DOCTYPE svg PUBLIC "-//W3C//DTD SVG 1.1//EN"
 "http://www.w3.org/Graphics/SVG/1.1/DTD/svg11.dtd">
<!-- Generated by graphviz version 2.47.0 (20210407.0042)
 -->
<!-- Title: include/SpritesManager.hpp Pages: 1 -->
<svg width="646pt" height="263pt"
 viewBox="0.00 0.00 645.50 263.00" xmlns="http://www.w3.org/2000/svg" xmlns:xlink="http://www.w3.org/1999/xlink">
<g id="graph0" class="graph" transform="scale(1 1) rotate(0) translate(4 259)">
<title>include/SpritesManager.hpp</title>
<polygon fill="white" stroke="transparent" points="-4,4 -4,-259 641.5,-259 641.5,4 -4,4"/>
<!-- Node1 -->
<g id="node1" class="node">
<title>Node1</title>
<g id="a_node1"><a xlink:title=" ">
<polygon fill="#bfbfbf" stroke="black" points="253,-235.5 253,-254.5 390,-254.5 390,-235.5 253,-235.5"/>
<text text-anchor="middle" x="321.5" y="-242.5" font-family="Helvetica,sans-Serif" font-size="10.00">include/SpritesManager.hpp</text>
</a>
</g>
</g>
<!-- Node2 -->
<g id="node2" class="node">
<title>Node2</title>
<g id="a_node2"><a xlink:href="_ground_empty_8hpp.html" target="_top" xlink:title=" ">
<polygon fill="white" stroke="black" points="395.5,-168.5 395.5,-198.5 507.5,-198.5 507.5,-168.5 395.5,-168.5"/>
<text text-anchor="start" x="403.5" y="-186.5" font-family="Helvetica,sans-Serif" font-size="10.00">engine/objects/ground</text>
<text text-anchor="middle" x="451.5" y="-175.5" font-family="Helvetica,sans-Serif" font-size="10.00">/GroundEmpty.hpp</text>
</a>
</g>
</g>
<!-- Node1&#45;&gt;Node2 -->
<g id="edge1" class="edge">
<title>Node1&#45;&gt;Node2</title>
<path fill="none" stroke="midnightblue" d="M340.13,-235.48C358.72,-226.96 387.88,-213.62 411.7,-202.72"/>
<polygon fill="midnightblue" stroke="midnightblue" points="413.23,-205.87 420.86,-198.52 410.31,-199.5 413.23,-205.87"/>
</g>
<!-- Node8 -->
<g id="node8" class="node">
<title>Node8</title>
<g id="a_node8"><a xlink:href="_cell_8hpp.html" target="_top" xlink:title=" ">
<polygon fill="white" stroke="black" points="0,-174 0,-193 117,-193 117,-174 0,-174"/>
<text text-anchor="middle" x="58.5" y="-181" font-family="Helvetica,sans-Serif" font-size="10.00">engine/objects/Cell.hpp</text>
</a>
</g>
</g>
<!-- Node1&#45;&gt;Node8 -->
<g id="edge7" class="edge">
<title>Node1&#45;&gt;Node8</title>
<path fill="none" stroke="midnightblue" d="M283.82,-235.48C236.95,-224.87 156.89,-206.76 105.9,-195.22"/>
<polygon fill="midnightblue" stroke="midnightblue" points="106.64,-191.8 96.11,-193.01 105.09,-198.63 106.64,-191.8"/>
</g>
<!-- Node11 -->
<g id="node11" class="node">
<title>Node11</title>
<g id="a_node11"><a xlink:href="_ground_earth_8hpp.html" target="_top" xlink:title=" ">
<polygon fill="white" stroke="black" points="525.5,-168.5 525.5,-198.5 637.5,-198.5 637.5,-168.5 525.5,-168.5"/>
<text text-anchor="start" x="533.5" y="-186.5" font-family="Helvetica,sans-Serif" font-size="10.00">engine/objects/ground</text>
<text text-anchor="middle" x="581.5" y="-175.5" font-family="Helvetica,sans-Serif" font-size="10.00">/GroundEarth.hpp</text>
</a>
</g>
</g>
<!-- Node1&#45;&gt;Node11 -->
<g id="edge15" class="edge">
<title>Node1&#45;&gt;Node11</title>
<path fill="none" stroke="midnightblue" d="M358.75,-235.48C399.47,-226.16 465.53,-211.04 515.16,-199.68"/>
<polygon fill="midnightblue" stroke="midnightblue" points="516.2,-203.03 525.17,-197.39 514.64,-196.21 516.2,-203.03"/>
</g>
<!-- Node12 -->
<g id="node12" class="node">
<title>Node12</title>
<g id="a_node12"><a xlink:href="_ground_water_8hpp.html" target="_top" xlink:title=" ">
<polygon fill="white" stroke="black" points="135.5,-168.5 135.5,-198.5 247.5,-198.5 247.5,-168.5 135.5,-168.5"/>
<text text-anchor="start" x="143.5" y="-186.5" font-family="Helvetica,sans-Serif" font-size="10.00">engine/objects/ground</text>
<text text-anchor="middle" x="191.5" y="-175.5" font-family="Helvetica,sans-Serif" font-size="10.00">/GroundWater.hpp</text>
</a>
</g>
</g>
<!-- Node1&#45;&gt;Node12 -->
<g id="edge17" class="edge">
<title>Node1&#45;&gt;Node12</title>
<path fill="none" stroke="midnightblue" d="M302.87,-235.48C284.28,-226.96 255.12,-213.62 231.3,-202.72"/>
<polygon fill="midnightblue" stroke="midnightblue" points="232.69,-199.5 222.14,-198.52 229.77,-205.87 232.69,-199.5"/>
</g>
<!-- Node13 -->
<g id="node13" class="node">
<title>Node13</title>
<g id="a_node13"><a xlink:href="_mineral_8hpp.html" target="_top" xlink:title=" ">
<polygon fill="white" stroke="black" points="265.5,-168.5 265.5,-198.5 377.5,-198.5 377.5,-168.5 265.5,-168.5"/>
<text text-anchor="start" x="273.5" y="-186.5" font-family="Helvetica,sans-Serif" font-size="10.00">engine/objects/ground</text>
<text text-anchor="middle" x="321.5" y="-175.5" font-family="Helvetica,sans-Serif" font-size="10.00">/Mineral.hpp</text>
</a>
</g>
</g>
<!-- Node1&#45;&gt;Node13 -->
<g id="edge19" class="edge">
<title>Node1&#45;&gt;Node13</title>
<path fill="none" stroke="midnightblue" d="M321.5,-235.48C321.5,-228.47 321.5,-218.19 321.5,-208.7"/>
<polygon fill="midnightblue" stroke="midnightblue" points="325,-208.52 321.5,-198.52 318,-208.52 325,-208.52"/>
</g>
<!-- Node3 -->
<g id="node3" class="node">
<title>Node3</title>
<g id="a_node3"><a xlink:href="_ground_8hpp.html" target="_top" xlink:title=" ">
<polygon fill="white" stroke="black" points="224.5,-112.5 224.5,-131.5 356.5,-131.5 356.5,-112.5 224.5,-112.5"/>
<text text-anchor="middle" x="290.5" y="-119.5" font-family="Helvetica,sans-Serif" font-size="10.00">engine/objects/Ground.hpp</text>
</a>
</g>
</g>
<!-- Node2&#45;&gt;Node3 -->
<g id="edge2" class="edge">
<title>Node2&#45;&gt;Node3</title>
<path fill="none" stroke="midnightblue" d="M413.35,-168.4C385.97,-158.28 349.46,-144.79 323.37,-135.15"/>
<polygon fill="midnightblue" stroke="midnightblue" points="324.52,-131.84 313.93,-131.66 322.09,-138.41 324.52,-131.84"/>
</g>
<!-- Node4 -->
<g id="node4" class="node">
<title>Node4</title>
<g id="a_node4"><a xlink:href="_drawable_8hpp.html" target="_top" xlink:title=" ">
<polygon fill="white" stroke="black" points="50,-56.5 50,-75.5 157,-75.5 157,-56.5 50,-56.5"/>
<text text-anchor="middle" x="103.5" y="-63.5" font-family="Helvetica,sans-Serif" font-size="10.00">engine/Drawable.hpp</text>
</a>
</g>
</g>
<!-- Node3&#45;&gt;Node4 -->
<g id="edge3" class="edge">
<title>Node3&#45;&gt;Node4</title>
<path fill="none" stroke="midnightblue" d="M260.87,-112.44C229,-103.24 178.17,-88.56 142.94,-78.39"/>
<polygon fill="midnightblue" stroke="midnightblue" points="143.57,-74.93 132.99,-75.52 141.63,-81.65 143.57,-74.93"/>
</g>
<!-- Node7 -->
<g id="node7" class="node">
<title>Node7</title>
<g id="a_node7"><a xlink:href="_tickable_8hpp.html" target="_top" xlink:title=" ">
<polygon fill="white" stroke="black" points="175,-56.5 175,-75.5 278,-75.5 278,-56.5 175,-56.5"/>
<text text-anchor="middle" x="226.5" y="-63.5" font-family="Helvetica,sans-Serif" font-size="10.00">engine/Tickable.hpp</text>
</a>
</g>
</g>
<!-- Node3&#45;&gt;Node7 -->
<g id="edge6" class="edge">
<title>Node3&#45;&gt;Node7</title>
<path fill="none" stroke="midnightblue" d="M280.22,-112.32C270.66,-104.26 256.22,-92.08 244.72,-82.37"/>
<polygon fill="midnightblue" stroke="midnightblue" points="246.87,-79.61 236.97,-75.83 242.36,-84.96 246.87,-79.61"/>
</g>
<!-- Node5 -->
<g id="node5" class="node">
<title>Node5</title>
<g id="a_node5"><a xlink:title=" ">
<polygon fill="white" stroke="#bfbfbf" points="17.5,-0.5 17.5,-19.5 83.5,-19.5 83.5,-0.5 17.5,-0.5"/>
<text text-anchor="middle" x="50.5" y="-7.5" font-family="Helvetica,sans-Serif" font-size="10.00">string_view</text>
</a>
</g>
</g>
<!-- Node4&#45;&gt;Node5 -->
<g id="edge4" class="edge">
<title>Node4&#45;&gt;Node5</title>
<path fill="none" stroke="midnightblue" d="M94.75,-56.08C87.03,-48.22 75.6,-36.57 66.28,-27.08"/>
<polygon fill="midnightblue" stroke="midnightblue" points="68.59,-24.44 59.09,-19.75 63.6,-29.34 68.59,-24.44"/>
</g>
<!-- Node6 -->
<g id="node6" class="node">
<title>Node6</title>
<g id="a_node6"><a xlink:href="_vector2_d_8hpp.html" target="_top" xlink:title=" ">
<polygon fill="white" stroke="black" points="101.5,-0.5 101.5,-19.5 213.5,-19.5 213.5,-0.5 101.5,-0.5"/>
<text text-anchor="middle" x="157.5" y="-7.5" font-family="Helvetica,sans-Serif" font-size="10.00">Helpers/Vector2D.hpp</text>
</a>
</g>
</g>
<!-- Node4&#45;&gt;Node6 -->
<g id="edge5" class="edge">
<title>Node4&#45;&gt;Node6</title>
<path fill="none" stroke="midnightblue" d="M112.42,-56.08C120.28,-48.22 131.93,-36.57 141.42,-27.08"/>
<polygon fill="midnightblue" stroke="midnightblue" points="144.15,-29.3 148.75,-19.75 139.2,-24.35 144.15,-29.3"/>
</g>
<!-- Node8&#45;&gt;Node3 -->
<g id="edge11" class="edge">
<title>Node8&#45;&gt;Node3</title>
<path fill="none" stroke="midnightblue" d="M91.74,-173.98C132.74,-163.46 202.53,-145.56 247.55,-134.01"/>
<polygon fill="midnightblue" stroke="midnightblue" points="248.5,-137.38 257.32,-131.51 246.77,-130.6 248.5,-137.38"/>
</g>
<!-- Node8&#45;&gt;Node4 -->
<g id="edge8" class="edge">
<title>Node8&#45;&gt;Node4</title>
<path fill="none" stroke="midnightblue" d="M49.63,-173.98C36.66,-160.44 15.32,-133.37 27.5,-112 35.91,-97.25 51.27,-86.84 65.98,-79.77"/>
<polygon fill="midnightblue" stroke="midnightblue" points="67.74,-82.83 75.48,-75.6 64.92,-76.42 67.74,-82.83"/>
</g>
<!-- Node8&#45;&gt;Node7 -->
<g id="edge9" class="edge">
<title>Node8&#45;&gt;Node7</title>
<path fill="none" stroke="midnightblue" d="M90.45,-173.96C115.88,-166.04 151.41,-152.38 177.5,-132 194.15,-119 208.06,-99.01 216.76,-84.64"/>
<polygon fill="midnightblue" stroke="midnightblue" points="219.93,-86.14 221.92,-75.73 213.87,-82.63 219.93,-86.14"/>
</g>
<!-- Node9 -->
<g id="node9" class="node">
<title>Node9</title>
<g id="a_node9"><a xlink:title=" ">
<polygon fill="white" stroke="#bfbfbf" points="36.5,-112.5 36.5,-131.5 80.5,-131.5 80.5,-112.5 36.5,-112.5"/>
<text text-anchor="middle" x="58.5" y="-119.5" font-family="Helvetica,sans-Serif" font-size="10.00">vector</text>
</a>
</g>
</g>
<!-- Node8&#45;&gt;Node9 -->
<g id="edge10" class="edge">
<title>Node8&#45;&gt;Node9</title>
<path fill="none" stroke="midnightblue" d="M58.5,-173.98C58.5,-165.58 58.5,-152.48 58.5,-141.66"/>
<polygon fill="midnightblue" stroke="midnightblue" points="62,-141.51 58.5,-131.51 55,-141.51 62,-141.51"/>
</g>
<!-- Node10 -->
<g id="node10" class="node">
<title>Node10</title>
<g id="a_node10"><a xlink:href="_building_8hpp.html" target="_top" xlink:title=" ">
<polygon fill="white" stroke="black" points="99,-112.5 99,-131.5 168,-131.5 168,-112.5 99,-112.5"/>
<text text-anchor="middle" x="133.5" y="-119.5" font-family="Helvetica,sans-Serif" font-size="10.00">Building.hpp</text>
</a>
</g>
</g>
<!-- Node8&#45;&gt;Node10 -->
<g id="edge12" class="edge">
<title>Node8&#45;&gt;Node10</title>
<path fill="none" stroke="midnightblue" d="M69.25,-173.98C81.05,-164.61 100.24,-149.38 114.58,-138.01"/>
<polygon fill="midnightblue" stroke="midnightblue" points="117.12,-140.47 122.77,-131.51 112.76,-134.98 117.12,-140.47"/>
</g>
<!-- Node10&#45;&gt;Node4 -->
<g id="edge13" class="edge">
<title>Node10&#45;&gt;Node4</title>
<path fill="none" stroke="midnightblue" d="M128.55,-112.08C124.4,-104.61 118.35,-93.72 113.23,-84.52"/>
<polygon fill="midnightblue" stroke="midnightblue" points="116.28,-82.79 108.36,-75.75 110.16,-86.19 116.28,-82.79"/>
</g>
<!-- Node10&#45;&gt;Node7 -->
<g id="edge14" class="edge">
<title>Node10&#45;&gt;Node7</title>
<path fill="none" stroke="midnightblue" d="M148.44,-112.32C163.09,-103.82 185.63,-90.73 202.74,-80.8"/>
<polygon fill="midnightblue" stroke="midnightblue" points="204.7,-83.7 211.6,-75.65 201.19,-77.65 204.7,-83.7"/>
</g>
<!-- Node11&#45;&gt;Node3 -->
<g id="edge16" class="edge">
<title>Node11&#45;&gt;Node3</title>
<path fill="none" stroke="midnightblue" d="M525.5,-169.92C522.46,-169.27 519.44,-168.62 516.5,-168 458.09,-155.67 390.99,-142.43 345.18,-133.52"/>
<polygon fill="midnightblue" stroke="midnightblue" points="345.64,-130.05 335.16,-131.58 344.31,-136.92 345.64,-130.05"/>
</g>
<!-- Node12&#45;&gt;Node3 -->
<g id="edge18" class="edge">
<title>Node12&#45;&gt;Node3</title>
<path fill="none" stroke="midnightblue" d="M214.96,-168.4C230.83,-158.86 251.69,-146.32 267.47,-136.84"/>
<polygon fill="midnightblue" stroke="midnightblue" points="269.33,-139.81 276.09,-131.66 265.72,-133.81 269.33,-139.81"/>
</g>
<!-- Node13&#45;&gt;Node3 -->
<g id="edge20" class="edge">
<title>Node13&#45;&gt;Node3</title>
<path fill="none" stroke="midnightblue" d="M314.15,-168.4C309.83,-160.11 304.33,-149.55 299.73,-140.71"/>
<polygon fill="midnightblue" stroke="midnightblue" points="302.74,-138.91 295.01,-131.66 296.53,-142.14 302.74,-138.91"/>
</g>
</g>
</svg>
