<?xml version="1.0" encoding="UTF-8" standalone="no"?>
<!DOCTYPE svg PUBLIC "-//W3C//DTD SVG 1.1//EN"
 "http://www.w3.org/Graphics/SVG/1.1/DTD/svg11.dtd">
<!-- Generated by graphviz version 2.47.0 (20210407.0042)
 -->
<!-- Title: include/SpritesManager.hpp Pages: 1 -->
<svg width="646pt" height="319pt"
 viewBox="0.00 0.00 645.50 319.00" xmlns="http://www.w3.org/2000/svg" xmlns:xlink="http://www.w3.org/1999/xlink">
<g id="graph0" class="graph" transform="scale(1 1) rotate(0) translate(4 315)">
<title>include/SpritesManager.hpp</title>
<polygon fill="white" stroke="transparent" points="-4,4 -4,-315 641.5,-315 641.5,4 -4,4"/>
<!-- Node1 -->
<g id="node1" class="node">
<title>Node1</title>
<g id="a_node1"><a xlink:title=" ">
<polygon fill="#bfbfbf" stroke="black" points="253,-291.5 253,-310.5 390,-310.5 390,-291.5 253,-291.5"/>
<text text-anchor="middle" x="321.5" y="-298.5" font-family="Helvetica,sans-Serif" font-size="10.00">include/SpritesManager.hpp</text>
</a>
</g>
</g>
<!-- Node2 -->
<g id="node2" class="node">
<title>Node2</title>
<g id="a_node2"><a xlink:href="_ground_empty_8hpp.html" target="_top" xlink:title=" ">
<polygon fill="white" stroke="black" points="395.5,-224.5 395.5,-254.5 507.5,-254.5 507.5,-224.5 395.5,-224.5"/>
<text text-anchor="start" x="403.5" y="-242.5" font-family="Helvetica,sans-Serif" font-size="10.00">engine/objects/ground</text>
<text text-anchor="middle" x="451.5" y="-231.5" font-family="Helvetica,sans-Serif" font-size="10.00">/GroundEmpty.hpp</text>
</a>
</g>
</g>
<!-- Node1&#45;&gt;Node2 -->
<g id="edge1" class="edge">
<title>Node1&#45;&gt;Node2</title>
<path fill="none" stroke="midnightblue" d="M340.13,-291.48C358.72,-282.96 387.88,-269.62 411.7,-258.72"/>
<polygon fill="midnightblue" stroke="midnightblue" points="413.23,-261.87 420.86,-254.52 410.31,-255.5 413.23,-261.87"/>
</g>
<!-- Node9 -->
<g id="node9" class="node">
<title>Node9</title>
<g id="a_node9"><a xlink:href="_cell_8hpp.html" target="_top" xlink:title=" ">
<polygon fill="white" stroke="black" points="0,-230 0,-249 117,-249 117,-230 0,-230"/>
<text text-anchor="middle" x="58.5" y="-237" font-family="Helvetica,sans-Serif" font-size="10.00">engine/objects/Cell.hpp</text>
</a>
</g>
</g>
<!-- Node1&#45;&gt;Node9 -->
<g id="edge8" class="edge">
<title>Node1&#45;&gt;Node9</title>
<path fill="none" stroke="midnightblue" d="M283.82,-291.48C236.95,-280.87 156.89,-262.76 105.9,-251.22"/>
<polygon fill="midnightblue" stroke="midnightblue" points="106.64,-247.8 96.11,-249.01 105.09,-254.63 106.64,-247.8"/>
</g>
<!-- Node12 -->
<g id="node12" class="node">
<title>Node12</title>
<g id="a_node12"><a xlink:href="_ground_earth_8hpp.html" target="_top" xlink:title=" ">
<polygon fill="white" stroke="black" points="525.5,-224.5 525.5,-254.5 637.5,-254.5 637.5,-224.5 525.5,-224.5"/>
<text text-anchor="start" x="533.5" y="-242.5" font-family="Helvetica,sans-Serif" font-size="10.00">engine/objects/ground</text>
<text text-anchor="middle" x="581.5" y="-231.5" font-family="Helvetica,sans-Serif" font-size="10.00">/GroundEarth.hpp</text>
</a>
</g>
</g>
<!-- Node1&#45;&gt;Node12 -->
<g id="edge16" class="edge">
<title>Node1&#45;&gt;Node12</title>
<path fill="none" stroke="midnightblue" d="M358.75,-291.48C399.47,-282.16 465.53,-267.04 515.16,-255.68"/>
<polygon fill="midnightblue" stroke="midnightblue" points="516.2,-259.03 525.17,-253.39 514.64,-252.21 516.2,-259.03"/>
</g>
<!-- Node13 -->
<g id="node13" class="node">
<title>Node13</title>
<g id="a_node13"><a xlink:href="_ground_water_8hpp.html" target="_top" xlink:title=" ">
<polygon fill="white" stroke="black" points="135.5,-224.5 135.5,-254.5 247.5,-254.5 247.5,-224.5 135.5,-224.5"/>
<text text-anchor="start" x="143.5" y="-242.5" font-family="Helvetica,sans-Serif" font-size="10.00">engine/objects/ground</text>
<text text-anchor="middle" x="191.5" y="-231.5" font-family="Helvetica,sans-Serif" font-size="10.00">/GroundWater.hpp</text>
</a>
</g>
</g>
<!-- Node1&#45;&gt;Node13 -->
<g id="edge18" class="edge">
<title>Node1&#45;&gt;Node13</title>
<path fill="none" stroke="midnightblue" d="M302.87,-291.48C284.28,-282.96 255.12,-269.62 231.3,-258.72"/>
<polygon fill="midnightblue" stroke="midnightblue" points="232.69,-255.5 222.14,-254.52 229.77,-261.87 232.69,-255.5"/>
</g>
<!-- Node14 -->
<g id="node14" class="node">
<title>Node14</title>
<g id="a_node14"><a xlink:href="_mineral_8hpp.html" target="_top" xlink:title=" ">
<polygon fill="white" stroke="black" points="265.5,-224.5 265.5,-254.5 377.5,-254.5 377.5,-224.5 265.5,-224.5"/>
<text text-anchor="start" x="273.5" y="-242.5" font-family="Helvetica,sans-Serif" font-size="10.00">engine/objects/ground</text>
<text text-anchor="middle" x="321.5" y="-231.5" font-family="Helvetica,sans-Serif" font-size="10.00">/Mineral.hpp</text>
</a>
</g>
</g>
<!-- Node1&#45;&gt;Node14 -->
<g id="edge20" class="edge">
<title>Node1&#45;&gt;Node14</title>
<path fill="none" stroke="midnightblue" d="M321.5,-291.48C321.5,-284.47 321.5,-274.19 321.5,-264.7"/>
<polygon fill="midnightblue" stroke="midnightblue" points="325,-264.52 321.5,-254.52 318,-264.52 325,-264.52"/>
</g>
<!-- Node3 -->
<g id="node3" class="node">
<title>Node3</title>
<g id="a_node3"><a xlink:href="_ground_8hpp.html" target="_top" xlink:title=" ">
<polygon fill="white" stroke="black" points="224.5,-168.5 224.5,-187.5 356.5,-187.5 356.5,-168.5 224.5,-168.5"/>
<text text-anchor="middle" x="290.5" y="-175.5" font-family="Helvetica,sans-Serif" font-size="10.00">engine/objects/Ground.hpp</text>
</a>
</g>
</g>
<!-- Node2&#45;&gt;Node3 -->
<g id="edge2" class="edge">
<title>Node2&#45;&gt;Node3</title>
<path fill="none" stroke="midnightblue" d="M413.35,-224.4C385.97,-214.28 349.46,-200.79 323.37,-191.15"/>
<polygon fill="midnightblue" stroke="midnightblue" points="324.52,-187.84 313.93,-187.66 322.09,-194.41 324.52,-187.84"/>
</g>
<!-- Node4 -->
<g id="node4" class="node">
<title>Node4</title>
<g id="a_node4"><a xlink:href="_drawable_8hpp.html" target="_top" xlink:title=" ">
<polygon fill="white" stroke="black" points="50,-112.5 50,-131.5 157,-131.5 157,-112.5 50,-112.5"/>
<text text-anchor="middle" x="103.5" y="-119.5" font-family="Helvetica,sans-Serif" font-size="10.00">engine/Drawable.hpp</text>
</a>
</g>
</g>
<!-- Node3&#45;&gt;Node4 -->
<g id="edge3" class="edge">
<title>Node3&#45;&gt;Node4</title>
<path fill="none" stroke="midnightblue" d="M260.87,-168.44C229,-159.24 178.17,-144.56 142.94,-134.39"/>
<polygon fill="midnightblue" stroke="midnightblue" points="143.57,-130.93 132.99,-131.52 141.63,-137.65 143.57,-130.93"/>
</g>
<!-- Node8 -->
<g id="node8" class="node">
<title>Node8</title>
<g id="a_node8"><a xlink:href="_tickable_8hpp.html" target="_top" xlink:title=" ">
<polygon fill="white" stroke="black" points="175,-112.5 175,-131.5 278,-131.5 278,-112.5 175,-112.5"/>
<text text-anchor="middle" x="226.5" y="-119.5" font-family="Helvetica,sans-Serif" font-size="10.00">engine/Tickable.hpp</text>
</a>
</g>
</g>
<!-- Node3&#45;&gt;Node8 -->
<g id="edge7" class="edge">
<title>Node3&#45;&gt;Node8</title>
<path fill="none" stroke="midnightblue" d="M280.22,-168.32C270.66,-160.26 256.22,-148.08 244.72,-138.37"/>
<polygon fill="midnightblue" stroke="midnightblue" points="246.87,-135.61 236.97,-131.83 242.36,-140.96 246.87,-135.61"/>
</g>
<!-- Node5 -->
<g id="node5" class="node">
<title>Node5</title>
<g id="a_node5"><a xlink:title=" ">
<polygon fill="white" stroke="#bfbfbf" points="17.5,-56.5 17.5,-75.5 83.5,-75.5 83.5,-56.5 17.5,-56.5"/>
<text text-anchor="middle" x="50.5" y="-63.5" font-family="Helvetica,sans-Serif" font-size="10.00">string_view</text>
</a>
</g>
</g>
<!-- Node4&#45;&gt;Node5 -->
<g id="edge4" class="edge">
<title>Node4&#45;&gt;Node5</title>
<path fill="none" stroke="midnightblue" d="M94.75,-112.08C87.03,-104.22 75.6,-92.57 66.28,-83.08"/>
<polygon fill="midnightblue" stroke="midnightblue" points="68.59,-80.44 59.09,-75.75 63.6,-85.34 68.59,-80.44"/>
</g>
<!-- Node6 -->
<g id="node6" class="node">
<title>Node6</title>
<g id="a_node6"><a xlink:href="_vector2_d_8hpp.html" target="_top" xlink:title=" ">
<polygon fill="white" stroke="black" points="101.5,-56.5 101.5,-75.5 213.5,-75.5 213.5,-56.5 101.5,-56.5"/>
<text text-anchor="middle" x="157.5" y="-63.5" font-family="Helvetica,sans-Serif" font-size="10.00">Helpers/Vector2D.hpp</text>
</a>
</g>
</g>
<!-- Node4&#45;&gt;Node6 -->
<g id="edge5" class="edge">
<title>Node4&#45;&gt;Node6</title>
<path fill="none" stroke="midnightblue" d="M112.42,-112.08C120.28,-104.22 131.93,-92.57 141.42,-83.08"/>
<polygon fill="midnightblue" stroke="midnightblue" points="144.15,-85.3 148.75,-75.75 139.2,-80.35 144.15,-85.3"/>
</g>
<!-- Node7 -->
<g id="node7" class="node">
<title>Node7</title>
<g id="a_node7"><a xlink:title=" ">
<polygon fill="white" stroke="#bfbfbf" points="138,-0.5 138,-19.5 177,-19.5 177,-0.5 138,-0.5"/>
<text text-anchor="middle" x="157.5" y="-7.5" font-family="Helvetica,sans-Serif" font-size="10.00">utility</text>
</a>
</g>
</g>
<!-- Node6&#45;&gt;Node7 -->
<g id="edge6" class="edge">
<title>Node6&#45;&gt;Node7</title>
<path fill="none" stroke="midnightblue" d="M157.5,-56.08C157.5,-49.01 157.5,-38.86 157.5,-29.99"/>
<polygon fill="midnightblue" stroke="midnightblue" points="161,-29.75 157.5,-19.75 154,-29.75 161,-29.75"/>
</g>
<!-- Node9&#45;&gt;Node3 -->
<g id="edge12" class="edge">
<title>Node9&#45;&gt;Node3</title>
<path fill="none" stroke="midnightblue" d="M91.74,-229.98C132.74,-219.46 202.53,-201.56 247.55,-190.01"/>
<polygon fill="midnightblue" stroke="midnightblue" points="248.5,-193.38 257.32,-187.51 246.77,-186.6 248.5,-193.38"/>
</g>
<!-- Node9&#45;&gt;Node4 -->
<g id="edge9" class="edge">
<title>Node9&#45;&gt;Node4</title>
<path fill="none" stroke="midnightblue" d="M49.63,-229.98C36.66,-216.44 15.32,-189.37 27.5,-168 35.91,-153.25 51.27,-142.84 65.98,-135.77"/>
<polygon fill="midnightblue" stroke="midnightblue" points="67.74,-138.83 75.48,-131.6 64.92,-132.42 67.74,-138.83"/>
</g>
<!-- Node9&#45;&gt;Node8 -->
<g id="edge10" class="edge">
<title>Node9&#45;&gt;Node8</title>
<path fill="none" stroke="midnightblue" d="M90.45,-229.96C115.88,-222.04 151.41,-208.38 177.5,-188 194.15,-175 208.06,-155.01 216.76,-140.64"/>
<polygon fill="midnightblue" stroke="midnightblue" points="219.93,-142.14 221.92,-131.73 213.87,-138.63 219.93,-142.14"/>
</g>
<!-- Node10 -->
<g id="node10" class="node">
<title>Node10</title>
<g id="a_node10"><a xlink:title=" ">
<polygon fill="white" stroke="#bfbfbf" points="36.5,-168.5 36.5,-187.5 80.5,-187.5 80.5,-168.5 36.5,-168.5"/>
<text text-anchor="middle" x="58.5" y="-175.5" font-family="Helvetica,sans-Serif" font-size="10.00">vector</text>
</a>
</g>
</g>
<!-- Node9&#45;&gt;Node10 -->
<g id="edge11" class="edge">
<title>Node9&#45;&gt;Node10</title>
<path fill="none" stroke="midnightblue" d="M58.5,-229.98C58.5,-221.58 58.5,-208.48 58.5,-197.66"/>
<polygon fill="midnightblue" stroke="midnightblue" points="62,-197.51 58.5,-187.51 55,-197.51 62,-197.51"/>
</g>
<!-- Node11 -->
<g id="node11" class="node">
<title>Node11</title>
<g id="a_node11"><a xlink:href="_building_8hpp.html" target="_top" xlink:title=" ">
<polygon fill="white" stroke="black" points="99,-168.5 99,-187.5 168,-187.5 168,-168.5 99,-168.5"/>
<text text-anchor="middle" x="133.5" y="-175.5" font-family="Helvetica,sans-Serif" font-size="10.00">Building.hpp</text>
</a>
</g>
</g>
<!-- Node9&#45;&gt;Node11 -->
<g id="edge13" class="edge">
<title>Node9&#45;&gt;Node11</title>
<path fill="none" stroke="midnightblue" d="M69.25,-229.98C81.05,-220.61 100.24,-205.38 114.58,-194.01"/>
<polygon fill="midnightblue" stroke="midnightblue" points="117.12,-196.47 122.77,-187.51 112.76,-190.98 117.12,-196.47"/>
</g>
<!-- Node11&#45;&gt;Node4 -->
<g id="edge14" class="edge">
<title>Node11&#45;&gt;Node4</title>
<path fill="none" stroke="midnightblue" d="M128.55,-168.08C124.4,-160.61 118.35,-149.72 113.23,-140.52"/>
<polygon fill="midnightblue" stroke="midnightblue" points="116.28,-138.79 108.36,-131.75 110.16,-142.19 116.28,-138.79"/>
</g>
<!-- Node11&#45;&gt;Node8 -->
<g id="edge15" class="edge">
<title>Node11&#45;&gt;Node8</title>
<path fill="none" stroke="midnightblue" d="M148.44,-168.32C163.09,-159.82 185.63,-146.73 202.74,-136.8"/>
<polygon fill="midnightblue" stroke="midnightblue" points="204.7,-139.7 211.6,-131.65 201.19,-133.65 204.7,-139.7"/>
</g>
<!-- Node12&#45;&gt;Node3 -->
<g id="edge17" class="edge">
<title>Node12&#45;&gt;Node3</title>
<path fill="none" stroke="midnightblue" d="M525.5,-225.92C522.46,-225.27 519.44,-224.62 516.5,-224 458.09,-211.67 390.99,-198.43 345.18,-189.52"/>
<polygon fill="midnightblue" stroke="midnightblue" points="345.64,-186.05 335.16,-187.58 344.31,-192.92 345.64,-186.05"/>
</g>
<!-- Node13&#45;&gt;Node3 -->
<g id="edge19" class="edge">
<title>Node13&#45;&gt;Node3</title>
<path fill="none" stroke="midnightblue" d="M214.96,-224.4C230.83,-214.86 251.69,-202.32 267.47,-192.84"/>
<polygon fill="midnightblue" stroke="midnightblue" points="269.33,-195.81 276.09,-187.66 265.72,-189.81 269.33,-195.81"/>
</g>
<!-- Node14&#45;&gt;Node3 -->
<g id="edge21" class="edge">
<title>Node14&#45;&gt;Node3</title>
<path fill="none" stroke="midnightblue" d="M314.15,-224.4C309.83,-216.11 304.33,-205.55 299.73,-196.71"/>
<polygon fill="midnightblue" stroke="midnightblue" points="302.74,-194.91 295.01,-187.66 296.53,-198.14 302.74,-194.91"/>
</g>
</g>
</svg>
