<?xml version="1.0" encoding="UTF-8" standalone="no"?>
<!DOCTYPE svg PUBLIC "-//W3C//DTD SVG 1.1//EN"
 "http://www.w3.org/Graphics/SVG/1.1/DTD/svg11.dtd">
<!-- Generated by graphviz version 2.47.0 (20210407.0042)
 -->
<!-- Title: include/SpritesManager.hpp Pages: 1 -->
<svg width="663pt" height="319pt"
 viewBox="0.00 0.00 662.50 319.00" xmlns="http://www.w3.org/2000/svg" xmlns:xlink="http://www.w3.org/1999/xlink">
<g id="graph0" class="graph" transform="scale(1 1) rotate(0) translate(4 315)">
<title>include/SpritesManager.hpp</title>
<polygon fill="white" stroke="transparent" points="-4,4 -4,-315 658.5,-315 658.5,4 -4,4"/>
<!-- Node1 -->
<g id="node1" class="node">
<title>Node1</title>
<g id="a_node1"><a xlink:title=" ">
<polygon fill="#bfbfbf" stroke="black" points="270,-291.5 270,-310.5 407,-310.5 407,-291.5 270,-291.5"/>
<text text-anchor="middle" x="338.5" y="-298.5" font-family="Helvetica,sans-Serif" font-size="10.00">include/SpritesManager.hpp</text>
</a>
</g>
</g>
<!-- Node2 -->
<g id="node2" class="node">
<title>Node2</title>
<g id="a_node2"><a xlink:href="_ground_empty_8hpp.html" target="_top" xlink:title=" ">
<polygon fill="white" stroke="black" points="282.5,-224.5 282.5,-254.5 394.5,-254.5 394.5,-224.5 282.5,-224.5"/>
<text text-anchor="start" x="290.5" y="-242.5" font-family="Helvetica,sans-Serif" font-size="10.00">engine/objects/ground</text>
<text text-anchor="middle" x="338.5" y="-231.5" font-family="Helvetica,sans-Serif" font-size="10.00">/GroundEmpty.hpp</text>
</a>
</g>
</g>
<!-- Node1&#45;&gt;Node2 -->
<g id="edge1" class="edge">
<title>Node1&#45;&gt;Node2</title>
<path fill="none" stroke="midnightblue" d="M338.5,-291.48C338.5,-284.47 338.5,-274.19 338.5,-264.7"/>
<polygon fill="midnightblue" stroke="midnightblue" points="342,-264.52 338.5,-254.52 335,-264.52 342,-264.52"/>
</g>
<!-- Node10 -->
<g id="node10" class="node">
<title>Node10</title>
<g id="a_node10"><a xlink:href="_cell_8hpp.html" target="_top" xlink:title=" ">
<polygon fill="white" stroke="black" points="17,-230 17,-249 134,-249 134,-230 17,-230"/>
<text text-anchor="middle" x="75.5" y="-237" font-family="Helvetica,sans-Serif" font-size="10.00">engine/objects/Cell.hpp</text>
</a>
</g>
</g>
<!-- Node1&#45;&gt;Node10 -->
<g id="edge9" class="edge">
<title>Node1&#45;&gt;Node10</title>
<path fill="none" stroke="midnightblue" d="M300.82,-291.48C253.95,-280.87 173.89,-262.76 122.9,-251.22"/>
<polygon fill="midnightblue" stroke="midnightblue" points="123.64,-247.8 113.11,-249.01 122.09,-254.63 123.64,-247.8"/>
</g>
<!-- Node14 -->
<g id="node14" class="node">
<title>Node14</title>
<g id="a_node14"><a xlink:href="_ground_earth_8hpp.html" target="_top" xlink:title=" ">
<polygon fill="white" stroke="black" points="412.5,-224.5 412.5,-254.5 524.5,-254.5 524.5,-224.5 412.5,-224.5"/>
<text text-anchor="start" x="420.5" y="-242.5" font-family="Helvetica,sans-Serif" font-size="10.00">engine/objects/ground</text>
<text text-anchor="middle" x="468.5" y="-231.5" font-family="Helvetica,sans-Serif" font-size="10.00">/GroundEarth.hpp</text>
</a>
</g>
</g>
<!-- Node1&#45;&gt;Node14 -->
<g id="edge18" class="edge">
<title>Node1&#45;&gt;Node14</title>
<path fill="none" stroke="midnightblue" d="M357.13,-291.48C375.72,-282.96 404.88,-269.62 428.7,-258.72"/>
<polygon fill="midnightblue" stroke="midnightblue" points="430.23,-261.87 437.86,-254.52 427.31,-255.5 430.23,-261.87"/>
</g>
<!-- Node15 -->
<g id="node15" class="node">
<title>Node15</title>
<g id="a_node15"><a xlink:href="_ground_water_8hpp.html" target="_top" xlink:title=" ">
<polygon fill="white" stroke="black" points="542.5,-224.5 542.5,-254.5 654.5,-254.5 654.5,-224.5 542.5,-224.5"/>
<text text-anchor="start" x="550.5" y="-242.5" font-family="Helvetica,sans-Serif" font-size="10.00">engine/objects/ground</text>
<text text-anchor="middle" x="598.5" y="-231.5" font-family="Helvetica,sans-Serif" font-size="10.00">/GroundWater.hpp</text>
</a>
</g>
</g>
<!-- Node1&#45;&gt;Node15 -->
<g id="edge20" class="edge">
<title>Node1&#45;&gt;Node15</title>
<path fill="none" stroke="midnightblue" d="M375.75,-291.48C416.47,-282.16 482.53,-267.04 532.16,-255.68"/>
<polygon fill="midnightblue" stroke="midnightblue" points="533.2,-259.03 542.17,-253.39 531.64,-252.21 533.2,-259.03"/>
</g>
<!-- Node16 -->
<g id="node16" class="node">
<title>Node16</title>
<g id="a_node16"><a xlink:href="_mineral_8hpp.html" target="_top" xlink:title=" ">
<polygon fill="white" stroke="black" points="152.5,-224.5 152.5,-254.5 264.5,-254.5 264.5,-224.5 152.5,-224.5"/>
<text text-anchor="start" x="160.5" y="-242.5" font-family="Helvetica,sans-Serif" font-size="10.00">engine/objects/ground</text>
<text text-anchor="middle" x="208.5" y="-231.5" font-family="Helvetica,sans-Serif" font-size="10.00">/Mineral.hpp</text>
</a>
</g>
</g>
<!-- Node1&#45;&gt;Node16 -->
<g id="edge22" class="edge">
<title>Node1&#45;&gt;Node16</title>
<path fill="none" stroke="midnightblue" d="M319.87,-291.48C301.28,-282.96 272.12,-269.62 248.3,-258.72"/>
<polygon fill="midnightblue" stroke="midnightblue" points="249.69,-255.5 239.14,-254.52 246.77,-261.87 249.69,-255.5"/>
</g>
<!-- Node3 -->
<g id="node3" class="node">
<title>Node3</title>
<g id="a_node3"><a xlink:href="_ground_8hpp.html" target="_top" xlink:title=" ">
<polygon fill="white" stroke="black" points="241.5,-168.5 241.5,-187.5 373.5,-187.5 373.5,-168.5 241.5,-168.5"/>
<text text-anchor="middle" x="307.5" y="-175.5" font-family="Helvetica,sans-Serif" font-size="10.00">engine/objects/Ground.hpp</text>
</a>
</g>
</g>
<!-- Node2&#45;&gt;Node3 -->
<g id="edge2" class="edge">
<title>Node2&#45;&gt;Node3</title>
<path fill="none" stroke="midnightblue" d="M331.15,-224.4C326.83,-216.11 321.33,-205.55 316.73,-196.71"/>
<polygon fill="midnightblue" stroke="midnightblue" points="319.74,-194.91 312.01,-187.66 313.53,-198.14 319.74,-194.91"/>
</g>
<!-- Node4 -->
<g id="node4" class="node">
<title>Node4</title>
<g id="a_node4"><a xlink:href="_drawable_8hpp.html" target="_top" xlink:title=" ">
<polygon fill="white" stroke="black" points="198,-112.5 198,-131.5 305,-131.5 305,-112.5 198,-112.5"/>
<text text-anchor="middle" x="251.5" y="-119.5" font-family="Helvetica,sans-Serif" font-size="10.00">engine/Drawable.hpp</text>
</a>
</g>
</g>
<!-- Node3&#45;&gt;Node4 -->
<g id="edge3" class="edge">
<title>Node3&#45;&gt;Node4</title>
<path fill="none" stroke="midnightblue" d="M298.5,-168.32C290.31,-160.42 277.99,-148.55 268.03,-138.94"/>
<polygon fill="midnightblue" stroke="midnightblue" points="270.29,-136.26 260.66,-131.83 265.43,-141.29 270.29,-136.26"/>
</g>
<!-- Node9 -->
<g id="node9" class="node">
<title>Node9</title>
<g id="a_node9"><a xlink:href="_tickable_8hpp.html" target="_top" xlink:title=" ">
<polygon fill="white" stroke="black" points="0,-112.5 0,-131.5 103,-131.5 103,-112.5 0,-112.5"/>
<text text-anchor="middle" x="51.5" y="-119.5" font-family="Helvetica,sans-Serif" font-size="10.00">engine/Tickable.hpp</text>
</a>
</g>
</g>
<!-- Node3&#45;&gt;Node9 -->
<g id="edge8" class="edge">
<title>Node3&#45;&gt;Node9</title>
<path fill="none" stroke="midnightblue" d="M266.94,-168.44C222.18,-159 150.12,-143.8 101.8,-133.61"/>
<polygon fill="midnightblue" stroke="midnightblue" points="102.38,-130.16 91.87,-131.52 100.94,-137.01 102.38,-130.16"/>
</g>
<!-- Node5 -->
<g id="node5" class="node">
<title>Node5</title>
<g id="a_node5"><a xlink:title=" ">
<polygon fill="white" stroke="#bfbfbf" points="164.5,-56.5 164.5,-75.5 230.5,-75.5 230.5,-56.5 164.5,-56.5"/>
<text text-anchor="middle" x="197.5" y="-63.5" font-family="Helvetica,sans-Serif" font-size="10.00">string_view</text>
</a>
</g>
</g>
<!-- Node4&#45;&gt;Node5 -->
<g id="edge4" class="edge">
<title>Node4&#45;&gt;Node5</title>
<path fill="none" stroke="midnightblue" d="M242.58,-112.08C234.72,-104.22 223.07,-92.57 213.58,-83.08"/>
<polygon fill="midnightblue" stroke="midnightblue" points="215.8,-80.35 206.25,-75.75 210.85,-85.3 215.8,-80.35"/>
</g>
<!-- Node6 -->
<g id="node6" class="node">
<title>Node6</title>
<g id="a_node6"><a xlink:href="_vector2_d_8hpp.html" target="_top" xlink:title=" ">
<polygon fill="white" stroke="black" points="248.5,-56.5 248.5,-75.5 360.5,-75.5 360.5,-56.5 248.5,-56.5"/>
<text text-anchor="middle" x="304.5" y="-63.5" font-family="Helvetica,sans-Serif" font-size="10.00">Helpers/Vector2D.hpp</text>
</a>
</g>
</g>
<!-- Node4&#45;&gt;Node6 -->
<g id="edge5" class="edge">
<title>Node4&#45;&gt;Node6</title>
<path fill="none" stroke="midnightblue" d="M260.25,-112.08C267.97,-104.22 279.4,-92.57 288.72,-83.08"/>
<polygon fill="midnightblue" stroke="midnightblue" points="291.4,-85.34 295.91,-75.75 286.41,-80.44 291.4,-85.34"/>
</g>
<!-- Node7 -->
<g id="node7" class="node">
<title>Node7</title>
<g id="a_node7"><a xlink:title=" ">
<polygon fill="white" stroke="#bfbfbf" points="255,-0.5 255,-19.5 294,-19.5 294,-0.5 255,-0.5"/>
<text text-anchor="middle" x="274.5" y="-7.5" font-family="Helvetica,sans-Serif" font-size="10.00">utility</text>
</a>
</g>
</g>
<!-- Node6&#45;&gt;Node7 -->
<g id="edge6" class="edge">
<title>Node6&#45;&gt;Node7</title>
<path fill="none" stroke="midnightblue" d="M299.55,-56.08C295.4,-48.61 289.35,-37.72 284.23,-28.52"/>
<polygon fill="midnightblue" stroke="midnightblue" points="287.28,-26.79 279.36,-19.75 281.16,-30.19 287.28,-26.79"/>
</g>
<!-- Node8 -->
<g id="node8" class="node">
<title>Node8</title>
<g id="a_node8"><a xlink:title=" ">
<polygon fill="white" stroke="#bfbfbf" points="312.5,-0.5 312.5,-19.5 356.5,-19.5 356.5,-0.5 312.5,-0.5"/>
<text text-anchor="middle" x="334.5" y="-7.5" font-family="Helvetica,sans-Serif" font-size="10.00">cmath</text>
</a>
</g>
</g>
<!-- Node6&#45;&gt;Node8 -->
<g id="edge7" class="edge">
<title>Node6&#45;&gt;Node8</title>
<path fill="none" stroke="midnightblue" d="M309.45,-56.08C313.6,-48.61 319.65,-37.72 324.77,-28.52"/>
<polygon fill="midnightblue" stroke="midnightblue" points="327.84,-30.19 329.64,-19.75 321.72,-26.79 327.84,-30.19"/>
</g>
<!-- Node10&#45;&gt;Node3 -->
<g id="edge13" class="edge">
<title>Node10&#45;&gt;Node3</title>
<path fill="none" stroke="midnightblue" d="M108.74,-229.98C149.74,-219.46 219.53,-201.56 264.55,-190.01"/>
<polygon fill="midnightblue" stroke="midnightblue" points="265.5,-193.38 274.32,-187.51 263.77,-186.6 265.5,-193.38"/>
</g>
<!-- Node10&#45;&gt;Node4 -->
<g id="edge10" class="edge">
<title>Node10&#45;&gt;Node4</title>
<path fill="none" stroke="midnightblue" d="M104.98,-229.9C130.03,-221.68 166.18,-207.64 193.5,-188 212.04,-174.67 228.88,-154.47 239.58,-140.12"/>
<polygon fill="midnightblue" stroke="midnightblue" points="242.66,-141.83 245.68,-131.68 236.99,-137.73 242.66,-141.83"/>
</g>
<!-- Node10&#45;&gt;Node9 -->
<g id="edge11" class="edge">
<title>Node10&#45;&gt;Node9</title>
<path fill="none" stroke="midnightblue" d="M68.14,-229.91C60.52,-220.4 49.09,-204.24 44.5,-188 40.16,-172.64 42.7,-154.54 45.87,-141.35"/>
<polygon fill="midnightblue" stroke="midnightblue" points="49.28,-142.16 48.55,-131.59 42.53,-140.31 49.28,-142.16"/>
</g>
<!-- Node11 -->
<g id="node11" class="node">
<title>Node11</title>
<g id="a_node11"><a xlink:title=" ">
<polygon fill="white" stroke="#bfbfbf" points="53.5,-168.5 53.5,-187.5 97.5,-187.5 97.5,-168.5 53.5,-168.5"/>
<text text-anchor="middle" x="75.5" y="-175.5" font-family="Helvetica,sans-Serif" font-size="10.00">vector</text>
</a>
</g>
</g>
<!-- Node10&#45;&gt;Node11 -->
<g id="edge12" class="edge">
<title>Node10&#45;&gt;Node11</title>
<path fill="none" stroke="midnightblue" d="M75.5,-229.98C75.5,-221.58 75.5,-208.48 75.5,-197.66"/>
<polygon fill="midnightblue" stroke="midnightblue" points="79,-197.51 75.5,-187.51 72,-197.51 79,-197.51"/>
</g>
<!-- Node12 -->
<g id="node12" class="node">
<title>Node12</title>
<g id="a_node12"><a xlink:href="_building_8hpp.html" target="_top" xlink:title=" ">
<polygon fill="white" stroke="black" points="116,-168.5 116,-187.5 185,-187.5 185,-168.5 116,-168.5"/>
<text text-anchor="middle" x="150.5" y="-175.5" font-family="Helvetica,sans-Serif" font-size="10.00">Building.hpp</text>
</a>
</g>
</g>
<!-- Node10&#45;&gt;Node12 -->
<g id="edge14" class="edge">
<title>Node10&#45;&gt;Node12</title>
<path fill="none" stroke="midnightblue" d="M86.25,-229.98C98.05,-220.61 117.24,-205.38 131.58,-194.01"/>
<polygon fill="midnightblue" stroke="midnightblue" points="134.12,-196.47 139.77,-187.51 129.76,-190.98 134.12,-196.47"/>
</g>
<!-- Node12&#45;&gt;Node4 -->
<g id="edge15" class="edge">
<title>Node12&#45;&gt;Node4</title>
<path fill="none" stroke="midnightblue" d="M166.73,-168.32C182.85,-159.7 207.8,-146.36 226.46,-136.39"/>
<polygon fill="midnightblue" stroke="midnightblue" points="228.14,-139.46 235.31,-131.65 224.84,-133.28 228.14,-139.46"/>
</g>
<!-- Node12&#45;&gt;Node9 -->
<g id="edge16" class="edge">
<title>Node12&#45;&gt;Node9</title>
<path fill="none" stroke="midnightblue" d="M134.59,-168.32C118.86,-159.74 94.56,-146.49 76.29,-136.52"/>
<polygon fill="midnightblue" stroke="midnightblue" points="77.82,-133.37 67.37,-131.65 74.47,-139.52 77.82,-133.37"/>
</g>
<!-- Node13 -->
<g id="node13" class="node">
<title>Node13</title>
<g id="a_node13"><a xlink:title=" ">
<polygon fill="white" stroke="#bfbfbf" points="121,-112.5 121,-131.5 180,-131.5 180,-112.5 121,-112.5"/>
<text text-anchor="middle" x="150.5" y="-119.5" font-family="Helvetica,sans-Serif" font-size="10.00">functional</text>
</a>
</g>
</g>
<!-- Node12&#45;&gt;Node13 -->
<g id="edge17" class="edge">
<title>Node12&#45;&gt;Node13</title>
<path fill="none" stroke="midnightblue" d="M150.5,-168.08C150.5,-161.01 150.5,-150.86 150.5,-141.99"/>
<polygon fill="midnightblue" stroke="midnightblue" points="154,-141.75 150.5,-131.75 147,-141.75 154,-141.75"/>
</g>
<!-- Node14&#45;&gt;Node3 -->
<g id="edge19" class="edge">
<title>Node14&#45;&gt;Node3</title>
<path fill="none" stroke="midnightblue" d="M430.35,-224.4C402.97,-214.28 366.46,-200.79 340.37,-191.15"/>
<polygon fill="midnightblue" stroke="midnightblue" points="341.52,-187.84 330.93,-187.66 339.09,-194.41 341.52,-187.84"/>
</g>
<!-- Node15&#45;&gt;Node3 -->
<g id="edge21" class="edge">
<title>Node15&#45;&gt;Node3</title>
<path fill="none" stroke="midnightblue" d="M542.5,-225.92C539.46,-225.27 536.44,-224.62 533.5,-224 475.09,-211.67 407.99,-198.43 362.18,-189.52"/>
<polygon fill="midnightblue" stroke="midnightblue" points="362.64,-186.05 352.16,-187.58 361.31,-192.92 362.64,-186.05"/>
</g>
<!-- Node16&#45;&gt;Node3 -->
<g id="edge23" class="edge">
<title>Node16&#45;&gt;Node3</title>
<path fill="none" stroke="midnightblue" d="M231.96,-224.4C247.83,-214.86 268.69,-202.32 284.47,-192.84"/>
<polygon fill="midnightblue" stroke="midnightblue" points="286.33,-195.81 293.09,-187.66 282.72,-189.81 286.33,-195.81"/>
</g>
</g>
</svg>
