<?xml version="1.0" encoding="UTF-8" standalone="no"?>
<!DOCTYPE svg PUBLIC "-//W3C//DTD SVG 1.1//EN"
 "http://www.w3.org/Graphics/SVG/1.1/DTD/svg11.dtd">
<!-- Generated by graphviz version 2.47.0 (20210407.0042)
 -->
<!-- Title: include/engine/Tickable.hpp Pages: 1 -->
<svg width="1037pt" height="542pt"
 viewBox="0.00 0.00 1037.00 542.00" xmlns="http://www.w3.org/2000/svg" xmlns:xlink="http://www.w3.org/1999/xlink">
<g id="graph0" class="graph" transform="scale(1 1) rotate(0) translate(4 538)">
<title>include/engine/Tickable.hpp</title>
<polygon fill="white" stroke="transparent" points="-4,4 -4,-538 1033,-538 1033,4 -4,4"/>
<!-- Node1 -->
<g id="node1" class="node">
<title>Node1</title>
<g id="a_node1"><a xlink:title=" ">
<polygon fill="#bfbfbf" stroke="black" points="203.5,-514.5 203.5,-533.5 340.5,-533.5 340.5,-514.5 203.5,-514.5"/>
<text text-anchor="middle" x="272" y="-521.5" font-family="Helvetica,sans-Serif" font-size="10.00">include/engine/Tickable.hpp</text>
</a>
</g>
</g>
<!-- Node2 -->
<g id="node2" class="node">
<title>Node2</title>
<g id="a_node2"><a xlink:href="_tickable_8cpp.html" target="_top" xlink:title=" ">
<polygon fill="white" stroke="black" points="36.5,-453 36.5,-472 155.5,-472 155.5,-453 36.5,-453"/>
<text text-anchor="middle" x="96" y="-460" font-family="Helvetica,sans-Serif" font-size="10.00">src/engine/Tickable.cpp</text>
</a>
</g>
</g>
<!-- Node1&#45;&gt;Node2 -->
<g id="edge1" class="edge">
<title>Node1&#45;&gt;Node2</title>
<path fill="none" stroke="midnightblue" d="M237.19,-511.23C202.98,-499.67 151.6,-482.3 121.17,-472.01"/>
<polygon fill="midnightblue" stroke="midnightblue" points="236.19,-514.59 246.78,-514.48 238.43,-507.96 236.19,-514.59"/>
</g>
<!-- Node3 -->
<g id="node3" class="node">
<title>Node3</title>
<g id="a_node3"><a xlink:href="_building_8hpp.html" target="_top" xlink:title=" ">
<polygon fill="white" stroke="black" points="173.5,-447.5 173.5,-477.5 286.5,-477.5 286.5,-447.5 173.5,-447.5"/>
<text text-anchor="start" x="181.5" y="-465.5" font-family="Helvetica,sans-Serif" font-size="10.00">include/engine/objects</text>
<text text-anchor="middle" x="230" y="-454.5" font-family="Helvetica,sans-Serif" font-size="10.00">/Building.hpp</text>
</a>
</g>
</g>
<!-- Node1&#45;&gt;Node3 -->
<g id="edge2" class="edge">
<title>Node1&#45;&gt;Node3</title>
<path fill="none" stroke="midnightblue" d="M260.17,-506.25C253.78,-497.19 245.97,-486.12 239.9,-477.52"/>
<polygon fill="midnightblue" stroke="midnightblue" points="257.36,-508.32 265.98,-514.48 263.07,-504.29 257.36,-508.32"/>
</g>
<!-- Node5 -->
<g id="node5" class="node">
<title>Node5</title>
<g id="a_node5"><a xlink:href="_cell_8hpp.html" target="_top" xlink:title=" ">
<polygon fill="white" stroke="black" points="216.5,-380.5 216.5,-410.5 329.5,-410.5 329.5,-380.5 216.5,-380.5"/>
<text text-anchor="start" x="224.5" y="-398.5" font-family="Helvetica,sans-Serif" font-size="10.00">include/engine/objects</text>
<text text-anchor="middle" x="273" y="-387.5" font-family="Helvetica,sans-Serif" font-size="10.00">/Cell.hpp</text>
</a>
</g>
</g>
<!-- Node1&#45;&gt;Node5 -->
<g id="edge25" class="edge">
<title>Node1&#45;&gt;Node5</title>
<path fill="none" stroke="midnightblue" d="M283.42,-505.44C287.98,-497.42 292.69,-487.58 295,-478 298.22,-464.6 297.81,-460.49 295,-447 292.31,-434.08 286.13,-420.41 281,-410.56"/>
<polygon fill="midnightblue" stroke="midnightblue" points="280.31,-503.83 278.1,-514.19 286.29,-507.46 280.31,-503.83"/>
</g>
<!-- Node23 -->
<g id="node23" class="node">
<title>Node23</title>
<g id="a_node23"><a xlink:href="_ground_8hpp.html" target="_top" xlink:title=" ">
<polygon fill="white" stroke="black" points="501.5,-447.5 501.5,-477.5 614.5,-477.5 614.5,-447.5 501.5,-447.5"/>
<text text-anchor="start" x="509.5" y="-465.5" font-family="Helvetica,sans-Serif" font-size="10.00">include/engine/objects</text>
<text text-anchor="middle" x="558" y="-454.5" font-family="Helvetica,sans-Serif" font-size="10.00">/Ground.hpp</text>
</a>
</g>
</g>
<!-- Node1&#45;&gt;Node23 -->
<g id="edge26" class="edge">
<title>Node1&#45;&gt;Node23</title>
<path fill="none" stroke="midnightblue" d="M322.94,-512.4C373.03,-501.98 449.34,-486.11 501.32,-475.29"/>
<polygon fill="midnightblue" stroke="midnightblue" points="322.05,-509.01 312.98,-514.48 323.48,-515.86 322.05,-509.01"/>
</g>
<!-- Node4 -->
<g id="node4" class="node">
<title>Node4</title>
<g id="a_node4"><a xlink:href="_building_8cpp.html" target="_top" xlink:title=" ">
<polygon fill="white" stroke="black" points="102,-380.5 102,-410.5 198,-410.5 198,-380.5 102,-380.5"/>
<text text-anchor="start" x="110" y="-398.5" font-family="Helvetica,sans-Serif" font-size="10.00">src/engine/objects</text>
<text text-anchor="middle" x="150" y="-387.5" font-family="Helvetica,sans-Serif" font-size="10.00">/Building.cpp</text>
</a>
</g>
</g>
<!-- Node3&#45;&gt;Node4 -->
<g id="edge3" class="edge">
<title>Node3&#45;&gt;Node4</title>
<path fill="none" stroke="midnightblue" d="M204.63,-440.88C192.47,-431.01 178.22,-419.43 167.32,-410.58"/>
<polygon fill="midnightblue" stroke="midnightblue" points="202.67,-443.81 212.64,-447.4 207.09,-438.37 202.67,-443.81"/>
</g>
<!-- Node3&#45;&gt;Node5 -->
<g id="edge4" class="edge">
<title>Node3&#45;&gt;Node5</title>
<path fill="none" stroke="midnightblue" d="M244.97,-438.87C251.2,-429.46 258.23,-418.83 263.69,-410.58"/>
<polygon fill="midnightblue" stroke="midnightblue" points="241.93,-437.12 239.33,-447.4 247.77,-440.99 241.93,-437.12"/>
</g>
<!-- Node6 -->
<g id="node6" class="node">
<title>Node6</title>
<g id="a_node6"><a xlink:href="_cell_8cpp.html" target="_top" xlink:title=" ">
<polygon fill="white" stroke="black" points="225,-313.5 225,-343.5 321,-343.5 321,-313.5 225,-313.5"/>
<text text-anchor="start" x="233" y="-331.5" font-family="Helvetica,sans-Serif" font-size="10.00">src/engine/objects</text>
<text text-anchor="middle" x="273" y="-320.5" font-family="Helvetica,sans-Serif" font-size="10.00">/Cell.cpp</text>
</a>
</g>
</g>
<!-- Node5&#45;&gt;Node6 -->
<g id="edge5" class="edge">
<title>Node5&#45;&gt;Node6</title>
<path fill="none" stroke="midnightblue" d="M273,-370.11C273,-361.15 273,-351.32 273,-343.58"/>
<polygon fill="midnightblue" stroke="midnightblue" points="269.5,-370.4 273,-380.4 276.5,-370.4 269.5,-370.4"/>
</g>
<!-- Node7 -->
<g id="node7" class="node">
<title>Node7</title>
<g id="a_node7"><a xlink:href="_field_8hpp.html" target="_top" xlink:title=" ">
<polygon fill="white" stroke="black" points="85.5,-319 85.5,-338 206.5,-338 206.5,-319 85.5,-319"/>
<text text-anchor="middle" x="146" y="-326" font-family="Helvetica,sans-Serif" font-size="10.00">include/engine/Field.hpp</text>
</a>
</g>
</g>
<!-- Node5&#45;&gt;Node7 -->
<g id="edge6" class="edge">
<title>Node5&#45;&gt;Node7</title>
<path fill="none" stroke="midnightblue" d="M236.47,-375.8C212.12,-363.34 181.28,-347.56 162.62,-338.01"/>
<polygon fill="midnightblue" stroke="midnightblue" points="234.95,-378.96 245.44,-380.4 238.14,-372.72 234.95,-378.96"/>
</g>
<!-- Node21 -->
<g id="node21" class="node">
<title>Node21</title>
<g id="a_node21"><a xlink:href="_sprites_manager_8hpp.html" target="_top" xlink:title=" ">
<polygon fill="white" stroke="black" points="485.5,-319 485.5,-338 622.5,-338 622.5,-319 485.5,-319"/>
<text text-anchor="middle" x="554" y="-326" font-family="Helvetica,sans-Serif" font-size="10.00">include/SpritesManager.hpp</text>
</a>
</g>
</g>
<!-- Node5&#45;&gt;Node21 -->
<g id="edge21" class="edge">
<title>Node5&#45;&gt;Node21</title>
<path fill="none" stroke="midnightblue" d="M339.29,-379.17C394.86,-366.31 472.15,-348.43 517.24,-338"/>
<polygon fill="midnightblue" stroke="midnightblue" points="338.48,-375.76 329.53,-381.42 340.06,-382.58 338.48,-375.76"/>
</g>
<!-- Node8 -->
<g id="node8" class="node">
<title>Node8</title>
<g id="a_node8"><a xlink:href="_field_8cpp.html" target="_top" xlink:title=" ">
<polygon fill="white" stroke="black" points="297,-257.5 297,-276.5 401,-276.5 401,-257.5 297,-257.5"/>
<text text-anchor="middle" x="349" y="-264.5" font-family="Helvetica,sans-Serif" font-size="10.00">src/engine/Field.cpp</text>
</a>
</g>
</g>
<!-- Node7&#45;&gt;Node8 -->
<g id="edge7" class="edge">
<title>Node7&#45;&gt;Node8</title>
<path fill="none" stroke="midnightblue" d="M184.89,-316.1C224.34,-304.54 284.49,-286.91 319.97,-276.51"/>
<polygon fill="midnightblue" stroke="midnightblue" points="183.7,-312.8 175.08,-318.98 185.67,-319.52 183.7,-312.8"/>
</g>
<!-- Node9 -->
<g id="node9" class="node">
<title>Node9</title>
<g id="a_node9"><a xlink:href="_world_actor_8hpp.html" target="_top" xlink:title=" ">
<polygon fill="white" stroke="black" points="115,-257.5 115,-276.5 263,-276.5 263,-257.5 115,-257.5"/>
<text text-anchor="middle" x="189" y="-264.5" font-family="Helvetica,sans-Serif" font-size="10.00">include/engine/WorldActor.hpp</text>
</a>
</g>
</g>
<!-- Node7&#45;&gt;Node9 -->
<g id="edge8" class="edge">
<title>Node7&#45;&gt;Node9</title>
<path fill="none" stroke="midnightblue" d="M158.04,-310.84C166.11,-299.67 176.41,-285.43 182.85,-276.51"/>
<polygon fill="midnightblue" stroke="midnightblue" points="155.18,-308.82 152.16,-318.98 160.86,-312.92 155.18,-308.82"/>
</g>
<!-- Node10 -->
<g id="node10" class="node">
<title>Node10</title>
<g id="a_node10"><a xlink:href="_world_actor_8cpp.html" target="_top" xlink:title=" ">
<polygon fill="white" stroke="black" points="274.5,-196 274.5,-215 405.5,-215 405.5,-196 274.5,-196"/>
<text text-anchor="middle" x="340" y="-203" font-family="Helvetica,sans-Serif" font-size="10.00">src/engine/WorldActor.cpp</text>
</a>
</g>
</g>
<!-- Node9&#45;&gt;Node10 -->
<g id="edge9" class="edge">
<title>Node9&#45;&gt;Node10</title>
<path fill="none" stroke="midnightblue" d="M220.01,-253.78C249.35,-242.22 292.63,-225.16 318.41,-215.01"/>
<polygon fill="midnightblue" stroke="midnightblue" points="218.66,-250.55 210.63,-257.48 221.22,-257.07 218.66,-250.55"/>
</g>
<!-- Node11 -->
<g id="node11" class="node">
<title>Node11</title>
<g id="a_node11"><a xlink:href="_player_8hpp.html" target="_top" xlink:title=" ">
<polygon fill="white" stroke="black" points="12.5,-190.5 12.5,-220.5 125.5,-220.5 125.5,-190.5 12.5,-190.5"/>
<text text-anchor="start" x="20.5" y="-208.5" font-family="Helvetica,sans-Serif" font-size="10.00">include/engine/objects</text>
<text text-anchor="middle" x="69" y="-197.5" font-family="Helvetica,sans-Serif" font-size="10.00">/Player.hpp</text>
</a>
</g>
</g>
<!-- Node9&#45;&gt;Node11 -->
<g id="edge10" class="edge">
<title>Node9&#45;&gt;Node11</title>
<path fill="none" stroke="midnightblue" d="M162.66,-252.94C143.31,-243.35 117.07,-230.33 97.28,-220.52"/>
<polygon fill="midnightblue" stroke="midnightblue" points="161.29,-256.17 171.81,-257.48 164.4,-249.9 161.29,-256.17"/>
</g>
<!-- Node17 -->
<g id="node17" class="node">
<title>Node17</title>
<g id="a_node17"><a xlink:href="_unit_8hpp.html" target="_top" xlink:title=" ">
<polygon fill="white" stroke="black" points="143.5,-190.5 143.5,-220.5 256.5,-220.5 256.5,-190.5 143.5,-190.5"/>
<text text-anchor="start" x="151.5" y="-208.5" font-family="Helvetica,sans-Serif" font-size="10.00">include/engine/objects</text>
<text text-anchor="middle" x="200" y="-197.5" font-family="Helvetica,sans-Serif" font-size="10.00">/Unit.hpp</text>
</a>
</g>
</g>
<!-- Node9&#45;&gt;Node17 -->
<g id="edge16" class="edge">
<title>Node9&#45;&gt;Node17</title>
<path fill="none" stroke="midnightblue" d="M192.42,-247.53C194.03,-238.81 195.92,-228.59 197.41,-220.52"/>
<polygon fill="midnightblue" stroke="midnightblue" points="188.95,-247.01 190.58,-257.48 195.84,-248.28 188.95,-247.01"/>
</g>
<!-- Node12 -->
<g id="node12" class="node">
<title>Node12</title>
<g id="a_node12"><a xlink:href="_player_8cpp.html" target="_top" xlink:title=" ">
<polygon fill="white" stroke="black" points="0,-123.5 0,-153.5 96,-153.5 96,-123.5 0,-123.5"/>
<text text-anchor="start" x="8" y="-141.5" font-family="Helvetica,sans-Serif" font-size="10.00">src/engine/objects</text>
<text text-anchor="middle" x="48" y="-130.5" font-family="Helvetica,sans-Serif" font-size="10.00">/Player.cpp</text>
</a>
</g>
</g>
<!-- Node11&#45;&gt;Node12 -->
<g id="edge11" class="edge">
<title>Node11&#45;&gt;Node12</title>
<path fill="none" stroke="midnightblue" d="M61.31,-180.7C58.37,-171.59 55.11,-161.49 52.55,-153.58"/>
<polygon fill="midnightblue" stroke="midnightblue" points="58.04,-181.96 64.44,-190.4 64.7,-179.8 58.04,-181.96"/>
</g>
<!-- Node13 -->
<g id="node13" class="node">
<title>Node13</title>
<g id="a_node13"><a xlink:href="_engine_8hpp.html" target="_top" xlink:title=" ">
<polygon fill="white" stroke="black" points="178,-62 178,-81 276,-81 276,-62 178,-62"/>
<text text-anchor="middle" x="227" y="-69" font-family="Helvetica,sans-Serif" font-size="10.00">include/Engine.hpp</text>
</a>
</g>
</g>
<!-- Node11&#45;&gt;Node13 -->
<g id="edge12" class="edge">
<title>Node11&#45;&gt;Node13</title>
<path fill="none" stroke="midnightblue" d="M86.03,-182.44C100.12,-165.04 121.29,-140.82 143,-123 164.17,-105.62 191.94,-90.12 209.63,-81.02"/>
<polygon fill="midnightblue" stroke="midnightblue" points="83.2,-180.37 79.7,-190.37 88.67,-184.73 83.2,-180.37"/>
</g>
<!-- Node14 -->
<g id="node14" class="node">
<title>Node14</title>
<g id="a_node14"><a xlink:href="_drawable_8cpp.html" target="_top" xlink:title=" ">
<polygon fill="white" stroke="black" points="184.5,-0.5 184.5,-19.5 307.5,-19.5 307.5,-0.5 184.5,-0.5"/>
<text text-anchor="middle" x="246" y="-7.5" font-family="Helvetica,sans-Serif" font-size="10.00">src/engine/Drawable.cpp</text>
</a>
</g>
</g>
<!-- Node13&#45;&gt;Node14 -->
<g id="edge13" class="edge">
<title>Node13&#45;&gt;Node14</title>
<path fill="none" stroke="midnightblue" d="M232.86,-52.16C236.33,-41.27 240.58,-27.99 243.28,-19.51"/>
<polygon fill="midnightblue" stroke="midnightblue" points="229.43,-51.38 229.72,-61.98 236.1,-53.51 229.43,-51.38"/>
</g>
<!-- Node15 -->
<g id="node15" class="node">
<title>Node15</title>
<g id="a_node15"><a xlink:href="_engine_8cpp.html" target="_top" xlink:title=" ">
<polygon fill="white" stroke="black" points="86,-0.5 86,-19.5 166,-19.5 166,-0.5 86,-0.5"/>
<text text-anchor="middle" x="126" y="-7.5" font-family="Helvetica,sans-Serif" font-size="10.00">src/Engine.cpp</text>
</a>
</g>
</g>
<!-- Node13&#45;&gt;Node15 -->
<g id="edge14" class="edge">
<title>Node13&#45;&gt;Node15</title>
<path fill="none" stroke="midnightblue" d="M203.65,-56.74C184.14,-45.25 156.93,-29.22 140.44,-19.51"/>
<polygon fill="midnightblue" stroke="midnightblue" points="202.14,-59.91 212.53,-61.98 205.69,-53.88 202.14,-59.91"/>
</g>
<!-- Node16 -->
<g id="node16" class="node">
<title>Node16</title>
<g id="a_node16"><a xlink:href="main_8cpp.html" target="_top" xlink:title=" ">
<polygon fill="white" stroke="black" points="381,-0.5 381,-19.5 453,-19.5 453,-0.5 381,-0.5"/>
<text text-anchor="middle" x="417" y="-7.5" font-family="Helvetica,sans-Serif" font-size="10.00">src/main.cpp</text>
</a>
</g>
</g>
<!-- Node13&#45;&gt;Node16 -->
<g id="edge15" class="edge">
<title>Node13&#45;&gt;Node16</title>
<path fill="none" stroke="midnightblue" d="M264.1,-58.88C301.04,-47.32 356.84,-29.84 389.83,-19.51"/>
<polygon fill="midnightblue" stroke="midnightblue" points="262.72,-55.65 254.22,-61.98 264.81,-62.33 262.72,-55.65"/>
</g>
<!-- Node18 -->
<g id="node18" class="node">
<title>Node18</title>
<g id="a_node18"><a xlink:href="_unit_8cpp.html" target="_top" xlink:title=" ">
<polygon fill="white" stroke="black" points="152,-123.5 152,-153.5 248,-153.5 248,-123.5 152,-123.5"/>
<text text-anchor="start" x="160" y="-141.5" font-family="Helvetica,sans-Serif" font-size="10.00">src/engine/objects</text>
<text text-anchor="middle" x="200" y="-130.5" font-family="Helvetica,sans-Serif" font-size="10.00">/Unit.cpp</text>
</a>
</g>
</g>
<!-- Node17&#45;&gt;Node18 -->
<g id="edge17" class="edge">
<title>Node17&#45;&gt;Node18</title>
<path fill="none" stroke="midnightblue" d="M200,-180.11C200,-171.15 200,-161.32 200,-153.58"/>
<polygon fill="midnightblue" stroke="midnightblue" points="196.5,-180.4 200,-190.4 203.5,-180.4 196.5,-180.4"/>
</g>
<!-- Node19 -->
<g id="node19" class="node">
<title>Node19</title>
<g id="a_node19"><a xlink:href="_unit_group_8hpp.html" target="_top" xlink:title=" ">
<polygon fill="white" stroke="black" points="266.5,-123.5 266.5,-153.5 379.5,-153.5 379.5,-123.5 266.5,-123.5"/>
<text text-anchor="start" x="274.5" y="-141.5" font-family="Helvetica,sans-Serif" font-size="10.00">include/engine/objects</text>
<text text-anchor="middle" x="323" y="-130.5" font-family="Helvetica,sans-Serif" font-size="10.00">/UnitGroup.hpp</text>
</a>
</g>
</g>
<!-- Node17&#45;&gt;Node19 -->
<g id="edge18" class="edge">
<title>Node17&#45;&gt;Node19</title>
<path fill="none" stroke="midnightblue" d="M235.55,-185.71C254.95,-175.46 278.56,-162.98 296.36,-153.58"/>
<polygon fill="midnightblue" stroke="midnightblue" points="233.9,-182.63 226.69,-190.4 237.17,-188.82 233.9,-182.63"/>
</g>
<!-- Node19&#45;&gt;Node13 -->
<g id="edge20" class="edge">
<title>Node19&#45;&gt;Node13</title>
<path fill="none" stroke="midnightblue" d="M293.67,-117.64C275.55,-105.37 253.23,-90.26 239.56,-81.01"/>
<polygon fill="midnightblue" stroke="midnightblue" points="291.93,-120.69 302.17,-123.4 295.85,-114.89 291.93,-120.69"/>
</g>
<!-- Node20 -->
<g id="node20" class="node">
<title>Node20</title>
<g id="a_node20"><a xlink:href="_unit_group_8cpp.html" target="_top" xlink:title=" ">
<polygon fill="white" stroke="black" points="294,-56.5 294,-86.5 390,-86.5 390,-56.5 294,-56.5"/>
<text text-anchor="start" x="302" y="-74.5" font-family="Helvetica,sans-Serif" font-size="10.00">src/engine/objects</text>
<text text-anchor="middle" x="342" y="-63.5" font-family="Helvetica,sans-Serif" font-size="10.00">/UnitGroup.cpp</text>
</a>
</g>
</g>
<!-- Node19&#45;&gt;Node20 -->
<g id="edge19" class="edge">
<title>Node19&#45;&gt;Node20</title>
<path fill="none" stroke="midnightblue" d="M329.96,-113.7C332.62,-104.59 335.57,-94.49 337.89,-86.58"/>
<polygon fill="midnightblue" stroke="midnightblue" points="326.57,-112.82 327.12,-123.4 333.29,-114.78 326.57,-112.82"/>
</g>
<!-- Node21&#45;&gt;Node8 -->
<g id="edge22" class="edge">
<title>Node21&#45;&gt;Node8</title>
<path fill="none" stroke="midnightblue" d="M514.98,-316.18C475.15,-304.61 414.22,-286.93 378.32,-276.51"/>
<polygon fill="midnightblue" stroke="midnightblue" points="514.05,-319.55 524.63,-318.98 516,-312.83 514.05,-319.55"/>
</g>
<!-- Node21&#45;&gt;Node16 -->
<g id="edge23" class="edge">
<title>Node21&#45;&gt;Node16</title>
<path fill="none" stroke="midnightblue" d="M528.62,-313.58C514.27,-304.67 496.88,-291.98 485,-277 463.84,-250.32 455,-240.55 455,-206.5 455,-206.5 455,-206.5 455,-137.5 455,-91.41 431.57,-39.71 421.51,-19.63"/>
<polygon fill="midnightblue" stroke="midnightblue" points="527.14,-316.77 537.52,-318.88 530.72,-310.75 527.14,-316.77"/>
</g>
<!-- Node22 -->
<g id="node22" class="node">
<title>Node22</title>
<g id="a_node22"><a xlink:href="_sprites_manager_8cpp.html" target="_top" xlink:title=" ">
<polygon fill="white" stroke="black" points="494.5,-257.5 494.5,-276.5 613.5,-276.5 613.5,-257.5 494.5,-257.5"/>
<text text-anchor="middle" x="554" y="-264.5" font-family="Helvetica,sans-Serif" font-size="10.00">src/SpritesManager.cpp</text>
</a>
</g>
</g>
<!-- Node21&#45;&gt;Node22 -->
<g id="edge24" class="edge">
<title>Node21&#45;&gt;Node22</title>
<path fill="none" stroke="midnightblue" d="M554,-308.82C554,-298 554,-284.9 554,-276.51"/>
<polygon fill="midnightblue" stroke="midnightblue" points="550.5,-308.98 554,-318.98 557.5,-308.98 550.5,-308.98"/>
</g>
<!-- Node23&#45;&gt;Node5 -->
<g id="edge28" class="edge">
<title>Node23&#45;&gt;Node5</title>
<path fill="none" stroke="midnightblue" d="M491.45,-446.32C442.31,-435.11 376.13,-420.02 329.54,-409.4"/>
<polygon fill="midnightblue" stroke="midnightblue" points="490.82,-449.77 501.35,-448.58 492.38,-442.94 490.82,-449.77"/>
</g>
<!-- Node24 -->
<g id="node24" class="node">
<title>Node24</title>
<g id="a_node24"><a xlink:href="_ground_8cpp.html" target="_top" xlink:title=" ">
<polygon fill="white" stroke="black" points="771,-380.5 771,-410.5 867,-410.5 867,-380.5 771,-380.5"/>
<text text-anchor="start" x="779" y="-398.5" font-family="Helvetica,sans-Serif" font-size="10.00">src/engine/objects</text>
<text text-anchor="middle" x="819" y="-387.5" font-family="Helvetica,sans-Serif" font-size="10.00">/Ground.cpp</text>
</a>
</g>
</g>
<!-- Node23&#45;&gt;Node24 -->
<g id="edge27" class="edge">
<title>Node23&#45;&gt;Node24</title>
<path fill="none" stroke="midnightblue" d="M624.62,-445.12C664.49,-435.29 716.16,-422.5 762,-411 764.87,-410.28 767.82,-409.54 770.8,-408.78"/>
<polygon fill="midnightblue" stroke="midnightblue" points="623.62,-441.77 614.74,-447.56 625.29,-448.56 623.62,-441.77"/>
</g>
<!-- Node25 -->
<g id="node25" class="node">
<title>Node25</title>
<g id="a_node25"><a xlink:href="_ground_earth_8hpp.html" target="_top" xlink:title=" ">
<polygon fill="white" stroke="black" points="885,-380.5 885,-410.5 1009,-410.5 1009,-380.5 885,-380.5"/>
<text text-anchor="start" x="893" y="-398.5" font-family="Helvetica,sans-Serif" font-size="10.00">include/engine/objects</text>
<text text-anchor="middle" x="947" y="-387.5" font-family="Helvetica,sans-Serif" font-size="10.00">/ground/GroundEarth.hpp</text>
</a>
</g>
</g>
<!-- Node23&#45;&gt;Node25 -->
<g id="edge29" class="edge">
<title>Node23&#45;&gt;Node25</title>
<path fill="none" stroke="midnightblue" d="M624.74,-451.77C689.18,-442.18 789.46,-426.7 876,-411 878.85,-410.48 881.76,-409.94 884.69,-409.39"/>
<polygon fill="midnightblue" stroke="midnightblue" points="624.09,-448.33 614.71,-453.26 625.11,-455.26 624.09,-448.33"/>
</g>
<!-- Node27 -->
<g id="node27" class="node">
<title>Node27</title>
<g id="a_node27"><a xlink:href="_ground_empty_8hpp.html" target="_top" xlink:title=" ">
<polygon fill="white" stroke="black" points="348,-380.5 348,-410.5 476,-410.5 476,-380.5 348,-380.5"/>
<text text-anchor="start" x="356" y="-398.5" font-family="Helvetica,sans-Serif" font-size="10.00">include/engine/objects</text>
<text text-anchor="middle" x="412" y="-387.5" font-family="Helvetica,sans-Serif" font-size="10.00">/ground/GroundEmpty.hpp</text>
</a>
</g>
</g>
<!-- Node23&#45;&gt;Node27 -->
<g id="edge32" class="edge">
<title>Node23&#45;&gt;Node27</title>
<path fill="none" stroke="midnightblue" d="M517.05,-443.27C493.8,-432.92 465.13,-420.15 443.62,-410.58"/>
<polygon fill="midnightblue" stroke="midnightblue" points="515.76,-446.53 526.32,-447.4 518.61,-440.13 515.76,-446.53"/>
</g>
<!-- Node29 -->
<g id="node29" class="node">
<title>Node29</title>
<g id="a_node29"><a xlink:href="_ground_water_8hpp.html" target="_top" xlink:title=" ">
<polygon fill="white" stroke="black" points="494.5,-380.5 494.5,-410.5 621.5,-410.5 621.5,-380.5 494.5,-380.5"/>
<text text-anchor="start" x="502.5" y="-398.5" font-family="Helvetica,sans-Serif" font-size="10.00">include/engine/objects</text>
<text text-anchor="middle" x="558" y="-387.5" font-family="Helvetica,sans-Serif" font-size="10.00">/ground/GroundWater.hpp</text>
</a>
</g>
</g>
<!-- Node23&#45;&gt;Node29 -->
<g id="edge35" class="edge">
<title>Node23&#45;&gt;Node29</title>
<path fill="none" stroke="midnightblue" d="M558,-437.11C558,-428.15 558,-418.32 558,-410.58"/>
<polygon fill="midnightblue" stroke="midnightblue" points="554.5,-437.4 558,-447.4 561.5,-437.4 554.5,-437.4"/>
</g>
<!-- Node31 -->
<g id="node31" class="node">
<title>Node31</title>
<g id="a_node31"><a xlink:href="_mineral_8hpp.html" target="_top" xlink:title=" ">
<polygon fill="white" stroke="black" points="639.5,-380.5 639.5,-410.5 752.5,-410.5 752.5,-380.5 639.5,-380.5"/>
<text text-anchor="start" x="647.5" y="-398.5" font-family="Helvetica,sans-Serif" font-size="10.00">include/engine/objects</text>
<text text-anchor="middle" x="696" y="-387.5" font-family="Helvetica,sans-Serif" font-size="10.00">/ground/Mineral.hpp</text>
</a>
</g>
</g>
<!-- Node23&#45;&gt;Node31 -->
<g id="edge38" class="edge">
<title>Node23&#45;&gt;Node31</title>
<path fill="none" stroke="midnightblue" d="M597,-443.13C618.93,-432.8 645.87,-420.11 666.11,-410.58"/>
<polygon fill="midnightblue" stroke="midnightblue" points="595.5,-439.97 587.94,-447.4 598.48,-446.3 595.5,-439.97"/>
</g>
<!-- Node25&#45;&gt;Node21 -->
<g id="edge31" class="edge">
<title>Node25&#45;&gt;Node21</title>
<path fill="none" stroke="midnightblue" d="M874.63,-379.82C765.88,-361.04 736.36,-361.65 631,-344 620.13,-342.18 608.43,-340.06 597.52,-338.01"/>
<polygon fill="midnightblue" stroke="midnightblue" points="874.25,-383.3 884.7,-381.57 875.45,-376.41 874.25,-383.3"/>
</g>
<!-- Node26 -->
<g id="node26" class="node">
<title>Node26</title>
<g id="a_node26"><a xlink:href="_ground_earth_8cpp.html" target="_top" xlink:title=" ">
<polygon fill="white" stroke="black" points="905,-313.5 905,-343.5 1029,-343.5 1029,-313.5 905,-313.5"/>
<text text-anchor="start" x="913" y="-331.5" font-family="Helvetica,sans-Serif" font-size="10.00">src/engine/objects</text>
<text text-anchor="middle" x="967" y="-320.5" font-family="Helvetica,sans-Serif" font-size="10.00">/ground/GroundEarth.cpp</text>
</a>
</g>
</g>
<!-- Node25&#45;&gt;Node26 -->
<g id="edge30" class="edge">
<title>Node25&#45;&gt;Node26</title>
<path fill="none" stroke="midnightblue" d="M954.32,-370.7C957.13,-361.59 960.23,-351.49 962.67,-343.58"/>
<polygon fill="midnightblue" stroke="midnightblue" points="950.94,-369.81 951.34,-380.4 957.63,-371.87 950.94,-369.81"/>
</g>
<!-- Node27&#45;&gt;Node21 -->
<g id="edge34" class="edge">
<title>Node27&#45;&gt;Node21</title>
<path fill="none" stroke="midnightblue" d="M452.13,-376.13C479.46,-363.62 514.37,-347.64 535.42,-338.01"/>
<polygon fill="midnightblue" stroke="midnightblue" points="450.45,-373.05 442.81,-380.4 453.36,-379.42 450.45,-373.05"/>
</g>
<!-- Node28 -->
<g id="node28" class="node">
<title>Node28</title>
<g id="a_node28"><a xlink:href="_ground_empty_8cpp.html" target="_top" xlink:title=" ">
<polygon fill="white" stroke="black" points="339,-313.5 339,-343.5 467,-343.5 467,-313.5 339,-313.5"/>
<text text-anchor="start" x="347" y="-331.5" font-family="Helvetica,sans-Serif" font-size="10.00">src/engine/objects</text>
<text text-anchor="middle" x="403" y="-320.5" font-family="Helvetica,sans-Serif" font-size="10.00">/ground/GroundEmpty.cpp</text>
</a>
</g>
</g>
<!-- Node27&#45;&gt;Node28 -->
<g id="edge33" class="edge">
<title>Node27&#45;&gt;Node28</title>
<path fill="none" stroke="midnightblue" d="M408.66,-370.4C407.41,-361.37 406.03,-351.41 404.95,-343.58"/>
<polygon fill="midnightblue" stroke="midnightblue" points="405.21,-370.97 410.05,-380.4 412.14,-370.01 405.21,-370.97"/>
</g>
<!-- Node29&#45;&gt;Node21 -->
<g id="edge37" class="edge">
<title>Node29&#45;&gt;Node21</title>
<path fill="none" stroke="midnightblue" d="M556.51,-370.25C555.82,-359.02 555.04,-346.38 554.54,-338.19"/>
<polygon fill="midnightblue" stroke="midnightblue" points="553.02,-370.63 557.13,-380.4 560.01,-370.2 553.02,-370.63"/>
</g>
<!-- Node30 -->
<g id="node30" class="node">
<title>Node30</title>
<g id="a_node30"><a xlink:href="_ground_water_8cpp.html" target="_top" xlink:title=" ">
<polygon fill="white" stroke="black" points="640.5,-313.5 640.5,-343.5 767.5,-343.5 767.5,-313.5 640.5,-313.5"/>
<text text-anchor="start" x="648.5" y="-331.5" font-family="Helvetica,sans-Serif" font-size="10.00">src/engine/objects</text>
<text text-anchor="middle" x="704" y="-320.5" font-family="Helvetica,sans-Serif" font-size="10.00">/ground/GroundWater.cpp</text>
</a>
</g>
</g>
<!-- Node29&#45;&gt;Node30 -->
<g id="edge36" class="edge">
<title>Node29&#45;&gt;Node30</title>
<path fill="none" stroke="midnightblue" d="M598.95,-376.27C622.2,-365.92 650.87,-353.15 672.38,-343.58"/>
<polygon fill="midnightblue" stroke="midnightblue" points="597.39,-373.13 589.68,-380.4 600.24,-379.53 597.39,-373.13"/>
</g>
<!-- Node31&#45;&gt;Node21 -->
<g id="edge40" class="edge">
<title>Node31&#45;&gt;Node21</title>
<path fill="none" stroke="midnightblue" d="M655.87,-376.13C628.54,-363.62 593.63,-347.64 572.58,-338.01"/>
<polygon fill="midnightblue" stroke="midnightblue" points="654.64,-379.42 665.19,-380.4 657.55,-373.05 654.64,-379.42"/>
</g>
<!-- Node32 -->
<g id="node32" class="node">
<title>Node32</title>
<g id="a_node32"><a xlink:href="_mineral_8cpp.html" target="_top" xlink:title=" ">
<polygon fill="white" stroke="black" points="785.5,-313.5 785.5,-343.5 886.5,-343.5 886.5,-313.5 785.5,-313.5"/>
<text text-anchor="start" x="793.5" y="-331.5" font-family="Helvetica,sans-Serif" font-size="10.00">src/engine/objects</text>
<text text-anchor="middle" x="836" y="-320.5" font-family="Helvetica,sans-Serif" font-size="10.00">/ground/Mineral.cpp</text>
</a>
</g>
</g>
<!-- Node31&#45;&gt;Node32 -->
<g id="edge39" class="edge">
<title>Node31&#45;&gt;Node32</title>
<path fill="none" stroke="midnightblue" d="M735.57,-376.13C757.81,-365.8 785.15,-353.11 805.68,-343.58"/>
<polygon fill="midnightblue" stroke="midnightblue" points="733.97,-373.01 726.38,-380.4 736.92,-379.36 733.97,-373.01"/>
</g>
</g>
</svg>
