<?xml version="1.0" encoding="UTF-8" standalone="no"?>
<!DOCTYPE svg PUBLIC "-//W3C//DTD SVG 1.1//EN"
 "http://www.w3.org/Graphics/SVG/1.1/DTD/svg11.dtd">
<!-- Generated by graphviz version 2.47.1 (20210421.1823)
 -->
<!-- Title: include/engine/Tickable.hpp Pages: 1 -->
<svg width="1097pt" height="542pt"
 viewBox="0.00 0.00 1097.00 542.00" xmlns="http://www.w3.org/2000/svg" xmlns:xlink="http://www.w3.org/1999/xlink">
<g id="graph0" class="graph" transform="scale(1 1) rotate(0) translate(4 538)">
<title>include/engine/Tickable.hpp</title>
<polygon fill="white" stroke="transparent" points="-4,4 -4,-538 1093,-538 1093,4 -4,4"/>
<!-- Node1 -->
<g id="node1" class="node">
<title>Node1</title>
<g id="a_node1"><a xlink:title=" ">
<polygon fill="#bfbfbf" stroke="black" points="204,-514.5 204,-533.5 341,-533.5 341,-514.5 204,-514.5"/>
<text text-anchor="middle" x="272.5" y="-521.5" font-family="Helvetica,sans-Serif" font-size="10.00">include/engine/Tickable.hpp</text>
</a>
</g>
</g>
<!-- Node2 -->
<g id="node2" class="node">
<title>Node2</title>
<g id="a_node2"><a xlink:href="_tickable_8cpp.html" target="_top" xlink:title=" ">
<polygon fill="white" stroke="black" points="37,-453 37,-472 156,-472 156,-453 37,-453"/>
<text text-anchor="middle" x="96.5" y="-460" font-family="Helvetica,sans-Serif" font-size="10.00">src/engine/Tickable.cpp</text>
</a>
</g>
</g>
<!-- Node1&#45;&gt;Node2 -->
<g id="edge1" class="edge">
<title>Node1&#45;&gt;Node2</title>
<path fill="none" stroke="midnightblue" d="M237.69,-511.23C203.48,-499.67 152.1,-482.3 121.67,-472.01"/>
<polygon fill="midnightblue" stroke="midnightblue" points="236.69,-514.59 247.28,-514.48 238.93,-507.96 236.69,-514.59"/>
</g>
<!-- Node3 -->
<g id="node3" class="node">
<title>Node3</title>
<g id="a_node3"><a xlink:href="_building_8hpp.html" target="_top" xlink:title=" ">
<polygon fill="white" stroke="black" points="174,-447.5 174,-477.5 287,-477.5 287,-447.5 174,-447.5"/>
<text text-anchor="start" x="182" y="-465.5" font-family="Helvetica,sans-Serif" font-size="10.00">include/engine/objects</text>
<text text-anchor="middle" x="230.5" y="-454.5" font-family="Helvetica,sans-Serif" font-size="10.00">/Building.hpp</text>
</a>
</g>
</g>
<!-- Node1&#45;&gt;Node3 -->
<g id="edge2" class="edge">
<title>Node1&#45;&gt;Node3</title>
<path fill="none" stroke="midnightblue" d="M260.67,-506.25C254.28,-497.19 246.47,-486.12 240.4,-477.52"/>
<polygon fill="midnightblue" stroke="midnightblue" points="257.86,-508.32 266.48,-514.48 263.57,-504.29 257.86,-508.32"/>
</g>
<!-- Node5 -->
<g id="node5" class="node">
<title>Node5</title>
<g id="a_node5"><a xlink:href="_cell_8hpp.html" target="_top" xlink:title=" ">
<polygon fill="white" stroke="black" points="217,-380.5 217,-410.5 330,-410.5 330,-380.5 217,-380.5"/>
<text text-anchor="start" x="225" y="-398.5" font-family="Helvetica,sans-Serif" font-size="10.00">include/engine/objects</text>
<text text-anchor="middle" x="273.5" y="-387.5" font-family="Helvetica,sans-Serif" font-size="10.00">/Cell.hpp</text>
</a>
</g>
</g>
<!-- Node1&#45;&gt;Node5 -->
<g id="edge27" class="edge">
<title>Node1&#45;&gt;Node5</title>
<path fill="none" stroke="midnightblue" d="M283.92,-505.44C288.48,-497.42 293.19,-487.58 295.5,-478 298.72,-464.6 298.31,-460.49 295.5,-447 292.81,-434.08 286.63,-420.41 281.5,-410.56"/>
<polygon fill="midnightblue" stroke="midnightblue" points="280.81,-503.83 278.6,-514.19 286.79,-507.46 280.81,-503.83"/>
</g>
<!-- Node23 -->
<g id="node23" class="node">
<title>Node23</title>
<g id="a_node23"><a xlink:href="_ground_8hpp.html" target="_top" xlink:title=" ">
<polygon fill="white" stroke="black" points="468,-447.5 468,-477.5 581,-477.5 581,-447.5 468,-447.5"/>
<text text-anchor="start" x="476" y="-465.5" font-family="Helvetica,sans-Serif" font-size="10.00">include/engine/objects</text>
<text text-anchor="middle" x="524.5" y="-454.5" font-family="Helvetica,sans-Serif" font-size="10.00">/Ground.hpp</text>
</a>
</g>
</g>
<!-- Node1&#45;&gt;Node23 -->
<g id="edge28" class="edge">
<title>Node1&#45;&gt;Node23</title>
<path fill="none" stroke="midnightblue" d="M318.54,-512.13C360.46,-502.23 422.49,-487.58 467.52,-476.95"/>
<polygon fill="midnightblue" stroke="midnightblue" points="317.53,-508.77 308.61,-514.48 319.14,-515.58 317.53,-508.77"/>
</g>
<!-- Node4 -->
<g id="node4" class="node">
<title>Node4</title>
<g id="a_node4"><a xlink:href="_building_8cpp.html" target="_top" xlink:title=" ">
<polygon fill="white" stroke="black" points="102.5,-380.5 102.5,-410.5 198.5,-410.5 198.5,-380.5 102.5,-380.5"/>
<text text-anchor="start" x="110.5" y="-398.5" font-family="Helvetica,sans-Serif" font-size="10.00">src/engine/objects</text>
<text text-anchor="middle" x="150.5" y="-387.5" font-family="Helvetica,sans-Serif" font-size="10.00">/Building.cpp</text>
</a>
</g>
</g>
<!-- Node3&#45;&gt;Node4 -->
<g id="edge3" class="edge">
<title>Node3&#45;&gt;Node4</title>
<path fill="none" stroke="midnightblue" d="M205.13,-440.88C192.97,-431.01 178.72,-419.43 167.82,-410.58"/>
<polygon fill="midnightblue" stroke="midnightblue" points="203.17,-443.81 213.14,-447.4 207.59,-438.37 203.17,-443.81"/>
</g>
<!-- Node3&#45;&gt;Node5 -->
<g id="edge4" class="edge">
<title>Node3&#45;&gt;Node5</title>
<path fill="none" stroke="midnightblue" d="M245.47,-438.87C251.7,-429.46 258.73,-418.83 264.19,-410.58"/>
<polygon fill="midnightblue" stroke="midnightblue" points="242.43,-437.12 239.83,-447.4 248.27,-440.99 242.43,-437.12"/>
</g>
<!-- Node6 -->
<g id="node6" class="node">
<title>Node6</title>
<g id="a_node6"><a xlink:href="_cell_8cpp.html" target="_top" xlink:title=" ">
<polygon fill="white" stroke="black" points="284.5,-313.5 284.5,-343.5 380.5,-343.5 380.5,-313.5 284.5,-313.5"/>
<text text-anchor="start" x="292.5" y="-331.5" font-family="Helvetica,sans-Serif" font-size="10.00">src/engine/objects</text>
<text text-anchor="middle" x="332.5" y="-320.5" font-family="Helvetica,sans-Serif" font-size="10.00">/Cell.cpp</text>
</a>
</g>
</g>
<!-- Node5&#45;&gt;Node6 -->
<g id="edge5" class="edge">
<title>Node5&#45;&gt;Node6</title>
<path fill="none" stroke="midnightblue" d="M293.25,-372.74C301.98,-363.12 312,-352.09 319.72,-343.58"/>
<polygon fill="midnightblue" stroke="midnightblue" points="290.43,-370.64 286.3,-380.4 295.61,-375.34 290.43,-370.64"/>
</g>
<!-- Node7 -->
<g id="node7" class="node">
<title>Node7</title>
<g id="a_node7"><a xlink:href="_field_8hpp.html" target="_top" xlink:title=" ">
<polygon fill="white" stroke="black" points="145,-319 145,-338 266,-338 266,-319 145,-319"/>
<text text-anchor="middle" x="205.5" y="-326" font-family="Helvetica,sans-Serif" font-size="10.00">include/engine/Field.hpp</text>
</a>
</g>
</g>
<!-- Node5&#45;&gt;Node7 -->
<g id="edge6" class="edge">
<title>Node5&#45;&gt;Node7</title>
<path fill="none" stroke="midnightblue" d="M251.36,-373.34C238.87,-361.4 223.95,-347.14 214.6,-338.19"/>
<polygon fill="midnightblue" stroke="midnightblue" points="249.1,-376.02 258.75,-380.4 253.93,-370.96 249.1,-376.02"/>
</g>
<!-- Node21 -->
<g id="node21" class="node">
<title>Node21</title>
<g id="a_node21"><a xlink:href="_sprites_manager_8hpp.html" target="_top" xlink:title=" ">
<polygon fill="white" stroke="black" points="541,-319 541,-338 678,-338 678,-319 541,-319"/>
<text text-anchor="middle" x="609.5" y="-326" font-family="Helvetica,sans-Serif" font-size="10.00">include/SpritesManager.hpp</text>
</a>
</g>
</g>
<!-- Node5&#45;&gt;Node21 -->
<g id="edge23" class="edge">
<title>Node5&#45;&gt;Node21</title>
<path fill="none" stroke="midnightblue" d="M339.95,-380C378.51,-372.54 497.13,-350.43 563.61,-338.04"/>
<polygon fill="midnightblue" stroke="midnightblue" points="339.14,-376.6 330,-381.96 340.49,-383.47 339.14,-376.6"/>
</g>
<!-- Node8 -->
<g id="node8" class="node">
<title>Node8</title>
<g id="a_node8"><a xlink:href="_field_8cpp.html" target="_top" xlink:title=" ">
<polygon fill="white" stroke="black" points="387.5,-257.5 387.5,-276.5 491.5,-276.5 491.5,-257.5 387.5,-257.5"/>
<text text-anchor="middle" x="439.5" y="-264.5" font-family="Helvetica,sans-Serif" font-size="10.00">src/engine/Field.cpp</text>
</a>
</g>
</g>
<!-- Node7&#45;&gt;Node8 -->
<g id="edge7" class="edge">
<title>Node7&#45;&gt;Node8</title>
<path fill="none" stroke="midnightblue" d="M248.88,-316.47C294.32,-304.91 364.71,-287.02 406.04,-276.51"/>
<polygon fill="midnightblue" stroke="midnightblue" points="247.86,-313.12 239.03,-318.98 249.58,-319.9 247.86,-313.12"/>
</g>
<!-- Node9 -->
<g id="node9" class="node">
<title>Node9</title>
<g id="a_node9"><a xlink:href="_world_actor_8hpp.html" target="_top" xlink:title=" ">
<polygon fill="white" stroke="black" points="131.5,-257.5 131.5,-276.5 279.5,-276.5 279.5,-257.5 131.5,-257.5"/>
<text text-anchor="middle" x="205.5" y="-264.5" font-family="Helvetica,sans-Serif" font-size="10.00">include/engine/WorldActor.hpp</text>
</a>
</g>
</g>
<!-- Node7&#45;&gt;Node9 -->
<g id="edge8" class="edge">
<title>Node7&#45;&gt;Node9</title>
<path fill="none" stroke="midnightblue" d="M205.5,-308.82C205.5,-298 205.5,-284.9 205.5,-276.51"/>
<polygon fill="midnightblue" stroke="midnightblue" points="202,-308.98 205.5,-318.98 209,-308.98 202,-308.98"/>
</g>
<!-- Node10 -->
<g id="node10" class="node">
<title>Node10</title>
<g id="a_node10"><a xlink:href="_world_actor_8cpp.html" target="_top" xlink:title=" ">
<polygon fill="white" stroke="black" points="0,-196 0,-215 131,-215 131,-196 0,-196"/>
<text text-anchor="middle" x="65.5" y="-203" font-family="Helvetica,sans-Serif" font-size="10.00">src/engine/WorldActor.cpp</text>
</a>
</g>
</g>
<!-- Node9&#45;&gt;Node10 -->
<g id="edge9" class="edge">
<title>Node9&#45;&gt;Node10</title>
<path fill="none" stroke="midnightblue" d="M176.04,-253.48C148.85,-241.92 109.21,-225.08 85.52,-215.01"/>
<polygon fill="midnightblue" stroke="midnightblue" points="174.87,-256.78 185.44,-257.48 177.61,-250.34 174.87,-256.78"/>
</g>
<!-- Node11 -->
<g id="node11" class="node">
<title>Node11</title>
<g id="a_node11"><a xlink:href="_player_8hpp.html" target="_top" xlink:title=" ">
<polygon fill="white" stroke="black" points="149,-190.5 149,-220.5 262,-220.5 262,-190.5 149,-190.5"/>
<text text-anchor="start" x="157" y="-208.5" font-family="Helvetica,sans-Serif" font-size="10.00">include/engine/objects</text>
<text text-anchor="middle" x="205.5" y="-197.5" font-family="Helvetica,sans-Serif" font-size="10.00">/Player.hpp</text>
</a>
</g>
</g>
<!-- Node9&#45;&gt;Node11 -->
<g id="edge10" class="edge">
<title>Node9&#45;&gt;Node11</title>
<path fill="none" stroke="midnightblue" d="M205.5,-247.23C205.5,-238.59 205.5,-228.5 205.5,-220.52"/>
<polygon fill="midnightblue" stroke="midnightblue" points="202,-247.48 205.5,-257.48 209,-247.48 202,-247.48"/>
</g>
<!-- Node19 -->
<g id="node19" class="node">
<title>Node19</title>
<g id="a_node19"><a xlink:href="_unit_8hpp.html" target="_top" xlink:title=" ">
<polygon fill="white" stroke="black" points="280,-190.5 280,-220.5 393,-220.5 393,-190.5 280,-190.5"/>
<text text-anchor="start" x="288" y="-208.5" font-family="Helvetica,sans-Serif" font-size="10.00">include/engine/objects</text>
<text text-anchor="middle" x="336.5" y="-197.5" font-family="Helvetica,sans-Serif" font-size="10.00">/Unit.hpp</text>
</a>
</g>
</g>
<!-- Node9&#45;&gt;Node19 -->
<g id="edge18" class="edge">
<title>Node9&#45;&gt;Node19</title>
<path fill="none" stroke="midnightblue" d="M233.39,-253.33C254.59,-243.7 283.73,-230.47 305.63,-220.52"/>
<polygon fill="midnightblue" stroke="midnightblue" points="231.93,-250.15 224.27,-257.48 234.82,-256.53 231.93,-250.15"/>
</g>
<!-- Node12 -->
<g id="node12" class="node">
<title>Node12</title>
<g id="a_node12"><a xlink:href="_player_8cpp.html" target="_top" xlink:title=" ">
<polygon fill="white" stroke="black" points="122.5,-123.5 122.5,-153.5 218.5,-153.5 218.5,-123.5 122.5,-123.5"/>
<text text-anchor="start" x="130.5" y="-141.5" font-family="Helvetica,sans-Serif" font-size="10.00">src/engine/objects</text>
<text text-anchor="middle" x="170.5" y="-130.5" font-family="Helvetica,sans-Serif" font-size="10.00">/Player.cpp</text>
</a>
</g>
</g>
<!-- Node11&#45;&gt;Node12 -->
<g id="edge11" class="edge">
<title>Node11&#45;&gt;Node12</title>
<path fill="none" stroke="midnightblue" d="M193.16,-181.58C188.13,-172.24 182.48,-161.75 178.08,-153.58"/>
<polygon fill="midnightblue" stroke="midnightblue" points="190.08,-183.25 197.91,-190.4 196.25,-179.93 190.08,-183.25"/>
</g>
<!-- Node13 -->
<g id="node13" class="node">
<title>Node13</title>
<g id="a_node13"><a xlink:href="_engine_8hpp.html" target="_top" xlink:title=" ">
<polygon fill="white" stroke="black" points="316.5,-67.5 316.5,-86.5 414.5,-86.5 414.5,-67.5 316.5,-67.5"/>
<text text-anchor="middle" x="365.5" y="-74.5" font-family="Helvetica,sans-Serif" font-size="10.00">include/Engine.hpp</text>
</a>
</g>
</g>
<!-- Node11&#45;&gt;Node13 -->
<g id="edge12" class="edge">
<title>Node11&#45;&gt;Node13</title>
<path fill="none" stroke="midnightblue" d="M229.7,-183.61C249.32,-166.87 277.82,-142.96 303.5,-123 320.3,-109.94 340.32,-95.63 352.97,-86.73"/>
<polygon fill="midnightblue" stroke="midnightblue" points="227.19,-181.16 221.87,-190.32 231.75,-186.47 227.19,-181.16"/>
</g>
<!-- Node14 -->
<g id="node14" class="node">
<title>Node14</title>
<g id="a_node14"><a xlink:href="_drawable_8cpp.html" target="_top" xlink:title=" ">
<polygon fill="white" stroke="black" points="184,-6 184,-25 307,-25 307,-6 184,-6"/>
<text text-anchor="middle" x="245.5" y="-13" font-family="Helvetica,sans-Serif" font-size="10.00">src/engine/Drawable.cpp</text>
</a>
</g>
</g>
<!-- Node13&#45;&gt;Node14 -->
<g id="edge13" class="edge">
<title>Node13&#45;&gt;Node14</title>
<path fill="none" stroke="midnightblue" d="M339.32,-63.02C316.05,-51.48 282.7,-34.94 262.66,-25.01"/>
<polygon fill="midnightblue" stroke="midnightblue" points="337.79,-66.17 348.31,-67.48 340.9,-59.9 337.79,-66.17"/>
</g>
<!-- Node15 -->
<g id="node15" class="node">
<title>Node15</title>
<g id="a_node15"><a xlink:href="_unit_8cpp.html" target="_top" xlink:title=" ">
<polygon fill="white" stroke="black" points="69.5,-0.5 69.5,-30.5 165.5,-30.5 165.5,-0.5 69.5,-0.5"/>
<text text-anchor="start" x="77.5" y="-18.5" font-family="Helvetica,sans-Serif" font-size="10.00">src/engine/objects</text>
<text text-anchor="middle" x="117.5" y="-7.5" font-family="Helvetica,sans-Serif" font-size="10.00">/Unit.cpp</text>
</a>
</g>
</g>
<!-- Node13&#45;&gt;Node15 -->
<g id="edge14" class="edge">
<title>Node13&#45;&gt;Node15</title>
<path fill="none" stroke="midnightblue" d="M318.55,-65.18C279.85,-56.21 223.56,-43.02 174.5,-31 171.62,-30.3 168.67,-29.56 165.69,-28.82"/>
<polygon fill="midnightblue" stroke="midnightblue" points="317.95,-68.64 328.48,-67.48 319.53,-61.82 317.95,-68.64"/>
</g>
<!-- Node16 -->
<g id="node16" class="node">
<title>Node16</title>
<g id="a_node16"><a xlink:href="_unit_group_8cpp.html" target="_top" xlink:title=" ">
<polygon fill="white" stroke="black" points="423.5,-0.5 423.5,-30.5 519.5,-30.5 519.5,-0.5 423.5,-0.5"/>
<text text-anchor="start" x="431.5" y="-18.5" font-family="Helvetica,sans-Serif" font-size="10.00">src/engine/objects</text>
<text text-anchor="middle" x="471.5" y="-7.5" font-family="Helvetica,sans-Serif" font-size="10.00">/UnitGroup.cpp</text>
</a>
</g>
</g>
<!-- Node13&#45;&gt;Node16 -->
<g id="edge15" class="edge">
<title>Node13&#45;&gt;Node16</title>
<path fill="none" stroke="midnightblue" d="M389.48,-62.54C406.49,-52.99 429.28,-40.2 446.52,-30.52"/>
<polygon fill="midnightblue" stroke="midnightblue" points="387.69,-59.53 380.69,-67.48 391.12,-65.63 387.69,-59.53"/>
</g>
<!-- Node17 -->
<g id="node17" class="node">
<title>Node17</title>
<g id="a_node17"><a xlink:href="_engine_8cpp.html" target="_top" xlink:title=" ">
<polygon fill="white" stroke="black" points="325.5,-6 325.5,-25 405.5,-25 405.5,-6 325.5,-6"/>
<text text-anchor="middle" x="365.5" y="-13" font-family="Helvetica,sans-Serif" font-size="10.00">src/Engine.cpp</text>
</a>
</g>
</g>
<!-- Node13&#45;&gt;Node17 -->
<g id="edge16" class="edge">
<title>Node13&#45;&gt;Node17</title>
<path fill="none" stroke="midnightblue" d="M365.5,-57.32C365.5,-46.5 365.5,-33.4 365.5,-25.01"/>
<polygon fill="midnightblue" stroke="midnightblue" points="362,-57.48 365.5,-67.48 369,-57.48 362,-57.48"/>
</g>
<!-- Node18 -->
<g id="node18" class="node">
<title>Node18</title>
<g id="a_node18"><a xlink:href="_game_8cpp.html" target="_top" xlink:title=" ">
<polygon fill="white" stroke="black" points="538,-6 538,-25 615,-25 615,-6 538,-6"/>
<text text-anchor="middle" x="576.5" y="-13" font-family="Helvetica,sans-Serif" font-size="10.00">src/Game.cpp</text>
</a>
</g>
</g>
<!-- Node13&#45;&gt;Node18 -->
<g id="edge17" class="edge">
<title>Node13&#45;&gt;Node18</title>
<path fill="none" stroke="midnightblue" d="M407.18,-64.79C440.16,-55.85 487.35,-42.89 528.5,-31 535.02,-29.11 542.03,-27.03 548.61,-25.05"/>
<polygon fill="midnightblue" stroke="midnightblue" points="406.16,-61.44 397.42,-67.43 407.99,-68.2 406.16,-61.44"/>
</g>
<!-- Node19&#45;&gt;Node15 -->
<g id="edge19" class="edge">
<title>Node19&#45;&gt;Node15</title>
<path fill="none" stroke="midnightblue" d="M312.25,-183.68C267.28,-145.08 172.05,-63.33 133.85,-30.54"/>
<polygon fill="midnightblue" stroke="midnightblue" points="310.17,-186.51 320.04,-190.37 314.73,-181.2 310.17,-186.51"/>
</g>
<!-- Node20 -->
<g id="node20" class="node">
<title>Node20</title>
<g id="a_node20"><a xlink:href="_unit_group_8hpp.html" target="_top" xlink:title=" ">
<polygon fill="white" stroke="black" points="313,-123.5 313,-153.5 426,-153.5 426,-123.5 313,-123.5"/>
<text text-anchor="start" x="321" y="-141.5" font-family="Helvetica,sans-Serif" font-size="10.00">include/engine/objects</text>
<text text-anchor="middle" x="369.5" y="-130.5" font-family="Helvetica,sans-Serif" font-size="10.00">/UnitGroup.hpp</text>
</a>
</g>
</g>
<!-- Node19&#45;&gt;Node20 -->
<g id="edge20" class="edge">
<title>Node19&#45;&gt;Node20</title>
<path fill="none" stroke="midnightblue" d="M348.29,-181.28C352.99,-172.02 358.25,-161.66 362.35,-153.58"/>
<polygon fill="midnightblue" stroke="midnightblue" points="345.07,-179.89 343.66,-190.4 351.31,-183.06 345.07,-179.89"/>
</g>
<!-- Node20&#45;&gt;Node13 -->
<g id="edge22" class="edge">
<title>Node20&#45;&gt;Node13</title>
<path fill="none" stroke="midnightblue" d="M367.87,-113.29C367.24,-103.86 366.55,-93.65 366.08,-86.66"/>
<polygon fill="midnightblue" stroke="midnightblue" points="364.39,-113.66 368.55,-123.4 371.37,-113.19 364.39,-113.66"/>
</g>
<!-- Node20&#45;&gt;Node16 -->
<g id="edge21" class="edge">
<title>Node20&#45;&gt;Node16</title>
<path fill="none" stroke="midnightblue" d="M394.21,-116.51C403.82,-107.82 414.63,-97.36 423.5,-87 439.11,-68.78 454.18,-45.39 463.15,-30.67"/>
<polygon fill="midnightblue" stroke="midnightblue" points="391.65,-114.1 386.49,-123.35 396.29,-119.34 391.65,-114.1"/>
</g>
<!-- Node21&#45;&gt;Node8 -->
<g id="edge24" class="edge">
<title>Node21&#45;&gt;Node8</title>
<path fill="none" stroke="midnightblue" d="M575.45,-315.58C542.41,-304.02 493.08,-286.75 463.81,-276.51"/>
<polygon fill="midnightblue" stroke="midnightblue" points="574.55,-318.98 585.14,-318.98 576.86,-312.37 574.55,-318.98"/>
</g>
<!-- Node21&#45;&gt;Node18 -->
<g id="edge25" class="edge">
<title>Node21&#45;&gt;Node18</title>
<path fill="none" stroke="midnightblue" d="M601.42,-309.65C591.65,-286.4 576.5,-244.26 576.5,-206.5 576.5,-206.5 576.5,-206.5 576.5,-137.5 576.5,-95.28 576.5,-44.76 576.5,-25.01"/>
<polygon fill="midnightblue" stroke="midnightblue" points="598.25,-311.14 605.45,-318.91 604.67,-308.35 598.25,-311.14"/>
</g>
<!-- Node22 -->
<g id="node22" class="node">
<title>Node22</title>
<g id="a_node22"><a xlink:href="_sprites_manager_8cpp.html" target="_top" xlink:title=" ">
<polygon fill="white" stroke="black" points="605,-257.5 605,-276.5 724,-276.5 724,-257.5 605,-257.5"/>
<text text-anchor="middle" x="664.5" y="-264.5" font-family="Helvetica,sans-Serif" font-size="10.00">src/SpritesManager.cpp</text>
</a>
</g>
</g>
<!-- Node21&#45;&gt;Node22 -->
<g id="edge26" class="edge">
<title>Node21&#45;&gt;Node22</title>
<path fill="none" stroke="midnightblue" d="M624.29,-311.5C634.7,-300.24 648.23,-285.6 656.63,-276.51"/>
<polygon fill="midnightblue" stroke="midnightblue" points="621.6,-309.26 617.38,-318.98 626.74,-314.01 621.6,-309.26"/>
</g>
<!-- Node23&#45;&gt;Node5 -->
<g id="edge30" class="edge">
<title>Node23&#45;&gt;Node5</title>
<path fill="none" stroke="midnightblue" d="M460.46,-444.92C419.5,-434.31 366.94,-420.7 327.99,-410.61"/>
<polygon fill="midnightblue" stroke="midnightblue" points="459.79,-448.36 470.35,-447.48 461.54,-441.58 459.79,-448.36"/>
</g>
<!-- Node24 -->
<g id="node24" class="node">
<title>Node24</title>
<g id="a_node24"><a xlink:href="_ground_8cpp.html" target="_top" xlink:title=" ">
<polygon fill="white" stroke="black" points="348.5,-380.5 348.5,-410.5 444.5,-410.5 444.5,-380.5 348.5,-380.5"/>
<text text-anchor="start" x="356.5" y="-398.5" font-family="Helvetica,sans-Serif" font-size="10.00">src/engine/objects</text>
<text text-anchor="middle" x="396.5" y="-387.5" font-family="Helvetica,sans-Serif" font-size="10.00">/Ground.cpp</text>
</a>
</g>
</g>
<!-- Node23&#45;&gt;Node24 -->
<g id="edge29" class="edge">
<title>Node23&#45;&gt;Node24</title>
<path fill="none" stroke="midnightblue" d="M487.78,-442.85C467.54,-432.58 442.83,-420.03 424.22,-410.58"/>
<polygon fill="midnightblue" stroke="midnightblue" points="486.22,-445.99 496.73,-447.4 489.39,-439.75 486.22,-445.99"/>
</g>
<!-- Node25 -->
<g id="node25" class="node">
<title>Node25</title>
<g id="a_node25"><a xlink:href="_ground_earth_8hpp.html" target="_top" xlink:title=" ">
<polygon fill="white" stroke="black" points="462.5,-380.5 462.5,-410.5 586.5,-410.5 586.5,-380.5 462.5,-380.5"/>
<text text-anchor="start" x="470.5" y="-398.5" font-family="Helvetica,sans-Serif" font-size="10.00">include/engine/objects</text>
<text text-anchor="middle" x="524.5" y="-387.5" font-family="Helvetica,sans-Serif" font-size="10.00">/ground/GroundEarth.hpp</text>
</a>
</g>
</g>
<!-- Node23&#45;&gt;Node25 -->
<g id="edge31" class="edge">
<title>Node23&#45;&gt;Node25</title>
<path fill="none" stroke="midnightblue" d="M524.5,-437.11C524.5,-428.15 524.5,-418.32 524.5,-410.58"/>
<polygon fill="midnightblue" stroke="midnightblue" points="521,-437.4 524.5,-447.4 528,-437.4 521,-437.4"/>
</g>
<!-- Node27 -->
<g id="node27" class="node">
<title>Node27</title>
<g id="a_node27"><a xlink:href="_ground_empty_8hpp.html" target="_top" xlink:title=" ">
<polygon fill="white" stroke="black" points="604.5,-380.5 604.5,-410.5 732.5,-410.5 732.5,-380.5 604.5,-380.5"/>
<text text-anchor="start" x="612.5" y="-398.5" font-family="Helvetica,sans-Serif" font-size="10.00">include/engine/objects</text>
<text text-anchor="middle" x="668.5" y="-387.5" font-family="Helvetica,sans-Serif" font-size="10.00">/ground/GroundEmpty.hpp</text>
</a>
</g>
</g>
<!-- Node23&#45;&gt;Node27 -->
<g id="edge35" class="edge">
<title>Node23&#45;&gt;Node27</title>
<path fill="none" stroke="midnightblue" d="M564.89,-443.27C587.82,-432.92 616.1,-420.15 637.32,-410.58"/>
<polygon fill="midnightblue" stroke="midnightblue" points="563.42,-440.09 555.75,-447.4 566.3,-446.47 563.42,-440.09"/>
</g>
<!-- Node29 -->
<g id="node29" class="node">
<title>Node29</title>
<g id="a_node29"><a xlink:href="_ground_water_8hpp.html" target="_top" xlink:title=" ">
<polygon fill="white" stroke="black" points="751,-380.5 751,-410.5 878,-410.5 878,-380.5 751,-380.5"/>
<text text-anchor="start" x="759" y="-398.5" font-family="Helvetica,sans-Serif" font-size="10.00">include/engine/objects</text>
<text text-anchor="middle" x="814.5" y="-387.5" font-family="Helvetica,sans-Serif" font-size="10.00">/ground/GroundWater.hpp</text>
</a>
</g>
</g>
<!-- Node23&#45;&gt;Node29 -->
<g id="edge38" class="edge">
<title>Node23&#45;&gt;Node29</title>
<path fill="none" stroke="midnightblue" d="M590.86,-446.63C639.29,-435.77 704.5,-421.15 752.01,-410.51"/>
<polygon fill="midnightblue" stroke="midnightblue" points="590.1,-443.21 581.1,-448.81 591.63,-450.04 590.1,-443.21"/>
</g>
<!-- Node31 -->
<g id="node31" class="node">
<title>Node31</title>
<g id="a_node31"><a xlink:href="_mineral_8hpp.html" target="_top" xlink:title=" ">
<polygon fill="white" stroke="black" points="896,-380.5 896,-410.5 1009,-410.5 1009,-380.5 896,-380.5"/>
<text text-anchor="start" x="904" y="-398.5" font-family="Helvetica,sans-Serif" font-size="10.00">include/engine/objects</text>
<text text-anchor="middle" x="952.5" y="-387.5" font-family="Helvetica,sans-Serif" font-size="10.00">/ground/Mineral.hpp</text>
</a>
</g>
</g>
<!-- Node23&#45;&gt;Node31 -->
<g id="edge41" class="edge">
<title>Node23&#45;&gt;Node31</title>
<path fill="none" stroke="midnightblue" d="M591.1,-453.78C663.91,-444.98 783.9,-429.4 886.5,-411 889.5,-410.46 892.58,-409.88 895.67,-409.28"/>
<polygon fill="midnightblue" stroke="midnightblue" points="590.66,-450.31 581.15,-454.98 591.49,-457.26 590.66,-450.31"/>
</g>
<!-- Node25&#45;&gt;Node6 -->
<g id="edge32" class="edge">
<title>Node25&#45;&gt;Node6</title>
<path fill="none" stroke="midnightblue" d="M473.08,-377.09C442.08,-366.6 403.12,-353.41 374.08,-343.58"/>
<polygon fill="midnightblue" stroke="midnightblue" points="472.24,-380.5 482.84,-380.4 474.49,-373.87 472.24,-380.5"/>
</g>
<!-- Node25&#45;&gt;Node21 -->
<g id="edge34" class="edge">
<title>Node25&#45;&gt;Node21</title>
<path fill="none" stroke="midnightblue" d="M551.3,-374.01C567.08,-361.94 586.22,-347.3 598.13,-338.19"/>
<polygon fill="midnightblue" stroke="midnightblue" points="548.76,-371.54 542.94,-380.4 553.01,-377.1 548.76,-371.54"/>
</g>
<!-- Node26 -->
<g id="node26" class="node">
<title>Node26</title>
<g id="a_node26"><a xlink:href="_ground_earth_8cpp.html" target="_top" xlink:title=" ">
<polygon fill="white" stroke="black" points="398.5,-313.5 398.5,-343.5 522.5,-343.5 522.5,-313.5 398.5,-313.5"/>
<text text-anchor="start" x="406.5" y="-331.5" font-family="Helvetica,sans-Serif" font-size="10.00">src/engine/objects</text>
<text text-anchor="middle" x="460.5" y="-320.5" font-family="Helvetica,sans-Serif" font-size="10.00">/ground/GroundEarth.cpp</text>
</a>
</g>
</g>
<!-- Node25&#45;&gt;Node26 -->
<g id="edge33" class="edge">
<title>Node25&#45;&gt;Node26</title>
<path fill="none" stroke="midnightblue" d="M503.35,-373.02C493.82,-363.34 482.83,-352.17 474.36,-343.58"/>
<polygon fill="midnightblue" stroke="midnightblue" points="501.1,-375.73 510.61,-380.4 506.09,-370.81 501.1,-375.73"/>
</g>
<!-- Node27&#45;&gt;Node21 -->
<g id="edge37" class="edge">
<title>Node27&#45;&gt;Node21</title>
<path fill="none" stroke="midnightblue" d="M648.67,-372.66C637.97,-360.86 625.35,-346.97 617.39,-338.19"/>
<polygon fill="midnightblue" stroke="midnightblue" points="646.39,-375.34 655.7,-380.4 651.57,-370.64 646.39,-375.34"/>
</g>
<!-- Node28 -->
<g id="node28" class="node">
<title>Node28</title>
<g id="a_node28"><a xlink:href="_ground_empty_8cpp.html" target="_top" xlink:title=" ">
<polygon fill="white" stroke="black" points="696.5,-313.5 696.5,-343.5 824.5,-343.5 824.5,-313.5 696.5,-313.5"/>
<text text-anchor="start" x="704.5" y="-331.5" font-family="Helvetica,sans-Serif" font-size="10.00">src/engine/objects</text>
<text text-anchor="middle" x="760.5" y="-320.5" font-family="Helvetica,sans-Serif" font-size="10.00">/ground/GroundEmpty.cpp</text>
</a>
</g>
</g>
<!-- Node27&#45;&gt;Node28 -->
<g id="edge36" class="edge">
<title>Node27&#45;&gt;Node28</title>
<path fill="none" stroke="midnightblue" d="M696.88,-374.45C711.03,-364.45 727.81,-352.6 740.58,-343.58"/>
<polygon fill="midnightblue" stroke="midnightblue" points="694.61,-371.77 688.46,-380.4 698.65,-377.48 694.61,-371.77"/>
</g>
<!-- Node29&#45;&gt;Node21 -->
<g id="edge40" class="edge">
<title>Node29&#45;&gt;Node21</title>
<path fill="none" stroke="midnightblue" d="M760.66,-377.43C720.69,-364.75 667.85,-348 636.4,-338.03"/>
<polygon fill="midnightblue" stroke="midnightblue" points="759.68,-380.79 770.27,-380.48 761.8,-374.12 759.68,-380.79"/>
</g>
<!-- Node30 -->
<g id="node30" class="node">
<title>Node30</title>
<g id="a_node30"><a xlink:href="_ground_water_8cpp.html" target="_top" xlink:title=" ">
<polygon fill="white" stroke="black" points="843,-313.5 843,-343.5 970,-343.5 970,-313.5 843,-313.5"/>
<text text-anchor="start" x="851" y="-331.5" font-family="Helvetica,sans-Serif" font-size="10.00">src/engine/objects</text>
<text text-anchor="middle" x="906.5" y="-320.5" font-family="Helvetica,sans-Serif" font-size="10.00">/ground/GroundWater.cpp</text>
</a>
</g>
</g>
<!-- Node29&#45;&gt;Node30 -->
<g id="edge39" class="edge">
<title>Node29&#45;&gt;Node30</title>
<path fill="none" stroke="midnightblue" d="M842.88,-374.45C857.03,-364.45 873.81,-352.6 886.58,-343.58"/>
<polygon fill="midnightblue" stroke="midnightblue" points="840.61,-371.77 834.46,-380.4 844.65,-377.48 840.61,-371.77"/>
</g>
<!-- Node31&#45;&gt;Node21 -->
<g id="edge43" class="edge">
<title>Node31&#45;&gt;Node21</title>
<path fill="none" stroke="midnightblue" d="M885.66,-379.87C796.71,-362.19 772.8,-359.64 687.5,-344 677.07,-342.09 665.86,-340.01 655.27,-338.05"/>
<polygon fill="midnightblue" stroke="midnightblue" points="885.15,-383.34 895.65,-381.87 886.53,-376.48 885.15,-383.34"/>
</g>
<!-- Node32 -->
<g id="node32" class="node">
<title>Node32</title>
<g id="a_node32"><a xlink:href="_mineral_8cpp.html" target="_top" xlink:title=" ">
<polygon fill="white" stroke="black" points="988,-313.5 988,-343.5 1089,-343.5 1089,-313.5 988,-313.5"/>
<text text-anchor="start" x="996" y="-331.5" font-family="Helvetica,sans-Serif" font-size="10.00">src/engine/objects</text>
<text text-anchor="middle" x="1038.5" y="-320.5" font-family="Helvetica,sans-Serif" font-size="10.00">/ground/Mineral.cpp</text>
</a>
</g>
</g>
<!-- Node31&#45;&gt;Node32 -->
<g id="edge42" class="edge">
<title>Node31&#45;&gt;Node32</title>
<path fill="none" stroke="midnightblue" d="M979.4,-374.17C992.55,-364.23 1008.05,-352.51 1019.88,-343.58"/>
<polygon fill="midnightblue" stroke="midnightblue" points="977.03,-371.57 971.16,-380.4 981.25,-377.16 977.03,-371.57"/>
</g>
</g>
</svg>
