<?xml version="1.0" encoding="UTF-8" standalone="no"?>
<!DOCTYPE svg PUBLIC "-//W3C//DTD SVG 1.1//EN"
 "http://www.w3.org/Graphics/SVG/1.1/DTD/svg11.dtd">
<!-- Generated by graphviz version 2.47.1 (20210421.1823)
 -->
<!-- Title: src/Timer.cpp Pages: 1 -->
<svg width="200pt" height="140pt"
 viewBox="0.00 0.00 199.50 140.00" xmlns="http://www.w3.org/2000/svg" xmlns:xlink="http://www.w3.org/1999/xlink">
<g id="graph0" class="graph" transform="scale(1 1) rotate(0) translate(4 136)">
<title>src/Timer.cpp</title>
<polygon fill="white" stroke="transparent" points="-4,4 -4,-136 195.5,-136 195.5,4 -4,4"/>
<!-- Node1 -->
<g id="node1" class="node">
<title>Node1</title>
<g id="a_node1"><a xlink:title=" ">
<polygon fill="#bfbfbf" stroke="black" points="62.5,-112.5 62.5,-131.5 138.5,-131.5 138.5,-112.5 62.5,-112.5"/>
<text text-anchor="middle" x="100.5" y="-119.5" font-family="Helvetica,sans-Serif" font-size="10.00">src/Timer.cpp</text>
</a>
</g>
</g>
<!-- Node2 -->
<g id="node2" class="node">
<title>Node2</title>
<g id="a_node2"><a xlink:href="_timer_8hpp.html" target="_top" xlink:title=" ">
<polygon fill="white" stroke="black" points="0,-56.5 0,-75.5 59,-75.5 59,-56.5 0,-56.5"/>
<text text-anchor="middle" x="29.5" y="-63.5" font-family="Helvetica,sans-Serif" font-size="10.00">Timer.hpp</text>
</a>
</g>
</g>
<!-- Node1&#45;&gt;Node2 -->
<g id="edge1" class="edge">
<title>Node1&#45;&gt;Node2</title>
<path fill="none" stroke="midnightblue" d="M89.09,-112.32C78.39,-104.18 62.16,-91.84 49.34,-82.09"/>
<polygon fill="midnightblue" stroke="midnightblue" points="51.19,-79.1 41.11,-75.83 46.96,-84.67 51.19,-79.1"/>
</g>
<!-- Node4 -->
<g id="node4" class="node">
<title>Node4</title>
<g id="a_node4"><a xlink:title=" ">
<polygon fill="white" stroke="#bfbfbf" points="77.5,-56.5 77.5,-75.5 123.5,-75.5 123.5,-56.5 77.5,-56.5"/>
<text text-anchor="middle" x="100.5" y="-63.5" font-family="Helvetica,sans-Serif" font-size="10.00">chrono</text>
</a>
</g>
</g>
<!-- Node1&#45;&gt;Node4 -->
<g id="edge3" class="edge">
<title>Node1&#45;&gt;Node4</title>
<path fill="none" stroke="midnightblue" d="M100.5,-112.08C100.5,-105.01 100.5,-94.86 100.5,-85.99"/>
<polygon fill="midnightblue" stroke="midnightblue" points="104,-85.75 100.5,-75.75 97,-85.75 104,-85.75"/>
</g>
<!-- Node5 -->
<g id="node5" class="node">
<title>Node5</title>
<g id="a_node5"><a xlink:title=" ">
<polygon fill="white" stroke="#bfbfbf" points="141.5,-56.5 141.5,-75.5 191.5,-75.5 191.5,-56.5 141.5,-56.5"/>
<text text-anchor="middle" x="166.5" y="-63.5" font-family="Helvetica,sans-Serif" font-size="10.00">unistd.h</text>
</a>
</g>
</g>
<!-- Node1&#45;&gt;Node5 -->
<g id="edge4" class="edge">
<title>Node1&#45;&gt;Node5</title>
<path fill="none" stroke="midnightblue" d="M111.1,-112.32C120.96,-104.26 135.85,-92.08 147.72,-82.37"/>
<polygon fill="midnightblue" stroke="midnightblue" points="150.18,-84.88 155.7,-75.83 145.75,-79.46 150.18,-84.88"/>
</g>
<!-- Node3 -->
<g id="node3" class="node">
<title>Node3</title>
<g id="a_node3"><a xlink:title=" ">
<polygon fill="white" stroke="#bfbfbf" points="6.5,-0.5 6.5,-19.5 52.5,-19.5 52.5,-0.5 6.5,-0.5"/>
<text text-anchor="middle" x="29.5" y="-7.5" font-family="Helvetica,sans-Serif" font-size="10.00">cstdint</text>
</a>
</g>
</g>
<!-- Node2&#45;&gt;Node3 -->
<g id="edge2" class="edge">
<title>Node2&#45;&gt;Node3</title>
<path fill="none" stroke="midnightblue" d="M29.5,-56.08C29.5,-49.01 29.5,-38.86 29.5,-29.99"/>
<polygon fill="midnightblue" stroke="midnightblue" points="33,-29.75 29.5,-19.75 26,-29.75 33,-29.75"/>
</g>
</g>
</svg>
