<?xml version="1.0" encoding="UTF-8" standalone="no"?>
<!DOCTYPE svg PUBLIC "-//W3C//DTD SVG 1.1//EN"
 "http://www.w3.org/Graphics/SVG/1.1/DTD/svg11.dtd">
<!-- Generated by graphviz version 2.47.0 (20210407.0042)
 -->
<!-- Title: include/Timer.hpp Pages: 1 -->
<svg width="288pt" height="95pt"
 viewBox="0.00 0.00 288.00 95.00" xmlns="http://www.w3.org/2000/svg" xmlns:xlink="http://www.w3.org/1999/xlink">
<g id="graph0" class="graph" transform="scale(1 1) rotate(0) translate(4 91)">
<title>include/Timer.hpp</title>
<polygon fill="white" stroke="transparent" points="-4,4 -4,-91 284,-91 284,4 -4,4"/>
<!-- Node1 -->
<g id="node1" class="node">
<title>Node1</title>
<g id="a_node1"><a xlink:title=" ">
<polygon fill="#bfbfbf" stroke="black" points="103.5,-67.5 103.5,-86.5 196.5,-86.5 196.5,-67.5 103.5,-67.5"/>
<text text-anchor="middle" x="150" y="-74.5" font-family="Helvetica,sans-Serif" font-size="10.00">include/Timer.hpp</text>
</a>
</g>
</g>
<!-- Node2 -->
<g id="node2" class="node">
<title>Node2</title>
<g id="a_node2"><a xlink:href="_unit_8cpp.html" target="_top" xlink:title=" ">
<polygon fill="white" stroke="black" points="0,-0.5 0,-30.5 96,-30.5 96,-0.5 0,-0.5"/>
<text text-anchor="start" x="8" y="-18.5" font-family="Helvetica,sans-Serif" font-size="10.00">src/engine/objects</text>
<text text-anchor="middle" x="48" y="-7.5" font-family="Helvetica,sans-Serif" font-size="10.00">/Unit.cpp</text>
</a>
</g>
</g>
<!-- Node1&#45;&gt;Node2 -->
<g id="edge1" class="edge">
<title>Node1&#45;&gt;Node2</title>
<path fill="none" stroke="midnightblue" d="M126.47,-62.28C110.15,-52.75 88.47,-40.11 72.04,-30.52"/>
<polygon fill="midnightblue" stroke="midnightblue" points="124.98,-65.46 135.39,-67.48 128.51,-59.41 124.98,-65.46"/>
</g>
<!-- Node3 -->
<g id="node3" class="node">
<title>Node3</title>
<g id="a_node3"><a xlink:href="main_8cpp.html" target="_top" xlink:title=" ">
<polygon fill="white" stroke="black" points="114,-6 114,-25 186,-25 186,-6 114,-6"/>
<text text-anchor="middle" x="150" y="-13" font-family="Helvetica,sans-Serif" font-size="10.00">src/main.cpp</text>
</a>
</g>
</g>
<!-- Node1&#45;&gt;Node3 -->
<g id="edge2" class="edge">
<title>Node1&#45;&gt;Node3</title>
<path fill="none" stroke="midnightblue" d="M150,-57.32C150,-46.5 150,-33.4 150,-25.01"/>
<polygon fill="midnightblue" stroke="midnightblue" points="146.5,-57.48 150,-67.48 153.5,-57.48 146.5,-57.48"/>
</g>
<!-- Node4 -->
<g id="node4" class="node">
<title>Node4</title>
<g id="a_node4"><a xlink:href="_timer_8cpp.html" target="_top" xlink:title=" ">
<polygon fill="white" stroke="black" points="204,-6 204,-25 280,-25 280,-6 204,-6"/>
<text text-anchor="middle" x="242" y="-13" font-family="Helvetica,sans-Serif" font-size="10.00">src/Timer.cpp</text>
</a>
</g>
</g>
<!-- Node1&#45;&gt;Node4 -->
<g id="edge3" class="edge">
<title>Node1&#45;&gt;Node4</title>
<path fill="none" stroke="midnightblue" d="M171.76,-61.93C189.49,-50.46 213.96,-34.63 228.84,-25.01"/>
<polygon fill="midnightblue" stroke="midnightblue" points="169.68,-59.11 163.18,-67.48 173.48,-64.98 169.68,-59.11"/>
</g>
</g>
</svg>
