<?xml version="1.0" encoding="UTF-8" standalone="no"?>
<!DOCTYPE svg PUBLIC "-//W3C//DTD SVG 1.1//EN"
 "http://www.w3.org/Graphics/SVG/1.1/DTD/svg11.dtd">
<!-- Generated by graphviz version 2.47.1 (20210421.1823)
 -->
<!-- Title: include/graphics/Transform.hpp Pages: 1 -->
<svg width="961pt" height="498pt"
 viewBox="0.00 0.00 960.50 498.00" xmlns="http://www.w3.org/2000/svg" xmlns:xlink="http://www.w3.org/1999/xlink">
<g id="graph0" class="graph" transform="scale(1 1) rotate(0) translate(4 494)">
<title>include/graphics/Transform.hpp</title>
<polygon fill="white" stroke="transparent" points="-4,4 -4,-494 956.5,-494 956.5,4 -4,4"/>
<!-- Node1 -->
<g id="node1" class="node">
<title>Node1</title>
<g id="a_node1"><a xlink:title=" ">
<polygon fill="#bfbfbf" stroke="black" points="477,-470.5 477,-489.5 629,-489.5 629,-470.5 477,-470.5"/>
<text text-anchor="middle" x="553" y="-477.5" font-family="Helvetica,sans-Serif" font-size="10.00">include/graphics/Transform.hpp</text>
</a>
</g>
</g>
<!-- Node2 -->
<g id="node2" class="node">
<title>Node2</title>
<g id="a_node2"><a xlink:href="_transform_8cpp.html" target="_top" xlink:title=" ">
<polygon fill="white" stroke="black" points="278.5,-414.5 278.5,-433.5 413.5,-433.5 413.5,-414.5 278.5,-414.5"/>
<text text-anchor="middle" x="346" y="-421.5" font-family="Helvetica,sans-Serif" font-size="10.00">src/graphics/Transform.cpp</text>
</a>
</g>
</g>
<!-- Node1&#45;&gt;Node2 -->
<g id="edge1" class="edge">
<title>Node1&#45;&gt;Node2</title>
<path fill="none" stroke="midnightblue" d="M510.18,-467.83C471.09,-457.63 414.17,-442.78 378.65,-433.52"/>
<polygon fill="midnightblue" stroke="midnightblue" points="509.64,-471.31 520.2,-470.44 511.41,-464.53 509.64,-471.31"/>
</g>
<!-- Node3 -->
<g id="node3" class="node">
<title>Node3</title>
<g id="a_node3"><a xlink:href="_g_shape_8hpp.html" target="_top" xlink:title=" ">
<polygon fill="white" stroke="black" points="431.5,-414.5 431.5,-433.5 574.5,-433.5 574.5,-414.5 431.5,-414.5"/>
<text text-anchor="middle" x="503" y="-421.5" font-family="Helvetica,sans-Serif" font-size="10.00">include/graphics/GShape.hpp</text>
</a>
</g>
</g>
<!-- Node1&#45;&gt;Node3 -->
<g id="edge2" class="edge">
<title>Node1&#45;&gt;Node3</title>
<path fill="none" stroke="midnightblue" d="M537.92,-462.72C529.11,-453.2 518.33,-441.56 511.1,-433.75"/>
<polygon fill="midnightblue" stroke="midnightblue" points="535.38,-465.12 544.74,-470.08 540.52,-460.37 535.38,-465.12"/>
</g>
<!-- Node16 -->
<g id="node16" class="node">
<title>Node16</title>
<g id="a_node16"><a xlink:href="_shader_8hpp.html" target="_top" xlink:title=" ">
<polygon fill="white" stroke="black" points="484.5,-358.5 484.5,-377.5 623.5,-377.5 623.5,-358.5 484.5,-358.5"/>
<text text-anchor="middle" x="554" y="-365.5" font-family="Helvetica,sans-Serif" font-size="10.00">include/graphics/Shader.hpp</text>
</a>
</g>
</g>
<!-- Node1&#45;&gt;Node16 -->
<g id="edge28" class="edge">
<title>Node1&#45;&gt;Node16</title>
<path fill="none" stroke="midnightblue" d="M567.98,-462.47C574.22,-454.48 580.77,-444.38 584,-434 590.57,-412.88 573.5,-389.7 562.49,-377.54"/>
<polygon fill="midnightblue" stroke="midnightblue" points="565.21,-460.32 561.48,-470.23 570.58,-464.81 565.21,-460.32"/>
</g>
<!-- Node18 -->
<g id="node18" class="node">
<title>Node18</title>
<g id="a_node18"><a xlink:href="_window_8hpp.html" target="_top" xlink:title=" ">
<polygon fill="white" stroke="black" points="618.5,-302.5 618.5,-321.5 761.5,-321.5 761.5,-302.5 618.5,-302.5"/>
<text text-anchor="middle" x="690" y="-309.5" font-family="Helvetica,sans-Serif" font-size="10.00">include/graphics/Window.hpp</text>
</a>
</g>
</g>
<!-- Node1&#45;&gt;Node18 -->
<g id="edge29" class="edge">
<title>Node1&#45;&gt;Node18</title>
<path fill="none" stroke="midnightblue" d="M571.98,-463.92C594.37,-445.44 631.72,-412.32 657,-378 670.66,-359.46 681.58,-334.43 686.75,-321.51"/>
<polygon fill="midnightblue" stroke="midnightblue" points="569.74,-461.23 564.2,-470.26 574.16,-466.66 569.74,-461.23"/>
</g>
<!-- Node4 -->
<g id="node4" class="node">
<title>Node4</title>
<g id="a_node4"><a xlink:href="_g_shape_8cpp.html" target="_top" xlink:title=" ">
<polygon fill="white" stroke="black" points="340,-358.5 340,-377.5 466,-377.5 466,-358.5 340,-358.5"/>
<text text-anchor="middle" x="403" y="-365.5" font-family="Helvetica,sans-Serif" font-size="10.00">src/graphics/GShape.cpp</text>
</a>
</g>
</g>
<!-- Node3&#45;&gt;Node4 -->
<g id="edge3" class="edge">
<title>Node3&#45;&gt;Node4</title>
<path fill="none" stroke="midnightblue" d="M477.91,-409.45C459.45,-399.48 434.9,-386.23 419.03,-377.65"/>
<polygon fill="midnightblue" stroke="midnightblue" points="476.47,-412.65 486.93,-414.32 479.8,-406.49 476.47,-412.65"/>
</g>
<!-- Node5 -->
<g id="node5" class="node">
<title>Node5</title>
<g id="a_node5"><a xlink:href="_resource_manager_8hpp.html" target="_top" xlink:title=" ">
<polygon fill="white" stroke="black" points="384.5,-168.5 384.5,-198.5 515.5,-198.5 515.5,-168.5 384.5,-168.5"/>
<text text-anchor="start" x="392.5" y="-186.5" font-family="Helvetica,sans-Serif" font-size="10.00">include/graphics/Resource</text>
<text text-anchor="middle" x="450" y="-175.5" font-family="Helvetica,sans-Serif" font-size="10.00">Manager.hpp</text>
</a>
</g>
</g>
<!-- Node3&#45;&gt;Node5 -->
<g id="edge4" class="edge">
<title>Node3&#45;&gt;Node5</title>
<path fill="none" stroke="midnightblue" d="M429.03,-412.77C388.23,-405.44 343.37,-394.03 331,-378 282.44,-315.1 384.05,-231.34 429.51,-198.52"/>
<polygon fill="midnightblue" stroke="midnightblue" points="428.57,-416.24 439.02,-414.5 429.76,-409.34 428.57,-416.24"/>
</g>
<!-- Node12 -->
<g id="node12" class="node">
<title>Node12</title>
<g id="a_node12"><a xlink:href="_inventory_8hpp.html" target="_top" xlink:title=" ">
<polygon fill="white" stroke="black" points="154.5,-56.5 154.5,-75.5 283.5,-75.5 283.5,-56.5 154.5,-56.5"/>
<text text-anchor="middle" x="219" y="-63.5" font-family="Helvetica,sans-Serif" font-size="10.00">include/GUI/Inventory.hpp</text>
</a>
</g>
</g>
<!-- Node3&#45;&gt;Node12 -->
<g id="edge27" class="edge">
<title>Node3&#45;&gt;Node12</title>
<path fill="none" stroke="midnightblue" d="M421.45,-413.49C279.04,-395.77 0,-355.61 0,-313 0,-313 0,-313 0,-182.5 0,-112.01 89.88,-84.43 154.48,-73.72"/>
<polygon fill="midnightblue" stroke="midnightblue" points="421.11,-416.98 431.47,-414.73 421.97,-410.03 421.11,-416.98"/>
</g>
<!-- Node3&#45;&gt;Node16 -->
<g id="edge17" class="edge">
<title>Node3&#45;&gt;Node16</title>
<path fill="none" stroke="midnightblue" d="M512.61,-406.14C520.64,-396.74 531.73,-385.4 540.6,-377.75"/>
<polygon fill="midnightblue" stroke="midnightblue" points="509.77,-404.09 506.26,-414.08 515.24,-408.46 509.77,-404.09"/>
</g>
<!-- Node6 -->
<g id="node6" class="node">
<title>Node6</title>
<g id="a_node6"><a xlink:href="_drawable_8cpp.html" target="_top" xlink:title=" ">
<polygon fill="white" stroke="black" points="601.5,-112.5 601.5,-131.5 724.5,-131.5 724.5,-112.5 601.5,-112.5"/>
<text text-anchor="middle" x="663" y="-119.5" font-family="Helvetica,sans-Serif" font-size="10.00">src/engine/Drawable.cpp</text>
</a>
</g>
</g>
<!-- Node5&#45;&gt;Node6 -->
<g id="edge5" class="edge">
<title>Node5&#45;&gt;Node6</title>
<path fill="none" stroke="midnightblue" d="M509.85,-165.78C549.81,-154.62 600.68,-140.41 632.55,-131.51"/>
<polygon fill="midnightblue" stroke="midnightblue" points="508.9,-162.41 500.21,-168.47 510.78,-169.16 508.9,-162.41"/>
</g>
<!-- Node7 -->
<g id="node7" class="node">
<title>Node7</title>
<g id="a_node7"><a xlink:href="_field_8cpp.html" target="_top" xlink:title=" ">
<polygon fill="white" stroke="black" points="66,-112.5 66,-131.5 170,-131.5 170,-112.5 66,-112.5"/>
<text text-anchor="middle" x="118" y="-119.5" font-family="Helvetica,sans-Serif" font-size="10.00">src/engine/Field.cpp</text>
</a>
</g>
</g>
<!-- Node5&#45;&gt;Node7 -->
<g id="edge6" class="edge">
<title>Node5&#45;&gt;Node7</title>
<path fill="none" stroke="midnightblue" d="M374.33,-168.94C310.13,-157.43 219.99,-141.28 165.48,-131.51"/>
<polygon fill="midnightblue" stroke="midnightblue" points="373.95,-172.43 384.41,-170.74 375.18,-165.54 373.95,-172.43"/>
</g>
<!-- Node8 -->
<g id="node8" class="node">
<title>Node8</title>
<g id="a_node8"><a xlink:href="_engine_8cpp.html" target="_top" xlink:title=" ">
<polygon fill="white" stroke="black" points="188,-112.5 188,-131.5 268,-131.5 268,-112.5 188,-112.5"/>
<text text-anchor="middle" x="228" y="-119.5" font-family="Helvetica,sans-Serif" font-size="10.00">src/Engine.cpp</text>
</a>
</g>
</g>
<!-- Node5&#45;&gt;Node8 -->
<g id="edge7" class="edge">
<title>Node5&#45;&gt;Node8</title>
<path fill="none" stroke="midnightblue" d="M387.88,-165.85C346.2,-154.68 293.03,-140.43 259.74,-131.51"/>
<polygon fill="midnightblue" stroke="midnightblue" points="387.11,-169.27 397.67,-168.47 388.92,-162.51 387.11,-169.27"/>
</g>
<!-- Node9 -->
<g id="node9" class="node">
<title>Node9</title>
<g id="a_node9"><a xlink:href="_event_handler_8cpp.html" target="_top" xlink:title=" ">
<polygon fill="white" stroke="black" points="781.5,-112.5 781.5,-131.5 952.5,-131.5 952.5,-112.5 781.5,-112.5"/>
<text text-anchor="middle" x="867" y="-119.5" font-family="Helvetica,sans-Serif" font-size="10.00">src/EventHandler/EventHandler.cpp</text>
</a>
</g>
</g>
<!-- Node5&#45;&gt;Node9 -->
<g id="edge8" class="edge">
<title>Node5&#45;&gt;Node9</title>
<path fill="none" stroke="midnightblue" d="M525.73,-171.69C606.57,-160.16 733.02,-142.12 807.17,-131.54"/>
<polygon fill="midnightblue" stroke="midnightblue" points="525.02,-168.26 515.61,-173.14 526.01,-175.19 525.02,-168.26"/>
</g>
<!-- Node10 -->
<g id="node10" class="node">
<title>Node10</title>
<g id="a_node10"><a xlink:href="_game_8cpp.html" target="_top" xlink:title=" ">
<polygon fill="white" stroke="black" points="413.5,-0.5 413.5,-19.5 490.5,-19.5 490.5,-0.5 413.5,-0.5"/>
<text text-anchor="middle" x="452" y="-7.5" font-family="Helvetica,sans-Serif" font-size="10.00">src/Game.cpp</text>
</a>
</g>
</g>
<!-- Node5&#45;&gt;Node10 -->
<g id="edge9" class="edge">
<title>Node5&#45;&gt;Node10</title>
<path fill="none" stroke="midnightblue" d="M526.04,-179.66C600.98,-175.07 707.93,-163.12 734,-132 803.8,-48.7 583.28,-21.32 490.82,-13.64"/>
<polygon fill="midnightblue" stroke="midnightblue" points="525.47,-176.19 515.69,-180.26 525.88,-183.18 525.47,-176.19"/>
</g>
<!-- Node11 -->
<g id="node11" class="node">
<title>Node11</title>
<g id="a_node11"><a xlink:href="_resource_manager_8cpp.html" target="_top" xlink:title=" ">
<polygon fill="white" stroke="black" points="286,-112.5 286,-131.5 456,-131.5 456,-112.5 286,-112.5"/>
<text text-anchor="middle" x="371" y="-119.5" font-family="Helvetica,sans-Serif" font-size="10.00">src/graphics/ResourceManager.cpp</text>
</a>
</g>
</g>
<!-- Node5&#45;&gt;Node11 -->
<g id="edge10" class="edge">
<title>Node5&#45;&gt;Node11</title>
<path fill="none" stroke="midnightblue" d="M423.03,-162.19C409.2,-151.77 393.08,-139.63 382.5,-131.66"/>
<polygon fill="midnightblue" stroke="midnightblue" points="421.18,-165.18 431.28,-168.4 425.4,-159.59 421.18,-165.18"/>
</g>
<!-- Node5&#45;&gt;Node12 -->
<g id="edge11" class="edge">
<title>Node5&#45;&gt;Node12</title>
<path fill="none" stroke="midnightblue" d="M374.14,-178.07C265.83,-170.97 77.58,-155.39 57,-132 24.97,-95.6 96.26,-79.31 154.23,-72.21"/>
<polygon fill="midnightblue" stroke="midnightblue" points="374.16,-181.58 384.37,-178.73 374.62,-174.6 374.16,-181.58"/>
</g>
<!-- Node14 -->
<g id="node14" class="node">
<title>Node14</title>
<g id="a_node14"><a xlink:href="_item_8hpp.html" target="_top" xlink:title=" ">
<polygon fill="white" stroke="black" points="474.5,-112.5 474.5,-131.5 583.5,-131.5 583.5,-112.5 474.5,-112.5"/>
<text text-anchor="middle" x="529" y="-119.5" font-family="Helvetica,sans-Serif" font-size="10.00">include/GUI/Item.hpp</text>
</a>
</g>
</g>
<!-- Node5&#45;&gt;Node14 -->
<g id="edge14" class="edge">
<title>Node5&#45;&gt;Node14</title>
<path fill="none" stroke="midnightblue" d="M476.97,-162.19C490.8,-151.77 506.92,-139.63 517.5,-131.66"/>
<polygon fill="midnightblue" stroke="midnightblue" points="474.6,-159.59 468.72,-168.4 478.82,-165.18 474.6,-159.59"/>
</g>
<!-- Node12&#45;&gt;Node10 -->
<g id="edge12" class="edge">
<title>Node12&#45;&gt;Node10</title>
<path fill="none" stroke="midnightblue" d="M265.8,-54.15C309.83,-43.95 374.85,-28.88 415.25,-19.52"/>
<polygon fill="midnightblue" stroke="midnightblue" points="264.87,-50.78 255.92,-56.44 266.45,-57.6 264.87,-50.78"/>
</g>
<!-- Node13 -->
<g id="node13" class="node">
<title>Node13</title>
<g id="a_node13"><a xlink:href="_inventory_8cpp.html" target="_top" xlink:title=" ">
<polygon fill="white" stroke="black" points="163,-0.5 163,-19.5 275,-19.5 275,-0.5 163,-0.5"/>
<text text-anchor="middle" x="219" y="-7.5" font-family="Helvetica,sans-Serif" font-size="10.00">src/GUI/Inventory.cpp</text>
</a>
</g>
</g>
<!-- Node12&#45;&gt;Node13 -->
<g id="edge13" class="edge">
<title>Node12&#45;&gt;Node13</title>
<path fill="none" stroke="midnightblue" d="M219,-45.8C219,-36.91 219,-26.78 219,-19.75"/>
<polygon fill="midnightblue" stroke="midnightblue" points="215.5,-46.08 219,-56.08 222.5,-46.08 215.5,-46.08"/>
</g>
<!-- Node14&#45;&gt;Node12 -->
<g id="edge16" class="edge">
<title>Node14&#45;&gt;Node12</title>
<path fill="none" stroke="midnightblue" d="M469.66,-110.66C411.08,-100.46 322.55,-85.04 267.89,-75.52"/>
<polygon fill="midnightblue" stroke="midnightblue" points="469.43,-114.18 479.88,-112.44 470.63,-107.28 469.43,-114.18"/>
</g>
<!-- Node15 -->
<g id="node15" class="node">
<title>Node15</title>
<g id="a_node15"><a xlink:href="_item_8cpp.html" target="_top" xlink:title=" ">
<polygon fill="white" stroke="black" points="483,-56.5 483,-75.5 575,-75.5 575,-56.5 483,-56.5"/>
<text text-anchor="middle" x="529" y="-63.5" font-family="Helvetica,sans-Serif" font-size="10.00">src/GUI/Item.cpp</text>
</a>
</g>
</g>
<!-- Node14&#45;&gt;Node15 -->
<g id="edge15" class="edge">
<title>Node14&#45;&gt;Node15</title>
<path fill="none" stroke="midnightblue" d="M529,-101.8C529,-92.91 529,-82.78 529,-75.75"/>
<polygon fill="midnightblue" stroke="midnightblue" points="525.5,-102.08 529,-112.08 532.5,-102.08 525.5,-102.08"/>
</g>
<!-- Node16&#45;&gt;Node3 -->
<g id="edge19" class="edge">
<title>Node16&#45;&gt;Node3</title>
<path fill="none" stroke="midnightblue" d="M544.44,-385.8C536.38,-395.25 525.21,-406.65 516.31,-414.32"/>
<polygon fill="midnightblue" stroke="midnightblue" points="547.29,-387.83 550.81,-377.83 541.83,-383.46 547.29,-387.83"/>
</g>
<!-- Node16&#45;&gt;Node5 -->
<g id="edge20" class="edge">
<title>Node16&#45;&gt;Node5</title>
<path fill="none" stroke="midnightblue" d="M513.39,-354.69C497.07,-347.7 479.64,-337.21 469,-322 442.47,-284.09 445.05,-225.7 447.99,-198.88"/>
<polygon fill="midnightblue" stroke="midnightblue" points="512.22,-357.99 522.81,-358.42 514.8,-351.48 512.22,-357.99"/>
</g>
<!-- Node17 -->
<g id="node17" class="node">
<title>Node17</title>
<g id="a_node17"><a xlink:href="_shader_8cpp.html" target="_top" xlink:title=" ">
<polygon fill="white" stroke="black" points="478,-302.5 478,-321.5 600,-321.5 600,-302.5 478,-302.5"/>
<text text-anchor="middle" x="539" y="-309.5" font-family="Helvetica,sans-Serif" font-size="10.00">src/graphics/Shader.cpp</text>
</a>
</g>
</g>
<!-- Node16&#45;&gt;Node17 -->
<g id="edge18" class="edge">
<title>Node16&#45;&gt;Node17</title>
<path fill="none" stroke="midnightblue" d="M548.83,-348.4C546.32,-339.36 543.43,-328.94 541.43,-321.75"/>
<polygon fill="midnightblue" stroke="midnightblue" points="545.47,-349.38 551.52,-358.08 552.22,-347.51 545.47,-349.38"/>
</g>
<!-- Node16&#45;&gt;Node18 -->
<g id="edge21" class="edge">
<title>Node16&#45;&gt;Node18</title>
<path fill="none" stroke="midnightblue" d="M585.13,-354.64C610.66,-344.5 646.11,-330.43 668.55,-321.52"/>
<polygon fill="midnightblue" stroke="midnightblue" points="583.55,-351.5 575.55,-358.44 586.14,-358.01 583.55,-351.5"/>
</g>
<!-- Node18&#45;&gt;Node3 -->
<g id="edge26" class="edge">
<title>Node18&#45;&gt;Node3</title>
<path fill="none" stroke="midnightblue" d="M678.58,-330.47C668.24,-345.03 651.8,-365.36 633,-378 606.15,-396.06 571.3,-407.61 544.44,-414.48"/>
<polygon fill="midnightblue" stroke="midnightblue" points="681.7,-332.11 684.45,-321.88 675.92,-328.16 681.7,-332.11"/>
</g>
<!-- Node19 -->
<g id="node19" class="node">
<title>Node19</title>
<g id="a_node19"><a xlink:href="_window_8cpp.html" target="_top" xlink:title=" ">
<polygon fill="white" stroke="black" points="536.5,-241 536.5,-260 661.5,-260 661.5,-241 536.5,-241"/>
<text text-anchor="middle" x="599" y="-248" font-family="Helvetica,sans-Serif" font-size="10.00">src/graphics/Window.cpp</text>
</a>
</g>
</g>
<!-- Node18&#45;&gt;Node19 -->
<g id="edge22" class="edge">
<title>Node18&#45;&gt;Node19</title>
<path fill="none" stroke="midnightblue" d="M668.48,-296.93C650.94,-285.46 626.73,-269.63 612.01,-260.01"/>
<polygon fill="midnightblue" stroke="midnightblue" points="666.68,-299.93 676.96,-302.48 670.51,-294.07 666.68,-299.93"/>
</g>
<!-- Node20 -->
<g id="node20" class="node">
<title>Node20</title>
<g id="a_node20"><a xlink:href="_event_handler_8hpp.html" target="_top" xlink:title=" ">
<polygon fill="white" stroke="black" points="679.5,-235.5 679.5,-265.5 788.5,-265.5 788.5,-235.5 679.5,-235.5"/>
<text text-anchor="start" x="687.5" y="-253.5" font-family="Helvetica,sans-Serif" font-size="10.00">include/EventHandler</text>
<text text-anchor="middle" x="734" y="-242.5" font-family="Helvetica,sans-Serif" font-size="10.00">/EventHandler.hpp</text>
</a>
</g>
</g>
<!-- Node18&#45;&gt;Node20 -->
<g id="edge23" class="edge">
<title>Node18&#45;&gt;Node20</title>
<path fill="none" stroke="midnightblue" d="M702.39,-294.25C709.09,-285.19 717.27,-274.12 723.63,-265.52"/>
<polygon fill="midnightblue" stroke="midnightblue" points="699.44,-292.35 696.3,-302.48 705.06,-296.52 699.44,-292.35"/>
</g>
<!-- Node20&#45;&gt;Node5 -->
<g id="edge25" class="edge">
<title>Node20&#45;&gt;Node5</title>
<path fill="none" stroke="midnightblue" d="M669.53,-234.66C610.68,-221.17 553.46,-208.1 511.45,-198.51"/>
<polygon fill="midnightblue" stroke="midnightblue" points="668.84,-238.1 679.37,-236.92 670.4,-231.27 668.84,-238.1"/>
</g>
<!-- Node20&#45;&gt;Node9 -->
<g id="edge24" class="edge">
<title>Node20&#45;&gt;Node9</title>
<path fill="none" stroke="midnightblue" d="M756.12,-228.46C785.73,-200.3 836.91,-151.62 857.76,-131.79"/>
<polygon fill="midnightblue" stroke="midnightblue" points="753.58,-226.05 748.74,-235.48 758.4,-231.12 753.58,-226.05"/>
</g>
</g>
</svg>
