<?xml version="1.0" encoding="UTF-8" standalone="no"?>
<!DOCTYPE svg PUBLIC "-//W3C//DTD SVG 1.1//EN"
 "http://www.w3.org/Graphics/SVG/1.1/DTD/svg11.dtd">
<!-- Generated by graphviz version 2.47.0 (20210407.0042)
 -->
<!-- Title: include/graphics/Transform.hpp Pages: 1 -->
<svg width="820pt" height="386pt"
 viewBox="0.00 0.00 819.50 386.00" xmlns="http://www.w3.org/2000/svg" xmlns:xlink="http://www.w3.org/1999/xlink">
<g id="graph0" class="graph" transform="scale(1 1) rotate(0) translate(4 382)">
<title>include/graphics/Transform.hpp</title>
<polygon fill="white" stroke="transparent" points="-4,4 -4,-382 815.5,-382 815.5,4 -4,4"/>
<!-- Node1 -->
<g id="node1" class="node">
<title>Node1</title>
<g id="a_node1"><a xlink:title=" ">
<polygon fill="#bfbfbf" stroke="black" points="355,-358.5 355,-377.5 507,-377.5 507,-358.5 355,-358.5"/>
<text text-anchor="middle" x="431" y="-365.5" font-family="Helvetica,sans-Serif" font-size="10.00">include/graphics/Transform.hpp</text>
</a>
</g>
</g>
<!-- Node2 -->
<g id="node2" class="node">
<title>Node2</title>
<g id="a_node2"><a xlink:href="_transform_8cpp.html" target="_top" xlink:title=" ">
<polygon fill="white" stroke="black" points="217.5,-302.5 217.5,-321.5 352.5,-321.5 352.5,-302.5 217.5,-302.5"/>
<text text-anchor="middle" x="285" y="-309.5" font-family="Helvetica,sans-Serif" font-size="10.00">src/graphics/Transform.cpp</text>
</a>
</g>
</g>
<!-- Node1&#45;&gt;Node2 -->
<g id="edge1" class="edge">
<title>Node1&#45;&gt;Node2</title>
<path fill="none" stroke="midnightblue" d="M398.3,-354.91C370.85,-344.75 332.33,-330.51 308.03,-321.52"/>
<polygon fill="midnightblue" stroke="midnightblue" points="397.27,-358.26 407.87,-358.44 399.7,-351.69 397.27,-358.26"/>
</g>
<!-- Node3 -->
<g id="node3" class="node">
<title>Node3</title>
<g id="a_node3"><a xlink:href="_g_shape_8hpp.html" target="_top" xlink:title=" ">
<polygon fill="white" stroke="black" points="409.5,-302.5 409.5,-321.5 552.5,-321.5 552.5,-302.5 409.5,-302.5"/>
<text text-anchor="middle" x="481" y="-309.5" font-family="Helvetica,sans-Serif" font-size="10.00">include/graphics/GShape.hpp</text>
</a>
</g>
</g>
<!-- Node1&#45;&gt;Node3 -->
<g id="edge2" class="edge">
<title>Node1&#45;&gt;Node3</title>
<path fill="none" stroke="midnightblue" d="M446.08,-350.72C454.89,-341.2 465.67,-329.56 472.9,-321.75"/>
<polygon fill="midnightblue" stroke="midnightblue" points="443.48,-348.37 439.26,-358.08 448.62,-353.12 443.48,-348.37"/>
</g>
<!-- Node12 -->
<g id="node12" class="node">
<title>Node12</title>
<g id="a_node12"><a xlink:href="_shader_8hpp.html" target="_top" xlink:title=" ">
<polygon fill="white" stroke="black" points="311.5,-246.5 311.5,-265.5 450.5,-265.5 450.5,-246.5 311.5,-246.5"/>
<text text-anchor="middle" x="381" y="-253.5" font-family="Helvetica,sans-Serif" font-size="10.00">include/graphics/Shader.hpp</text>
</a>
</g>
</g>
<!-- Node1&#45;&gt;Node12 -->
<g id="edge21" class="edge">
<title>Node1&#45;&gt;Node12</title>
<path fill="none" stroke="midnightblue" d="M417.57,-350.27C411.54,-342.12 404.73,-331.94 400,-322 390.91,-302.89 385.21,-278.52 382.63,-265.73"/>
<polygon fill="midnightblue" stroke="midnightblue" points="414.81,-352.42 423.68,-358.22 420.36,-348.15 414.81,-352.42"/>
</g>
<!-- Node14 -->
<g id="node14" class="node">
<title>Node14</title>
<g id="a_node14"><a xlink:href="_window_8hpp.html" target="_top" xlink:title=" ">
<polygon fill="white" stroke="black" points="589.5,-190.5 589.5,-209.5 732.5,-209.5 732.5,-190.5 589.5,-190.5"/>
<text text-anchor="middle" x="661" y="-197.5" font-family="Helvetica,sans-Serif" font-size="10.00">include/graphics/Window.hpp</text>
</a>
</g>
</g>
<!-- Node1&#45;&gt;Node14 -->
<g id="edge22" class="edge">
<title>Node1&#45;&gt;Node14</title>
<path fill="none" stroke="midnightblue" d="M510.1,-356.39C563.91,-344.47 630.8,-319.23 662,-266 672.39,-248.28 667.5,-222.9 663.81,-209.71"/>
<polygon fill="midnightblue" stroke="midnightblue" points="509.28,-352.99 500.22,-358.47 510.72,-359.84 509.28,-352.99"/>
</g>
<!-- Node4 -->
<g id="node4" class="node">
<title>Node4</title>
<g id="a_node4"><a xlink:href="_g_shape_8cpp.html" target="_top" xlink:title=" ">
<polygon fill="white" stroke="black" points="507,-246.5 507,-265.5 633,-265.5 633,-246.5 507,-246.5"/>
<text text-anchor="middle" x="570" y="-253.5" font-family="Helvetica,sans-Serif" font-size="10.00">src/graphics/GShape.cpp</text>
</a>
</g>
</g>
<!-- Node3&#45;&gt;Node4 -->
<g id="edge3" class="edge">
<title>Node3&#45;&gt;Node4</title>
<path fill="none" stroke="midnightblue" d="M504.24,-296.9C520.56,-287 541.87,-274.07 555.74,-265.65"/>
<polygon fill="midnightblue" stroke="midnightblue" points="502.03,-294.14 495.3,-302.32 505.66,-300.13 502.03,-294.14"/>
</g>
<!-- Node5 -->
<g id="node5" class="node">
<title>Node5</title>
<g id="a_node5"><a xlink:href="_resource_manager_8hpp.html" target="_top" xlink:title=" ">
<polygon fill="white" stroke="black" points="406.5,-56.5 406.5,-86.5 537.5,-86.5 537.5,-56.5 406.5,-56.5"/>
<text text-anchor="start" x="414.5" y="-74.5" font-family="Helvetica,sans-Serif" font-size="10.00">include/graphics/Resource</text>
<text text-anchor="middle" x="472" y="-63.5" font-family="Helvetica,sans-Serif" font-size="10.00">Manager.hpp</text>
</a>
</g>
</g>
<!-- Node3&#45;&gt;Node5 -->
<g id="edge4" class="edge">
<title>Node3&#45;&gt;Node5</title>
<path fill="none" stroke="midnightblue" d="M480.29,-292.11C478.54,-245.85 474.08,-127.7 472.54,-86.74"/>
<polygon fill="midnightblue" stroke="midnightblue" points="476.79,-292.37 480.67,-302.23 483.79,-292.1 476.79,-292.37"/>
</g>
<!-- Node3&#45;&gt;Node12 -->
<g id="edge11" class="edge">
<title>Node3&#45;&gt;Node12</title>
<path fill="none" stroke="midnightblue" d="M450.78,-297.86C430.87,-287.85 406.13,-274.35 391.92,-265.65"/>
<polygon fill="midnightblue" stroke="midnightblue" points="449.3,-301.03 459.82,-302.32 452.4,-294.76 449.3,-301.03"/>
</g>
<!-- Node6 -->
<g id="node6" class="node">
<title>Node6</title>
<g id="a_node6"><a xlink:href="_drawable_8cpp.html" target="_top" xlink:title=" ">
<polygon fill="white" stroke="black" points="278.5,-0.5 278.5,-19.5 401.5,-19.5 401.5,-0.5 278.5,-0.5"/>
<text text-anchor="middle" x="340" y="-7.5" font-family="Helvetica,sans-Serif" font-size="10.00">src/engine/Drawable.cpp</text>
</a>
</g>
</g>
<!-- Node5&#45;&gt;Node6 -->
<g id="edge5" class="edge">
<title>Node5&#45;&gt;Node6</title>
<path fill="none" stroke="midnightblue" d="M431.46,-52.23C407.43,-41.39 378.07,-28.16 359.21,-19.66"/>
<polygon fill="midnightblue" stroke="midnightblue" points="430.16,-55.48 440.72,-56.4 433.04,-49.1 430.16,-55.48"/>
</g>
<!-- Node7 -->
<g id="node7" class="node">
<title>Node7</title>
<g id="a_node7"><a xlink:href="_field_8cpp.html" target="_top" xlink:title=" ">
<polygon fill="white" stroke="black" points="420,-0.5 420,-19.5 524,-19.5 524,-0.5 420,-0.5"/>
<text text-anchor="middle" x="472" y="-7.5" font-family="Helvetica,sans-Serif" font-size="10.00">src/engine/Field.cpp</text>
</a>
</g>
</g>
<!-- Node5&#45;&gt;Node7 -->
<g id="edge6" class="edge">
<title>Node5&#45;&gt;Node7</title>
<path fill="none" stroke="midnightblue" d="M472,-46.29C472,-36.86 472,-26.65 472,-19.66"/>
<polygon fill="midnightblue" stroke="midnightblue" points="468.5,-46.4 472,-56.4 475.5,-46.4 468.5,-46.4"/>
</g>
<!-- Node8 -->
<g id="node8" class="node">
<title>Node8</title>
<g id="a_node8"><a xlink:href="_engine_8cpp.html" target="_top" xlink:title=" ">
<polygon fill="white" stroke="black" points="542,-0.5 542,-19.5 622,-19.5 622,-0.5 542,-0.5"/>
<text text-anchor="middle" x="582" y="-7.5" font-family="Helvetica,sans-Serif" font-size="10.00">src/Engine.cpp</text>
</a>
</g>
</g>
<!-- Node5&#45;&gt;Node8 -->
<g id="edge7" class="edge">
<title>Node5&#45;&gt;Node8</title>
<path fill="none" stroke="midnightblue" d="M507.12,-51.51C526.89,-40.81 550.62,-27.97 565.99,-19.66"/>
<polygon fill="midnightblue" stroke="midnightblue" points="505.2,-48.56 498.07,-56.4 508.53,-54.72 505.2,-48.56"/>
</g>
<!-- Node9 -->
<g id="node9" class="node">
<title>Node9</title>
<g id="a_node9"><a xlink:href="_event_handler_8cpp.html" target="_top" xlink:title=" ">
<polygon fill="white" stroke="black" points="640.5,-0.5 640.5,-19.5 811.5,-19.5 811.5,-0.5 640.5,-0.5"/>
<text text-anchor="middle" x="726" y="-7.5" font-family="Helvetica,sans-Serif" font-size="10.00">src/EventHandler/EventHandler.cpp</text>
</a>
</g>
</g>
<!-- Node5&#45;&gt;Node9 -->
<g id="edge8" class="edge">
<title>Node5&#45;&gt;Node9</title>
<path fill="none" stroke="midnightblue" d="M541.87,-54.13C589.73,-42.92 651.28,-28.5 689.69,-19.51"/>
<polygon fill="midnightblue" stroke="midnightblue" points="540.81,-50.79 531.87,-56.47 542.41,-57.6 540.81,-50.79"/>
</g>
<!-- Node10 -->
<g id="node10" class="node">
<title>Node10</title>
<g id="a_node10"><a xlink:href="_resource_manager_8cpp.html" target="_top" xlink:title=" ">
<polygon fill="white" stroke="black" points="0,-0.5 0,-19.5 170,-19.5 170,-0.5 0,-0.5"/>
<text text-anchor="middle" x="85" y="-7.5" font-family="Helvetica,sans-Serif" font-size="10.00">src/graphics/ResourceManager.cpp</text>
</a>
</g>
</g>
<!-- Node5&#45;&gt;Node10 -->
<g id="edge9" class="edge">
<title>Node5&#45;&gt;Node10</title>
<path fill="none" stroke="midnightblue" d="M396.46,-58.89C321.22,-47.32 207.5,-29.83 140.3,-19.5"/>
<polygon fill="midnightblue" stroke="midnightblue" points="395.93,-62.35 406.35,-60.41 397,-55.43 395.93,-62.35"/>
</g>
<!-- Node11 -->
<g id="node11" class="node">
<title>Node11</title>
<g id="a_node11"><a xlink:href="main_8cpp.html" target="_top" xlink:title=" ">
<polygon fill="white" stroke="black" points="188,-0.5 188,-19.5 260,-19.5 260,-0.5 188,-0.5"/>
<text text-anchor="middle" x="224" y="-7.5" font-family="Helvetica,sans-Serif" font-size="10.00">src/main.cpp</text>
</a>
</g>
</g>
<!-- Node5&#45;&gt;Node11 -->
<g id="edge10" class="edge">
<title>Node5&#45;&gt;Node11</title>
<path fill="none" stroke="midnightblue" d="M403.78,-54.13C357.05,-42.92 296.96,-28.5 259.46,-19.51"/>
<polygon fill="midnightblue" stroke="midnightblue" points="403,-57.55 413.54,-56.47 404.63,-50.74 403,-57.55"/>
</g>
<!-- Node12&#45;&gt;Node3 -->
<g id="edge13" class="edge">
<title>Node12&#45;&gt;Node3</title>
<path fill="none" stroke="midnightblue" d="M411.17,-270.11C431.07,-280.12 455.82,-293.62 470.05,-302.32"/>
<polygon fill="midnightblue" stroke="midnightblue" points="412.65,-266.94 402.14,-265.65 409.55,-273.22 412.65,-266.94"/>
</g>
<!-- Node12&#45;&gt;Node5 -->
<g id="edge14" class="edge">
<title>Node12&#45;&gt;Node5</title>
<path fill="none" stroke="midnightblue" d="M398.48,-238.97C406.49,-230.89 415.6,-220.58 422,-210 447.1,-168.48 462.58,-112.38 468.82,-86.56"/>
<polygon fill="midnightblue" stroke="midnightblue" points="395.73,-236.75 390.98,-246.22 400.6,-241.79 395.73,-236.75"/>
</g>
<!-- Node13 -->
<g id="node13" class="node">
<title>Node13</title>
<g id="a_node13"><a xlink:href="_shader_8cpp.html" target="_top" xlink:title=" ">
<polygon fill="white" stroke="black" points="291,-190.5 291,-209.5 413,-209.5 413,-190.5 291,-190.5"/>
<text text-anchor="middle" x="352" y="-197.5" font-family="Helvetica,sans-Serif" font-size="10.00">src/graphics/Shader.cpp</text>
</a>
</g>
</g>
<!-- Node12&#45;&gt;Node13 -->
<g id="edge12" class="edge">
<title>Node12&#45;&gt;Node13</title>
<path fill="none" stroke="midnightblue" d="M371.32,-236.98C366.4,-227.82 360.64,-217.09 356.7,-209.75"/>
<polygon fill="midnightblue" stroke="midnightblue" points="368.4,-238.93 376.21,-246.08 374.56,-235.62 368.4,-238.93"/>
</g>
<!-- Node12&#45;&gt;Node14 -->
<g id="edge15" class="edge">
<title>Node12&#45;&gt;Node14</title>
<path fill="none" stroke="midnightblue" d="M435.25,-244.54C488.17,-234.33 567.67,-219 616.84,-209.52"/>
<polygon fill="midnightblue" stroke="midnightblue" points="434.52,-241.11 425.37,-246.44 435.85,-247.99 434.52,-241.11"/>
</g>
<!-- Node14&#45;&gt;Node3 -->
<g id="edge20" class="edge">
<title>Node14&#45;&gt;Node3</title>
<path fill="none" stroke="midnightblue" d="M660.23,-220.25C658.62,-234.71 654.14,-254 642,-266 618.36,-289.36 583.66,-300.82 552.52,-306.36"/>
<polygon fill="midnightblue" stroke="midnightblue" points="663.74,-220.15 660.99,-209.92 656.76,-219.64 663.74,-220.15"/>
</g>
<!-- Node15 -->
<g id="node15" class="node">
<title>Node15</title>
<g id="a_node15"><a xlink:href="_window_8cpp.html" target="_top" xlink:title=" ">
<polygon fill="white" stroke="black" points="521.5,-129 521.5,-148 646.5,-148 646.5,-129 521.5,-129"/>
<text text-anchor="middle" x="584" y="-136" font-family="Helvetica,sans-Serif" font-size="10.00">src/graphics/Window.cpp</text>
</a>
</g>
</g>
<!-- Node14&#45;&gt;Node15 -->
<g id="edge16" class="edge">
<title>Node14&#45;&gt;Node15</title>
<path fill="none" stroke="midnightblue" d="M641.97,-184.29C627.2,-172.88 607.24,-157.46 595.01,-148.01"/>
<polygon fill="midnightblue" stroke="midnightblue" points="639.91,-187.13 649.97,-190.48 644.19,-181.59 639.91,-187.13"/>
</g>
<!-- Node16 -->
<g id="node16" class="node">
<title>Node16</title>
<g id="a_node16"><a xlink:href="_event_handler_8hpp.html" target="_top" xlink:title=" ">
<polygon fill="white" stroke="black" points="664.5,-123.5 664.5,-153.5 773.5,-153.5 773.5,-123.5 664.5,-123.5"/>
<text text-anchor="start" x="672.5" y="-141.5" font-family="Helvetica,sans-Serif" font-size="10.00">include/EventHandler</text>
<text text-anchor="middle" x="719" y="-130.5" font-family="Helvetica,sans-Serif" font-size="10.00">/EventHandler.hpp</text>
</a>
</g>
</g>
<!-- Node14&#45;&gt;Node16 -->
<g id="edge17" class="edge">
<title>Node14&#45;&gt;Node16</title>
<path fill="none" stroke="midnightblue" d="M676.51,-183.09C685.49,-173.88 696.68,-162.39 705.33,-153.52"/>
<polygon fill="midnightblue" stroke="midnightblue" points="673.78,-180.87 669.31,-190.48 678.8,-185.76 673.78,-180.87"/>
</g>
<!-- Node16&#45;&gt;Node5 -->
<g id="edge19" class="edge">
<title>Node16&#45;&gt;Node5</title>
<path fill="none" stroke="midnightblue" d="M655.99,-120.92C615.68,-110.31 563.96,-96.7 525.62,-86.61"/>
<polygon fill="midnightblue" stroke="midnightblue" points="655.15,-124.32 665.71,-123.48 656.93,-117.55 655.15,-124.32"/>
</g>
<!-- Node16&#45;&gt;Node9 -->
<g id="edge18" class="edge">
<title>Node16&#45;&gt;Node9</title>
<path fill="none" stroke="midnightblue" d="M720.35,-113.14C721.93,-84.62 724.46,-38.86 725.51,-19.79"/>
<polygon fill="midnightblue" stroke="midnightblue" points="716.83,-113.3 719.78,-123.48 723.82,-113.69 716.83,-113.3"/>
</g>
</g>
</svg>
