<?xml version="1.0" encoding="UTF-8" standalone="no"?>
<!DOCTYPE svg PUBLIC "-//W3C//DTD SVG 1.1//EN"
 "http://www.w3.org/Graphics/SVG/1.1/DTD/svg11.dtd">
<!-- Generated by graphviz version 2.47.0 (20210407.0042)
 -->
<!-- Title: include/graphics/Transform.hpp Pages: 1 -->
<svg width="863pt" height="263pt"
 viewBox="0.00 0.00 862.50 263.00" xmlns="http://www.w3.org/2000/svg" xmlns:xlink="http://www.w3.org/1999/xlink">
<g id="graph0" class="graph" transform="scale(1 1) rotate(0) translate(4 259)">
<title>include/graphics/Transform.hpp</title>
<polygon fill="white" stroke="transparent" points="-4,4 -4,-259 858.5,-259 858.5,4 -4,4"/>
<!-- Node1 -->
<g id="node1" class="node">
<title>Node1</title>
<g id="a_node1"><a xlink:title=" ">
<polygon fill="#bfbfbf" stroke="black" points="106.5,-235.5 106.5,-254.5 258.5,-254.5 258.5,-235.5 106.5,-235.5"/>
<text text-anchor="middle" x="182.5" y="-242.5" font-family="Helvetica,sans-Serif" font-size="10.00">include/graphics/Transform.hpp</text>
</a>
</g>
</g>
<!-- Node2 -->
<g id="node2" class="node">
<title>Node2</title>
<g id="a_node2"><a xlink:href="_transform_8cpp.html" target="_top" xlink:title=" ">
<polygon fill="white" stroke="black" points="0,-179.5 0,-198.5 135,-198.5 135,-179.5 0,-179.5"/>
<text text-anchor="middle" x="67.5" y="-186.5" font-family="Helvetica,sans-Serif" font-size="10.00">src/graphics/Transform.cpp</text>
</a>
</g>
</g>
<!-- Node1&#45;&gt;Node2 -->
<g id="edge1" class="edge">
<title>Node1&#45;&gt;Node2</title>
<path fill="none" stroke="midnightblue" d="M155.02,-231.1C133.53,-221.01 104.28,-207.27 85.64,-198.52"/>
<polygon fill="midnightblue" stroke="midnightblue" points="153.74,-234.36 164.28,-235.44 156.71,-228.02 153.74,-234.36"/>
</g>
<!-- Node3 -->
<g id="node3" class="node">
<title>Node3</title>
<g id="a_node3"><a xlink:href="_g_shape_8hpp.html" target="_top" xlink:title=" ">
<polygon fill="white" stroke="black" points="230,-179.5 230,-198.5 373,-198.5 373,-179.5 230,-179.5"/>
<text text-anchor="middle" x="301.5" y="-186.5" font-family="Helvetica,sans-Serif" font-size="10.00">include/graphics/GShape.hpp</text>
</a>
</g>
</g>
<!-- Node1&#45;&gt;Node3 -->
<g id="edge2" class="edge">
<title>Node1&#45;&gt;Node3</title>
<path fill="none" stroke="midnightblue" d="M210.64,-231.23C232.9,-221.13 263.36,-207.31 282.73,-198.52"/>
<polygon fill="midnightblue" stroke="midnightblue" points="209.02,-228.12 201.36,-235.44 211.91,-234.5 209.02,-228.12"/>
</g>
<!-- Node11 -->
<g id="node11" class="node">
<title>Node11</title>
<g id="a_node11"><a xlink:href="_shader_8hpp.html" target="_top" xlink:title=" ">
<polygon fill="white" stroke="black" points="231,-123.5 231,-142.5 370,-142.5 370,-123.5 231,-123.5"/>
<text text-anchor="middle" x="300.5" y="-130.5" font-family="Helvetica,sans-Serif" font-size="10.00">include/graphics/Shader.hpp</text>
</a>
</g>
</g>
<!-- Node1&#45;&gt;Node11 -->
<g id="edge17" class="edge">
<title>Node1&#45;&gt;Node11</title>
<path fill="none" stroke="midnightblue" d="M190.02,-226.34C196.7,-212.23 207.57,-192.62 221.5,-179 238.2,-162.67 262,-150.18 279.1,-142.55"/>
<polygon fill="midnightblue" stroke="midnightblue" points="186.82,-224.93 185.91,-235.48 193.2,-227.8 186.82,-224.93"/>
</g>
<!-- Node13 -->
<g id="node13" class="node">
<title>Node13</title>
<g id="a_node13"><a xlink:href="_window_8hpp.html" target="_top" xlink:title=" ">
<polygon fill="white" stroke="black" points="92,-62 92,-81 235,-81 235,-62 92,-62"/>
<text text-anchor="middle" x="163.5" y="-69" font-family="Helvetica,sans-Serif" font-size="10.00">include/graphics/Window.hpp</text>
</a>
</g>
</g>
<!-- Node1&#45;&gt;Node13 -->
<g id="edge18" class="edge">
<title>Node1&#45;&gt;Node13</title>
<path fill="none" stroke="midnightblue" d="M180.38,-224.85C176.27,-187.73 167.36,-107.33 164.44,-81.02"/>
<polygon fill="midnightblue" stroke="midnightblue" points="176.95,-225.71 181.53,-235.26 183.91,-224.93 176.95,-225.71"/>
</g>
<!-- Node4 -->
<g id="node4" class="node">
<title>Node4</title>
<g id="a_node4"><a xlink:href="_g_shape_8cpp.html" target="_top" xlink:title=" ">
<polygon fill="white" stroke="black" points="388.5,-123.5 388.5,-142.5 514.5,-142.5 514.5,-123.5 388.5,-123.5"/>
<text text-anchor="middle" x="451.5" y="-130.5" font-family="Helvetica,sans-Serif" font-size="10.00">src/graphics/GShape.cpp</text>
</a>
</g>
</g>
<!-- Node3&#45;&gt;Node4 -->
<g id="edge3" class="edge">
<title>Node3&#45;&gt;Node4</title>
<path fill="none" stroke="midnightblue" d="M334.72,-176.04C362.95,-165.88 402.76,-151.55 427.84,-142.52"/>
<polygon fill="midnightblue" stroke="midnightblue" points="333.49,-172.76 325.27,-179.44 335.86,-179.35 333.49,-172.76"/>
</g>
<!-- Node5 -->
<g id="node5" class="node">
<title>Node5</title>
<g id="a_node5"><a xlink:href="_resource_manager_8hpp.html" target="_top" xlink:title=" ">
<polygon fill="white" stroke="black" points="477,-56.5 477,-86.5 608,-86.5 608,-56.5 477,-56.5"/>
<text text-anchor="start" x="485" y="-74.5" font-family="Helvetica,sans-Serif" font-size="10.00">include/graphics/Resource</text>
<text text-anchor="middle" x="542.5" y="-63.5" font-family="Helvetica,sans-Serif" font-size="10.00">Manager.hpp</text>
</a>
</g>
</g>
<!-- Node3&#45;&gt;Node5 -->
<g id="edge4" class="edge">
<title>Node3&#45;&gt;Node5</title>
<path fill="none" stroke="midnightblue" d="M383.17,-180.43C437.8,-173.73 503.26,-162 523.5,-143 539.03,-128.43 542.36,-102.62 542.81,-86.6"/>
<polygon fill="midnightblue" stroke="midnightblue" points="382.62,-176.97 373.1,-181.63 383.45,-183.92 382.62,-176.97"/>
</g>
<!-- Node3&#45;&gt;Node11 -->
<g id="edge10" class="edge">
<title>Node3&#45;&gt;Node11</title>
<path fill="none" stroke="midnightblue" d="M294.68,-169.1C293.88,-160.14 294.14,-149.86 295.53,-142.75"/>
<polygon fill="midnightblue" stroke="midnightblue" points="291.23,-169.71 296.17,-179.08 298.15,-168.68 291.23,-169.71"/>
</g>
<!-- Node6 -->
<g id="node6" class="node">
<title>Node6</title>
<g id="a_node6"><a xlink:href="_drawable_8cpp.html" target="_top" xlink:title=" ">
<polygon fill="white" stroke="black" points="609,-0.5 609,-19.5 732,-19.5 732,-0.5 609,-0.5"/>
<text text-anchor="middle" x="670.5" y="-7.5" font-family="Helvetica,sans-Serif" font-size="10.00">src/engine/Drawable.cpp</text>
</a>
</g>
</g>
<!-- Node5&#45;&gt;Node6 -->
<g id="edge5" class="edge">
<title>Node5&#45;&gt;Node6</title>
<path fill="none" stroke="midnightblue" d="M582.12,-52.08C605.37,-41.28 633.67,-28.12 651.87,-19.66"/>
<polygon fill="midnightblue" stroke="midnightblue" points="580.43,-49.01 572.83,-56.4 583.38,-55.36 580.43,-49.01"/>
</g>
<!-- Node7 -->
<g id="node7" class="node">
<title>Node7</title>
<g id="a_node7"><a xlink:href="_field_8cpp.html" target="_top" xlink:title=" ">
<polygon fill="white" stroke="black" points="750.5,-0.5 750.5,-19.5 854.5,-19.5 854.5,-0.5 750.5,-0.5"/>
<text text-anchor="middle" x="802.5" y="-7.5" font-family="Helvetica,sans-Serif" font-size="10.00">src/engine/Field.cpp</text>
</a>
</g>
</g>
<!-- Node5&#45;&gt;Node7 -->
<g id="edge6" class="edge">
<title>Node5&#45;&gt;Node7</title>
<path fill="none" stroke="midnightblue" d="M613.71,-54.2C662.75,-42.98 725.93,-28.52 765.33,-19.51"/>
<polygon fill="midnightblue" stroke="midnightblue" points="612.75,-50.83 603.79,-56.47 614.32,-57.66 612.75,-50.83"/>
</g>
<!-- Node8 -->
<g id="node8" class="node">
<title>Node8</title>
<g id="a_node8"><a xlink:href="_engine_8cpp.html" target="_top" xlink:title=" ">
<polygon fill="white" stroke="black" points="232.5,-0.5 232.5,-19.5 312.5,-19.5 312.5,-0.5 232.5,-0.5"/>
<text text-anchor="middle" x="272.5" y="-7.5" font-family="Helvetica,sans-Serif" font-size="10.00">src/Engine.cpp</text>
</a>
</g>
</g>
<!-- Node5&#45;&gt;Node8 -->
<g id="edge7" class="edge">
<title>Node5&#45;&gt;Node8</title>
<path fill="none" stroke="midnightblue" d="M468.87,-54.27C417.9,-43.04 352.1,-28.54 311.1,-19.51"/>
<polygon fill="midnightblue" stroke="midnightblue" points="468.34,-57.74 478.86,-56.47 469.84,-50.9 468.34,-57.74"/>
</g>
<!-- Node9 -->
<g id="node9" class="node">
<title>Node9</title>
<g id="a_node9"><a xlink:href="_resource_manager_8cpp.html" target="_top" xlink:title=" ">
<polygon fill="white" stroke="black" points="330.5,-0.5 330.5,-19.5 500.5,-19.5 500.5,-0.5 330.5,-0.5"/>
<text text-anchor="middle" x="415.5" y="-7.5" font-family="Helvetica,sans-Serif" font-size="10.00">src/graphics/ResourceManager.cpp</text>
</a>
</g>
</g>
<!-- Node5&#45;&gt;Node9 -->
<g id="edge8" class="edge">
<title>Node5&#45;&gt;Node9</title>
<path fill="none" stroke="midnightblue" d="M503.19,-52.08C480.12,-41.28 452.05,-28.12 433.98,-19.66"/>
<polygon fill="midnightblue" stroke="midnightblue" points="501.86,-55.33 512.4,-56.4 504.83,-48.99 501.86,-55.33"/>
</g>
<!-- Node10 -->
<g id="node10" class="node">
<title>Node10</title>
<g id="a_node10"><a xlink:href="main_8cpp.html" target="_top" xlink:title=" ">
<polygon fill="white" stroke="black" points="518.5,-0.5 518.5,-19.5 590.5,-19.5 590.5,-0.5 518.5,-0.5"/>
<text text-anchor="middle" x="554.5" y="-7.5" font-family="Helvetica,sans-Serif" font-size="10.00">src/main.cpp</text>
</a>
</g>
</g>
<!-- Node5&#45;&gt;Node10 -->
<g id="edge9" class="edge">
<title>Node5&#45;&gt;Node10</title>
<path fill="none" stroke="midnightblue" d="M547.32,-46.59C549.24,-37.08 551.33,-26.73 552.75,-19.66"/>
<polygon fill="midnightblue" stroke="midnightblue" points="543.89,-45.9 545.34,-56.4 550.75,-47.29 543.89,-45.9"/>
</g>
<!-- Node11&#45;&gt;Node3 -->
<g id="edge12" class="edge">
<title>Node11&#45;&gt;Node3</title>
<path fill="none" stroke="midnightblue" d="M307.3,-152.69C308.12,-161.64 307.88,-171.93 306.5,-179.08"/>
<polygon fill="midnightblue" stroke="midnightblue" points="310.76,-152.11 305.79,-142.75 303.84,-153.16 310.76,-152.11"/>
</g>
<!-- Node11&#45;&gt;Node5 -->
<g id="edge13" class="edge">
<title>Node11&#45;&gt;Node5</title>
<path fill="none" stroke="midnightblue" d="M345.06,-121.05C384.59,-111.33 442.56,-97.07 485.47,-86.52"/>
<polygon fill="midnightblue" stroke="midnightblue" points="344.05,-117.69 335.17,-123.48 345.72,-124.49 344.05,-117.69"/>
</g>
<!-- Node12 -->
<g id="node12" class="node">
<title>Node12</title>
<g id="a_node12"><a xlink:href="_shader_8cpp.html" target="_top" xlink:title=" ">
<polygon fill="white" stroke="black" points="253.5,-62 253.5,-81 375.5,-81 375.5,-62 253.5,-62"/>
<text text-anchor="middle" x="314.5" y="-69" font-family="Helvetica,sans-Serif" font-size="10.00">src/graphics/Shader.cpp</text>
</a>
</g>
</g>
<!-- Node11&#45;&gt;Node12 -->
<g id="edge11" class="edge">
<title>Node11&#45;&gt;Node12</title>
<path fill="none" stroke="midnightblue" d="M304.82,-113.66C307.38,-102.77 310.5,-89.49 312.5,-81.01"/>
<polygon fill="midnightblue" stroke="midnightblue" points="301.39,-112.94 302.51,-123.48 308.2,-114.54 301.39,-112.94"/>
</g>
<!-- Node11&#45;&gt;Node13 -->
<g id="edge14" class="edge">
<title>Node11&#45;&gt;Node13</title>
<path fill="none" stroke="midnightblue" d="M271.67,-119.48C245.06,-107.92 206.27,-91.08 183.09,-81.01"/>
<polygon fill="midnightblue" stroke="midnightblue" points="270.3,-122.7 280.87,-123.48 273.09,-116.28 270.3,-122.7"/>
</g>
<!-- Node13&#45;&gt;Node3 -->
<g id="edge16" class="edge">
<title>Node13&#45;&gt;Node3</title>
<path fill="none" stroke="midnightblue" d="M175.14,-89.64C186.11,-104.92 203.63,-127.24 222.5,-143 240.91,-158.38 265.31,-171.36 282.1,-179.37"/>
<polygon fill="midnightblue" stroke="midnightblue" points="177.81,-87.35 169.21,-81.16 172.08,-91.36 177.81,-87.35"/>
</g>
<!-- Node14 -->
<g id="node14" class="node">
<title>Node14</title>
<g id="a_node14"><a xlink:href="_window_8cpp.html" target="_top" xlink:title=" ">
<polygon fill="white" stroke="black" points="89,-0.5 89,-19.5 214,-19.5 214,-0.5 89,-0.5"/>
<text text-anchor="middle" x="151.5" y="-7.5" font-family="Helvetica,sans-Serif" font-size="10.00">src/graphics/Window.cpp</text>
</a>
</g>
</g>
<!-- Node13&#45;&gt;Node14 -->
<g id="edge15" class="edge">
<title>Node13&#45;&gt;Node14</title>
<path fill="none" stroke="midnightblue" d="M159.8,-52.16C157.61,-41.27 154.93,-27.99 153.22,-19.51"/>
<polygon fill="midnightblue" stroke="midnightblue" points="156.37,-52.86 161.78,-61.98 163.23,-51.48 156.37,-52.86"/>
</g>
</g>
</svg>
