<?xml version="1.0" encoding="UTF-8" standalone="no"?>
<!DOCTYPE svg PUBLIC "-//W3C//DTD SVG 1.1//EN"
 "http://www.w3.org/Graphics/SVG/1.1/DTD/svg11.dtd">
<!-- Generated by graphviz version 2.47.0 (20210407.0042)
 -->
<!-- Title: include/graphics/Transform.hpp Pages: 1 -->
<svg width="971pt" height="498pt"
 viewBox="0.00 0.00 971.00 498.00" xmlns="http://www.w3.org/2000/svg" xmlns:xlink="http://www.w3.org/1999/xlink">
<g id="graph0" class="graph" transform="scale(1 1) rotate(0) translate(4 494)">
<title>include/graphics/Transform.hpp</title>
<polygon fill="white" stroke="transparent" points="-4,4 -4,-494 967,-494 967,4 -4,4"/>
<!-- Node1 -->
<g id="node1" class="node">
<title>Node1</title>
<g id="a_node1"><a xlink:title=" ">
<polygon fill="#bfbfbf" stroke="black" points="530.5,-470.5 530.5,-489.5 682.5,-489.5 682.5,-470.5 530.5,-470.5"/>
<text text-anchor="middle" x="606.5" y="-477.5" font-family="Helvetica,sans-Serif" font-size="10.00">include/graphics/Transform.hpp</text>
</a>
</g>
</g>
<!-- Node2 -->
<g id="node2" class="node">
<title>Node2</title>
<g id="a_node2"><a xlink:href="_transform_8cpp.html" target="_top" xlink:title=" ">
<polygon fill="white" stroke="black" points="332,-414.5 332,-433.5 467,-433.5 467,-414.5 332,-414.5"/>
<text text-anchor="middle" x="399.5" y="-421.5" font-family="Helvetica,sans-Serif" font-size="10.00">src/graphics/Transform.cpp</text>
</a>
</g>
</g>
<!-- Node1&#45;&gt;Node2 -->
<g id="edge1" class="edge">
<title>Node1&#45;&gt;Node2</title>
<path fill="none" stroke="midnightblue" d="M563.68,-467.83C524.59,-457.63 467.67,-442.78 432.15,-433.52"/>
<polygon fill="midnightblue" stroke="midnightblue" points="563.14,-471.31 573.7,-470.44 564.91,-464.53 563.14,-471.31"/>
</g>
<!-- Node3 -->
<g id="node3" class="node">
<title>Node3</title>
<g id="a_node3"><a xlink:href="_g_shape_8hpp.html" target="_top" xlink:title=" ">
<polygon fill="white" stroke="black" points="485,-414.5 485,-433.5 628,-433.5 628,-414.5 485,-414.5"/>
<text text-anchor="middle" x="556.5" y="-421.5" font-family="Helvetica,sans-Serif" font-size="10.00">include/graphics/GShape.hpp</text>
</a>
</g>
</g>
<!-- Node1&#45;&gt;Node3 -->
<g id="edge2" class="edge">
<title>Node1&#45;&gt;Node3</title>
<path fill="none" stroke="midnightblue" d="M591.42,-462.72C582.61,-453.2 571.83,-441.56 564.6,-433.75"/>
<polygon fill="midnightblue" stroke="midnightblue" points="588.88,-465.12 598.24,-470.08 594.02,-460.37 588.88,-465.12"/>
</g>
<!-- Node16 -->
<g id="node16" class="node">
<title>Node16</title>
<g id="a_node16"><a xlink:href="_shader_8hpp.html" target="_top" xlink:title=" ">
<polygon fill="white" stroke="black" points="538,-358.5 538,-377.5 677,-377.5 677,-358.5 538,-358.5"/>
<text text-anchor="middle" x="607.5" y="-365.5" font-family="Helvetica,sans-Serif" font-size="10.00">include/graphics/Shader.hpp</text>
</a>
</g>
</g>
<!-- Node1&#45;&gt;Node16 -->
<g id="edge28" class="edge">
<title>Node1&#45;&gt;Node16</title>
<path fill="none" stroke="midnightblue" d="M621.48,-462.47C627.72,-454.48 634.27,-444.38 637.5,-434 644.07,-412.88 627,-389.7 615.99,-377.54"/>
<polygon fill="midnightblue" stroke="midnightblue" points="618.71,-460.32 614.98,-470.23 624.08,-464.81 618.71,-460.32"/>
</g>
<!-- Node18 -->
<g id="node18" class="node">
<title>Node18</title>
<g id="a_node18"><a xlink:href="_window_8hpp.html" target="_top" xlink:title=" ">
<polygon fill="white" stroke="black" points="672,-302.5 672,-321.5 815,-321.5 815,-302.5 672,-302.5"/>
<text text-anchor="middle" x="743.5" y="-309.5" font-family="Helvetica,sans-Serif" font-size="10.00">include/graphics/Window.hpp</text>
</a>
</g>
</g>
<!-- Node1&#45;&gt;Node18 -->
<g id="edge29" class="edge">
<title>Node1&#45;&gt;Node18</title>
<path fill="none" stroke="midnightblue" d="M625.48,-463.92C647.87,-445.44 685.22,-412.32 710.5,-378 724.16,-359.46 735.08,-334.43 740.25,-321.51"/>
<polygon fill="midnightblue" stroke="midnightblue" points="623.24,-461.23 617.7,-470.26 627.66,-466.66 623.24,-461.23"/>
</g>
<!-- Node4 -->
<g id="node4" class="node">
<title>Node4</title>
<g id="a_node4"><a xlink:href="_g_shape_8cpp.html" target="_top" xlink:title=" ">
<polygon fill="white" stroke="black" points="393.5,-358.5 393.5,-377.5 519.5,-377.5 519.5,-358.5 393.5,-358.5"/>
<text text-anchor="middle" x="456.5" y="-365.5" font-family="Helvetica,sans-Serif" font-size="10.00">src/graphics/GShape.cpp</text>
</a>
</g>
</g>
<!-- Node3&#45;&gt;Node4 -->
<g id="edge3" class="edge">
<title>Node3&#45;&gt;Node4</title>
<path fill="none" stroke="midnightblue" d="M531.41,-409.45C512.95,-399.48 488.4,-386.23 472.53,-377.65"/>
<polygon fill="midnightblue" stroke="midnightblue" points="529.97,-412.65 540.43,-414.32 533.3,-406.49 529.97,-412.65"/>
</g>
<!-- Node5 -->
<g id="node5" class="node">
<title>Node5</title>
<g id="a_node5"><a xlink:href="_resource_manager_8hpp.html" target="_top" xlink:title=" ">
<polygon fill="white" stroke="black" points="438,-168.5 438,-198.5 569,-198.5 569,-168.5 438,-168.5"/>
<text text-anchor="start" x="446" y="-186.5" font-family="Helvetica,sans-Serif" font-size="10.00">include/graphics/Resource</text>
<text text-anchor="middle" x="503.5" y="-175.5" font-family="Helvetica,sans-Serif" font-size="10.00">Manager.hpp</text>
</a>
</g>
</g>
<!-- Node3&#45;&gt;Node5 -->
<g id="edge4" class="edge">
<title>Node3&#45;&gt;Node5</title>
<path fill="none" stroke="midnightblue" d="M482.53,-412.77C441.73,-405.44 396.87,-394.03 384.5,-378 335.94,-315.1 437.55,-231.34 483.01,-198.52"/>
<polygon fill="midnightblue" stroke="midnightblue" points="482.07,-416.24 492.52,-414.5 483.26,-409.34 482.07,-416.24"/>
</g>
<!-- Node12 -->
<g id="node12" class="node">
<title>Node12</title>
<g id="a_node12"><a xlink:href="_inventory_8hpp.html" target="_top" xlink:title=" ">
<polygon fill="white" stroke="black" points="296,-56.5 296,-75.5 425,-75.5 425,-56.5 296,-56.5"/>
<text text-anchor="middle" x="360.5" y="-63.5" font-family="Helvetica,sans-Serif" font-size="10.00">include/GUI/Inventory.hpp</text>
</a>
</g>
</g>
<!-- Node3&#45;&gt;Node12 -->
<g id="edge27" class="edge">
<title>Node3&#45;&gt;Node12</title>
<path fill="none" stroke="midnightblue" d="M492.64,-412.85C375.35,-393.33 137.5,-349.27 137.5,-313 137.5,-313 137.5,-313 137.5,-182.5 137.5,-150.05 133.03,-134.41 156.5,-112 176.34,-93.06 243.94,-80.79 295.95,-73.92"/>
<polygon fill="midnightblue" stroke="midnightblue" points="492.14,-416.31 502.58,-414.49 493.29,-409.41 492.14,-416.31"/>
</g>
<!-- Node3&#45;&gt;Node16 -->
<g id="edge17" class="edge">
<title>Node3&#45;&gt;Node16</title>
<path fill="none" stroke="midnightblue" d="M566.11,-406.14C574.14,-396.74 585.23,-385.4 594.1,-377.75"/>
<polygon fill="midnightblue" stroke="midnightblue" points="563.27,-404.09 559.76,-414.08 568.74,-408.46 563.27,-404.09"/>
</g>
<!-- Node6 -->
<g id="node6" class="node">
<title>Node6</title>
<g id="a_node6"><a xlink:href="_drawable_8cpp.html" target="_top" xlink:title=" ">
<polygon fill="white" stroke="black" points="166,-112.5 166,-131.5 289,-131.5 289,-112.5 166,-112.5"/>
<text text-anchor="middle" x="227.5" y="-119.5" font-family="Helvetica,sans-Serif" font-size="10.00">src/engine/Drawable.cpp</text>
</a>
</g>
</g>
<!-- Node5&#45;&gt;Node6 -->
<g id="edge5" class="edge">
<title>Node5&#45;&gt;Node6</title>
<path fill="none" stroke="midnightblue" d="M428.56,-166.34C376.41,-155.1 308.96,-140.56 266.96,-131.51"/>
<polygon fill="midnightblue" stroke="midnightblue" points="427.93,-169.79 438.44,-168.47 429.4,-162.95 427.93,-169.79"/>
</g>
<!-- Node7 -->
<g id="node7" class="node">
<title>Node7</title>
<g id="a_node7"><a xlink:href="_field_8cpp.html" target="_top" xlink:title=" ">
<polygon fill="white" stroke="black" points="307.5,-112.5 307.5,-131.5 411.5,-131.5 411.5,-112.5 307.5,-112.5"/>
<text text-anchor="middle" x="359.5" y="-119.5" font-family="Helvetica,sans-Serif" font-size="10.00">src/engine/Field.cpp</text>
</a>
</g>
</g>
<!-- Node5&#45;&gt;Node7 -->
<g id="edge6" class="edge">
<title>Node5&#45;&gt;Node7</title>
<path fill="none" stroke="midnightblue" d="M459.97,-164.52C433.62,-153.63 401.21,-140.23 380.45,-131.66"/>
<polygon fill="midnightblue" stroke="midnightblue" points="458.8,-167.82 469.37,-168.4 461.47,-161.35 458.8,-167.82"/>
</g>
<!-- Node8 -->
<g id="node8" class="node">
<title>Node8</title>
<g id="a_node8"><a xlink:href="_engine_8cpp.html" target="_top" xlink:title=" ">
<polygon fill="white" stroke="black" points="429.5,-112.5 429.5,-131.5 509.5,-131.5 509.5,-112.5 429.5,-112.5"/>
<text text-anchor="middle" x="469.5" y="-119.5" font-family="Helvetica,sans-Serif" font-size="10.00">src/Engine.cpp</text>
</a>
</g>
</g>
<!-- Node5&#45;&gt;Node8 -->
<g id="edge7" class="edge">
<title>Node5&#45;&gt;Node8</title>
<path fill="none" stroke="midnightblue" d="M490.36,-159.5C484.78,-149.74 478.62,-138.96 474.45,-131.66"/>
<polygon fill="midnightblue" stroke="midnightblue" points="487.44,-161.45 495.44,-168.4 493.52,-157.98 487.44,-161.45"/>
</g>
<!-- Node9 -->
<g id="node9" class="node">
<title>Node9</title>
<g id="a_node9"><a xlink:href="_event_handler_8cpp.html" target="_top" xlink:title=" ">
<polygon fill="white" stroke="black" points="792,-112.5 792,-131.5 963,-131.5 963,-112.5 792,-112.5"/>
<text text-anchor="middle" x="877.5" y="-119.5" font-family="Helvetica,sans-Serif" font-size="10.00">src/EventHandler/EventHandler.cpp</text>
</a>
</g>
</g>
<!-- Node5&#45;&gt;Node9 -->
<g id="edge8" class="edge">
<title>Node5&#45;&gt;Node9</title>
<path fill="none" stroke="midnightblue" d="M579.08,-170.48C651.7,-158.92 759.62,-141.75 823.83,-131.54"/>
<polygon fill="midnightblue" stroke="midnightblue" points="578.4,-167.04 569.07,-172.07 579.5,-173.95 578.4,-167.04"/>
</g>
<!-- Node10 -->
<g id="node10" class="node">
<title>Node10</title>
<g id="a_node10"><a xlink:href="_resource_manager_8cpp.html" target="_top" xlink:title=" ">
<polygon fill="white" stroke="black" points="565.5,-112.5 565.5,-131.5 735.5,-131.5 735.5,-112.5 565.5,-112.5"/>
<text text-anchor="middle" x="650.5" y="-119.5" font-family="Helvetica,sans-Serif" font-size="10.00">src/graphics/ResourceManager.cpp</text>
</a>
</g>
</g>
<!-- Node5&#45;&gt;Node10 -->
<g id="edge9" class="edge">
<title>Node5&#45;&gt;Node10</title>
<path fill="none" stroke="midnightblue" d="M547.93,-164.52C574.83,-153.63 607.92,-140.23 629.11,-131.66"/>
<polygon fill="midnightblue" stroke="midnightblue" points="546.29,-161.4 538.34,-168.4 548.92,-167.89 546.29,-161.4"/>
</g>
<!-- Node11 -->
<g id="node11" class="node">
<title>Node11</title>
<g id="a_node11"><a xlink:href="main_8cpp.html" target="_top" xlink:title=" ">
<polygon fill="white" stroke="black" points="581.5,-0.5 581.5,-19.5 653.5,-19.5 653.5,-0.5 581.5,-0.5"/>
<text text-anchor="middle" x="617.5" y="-7.5" font-family="Helvetica,sans-Serif" font-size="10.00">src/main.cpp</text>
</a>
</g>
</g>
<!-- Node5&#45;&gt;Node11 -->
<g id="edge10" class="edge">
<title>Node5&#45;&gt;Node11</title>
<path fill="none" stroke="midnightblue" d="M579.45,-176.85C642.1,-170.42 723.92,-157.34 744.5,-132 782.51,-85.19 685.75,-38.41 639.96,-19.61"/>
<polygon fill="midnightblue" stroke="midnightblue" points="578.78,-173.4 569.17,-177.86 579.47,-180.36 578.78,-173.4"/>
</g>
<!-- Node5&#45;&gt;Node12 -->
<g id="edge11" class="edge">
<title>Node5&#45;&gt;Node12</title>
<path fill="none" stroke="midnightblue" d="M517.15,-159.29C523.93,-144.45 528.71,-125.52 518.5,-112 505.91,-95.33 455.99,-83 415.58,-75.5"/>
<polygon fill="midnightblue" stroke="midnightblue" points="513.96,-157.85 512.55,-168.36 520.2,-161.02 513.96,-157.85"/>
</g>
<!-- Node14 -->
<g id="node14" class="node">
<title>Node14</title>
<g id="a_node14"><a xlink:href="_item_8hpp.html" target="_top" xlink:title=" ">
<polygon fill="white" stroke="black" points="0,-112.5 0,-131.5 109,-131.5 109,-112.5 0,-112.5"/>
<text text-anchor="middle" x="54.5" y="-119.5" font-family="Helvetica,sans-Serif" font-size="10.00">include/GUI/Item.hpp</text>
</a>
</g>
</g>
<!-- Node5&#45;&gt;Node14 -->
<g id="edge14" class="edge">
<title>Node5&#45;&gt;Node14</title>
<path fill="none" stroke="midnightblue" d="M427.56,-172.44C337.28,-160.47 188.84,-140.8 109.14,-130.24"/>
<polygon fill="midnightblue" stroke="midnightblue" points="427.36,-175.94 437.73,-173.78 428.28,-169 427.36,-175.94"/>
</g>
<!-- Node12&#45;&gt;Node11 -->
<g id="edge13" class="edge">
<title>Node12&#45;&gt;Node11</title>
<path fill="none" stroke="midnightblue" d="M411.2,-54.35C461.3,-43.82 536.7,-27.98 581.12,-18.64"/>
<polygon fill="midnightblue" stroke="midnightblue" points="410.29,-50.96 401.22,-56.44 411.73,-57.81 410.29,-50.96"/>
</g>
<!-- Node13 -->
<g id="node13" class="node">
<title>Node13</title>
<g id="a_node13"><a xlink:href="_inventory_8cpp.html" target="_top" xlink:title=" ">
<polygon fill="white" stroke="black" points="304.5,-0.5 304.5,-19.5 416.5,-19.5 416.5,-0.5 304.5,-0.5"/>
<text text-anchor="middle" x="360.5" y="-7.5" font-family="Helvetica,sans-Serif" font-size="10.00">src/GUI/Inventory.cpp</text>
</a>
</g>
</g>
<!-- Node12&#45;&gt;Node13 -->
<g id="edge12" class="edge">
<title>Node12&#45;&gt;Node13</title>
<path fill="none" stroke="midnightblue" d="M360.5,-45.8C360.5,-36.91 360.5,-26.78 360.5,-19.75"/>
<polygon fill="midnightblue" stroke="midnightblue" points="357,-46.08 360.5,-56.08 364,-46.08 357,-46.08"/>
</g>
<!-- Node14&#45;&gt;Node12 -->
<g id="edge16" class="edge">
<title>Node14&#45;&gt;Node12</title>
<path fill="none" stroke="midnightblue" d="M113.07,-110.66C170.9,-100.46 258.28,-85.04 312.24,-75.52"/>
<polygon fill="midnightblue" stroke="midnightblue" points="112.23,-107.26 102.99,-112.44 113.44,-114.15 112.23,-107.26"/>
</g>
<!-- Node15 -->
<g id="node15" class="node">
<title>Node15</title>
<g id="a_node15"><a xlink:href="_item_8cpp.html" target="_top" xlink:title=" ">
<polygon fill="white" stroke="black" points="8.5,-56.5 8.5,-75.5 100.5,-75.5 100.5,-56.5 8.5,-56.5"/>
<text text-anchor="middle" x="54.5" y="-63.5" font-family="Helvetica,sans-Serif" font-size="10.00">src/GUI/Item.cpp</text>
</a>
</g>
</g>
<!-- Node14&#45;&gt;Node15 -->
<g id="edge15" class="edge">
<title>Node14&#45;&gt;Node15</title>
<path fill="none" stroke="midnightblue" d="M54.5,-101.8C54.5,-92.91 54.5,-82.78 54.5,-75.75"/>
<polygon fill="midnightblue" stroke="midnightblue" points="51,-102.08 54.5,-112.08 58,-102.08 51,-102.08"/>
</g>
<!-- Node16&#45;&gt;Node3 -->
<g id="edge19" class="edge">
<title>Node16&#45;&gt;Node3</title>
<path fill="none" stroke="midnightblue" d="M597.94,-385.8C589.88,-395.25 578.71,-406.65 569.81,-414.32"/>
<polygon fill="midnightblue" stroke="midnightblue" points="600.79,-387.83 604.31,-377.83 595.33,-383.46 600.79,-387.83"/>
</g>
<!-- Node16&#45;&gt;Node5 -->
<g id="edge20" class="edge">
<title>Node16&#45;&gt;Node5</title>
<path fill="none" stroke="midnightblue" d="M566.89,-354.69C550.57,-347.7 533.14,-337.21 522.5,-322 495.97,-284.09 498.55,-225.7 501.49,-198.88"/>
<polygon fill="midnightblue" stroke="midnightblue" points="565.72,-357.99 576.31,-358.42 568.3,-351.48 565.72,-357.99"/>
</g>
<!-- Node17 -->
<g id="node17" class="node">
<title>Node17</title>
<g id="a_node17"><a xlink:href="_shader_8cpp.html" target="_top" xlink:title=" ">
<polygon fill="white" stroke="black" points="531.5,-302.5 531.5,-321.5 653.5,-321.5 653.5,-302.5 531.5,-302.5"/>
<text text-anchor="middle" x="592.5" y="-309.5" font-family="Helvetica,sans-Serif" font-size="10.00">src/graphics/Shader.cpp</text>
</a>
</g>
</g>
<!-- Node16&#45;&gt;Node17 -->
<g id="edge18" class="edge">
<title>Node16&#45;&gt;Node17</title>
<path fill="none" stroke="midnightblue" d="M602.33,-348.4C599.82,-339.36 596.93,-328.94 594.93,-321.75"/>
<polygon fill="midnightblue" stroke="midnightblue" points="598.97,-349.38 605.02,-358.08 605.72,-347.51 598.97,-349.38"/>
</g>
<!-- Node16&#45;&gt;Node18 -->
<g id="edge21" class="edge">
<title>Node16&#45;&gt;Node18</title>
<path fill="none" stroke="midnightblue" d="M638.63,-354.64C664.16,-344.5 699.61,-330.43 722.05,-321.52"/>
<polygon fill="midnightblue" stroke="midnightblue" points="637.05,-351.5 629.05,-358.44 639.64,-358.01 637.05,-351.5"/>
</g>
<!-- Node18&#45;&gt;Node3 -->
<g id="edge26" class="edge">
<title>Node18&#45;&gt;Node3</title>
<path fill="none" stroke="midnightblue" d="M732.08,-330.47C721.74,-345.03 705.3,-365.36 686.5,-378 659.65,-396.06 624.8,-407.61 597.94,-414.48"/>
<polygon fill="midnightblue" stroke="midnightblue" points="735.2,-332.11 737.95,-321.88 729.42,-328.16 735.2,-332.11"/>
</g>
<!-- Node19 -->
<g id="node19" class="node">
<title>Node19</title>
<g id="a_node19"><a xlink:href="_window_8cpp.html" target="_top" xlink:title=" ">
<polygon fill="white" stroke="black" points="579,-241 579,-260 704,-260 704,-241 579,-241"/>
<text text-anchor="middle" x="641.5" y="-248" font-family="Helvetica,sans-Serif" font-size="10.00">src/graphics/Window.cpp</text>
</a>
</g>
</g>
<!-- Node18&#45;&gt;Node19 -->
<g id="edge22" class="edge">
<title>Node18&#45;&gt;Node19</title>
<path fill="none" stroke="midnightblue" d="M720.19,-297.4C700.46,-285.9 672.81,-269.77 656.09,-260.01"/>
<polygon fill="midnightblue" stroke="midnightblue" points="718.48,-300.46 728.89,-302.48 722.01,-294.41 718.48,-300.46"/>
</g>
<!-- Node20 -->
<g id="node20" class="node">
<title>Node20</title>
<g id="a_node20"><a xlink:href="_event_handler_8hpp.html" target="_top" xlink:title=" ">
<polygon fill="white" stroke="black" points="722,-235.5 722,-265.5 831,-265.5 831,-235.5 722,-235.5"/>
<text text-anchor="start" x="730" y="-253.5" font-family="Helvetica,sans-Serif" font-size="10.00">include/EventHandler</text>
<text text-anchor="middle" x="776.5" y="-242.5" font-family="Helvetica,sans-Serif" font-size="10.00">/EventHandler.hpp</text>
</a>
</g>
</g>
<!-- Node18&#45;&gt;Node20 -->
<g id="edge23" class="edge">
<title>Node18&#45;&gt;Node20</title>
<path fill="none" stroke="midnightblue" d="M753.11,-293.68C758.07,-284.73 764.05,-273.94 768.72,-265.52"/>
<polygon fill="midnightblue" stroke="midnightblue" points="750.02,-292.03 748.23,-302.48 756.14,-295.43 750.02,-292.03"/>
</g>
<!-- Node20&#45;&gt;Node5 -->
<g id="edge25" class="edge">
<title>Node20&#45;&gt;Node5</title>
<path fill="none" stroke="midnightblue" d="M711.92,-234.12C666.69,-223.35 606.72,-209.08 562.73,-198.6"/>
<polygon fill="midnightblue" stroke="midnightblue" points="711.37,-237.59 721.91,-236.5 712.99,-230.78 711.37,-237.59"/>
</g>
<!-- Node20&#45;&gt;Node9 -->
<g id="edge24" class="edge">
<title>Node20&#45;&gt;Node9</title>
<path fill="none" stroke="midnightblue" d="M794.17,-227.37C816.77,-199.06 854.85,-151.37 870.48,-131.79"/>
<polygon fill="midnightblue" stroke="midnightblue" points="791.2,-225.48 787.69,-235.48 796.67,-229.85 791.2,-225.48"/>
</g>
</g>
</svg>
