<?xml version="1.0" encoding="UTF-8" standalone="no"?>
<!DOCTYPE svg PUBLIC "-//W3C//DTD SVG 1.1//EN"
 "http://www.w3.org/Graphics/SVG/1.1/DTD/svg11.dtd">
<!-- Generated by graphviz version 2.47.0 (20210407.0042)
 -->
<!-- Title: src/engine/objects/UnitGroup.cpp Pages: 1 -->
<svg width="511pt" height="543pt"
 viewBox="0.00 0.00 510.50 543.00" xmlns="http://www.w3.org/2000/svg" xmlns:xlink="http://www.w3.org/1999/xlink">
<g id="graph0" class="graph" transform="scale(1 1) rotate(0) translate(4 539)">
<title>src/engine/objects/UnitGroup.cpp</title>
<polygon fill="white" stroke="transparent" points="-4,4 -4,-539 506.5,-539 506.5,4 -4,4"/>
<!-- Node1 -->
<g id="node1" class="node">
<title>Node1</title>
<g id="a_node1"><a xlink:title=" ">
<polygon fill="#bfbfbf" stroke="black" points="372.5,-504.5 372.5,-534.5 468.5,-534.5 468.5,-504.5 372.5,-504.5"/>
<text text-anchor="start" x="380.5" y="-522.5" font-family="Helvetica,sans-Serif" font-size="10.00">src/engine/objects</text>
<text text-anchor="middle" x="420.5" y="-511.5" font-family="Helvetica,sans-Serif" font-size="10.00">/UnitGroup.cpp</text>
</a>
</g>
</g>
<!-- Node2 -->
<g id="node2" class="node">
<title>Node2</title>
<g id="a_node2"><a xlink:href="_unit_group_8hpp.html" target="_top" xlink:title=" ">
<polygon fill="white" stroke="black" points="247,-448.5 247,-467.5 392,-467.5 392,-448.5 247,-448.5"/>
<text text-anchor="middle" x="319.5" y="-455.5" font-family="Helvetica,sans-Serif" font-size="10.00">engine/objects/UnitGroup.hpp</text>
</a>
</g>
</g>
<!-- Node1&#45;&gt;Node2 -->
<g id="edge1" class="edge">
<title>Node1&#45;&gt;Node2</title>
<path fill="none" stroke="midnightblue" d="M396.56,-504.4C380.37,-494.86 359.09,-482.32 343,-472.84"/>
<polygon fill="midnightblue" stroke="midnightblue" points="344.59,-469.72 334.2,-467.66 341.04,-475.75 344.59,-469.72"/>
</g>
<!-- Node7 -->
<g id="node7" class="node">
<title>Node7</title>
<g id="a_node7"><a xlink:title=" ">
<polygon fill="white" stroke="#bfbfbf" points="386.5,-0.5 386.5,-19.5 430.5,-19.5 430.5,-0.5 386.5,-0.5"/>
<text text-anchor="middle" x="408.5" y="-7.5" font-family="Helvetica,sans-Serif" font-size="10.00">cmath</text>
</a>
</g>
</g>
<!-- Node1&#45;&gt;Node7 -->
<g id="edge24" class="edge">
<title>Node1&#45;&gt;Node7</title>
<path fill="none" stroke="midnightblue" d="M420.5,-504.28C420.5,-482.48 420.5,-439.49 420.5,-403 420.5,-403 420.5,-403 420.5,-121 420.5,-88.76 415.34,-51.51 411.79,-29.68"/>
<polygon fill="midnightblue" stroke="midnightblue" points="415.19,-28.8 410.07,-19.52 408.29,-29.97 415.19,-28.8"/>
</g>
<!-- Node18 -->
<g id="node18" class="node">
<title>Node18</title>
<g id="a_node18"><a xlink:title=" ">
<polygon fill="white" stroke="#bfbfbf" points="448.5,-448.5 448.5,-467.5 502.5,-467.5 502.5,-448.5 448.5,-448.5"/>
<text text-anchor="middle" x="475.5" y="-455.5" font-family="Helvetica,sans-Serif" font-size="10.00">iostream</text>
</a>
</g>
</g>
<!-- Node1&#45;&gt;Node18 -->
<g id="edge23" class="edge">
<title>Node1&#45;&gt;Node18</title>
<path fill="none" stroke="midnightblue" d="M433.53,-504.4C441.69,-495.58 452.22,-484.18 460.69,-475.02"/>
<polygon fill="midnightblue" stroke="midnightblue" points="463.28,-477.38 467.5,-467.66 458.14,-472.63 463.28,-477.38"/>
</g>
<!-- Node3 -->
<g id="node3" class="node">
<title>Node3</title>
<g id="a_node3"><a xlink:href="_unit_8hpp.html" target="_top" xlink:title=" ">
<polygon fill="white" stroke="black" points="301,-392.5 301,-411.5 354,-411.5 354,-392.5 301,-392.5"/>
<text text-anchor="middle" x="327.5" y="-399.5" font-family="Helvetica,sans-Serif" font-size="10.00">Unit.hpp</text>
</a>
</g>
</g>
<!-- Node2&#45;&gt;Node3 -->
<g id="edge2" class="edge">
<title>Node2&#45;&gt;Node3</title>
<path fill="none" stroke="midnightblue" d="M320.82,-448.08C321.88,-440.93 323.41,-430.64 324.73,-421.69"/>
<polygon fill="midnightblue" stroke="midnightblue" points="328.2,-422.16 326.2,-411.75 321.28,-421.13 328.2,-422.16"/>
</g>
<!-- Node17 -->
<g id="node17" class="node">
<title>Node17</title>
<g id="a_node17"><a xlink:title=" ">
<polygon fill="white" stroke="#bfbfbf" points="254,-392.5 254,-411.5 283,-411.5 283,-392.5 254,-392.5"/>
<text text-anchor="middle" x="268.5" y="-399.5" font-family="Helvetica,sans-Serif" font-size="10.00">list</text>
</a>
</g>
</g>
<!-- Node2&#45;&gt;Node17 -->
<g id="edge22" class="edge">
<title>Node2&#45;&gt;Node17</title>
<path fill="none" stroke="midnightblue" d="M311.08,-448.08C303.65,-440.22 292.65,-428.57 283.69,-419.08"/>
<polygon fill="midnightblue" stroke="midnightblue" points="286.18,-416.62 276.76,-411.75 281.09,-421.42 286.18,-416.62"/>
</g>
<!-- Node4 -->
<g id="node4" class="node">
<title>Node4</title>
<g id="a_node4"><a xlink:href="_world_actor_8hpp.html" target="_top" xlink:title=" ">
<polygon fill="white" stroke="black" points="270.5,-336.5 270.5,-355.5 384.5,-355.5 384.5,-336.5 270.5,-336.5"/>
<text text-anchor="middle" x="327.5" y="-343.5" font-family="Helvetica,sans-Serif" font-size="10.00">engine/WorldActor.hpp</text>
</a>
</g>
</g>
<!-- Node3&#45;&gt;Node4 -->
<g id="edge3" class="edge">
<title>Node3&#45;&gt;Node4</title>
<path fill="none" stroke="midnightblue" d="M327.5,-392.08C327.5,-385.01 327.5,-374.86 327.5,-365.99"/>
<polygon fill="midnightblue" stroke="midnightblue" points="331,-365.75 327.5,-355.75 324,-365.75 331,-365.75"/>
</g>
<!-- Node5 -->
<g id="node5" class="node">
<title>Node5</title>
<g id="a_node5"><a xlink:href="_vector2_d_8hpp.html" target="_top" xlink:title=" ">
<polygon fill="white" stroke="black" points="280.5,-56.5 280.5,-75.5 392.5,-75.5 392.5,-56.5 280.5,-56.5"/>
<text text-anchor="middle" x="336.5" y="-63.5" font-family="Helvetica,sans-Serif" font-size="10.00">Helpers/Vector2D.hpp</text>
</a>
</g>
</g>
<!-- Node4&#45;&gt;Node5 -->
<g id="edge4" class="edge">
<title>Node4&#45;&gt;Node5</title>
<path fill="none" stroke="midnightblue" d="M334.04,-336.41C346.95,-318.56 374.5,-275.7 374.5,-235 374.5,-235 374.5,-235 374.5,-177 374.5,-142.81 357.9,-105.76 346.64,-84.57"/>
<polygon fill="midnightblue" stroke="midnightblue" points="349.68,-82.83 341.78,-75.77 343.55,-86.22 349.68,-82.83"/>
</g>
<!-- Node8 -->
<g id="node8" class="node">
<title>Node8</title>
<g id="a_node8"><a xlink:href="_field_8hpp.html" target="_top" xlink:title=" ">
<polygon fill="white" stroke="black" points="290.5,-280.5 290.5,-299.5 346.5,-299.5 346.5,-280.5 290.5,-280.5"/>
<text text-anchor="middle" x="318.5" y="-287.5" font-family="Helvetica,sans-Serif" font-size="10.00">Field.hpp</text>
</a>
</g>
</g>
<!-- Node4&#45;&gt;Node8 -->
<g id="edge7" class="edge">
<title>Node4&#45;&gt;Node8</title>
<path fill="none" stroke="midnightblue" d="M326.01,-336.08C324.82,-328.93 323.11,-318.64 321.62,-309.69"/>
<polygon fill="midnightblue" stroke="midnightblue" points="325.05,-309.04 319.96,-299.75 318.15,-310.19 325.05,-309.04"/>
</g>
<!-- Node6 -->
<g id="node6" class="node">
<title>Node6</title>
<g id="a_node6"><a xlink:title=" ">
<polygon fill="white" stroke="#bfbfbf" points="317,-0.5 317,-19.5 356,-19.5 356,-0.5 317,-0.5"/>
<text text-anchor="middle" x="336.5" y="-7.5" font-family="Helvetica,sans-Serif" font-size="10.00">utility</text>
</a>
</g>
</g>
<!-- Node5&#45;&gt;Node6 -->
<g id="edge5" class="edge">
<title>Node5&#45;&gt;Node6</title>
<path fill="none" stroke="midnightblue" d="M336.5,-56.08C336.5,-49.01 336.5,-38.86 336.5,-29.99"/>
<polygon fill="midnightblue" stroke="midnightblue" points="340,-29.75 336.5,-19.75 333,-29.75 340,-29.75"/>
</g>
<!-- Node5&#45;&gt;Node7 -->
<g id="edge6" class="edge">
<title>Node5&#45;&gt;Node7</title>
<path fill="none" stroke="midnightblue" d="M348.07,-56.32C358.92,-48.18 375.38,-35.84 388.38,-26.09"/>
<polygon fill="midnightblue" stroke="midnightblue" points="390.82,-28.63 396.72,-19.83 386.62,-23.03 390.82,-28.63"/>
</g>
<!-- Node8&#45;&gt;Node5 -->
<g id="edge21" class="edge">
<title>Node8&#45;&gt;Node5</title>
<path fill="none" stroke="midnightblue" d="M319.21,-280.3C321.85,-247.63 331.24,-131.87 334.96,-85.96"/>
<polygon fill="midnightblue" stroke="midnightblue" points="338.46,-86.13 335.78,-75.88 331.48,-85.57 338.46,-86.13"/>
</g>
<!-- Node9 -->
<g id="node9" class="node">
<title>Node9</title>
<g id="a_node9"><a xlink:href="_cell_8hpp.html" target="_top" xlink:title=" ">
<polygon fill="white" stroke="black" points="147,-224.5 147,-243.5 264,-243.5 264,-224.5 147,-224.5"/>
<text text-anchor="middle" x="205.5" y="-231.5" font-family="Helvetica,sans-Serif" font-size="10.00">engine/objects/Cell.hpp</text>
</a>
</g>
</g>
<!-- Node8&#45;&gt;Node9 -->
<g id="edge8" class="edge">
<title>Node8&#45;&gt;Node9</title>
<path fill="none" stroke="midnightblue" d="M300.59,-280.44C282.25,-271.68 253.49,-257.94 232.41,-247.86"/>
<polygon fill="midnightblue" stroke="midnightblue" points="233.85,-244.67 223.32,-243.52 230.83,-250.99 233.85,-244.67"/>
</g>
<!-- Node10 -->
<g id="node10" class="node">
<title>Node10</title>
<g id="a_node10"><a xlink:href="_drawable_8hpp.html" target="_top" xlink:title=" ">
<polygon fill="white" stroke="black" points="0,-112.5 0,-131.5 107,-131.5 107,-112.5 0,-112.5"/>
<text text-anchor="middle" x="53.5" y="-119.5" font-family="Helvetica,sans-Serif" font-size="10.00">engine/Drawable.hpp</text>
</a>
</g>
</g>
<!-- Node9&#45;&gt;Node10 -->
<g id="edge9" class="edge">
<title>Node9&#45;&gt;Node10</title>
<path fill="none" stroke="midnightblue" d="M148.89,-224.44C108.13,-216.98 58.18,-204.73 45.5,-188 35.33,-174.58 39.6,-154.94 45.01,-140.77"/>
<polygon fill="midnightblue" stroke="midnightblue" points="48.23,-142.14 48.96,-131.58 41.8,-139.38 48.23,-142.14"/>
</g>
<!-- Node12 -->
<g id="node12" class="node">
<title>Node12</title>
<g id="a_node12"><a xlink:href="_tickable_8hpp.html" target="_top" xlink:title=" ">
<polygon fill="white" stroke="black" points="125,-112.5 125,-131.5 228,-131.5 228,-112.5 125,-112.5"/>
<text text-anchor="middle" x="176.5" y="-119.5" font-family="Helvetica,sans-Serif" font-size="10.00">engine/Tickable.hpp</text>
</a>
</g>
</g>
<!-- Node9&#45;&gt;Node12 -->
<g id="edge12" class="edge">
<title>Node9&#45;&gt;Node12</title>
<path fill="none" stroke="midnightblue" d="M210.02,-224.31C216,-211.57 224.96,-187.26 217.5,-168 213.05,-156.5 204.13,-146.13 195.75,-138.25"/>
<polygon fill="midnightblue" stroke="midnightblue" points="197.87,-135.46 188.04,-131.51 193.26,-140.73 197.87,-135.46"/>
</g>
<!-- Node13 -->
<g id="node13" class="node">
<title>Node13</title>
<g id="a_node13"><a xlink:title=" ">
<polygon fill="white" stroke="#bfbfbf" points="264.5,-168.5 264.5,-187.5 308.5,-187.5 308.5,-168.5 264.5,-168.5"/>
<text text-anchor="middle" x="286.5" y="-175.5" font-family="Helvetica,sans-Serif" font-size="10.00">vector</text>
</a>
</g>
</g>
<!-- Node9&#45;&gt;Node13 -->
<g id="edge13" class="edge">
<title>Node9&#45;&gt;Node13</title>
<path fill="none" stroke="midnightblue" d="M218.51,-224.32C231.03,-215.98 250.18,-203.21 264.97,-193.35"/>
<polygon fill="midnightblue" stroke="midnightblue" points="267.14,-196.11 273.52,-187.65 263.26,-190.29 267.14,-196.11"/>
</g>
<!-- Node14 -->
<g id="node14" class="node">
<title>Node14</title>
<g id="a_node14"><a xlink:href="_ground_8hpp.html" target="_top" xlink:title=" ">
<polygon fill="white" stroke="black" points="54.5,-168.5 54.5,-187.5 120.5,-187.5 120.5,-168.5 54.5,-168.5"/>
<text text-anchor="middle" x="87.5" y="-175.5" font-family="Helvetica,sans-Serif" font-size="10.00">Ground.hpp</text>
</a>
</g>
</g>
<!-- Node9&#45;&gt;Node14 -->
<g id="edge14" class="edge">
<title>Node9&#45;&gt;Node14</title>
<path fill="none" stroke="midnightblue" d="M186.8,-224.44C167.56,-215.64 137.35,-201.81 115.3,-191.72"/>
<polygon fill="midnightblue" stroke="midnightblue" points="116.66,-188.5 106.11,-187.52 113.75,-194.86 116.66,-188.5"/>
</g>
<!-- Node15 -->
<g id="node15" class="node">
<title>Node15</title>
<g id="a_node15"><a xlink:href="_building_8hpp.html" target="_top" xlink:title=" ">
<polygon fill="white" stroke="black" points="139,-168.5 139,-187.5 208,-187.5 208,-168.5 139,-168.5"/>
<text text-anchor="middle" x="173.5" y="-175.5" font-family="Helvetica,sans-Serif" font-size="10.00">Building.hpp</text>
</a>
</g>
</g>
<!-- Node9&#45;&gt;Node15 -->
<g id="edge17" class="edge">
<title>Node9&#45;&gt;Node15</title>
<path fill="none" stroke="midnightblue" d="M200.22,-224.08C195.79,-216.61 189.34,-205.72 183.88,-196.52"/>
<polygon fill="midnightblue" stroke="midnightblue" points="186.79,-194.57 178.69,-187.75 180.77,-198.14 186.79,-194.57"/>
</g>
<!-- Node10&#45;&gt;Node5 -->
<g id="edge11" class="edge">
<title>Node10&#45;&gt;Node5</title>
<path fill="none" stroke="midnightblue" d="M98.34,-112.44C148.12,-102.94 228.48,-87.61 281.89,-77.42"/>
<polygon fill="midnightblue" stroke="midnightblue" points="282.7,-80.83 291.87,-75.52 281.39,-73.95 282.7,-80.83"/>
</g>
<!-- Node11 -->
<g id="node11" class="node">
<title>Node11</title>
<g id="a_node11"><a xlink:title=" ">
<polygon fill="white" stroke="#bfbfbf" points="20.5,-56.5 20.5,-75.5 86.5,-75.5 86.5,-56.5 20.5,-56.5"/>
<text text-anchor="middle" x="53.5" y="-63.5" font-family="Helvetica,sans-Serif" font-size="10.00">string_view</text>
</a>
</g>
</g>
<!-- Node10&#45;&gt;Node11 -->
<g id="edge10" class="edge">
<title>Node10&#45;&gt;Node11</title>
<path fill="none" stroke="midnightblue" d="M53.5,-112.08C53.5,-105.01 53.5,-94.86 53.5,-85.99"/>
<polygon fill="midnightblue" stroke="midnightblue" points="57,-85.75 53.5,-75.75 50,-85.75 57,-85.75"/>
</g>
<!-- Node14&#45;&gt;Node10 -->
<g id="edge15" class="edge">
<title>Node14&#45;&gt;Node10</title>
<path fill="none" stroke="midnightblue" d="M81.89,-168.08C77.13,-160.53 70.18,-149.49 64.35,-140.23"/>
<polygon fill="midnightblue" stroke="midnightblue" points="67.3,-138.35 59.01,-131.75 61.38,-142.08 67.3,-138.35"/>
</g>
<!-- Node14&#45;&gt;Node12 -->
<g id="edge16" class="edge">
<title>Node14&#45;&gt;Node12</title>
<path fill="none" stroke="midnightblue" d="M101.8,-168.32C115.68,-159.9 136.99,-146.97 153.3,-137.07"/>
<polygon fill="midnightblue" stroke="midnightblue" points="155.5,-139.83 162.24,-131.65 151.87,-133.85 155.5,-139.83"/>
</g>
<!-- Node15&#45;&gt;Node10 -->
<g id="edge18" class="edge">
<title>Node15&#45;&gt;Node10</title>
<path fill="none" stroke="midnightblue" d="M154.49,-168.44C134.91,-159.64 104.19,-145.81 81.77,-135.72"/>
<polygon fill="midnightblue" stroke="midnightblue" points="82.98,-132.43 72.43,-131.52 80.11,-138.81 82.98,-132.43"/>
</g>
<!-- Node15&#45;&gt;Node12 -->
<g id="edge19" class="edge">
<title>Node15&#45;&gt;Node12</title>
<path fill="none" stroke="midnightblue" d="M174,-168.08C174.39,-161.01 174.95,-150.86 175.45,-141.99"/>
<polygon fill="midnightblue" stroke="midnightblue" points="178.95,-141.93 176.01,-131.75 171.96,-141.54 178.95,-141.93"/>
</g>
<!-- Node16 -->
<g id="node16" class="node">
<title>Node16</title>
<g id="a_node16"><a xlink:title=" ">
<polygon fill="white" stroke="#bfbfbf" points="246,-112.5 246,-131.5 305,-131.5 305,-112.5 246,-112.5"/>
<text text-anchor="middle" x="275.5" y="-119.5" font-family="Helvetica,sans-Serif" font-size="10.00">functional</text>
</a>
</g>
</g>
<!-- Node15&#45;&gt;Node16 -->
<g id="edge20" class="edge">
<title>Node15&#45;&gt;Node16</title>
<path fill="none" stroke="midnightblue" d="M189.89,-168.32C206.17,-159.7 231.37,-146.36 250.22,-136.39"/>
<polygon fill="midnightblue" stroke="midnightblue" points="251.95,-139.43 259.15,-131.65 248.68,-133.24 251.95,-139.43"/>
</g>
</g>
</svg>
