<?xml version="1.0" encoding="UTF-8" standalone="no"?>
<!DOCTYPE svg PUBLIC "-//W3C//DTD SVG 1.1//EN"
 "http://www.w3.org/Graphics/SVG/1.1/DTD/svg11.dtd">
<!-- Generated by graphviz version 2.47.0 (20210407.0042)
 -->
<!-- Title: src/engine/objects/Unit.cpp Pages: 1 -->
<svg width="445pt" height="431pt"
 viewBox="0.00 0.00 445.29 431.00" xmlns="http://www.w3.org/2000/svg" xmlns:xlink="http://www.w3.org/1999/xlink">
<g id="graph0" class="graph" transform="scale(1 1) rotate(0) translate(4 427)">
<title>src/engine/objects/Unit.cpp</title>
<polygon fill="white" stroke="transparent" points="-4,4 -4,-427 441.29,-427 441.29,4 -4,4"/>
<!-- Node1 -->
<g id="node1" class="node">
<title>Node1</title>
<g id="a_node1"><a xlink:title=" ">
<polygon fill="#bfbfbf" stroke="black" points="257.29,-392.5 257.29,-422.5 353.29,-422.5 353.29,-392.5 257.29,-392.5"/>
<text text-anchor="start" x="265.29" y="-410.5" font-family="Helvetica,sans-Serif" font-size="10.00">src/engine/objects</text>
<text text-anchor="middle" x="305.29" y="-399.5" font-family="Helvetica,sans-Serif" font-size="10.00">/Unit.cpp</text>
</a>
</g>
</g>
<!-- Node2 -->
<g id="node2" class="node">
<title>Node2</title>
<g id="a_node2"><a xlink:href="_timer_8hpp.html" target="_top" xlink:title=" ">
<polygon fill="white" stroke="black" points="168.79,-336.5 168.79,-355.5 227.79,-355.5 227.79,-336.5 168.79,-336.5"/>
<text text-anchor="middle" x="198.29" y="-343.5" font-family="Helvetica,sans-Serif" font-size="10.00">Timer.hpp</text>
</a>
</g>
</g>
<!-- Node1&#45;&gt;Node2 -->
<g id="edge1" class="edge">
<title>Node1&#45;&gt;Node2</title>
<path fill="none" stroke="midnightblue" d="M279.93,-392.4C262.62,-382.77 239.81,-370.09 222.71,-360.58"/>
<polygon fill="midnightblue" stroke="midnightblue" points="224.3,-357.46 213.86,-355.66 220.9,-363.58 224.3,-357.46"/>
</g>
<!-- Node4 -->
<g id="node4" class="node">
<title>Node4</title>
<g id="a_node4"><a xlink:href="_unit_8hpp.html" target="_top" xlink:title=" ">
<polygon fill="white" stroke="black" points="245.79,-336.5 245.79,-355.5 364.79,-355.5 364.79,-336.5 245.79,-336.5"/>
<text text-anchor="middle" x="305.29" y="-343.5" font-family="Helvetica,sans-Serif" font-size="10.00">engine/objects/Unit.hpp</text>
</a>
</g>
</g>
<!-- Node1&#45;&gt;Node4 -->
<g id="edge3" class="edge">
<title>Node1&#45;&gt;Node4</title>
<path fill="none" stroke="midnightblue" d="M305.29,-392.4C305.29,-384.47 305.29,-374.46 305.29,-365.86"/>
<polygon fill="midnightblue" stroke="midnightblue" points="308.79,-365.66 305.29,-355.66 301.79,-365.66 308.79,-365.66"/>
</g>
<!-- Node15 -->
<g id="node15" class="node">
<title>Node15</title>
<g id="a_node15"><a xlink:title=" ">
<polygon fill="white" stroke="#bfbfbf" points="383.29,-336.5 383.29,-355.5 437.29,-355.5 437.29,-336.5 383.29,-336.5"/>
<text text-anchor="middle" x="410.29" y="-343.5" font-family="Helvetica,sans-Serif" font-size="10.00">iostream</text>
</a>
</g>
</g>
<!-- Node1&#45;&gt;Node15 -->
<g id="edge20" class="edge">
<title>Node1&#45;&gt;Node15</title>
<path fill="none" stroke="midnightblue" d="M330.17,-392.4C347,-382.86 369.13,-370.32 385.86,-360.84"/>
<polygon fill="midnightblue" stroke="midnightblue" points="388.04,-363.63 395.01,-355.66 384.59,-357.54 388.04,-363.63"/>
</g>
<!-- Node3 -->
<g id="node3" class="node">
<title>Node3</title>
<g id="a_node3"><a xlink:title=" ">
<polygon fill="white" stroke="#bfbfbf" points="175.29,-280.5 175.29,-299.5 221.29,-299.5 221.29,-280.5 175.29,-280.5"/>
<text text-anchor="middle" x="198.29" y="-287.5" font-family="Helvetica,sans-Serif" font-size="10.00">cstdint</text>
</a>
</g>
</g>
<!-- Node2&#45;&gt;Node3 -->
<g id="edge2" class="edge">
<title>Node2&#45;&gt;Node3</title>
<path fill="none" stroke="midnightblue" d="M198.29,-336.08C198.29,-329.01 198.29,-318.86 198.29,-309.99"/>
<polygon fill="midnightblue" stroke="midnightblue" points="201.79,-309.75 198.29,-299.75 194.79,-309.75 201.79,-309.75"/>
</g>
<!-- Node5 -->
<g id="node5" class="node">
<title>Node5</title>
<g id="a_node5"><a xlink:href="_world_actor_8hpp.html" target="_top" xlink:title=" ">
<polygon fill="white" stroke="black" points="248.29,-280.5 248.29,-299.5 362.29,-299.5 362.29,-280.5 248.29,-280.5"/>
<text text-anchor="middle" x="305.29" y="-287.5" font-family="Helvetica,sans-Serif" font-size="10.00">engine/WorldActor.hpp</text>
</a>
</g>
</g>
<!-- Node4&#45;&gt;Node5 -->
<g id="edge4" class="edge">
<title>Node4&#45;&gt;Node5</title>
<path fill="none" stroke="midnightblue" d="M305.29,-336.08C305.29,-329.01 305.29,-318.86 305.29,-309.99"/>
<polygon fill="midnightblue" stroke="midnightblue" points="308.79,-309.75 305.29,-299.75 301.79,-309.75 308.79,-309.75"/>
</g>
<!-- Node6 -->
<g id="node6" class="node">
<title>Node6</title>
<g id="a_node6"><a xlink:href="_vector2_d_8hpp.html" target="_top" xlink:title=" ">
<polygon fill="white" stroke="black" points="239.29,-0.5 239.29,-19.5 351.29,-19.5 351.29,-0.5 239.29,-0.5"/>
<text text-anchor="middle" x="295.29" y="-7.5" font-family="Helvetica,sans-Serif" font-size="10.00">Helpers/Vector2D.hpp</text>
</a>
</g>
</g>
<!-- Node5&#45;&gt;Node6 -->
<g id="edge5" class="edge">
<title>Node5&#45;&gt;Node6</title>
<path fill="none" stroke="midnightblue" d="M309.07,-280.35C316.71,-262.03 333.29,-217.82 333.29,-179 333.29,-179 333.29,-179 333.29,-121 333.29,-86.81 316.69,-49.76 305.43,-28.57"/>
<polygon fill="midnightblue" stroke="midnightblue" points="308.47,-26.83 300.57,-19.77 302.34,-30.22 308.47,-26.83"/>
</g>
<!-- Node7 -->
<g id="node7" class="node">
<title>Node7</title>
<g id="a_node7"><a xlink:href="_field_8hpp.html" target="_top" xlink:title=" ">
<polygon fill="white" stroke="black" points="249.29,-224.5 249.29,-243.5 305.29,-243.5 305.29,-224.5 249.29,-224.5"/>
<text text-anchor="middle" x="277.29" y="-231.5" font-family="Helvetica,sans-Serif" font-size="10.00">Field.hpp</text>
</a>
</g>
</g>
<!-- Node5&#45;&gt;Node7 -->
<g id="edge6" class="edge">
<title>Node5&#45;&gt;Node7</title>
<path fill="none" stroke="midnightblue" d="M300.67,-280.08C296.83,-272.69 291.27,-261.95 286.53,-252.81"/>
<polygon fill="midnightblue" stroke="midnightblue" points="289.54,-251.02 281.83,-243.75 283.32,-254.24 289.54,-251.02"/>
</g>
<!-- Node7&#45;&gt;Node6 -->
<g id="edge19" class="edge">
<title>Node7&#45;&gt;Node6</title>
<path fill="none" stroke="midnightblue" d="M278,-224.3C280.64,-191.63 290.03,-75.87 293.75,-29.96"/>
<polygon fill="midnightblue" stroke="midnightblue" points="297.25,-30.13 294.57,-19.88 290.27,-29.57 297.25,-30.13"/>
</g>
<!-- Node8 -->
<g id="node8" class="node">
<title>Node8</title>
<g id="a_node8"><a xlink:href="_cell_8hpp.html" target="_top" xlink:title=" ">
<polygon fill="white" stroke="black" points="98.79,-168.5 98.79,-187.5 215.79,-187.5 215.79,-168.5 98.79,-168.5"/>
<text text-anchor="middle" x="157.29" y="-175.5" font-family="Helvetica,sans-Serif" font-size="10.00">engine/objects/Cell.hpp</text>
</a>
</g>
</g>
<!-- Node7&#45;&gt;Node8 -->
<g id="edge7" class="edge">
<title>Node7&#45;&gt;Node8</title>
<path fill="none" stroke="midnightblue" d="M258.28,-224.44C238.7,-215.64 207.98,-201.81 185.56,-191.72"/>
<polygon fill="midnightblue" stroke="midnightblue" points="186.77,-188.43 176.22,-187.52 183.9,-194.81 186.77,-188.43"/>
</g>
<!-- Node9 -->
<g id="node9" class="node">
<title>Node9</title>
<g id="a_node9"><a xlink:href="_drawable_8hpp.html" target="_top" xlink:title=" ">
<polygon fill="white" stroke="black" points="5.79,-56.5 5.79,-75.5 112.79,-75.5 112.79,-56.5 5.79,-56.5"/>
<text text-anchor="middle" x="59.29" y="-63.5" font-family="Helvetica,sans-Serif" font-size="10.00">engine/Drawable.hpp</text>
</a>
</g>
</g>
<!-- Node8&#45;&gt;Node9 -->
<g id="edge8" class="edge">
<title>Node8&#45;&gt;Node9</title>
<path fill="none" stroke="midnightblue" d="M105.13,-168.49C65.78,-160.88 16.56,-148.4 4.29,-132 -9.44,-113.65 13.64,-93.68 33.97,-80.79"/>
<polygon fill="midnightblue" stroke="midnightblue" points="35.92,-83.7 42.69,-75.56 32.32,-77.7 35.92,-83.7"/>
</g>
<!-- Node11 -->
<g id="node11" class="node">
<title>Node11</title>
<g id="a_node11"><a xlink:href="_tickable_8hpp.html" target="_top" xlink:title=" ">
<polygon fill="white" stroke="black" points="142.79,-56.5 142.79,-75.5 245.79,-75.5 245.79,-56.5 142.79,-56.5"/>
<text text-anchor="middle" x="194.29" y="-63.5" font-family="Helvetica,sans-Serif" font-size="10.00">engine/Tickable.hpp</text>
</a>
</g>
</g>
<!-- Node8&#45;&gt;Node11 -->
<g id="edge11" class="edge">
<title>Node8&#45;&gt;Node11</title>
<path fill="none" stroke="midnightblue" d="M188.31,-168.44C206.32,-161.69 227.52,-150.3 238.29,-132 248.77,-114.2 231.41,-94.69 215.51,-81.74"/>
<polygon fill="midnightblue" stroke="midnightblue" points="217.55,-78.89 207.48,-75.6 213.3,-84.46 217.55,-78.89"/>
</g>
<!-- Node12 -->
<g id="node12" class="node">
<title>Node12</title>
<g id="a_node12"><a xlink:title=" ">
<polygon fill="white" stroke="#bfbfbf" points="97.29,-112.5 97.29,-131.5 141.29,-131.5 141.29,-112.5 97.29,-112.5"/>
<text text-anchor="middle" x="119.29" y="-119.5" font-family="Helvetica,sans-Serif" font-size="10.00">vector</text>
</a>
</g>
</g>
<!-- Node8&#45;&gt;Node12 -->
<g id="edge12" class="edge">
<title>Node8&#45;&gt;Node12</title>
<path fill="none" stroke="midnightblue" d="M151.02,-168.08C145.65,-160.46 137.77,-149.26 131.21,-139.94"/>
<polygon fill="midnightblue" stroke="midnightblue" points="134.07,-137.91 125.45,-131.75 128.34,-141.94 134.07,-137.91"/>
</g>
<!-- Node13 -->
<g id="node13" class="node">
<title>Node13</title>
<g id="a_node13"><a xlink:href="_ground_8hpp.html" target="_top" xlink:title=" ">
<polygon fill="white" stroke="black" points="13.29,-112.5 13.29,-131.5 79.29,-131.5 79.29,-112.5 13.29,-112.5"/>
<text text-anchor="middle" x="46.29" y="-119.5" font-family="Helvetica,sans-Serif" font-size="10.00">Ground.hpp</text>
</a>
</g>
</g>
<!-- Node8&#45;&gt;Node13 -->
<g id="edge13" class="edge">
<title>Node8&#45;&gt;Node13</title>
<path fill="none" stroke="midnightblue" d="M139.46,-168.32C121.57,-159.62 93.81,-146.12 73.24,-136.11"/>
<polygon fill="midnightblue" stroke="midnightblue" points="74.6,-132.88 64.08,-131.65 71.54,-139.18 74.6,-132.88"/>
</g>
<!-- Node14 -->
<g id="node14" class="node">
<title>Node14</title>
<g id="a_node14"><a xlink:href="_building_8hpp.html" target="_top" xlink:title=" ">
<polygon fill="white" stroke="black" points="159.79,-112.5 159.79,-131.5 228.79,-131.5 228.79,-112.5 159.79,-112.5"/>
<text text-anchor="middle" x="194.29" y="-119.5" font-family="Helvetica,sans-Serif" font-size="10.00">Building.hpp</text>
</a>
</g>
</g>
<!-- Node8&#45;&gt;Node14 -->
<g id="edge16" class="edge">
<title>Node8&#45;&gt;Node14</title>
<path fill="none" stroke="midnightblue" d="M163.4,-168.08C168.57,-160.53 176.14,-149.49 182.48,-140.23"/>
<polygon fill="midnightblue" stroke="midnightblue" points="185.53,-141.98 188.29,-131.75 179.75,-138.02 185.53,-141.98"/>
</g>
<!-- Node9&#45;&gt;Node6 -->
<g id="edge10" class="edge">
<title>Node9&#45;&gt;Node6</title>
<path fill="none" stroke="midnightblue" d="M96.68,-56.44C137.68,-47.06 203.54,-31.99 248.07,-21.8"/>
<polygon fill="midnightblue" stroke="midnightblue" points="249.1,-25.16 258.07,-19.52 247.54,-18.34 249.1,-25.16"/>
</g>
<!-- Node10 -->
<g id="node10" class="node">
<title>Node10</title>
<g id="a_node10"><a xlink:title=" ">
<polygon fill="white" stroke="#bfbfbf" points="26.29,-0.5 26.29,-19.5 92.29,-19.5 92.29,-0.5 26.29,-0.5"/>
<text text-anchor="middle" x="59.29" y="-7.5" font-family="Helvetica,sans-Serif" font-size="10.00">string_view</text>
</a>
</g>
</g>
<!-- Node9&#45;&gt;Node10 -->
<g id="edge9" class="edge">
<title>Node9&#45;&gt;Node10</title>
<path fill="none" stroke="midnightblue" d="M59.29,-56.08C59.29,-49.01 59.29,-38.86 59.29,-29.99"/>
<polygon fill="midnightblue" stroke="midnightblue" points="62.79,-29.75 59.29,-19.75 55.79,-29.75 62.79,-29.75"/>
</g>
<!-- Node13&#45;&gt;Node9 -->
<g id="edge14" class="edge">
<title>Node13&#45;&gt;Node9</title>
<path fill="none" stroke="midnightblue" d="M48.44,-112.08C50.16,-104.93 52.64,-94.64 54.79,-85.69"/>
<polygon fill="midnightblue" stroke="midnightblue" points="58.25,-86.29 57.18,-75.75 51.44,-84.65 58.25,-86.29"/>
</g>
<!-- Node13&#45;&gt;Node11 -->
<g id="edge15" class="edge">
<title>Node13&#45;&gt;Node11</title>
<path fill="none" stroke="midnightblue" d="M69.74,-112.44C94.42,-103.44 133.48,-89.19 161.27,-79.05"/>
<polygon fill="midnightblue" stroke="midnightblue" points="162.75,-82.23 170.95,-75.52 160.35,-75.66 162.75,-82.23"/>
</g>
<!-- Node14&#45;&gt;Node9 -->
<g id="edge17" class="edge">
<title>Node14&#45;&gt;Node9</title>
<path fill="none" stroke="midnightblue" d="M172.9,-112.44C150.58,-103.52 115.39,-89.44 90.08,-79.32"/>
<polygon fill="midnightblue" stroke="midnightblue" points="91.17,-75.98 80.58,-75.52 88.57,-82.48 91.17,-75.98"/>
</g>
<!-- Node14&#45;&gt;Node11 -->
<g id="edge18" class="edge">
<title>Node14&#45;&gt;Node11</title>
<path fill="none" stroke="midnightblue" d="M194.29,-112.08C194.29,-105.01 194.29,-94.86 194.29,-85.99"/>
<polygon fill="midnightblue" stroke="midnightblue" points="197.79,-85.75 194.29,-75.75 190.79,-85.75 197.79,-85.75"/>
</g>
</g>
</svg>
