<?xml version="1.0" encoding="UTF-8" standalone="no"?>
<!DOCTYPE svg PUBLIC "-//W3C//DTD SVG 1.1//EN"
 "http://www.w3.org/Graphics/SVG/1.1/DTD/svg11.dtd">
<!-- Generated by graphviz version 2.47.1 (20210421.1823)
 -->
<!-- Title: include/engine/objects/Unit.hpp Pages: 1 -->
<svg width="553pt" height="229pt"
 viewBox="0.00 0.00 553.00 229.00" xmlns="http://www.w3.org/2000/svg" xmlns:xlink="http://www.w3.org/1999/xlink">
<g id="graph0" class="graph" transform="scale(1 1) rotate(0) translate(4 225)">
<title>include/engine/objects/Unit.hpp</title>
<polygon fill="white" stroke="transparent" points="-4,4 -4,-225 549,-225 549,4 -4,4"/>
<!-- Node1 -->
<g id="node1" class="node">
<title>Node1</title>
<g id="a_node1"><a xlink:title=" ">
<polygon fill="#bfbfbf" stroke="black" points="92.5,-190.5 92.5,-220.5 205.5,-220.5 205.5,-190.5 92.5,-190.5"/>
<text text-anchor="start" x="100.5" y="-208.5" font-family="Helvetica,sans-Serif" font-size="10.00">include/engine/objects</text>
<text text-anchor="middle" x="149" y="-197.5" font-family="Helvetica,sans-Serif" font-size="10.00">/Unit.hpp</text>
</a>
</g>
</g>
<!-- Node2 -->
<g id="node2" class="node">
<title>Node2</title>
<g id="a_node2"><a xlink:href="_unit_8cpp.html" target="_top" xlink:title=" ">
<polygon fill="white" stroke="black" points="0,-0.5 0,-30.5 96,-30.5 96,-0.5 0,-0.5"/>
<text text-anchor="start" x="8" y="-18.5" font-family="Helvetica,sans-Serif" font-size="10.00">src/engine/objects</text>
<text text-anchor="middle" x="48" y="-7.5" font-family="Helvetica,sans-Serif" font-size="10.00">/Unit.cpp</text>
</a>
</g>
</g>
<!-- Node1&#45;&gt;Node2 -->
<g id="edge1" class="edge">
<title>Node1&#45;&gt;Node2</title>
<path fill="none" stroke="midnightblue" d="M136.5,-181.23C115.26,-141.71 72.79,-62.65 55.54,-30.54"/>
<polygon fill="midnightblue" stroke="midnightblue" points="133.59,-183.22 141.41,-190.37 139.76,-179.9 133.59,-183.22"/>
</g>
<!-- Node3 -->
<g id="node3" class="node">
<title>Node3</title>
<g id="a_node3"><a xlink:href="_unit_group_8hpp.html" target="_top" xlink:title=" ">
<polygon fill="white" stroke="black" points="194.5,-123.5 194.5,-153.5 307.5,-153.5 307.5,-123.5 194.5,-123.5"/>
<text text-anchor="start" x="202.5" y="-141.5" font-family="Helvetica,sans-Serif" font-size="10.00">include/engine/objects</text>
<text text-anchor="middle" x="251" y="-130.5" font-family="Helvetica,sans-Serif" font-size="10.00">/UnitGroup.hpp</text>
</a>
</g>
</g>
<!-- Node1&#45;&gt;Node3 -->
<g id="edge2" class="edge">
<title>Node1&#45;&gt;Node3</title>
<path fill="none" stroke="midnightblue" d="M179.58,-185.02C195.45,-174.9 214.48,-162.77 228.91,-153.58"/>
<polygon fill="midnightblue" stroke="midnightblue" points="177.68,-182.07 171.13,-190.4 181.45,-187.97 177.68,-182.07"/>
</g>
<!-- Node4 -->
<g id="node4" class="node">
<title>Node4</title>
<g id="a_node4"><a xlink:href="_unit_group_8cpp.html" target="_top" xlink:title=" ">
<polygon fill="white" stroke="black" points="449,-0.5 449,-30.5 545,-30.5 545,-0.5 449,-0.5"/>
<text text-anchor="start" x="457" y="-18.5" font-family="Helvetica,sans-Serif" font-size="10.00">src/engine/objects</text>
<text text-anchor="middle" x="497" y="-7.5" font-family="Helvetica,sans-Serif" font-size="10.00">/UnitGroup.cpp</text>
</a>
</g>
</g>
<!-- Node3&#45;&gt;Node4 -->
<g id="edge3" class="edge">
<title>Node3&#45;&gt;Node4</title>
<path fill="none" stroke="midnightblue" d="M288.8,-118.91C338.33,-94.55 424.06,-52.38 468.48,-30.53"/>
<polygon fill="midnightblue" stroke="midnightblue" points="287.13,-115.83 279.7,-123.38 290.22,-122.11 287.13,-115.83"/>
</g>
<!-- Node5 -->
<g id="node5" class="node">
<title>Node5</title>
<g id="a_node5"><a xlink:href="_engine_8hpp.html" target="_top" xlink:title=" ">
<polygon fill="white" stroke="black" points="202,-67.5 202,-86.5 300,-86.5 300,-67.5 202,-67.5"/>
<text text-anchor="middle" x="251" y="-74.5" font-family="Helvetica,sans-Serif" font-size="10.00">include/Engine.hpp</text>
</a>
</g>
</g>
<!-- Node3&#45;&gt;Node5 -->
<g id="edge4" class="edge">
<title>Node3&#45;&gt;Node5</title>
<path fill="none" stroke="midnightblue" d="M251,-113.29C251,-103.86 251,-93.65 251,-86.66"/>
<polygon fill="midnightblue" stroke="midnightblue" points="247.5,-113.4 251,-123.4 254.5,-113.4 247.5,-113.4"/>
</g>
<!-- Node5&#45;&gt;Node2 -->
<g id="edge6" class="edge">
<title>Node5&#45;&gt;Node2</title>
<path fill="none" stroke="midnightblue" d="M212.14,-64.61C179.02,-54.9 131.3,-40.92 95.84,-30.52"/>
<polygon fill="midnightblue" stroke="midnightblue" points="211.33,-68.02 221.92,-67.48 213.3,-61.3 211.33,-68.02"/>
</g>
<!-- Node5&#45;&gt;Node4 -->
<g id="edge7" class="edge">
<title>Node5&#45;&gt;Node4</title>
<path fill="none" stroke="midnightblue" d="M297.46,-65.15C335.74,-56.16 391.45,-42.96 440,-31 442.88,-30.29 445.83,-29.56 448.81,-28.81"/>
<polygon fill="midnightblue" stroke="midnightblue" points="296.56,-61.76 287.63,-67.46 298.16,-68.58 296.56,-61.76"/>
</g>
<!-- Node6 -->
<g id="node6" class="node">
<title>Node6</title>
<g id="a_node6"><a xlink:href="_drawable_8cpp.html" target="_top" xlink:title=" ">
<polygon fill="white" stroke="black" points="307.5,-6 307.5,-25 430.5,-25 430.5,-6 307.5,-6"/>
<text text-anchor="middle" x="369" y="-13" font-family="Helvetica,sans-Serif" font-size="10.00">src/engine/Drawable.cpp</text>
</a>
</g>
</g>
<!-- Node5&#45;&gt;Node6 -->
<g id="edge5" class="edge">
<title>Node5&#45;&gt;Node6</title>
<path fill="none" stroke="midnightblue" d="M277.05,-62.87C299.92,-51.33 332.51,-34.9 352.12,-25.01"/>
<polygon fill="midnightblue" stroke="midnightblue" points="275.26,-59.85 267.91,-67.48 278.41,-66.1 275.26,-59.85"/>
</g>
<!-- Node7 -->
<g id="node7" class="node">
<title>Node7</title>
<g id="a_node7"><a xlink:href="_engine_8cpp.html" target="_top" xlink:title=" ">
<polygon fill="white" stroke="black" points="114,-6 114,-25 194,-25 194,-6 114,-6"/>
<text text-anchor="middle" x="154" y="-13" font-family="Helvetica,sans-Serif" font-size="10.00">src/Engine.cpp</text>
</a>
</g>
</g>
<!-- Node5&#45;&gt;Node7 -->
<g id="edge8" class="edge">
<title>Node5&#45;&gt;Node7</title>
<path fill="none" stroke="midnightblue" d="M228.57,-62.24C209.84,-50.75 183.71,-34.72 167.87,-25.01"/>
<polygon fill="midnightblue" stroke="midnightblue" points="226.75,-65.23 237.1,-67.48 230.41,-59.26 226.75,-65.23"/>
</g>
<!-- Node8 -->
<g id="node8" class="node">
<title>Node8</title>
<g id="a_node8"><a xlink:href="_game_8cpp.html" target="_top" xlink:title=" ">
<polygon fill="white" stroke="black" points="212.5,-6 212.5,-25 289.5,-25 289.5,-6 212.5,-6"/>
<text text-anchor="middle" x="251" y="-13" font-family="Helvetica,sans-Serif" font-size="10.00">src/Game.cpp</text>
</a>
</g>
</g>
<!-- Node5&#45;&gt;Node8 -->
<g id="edge9" class="edge">
<title>Node5&#45;&gt;Node8</title>
<path fill="none" stroke="midnightblue" d="M251,-57.32C251,-46.5 251,-33.4 251,-25.01"/>
<polygon fill="midnightblue" stroke="midnightblue" points="247.5,-57.48 251,-67.48 254.5,-57.48 247.5,-57.48"/>
</g>
</g>
</svg>
