<?xml version="1.0" encoding="UTF-8" standalone="no"?>
<!DOCTYPE svg PUBLIC "-//W3C//DTD SVG 1.1//EN"
 "http://www.w3.org/Graphics/SVG/1.1/DTD/svg11.dtd">
<!-- Generated by graphviz version 2.47.1 (20210421.1823)
 -->
<!-- Title: include/engine/objects/UnitGroup.hpp Pages: 1 -->
<svg width="554pt" height="162pt"
 viewBox="0.00 0.00 553.50 162.00" xmlns="http://www.w3.org/2000/svg" xmlns:xlink="http://www.w3.org/1999/xlink">
<g id="graph0" class="graph" transform="scale(1 1) rotate(0) translate(4 158)">
<title>include/engine/objects/UnitGroup.hpp</title>
<polygon fill="white" stroke="transparent" points="-4,4 -4,-158 549.5,-158 549.5,4 -4,4"/>
<!-- Node1 -->
<g id="node1" class="node">
<title>Node1</title>
<g id="a_node1"><a xlink:title=" ">
<polygon fill="#bfbfbf" stroke="black" points="119.5,-123.5 119.5,-153.5 232.5,-153.5 232.5,-123.5 119.5,-123.5"/>
<text text-anchor="start" x="127.5" y="-141.5" font-family="Helvetica,sans-Serif" font-size="10.00">include/engine/objects</text>
<text text-anchor="middle" x="176" y="-130.5" font-family="Helvetica,sans-Serif" font-size="10.00">/UnitGroup.hpp</text>
</a>
</g>
</g>
<!-- Node2 -->
<g id="node2" class="node">
<title>Node2</title>
<g id="a_node2"><a xlink:href="_unit_group_8cpp.html" target="_top" xlink:title=" ">
<polygon fill="white" stroke="black" points="0,-0.5 0,-30.5 96,-30.5 96,-0.5 0,-0.5"/>
<text text-anchor="start" x="8" y="-18.5" font-family="Helvetica,sans-Serif" font-size="10.00">src/engine/objects</text>
<text text-anchor="middle" x="48" y="-7.5" font-family="Helvetica,sans-Serif" font-size="10.00">/UnitGroup.cpp</text>
</a>
</g>
</g>
<!-- Node1&#45;&gt;Node2 -->
<g id="edge1" class="edge">
<title>Node1&#45;&gt;Node2</title>
<path fill="none" stroke="midnightblue" d="M153.53,-116.26C127.44,-91.59 85.13,-51.6 62.84,-30.53"/>
<polygon fill="midnightblue" stroke="midnightblue" points="151.39,-119.06 161.07,-123.38 156.2,-113.97 151.39,-119.06"/>
</g>
<!-- Node3 -->
<g id="node3" class="node">
<title>Node3</title>
<g id="a_node3"><a xlink:href="_engine_8hpp.html" target="_top" xlink:title=" ">
<polygon fill="white" stroke="black" points="191,-67.5 191,-86.5 289,-86.5 289,-67.5 191,-67.5"/>
<text text-anchor="middle" x="240" y="-74.5" font-family="Helvetica,sans-Serif" font-size="10.00">include/Engine.hpp</text>
</a>
</g>
</g>
<!-- Node1&#45;&gt;Node3 -->
<g id="edge2" class="edge">
<title>Node1&#45;&gt;Node3</title>
<path fill="none" stroke="midnightblue" d="M198.8,-116.3C209.79,-106.09 222.35,-94.41 230.69,-86.66"/>
<polygon fill="midnightblue" stroke="midnightblue" points="196.11,-114.03 191.17,-123.4 200.87,-119.15 196.11,-114.03"/>
</g>
<!-- Node3&#45;&gt;Node2 -->
<g id="edge5" class="edge">
<title>Node3&#45;&gt;Node2</title>
<path fill="none" stroke="midnightblue" d="M202.84,-64.48C171.53,-54.78 126.64,-40.87 93.25,-30.52"/>
<polygon fill="midnightblue" stroke="midnightblue" points="201.9,-67.86 212.49,-67.48 203.98,-61.17 201.9,-67.86"/>
</g>
<!-- Node4 -->
<g id="node4" class="node">
<title>Node4</title>
<g id="a_node4"><a xlink:href="_drawable_8cpp.html" target="_top" xlink:title=" ">
<polygon fill="white" stroke="black" points="114.5,-6 114.5,-25 237.5,-25 237.5,-6 114.5,-6"/>
<text text-anchor="middle" x="176" y="-13" font-family="Helvetica,sans-Serif" font-size="10.00">src/engine/Drawable.cpp</text>
</a>
</g>
</g>
<!-- Node3&#45;&gt;Node4 -->
<g id="edge3" class="edge">
<title>Node3&#45;&gt;Node4</title>
<path fill="none" stroke="midnightblue" d="M223.49,-60.65C211.29,-49.31 195.13,-34.28 185.15,-25.01"/>
<polygon fill="midnightblue" stroke="midnightblue" points="221.12,-63.23 230.83,-67.48 225.89,-58.1 221.12,-63.23"/>
</g>
<!-- Node5 -->
<g id="node5" class="node">
<title>Node5</title>
<g id="a_node5"><a xlink:href="_unit_8cpp.html" target="_top" xlink:title=" ">
<polygon fill="white" stroke="black" points="256,-0.5 256,-30.5 352,-30.5 352,-0.5 256,-0.5"/>
<text text-anchor="start" x="264" y="-18.5" font-family="Helvetica,sans-Serif" font-size="10.00">src/engine/objects</text>
<text text-anchor="middle" x="304" y="-7.5" font-family="Helvetica,sans-Serif" font-size="10.00">/Unit.cpp</text>
</a>
</g>
</g>
<!-- Node3&#45;&gt;Node5 -->
<g id="edge4" class="edge">
<title>Node3&#45;&gt;Node5</title>
<path fill="none" stroke="midnightblue" d="M256.52,-60.65C266.52,-51.35 279.18,-39.57 288.92,-30.52"/>
<polygon fill="midnightblue" stroke="midnightblue" points="254.11,-58.1 249.17,-67.48 258.88,-63.23 254.11,-58.1"/>
</g>
<!-- Node6 -->
<g id="node6" class="node">
<title>Node6</title>
<g id="a_node6"><a xlink:href="_engine_8cpp.html" target="_top" xlink:title=" ">
<polygon fill="white" stroke="black" points="370,-6 370,-25 450,-25 450,-6 370,-6"/>
<text text-anchor="middle" x="410" y="-13" font-family="Helvetica,sans-Serif" font-size="10.00">src/Engine.cpp</text>
</a>
</g>
</g>
<!-- Node3&#45;&gt;Node6 -->
<g id="edge6" class="edge">
<title>Node3&#45;&gt;Node6</title>
<path fill="none" stroke="midnightblue" d="M274.05,-64.08C307.09,-52.52 356.42,-35.25 385.69,-25.01"/>
<polygon fill="midnightblue" stroke="midnightblue" points="272.64,-60.87 264.36,-67.48 274.95,-67.48 272.64,-60.87"/>
</g>
<!-- Node7 -->
<g id="node7" class="node">
<title>Node7</title>
<g id="a_node7"><a xlink:href="_game_8cpp.html" target="_top" xlink:title=" ">
<polygon fill="white" stroke="black" points="468.5,-6 468.5,-25 545.5,-25 545.5,-6 468.5,-6"/>
<text text-anchor="middle" x="507" y="-13" font-family="Helvetica,sans-Serif" font-size="10.00">src/Game.cpp</text>
</a>
</g>
</g>
<!-- Node3&#45;&gt;Node7 -->
<g id="edge7" class="edge">
<title>Node3&#45;&gt;Node7</title>
<path fill="none" stroke="midnightblue" d="M297.72,-65.62C342.07,-57.29 404.72,-44.75 459,-31 465.92,-29.25 473.33,-27.13 480.21,-25.06"/>
<polygon fill="midnightblue" stroke="midnightblue" points="296.89,-62.22 287.7,-67.49 298.17,-69.1 296.89,-62.22"/>
</g>
</g>
</svg>
