<?xml version="1.0" encoding="UTF-8" standalone="no"?>
<!DOCTYPE svg PUBLIC "-//W3C//DTD SVG 1.1//EN"
 "http://www.w3.org/Graphics/SVG/1.1/DTD/svg11.dtd">
<!-- Generated by graphviz version 2.47.1 (20210421.1823)
 -->
<!-- Title: src/engine/objects/UnitGroup.cpp Pages: 1 -->
<svg width="514pt" height="599pt"
 viewBox="0.00 0.00 514.00 599.00" xmlns="http://www.w3.org/2000/svg" xmlns:xlink="http://www.w3.org/1999/xlink">
<g id="graph0" class="graph" transform="scale(1 1) rotate(0) translate(4 595)">
<title>src/engine/objects/UnitGroup.cpp</title>
<polygon fill="white" stroke="transparent" points="-4,4 -4,-595 510,-595 510,4 -4,4"/>
<!-- Node1 -->
<g id="node1" class="node">
<title>Node1</title>
<g id="a_node1"><a xlink:title=" ">
<polygon fill="#bfbfbf" stroke="black" points="332,-560.5 332,-590.5 428,-590.5 428,-560.5 332,-560.5"/>
<text text-anchor="start" x="340" y="-578.5" font-family="Helvetica,sans-Serif" font-size="10.00">src/engine/objects</text>
<text text-anchor="middle" x="380" y="-567.5" font-family="Helvetica,sans-Serif" font-size="10.00">/UnitGroup.cpp</text>
</a>
</g>
</g>
<!-- Node2 -->
<g id="node2" class="node">
<title>Node2</title>
<g id="a_node2"><a xlink:href="_unit_group_8hpp.html" target="_top" xlink:title=" ">
<polygon fill="white" stroke="black" points="162.5,-448.5 162.5,-467.5 307.5,-467.5 307.5,-448.5 162.5,-448.5"/>
<text text-anchor="middle" x="235" y="-455.5" font-family="Helvetica,sans-Serif" font-size="10.00">engine/objects/UnitGroup.hpp</text>
</a>
</g>
</g>
<!-- Node1&#45;&gt;Node2 -->
<g id="edge1" class="edge">
<title>Node1&#45;&gt;Node2</title>
<path fill="none" stroke="midnightblue" d="M351.88,-560.47C334.66,-551.24 312.61,-538.26 295,-524 277.01,-509.43 259.41,-489.49 247.97,-475.55"/>
<polygon fill="midnightblue" stroke="midnightblue" points="250.69,-473.34 241.7,-467.74 245.24,-477.73 250.69,-473.34"/>
</g>
<!-- Node7 -->
<g id="node7" class="node">
<title>Node7</title>
<g id="a_node7"><a xlink:title=" ">
<polygon fill="white" stroke="#bfbfbf" points="239,-0.5 239,-19.5 283,-19.5 283,-0.5 239,-0.5"/>
<text text-anchor="middle" x="261" y="-7.5" font-family="Helvetica,sans-Serif" font-size="10.00">cmath</text>
</a>
</g>
</g>
<!-- Node1&#45;&gt;Node7 -->
<g id="edge24" class="edge">
<title>Node1&#45;&gt;Node7</title>
<path fill="none" stroke="midnightblue" d="M389.33,-560.22C402.25,-539.03 424,-497.62 424,-459 424,-459 424,-459 424,-121 424,-58.5 340.65,-29.14 293.15,-17.48"/>
<polygon fill="midnightblue" stroke="midnightblue" points="293.86,-14.05 283.32,-15.19 292.27,-20.87 293.86,-14.05"/>
</g>
<!-- Node18 -->
<g id="node18" class="node">
<title>Node18</title>
<g id="a_node18"><a xlink:title=" ">
<polygon fill="white" stroke="#bfbfbf" points="452,-504.5 452,-523.5 506,-523.5 506,-504.5 452,-504.5"/>
<text text-anchor="middle" x="479" y="-511.5" font-family="Helvetica,sans-Serif" font-size="10.00">iostream</text>
</a>
</g>
</g>
<!-- Node1&#45;&gt;Node18 -->
<g id="edge23" class="edge">
<title>Node1&#45;&gt;Node18</title>
<path fill="none" stroke="midnightblue" d="M403.46,-560.4C419.33,-550.86 440.19,-538.32 455.97,-528.84"/>
<polygon fill="midnightblue" stroke="midnightblue" points="457.83,-531.81 464.59,-523.66 454.22,-525.81 457.83,-531.81"/>
</g>
<!-- Node19 -->
<g id="node19" class="node">
<title>Node19</title>
<g id="a_node19"><a xlink:href="_engine_8hpp.html" target="_top" xlink:title=" ">
<polygon fill="white" stroke="black" points="304,-504.5 304,-523.5 368,-523.5 368,-504.5 304,-504.5"/>
<text text-anchor="middle" x="336" y="-511.5" font-family="Helvetica,sans-Serif" font-size="10.00">Engine.hpp</text>
</a>
</g>
</g>
<!-- Node1&#45;&gt;Node19 -->
<g id="edge25" class="edge">
<title>Node1&#45;&gt;Node19</title>
<path fill="none" stroke="midnightblue" d="M369.57,-560.4C363.24,-551.84 355.13,-540.87 348.47,-531.86"/>
<polygon fill="midnightblue" stroke="midnightblue" points="351.16,-529.62 342.4,-523.66 345.53,-533.78 351.16,-529.62"/>
</g>
<!-- Node3 -->
<g id="node3" class="node">
<title>Node3</title>
<g id="a_node3"><a xlink:href="_unit_8hpp.html" target="_top" xlink:title=" ">
<polygon fill="white" stroke="black" points="149.5,-392.5 149.5,-411.5 202.5,-411.5 202.5,-392.5 149.5,-392.5"/>
<text text-anchor="middle" x="176" y="-399.5" font-family="Helvetica,sans-Serif" font-size="10.00">Unit.hpp</text>
</a>
</g>
</g>
<!-- Node2&#45;&gt;Node3 -->
<g id="edge2" class="edge">
<title>Node2&#45;&gt;Node3</title>
<path fill="none" stroke="midnightblue" d="M225.52,-448.32C216.8,-440.34 203.66,-428.31 193.1,-418.65"/>
<polygon fill="midnightblue" stroke="midnightblue" points="195.39,-416 185.65,-411.83 190.67,-421.17 195.39,-416"/>
</g>
<!-- Node17 -->
<g id="node17" class="node">
<title>Node17</title>
<g id="a_node17"><a xlink:title=" ">
<polygon fill="white" stroke="#bfbfbf" points="220.5,-392.5 220.5,-411.5 249.5,-411.5 249.5,-392.5 220.5,-392.5"/>
<text text-anchor="middle" x="235" y="-399.5" font-family="Helvetica,sans-Serif" font-size="10.00">list</text>
</a>
</g>
</g>
<!-- Node2&#45;&gt;Node17 -->
<g id="edge22" class="edge">
<title>Node2&#45;&gt;Node17</title>
<path fill="none" stroke="midnightblue" d="M235,-448.08C235,-441.01 235,-430.86 235,-421.99"/>
<polygon fill="midnightblue" stroke="midnightblue" points="238.5,-421.75 235,-411.75 231.5,-421.75 238.5,-421.75"/>
</g>
<!-- Node4 -->
<g id="node4" class="node">
<title>Node4</title>
<g id="a_node4"><a xlink:href="_world_actor_8hpp.html" target="_top" xlink:title=" ">
<polygon fill="white" stroke="black" points="119,-336.5 119,-355.5 233,-355.5 233,-336.5 119,-336.5"/>
<text text-anchor="middle" x="176" y="-343.5" font-family="Helvetica,sans-Serif" font-size="10.00">engine/WorldActor.hpp</text>
</a>
</g>
</g>
<!-- Node3&#45;&gt;Node4 -->
<g id="edge3" class="edge">
<title>Node3&#45;&gt;Node4</title>
<path fill="none" stroke="midnightblue" d="M176,-392.08C176,-385.01 176,-374.86 176,-365.99"/>
<polygon fill="midnightblue" stroke="midnightblue" points="179.5,-365.75 176,-355.75 172.5,-365.75 179.5,-365.75"/>
</g>
<!-- Node5 -->
<g id="node5" class="node">
<title>Node5</title>
<g id="a_node5"><a xlink:href="_vector2_d_8hpp.html" target="_top" xlink:title=" ">
<polygon fill="white" stroke="black" points="69,-56.5 69,-75.5 181,-75.5 181,-56.5 69,-56.5"/>
<text text-anchor="middle" x="125" y="-63.5" font-family="Helvetica,sans-Serif" font-size="10.00">Helpers/Vector2D.hpp</text>
</a>
</g>
</g>
<!-- Node4&#45;&gt;Node5 -->
<g id="edge4" class="edge">
<title>Node4&#45;&gt;Node5</title>
<path fill="none" stroke="midnightblue" d="M127.91,-336.4C75.8,-323.99 0,-295.53 0,-235 0,-235 0,-235 0,-177 0,-128.17 54.42,-95.89 91.44,-79.58"/>
<polygon fill="midnightblue" stroke="midnightblue" points="93.05,-82.7 100.9,-75.59 90.32,-76.25 93.05,-82.7"/>
</g>
<!-- Node8 -->
<g id="node8" class="node">
<title>Node8</title>
<g id="a_node8"><a xlink:href="_field_8hpp.html" target="_top" xlink:title=" ">
<polygon fill="white" stroke="black" points="148,-280.5 148,-299.5 204,-299.5 204,-280.5 148,-280.5"/>
<text text-anchor="middle" x="176" y="-287.5" font-family="Helvetica,sans-Serif" font-size="10.00">Field.hpp</text>
</a>
</g>
</g>
<!-- Node4&#45;&gt;Node8 -->
<g id="edge7" class="edge">
<title>Node4&#45;&gt;Node8</title>
<path fill="none" stroke="midnightblue" d="M176,-336.08C176,-329.01 176,-318.86 176,-309.99"/>
<polygon fill="midnightblue" stroke="midnightblue" points="179.5,-309.75 176,-299.75 172.5,-309.75 179.5,-309.75"/>
</g>
<!-- Node6 -->
<g id="node6" class="node">
<title>Node6</title>
<g id="a_node6"><a xlink:title=" ">
<polygon fill="white" stroke="#bfbfbf" points="105.5,-0.5 105.5,-19.5 144.5,-19.5 144.5,-0.5 105.5,-0.5"/>
<text text-anchor="middle" x="125" y="-7.5" font-family="Helvetica,sans-Serif" font-size="10.00">utility</text>
</a>
</g>
</g>
<!-- Node5&#45;&gt;Node6 -->
<g id="edge5" class="edge">
<title>Node5&#45;&gt;Node6</title>
<path fill="none" stroke="midnightblue" d="M125,-56.08C125,-49.01 125,-38.86 125,-29.99"/>
<polygon fill="midnightblue" stroke="midnightblue" points="128.5,-29.75 125,-19.75 121.5,-29.75 128.5,-29.75"/>
</g>
<!-- Node5&#45;&gt;Node7 -->
<g id="edge6" class="edge">
<title>Node5&#45;&gt;Node7</title>
<path fill="none" stroke="midnightblue" d="M146.55,-56.44C169.03,-47.52 204.49,-33.44 229.98,-23.32"/>
<polygon fill="midnightblue" stroke="midnightblue" points="231.55,-26.46 239.55,-19.52 228.97,-19.95 231.55,-26.46"/>
</g>
<!-- Node8&#45;&gt;Node5 -->
<g id="edge21" class="edge">
<title>Node8&#45;&gt;Node5</title>
<path fill="none" stroke="midnightblue" d="M162.35,-280.22C150.2,-271.93 132.47,-258.61 120,-244 82.92,-200.56 71.28,-187.3 57,-132 54.78,-123.39 52.79,-119.83 57,-112 64.62,-97.82 78.9,-87.35 92.41,-80.1"/>
<polygon fill="midnightblue" stroke="midnightblue" points="94.13,-83.16 101.55,-75.59 91.03,-76.88 94.13,-83.16"/>
</g>
<!-- Node9 -->
<g id="node9" class="node">
<title>Node9</title>
<g id="a_node9"><a xlink:href="_cell_8hpp.html" target="_top" xlink:title=" ">
<polygon fill="white" stroke="black" points="129.5,-224.5 129.5,-243.5 246.5,-243.5 246.5,-224.5 129.5,-224.5"/>
<text text-anchor="middle" x="188" y="-231.5" font-family="Helvetica,sans-Serif" font-size="10.00">engine/objects/Cell.hpp</text>
</a>
</g>
</g>
<!-- Node8&#45;&gt;Node9 -->
<g id="edge8" class="edge">
<title>Node8&#45;&gt;Node9</title>
<path fill="none" stroke="midnightblue" d="M177.98,-280.08C179.57,-272.93 181.86,-262.64 183.85,-253.69"/>
<polygon fill="midnightblue" stroke="midnightblue" points="187.3,-254.27 186.06,-243.75 180.47,-252.75 187.3,-254.27"/>
</g>
<!-- Node10 -->
<g id="node10" class="node">
<title>Node10</title>
<g id="a_node10"><a xlink:href="_drawable_8hpp.html" target="_top" xlink:title=" ">
<polygon fill="white" stroke="black" points="264.5,-112.5 264.5,-131.5 371.5,-131.5 371.5,-112.5 264.5,-112.5"/>
<text text-anchor="middle" x="318" y="-119.5" font-family="Helvetica,sans-Serif" font-size="10.00">engine/Drawable.hpp</text>
</a>
</g>
</g>
<!-- Node9&#45;&gt;Node10 -->
<g id="edge9" class="edge">
<title>Node9&#45;&gt;Node10</title>
<path fill="none" stroke="midnightblue" d="M246.81,-229.97C276.54,-225.09 310.2,-213.73 329,-188 338.89,-174.47 333.86,-155.14 327.75,-141.09"/>
<polygon fill="midnightblue" stroke="midnightblue" points="330.82,-139.4 323.31,-131.94 324.53,-142.46 330.82,-139.4"/>
</g>
<!-- Node12 -->
<g id="node12" class="node">
<title>Node12</title>
<g id="a_node12"><a xlink:href="_tickable_8hpp.html" target="_top" xlink:title=" ">
<polygon fill="white" stroke="black" points="66.5,-112.5 66.5,-131.5 169.5,-131.5 169.5,-112.5 66.5,-112.5"/>
<text text-anchor="middle" x="118" y="-119.5" font-family="Helvetica,sans-Serif" font-size="10.00">engine/Tickable.hpp</text>
</a>
</g>
</g>
<!-- Node9&#45;&gt;Node12 -->
<g id="edge12" class="edge">
<title>Node9&#45;&gt;Node12</title>
<path fill="none" stroke="midnightblue" d="M148.75,-224.48C129,-217.99 106.82,-206.84 95,-188 85.51,-172.86 94.91,-153.27 104.4,-139.57"/>
<polygon fill="midnightblue" stroke="midnightblue" points="107.23,-141.62 110.44,-131.53 101.64,-137.42 107.23,-141.62"/>
</g>
<!-- Node13 -->
<g id="node13" class="node">
<title>Node13</title>
<g id="a_node13"><a xlink:title=" ">
<polygon fill="white" stroke="#bfbfbf" points="104,-168.5 104,-187.5 148,-187.5 148,-168.5 104,-168.5"/>
<text text-anchor="middle" x="126" y="-175.5" font-family="Helvetica,sans-Serif" font-size="10.00">vector</text>
</a>
</g>
</g>
<!-- Node9&#45;&gt;Node13 -->
<g id="edge13" class="edge">
<title>Node9&#45;&gt;Node13</title>
<path fill="none" stroke="midnightblue" d="M178.04,-224.32C168.87,-216.34 155.06,-204.31 143.97,-194.65"/>
<polygon fill="midnightblue" stroke="midnightblue" points="145.98,-191.76 136.14,-187.83 141.38,-197.04 145.98,-191.76"/>
</g>
<!-- Node14 -->
<g id="node14" class="node">
<title>Node14</title>
<g id="a_node14"><a xlink:href="_ground_8hpp.html" target="_top" xlink:title=" ">
<polygon fill="white" stroke="black" points="254,-168.5 254,-187.5 320,-187.5 320,-168.5 254,-168.5"/>
<text text-anchor="middle" x="287" y="-175.5" font-family="Helvetica,sans-Serif" font-size="10.00">Ground.hpp</text>
</a>
</g>
</g>
<!-- Node9&#45;&gt;Node14 -->
<g id="edge14" class="edge">
<title>Node9&#45;&gt;Node14</title>
<path fill="none" stroke="midnightblue" d="M203.91,-224.32C219.64,-215.74 243.94,-202.49 262.21,-192.52"/>
<polygon fill="midnightblue" stroke="midnightblue" points="264.03,-195.52 271.13,-187.65 260.68,-189.37 264.03,-195.52"/>
</g>
<!-- Node15 -->
<g id="node15" class="node">
<title>Node15</title>
<g id="a_node15"><a xlink:href="_building_8hpp.html" target="_top" xlink:title=" ">
<polygon fill="white" stroke="black" points="166.5,-168.5 166.5,-187.5 235.5,-187.5 235.5,-168.5 166.5,-168.5"/>
<text text-anchor="middle" x="201" y="-175.5" font-family="Helvetica,sans-Serif" font-size="10.00">Building.hpp</text>
</a>
</g>
</g>
<!-- Node9&#45;&gt;Node15 -->
<g id="edge17" class="edge">
<title>Node9&#45;&gt;Node15</title>
<path fill="none" stroke="midnightblue" d="M190.15,-224.08C191.87,-216.93 194.35,-206.64 196.5,-197.69"/>
<polygon fill="midnightblue" stroke="midnightblue" points="199.96,-198.29 198.89,-187.75 193.15,-196.65 199.96,-198.29"/>
</g>
<!-- Node10&#45;&gt;Node5 -->
<g id="edge11" class="edge">
<title>Node10&#45;&gt;Node5</title>
<path fill="none" stroke="midnightblue" d="M287.42,-112.44C254.39,-103.2 201.61,-88.44 165.23,-78.26"/>
<polygon fill="midnightblue" stroke="midnightblue" points="166.01,-74.84 155.44,-75.52 164.13,-81.58 166.01,-74.84"/>
</g>
<!-- Node11 -->
<g id="node11" class="node">
<title>Node11</title>
<g id="a_node11"><a xlink:title=" ">
<polygon fill="white" stroke="#bfbfbf" points="285,-56.5 285,-75.5 351,-75.5 351,-56.5 285,-56.5"/>
<text text-anchor="middle" x="318" y="-63.5" font-family="Helvetica,sans-Serif" font-size="10.00">string_view</text>
</a>
</g>
</g>
<!-- Node10&#45;&gt;Node11 -->
<g id="edge10" class="edge">
<title>Node10&#45;&gt;Node11</title>
<path fill="none" stroke="midnightblue" d="M318,-112.08C318,-105.01 318,-94.86 318,-85.99"/>
<polygon fill="midnightblue" stroke="midnightblue" points="321.5,-85.75 318,-75.75 314.5,-85.75 321.5,-85.75"/>
</g>
<!-- Node14&#45;&gt;Node10 -->
<g id="edge15" class="edge">
<title>Node14&#45;&gt;Node10</title>
<path fill="none" stroke="midnightblue" d="M292.12,-168.08C296.41,-160.61 302.66,-149.72 307.94,-140.52"/>
<polygon fill="midnightblue" stroke="midnightblue" points="311.03,-142.17 312.98,-131.75 304.96,-138.68 311.03,-142.17"/>
</g>
<!-- Node14&#45;&gt;Node12 -->
<g id="edge16" class="edge">
<title>Node14&#45;&gt;Node12</title>
<path fill="none" stroke="midnightblue" d="M260.22,-168.44C231.67,-159.32 186.27,-144.81 154.46,-134.65"/>
<polygon fill="midnightblue" stroke="midnightblue" points="155.24,-131.23 144.65,-131.52 153.11,-137.89 155.24,-131.23"/>
</g>
<!-- Node15&#45;&gt;Node10 -->
<g id="edge18" class="edge">
<title>Node15&#45;&gt;Node10</title>
<path fill="none" stroke="midnightblue" d="M219.54,-168.44C238.62,-159.64 268.57,-145.81 290.44,-135.72"/>
<polygon fill="midnightblue" stroke="midnightblue" points="291.93,-138.88 299.55,-131.52 289,-132.53 291.93,-138.88"/>
</g>
<!-- Node15&#45;&gt;Node12 -->
<g id="edge19" class="edge">
<title>Node15&#45;&gt;Node12</title>
<path fill="none" stroke="midnightblue" d="M187.66,-168.32C174.84,-159.98 155.22,-147.21 140.06,-137.35"/>
<polygon fill="midnightblue" stroke="midnightblue" points="141.59,-134.17 131.3,-131.65 137.78,-140.04 141.59,-134.17"/>
</g>
<!-- Node16 -->
<g id="node16" class="node">
<title>Node16</title>
<g id="a_node16"><a xlink:title=" ">
<polygon fill="white" stroke="#bfbfbf" points="187.5,-112.5 187.5,-131.5 246.5,-131.5 246.5,-112.5 187.5,-112.5"/>
<text text-anchor="middle" x="217" y="-119.5" font-family="Helvetica,sans-Serif" font-size="10.00">functional</text>
</a>
</g>
</g>
<!-- Node15&#45;&gt;Node16 -->
<g id="edge20" class="edge">
<title>Node15&#45;&gt;Node16</title>
<path fill="none" stroke="midnightblue" d="M203.64,-168.08C205.79,-160.85 208.88,-150.41 211.55,-141.4"/>
<polygon fill="midnightblue" stroke="midnightblue" points="214.92,-142.33 214.41,-131.75 208.21,-140.34 214.92,-142.33"/>
</g>
<!-- Node19&#45;&gt;Node2 -->
<g id="edge29" class="edge">
<title>Node19&#45;&gt;Node2</title>
<path fill="none" stroke="midnightblue" d="M319.77,-504.32C303.65,-495.7 278.7,-482.36 260.04,-472.39"/>
<polygon fill="midnightblue" stroke="midnightblue" points="261.66,-469.28 251.19,-467.65 258.36,-475.46 261.66,-469.28"/>
</g>
<!-- Node20 -->
<g id="node20" class="node">
<title>Node20</title>
<g id="a_node20"><a xlink:href="_player_8hpp.html" target="_top" xlink:title=" ">
<polygon fill="white" stroke="black" points="268,-392.5 268,-411.5 396,-411.5 396,-392.5 268,-392.5"/>
<text text-anchor="middle" x="332" y="-399.5" font-family="Helvetica,sans-Serif" font-size="10.00">engine/objects/Player.hpp</text>
</a>
</g>
</g>
<!-- Node19&#45;&gt;Node20 -->
<g id="edge26" class="edge">
<title>Node19&#45;&gt;Node20</title>
<path fill="none" stroke="midnightblue" d="M335.69,-504.37C335.04,-486.62 333.55,-445.67 332.68,-421.6"/>
<polygon fill="midnightblue" stroke="midnightblue" points="336.17,-421.46 332.31,-411.59 329.18,-421.71 336.17,-421.46"/>
</g>
<!-- Node20&#45;&gt;Node4 -->
<g id="edge28" class="edge">
<title>Node20&#45;&gt;Node4</title>
<path fill="none" stroke="midnightblue" d="M307.28,-392.44C281.15,-383.4 239.74,-369.06 210.42,-358.92"/>
<polygon fill="midnightblue" stroke="midnightblue" points="211.2,-355.48 200.6,-355.52 208.91,-362.1 211.2,-355.48"/>
</g>
<!-- Node20&#45;&gt;Node10 -->
<g id="edge27" class="edge">
<title>Node20&#45;&gt;Node10</title>
<path fill="none" stroke="midnightblue" d="M339.74,-392.31C354.67,-374.59 386,-332.48 386,-291 386,-291 386,-291 386,-233 386,-194.55 355.57,-158.31 335.42,-138.54"/>
<polygon fill="midnightblue" stroke="midnightblue" points="337.71,-135.89 328.03,-131.57 332.9,-140.98 337.71,-135.89"/>
</g>
</g>
</svg>
