<?xml version="1.0" encoding="UTF-8" standalone="no"?>
<!DOCTYPE svg PUBLIC "-//W3C//DTD SVG 1.1//EN"
 "http://www.w3.org/Graphics/SVG/1.1/DTD/svg11.dtd">
<!-- Generated by graphviz version 2.47.1 (20210421.1823)
 -->
<!-- Title: src/engine/objects/Unit.cpp Pages: 1 -->
<svg width="461pt" height="599pt"
 viewBox="0.00 0.00 461.00 599.00" xmlns="http://www.w3.org/2000/svg" xmlns:xlink="http://www.w3.org/1999/xlink">
<g id="graph0" class="graph" transform="scale(1 1) rotate(0) translate(4 595)">
<title>src/engine/objects/Unit.cpp</title>
<polygon fill="white" stroke="transparent" points="-4,4 -4,-595 457,-595 457,4 -4,4"/>
<!-- Node1 -->
<g id="node1" class="node">
<title>Node1</title>
<g id="a_node1"><a xlink:title=" ">
<polygon fill="#bfbfbf" stroke="black" points="169,-560.5 169,-590.5 265,-590.5 265,-560.5 169,-560.5"/>
<text text-anchor="start" x="177" y="-578.5" font-family="Helvetica,sans-Serif" font-size="10.00">src/engine/objects</text>
<text text-anchor="middle" x="217" y="-567.5" font-family="Helvetica,sans-Serif" font-size="10.00">/Unit.cpp</text>
</a>
</g>
</g>
<!-- Node2 -->
<g id="node2" class="node">
<title>Node2</title>
<g id="a_node2"><a xlink:href="_timer_8hpp.html" target="_top" xlink:title=" ">
<polygon fill="white" stroke="black" points="99.5,-504.5 99.5,-523.5 158.5,-523.5 158.5,-504.5 99.5,-504.5"/>
<text text-anchor="middle" x="129" y="-511.5" font-family="Helvetica,sans-Serif" font-size="10.00">Timer.hpp</text>
</a>
</g>
</g>
<!-- Node1&#45;&gt;Node2 -->
<g id="edge1" class="edge">
<title>Node1&#45;&gt;Node2</title>
<path fill="none" stroke="midnightblue" d="M196.15,-560.4C182.3,-551.04 164.19,-538.79 150.26,-529.38"/>
<polygon fill="midnightblue" stroke="midnightblue" points="152.05,-526.36 141.8,-523.66 148.13,-532.16 152.05,-526.36"/>
</g>
<!-- Node4 -->
<g id="node4" class="node">
<title>Node4</title>
<g id="a_node4"><a xlink:href="_unit_8hpp.html" target="_top" xlink:title=" ">
<polygon fill="white" stroke="black" points="131.5,-392.5 131.5,-411.5 250.5,-411.5 250.5,-392.5 131.5,-392.5"/>
<text text-anchor="middle" x="191" y="-399.5" font-family="Helvetica,sans-Serif" font-size="10.00">engine/objects/Unit.hpp</text>
</a>
</g>
</g>
<!-- Node1&#45;&gt;Node4 -->
<g id="edge3" class="edge">
<title>Node1&#45;&gt;Node4</title>
<path fill="none" stroke="midnightblue" d="M214.87,-560.47C210.21,-529.7 199.08,-456.33 193.84,-421.7"/>
<polygon fill="midnightblue" stroke="midnightblue" points="197.26,-420.92 192.3,-411.56 190.34,-421.97 197.26,-420.92"/>
</g>
<!-- Node18 -->
<g id="node18" class="node">
<title>Node18</title>
<g id="a_node18"><a xlink:title=" ">
<polygon fill="white" stroke="#bfbfbf" points="317,-504.5 317,-523.5 371,-523.5 371,-504.5 317,-504.5"/>
<text text-anchor="middle" x="344" y="-511.5" font-family="Helvetica,sans-Serif" font-size="10.00">iostream</text>
</a>
</g>
</g>
<!-- Node1&#45;&gt;Node18 -->
<g id="edge23" class="edge">
<title>Node1&#45;&gt;Node18</title>
<path fill="none" stroke="midnightblue" d="M247.1,-560.4C268.12,-550.55 295.97,-537.5 316.42,-527.92"/>
<polygon fill="midnightblue" stroke="midnightblue" points="317.95,-531.07 325.52,-523.66 314.98,-524.73 317.95,-531.07"/>
</g>
<!-- Node19 -->
<g id="node19" class="node">
<title>Node19</title>
<g id="a_node19"><a xlink:href="_engine_8hpp.html" target="_top" xlink:title=" ">
<polygon fill="white" stroke="black" points="235,-504.5 235,-523.5 299,-523.5 299,-504.5 235,-504.5"/>
<text text-anchor="middle" x="267" y="-511.5" font-family="Helvetica,sans-Serif" font-size="10.00">Engine.hpp</text>
</a>
</g>
</g>
<!-- Node1&#45;&gt;Node19 -->
<g id="edge24" class="edge">
<title>Node1&#45;&gt;Node19</title>
<path fill="none" stroke="midnightblue" d="M228.85,-560.4C236.11,-551.75 245.45,-540.64 253.07,-531.58"/>
<polygon fill="midnightblue" stroke="midnightblue" points="255.97,-533.57 259.72,-523.66 250.61,-529.06 255.97,-533.57"/>
</g>
<!-- Node3 -->
<g id="node3" class="node">
<title>Node3</title>
<g id="a_node3"><a xlink:title=" ">
<polygon fill="white" stroke="#bfbfbf" points="106,-448.5 106,-467.5 152,-467.5 152,-448.5 106,-448.5"/>
<text text-anchor="middle" x="129" y="-455.5" font-family="Helvetica,sans-Serif" font-size="10.00">cstdint</text>
</a>
</g>
</g>
<!-- Node2&#45;&gt;Node3 -->
<g id="edge2" class="edge">
<title>Node2&#45;&gt;Node3</title>
<path fill="none" stroke="midnightblue" d="M129,-504.08C129,-497.01 129,-486.86 129,-477.99"/>
<polygon fill="midnightblue" stroke="midnightblue" points="132.5,-477.75 129,-467.75 125.5,-477.75 132.5,-477.75"/>
</g>
<!-- Node5 -->
<g id="node5" class="node">
<title>Node5</title>
<g id="a_node5"><a xlink:href="_world_actor_8hpp.html" target="_top" xlink:title=" ">
<polygon fill="white" stroke="black" points="134,-336.5 134,-355.5 248,-355.5 248,-336.5 134,-336.5"/>
<text text-anchor="middle" x="191" y="-343.5" font-family="Helvetica,sans-Serif" font-size="10.00">engine/WorldActor.hpp</text>
</a>
</g>
</g>
<!-- Node4&#45;&gt;Node5 -->
<g id="edge4" class="edge">
<title>Node4&#45;&gt;Node5</title>
<path fill="none" stroke="midnightblue" d="M191,-392.08C191,-385.01 191,-374.86 191,-365.99"/>
<polygon fill="midnightblue" stroke="midnightblue" points="194.5,-365.75 191,-355.75 187.5,-365.75 194.5,-365.75"/>
</g>
<!-- Node6 -->
<g id="node6" class="node">
<title>Node6</title>
<g id="a_node6"><a xlink:href="_vector2_d_8hpp.html" target="_top" xlink:title=" ">
<polygon fill="white" stroke="black" points="0,-56.5 0,-75.5 112,-75.5 112,-56.5 0,-56.5"/>
<text text-anchor="middle" x="56" y="-63.5" font-family="Helvetica,sans-Serif" font-size="10.00">Helpers/Vector2D.hpp</text>
</a>
</g>
</g>
<!-- Node5&#45;&gt;Node6 -->
<g id="edge5" class="edge">
<title>Node5&#45;&gt;Node6</title>
<path fill="none" stroke="midnightblue" d="M145.09,-336.47C93.84,-323.99 18,-295.33 18,-235 18,-235 18,-235 18,-177 18,-142.81 34.6,-105.76 45.86,-84.57"/>
<polygon fill="midnightblue" stroke="midnightblue" points="48.95,-86.22 50.72,-75.77 42.82,-82.83 48.95,-86.22"/>
</g>
<!-- Node9 -->
<g id="node9" class="node">
<title>Node9</title>
<g id="a_node9"><a xlink:href="_field_8hpp.html" target="_top" xlink:title=" ">
<polygon fill="white" stroke="black" points="163,-280.5 163,-299.5 219,-299.5 219,-280.5 163,-280.5"/>
<text text-anchor="middle" x="191" y="-287.5" font-family="Helvetica,sans-Serif" font-size="10.00">Field.hpp</text>
</a>
</g>
</g>
<!-- Node5&#45;&gt;Node9 -->
<g id="edge8" class="edge">
<title>Node5&#45;&gt;Node9</title>
<path fill="none" stroke="midnightblue" d="M191,-336.08C191,-329.01 191,-318.86 191,-309.99"/>
<polygon fill="midnightblue" stroke="midnightblue" points="194.5,-309.75 191,-299.75 187.5,-309.75 194.5,-309.75"/>
</g>
<!-- Node7 -->
<g id="node7" class="node">
<title>Node7</title>
<g id="a_node7"><a xlink:title=" ">
<polygon fill="white" stroke="#bfbfbf" points="6.5,-0.5 6.5,-19.5 45.5,-19.5 45.5,-0.5 6.5,-0.5"/>
<text text-anchor="middle" x="26" y="-7.5" font-family="Helvetica,sans-Serif" font-size="10.00">utility</text>
</a>
</g>
</g>
<!-- Node6&#45;&gt;Node7 -->
<g id="edge6" class="edge">
<title>Node6&#45;&gt;Node7</title>
<path fill="none" stroke="midnightblue" d="M51.05,-56.08C46.9,-48.61 40.85,-37.72 35.73,-28.52"/>
<polygon fill="midnightblue" stroke="midnightblue" points="38.78,-26.79 30.86,-19.75 32.66,-30.19 38.78,-26.79"/>
</g>
<!-- Node8 -->
<g id="node8" class="node">
<title>Node8</title>
<g id="a_node8"><a xlink:title=" ">
<polygon fill="white" stroke="#bfbfbf" points="64,-0.5 64,-19.5 108,-19.5 108,-0.5 64,-0.5"/>
<text text-anchor="middle" x="86" y="-7.5" font-family="Helvetica,sans-Serif" font-size="10.00">cmath</text>
</a>
</g>
</g>
<!-- Node6&#45;&gt;Node8 -->
<g id="edge7" class="edge">
<title>Node6&#45;&gt;Node8</title>
<path fill="none" stroke="midnightblue" d="M60.95,-56.08C65.1,-48.61 71.15,-37.72 76.27,-28.52"/>
<polygon fill="midnightblue" stroke="midnightblue" points="79.34,-30.19 81.14,-19.75 73.22,-26.79 79.34,-30.19"/>
</g>
<!-- Node9&#45;&gt;Node6 -->
<g id="edge22" class="edge">
<title>Node9&#45;&gt;Node6</title>
<path fill="none" stroke="midnightblue" d="M175.53,-280.47C149.92,-265.45 99.16,-231.7 75,-188 56.97,-155.39 54.72,-110.72 55.1,-85.79"/>
<polygon fill="midnightblue" stroke="midnightblue" points="58.6,-85.66 55.42,-75.55 51.61,-85.44 58.6,-85.66"/>
</g>
<!-- Node10 -->
<g id="node10" class="node">
<title>Node10</title>
<g id="a_node10"><a xlink:href="_cell_8hpp.html" target="_top" xlink:title=" ">
<polygon fill="white" stroke="black" points="151.5,-224.5 151.5,-243.5 268.5,-243.5 268.5,-224.5 151.5,-224.5"/>
<text text-anchor="middle" x="210" y="-231.5" font-family="Helvetica,sans-Serif" font-size="10.00">engine/objects/Cell.hpp</text>
</a>
</g>
</g>
<!-- Node9&#45;&gt;Node10 -->
<g id="edge9" class="edge">
<title>Node9&#45;&gt;Node10</title>
<path fill="none" stroke="midnightblue" d="M194.14,-280.08C196.68,-272.85 200.36,-262.41 203.53,-253.4"/>
<polygon fill="midnightblue" stroke="midnightblue" points="206.9,-254.35 206.92,-243.75 200.3,-252.02 206.9,-254.35"/>
</g>
<!-- Node11 -->
<g id="node11" class="node">
<title>Node11</title>
<g id="a_node11"><a xlink:href="_drawable_8hpp.html" target="_top" xlink:title=" ">
<polygon fill="white" stroke="black" points="299.5,-112.5 299.5,-131.5 406.5,-131.5 406.5,-112.5 299.5,-112.5"/>
<text text-anchor="middle" x="353" y="-119.5" font-family="Helvetica,sans-Serif" font-size="10.00">engine/Drawable.hpp</text>
</a>
</g>
</g>
<!-- Node10&#45;&gt;Node11 -->
<g id="edge10" class="edge">
<title>Node10&#45;&gt;Node11</title>
<path fill="none" stroke="midnightblue" d="M268.71,-228.35C296.75,-222.95 328.2,-211.59 347,-188 357.25,-175.13 357.81,-155.95 356.36,-141.76"/>
<polygon fill="midnightblue" stroke="midnightblue" points="359.8,-141.07 354.93,-131.66 352.87,-142.06 359.8,-141.07"/>
</g>
<!-- Node13 -->
<g id="node13" class="node">
<title>Node13</title>
<g id="a_node13"><a xlink:href="_tickable_8hpp.html" target="_top" xlink:title=" ">
<polygon fill="white" stroke="black" points="178.5,-112.5 178.5,-131.5 281.5,-131.5 281.5,-112.5 178.5,-112.5"/>
<text text-anchor="middle" x="230" y="-119.5" font-family="Helvetica,sans-Serif" font-size="10.00">engine/Tickable.hpp</text>
</a>
</g>
</g>
<!-- Node10&#45;&gt;Node13 -->
<g id="edge13" class="edge">
<title>Node10&#45;&gt;Node13</title>
<path fill="none" stroke="midnightblue" d="M213.65,-224.21C217.18,-215.26 222.39,-200.92 225,-188 228.12,-172.55 229.32,-154.69 229.77,-141.6"/>
<polygon fill="midnightblue" stroke="midnightblue" points="233.28,-141.58 230.01,-131.5 226.28,-141.42 233.28,-141.58"/>
</g>
<!-- Node14 -->
<g id="node14" class="node">
<title>Node14</title>
<g id="a_node14"><a xlink:title=" ">
<polygon fill="white" stroke="#bfbfbf" points="172,-168.5 172,-187.5 216,-187.5 216,-168.5 172,-168.5"/>
<text text-anchor="middle" x="194" y="-175.5" font-family="Helvetica,sans-Serif" font-size="10.00">vector</text>
</a>
</g>
</g>
<!-- Node10&#45;&gt;Node14 -->
<g id="edge14" class="edge">
<title>Node10&#45;&gt;Node14</title>
<path fill="none" stroke="midnightblue" d="M207.36,-224.08C205.21,-216.85 202.12,-206.41 199.45,-197.4"/>
<polygon fill="midnightblue" stroke="midnightblue" points="202.79,-196.34 196.59,-187.75 196.08,-198.33 202.79,-196.34"/>
</g>
<!-- Node15 -->
<g id="node15" class="node">
<title>Node15</title>
<g id="a_node15"><a xlink:href="_ground_8hpp.html" target="_top" xlink:title=" ">
<polygon fill="white" stroke="black" points="272,-168.5 272,-187.5 338,-187.5 338,-168.5 272,-168.5"/>
<text text-anchor="middle" x="305" y="-175.5" font-family="Helvetica,sans-Serif" font-size="10.00">Ground.hpp</text>
</a>
</g>
</g>
<!-- Node10&#45;&gt;Node15 -->
<g id="edge15" class="edge">
<title>Node10&#45;&gt;Node15</title>
<path fill="none" stroke="midnightblue" d="M225.26,-224.32C240.22,-215.82 263.25,-202.73 280.73,-192.8"/>
<polygon fill="midnightblue" stroke="midnightblue" points="282.81,-195.64 289.77,-187.65 279.35,-189.55 282.81,-195.64"/>
</g>
<!-- Node16 -->
<g id="node16" class="node">
<title>Node16</title>
<g id="a_node16"><a xlink:href="_building_8hpp.html" target="_top" xlink:title=" ">
<polygon fill="white" stroke="black" points="84.5,-168.5 84.5,-187.5 153.5,-187.5 153.5,-168.5 84.5,-168.5"/>
<text text-anchor="middle" x="119" y="-175.5" font-family="Helvetica,sans-Serif" font-size="10.00">Building.hpp</text>
</a>
</g>
</g>
<!-- Node10&#45;&gt;Node16 -->
<g id="edge18" class="edge">
<title>Node10&#45;&gt;Node16</title>
<path fill="none" stroke="midnightblue" d="M195.38,-224.32C181.05,-215.82 158.99,-202.73 142.25,-192.8"/>
<polygon fill="midnightblue" stroke="midnightblue" points="143.97,-189.75 133.58,-187.65 140.4,-195.77 143.97,-189.75"/>
</g>
<!-- Node11&#45;&gt;Node6 -->
<g id="edge12" class="edge">
<title>Node11&#45;&gt;Node6</title>
<path fill="none" stroke="midnightblue" d="M305.94,-112.44C253.59,-102.92 169.01,-87.55 112.96,-77.36"/>
<polygon fill="midnightblue" stroke="midnightblue" points="113.31,-73.86 102.84,-75.52 112.05,-80.75 113.31,-73.86"/>
</g>
<!-- Node12 -->
<g id="node12" class="node">
<title>Node12</title>
<g id="a_node12"><a xlink:title=" ">
<polygon fill="white" stroke="#bfbfbf" points="320,-56.5 320,-75.5 386,-75.5 386,-56.5 320,-56.5"/>
<text text-anchor="middle" x="353" y="-63.5" font-family="Helvetica,sans-Serif" font-size="10.00">string_view</text>
</a>
</g>
</g>
<!-- Node11&#45;&gt;Node12 -->
<g id="edge11" class="edge">
<title>Node11&#45;&gt;Node12</title>
<path fill="none" stroke="midnightblue" d="M353,-112.08C353,-105.01 353,-94.86 353,-85.99"/>
<polygon fill="midnightblue" stroke="midnightblue" points="356.5,-85.75 353,-75.75 349.5,-85.75 356.5,-85.75"/>
</g>
<!-- Node15&#45;&gt;Node11 -->
<g id="edge16" class="edge">
<title>Node15&#45;&gt;Node11</title>
<path fill="none" stroke="midnightblue" d="M312.93,-168.08C319.85,-160.3 330.07,-148.8 338.45,-139.37"/>
<polygon fill="midnightblue" stroke="midnightblue" points="341.19,-141.55 345.22,-131.75 335.96,-136.9 341.19,-141.55"/>
</g>
<!-- Node15&#45;&gt;Node13 -->
<g id="edge17" class="edge">
<title>Node15&#45;&gt;Node13</title>
<path fill="none" stroke="midnightblue" d="M292.95,-168.32C281.54,-160.11 264.17,-147.6 250.57,-137.81"/>
<polygon fill="midnightblue" stroke="midnightblue" points="252.43,-134.84 242.27,-131.83 248.34,-140.52 252.43,-134.84"/>
</g>
<!-- Node16&#45;&gt;Node11 -->
<g id="edge19" class="edge">
<title>Node16&#45;&gt;Node11</title>
<path fill="none" stroke="midnightblue" d="M153.53,-169.03C193.95,-159.7 261.09,-144.21 306.18,-133.8"/>
<polygon fill="midnightblue" stroke="midnightblue" points="307.05,-137.2 316.01,-131.54 305.48,-130.37 307.05,-137.2"/>
</g>
<!-- Node16&#45;&gt;Node13 -->
<g id="edge20" class="edge">
<title>Node16&#45;&gt;Node13</title>
<path fill="none" stroke="midnightblue" d="M136.83,-168.32C154.72,-159.62 182.48,-146.12 203.05,-136.11"/>
<polygon fill="midnightblue" stroke="midnightblue" points="204.75,-139.18 212.21,-131.65 201.69,-132.88 204.75,-139.18"/>
</g>
<!-- Node17 -->
<g id="node17" class="node">
<title>Node17</title>
<g id="a_node17"><a xlink:title=" ">
<polygon fill="white" stroke="#bfbfbf" points="89.5,-112.5 89.5,-131.5 148.5,-131.5 148.5,-112.5 89.5,-112.5"/>
<text text-anchor="middle" x="119" y="-119.5" font-family="Helvetica,sans-Serif" font-size="10.00">functional</text>
</a>
</g>
</g>
<!-- Node16&#45;&gt;Node17 -->
<g id="edge21" class="edge">
<title>Node16&#45;&gt;Node17</title>
<path fill="none" stroke="midnightblue" d="M119,-168.08C119,-161.01 119,-150.86 119,-141.99"/>
<polygon fill="midnightblue" stroke="midnightblue" points="122.5,-141.75 119,-131.75 115.5,-141.75 122.5,-141.75"/>
</g>
<!-- Node20 -->
<g id="node20" class="node">
<title>Node20</title>
<g id="a_node20"><a xlink:href="_player_8hpp.html" target="_top" xlink:title=" ">
<polygon fill="white" stroke="black" points="325,-392.5 325,-411.5 453,-411.5 453,-392.5 325,-392.5"/>
<text text-anchor="middle" x="389" y="-399.5" font-family="Helvetica,sans-Serif" font-size="10.00">engine/objects/Player.hpp</text>
</a>
</g>
</g>
<!-- Node19&#45;&gt;Node20 -->
<g id="edge25" class="edge">
<title>Node19&#45;&gt;Node20</title>
<path fill="none" stroke="midnightblue" d="M299.19,-506.55C322.01,-500.37 351.69,-488.8 370,-468 381.28,-455.19 385.87,-436 387.74,-421.79"/>
<polygon fill="midnightblue" stroke="midnightblue" points="391.24,-421.97 388.73,-411.68 384.27,-421.29 391.24,-421.97"/>
</g>
<!-- Node21 -->
<g id="node21" class="node">
<title>Node21</title>
<g id="a_node21"><a xlink:href="_unit_group_8hpp.html" target="_top" xlink:title=" ">
<polygon fill="white" stroke="black" points="215.5,-448.5 215.5,-467.5 360.5,-467.5 360.5,-448.5 215.5,-448.5"/>
<text text-anchor="middle" x="288" y="-455.5" font-family="Helvetica,sans-Serif" font-size="10.00">engine/objects/UnitGroup.hpp</text>
</a>
</g>
</g>
<!-- Node19&#45;&gt;Node21 -->
<g id="edge28" class="edge">
<title>Node19&#45;&gt;Node21</title>
<path fill="none" stroke="midnightblue" d="M270.47,-504.08C273.31,-496.77 277.43,-486.18 280.96,-477.1"/>
<polygon fill="midnightblue" stroke="midnightblue" points="284.23,-478.34 284.6,-467.75 277.71,-475.8 284.23,-478.34"/>
</g>
<!-- Node20&#45;&gt;Node5 -->
<g id="edge27" class="edge">
<title>Node20&#45;&gt;Node5</title>
<path fill="none" stroke="midnightblue" d="M357.63,-392.44C323.74,-383.2 269.6,-368.44 232.28,-358.26"/>
<polygon fill="midnightblue" stroke="midnightblue" points="232.8,-354.77 222.23,-355.52 230.95,-361.52 232.8,-354.77"/>
</g>
<!-- Node20&#45;&gt;Node11 -->
<g id="edge26" class="edge">
<title>Node20&#45;&gt;Node11</title>
<path fill="none" stroke="midnightblue" d="M390.96,-392.5C395.03,-374.09 404,-329.16 404,-291 404,-291 404,-291 404,-233 404,-197.24 381.55,-160.51 366.44,-139.84"/>
<polygon fill="midnightblue" stroke="midnightblue" points="369.14,-137.61 360.31,-131.77 363.57,-141.85 369.14,-137.61"/>
</g>
<!-- Node21&#45;&gt;Node4 -->
<g id="edge29" class="edge">
<title>Node21&#45;&gt;Node4</title>
<path fill="none" stroke="midnightblue" d="M272.42,-448.32C257,-439.74 233.19,-426.49 215.29,-416.52"/>
<polygon fill="midnightblue" stroke="midnightblue" points="216.99,-413.46 206.55,-411.65 213.58,-419.58 216.99,-413.46"/>
</g>
<!-- Node22 -->
<g id="node22" class="node">
<title>Node22</title>
<g id="a_node22"><a xlink:title=" ">
<polygon fill="white" stroke="#bfbfbf" points="273.5,-392.5 273.5,-411.5 302.5,-411.5 302.5,-392.5 273.5,-392.5"/>
<text text-anchor="middle" x="288" y="-399.5" font-family="Helvetica,sans-Serif" font-size="10.00">list</text>
</a>
</g>
</g>
<!-- Node21&#45;&gt;Node22 -->
<g id="edge30" class="edge">
<title>Node21&#45;&gt;Node22</title>
<path fill="none" stroke="midnightblue" d="M288,-448.08C288,-441.01 288,-430.86 288,-421.99"/>
<polygon fill="midnightblue" stroke="midnightblue" points="291.5,-421.75 288,-411.75 284.5,-421.75 291.5,-421.75"/>
</g>
</g>
</svg>
