<?xml version="1.0" encoding="UTF-8" standalone="no"?>
<!DOCTYPE svg PUBLIC "-//W3C//DTD SVG 1.1//EN"
 "http://www.w3.org/Graphics/SVG/1.1/DTD/svg11.dtd">
<!-- Generated by graphviz version 2.47.0 (20210407.0042)
 -->
<!-- Title: include/Helpers/Vector2D.hpp Pages: 1 -->
<svg width="1399pt" height="598pt"
 viewBox="0.00 0.00 1398.64 598.00" xmlns="http://www.w3.org/2000/svg" xmlns:xlink="http://www.w3.org/1999/xlink">
<g id="graph0" class="graph" transform="scale(1 1) rotate(0) translate(4 594)">
<title>include/Helpers/Vector2D.hpp</title>
<polygon fill="white" stroke="transparent" points="-4,4 -4,-594 1394.64,-594 1394.64,4 -4,4"/>
<!-- Node1 -->
<g id="node1" class="node">
<title>Node1</title>
<g id="a_node1"><a xlink:title=" ">
<polygon fill="#bfbfbf" stroke="black" points="928,-570.5 928,-589.5 1074,-589.5 1074,-570.5 928,-570.5"/>
<text text-anchor="middle" x="1001" y="-577.5" font-family="Helvetica,sans-Serif" font-size="10.00">include/Helpers/Vector2D.hpp</text>
</a>
</g>
</g>
<!-- Node2 -->
<g id="node2" class="node">
<title>Node2</title>
<g id="a_node2"><a xlink:href="_vector2_d_8cpp.html" target="_top" xlink:title=" ">
<polygon fill="white" stroke="black" points="544,-514.5 544,-533.5 672,-533.5 672,-514.5 544,-514.5"/>
<text text-anchor="middle" x="608" y="-521.5" font-family="Helvetica,sans-Serif" font-size="10.00">src/Helpers/Vector2D.cpp</text>
</a>
</g>
</g>
<!-- Node1&#45;&gt;Node2 -->
<g id="edge1" class="edge">
<title>Node1&#45;&gt;Node2</title>
<path fill="none" stroke="midnightblue" d="M928.53,-569.04C854.3,-558.84 740.14,-543.16 669.98,-533.52"/>
<polygon fill="midnightblue" stroke="midnightblue" points="928.34,-572.55 938.73,-570.44 929.3,-565.61 928.34,-572.55"/>
</g>
<!-- Node3 -->
<g id="node3" class="node">
<title>Node3</title>
<g id="a_node3"><a xlink:href="_drawable_8hpp.html" target="_top" xlink:title=" ">
<polygon fill="white" stroke="black" points="690,-514.5 690,-533.5 830,-533.5 830,-514.5 690,-514.5"/>
<text text-anchor="middle" x="760" y="-521.5" font-family="Helvetica,sans-Serif" font-size="10.00">include/engine/Drawable.hpp</text>
</a>
</g>
</g>
<!-- Node1&#45;&gt;Node3 -->
<g id="edge2" class="edge">
<title>Node1&#45;&gt;Node3</title>
<path fill="none" stroke="midnightblue" d="M952.88,-568.22C907.34,-558.01 839.89,-542.9 798.01,-533.52"/>
<polygon fill="midnightblue" stroke="midnightblue" points="952.29,-571.67 962.81,-570.44 953.82,-564.84 952.29,-571.67"/>
</g>
<!-- Node9 -->
<g id="node9" class="node">
<title>Node9</title>
<g id="a_node9"><a xlink:href="_field_8hpp.html" target="_top" xlink:title=" ">
<polygon fill="white" stroke="black" points="889.5,-319 889.5,-338 1010.5,-338 1010.5,-319 889.5,-319"/>
<text text-anchor="middle" x="950" y="-326" font-family="Helvetica,sans-Serif" font-size="10.00">include/engine/Field.hpp</text>
</a>
</g>
</g>
<!-- Node1&#45;&gt;Node9 -->
<g id="edge44" class="edge">
<title>Node1&#45;&gt;Node9</title>
<path fill="none" stroke="midnightblue" d="M1002.06,-560.35C1003.48,-524.38 1003.72,-443.4 982,-380 976.48,-363.9 964.9,-347.7 957.29,-338.14"/>
<polygon fill="midnightblue" stroke="midnightblue" points="998.56,-560.21 1001.58,-570.36 1005.55,-560.54 998.56,-560.21"/>
</g>
<!-- Node11 -->
<g id="node11" class="node">
<title>Node11</title>
<g id="a_node11"><a xlink:href="_world_actor_8hpp.html" target="_top" xlink:title=" ">
<polygon fill="white" stroke="black" points="793,-257.5 793,-276.5 941,-276.5 941,-257.5 793,-257.5"/>
<text text-anchor="middle" x="867" y="-264.5" font-family="Helvetica,sans-Serif" font-size="10.00">include/engine/WorldActor.hpp</text>
</a>
</g>
</g>
<!-- Node1&#45;&gt;Node11 -->
<g id="edge45" class="edge">
<title>Node1&#45;&gt;Node11</title>
<path fill="none" stroke="midnightblue" d="M1010.65,-561.47C1021.91,-539.33 1039,-499.75 1039,-463.5 1039,-463.5 1039,-463.5 1039,-394.5 1039,-357.2 1044.74,-339.99 1019,-313 1004.42,-297.72 952.68,-284.58 913.58,-276.51"/>
<polygon fill="midnightblue" stroke="midnightblue" points="1007.54,-559.86 1005.97,-570.34 1013.73,-563.13 1007.54,-559.86"/>
</g>
<!-- Node34 -->
<g id="node34" class="node">
<title>Node34</title>
<g id="a_node34"><a xlink:href="_event_handler_8hpp.html" target="_top" xlink:title=" ">
<polygon fill="white" stroke="black" points="1067.5,-380.5 1067.5,-410.5 1176.5,-410.5 1176.5,-380.5 1067.5,-380.5"/>
<text text-anchor="start" x="1075.5" y="-398.5" font-family="Helvetica,sans-Serif" font-size="10.00">include/EventHandler</text>
<text text-anchor="middle" x="1122" y="-387.5" font-family="Helvetica,sans-Serif" font-size="10.00">/EventHandler.hpp</text>
</a>
</g>
</g>
<!-- Node1&#45;&gt;Node34 -->
<g id="edge46" class="edge">
<title>Node1&#45;&gt;Node34</title>
<path fill="none" stroke="midnightblue" d="M1021.51,-564.34C1031.85,-556.23 1044.06,-545.48 1053,-534 1084.33,-493.74 1107.32,-437.02 1116.97,-410.81"/>
<polygon fill="midnightblue" stroke="midnightblue" points="1019.24,-561.67 1013.37,-570.49 1023.46,-567.26 1019.24,-561.67"/>
</g>
<!-- Node4 -->
<g id="node4" class="node">
<title>Node4</title>
<g id="a_node4"><a xlink:href="_drawable_8cpp.html" target="_top" xlink:title=" ">
<polygon fill="white" stroke="black" points="732.5,-0.5 732.5,-19.5 855.5,-19.5 855.5,-0.5 732.5,-0.5"/>
<text text-anchor="middle" x="794" y="-7.5" font-family="Helvetica,sans-Serif" font-size="10.00">src/engine/Drawable.cpp</text>
</a>
</g>
</g>
<!-- Node3&#45;&gt;Node4 -->
<g id="edge3" class="edge">
<title>Node3&#45;&gt;Node4</title>
<path fill="none" stroke="midnightblue" d="M679.57,-514.11C574.34,-508.51 101.67,-514.65 44,-478 9.26,-455.92 0,-437.66 0,-396.5 0,-396.5 0,-396.5 0,-137.5 0,-63.43 545.8,-25.23 732.36,-14.33"/>
<polygon fill="midnightblue" stroke="midnightblue" points="679.6,-517.62 689.81,-514.79 680.06,-510.64 679.6,-517.62"/>
</g>
<!-- Node5 -->
<g id="node5" class="node">
<title>Node5</title>
<g id="a_node5"><a xlink:href="_building_8hpp.html" target="_top" xlink:title=" ">
<polygon fill="white" stroke="black" points="788.5,-447.5 788.5,-477.5 901.5,-477.5 901.5,-447.5 788.5,-447.5"/>
<text text-anchor="start" x="796.5" y="-465.5" font-family="Helvetica,sans-Serif" font-size="10.00">include/engine/objects</text>
<text text-anchor="middle" x="845" y="-454.5" font-family="Helvetica,sans-Serif" font-size="10.00">/Building.hpp</text>
</a>
</g>
</g>
<!-- Node3&#45;&gt;Node5 -->
<g id="edge4" class="edge">
<title>Node3&#45;&gt;Node5</title>
<path fill="none" stroke="midnightblue" d="M780.37,-508.74C793.88,-499.28 811.53,-486.93 824.97,-477.52"/>
<polygon fill="midnightblue" stroke="midnightblue" points="778.36,-505.87 772.18,-514.48 782.38,-511.61 778.36,-505.87"/>
</g>
<!-- Node7 -->
<g id="node7" class="node">
<title>Node7</title>
<g id="a_node7"><a xlink:href="_cell_8hpp.html" target="_top" xlink:title=" ">
<polygon fill="white" stroke="black" points="745.5,-380.5 745.5,-410.5 858.5,-410.5 858.5,-380.5 745.5,-380.5"/>
<text text-anchor="start" x="753.5" y="-398.5" font-family="Helvetica,sans-Serif" font-size="10.00">include/engine/objects</text>
<text text-anchor="middle" x="802" y="-387.5" font-family="Helvetica,sans-Serif" font-size="10.00">/Cell.hpp</text>
</a>
</g>
</g>
<!-- Node3&#45;&gt;Node7 -->
<g id="edge27" class="edge">
<title>Node3&#45;&gt;Node7</title>
<path fill="none" stroke="midnightblue" d="M763.64,-504.5C766.93,-488.94 772.28,-466.22 779,-447 783.39,-434.45 789.73,-420.76 794.64,-410.8"/>
<polygon fill="midnightblue" stroke="midnightblue" points="760.18,-503.92 761.61,-514.42 767.04,-505.32 760.18,-503.92"/>
</g>
<!-- Node13 -->
<g id="node13" class="node">
<title>Node13</title>
<g id="a_node13"><a xlink:href="_player_8hpp.html" target="_top" xlink:title=" ">
<polygon fill="white" stroke="black" points="487.5,-190.5 487.5,-220.5 600.5,-220.5 600.5,-190.5 487.5,-190.5"/>
<text text-anchor="start" x="495.5" y="-208.5" font-family="Helvetica,sans-Serif" font-size="10.00">include/engine/objects</text>
<text text-anchor="middle" x="544" y="-197.5" font-family="Helvetica,sans-Serif" font-size="10.00">/Player.hpp</text>
</a>
</g>
</g>
<!-- Node3&#45;&gt;Node13 -->
<g id="edge43" class="edge">
<title>Node3&#45;&gt;Node13</title>
<path fill="none" stroke="midnightblue" d="M688.73,-513.06C626.26,-504.23 533.03,-490.79 452,-478 266.76,-448.76 38,-584.03 38,-396.5 38,-396.5 38,-396.5 38,-327.5 38,-235.93 355.39,-213.51 487.43,-208.14"/>
<polygon fill="midnightblue" stroke="midnightblue" points="688.48,-516.56 698.87,-514.49 689.46,-509.63 688.48,-516.56"/>
</g>
<!-- Node24 -->
<g id="node24" class="node">
<title>Node24</title>
<g id="a_node24"><a xlink:href="_ground_8hpp.html" target="_top" xlink:title=" ">
<polygon fill="white" stroke="black" points="461.5,-447.5 461.5,-477.5 574.5,-477.5 574.5,-447.5 461.5,-447.5"/>
<text text-anchor="start" x="469.5" y="-465.5" font-family="Helvetica,sans-Serif" font-size="10.00">include/engine/objects</text>
<text text-anchor="middle" x="518" y="-454.5" font-family="Helvetica,sans-Serif" font-size="10.00">/Ground.hpp</text>
</a>
</g>
</g>
<!-- Node3&#45;&gt;Node24 -->
<g id="edge28" class="edge">
<title>Node3&#45;&gt;Node24</title>
<path fill="none" stroke="midnightblue" d="M715.41,-512.04C675.74,-502.28 617.51,-487.97 574.57,-477.41"/>
<polygon fill="midnightblue" stroke="midnightblue" points="714.78,-515.49 725.33,-514.48 716.45,-508.69 714.78,-515.49"/>
</g>
<!-- Node6 -->
<g id="node6" class="node">
<title>Node6</title>
<g id="a_node6"><a xlink:href="_building_8cpp.html" target="_top" xlink:title=" ">
<polygon fill="white" stroke="black" points="877,-380.5 877,-410.5 973,-410.5 973,-380.5 877,-380.5"/>
<text text-anchor="start" x="885" y="-398.5" font-family="Helvetica,sans-Serif" font-size="10.00">src/engine/objects</text>
<text text-anchor="middle" x="925" y="-387.5" font-family="Helvetica,sans-Serif" font-size="10.00">/Building.cpp</text>
</a>
</g>
</g>
<!-- Node5&#45;&gt;Node6 -->
<g id="edge5" class="edge">
<title>Node5&#45;&gt;Node6</title>
<path fill="none" stroke="midnightblue" d="M870.37,-440.88C882.53,-431.01 896.78,-419.43 907.68,-410.58"/>
<polygon fill="midnightblue" stroke="midnightblue" points="867.91,-438.37 862.36,-447.4 872.33,-443.81 867.91,-438.37"/>
</g>
<!-- Node5&#45;&gt;Node7 -->
<g id="edge6" class="edge">
<title>Node5&#45;&gt;Node7</title>
<path fill="none" stroke="midnightblue" d="M830.03,-438.87C823.8,-429.46 816.77,-418.83 811.31,-410.58"/>
<polygon fill="midnightblue" stroke="midnightblue" points="827.23,-440.99 835.67,-447.4 833.07,-437.12 827.23,-440.99"/>
</g>
<!-- Node8 -->
<g id="node8" class="node">
<title>Node8</title>
<g id="a_node8"><a xlink:href="_cell_8cpp.html" target="_top" xlink:title=" ">
<polygon fill="white" stroke="black" points="775,-313.5 775,-343.5 871,-343.5 871,-313.5 775,-313.5"/>
<text text-anchor="start" x="783" y="-331.5" font-family="Helvetica,sans-Serif" font-size="10.00">src/engine/objects</text>
<text text-anchor="middle" x="823" y="-320.5" font-family="Helvetica,sans-Serif" font-size="10.00">/Cell.cpp</text>
</a>
</g>
</g>
<!-- Node7&#45;&gt;Node8 -->
<g id="edge7" class="edge">
<title>Node7&#45;&gt;Node8</title>
<path fill="none" stroke="midnightblue" d="M809.69,-370.7C812.63,-361.59 815.89,-351.49 818.45,-343.58"/>
<polygon fill="midnightblue" stroke="midnightblue" points="806.3,-369.8 806.56,-380.4 812.96,-371.96 806.3,-369.8"/>
</g>
<!-- Node7&#45;&gt;Node9 -->
<g id="edge8" class="edge">
<title>Node7&#45;&gt;Node9</title>
<path fill="none" stroke="midnightblue" d="M843.45,-376.3C871.99,-363.76 908.6,-347.68 930.63,-338.01"/>
<polygon fill="midnightblue" stroke="midnightblue" points="841.86,-373.17 834.11,-380.4 844.68,-379.58 841.86,-373.17"/>
</g>
<!-- Node22 -->
<g id="node22" class="node">
<title>Node22</title>
<g id="a_node22"><a xlink:href="_sprites_manager_8hpp.html" target="_top" xlink:title=" ">
<polygon fill="white" stroke="black" points="474.5,-319 474.5,-338 611.5,-338 611.5,-319 474.5,-319"/>
<text text-anchor="middle" x="543" y="-326" font-family="Helvetica,sans-Serif" font-size="10.00">include/SpritesManager.hpp</text>
</a>
</g>
</g>
<!-- Node7&#45;&gt;Node22 -->
<g id="edge23" class="edge">
<title>Node7&#45;&gt;Node22</title>
<path fill="none" stroke="midnightblue" d="M736.21,-377.99C685.46,-365.25 617.31,-348.15 576.98,-338.03"/>
<polygon fill="midnightblue" stroke="midnightblue" points="735.57,-381.44 746.12,-380.48 737.27,-374.65 735.57,-381.44"/>
</g>
<!-- Node10 -->
<g id="node10" class="node">
<title>Node10</title>
<g id="a_node10"><a xlink:href="_field_8cpp.html" target="_top" xlink:title=" ">
<polygon fill="white" stroke="black" points="671,-257.5 671,-276.5 775,-276.5 775,-257.5 671,-257.5"/>
<text text-anchor="middle" x="723" y="-264.5" font-family="Helvetica,sans-Serif" font-size="10.00">src/engine/Field.cpp</text>
</a>
</g>
</g>
<!-- Node9&#45;&gt;Node10 -->
<g id="edge9" class="edge">
<title>Node9&#45;&gt;Node10</title>
<path fill="none" stroke="midnightblue" d="M907.64,-316.4C863.55,-304.84 795.47,-287 755.46,-276.51"/>
<polygon fill="midnightblue" stroke="midnightblue" points="906.92,-319.83 917.48,-318.98 908.69,-313.05 906.92,-319.83"/>
</g>
<!-- Node9&#45;&gt;Node11 -->
<g id="edge10" class="edge">
<title>Node9&#45;&gt;Node11</title>
<path fill="none" stroke="midnightblue" d="M929.93,-313.11C913.97,-301.67 892.17,-286.05 878.87,-276.51"/>
<polygon fill="midnightblue" stroke="midnightblue" points="927.94,-315.99 938.11,-318.98 932.02,-310.3 927.94,-315.99"/>
</g>
<!-- Node12 -->
<g id="node12" class="node">
<title>Node12</title>
<g id="a_node12"><a xlink:href="_world_actor_8cpp.html" target="_top" xlink:title=" ">
<polygon fill="white" stroke="black" points="777.5,-196 777.5,-215 908.5,-215 908.5,-196 777.5,-196"/>
<text text-anchor="middle" x="843" y="-203" font-family="Helvetica,sans-Serif" font-size="10.00">src/engine/WorldActor.cpp</text>
</a>
</g>
</g>
<!-- Node11&#45;&gt;Node12 -->
<g id="edge11" class="edge">
<title>Node11&#45;&gt;Node12</title>
<path fill="none" stroke="midnightblue" d="M859.74,-248C855.32,-237.05 849.89,-223.57 846.43,-215.01"/>
<polygon fill="midnightblue" stroke="midnightblue" points="856.57,-249.51 863.56,-257.48 863.07,-246.89 856.57,-249.51"/>
</g>
<!-- Node11&#45;&gt;Node13 -->
<g id="edge12" class="edge">
<title>Node11&#45;&gt;Node13</title>
<path fill="none" stroke="midnightblue" d="M810.83,-255.65C751.85,-244.79 659.63,-227.8 600.52,-216.91"/>
<polygon fill="midnightblue" stroke="midnightblue" points="810.25,-259.11 820.72,-257.48 811.52,-252.22 810.25,-259.11"/>
</g>
<!-- Node18 -->
<g id="node18" class="node">
<title>Node18</title>
<g id="a_node18"><a xlink:href="_unit_8hpp.html" target="_top" xlink:title=" ">
<polygon fill="white" stroke="black" points="926.5,-190.5 926.5,-220.5 1039.5,-220.5 1039.5,-190.5 926.5,-190.5"/>
<text text-anchor="start" x="934.5" y="-208.5" font-family="Helvetica,sans-Serif" font-size="10.00">include/engine/objects</text>
<text text-anchor="middle" x="983" y="-197.5" font-family="Helvetica,sans-Serif" font-size="10.00">/Unit.hpp</text>
</a>
</g>
</g>
<!-- Node11&#45;&gt;Node18 -->
<g id="edge18" class="edge">
<title>Node11&#45;&gt;Node18</title>
<path fill="none" stroke="midnightblue" d="M892.72,-252.81C911.4,-243.23 936.62,-230.29 955.66,-220.52"/>
<polygon fill="midnightblue" stroke="midnightblue" points="890.92,-249.8 883.62,-257.48 894.12,-256.03 890.92,-249.8"/>
</g>
<!-- Node14 -->
<g id="node14" class="node">
<title>Node14</title>
<g id="a_node14"><a xlink:href="_player_8cpp.html" target="_top" xlink:title=" ">
<polygon fill="white" stroke="black" points="481,-123.5 481,-153.5 577,-153.5 577,-123.5 481,-123.5"/>
<text text-anchor="start" x="489" y="-141.5" font-family="Helvetica,sans-Serif" font-size="10.00">src/engine/objects</text>
<text text-anchor="middle" x="529" y="-130.5" font-family="Helvetica,sans-Serif" font-size="10.00">/Player.cpp</text>
</a>
</g>
</g>
<!-- Node13&#45;&gt;Node14 -->
<g id="edge13" class="edge">
<title>Node13&#45;&gt;Node14</title>
<path fill="none" stroke="midnightblue" d="M538.44,-180.4C536.35,-171.37 534.06,-161.41 532.25,-153.58"/>
<polygon fill="midnightblue" stroke="midnightblue" points="535.09,-181.44 540.75,-190.4 541.91,-179.87 535.09,-181.44"/>
</g>
<!-- Node15 -->
<g id="node15" class="node">
<title>Node15</title>
<g id="a_node15"><a xlink:href="_engine_8hpp.html" target="_top" xlink:title=" ">
<polygon fill="white" stroke="black" points="803,-62 803,-81 901,-81 901,-62 803,-62"/>
<text text-anchor="middle" x="852" y="-69" font-family="Helvetica,sans-Serif" font-size="10.00">include/Engine.hpp</text>
</a>
</g>
</g>
<!-- Node13&#45;&gt;Node15 -->
<g id="edge14" class="edge">
<title>Node13&#45;&gt;Node15</title>
<path fill="none" stroke="midnightblue" d="M586.12,-186.45C653.33,-157.64 782.31,-102.37 831.89,-81.12"/>
<polygon fill="midnightblue" stroke="midnightblue" points="584.48,-183.34 576.67,-190.5 587.24,-189.78 584.48,-183.34"/>
</g>
<!-- Node15&#45;&gt;Node4 -->
<g id="edge15" class="edge">
<title>Node15&#45;&gt;Node4</title>
<path fill="none" stroke="midnightblue" d="M836.4,-54.5C825.42,-43.24 811.16,-28.6 802.29,-19.51"/>
<polygon fill="midnightblue" stroke="midnightblue" points="834.2,-57.26 843.69,-61.98 839.22,-52.37 834.2,-57.26"/>
</g>
<!-- Node16 -->
<g id="node16" class="node">
<title>Node16</title>
<g id="a_node16"><a xlink:href="_engine_8cpp.html" target="_top" xlink:title=" ">
<polygon fill="white" stroke="black" points="1208,-0.5 1208,-19.5 1288,-19.5 1288,-0.5 1208,-0.5"/>
<text text-anchor="middle" x="1248" y="-7.5" font-family="Helvetica,sans-Serif" font-size="10.00">src/Engine.cpp</text>
</a>
</g>
</g>
<!-- Node15&#45;&gt;Node16 -->
<g id="edge16" class="edge">
<title>Node15&#45;&gt;Node16</title>
<path fill="none" stroke="midnightblue" d="M893.34,-59.56C898.92,-58.26 904.58,-57.03 910,-56 1016.85,-35.6 1144.45,-21.3 1207.96,-14.85"/>
<polygon fill="midnightblue" stroke="midnightblue" points="892.36,-56.2 883.46,-61.95 894.01,-63 892.36,-56.2"/>
</g>
<!-- Node17 -->
<g id="node17" class="node">
<title>Node17</title>
<g id="a_node17"><a xlink:href="main_8cpp.html" target="_top" xlink:title=" ">
<polygon fill="white" stroke="black" points="874,-0.5 874,-19.5 946,-19.5 946,-0.5 874,-0.5"/>
<text text-anchor="middle" x="910" y="-7.5" font-family="Helvetica,sans-Serif" font-size="10.00">src/main.cpp</text>
</a>
</g>
</g>
<!-- Node15&#45;&gt;Node17 -->
<g id="edge17" class="edge">
<title>Node15&#45;&gt;Node17</title>
<path fill="none" stroke="midnightblue" d="M867.6,-54.5C878.58,-43.24 892.84,-28.6 901.71,-19.51"/>
<polygon fill="midnightblue" stroke="midnightblue" points="864.78,-52.37 860.31,-61.98 869.8,-57.26 864.78,-52.37"/>
</g>
<!-- Node19 -->
<g id="node19" class="node">
<title>Node19</title>
<g id="a_node19"><a xlink:href="_unit_8cpp.html" target="_top" xlink:title=" ">
<polygon fill="white" stroke="black" points="985,-123.5 985,-153.5 1081,-153.5 1081,-123.5 985,-123.5"/>
<text text-anchor="start" x="993" y="-141.5" font-family="Helvetica,sans-Serif" font-size="10.00">src/engine/objects</text>
<text text-anchor="middle" x="1033" y="-130.5" font-family="Helvetica,sans-Serif" font-size="10.00">/Unit.cpp</text>
</a>
</g>
</g>
<!-- Node18&#45;&gt;Node19 -->
<g id="edge19" class="edge">
<title>Node18&#45;&gt;Node19</title>
<path fill="none" stroke="midnightblue" d="M999.96,-182.45C1007.31,-172.9 1015.69,-162 1022.17,-153.58"/>
<polygon fill="midnightblue" stroke="midnightblue" points="997.17,-180.34 993.85,-190.4 1002.72,-184.6 997.17,-180.34"/>
</g>
<!-- Node20 -->
<g id="node20" class="node">
<title>Node20</title>
<g id="a_node20"><a xlink:href="_unit_group_8hpp.html" target="_top" xlink:title=" ">
<polygon fill="white" stroke="black" points="853.5,-123.5 853.5,-153.5 966.5,-153.5 966.5,-123.5 853.5,-123.5"/>
<text text-anchor="start" x="861.5" y="-141.5" font-family="Helvetica,sans-Serif" font-size="10.00">include/engine/objects</text>
<text text-anchor="middle" x="910" y="-130.5" font-family="Helvetica,sans-Serif" font-size="10.00">/UnitGroup.hpp</text>
</a>
</g>
</g>
<!-- Node18&#45;&gt;Node20 -->
<g id="edge20" class="edge">
<title>Node18&#45;&gt;Node20</title>
<path fill="none" stroke="midnightblue" d="M959.53,-183.6C948.5,-173.78 935.66,-162.34 925.81,-153.58"/>
<polygon fill="midnightblue" stroke="midnightblue" points="957.36,-186.36 967.16,-190.4 962.02,-181.13 957.36,-186.36"/>
</g>
<!-- Node20&#45;&gt;Node15 -->
<g id="edge22" class="edge">
<title>Node20&#45;&gt;Node15</title>
<path fill="none" stroke="midnightblue" d="M890.51,-115.66C879.99,-103.86 867.59,-89.97 859.76,-81.19"/>
<polygon fill="midnightblue" stroke="midnightblue" points="888.15,-118.26 897.41,-123.4 893.37,-113.6 888.15,-118.26"/>
</g>
<!-- Node21 -->
<g id="node21" class="node">
<title>Node21</title>
<g id="a_node21"><a xlink:href="_unit_group_8cpp.html" target="_top" xlink:title=" ">
<polygon fill="white" stroke="black" points="919,-56.5 919,-86.5 1015,-86.5 1015,-56.5 919,-56.5"/>
<text text-anchor="start" x="927" y="-74.5" font-family="Helvetica,sans-Serif" font-size="10.00">src/engine/objects</text>
<text text-anchor="middle" x="967" y="-63.5" font-family="Helvetica,sans-Serif" font-size="10.00">/UnitGroup.cpp</text>
</a>
</g>
</g>
<!-- Node20&#45;&gt;Node21 -->
<g id="edge21" class="edge">
<title>Node20&#45;&gt;Node21</title>
<path fill="none" stroke="midnightblue" d="M929.09,-115.74C937.52,-106.12 947.19,-95.09 954.66,-86.58"/>
<polygon fill="midnightblue" stroke="midnightblue" points="926.33,-113.57 922.37,-123.4 931.59,-118.18 926.33,-113.57"/>
</g>
<!-- Node22&#45;&gt;Node10 -->
<g id="edge24" class="edge">
<title>Node22&#45;&gt;Node10</title>
<path fill="none" stroke="midnightblue" d="M578.6,-315.73C613.59,-304.17 666.14,-286.8 697.26,-276.51"/>
<polygon fill="midnightblue" stroke="midnightblue" points="577.19,-312.51 568.79,-318.98 579.38,-319.16 577.19,-312.51"/>
</g>
<!-- Node22&#45;&gt;Node17 -->
<g id="edge25" class="edge">
<title>Node22&#45;&gt;Node17</title>
<path fill="none" stroke="midnightblue" d="M567.61,-313.57C581.75,-304.59 599.03,-291.83 611,-277 632.61,-250.22 643,-240.91 643,-206.5 643,-206.5 643,-206.5 643,-137.5 643,-86.53 803.93,-38.45 875.91,-19.5"/>
<polygon fill="midnightblue" stroke="midnightblue" points="565.56,-310.72 558.85,-318.91 569.21,-316.69 565.56,-310.72"/>
</g>
<!-- Node23 -->
<g id="node23" class="node">
<title>Node23</title>
<g id="a_node23"><a xlink:href="_sprites_manager_8cpp.html" target="_top" xlink:title=" ">
<polygon fill="white" stroke="black" points="483.5,-257.5 483.5,-276.5 602.5,-276.5 602.5,-257.5 483.5,-257.5"/>
<text text-anchor="middle" x="543" y="-264.5" font-family="Helvetica,sans-Serif" font-size="10.00">src/SpritesManager.cpp</text>
</a>
</g>
</g>
<!-- Node22&#45;&gt;Node23 -->
<g id="edge26" class="edge">
<title>Node22&#45;&gt;Node23</title>
<path fill="none" stroke="midnightblue" d="M543,-308.82C543,-298 543,-284.9 543,-276.51"/>
<polygon fill="midnightblue" stroke="midnightblue" points="539.5,-308.98 543,-318.98 546.5,-308.98 539.5,-308.98"/>
</g>
<!-- Node24&#45;&gt;Node7 -->
<g id="edge30" class="edge">
<title>Node24&#45;&gt;Node7</title>
<path fill="none" stroke="midnightblue" d="M584.63,-446.25C633.45,-435.08 699,-420.07 745.31,-409.47"/>
<polygon fill="midnightblue" stroke="midnightblue" points="583.76,-442.86 574.79,-448.5 585.32,-449.68 583.76,-442.86"/>
</g>
<!-- Node25 -->
<g id="node25" class="node">
<title>Node25</title>
<g id="a_node25"><a xlink:href="_ground_8cpp.html" target="_top" xlink:title=" ">
<polygon fill="white" stroke="black" points="198,-380.5 198,-410.5 294,-410.5 294,-380.5 198,-380.5"/>
<text text-anchor="start" x="206" y="-398.5" font-family="Helvetica,sans-Serif" font-size="10.00">src/engine/objects</text>
<text text-anchor="middle" x="246" y="-387.5" font-family="Helvetica,sans-Serif" font-size="10.00">/Ground.cpp</text>
</a>
</g>
</g>
<!-- Node24&#45;&gt;Node25 -->
<g id="edge29" class="edge">
<title>Node24&#45;&gt;Node25</title>
<path fill="none" stroke="midnightblue" d="M451.4,-446.19C408.89,-436.34 352.65,-423.15 303,-411 300.12,-410.3 297.17,-409.57 294.19,-408.82"/>
<polygon fill="midnightblue" stroke="midnightblue" points="450.82,-449.65 461.35,-448.49 452.39,-442.83 450.82,-449.65"/>
</g>
<!-- Node26 -->
<g id="node26" class="node">
<title>Node26</title>
<g id="a_node26"><a xlink:href="_ground_earth_8hpp.html" target="_top" xlink:title=" ">
<polygon fill="white" stroke="black" points="312,-380.5 312,-410.5 436,-410.5 436,-380.5 312,-380.5"/>
<text text-anchor="start" x="320" y="-398.5" font-family="Helvetica,sans-Serif" font-size="10.00">include/engine/objects</text>
<text text-anchor="middle" x="374" y="-387.5" font-family="Helvetica,sans-Serif" font-size="10.00">/ground/GroundEarth.hpp</text>
</a>
</g>
</g>
<!-- Node24&#45;&gt;Node26 -->
<g id="edge31" class="edge">
<title>Node24&#45;&gt;Node26</title>
<path fill="none" stroke="midnightblue" d="M477.61,-443.27C454.68,-432.92 426.4,-420.15 405.18,-410.58"/>
<polygon fill="midnightblue" stroke="midnightblue" points="476.2,-446.47 486.75,-447.4 479.08,-440.09 476.2,-446.47"/>
</g>
<!-- Node28 -->
<g id="node28" class="node">
<title>Node28</title>
<g id="a_node28"><a xlink:href="_ground_empty_8hpp.html" target="_top" xlink:title=" ">
<polygon fill="white" stroke="black" points="454,-380.5 454,-410.5 582,-410.5 582,-380.5 454,-380.5"/>
<text text-anchor="start" x="462" y="-398.5" font-family="Helvetica,sans-Serif" font-size="10.00">include/engine/objects</text>
<text text-anchor="middle" x="518" y="-387.5" font-family="Helvetica,sans-Serif" font-size="10.00">/ground/GroundEmpty.hpp</text>
</a>
</g>
</g>
<!-- Node24&#45;&gt;Node28 -->
<g id="edge34" class="edge">
<title>Node24&#45;&gt;Node28</title>
<path fill="none" stroke="midnightblue" d="M518,-437.11C518,-428.15 518,-418.32 518,-410.58"/>
<polygon fill="midnightblue" stroke="midnightblue" points="514.5,-437.4 518,-447.4 521.5,-437.4 514.5,-437.4"/>
</g>
<!-- Node30 -->
<g id="node30" class="node">
<title>Node30</title>
<g id="a_node30"><a xlink:href="_ground_water_8hpp.html" target="_top" xlink:title=" ">
<polygon fill="white" stroke="black" points="600.5,-380.5 600.5,-410.5 727.5,-410.5 727.5,-380.5 600.5,-380.5"/>
<text text-anchor="start" x="608.5" y="-398.5" font-family="Helvetica,sans-Serif" font-size="10.00">include/engine/objects</text>
<text text-anchor="middle" x="664" y="-387.5" font-family="Helvetica,sans-Serif" font-size="10.00">/ground/GroundWater.hpp</text>
</a>
</g>
</g>
<!-- Node24&#45;&gt;Node30 -->
<g id="edge37" class="edge">
<title>Node24&#45;&gt;Node30</title>
<path fill="none" stroke="midnightblue" d="M558.95,-443.27C582.2,-432.92 610.87,-420.15 632.38,-410.58"/>
<polygon fill="midnightblue" stroke="midnightblue" points="557.39,-440.13 549.68,-447.4 560.24,-446.53 557.39,-440.13"/>
</g>
<!-- Node32 -->
<g id="node32" class="node">
<title>Node32</title>
<g id="a_node32"><a xlink:href="_mineral_8hpp.html" target="_top" xlink:title=" ">
<polygon fill="white" stroke="black" points="66.5,-380.5 66.5,-410.5 179.5,-410.5 179.5,-380.5 66.5,-380.5"/>
<text text-anchor="start" x="74.5" y="-398.5" font-family="Helvetica,sans-Serif" font-size="10.00">include/engine/objects</text>
<text text-anchor="middle" x="123" y="-387.5" font-family="Helvetica,sans-Serif" font-size="10.00">/ground/Mineral.hpp</text>
</a>
</g>
</g>
<!-- Node24&#45;&gt;Node32 -->
<g id="edge40" class="edge">
<title>Node24&#45;&gt;Node32</title>
<path fill="none" stroke="midnightblue" d="M451.4,-452.55C384.79,-443.3 279.51,-427.87 189,-411 186,-410.44 182.93,-409.85 179.83,-409.23"/>
<polygon fill="midnightblue" stroke="midnightblue" points="450.96,-456.02 461.34,-453.93 451.92,-449.09 450.96,-456.02"/>
</g>
<!-- Node26&#45;&gt;Node22 -->
<g id="edge33" class="edge">
<title>Node26&#45;&gt;Node22</title>
<path fill="none" stroke="midnightblue" d="M420.06,-376.78C452.83,-364.18 495.4,-347.81 520.88,-338.01"/>
<polygon fill="midnightblue" stroke="midnightblue" points="418.75,-373.54 410.67,-380.4 421.26,-380.07 418.75,-373.54"/>
</g>
<!-- Node27 -->
<g id="node27" class="node">
<title>Node27</title>
<g id="a_node27"><a xlink:href="_ground_earth_8cpp.html" target="_top" xlink:title=" ">
<polygon fill="white" stroke="black" points="186,-313.5 186,-343.5 310,-343.5 310,-313.5 186,-313.5"/>
<text text-anchor="start" x="194" y="-331.5" font-family="Helvetica,sans-Serif" font-size="10.00">src/engine/objects</text>
<text text-anchor="middle" x="248" y="-320.5" font-family="Helvetica,sans-Serif" font-size="10.00">/ground/GroundEarth.cpp</text>
</a>
</g>
</g>
<!-- Node26&#45;&gt;Node27 -->
<g id="edge32" class="edge">
<title>Node26&#45;&gt;Node27</title>
<path fill="none" stroke="midnightblue" d="M337.58,-375.71C317.71,-365.46 293.52,-352.98 275.29,-343.58"/>
<polygon fill="midnightblue" stroke="midnightblue" points="336.17,-378.92 346.66,-380.4 339.38,-372.7 336.17,-378.92"/>
</g>
<!-- Node28&#45;&gt;Node22 -->
<g id="edge36" class="edge">
<title>Node28&#45;&gt;Node22</title>
<path fill="none" stroke="midnightblue" d="M527.06,-370.94C531.45,-359.54 536.44,-346.55 539.66,-338.19"/>
<polygon fill="midnightblue" stroke="midnightblue" points="523.75,-369.81 523.42,-380.4 530.28,-372.32 523.75,-369.81"/>
</g>
<!-- Node29 -->
<g id="node29" class="node">
<title>Node29</title>
<g id="a_node29"><a xlink:href="_ground_empty_8cpp.html" target="_top" xlink:title=" ">
<polygon fill="white" stroke="black" points="328,-313.5 328,-343.5 456,-343.5 456,-313.5 328,-313.5"/>
<text text-anchor="start" x="336" y="-331.5" font-family="Helvetica,sans-Serif" font-size="10.00">src/engine/objects</text>
<text text-anchor="middle" x="392" y="-320.5" font-family="Helvetica,sans-Serif" font-size="10.00">/ground/GroundEmpty.cpp</text>
</a>
</g>
</g>
<!-- Node28&#45;&gt;Node29 -->
<g id="edge35" class="edge">
<title>Node28&#45;&gt;Node29</title>
<path fill="none" stroke="midnightblue" d="M481.58,-375.71C461.71,-365.46 437.52,-352.98 419.29,-343.58"/>
<polygon fill="midnightblue" stroke="midnightblue" points="480.17,-378.92 490.66,-380.4 483.38,-372.7 480.17,-378.92"/>
</g>
<!-- Node30&#45;&gt;Node22 -->
<g id="edge39" class="edge">
<title>Node30&#45;&gt;Node22</title>
<path fill="none" stroke="midnightblue" d="M628.89,-375.64C605.74,-363.2 576.53,-347.51 558.84,-338.01"/>
<polygon fill="midnightblue" stroke="midnightblue" points="627.28,-378.75 637.74,-380.4 630.59,-372.58 627.28,-378.75"/>
</g>
<!-- Node31 -->
<g id="node31" class="node">
<title>Node31</title>
<g id="a_node31"><a xlink:href="_ground_water_8cpp.html" target="_top" xlink:title=" ">
<polygon fill="white" stroke="black" points="629.5,-313.5 629.5,-343.5 756.5,-343.5 756.5,-313.5 629.5,-313.5"/>
<text text-anchor="start" x="637.5" y="-331.5" font-family="Helvetica,sans-Serif" font-size="10.00">src/engine/objects</text>
<text text-anchor="middle" x="693" y="-320.5" font-family="Helvetica,sans-Serif" font-size="10.00">/ground/GroundWater.cpp</text>
</a>
</g>
</g>
<!-- Node30&#45;&gt;Node31 -->
<g id="edge38" class="edge">
<title>Node30&#45;&gt;Node31</title>
<path fill="none" stroke="midnightblue" d="M674.49,-370.99C678.59,-361.8 683.15,-351.58 686.72,-343.58"/>
<polygon fill="midnightblue" stroke="midnightblue" points="671.17,-369.84 670.29,-380.4 677.56,-372.69 671.17,-369.84"/>
</g>
<!-- Node32&#45;&gt;Node22 -->
<g id="edge42" class="edge">
<title>Node32&#45;&gt;Node22</title>
<path fill="none" stroke="midnightblue" d="M189.98,-379.93C312.61,-358.93 346.03,-362.8 465,-344 476.16,-342.24 488.17,-340.12 499.34,-338.05"/>
<polygon fill="midnightblue" stroke="midnightblue" points="189.08,-376.53 179.82,-381.69 190.27,-383.43 189.08,-376.53"/>
</g>
<!-- Node33 -->
<g id="node33" class="node">
<title>Node33</title>
<g id="a_node33"><a xlink:href="_mineral_8cpp.html" target="_top" xlink:title=" ">
<polygon fill="white" stroke="black" points="66.5,-313.5 66.5,-343.5 167.5,-343.5 167.5,-313.5 66.5,-313.5"/>
<text text-anchor="start" x="74.5" y="-331.5" font-family="Helvetica,sans-Serif" font-size="10.00">src/engine/objects</text>
<text text-anchor="middle" x="117" y="-320.5" font-family="Helvetica,sans-Serif" font-size="10.00">/ground/Mineral.cpp</text>
</a>
</g>
</g>
<!-- Node32&#45;&gt;Node33 -->
<g id="edge41" class="edge">
<title>Node32&#45;&gt;Node33</title>
<path fill="none" stroke="midnightblue" d="M120.78,-370.4C119.94,-361.37 119.02,-351.41 118.3,-343.58"/>
<polygon fill="midnightblue" stroke="midnightblue" points="117.29,-370.76 121.7,-380.4 124.26,-370.12 117.29,-370.76"/>
</g>
<!-- Node35 -->
<g id="node35" class="node">
<title>Node35</title>
<g id="a_node35"><a xlink:href="_event_handler_8cpp.html" target="_top" xlink:title=" ">
<polygon fill="white" stroke="black" points="959.5,-257.5 959.5,-276.5 1130.5,-276.5 1130.5,-257.5 959.5,-257.5"/>
<text text-anchor="middle" x="1045" y="-264.5" font-family="Helvetica,sans-Serif" font-size="10.00">src/EventHandler/EventHandler.cpp</text>
</a>
</g>
</g>
<!-- Node34&#45;&gt;Node35 -->
<g id="edge47" class="edge">
<title>Node34&#45;&gt;Node35</title>
<path fill="none" stroke="midnightblue" d="M1108.08,-371.63C1090.8,-343.24 1062.16,-296.2 1050.35,-276.79"/>
<polygon fill="midnightblue" stroke="midnightblue" points="1105.28,-373.76 1113.47,-380.48 1111.26,-370.12 1105.28,-373.76"/>
</g>
<!-- Node36 -->
<g id="node36" class="node">
<title>Node36</title>
<g id="a_node36"><a xlink:href="_resource_manager_8hpp.html" target="_top" xlink:title=" ">
<polygon fill="white" stroke="black" points="1105.5,-313.5 1105.5,-343.5 1236.5,-343.5 1236.5,-313.5 1105.5,-313.5"/>
<text text-anchor="start" x="1113.5" y="-331.5" font-family="Helvetica,sans-Serif" font-size="10.00">include/graphics/Resource</text>
<text text-anchor="middle" x="1171" y="-320.5" font-family="Helvetica,sans-Serif" font-size="10.00">Manager.hpp</text>
</a>
</g>
</g>
<!-- Node34&#45;&gt;Node36 -->
<g id="edge48" class="edge">
<title>Node34&#45;&gt;Node36</title>
<path fill="none" stroke="midnightblue" d="M1138.84,-372.16C1145.99,-362.68 1154.1,-351.92 1160.39,-343.58"/>
<polygon fill="midnightblue" stroke="midnightblue" points="1135.86,-370.3 1132.63,-380.4 1141.45,-374.52 1135.86,-370.3"/>
</g>
<!-- Node36&#45;&gt;Node4 -->
<g id="edge49" class="edge">
<title>Node36&#45;&gt;Node4</title>
<path fill="none" stroke="midnightblue" d="M1167.17,-303.26C1163.66,-278.89 1159,-240.18 1159,-206.5 1159,-206.5 1159,-206.5 1159,-137.5 1159,-74.04 959.53,-35.27 855.5,-19.37"/>
<polygon fill="midnightblue" stroke="midnightblue" points="1163.75,-304.01 1168.69,-313.39 1170.67,-302.98 1163.75,-304.01"/>
</g>
<!-- Node36&#45;&gt;Node10 -->
<g id="edge50" class="edge">
<title>Node36&#45;&gt;Node10</title>
<path fill="none" stroke="midnightblue" d="M1094.99,-317.96C1016.92,-308.08 891.9,-292 784,-277 781.14,-276.6 778.2,-276.19 775.24,-275.77"/>
<polygon fill="midnightblue" stroke="midnightblue" points="1094.86,-321.47 1105.22,-319.26 1095.74,-314.53 1094.86,-321.47"/>
</g>
<!-- Node36&#45;&gt;Node16 -->
<g id="edge51" class="edge">
<title>Node36&#45;&gt;Node16</title>
<path fill="none" stroke="midnightblue" d="M1246.47,-315.97C1293.76,-307.27 1348.89,-293.94 1366,-277 1389.06,-254.17 1385,-238.95 1385,-206.5 1385,-206.5 1385,-206.5 1385,-137.5 1385,-75.99 1309.53,-36.1 1270.62,-19.62"/>
<polygon fill="midnightblue" stroke="midnightblue" points="1245.74,-312.54 1236.52,-317.75 1246.98,-319.43 1245.74,-312.54"/>
</g>
<!-- Node36&#45;&gt;Node17 -->
<g id="edge54" class="edge">
<title>Node36&#45;&gt;Node17</title>
<path fill="none" stroke="midnightblue" d="M1246.79,-319.73C1301.81,-312.34 1369.54,-299.01 1387,-277 1392.52,-270.04 1390.53,-265.16 1387,-257 1335.18,-137.24 1289.82,-114.14 1173,-56 1098.35,-18.85 998.65,-11.7 946.04,-10.72"/>
<polygon fill="midnightblue" stroke="midnightblue" points="1246.14,-316.28 1236.67,-321.04 1247.04,-323.22 1246.14,-316.28"/>
</g>
<!-- Node36&#45;&gt;Node35 -->
<g id="edge52" class="edge">
<title>Node36&#45;&gt;Node35</title>
<path fill="none" stroke="midnightblue" d="M1132,-309.08C1109.11,-298.28 1081.26,-285.12 1063.33,-276.66"/>
<polygon fill="midnightblue" stroke="midnightblue" points="1130.6,-312.29 1141.14,-313.4 1133.59,-305.96 1130.6,-312.29"/>
</g>
<!-- Node37 -->
<g id="node37" class="node">
<title>Node37</title>
<g id="a_node37"><a xlink:href="_resource_manager_8cpp.html" target="_top" xlink:title=" ">
<polygon fill="white" stroke="black" points="1187,-257.5 1187,-276.5 1357,-276.5 1357,-257.5 1187,-257.5"/>
<text text-anchor="middle" x="1272" y="-264.5" font-family="Helvetica,sans-Serif" font-size="10.00">src/graphics/ResourceManager.cpp</text>
</a>
</g>
</g>
<!-- Node36&#45;&gt;Node37 -->
<g id="edge53" class="edge">
<title>Node36&#45;&gt;Node37</title>
<path fill="none" stroke="midnightblue" d="M1203.98,-308.07C1221.99,-297.46 1243.38,-284.86 1257.3,-276.66"/>
<polygon fill="midnightblue" stroke="midnightblue" points="1201.78,-305.31 1194.94,-313.4 1205.33,-311.34 1201.78,-305.31"/>
</g>
</g>
</svg>
