<?xml version="1.0" encoding="UTF-8" standalone="no"?>
<!DOCTYPE svg PUBLIC "-//W3C//DTD SVG 1.1//EN"
 "http://www.w3.org/Graphics/SVG/1.1/DTD/svg11.dtd">
<!-- Generated by graphviz version 2.47.0 (20210407.0042)
 -->
<!-- Title: include/Helpers/Vector2D.hpp Pages: 1 -->
<svg width="1203pt" height="598pt"
 viewBox="0.00 0.00 1203.00 598.00" xmlns="http://www.w3.org/2000/svg" xmlns:xlink="http://www.w3.org/1999/xlink">
<g id="graph0" class="graph" transform="scale(1 1) rotate(0) translate(4 594)">
<title>include/Helpers/Vector2D.hpp</title>
<polygon fill="white" stroke="transparent" points="-4,4 -4,-594 1199,-594 1199,4 -4,4"/>
<!-- Node1 -->
<g id="node1" class="node">
<title>Node1</title>
<g id="a_node1"><a xlink:title=" ">
<polygon fill="#bfbfbf" stroke="black" points="102,-570.5 102,-589.5 248,-589.5 248,-570.5 102,-570.5"/>
<text text-anchor="middle" x="175" y="-577.5" font-family="Helvetica,sans-Serif" font-size="10.00">include/Helpers/Vector2D.hpp</text>
</a>
</g>
</g>
<!-- Node2 -->
<g id="node2" class="node">
<title>Node2</title>
<g id="a_node2"><a xlink:href="_vector2_d_8cpp.html" target="_top" xlink:title=" ">
<polygon fill="white" stroke="black" points="0,-514.5 0,-533.5 128,-533.5 128,-514.5 0,-514.5"/>
<text text-anchor="middle" x="64" y="-521.5" font-family="Helvetica,sans-Serif" font-size="10.00">src/Helpers/Vector2D.cpp</text>
</a>
</g>
</g>
<!-- Node1&#45;&gt;Node2 -->
<g id="edge1" class="edge">
<title>Node1&#45;&gt;Node2</title>
<path fill="none" stroke="midnightblue" d="M147.99,-565.86C127.41,-555.85 99.66,-542.35 81.79,-533.65"/>
<polygon fill="midnightblue" stroke="midnightblue" points="146.64,-569.1 157.17,-570.32 149.7,-562.8 146.64,-569.1"/>
</g>
<!-- Node3 -->
<g id="node3" class="node">
<title>Node3</title>
<g id="a_node3"><a xlink:href="_drawable_8hpp.html" target="_top" xlink:title=" ">
<polygon fill="white" stroke="black" points="511,-514.5 511,-533.5 651,-533.5 651,-514.5 511,-514.5"/>
<text text-anchor="middle" x="581" y="-521.5" font-family="Helvetica,sans-Serif" font-size="10.00">include/engine/Drawable.hpp</text>
</a>
</g>
</g>
<!-- Node1&#45;&gt;Node3 -->
<g id="edge2" class="edge">
<title>Node1&#45;&gt;Node3</title>
<path fill="none" stroke="midnightblue" d="M249.4,-569.1C326.07,-558.91 444.34,-543.18 516.97,-533.52"/>
<polygon fill="midnightblue" stroke="midnightblue" points="248.78,-565.66 239.33,-570.44 249.71,-572.59 248.78,-565.66"/>
</g>
<!-- Node9 -->
<g id="node9" class="node">
<title>Node9</title>
<g id="a_node9"><a xlink:href="_field_8hpp.html" target="_top" xlink:title=" ">
<polygon fill="white" stroke="black" points="184.5,-319 184.5,-338 305.5,-338 305.5,-319 184.5,-319"/>
<text text-anchor="middle" x="245" y="-326" font-family="Helvetica,sans-Serif" font-size="10.00">include/engine/Field.hpp</text>
</a>
</g>
</g>
<!-- Node1&#45;&gt;Node9 -->
<g id="edge44" class="edge">
<title>Node1&#45;&gt;Node9</title>
<path fill="none" stroke="midnightblue" d="M176.23,-560.3C179.1,-524.26 188.01,-443.16 213,-380 219.26,-364.17 230.63,-347.9 238,-338.25"/>
<polygon fill="midnightblue" stroke="midnightblue" points="172.73,-560.11 175.5,-570.34 179.72,-560.62 172.73,-560.11"/>
</g>
<!-- Node11 -->
<g id="node11" class="node">
<title>Node11</title>
<g id="a_node11"><a xlink:href="_world_actor_8hpp.html" target="_top" xlink:title=" ">
<polygon fill="white" stroke="black" points="175,-257.5 175,-276.5 323,-276.5 323,-257.5 175,-257.5"/>
<text text-anchor="middle" x="249" y="-264.5" font-family="Helvetica,sans-Serif" font-size="10.00">include/engine/WorldActor.hpp</text>
</a>
</g>
</g>
<!-- Node1&#45;&gt;Node11 -->
<g id="edge45" class="edge">
<title>Node1&#45;&gt;Node11</title>
<path fill="none" stroke="midnightblue" d="M170.03,-560.45C164.4,-537.76 156,-498.1 156,-463.5 156,-463.5 156,-463.5 156,-394.5 156,-357.31 153.19,-343.12 175,-313 187.52,-295.71 208.92,-283.75 225.5,-276.54"/>
<polygon fill="midnightblue" stroke="midnightblue" points="166.71,-561.58 172.59,-570.39 173.49,-559.83 166.71,-561.58"/>
</g>
<!-- Node4 -->
<g id="node4" class="node">
<title>Node4</title>
<g id="a_node4"><a xlink:href="_drawable_8cpp.html" target="_top" xlink:title=" ">
<polygon fill="white" stroke="black" points="982.5,-0.5 982.5,-19.5 1105.5,-19.5 1105.5,-0.5 982.5,-0.5"/>
<text text-anchor="middle" x="1044" y="-7.5" font-family="Helvetica,sans-Serif" font-size="10.00">src/engine/Drawable.cpp</text>
</a>
</g>
</g>
<!-- Node3&#45;&gt;Node4 -->
<g id="edge3" class="edge">
<title>Node3&#45;&gt;Node4</title>
<path fill="none" stroke="midnightblue" d="M661.51,-521.75C786.15,-518.85 1019.43,-509.29 1096,-478 1148.76,-456.44 1195,-453.49 1195,-396.5 1195,-396.5 1195,-396.5 1195,-137.5 1195,-73.38 1114,-35.32 1070.65,-19.55"/>
<polygon fill="midnightblue" stroke="midnightblue" points="661.18,-518.26 651.26,-521.98 661.34,-525.26 661.18,-518.26"/>
</g>
<!-- Node5 -->
<g id="node5" class="node">
<title>Node5</title>
<g id="a_node5"><a xlink:href="_building_8hpp.html" target="_top" xlink:title=" ">
<polygon fill="white" stroke="black" points="336.5,-447.5 336.5,-477.5 449.5,-477.5 449.5,-447.5 336.5,-447.5"/>
<text text-anchor="start" x="344.5" y="-465.5" font-family="Helvetica,sans-Serif" font-size="10.00">include/engine/objects</text>
<text text-anchor="middle" x="393" y="-454.5" font-family="Helvetica,sans-Serif" font-size="10.00">/Building.hpp</text>
</a>
</g>
</g>
<!-- Node3&#45;&gt;Node5 -->
<g id="edge4" class="edge">
<title>Node3&#45;&gt;Node5</title>
<path fill="none" stroke="midnightblue" d="M544.21,-511.36C513.58,-501.66 469.86,-487.83 437.31,-477.52"/>
<polygon fill="midnightblue" stroke="midnightblue" points="543.47,-514.79 554.06,-514.48 545.59,-508.12 543.47,-514.79"/>
</g>
<!-- Node7 -->
<g id="node7" class="node">
<title>Node7</title>
<g id="a_node7"><a xlink:href="_cell_8hpp.html" target="_top" xlink:title=" ">
<polygon fill="white" stroke="black" points="336.5,-380.5 336.5,-410.5 449.5,-410.5 449.5,-380.5 336.5,-380.5"/>
<text text-anchor="start" x="344.5" y="-398.5" font-family="Helvetica,sans-Serif" font-size="10.00">include/engine/objects</text>
<text text-anchor="middle" x="393" y="-387.5" font-family="Helvetica,sans-Serif" font-size="10.00">/Cell.hpp</text>
</a>
</g>
</g>
<!-- Node3&#45;&gt;Node7 -->
<g id="edge27" class="edge">
<title>Node3&#45;&gt;Node7</title>
<path fill="none" stroke="midnightblue" d="M559.7,-508.67C523.45,-484.28 450.18,-434.97 414.08,-410.68"/>
<polygon fill="midnightblue" stroke="midnightblue" points="557.83,-511.63 568.08,-514.31 561.74,-505.82 557.83,-511.63"/>
</g>
<!-- Node13 -->
<g id="node13" class="node">
<title>Node13</title>
<g id="a_node13"><a xlink:href="_player_8hpp.html" target="_top" xlink:title=" ">
<polygon fill="white" stroke="black" points="708.5,-190.5 708.5,-220.5 821.5,-220.5 821.5,-190.5 708.5,-190.5"/>
<text text-anchor="start" x="716.5" y="-208.5" font-family="Helvetica,sans-Serif" font-size="10.00">include/engine/objects</text>
<text text-anchor="middle" x="765" y="-197.5" font-family="Helvetica,sans-Serif" font-size="10.00">/Player.hpp</text>
</a>
</g>
</g>
<!-- Node3&#45;&gt;Node13 -->
<g id="edge43" class="edge">
<title>Node3&#45;&gt;Node13</title>
<path fill="none" stroke="midnightblue" d="M661.22,-521.94C819.54,-517.67 1157,-496.81 1157,-396.5 1157,-396.5 1157,-396.5 1157,-327.5 1157,-258.15 930.14,-224.29 821.58,-212.05"/>
<polygon fill="midnightblue" stroke="midnightblue" points="660.96,-518.45 651.05,-522.2 661.14,-525.45 660.96,-518.45"/>
</g>
<!-- Node24 -->
<g id="node24" class="node">
<title>Node24</title>
<g id="a_node24"><a xlink:href="_ground_8hpp.html" target="_top" xlink:title=" ">
<polygon fill="white" stroke="black" points="587.5,-447.5 587.5,-477.5 700.5,-477.5 700.5,-447.5 587.5,-447.5"/>
<text text-anchor="start" x="595.5" y="-465.5" font-family="Helvetica,sans-Serif" font-size="10.00">include/engine/objects</text>
<text text-anchor="middle" x="644" y="-454.5" font-family="Helvetica,sans-Serif" font-size="10.00">/Ground.hpp</text>
</a>
</g>
</g>
<!-- Node3&#45;&gt;Node24 -->
<g id="edge28" class="edge">
<title>Node3&#45;&gt;Node24</title>
<path fill="none" stroke="midnightblue" d="M597.55,-507.37C607.35,-498.11 619.67,-486.48 629.15,-477.52"/>
<polygon fill="midnightblue" stroke="midnightblue" points="594.89,-505.06 590.03,-514.48 599.7,-510.15 594.89,-505.06"/>
</g>
<!-- Node6 -->
<g id="node6" class="node">
<title>Node6</title>
<g id="a_node6"><a xlink:href="_building_8cpp.html" target="_top" xlink:title=" ">
<polygon fill="white" stroke="black" points="222,-380.5 222,-410.5 318,-410.5 318,-380.5 222,-380.5"/>
<text text-anchor="start" x="230" y="-398.5" font-family="Helvetica,sans-Serif" font-size="10.00">src/engine/objects</text>
<text text-anchor="middle" x="270" y="-387.5" font-family="Helvetica,sans-Serif" font-size="10.00">/Building.cpp</text>
</a>
</g>
</g>
<!-- Node5&#45;&gt;Node6 -->
<g id="edge5" class="edge">
<title>Node5&#45;&gt;Node6</title>
<path fill="none" stroke="midnightblue" d="M357.45,-442.71C338.05,-432.46 314.44,-419.98 296.64,-410.58"/>
<polygon fill="midnightblue" stroke="midnightblue" points="355.83,-445.82 366.31,-447.4 359.1,-439.63 355.83,-445.82"/>
</g>
<!-- Node5&#45;&gt;Node7 -->
<g id="edge6" class="edge">
<title>Node5&#45;&gt;Node7</title>
<path fill="none" stroke="midnightblue" d="M393,-437.11C393,-428.15 393,-418.32 393,-410.58"/>
<polygon fill="midnightblue" stroke="midnightblue" points="389.5,-437.4 393,-447.4 396.5,-437.4 389.5,-437.4"/>
</g>
<!-- Node8 -->
<g id="node8" class="node">
<title>Node8</title>
<g id="a_node8"><a xlink:href="_cell_8cpp.html" target="_top" xlink:title=" ">
<polygon fill="white" stroke="black" points="324,-313.5 324,-343.5 420,-343.5 420,-313.5 324,-313.5"/>
<text text-anchor="start" x="332" y="-331.5" font-family="Helvetica,sans-Serif" font-size="10.00">src/engine/objects</text>
<text text-anchor="middle" x="372" y="-320.5" font-family="Helvetica,sans-Serif" font-size="10.00">/Cell.cpp</text>
</a>
</g>
</g>
<!-- Node7&#45;&gt;Node8 -->
<g id="edge7" class="edge">
<title>Node7&#45;&gt;Node8</title>
<path fill="none" stroke="midnightblue" d="M385.31,-370.7C382.37,-361.59 379.11,-351.49 376.55,-343.58"/>
<polygon fill="midnightblue" stroke="midnightblue" points="382.04,-371.96 388.44,-380.4 388.7,-369.8 382.04,-371.96"/>
</g>
<!-- Node7&#45;&gt;Node9 -->
<g id="edge8" class="edge">
<title>Node7&#45;&gt;Node9</title>
<path fill="none" stroke="midnightblue" d="M351.55,-376.3C323.01,-363.76 286.4,-347.68 264.37,-338.01"/>
<polygon fill="midnightblue" stroke="midnightblue" points="350.32,-379.58 360.89,-380.4 353.14,-373.17 350.32,-379.58"/>
</g>
<!-- Node22 -->
<g id="node22" class="node">
<title>Node22</title>
<g id="a_node22"><a xlink:href="_sprites_manager_8hpp.html" target="_top" xlink:title=" ">
<polygon fill="white" stroke="black" points="580.5,-319 580.5,-338 717.5,-338 717.5,-319 580.5,-319"/>
<text text-anchor="middle" x="649" y="-326" font-family="Helvetica,sans-Serif" font-size="10.00">include/SpritesManager.hpp</text>
</a>
</g>
</g>
<!-- Node7&#45;&gt;Node22 -->
<g id="edge23" class="edge">
<title>Node7&#45;&gt;Node22</title>
<path fill="none" stroke="midnightblue" d="M458.02,-377.99C508.19,-365.25 575.55,-348.15 615.41,-338.03"/>
<polygon fill="midnightblue" stroke="midnightblue" points="457.06,-374.62 448.23,-380.48 458.79,-381.41 457.06,-374.62"/>
</g>
<!-- Node10 -->
<g id="node10" class="node">
<title>Node10</title>
<g id="a_node10"><a xlink:href="_field_8cpp.html" target="_top" xlink:title=" ">
<polygon fill="white" stroke="black" points="438,-257.5 438,-276.5 542,-276.5 542,-257.5 438,-257.5"/>
<text text-anchor="middle" x="490" y="-264.5" font-family="Helvetica,sans-Serif" font-size="10.00">src/engine/Field.cpp</text>
</a>
</g>
</g>
<!-- Node9&#45;&gt;Node10 -->
<g id="edge9" class="edge">
<title>Node9&#45;&gt;Node10</title>
<path fill="none" stroke="midnightblue" d="M289.83,-316.61C337.38,-305.07 411.51,-287.06 454.96,-276.51"/>
<polygon fill="midnightblue" stroke="midnightblue" points="288.99,-313.21 280.1,-318.98 290.65,-320.02 288.99,-313.21"/>
</g>
<!-- Node9&#45;&gt;Node11 -->
<g id="edge10" class="edge">
<title>Node9&#45;&gt;Node11</title>
<path fill="none" stroke="midnightblue" d="M246.26,-308.82C246.98,-298 247.86,-284.9 248.43,-276.51"/>
<polygon fill="midnightblue" stroke="midnightblue" points="242.75,-308.76 245.57,-318.98 249.74,-309.23 242.75,-308.76"/>
</g>
<!-- Node12 -->
<g id="node12" class="node">
<title>Node12</title>
<g id="a_node12"><a xlink:href="_world_actor_8cpp.html" target="_top" xlink:title=" ">
<polygon fill="white" stroke="black" points="183.5,-196 183.5,-215 314.5,-215 314.5,-196 183.5,-196"/>
<text text-anchor="middle" x="249" y="-203" font-family="Helvetica,sans-Serif" font-size="10.00">src/engine/WorldActor.cpp</text>
</a>
</g>
</g>
<!-- Node11&#45;&gt;Node12 -->
<g id="edge11" class="edge">
<title>Node11&#45;&gt;Node12</title>
<path fill="none" stroke="midnightblue" d="M249,-247.32C249,-236.5 249,-223.4 249,-215.01"/>
<polygon fill="midnightblue" stroke="midnightblue" points="245.5,-247.48 249,-257.48 252.5,-247.48 245.5,-247.48"/>
</g>
<!-- Node11&#45;&gt;Node13 -->
<g id="edge12" class="edge">
<title>Node11&#45;&gt;Node13</title>
<path fill="none" stroke="midnightblue" d="M332.93,-256.32C438.64,-244.13 617.42,-223.52 708.3,-213.04"/>
<polygon fill="midnightblue" stroke="midnightblue" points="332.46,-252.85 322.93,-257.48 333.27,-259.81 332.46,-252.85"/>
</g>
<!-- Node18 -->
<g id="node18" class="node">
<title>Node18</title>
<g id="a_node18"><a xlink:href="_unit_8hpp.html" target="_top" xlink:title=" ">
<polygon fill="white" stroke="black" points="360.5,-190.5 360.5,-220.5 473.5,-220.5 473.5,-190.5 360.5,-190.5"/>
<text text-anchor="start" x="368.5" y="-208.5" font-family="Helvetica,sans-Serif" font-size="10.00">include/engine/objects</text>
<text text-anchor="middle" x="417" y="-197.5" font-family="Helvetica,sans-Serif" font-size="10.00">/Unit.hpp</text>
</a>
</g>
</g>
<!-- Node11&#45;&gt;Node18 -->
<g id="edge18" class="edge">
<title>Node11&#45;&gt;Node18</title>
<path fill="none" stroke="midnightblue" d="M282.59,-254.1C309.93,-244.42 348.57,-230.74 377.41,-220.52"/>
<polygon fill="midnightblue" stroke="midnightblue" points="281.33,-250.84 273.07,-257.48 283.67,-257.44 281.33,-250.84"/>
</g>
<!-- Node14 -->
<g id="node14" class="node">
<title>Node14</title>
<g id="a_node14"><a xlink:href="_player_8cpp.html" target="_top" xlink:title=" ">
<polygon fill="white" stroke="black" points="674,-123.5 674,-153.5 770,-153.5 770,-123.5 674,-123.5"/>
<text text-anchor="start" x="682" y="-141.5" font-family="Helvetica,sans-Serif" font-size="10.00">src/engine/objects</text>
<text text-anchor="middle" x="722" y="-130.5" font-family="Helvetica,sans-Serif" font-size="10.00">/Player.cpp</text>
</a>
</g>
</g>
<!-- Node13&#45;&gt;Node14 -->
<g id="edge13" class="edge">
<title>Node13&#45;&gt;Node14</title>
<path fill="none" stroke="midnightblue" d="M750.03,-181.87C743.8,-172.46 736.77,-161.83 731.31,-153.58"/>
<polygon fill="midnightblue" stroke="midnightblue" points="747.23,-183.99 755.67,-190.4 753.07,-180.12 747.23,-183.99"/>
</g>
<!-- Node15 -->
<g id="node15" class="node">
<title>Node15</title>
<g id="a_node15"><a xlink:href="_engine_8hpp.html" target="_top" xlink:title=" ">
<polygon fill="white" stroke="black" points="720,-62 720,-81 818,-81 818,-62 720,-62"/>
<text text-anchor="middle" x="769" y="-69" font-family="Helvetica,sans-Serif" font-size="10.00">include/Engine.hpp</text>
</a>
</g>
</g>
<!-- Node13&#45;&gt;Node15 -->
<g id="edge14" class="edge">
<title>Node13&#45;&gt;Node15</title>
<path fill="none" stroke="midnightblue" d="M773.11,-180.38C775.51,-172.12 777.81,-162.75 779,-154 782.61,-127.44 775.53,-95.94 771.51,-81.08"/>
<polygon fill="midnightblue" stroke="midnightblue" points="769.71,-179.54 770.1,-190.13 776.4,-181.61 769.71,-179.54"/>
</g>
<!-- Node15&#45;&gt;Node4 -->
<g id="edge15" class="edge">
<title>Node15&#45;&gt;Node4</title>
<path fill="none" stroke="midnightblue" d="M818.31,-59.83C871.64,-48.29 955.59,-30.13 1004.67,-19.51"/>
<polygon fill="midnightblue" stroke="midnightblue" points="817.43,-56.44 808.4,-61.98 818.91,-63.28 817.43,-56.44"/>
</g>
<!-- Node16 -->
<g id="node16" class="node">
<title>Node16</title>
<g id="a_node16"><a xlink:href="_engine_8cpp.html" target="_top" xlink:title=" ">
<polygon fill="white" stroke="black" points="729,-0.5 729,-19.5 809,-19.5 809,-0.5 729,-0.5"/>
<text text-anchor="middle" x="769" y="-7.5" font-family="Helvetica,sans-Serif" font-size="10.00">src/Engine.cpp</text>
</a>
</g>
</g>
<!-- Node15&#45;&gt;Node16 -->
<g id="edge16" class="edge">
<title>Node15&#45;&gt;Node16</title>
<path fill="none" stroke="midnightblue" d="M769,-51.82C769,-41 769,-27.9 769,-19.51"/>
<polygon fill="midnightblue" stroke="midnightblue" points="765.5,-51.98 769,-61.98 772.5,-51.98 765.5,-51.98"/>
</g>
<!-- Node17 -->
<g id="node17" class="node">
<title>Node17</title>
<g id="a_node17"><a xlink:href="main_8cpp.html" target="_top" xlink:title=" ">
<polygon fill="white" stroke="black" points="625,-0.5 625,-19.5 697,-19.5 697,-0.5 625,-0.5"/>
<text text-anchor="middle" x="661" y="-7.5" font-family="Helvetica,sans-Serif" font-size="10.00">src/main.cpp</text>
</a>
</g>
</g>
<!-- Node15&#45;&gt;Node17 -->
<g id="edge17" class="edge">
<title>Node15&#45;&gt;Node17</title>
<path fill="none" stroke="midnightblue" d="M744.6,-57.06C723.7,-45.54 694.24,-29.31 676.45,-19.51"/>
<polygon fill="midnightblue" stroke="midnightblue" points="743.08,-60.22 753.53,-61.98 746.46,-54.08 743.08,-60.22"/>
</g>
<!-- Node19 -->
<g id="node19" class="node">
<title>Node19</title>
<g id="a_node19"><a xlink:href="_unit_8cpp.html" target="_top" xlink:title=" ">
<polygon fill="white" stroke="black" points="369,-123.5 369,-153.5 465,-153.5 465,-123.5 369,-123.5"/>
<text text-anchor="start" x="377" y="-141.5" font-family="Helvetica,sans-Serif" font-size="10.00">src/engine/objects</text>
<text text-anchor="middle" x="417" y="-130.5" font-family="Helvetica,sans-Serif" font-size="10.00">/Unit.cpp</text>
</a>
</g>
</g>
<!-- Node18&#45;&gt;Node19 -->
<g id="edge19" class="edge">
<title>Node18&#45;&gt;Node19</title>
<path fill="none" stroke="midnightblue" d="M417,-180.11C417,-171.15 417,-161.32 417,-153.58"/>
<polygon fill="midnightblue" stroke="midnightblue" points="413.5,-180.4 417,-190.4 420.5,-180.4 413.5,-180.4"/>
</g>
<!-- Node20 -->
<g id="node20" class="node">
<title>Node20</title>
<g id="a_node20"><a xlink:href="_unit_group_8hpp.html" target="_top" xlink:title=" ">
<polygon fill="white" stroke="black" points="497.5,-123.5 497.5,-153.5 610.5,-153.5 610.5,-123.5 497.5,-123.5"/>
<text text-anchor="start" x="505.5" y="-141.5" font-family="Helvetica,sans-Serif" font-size="10.00">include/engine/objects</text>
<text text-anchor="middle" x="554" y="-130.5" font-family="Helvetica,sans-Serif" font-size="10.00">/UnitGroup.hpp</text>
</a>
</g>
</g>
<!-- Node18&#45;&gt;Node20 -->
<g id="edge20" class="edge">
<title>Node18&#45;&gt;Node20</title>
<path fill="none" stroke="midnightblue" d="M456.01,-185.99C477.72,-175.69 504.33,-163.07 524.33,-153.58"/>
<polygon fill="midnightblue" stroke="midnightblue" points="454.26,-182.95 446.73,-190.4 457.26,-189.27 454.26,-182.95"/>
</g>
<!-- Node20&#45;&gt;Node15 -->
<g id="edge22" class="edge">
<title>Node20&#45;&gt;Node15</title>
<path fill="none" stroke="midnightblue" d="M610.2,-120.51C652.16,-107.83 707.74,-91.02 740.79,-81.03"/>
<polygon fill="midnightblue" stroke="midnightblue" points="608.95,-117.23 600.39,-123.48 610.97,-123.93 608.95,-117.23"/>
</g>
<!-- Node21 -->
<g id="node21" class="node">
<title>Node21</title>
<g id="a_node21"><a xlink:href="_unit_group_8cpp.html" target="_top" xlink:title=" ">
<polygon fill="white" stroke="black" points="506,-56.5 506,-86.5 602,-86.5 602,-56.5 506,-56.5"/>
<text text-anchor="start" x="514" y="-74.5" font-family="Helvetica,sans-Serif" font-size="10.00">src/engine/objects</text>
<text text-anchor="middle" x="554" y="-63.5" font-family="Helvetica,sans-Serif" font-size="10.00">/UnitGroup.cpp</text>
</a>
</g>
</g>
<!-- Node20&#45;&gt;Node21 -->
<g id="edge21" class="edge">
<title>Node20&#45;&gt;Node21</title>
<path fill="none" stroke="midnightblue" d="M554,-113.11C554,-104.15 554,-94.32 554,-86.58"/>
<polygon fill="midnightblue" stroke="midnightblue" points="550.5,-113.4 554,-123.4 557.5,-113.4 550.5,-113.4"/>
</g>
<!-- Node22&#45;&gt;Node10 -->
<g id="edge24" class="edge">
<title>Node22&#45;&gt;Node10</title>
<path fill="none" stroke="midnightblue" d="M616.75,-315.43C585.85,-303.87 539.99,-286.71 512.74,-276.51"/>
<polygon fill="midnightblue" stroke="midnightblue" points="615.63,-318.75 626.22,-318.98 618.08,-312.19 615.63,-318.75"/>
</g>
<!-- Node22&#45;&gt;Node17 -->
<g id="edge25" class="edge">
<title>Node22&#45;&gt;Node17</title>
<path fill="none" stroke="midnightblue" d="M648.25,-308.94C647.37,-285.2 646,-242.8 646,-206.5 646,-206.5 646,-206.5 646,-137.5 646,-92.83 655.34,-39.89 659.28,-19.55"/>
<polygon fill="midnightblue" stroke="midnightblue" points="644.76,-309.14 648.64,-318.99 651.75,-308.87 644.76,-309.14"/>
</g>
<!-- Node23 -->
<g id="node23" class="node">
<title>Node23</title>
<g id="a_node23"><a xlink:href="_sprites_manager_8cpp.html" target="_top" xlink:title=" ">
<polygon fill="white" stroke="black" points="674.5,-257.5 674.5,-276.5 793.5,-276.5 793.5,-257.5 674.5,-257.5"/>
<text text-anchor="middle" x="734" y="-264.5" font-family="Helvetica,sans-Serif" font-size="10.00">src/SpritesManager.cpp</text>
</a>
</g>
</g>
<!-- Node22&#45;&gt;Node23 -->
<g id="edge26" class="edge">
<title>Node22&#45;&gt;Node23</title>
<path fill="none" stroke="midnightblue" d="M669.55,-313.11C685.9,-301.67 708.22,-286.05 721.84,-276.51"/>
<polygon fill="midnightblue" stroke="midnightblue" points="667.36,-310.37 661.18,-318.98 671.38,-316.11 667.36,-310.37"/>
</g>
<!-- Node24&#45;&gt;Node7 -->
<g id="edge30" class="edge">
<title>Node24&#45;&gt;Node7</title>
<path fill="none" stroke="midnightblue" d="M579.96,-444.92C539,-434.31 486.44,-420.7 447.49,-410.61"/>
<polygon fill="midnightblue" stroke="midnightblue" points="579.29,-448.36 589.85,-447.48 581.04,-441.58 579.29,-448.36"/>
</g>
<!-- Node25 -->
<g id="node25" class="node">
<title>Node25</title>
<g id="a_node25"><a xlink:href="_ground_8cpp.html" target="_top" xlink:title=" ">
<polygon fill="white" stroke="black" points="468,-380.5 468,-410.5 564,-410.5 564,-380.5 468,-380.5"/>
<text text-anchor="start" x="476" y="-398.5" font-family="Helvetica,sans-Serif" font-size="10.00">src/engine/objects</text>
<text text-anchor="middle" x="516" y="-387.5" font-family="Helvetica,sans-Serif" font-size="10.00">/Ground.cpp</text>
</a>
</g>
</g>
<!-- Node24&#45;&gt;Node25 -->
<g id="edge29" class="edge">
<title>Node24&#45;&gt;Node25</title>
<path fill="none" stroke="midnightblue" d="M607.28,-442.85C587.04,-432.58 562.33,-420.03 543.72,-410.58"/>
<polygon fill="midnightblue" stroke="midnightblue" points="605.72,-445.99 616.23,-447.4 608.89,-439.75 605.72,-445.99"/>
</g>
<!-- Node26 -->
<g id="node26" class="node">
<title>Node26</title>
<g id="a_node26"><a xlink:href="_ground_earth_8hpp.html" target="_top" xlink:title=" ">
<polygon fill="white" stroke="black" points="582,-380.5 582,-410.5 706,-410.5 706,-380.5 582,-380.5"/>
<text text-anchor="start" x="590" y="-398.5" font-family="Helvetica,sans-Serif" font-size="10.00">include/engine/objects</text>
<text text-anchor="middle" x="644" y="-387.5" font-family="Helvetica,sans-Serif" font-size="10.00">/ground/GroundEarth.hpp</text>
</a>
</g>
</g>
<!-- Node24&#45;&gt;Node26 -->
<g id="edge31" class="edge">
<title>Node24&#45;&gt;Node26</title>
<path fill="none" stroke="midnightblue" d="M644,-437.11C644,-428.15 644,-418.32 644,-410.58"/>
<polygon fill="midnightblue" stroke="midnightblue" points="640.5,-437.4 644,-447.4 647.5,-437.4 640.5,-437.4"/>
</g>
<!-- Node28 -->
<g id="node28" class="node">
<title>Node28</title>
<g id="a_node28"><a xlink:href="_ground_empty_8hpp.html" target="_top" xlink:title=" ">
<polygon fill="white" stroke="black" points="724,-380.5 724,-410.5 852,-410.5 852,-380.5 724,-380.5"/>
<text text-anchor="start" x="732" y="-398.5" font-family="Helvetica,sans-Serif" font-size="10.00">include/engine/objects</text>
<text text-anchor="middle" x="788" y="-387.5" font-family="Helvetica,sans-Serif" font-size="10.00">/ground/GroundEmpty.hpp</text>
</a>
</g>
</g>
<!-- Node24&#45;&gt;Node28 -->
<g id="edge34" class="edge">
<title>Node24&#45;&gt;Node28</title>
<path fill="none" stroke="midnightblue" d="M684.39,-443.27C707.32,-432.92 735.6,-420.15 756.82,-410.58"/>
<polygon fill="midnightblue" stroke="midnightblue" points="682.92,-440.09 675.25,-447.4 685.8,-446.47 682.92,-440.09"/>
</g>
<!-- Node30 -->
<g id="node30" class="node">
<title>Node30</title>
<g id="a_node30"><a xlink:href="_ground_water_8hpp.html" target="_top" xlink:title=" ">
<polygon fill="white" stroke="black" points="870.5,-380.5 870.5,-410.5 997.5,-410.5 997.5,-380.5 870.5,-380.5"/>
<text text-anchor="start" x="878.5" y="-398.5" font-family="Helvetica,sans-Serif" font-size="10.00">include/engine/objects</text>
<text text-anchor="middle" x="934" y="-387.5" font-family="Helvetica,sans-Serif" font-size="10.00">/ground/GroundWater.hpp</text>
</a>
</g>
</g>
<!-- Node24&#45;&gt;Node30 -->
<g id="edge37" class="edge">
<title>Node24&#45;&gt;Node30</title>
<path fill="none" stroke="midnightblue" d="M710.36,-446.63C758.79,-435.77 824,-421.15 871.51,-410.51"/>
<polygon fill="midnightblue" stroke="midnightblue" points="709.6,-443.21 700.6,-448.81 711.13,-450.04 709.6,-443.21"/>
</g>
<!-- Node32 -->
<g id="node32" class="node">
<title>Node32</title>
<g id="a_node32"><a xlink:href="_mineral_8hpp.html" target="_top" xlink:title=" ">
<polygon fill="white" stroke="black" points="1015.5,-380.5 1015.5,-410.5 1128.5,-410.5 1128.5,-380.5 1015.5,-380.5"/>
<text text-anchor="start" x="1023.5" y="-398.5" font-family="Helvetica,sans-Serif" font-size="10.00">include/engine/objects</text>
<text text-anchor="middle" x="1072" y="-387.5" font-family="Helvetica,sans-Serif" font-size="10.00">/ground/Mineral.hpp</text>
</a>
</g>
</g>
<!-- Node24&#45;&gt;Node32 -->
<g id="edge40" class="edge">
<title>Node24&#45;&gt;Node32</title>
<path fill="none" stroke="midnightblue" d="M710.48,-453.9C783.47,-445.17 903.99,-429.62 1007,-411 1009.73,-410.51 1012.52,-409.98 1015.33,-409.43"/>
<polygon fill="midnightblue" stroke="midnightblue" points="710.02,-450.43 700.5,-455.08 710.85,-457.38 710.02,-450.43"/>
</g>
<!-- Node26&#45;&gt;Node22 -->
<g id="edge33" class="edge">
<title>Node26&#45;&gt;Node22</title>
<path fill="none" stroke="midnightblue" d="M645.87,-370.25C646.73,-359.02 647.7,-346.38 648.33,-338.19"/>
<polygon fill="midnightblue" stroke="midnightblue" points="642.36,-370.16 645.08,-380.4 649.34,-370.69 642.36,-370.16"/>
</g>
<!-- Node27 -->
<g id="node27" class="node">
<title>Node27</title>
<g id="a_node27"><a xlink:href="_ground_earth_8cpp.html" target="_top" xlink:title=" ">
<polygon fill="white" stroke="black" points="438,-313.5 438,-343.5 562,-343.5 562,-313.5 438,-313.5"/>
<text text-anchor="start" x="446" y="-331.5" font-family="Helvetica,sans-Serif" font-size="10.00">src/engine/objects</text>
<text text-anchor="middle" x="500" y="-320.5" font-family="Helvetica,sans-Serif" font-size="10.00">/ground/GroundEarth.cpp</text>
</a>
</g>
</g>
<!-- Node26&#45;&gt;Node27 -->
<g id="edge32" class="edge">
<title>Node26&#45;&gt;Node27</title>
<path fill="none" stroke="midnightblue" d="M603.61,-376.27C580.68,-365.92 552.4,-353.15 531.18,-343.58"/>
<polygon fill="midnightblue" stroke="midnightblue" points="602.2,-379.47 612.75,-380.4 605.08,-373.09 602.2,-379.47"/>
</g>
<!-- Node28&#45;&gt;Node22 -->
<g id="edge36" class="edge">
<title>Node28&#45;&gt;Node22</title>
<path fill="none" stroke="midnightblue" d="M748.72,-376.13C721.97,-363.62 687.79,-347.64 667.19,-338.01"/>
<polygon fill="midnightblue" stroke="midnightblue" points="747.3,-379.33 757.84,-380.4 750.26,-372.99 747.3,-379.33"/>
</g>
<!-- Node29 -->
<g id="node29" class="node">
<title>Node29</title>
<g id="a_node29"><a xlink:href="_ground_empty_8cpp.html" target="_top" xlink:title=" ">
<polygon fill="white" stroke="black" points="736,-313.5 736,-343.5 864,-343.5 864,-313.5 736,-313.5"/>
<text text-anchor="start" x="744" y="-331.5" font-family="Helvetica,sans-Serif" font-size="10.00">src/engine/objects</text>
<text text-anchor="middle" x="800" y="-320.5" font-family="Helvetica,sans-Serif" font-size="10.00">/ground/GroundEmpty.cpp</text>
</a>
</g>
</g>
<!-- Node28&#45;&gt;Node29 -->
<g id="edge35" class="edge">
<title>Node28&#45;&gt;Node29</title>
<path fill="none" stroke="midnightblue" d="M792.45,-370.4C794.12,-361.37 795.96,-351.41 797.4,-343.58"/>
<polygon fill="midnightblue" stroke="midnightblue" points="788.98,-369.93 790.6,-380.4 795.86,-371.2 788.98,-369.93"/>
</g>
<!-- Node30&#45;&gt;Node22 -->
<g id="edge39" class="edge">
<title>Node30&#45;&gt;Node22</title>
<path fill="none" stroke="midnightblue" d="M862.65,-378.23C806.7,-365.47 731.04,-348.21 686.39,-338.03"/>
<polygon fill="midnightblue" stroke="midnightblue" points="861.98,-381.66 872.51,-380.48 863.54,-374.84 861.98,-381.66"/>
</g>
<!-- Node31 -->
<g id="node31" class="node">
<title>Node31</title>
<g id="a_node31"><a xlink:href="_ground_water_8cpp.html" target="_top" xlink:title=" ">
<polygon fill="white" stroke="black" points="882.5,-313.5 882.5,-343.5 1009.5,-343.5 1009.5,-313.5 882.5,-313.5"/>
<text text-anchor="start" x="890.5" y="-331.5" font-family="Helvetica,sans-Serif" font-size="10.00">src/engine/objects</text>
<text text-anchor="middle" x="946" y="-320.5" font-family="Helvetica,sans-Serif" font-size="10.00">/ground/GroundWater.cpp</text>
</a>
</g>
</g>
<!-- Node30&#45;&gt;Node31 -->
<g id="edge38" class="edge">
<title>Node30&#45;&gt;Node31</title>
<path fill="none" stroke="midnightblue" d="M938.45,-370.4C940.12,-361.37 941.96,-351.41 943.4,-343.58"/>
<polygon fill="midnightblue" stroke="midnightblue" points="934.98,-369.93 936.6,-380.4 941.86,-371.2 934.98,-369.93"/>
</g>
<!-- Node32&#45;&gt;Node22 -->
<g id="edge42" class="edge">
<title>Node32&#45;&gt;Node22</title>
<path fill="none" stroke="midnightblue" d="M1005.48,-379.83C881.71,-358.56 847.8,-362.98 727,-344 715.84,-342.25 703.83,-340.13 692.65,-338.06"/>
<polygon fill="midnightblue" stroke="midnightblue" points="1004.89,-383.27 1015.34,-381.54 1006.09,-376.38 1004.89,-383.27"/>
</g>
<!-- Node33 -->
<g id="node33" class="node">
<title>Node33</title>
<g id="a_node33"><a xlink:href="_mineral_8cpp.html" target="_top" xlink:title=" ">
<polygon fill="white" stroke="black" points="1027.5,-313.5 1027.5,-343.5 1128.5,-343.5 1128.5,-313.5 1027.5,-313.5"/>
<text text-anchor="start" x="1035.5" y="-331.5" font-family="Helvetica,sans-Serif" font-size="10.00">src/engine/objects</text>
<text text-anchor="middle" x="1078" y="-320.5" font-family="Helvetica,sans-Serif" font-size="10.00">/ground/Mineral.cpp</text>
</a>
</g>
</g>
<!-- Node32&#45;&gt;Node33 -->
<g id="edge41" class="edge">
<title>Node32&#45;&gt;Node33</title>
<path fill="none" stroke="midnightblue" d="M1074.22,-370.4C1075.06,-361.37 1075.98,-351.41 1076.7,-343.58"/>
<polygon fill="midnightblue" stroke="midnightblue" points="1070.74,-370.12 1073.3,-380.4 1077.71,-370.76 1070.74,-370.12"/>
</g>
</g>
</svg>
