<?xml version="1.0" encoding="UTF-8" standalone="no"?>
<!DOCTYPE svg PUBLIC "-//W3C//DTD SVG 1.1//EN"
 "http://www.w3.org/Graphics/SVG/1.1/DTD/svg11.dtd">
<!-- Generated by graphviz version 2.47.0 (20210407.0042)
 -->
<!-- Title: include/graphics/Window.hpp Pages: 1 -->
<svg width="940pt" height="386pt"
 viewBox="0.00 0.00 940.07 386.00" xmlns="http://www.w3.org/2000/svg" xmlns:xlink="http://www.w3.org/1999/xlink">
<g id="graph0" class="graph" transform="scale(1 1) rotate(0) translate(4 382)">
<title>include/graphics/Window.hpp</title>
<polygon fill="white" stroke="transparent" points="-4,4 -4,-382 936.07,-382 936.07,4 -4,4"/>
<!-- Node1 -->
<g id="node1" class="node">
<title>Node1</title>
<g id="a_node1"><a xlink:title=" ">
<polygon fill="#bfbfbf" stroke="black" points="289.72,-358.5 289.72,-377.5 432.72,-377.5 432.72,-358.5 289.72,-358.5"/>
<text text-anchor="middle" x="361.22" y="-365.5" font-family="Helvetica,sans-Serif" font-size="10.00">include/graphics/Window.hpp</text>
</a>
</g>
</g>
<!-- Node2 -->
<g id="node2" class="node">
<title>Node2</title>
<g id="a_node2"><a xlink:href="_window_8cpp.html" target="_top" xlink:title=" ">
<polygon fill="white" stroke="black" points="157.72,-302.5 157.72,-321.5 282.72,-321.5 282.72,-302.5 157.72,-302.5"/>
<text text-anchor="middle" x="220.22" y="-309.5" font-family="Helvetica,sans-Serif" font-size="10.00">src/graphics/Window.cpp</text>
</a>
</g>
</g>
<!-- Node1&#45;&gt;Node2 -->
<g id="edge1" class="edge">
<title>Node1&#45;&gt;Node2</title>
<path fill="none" stroke="midnightblue" d="M329.29,-354.77C302.81,-344.63 265.83,-330.47 242.46,-321.52"/>
<polygon fill="midnightblue" stroke="midnightblue" points="328.29,-358.14 338.88,-358.44 330.79,-351.6 328.29,-358.14"/>
</g>
<!-- Node3 -->
<g id="node3" class="node">
<title>Node3</title>
<g id="a_node3"><a xlink:href="_event_handler_8hpp.html" target="_top" xlink:title=" ">
<polygon fill="white" stroke="black" points="131.72,-235.5 131.72,-265.5 240.72,-265.5 240.72,-235.5 131.72,-235.5"/>
<text text-anchor="start" x="139.72" y="-253.5" font-family="Helvetica,sans-Serif" font-size="10.00">include/EventHandler</text>
<text text-anchor="middle" x="186.22" y="-242.5" font-family="Helvetica,sans-Serif" font-size="10.00">/EventHandler.hpp</text>
</a>
</g>
</g>
<!-- Node1&#45;&gt;Node3 -->
<g id="edge2" class="edge">
<title>Node1&#45;&gt;Node3</title>
<path fill="none" stroke="midnightblue" d="M346.3,-350.6C332.86,-336.49 312.07,-316.21 291.22,-302 269.66,-287.3 243.17,-274.59 222.19,-265.6"/>
<polygon fill="midnightblue" stroke="midnightblue" points="343.92,-353.19 353.31,-358.11 349.04,-348.41 343.92,-353.19"/>
</g>
<!-- Node15 -->
<g id="node15" class="node">
<title>Node15</title>
<g id="a_node15"><a xlink:href="_g_shape_8hpp.html" target="_top" xlink:title=" ">
<polygon fill="white" stroke="black" points="339.72,-302.5 339.72,-321.5 482.72,-321.5 482.72,-302.5 339.72,-302.5"/>
<text text-anchor="middle" x="411.22" y="-309.5" font-family="Helvetica,sans-Serif" font-size="10.00">include/graphics/GShape.hpp</text>
</a>
</g>
</g>
<!-- Node1&#45;&gt;Node15 -->
<g id="edge17" class="edge">
<title>Node1&#45;&gt;Node15</title>
<path fill="none" stroke="midnightblue" d="M376.3,-350.72C385.11,-341.2 395.89,-329.56 403.12,-321.75"/>
<polygon fill="midnightblue" stroke="midnightblue" points="373.7,-348.37 369.48,-358.08 378.84,-353.12 373.7,-348.37"/>
</g>
<!-- Node4 -->
<g id="node4" class="node">
<title>Node4</title>
<g id="a_node4"><a xlink:href="_event_handler_8cpp.html" target="_top" xlink:title=" ">
<polygon fill="white" stroke="black" points="27.72,-112.5 27.72,-131.5 198.72,-131.5 198.72,-112.5 27.72,-112.5"/>
<text text-anchor="middle" x="113.22" y="-119.5" font-family="Helvetica,sans-Serif" font-size="10.00">src/EventHandler/EventHandler.cpp</text>
</a>
</g>
</g>
<!-- Node3&#45;&gt;Node4 -->
<g id="edge3" class="edge">
<title>Node3&#45;&gt;Node4</title>
<path fill="none" stroke="midnightblue" d="M173.02,-226.63C156.64,-198.24 129.49,-151.2 118.29,-131.79"/>
<polygon fill="midnightblue" stroke="midnightblue" points="170.1,-228.57 178.13,-235.48 176.16,-225.07 170.1,-228.57"/>
</g>
<!-- Node5 -->
<g id="node5" class="node">
<title>Node5</title>
<g id="a_node5"><a xlink:href="_resource_manager_8hpp.html" target="_top" xlink:title=" ">
<polygon fill="white" stroke="black" points="384.72,-168.5 384.72,-198.5 515.72,-198.5 515.72,-168.5 384.72,-168.5"/>
<text text-anchor="start" x="392.72" y="-186.5" font-family="Helvetica,sans-Serif" font-size="10.00">include/graphics/Resource</text>
<text text-anchor="middle" x="450.22" y="-175.5" font-family="Helvetica,sans-Serif" font-size="10.00">Manager.hpp</text>
</a>
</g>
</g>
<!-- Node3&#45;&gt;Node5 -->
<g id="edge4" class="edge">
<title>Node3&#45;&gt;Node5</title>
<path fill="none" stroke="midnightblue" d="M250.85,-233.59C294.45,-222.85 351.43,-208.82 393.31,-198.51"/>
<polygon fill="midnightblue" stroke="midnightblue" points="249.79,-230.24 240.92,-236.03 251.47,-237.04 249.79,-230.24"/>
</g>
<!-- Node5&#45;&gt;Node4 -->
<g id="edge8" class="edge">
<title>Node5&#45;&gt;Node4</title>
<path fill="none" stroke="midnightblue" d="M374.21,-169.08C308.98,-157.56 216.95,-141.31 161.4,-131.51"/>
<polygon fill="midnightblue" stroke="midnightblue" points="373.99,-172.59 384.44,-170.89 375.2,-165.7 373.99,-172.59"/>
</g>
<!-- Node6 -->
<g id="node6" class="node">
<title>Node6</title>
<g id="a_node6"><a xlink:href="_drawable_8cpp.html" target="_top" xlink:title=" ">
<polygon fill="white" stroke="black" points="216.72,-112.5 216.72,-131.5 339.72,-131.5 339.72,-112.5 216.72,-112.5"/>
<text text-anchor="middle" x="278.22" y="-119.5" font-family="Helvetica,sans-Serif" font-size="10.00">src/engine/Drawable.cpp</text>
</a>
</g>
</g>
<!-- Node5&#45;&gt;Node6 -->
<g id="edge5" class="edge">
<title>Node5&#45;&gt;Node6</title>
<path fill="none" stroke="midnightblue" d="M399.85,-165.08C367.99,-154.05 328.21,-140.29 303,-131.57"/>
<polygon fill="midnightblue" stroke="midnightblue" points="398.86,-168.44 409.46,-168.4 401.15,-161.82 398.86,-168.44"/>
</g>
<!-- Node7 -->
<g id="node7" class="node">
<title>Node7</title>
<g id="a_node7"><a xlink:href="_field_8cpp.html" target="_top" xlink:title=" ">
<polygon fill="white" stroke="black" points="358.22,-112.5 358.22,-131.5 462.22,-131.5 462.22,-112.5 358.22,-112.5"/>
<text text-anchor="middle" x="410.22" y="-119.5" font-family="Helvetica,sans-Serif" font-size="10.00">src/engine/Field.cpp</text>
</a>
</g>
</g>
<!-- Node5&#45;&gt;Node7 -->
<g id="edge6" class="edge">
<title>Node5&#45;&gt;Node7</title>
<path fill="none" stroke="midnightblue" d="M434.96,-159.8C428.35,-149.96 421,-139.03 416.04,-131.66"/>
<polygon fill="midnightblue" stroke="midnightblue" points="432.26,-162.05 440.74,-168.4 438.07,-158.15 432.26,-162.05"/>
</g>
<!-- Node8 -->
<g id="node8" class="node">
<title>Node8</title>
<g id="a_node8"><a xlink:href="_engine_8cpp.html" target="_top" xlink:title=" ">
<polygon fill="white" stroke="black" points="518.22,-112.5 518.22,-131.5 598.22,-131.5 598.22,-112.5 518.22,-112.5"/>
<text text-anchor="middle" x="558.22" y="-119.5" font-family="Helvetica,sans-Serif" font-size="10.00">src/Engine.cpp</text>
</a>
</g>
</g>
<!-- Node5&#45;&gt;Node8 -->
<g id="edge7" class="edge">
<title>Node5&#45;&gt;Node8</title>
<path fill="none" stroke="midnightblue" d="M484.7,-163.51C504.11,-152.81 527.42,-139.97 542.51,-131.66"/>
<polygon fill="midnightblue" stroke="midnightblue" points="482.89,-160.51 475.82,-168.4 486.26,-166.64 482.89,-160.51"/>
</g>
<!-- Node9 -->
<g id="node9" class="node">
<title>Node9</title>
<g id="a_node9"><a xlink:href="_resource_manager_8cpp.html" target="_top" xlink:title=" ">
<polygon fill="white" stroke="black" points="616.22,-112.5 616.22,-131.5 786.22,-131.5 786.22,-112.5 616.22,-112.5"/>
<text text-anchor="middle" x="701.22" y="-119.5" font-family="Helvetica,sans-Serif" font-size="10.00">src/graphics/ResourceManager.cpp</text>
</a>
</g>
</g>
<!-- Node5&#45;&gt;Node9 -->
<g id="edge9" class="edge">
<title>Node5&#45;&gt;Node9</title>
<path fill="none" stroke="midnightblue" d="M519.26,-166.13C566.56,-154.92 627.38,-140.5 665.34,-131.51"/>
<polygon fill="midnightblue" stroke="midnightblue" points="518.31,-162.76 509.39,-168.47 519.92,-169.57 518.31,-162.76"/>
</g>
<!-- Node10 -->
<g id="node10" class="node">
<title>Node10</title>
<g id="a_node10"><a xlink:href="main_8cpp.html" target="_top" xlink:title=" ">
<polygon fill="white" stroke="black" points="735.22,-0.5 735.22,-19.5 807.22,-19.5 807.22,-0.5 735.22,-0.5"/>
<text text-anchor="middle" x="771.22" y="-7.5" font-family="Helvetica,sans-Serif" font-size="10.00">src/main.cpp</text>
</a>
</g>
</g>
<!-- Node5&#45;&gt;Node10 -->
<g id="edge10" class="edge">
<title>Node5&#45;&gt;Node10</title>
<path fill="none" stroke="midnightblue" d="M526.13,-168.31C601.34,-161.99 894.79,-163.12 923.22,-132 935.62,-118.43 935.98,-81.18 914.22,-56 887.67,-25.28 840.38,-15.29 807.48,-12.17"/>
<polygon fill="midnightblue" stroke="midnightblue" points="525.58,-164.85 516.01,-169.39 526.32,-171.81 525.58,-164.85"/>
</g>
<!-- Node11 -->
<g id="node11" class="node">
<title>Node11</title>
<g id="a_node11"><a xlink:href="_inventory_8hpp.html" target="_top" xlink:title=" ">
<polygon fill="white" stroke="black" points="545.72,-56.5 545.72,-75.5 674.72,-75.5 674.72,-56.5 545.72,-56.5"/>
<text text-anchor="middle" x="610.22" y="-63.5" font-family="Helvetica,sans-Serif" font-size="10.00">include/GUI/Inventory.hpp</text>
</a>
</g>
</g>
<!-- Node5&#45;&gt;Node11 -->
<g id="edge11" class="edge">
<title>Node5&#45;&gt;Node11</title>
<path fill="none" stroke="midnightblue" d="M464.89,-160.08C475.69,-144.93 491.54,-125.34 509.22,-112 531.44,-95.23 560.89,-83.02 582.25,-75.59"/>
<polygon fill="midnightblue" stroke="midnightblue" points="461.94,-158.19 459.13,-168.4 467.7,-162.17 461.94,-158.19"/>
</g>
<!-- Node13 -->
<g id="node13" class="node">
<title>Node13</title>
<g id="a_node13"><a xlink:href="_item_8hpp.html" target="_top" xlink:title=" ">
<polygon fill="white" stroke="black" points="804.72,-112.5 804.72,-131.5 913.72,-131.5 913.72,-112.5 804.72,-112.5"/>
<text text-anchor="middle" x="859.22" y="-119.5" font-family="Helvetica,sans-Serif" font-size="10.00">include/GUI/Item.hpp</text>
</a>
</g>
</g>
<!-- Node5&#45;&gt;Node13 -->
<g id="edge14" class="edge">
<title>Node5&#45;&gt;Node13</title>
<path fill="none" stroke="midnightblue" d="M526.01,-167.93C646.38,-148.49 678.44,-148 795.22,-132 798.22,-131.59 801.3,-131.16 804.41,-130.73"/>
<polygon fill="midnightblue" stroke="midnightblue" points="525.34,-164.49 516.03,-169.55 526.46,-171.4 525.34,-164.49"/>
</g>
<!-- Node11&#45;&gt;Node10 -->
<g id="edge13" class="edge">
<title>Node11&#45;&gt;Node10</title>
<path fill="none" stroke="midnightblue" d="M645.49,-53.17C675.8,-43 718.79,-28.59 745.83,-19.52"/>
<polygon fill="midnightblue" stroke="midnightblue" points="644.1,-49.95 635.73,-56.44 646.33,-56.58 644.1,-49.95"/>
</g>
<!-- Node12 -->
<g id="node12" class="node">
<title>Node12</title>
<g id="a_node12"><a xlink:href="_inventory_8cpp.html" target="_top" xlink:title=" ">
<polygon fill="white" stroke="black" points="554.22,-0.5 554.22,-19.5 666.22,-19.5 666.22,-0.5 554.22,-0.5"/>
<text text-anchor="middle" x="610.22" y="-7.5" font-family="Helvetica,sans-Serif" font-size="10.00">src/GUI/Inventory.cpp</text>
</a>
</g>
</g>
<!-- Node11&#45;&gt;Node12 -->
<g id="edge12" class="edge">
<title>Node11&#45;&gt;Node12</title>
<path fill="none" stroke="midnightblue" d="M610.22,-45.8C610.22,-36.91 610.22,-26.78 610.22,-19.75"/>
<polygon fill="midnightblue" stroke="midnightblue" points="606.72,-46.08 610.22,-56.08 613.72,-46.08 606.72,-46.08"/>
</g>
<!-- Node13&#45;&gt;Node11 -->
<g id="edge16" class="edge">
<title>Node13&#45;&gt;Node11</title>
<path fill="none" stroke="midnightblue" d="M809.8,-110.28C762.74,-100.08 692.85,-84.92 649.49,-75.52"/>
<polygon fill="midnightblue" stroke="midnightblue" points="809.25,-113.74 819.77,-112.44 810.73,-106.9 809.25,-113.74"/>
</g>
<!-- Node14 -->
<g id="node14" class="node">
<title>Node14</title>
<g id="a_node14"><a xlink:href="_item_8cpp.html" target="_top" xlink:title=" ">
<polygon fill="white" stroke="black" points="813.22,-56.5 813.22,-75.5 905.22,-75.5 905.22,-56.5 813.22,-56.5"/>
<text text-anchor="middle" x="859.22" y="-63.5" font-family="Helvetica,sans-Serif" font-size="10.00">src/GUI/Item.cpp</text>
</a>
</g>
</g>
<!-- Node13&#45;&gt;Node14 -->
<g id="edge15" class="edge">
<title>Node13&#45;&gt;Node14</title>
<path fill="none" stroke="midnightblue" d="M859.22,-101.8C859.22,-92.91 859.22,-82.78 859.22,-75.75"/>
<polygon fill="midnightblue" stroke="midnightblue" points="855.72,-102.08 859.22,-112.08 862.72,-102.08 855.72,-102.08"/>
</g>
<!-- Node15&#45;&gt;Node5 -->
<g id="edge19" class="edge">
<title>Node15&#45;&gt;Node5</title>
<path fill="none" stroke="midnightblue" d="M416.02,-292.17C420.05,-276.72 426.12,-254.33 432.22,-235 436.15,-222.57 441.16,-208.64 444.9,-198.56"/>
<polygon fill="midnightblue" stroke="midnightblue" points="412.58,-291.49 413.47,-302.05 419.36,-293.24 412.58,-291.49"/>
</g>
<!-- Node15&#45;&gt;Node11 -->
<g id="edge25" class="edge">
<title>Node15&#45;&gt;Node11</title>
<path fill="none" stroke="midnightblue" d="M329.55,-305.02C256.7,-298.49 156.43,-286.16 122.22,-266 51.07,-224.06 -37.92,-172.57 18.22,-112 53.5,-73.94 399.59,-67.91 545.68,-67.07"/>
<polygon fill="midnightblue" stroke="midnightblue" points="329.37,-308.52 339.64,-305.91 329.98,-301.55 329.37,-308.52"/>
</g>
<!-- Node16 -->
<g id="node16" class="node">
<title>Node16</title>
<g id="a_node16"><a xlink:href="_g_shape_8cpp.html" target="_top" xlink:title=" ">
<polygon fill="white" stroke="black" points="259.22,-241 259.22,-260 385.22,-260 385.22,-241 259.22,-241"/>
<text text-anchor="middle" x="322.22" y="-248" font-family="Helvetica,sans-Serif" font-size="10.00">src/graphics/GShape.cpp</text>
</a>
</g>
</g>
<!-- Node15&#45;&gt;Node16 -->
<g id="edge18" class="edge">
<title>Node15&#45;&gt;Node16</title>
<path fill="none" stroke="midnightblue" d="M389.7,-296.61C372.58,-285.17 349.21,-269.55 334.95,-260.01"/>
<polygon fill="midnightblue" stroke="midnightblue" points="388.21,-299.83 398.47,-302.48 392.1,-294.01 388.21,-299.83"/>
</g>
<!-- Node17 -->
<g id="node17" class="node">
<title>Node17</title>
<g id="a_node17"><a xlink:href="_shader_8hpp.html" target="_top" xlink:title=" ">
<polygon fill="white" stroke="black" points="441.72,-241 441.72,-260 580.72,-260 580.72,-241 441.72,-241"/>
<text text-anchor="middle" x="511.22" y="-248" font-family="Helvetica,sans-Serif" font-size="10.00">include/graphics/Shader.hpp</text>
</a>
</g>
</g>
<!-- Node15&#45;&gt;Node17 -->
<g id="edge20" class="edge">
<title>Node15&#45;&gt;Node17</title>
<path fill="none" stroke="midnightblue" d="M429.03,-296.93C446.83,-285.46 473.74,-269.63 492.02,-260.01"/>
<polygon fill="midnightblue" stroke="midnightblue" points="427.06,-294.04 420.65,-302.48 430.92,-299.88 427.06,-294.04"/>
</g>
<!-- Node17&#45;&gt;Node1 -->
<g id="edge24" class="edge">
<title>Node17&#45;&gt;Node1</title>
<path fill="none" stroke="midnightblue" d="M510.55,-270.22C509.02,-285.93 504.44,-308.01 491.22,-322 473.18,-341.1 446.64,-352.09 422.24,-358.42"/>
<polygon fill="midnightblue" stroke="midnightblue" points="514.06,-270.31 511.21,-260.1 507.07,-269.85 514.06,-270.31"/>
</g>
<!-- Node17&#45;&gt;Node5 -->
<g id="edge23" class="edge">
<title>Node17&#45;&gt;Node5</title>
<path fill="none" stroke="midnightblue" d="M496.02,-233.3C486.01,-222.63 473.03,-208.8 463.44,-198.59"/>
<polygon fill="midnightblue" stroke="midnightblue" points="493.6,-235.84 502.99,-240.73 498.7,-231.05 493.6,-235.84"/>
</g>
<!-- Node17&#45;&gt;Node15 -->
<g id="edge22" class="edge">
<title>Node17&#45;&gt;Node15</title>
<path fill="none" stroke="midnightblue" d="M493.44,-265.55C475.65,-277.02 448.74,-292.84 430.45,-302.48"/>
<polygon fill="midnightblue" stroke="midnightblue" points="495.41,-268.45 501.82,-260.01 491.55,-262.61 495.41,-268.45"/>
</g>
<!-- Node18 -->
<g id="node18" class="node">
<title>Node18</title>
<g id="a_node18"><a xlink:href="_shader_8cpp.html" target="_top" xlink:title=" ">
<polygon fill="white" stroke="black" points="534.22,-174 534.22,-193 656.22,-193 656.22,-174 534.22,-174"/>
<text text-anchor="middle" x="595.22" y="-181" font-family="Helvetica,sans-Serif" font-size="10.00">src/graphics/Shader.cpp</text>
</a>
</g>
</g>
<!-- Node17&#45;&gt;Node18 -->
<g id="edge21" class="edge">
<title>Node17&#45;&gt;Node18</title>
<path fill="none" stroke="midnightblue" d="M530.52,-234.57C547.1,-221.74 570.43,-203.69 584.07,-193.13"/>
<polygon fill="midnightblue" stroke="midnightblue" points="528.32,-231.85 522.55,-240.73 532.6,-237.38 528.32,-231.85"/>
</g>
</g>
</svg>
