<?xml version="1.0" encoding="UTF-8" standalone="no"?>
<!DOCTYPE svg PUBLIC "-//W3C//DTD SVG 1.1//EN"
 "http://www.w3.org/Graphics/SVG/1.1/DTD/svg11.dtd">
<!-- Generated by graphviz version 2.47.0 (20210407.0042)
 -->
<!-- Title: include/graphics/Window.hpp Pages: 1 -->
<svg width="630pt" height="263pt"
 viewBox="0.00 0.00 629.50 263.00" xmlns="http://www.w3.org/2000/svg" xmlns:xlink="http://www.w3.org/1999/xlink">
<g id="graph0" class="graph" transform="scale(1 1) rotate(0) translate(4 259)">
<title>include/graphics/Window.hpp</title>
<polygon fill="white" stroke="transparent" points="-4,4 -4,-259 625.5,-259 625.5,4 -4,4"/>
<!-- Node1 -->
<g id="node1" class="node">
<title>Node1</title>
<g id="a_node1"><a xlink:title=" ">
<polygon fill="#bfbfbf" stroke="black" points="232,-235.5 232,-254.5 375,-254.5 375,-235.5 232,-235.5"/>
<text text-anchor="middle" x="303.5" y="-242.5" font-family="Helvetica,sans-Serif" font-size="10.00">include/graphics/Window.hpp</text>
</a>
</g>
</g>
<!-- Node2 -->
<g id="node2" class="node">
<title>Node2</title>
<g id="a_node2"><a xlink:href="_window_8cpp.html" target="_top" xlink:title=" ">
<polygon fill="white" stroke="black" points="89,-179.5 89,-198.5 214,-198.5 214,-179.5 89,-179.5"/>
<text text-anchor="middle" x="151.5" y="-186.5" font-family="Helvetica,sans-Serif" font-size="10.00">src/graphics/Window.cpp</text>
</a>
</g>
</g>
<!-- Node1&#45;&gt;Node2 -->
<g id="edge1" class="edge">
<title>Node1&#45;&gt;Node2</title>
<path fill="none" stroke="midnightblue" d="M269.83,-232.04C241.23,-221.88 200.89,-207.55 175.47,-198.52"/>
<polygon fill="midnightblue" stroke="midnightblue" points="268.82,-235.39 279.42,-235.44 271.16,-228.8 268.82,-235.39"/>
</g>
<!-- Node3 -->
<g id="node3" class="node">
<title>Node3</title>
<g id="a_node3"><a xlink:href="_g_shape_8hpp.html" target="_top" xlink:title=" ">
<polygon fill="white" stroke="black" points="232,-179.5 232,-198.5 375,-198.5 375,-179.5 232,-179.5"/>
<text text-anchor="middle" x="303.5" y="-186.5" font-family="Helvetica,sans-Serif" font-size="10.00">include/graphics/GShape.hpp</text>
</a>
</g>
</g>
<!-- Node1&#45;&gt;Node3 -->
<g id="edge2" class="edge">
<title>Node1&#45;&gt;Node3</title>
<path fill="none" stroke="midnightblue" d="M303.5,-224.8C303.5,-215.91 303.5,-205.78 303.5,-198.75"/>
<polygon fill="midnightblue" stroke="midnightblue" points="300,-225.08 303.5,-235.08 307,-225.08 300,-225.08"/>
</g>
<!-- Node4 -->
<g id="node4" class="node">
<title>Node4</title>
<g id="a_node4"><a xlink:href="_g_shape_8cpp.html" target="_top" xlink:title=" ">
<polygon fill="white" stroke="black" points="149.5,-123.5 149.5,-142.5 275.5,-142.5 275.5,-123.5 149.5,-123.5"/>
<text text-anchor="middle" x="212.5" y="-130.5" font-family="Helvetica,sans-Serif" font-size="10.00">src/graphics/GShape.cpp</text>
</a>
</g>
</g>
<!-- Node3&#45;&gt;Node4 -->
<g id="edge3" class="edge">
<title>Node3&#45;&gt;Node4</title>
<path fill="none" stroke="midnightblue" d="M280.21,-174.18C263.46,-164.24 241.4,-151.15 227.08,-142.65"/>
<polygon fill="midnightblue" stroke="midnightblue" points="278.49,-177.23 288.88,-179.32 282.07,-171.21 278.49,-177.23"/>
</g>
<!-- Node5 -->
<g id="node5" class="node">
<title>Node5</title>
<g id="a_node5"><a xlink:href="_resource_manager_8hpp.html" target="_top" xlink:title=" ">
<polygon fill="white" stroke="black" points="238,-56.5 238,-86.5 369,-86.5 369,-56.5 238,-56.5"/>
<text text-anchor="start" x="246" y="-74.5" font-family="Helvetica,sans-Serif" font-size="10.00">include/graphics/Resource</text>
<text text-anchor="middle" x="303.5" y="-63.5" font-family="Helvetica,sans-Serif" font-size="10.00">Manager.hpp</text>
</a>
</g>
</g>
<!-- Node3&#45;&gt;Node5 -->
<g id="edge4" class="edge">
<title>Node3&#45;&gt;Node5</title>
<path fill="none" stroke="midnightblue" d="M303.5,-169.07C303.5,-145.9 303.5,-107.22 303.5,-86.55"/>
<polygon fill="midnightblue" stroke="midnightblue" points="300,-169.32 303.5,-179.32 307,-169.32 300,-169.32"/>
</g>
<!-- Node11 -->
<g id="node11" class="node">
<title>Node11</title>
<g id="a_node11"><a xlink:href="_shader_8hpp.html" target="_top" xlink:title=" ">
<polygon fill="white" stroke="black" points="332,-123.5 332,-142.5 471,-142.5 471,-123.5 332,-123.5"/>
<text text-anchor="middle" x="401.5" y="-130.5" font-family="Helvetica,sans-Serif" font-size="10.00">include/graphics/Shader.hpp</text>
</a>
</g>
</g>
<!-- Node3&#45;&gt;Node11 -->
<g id="edge10" class="edge">
<title>Node3&#45;&gt;Node11</title>
<path fill="none" stroke="midnightblue" d="M323.08,-173.9C339.82,-164 363.58,-151.07 380.68,-142.65"/>
<polygon fill="midnightblue" stroke="midnightblue" points="320.87,-171.15 314.13,-179.32 324.5,-177.13 320.87,-171.15"/>
</g>
<!-- Node6 -->
<g id="node6" class="node">
<title>Node6</title>
<g id="a_node6"><a xlink:href="_drawable_8cpp.html" target="_top" xlink:title=" ">
<polygon fill="white" stroke="black" points="0,-0.5 0,-19.5 123,-19.5 123,-0.5 0,-0.5"/>
<text text-anchor="middle" x="61.5" y="-7.5" font-family="Helvetica,sans-Serif" font-size="10.00">src/engine/Drawable.cpp</text>
</a>
</g>
</g>
<!-- Node5&#45;&gt;Node6 -->
<g id="edge5" class="edge">
<title>Node5&#45;&gt;Node6</title>
<path fill="none" stroke="midnightblue" d="M236.65,-54.06C191.08,-42.86 132.62,-28.49 96.1,-19.51"/>
<polygon fill="midnightblue" stroke="midnightblue" points="235.91,-57.49 246.46,-56.47 237.58,-50.69 235.91,-57.49"/>
</g>
<!-- Node7 -->
<g id="node7" class="node">
<title>Node7</title>
<g id="a_node7"><a xlink:href="_field_8cpp.html" target="_top" xlink:title=" ">
<polygon fill="white" stroke="black" points="141.5,-0.5 141.5,-19.5 245.5,-19.5 245.5,-0.5 141.5,-0.5"/>
<text text-anchor="middle" x="193.5" y="-7.5" font-family="Helvetica,sans-Serif" font-size="10.00">src/engine/Field.cpp</text>
</a>
</g>
</g>
<!-- Node5&#45;&gt;Node7 -->
<g id="edge6" class="edge">
<title>Node5&#45;&gt;Node7</title>
<path fill="none" stroke="midnightblue" d="M268.38,-51.51C248.61,-40.81 224.88,-27.97 209.51,-19.66"/>
<polygon fill="midnightblue" stroke="midnightblue" points="266.97,-54.72 277.43,-56.4 270.3,-48.56 266.97,-54.72"/>
</g>
<!-- Node8 -->
<g id="node8" class="node">
<title>Node8</title>
<g id="a_node8"><a xlink:href="_engine_8cpp.html" target="_top" xlink:title=" ">
<polygon fill="white" stroke="black" points="263.5,-0.5 263.5,-19.5 343.5,-19.5 343.5,-0.5 263.5,-0.5"/>
<text text-anchor="middle" x="303.5" y="-7.5" font-family="Helvetica,sans-Serif" font-size="10.00">src/Engine.cpp</text>
</a>
</g>
</g>
<!-- Node5&#45;&gt;Node8 -->
<g id="edge7" class="edge">
<title>Node5&#45;&gt;Node8</title>
<path fill="none" stroke="midnightblue" d="M303.5,-46.29C303.5,-36.86 303.5,-26.65 303.5,-19.66"/>
<polygon fill="midnightblue" stroke="midnightblue" points="300,-46.4 303.5,-56.4 307,-46.4 300,-46.4"/>
</g>
<!-- Node9 -->
<g id="node9" class="node">
<title>Node9</title>
<g id="a_node9"><a xlink:href="_resource_manager_8cpp.html" target="_top" xlink:title=" ">
<polygon fill="white" stroke="black" points="361.5,-0.5 361.5,-19.5 531.5,-19.5 531.5,-0.5 361.5,-0.5"/>
<text text-anchor="middle" x="446.5" y="-7.5" font-family="Helvetica,sans-Serif" font-size="10.00">src/graphics/ResourceManager.cpp</text>
</a>
</g>
</g>
<!-- Node5&#45;&gt;Node9 -->
<g id="edge8" class="edge">
<title>Node5&#45;&gt;Node9</title>
<path fill="none" stroke="midnightblue" d="M346.72,-52.52C372.89,-41.63 405.08,-28.23 425.69,-19.66"/>
<polygon fill="midnightblue" stroke="midnightblue" points="345.28,-49.33 337.39,-56.4 347.97,-55.79 345.28,-49.33"/>
</g>
<!-- Node10 -->
<g id="node10" class="node">
<title>Node10</title>
<g id="a_node10"><a xlink:href="main_8cpp.html" target="_top" xlink:title=" ">
<polygon fill="white" stroke="black" points="549.5,-0.5 549.5,-19.5 621.5,-19.5 621.5,-0.5 549.5,-0.5"/>
<text text-anchor="middle" x="585.5" y="-7.5" font-family="Helvetica,sans-Serif" font-size="10.00">src/main.cpp</text>
</a>
</g>
</g>
<!-- Node5&#45;&gt;Node10 -->
<g id="edge9" class="edge">
<title>Node5&#45;&gt;Node10</title>
<path fill="none" stroke="midnightblue" d="M379.35,-54.5C434.51,-42.86 506.73,-27.62 549.41,-18.61"/>
<polygon fill="midnightblue" stroke="midnightblue" points="378.32,-51.14 369.26,-56.62 379.77,-57.99 378.32,-51.14"/>
</g>
<!-- Node11&#45;&gt;Node1 -->
<g id="edge14" class="edge">
<title>Node11&#45;&gt;Node1</title>
<path fill="none" stroke="midnightblue" d="M400.19,-152.47C398.36,-166.5 393.98,-185.61 383.5,-199 369.75,-216.57 347.11,-228.38 329.42,-235.47"/>
<polygon fill="midnightblue" stroke="midnightblue" points="403.68,-152.8 401.18,-142.51 396.71,-152.11 403.68,-152.8"/>
</g>
<!-- Node11&#45;&gt;Node3 -->
<g id="edge12" class="edge">
<title>Node11&#45;&gt;Node3</title>
<path fill="none" stroke="midnightblue" d="M381.97,-148.07C365.23,-157.97 341.47,-170.9 324.36,-179.32"/>
<polygon fill="midnightblue" stroke="midnightblue" points="384.17,-150.83 390.9,-142.65 380.54,-144.85 384.17,-150.83"/>
</g>
<!-- Node11&#45;&gt;Node5 -->
<g id="edge13" class="edge">
<title>Node11&#45;&gt;Node5</title>
<path fill="none" stroke="midnightblue" d="M378.9,-118.28C363.21,-108.75 342.39,-96.11 326.6,-86.52"/>
<polygon fill="midnightblue" stroke="midnightblue" points="377.09,-121.28 387.46,-123.48 380.73,-115.29 377.09,-121.28"/>
</g>
<!-- Node12 -->
<g id="node12" class="node">
<title>Node12</title>
<g id="a_node12"><a xlink:href="_shader_8cpp.html" target="_top" xlink:title=" ">
<polygon fill="white" stroke="black" points="387.5,-62 387.5,-81 509.5,-81 509.5,-62 387.5,-62"/>
<text text-anchor="middle" x="448.5" y="-69" font-family="Helvetica,sans-Serif" font-size="10.00">src/graphics/Shader.cpp</text>
</a>
</g>
</g>
<!-- Node11&#45;&gt;Node12 -->
<g id="edge11" class="edge">
<title>Node11&#45;&gt;Node12</title>
<path fill="none" stroke="midnightblue" d="M414.66,-115.34C423.48,-104.17 434.73,-89.93 441.78,-81.01"/>
<polygon fill="midnightblue" stroke="midnightblue" points="411.69,-113.46 408.23,-123.48 417.18,-117.8 411.69,-113.46"/>
</g>
</g>
</svg>
