<?xml version="1.0" encoding="UTF-8" standalone="no"?>
<!DOCTYPE svg PUBLIC "-//W3C//DTD SVG 1.1//EN"
 "http://www.w3.org/Graphics/SVG/1.1/DTD/svg11.dtd">
<!-- Generated by graphviz version 2.47.0 (20210407.0042)
 -->
<!-- Title: src/graphics/Window.cpp Pages: 1 -->
<svg width="486pt" height="308pt"
 viewBox="0.00 0.00 486.00 308.00" xmlns="http://www.w3.org/2000/svg" xmlns:xlink="http://www.w3.org/1999/xlink">
<g id="graph0" class="graph" transform="scale(1 1) rotate(0) translate(4 304)">
<title>src/graphics/Window.cpp</title>
<polygon fill="white" stroke="transparent" points="-4,4 -4,-304 482,-304 482,4 -4,4"/>
<!-- Node1 -->
<g id="node1" class="node">
<title>Node1</title>
<g id="a_node1"><a xlink:title=" ">
<polygon fill="#bfbfbf" stroke="black" points="227,-280.5 227,-299.5 352,-299.5 352,-280.5 227,-280.5"/>
<text text-anchor="middle" x="289.5" y="-287.5" font-family="Helvetica,sans-Serif" font-size="10.00">src/graphics/Window.cpp</text>
</a>
</g>
</g>
<!-- Node2 -->
<g id="node2" class="node">
<title>Node2</title>
<g id="a_node2"><a xlink:href="_window_8hpp.html" target="_top" xlink:title=" ">
<polygon fill="white" stroke="black" points="184,-224.5 184,-243.5 293,-243.5 293,-224.5 184,-224.5"/>
<text text-anchor="middle" x="238.5" y="-231.5" font-family="Helvetica,sans-Serif" font-size="10.00">graphics/Window.hpp</text>
</a>
</g>
</g>
<!-- Node1&#45;&gt;Node2 -->
<g id="edge1" class="edge">
<title>Node1&#45;&gt;Node2</title>
<path fill="none" stroke="midnightblue" d="M281.08,-280.08C273.65,-272.22 262.65,-260.57 253.69,-251.08"/>
<polygon fill="midnightblue" stroke="midnightblue" points="256.18,-248.62 246.76,-243.75 251.09,-253.42 256.18,-248.62"/>
</g>
<!-- Node14 -->
<g id="node14" class="node">
<title>Node14</title>
<g id="a_node14"><a xlink:title=" ">
<polygon fill="white" stroke="#bfbfbf" points="311,-224.5 311,-243.5 370,-243.5 370,-224.5 311,-224.5"/>
<text text-anchor="middle" x="340.5" y="-231.5" font-family="Helvetica,sans-Serif" font-size="10.00">functional</text>
</a>
</g>
</g>
<!-- Node1&#45;&gt;Node14 -->
<g id="edge18" class="edge">
<title>Node1&#45;&gt;Node14</title>
<path fill="none" stroke="midnightblue" d="M297.92,-280.08C305.35,-272.22 316.35,-260.57 325.31,-251.08"/>
<polygon fill="midnightblue" stroke="midnightblue" points="327.91,-253.42 332.24,-243.75 322.82,-248.62 327.91,-253.42"/>
</g>
<!-- Node3 -->
<g id="node3" class="node">
<title>Node3</title>
<g id="a_node3"><a xlink:title=" ">
<polygon fill="white" stroke="#bfbfbf" points="0,-168.5 0,-187.5 63,-187.5 63,-168.5 0,-168.5"/>
<text text-anchor="middle" x="31.5" y="-175.5" font-family="Helvetica,sans-Serif" font-size="10.00">glad/glad.h</text>
</a>
</g>
</g>
<!-- Node2&#45;&gt;Node3 -->
<g id="edge2" class="edge">
<title>Node2&#45;&gt;Node3</title>
<path fill="none" stroke="midnightblue" d="M205.7,-224.44C169.81,-215.08 112.18,-200.05 73.12,-189.86"/>
<polygon fill="midnightblue" stroke="midnightblue" points="73.69,-186.39 63.13,-187.25 71.92,-193.16 73.69,-186.39"/>
</g>
<!-- Node4 -->
<g id="node4" class="node">
<title>Node4</title>
<g id="a_node4"><a xlink:title=" ">
<polygon fill="white" stroke="#bfbfbf" points="81,-168.5 81,-187.5 160,-187.5 160,-168.5 81,-168.5"/>
<text text-anchor="middle" x="120.5" y="-175.5" font-family="Helvetica,sans-Serif" font-size="10.00">GLFW/glfw3.h</text>
</a>
</g>
</g>
<!-- Node2&#45;&gt;Node4 -->
<g id="edge3" class="edge">
<title>Node2&#45;&gt;Node4</title>
<path fill="none" stroke="midnightblue" d="M219.8,-224.44C200.56,-215.64 170.35,-201.81 148.3,-191.72"/>
<polygon fill="midnightblue" stroke="midnightblue" points="149.66,-188.5 139.11,-187.52 146.75,-194.86 149.66,-188.5"/>
</g>
<!-- Node5 -->
<g id="node5" class="node">
<title>Node5</title>
<g id="a_node5"><a xlink:title=" ">
<polygon fill="white" stroke="#bfbfbf" points="182,-0.5 182,-19.5 221,-19.5 221,-0.5 182,-0.5"/>
<text text-anchor="middle" x="201.5" y="-7.5" font-family="Helvetica,sans-Serif" font-size="10.00">utility</text>
</a>
</g>
</g>
<!-- Node2&#45;&gt;Node5 -->
<g id="edge4" class="edge">
<title>Node2&#45;&gt;Node5</title>
<path fill="none" stroke="midnightblue" d="M230.13,-224.2C222.63,-215.69 212.14,-202.05 207.5,-188 189.32,-132.89 194.69,-62.83 198.76,-29.82"/>
<polygon fill="midnightblue" stroke="midnightblue" points="202.25,-30.15 200.11,-19.77 195.31,-29.22 202.25,-30.15"/>
</g>
<!-- Node6 -->
<g id="node6" class="node">
<title>Node6</title>
<g id="a_node6"><a xlink:title=" ">
<polygon fill="white" stroke="#bfbfbf" points="216.5,-168.5 216.5,-187.5 260.5,-187.5 260.5,-168.5 216.5,-168.5"/>
<text text-anchor="middle" x="238.5" y="-175.5" font-family="Helvetica,sans-Serif" font-size="10.00">vector</text>
</a>
</g>
</g>
<!-- Node2&#45;&gt;Node6 -->
<g id="edge5" class="edge">
<title>Node2&#45;&gt;Node6</title>
<path fill="none" stroke="midnightblue" d="M238.5,-224.08C238.5,-217.01 238.5,-206.86 238.5,-197.99"/>
<polygon fill="midnightblue" stroke="midnightblue" points="242,-197.75 238.5,-187.75 235,-197.75 242,-197.75"/>
</g>
<!-- Node7 -->
<g id="node7" class="node">
<title>Node7</title>
<g id="a_node7"><a xlink:href="_shader_8hpp.html" target="_top" xlink:title=" ">
<polygon fill="white" stroke="black" points="317,-168.5 317,-187.5 422,-187.5 422,-168.5 317,-168.5"/>
<text text-anchor="middle" x="369.5" y="-175.5" font-family="Helvetica,sans-Serif" font-size="10.00">graphics/Shader.hpp</text>
</a>
</g>
</g>
<!-- Node2&#45;&gt;Node7 -->
<g id="edge6" class="edge">
<title>Node2&#45;&gt;Node7</title>
<path fill="none" stroke="midnightblue" d="M259.26,-224.44C280.82,-215.56 314.76,-201.56 339.29,-191.45"/>
<polygon fill="midnightblue" stroke="midnightblue" points="340.93,-194.56 348.84,-187.52 338.26,-188.09 340.93,-194.56"/>
</g>
<!-- Node10 -->
<g id="node10" class="node">
<title>Node10</title>
<g id="a_node10"><a xlink:href="_transform_8hpp.html" target="_top" xlink:title=" ">
<polygon fill="white" stroke="black" points="359,-56.5 359,-75.5 478,-75.5 478,-56.5 359,-56.5"/>
<text text-anchor="middle" x="418.5" y="-63.5" font-family="Helvetica,sans-Serif" font-size="10.00">graphics/Transform.hpp</text>
</a>
</g>
</g>
<!-- Node2&#45;&gt;Node10 -->
<g id="edge17" class="edge">
<title>Node2&#45;&gt;Node10</title>
<path fill="none" stroke="midnightblue" d="M289.51,-224.46C343.63,-214.88 422.6,-199.22 431.5,-188 455.05,-158.33 439.24,-110.87 427.64,-85.09"/>
<polygon fill="midnightblue" stroke="midnightblue" points="430.67,-83.29 423.21,-75.77 424.35,-86.3 430.67,-83.29"/>
</g>
<!-- Node8 -->
<g id="node8" class="node">
<title>Node8</title>
<g id="a_node8"><a xlink:title=" ">
<polygon fill="white" stroke="#bfbfbf" points="349,-112.5 349,-131.5 390,-131.5 390,-112.5 349,-112.5"/>
<text text-anchor="middle" x="369.5" y="-119.5" font-family="Helvetica,sans-Serif" font-size="10.00">string</text>
</a>
</g>
</g>
<!-- Node7&#45;&gt;Node8 -->
<g id="edge7" class="edge">
<title>Node7&#45;&gt;Node8</title>
<path fill="none" stroke="midnightblue" d="M369.5,-168.08C369.5,-161.01 369.5,-150.86 369.5,-141.99"/>
<polygon fill="midnightblue" stroke="midnightblue" points="373,-141.75 369.5,-131.75 366,-141.75 373,-141.75"/>
</g>
<!-- Node9 -->
<g id="node9" class="node">
<title>Node9</title>
<g id="a_node9"><a xlink:href="_g_shape_8hpp.html" target="_top" xlink:title=" ">
<polygon fill="white" stroke="black" points="220.5,-112.5 220.5,-131.5 330.5,-131.5 330.5,-112.5 220.5,-112.5"/>
<text text-anchor="middle" x="275.5" y="-119.5" font-family="Helvetica,sans-Serif" font-size="10.00">graphics/GShape.hpp</text>
</a>
</g>
</g>
<!-- Node7&#45;&gt;Node9 -->
<g id="edge8" class="edge">
<title>Node7&#45;&gt;Node9</title>
<path fill="none" stroke="midnightblue" d="M349.28,-168.32C332.8,-159.9 309.99,-146.97 293.99,-137.07"/>
<polygon fill="midnightblue" stroke="midnightblue" points="295.77,-134.06 285.46,-131.65 292.02,-139.97 295.77,-134.06"/>
</g>
<!-- Node7&#45;&gt;Node10 -->
<g id="edge16" class="edge">
<title>Node7&#45;&gt;Node10</title>
<path fill="none" stroke="midnightblue" d="M376.57,-168.18C383.27,-159.44 393.23,-145.45 399.5,-132 406.49,-117.01 411.53,-98.88 414.66,-85.58"/>
<polygon fill="midnightblue" stroke="midnightblue" points="418.1,-86.23 416.83,-75.71 411.26,-84.72 418.1,-86.23"/>
</g>
<!-- Node9&#45;&gt;Node2 -->
<g id="edge9" class="edge">
<title>Node9&#45;&gt;Node2</title>
<path fill="none" stroke="midnightblue" d="M276.07,-131.71C276.59,-144.48 276.45,-168.82 269.5,-188 265.75,-198.35 259.03,-208.56 252.8,-216.63"/>
<polygon fill="midnightblue" stroke="midnightblue" points="250.03,-214.5 246.41,-224.46 255.45,-218.93 250.03,-214.5"/>
</g>
<!-- Node9&#45;&gt;Node7 -->
<g id="edge10" class="edge">
<title>Node9&#45;&gt;Node7</title>
<path fill="none" stroke="midnightblue" d="M295.68,-131.65C312.15,-140.07 334.96,-153 350.97,-162.9"/>
<polygon fill="midnightblue" stroke="midnightblue" points="349.19,-165.92 359.51,-168.32 352.95,-160.01 349.19,-165.92"/>
</g>
<!-- Node9&#45;&gt;Node10 -->
<g id="edge11" class="edge">
<title>Node9&#45;&gt;Node10</title>
<path fill="none" stroke="midnightblue" d="M298.16,-112.44C321.9,-103.48 359.41,-89.31 386.24,-79.18"/>
<polygon fill="midnightblue" stroke="midnightblue" points="387.83,-82.32 395.95,-75.52 385.36,-75.77 387.83,-82.32"/>
</g>
<!-- Node12 -->
<g id="node12" class="node">
<title>Node12</title>
<g id="a_node12"><a xlink:href="_vector2_d_8hpp.html" target="_top" xlink:title=" ">
<polygon fill="white" stroke="black" points="218.5,-56.5 218.5,-75.5 330.5,-75.5 330.5,-56.5 218.5,-56.5"/>
<text text-anchor="middle" x="274.5" y="-63.5" font-family="Helvetica,sans-Serif" font-size="10.00">Helpers/Vector2D.hpp</text>
</a>
</g>
</g>
<!-- Node9&#45;&gt;Node12 -->
<g id="edge13" class="edge">
<title>Node9&#45;&gt;Node12</title>
<path fill="none" stroke="midnightblue" d="M275.33,-112.08C275.2,-105.01 275.02,-94.86 274.85,-85.99"/>
<polygon fill="midnightblue" stroke="midnightblue" points="278.35,-85.68 274.66,-75.75 271.35,-85.81 278.35,-85.68"/>
</g>
<!-- Node11 -->
<g id="node11" class="node">
<title>Node11</title>
<g id="a_node11"><a xlink:title=" ">
<polygon fill="white" stroke="#bfbfbf" points="366.5,-0.5 366.5,-19.5 470.5,-19.5 470.5,-0.5 366.5,-0.5"/>
<text text-anchor="middle" x="418.5" y="-7.5" font-family="Helvetica,sans-Serif" font-size="10.00">glm/gtc/type_ptr.hpp</text>
</a>
</g>
</g>
<!-- Node10&#45;&gt;Node11 -->
<g id="edge12" class="edge">
<title>Node10&#45;&gt;Node11</title>
<path fill="none" stroke="midnightblue" d="M418.5,-56.08C418.5,-49.01 418.5,-38.86 418.5,-29.99"/>
<polygon fill="midnightblue" stroke="midnightblue" points="422,-29.75 418.5,-19.75 415,-29.75 422,-29.75"/>
</g>
<!-- Node12&#45;&gt;Node5 -->
<g id="edge14" class="edge">
<title>Node12&#45;&gt;Node5</title>
<path fill="none" stroke="midnightblue" d="M262.77,-56.32C251.66,-48.11 234.76,-35.6 221.52,-25.81"/>
<polygon fill="midnightblue" stroke="midnightblue" points="223.56,-22.97 213.44,-19.83 219.4,-28.59 223.56,-22.97"/>
</g>
<!-- Node13 -->
<g id="node13" class="node">
<title>Node13</title>
<g id="a_node13"><a xlink:title=" ">
<polygon fill="white" stroke="#bfbfbf" points="252.5,-0.5 252.5,-19.5 296.5,-19.5 296.5,-0.5 252.5,-0.5"/>
<text text-anchor="middle" x="274.5" y="-7.5" font-family="Helvetica,sans-Serif" font-size="10.00">cmath</text>
</a>
</g>
</g>
<!-- Node12&#45;&gt;Node13 -->
<g id="edge15" class="edge">
<title>Node12&#45;&gt;Node13</title>
<path fill="none" stroke="midnightblue" d="M274.5,-56.08C274.5,-49.01 274.5,-38.86 274.5,-29.99"/>
<polygon fill="midnightblue" stroke="midnightblue" points="278,-29.75 274.5,-19.75 271,-29.75 278,-29.75"/>
</g>
</g>
</svg>
