<?xml version="1.0" encoding="UTF-8" standalone="no"?>
<!DOCTYPE svg PUBLIC "-//W3C//DTD SVG 1.1//EN"
 "http://www.w3.org/Graphics/SVG/1.1/DTD/svg11.dtd">
<!-- Generated by graphviz version 2.47.1 (20210421.1823)
 -->
<!-- Title: include/graphics/Window.hpp Pages: 1 -->
<svg width="1116pt" height="386pt"
 viewBox="0.00 0.00 1115.50 386.00" xmlns="http://www.w3.org/2000/svg" xmlns:xlink="http://www.w3.org/1999/xlink">
<g id="graph0" class="graph" transform="scale(1 1) rotate(0) translate(4 382)">
<title>include/graphics/Window.hpp</title>
<polygon fill="white" stroke="transparent" points="-4,4 -4,-382 1111.5,-382 1111.5,4 -4,4"/>
<!-- Node1 -->
<g id="node1" class="node">
<title>Node1</title>
<g id="a_node1"><a xlink:title=" ">
<polygon fill="#bfbfbf" stroke="black" points="589,-358.5 589,-377.5 732,-377.5 732,-358.5 589,-358.5"/>
<text text-anchor="middle" x="660.5" y="-365.5" font-family="Helvetica,sans-Serif" font-size="10.00">include/graphics/Window.hpp</text>
</a>
</g>
</g>
<!-- Node2 -->
<g id="node2" class="node">
<title>Node2</title>
<g id="a_node2"><a xlink:href="_window_8cpp.html" target="_top" xlink:title=" ">
<polygon fill="white" stroke="black" points="488,-302.5 488,-321.5 613,-321.5 613,-302.5 488,-302.5"/>
<text text-anchor="middle" x="550.5" y="-309.5" font-family="Helvetica,sans-Serif" font-size="10.00">src/graphics/Window.cpp</text>
</a>
</g>
</g>
<!-- Node1&#45;&gt;Node2 -->
<g id="edge1" class="edge">
<title>Node1&#45;&gt;Node2</title>
<path fill="none" stroke="midnightblue" d="M633.74,-353.86C613.34,-343.85 585.83,-330.35 568.13,-321.65"/>
<polygon fill="midnightblue" stroke="midnightblue" points="632.31,-357.06 642.83,-358.32 635.39,-350.78 632.31,-357.06"/>
</g>
<!-- Node3 -->
<g id="node3" class="node">
<title>Node3</title>
<g id="a_node3"><a xlink:href="_event_handler_8hpp.html" target="_top" xlink:title=" ">
<polygon fill="white" stroke="black" points="485,-235.5 485,-265.5 594,-265.5 594,-235.5 485,-235.5"/>
<text text-anchor="start" x="493" y="-253.5" font-family="Helvetica,sans-Serif" font-size="10.00">include/EventHandler</text>
<text text-anchor="middle" x="539.5" y="-242.5" font-family="Helvetica,sans-Serif" font-size="10.00">/EventHandler.hpp</text>
</a>
</g>
</g>
<!-- Node1&#45;&gt;Node3 -->
<g id="edge2" class="edge">
<title>Node1&#45;&gt;Node3</title>
<path fill="none" stroke="midnightblue" d="M652.63,-349.01C645.86,-335 635.05,-315.71 621.5,-302 606.57,-286.9 586.28,-274.35 569.61,-265.54"/>
<polygon fill="midnightblue" stroke="midnightblue" points="649.46,-350.5 656.83,-358.12 655.82,-347.57 649.46,-350.5"/>
</g>
<!-- Node15 -->
<g id="node15" class="node">
<title>Node15</title>
<g id="a_node15"><a xlink:href="_g_shape_8hpp.html" target="_top" xlink:title=" ">
<polygon fill="white" stroke="black" points="708,-302.5 708,-321.5 851,-321.5 851,-302.5 708,-302.5"/>
<text text-anchor="middle" x="779.5" y="-309.5" font-family="Helvetica,sans-Serif" font-size="10.00">include/graphics/GShape.hpp</text>
</a>
</g>
</g>
<!-- Node1&#45;&gt;Node15 -->
<g id="edge17" class="edge">
<title>Node1&#45;&gt;Node15</title>
<path fill="none" stroke="midnightblue" d="M688.64,-354.23C710.9,-344.13 741.36,-330.31 760.73,-321.52"/>
<polygon fill="midnightblue" stroke="midnightblue" points="687.02,-351.12 679.36,-358.44 689.91,-357.5 687.02,-351.12"/>
</g>
<!-- Node4 -->
<g id="node4" class="node">
<title>Node4</title>
<g id="a_node4"><a xlink:href="_event_handler_8cpp.html" target="_top" xlink:title=" ">
<polygon fill="white" stroke="black" points="0,-112.5 0,-131.5 171,-131.5 171,-112.5 0,-112.5"/>
<text text-anchor="middle" x="85.5" y="-119.5" font-family="Helvetica,sans-Serif" font-size="10.00">src/EventHandler/EventHandler.cpp</text>
</a>
</g>
</g>
<!-- Node3&#45;&gt;Node4 -->
<g id="edge3" class="edge">
<title>Node3&#45;&gt;Node4</title>
<path fill="none" stroke="midnightblue" d="M479.42,-232.76C381.39,-205.45 190.54,-152.27 116.19,-131.55"/>
<polygon fill="midnightblue" stroke="midnightblue" points="478.61,-236.17 489.18,-235.48 480.49,-229.42 478.61,-236.17"/>
</g>
<!-- Node5 -->
<g id="node5" class="node">
<title>Node5</title>
<g id="a_node5"><a xlink:href="_resource_manager_8hpp.html" target="_top" xlink:title=" ">
<polygon fill="white" stroke="black" points="616,-168.5 616,-198.5 747,-198.5 747,-168.5 616,-168.5"/>
<text text-anchor="start" x="624" y="-186.5" font-family="Helvetica,sans-Serif" font-size="10.00">include/graphics/Resource</text>
<text text-anchor="middle" x="681.5" y="-175.5" font-family="Helvetica,sans-Serif" font-size="10.00">Manager.hpp</text>
</a>
</g>
</g>
<!-- Node3&#45;&gt;Node5 -->
<g id="edge4" class="edge">
<title>Node3&#45;&gt;Node5</title>
<path fill="none" stroke="midnightblue" d="M579.63,-231.13C602.19,-220.8 629.92,-208.11 650.75,-198.58"/>
<polygon fill="midnightblue" stroke="midnightblue" points="577.95,-228.05 570.31,-235.4 580.86,-234.42 577.95,-228.05"/>
</g>
<!-- Node5&#45;&gt;Node4 -->
<g id="edge8" class="edge">
<title>Node5&#45;&gt;Node4</title>
<path fill="none" stroke="midnightblue" d="M605.72,-167.99C416.59,-142.16 366.52,-148.67 180.5,-132 177.45,-131.73 174.34,-131.45 171.2,-131.16"/>
<polygon fill="midnightblue" stroke="midnightblue" points="605.33,-171.47 615.72,-169.37 606.29,-164.54 605.33,-171.47"/>
</g>
<!-- Node6 -->
<g id="node6" class="node">
<title>Node6</title>
<g id="a_node6"><a xlink:href="_drawable_8cpp.html" target="_top" xlink:title=" ">
<polygon fill="white" stroke="black" points="378,-112.5 378,-131.5 501,-131.5 501,-112.5 378,-112.5"/>
<text text-anchor="middle" x="439.5" y="-119.5" font-family="Helvetica,sans-Serif" font-size="10.00">src/engine/Drawable.cpp</text>
</a>
</g>
</g>
<!-- Node5&#45;&gt;Node6 -->
<g id="edge5" class="edge">
<title>Node5&#45;&gt;Node6</title>
<path fill="none" stroke="midnightblue" d="M614.65,-166.06C569.08,-154.86 510.62,-140.49 474.1,-131.51"/>
<polygon fill="midnightblue" stroke="midnightblue" points="613.91,-169.49 624.46,-168.47 615.58,-162.69 613.91,-169.49"/>
</g>
<!-- Node7 -->
<g id="node7" class="node">
<title>Node7</title>
<g id="a_node7"><a xlink:href="_field_8cpp.html" target="_top" xlink:title=" ">
<polygon fill="white" stroke="black" points="519.5,-112.5 519.5,-131.5 623.5,-131.5 623.5,-112.5 519.5,-112.5"/>
<text text-anchor="middle" x="571.5" y="-119.5" font-family="Helvetica,sans-Serif" font-size="10.00">src/engine/Field.cpp</text>
</a>
</g>
</g>
<!-- Node5&#45;&gt;Node7 -->
<g id="edge6" class="edge">
<title>Node5&#45;&gt;Node7</title>
<path fill="none" stroke="midnightblue" d="M646.38,-163.51C626.61,-152.81 602.88,-139.97 587.51,-131.66"/>
<polygon fill="midnightblue" stroke="midnightblue" points="644.97,-166.72 655.43,-168.4 648.3,-160.56 644.97,-166.72"/>
</g>
<!-- Node8 -->
<g id="node8" class="node">
<title>Node8</title>
<g id="a_node8"><a xlink:href="_engine_8cpp.html" target="_top" xlink:title=" ">
<polygon fill="white" stroke="black" points="641.5,-112.5 641.5,-131.5 721.5,-131.5 721.5,-112.5 641.5,-112.5"/>
<text text-anchor="middle" x="681.5" y="-119.5" font-family="Helvetica,sans-Serif" font-size="10.00">src/Engine.cpp</text>
</a>
</g>
</g>
<!-- Node5&#45;&gt;Node8 -->
<g id="edge7" class="edge">
<title>Node5&#45;&gt;Node8</title>
<path fill="none" stroke="midnightblue" d="M681.5,-158.29C681.5,-148.86 681.5,-138.65 681.5,-131.66"/>
<polygon fill="midnightblue" stroke="midnightblue" points="678,-158.4 681.5,-168.4 685,-158.4 678,-158.4"/>
</g>
<!-- Node9 -->
<g id="node9" class="node">
<title>Node9</title>
<g id="a_node9"><a xlink:href="_game_8cpp.html" target="_top" xlink:title=" ">
<polygon fill="white" stroke="black" points="756,-0.5 756,-19.5 833,-19.5 833,-0.5 756,-0.5"/>
<text text-anchor="middle" x="794.5" y="-7.5" font-family="Helvetica,sans-Serif" font-size="10.00">src/Game.cpp</text>
</a>
</g>
</g>
<!-- Node5&#45;&gt;Node9 -->
<g id="edge9" class="edge">
<title>Node5&#45;&gt;Node9</title>
<path fill="none" stroke="midnightblue" d="M705.13,-161.1C713.75,-152.57 723.17,-142.33 730.5,-132 752.35,-101.2 750.6,-89.25 768.5,-56 775.43,-43.13 784,-28.53 789.36,-19.54"/>
<polygon fill="midnightblue" stroke="midnightblue" points="702.61,-158.67 697.83,-168.12 707.46,-163.71 702.61,-158.67"/>
</g>
<!-- Node10 -->
<g id="node10" class="node">
<title>Node10</title>
<g id="a_node10"><a xlink:href="_resource_manager_8cpp.html" target="_top" xlink:title=" ">
<polygon fill="white" stroke="black" points="189.5,-112.5 189.5,-131.5 359.5,-131.5 359.5,-112.5 189.5,-112.5"/>
<text text-anchor="middle" x="274.5" y="-119.5" font-family="Helvetica,sans-Serif" font-size="10.00">src/graphics/ResourceManager.cpp</text>
</a>
</g>
</g>
<!-- Node5&#45;&gt;Node10 -->
<g id="edge10" class="edge">
<title>Node5&#45;&gt;Node10</title>
<path fill="none" stroke="midnightblue" d="M605.55,-167.9C509.92,-152.37 410.96,-139.51 345.91,-131.5"/>
<polygon fill="midnightblue" stroke="midnightblue" points="605.25,-171.4 615.69,-169.56 606.38,-164.49 605.25,-171.4"/>
</g>
<!-- Node11 -->
<g id="node11" class="node">
<title>Node11</title>
<g id="a_node11"><a xlink:href="_inventory_8hpp.html" target="_top" xlink:title=" ">
<polygon fill="white" stroke="black" points="888,-56.5 888,-75.5 1017,-75.5 1017,-56.5 888,-56.5"/>
<text text-anchor="middle" x="952.5" y="-63.5" font-family="Helvetica,sans-Serif" font-size="10.00">include/GUI/Inventory.hpp</text>
</a>
</g>
</g>
<!-- Node5&#45;&gt;Node11 -->
<g id="edge11" class="edge">
<title>Node5&#45;&gt;Node11</title>
<path fill="none" stroke="midnightblue" d="M757.03,-176.41C800.37,-170.17 854.38,-157.55 896.5,-132 920.19,-117.63 939.02,-89.83 947.54,-75.7"/>
<polygon fill="midnightblue" stroke="midnightblue" points="756.55,-172.94 747.11,-177.75 757.48,-179.88 756.55,-172.94"/>
</g>
<!-- Node13 -->
<g id="node13" class="node">
<title>Node13</title>
<g id="a_node13"><a xlink:href="_item_8hpp.html" target="_top" xlink:title=" ">
<polygon fill="white" stroke="black" points="778,-112.5 778,-131.5 887,-131.5 887,-112.5 778,-112.5"/>
<text text-anchor="middle" x="832.5" y="-119.5" font-family="Helvetica,sans-Serif" font-size="10.00">include/GUI/Item.hpp</text>
</a>
</g>
</g>
<!-- Node5&#45;&gt;Node13 -->
<g id="edge14" class="edge">
<title>Node5&#45;&gt;Node13</title>
<path fill="none" stroke="midnightblue" d="M726.78,-164.66C754.47,-153.75 788.67,-140.27 810.53,-131.66"/>
<polygon fill="midnightblue" stroke="midnightblue" points="725.31,-161.48 717.28,-168.4 727.87,-167.99 725.31,-161.48"/>
</g>
<!-- Node11&#45;&gt;Node9 -->
<g id="edge12" class="edge">
<title>Node11&#45;&gt;Node9</title>
<path fill="none" stroke="midnightblue" d="M917.89,-53.17C888.14,-43 845.95,-28.59 819.42,-19.52"/>
<polygon fill="midnightblue" stroke="midnightblue" points="916.87,-56.52 927.46,-56.44 919.13,-49.9 916.87,-56.52"/>
</g>
<!-- Node12 -->
<g id="node12" class="node">
<title>Node12</title>
<g id="a_node12"><a xlink:href="_inventory_8cpp.html" target="_top" xlink:title=" ">
<polygon fill="white" stroke="black" points="896.5,-0.5 896.5,-19.5 1008.5,-19.5 1008.5,-0.5 896.5,-0.5"/>
<text text-anchor="middle" x="952.5" y="-7.5" font-family="Helvetica,sans-Serif" font-size="10.00">src/GUI/Inventory.cpp</text>
</a>
</g>
</g>
<!-- Node11&#45;&gt;Node12 -->
<g id="edge13" class="edge">
<title>Node11&#45;&gt;Node12</title>
<path fill="none" stroke="midnightblue" d="M952.5,-45.8C952.5,-36.91 952.5,-26.78 952.5,-19.75"/>
<polygon fill="midnightblue" stroke="midnightblue" points="949,-46.08 952.5,-56.08 956,-46.08 949,-46.08"/>
</g>
<!-- Node13&#45;&gt;Node11 -->
<g id="edge16" class="edge">
<title>Node13&#45;&gt;Node11</title>
<path fill="none" stroke="midnightblue" d="M860.87,-108.23C883.32,-98.13 914.04,-84.31 933.57,-75.52"/>
<polygon fill="midnightblue" stroke="midnightblue" points="859.2,-105.15 851.51,-112.44 862.07,-111.53 859.2,-105.15"/>
</g>
<!-- Node14 -->
<g id="node14" class="node">
<title>Node14</title>
<g id="a_node14"><a xlink:href="_item_8cpp.html" target="_top" xlink:title=" ">
<polygon fill="white" stroke="black" points="777.5,-56.5 777.5,-75.5 869.5,-75.5 869.5,-56.5 777.5,-56.5"/>
<text text-anchor="middle" x="823.5" y="-63.5" font-family="Helvetica,sans-Serif" font-size="10.00">src/GUI/Item.cpp</text>
</a>
</g>
</g>
<!-- Node13&#45;&gt;Node14 -->
<g id="edge15" class="edge">
<title>Node13&#45;&gt;Node14</title>
<path fill="none" stroke="midnightblue" d="M829.35,-102.1C827.86,-93.14 826.14,-82.86 824.96,-75.75"/>
<polygon fill="midnightblue" stroke="midnightblue" points="825.92,-102.79 831.01,-112.08 832.82,-101.64 825.92,-102.79"/>
</g>
<!-- Node15&#45;&gt;Node5 -->
<g id="edge19" class="edge">
<title>Node15&#45;&gt;Node5</title>
<path fill="none" stroke="midnightblue" d="M778.64,-292.11C777.05,-275.66 772.63,-251.87 760.5,-235 749.09,-219.14 731.02,-207.05 715.04,-198.69"/>
<polygon fill="midnightblue" stroke="midnightblue" points="775.15,-292.43 779.35,-302.16 782.14,-291.93 775.15,-292.43"/>
</g>
<!-- Node15&#45;&gt;Node11 -->
<g id="edge25" class="edge">
<title>Node15&#45;&gt;Node11</title>
<path fill="none" stroke="midnightblue" d="M794.54,-294.69C822.06,-264.31 881.39,-196.29 921.5,-132 933.41,-112.91 943.9,-88.53 949.08,-75.74"/>
<polygon fill="midnightblue" stroke="midnightblue" points="791.82,-292.48 787.66,-302.23 796.99,-297.2 791.82,-292.48"/>
</g>
<!-- Node16 -->
<g id="node16" class="node">
<title>Node16</title>
<g id="a_node16"><a xlink:href="_g_shape_8cpp.html" target="_top" xlink:title=" ">
<polygon fill="white" stroke="black" points="981.5,-241 981.5,-260 1107.5,-260 1107.5,-241 981.5,-241"/>
<text text-anchor="middle" x="1044.5" y="-248" font-family="Helvetica,sans-Serif" font-size="10.00">src/graphics/GShape.cpp</text>
</a>
</g>
</g>
<!-- Node15&#45;&gt;Node16 -->
<g id="edge18" class="edge">
<title>Node15&#45;&gt;Node16</title>
<path fill="none" stroke="midnightblue" d="M827.34,-300.26C878.75,-288.72 959.41,-270.61 1006.6,-260.01"/>
<polygon fill="midnightblue" stroke="midnightblue" points="826.46,-296.87 817.47,-302.48 827.99,-303.7 826.46,-296.87"/>
</g>
<!-- Node17 -->
<g id="node17" class="node">
<title>Node17</title>
<g id="a_node17"><a xlink:href="_shader_8hpp.html" target="_top" xlink:title=" ">
<polygon fill="white" stroke="black" points="612,-241 612,-260 751,-260 751,-241 612,-241"/>
<text text-anchor="middle" x="681.5" y="-248" font-family="Helvetica,sans-Serif" font-size="10.00">include/graphics/Shader.hpp</text>
</a>
</g>
</g>
<!-- Node15&#45;&gt;Node17 -->
<g id="edge20" class="edge">
<title>Node15&#45;&gt;Node17</title>
<path fill="none" stroke="midnightblue" d="M751.6,-297.56C731.07,-286.04 704.62,-269.81 690.62,-260.01"/>
<polygon fill="midnightblue" stroke="midnightblue" points="750.11,-300.73 760.56,-302.48 753.48,-294.59 750.11,-300.73"/>
</g>
<!-- Node17&#45;&gt;Node1 -->
<g id="edge24" class="edge">
<title>Node17&#45;&gt;Node1</title>
<path fill="none" stroke="midnightblue" d="M678.11,-270.13C673.51,-295.44 665.47,-339.67 662.08,-358.32"/>
<polygon fill="midnightblue" stroke="midnightblue" points="681.56,-270.75 679.9,-260.28 674.67,-269.49 681.56,-270.75"/>
</g>
<!-- Node17&#45;&gt;Node5 -->
<g id="edge23" class="edge">
<title>Node17&#45;&gt;Node5</title>
<path fill="none" stroke="midnightblue" d="M681.5,-230.41C681.5,-220.22 681.5,-207.9 681.5,-198.59"/>
<polygon fill="midnightblue" stroke="midnightblue" points="678,-230.73 681.5,-240.73 685,-230.73 678,-230.73"/>
</g>
<!-- Node17&#45;&gt;Node15 -->
<g id="edge22" class="edge">
<title>Node17&#45;&gt;Node15</title>
<path fill="none" stroke="midnightblue" d="M709.36,-264.92C729.89,-276.43 756.34,-292.67 770.36,-302.48"/>
<polygon fill="midnightblue" stroke="midnightblue" points="710.86,-261.76 700.41,-260.01 707.49,-267.89 710.86,-261.76"/>
</g>
<!-- Node18 -->
<g id="node18" class="node">
<title>Node18</title>
<g id="a_node18"><a xlink:href="_shader_8cpp.html" target="_top" xlink:title=" ">
<polygon fill="white" stroke="black" points="475.5,-174 475.5,-193 597.5,-193 597.5,-174 475.5,-174"/>
<text text-anchor="middle" x="536.5" y="-181" font-family="Helvetica,sans-Serif" font-size="10.00">src/graphics/Shader.cpp</text>
</a>
</g>
</g>
<!-- Node17&#45;&gt;Node18 -->
<g id="edge21" class="edge">
<title>Node17&#45;&gt;Node18</title>
<path fill="none" stroke="midnightblue" d="M652.75,-236.61C624.03,-223.74 580.68,-204.31 555.83,-193.17"/>
<polygon fill="midnightblue" stroke="midnightblue" points="651.69,-239.97 662.25,-240.87 654.55,-233.58 651.69,-239.97"/>
</g>
</g>
</svg>
