<?xml version="1.0" encoding="UTF-8" standalone="no"?>
<!DOCTYPE svg PUBLIC "-//W3C//DTD SVG 1.1//EN"
 "http://www.w3.org/Graphics/SVG/1.1/DTD/svg11.dtd">
<!-- Generated by graphviz version 2.47.0 (20210407.0042)
 -->
<!-- Title: include/graphics/Window.hpp Pages: 1 -->
<svg width="486pt" height="252pt"
 viewBox="0.00 0.00 486.21 252.00" xmlns="http://www.w3.org/2000/svg" xmlns:xlink="http://www.w3.org/1999/xlink">
<g id="graph0" class="graph" transform="scale(1 1) rotate(0) translate(4 248)">
<title>include/graphics/Window.hpp</title>
<polygon fill="white" stroke="transparent" points="-4,4 -4,-248 482.21,-248 482.21,4 -4,4"/>
<!-- Node1 -->
<g id="node1" class="node">
<title>Node1</title>
<g id="a_node1"><a xlink:title=" ">
<polygon fill="#bfbfbf" stroke="black" points="186,-224.5 186,-243.5 329,-243.5 329,-224.5 186,-224.5"/>
<text text-anchor="middle" x="257.5" y="-231.5" font-family="Helvetica,sans-Serif" font-size="10.00">include/graphics/Window.hpp</text>
</a>
</g>
</g>
<!-- Node2 -->
<g id="node2" class="node">
<title>Node2</title>
<g id="a_node2"><a xlink:title=" ">
<polygon fill="white" stroke="#bfbfbf" points="0,-168.5 0,-187.5 63,-187.5 63,-168.5 0,-168.5"/>
<text text-anchor="middle" x="31.5" y="-175.5" font-family="Helvetica,sans-Serif" font-size="10.00">glad/glad.h</text>
</a>
</g>
</g>
<!-- Node1&#45;&gt;Node2 -->
<g id="edge1" class="edge">
<title>Node1&#45;&gt;Node2</title>
<path fill="none" stroke="midnightblue" d="M221.69,-224.44C181.24,-214.78 115.53,-199.08 72.91,-188.89"/>
<polygon fill="midnightblue" stroke="midnightblue" points="73.67,-185.48 63.13,-186.56 72.04,-192.29 73.67,-185.48"/>
</g>
<!-- Node3 -->
<g id="node3" class="node">
<title>Node3</title>
<g id="a_node3"><a xlink:title=" ">
<polygon fill="white" stroke="#bfbfbf" points="81,-168.5 81,-187.5 160,-187.5 160,-168.5 81,-168.5"/>
<text text-anchor="middle" x="120.5" y="-175.5" font-family="Helvetica,sans-Serif" font-size="10.00">GLFW/glfw3.h</text>
</a>
</g>
</g>
<!-- Node1&#45;&gt;Node3 -->
<g id="edge2" class="edge">
<title>Node1&#45;&gt;Node3</title>
<path fill="none" stroke="midnightblue" d="M235.79,-224.44C213.15,-215.52 177.43,-201.44 151.75,-191.32"/>
<polygon fill="midnightblue" stroke="midnightblue" points="152.69,-187.93 142.11,-187.52 150.13,-194.44 152.69,-187.93"/>
</g>
<!-- Node4 -->
<g id="node4" class="node">
<title>Node4</title>
<g id="a_node4"><a xlink:title=" ">
<polygon fill="white" stroke="#bfbfbf" points="178,-168.5 178,-187.5 217,-187.5 217,-168.5 178,-168.5"/>
<text text-anchor="middle" x="197.5" y="-175.5" font-family="Helvetica,sans-Serif" font-size="10.00">utility</text>
</a>
</g>
</g>
<!-- Node1&#45;&gt;Node4 -->
<g id="edge3" class="edge">
<title>Node1&#45;&gt;Node4</title>
<path fill="none" stroke="midnightblue" d="M247.86,-224.32C238.99,-216.34 225.63,-204.31 214.89,-194.65"/>
<polygon fill="midnightblue" stroke="midnightblue" points="217.09,-191.92 207.32,-187.83 212.41,-197.13 217.09,-191.92"/>
</g>
<!-- Node5 -->
<g id="node5" class="node">
<title>Node5</title>
<g id="a_node5"><a xlink:title=" ">
<polygon fill="white" stroke="#bfbfbf" points="235.5,-168.5 235.5,-187.5 279.5,-187.5 279.5,-168.5 235.5,-168.5"/>
<text text-anchor="middle" x="257.5" y="-175.5" font-family="Helvetica,sans-Serif" font-size="10.00">vector</text>
</a>
</g>
</g>
<!-- Node1&#45;&gt;Node5 -->
<g id="edge4" class="edge">
<title>Node1&#45;&gt;Node5</title>
<path fill="none" stroke="midnightblue" d="M257.5,-224.08C257.5,-217.01 257.5,-206.86 257.5,-197.99"/>
<polygon fill="midnightblue" stroke="midnightblue" points="261,-197.75 257.5,-187.75 254,-197.75 261,-197.75"/>
</g>
<!-- Node6 -->
<g id="node6" class="node">
<title>Node6</title>
<g id="a_node6"><a xlink:href="_shader_8hpp.html" target="_top" xlink:title=" ">
<polygon fill="white" stroke="black" points="298,-168.5 298,-187.5 403,-187.5 403,-168.5 298,-168.5"/>
<text text-anchor="middle" x="350.5" y="-175.5" font-family="Helvetica,sans-Serif" font-size="10.00">graphics/Shader.hpp</text>
</a>
</g>
</g>
<!-- Node1&#45;&gt;Node6 -->
<g id="edge5" class="edge">
<title>Node1&#45;&gt;Node6</title>
<path fill="none" stroke="midnightblue" d="M272.44,-224.32C287.09,-215.82 309.63,-202.73 326.74,-192.8"/>
<polygon fill="midnightblue" stroke="midnightblue" points="328.7,-195.7 335.6,-187.65 325.19,-189.65 328.7,-195.7"/>
</g>
<!-- Node9 -->
<g id="node9" class="node">
<title>Node9</title>
<g id="a_node9"><a xlink:href="_transform_8hpp.html" target="_top" xlink:title=" ">
<polygon fill="white" stroke="black" points="349,-56.5 349,-75.5 468,-75.5 468,-56.5 349,-56.5"/>
<text text-anchor="middle" x="408.5" y="-63.5" font-family="Helvetica,sans-Serif" font-size="10.00">graphics/Transform.hpp</text>
</a>
</g>
</g>
<!-- Node1&#45;&gt;Node9 -->
<g id="edge13" class="edge">
<title>Node1&#45;&gt;Node9</title>
<path fill="none" stroke="midnightblue" d="M329.22,-225.03C361.88,-218.8 399.8,-207.71 429.5,-188 461.84,-166.54 490.39,-146.44 472.5,-112 465.35,-98.23 451.83,-87.78 439.05,-80.44"/>
<polygon fill="midnightblue" stroke="midnightblue" points="440.46,-77.23 429.98,-75.64 437.18,-83.41 440.46,-77.23"/>
</g>
<!-- Node7 -->
<g id="node7" class="node">
<title>Node7</title>
<g id="a_node7"><a xlink:title=" ">
<polygon fill="white" stroke="#bfbfbf" points="256,-112.5 256,-131.5 297,-131.5 297,-112.5 256,-112.5"/>
<text text-anchor="middle" x="276.5" y="-119.5" font-family="Helvetica,sans-Serif" font-size="10.00">string</text>
</a>
</g>
</g>
<!-- Node6&#45;&gt;Node7 -->
<g id="edge6" class="edge">
<title>Node6&#45;&gt;Node7</title>
<path fill="none" stroke="midnightblue" d="M338.61,-168.32C327.35,-160.11 310.21,-147.6 296.79,-137.81"/>
<polygon fill="midnightblue" stroke="midnightblue" points="298.75,-134.9 288.61,-131.83 294.62,-140.56 298.75,-134.9"/>
</g>
<!-- Node8 -->
<g id="node8" class="node">
<title>Node8</title>
<g id="a_node8"><a xlink:href="_g_shape_8hpp.html" target="_top" xlink:title=" ">
<polygon fill="white" stroke="black" points="353.5,-112.5 353.5,-131.5 463.5,-131.5 463.5,-112.5 353.5,-112.5"/>
<text text-anchor="middle" x="408.5" y="-119.5" font-family="Helvetica,sans-Serif" font-size="10.00">graphics/GShape.hpp</text>
</a>
</g>
</g>
<!-- Node6&#45;&gt;Node8 -->
<g id="edge7" class="edge">
<title>Node6&#45;&gt;Node8</title>
<path fill="none" stroke="midnightblue" d="M354.91,-168.08C361.9,-159.98 374.59,-147.87 385.99,-138.23"/>
<polygon fill="midnightblue" stroke="midnightblue" points="388.42,-140.77 393.97,-131.75 384,-135.34 388.42,-140.77"/>
</g>
<!-- Node6&#45;&gt;Node9 -->
<g id="edge12" class="edge">
<title>Node6&#45;&gt;Node9</title>
<path fill="none" stroke="midnightblue" d="M346.9,-168.43C342.04,-155.44 334.99,-130.3 344.5,-112 351.65,-98.23 365.17,-87.78 377.95,-80.44"/>
<polygon fill="midnightblue" stroke="midnightblue" points="379.82,-83.41 387.02,-75.64 376.54,-77.23 379.82,-83.41"/>
</g>
<!-- Node8&#45;&gt;Node1 -->
<g id="edge8" class="edge">
<title>Node8&#45;&gt;Node1</title>
<path fill="none" stroke="midnightblue" d="M412.24,-131.59C417.46,-145.06 424.99,-171.37 412.5,-188 401.15,-203.12 358.7,-214.8 321.09,-222.47"/>
<polygon fill="midnightblue" stroke="midnightblue" points="320.28,-219.06 311.14,-224.43 321.63,-225.93 320.28,-219.06"/>
</g>
<!-- Node8&#45;&gt;Node6 -->
<g id="edge9" class="edge">
<title>Node8&#45;&gt;Node6</title>
<path fill="none" stroke="midnightblue" d="M404.16,-131.83C397.17,-139.95 384.4,-152.15 372.94,-161.82"/>
<polygon fill="midnightblue" stroke="midnightblue" points="370.49,-159.3 364.93,-168.32 374.9,-164.74 370.49,-159.3"/>
</g>
<!-- Node8&#45;&gt;Node9 -->
<g id="edge10" class="edge">
<title>Node8&#45;&gt;Node9</title>
<path fill="none" stroke="midnightblue" d="M408.5,-112.08C408.5,-105.01 408.5,-94.86 408.5,-85.99"/>
<polygon fill="midnightblue" stroke="midnightblue" points="412,-85.75 408.5,-75.75 405,-85.75 412,-85.75"/>
</g>
<!-- Node10 -->
<g id="node10" class="node">
<title>Node10</title>
<g id="a_node10"><a xlink:title=" ">
<polygon fill="white" stroke="#bfbfbf" points="356.5,-0.5 356.5,-19.5 460.5,-19.5 460.5,-0.5 356.5,-0.5"/>
<text text-anchor="middle" x="408.5" y="-7.5" font-family="Helvetica,sans-Serif" font-size="10.00">glm/gtc/type_ptr.hpp</text>
</a>
</g>
</g>
<!-- Node9&#45;&gt;Node10 -->
<g id="edge11" class="edge">
<title>Node9&#45;&gt;Node10</title>
<path fill="none" stroke="midnightblue" d="M408.5,-56.08C408.5,-49.01 408.5,-38.86 408.5,-29.99"/>
<polygon fill="midnightblue" stroke="midnightblue" points="412,-29.75 408.5,-19.75 405,-29.75 412,-29.75"/>
</g>
</g>
</svg>
