<?xml version="1.0" encoding="UTF-8" standalone="no"?>
<!DOCTYPE svg PUBLIC "-//W3C//DTD SVG 1.1//EN"
 "http://www.w3.org/Graphics/SVG/1.1/DTD/svg11.dtd">
<!-- Generated by graphviz version 2.47.0 (20210407.0042)
 -->
<!-- Title: include/graphics/Window.hpp Pages: 1 -->
<svg width="819pt" height="274pt"
 viewBox="0.00 0.00 818.50 274.00" xmlns="http://www.w3.org/2000/svg" xmlns:xlink="http://www.w3.org/1999/xlink">
<g id="graph0" class="graph" transform="scale(1 1) rotate(0) translate(4 270)">
<title>include/graphics/Window.hpp</title>
<polygon fill="white" stroke="transparent" points="-4,4 -4,-270 814.5,-270 814.5,4 -4,4"/>
<!-- Node1 -->
<g id="node1" class="node">
<title>Node1</title>
<g id="a_node1"><a xlink:title=" ">
<polygon fill="#bfbfbf" stroke="black" points="316,-246.5 316,-265.5 459,-265.5 459,-246.5 316,-246.5"/>
<text text-anchor="middle" x="387.5" y="-253.5" font-family="Helvetica,sans-Serif" font-size="10.00">include/graphics/Window.hpp</text>
</a>
</g>
</g>
<!-- Node2 -->
<g id="node2" class="node">
<title>Node2</title>
<g id="a_node2"><a xlink:href="_window_8cpp.html" target="_top" xlink:title=" ">
<polygon fill="white" stroke="black" points="184,-190.5 184,-209.5 309,-209.5 309,-190.5 184,-190.5"/>
<text text-anchor="middle" x="246.5" y="-197.5" font-family="Helvetica,sans-Serif" font-size="10.00">src/graphics/Window.cpp</text>
</a>
</g>
</g>
<!-- Node1&#45;&gt;Node2 -->
<g id="edge1" class="edge">
<title>Node1&#45;&gt;Node2</title>
<path fill="none" stroke="midnightblue" d="M355.57,-242.77C329.09,-232.63 292.11,-218.47 268.74,-209.52"/>
<polygon fill="midnightblue" stroke="midnightblue" points="354.57,-246.14 365.16,-246.44 357.07,-239.6 354.57,-246.14"/>
</g>
<!-- Node3 -->
<g id="node3" class="node">
<title>Node3</title>
<g id="a_node3"><a xlink:href="_event_handler_8hpp.html" target="_top" xlink:title=" ">
<polygon fill="white" stroke="black" points="196,-123.5 196,-153.5 305,-153.5 305,-123.5 196,-123.5"/>
<text text-anchor="start" x="204" y="-141.5" font-family="Helvetica,sans-Serif" font-size="10.00">include/EventHandler</text>
<text text-anchor="middle" x="250.5" y="-130.5" font-family="Helvetica,sans-Serif" font-size="10.00">/EventHandler.hpp</text>
</a>
</g>
</g>
<!-- Node1&#45;&gt;Node3 -->
<g id="edge2" class="edge">
<title>Node1&#45;&gt;Node3</title>
<path fill="none" stroke="midnightblue" d="M371.37,-239.14C357.46,-225.66 336.63,-206.02 317.5,-190 302.09,-177.09 283.82,-163.43 270.26,-153.57"/>
<polygon fill="midnightblue" stroke="midnightblue" points="369.1,-241.81 378.71,-246.28 373.99,-236.8 369.1,-241.81"/>
</g>
<!-- Node11 -->
<g id="node11" class="node">
<title>Node11</title>
<g id="a_node11"><a xlink:href="_g_shape_8hpp.html" target="_top" xlink:title=" ">
<polygon fill="white" stroke="black" points="366,-190.5 366,-209.5 509,-209.5 509,-190.5 366,-190.5"/>
<text text-anchor="middle" x="437.5" y="-197.5" font-family="Helvetica,sans-Serif" font-size="10.00">include/graphics/GShape.hpp</text>
</a>
</g>
</g>
<!-- Node1&#45;&gt;Node11 -->
<g id="edge11" class="edge">
<title>Node1&#45;&gt;Node11</title>
<path fill="none" stroke="midnightblue" d="M402.58,-238.72C411.39,-229.2 422.17,-217.56 429.4,-209.75"/>
<polygon fill="midnightblue" stroke="midnightblue" points="399.98,-236.37 395.76,-246.08 405.12,-241.12 399.98,-236.37"/>
</g>
<!-- Node4 -->
<g id="node4" class="node">
<title>Node4</title>
<g id="a_node4"><a xlink:href="_event_handler_8cpp.html" target="_top" xlink:title=" ">
<polygon fill="white" stroke="black" points="0,-0.5 0,-19.5 171,-19.5 171,-0.5 0,-0.5"/>
<text text-anchor="middle" x="85.5" y="-7.5" font-family="Helvetica,sans-Serif" font-size="10.00">src/EventHandler/EventHandler.cpp</text>
</a>
</g>
</g>
<!-- Node3&#45;&gt;Node4 -->
<g id="edge3" class="edge">
<title>Node3&#45;&gt;Node4</title>
<path fill="none" stroke="midnightblue" d="M223.99,-117.17C187.41,-89.13 123.05,-39.79 96.96,-19.79"/>
<polygon fill="midnightblue" stroke="midnightblue" points="222.15,-120.17 232.21,-123.48 226.41,-114.62 222.15,-120.17"/>
</g>
<!-- Node5 -->
<g id="node5" class="node">
<title>Node5</title>
<g id="a_node5"><a xlink:href="_resource_manager_8hpp.html" target="_top" xlink:title=" ">
<polygon fill="white" stroke="black" points="317,-56.5 317,-86.5 448,-86.5 448,-56.5 317,-56.5"/>
<text text-anchor="start" x="325" y="-74.5" font-family="Helvetica,sans-Serif" font-size="10.00">include/graphics/Resource</text>
<text text-anchor="middle" x="382.5" y="-63.5" font-family="Helvetica,sans-Serif" font-size="10.00">Manager.hpp</text>
</a>
</g>
</g>
<!-- Node3&#45;&gt;Node5 -->
<g id="edge4" class="edge">
<title>Node3&#45;&gt;Node5</title>
<path fill="none" stroke="midnightblue" d="M288.37,-118.85C309.24,-108.58 334.73,-96.03 353.91,-86.58"/>
<polygon fill="midnightblue" stroke="midnightblue" points="286.57,-115.84 279.14,-123.4 289.66,-122.12 286.57,-115.84"/>
</g>
<!-- Node5&#45;&gt;Node4 -->
<g id="edge8" class="edge">
<title>Node5&#45;&gt;Node4</title>
<path fill="none" stroke="midnightblue" d="M306.95,-55.36C250.19,-43.99 174.53,-28.84 127.96,-19.51"/>
<polygon fill="midnightblue" stroke="midnightblue" points="306.46,-58.84 316.95,-57.37 307.84,-51.97 306.46,-58.84"/>
</g>
<!-- Node6 -->
<g id="node6" class="node">
<title>Node6</title>
<g id="a_node6"><a xlink:href="_drawable_8cpp.html" target="_top" xlink:title=" ">
<polygon fill="white" stroke="black" points="189,-0.5 189,-19.5 312,-19.5 312,-0.5 189,-0.5"/>
<text text-anchor="middle" x="250.5" y="-7.5" font-family="Helvetica,sans-Serif" font-size="10.00">src/engine/Drawable.cpp</text>
</a>
</g>
</g>
<!-- Node5&#45;&gt;Node6 -->
<g id="edge5" class="edge">
<title>Node5&#45;&gt;Node6</title>
<path fill="none" stroke="midnightblue" d="M341.96,-52.23C317.93,-41.39 288.57,-28.16 269.71,-19.66"/>
<polygon fill="midnightblue" stroke="midnightblue" points="340.66,-55.48 351.22,-56.4 343.54,-49.1 340.66,-55.48"/>
</g>
<!-- Node7 -->
<g id="node7" class="node">
<title>Node7</title>
<g id="a_node7"><a xlink:href="_field_8cpp.html" target="_top" xlink:title=" ">
<polygon fill="white" stroke="black" points="330.5,-0.5 330.5,-19.5 434.5,-19.5 434.5,-0.5 330.5,-0.5"/>
<text text-anchor="middle" x="382.5" y="-7.5" font-family="Helvetica,sans-Serif" font-size="10.00">src/engine/Field.cpp</text>
</a>
</g>
</g>
<!-- Node5&#45;&gt;Node7 -->
<g id="edge6" class="edge">
<title>Node5&#45;&gt;Node7</title>
<path fill="none" stroke="midnightblue" d="M382.5,-46.29C382.5,-36.86 382.5,-26.65 382.5,-19.66"/>
<polygon fill="midnightblue" stroke="midnightblue" points="379,-46.4 382.5,-56.4 386,-46.4 379,-46.4"/>
</g>
<!-- Node8 -->
<g id="node8" class="node">
<title>Node8</title>
<g id="a_node8"><a xlink:href="_engine_8cpp.html" target="_top" xlink:title=" ">
<polygon fill="white" stroke="black" points="452.5,-0.5 452.5,-19.5 532.5,-19.5 532.5,-0.5 452.5,-0.5"/>
<text text-anchor="middle" x="492.5" y="-7.5" font-family="Helvetica,sans-Serif" font-size="10.00">src/Engine.cpp</text>
</a>
</g>
</g>
<!-- Node5&#45;&gt;Node8 -->
<g id="edge7" class="edge">
<title>Node5&#45;&gt;Node8</title>
<path fill="none" stroke="midnightblue" d="M417.62,-51.51C437.39,-40.81 461.12,-27.97 476.49,-19.66"/>
<polygon fill="midnightblue" stroke="midnightblue" points="415.7,-48.56 408.57,-56.4 419.03,-54.72 415.7,-48.56"/>
</g>
<!-- Node9 -->
<g id="node9" class="node">
<title>Node9</title>
<g id="a_node9"><a xlink:href="_resource_manager_8cpp.html" target="_top" xlink:title=" ">
<polygon fill="white" stroke="black" points="550.5,-0.5 550.5,-19.5 720.5,-19.5 720.5,-0.5 550.5,-0.5"/>
<text text-anchor="middle" x="635.5" y="-7.5" font-family="Helvetica,sans-Serif" font-size="10.00">src/graphics/ResourceManager.cpp</text>
</a>
</g>
</g>
<!-- Node5&#45;&gt;Node9 -->
<g id="edge9" class="edge">
<title>Node5&#45;&gt;Node9</title>
<path fill="none" stroke="midnightblue" d="M452.09,-54.13C499.77,-42.92 561.07,-28.5 599.33,-19.51"/>
<polygon fill="midnightblue" stroke="midnightblue" points="451.07,-50.78 442.14,-56.47 452.67,-57.59 451.07,-50.78"/>
</g>
<!-- Node10 -->
<g id="node10" class="node">
<title>Node10</title>
<g id="a_node10"><a xlink:href="main_8cpp.html" target="_top" xlink:title=" ">
<polygon fill="white" stroke="black" points="738.5,-0.5 738.5,-19.5 810.5,-19.5 810.5,-0.5 738.5,-0.5"/>
<text text-anchor="middle" x="774.5" y="-7.5" font-family="Helvetica,sans-Serif" font-size="10.00">src/main.cpp</text>
</a>
</g>
</g>
<!-- Node5&#45;&gt;Node10 -->
<g id="edge10" class="edge">
<title>Node5&#45;&gt;Node10</title>
<path fill="none" stroke="midnightblue" d="M458.33,-60.64C528.75,-51.2 636.44,-36.07 729.5,-20 732.33,-19.51 735.25,-18.98 738.18,-18.44"/>
<polygon fill="midnightblue" stroke="midnightblue" points="457.67,-57.2 448.22,-61.99 458.59,-64.14 457.67,-57.2"/>
</g>
<!-- Node11&#45;&gt;Node5 -->
<g id="edge13" class="edge">
<title>Node11&#45;&gt;Node5</title>
<path fill="none" stroke="midnightblue" d="M394.37,-186.73C378.33,-179.84 361.79,-169.43 352.5,-154 339.36,-132.17 356.64,-103.64 369.91,-86.78"/>
<polygon fill="midnightblue" stroke="midnightblue" points="393.11,-189.99 403.7,-190.39 395.67,-183.48 393.11,-189.99"/>
</g>
<!-- Node12 -->
<g id="node12" class="node">
<title>Node12</title>
<g id="a_node12"><a xlink:href="_g_shape_8cpp.html" target="_top" xlink:title=" ">
<polygon fill="white" stroke="black" points="361.5,-129 361.5,-148 487.5,-148 487.5,-129 361.5,-129"/>
<text text-anchor="middle" x="424.5" y="-136" font-family="Helvetica,sans-Serif" font-size="10.00">src/graphics/GShape.cpp</text>
</a>
</g>
</g>
<!-- Node11&#45;&gt;Node12 -->
<g id="edge12" class="edge">
<title>Node11&#45;&gt;Node12</title>
<path fill="none" stroke="midnightblue" d="M433.49,-180.66C431.11,-169.77 428.21,-156.49 426.36,-148.01"/>
<polygon fill="midnightblue" stroke="midnightblue" points="430.08,-181.45 435.64,-190.48 436.92,-179.96 430.08,-181.45"/>
</g>
<!-- Node13 -->
<g id="node13" class="node">
<title>Node13</title>
<g id="a_node13"><a xlink:href="_shader_8hpp.html" target="_top" xlink:title=" ">
<polygon fill="white" stroke="black" points="506,-129 506,-148 645,-148 645,-129 506,-129"/>
<text text-anchor="middle" x="575.5" y="-136" font-family="Helvetica,sans-Serif" font-size="10.00">include/graphics/Shader.hpp</text>
</a>
</g>
</g>
<!-- Node11&#45;&gt;Node13 -->
<g id="edge14" class="edge">
<title>Node11&#45;&gt;Node13</title>
<path fill="none" stroke="midnightblue" d="M461.58,-186.17C486.69,-174.63 525.54,-157.99 550.87,-148.01"/>
<polygon fill="midnightblue" stroke="midnightblue" points="459.95,-183.07 452.37,-190.48 462.91,-189.41 459.95,-183.07"/>
</g>
<!-- Node13&#45;&gt;Node1 -->
<g id="edge18" class="edge">
<title>Node13&#45;&gt;Node1</title>
<path fill="none" stroke="midnightblue" d="M565.35,-157.02C555.31,-172.91 538.57,-195.94 518.5,-210 492.4,-228.28 458.22,-239.69 431.32,-246.45"/>
<polygon fill="midnightblue" stroke="midnightblue" points="568.51,-158.55 570.7,-148.19 562.52,-154.92 568.51,-158.55"/>
</g>
<!-- Node13&#45;&gt;Node5 -->
<g id="edge17" class="edge">
<title>Node13&#45;&gt;Node5</title>
<path fill="none" stroke="midnightblue" d="M540.26,-125.63C507.54,-114.61 458.79,-98.19 424.15,-86.53"/>
<polygon fill="midnightblue" stroke="midnightblue" points="539.28,-128.99 549.87,-128.87 541.51,-122.36 539.28,-128.99"/>
</g>
<!-- Node13&#45;&gt;Node11 -->
<g id="edge16" class="edge">
<title>Node13&#45;&gt;Node11</title>
<path fill="none" stroke="midnightblue" d="M551.46,-152.31C526.36,-163.85 487.51,-180.49 462.17,-190.48"/>
<polygon fill="midnightblue" stroke="midnightblue" points="553.08,-155.41 560.66,-148.01 550.12,-149.07 553.08,-155.41"/>
</g>
<!-- Node14 -->
<g id="node14" class="node">
<title>Node14</title>
<g id="a_node14"><a xlink:href="_shader_8cpp.html" target="_top" xlink:title=" ">
<polygon fill="white" stroke="black" points="514.5,-62 514.5,-81 636.5,-81 636.5,-62 514.5,-62"/>
<text text-anchor="middle" x="575.5" y="-69" font-family="Helvetica,sans-Serif" font-size="10.00">src/graphics/Shader.cpp</text>
</a>
</g>
</g>
<!-- Node13&#45;&gt;Node14 -->
<g id="edge15" class="edge">
<title>Node13&#45;&gt;Node14</title>
<path fill="none" stroke="midnightblue" d="M575.5,-118.54C575.5,-106.17 575.5,-90.62 575.5,-81.13"/>
<polygon fill="midnightblue" stroke="midnightblue" points="572,-118.73 575.5,-128.73 579,-118.73 572,-118.73"/>
</g>
</g>
</svg>
