<?xml version="1.0" encoding="UTF-8" standalone="no"?>
<!DOCTYPE svg PUBLIC "-//W3C//DTD SVG 1.1//EN"
 "http://www.w3.org/Graphics/SVG/1.1/DTD/svg11.dtd">
<!-- Generated by graphviz version 2.47.0 (20210407.0042)
 -->
<!-- Title: src/engine/WorldActor.cpp Pages: 1 -->
<svg width="432pt" height="420pt"
 viewBox="0.00 0.00 432.29 420.00" xmlns="http://www.w3.org/2000/svg" xmlns:xlink="http://www.w3.org/1999/xlink">
<g id="graph0" class="graph" transform="scale(1 1) rotate(0) translate(4 416)">
<title>src/engine/WorldActor.cpp</title>
<polygon fill="white" stroke="transparent" points="-4,4 -4,-416 428.29,-416 428.29,4 -4,4"/>
<!-- Node1 -->
<g id="node1" class="node">
<title>Node1</title>
<g id="a_node1"><a xlink:title=" ">
<polygon fill="#bfbfbf" stroke="black" points="287.79,-392.5 287.79,-411.5 418.79,-411.5 418.79,-392.5 287.79,-392.5"/>
<text text-anchor="middle" x="353.29" y="-399.5" font-family="Helvetica,sans-Serif" font-size="10.00">src/engine/WorldActor.cpp</text>
</a>
</g>
</g>
<!-- Node2 -->
<g id="node2" class="node">
<title>Node2</title>
<g id="a_node2"><a xlink:href="_world_actor_8hpp.html" target="_top" xlink:title=" ">
<polygon fill="white" stroke="black" points="248.29,-336.5 248.29,-355.5 362.29,-355.5 362.29,-336.5 248.29,-336.5"/>
<text text-anchor="middle" x="305.29" y="-343.5" font-family="Helvetica,sans-Serif" font-size="10.00">engine/WorldActor.hpp</text>
</a>
</g>
</g>
<!-- Node1&#45;&gt;Node2 -->
<g id="edge1" class="edge">
<title>Node1&#45;&gt;Node2</title>
<path fill="none" stroke="midnightblue" d="M345.36,-392.08C338.44,-384.3 328.22,-372.8 319.84,-363.37"/>
<polygon fill="midnightblue" stroke="midnightblue" points="322.33,-360.9 313.07,-355.75 317.1,-365.55 322.33,-360.9"/>
</g>
<!-- Node13 -->
<g id="node13" class="node">
<title>Node13</title>
<g id="a_node13"><a xlink:title=" ">
<polygon fill="white" stroke="#bfbfbf" points="380.29,-336.5 380.29,-355.5 424.29,-355.5 424.29,-336.5 380.29,-336.5"/>
<text text-anchor="middle" x="402.29" y="-343.5" font-family="Helvetica,sans-Serif" font-size="10.00">cmath</text>
</a>
</g>
</g>
<!-- Node1&#45;&gt;Node13 -->
<g id="edge18" class="edge">
<title>Node1&#45;&gt;Node13</title>
<path fill="none" stroke="midnightblue" d="M361.38,-392.08C368.45,-384.3 378.88,-372.8 387.44,-363.37"/>
<polygon fill="midnightblue" stroke="midnightblue" points="390.22,-365.51 394.35,-355.75 385.04,-360.8 390.22,-365.51"/>
</g>
<!-- Node3 -->
<g id="node3" class="node">
<title>Node3</title>
<g id="a_node3"><a xlink:href="_vector2_d_8hpp.html" target="_top" xlink:title=" ">
<polygon fill="white" stroke="black" points="239.29,-56.5 239.29,-75.5 351.29,-75.5 351.29,-56.5 239.29,-56.5"/>
<text text-anchor="middle" x="295.29" y="-63.5" font-family="Helvetica,sans-Serif" font-size="10.00">Helpers/Vector2D.hpp</text>
</a>
</g>
</g>
<!-- Node2&#45;&gt;Node3 -->
<g id="edge2" class="edge">
<title>Node2&#45;&gt;Node3</title>
<path fill="none" stroke="midnightblue" d="M309.07,-336.35C316.71,-318.03 333.29,-273.82 333.29,-235 333.29,-235 333.29,-235 333.29,-177 333.29,-142.81 316.69,-105.76 305.43,-84.57"/>
<polygon fill="midnightblue" stroke="midnightblue" points="308.47,-82.83 300.57,-75.77 302.34,-86.22 308.47,-82.83"/>
</g>
<!-- Node5 -->
<g id="node5" class="node">
<title>Node5</title>
<g id="a_node5"><a xlink:href="_field_8hpp.html" target="_top" xlink:title=" ">
<polygon fill="white" stroke="black" points="249.29,-280.5 249.29,-299.5 305.29,-299.5 305.29,-280.5 249.29,-280.5"/>
<text text-anchor="middle" x="277.29" y="-287.5" font-family="Helvetica,sans-Serif" font-size="10.00">Field.hpp</text>
</a>
</g>
</g>
<!-- Node2&#45;&gt;Node5 -->
<g id="edge4" class="edge">
<title>Node2&#45;&gt;Node5</title>
<path fill="none" stroke="midnightblue" d="M300.67,-336.08C296.83,-328.69 291.27,-317.95 286.53,-308.81"/>
<polygon fill="midnightblue" stroke="midnightblue" points="289.54,-307.02 281.83,-299.75 283.32,-310.24 289.54,-307.02"/>
</g>
<!-- Node4 -->
<g id="node4" class="node">
<title>Node4</title>
<g id="a_node4"><a xlink:title=" ">
<polygon fill="white" stroke="#bfbfbf" points="275.79,-0.5 275.79,-19.5 314.79,-19.5 314.79,-0.5 275.79,-0.5"/>
<text text-anchor="middle" x="295.29" y="-7.5" font-family="Helvetica,sans-Serif" font-size="10.00">utility</text>
</a>
</g>
</g>
<!-- Node3&#45;&gt;Node4 -->
<g id="edge3" class="edge">
<title>Node3&#45;&gt;Node4</title>
<path fill="none" stroke="midnightblue" d="M295.29,-56.08C295.29,-49.01 295.29,-38.86 295.29,-29.99"/>
<polygon fill="midnightblue" stroke="midnightblue" points="298.79,-29.75 295.29,-19.75 291.79,-29.75 298.79,-29.75"/>
</g>
<!-- Node5&#45;&gt;Node3 -->
<g id="edge17" class="edge">
<title>Node5&#45;&gt;Node3</title>
<path fill="none" stroke="midnightblue" d="M278,-280.3C280.64,-247.63 290.03,-131.87 293.75,-85.96"/>
<polygon fill="midnightblue" stroke="midnightblue" points="297.25,-86.13 294.57,-75.88 290.27,-85.57 297.25,-86.13"/>
</g>
<!-- Node6 -->
<g id="node6" class="node">
<title>Node6</title>
<g id="a_node6"><a xlink:href="_cell_8hpp.html" target="_top" xlink:title=" ">
<polygon fill="white" stroke="black" points="98.79,-224.5 98.79,-243.5 215.79,-243.5 215.79,-224.5 98.79,-224.5"/>
<text text-anchor="middle" x="157.29" y="-231.5" font-family="Helvetica,sans-Serif" font-size="10.00">engine/objects/Cell.hpp</text>
</a>
</g>
</g>
<!-- Node5&#45;&gt;Node6 -->
<g id="edge5" class="edge">
<title>Node5&#45;&gt;Node6</title>
<path fill="none" stroke="midnightblue" d="M258.28,-280.44C238.7,-271.64 207.98,-257.81 185.56,-247.72"/>
<polygon fill="midnightblue" stroke="midnightblue" points="186.77,-244.43 176.22,-243.52 183.9,-250.81 186.77,-244.43"/>
</g>
<!-- Node7 -->
<g id="node7" class="node">
<title>Node7</title>
<g id="a_node7"><a xlink:href="_drawable_8hpp.html" target="_top" xlink:title=" ">
<polygon fill="white" stroke="black" points="5.79,-112.5 5.79,-131.5 112.79,-131.5 112.79,-112.5 5.79,-112.5"/>
<text text-anchor="middle" x="59.29" y="-119.5" font-family="Helvetica,sans-Serif" font-size="10.00">engine/Drawable.hpp</text>
</a>
</g>
</g>
<!-- Node6&#45;&gt;Node7 -->
<g id="edge6" class="edge">
<title>Node6&#45;&gt;Node7</title>
<path fill="none" stroke="midnightblue" d="M105.13,-224.49C65.78,-216.88 16.56,-204.4 4.29,-188 -9.44,-169.65 13.64,-149.68 33.97,-136.79"/>
<polygon fill="midnightblue" stroke="midnightblue" points="35.92,-139.7 42.69,-131.56 32.32,-133.7 35.92,-139.7"/>
</g>
<!-- Node9 -->
<g id="node9" class="node">
<title>Node9</title>
<g id="a_node9"><a xlink:href="_tickable_8hpp.html" target="_top" xlink:title=" ">
<polygon fill="white" stroke="black" points="142.79,-112.5 142.79,-131.5 245.79,-131.5 245.79,-112.5 142.79,-112.5"/>
<text text-anchor="middle" x="194.29" y="-119.5" font-family="Helvetica,sans-Serif" font-size="10.00">engine/Tickable.hpp</text>
</a>
</g>
</g>
<!-- Node6&#45;&gt;Node9 -->
<g id="edge9" class="edge">
<title>Node6&#45;&gt;Node9</title>
<path fill="none" stroke="midnightblue" d="M188.31,-224.44C206.32,-217.69 227.52,-206.3 238.29,-188 248.77,-170.2 231.41,-150.69 215.51,-137.74"/>
<polygon fill="midnightblue" stroke="midnightblue" points="217.55,-134.89 207.48,-131.6 213.3,-140.46 217.55,-134.89"/>
</g>
<!-- Node10 -->
<g id="node10" class="node">
<title>Node10</title>
<g id="a_node10"><a xlink:title=" ">
<polygon fill="white" stroke="#bfbfbf" points="97.29,-168.5 97.29,-187.5 141.29,-187.5 141.29,-168.5 97.29,-168.5"/>
<text text-anchor="middle" x="119.29" y="-175.5" font-family="Helvetica,sans-Serif" font-size="10.00">vector</text>
</a>
</g>
</g>
<!-- Node6&#45;&gt;Node10 -->
<g id="edge10" class="edge">
<title>Node6&#45;&gt;Node10</title>
<path fill="none" stroke="midnightblue" d="M151.02,-224.08C145.65,-216.46 137.77,-205.26 131.21,-195.94"/>
<polygon fill="midnightblue" stroke="midnightblue" points="134.07,-193.91 125.45,-187.75 128.34,-197.94 134.07,-193.91"/>
</g>
<!-- Node11 -->
<g id="node11" class="node">
<title>Node11</title>
<g id="a_node11"><a xlink:href="_ground_8hpp.html" target="_top" xlink:title=" ">
<polygon fill="white" stroke="black" points="13.29,-168.5 13.29,-187.5 79.29,-187.5 79.29,-168.5 13.29,-168.5"/>
<text text-anchor="middle" x="46.29" y="-175.5" font-family="Helvetica,sans-Serif" font-size="10.00">Ground.hpp</text>
</a>
</g>
</g>
<!-- Node6&#45;&gt;Node11 -->
<g id="edge11" class="edge">
<title>Node6&#45;&gt;Node11</title>
<path fill="none" stroke="midnightblue" d="M139.46,-224.32C121.57,-215.62 93.81,-202.12 73.24,-192.11"/>
<polygon fill="midnightblue" stroke="midnightblue" points="74.6,-188.88 64.08,-187.65 71.54,-195.18 74.6,-188.88"/>
</g>
<!-- Node12 -->
<g id="node12" class="node">
<title>Node12</title>
<g id="a_node12"><a xlink:href="_building_8hpp.html" target="_top" xlink:title=" ">
<polygon fill="white" stroke="black" points="159.79,-168.5 159.79,-187.5 228.79,-187.5 228.79,-168.5 159.79,-168.5"/>
<text text-anchor="middle" x="194.29" y="-175.5" font-family="Helvetica,sans-Serif" font-size="10.00">Building.hpp</text>
</a>
</g>
</g>
<!-- Node6&#45;&gt;Node12 -->
<g id="edge14" class="edge">
<title>Node6&#45;&gt;Node12</title>
<path fill="none" stroke="midnightblue" d="M163.4,-224.08C168.57,-216.53 176.14,-205.49 182.48,-196.23"/>
<polygon fill="midnightblue" stroke="midnightblue" points="185.53,-197.98 188.29,-187.75 179.75,-194.02 185.53,-197.98"/>
</g>
<!-- Node7&#45;&gt;Node3 -->
<g id="edge8" class="edge">
<title>Node7&#45;&gt;Node3</title>
<path fill="none" stroke="midnightblue" d="M96.68,-112.44C137.68,-103.06 203.54,-87.99 248.07,-77.8"/>
<polygon fill="midnightblue" stroke="midnightblue" points="249.1,-81.16 258.07,-75.52 247.54,-74.34 249.1,-81.16"/>
</g>
<!-- Node8 -->
<g id="node8" class="node">
<title>Node8</title>
<g id="a_node8"><a xlink:title=" ">
<polygon fill="white" stroke="#bfbfbf" points="26.29,-56.5 26.29,-75.5 92.29,-75.5 92.29,-56.5 26.29,-56.5"/>
<text text-anchor="middle" x="59.29" y="-63.5" font-family="Helvetica,sans-Serif" font-size="10.00">string_view</text>
</a>
</g>
</g>
<!-- Node7&#45;&gt;Node8 -->
<g id="edge7" class="edge">
<title>Node7&#45;&gt;Node8</title>
<path fill="none" stroke="midnightblue" d="M59.29,-112.08C59.29,-105.01 59.29,-94.86 59.29,-85.99"/>
<polygon fill="midnightblue" stroke="midnightblue" points="62.79,-85.75 59.29,-75.75 55.79,-85.75 62.79,-85.75"/>
</g>
<!-- Node11&#45;&gt;Node7 -->
<g id="edge12" class="edge">
<title>Node11&#45;&gt;Node7</title>
<path fill="none" stroke="midnightblue" d="M48.44,-168.08C50.16,-160.93 52.64,-150.64 54.79,-141.69"/>
<polygon fill="midnightblue" stroke="midnightblue" points="58.25,-142.29 57.18,-131.75 51.44,-140.65 58.25,-142.29"/>
</g>
<!-- Node11&#45;&gt;Node9 -->
<g id="edge13" class="edge">
<title>Node11&#45;&gt;Node9</title>
<path fill="none" stroke="midnightblue" d="M69.74,-168.44C94.42,-159.44 133.48,-145.19 161.27,-135.05"/>
<polygon fill="midnightblue" stroke="midnightblue" points="162.75,-138.23 170.95,-131.52 160.35,-131.66 162.75,-138.23"/>
</g>
<!-- Node12&#45;&gt;Node7 -->
<g id="edge15" class="edge">
<title>Node12&#45;&gt;Node7</title>
<path fill="none" stroke="midnightblue" d="M172.9,-168.44C150.58,-159.52 115.39,-145.44 90.08,-135.32"/>
<polygon fill="midnightblue" stroke="midnightblue" points="91.17,-131.98 80.58,-131.52 88.57,-138.48 91.17,-131.98"/>
</g>
<!-- Node12&#45;&gt;Node9 -->
<g id="edge16" class="edge">
<title>Node12&#45;&gt;Node9</title>
<path fill="none" stroke="midnightblue" d="M194.29,-168.08C194.29,-161.01 194.29,-150.86 194.29,-141.99"/>
<polygon fill="midnightblue" stroke="midnightblue" points="197.79,-141.75 194.29,-131.75 190.79,-141.75 197.79,-141.75"/>
</g>
</g>
</svg>
