<?xml version="1.0" encoding="UTF-8" standalone="no"?>
<!DOCTYPE svg PUBLIC "-//W3C//DTD SVG 1.1//EN"
 "http://www.w3.org/Graphics/SVG/1.1/DTD/svg11.dtd">
<!-- Generated by graphviz version 2.47.0 (20210407.0042)
 -->
<!-- Title: include/engine/WorldActor.hpp Pages: 1 -->
<svg width="426pt" height="364pt"
 viewBox="0.00 0.00 425.50 364.00" xmlns="http://www.w3.org/2000/svg" xmlns:xlink="http://www.w3.org/1999/xlink">
<g id="graph0" class="graph" transform="scale(1 1) rotate(0) translate(4 360)">
<title>include/engine/WorldActor.hpp</title>
<polygon fill="white" stroke="transparent" points="-4,4 -4,-360 421.5,-360 421.5,4 -4,4"/>
<!-- Node1 -->
<g id="node1" class="node">
<title>Node1</title>
<g id="a_node1"><a xlink:title=" ">
<polygon fill="#bfbfbf" stroke="black" points="269.5,-336.5 269.5,-355.5 417.5,-355.5 417.5,-336.5 269.5,-336.5"/>
<text text-anchor="middle" x="343.5" y="-343.5" font-family="Helvetica,sans-Serif" font-size="10.00">include/engine/WorldActor.hpp</text>
</a>
</g>
</g>
<!-- Node2 -->
<g id="node2" class="node">
<title>Node2</title>
<g id="a_node2"><a xlink:href="_vector2_d_8hpp.html" target="_top" xlink:title=" ">
<polygon fill="white" stroke="black" points="277.5,-56.5 277.5,-75.5 389.5,-75.5 389.5,-56.5 277.5,-56.5"/>
<text text-anchor="middle" x="333.5" y="-63.5" font-family="Helvetica,sans-Serif" font-size="10.00">Helpers/Vector2D.hpp</text>
</a>
</g>
</g>
<!-- Node1&#45;&gt;Node2 -->
<g id="edge1" class="edge">
<title>Node1&#45;&gt;Node2</title>
<path fill="none" stroke="midnightblue" d="M347.28,-336.35C354.92,-318.03 371.5,-273.82 371.5,-235 371.5,-235 371.5,-235 371.5,-177 371.5,-142.81 354.9,-105.76 343.64,-84.57"/>
<polygon fill="midnightblue" stroke="midnightblue" points="346.68,-82.83 338.78,-75.77 340.55,-86.22 346.68,-82.83"/>
</g>
<!-- Node4 -->
<g id="node4" class="node">
<title>Node4</title>
<g id="a_node4"><a xlink:href="_field_8hpp.html" target="_top" xlink:title=" ">
<polygon fill="white" stroke="black" points="287.5,-280.5 287.5,-299.5 343.5,-299.5 343.5,-280.5 287.5,-280.5"/>
<text text-anchor="middle" x="315.5" y="-287.5" font-family="Helvetica,sans-Serif" font-size="10.00">Field.hpp</text>
</a>
</g>
</g>
<!-- Node1&#45;&gt;Node4 -->
<g id="edge3" class="edge">
<title>Node1&#45;&gt;Node4</title>
<path fill="none" stroke="midnightblue" d="M338.88,-336.08C335.04,-328.69 329.48,-317.95 324.74,-308.81"/>
<polygon fill="midnightblue" stroke="midnightblue" points="327.75,-307.02 320.04,-299.75 321.53,-310.24 327.75,-307.02"/>
</g>
<!-- Node3 -->
<g id="node3" class="node">
<title>Node3</title>
<g id="a_node3"><a xlink:title=" ">
<polygon fill="white" stroke="#bfbfbf" points="314,-0.5 314,-19.5 353,-19.5 353,-0.5 314,-0.5"/>
<text text-anchor="middle" x="333.5" y="-7.5" font-family="Helvetica,sans-Serif" font-size="10.00">utility</text>
</a>
</g>
</g>
<!-- Node2&#45;&gt;Node3 -->
<g id="edge2" class="edge">
<title>Node2&#45;&gt;Node3</title>
<path fill="none" stroke="midnightblue" d="M333.5,-56.08C333.5,-49.01 333.5,-38.86 333.5,-29.99"/>
<polygon fill="midnightblue" stroke="midnightblue" points="337,-29.75 333.5,-19.75 330,-29.75 337,-29.75"/>
</g>
<!-- Node4&#45;&gt;Node2 -->
<g id="edge17" class="edge">
<title>Node4&#45;&gt;Node2</title>
<path fill="none" stroke="midnightblue" d="M316.21,-280.3C318.85,-247.63 328.24,-131.87 331.96,-85.96"/>
<polygon fill="midnightblue" stroke="midnightblue" points="335.46,-86.13 332.78,-75.88 328.48,-85.57 335.46,-86.13"/>
</g>
<!-- Node5 -->
<g id="node5" class="node">
<title>Node5</title>
<g id="a_node5"><a xlink:href="_cell_8hpp.html" target="_top" xlink:title=" ">
<polygon fill="white" stroke="black" points="122,-224.5 122,-243.5 239,-243.5 239,-224.5 122,-224.5"/>
<text text-anchor="middle" x="180.5" y="-231.5" font-family="Helvetica,sans-Serif" font-size="10.00">engine/objects/Cell.hpp</text>
</a>
</g>
</g>
<!-- Node4&#45;&gt;Node5 -->
<g id="edge4" class="edge">
<title>Node4&#45;&gt;Node5</title>
<path fill="none" stroke="midnightblue" d="M294.11,-280.44C271.79,-271.52 236.6,-257.44 211.29,-247.32"/>
<polygon fill="midnightblue" stroke="midnightblue" points="212.38,-243.98 201.79,-243.52 209.78,-250.48 212.38,-243.98"/>
</g>
<!-- Node6 -->
<g id="node6" class="node">
<title>Node6</title>
<g id="a_node6"><a xlink:href="_drawable_8hpp.html" target="_top" xlink:title=" ">
<polygon fill="white" stroke="black" points="0,-112.5 0,-131.5 107,-131.5 107,-112.5 0,-112.5"/>
<text text-anchor="middle" x="53.5" y="-119.5" font-family="Helvetica,sans-Serif" font-size="10.00">engine/Drawable.hpp</text>
</a>
</g>
</g>
<!-- Node5&#45;&gt;Node6 -->
<g id="edge5" class="edge">
<title>Node5&#45;&gt;Node6</title>
<path fill="none" stroke="midnightblue" d="M128.34,-224.49C88.99,-216.88 39.77,-204.4 27.5,-188 16.53,-173.33 27.49,-153.41 38.36,-139.5"/>
<polygon fill="midnightblue" stroke="midnightblue" points="41.15,-141.62 44.92,-131.71 35.8,-137.1 41.15,-141.62"/>
</g>
<!-- Node8 -->
<g id="node8" class="node">
<title>Node8</title>
<g id="a_node8"><a xlink:href="_tickable_8hpp.html" target="_top" xlink:title=" ">
<polygon fill="white" stroke="black" points="125,-112.5 125,-131.5 228,-131.5 228,-112.5 125,-112.5"/>
<text text-anchor="middle" x="176.5" y="-119.5" font-family="Helvetica,sans-Serif" font-size="10.00">engine/Tickable.hpp</text>
</a>
</g>
</g>
<!-- Node5&#45;&gt;Node8 -->
<g id="edge8" class="edge">
<title>Node5&#45;&gt;Node8</title>
<path fill="none" stroke="midnightblue" d="M208.17,-224.44C237.36,-213.83 277.12,-193.95 261.5,-168 252.21,-152.57 235.67,-142.16 219.63,-135.27"/>
<polygon fill="midnightblue" stroke="midnightblue" points="220.89,-132.01 210.3,-131.61 218.33,-138.52 220.89,-132.01"/>
</g>
<!-- Node9 -->
<g id="node9" class="node">
<title>Node9</title>
<g id="a_node9"><a xlink:title=" ">
<polygon fill="white" stroke="#bfbfbf" points="120.5,-168.5 120.5,-187.5 164.5,-187.5 164.5,-168.5 120.5,-168.5"/>
<text text-anchor="middle" x="142.5" y="-175.5" font-family="Helvetica,sans-Serif" font-size="10.00">vector</text>
</a>
</g>
</g>
<!-- Node5&#45;&gt;Node9 -->
<g id="edge9" class="edge">
<title>Node5&#45;&gt;Node9</title>
<path fill="none" stroke="midnightblue" d="M174.23,-224.08C168.86,-216.46 160.98,-205.26 154.42,-195.94"/>
<polygon fill="midnightblue" stroke="midnightblue" points="157.28,-193.91 148.66,-187.75 151.55,-197.94 157.28,-193.91"/>
</g>
<!-- Node10 -->
<g id="node10" class="node">
<title>Node10</title>
<g id="a_node10"><a xlink:href="_ground_8hpp.html" target="_top" xlink:title=" ">
<polygon fill="white" stroke="black" points="36.5,-168.5 36.5,-187.5 102.5,-187.5 102.5,-168.5 36.5,-168.5"/>
<text text-anchor="middle" x="69.5" y="-175.5" font-family="Helvetica,sans-Serif" font-size="10.00">Ground.hpp</text>
</a>
</g>
</g>
<!-- Node5&#45;&gt;Node10 -->
<g id="edge10" class="edge">
<title>Node5&#45;&gt;Node10</title>
<path fill="none" stroke="midnightblue" d="M162.67,-224.32C144.78,-215.62 117.02,-202.12 96.45,-192.11"/>
<polygon fill="midnightblue" stroke="midnightblue" points="97.81,-188.88 87.29,-187.65 94.75,-195.18 97.81,-188.88"/>
</g>
<!-- Node11 -->
<g id="node11" class="node">
<title>Node11</title>
<g id="a_node11"><a xlink:href="_building_8hpp.html" target="_top" xlink:title=" ">
<polygon fill="white" stroke="black" points="183,-168.5 183,-187.5 252,-187.5 252,-168.5 183,-168.5"/>
<text text-anchor="middle" x="217.5" y="-175.5" font-family="Helvetica,sans-Serif" font-size="10.00">Building.hpp</text>
</a>
</g>
</g>
<!-- Node5&#45;&gt;Node11 -->
<g id="edge13" class="edge">
<title>Node5&#45;&gt;Node11</title>
<path fill="none" stroke="midnightblue" d="M186.61,-224.08C191.78,-216.53 199.35,-205.49 205.69,-196.23"/>
<polygon fill="midnightblue" stroke="midnightblue" points="208.74,-197.98 211.5,-187.75 202.96,-194.02 208.74,-197.98"/>
</g>
<!-- Node6&#45;&gt;Node2 -->
<g id="edge7" class="edge">
<title>Node6&#45;&gt;Node2</title>
<path fill="none" stroke="midnightblue" d="M97.87,-112.44C147.12,-102.94 226.63,-87.61 279.47,-77.42"/>
<polygon fill="midnightblue" stroke="midnightblue" points="280.18,-80.85 289.34,-75.52 278.86,-73.97 280.18,-80.85"/>
</g>
<!-- Node7 -->
<g id="node7" class="node">
<title>Node7</title>
<g id="a_node7"><a xlink:title=" ">
<polygon fill="white" stroke="#bfbfbf" points="20.5,-56.5 20.5,-75.5 86.5,-75.5 86.5,-56.5 20.5,-56.5"/>
<text text-anchor="middle" x="53.5" y="-63.5" font-family="Helvetica,sans-Serif" font-size="10.00">string_view</text>
</a>
</g>
</g>
<!-- Node6&#45;&gt;Node7 -->
<g id="edge6" class="edge">
<title>Node6&#45;&gt;Node7</title>
<path fill="none" stroke="midnightblue" d="M53.5,-112.08C53.5,-105.01 53.5,-94.86 53.5,-85.99"/>
<polygon fill="midnightblue" stroke="midnightblue" points="57,-85.75 53.5,-75.75 50,-85.75 57,-85.75"/>
</g>
<!-- Node10&#45;&gt;Node6 -->
<g id="edge11" class="edge">
<title>Node10&#45;&gt;Node6</title>
<path fill="none" stroke="midnightblue" d="M66.86,-168.08C64.71,-160.85 61.62,-150.41 58.95,-141.4"/>
<polygon fill="midnightblue" stroke="midnightblue" points="62.29,-140.34 56.09,-131.75 55.58,-142.33 62.29,-140.34"/>
</g>
<!-- Node10&#45;&gt;Node8 -->
<g id="edge12" class="edge">
<title>Node10&#45;&gt;Node8</title>
<path fill="none" stroke="midnightblue" d="M86.69,-168.32C103.85,-159.66 130.45,-146.24 150.25,-136.25"/>
<polygon fill="midnightblue" stroke="midnightblue" points="152,-139.28 159.35,-131.65 148.85,-133.04 152,-139.28"/>
</g>
<!-- Node11&#45;&gt;Node6 -->
<g id="edge14" class="edge">
<title>Node11&#45;&gt;Node6</title>
<path fill="none" stroke="midnightblue" d="M191.51,-168.44C163.8,-159.32 119.75,-144.81 88.88,-134.65"/>
<polygon fill="midnightblue" stroke="midnightblue" points="89.96,-131.32 79.36,-131.52 87.77,-137.97 89.96,-131.32"/>
</g>
<!-- Node11&#45;&gt;Node8 -->
<g id="edge15" class="edge">
<title>Node11&#45;&gt;Node8</title>
<path fill="none" stroke="midnightblue" d="M210.73,-168.08C204.94,-160.46 196.44,-149.26 189.36,-139.94"/>
<polygon fill="midnightblue" stroke="midnightblue" points="191.98,-137.6 183.14,-131.75 186.4,-141.83 191.98,-137.6"/>
</g>
<!-- Node12 -->
<g id="node12" class="node">
<title>Node12</title>
<g id="a_node12"><a xlink:title=" ">
<polygon fill="white" stroke="#bfbfbf" points="246,-112.5 246,-131.5 305,-131.5 305,-112.5 246,-112.5"/>
<text text-anchor="middle" x="275.5" y="-119.5" font-family="Helvetica,sans-Serif" font-size="10.00">functional</text>
</a>
</g>
</g>
<!-- Node11&#45;&gt;Node12 -->
<g id="edge16" class="edge">
<title>Node11&#45;&gt;Node12</title>
<path fill="none" stroke="midnightblue" d="M226.82,-168.32C235.39,-160.34 248.31,-148.31 258.69,-138.65"/>
<polygon fill="midnightblue" stroke="midnightblue" points="261.08,-141.21 266.01,-131.83 256.31,-136.09 261.08,-141.21"/>
</g>
</g>
</svg>
