<?xml version="1.0" encoding="UTF-8" standalone="no"?>
<!DOCTYPE svg PUBLIC "-//W3C//DTD SVG 1.1//EN"
 "http://www.w3.org/Graphics/SVG/1.1/DTD/svg11.dtd">
<!-- Generated by graphviz version 2.47.1 (20210421.1823)
 -->
<!-- Title: include/engine/WorldActor.hpp Pages: 1 -->
<svg width="554pt" height="285pt"
 viewBox="0.00 0.00 553.50 285.00" xmlns="http://www.w3.org/2000/svg" xmlns:xlink="http://www.w3.org/1999/xlink">
<g id="graph0" class="graph" transform="scale(1 1) rotate(0) translate(4 281)">
<title>include/engine/WorldActor.hpp</title>
<polygon fill="white" stroke="transparent" points="-4,4 -4,-281 549.5,-281 549.5,4 -4,4"/>
<!-- Node1 -->
<g id="node1" class="node">
<title>Node1</title>
<g id="a_node1"><a xlink:title=" ">
<polygon fill="#bfbfbf" stroke="black" points="196.5,-257.5 196.5,-276.5 344.5,-276.5 344.5,-257.5 196.5,-257.5"/>
<text text-anchor="middle" x="270.5" y="-264.5" font-family="Helvetica,sans-Serif" font-size="10.00">include/engine/WorldActor.hpp</text>
</a>
</g>
</g>
<!-- Node2 -->
<g id="node2" class="node">
<title>Node2</title>
<g id="a_node2"><a xlink:href="_world_actor_8cpp.html" target="_top" xlink:title=" ">
<polygon fill="white" stroke="black" points="65,-196 65,-215 196,-215 196,-196 65,-196"/>
<text text-anchor="middle" x="130.5" y="-203" font-family="Helvetica,sans-Serif" font-size="10.00">src/engine/WorldActor.cpp</text>
</a>
</g>
</g>
<!-- Node1&#45;&gt;Node2 -->
<g id="edge1" class="edge">
<title>Node1&#45;&gt;Node2</title>
<path fill="none" stroke="midnightblue" d="M241.04,-253.48C213.85,-241.92 174.21,-225.08 150.52,-215.01"/>
<polygon fill="midnightblue" stroke="midnightblue" points="239.87,-256.78 250.44,-257.48 242.61,-250.34 239.87,-256.78"/>
</g>
<!-- Node3 -->
<g id="node3" class="node">
<title>Node3</title>
<g id="a_node3"><a xlink:href="_player_8hpp.html" target="_top" xlink:title=" ">
<polygon fill="white" stroke="black" points="214,-190.5 214,-220.5 327,-220.5 327,-190.5 214,-190.5"/>
<text text-anchor="start" x="222" y="-208.5" font-family="Helvetica,sans-Serif" font-size="10.00">include/engine/objects</text>
<text text-anchor="middle" x="270.5" y="-197.5" font-family="Helvetica,sans-Serif" font-size="10.00">/Player.hpp</text>
</a>
</g>
</g>
<!-- Node1&#45;&gt;Node3 -->
<g id="edge2" class="edge">
<title>Node1&#45;&gt;Node3</title>
<path fill="none" stroke="midnightblue" d="M270.5,-247.23C270.5,-238.59 270.5,-228.5 270.5,-220.52"/>
<polygon fill="midnightblue" stroke="midnightblue" points="267,-247.48 270.5,-257.48 274,-247.48 267,-247.48"/>
</g>
<!-- Node11 -->
<g id="node11" class="node">
<title>Node11</title>
<g id="a_node11"><a xlink:href="_unit_8hpp.html" target="_top" xlink:title=" ">
<polygon fill="white" stroke="black" points="345,-190.5 345,-220.5 458,-220.5 458,-190.5 345,-190.5"/>
<text text-anchor="start" x="353" y="-208.5" font-family="Helvetica,sans-Serif" font-size="10.00">include/engine/objects</text>
<text text-anchor="middle" x="401.5" y="-197.5" font-family="Helvetica,sans-Serif" font-size="10.00">/Unit.hpp</text>
</a>
</g>
</g>
<!-- Node1&#45;&gt;Node11 -->
<g id="edge10" class="edge">
<title>Node1&#45;&gt;Node11</title>
<path fill="none" stroke="midnightblue" d="M298.39,-253.33C319.59,-243.7 348.73,-230.47 370.63,-220.52"/>
<polygon fill="midnightblue" stroke="midnightblue" points="296.93,-250.15 289.27,-257.48 299.82,-256.53 296.93,-250.15"/>
</g>
<!-- Node4 -->
<g id="node4" class="node">
<title>Node4</title>
<g id="a_node4"><a xlink:href="_player_8cpp.html" target="_top" xlink:title=" ">
<polygon fill="white" stroke="black" points="164.5,-123.5 164.5,-153.5 260.5,-153.5 260.5,-123.5 164.5,-123.5"/>
<text text-anchor="start" x="172.5" y="-141.5" font-family="Helvetica,sans-Serif" font-size="10.00">src/engine/objects</text>
<text text-anchor="middle" x="212.5" y="-130.5" font-family="Helvetica,sans-Serif" font-size="10.00">/Player.cpp</text>
</a>
</g>
</g>
<!-- Node3&#45;&gt;Node4 -->
<g id="edge3" class="edge">
<title>Node3&#45;&gt;Node4</title>
<path fill="none" stroke="midnightblue" d="M251.08,-182.74C242.5,-173.12 232.66,-162.09 225.06,-153.58"/>
<polygon fill="midnightblue" stroke="midnightblue" points="248.65,-185.26 257.91,-190.4 253.87,-180.6 248.65,-185.26"/>
</g>
<!-- Node5 -->
<g id="node5" class="node">
<title>Node5</title>
<g id="a_node5"><a xlink:href="_engine_8hpp.html" target="_top" xlink:title=" ">
<polygon fill="white" stroke="black" points="239.5,-67.5 239.5,-86.5 337.5,-86.5 337.5,-67.5 239.5,-67.5"/>
<text text-anchor="middle" x="288.5" y="-74.5" font-family="Helvetica,sans-Serif" font-size="10.00">include/Engine.hpp</text>
</a>
</g>
</g>
<!-- Node3&#45;&gt;Node5 -->
<g id="edge4" class="edge">
<title>Node3&#45;&gt;Node5</title>
<path fill="none" stroke="midnightblue" d="M273.91,-180.51C277.97,-152.02 284.52,-105.94 287.25,-86.79"/>
<polygon fill="midnightblue" stroke="midnightblue" points="270.44,-180.09 272.5,-190.48 277.37,-181.07 270.44,-180.09"/>
</g>
<!-- Node6 -->
<g id="node6" class="node">
<title>Node6</title>
<g id="a_node6"><a xlink:href="_drawable_8cpp.html" target="_top" xlink:title=" ">
<polygon fill="white" stroke="black" points="0,-6 0,-25 123,-25 123,-6 0,-6"/>
<text text-anchor="middle" x="61.5" y="-13" font-family="Helvetica,sans-Serif" font-size="10.00">src/engine/Drawable.cpp</text>
</a>
</g>
</g>
<!-- Node5&#45;&gt;Node6 -->
<g id="edge5" class="edge">
<title>Node5&#45;&gt;Node6</title>
<path fill="none" stroke="midnightblue" d="M246.14,-64.9C202.05,-53.34 133.97,-35.5 93.96,-25.01"/>
<polygon fill="midnightblue" stroke="midnightblue" points="245.42,-68.33 255.98,-67.48 247.19,-61.55 245.42,-68.33"/>
</g>
<!-- Node7 -->
<g id="node7" class="node">
<title>Node7</title>
<g id="a_node7"><a xlink:href="_unit_8cpp.html" target="_top" xlink:title=" ">
<polygon fill="white" stroke="black" points="449.5,-0.5 449.5,-30.5 545.5,-30.5 545.5,-0.5 449.5,-0.5"/>
<text text-anchor="start" x="457.5" y="-18.5" font-family="Helvetica,sans-Serif" font-size="10.00">src/engine/objects</text>
<text text-anchor="middle" x="497.5" y="-7.5" font-family="Helvetica,sans-Serif" font-size="10.00">/Unit.cpp</text>
</a>
</g>
</g>
<!-- Node5&#45;&gt;Node7 -->
<g id="edge6" class="edge">
<title>Node5&#45;&gt;Node7</title>
<path fill="none" stroke="midnightblue" d="M328.17,-64.71C362.65,-54.89 412.7,-40.64 449.45,-30.18"/>
<polygon fill="midnightblue" stroke="midnightblue" points="327.1,-61.37 318.44,-67.48 329.02,-68.1 327.1,-61.37"/>
</g>
<!-- Node8 -->
<g id="node8" class="node">
<title>Node8</title>
<g id="a_node8"><a xlink:href="_unit_group_8cpp.html" target="_top" xlink:title=" ">
<polygon fill="white" stroke="black" points="335.5,-0.5 335.5,-30.5 431.5,-30.5 431.5,-0.5 335.5,-0.5"/>
<text text-anchor="start" x="343.5" y="-18.5" font-family="Helvetica,sans-Serif" font-size="10.00">src/engine/objects</text>
<text text-anchor="middle" x="383.5" y="-7.5" font-family="Helvetica,sans-Serif" font-size="10.00">/UnitGroup.cpp</text>
</a>
</g>
</g>
<!-- Node5&#45;&gt;Node8 -->
<g id="edge7" class="edge">
<title>Node5&#45;&gt;Node8</title>
<path fill="none" stroke="midnightblue" d="M310.84,-62.01C325.99,-52.52 345.95,-40.02 361.11,-30.52"/>
<polygon fill="midnightblue" stroke="midnightblue" points="308.73,-59.2 302.11,-67.48 312.44,-65.13 308.73,-59.2"/>
</g>
<!-- Node9 -->
<g id="node9" class="node">
<title>Node9</title>
<g id="a_node9"><a xlink:href="_engine_8cpp.html" target="_top" xlink:title=" ">
<polygon fill="white" stroke="black" points="141.5,-6 141.5,-25 221.5,-25 221.5,-6 141.5,-6"/>
<text text-anchor="middle" x="181.5" y="-13" font-family="Helvetica,sans-Serif" font-size="10.00">src/Engine.cpp</text>
</a>
</g>
</g>
<!-- Node5&#45;&gt;Node9 -->
<g id="edge8" class="edge">
<title>Node5&#45;&gt;Node9</title>
<path fill="none" stroke="midnightblue" d="M264.32,-62.56C243.62,-51.04 214.43,-34.81 196.8,-25.01"/>
<polygon fill="midnightblue" stroke="midnightblue" points="262.73,-65.67 273.17,-67.48 266.13,-59.56 262.73,-65.67"/>
</g>
<!-- Node10 -->
<g id="node10" class="node">
<title>Node10</title>
<g id="a_node10"><a xlink:href="_game_8cpp.html" target="_top" xlink:title=" ">
<polygon fill="white" stroke="black" points="240,-6 240,-25 317,-25 317,-6 240,-6"/>
<text text-anchor="middle" x="278.5" y="-13" font-family="Helvetica,sans-Serif" font-size="10.00">src/Game.cpp</text>
</a>
</g>
</g>
<!-- Node5&#45;&gt;Node10 -->
<g id="edge9" class="edge">
<title>Node5&#45;&gt;Node10</title>
<path fill="none" stroke="midnightblue" d="M285.36,-57.32C283.54,-46.5 281.34,-33.4 279.93,-25.01"/>
<polygon fill="midnightblue" stroke="midnightblue" points="281.96,-58.19 287.07,-67.48 288.86,-57.03 281.96,-58.19"/>
</g>
<!-- Node11&#45;&gt;Node7 -->
<g id="edge11" class="edge">
<title>Node11&#45;&gt;Node7</title>
<path fill="none" stroke="midnightblue" d="M425.33,-183.5C433.86,-175.01 442.97,-164.7 449.5,-154 474.66,-112.78 488.99,-56.53 494.65,-30.62"/>
<polygon fill="midnightblue" stroke="midnightblue" points="422.87,-181.01 418.06,-190.45 427.71,-186.07 422.87,-181.01"/>
</g>
<!-- Node12 -->
<g id="node12" class="node">
<title>Node12</title>
<g id="a_node12"><a xlink:href="_unit_group_8hpp.html" target="_top" xlink:title=" ">
<polygon fill="white" stroke="black" points="327,-123.5 327,-153.5 440,-153.5 440,-123.5 327,-123.5"/>
<text text-anchor="start" x="335" y="-141.5" font-family="Helvetica,sans-Serif" font-size="10.00">include/engine/objects</text>
<text text-anchor="middle" x="383.5" y="-130.5" font-family="Helvetica,sans-Serif" font-size="10.00">/UnitGroup.hpp</text>
</a>
</g>
</g>
<!-- Node11&#45;&gt;Node12 -->
<g id="edge12" class="edge">
<title>Node11&#45;&gt;Node12</title>
<path fill="none" stroke="midnightblue" d="M394.91,-180.7C392.39,-171.59 389.59,-161.49 387.4,-153.58"/>
<polygon fill="midnightblue" stroke="midnightblue" points="391.55,-181.69 397.59,-190.4 398.3,-179.82 391.55,-181.69"/>
</g>
<!-- Node12&#45;&gt;Node5 -->
<g id="edge14" class="edge">
<title>Node12&#45;&gt;Node5</title>
<path fill="none" stroke="midnightblue" d="M352.48,-118.07C335.54,-107.46 315.42,-94.86 302.32,-86.66"/>
<polygon fill="midnightblue" stroke="midnightblue" points="350.65,-121.06 360.99,-123.4 354.37,-115.13 350.65,-121.06"/>
</g>
<!-- Node12&#45;&gt;Node8 -->
<g id="edge13" class="edge">
<title>Node12&#45;&gt;Node8</title>
<path fill="none" stroke="midnightblue" d="M383.5,-113.12C383.5,-88.44 383.5,-51.11 383.5,-30.84"/>
<polygon fill="midnightblue" stroke="midnightblue" points="380,-113.14 383.5,-123.14 387,-113.14 380,-113.14"/>
</g>
</g>
</svg>
