<?xml version="1.0" encoding="UTF-8" standalone="no"?>
<!DOCTYPE svg PUBLIC "-//W3C//DTD SVG 1.1//EN"
 "http://www.w3.org/Graphics/SVG/1.1/DTD/svg11.dtd">
<!-- Generated by graphviz version 2.47.1 (20210421.1823)
 -->
<!-- Title: Cell::Draw Pages: 1 -->
<svg width="664pt" height="233pt"
 viewBox="0.00 0.00 664.00 232.50" xmlns="http://www.w3.org/2000/svg" xmlns:xlink="http://www.w3.org/1999/xlink">
<g id="graph0" class="graph" transform="scale(1 1) rotate(0) translate(4 228.5)">
<title>Cell::Draw</title>
<polygon fill="white" stroke="transparent" points="-4,4 -4,-228.5 660,-228.5 660,4 -4,4"/>
<!-- Node1 -->
<g id="node1" class="node">
<title>Node1</title>
<g id="a_node1"><a xlink:title=" ">
<polygon fill="#bfbfbf" stroke="black" points="0,-79 0,-98 60,-98 60,-79 0,-79"/>
<text text-anchor="middle" x="30" y="-86" font-family="Helvetica,sans-Serif" font-size="10.00">Cell::Draw</text>
</a>
</g>
</g>
<!-- Node2 -->
<g id="node2" class="node">
<title>Node2</title>
<g id="a_node2"><a xlink:href="class_drawable.html#ac46f25a963a3fe3e9176461d61d213c7" target="_top" xlink:title=" ">
<polygon fill="white" stroke="black" points="96,-79 96,-98 180,-98 180,-79 96,-79"/>
<text text-anchor="middle" x="138" y="-86" font-family="Helvetica,sans-Serif" font-size="10.00">Drawable::Draw</text>
</a>
</g>
</g>
<!-- Node1&#45;&gt;Node2 -->
<g id="edge1" class="edge">
<title>Node1&#45;&gt;Node2</title>
<path fill="none" stroke="midnightblue" d="M60.25,-88.5C68.17,-88.5 77,-88.5 85.75,-88.5"/>
<polygon fill="midnightblue" stroke="midnightblue" points="85.95,-92 95.95,-88.5 85.95,-85 85.95,-92"/>
</g>
<!-- Node3 -->
<g id="node3" class="node">
<title>Node3</title>
<g id="a_node3"><a xlink:href="class_graphics_1_1_image.html#af48c0e309532eb1ff36e8fdaee244da1" target="_top" xlink:title=" ">
<polygon fill="white" stroke="black" points="228.5,-148 228.5,-167 342.5,-167 342.5,-148 228.5,-148"/>
<text text-anchor="middle" x="285.5" y="-155" font-family="Helvetica,sans-Serif" font-size="10.00">Graphics::Image::Draw</text>
</a>
</g>
</g>
<!-- Node2&#45;&gt;Node3 -->
<g id="edge2" class="edge">
<title>Node2&#45;&gt;Node3</title>
<path fill="none" stroke="midnightblue" d="M151.71,-98.19C166.47,-109.05 191.9,-126.58 216,-137.5 222.07,-140.25 228.6,-142.72 235.15,-144.92"/>
<polygon fill="midnightblue" stroke="midnightblue" points="234.1,-148.26 244.69,-147.94 236.21,-141.59 234.1,-148.26"/>
</g>
<!-- Node9 -->
<g id="node9" class="node">
<title>Node9</title>
<g id="a_node9"><a xlink:href="class_graphics_1_1_resource_manager.html#a712cf513dbda24deb3a7fcea7157003a" target="_top" xlink:title=" ">
<polygon fill="white" stroke="black" points="216,-98.5 216,-128.5 355,-128.5 355,-98.5 216,-98.5"/>
<text text-anchor="start" x="224" y="-116.5" font-family="Helvetica,sans-Serif" font-size="10.00">Graphics::ResourceManager</text>
<text text-anchor="middle" x="285.5" y="-105.5" font-family="Helvetica,sans-Serif" font-size="10.00">::GetImage</text>
</a>
</g>
</g>
<!-- Node2&#45;&gt;Node9 -->
<g id="edge8" class="edge">
<title>Node2&#45;&gt;Node9</title>
<path fill="none" stroke="midnightblue" d="M180.31,-95.6C188.36,-96.98 197.06,-98.48 205.87,-99.99"/>
<polygon fill="midnightblue" stroke="midnightblue" points="205.39,-103.46 215.84,-101.7 206.57,-96.56 205.39,-103.46"/>
</g>
<!-- Node10 -->
<g id="node10" class="node">
<title>Node10</title>
<g id="a_node10"><a xlink:href="class_graphics_1_1_resource_manager.html#a34d11294bd090580de46ab34f303c2ab" target="_top" xlink:title=" ">
<polygon fill="white" stroke="black" points="216,-49.5 216,-79.5 355,-79.5 355,-49.5 216,-49.5"/>
<text text-anchor="start" x="224" y="-67.5" font-family="Helvetica,sans-Serif" font-size="10.00">Graphics::ResourceManager</text>
<text text-anchor="middle" x="285.5" y="-56.5" font-family="Helvetica,sans-Serif" font-size="10.00">::GetShader</text>
</a>
</g>
</g>
<!-- Node2&#45;&gt;Node10 -->
<g id="edge9" class="edge">
<title>Node2&#45;&gt;Node10</title>
<path fill="none" stroke="midnightblue" d="M180.31,-81.69C188.36,-80.36 197.06,-78.92 205.87,-77.47"/>
<polygon fill="midnightblue" stroke="midnightblue" points="206.54,-80.91 215.84,-75.83 205.4,-74 206.54,-80.91"/>
</g>
<!-- Node11 -->
<g id="node11" class="node">
<title>Node11</title>
<g id="a_node11"><a xlink:href="class_graphics_1_1_resource_manager.html#a2bf0311bf4f8431618eb13706a26a5f1" target="_top" xlink:title=" ">
<polygon fill="white" stroke="black" points="216,-0.5 216,-30.5 355,-30.5 355,-0.5 216,-0.5"/>
<text text-anchor="start" x="224" y="-18.5" font-family="Helvetica,sans-Serif" font-size="10.00">Graphics::ResourceManager</text>
<text text-anchor="middle" x="285.5" y="-7.5" font-family="Helvetica,sans-Serif" font-size="10.00">::GetWindow</text>
</a>
</g>
</g>
<!-- Node2&#45;&gt;Node11 -->
<g id="edge10" class="edge">
<title>Node2&#45;&gt;Node11</title>
<path fill="none" stroke="midnightblue" d="M152.09,-78.85C166.99,-68.18 192.34,-50.99 216,-39.5 219.6,-37.75 223.35,-36.07 227.17,-34.47"/>
<polygon fill="midnightblue" stroke="midnightblue" points="228.77,-37.6 236.76,-30.64 226.17,-31.1 228.77,-37.6"/>
</g>
<!-- Node4 -->
<g id="node4" class="node">
<title>Node4</title>
<g id="a_node4"><a xlink:href="class_graphics_1_1_quadrangle.html#a7a061a60b5bff19feb5fd317d06495f0" target="_top" xlink:title=" ">
<polygon fill="white" stroke="black" points="391,-164.5 391,-194.5 501,-194.5 501,-164.5 391,-164.5"/>
<text text-anchor="start" x="399" y="-182.5" font-family="Helvetica,sans-Serif" font-size="10.00">Graphics::Quadrangle</text>
<text text-anchor="middle" x="446" y="-171.5" font-family="Helvetica,sans-Serif" font-size="10.00">::Draw</text>
</a>
</g>
</g>
<!-- Node3&#45;&gt;Node4 -->
<g id="edge3" class="edge">
<title>Node3&#45;&gt;Node4</title>
<path fill="none" stroke="midnightblue" d="M342.83,-165.32C355.18,-167.03 368.36,-168.86 380.99,-170.62"/>
<polygon fill="midnightblue" stroke="midnightblue" points="380.59,-174.09 390.98,-172 381.56,-167.16 380.59,-174.09"/>
</g>
<!-- Node7 -->
<g id="node7" class="node">
<title>Node7</title>
<g id="a_node7"><a xlink:href="class_graphics_1_1_shader.html#aa5da414808337285b38565f60c3d7cbd" target="_top" xlink:title=" ">
<polygon fill="white" stroke="black" points="391,-126 391,-145 501,-145 501,-126 391,-126"/>
<text text-anchor="middle" x="446" y="-133" font-family="Helvetica,sans-Serif" font-size="10.00">Graphics::Shader::Set</text>
</a>
</g>
</g>
<!-- Node3&#45;&gt;Node7 -->
<g id="edge6" class="edge">
<title>Node3&#45;&gt;Node7</title>
<path fill="none" stroke="midnightblue" d="M342.83,-149.68C355.18,-147.97 368.36,-146.14 380.99,-144.38"/>
<polygon fill="midnightblue" stroke="midnightblue" points="381.56,-147.84 390.98,-143 380.59,-140.91 381.56,-147.84"/>
</g>
<!-- Node5 -->
<g id="node5" class="node">
<title>Node5</title>
<g id="a_node5"><a xlink:href="class_graphics_1_1_shader.html#a63bfd523754bb6b2224aa7a48c65a504" target="_top" xlink:title=" ">
<polygon fill="white" stroke="black" points="537,-205 537,-224 656,-224 656,-205 537,-205"/>
<text text-anchor="middle" x="596.5" y="-212" font-family="Helvetica,sans-Serif" font-size="10.00">Graphics::Shader::GetId</text>
</a>
</g>
</g>
<!-- Node4&#45;&gt;Node5 -->
<g id="edge4" class="edge">
<title>Node4&#45;&gt;Node5</title>
<path fill="none" stroke="midnightblue" d="M501.03,-192.23C515.31,-195.6 530.67,-199.22 544.77,-202.54"/>
<polygon fill="midnightblue" stroke="midnightblue" points="544.25,-206.02 554.78,-204.9 545.85,-199.2 544.25,-206.02"/>
</g>
<!-- Node6 -->
<g id="node6" class="node">
<title>Node6</title>
<g id="a_node6"><a xlink:href="class_graphics_1_1_shader.html#a11a2de17d1d077ec34acd4f7cd57f6b1" target="_top" xlink:title=" ">
<polygon fill="white" stroke="black" points="540,-167 540,-186 653,-186 653,-167 540,-167"/>
<text text-anchor="middle" x="596.5" y="-174" font-family="Helvetica,sans-Serif" font-size="10.00">Graphics::Shader::Use</text>
</a>
</g>
</g>
<!-- Node4&#45;&gt;Node6 -->
<g id="edge5" class="edge">
<title>Node4&#45;&gt;Node6</title>
<path fill="none" stroke="midnightblue" d="M501.03,-178.41C510.29,-178.22 520,-178.03 529.53,-177.83"/>
<polygon fill="midnightblue" stroke="midnightblue" points="529.83,-181.33 539.76,-177.63 529.69,-174.33 529.83,-181.33"/>
</g>
<!-- Node8 -->
<g id="node8" class="node">
<title>Node8</title>
<g id="a_node8"><a xlink:href="class_graphics_1_1_image.html#aab55feadb4b66e0fd78b5f54a6fadde2" target="_top" xlink:title=" ">
<polygon fill="white" stroke="black" points="538.5,-126 538.5,-145 654.5,-145 654.5,-126 538.5,-126"/>
<text text-anchor="middle" x="596.5" y="-133" font-family="Helvetica,sans-Serif" font-size="10.00">Graphics::Image::GetId</text>
</a>
</g>
</g>
<!-- Node7&#45;&gt;Node8 -->
<g id="edge7" class="edge">
<title>Node7&#45;&gt;Node8</title>
<path fill="none" stroke="midnightblue" d="M501.03,-135.5C509.83,-135.5 519.04,-135.5 528.11,-135.5"/>
<polygon fill="midnightblue" stroke="midnightblue" points="528.26,-139 538.26,-135.5 528.26,-132 528.26,-139"/>
</g>
</g>
</svg>
