<?xml version="1.0" encoding="UTF-8" standalone="no"?>
<!DOCTYPE svg PUBLIC "-//W3C//DTD SVG 1.1//EN"
 "http://www.w3.org/Graphics/SVG/1.1/DTD/svg11.dtd">
<!-- Generated by graphviz version 2.47.0 (20210407.0042)
 -->
<!-- Title: Unit::Tick Pages: 1 -->
<svg width="341pt" height="161pt"
 viewBox="0.00 0.00 341.00 161.00" xmlns="http://www.w3.org/2000/svg" xmlns:xlink="http://www.w3.org/1999/xlink">
<g id="graph0" class="graph" transform="scale(1 1) rotate(0) translate(4 157)">
<title>Unit::Tick</title>
<polygon fill="white" stroke="transparent" points="-4,4 -4,-157 337,-157 337,4 -4,4"/>
<!-- Node1 -->
<g id="node1" class="node">
<title>Node1</title>
<g id="a_node1"><a xlink:title=" ">
<polygon fill="#bfbfbf" stroke="black" points="0,-76.5 0,-95.5 58,-95.5 58,-76.5 0,-76.5"/>
<text text-anchor="middle" x="29" y="-83.5" font-family="Helvetica,sans-Serif" font-size="10.00">Unit::Tick</text>
</a>
</g>
</g>
<!-- Node2 -->
<g id="node2" class="node">
<title>Node2</title>
<g id="a_node2"><a xlink:href="class_building.html#a0946ee74f4385c905c5cbffbde38e7dc" target="_top" xlink:title=" ">
<polygon fill="white" stroke="black" points="94,-133.5 94,-152.5 205,-152.5 205,-133.5 94,-133.5"/>
<text text-anchor="middle" x="149.5" y="-140.5" font-family="Helvetica,sans-Serif" font-size="10.00">Building::DealDamage</text>
</a>
</g>
</g>
<!-- Node1&#45;&gt;Node2 -->
<g id="edge1" class="edge">
<title>Node1&#45;&gt;Node2</title>
<path fill="none" stroke="midnightblue" d="M44.29,-95.62C56.97,-103.87 76.19,-115.71 94,-124 98.42,-126.06 103.13,-128.02 107.87,-129.85"/>
<polygon fill="midnightblue" stroke="midnightblue" points="106.92,-133.23 117.52,-133.4 109.34,-126.66 106.92,-133.23"/>
</g>
<!-- Node3 -->
<g id="node3" class="node">
<title>Node3</title>
<g id="a_node3"><a xlink:href="class_field.html#a198a31202a6e9d9414356491ec9cdad4" target="_top" xlink:title=" ">
<polygon fill="white" stroke="black" points="103.5,-95.5 103.5,-114.5 195.5,-114.5 195.5,-95.5 103.5,-95.5"/>
<text text-anchor="middle" x="149.5" y="-102.5" font-family="Helvetica,sans-Serif" font-size="10.00">Field::GetBuilding</text>
</a>
</g>
</g>
<!-- Node1&#45;&gt;Node3 -->
<g id="edge2" class="edge">
<title>Node1&#45;&gt;Node3</title>
<path fill="none" stroke="midnightblue" d="M58.08,-90.5C68.67,-92.2 81.11,-94.2 93.32,-96.15"/>
<polygon fill="midnightblue" stroke="midnightblue" points="93.05,-99.65 103.48,-97.78 94.16,-92.74 93.05,-99.65"/>
</g>
<!-- Node5 -->
<g id="node5" class="node">
<title>Node5</title>
<g id="a_node5"><a xlink:href="class_timer.html#a9c2d5c4a3dd43e5cb6f3fd9fce8c0203" target="_top" xlink:title=" ">
<polygon fill="white" stroke="black" points="108,-57.5 108,-76.5 191,-76.5 191,-57.5 108,-57.5"/>
<text text-anchor="middle" x="149.5" y="-64.5" font-family="Helvetica,sans-Serif" font-size="10.00">Timer::GetTime</text>
</a>
</g>
</g>
<!-- Node1&#45;&gt;Node5 -->
<g id="edge4" class="edge">
<title>Node1&#45;&gt;Node5</title>
<path fill="none" stroke="midnightblue" d="M58.08,-81.5C69.86,-79.61 83.94,-77.35 97.44,-75.19"/>
<polygon fill="midnightblue" stroke="midnightblue" points="98.29,-78.6 107.6,-73.56 97.18,-71.68 98.29,-78.6"/>
</g>
<!-- Node6 -->
<g id="node6" class="node">
<title>Node6</title>
<g id="a_node6"><a xlink:href="class_world_actor.html#a211b1d4fdcd4eaed756b3602b6dfb412" target="_top" xlink:title=" ">
<polygon fill="white" stroke="black" points="105.5,-19.5 105.5,-38.5 193.5,-38.5 193.5,-19.5 105.5,-19.5"/>
<text text-anchor="middle" x="149.5" y="-26.5" font-family="Helvetica,sans-Serif" font-size="10.00">WorldActor::Tick</text>
</a>
</g>
</g>
<!-- Node1&#45;&gt;Node6 -->
<g id="edge5" class="edge">
<title>Node1&#45;&gt;Node6</title>
<path fill="none" stroke="midnightblue" d="M44.29,-76.38C56.97,-68.13 76.19,-56.29 94,-48 98.42,-45.94 103.13,-43.98 107.87,-42.15"/>
<polygon fill="midnightblue" stroke="midnightblue" points="109.34,-45.34 117.52,-38.6 106.92,-38.77 109.34,-45.34"/>
</g>
<!-- Node4 -->
<g id="node4" class="node">
<title>Node4</title>
<g id="a_node4"><a xlink:href="class_field.html#abbe1a428501a04475979b292b5ad404b" target="_top" xlink:title=" ">
<polygon fill="white" stroke="black" points="241,-95.5 241,-114.5 333,-114.5 333,-95.5 241,-95.5"/>
<text text-anchor="middle" x="287" y="-102.5" font-family="Helvetica,sans-Serif" font-size="10.00">Field::GetCellPos</text>
</a>
</g>
</g>
<!-- Node3&#45;&gt;Node4 -->
<g id="edge3" class="edge">
<title>Node3&#45;&gt;Node4</title>
<path fill="none" stroke="midnightblue" d="M195.62,-105C206.81,-105 218.94,-105 230.56,-105"/>
<polygon fill="midnightblue" stroke="midnightblue" points="230.62,-108.5 240.62,-105 230.62,-101.5 230.62,-108.5"/>
</g>
<!-- Node7 -->
<g id="node7" class="node">
<title>Node7</title>
<g id="a_node7"><a xlink:href="class_field.html#ae4f590bead2c56d2962a5362e8d127a4" target="_top" xlink:title=" ">
<polygon fill="white" stroke="black" points="250,-38.5 250,-57.5 324,-57.5 324,-38.5 250,-38.5"/>
<text text-anchor="middle" x="287" y="-45.5" font-family="Helvetica,sans-Serif" font-size="10.00">Field::GetCell</text>
</a>
</g>
</g>
<!-- Node6&#45;&gt;Node7 -->
<g id="edge6" class="edge">
<title>Node6&#45;&gt;Node7</title>
<path fill="none" stroke="midnightblue" d="M193.75,-35.06C208.47,-37.13 224.98,-39.44 239.92,-41.54"/>
<polygon fill="midnightblue" stroke="midnightblue" points="239.58,-45.03 249.97,-42.95 240.55,-38.09 239.58,-45.03"/>
</g>
<!-- Node8 -->
<g id="node8" class="node">
<title>Node8</title>
<g id="a_node8"><a xlink:href="class_cell.html#ac21e31812473f2d969ff434b35a81825" target="_top" xlink:title=" ">
<polygon fill="white" stroke="black" points="246.5,-0.5 246.5,-19.5 327.5,-19.5 327.5,-0.5 246.5,-0.5"/>
<text text-anchor="middle" x="287" y="-7.5" font-family="Helvetica,sans-Serif" font-size="10.00">Cell::GetSpeed</text>
</a>
</g>
</g>
<!-- Node6&#45;&gt;Node8 -->
<g id="edge7" class="edge">
<title>Node6&#45;&gt;Node8</title>
<path fill="none" stroke="midnightblue" d="M193.75,-22.94C207.33,-21.03 222.44,-18.91 236.43,-16.95"/>
<polygon fill="midnightblue" stroke="midnightblue" points="236.96,-20.41 246.38,-15.56 235.99,-13.48 236.96,-20.41"/>
</g>
</g>
</svg>
