<?xml version="1.0" encoding="UTF-8" standalone="no"?>
<!DOCTYPE svg PUBLIC "-//W3C//DTD SVG 1.1//EN"
 "http://www.w3.org/Graphics/SVG/1.1/DTD/svg11.dtd">
<!-- Generated by graphviz version 2.47.1 (20210421.1823)
 -->
<!-- Title: Graphics::ResourceManager::GetWindow Pages: 1 -->
<svg width="916pt" height="324pt"
 viewBox="0.00 0.00 916.00 323.85" xmlns="http://www.w3.org/2000/svg" xmlns:xlink="http://www.w3.org/1999/xlink">
<g id="graph0" class="graph" transform="scale(1 1) rotate(0) translate(4 319.85)">
<title>Graphics::ResourceManager::GetWindow</title>
<polygon fill="white" stroke="transparent" points="-4,4 -4,-319.85 912,-319.85 912,4 -4,4"/>
<!-- Node1 -->
<g id="node1" class="node">
<title>Node1</title>
<g id="a_node1"><a xlink:title=" ">
<polygon fill="#bfbfbf" stroke="black" points="769,-140.35 769,-170.35 908,-170.35 908,-140.35 769,-140.35"/>
<text text-anchor="start" x="777" y="-158.35" font-family="Helvetica,sans-Serif" font-size="10.00">Graphics::ResourceManager</text>
<text text-anchor="middle" x="838.5" y="-147.35" font-family="Helvetica,sans-Serif" font-size="10.00">::GetWindow</text>
</a>
</g>
</g>
<!-- Node2 -->
<g id="node2" class="node">
<title>Node2</title>
<g id="a_node2"><a xlink:href="class_engine.html#a39f23d7f0ad86322bfdb73d4e6763005" target="_top" xlink:title=" ">
<polygon fill="white" stroke="black" points="178,-126.85 178,-145.85 251,-145.85 251,-126.85 178,-126.85"/>
<text text-anchor="middle" x="214.5" y="-133.85" font-family="Helvetica,sans-Serif" font-size="10.00">Engine::Draw</text>
</a>
</g>
</g>
<!-- Node1&#45;&gt;Node2 -->
<g id="edge1" class="edge">
<title>Node1&#45;&gt;Node2</title>
<path fill="none" stroke="midnightblue" d="M758.5,-150.8C672.36,-146.1 530.44,-139.05 408,-136.35 353.37,-135.14 290,-135.47 251.34,-135.87"/>
<polygon fill="midnightblue" stroke="midnightblue" points="758.55,-154.31 768.72,-151.37 758.93,-147.32 758.55,-154.31"/>
</g>
<!-- Node3 -->
<g id="node3" class="node">
<title>Node3</title>
<g id="a_node3"><a xlink:href="class_game.html#adb05b20574551a26f8cf1dc664782790" target="_top" xlink:title=" ">
<polygon fill="white" stroke="black" points="74,-85.85 74,-104.85 142,-104.85 142,-85.85 74,-85.85"/>
<text text-anchor="middle" x="108" y="-92.85" font-family="Helvetica,sans-Serif" font-size="10.00">Game::Start</text>
</a>
</g>
</g>
<!-- Node1&#45;&gt;Node3 -->
<g id="edge15" class="edge">
<title>Node1&#45;&gt;Node3</title>
<path fill="none" stroke="midnightblue" d="M826.09,-179.99C810.14,-211.26 778,-264.06 733,-288.35 645.47,-335.59 609.47,-307.35 510,-307.35 510,-307.35 510,-307.35 346.5,-307.35 223.25,-307.35 134.51,-146.48 113.68,-105.01"/>
<polygon fill="midnightblue" stroke="midnightblue" points="829.4,-181.17 830.69,-170.66 823.13,-178.08 829.4,-181.17"/>
</g>
<!-- Node5 -->
<g id="node5" class="node">
<title>Node5</title>
<g id="a_node5"><a xlink:href="class_g_u_i_1_1_inventory.html#a21d5b891441704d9eed170c5608cbb5e" target="_top" xlink:title=" ">
<polygon fill="white" stroke="black" points="618.5,-221.85 618.5,-240.85 724.5,-240.85 724.5,-221.85 618.5,-221.85"/>
<text text-anchor="middle" x="671.5" y="-228.85" font-family="Helvetica,sans-Serif" font-size="10.00">GUI::Inventory::Draw</text>
</a>
</g>
</g>
<!-- Node1&#45;&gt;Node5 -->
<g id="edge4" class="edge">
<title>Node1&#45;&gt;Node5</title>
<path fill="none" stroke="midnightblue" d="M804.08,-175.76C783.96,-187.48 757.58,-201.9 733,-212.35 724.69,-215.88 715.5,-219.1 706.84,-221.84"/>
<polygon fill="midnightblue" stroke="midnightblue" points="806.01,-178.68 812.85,-170.58 802.45,-172.65 806.01,-178.68"/>
</g>
<!-- Node6 -->
<g id="node6" class="node">
<title>Node6</title>
<g id="a_node6"><a xlink:href="class_g_u_i_1_1_item.html#ab089785456c77b4ff16f15dc7b6bd8fa" target="_top" xlink:title=" ">
<polygon fill="white" stroke="black" points="628.5,-183.85 628.5,-202.85 714.5,-202.85 714.5,-183.85 628.5,-183.85"/>
<text text-anchor="middle" x="671.5" y="-190.85" font-family="Helvetica,sans-Serif" font-size="10.00">GUI::Item::Draw</text>
</a>
</g>
</g>
<!-- Node1&#45;&gt;Node6 -->
<g id="edge5" class="edge">
<title>Node1&#45;&gt;Node6</title>
<path fill="none" stroke="midnightblue" d="M762.53,-172.61C745.85,-176.45 728.75,-180.39 714,-183.79"/>
<polygon fill="midnightblue" stroke="midnightblue" points="763.33,-176.02 772.29,-170.37 761.76,-169.2 763.33,-176.02"/>
</g>
<!-- Node7 -->
<g id="node7" class="node">
<title>Node7</title>
<g id="a_node7"><a xlink:href="class_field.html#ad13d86066be42a2e10fcb9cbcc51fb0b" target="_top" xlink:title=" ">
<polygon fill="white" stroke="black" points="315,-145.85 315,-164.85 380,-164.85 380,-145.85 315,-145.85"/>
<text text-anchor="middle" x="347.5" y="-152.85" font-family="Helvetica,sans-Serif" font-size="10.00">Field::Draw</text>
</a>
</g>
</g>
<!-- Node1&#45;&gt;Node7 -->
<g id="edge6" class="edge">
<title>Node1&#45;&gt;Node7</title>
<path fill="none" stroke="midnightblue" d="M758.66,-155.35C649.16,-155.35 455.96,-155.35 380.23,-155.35"/>
<polygon fill="midnightblue" stroke="midnightblue" points="758.99,-158.85 768.99,-155.35 758.99,-151.85 758.99,-158.85"/>
</g>
<!-- Node8 -->
<g id="node8" class="node">
<title>Node8</title>
<g id="a_node8"><a xlink:href="class_drawable.html#ac46f25a963a3fe3e9176461d61d213c7" target="_top" xlink:title=" ">
<polygon fill="white" stroke="black" points="629.5,-259.85 629.5,-278.85 713.5,-278.85 713.5,-259.85 629.5,-259.85"/>
<text text-anchor="middle" x="671.5" y="-266.85" font-family="Helvetica,sans-Serif" font-size="10.00">Drawable::Draw</text>
</a>
</g>
</g>
<!-- Node1&#45;&gt;Node8 -->
<g id="edge8" class="edge">
<title>Node1&#45;&gt;Node8</title>
<path fill="none" stroke="midnightblue" d="M817.99,-178.04C798.46,-199.46 766.56,-231.08 733,-250.35 726.41,-254.13 718.98,-257.25 711.64,-259.8"/>
<polygon fill="midnightblue" stroke="midnightblue" points="820.79,-180.17 824.85,-170.38 815.57,-175.5 820.79,-180.17"/>
</g>
<!-- Node10 -->
<g id="node10" class="node">
<title>Node10</title>
<g id="a_node10"><a xlink:href="class_g_u_i_1_1_inventory.html#a8fe3124d38c7228c1553d555bca1b5a4" target="_top" xlink:title=" ">
<polygon fill="white" stroke="black" points="610,-69.85 610,-88.85 733,-88.85 733,-69.85 610,-69.85"/>
<text text-anchor="middle" x="671.5" y="-76.85" font-family="Helvetica,sans-Serif" font-size="10.00">GUI::Inventory::Inventory</text>
</a>
</g>
</g>
<!-- Node1&#45;&gt;Node10 -->
<g id="edge12" class="edge">
<title>Node1&#45;&gt;Node10</title>
<path fill="none" stroke="midnightblue" d="M800,-135.73C780.26,-125.65 755.53,-113.4 733,-103.35 721.65,-98.28 708.88,-93.14 698.01,-88.92"/>
<polygon fill="midnightblue" stroke="midnightblue" points="798.48,-138.89 808.98,-140.34 801.68,-132.66 798.48,-138.89"/>
</g>
<!-- Node11 -->
<g id="node11" class="node">
<title>Node11</title>
<g id="a_node11"><a xlink:href="namespace_graphics_1_1_resource_parser.html#a6a538c07babc9bbaf884e0aeb9654fe0" target="_top" xlink:title=" ">
<polygon fill="white" stroke="black" points="444,-45.35 444,-75.35 574,-75.35 574,-45.35 444,-45.35"/>
<text text-anchor="start" x="452" y="-63.35" font-family="Helvetica,sans-Serif" font-size="10.00">Graphics::ResourceParser</text>
<text text-anchor="middle" x="509" y="-52.35" font-family="Helvetica,sans-Serif" font-size="10.00">::LoadResources</text>
</a>
</g>
</g>
<!-- Node1&#45;&gt;Node11 -->
<g id="edge13" class="edge">
<title>Node1&#45;&gt;Node11</title>
<path fill="none" stroke="midnightblue" d="M820.6,-132.16C802.09,-108.95 770.07,-74.68 733,-60.35 682.26,-40.73 620.05,-42.65 574.24,-48.37"/>
<polygon fill="midnightblue" stroke="midnightblue" points="817.9,-134.39 826.79,-140.16 823.43,-130.11 817.9,-134.39"/>
</g>
<!-- Node12 -->
<g id="node12" class="node">
<title>Node12</title>
<g id="a_node12"><a xlink:href="class_event_handler.html#a53ee17f2156ec5ad0769743f39ea259d" target="_top" xlink:title=" ">
<polygon fill="white" stroke="black" points="287,-1.35 287,-31.35 408,-31.35 408,-1.35 287,-1.35"/>
<text text-anchor="start" x="295" y="-19.35" font-family="Helvetica,sans-Serif" font-size="10.00">EventHandler::TriggerAll</text>
<text text-anchor="middle" x="347.5" y="-8.35" font-family="Helvetica,sans-Serif" font-size="10.00">Events</text>
</a>
</g>
</g>
<!-- Node1&#45;&gt;Node12 -->
<g id="edge16" class="edge">
<title>Node1&#45;&gt;Node12</title>
<path fill="none" stroke="midnightblue" d="M823.64,-131.55C806.32,-104.31 773.9,-60.94 733,-41.35 627.58,9.17 486.92,2.37 408.25,-7.04"/>
<polygon fill="midnightblue" stroke="midnightblue" points="820.7,-133.44 828.93,-140.11 826.66,-129.76 820.7,-133.44"/>
</g>
<!-- Node2&#45;&gt;Node3 -->
<g id="edge2" class="edge">
<title>Node2&#45;&gt;Node3</title>
<path fill="none" stroke="midnightblue" d="M179.76,-123.11C164.69,-117.2 147.26,-110.36 133.47,-104.95"/>
<polygon fill="midnightblue" stroke="midnightblue" points="178.68,-126.44 189.26,-126.84 181.23,-119.93 178.68,-126.44"/>
</g>
<!-- Node4 -->
<g id="node4" class="node">
<title>Node4</title>
<g id="a_node4"><a xlink:href="main_8cpp.html#ae66f6b31b5ad750f1fe042a706a4e3d4" target="_top" xlink:title=" ">
<polygon fill="white" stroke="black" points="0,-85.85 0,-104.85 38,-104.85 38,-85.85 0,-85.85"/>
<text text-anchor="middle" x="19" y="-92.85" font-family="Helvetica,sans-Serif" font-size="10.00">main</text>
</a>
</g>
</g>
<!-- Node3&#45;&gt;Node4 -->
<g id="edge3" class="edge">
<title>Node3&#45;&gt;Node4</title>
<path fill="none" stroke="midnightblue" d="M63.54,-95.35C54.55,-95.35 45.55,-95.35 38.09,-95.35"/>
<polygon fill="midnightblue" stroke="midnightblue" points="63.61,-98.85 73.61,-95.35 63.61,-91.85 63.61,-98.85"/>
</g>
<!-- Node7&#45;&gt;Node2 -->
<g id="edge7" class="edge">
<title>Node7&#45;&gt;Node2</title>
<path fill="none" stroke="midnightblue" d="M304.45,-149.25C287.24,-146.75 267.55,-143.9 251.07,-141.51"/>
<polygon fill="midnightblue" stroke="midnightblue" points="304.39,-152.78 314.79,-150.75 305.39,-145.85 304.39,-152.78"/>
</g>
<!-- Node8&#45;&gt;Node2 -->
<g id="edge9" class="edge">
<title>Node8&#45;&gt;Node2</title>
<path fill="none" stroke="midnightblue" d="M619.02,-263.43C572.74,-257.46 503.15,-246.91 444,-231.35 372.21,-212.46 354.83,-204.51 287,-174.35 267.6,-165.72 246.21,-154.05 231.93,-145.93"/>
<polygon fill="midnightblue" stroke="midnightblue" points="618.75,-266.92 629.11,-264.7 619.62,-259.97 618.75,-266.92"/>
</g>
<!-- Node9 -->
<g id="node9" class="node">
<title>Node9</title>
<g id="a_node9"><a xlink:href="class_cell.html#ac88160c4177e146f8dd7482c4eaee4f0" target="_top" xlink:title=" ">
<polygon fill="white" stroke="black" points="479,-202.85 479,-221.85 539,-221.85 539,-202.85 479,-202.85"/>
<text text-anchor="middle" x="509" y="-209.85" font-family="Helvetica,sans-Serif" font-size="10.00">Cell::Draw</text>
</a>
</g>
</g>
<!-- Node8&#45;&gt;Node9 -->
<g id="edge10" class="edge">
<title>Node8&#45;&gt;Node9</title>
<path fill="none" stroke="midnightblue" d="M629.08,-256.7C622.67,-254.63 616.14,-252.48 610,-250.35 583.85,-241.28 554.27,-229.9 534.1,-221.96"/>
<polygon fill="midnightblue" stroke="midnightblue" points="628.39,-260.15 638.98,-259.83 630.51,-253.48 628.39,-260.15"/>
</g>
<!-- Node9&#45;&gt;Node7 -->
<g id="edge11" class="edge">
<title>Node9&#45;&gt;Node7</title>
<path fill="none" stroke="midnightblue" d="M471.82,-199.42C442.48,-188.93 401.77,-174.38 375.28,-164.92"/>
<polygon fill="midnightblue" stroke="midnightblue" points="470.71,-202.74 481.3,-202.81 473.06,-196.14 470.71,-202.74"/>
</g>
<!-- Node11&#45;&gt;Node3 -->
<g id="edge14" class="edge">
<title>Node11&#45;&gt;Node3</title>
<path fill="none" stroke="midnightblue" d="M433.8,-66.86C346.6,-74.5 205.74,-86.86 142.09,-92.44"/>
<polygon fill="midnightblue" stroke="midnightblue" points="434.24,-70.33 443.89,-65.97 433.63,-63.36 434.24,-70.33"/>
</g>
<!-- Node12&#45;&gt;Node3 -->
<g id="edge17" class="edge">
<title>Node12&#45;&gt;Node3</title>
<path fill="none" stroke="midnightblue" d="M277.03,-32.32C246.28,-40.15 209.93,-50.46 178,-62.35 160.08,-69.02 140.49,-78.62 126.77,-85.75"/>
<polygon fill="midnightblue" stroke="midnightblue" points="277.96,-35.7 286.8,-29.87 276.25,-28.91 277.96,-35.7"/>
</g>
</g>
</svg>
