<?xml version="1.0" encoding="UTF-8" standalone="no"?>
<!DOCTYPE svg PUBLIC "-//W3C//DTD SVG 1.1//EN"
 "http://www.w3.org/Graphics/SVG/1.1/DTD/svg11.dtd">
<!-- Generated by graphviz version 2.47.1 (20210421.1823)
 -->
<!-- Title: GroundEarth Pages: 1 -->
<svg width="156pt" height="342pt"
 viewBox="0.00 0.00 156.00 342.00" xmlns="http://www.w3.org/2000/svg" xmlns:xlink="http://www.w3.org/1999/xlink">
<g id="graph0" class="graph" transform="scale(1 1) rotate(0) translate(4 338)">
<title>GroundEarth</title>
<polygon fill="white" stroke="transparent" points="-4,4 -4,-338 152,-338 152,4 -4,4"/>
<!-- Node1 -->
<g id="node1" class="node">
<title>Node1</title>
<g id="a_node1"><a xlink:title=" ">
<polygon fill="#bfbfbf" stroke="black" points="34.5,-0.5 34.5,-79.5 124.5,-79.5 124.5,-0.5 34.5,-0.5"/>
<text text-anchor="middle" x="79.5" y="-67.5" font-family="Helvetica,sans-Serif" font-size="10.00">GroundEarth</text>
<polyline fill="none" stroke="black" points="34.5,-60.5 124.5,-60.5 "/>
<text text-anchor="middle" x="79.5" y="-48.5" font-family="Helvetica,sans-Serif" font-size="10.00"> </text>
<polyline fill="none" stroke="black" points="34.5,-41.5 124.5,-41.5 "/>
<text text-anchor="start" x="42.5" y="-29.5" font-family="Helvetica,sans-Serif" font-size="10.00">+ ~GroundEarth()</text>
<text text-anchor="start" x="42.5" y="-18.5" font-family="Helvetica,sans-Serif" font-size="10.00">+ GroundEarth()</text>
<text text-anchor="start" x="42.5" y="-7.5" font-family="Helvetica,sans-Serif" font-size="10.00">+ Tick()</text>
</a>
</g>
</g>
<!-- Node2 -->
<g id="node2" class="node">
<title>Node2</title>
<g id="a_node2"><a xlink:href="class_ground.html" target="_top" xlink:title=" ">
<polygon fill="white" stroke="black" points="45.5,-116.5 45.5,-184.5 113.5,-184.5 113.5,-116.5 45.5,-116.5"/>
<text text-anchor="middle" x="79.5" y="-172.5" font-family="Helvetica,sans-Serif" font-size="10.00">Ground</text>
<polyline fill="none" stroke="black" points="45.5,-165.5 113.5,-165.5 "/>
<text text-anchor="middle" x="79.5" y="-153.5" font-family="Helvetica,sans-Serif" font-size="10.00"> </text>
<polyline fill="none" stroke="black" points="45.5,-146.5 113.5,-146.5 "/>
<text text-anchor="start" x="53.5" y="-134.5" font-family="Helvetica,sans-Serif" font-size="10.00">+ ~Ground()</text>
<text text-anchor="start" x="53.5" y="-123.5" font-family="Helvetica,sans-Serif" font-size="10.00">+ Ground()</text>
</a>
</g>
</g>
<!-- Node2&#45;&gt;Node1 -->
<g id="edge1" class="edge">
<title>Node2&#45;&gt;Node1</title>
<path fill="none" stroke="midnightblue" d="M79.5,-106.27C79.5,-97.48 79.5,-88.28 79.5,-79.65"/>
<polygon fill="none" stroke="midnightblue" points="76,-106.36 79.5,-116.36 83,-106.36 76,-106.36"/>
</g>
<!-- Node3 -->
<g id="node3" class="node">
<title>Node3</title>
<g id="a_node3"><a xlink:href="class_drawable.html" target="_top" xlink:title=" ">
<polygon fill="white" stroke="black" points="0,-221.5 0,-333.5 77,-333.5 77,-221.5 0,-221.5"/>
<text text-anchor="middle" x="38.5" y="-321.5" font-family="Helvetica,sans-Serif" font-size="10.00">Drawable</text>
<polyline fill="none" stroke="black" points="0,-314.5 77,-314.5 "/>
<text text-anchor="middle" x="38.5" y="-302.5" font-family="Helvetica,sans-Serif" font-size="10.00"> </text>
<polyline fill="none" stroke="black" points="0,-295.5 77,-295.5 "/>
<text text-anchor="start" x="8" y="-283.5" font-family="Helvetica,sans-Serif" font-size="10.00">+ Drawable()</text>
<text text-anchor="start" x="8" y="-272.5" font-family="Helvetica,sans-Serif" font-size="10.00">+ Drawable()</text>
<text text-anchor="start" x="8" y="-261.5" font-family="Helvetica,sans-Serif" font-size="10.00">+ Draw()</text>
<text text-anchor="start" x="8" y="-250.5" font-family="Helvetica,sans-Serif" font-size="10.00">+ ~Drawable()</text>
<text text-anchor="start" x="8" y="-239.5" font-family="Helvetica,sans-Serif" font-size="10.00">+ GetImg()</text>
<text text-anchor="start" x="8" y="-228.5" font-family="Helvetica,sans-Serif" font-size="10.00">+ SetImage()</text>
</a>
</g>
</g>
<!-- Node3&#45;&gt;Node2 -->
<g id="edge2" class="edge">
<title>Node3&#45;&gt;Node2</title>
<path fill="none" stroke="midnightblue" d="M59.8,-211.55C62.88,-202.18 65.93,-192.89 68.67,-184.51"/>
<polygon fill="none" stroke="midnightblue" points="56.39,-210.72 56.6,-221.31 63.04,-212.9 56.39,-210.72"/>
</g>
<!-- Node4 -->
<g id="node4" class="node">
<title>Node4</title>
<g id="a_node4"><a xlink:href="class_tickable.html" target="_top" xlink:title=" ">
<polygon fill="white" stroke="black" points="95,-249 95,-306 148,-306 148,-249 95,-249"/>
<text text-anchor="middle" x="121.5" y="-294" font-family="Helvetica,sans-Serif" font-size="10.00">Tickable</text>
<polyline fill="none" stroke="black" points="95,-287 148,-287 "/>
<text text-anchor="middle" x="121.5" y="-275" font-family="Helvetica,sans-Serif" font-size="10.00"> </text>
<polyline fill="none" stroke="black" points="95,-268 148,-268 "/>
<text text-anchor="start" x="103" y="-256" font-family="Helvetica,sans-Serif" font-size="10.00">+ Tick()</text>
</a>
</g>
</g>
<!-- Node4&#45;&gt;Node2 -->
<g id="edge3" class="edge">
<title>Node4&#45;&gt;Node2</title>
<path fill="none" stroke="midnightblue" d="M108.91,-239.03C103.13,-221.84 96.34,-201.62 90.74,-184.94"/>
<polygon fill="none" stroke="midnightblue" points="105.68,-240.39 112.18,-248.76 112.31,-238.16 105.68,-240.39"/>
</g>
</g>
</svg>
