<?xml version="1.0" encoding="UTF-8" standalone="no"?>
<!DOCTYPE svg PUBLIC "-//W3C//DTD SVG 1.1//EN"
 "http://www.w3.org/Graphics/SVG/1.1/DTD/svg11.dtd">
<!-- Generated by graphviz version 2.47.0 (20210407.0042)
 -->
<!-- Title: Tickable Pages: 1 -->
<svg width="728pt" height="441pt"
 viewBox="0.00 0.00 727.50 441.00" xmlns="http://www.w3.org/2000/svg" xmlns:xlink="http://www.w3.org/1999/xlink">
<g id="graph0" class="graph" transform="scale(1 1) rotate(0) translate(4 437)">
<title>Tickable</title>
<polygon fill="white" stroke="transparent" points="-4,4 -4,-437 723.5,-437 723.5,4 -4,4"/>
<!-- Node1 -->
<g id="node1" class="node">
<title>Node1</title>
<g id="a_node1"><a xlink:title=" ">
<polygon fill="#bfbfbf" stroke="black" points="194.5,-375.5 194.5,-432.5 247.5,-432.5 247.5,-375.5 194.5,-375.5"/>
<text text-anchor="middle" x="221" y="-420.5" font-family="Helvetica,sans-Serif" font-size="10.00">Tickable</text>
<polyline fill="none" stroke="black" points="194.5,-413.5 247.5,-413.5 "/>
<text text-anchor="middle" x="221" y="-401.5" font-family="Helvetica,sans-Serif" font-size="10.00"> </text>
<polyline fill="none" stroke="black" points="194.5,-394.5 247.5,-394.5 "/>
<text text-anchor="start" x="202.5" y="-382.5" font-family="Helvetica,sans-Serif" font-size="10.00">+ Tick()</text>
</a>
</g>
</g>
<!-- Node2 -->
<g id="node2" class="node">
<title>Node2</title>
<g id="a_node2"><a xlink:href="class_building.html" target="_top" xlink:title=" ">
<polygon fill="white" stroke="black" points="30,-193.5 30,-305.5 116,-305.5 116,-193.5 30,-193.5"/>
<text text-anchor="middle" x="73" y="-293.5" font-family="Helvetica,sans-Serif" font-size="10.00">Building</text>
<polyline fill="none" stroke="black" points="30,-286.5 116,-286.5 "/>
<text text-anchor="middle" x="73" y="-274.5" font-family="Helvetica,sans-Serif" font-size="10.00"> </text>
<polyline fill="none" stroke="black" points="30,-267.5 116,-267.5 "/>
<text text-anchor="start" x="38" y="-255.5" font-family="Helvetica,sans-Serif" font-size="10.00">+ GetLife()</text>
<text text-anchor="start" x="38" y="-244.5" font-family="Helvetica,sans-Serif" font-size="10.00">+ DealDamage()</text>
<text text-anchor="start" x="38" y="-233.5" font-family="Helvetica,sans-Serif" font-size="10.00">+ Repair()</text>
<text text-anchor="start" x="38" y="-222.5" font-family="Helvetica,sans-Serif" font-size="10.00">+ Building()</text>
<text text-anchor="start" x="38" y="-211.5" font-family="Helvetica,sans-Serif" font-size="10.00">+ Building()</text>
<text text-anchor="start" x="38" y="-200.5" font-family="Helvetica,sans-Serif" font-size="10.00">+ Tick()</text>
</a>
</g>
</g>
<!-- Node1&#45;&gt;Node2 -->
<g id="edge1" class="edge">
<title>Node1&#45;&gt;Node2</title>
<path fill="none" stroke="midnightblue" d="M185.3,-384.45C165.87,-373.15 142.34,-357.35 125,-339 115.7,-329.16 107.34,-317.36 100.18,-305.63"/>
<polygon fill="none" stroke="midnightblue" points="183.76,-387.6 194.18,-389.48 187.2,-381.51 183.76,-387.6"/>
</g>
<!-- Node3 -->
<g id="node3" class="node">
<title>Node3</title>
<g id="a_node3"><a xlink:href="class_cell.html" target="_top" xlink:title=" ">
<polygon fill="white" stroke="black" points="134.5,-166 134.5,-333 215.5,-333 215.5,-166 134.5,-166"/>
<text text-anchor="middle" x="175" y="-321" font-family="Helvetica,sans-Serif" font-size="10.00">Cell</text>
<polyline fill="none" stroke="black" points="134.5,-314 215.5,-314 "/>
<text text-anchor="middle" x="175" y="-302" font-family="Helvetica,sans-Serif" font-size="10.00"> </text>
<polyline fill="none" stroke="black" points="134.5,-295 215.5,-295 "/>
<text text-anchor="start" x="142.5" y="-283" font-family="Helvetica,sans-Serif" font-size="10.00">+ Cell()</text>
<text text-anchor="start" x="142.5" y="-272" font-family="Helvetica,sans-Serif" font-size="10.00">+ Cell()</text>
<text text-anchor="start" x="142.5" y="-261" font-family="Helvetica,sans-Serif" font-size="10.00">+ operator=()</text>
<text text-anchor="start" x="142.5" y="-250" font-family="Helvetica,sans-Serif" font-size="10.00">+ ~Cell()</text>
<text text-anchor="start" x="142.5" y="-239" font-family="Helvetica,sans-Serif" font-size="10.00">+ Add()</text>
<text text-anchor="start" x="142.5" y="-228" font-family="Helvetica,sans-Serif" font-size="10.00">+ SetBuilding()</text>
<text text-anchor="start" x="142.5" y="-217" font-family="Helvetica,sans-Serif" font-size="10.00">+ GetSpeed()</text>
<text text-anchor="start" x="142.5" y="-206" font-family="Helvetica,sans-Serif" font-size="10.00">+ GetSize()</text>
<text text-anchor="start" x="142.5" y="-195" font-family="Helvetica,sans-Serif" font-size="10.00">+ GetBuilding()</text>
<text text-anchor="start" x="142.5" y="-184" font-family="Helvetica,sans-Serif" font-size="10.00">+ Draw()</text>
<text text-anchor="start" x="142.5" y="-173" font-family="Helvetica,sans-Serif" font-size="10.00">+ Tick()</text>
</a>
</g>
</g>
<!-- Node1&#45;&gt;Node3 -->
<g id="edge2" class="edge">
<title>Node1&#45;&gt;Node3</title>
<path fill="none" stroke="midnightblue" d="M209.69,-365.51C206.69,-355.57 203.34,-344.44 199.92,-333.12"/>
<polygon fill="none" stroke="midnightblue" points="206.43,-366.82 212.67,-375.38 213.13,-364.8 206.43,-366.82"/>
</g>
<!-- Node4 -->
<g id="node4" class="node">
<title>Node4</title>
<g id="a_node4"><a xlink:href="class_ground.html" target="_top" xlink:title=" ">
<polygon fill="white" stroke="black" points="234,-215.5 234,-283.5 302,-283.5 302,-215.5 234,-215.5"/>
<text text-anchor="middle" x="268" y="-271.5" font-family="Helvetica,sans-Serif" font-size="10.00">Ground</text>
<polyline fill="none" stroke="black" points="234,-264.5 302,-264.5 "/>
<text text-anchor="middle" x="268" y="-252.5" font-family="Helvetica,sans-Serif" font-size="10.00"> </text>
<polyline fill="none" stroke="black" points="234,-245.5 302,-245.5 "/>
<text text-anchor="start" x="242" y="-233.5" font-family="Helvetica,sans-Serif" font-size="10.00">+ ~Ground()</text>
<text text-anchor="start" x="242" y="-222.5" font-family="Helvetica,sans-Serif" font-size="10.00">+ Ground()</text>
</a>
</g>
</g>
<!-- Node1&#45;&gt;Node4 -->
<g id="edge3" class="edge">
<title>Node1&#45;&gt;Node4</title>
<path fill="none" stroke="midnightblue" d="M232.55,-365.51C240.27,-340.48 250.32,-307.86 257.75,-283.76"/>
<polygon fill="none" stroke="midnightblue" points="229.11,-364.8 229.51,-375.38 235.8,-366.86 229.11,-364.8"/>
</g>
<!-- Node9 -->
<g id="node9" class="node">
<title>Node9</title>
<g id="a_node9"><a xlink:href="class_world_actor.html" target="_top" xlink:title=" ">
<polygon fill="white" stroke="black" points="472.5,-160.5 472.5,-338.5 551.5,-338.5 551.5,-160.5 472.5,-160.5"/>
<text text-anchor="middle" x="512" y="-326.5" font-family="Helvetica,sans-Serif" font-size="10.00">WorldActor</text>
<polyline fill="none" stroke="black" points="472.5,-319.5 551.5,-319.5 "/>
<text text-anchor="start" x="480.5" y="-307.5" font-family="Helvetica,sans-Serif" font-size="10.00"># position_</text>
<text text-anchor="start" x="480.5" y="-296.5" font-family="Helvetica,sans-Serif" font-size="10.00"># speed_</text>
<text text-anchor="start" x="480.5" y="-285.5" font-family="Helvetica,sans-Serif" font-size="10.00"># fly_</text>
<text text-anchor="start" x="480.5" y="-274.5" font-family="Helvetica,sans-Serif" font-size="10.00"># rooted_</text>
<text text-anchor="start" x="480.5" y="-263.5" font-family="Helvetica,sans-Serif" font-size="10.00"># field_</text>
<polyline fill="none" stroke="black" points="472.5,-256.5 551.5,-256.5 "/>
<text text-anchor="start" x="480.5" y="-244.5" font-family="Helvetica,sans-Serif" font-size="10.00">+ WorldActor()</text>
<text text-anchor="start" x="480.5" y="-233.5" font-family="Helvetica,sans-Serif" font-size="10.00">+ Move()</text>
<text text-anchor="start" x="480.5" y="-222.5" font-family="Helvetica,sans-Serif" font-size="10.00">+ Tick()</text>
<text text-anchor="start" x="480.5" y="-211.5" font-family="Helvetica,sans-Serif" font-size="10.00">+ IncSpeed()</text>
<text text-anchor="start" x="480.5" y="-200.5" font-family="Helvetica,sans-Serif" font-size="10.00">+ SetSpeed()</text>
<text text-anchor="start" x="480.5" y="-189.5" font-family="Helvetica,sans-Serif" font-size="10.00">+ GetX()</text>
<text text-anchor="start" x="480.5" y="-178.5" font-family="Helvetica,sans-Serif" font-size="10.00">+ GetY()</text>
<text text-anchor="start" x="480.5" y="-167.5" font-family="Helvetica,sans-Serif" font-size="10.00">+ Distance()</text>
</a>
</g>
</g>
<!-- Node1&#45;&gt;Node9 -->
<g id="edge8" class="edge">
<title>Node1&#45;&gt;Node9</title>
<path fill="none" stroke="#8b1a1a" d="M256.56,-384.37C311.15,-355.75 415.29,-301.18 472.29,-271.31"/>
<polygon fill="none" stroke="#8b1a1a" points="254.83,-381.32 247.6,-389.06 258.08,-387.52 254.83,-381.32"/>
</g>
<!-- Node5 -->
<g id="node5" class="node">
<title>Node5</title>
<g id="a_node5"><a xlink:href="class_ground_earth.html" target="_top" xlink:title=" ">
<polygon fill="white" stroke="black" points="0,-22.5 0,-101.5 90,-101.5 90,-22.5 0,-22.5"/>
<text text-anchor="middle" x="45" y="-89.5" font-family="Helvetica,sans-Serif" font-size="10.00">GroundEarth</text>
<polyline fill="none" stroke="black" points="0,-82.5 90,-82.5 "/>
<text text-anchor="middle" x="45" y="-70.5" font-family="Helvetica,sans-Serif" font-size="10.00"> </text>
<polyline fill="none" stroke="black" points="0,-63.5 90,-63.5 "/>
<text text-anchor="start" x="8" y="-51.5" font-family="Helvetica,sans-Serif" font-size="10.00">+ ~GroundEarth()</text>
<text text-anchor="start" x="8" y="-40.5" font-family="Helvetica,sans-Serif" font-size="10.00">+ GroundEarth()</text>
<text text-anchor="start" x="8" y="-29.5" font-family="Helvetica,sans-Serif" font-size="10.00">+ Tick()</text>
</a>
</g>
</g>
<!-- Node4&#45;&gt;Node5 -->
<g id="edge4" class="edge">
<title>Node4&#45;&gt;Node5</title>
<path fill="none" stroke="midnightblue" d="M255.13,-205.79C248.26,-189.42 238.21,-171.85 224,-160 179.59,-122.98 147.88,-154.87 99,-124 89.55,-118.03 80.79,-109.94 73.2,-101.6"/>
<polygon fill="none" stroke="midnightblue" points="251.92,-207.19 258.81,-215.23 258.44,-204.64 251.92,-207.19"/>
</g>
<!-- Node6 -->
<g id="node6" class="node">
<title>Node6</title>
<g id="a_node6"><a xlink:href="class_ground_empty.html" target="_top" xlink:title=" ">
<polygon fill="white" stroke="black" points="108.5,-22.5 108.5,-101.5 203.5,-101.5 203.5,-22.5 108.5,-22.5"/>
<text text-anchor="middle" x="156" y="-89.5" font-family="Helvetica,sans-Serif" font-size="10.00">GroundEmpty</text>
<polyline fill="none" stroke="black" points="108.5,-82.5 203.5,-82.5 "/>
<text text-anchor="middle" x="156" y="-70.5" font-family="Helvetica,sans-Serif" font-size="10.00"> </text>
<polyline fill="none" stroke="black" points="108.5,-63.5 203.5,-63.5 "/>
<text text-anchor="start" x="116.5" y="-51.5" font-family="Helvetica,sans-Serif" font-size="10.00">+ ~GroundEmpty()</text>
<text text-anchor="start" x="116.5" y="-40.5" font-family="Helvetica,sans-Serif" font-size="10.00">+ GroundEmpty()</text>
<text text-anchor="start" x="116.5" y="-29.5" font-family="Helvetica,sans-Serif" font-size="10.00">+ Tick()</text>
</a>
</g>
</g>
<!-- Node4&#45;&gt;Node6 -->
<g id="edge5" class="edge">
<title>Node4&#45;&gt;Node6</title>
<path fill="none" stroke="midnightblue" d="M248.32,-205.69C241.13,-190.96 232.63,-174.52 224,-160 212.23,-140.2 197.74,-119.16 185.17,-101.75"/>
<polygon fill="none" stroke="midnightblue" points="245.36,-207.6 252.85,-215.09 251.66,-204.56 245.36,-207.6"/>
</g>
<!-- Node7 -->
<g id="node7" class="node">
<title>Node7</title>
<g id="a_node7"><a xlink:href="class_ground_water.html" target="_top" xlink:title=" ">
<polygon fill="white" stroke="black" points="221.5,-22.5 221.5,-101.5 314.5,-101.5 314.5,-22.5 221.5,-22.5"/>
<text text-anchor="middle" x="268" y="-89.5" font-family="Helvetica,sans-Serif" font-size="10.00">GroundWater</text>
<polyline fill="none" stroke="black" points="221.5,-82.5 314.5,-82.5 "/>
<text text-anchor="middle" x="268" y="-70.5" font-family="Helvetica,sans-Serif" font-size="10.00"> </text>
<polyline fill="none" stroke="black" points="221.5,-63.5 314.5,-63.5 "/>
<text text-anchor="start" x="229.5" y="-51.5" font-family="Helvetica,sans-Serif" font-size="10.00">+ ~GroundWater()</text>
<text text-anchor="start" x="229.5" y="-40.5" font-family="Helvetica,sans-Serif" font-size="10.00">+ GroundWater()</text>
<text text-anchor="start" x="229.5" y="-29.5" font-family="Helvetica,sans-Serif" font-size="10.00">+ Tick()</text>
</a>
</g>
</g>
<!-- Node4&#45;&gt;Node7 -->
<g id="edge6" class="edge">
<title>Node4&#45;&gt;Node7</title>
<path fill="none" stroke="midnightblue" d="M268,-205.15C268,-173.81 268,-131.85 268,-101.65"/>
<polygon fill="none" stroke="midnightblue" points="264.5,-205.34 268,-215.34 271.5,-205.34 264.5,-205.34"/>
</g>
<!-- Node8 -->
<g id="node8" class="node">
<title>Node8</title>
<g id="a_node8"><a xlink:href="class_mineral.html" target="_top" xlink:title=" ">
<polygon fill="white" stroke="black" points="333,-22.5 333,-101.5 401,-101.5 401,-22.5 333,-22.5"/>
<text text-anchor="middle" x="367" y="-89.5" font-family="Helvetica,sans-Serif" font-size="10.00">Mineral</text>
<polyline fill="none" stroke="black" points="333,-82.5 401,-82.5 "/>
<text text-anchor="middle" x="367" y="-70.5" font-family="Helvetica,sans-Serif" font-size="10.00"> </text>
<polyline fill="none" stroke="black" points="333,-63.5 401,-63.5 "/>
<text text-anchor="start" x="341" y="-51.5" font-family="Helvetica,sans-Serif" font-size="10.00">+ ~Mineral()</text>
<text text-anchor="start" x="341" y="-40.5" font-family="Helvetica,sans-Serif" font-size="10.00">+ Mineral()</text>
<text text-anchor="start" x="341" y="-29.5" font-family="Helvetica,sans-Serif" font-size="10.00">+ Tick()</text>
</a>
</g>
</g>
<!-- Node4&#45;&gt;Node8 -->
<g id="edge7" class="edge">
<title>Node4&#45;&gt;Node8</title>
<path fill="none" stroke="midnightblue" d="M290.48,-206.37C307.28,-174.91 330.05,-132.24 346.37,-101.65"/>
<polygon fill="none" stroke="midnightblue" points="287.32,-204.87 285.7,-215.34 293.5,-208.16 287.32,-204.87"/>
</g>
<!-- Node10 -->
<g id="node10" class="node">
<title>Node10</title>
<g id="a_node10"><a xlink:href="class_player.html" target="_top" xlink:title=" ">
<polygon fill="white" stroke="black" points="419,-0.5 419,-123.5 493,-123.5 493,-0.5 419,-0.5"/>
<text text-anchor="middle" x="456" y="-111.5" font-family="Helvetica,sans-Serif" font-size="10.00">Player</text>
<polyline fill="none" stroke="black" points="419,-104.5 493,-104.5 "/>
<text text-anchor="middle" x="456" y="-92.5" font-family="Helvetica,sans-Serif" font-size="10.00"> </text>
<polyline fill="none" stroke="black" points="419,-85.5 493,-85.5 "/>
<text text-anchor="start" x="427" y="-73.5" font-family="Helvetica,sans-Serif" font-size="10.00">+ Player()</text>
<text text-anchor="start" x="427" y="-62.5" font-family="Helvetica,sans-Serif" font-size="10.00">+ Player()</text>
<text text-anchor="start" x="427" y="-51.5" font-family="Helvetica,sans-Serif" font-size="10.00">+ ~Player()</text>
<text text-anchor="start" x="427" y="-40.5" font-family="Helvetica,sans-Serif" font-size="10.00">+ Stop()</text>
<text text-anchor="start" x="427" y="-29.5" font-family="Helvetica,sans-Serif" font-size="10.00">+ SpeedSet()</text>
<text text-anchor="start" x="427" y="-18.5" font-family="Helvetica,sans-Serif" font-size="10.00">+ SpeedInc()</text>
<text text-anchor="start" x="427" y="-7.5" font-family="Helvetica,sans-Serif" font-size="10.00">+ Tick()</text>
</a>
</g>
</g>
<!-- Node9&#45;&gt;Node10 -->
<g id="edge9" class="edge">
<title>Node9&#45;&gt;Node10</title>
<path fill="none" stroke="midnightblue" d="M482.49,-150.74C479.7,-141.52 476.94,-132.36 474.3,-123.63"/>
<polygon fill="none" stroke="midnightblue" points="479.15,-151.81 485.39,-160.37 485.85,-149.78 479.15,-151.81"/>
</g>
<!-- Node11 -->
<g id="node11" class="node">
<title>Node11</title>
<g id="a_node11"><a xlink:href="class_unit.html" target="_top" xlink:title=" ">
<polygon fill="white" stroke="black" points="511.5,-6 511.5,-118 626.5,-118 626.5,-6 511.5,-6"/>
<text text-anchor="middle" x="569" y="-106" font-family="Helvetica,sans-Serif" font-size="10.00">Unit</text>
<polyline fill="none" stroke="black" points="511.5,-99 626.5,-99 "/>
<text text-anchor="middle" x="569" y="-87" font-family="Helvetica,sans-Serif" font-size="10.00"> </text>
<polyline fill="none" stroke="black" points="511.5,-80 626.5,-80 "/>
<text text-anchor="start" x="519.5" y="-68" font-family="Helvetica,sans-Serif" font-size="10.00">+ Unit()</text>
<text text-anchor="start" x="519.5" y="-57" font-family="Helvetica,sans-Serif" font-size="10.00">+ Tick()</text>
<text text-anchor="start" x="519.5" y="-46" font-family="Helvetica,sans-Serif" font-size="10.00">+ IncSpeedRandomly()</text>
<text text-anchor="start" x="519.5" y="-35" font-family="Helvetica,sans-Serif" font-size="10.00">+ GetRandomize()</text>
<text text-anchor="start" x="519.5" y="-24" font-family="Helvetica,sans-Serif" font-size="10.00">+ GetPower()</text>
<text text-anchor="start" x="519.5" y="-13" font-family="Helvetica,sans-Serif" font-size="10.00">+ GetLife()</text>
</a>
</g>
</g>
<!-- Node9&#45;&gt;Node11 -->
<g id="edge10" class="edge">
<title>Node9&#45;&gt;Node11</title>
<path fill="none" stroke="midnightblue" d="M542.09,-150.58C545.51,-139.44 548.9,-128.41 552.06,-118.13"/>
<polygon fill="none" stroke="midnightblue" points="538.67,-149.78 539.08,-160.37 545.36,-151.84 538.67,-149.78"/>
</g>
<!-- Node12 -->
<g id="node12" class="node">
<title>Node12</title>
<g id="a_node12"><a xlink:href="class_unit_group.html" target="_top" xlink:title=" ">
<polygon fill="white" stroke="black" points="644.5,-22.5 644.5,-101.5 719.5,-101.5 719.5,-22.5 644.5,-22.5"/>
<text text-anchor="middle" x="682" y="-89.5" font-family="Helvetica,sans-Serif" font-size="10.00">UnitGroup</text>
<polyline fill="none" stroke="black" points="644.5,-82.5 719.5,-82.5 "/>
<text text-anchor="middle" x="682" y="-70.5" font-family="Helvetica,sans-Serif" font-size="10.00"> </text>
<polyline fill="none" stroke="black" points="644.5,-63.5 719.5,-63.5 "/>
<text text-anchor="start" x="652.5" y="-51.5" font-family="Helvetica,sans-Serif" font-size="10.00">+ UnitGroup()</text>
<text text-anchor="start" x="652.5" y="-40.5" font-family="Helvetica,sans-Serif" font-size="10.00">+ Tick()</text>
<text text-anchor="start" x="652.5" y="-29.5" font-family="Helvetica,sans-Serif" font-size="10.00">+ Draw()</text>
</a>
</g>
</g>
<!-- Node9&#45;&gt;Node12 -->
<g id="edge11" class="edge">
<title>Node9&#45;&gt;Node12</title>
<path fill="none" stroke="midnightblue" d="M558.91,-204.4C582.79,-181.21 611.81,-151.87 636,-124 642.09,-116.99 648.28,-109.25 654.07,-101.71"/>
<polygon fill="none" stroke="midnightblue" points="556.43,-201.92 551.67,-211.39 561.29,-206.96 556.43,-201.92"/>
</g>
</g>
</svg>
