<?xml version="1.0" encoding="UTF-8" standalone="no"?>
<!DOCTYPE svg PUBLIC "-//W3C//DTD SVG 1.1//EN"
 "http://www.w3.org/Graphics/SVG/1.1/DTD/svg11.dtd">
<!-- Generated by graphviz version 2.47.1 (20210421.1823)
 -->
<!-- Title: Drawable Pages: 1 -->
<svg width="506pt" height="452pt"
 viewBox="0.00 0.00 505.50 452.00" xmlns="http://www.w3.org/2000/svg" xmlns:xlink="http://www.w3.org/1999/xlink">
<g id="graph0" class="graph" transform="scale(1 1) rotate(0) translate(4 448)">
<title>Drawable</title>
<polygon fill="white" stroke="transparent" points="-4,4 -4,-448 501.5,-448 501.5,4 -4,4"/>
<!-- Node1 -->
<g id="node1" class="node">
<title>Node1</title>
<g id="a_node1"><a xlink:title=" ">
<polygon fill="#bfbfbf" stroke="black" points="199.5,-331.5 199.5,-443.5 276.5,-443.5 276.5,-331.5 199.5,-331.5"/>
<text text-anchor="middle" x="238" y="-431.5" font-family="Helvetica,sans-Serif" font-size="10.00">Drawable</text>
<polyline fill="none" stroke="black" points="199.5,-424.5 276.5,-424.5 "/>
<text text-anchor="middle" x="238" y="-412.5" font-family="Helvetica,sans-Serif" font-size="10.00"> </text>
<polyline fill="none" stroke="black" points="199.5,-405.5 276.5,-405.5 "/>
<text text-anchor="start" x="207.5" y="-393.5" font-family="Helvetica,sans-Serif" font-size="10.00">+ Drawable()</text>
<text text-anchor="start" x="207.5" y="-382.5" font-family="Helvetica,sans-Serif" font-size="10.00">+ Drawable()</text>
<text text-anchor="start" x="207.5" y="-371.5" font-family="Helvetica,sans-Serif" font-size="10.00">+ Draw()</text>
<text text-anchor="start" x="207.5" y="-360.5" font-family="Helvetica,sans-Serif" font-size="10.00">+ ~Drawable()</text>
<text text-anchor="start" x="207.5" y="-349.5" font-family="Helvetica,sans-Serif" font-size="10.00">+ GetImg()</text>
<text text-anchor="start" x="207.5" y="-338.5" font-family="Helvetica,sans-Serif" font-size="10.00">+ SetImage()</text>
</a>
</g>
</g>
<!-- Node2 -->
<g id="node2" class="node">
<title>Node2</title>
<g id="a_node2"><a xlink:href="class_building.html" target="_top" xlink:title=" ">
<polygon fill="white" stroke="black" points="0,-155 0,-256 86,-256 86,-155 0,-155"/>
<text text-anchor="middle" x="43" y="-244" font-family="Helvetica,sans-Serif" font-size="10.00">Building</text>
<polyline fill="none" stroke="black" points="0,-237 86,-237 "/>
<text text-anchor="middle" x="43" y="-225" font-family="Helvetica,sans-Serif" font-size="10.00"> </text>
<polyline fill="none" stroke="black" points="0,-218 86,-218 "/>
<text text-anchor="start" x="8" y="-206" font-family="Helvetica,sans-Serif" font-size="10.00">+ GetLife()</text>
<text text-anchor="start" x="8" y="-195" font-family="Helvetica,sans-Serif" font-size="10.00">+ DealDamage()</text>
<text text-anchor="start" x="8" y="-184" font-family="Helvetica,sans-Serif" font-size="10.00">+ Repair()</text>
<text text-anchor="start" x="8" y="-173" font-family="Helvetica,sans-Serif" font-size="10.00">+ Building()</text>
<text text-anchor="start" x="8" y="-162" font-family="Helvetica,sans-Serif" font-size="10.00">+ Tick()</text>
</a>
</g>
</g>
<!-- Node1&#45;&gt;Node2 -->
<g id="edge1" class="edge">
<title>Node1&#45;&gt;Node2</title>
<path fill="none" stroke="midnightblue" d="M190.27,-363.4C160.36,-347.23 122.42,-323.48 95,-295 84.12,-283.7 74.58,-269.71 66.74,-256.22"/>
<polygon fill="none" stroke="midnightblue" points="188.8,-366.58 199.27,-368.16 192.08,-360.39 188.8,-366.58"/>
</g>
<!-- Node3 -->
<g id="node3" class="node">
<title>Node3</title>
<g id="a_node3"><a xlink:href="class_cell.html" target="_top" xlink:title=" ">
<polygon fill="white" stroke="black" points="104.5,-116.5 104.5,-294.5 185.5,-294.5 185.5,-116.5 104.5,-116.5"/>
<text text-anchor="middle" x="145" y="-282.5" font-family="Helvetica,sans-Serif" font-size="10.00">Cell</text>
<polyline fill="none" stroke="black" points="104.5,-275.5 185.5,-275.5 "/>
<text text-anchor="middle" x="145" y="-263.5" font-family="Helvetica,sans-Serif" font-size="10.00"> </text>
<polyline fill="none" stroke="black" points="104.5,-256.5 185.5,-256.5 "/>
<text text-anchor="start" x="112.5" y="-244.5" font-family="Helvetica,sans-Serif" font-size="10.00">+ Cell()</text>
<text text-anchor="start" x="112.5" y="-233.5" font-family="Helvetica,sans-Serif" font-size="10.00">+ Cell()</text>
<text text-anchor="start" x="112.5" y="-222.5" font-family="Helvetica,sans-Serif" font-size="10.00">+ operator=()</text>
<text text-anchor="start" x="112.5" y="-211.5" font-family="Helvetica,sans-Serif" font-size="10.00">+ ~Cell()</text>
<text text-anchor="start" x="112.5" y="-200.5" font-family="Helvetica,sans-Serif" font-size="10.00">+ Add()</text>
<text text-anchor="start" x="112.5" y="-189.5" font-family="Helvetica,sans-Serif" font-size="10.00">+ SetBuilding()</text>
<text text-anchor="start" x="112.5" y="-178.5" font-family="Helvetica,sans-Serif" font-size="10.00">+ GetSpeed()</text>
<text text-anchor="start" x="112.5" y="-167.5" font-family="Helvetica,sans-Serif" font-size="10.00">+ GetSize()</text>
<text text-anchor="start" x="112.5" y="-156.5" font-family="Helvetica,sans-Serif" font-size="10.00">+ GetBuilding()</text>
<text text-anchor="start" x="112.5" y="-145.5" font-family="Helvetica,sans-Serif" font-size="10.00">+ Draw()</text>
<text text-anchor="start" x="112.5" y="-134.5" font-family="Helvetica,sans-Serif" font-size="10.00">+ Tick()</text>
<text text-anchor="start" x="112.5" y="-123.5" font-family="Helvetica,sans-Serif" font-size="10.00">+ isEarth()</text>
</a>
</g>
</g>
<!-- Node1&#45;&gt;Node3 -->
<g id="edge2" class="edge">
<title>Node1&#45;&gt;Node3</title>
<path fill="none" stroke="midnightblue" d="M204.67,-321.99C198.47,-309.98 191.92,-297.32 185.53,-284.95"/>
<polygon fill="none" stroke="midnightblue" points="201.64,-323.75 209.34,-331.03 207.86,-320.53 201.64,-323.75"/>
</g>
<!-- Node4 -->
<g id="node4" class="node">
<title>Node4</title>
<g id="a_node4"><a xlink:href="class_ground.html" target="_top" xlink:title=" ">
<polygon fill="white" stroke="black" points="204,-171.5 204,-239.5 272,-239.5 272,-171.5 204,-171.5"/>
<text text-anchor="middle" x="238" y="-227.5" font-family="Helvetica,sans-Serif" font-size="10.00">Ground</text>
<polyline fill="none" stroke="black" points="204,-220.5 272,-220.5 "/>
<text text-anchor="middle" x="238" y="-208.5" font-family="Helvetica,sans-Serif" font-size="10.00"> </text>
<polyline fill="none" stroke="black" points="204,-201.5 272,-201.5 "/>
<text text-anchor="start" x="212" y="-189.5" font-family="Helvetica,sans-Serif" font-size="10.00">+ ~Ground()</text>
<text text-anchor="start" x="212" y="-178.5" font-family="Helvetica,sans-Serif" font-size="10.00">+ Ground()</text>
</a>
</g>
</g>
<!-- Node1&#45;&gt;Node4 -->
<g id="edge3" class="edge">
<title>Node1&#45;&gt;Node4</title>
<path fill="none" stroke="midnightblue" d="M238,-321C238,-293.32 238,-262.3 238,-239.54"/>
<polygon fill="none" stroke="midnightblue" points="234.5,-321.03 238,-331.03 241.5,-321.03 234.5,-321.03"/>
</g>
<!-- Node9 -->
<g id="node9" class="node">
<title>Node9</title>
<g id="a_node9"><a xlink:href="class_player.html" target="_top" xlink:title=" ">
<polygon fill="white" stroke="black" points="290,-144 290,-267 364,-267 364,-144 290,-144"/>
<text text-anchor="middle" x="327" y="-255" font-family="Helvetica,sans-Serif" font-size="10.00">Player</text>
<polyline fill="none" stroke="black" points="290,-248 364,-248 "/>
<text text-anchor="middle" x="327" y="-236" font-family="Helvetica,sans-Serif" font-size="10.00"> </text>
<polyline fill="none" stroke="black" points="290,-229 364,-229 "/>
<text text-anchor="start" x="298" y="-217" font-family="Helvetica,sans-Serif" font-size="10.00">+ Player()</text>
<text text-anchor="start" x="298" y="-206" font-family="Helvetica,sans-Serif" font-size="10.00">+ Player()</text>
<text text-anchor="start" x="298" y="-195" font-family="Helvetica,sans-Serif" font-size="10.00">+ ~Player()</text>
<text text-anchor="start" x="298" y="-184" font-family="Helvetica,sans-Serif" font-size="10.00">+ Stop()</text>
<text text-anchor="start" x="298" y="-173" font-family="Helvetica,sans-Serif" font-size="10.00">+ SpeedSet()</text>
<text text-anchor="start" x="298" y="-162" font-family="Helvetica,sans-Serif" font-size="10.00">+ SpeedInc()</text>
<text text-anchor="start" x="298" y="-151" font-family="Helvetica,sans-Serif" font-size="10.00">+ Tick()</text>
</a>
</g>
</g>
<!-- Node1&#45;&gt;Node9 -->
<g id="edge8" class="edge">
<title>Node1&#45;&gt;Node9</title>
<path fill="none" stroke="midnightblue" d="M269.97,-321.84C278.79,-304 288.33,-284.72 297.03,-267.11"/>
<polygon fill="none" stroke="midnightblue" points="266.72,-320.51 265.43,-331.03 273,-323.61 266.72,-320.51"/>
</g>
<!-- Node10 -->
<g id="node10" class="node">
<title>Node10</title>
<g id="a_node10"><a xlink:href="class_unit.html" target="_top" xlink:title=" ">
<polygon fill="white" stroke="black" points="382.5,-149.5 382.5,-261.5 497.5,-261.5 497.5,-149.5 382.5,-149.5"/>
<text text-anchor="middle" x="440" y="-249.5" font-family="Helvetica,sans-Serif" font-size="10.00">Unit</text>
<polyline fill="none" stroke="black" points="382.5,-242.5 497.5,-242.5 "/>
<text text-anchor="middle" x="440" y="-230.5" font-family="Helvetica,sans-Serif" font-size="10.00"> </text>
<polyline fill="none" stroke="black" points="382.5,-223.5 497.5,-223.5 "/>
<text text-anchor="start" x="390.5" y="-211.5" font-family="Helvetica,sans-Serif" font-size="10.00">+ Unit()</text>
<text text-anchor="start" x="390.5" y="-200.5" font-family="Helvetica,sans-Serif" font-size="10.00">+ Tick()</text>
<text text-anchor="start" x="390.5" y="-189.5" font-family="Helvetica,sans-Serif" font-size="10.00">+ IncSpeedRandomly()</text>
<text text-anchor="start" x="390.5" y="-178.5" font-family="Helvetica,sans-Serif" font-size="10.00">+ GetRandomize()</text>
<text text-anchor="start" x="390.5" y="-167.5" font-family="Helvetica,sans-Serif" font-size="10.00">+ GetPower()</text>
<text text-anchor="start" x="390.5" y="-156.5" font-family="Helvetica,sans-Serif" font-size="10.00">+ GetLife()</text>
</a>
</g>
</g>
<!-- Node1&#45;&gt;Node10 -->
<g id="edge9" class="edge">
<title>Node1&#45;&gt;Node10</title>
<path fill="none" stroke="midnightblue" d="M285.13,-359.86C312.42,-343.19 346.5,-320.15 373,-295 383.48,-285.05 393.58,-273.34 402.61,-261.74"/>
<polygon fill="none" stroke="midnightblue" points="283.28,-356.89 276.52,-365.05 286.89,-362.88 283.28,-356.89"/>
</g>
<!-- Node5 -->
<g id="node5" class="node">
<title>Node5</title>
<g id="a_node5"><a xlink:href="class_ground_earth.html" target="_top" xlink:title=" ">
<polygon fill="white" stroke="black" points="26,-0.5 26,-79.5 116,-79.5 116,-0.5 26,-0.5"/>
<text text-anchor="middle" x="71" y="-67.5" font-family="Helvetica,sans-Serif" font-size="10.00">GroundEarth</text>
<polyline fill="none" stroke="black" points="26,-60.5 116,-60.5 "/>
<text text-anchor="middle" x="71" y="-48.5" font-family="Helvetica,sans-Serif" font-size="10.00"> </text>
<polyline fill="none" stroke="black" points="26,-41.5 116,-41.5 "/>
<text text-anchor="start" x="34" y="-29.5" font-family="Helvetica,sans-Serif" font-size="10.00">+ ~GroundEarth()</text>
<text text-anchor="start" x="34" y="-18.5" font-family="Helvetica,sans-Serif" font-size="10.00">+ GroundEarth()</text>
<text text-anchor="start" x="34" y="-7.5" font-family="Helvetica,sans-Serif" font-size="10.00">+ Tick()</text>
</a>
</g>
</g>
<!-- Node4&#45;&gt;Node5 -->
<g id="edge4" class="edge">
<title>Node4&#45;&gt;Node5</title>
<path fill="none" stroke="midnightblue" d="M223.73,-161.54C216.91,-145.8 207.46,-128.75 195,-116 170.55,-90.98 154.82,-98.29 125,-80 122.04,-78.19 119.04,-76.26 116.03,-74.28"/>
<polygon fill="none" stroke="midnightblue" points="220.62,-163.18 227.64,-171.12 227.1,-160.54 220.62,-163.18"/>
</g>
<!-- Node6 -->
<g id="node6" class="node">
<title>Node6</title>
<g id="a_node6"><a xlink:href="class_ground_empty.html" target="_top" xlink:title=" ">
<polygon fill="white" stroke="black" points="134.5,-0.5 134.5,-79.5 229.5,-79.5 229.5,-0.5 134.5,-0.5"/>
<text text-anchor="middle" x="182" y="-67.5" font-family="Helvetica,sans-Serif" font-size="10.00">GroundEmpty</text>
<polyline fill="none" stroke="black" points="134.5,-60.5 229.5,-60.5 "/>
<text text-anchor="middle" x="182" y="-48.5" font-family="Helvetica,sans-Serif" font-size="10.00"> </text>
<polyline fill="none" stroke="black" points="134.5,-41.5 229.5,-41.5 "/>
<text text-anchor="start" x="142.5" y="-29.5" font-family="Helvetica,sans-Serif" font-size="10.00">+ ~GroundEmpty()</text>
<text text-anchor="start" x="142.5" y="-18.5" font-family="Helvetica,sans-Serif" font-size="10.00">+ GroundEmpty()</text>
<text text-anchor="start" x="142.5" y="-7.5" font-family="Helvetica,sans-Serif" font-size="10.00">+ Tick()</text>
</a>
</g>
</g>
<!-- Node4&#45;&gt;Node6 -->
<g id="edge5" class="edge">
<title>Node4&#45;&gt;Node6</title>
<path fill="none" stroke="midnightblue" d="M223.34,-161.69C214.65,-136.32 203.72,-104.42 195.28,-79.79"/>
<polygon fill="none" stroke="midnightblue" points="220.12,-163.09 226.67,-171.41 226.74,-160.82 220.12,-163.09"/>
</g>
<!-- Node7 -->
<g id="node7" class="node">
<title>Node7</title>
<g id="a_node7"><a xlink:href="class_ground_water.html" target="_top" xlink:title=" ">
<polygon fill="white" stroke="black" points="247.5,-0.5 247.5,-79.5 340.5,-79.5 340.5,-0.5 247.5,-0.5"/>
<text text-anchor="middle" x="294" y="-67.5" font-family="Helvetica,sans-Serif" font-size="10.00">GroundWater</text>
<polyline fill="none" stroke="black" points="247.5,-60.5 340.5,-60.5 "/>
<text text-anchor="middle" x="294" y="-48.5" font-family="Helvetica,sans-Serif" font-size="10.00"> </text>
<polyline fill="none" stroke="black" points="247.5,-41.5 340.5,-41.5 "/>
<text text-anchor="start" x="255.5" y="-29.5" font-family="Helvetica,sans-Serif" font-size="10.00">+ ~GroundWater()</text>
<text text-anchor="start" x="255.5" y="-18.5" font-family="Helvetica,sans-Serif" font-size="10.00">+ GroundWater()</text>
<text text-anchor="start" x="255.5" y="-7.5" font-family="Helvetica,sans-Serif" font-size="10.00">+ Tick()</text>
</a>
</g>
</g>
<!-- Node4&#45;&gt;Node7 -->
<g id="edge6" class="edge">
<title>Node4&#45;&gt;Node7</title>
<path fill="none" stroke="midnightblue" d="M252.66,-161.69C261.35,-136.32 272.28,-104.42 280.72,-79.79"/>
<polygon fill="none" stroke="midnightblue" points="249.26,-160.82 249.33,-171.41 255.88,-163.09 249.26,-160.82"/>
</g>
<!-- Node8 -->
<g id="node8" class="node">
<title>Node8</title>
<g id="a_node8"><a xlink:href="class_mineral.html" target="_top" xlink:title=" ">
<polygon fill="white" stroke="black" points="359,-0.5 359,-79.5 427,-79.5 427,-0.5 359,-0.5"/>
<text text-anchor="middle" x="393" y="-67.5" font-family="Helvetica,sans-Serif" font-size="10.00">Mineral</text>
<polyline fill="none" stroke="black" points="359,-60.5 427,-60.5 "/>
<text text-anchor="middle" x="393" y="-48.5" font-family="Helvetica,sans-Serif" font-size="10.00"> </text>
<polyline fill="none" stroke="black" points="359,-41.5 427,-41.5 "/>
<text text-anchor="start" x="367" y="-29.5" font-family="Helvetica,sans-Serif" font-size="10.00">+ ~Mineral()</text>
<text text-anchor="start" x="367" y="-18.5" font-family="Helvetica,sans-Serif" font-size="10.00">+ Mineral()</text>
<text text-anchor="start" x="367" y="-7.5" font-family="Helvetica,sans-Serif" font-size="10.00">+ Tick()</text>
</a>
</g>
</g>
<!-- Node4&#45;&gt;Node8 -->
<g id="edge7" class="edge">
<title>Node4&#45;&gt;Node8</title>
<path fill="none" stroke="midnightblue" d="M252.31,-161.58C259.14,-145.85 268.58,-128.78 281,-116 305.11,-91.19 321.62,-99.78 350,-80 352.98,-77.93 355.97,-75.66 358.91,-73.31"/>
<polygon fill="none" stroke="midnightblue" points="248.94,-160.57 248.4,-171.15 255.42,-163.22 248.94,-160.57"/>
</g>
</g>
</svg>
