<?xml version="1.0" encoding="UTF-8" standalone="no"?>
<!DOCTYPE svg PUBLIC "-//W3C//DTD SVG 1.1//EN"
 "http://www.w3.org/Graphics/SVG/1.1/DTD/svg11.dtd">
<!-- Generated by graphviz version 2.47.1 (20210421.1823)
 -->
<!-- Title: Graphics::Image::Draw Pages: 1 -->
<svg width="573pt" height="107pt"
 viewBox="0.00 0.00 573.00 107.00" xmlns="http://www.w3.org/2000/svg" xmlns:xlink="http://www.w3.org/1999/xlink">
<g id="graph0" class="graph" transform="scale(1 1) rotate(0) translate(4 103)">
<title>Graphics::Image::Draw</title>
<polygon fill="white" stroke="transparent" points="-4,4 -4,-103 569,-103 569,4 -4,4"/>
<!-- Node1 -->
<g id="node1" class="node">
<title>Node1</title>
<g id="a_node1"><a xlink:title=" ">
<polygon fill="#bfbfbf" stroke="black" points="0,-22.5 0,-41.5 114,-41.5 114,-22.5 0,-22.5"/>
<text text-anchor="middle" x="57" y="-29.5" font-family="Helvetica,sans-Serif" font-size="10.00">Graphics::Image::Draw</text>
</a>
</g>
</g>
<!-- Node2 -->
<g id="node2" class="node">
<title>Node2</title>
<g id="a_node2"><a xlink:href="class_graphics_1_1_image.html#af48c0e309532eb1ff36e8fdaee244da1" target="_top" xlink:title=" ">
<polygon fill="white" stroke="black" points="150,-22.5 150,-41.5 264,-41.5 264,-22.5 150,-22.5"/>
<text text-anchor="middle" x="207" y="-29.5" font-family="Helvetica,sans-Serif" font-size="10.00">Graphics::Image::Draw</text>
</a>
</g>
</g>
<!-- Node1&#45;&gt;Node2 -->
<g id="edge1" class="edge">
<title>Node1&#45;&gt;Node2</title>
<path fill="none" stroke="midnightblue" d="M114.37,-32C122.62,-32 131.18,-32 139.6,-32"/>
<polygon fill="midnightblue" stroke="midnightblue" points="139.78,-35.5 149.78,-32 139.78,-28.5 139.78,-35.5"/>
</g>
<!-- Node3 -->
<g id="node3" class="node">
<title>Node3</title>
<g id="a_node3"><a xlink:href="class_graphics_1_1_quadrangle.html#a7a061a60b5bff19feb5fd317d06495f0" target="_top" xlink:title=" ">
<polygon fill="white" stroke="black" points="300,-39 300,-69 410,-69 410,-39 300,-39"/>
<text text-anchor="start" x="308" y="-57" font-family="Helvetica,sans-Serif" font-size="10.00">Graphics::Quadrangle</text>
<text text-anchor="middle" x="355" y="-46" font-family="Helvetica,sans-Serif" font-size="10.00">::Draw</text>
</a>
</g>
</g>
<!-- Node2&#45;&gt;Node3 -->
<g id="edge2" class="edge">
<title>Node2&#45;&gt;Node3</title>
<path fill="none" stroke="midnightblue" d="M264.03,-40.44C272.47,-41.71 281.23,-43.03 289.82,-44.33"/>
<polygon fill="midnightblue" stroke="midnightblue" points="289.39,-47.8 299.8,-45.83 290.44,-40.88 289.39,-47.8"/>
</g>
<!-- Node6 -->
<g id="node6" class="node">
<title>Node6</title>
<g id="a_node6"><a xlink:href="class_graphics_1_1_shader.html#aa5da414808337285b38565f60c3d7cbd" target="_top" xlink:title=" ">
<polygon fill="white" stroke="black" points="300,-0.5 300,-19.5 410,-19.5 410,-0.5 300,-0.5"/>
<text text-anchor="middle" x="355" y="-7.5" font-family="Helvetica,sans-Serif" font-size="10.00">Graphics::Shader::Set</text>
</a>
</g>
</g>
<!-- Node2&#45;&gt;Node6 -->
<g id="edge5" class="edge">
<title>Node2&#45;&gt;Node6</title>
<path fill="none" stroke="midnightblue" d="M264.03,-23.56C272.47,-22.29 281.23,-20.97 289.82,-19.67"/>
<polygon fill="midnightblue" stroke="midnightblue" points="290.44,-23.12 299.8,-18.17 289.39,-16.2 290.44,-23.12"/>
</g>
<!-- Node4 -->
<g id="node4" class="node">
<title>Node4</title>
<g id="a_node4"><a xlink:href="class_graphics_1_1_shader.html#a63bfd523754bb6b2224aa7a48c65a504" target="_top" xlink:title=" ">
<polygon fill="white" stroke="black" points="446,-79.5 446,-98.5 565,-98.5 565,-79.5 446,-79.5"/>
<text text-anchor="middle" x="505.5" y="-86.5" font-family="Helvetica,sans-Serif" font-size="10.00">Graphics::Shader::GetId</text>
</a>
</g>
</g>
<!-- Node3&#45;&gt;Node4 -->
<g id="edge3" class="edge">
<title>Node3&#45;&gt;Node4</title>
<path fill="none" stroke="midnightblue" d="M410.03,-66.73C424.31,-70.1 439.67,-73.72 453.77,-77.04"/>
<polygon fill="midnightblue" stroke="midnightblue" points="453.25,-80.52 463.78,-79.4 454.85,-73.7 453.25,-80.52"/>
</g>
<!-- Node5 -->
<g id="node5" class="node">
<title>Node5</title>
<g id="a_node5"><a xlink:href="class_graphics_1_1_shader.html#a11a2de17d1d077ec34acd4f7cd57f6b1" target="_top" xlink:title=" ">
<polygon fill="white" stroke="black" points="449,-41.5 449,-60.5 562,-60.5 562,-41.5 449,-41.5"/>
<text text-anchor="middle" x="505.5" y="-48.5" font-family="Helvetica,sans-Serif" font-size="10.00">Graphics::Shader::Use</text>
</a>
</g>
</g>
<!-- Node3&#45;&gt;Node5 -->
<g id="edge4" class="edge">
<title>Node3&#45;&gt;Node5</title>
<path fill="none" stroke="midnightblue" d="M410.03,-52.91C419.29,-52.72 429,-52.53 438.53,-52.33"/>
<polygon fill="midnightblue" stroke="midnightblue" points="438.83,-55.83 448.76,-52.13 438.69,-48.83 438.83,-55.83"/>
</g>
<!-- Node7 -->
<g id="node7" class="node">
<title>Node7</title>
<g id="a_node7"><a xlink:href="class_graphics_1_1_image.html#aab55feadb4b66e0fd78b5f54a6fadde2" target="_top" xlink:title=" ">
<polygon fill="white" stroke="black" points="447.5,-0.5 447.5,-19.5 563.5,-19.5 563.5,-0.5 447.5,-0.5"/>
<text text-anchor="middle" x="505.5" y="-7.5" font-family="Helvetica,sans-Serif" font-size="10.00">Graphics::Image::GetId</text>
</a>
</g>
</g>
<!-- Node6&#45;&gt;Node7 -->
<g id="edge6" class="edge">
<title>Node6&#45;&gt;Node7</title>
<path fill="none" stroke="midnightblue" d="M410.03,-10C418.83,-10 428.04,-10 437.11,-10"/>
<polygon fill="midnightblue" stroke="midnightblue" points="437.26,-13.5 447.26,-10 437.26,-6.5 437.26,-13.5"/>
</g>
</g>
</svg>
