<?xml version="1.0" encoding="UTF-8" standalone="no"?>
<!DOCTYPE svg PUBLIC "-//W3C//DTD SVG 1.1//EN"
 "http://www.w3.org/Graphics/SVG/1.1/DTD/svg11.dtd">
<!-- Generated by graphviz version 2.47.0 (20210407.0042)
 -->
<!-- Title: WorldActor Pages: 1 -->
<svg width="271pt" height="435pt"
 viewBox="0.00 0.00 271.00 435.00" xmlns="http://www.w3.org/2000/svg" xmlns:xlink="http://www.w3.org/1999/xlink">
<g id="graph0" class="graph" transform="scale(1 1) rotate(0) translate(4 431)">
<title>WorldActor</title>
<polygon fill="white" stroke="transparent" points="-4,4 -4,-431 267,-431 267,4 -4,4"/>
<!-- Node1 -->
<g id="node1" class="node">
<title>Node1</title>
<g id="a_node1"><a xlink:title=" ">
<polygon fill="#bfbfbf" stroke="black" points="78,-0.5 78,-145.5 157,-145.5 157,-0.5 78,-0.5"/>
<text text-anchor="middle" x="117.5" y="-133.5" font-family="Helvetica,sans-Serif" font-size="10.00">WorldActor</text>
<polyline fill="none" stroke="black" points="78,-126.5 157,-126.5 "/>
<text text-anchor="start" x="86" y="-114.5" font-family="Helvetica,sans-Serif" font-size="10.00"># fly_</text>
<text text-anchor="start" x="86" y="-103.5" font-family="Helvetica,sans-Serif" font-size="10.00"># rooted_</text>
<polyline fill="none" stroke="black" points="78,-96.5 157,-96.5 "/>
<text text-anchor="start" x="86" y="-84.5" font-family="Helvetica,sans-Serif" font-size="10.00">+ WorldActor()</text>
<text text-anchor="start" x="86" y="-73.5" font-family="Helvetica,sans-Serif" font-size="10.00">+ Move()</text>
<text text-anchor="start" x="86" y="-62.5" font-family="Helvetica,sans-Serif" font-size="10.00">+ Tick()</text>
<text text-anchor="start" x="86" y="-51.5" font-family="Helvetica,sans-Serif" font-size="10.00">+ IncSpeed()</text>
<text text-anchor="start" x="86" y="-40.5" font-family="Helvetica,sans-Serif" font-size="10.00">+ SetSpeed()</text>
<text text-anchor="start" x="86" y="-29.5" font-family="Helvetica,sans-Serif" font-size="10.00">+ GetX()</text>
<text text-anchor="start" x="86" y="-18.5" font-family="Helvetica,sans-Serif" font-size="10.00">+ GetY()</text>
<text text-anchor="start" x="86" y="-7.5" font-family="Helvetica,sans-Serif" font-size="10.00">+ Distance()</text>
</a>
</g>
</g>
<!-- Node2 -->
<g id="node2" class="node">
<title>Node2</title>
<g id="a_node2"><a xlink:href="class_tickable.html" target="_top" xlink:title=" ">
<polygon fill="white" stroke="black" points="0,-287 0,-344 53,-344 53,-287 0,-287"/>
<text text-anchor="middle" x="26.5" y="-332" font-family="Helvetica,sans-Serif" font-size="10.00">Tickable</text>
<polyline fill="none" stroke="black" points="0,-325 53,-325 "/>
<text text-anchor="middle" x="26.5" y="-313" font-family="Helvetica,sans-Serif" font-size="10.00"> </text>
<polyline fill="none" stroke="black" points="0,-306 53,-306 "/>
<text text-anchor="start" x="8" y="-294" font-family="Helvetica,sans-Serif" font-size="10.00">+ Tick()</text>
</a>
</g>
</g>
<!-- Node2&#45;&gt;Node1 -->
<g id="edge1" class="edge">
<title>Node2&#45;&gt;Node1</title>
<path fill="none" stroke="#8b1a1a" d="M37.89,-276.84C44.61,-255.34 53.54,-227.98 62.5,-204 69.62,-184.95 77.9,-164.58 85.85,-145.76"/>
<polygon fill="none" stroke="#8b1a1a" points="34.49,-275.98 34.88,-286.57 41.18,-278.06 34.49,-275.98"/>
</g>
<!-- Node3 -->
<g id="node3" class="node">
<title>Node3</title>
<g id="a_node3"><a xlink:href="struct_vector2_d.html" target="_top" xlink:title=" ">
<polygon fill="white" stroke="black" points="71.5,-204.5 71.5,-426.5 163.5,-426.5 163.5,-204.5 71.5,-204.5"/>
<text text-anchor="middle" x="117.5" y="-414.5" font-family="Helvetica,sans-Serif" font-size="10.00">Vector2D&lt; float &gt;</text>
<polyline fill="none" stroke="black" points="71.5,-407.5 163.5,-407.5 "/>
<text text-anchor="start" x="79.5" y="-395.5" font-family="Helvetica,sans-Serif" font-size="10.00">+ x</text>
<text text-anchor="start" x="79.5" y="-384.5" font-family="Helvetica,sans-Serif" font-size="10.00">+ y</text>
<polyline fill="none" stroke="black" points="71.5,-377.5 163.5,-377.5 "/>
<text text-anchor="start" x="79.5" y="-365.5" font-family="Helvetica,sans-Serif" font-size="10.00">+ Vector2D()</text>
<text text-anchor="start" x="79.5" y="-354.5" font-family="Helvetica,sans-Serif" font-size="10.00">+ Vector2D()</text>
<text text-anchor="start" x="79.5" y="-343.5" font-family="Helvetica,sans-Serif" font-size="10.00">+ Vector2D()</text>
<text text-anchor="start" x="79.5" y="-332.5" font-family="Helvetica,sans-Serif" font-size="10.00">+ Vector2D()</text>
<text text-anchor="start" x="79.5" y="-321.5" font-family="Helvetica,sans-Serif" font-size="10.00">+ Vector2D()</text>
<text text-anchor="start" x="79.5" y="-310.5" font-family="Helvetica,sans-Serif" font-size="10.00">+ Vector2D()</text>
<text text-anchor="start" x="79.5" y="-299.5" font-family="Helvetica,sans-Serif" font-size="10.00">+ operator=()</text>
<text text-anchor="start" x="79.5" y="-288.5" font-family="Helvetica,sans-Serif" font-size="10.00">+ operator&#45;()</text>
<text text-anchor="start" x="79.5" y="-277.5" font-family="Helvetica,sans-Serif" font-size="10.00">+ operator+=()</text>
<text text-anchor="start" x="79.5" y="-266.5" font-family="Helvetica,sans-Serif" font-size="10.00">+ operator&#45;=()</text>
<text text-anchor="start" x="79.5" y="-255.5" font-family="Helvetica,sans-Serif" font-size="10.00">+ operator*=()</text>
<text text-anchor="start" x="79.5" y="-244.5" font-family="Helvetica,sans-Serif" font-size="10.00">+ operator*()</text>
<text text-anchor="start" x="79.5" y="-233.5" font-family="Helvetica,sans-Serif" font-size="10.00">+ operator/=()</text>
<text text-anchor="start" x="79.5" y="-222.5" font-family="Helvetica,sans-Serif" font-size="10.00">+ operator/()</text>
<text text-anchor="start" x="79.5" y="-211.5" font-family="Helvetica,sans-Serif" font-size="10.00">+ dist()</text>
</a>
</g>
</g>
<!-- Node3&#45;&gt;Node1 -->
<g id="edge2" class="edge">
<title>Node3&#45;&gt;Node1</title>
<path fill="none" stroke="#404040" d="M117.5,-204.46C117.5,-188.9 117.5,-173.11 117.5,-158.15"/>
<polygon fill="none" stroke="#404040" points="117.5,-157.79 113.5,-151.79 117.5,-145.79 121.5,-151.79 117.5,-157.79"/>
<text text-anchor="middle" x="141" y="-178" font-family="Helvetica,sans-Serif" font-size="10.00"> #position_</text>
<text text-anchor="middle" x="141" y="-167" font-family="Helvetica,sans-Serif" font-size="10.00">#speed_</text>
</g>
<!-- Node4 -->
<g id="node4" class="node">
<title>Node4</title>
<g id="a_node4"><a xlink:href="class_field.html" target="_top" xlink:title=" ">
<polygon fill="white" stroke="black" points="182,-232 182,-399 263,-399 263,-232 182,-232"/>
<text text-anchor="middle" x="222.5" y="-387" font-family="Helvetica,sans-Serif" font-size="10.00">Field</text>
<polyline fill="none" stroke="black" points="182,-380 263,-380 "/>
<text text-anchor="middle" x="222.5" y="-368" font-family="Helvetica,sans-Serif" font-size="10.00"> </text>
<polyline fill="none" stroke="black" points="182,-361 263,-361 "/>
<text text-anchor="start" x="190" y="-349" font-family="Helvetica,sans-Serif" font-size="10.00">+ GetWidth()</text>
<text text-anchor="start" x="190" y="-338" font-family="Helvetica,sans-Serif" font-size="10.00">+ GetHeight()</text>
<text text-anchor="start" x="190" y="-327" font-family="Helvetica,sans-Serif" font-size="10.00">+ Field()</text>
<text text-anchor="start" x="190" y="-316" font-family="Helvetica,sans-Serif" font-size="10.00">+ Field()</text>
<text text-anchor="start" x="190" y="-305" font-family="Helvetica,sans-Serif" font-size="10.00">+ operator[]()</text>
<text text-anchor="start" x="190" y="-294" font-family="Helvetica,sans-Serif" font-size="10.00">+ operator[]()</text>
<text text-anchor="start" x="190" y="-283" font-family="Helvetica,sans-Serif" font-size="10.00">+ GetCell()</text>
<text text-anchor="start" x="190" y="-272" font-family="Helvetica,sans-Serif" font-size="10.00">+ GetBuilding()</text>
<text text-anchor="start" x="190" y="-261" font-family="Helvetica,sans-Serif" font-size="10.00">+ Draw()</text>
<text text-anchor="start" x="190" y="-250" font-family="Helvetica,sans-Serif" font-size="10.00">+ Tick()</text>
<text text-anchor="start" x="190" y="-239" font-family="Helvetica,sans-Serif" font-size="10.00">+ GetCellPos()</text>
</a>
</g>
</g>
<!-- Node4&#45;&gt;Node1 -->
<g id="edge3" class="edge">
<title>Node4&#45;&gt;Node1</title>
<path fill="none" stroke="#404040" d="M195.71,-231.86C187.7,-209.52 178.39,-185.57 168.5,-164 166.67,-160.01 164.73,-155.96 162.7,-151.9"/>
<polygon fill="none" stroke="#404040" points="162.67,-151.85 156.38,-148.33 157.2,-141.17 163.5,-144.68 162.67,-151.85"/>
<text text-anchor="middle" x="192" y="-172.5" font-family="Helvetica,sans-Serif" font-size="10.00"> #field_</text>
</g>
</g>
</svg>
