<?xml version="1.0" encoding="UTF-8" standalone="no"?>
<!DOCTYPE svg PUBLIC "-//W3C//DTD SVG 1.1//EN"
 "http://www.w3.org/Graphics/SVG/1.1/DTD/svg11.dtd">
<!-- Generated by graphviz version 2.47.1 (20210421.1823)
 -->
<!-- Title: Unit::Tick Pages: 1 -->
<svg width="478pt" height="275pt"
 viewBox="0.00 0.00 478.00 275.00" xmlns="http://www.w3.org/2000/svg" xmlns:xlink="http://www.w3.org/1999/xlink">
<g id="graph0" class="graph" transform="scale(1 1) rotate(0) translate(4 271)">
<title>Unit::Tick</title>
<polygon fill="white" stroke="transparent" points="-4,4 -4,-271 474,-271 474,4 -4,4"/>
<!-- Node1 -->
<g id="node1" class="node">
<title>Node1</title>
<g id="a_node1"><a xlink:title=" ">
<polygon fill="#bfbfbf" stroke="black" points="0,-133.5 0,-152.5 58,-152.5 58,-133.5 0,-133.5"/>
<text text-anchor="middle" x="29" y="-140.5" font-family="Helvetica,sans-Serif" font-size="10.00">Unit::Tick</text>
</a>
</g>
</g>
<!-- Node2 -->
<g id="node2" class="node">
<title>Node2</title>
<g id="a_node2"><a xlink:href="class_building.html#a0946ee74f4385c905c5cbffbde38e7dc" target="_top" xlink:title=" ">
<polygon fill="white" stroke="black" points="98.5,-247.5 98.5,-266.5 209.5,-266.5 209.5,-247.5 98.5,-247.5"/>
<text text-anchor="middle" x="154" y="-254.5" font-family="Helvetica,sans-Serif" font-size="10.00">Building::DealDamage</text>
</a>
</g>
</g>
<!-- Node1&#45;&gt;Node2 -->
<g id="edge1" class="edge">
<title>Node1&#45;&gt;Node2</title>
<path fill="none" stroke="midnightblue" d="M33.89,-152.64C42.1,-171.77 63.01,-214.69 94,-238 96.5,-239.88 99.19,-241.58 102,-243.11"/>
<polygon fill="midnightblue" stroke="midnightblue" points="100.74,-246.38 111.28,-247.47 103.71,-240.05 100.74,-246.38"/>
</g>
<!-- Node3 -->
<g id="node3" class="node">
<title>Node3</title>
<g id="a_node3"><a xlink:href="struct_vector2_d.html#a4243151f5398e352a38073c4e1dfd30b" target="_top" xlink:title=" ">
<polygon fill="white" stroke="black" points="98,-209.5 98,-228.5 210,-228.5 210,-209.5 98,-209.5"/>
<text text-anchor="middle" x="154" y="-216.5" font-family="Helvetica,sans-Serif" font-size="10.00">Vector2D&lt; float &gt;::dist</text>
</a>
</g>
</g>
<!-- Node1&#45;&gt;Node3 -->
<g id="edge2" class="edge">
<title>Node1&#45;&gt;Node3</title>
<path fill="none" stroke="midnightblue" d="M40.15,-152.87C52.21,-164.18 73.3,-182.75 94,-195 100.54,-198.87 107.83,-202.39 114.98,-205.48"/>
<polygon fill="midnightblue" stroke="midnightblue" points="114,-208.86 124.58,-209.4 116.64,-202.38 114,-208.86"/>
</g>
<!-- Node4 -->
<g id="node4" class="node">
<title>Node4</title>
<g id="a_node4"><a xlink:href="class_field.html#a8ce096331f51a8e41e54c0ce4e8ac43a" target="_top" xlink:title=" ">
<polygon fill="white" stroke="black" points="250,-123.5 250,-142.5 342,-142.5 342,-123.5 250,-123.5"/>
<text text-anchor="middle" x="296" y="-130.5" font-family="Helvetica,sans-Serif" font-size="10.00">Field::GetBuilding</text>
</a>
</g>
</g>
<!-- Node1&#45;&gt;Node4 -->
<g id="edge3" class="edge">
<title>Node1&#45;&gt;Node4</title>
<path fill="none" stroke="midnightblue" d="M55.77,-152.5C67.3,-156.26 81.15,-160.13 94,-162 146.78,-169.67 161.45,-171.12 214,-162 231.5,-158.96 250.23,-152.49 265.26,-146.42"/>
<polygon fill="midnightblue" stroke="midnightblue" points="266.68,-149.62 274.56,-142.54 263.98,-143.17 266.68,-149.62"/>
</g>
<!-- Node6 -->
<g id="node6" class="node">
<title>Node6</title>
<g id="a_node6"><a xlink:href="class_engine.html#a6d852b5acb8b7af1df790a662ca863fe" target="_top" xlink:title=" ">
<polygon fill="white" stroke="black" points="107.5,-133.5 107.5,-152.5 200.5,-152.5 200.5,-133.5 107.5,-133.5"/>
<text text-anchor="middle" x="154" y="-140.5" font-family="Helvetica,sans-Serif" font-size="10.00">Engine::GetPlayer</text>
</a>
</g>
</g>
<!-- Node1&#45;&gt;Node6 -->
<g id="edge5" class="edge">
<title>Node1&#45;&gt;Node6</title>
<path fill="none" stroke="midnightblue" d="M58.22,-143C69.75,-143 83.51,-143 96.93,-143"/>
<polygon fill="midnightblue" stroke="midnightblue" points="97.08,-146.5 107.08,-143 97.08,-139.5 97.08,-146.5"/>
</g>
<!-- Node7 -->
<g id="node7" class="node">
<title>Node7</title>
<g id="a_node7"><a xlink:href="class_world_actor.html#a9d26e2c5b22a06b35334611c6130c83a" target="_top" xlink:title=" ">
<polygon fill="white" stroke="black" points="94,-95.5 94,-114.5 214,-114.5 214,-95.5 94,-95.5"/>
<text text-anchor="middle" x="154" y="-102.5" font-family="Helvetica,sans-Serif" font-size="10.00">WorldActor::GetPosition</text>
</a>
</g>
</g>
<!-- Node1&#45;&gt;Node7 -->
<g id="edge6" class="edge">
<title>Node1&#45;&gt;Node7</title>
<path fill="none" stroke="midnightblue" d="M58.22,-134.28C74.11,-129.37 94.24,-123.15 111.86,-117.71"/>
<polygon fill="midnightblue" stroke="midnightblue" points="113.37,-120.91 121.89,-114.61 111.3,-114.22 113.37,-120.91"/>
</g>
<!-- Node8 -->
<g id="node8" class="node">
<title>Node8</title>
<g id="a_node8"><a xlink:href="class_timer.html#a9c2d5c4a3dd43e5cb6f3fd9fce8c0203" target="_top" xlink:title=" ">
<polygon fill="white" stroke="black" points="112.5,-57.5 112.5,-76.5 195.5,-76.5 195.5,-57.5 112.5,-57.5"/>
<text text-anchor="middle" x="154" y="-64.5" font-family="Helvetica,sans-Serif" font-size="10.00">Timer::GetTime</text>
</a>
</g>
</g>
<!-- Node1&#45;&gt;Node8 -->
<g id="edge7" class="edge">
<title>Node1&#45;&gt;Node8</title>
<path fill="none" stroke="midnightblue" d="M38.58,-133.16C50.04,-120.57 71.53,-98.85 94,-86 97.68,-83.9 101.62,-81.99 105.66,-80.27"/>
<polygon fill="midnightblue" stroke="midnightblue" points="107.11,-83.46 115.18,-76.59 104.59,-76.93 107.11,-83.46"/>
</g>
<!-- Node9 -->
<g id="node9" class="node">
<title>Node9</title>
<g id="a_node9"><a xlink:href="class_world_actor.html#a211b1d4fdcd4eaed756b3602b6dfb412" target="_top" xlink:title=" ">
<polygon fill="white" stroke="black" points="110,-19.5 110,-38.5 198,-38.5 198,-19.5 110,-19.5"/>
<text text-anchor="middle" x="154" y="-26.5" font-family="Helvetica,sans-Serif" font-size="10.00">WorldActor::Tick</text>
</a>
</g>
</g>
<!-- Node1&#45;&gt;Node9 -->
<g id="edge8" class="edge">
<title>Node1&#45;&gt;Node9</title>
<path fill="none" stroke="midnightblue" d="M33.89,-133.36C42.1,-114.23 63.01,-71.31 94,-48 96.5,-46.12 99.19,-44.42 102,-42.89"/>
<polygon fill="midnightblue" stroke="midnightblue" points="103.71,-45.95 111.28,-38.53 100.74,-39.62 103.71,-45.95"/>
</g>
<!-- Node5 -->
<g id="node5" class="node">
<title>Node5</title>
<g id="a_node5"><a xlink:href="class_field.html#a81822f0090fbb9f187fe4d3d15c7ab96" target="_top" xlink:title=" ">
<polygon fill="white" stroke="black" points="378,-123.5 378,-142.5 470,-142.5 470,-123.5 378,-123.5"/>
<text text-anchor="middle" x="424" y="-130.5" font-family="Helvetica,sans-Serif" font-size="10.00">Field::GetCellPos</text>
</a>
</g>
</g>
<!-- Node4&#45;&gt;Node5 -->
<g id="edge4" class="edge">
<title>Node4&#45;&gt;Node5</title>
<path fill="none" stroke="midnightblue" d="M342.13,-133C350.37,-133 359.04,-133 367.53,-133"/>
<polygon fill="midnightblue" stroke="midnightblue" points="367.76,-136.5 377.76,-133 367.76,-129.5 367.76,-136.5"/>
</g>
<!-- Node9&#45;&gt;Node4 -->
<g id="edge9" class="edge">
<title>Node9&#45;&gt;Node4</title>
<path fill="none" stroke="midnightblue" d="M194.01,-38.51C200.94,-41.04 207.89,-44.17 214,-48 242.47,-65.87 267.87,-95.98 282.34,-115.15"/>
<polygon fill="midnightblue" stroke="midnightblue" points="279.62,-117.36 288.36,-123.35 285.26,-113.22 279.62,-117.36"/>
</g>
<!-- Node10 -->
<g id="node10" class="node">
<title>Node10</title>
<g id="a_node10"><a xlink:href="class_field.html#a5a202354dc5e99cb7f51121904256845" target="_top" xlink:title=" ">
<polygon fill="white" stroke="black" points="259,-38.5 259,-57.5 333,-57.5 333,-38.5 259,-38.5"/>
<text text-anchor="middle" x="296" y="-45.5" font-family="Helvetica,sans-Serif" font-size="10.00">Field::GetCell</text>
</a>
</g>
</g>
<!-- Node9&#45;&gt;Node10 -->
<g id="edge10" class="edge">
<title>Node9&#45;&gt;Node10</title>
<path fill="none" stroke="midnightblue" d="M198.15,-34.86C214.1,-37.02 232.24,-39.48 248.47,-41.69"/>
<polygon fill="midnightblue" stroke="midnightblue" points="248.45,-45.21 258.83,-43.09 249.39,-38.28 248.45,-45.21"/>
</g>
<!-- Node11 -->
<g id="node11" class="node">
<title>Node11</title>
<g id="a_node11"><a xlink:href="class_cell.html#ac21e31812473f2d969ff434b35a81825" target="_top" xlink:title=" ">
<polygon fill="white" stroke="black" points="255.5,-0.5 255.5,-19.5 336.5,-19.5 336.5,-0.5 255.5,-0.5"/>
<text text-anchor="middle" x="296" y="-7.5" font-family="Helvetica,sans-Serif" font-size="10.00">Cell::GetSpeed</text>
</a>
</g>
</g>
<!-- Node9&#45;&gt;Node11 -->
<g id="edge11" class="edge">
<title>Node9&#45;&gt;Node11</title>
<path fill="none" stroke="midnightblue" d="M198.15,-23.14C212.9,-21.14 229.53,-18.89 244.79,-16.81"/>
<polygon fill="midnightblue" stroke="midnightblue" points="245.66,-20.23 255.1,-15.42 244.72,-13.29 245.66,-20.23"/>
</g>
</g>
</svg>
