<?xml version="1.0" encoding="UTF-8" standalone="no"?>
<!DOCTYPE svg PUBLIC "-//W3C//DTD SVG 1.1//EN"
 "http://www.w3.org/Graphics/SVG/1.1/DTD/svg11.dtd">
<!-- Generated by graphviz version 2.47.1 (20210421.1823)
 -->
<!-- Title: Graphics::Image::GetSize Pages: 1 -->
<svg width="293pt" height="66pt"
 viewBox="0.00 0.00 293.00 66.00" xmlns="http://www.w3.org/2000/svg" xmlns:xlink="http://www.w3.org/1999/xlink">
<g id="graph0" class="graph" transform="scale(1 1) rotate(0) translate(4 62)">
<title>Graphics::Image::GetSize</title>
<polygon fill="white" stroke="transparent" points="-4,4 -4,-62 289,-62 289,4 -4,4"/>
<!-- Node1 -->
<g id="node1" class="node">
<title>Node1</title>
<g id="a_node1"><a xlink:title=" ">
<polygon fill="#bfbfbf" stroke="black" points="159,-19.5 159,-38.5 285,-38.5 285,-19.5 159,-19.5"/>
<text text-anchor="middle" x="222" y="-26.5" font-family="Helvetica,sans-Serif" font-size="10.00">Graphics::Image::GetSize</text>
</a>
</g>
</g>
<!-- Node2 -->
<g id="node2" class="node">
<title>Node2</title>
<g id="a_node2"><a xlink:href="class_g_u_i_1_1_item.html#a2aed1e3debe2a6080c10d5b2d005f8c8" target="_top" xlink:title=" ">
<polygon fill="white" stroke="black" points="19,-38.5 19,-57.5 104,-57.5 104,-38.5 19,-38.5"/>
<text text-anchor="middle" x="61.5" y="-45.5" font-family="Helvetica,sans-Serif" font-size="10.00">GUI::Item::Click</text>
</a>
</g>
</g>
<!-- Node1&#45;&gt;Node2 -->
<g id="edge1" class="edge">
<title>Node1&#45;&gt;Node2</title>
<path fill="none" stroke="midnightblue" d="M148.8,-37.65C133.45,-39.49 117.74,-41.38 104.01,-43.02"/>
<polygon fill="midnightblue" stroke="midnightblue" points="149.3,-41.12 158.81,-36.45 148.47,-34.17 149.3,-41.12"/>
</g>
<!-- Node3 -->
<g id="node3" class="node">
<title>Node3</title>
<g id="a_node3"><a xlink:href="class_g_u_i_1_1_inventory.html#a8fe3124d38c7228c1553d555bca1b5a4" target="_top" xlink:title=" ">
<polygon fill="white" stroke="black" points="0,-0.5 0,-19.5 123,-19.5 123,-0.5 0,-0.5"/>
<text text-anchor="middle" x="61.5" y="-7.5" font-family="Helvetica,sans-Serif" font-size="10.00">GUI::Inventory::Inventory</text>
</a>
</g>
</g>
<!-- Node1&#45;&gt;Node3 -->
<g id="edge2" class="edge">
<title>Node1&#45;&gt;Node3</title>
<path fill="none" stroke="midnightblue" d="M148.83,-20.35C140.27,-19.32 131.59,-18.28 123.21,-17.28"/>
<polygon fill="midnightblue" stroke="midnightblue" points="148.47,-23.83 158.81,-21.55 149.3,-16.88 148.47,-23.83"/>
</g>
</g>
</svg>
