<?xml version="1.0" encoding="UTF-8" standalone="no"?>
<!DOCTYPE svg PUBLIC "-//W3C//DTD SVG 1.1//EN"
 "http://www.w3.org/Graphics/SVG/1.1/DTD/svg11.dtd">
<!-- Generated by graphviz version 2.47.0 (20210407.0042)
 -->
<!-- Title: Graphics::Quadrangle::Draw Pages: 1 -->
<svg width="798pt" height="116pt"
 viewBox="0.00 0.00 798.00 115.50" xmlns="http://www.w3.org/2000/svg" xmlns:xlink="http://www.w3.org/1999/xlink">
<g id="graph0" class="graph" transform="scale(1 1) rotate(0) translate(4 111.5)">
<title>Graphics::Quadrangle::Draw</title>
<polygon fill="white" stroke="transparent" points="-4,4 -4,-111.5 794,-111.5 794,4 -4,4"/>
<!-- Node1 -->
<g id="node1" class="node">
<title>Node1</title>
<g id="a_node1"><a xlink:title=" ">
<polygon fill="#bfbfbf" stroke="black" points="680,-22.5 680,-52.5 790,-52.5 790,-22.5 680,-22.5"/>
<text text-anchor="start" x="688" y="-40.5" font-family="Helvetica,sans-Serif" font-size="10.00">Graphics::Quadrangle</text>
<text text-anchor="middle" x="735" y="-29.5" font-family="Helvetica,sans-Serif" font-size="10.00">::Draw</text>
</a>
</g>
</g>
<!-- Node2 -->
<g id="node2" class="node">
<title>Node2</title>
<g id="a_node2"><a xlink:href="class_graphics_1_1_image.html#af48c0e309532eb1ff36e8fdaee244da1" target="_top" xlink:title=" ">
<polygon fill="white" stroke="black" points="530,-50 530,-69 644,-69 644,-50 530,-50"/>
<text text-anchor="middle" x="587" y="-57" font-family="Helvetica,sans-Serif" font-size="10.00">Graphics::Image::Draw</text>
</a>
</g>
</g>
<!-- Node1&#45;&gt;Node2 -->
<g id="edge1" class="edge">
<title>Node1&#45;&gt;Node2</title>
<path fill="none" stroke="midnightblue" d="M669.52,-47.22C661.13,-48.48 652.6,-49.77 644.36,-51.01"/>
<polygon fill="midnightblue" stroke="midnightblue" points="670.27,-50.64 679.63,-45.69 669.23,-43.72 670.27,-50.64"/>
</g>
<!-- Node10 -->
<g id="node10" class="node">
<title>Node10</title>
<g id="a_node10"><a xlink:href="class_graphics_1_1_quadrangle.html#aaa7571e889354bb4b4326d8b497d1055" target="_top" xlink:title=" ">
<polygon fill="white" stroke="black" points="532,-0.5 532,-30.5 642,-30.5 642,-0.5 532,-0.5"/>
<text text-anchor="start" x="540" y="-18.5" font-family="Helvetica,sans-Serif" font-size="10.00">Graphics::Quadrangle</text>
<text text-anchor="middle" x="587" y="-7.5" font-family="Helvetica,sans-Serif" font-size="10.00">::Draw</text>
</a>
</g>
</g>
<!-- Node1&#45;&gt;Node10 -->
<g id="edge10" class="edge">
<title>Node1&#45;&gt;Node10</title>
<path fill="none" stroke="midnightblue" d="M669.52,-27.78C660.47,-26.42 651.25,-25.03 642.41,-23.7"/>
<polygon fill="midnightblue" stroke="midnightblue" points="669.23,-31.28 679.63,-29.31 670.27,-24.36 669.23,-31.28"/>
</g>
<!-- Node3 -->
<g id="node3" class="node">
<title>Node3</title>
<g id="a_node3"><a xlink:href="class_g_u_i_1_1_item.html#ab089785456c77b4ff16f15dc7b6bd8fa" target="_top" xlink:title=" ">
<polygon fill="white" stroke="black" points="394,-88 394,-107 480,-107 480,-88 394,-88"/>
<text text-anchor="middle" x="437" y="-95" font-family="Helvetica,sans-Serif" font-size="10.00">GUI::Item::Draw</text>
</a>
</g>
</g>
<!-- Node2&#45;&gt;Node3 -->
<g id="edge2" class="edge">
<title>Node2&#45;&gt;Node3</title>
<path fill="none" stroke="midnightblue" d="M538.83,-71.61C518.21,-76.9 494.39,-83.02 475.08,-87.98"/>
<polygon fill="midnightblue" stroke="midnightblue" points="539.84,-74.97 548.65,-69.09 538.1,-68.19 539.84,-74.97"/>
</g>
<!-- Node4 -->
<g id="node4" class="node">
<title>Node4</title>
<g id="a_node4"><a xlink:href="class_drawable.html#ac46f25a963a3fe3e9176461d61d213c7" target="_top" xlink:title=" ">
<polygon fill="white" stroke="black" points="395,-50 395,-69 479,-69 479,-50 395,-50"/>
<text text-anchor="middle" x="437" y="-57" font-family="Helvetica,sans-Serif" font-size="10.00">Drawable::Draw</text>
</a>
</g>
</g>
<!-- Node2&#45;&gt;Node4 -->
<g id="edge3" class="edge">
<title>Node2&#45;&gt;Node4</title>
<path fill="none" stroke="midnightblue" d="M519.24,-59.5C505.54,-59.5 491.5,-59.5 479.03,-59.5"/>
<polygon fill="midnightblue" stroke="midnightblue" points="519.63,-63 529.63,-59.5 519.63,-56 519.63,-63"/>
</g>
<!-- Node9 -->
<g id="node9" class="node">
<title>Node9</title>
<g id="a_node9"><a xlink:href="class_graphics_1_1_image.html#a90e9a33ef5f89fa71e830d967122b9e3" target="_top" xlink:title=" ">
<polygon fill="white" stroke="black" points="380,-12 380,-31 494,-31 494,-12 380,-12"/>
<text text-anchor="middle" x="437" y="-19" font-family="Helvetica,sans-Serif" font-size="10.00">Graphics::Image::Draw</text>
</a>
</g>
</g>
<!-- Node2&#45;&gt;Node9 -->
<g id="edge9" class="edge">
<title>Node2&#45;&gt;Node9</title>
<path fill="none" stroke="midnightblue" d="M538.83,-47.39C518.21,-42.1 494.39,-35.98 475.08,-31.02"/>
<polygon fill="midnightblue" stroke="midnightblue" points="538.1,-50.81 548.65,-49.91 539.84,-44.03 538.1,-50.81"/>
</g>
<!-- Node5 -->
<g id="node5" class="node">
<title>Node5</title>
<g id="a_node5"><a xlink:href="class_engine.html#a39f23d7f0ad86322bfdb73d4e6763005" target="_top" xlink:title=" ">
<polygon fill="white" stroke="black" points="74,-50 74,-69 147,-69 147,-50 74,-50"/>
<text text-anchor="middle" x="110.5" y="-57" font-family="Helvetica,sans-Serif" font-size="10.00">Engine::Draw</text>
</a>
</g>
</g>
<!-- Node4&#45;&gt;Node5 -->
<g id="edge4" class="edge">
<title>Node4&#45;&gt;Node5</title>
<path fill="none" stroke="midnightblue" d="M384.69,-59.5C318.47,-59.5 204.91,-59.5 147.29,-59.5"/>
<polygon fill="midnightblue" stroke="midnightblue" points="384.9,-63 394.9,-59.5 384.9,-56 384.9,-63"/>
</g>
<!-- Node7 -->
<g id="node7" class="node">
<title>Node7</title>
<g id="a_node7"><a xlink:href="class_cell.html#ac88160c4177e146f8dd7482c4eaee4f0" target="_top" xlink:title=" ">
<polygon fill="white" stroke="black" points="284,-31 284,-50 344,-50 344,-31 284,-31"/>
<text text-anchor="middle" x="314" y="-38" font-family="Helvetica,sans-Serif" font-size="10.00">Cell::Draw</text>
</a>
</g>
</g>
<!-- Node4&#45;&gt;Node7 -->
<g id="edge6" class="edge">
<title>Node4&#45;&gt;Node7</title>
<path fill="none" stroke="midnightblue" d="M384.79,-51.46C370.96,-49.29 356.46,-47.01 344.29,-45.1"/>
<polygon fill="midnightblue" stroke="midnightblue" points="384.28,-54.92 394.7,-53.01 385.36,-48.01 384.28,-54.92"/>
</g>
<!-- Node6 -->
<g id="node6" class="node">
<title>Node6</title>
<g id="a_node6"><a xlink:href="main_8cpp.html#ae66f6b31b5ad750f1fe042a706a4e3d4" target="_top" xlink:title=" ">
<polygon fill="white" stroke="black" points="0,-50 0,-69 38,-69 38,-50 0,-50"/>
<text text-anchor="middle" x="19" y="-57" font-family="Helvetica,sans-Serif" font-size="10.00">main</text>
</a>
</g>
</g>
<!-- Node5&#45;&gt;Node6 -->
<g id="edge5" class="edge">
<title>Node5&#45;&gt;Node6</title>
<path fill="none" stroke="midnightblue" d="M63.66,-59.5C54.57,-59.5 45.53,-59.5 38.06,-59.5"/>
<polygon fill="midnightblue" stroke="midnightblue" points="63.87,-63 73.87,-59.5 63.87,-56 63.87,-63"/>
</g>
<!-- Node8 -->
<g id="node8" class="node">
<title>Node8</title>
<g id="a_node8"><a xlink:href="class_field.html#ad13d86066be42a2e10fcb9cbcc51fb0b" target="_top" xlink:title=" ">
<polygon fill="white" stroke="black" points="183,-31 183,-50 248,-50 248,-31 183,-31"/>
<text text-anchor="middle" x="215.5" y="-38" font-family="Helvetica,sans-Serif" font-size="10.00">Field::Draw</text>
</a>
</g>
</g>
<!-- Node7&#45;&gt;Node8 -->
<g id="edge7" class="edge">
<title>Node7&#45;&gt;Node8</title>
<path fill="none" stroke="midnightblue" d="M273.73,-40.5C265.27,-40.5 256.44,-40.5 248.31,-40.5"/>
<polygon fill="midnightblue" stroke="midnightblue" points="273.78,-44 283.78,-40.5 273.78,-37 273.78,-44"/>
</g>
<!-- Node8&#45;&gt;Node5 -->
<g id="edge8" class="edge">
<title>Node8&#45;&gt;Node5</title>
<path fill="none" stroke="midnightblue" d="M172.71,-48.21C164.28,-49.76 155.48,-51.39 147.27,-52.9"/>
<polygon fill="midnightblue" stroke="midnightblue" points="173.56,-51.61 182.76,-46.36 172.29,-44.73 173.56,-51.61"/>
</g>
</g>
</svg>
