<?xml version="1.0" encoding="UTF-8" standalone="no"?>
<!DOCTYPE svg PUBLIC "-//W3C//DTD SVG 1.1//EN"
 "http://www.w3.org/Graphics/SVG/1.1/DTD/svg11.dtd">
<!-- Generated by graphviz version 2.47.1 (20210421.1823)
 -->
<!-- Title: Graphics::Shader::GetId Pages: 1 -->
<svg width="1064pt" height="132pt"
 viewBox="0.00 0.00 1064.00 132.00" xmlns="http://www.w3.org/2000/svg" xmlns:xlink="http://www.w3.org/1999/xlink">
<g id="graph0" class="graph" transform="scale(1 1) rotate(0) translate(4 128)">
<title>Graphics::Shader::GetId</title>
<polygon fill="white" stroke="transparent" points="-4,4 -4,-128 1060,-128 1060,4 -4,4"/>
<!-- Node1 -->
<g id="node1" class="node">
<title>Node1</title>
<g id="a_node1"><a xlink:title=" ">
<polygon fill="#bfbfbf" stroke="black" points="937,-22.5 937,-41.5 1056,-41.5 1056,-22.5 937,-22.5"/>
<text text-anchor="middle" x="996.5" y="-29.5" font-family="Helvetica,sans-Serif" font-size="10.00">Graphics::Shader::GetId</text>
</a>
</g>
</g>
<!-- Node2 -->
<g id="node2" class="node">
<title>Node2</title>
<g id="a_node2"><a xlink:href="class_graphics_1_1_quadrangle.html#a7a061a60b5bff19feb5fd317d06495f0" target="_top" xlink:title=" ">
<polygon fill="white" stroke="black" points="787.5,-39 787.5,-69 897.5,-69 897.5,-39 787.5,-39"/>
<text text-anchor="start" x="795.5" y="-57" font-family="Helvetica,sans-Serif" font-size="10.00">Graphics::Quadrangle</text>
<text text-anchor="middle" x="842.5" y="-46" font-family="Helvetica,sans-Serif" font-size="10.00">::Draw</text>
</a>
</g>
</g>
<!-- Node1&#45;&gt;Node2 -->
<g id="edge1" class="edge">
<title>Node1&#45;&gt;Node2</title>
<path fill="none" stroke="midnightblue" d="M926.67,-41.96C916.93,-43.37 907.04,-44.8 897.63,-46.16"/>
<polygon fill="midnightblue" stroke="midnightblue" points="927.34,-45.4 936.73,-40.51 926.33,-38.47 927.34,-45.4"/>
</g>
<!-- Node13 -->
<g id="node13" class="node">
<title>Node13</title>
<g id="a_node13"><a xlink:href="class_graphics_1_1_window.html#a8e68f174f194ced10d08fc490cdae5e1" target="_top" xlink:title=" ">
<polygon fill="white" stroke="black" points="784,-0.5 784,-19.5 901,-19.5 901,-0.5 784,-0.5"/>
<text text-anchor="middle" x="842.5" y="-7.5" font-family="Helvetica,sans-Serif" font-size="10.00">Graphics::Window::Use</text>
</a>
</g>
</g>
<!-- Node1&#45;&gt;Node13 -->
<g id="edge13" class="edge">
<title>Node1&#45;&gt;Node13</title>
<path fill="none" stroke="midnightblue" d="M926.75,-22.05C918.18,-20.81 909.49,-19.55 901.11,-18.34"/>
<polygon fill="midnightblue" stroke="midnightblue" points="926.33,-25.53 936.73,-23.49 927.34,-18.6 926.33,-25.53"/>
</g>
<!-- Node3 -->
<g id="node3" class="node">
<title>Node3</title>
<g id="a_node3"><a xlink:href="class_graphics_1_1_image.html#af48c0e309532eb1ff36e8fdaee244da1" target="_top" xlink:title=" ">
<polygon fill="white" stroke="black" points="634,-66.5 634,-85.5 748,-85.5 748,-66.5 634,-66.5"/>
<text text-anchor="middle" x="691" y="-73.5" font-family="Helvetica,sans-Serif" font-size="10.00">Graphics::Image::Draw</text>
</a>
</g>
</g>
<!-- Node2&#45;&gt;Node3 -->
<g id="edge2" class="edge">
<title>Node2&#45;&gt;Node3</title>
<path fill="none" stroke="midnightblue" d="M777.15,-63.47C767.49,-64.89 757.59,-66.35 748.11,-67.74"/>
<polygon fill="midnightblue" stroke="midnightblue" points="777.72,-66.92 787.1,-62 776.7,-60 777.72,-66.92"/>
</g>
<!-- Node12 -->
<g id="node12" class="node">
<title>Node12</title>
<g id="a_node12"><a xlink:href="class_graphics_1_1_quadrangle.html#aaa7571e889354bb4b4326d8b497d1055" target="_top" xlink:title=" ">
<polygon fill="white" stroke="black" points="636,-17 636,-47 746,-47 746,-17 636,-17"/>
<text text-anchor="start" x="644" y="-35" font-family="Helvetica,sans-Serif" font-size="10.00">Graphics::Quadrangle</text>
<text text-anchor="middle" x="691" y="-24" font-family="Helvetica,sans-Serif" font-size="10.00">::Draw</text>
</a>
</g>
</g>
<!-- Node2&#45;&gt;Node12 -->
<g id="edge12" class="edge">
<title>Node2&#45;&gt;Node12</title>
<path fill="none" stroke="midnightblue" d="M776.94,-44.5C766.66,-42.99 756.11,-41.43 746.11,-39.96"/>
<polygon fill="midnightblue" stroke="midnightblue" points="776.7,-48 787.1,-46 777.72,-41.08 776.7,-48"/>
</g>
<!-- Node4 -->
<g id="node4" class="node">
<title>Node4</title>
<g id="a_node4"><a xlink:href="class_g_u_i_1_1_item.html#ab089785456c77b4ff16f15dc7b6bd8fa" target="_top" xlink:title=" ">
<polygon fill="white" stroke="black" points="498,-104.5 498,-123.5 584,-123.5 584,-104.5 498,-104.5"/>
<text text-anchor="middle" x="541" y="-111.5" font-family="Helvetica,sans-Serif" font-size="10.00">GUI::Item::Draw</text>
</a>
</g>
</g>
<!-- Node3&#45;&gt;Node4 -->
<g id="edge3" class="edge">
<title>Node3&#45;&gt;Node4</title>
<path fill="none" stroke="midnightblue" d="M642.83,-88.11C622.21,-93.4 598.39,-99.52 579.08,-104.48"/>
<polygon fill="midnightblue" stroke="midnightblue" points="643.84,-91.47 652.65,-85.59 642.1,-84.69 643.84,-91.47"/>
</g>
<!-- Node5 -->
<g id="node5" class="node">
<title>Node5</title>
<g id="a_node5"><a xlink:href="class_drawable.html#ac46f25a963a3fe3e9176461d61d213c7" target="_top" xlink:title=" ">
<polygon fill="white" stroke="black" points="499,-66.5 499,-85.5 583,-85.5 583,-66.5 499,-66.5"/>
<text text-anchor="middle" x="541" y="-73.5" font-family="Helvetica,sans-Serif" font-size="10.00">Drawable::Draw</text>
</a>
</g>
</g>
<!-- Node3&#45;&gt;Node5 -->
<g id="edge4" class="edge">
<title>Node3&#45;&gt;Node5</title>
<path fill="none" stroke="midnightblue" d="M623.24,-76C609.54,-76 595.5,-76 583.03,-76"/>
<polygon fill="midnightblue" stroke="midnightblue" points="623.63,-79.5 633.63,-76 623.63,-72.5 623.63,-79.5"/>
</g>
<!-- Node11 -->
<g id="node11" class="node">
<title>Node11</title>
<g id="a_node11"><a xlink:href="class_graphics_1_1_image.html#a90e9a33ef5f89fa71e830d967122b9e3" target="_top" xlink:title=" ">
<polygon fill="white" stroke="black" points="484,-28.5 484,-47.5 598,-47.5 598,-28.5 484,-28.5"/>
<text text-anchor="middle" x="541" y="-35.5" font-family="Helvetica,sans-Serif" font-size="10.00">Graphics::Image::Draw</text>
</a>
</g>
</g>
<!-- Node3&#45;&gt;Node11 -->
<g id="edge11" class="edge">
<title>Node3&#45;&gt;Node11</title>
<path fill="none" stroke="midnightblue" d="M642.83,-63.89C622.21,-58.6 598.39,-52.48 579.08,-47.52"/>
<polygon fill="midnightblue" stroke="midnightblue" points="642.1,-67.31 652.65,-66.41 643.84,-60.53 642.1,-67.31"/>
</g>
<!-- Node6 -->
<g id="node6" class="node">
<title>Node6</title>
<g id="a_node6"><a xlink:href="class_engine.html#a39f23d7f0ad86322bfdb73d4e6763005" target="_top" xlink:title=" ">
<polygon fill="white" stroke="black" points="178,-66.5 178,-85.5 251,-85.5 251,-66.5 178,-66.5"/>
<text text-anchor="middle" x="214.5" y="-73.5" font-family="Helvetica,sans-Serif" font-size="10.00">Engine::Draw</text>
</a>
</g>
</g>
<!-- Node5&#45;&gt;Node6 -->
<g id="edge5" class="edge">
<title>Node5&#45;&gt;Node6</title>
<path fill="none" stroke="midnightblue" d="M488.69,-76C422.47,-76 308.91,-76 251.29,-76"/>
<polygon fill="midnightblue" stroke="midnightblue" points="488.9,-79.5 498.9,-76 488.9,-72.5 488.9,-79.5"/>
</g>
<!-- Node9 -->
<g id="node9" class="node">
<title>Node9</title>
<g id="a_node9"><a xlink:href="class_cell.html#ac88160c4177e146f8dd7482c4eaee4f0" target="_top" xlink:title=" ">
<polygon fill="white" stroke="black" points="388,-47.5 388,-66.5 448,-66.5 448,-47.5 388,-47.5"/>
<text text-anchor="middle" x="418" y="-54.5" font-family="Helvetica,sans-Serif" font-size="10.00">Cell::Draw</text>
</a>
</g>
</g>
<!-- Node5&#45;&gt;Node9 -->
<g id="edge8" class="edge">
<title>Node5&#45;&gt;Node9</title>
<path fill="none" stroke="midnightblue" d="M488.79,-67.96C474.96,-65.79 460.46,-63.51 448.29,-61.6"/>
<polygon fill="midnightblue" stroke="midnightblue" points="488.28,-71.42 498.7,-69.51 489.36,-64.51 488.28,-71.42"/>
</g>
<!-- Node7 -->
<g id="node7" class="node">
<title>Node7</title>
<g id="a_node7"><a xlink:href="class_game.html#adb05b20574551a26f8cf1dc664782790" target="_top" xlink:title=" ">
<polygon fill="white" stroke="black" points="74,-66.5 74,-85.5 142,-85.5 142,-66.5 74,-66.5"/>
<text text-anchor="middle" x="108" y="-73.5" font-family="Helvetica,sans-Serif" font-size="10.00">Game::Start</text>
</a>
</g>
</g>
<!-- Node6&#45;&gt;Node7 -->
<g id="edge6" class="edge">
<title>Node6&#45;&gt;Node7</title>
<path fill="none" stroke="midnightblue" d="M167.82,-76C159.15,-76 150.23,-76 142.05,-76"/>
<polygon fill="midnightblue" stroke="midnightblue" points="167.83,-79.5 177.83,-76 167.83,-72.5 167.83,-79.5"/>
</g>
<!-- Node8 -->
<g id="node8" class="node">
<title>Node8</title>
<g id="a_node8"><a xlink:href="main_8cpp.html#ae66f6b31b5ad750f1fe042a706a4e3d4" target="_top" xlink:title=" ">
<polygon fill="white" stroke="black" points="0,-66.5 0,-85.5 38,-85.5 38,-66.5 0,-66.5"/>
<text text-anchor="middle" x="19" y="-73.5" font-family="Helvetica,sans-Serif" font-size="10.00">main</text>
</a>
</g>
</g>
<!-- Node7&#45;&gt;Node8 -->
<g id="edge7" class="edge">
<title>Node7&#45;&gt;Node8</title>
<path fill="none" stroke="midnightblue" d="M63.54,-76C54.55,-76 45.55,-76 38.09,-76"/>
<polygon fill="midnightblue" stroke="midnightblue" points="63.61,-79.5 73.61,-76 63.61,-72.5 63.61,-79.5"/>
</g>
<!-- Node10 -->
<g id="node10" class="node">
<title>Node10</title>
<g id="a_node10"><a xlink:href="class_field.html#ad13d86066be42a2e10fcb9cbcc51fb0b" target="_top" xlink:title=" ">
<polygon fill="white" stroke="black" points="287,-47.5 287,-66.5 352,-66.5 352,-47.5 287,-47.5"/>
<text text-anchor="middle" x="319.5" y="-54.5" font-family="Helvetica,sans-Serif" font-size="10.00">Field::Draw</text>
</a>
</g>
</g>
<!-- Node9&#45;&gt;Node10 -->
<g id="edge9" class="edge">
<title>Node9&#45;&gt;Node10</title>
<path fill="none" stroke="midnightblue" d="M377.73,-57C369.27,-57 360.44,-57 352.31,-57"/>
<polygon fill="midnightblue" stroke="midnightblue" points="377.78,-60.5 387.78,-57 377.78,-53.5 377.78,-60.5"/>
</g>
<!-- Node10&#45;&gt;Node6 -->
<g id="edge10" class="edge">
<title>Node10&#45;&gt;Node6</title>
<path fill="none" stroke="midnightblue" d="M276.71,-64.71C268.28,-66.26 259.48,-67.89 251.27,-69.4"/>
<polygon fill="midnightblue" stroke="midnightblue" points="277.56,-68.11 286.76,-62.86 276.29,-61.23 277.56,-68.11"/>
</g>
</g>
</svg>
