<?xml version="1.0" encoding="UTF-8" standalone="no"?>
<!DOCTYPE svg PUBLIC "-//W3C//DTD SVG 1.1//EN"
 "http://www.w3.org/Graphics/SVG/1.1/DTD/svg11.dtd">
<!-- Generated by graphviz version 2.47.1 (20210421.1823)
 -->
<!-- Title: Unit Pages: 1 -->
<svg width="297pt" height="596pt"
 viewBox="0.00 0.00 297.00 596.00" xmlns="http://www.w3.org/2000/svg" xmlns:xlink="http://www.w3.org/1999/xlink">
<g id="graph0" class="graph" transform="scale(1 1) rotate(0) translate(4 592)">
<title>Unit</title>
<polygon fill="white" stroke="transparent" points="-4,4 -4,-592 293,-592 293,4 -4,4"/>
<!-- Node1 -->
<g id="node1" class="node">
<title>Node1</title>
<g id="a_node1"><a xlink:title=" ">
<polygon fill="#bfbfbf" stroke="black" points="0,-0.5 0,-112.5 115,-112.5 115,-0.5 0,-0.5"/>
<text text-anchor="middle" x="57.5" y="-100.5" font-family="Helvetica,sans-Serif" font-size="10.00">Unit</text>
<polyline fill="none" stroke="black" points="0,-93.5 115,-93.5 "/>
<text text-anchor="middle" x="57.5" y="-81.5" font-family="Helvetica,sans-Serif" font-size="10.00"> </text>
<polyline fill="none" stroke="black" points="0,-74.5 115,-74.5 "/>
<text text-anchor="start" x="8" y="-62.5" font-family="Helvetica,sans-Serif" font-size="10.00">+ Unit()</text>
<text text-anchor="start" x="8" y="-51.5" font-family="Helvetica,sans-Serif" font-size="10.00">+ Tick()</text>
<text text-anchor="start" x="8" y="-40.5" font-family="Helvetica,sans-Serif" font-size="10.00">+ IncSpeedRandomly()</text>
<text text-anchor="start" x="8" y="-29.5" font-family="Helvetica,sans-Serif" font-size="10.00">+ GetRandomize()</text>
<text text-anchor="start" x="8" y="-18.5" font-family="Helvetica,sans-Serif" font-size="10.00">+ GetPower()</text>
<text text-anchor="start" x="8" y="-7.5" font-family="Helvetica,sans-Serif" font-size="10.00">+ GetLife()</text>
</a>
</g>
</g>
<!-- Node2 -->
<g id="node2" class="node">
<title>Node2</title>
<g id="a_node2"><a xlink:href="class_drawable.html" target="_top" xlink:title=" ">
<polygon fill="white" stroke="black" points="7,-172.5 7,-284.5 84,-284.5 84,-172.5 7,-172.5"/>
<text text-anchor="middle" x="45.5" y="-272.5" font-family="Helvetica,sans-Serif" font-size="10.00">Drawable</text>
<polyline fill="none" stroke="black" points="7,-265.5 84,-265.5 "/>
<text text-anchor="middle" x="45.5" y="-253.5" font-family="Helvetica,sans-Serif" font-size="10.00"> </text>
<polyline fill="none" stroke="black" points="7,-246.5 84,-246.5 "/>
<text text-anchor="start" x="15" y="-234.5" font-family="Helvetica,sans-Serif" font-size="10.00">+ Drawable()</text>
<text text-anchor="start" x="15" y="-223.5" font-family="Helvetica,sans-Serif" font-size="10.00">+ Drawable()</text>
<text text-anchor="start" x="15" y="-212.5" font-family="Helvetica,sans-Serif" font-size="10.00">+ Draw()</text>
<text text-anchor="start" x="15" y="-201.5" font-family="Helvetica,sans-Serif" font-size="10.00">+ ~Drawable()</text>
<text text-anchor="start" x="15" y="-190.5" font-family="Helvetica,sans-Serif" font-size="10.00">+ GetImg()</text>
<text text-anchor="start" x="15" y="-179.5" font-family="Helvetica,sans-Serif" font-size="10.00">+ SetImage()</text>
</a>
</g>
</g>
<!-- Node2&#45;&gt;Node1 -->
<g id="edge1" class="edge">
<title>Node2&#45;&gt;Node1</title>
<path fill="none" stroke="midnightblue" d="M50.1,-162.28C51.26,-145.92 52.49,-128.53 53.6,-112.71"/>
<polygon fill="none" stroke="midnightblue" points="46.61,-162.08 49.4,-172.31 53.59,-162.58 46.61,-162.08"/>
</g>
<!-- Node3 -->
<g id="node3" class="node">
<title>Node3</title>
<g id="a_node3"><a xlink:href="class_world_actor.html" target="_top" xlink:title=" ">
<polygon fill="white" stroke="black" points="102.5,-150.5 102.5,-306.5 184.5,-306.5 184.5,-150.5 102.5,-150.5"/>
<text text-anchor="middle" x="143.5" y="-294.5" font-family="Helvetica,sans-Serif" font-size="10.00">WorldActor</text>
<polyline fill="none" stroke="black" points="102.5,-287.5 184.5,-287.5 "/>
<text text-anchor="start" x="110.5" y="-275.5" font-family="Helvetica,sans-Serif" font-size="10.00"># fly_</text>
<text text-anchor="start" x="110.5" y="-264.5" font-family="Helvetica,sans-Serif" font-size="10.00"># rooted_</text>
<polyline fill="none" stroke="black" points="102.5,-257.5 184.5,-257.5 "/>
<text text-anchor="start" x="110.5" y="-245.5" font-family="Helvetica,sans-Serif" font-size="10.00">+ WorldActor()</text>
<text text-anchor="start" x="110.5" y="-234.5" font-family="Helvetica,sans-Serif" font-size="10.00">+ Move()</text>
<text text-anchor="start" x="110.5" y="-223.5" font-family="Helvetica,sans-Serif" font-size="10.00">+ Tick()</text>
<text text-anchor="start" x="110.5" y="-212.5" font-family="Helvetica,sans-Serif" font-size="10.00">+ IncSpeed()</text>
<text text-anchor="start" x="110.5" y="-201.5" font-family="Helvetica,sans-Serif" font-size="10.00">+ SetSpeed()</text>
<text text-anchor="start" x="110.5" y="-190.5" font-family="Helvetica,sans-Serif" font-size="10.00">+ GetX()</text>
<text text-anchor="start" x="110.5" y="-179.5" font-family="Helvetica,sans-Serif" font-size="10.00">+ GetY()</text>
<text text-anchor="start" x="110.5" y="-168.5" font-family="Helvetica,sans-Serif" font-size="10.00">+ GetPosition()</text>
<text text-anchor="start" x="110.5" y="-157.5" font-family="Helvetica,sans-Serif" font-size="10.00">+ Distance()</text>
</a>
</g>
</g>
<!-- Node3&#45;&gt;Node1 -->
<g id="edge2" class="edge">
<title>Node3&#45;&gt;Node1</title>
<path fill="none" stroke="midnightblue" d="M99.86,-141.24C94.99,-131.62 90.14,-122.02 85.54,-112.93"/>
<polygon fill="none" stroke="midnightblue" points="96.89,-143.12 104.53,-150.46 103.13,-139.96 96.89,-143.12"/>
</g>
<!-- Node4 -->
<g id="node4" class="node">
<title>Node4</title>
<g id="a_node4"><a xlink:href="class_tickable.html" target="_top" xlink:title=" ">
<polygon fill="white" stroke="black" points="26,-448 26,-505 79,-505 79,-448 26,-448"/>
<text text-anchor="middle" x="52.5" y="-493" font-family="Helvetica,sans-Serif" font-size="10.00">Tickable</text>
<polyline fill="none" stroke="black" points="26,-486 79,-486 "/>
<text text-anchor="middle" x="52.5" y="-474" font-family="Helvetica,sans-Serif" font-size="10.00"> </text>
<polyline fill="none" stroke="black" points="26,-467 79,-467 "/>
<text text-anchor="start" x="34" y="-455" font-family="Helvetica,sans-Serif" font-size="10.00">+ Tick()</text>
</a>
</g>
</g>
<!-- Node4&#45;&gt;Node3 -->
<g id="edge3" class="edge">
<title>Node4&#45;&gt;Node3</title>
<path fill="none" stroke="#8b1a1a" d="M64.03,-437.89C70.79,-416.41 79.71,-389.05 88.5,-365 95.47,-345.92 103.45,-325.54 111.14,-306.52"/>
<polygon fill="none" stroke="#8b1a1a" points="60.63,-437.02 60.99,-447.61 67.31,-439.11 60.63,-437.02"/>
</g>
<!-- Node5 -->
<g id="node5" class="node">
<title>Node5</title>
<g id="a_node5"><a xlink:href="struct_vector2_d.html" target="_top" xlink:title=" ">
<polygon fill="white" stroke="black" points="97.5,-365.5 97.5,-587.5 189.5,-587.5 189.5,-365.5 97.5,-365.5"/>
<text text-anchor="middle" x="143.5" y="-575.5" font-family="Helvetica,sans-Serif" font-size="10.00">Vector2D&lt; float &gt;</text>
<polyline fill="none" stroke="black" points="97.5,-568.5 189.5,-568.5 "/>
<text text-anchor="start" x="105.5" y="-556.5" font-family="Helvetica,sans-Serif" font-size="10.00">+ x</text>
<text text-anchor="start" x="105.5" y="-545.5" font-family="Helvetica,sans-Serif" font-size="10.00">+ y</text>
<polyline fill="none" stroke="black" points="97.5,-538.5 189.5,-538.5 "/>
<text text-anchor="start" x="105.5" y="-526.5" font-family="Helvetica,sans-Serif" font-size="10.00">+ Vector2D()</text>
<text text-anchor="start" x="105.5" y="-515.5" font-family="Helvetica,sans-Serif" font-size="10.00">+ Vector2D()</text>
<text text-anchor="start" x="105.5" y="-504.5" font-family="Helvetica,sans-Serif" font-size="10.00">+ Vector2D()</text>
<text text-anchor="start" x="105.5" y="-493.5" font-family="Helvetica,sans-Serif" font-size="10.00">+ Vector2D()</text>
<text text-anchor="start" x="105.5" y="-482.5" font-family="Helvetica,sans-Serif" font-size="10.00">+ Vector2D()</text>
<text text-anchor="start" x="105.5" y="-471.5" font-family="Helvetica,sans-Serif" font-size="10.00">+ Vector2D()</text>
<text text-anchor="start" x="105.5" y="-460.5" font-family="Helvetica,sans-Serif" font-size="10.00">+ operator=()</text>
<text text-anchor="start" x="105.5" y="-449.5" font-family="Helvetica,sans-Serif" font-size="10.00">+ operator&#45;()</text>
<text text-anchor="start" x="105.5" y="-438.5" font-family="Helvetica,sans-Serif" font-size="10.00">+ operator+=()</text>
<text text-anchor="start" x="105.5" y="-427.5" font-family="Helvetica,sans-Serif" font-size="10.00">+ operator&#45;=()</text>
<text text-anchor="start" x="105.5" y="-416.5" font-family="Helvetica,sans-Serif" font-size="10.00">+ operator*=()</text>
<text text-anchor="start" x="105.5" y="-405.5" font-family="Helvetica,sans-Serif" font-size="10.00">+ operator*()</text>
<text text-anchor="start" x="105.5" y="-394.5" font-family="Helvetica,sans-Serif" font-size="10.00">+ operator/=()</text>
<text text-anchor="start" x="105.5" y="-383.5" font-family="Helvetica,sans-Serif" font-size="10.00">+ operator/()</text>
<text text-anchor="start" x="105.5" y="-372.5" font-family="Helvetica,sans-Serif" font-size="10.00">+ dist()</text>
</a>
</g>
</g>
<!-- Node5&#45;&gt;Node3 -->
<g id="edge4" class="edge">
<title>Node5&#45;&gt;Node3</title>
<path fill="none" stroke="#404040" d="M143.5,-365.45C143.5,-349.96 143.5,-334.19 143.5,-319.14"/>
<polygon fill="none" stroke="#404040" points="143.5,-318.7 139.5,-312.7 143.5,-306.7 147.5,-312.7 143.5,-318.7"/>
<text text-anchor="middle" x="167" y="-339" font-family="Helvetica,sans-Serif" font-size="10.00"> #position_</text>
<text text-anchor="middle" x="167" y="-328" font-family="Helvetica,sans-Serif" font-size="10.00">#speed_</text>
</g>
<!-- Node6 -->
<g id="node6" class="node">
<title>Node6</title>
<g id="a_node6"><a xlink:href="class_field.html" target="_top" xlink:title=" ">
<polygon fill="white" stroke="black" points="208,-387.5 208,-565.5 289,-565.5 289,-387.5 208,-387.5"/>
<text text-anchor="middle" x="248.5" y="-553.5" font-family="Helvetica,sans-Serif" font-size="10.00">Field</text>
<polyline fill="none" stroke="black" points="208,-546.5 289,-546.5 "/>
<text text-anchor="middle" x="248.5" y="-534.5" font-family="Helvetica,sans-Serif" font-size="10.00"> </text>
<polyline fill="none" stroke="black" points="208,-527.5 289,-527.5 "/>
<text text-anchor="start" x="216" y="-515.5" font-family="Helvetica,sans-Serif" font-size="10.00">+ GetWidth()</text>
<text text-anchor="start" x="216" y="-504.5" font-family="Helvetica,sans-Serif" font-size="10.00">+ GetHeight()</text>
<text text-anchor="start" x="216" y="-493.5" font-family="Helvetica,sans-Serif" font-size="10.00">+ Field()</text>
<text text-anchor="start" x="216" y="-482.5" font-family="Helvetica,sans-Serif" font-size="10.00">+ Field()</text>
<text text-anchor="start" x="216" y="-471.5" font-family="Helvetica,sans-Serif" font-size="10.00">+ operator[]()</text>
<text text-anchor="start" x="216" y="-460.5" font-family="Helvetica,sans-Serif" font-size="10.00">+ operator[]()</text>
<text text-anchor="start" x="216" y="-449.5" font-family="Helvetica,sans-Serif" font-size="10.00">+ GetCell()</text>
<text text-anchor="start" x="216" y="-438.5" font-family="Helvetica,sans-Serif" font-size="10.00">+ GetBuilding()</text>
<text text-anchor="start" x="216" y="-427.5" font-family="Helvetica,sans-Serif" font-size="10.00">+ SetBuilding()</text>
<text text-anchor="start" x="216" y="-416.5" font-family="Helvetica,sans-Serif" font-size="10.00">+ Draw()</text>
<text text-anchor="start" x="216" y="-405.5" font-family="Helvetica,sans-Serif" font-size="10.00">+ Tick()</text>
<text text-anchor="start" x="216" y="-394.5" font-family="Helvetica,sans-Serif" font-size="10.00">+ GetCellPos()</text>
</a>
</g>
</g>
<!-- Node6&#45;&gt;Node3 -->
<g id="edge5" class="edge">
<title>Node6&#45;&gt;Node3</title>
<path fill="none" stroke="#404040" d="M219.22,-387.11C211.72,-366.5 203.28,-344.79 194.5,-325 193,-321.63 191.44,-318.21 189.82,-314.78"/>
<polygon fill="none" stroke="#404040" points="189.73,-314.6 183.52,-310.94 184.51,-303.79 190.72,-307.45 189.73,-314.6"/>
<text text-anchor="middle" x="218" y="-333.5" font-family="Helvetica,sans-Serif" font-size="10.00"> #field_</text>
</g>
</g>
</svg>
