<?xml version="1.0" encoding="UTF-8" standalone="no"?>
<!DOCTYPE svg PUBLIC "-//W3C//DTD SVG 1.1//EN"
 "http://www.w3.org/Graphics/SVG/1.1/DTD/svg11.dtd">
<!-- Generated by graphviz version 2.47.0 (20210407.0042)
 -->
<!-- Title: Graphics::ResourceManager::GetImage Pages: 1 -->
<svg width="686pt" height="142pt"
 viewBox="0.00 0.00 686.00 142.00" xmlns="http://www.w3.org/2000/svg" xmlns:xlink="http://www.w3.org/1999/xlink">
<g id="graph0" class="graph" transform="scale(1 1) rotate(0) translate(4 138)">
<title>Graphics::ResourceManager::GetImage</title>
<polygon fill="white" stroke="transparent" points="-4,4 -4,-138 682,-138 682,4 -4,4"/>
<!-- Node1 -->
<g id="node1" class="node">
<title>Node1</title>
<g id="a_node1"><a xlink:title=" ">
<polygon fill="#bfbfbf" stroke="black" points="539,-52 539,-82 678,-82 678,-52 539,-52"/>
<text text-anchor="start" x="547" y="-70" font-family="Helvetica,sans-Serif" font-size="10.00">Graphics::ResourceManager</text>
<text text-anchor="middle" x="608.5" y="-59" font-family="Helvetica,sans-Serif" font-size="10.00">::GetImage</text>
</a>
</g>
</g>
<!-- Node2 -->
<g id="node2" class="node">
<title>Node2</title>
<g id="a_node2"><a xlink:href="class_g_u_i_1_1_item.html#a2aed1e3debe2a6080c10d5b2d005f8c8" target="_top" xlink:title=" ">
<polygon fill="white" stroke="black" points="399,-114.5 399,-133.5 484,-133.5 484,-114.5 399,-114.5"/>
<text text-anchor="middle" x="441.5" y="-121.5" font-family="Helvetica,sans-Serif" font-size="10.00">GUI::Item::Click</text>
</a>
</g>
</g>
<!-- Node1&#45;&gt;Node2 -->
<g id="edge1" class="edge">
<title>Node1&#45;&gt;Node2</title>
<path fill="none" stroke="midnightblue" d="M557.59,-85.66C540.35,-91.97 520.88,-98.94 503,-105 493.62,-108.18 483.35,-111.47 473.99,-114.4"/>
<polygon fill="midnightblue" stroke="midnightblue" points="559.27,-88.77 567.45,-82.04 556.86,-82.2 559.27,-88.77"/>
</g>
<!-- Node3 -->
<g id="node3" class="node">
<title>Node3</title>
<g id="a_node3"><a xlink:href="class_g_u_i_1_1_item.html#ab089785456c77b4ff16f15dc7b6bd8fa" target="_top" xlink:title=" ">
<polygon fill="white" stroke="black" points="398.5,-76.5 398.5,-95.5 484.5,-95.5 484.5,-76.5 398.5,-76.5"/>
<text text-anchor="middle" x="441.5" y="-83.5" font-family="Helvetica,sans-Serif" font-size="10.00">GUI::Item::Draw</text>
</a>
</g>
</g>
<!-- Node1&#45;&gt;Node3 -->
<g id="edge2" class="edge">
<title>Node1&#45;&gt;Node3</title>
<path fill="none" stroke="midnightblue" d="M528.96,-76.04C513.67,-77.8 498.2,-79.59 484.66,-81.15"/>
<polygon fill="midnightblue" stroke="midnightblue" points="529.42,-79.51 538.96,-74.89 528.62,-72.56 529.42,-79.51"/>
</g>
<!-- Node4 -->
<g id="node4" class="node">
<title>Node4</title>
<g id="a_node4"><a xlink:href="class_drawable.html#ac46f25a963a3fe3e9176461d61d213c7" target="_top" xlink:title=" ">
<polygon fill="white" stroke="black" points="399.5,-38.5 399.5,-57.5 483.5,-57.5 483.5,-38.5 399.5,-38.5"/>
<text text-anchor="middle" x="441.5" y="-45.5" font-family="Helvetica,sans-Serif" font-size="10.00">Drawable::Draw</text>
</a>
</g>
</g>
<!-- Node1&#45;&gt;Node4 -->
<g id="edge3" class="edge">
<title>Node1&#45;&gt;Node4</title>
<path fill="none" stroke="midnightblue" d="M528.77,-57.93C513.18,-56.14 497.42,-54.32 483.71,-52.75"/>
<polygon fill="midnightblue" stroke="midnightblue" points="528.62,-61.44 538.96,-59.11 529.42,-54.49 528.62,-61.44"/>
</g>
<!-- Node9 -->
<g id="node9" class="node">
<title>Node9</title>
<g id="a_node9"><a xlink:href="class_g_u_i_1_1_inventory.html#a8fe3124d38c7228c1553d555bca1b5a4" target="_top" xlink:title=" ">
<polygon fill="white" stroke="black" points="380,-0.5 380,-19.5 503,-19.5 503,-0.5 380,-0.5"/>
<text text-anchor="middle" x="441.5" y="-7.5" font-family="Helvetica,sans-Serif" font-size="10.00">GUI::Inventory::Inventory</text>
</a>
</g>
</g>
<!-- Node1&#45;&gt;Node9 -->
<g id="edge9" class="edge">
<title>Node1&#45;&gt;Node9</title>
<path fill="none" stroke="midnightblue" d="M557.59,-48.34C540.35,-42.03 520.88,-35.06 503,-29 493.62,-25.82 483.35,-22.53 473.99,-19.6"/>
<polygon fill="midnightblue" stroke="midnightblue" points="556.86,-51.8 567.45,-51.96 559.27,-45.23 556.86,-51.8"/>
</g>
<!-- Node5 -->
<g id="node5" class="node">
<title>Node5</title>
<g id="a_node5"><a xlink:href="class_engine.html#a39f23d7f0ad86322bfdb73d4e6763005" target="_top" xlink:title=" ">
<polygon fill="white" stroke="black" points="74,-38.5 74,-57.5 147,-57.5 147,-38.5 74,-38.5"/>
<text text-anchor="middle" x="110.5" y="-45.5" font-family="Helvetica,sans-Serif" font-size="10.00">Engine::Draw</text>
</a>
</g>
</g>
<!-- Node4&#45;&gt;Node5 -->
<g id="edge4" class="edge">
<title>Node4&#45;&gt;Node5</title>
<path fill="none" stroke="midnightblue" d="M389.15,-48C321.98,-48 205.98,-48 147.46,-48"/>
<polygon fill="midnightblue" stroke="midnightblue" points="389.5,-51.5 399.5,-48 389.5,-44.5 389.5,-51.5"/>
</g>
<!-- Node7 -->
<g id="node7" class="node">
<title>Node7</title>
<g id="a_node7"><a xlink:href="class_cell.html#ac88160c4177e146f8dd7482c4eaee4f0" target="_top" xlink:title=" ">
<polygon fill="white" stroke="black" points="284,-19.5 284,-38.5 344,-38.5 344,-19.5 284,-19.5"/>
<text text-anchor="middle" x="314" y="-26.5" font-family="Helvetica,sans-Serif" font-size="10.00">Cell::Draw</text>
</a>
</g>
</g>
<!-- Node4&#45;&gt;Node7 -->
<g id="edge6" class="edge">
<title>Node4&#45;&gt;Node7</title>
<path fill="none" stroke="midnightblue" d="M389.47,-40.27C374.08,-37.94 357.71,-35.47 344.26,-33.43"/>
<polygon fill="midnightblue" stroke="midnightblue" points="389,-43.74 399.41,-41.78 390.04,-36.82 389,-43.74"/>
</g>
<!-- Node6 -->
<g id="node6" class="node">
<title>Node6</title>
<g id="a_node6"><a xlink:href="main_8cpp.html#ae66f6b31b5ad750f1fe042a706a4e3d4" target="_top" xlink:title=" ">
<polygon fill="white" stroke="black" points="0,-38.5 0,-57.5 38,-57.5 38,-38.5 0,-38.5"/>
<text text-anchor="middle" x="19" y="-45.5" font-family="Helvetica,sans-Serif" font-size="10.00">main</text>
</a>
</g>
</g>
<!-- Node5&#45;&gt;Node6 -->
<g id="edge5" class="edge">
<title>Node5&#45;&gt;Node6</title>
<path fill="none" stroke="midnightblue" d="M63.66,-48C54.57,-48 45.53,-48 38.06,-48"/>
<polygon fill="midnightblue" stroke="midnightblue" points="63.87,-51.5 73.87,-48 63.87,-44.5 63.87,-51.5"/>
</g>
<!-- Node8 -->
<g id="node8" class="node">
<title>Node8</title>
<g id="a_node8"><a xlink:href="class_field.html#ad13d86066be42a2e10fcb9cbcc51fb0b" target="_top" xlink:title=" ">
<polygon fill="white" stroke="black" points="183,-19.5 183,-38.5 248,-38.5 248,-19.5 183,-19.5"/>
<text text-anchor="middle" x="215.5" y="-26.5" font-family="Helvetica,sans-Serif" font-size="10.00">Field::Draw</text>
</a>
</g>
</g>
<!-- Node7&#45;&gt;Node8 -->
<g id="edge7" class="edge">
<title>Node7&#45;&gt;Node8</title>
<path fill="none" stroke="midnightblue" d="M273.73,-29C265.27,-29 256.44,-29 248.31,-29"/>
<polygon fill="midnightblue" stroke="midnightblue" points="273.78,-32.5 283.78,-29 273.78,-25.5 273.78,-32.5"/>
</g>
<!-- Node8&#45;&gt;Node5 -->
<g id="edge8" class="edge">
<title>Node8&#45;&gt;Node5</title>
<path fill="none" stroke="midnightblue" d="M172.71,-36.71C164.28,-38.26 155.48,-39.89 147.27,-41.4"/>
<polygon fill="midnightblue" stroke="midnightblue" points="173.56,-40.11 182.76,-34.86 172.29,-33.23 173.56,-40.11"/>
</g>
</g>
</svg>
