<?xml version="1.0" encoding="UTF-8" standalone="no"?>
<!DOCTYPE svg PUBLIC "-//W3C//DTD SVG 1.1//EN"
 "http://www.w3.org/Graphics/SVG/1.1/DTD/svg11.dtd">
<!-- Generated by graphviz version 2.47.0 (20210407.0042)
 -->
<!-- Title: Graphics::Window::GetSizeWindow Pages: 1 -->
<svg width="520pt" height="146pt"
 viewBox="0.00 0.00 520.00 145.50" xmlns="http://www.w3.org/2000/svg" xmlns:xlink="http://www.w3.org/1999/xlink">
<g id="graph0" class="graph" transform="scale(1 1) rotate(0) translate(4 141.5)">
<title>Graphics::Window::GetSizeWindow</title>
<polygon fill="white" stroke="transparent" points="-4,4 -4,-141.5 516,-141.5 516,4 -4,4"/>
<!-- Node1 -->
<g id="node1" class="node">
<title>Node1</title>
<g id="a_node1"><a xlink:title=" ">
<polygon fill="#bfbfbf" stroke="black" points="378,-71.5 378,-101.5 512,-101.5 512,-71.5 378,-71.5"/>
<text text-anchor="start" x="386" y="-89.5" font-family="Helvetica,sans-Serif" font-size="10.00">Graphics::Window::GetSize</text>
<text text-anchor="middle" x="445" y="-78.5" font-family="Helvetica,sans-Serif" font-size="10.00">Window</text>
</a>
</g>
</g>
<!-- Node2 -->
<g id="node2" class="node">
<title>Node2</title>
<g id="a_node2"><a xlink:href="class_engine.html#a39f23d7f0ad86322bfdb73d4e6763005" target="_top" xlink:title=" ">
<polygon fill="white" stroke="black" points="74,-118 74,-137 147,-137 147,-118 74,-118"/>
<text text-anchor="middle" x="110.5" y="-125" font-family="Helvetica,sans-Serif" font-size="10.00">Engine::Draw</text>
</a>
</g>
</g>
<!-- Node1&#45;&gt;Node2 -->
<g id="edge1" class="edge">
<title>Node1&#45;&gt;Node2</title>
<path fill="none" stroke="midnightblue" d="M405.93,-105.84C387.19,-114.3 363.96,-123.25 342,-127.5 274.03,-140.65 192.66,-136.03 147.04,-131.65"/>
<polygon fill="midnightblue" stroke="midnightblue" points="407.42,-109.01 415.01,-101.62 404.47,-102.66 407.42,-109.01"/>
</g>
<!-- Node4 -->
<g id="node4" class="node">
<title>Node4</title>
<g id="a_node4"><a xlink:href="class_field.html#ad13d86066be42a2e10fcb9cbcc51fb0b" target="_top" xlink:title=" ">
<polygon fill="white" stroke="black" points="230,-99 230,-118 295,-118 295,-99 230,-99"/>
<text text-anchor="middle" x="262.5" y="-106" font-family="Helvetica,sans-Serif" font-size="10.00">Field::Draw</text>
</a>
</g>
</g>
<!-- Node1&#45;&gt;Node4 -->
<g id="edge3" class="edge">
<title>Node1&#45;&gt;Node4</title>
<path fill="none" stroke="midnightblue" d="M367.79,-95.79C342.37,-98.89 315.42,-102.17 295.29,-104.63"/>
<polygon fill="midnightblue" stroke="midnightblue" points="368.31,-99.25 377.81,-94.57 367.46,-92.3 368.31,-99.25"/>
</g>
<!-- Node5 -->
<g id="node5" class="node">
<title>Node5</title>
<g id="a_node5"><a xlink:href="class_graphics_1_1_window.html#ab543b174ebe01570bf8f072ca2796eb8" target="_top" xlink:title=" ">
<polygon fill="white" stroke="black" points="191,-49.5 191,-79.5 334,-79.5 334,-49.5 191,-49.5"/>
<text text-anchor="start" x="199" y="-67.5" font-family="Helvetica,sans-Serif" font-size="10.00">Graphics::Window::GetCursor</text>
<text text-anchor="middle" x="262.5" y="-56.5" font-family="Helvetica,sans-Serif" font-size="10.00">Position</text>
</a>
</g>
</g>
<!-- Node1&#45;&gt;Node5 -->
<g id="edge5" class="edge">
<title>Node1&#45;&gt;Node5</title>
<path fill="none" stroke="midnightblue" d="M367.72,-77.2C356.61,-75.85 345.22,-74.46 334.23,-73.12"/>
<polygon fill="midnightblue" stroke="midnightblue" points="367.46,-80.7 377.81,-78.43 368.31,-73.75 367.46,-80.7"/>
</g>
<!-- Node6 -->
<g id="node6" class="node">
<title>Node6</title>
<g id="a_node6"><a xlink:href="class_graphics_1_1_window.html#a8c9f4d2a14be1c7c17cc2a9ad855aecc" target="_top" xlink:title=" ">
<polygon fill="white" stroke="black" points="183,-0.5 183,-30.5 342,-30.5 342,-0.5 183,-0.5"/>
<text text-anchor="start" x="191" y="-18.5" font-family="Helvetica,sans-Serif" font-size="10.00">Graphics::Window::GetTransform</text>
<text text-anchor="middle" x="262.5" y="-7.5" font-family="Helvetica,sans-Serif" font-size="10.00">Coordinates</text>
</a>
</g>
</g>
<!-- Node1&#45;&gt;Node6 -->
<g id="edge6" class="edge">
<title>Node1&#45;&gt;Node6</title>
<path fill="none" stroke="midnightblue" d="M404.06,-67.2C385.42,-58.53 362.79,-48.47 342,-40.5 332.92,-37.02 323.12,-33.62 313.63,-30.51"/>
<polygon fill="midnightblue" stroke="midnightblue" points="402.6,-70.38 413.14,-71.46 405.58,-64.05 402.6,-70.38"/>
</g>
<!-- Node3 -->
<g id="node3" class="node">
<title>Node3</title>
<g id="a_node3"><a xlink:href="main_8cpp.html#ae66f6b31b5ad750f1fe042a706a4e3d4" target="_top" xlink:title=" ">
<polygon fill="white" stroke="black" points="0,-118 0,-137 38,-137 38,-118 0,-118"/>
<text text-anchor="middle" x="19" y="-125" font-family="Helvetica,sans-Serif" font-size="10.00">main</text>
</a>
</g>
</g>
<!-- Node2&#45;&gt;Node3 -->
<g id="edge2" class="edge">
<title>Node2&#45;&gt;Node3</title>
<path fill="none" stroke="midnightblue" d="M63.66,-127.5C54.57,-127.5 45.53,-127.5 38.06,-127.5"/>
<polygon fill="midnightblue" stroke="midnightblue" points="63.87,-131 73.87,-127.5 63.87,-124 63.87,-131"/>
</g>
<!-- Node4&#45;&gt;Node2 -->
<g id="edge4" class="edge">
<title>Node4&#45;&gt;Node2</title>
<path fill="none" stroke="midnightblue" d="M219.62,-113.8C196.84,-116.69 168.95,-120.22 147.21,-122.98"/>
<polygon fill="midnightblue" stroke="midnightblue" points="220.21,-117.26 229.69,-112.53 219.33,-110.31 220.21,-117.26"/>
</g>
</g>
</svg>
