<?xml version="1.0" encoding="UTF-8" standalone="no"?>
<!DOCTYPE svg PUBLIC "-//W3C//DTD SVG 1.1//EN"
 "http://www.w3.org/Graphics/SVG/1.1/DTD/svg11.dtd">
<!-- Generated by graphviz version 2.47.0 (20210407.0042)
 -->
<!-- Title: Graphics::Quadrangle Pages: 1 -->
<svg width="118pt" height="518pt"
 viewBox="0.00 0.00 118.00 518.00" xmlns="http://www.w3.org/2000/svg" xmlns:xlink="http://www.w3.org/1999/xlink">
<g id="graph0" class="graph" transform="scale(1 1) rotate(0) translate(4 514)">
<title>Graphics::Quadrangle</title>
<polygon fill="white" stroke="transparent" points="-4,4 -4,-514 114,-514 114,4 -4,4"/>
<!-- Node1 -->
<g id="node1" class="node">
<title>Node1</title>
<g id="a_node1"><a xlink:title=" ">
<polygon fill="#bfbfbf" stroke="black" points="0,-182.5 0,-382.5 110,-382.5 110,-182.5 0,-182.5"/>
<text text-anchor="middle" x="55" y="-370.5" font-family="Helvetica,sans-Serif" font-size="10.00">Graphics::Quadrangle</text>
<polyline fill="none" stroke="black" points="0,-363.5 110,-363.5 "/>
<text text-anchor="start" x="8" y="-351.5" font-family="Helvetica,sans-Serif" font-size="10.00"># x1</text>
<text text-anchor="start" x="8" y="-340.5" font-family="Helvetica,sans-Serif" font-size="10.00"># y1</text>
<text text-anchor="start" x="8" y="-329.5" font-family="Helvetica,sans-Serif" font-size="10.00"># x2</text>
<text text-anchor="start" x="8" y="-318.5" font-family="Helvetica,sans-Serif" font-size="10.00"># y2</text>
<text text-anchor="start" x="8" y="-307.5" font-family="Helvetica,sans-Serif" font-size="10.00"># x3</text>
<text text-anchor="start" x="8" y="-296.5" font-family="Helvetica,sans-Serif" font-size="10.00"># y3</text>
<text text-anchor="start" x="8" y="-285.5" font-family="Helvetica,sans-Serif" font-size="10.00"># x4</text>
<text text-anchor="start" x="8" y="-274.5" font-family="Helvetica,sans-Serif" font-size="10.00"># y4</text>
<polyline fill="none" stroke="black" points="0,-267.5 110,-267.5 "/>
<text text-anchor="start" x="8" y="-255.5" font-family="Helvetica,sans-Serif" font-size="10.00">+ ~Quadrangle()</text>
<text text-anchor="start" x="8" y="-244.5" font-family="Helvetica,sans-Serif" font-size="10.00">+ Quadrangle()</text>
<text text-anchor="start" x="8" y="-233.5" font-family="Helvetica,sans-Serif" font-size="10.00">+ Quadrangle()</text>
<text text-anchor="start" x="8" y="-222.5" font-family="Helvetica,sans-Serif" font-size="10.00">+ operator=()</text>
<text text-anchor="start" x="8" y="-211.5" font-family="Helvetica,sans-Serif" font-size="10.00">+ Quadrangle()</text>
<text text-anchor="start" x="8" y="-200.5" font-family="Helvetica,sans-Serif" font-size="10.00">+ Draw()</text>
<text text-anchor="start" x="8" y="-189.5" font-family="Helvetica,sans-Serif" font-size="10.00">+ Draw()</text>
</a>
</g>
</g>
<!-- Node3 -->
<g id="node3" class="node">
<title>Node3</title>
<g id="a_node3"><a xlink:href="class_graphics_1_1_image.html" target="_top" xlink:title=" ">
<polygon fill="white" stroke="black" points="11.5,-0.5 11.5,-145.5 98.5,-145.5 98.5,-0.5 11.5,-0.5"/>
<text text-anchor="middle" x="55" y="-133.5" font-family="Helvetica,sans-Serif" font-size="10.00">Graphics::Image</text>
<polyline fill="none" stroke="black" points="11.5,-126.5 98.5,-126.5 "/>
<text text-anchor="middle" x="55" y="-114.5" font-family="Helvetica,sans-Serif" font-size="10.00"> </text>
<polyline fill="none" stroke="black" points="11.5,-107.5 98.5,-107.5 "/>
<text text-anchor="start" x="19.5" y="-95.5" font-family="Helvetica,sans-Serif" font-size="10.00">+ ~Image()</text>
<text text-anchor="start" x="19.5" y="-84.5" font-family="Helvetica,sans-Serif" font-size="10.00">+ Image()</text>
<text text-anchor="start" x="19.5" y="-73.5" font-family="Helvetica,sans-Serif" font-size="10.00">+ Image()</text>
<text text-anchor="start" x="19.5" y="-62.5" font-family="Helvetica,sans-Serif" font-size="10.00">+ operator=()</text>
<text text-anchor="start" x="19.5" y="-51.5" font-family="Helvetica,sans-Serif" font-size="10.00">+ Image()</text>
<text text-anchor="start" x="19.5" y="-40.5" font-family="Helvetica,sans-Serif" font-size="10.00">+ GetSize()</text>
<text text-anchor="start" x="19.5" y="-29.5" font-family="Helvetica,sans-Serif" font-size="10.00">+ GetId()</text>
<text text-anchor="start" x="19.5" y="-18.5" font-family="Helvetica,sans-Serif" font-size="10.00">+ Draw()</text>
<text text-anchor="start" x="19.5" y="-7.5" font-family="Helvetica,sans-Serif" font-size="10.00">+ Draw()</text>
</a>
</g>
</g>
<!-- Node1&#45;&gt;Node3 -->
<g id="edge2" class="edge">
<title>Node1&#45;&gt;Node3</title>
<path fill="none" stroke="midnightblue" d="M55,-172.13C55,-163.13 55,-154.18 55,-145.56"/>
<polygon fill="none" stroke="midnightblue" points="51.5,-172.31 55,-182.31 58.5,-172.31 51.5,-172.31"/>
</g>
<!-- Node2 -->
<g id="node2" class="node">
<title>Node2</title>
<g id="a_node2"><a xlink:href="class_graphics_1_1_g_shape.html" target="_top" xlink:title=" ">
<polygon fill="white" stroke="black" points="5,-419.5 5,-509.5 105,-509.5 105,-419.5 5,-419.5"/>
<text text-anchor="middle" x="55" y="-497.5" font-family="Helvetica,sans-Serif" font-size="10.00">Graphics::GShape</text>
<polyline fill="none" stroke="black" points="5,-490.5 105,-490.5 "/>
<text text-anchor="start" x="13" y="-478.5" font-family="Helvetica,sans-Serif" font-size="10.00"># id_vertex_arrays_</text>
<text text-anchor="start" x="13" y="-467.5" font-family="Helvetica,sans-Serif" font-size="10.00"># id_vertex_buffer_</text>
<polyline fill="none" stroke="black" points="5,-460.5 105,-460.5 "/>
<text text-anchor="start" x="13" y="-448.5" font-family="Helvetica,sans-Serif" font-size="10.00">+ ~GShape()</text>
<text text-anchor="start" x="13" y="-437.5" font-family="Helvetica,sans-Serif" font-size="10.00">+ Draw()</text>
<text text-anchor="start" x="13" y="-426.5" font-family="Helvetica,sans-Serif" font-size="10.00">+ Draw()</text>
</a>
</g>
</g>
<!-- Node2&#45;&gt;Node1 -->
<g id="edge1" class="edge">
<title>Node2&#45;&gt;Node1</title>
<path fill="none" stroke="midnightblue" d="M55,-409.32C55,-400.77 55,-391.71 55,-382.52"/>
<polygon fill="none" stroke="midnightblue" points="51.5,-409.47 55,-419.47 58.5,-409.47 51.5,-409.47"/>
</g>
</g>
</svg>
