<?xml version="1.0" encoding="UTF-8" standalone="no"?>
<!DOCTYPE svg PUBLIC "-//W3C//DTD SVG 1.1//EN"
 "http://www.w3.org/Graphics/SVG/1.1/DTD/svg11.dtd">
<!-- Generated by graphviz version 2.47.0 (20210407.0042)
 -->
<!-- Title: Graphics::Shader::Set Pages: 1 -->
<svg width="798pt" height="66pt"
 viewBox="0.00 0.00 798.00 66.00" xmlns="http://www.w3.org/2000/svg" xmlns:xlink="http://www.w3.org/1999/xlink">
<g id="graph0" class="graph" transform="scale(1 1) rotate(0) translate(4 62)">
<title>Graphics::Shader::Set</title>
<polygon fill="white" stroke="transparent" points="-4,4 -4,-62 794,-62 794,4 -4,4"/>
<!-- Node1 -->
<g id="node1" class="node">
<title>Node1</title>
<g id="a_node1"><a xlink:title=" ">
<polygon fill="#bfbfbf" stroke="black" points="680,-19.5 680,-38.5 790,-38.5 790,-19.5 680,-19.5"/>
<text text-anchor="middle" x="735" y="-26.5" font-family="Helvetica,sans-Serif" font-size="10.00">Graphics::Shader::Set</text>
</a>
</g>
</g>
<!-- Node2 -->
<g id="node2" class="node">
<title>Node2</title>
<g id="a_node2"><a xlink:href="class_graphics_1_1_image.html#af48c0e309532eb1ff36e8fdaee244da1" target="_top" xlink:title=" ">
<polygon fill="white" stroke="black" points="530,-19.5 530,-38.5 644,-38.5 644,-19.5 530,-19.5"/>
<text text-anchor="middle" x="587" y="-26.5" font-family="Helvetica,sans-Serif" font-size="10.00">Graphics::Image::Draw</text>
</a>
</g>
</g>
<!-- Node1&#45;&gt;Node2 -->
<g id="edge1" class="edge">
<title>Node1&#45;&gt;Node2</title>
<path fill="none" stroke="midnightblue" d="M669.52,-29C661.13,-29 652.6,-29 644.36,-29"/>
<polygon fill="midnightblue" stroke="midnightblue" points="669.64,-32.5 679.63,-29 669.63,-25.5 669.64,-32.5"/>
</g>
<!-- Node3 -->
<g id="node3" class="node">
<title>Node3</title>
<g id="a_node3"><a xlink:href="class_drawable.html#a380dbc28ed3746ac7ac00c4844b30d08" target="_top" xlink:title=" ">
<polygon fill="white" stroke="black" points="395,-38.5 395,-57.5 479,-57.5 479,-38.5 395,-38.5"/>
<text text-anchor="middle" x="437" y="-45.5" font-family="Helvetica,sans-Serif" font-size="10.00">Drawable::Draw</text>
</a>
</g>
</g>
<!-- Node2&#45;&gt;Node3 -->
<g id="edge2" class="edge">
<title>Node2&#45;&gt;Node3</title>
<path fill="none" stroke="midnightblue" d="M519.65,-37.52C505.81,-39.29 491.62,-41.12 479.03,-42.73"/>
<polygon fill="midnightblue" stroke="midnightblue" points="520.15,-40.98 529.63,-36.24 519.26,-34.04 520.15,-40.98"/>
</g>
<!-- Node8 -->
<g id="node8" class="node">
<title>Node8</title>
<g id="a_node8"><a xlink:href="class_graphics_1_1_image.html#a90e9a33ef5f89fa71e830d967122b9e3" target="_top" xlink:title=" ">
<polygon fill="white" stroke="black" points="380,-0.5 380,-19.5 494,-19.5 494,-0.5 380,-0.5"/>
<text text-anchor="middle" x="437" y="-7.5" font-family="Helvetica,sans-Serif" font-size="10.00">Graphics::Image::Draw</text>
</a>
</g>
</g>
<!-- Node2&#45;&gt;Node8 -->
<g id="edge8" class="edge">
<title>Node2&#45;&gt;Node8</title>
<path fill="none" stroke="midnightblue" d="M519.44,-20.46C511.02,-19.37 502.46,-18.28 494.22,-17.22"/>
<polygon fill="midnightblue" stroke="midnightblue" points="519.26,-23.96 529.63,-21.76 520.15,-17.02 519.26,-23.96"/>
</g>
<!-- Node4 -->
<g id="node4" class="node">
<title>Node4</title>
<g id="a_node4"><a xlink:href="class_engine.html#a39f23d7f0ad86322bfdb73d4e6763005" target="_top" xlink:title=" ">
<polygon fill="white" stroke="black" points="74,-38.5 74,-57.5 147,-57.5 147,-38.5 74,-38.5"/>
<text text-anchor="middle" x="110.5" y="-45.5" font-family="Helvetica,sans-Serif" font-size="10.00">Engine::Draw</text>
</a>
</g>
</g>
<!-- Node3&#45;&gt;Node4 -->
<g id="edge3" class="edge">
<title>Node3&#45;&gt;Node4</title>
<path fill="none" stroke="midnightblue" d="M384.69,-48C318.47,-48 204.91,-48 147.29,-48"/>
<polygon fill="midnightblue" stroke="midnightblue" points="384.9,-51.5 394.9,-48 384.9,-44.5 384.9,-51.5"/>
</g>
<!-- Node6 -->
<g id="node6" class="node">
<title>Node6</title>
<g id="a_node6"><a xlink:href="class_cell.html#a068da58be93f0b7d2dc6b3396ca8b8cd" target="_top" xlink:title=" ">
<polygon fill="white" stroke="black" points="284,-19.5 284,-38.5 344,-38.5 344,-19.5 284,-19.5"/>
<text text-anchor="middle" x="314" y="-26.5" font-family="Helvetica,sans-Serif" font-size="10.00">Cell::Draw</text>
</a>
</g>
</g>
<!-- Node3&#45;&gt;Node6 -->
<g id="edge5" class="edge">
<title>Node3&#45;&gt;Node6</title>
<path fill="none" stroke="midnightblue" d="M384.79,-39.96C370.96,-37.79 356.46,-35.51 344.29,-33.6"/>
<polygon fill="midnightblue" stroke="midnightblue" points="384.28,-43.42 394.7,-41.51 385.36,-36.51 384.28,-43.42"/>
</g>
<!-- Node5 -->
<g id="node5" class="node">
<title>Node5</title>
<g id="a_node5"><a xlink:href="main_8cpp.html#ae66f6b31b5ad750f1fe042a706a4e3d4" target="_top" xlink:title=" ">
<polygon fill="white" stroke="black" points="0,-38.5 0,-57.5 38,-57.5 38,-38.5 0,-38.5"/>
<text text-anchor="middle" x="19" y="-45.5" font-family="Helvetica,sans-Serif" font-size="10.00">main</text>
</a>
</g>
</g>
<!-- Node4&#45;&gt;Node5 -->
<g id="edge4" class="edge">
<title>Node4&#45;&gt;Node5</title>
<path fill="none" stroke="midnightblue" d="M63.66,-48C54.57,-48 45.53,-48 38.06,-48"/>
<polygon fill="midnightblue" stroke="midnightblue" points="63.87,-51.5 73.87,-48 63.87,-44.5 63.87,-51.5"/>
</g>
<!-- Node7 -->
<g id="node7" class="node">
<title>Node7</title>
<g id="a_node7"><a xlink:href="class_field.html#a40e273e9fe4e28fe71aa6947eacc1ab0" target="_top" xlink:title=" ">
<polygon fill="white" stroke="black" points="183,-19.5 183,-38.5 248,-38.5 248,-19.5 183,-19.5"/>
<text text-anchor="middle" x="215.5" y="-26.5" font-family="Helvetica,sans-Serif" font-size="10.00">Field::Draw</text>
</a>
</g>
</g>
<!-- Node6&#45;&gt;Node7 -->
<g id="edge6" class="edge">
<title>Node6&#45;&gt;Node7</title>
<path fill="none" stroke="midnightblue" d="M273.73,-29C265.27,-29 256.44,-29 248.31,-29"/>
<polygon fill="midnightblue" stroke="midnightblue" points="273.78,-32.5 283.78,-29 273.78,-25.5 273.78,-32.5"/>
</g>
<!-- Node7&#45;&gt;Node4 -->
<g id="edge7" class="edge">
<title>Node7&#45;&gt;Node4</title>
<path fill="none" stroke="midnightblue" d="M172.71,-36.71C164.28,-38.26 155.48,-39.89 147.27,-41.4"/>
<polygon fill="midnightblue" stroke="midnightblue" points="173.56,-40.11 182.76,-34.86 172.29,-33.23 173.56,-40.11"/>
</g>
</g>
</svg>
