<?xml version="1.0" encoding="UTF-8" standalone="no"?>
<!DOCTYPE svg PUBLIC "-//W3C//DTD SVG 1.1//EN"
 "http://www.w3.org/Graphics/SVG/1.1/DTD/svg11.dtd">
<!-- Generated by graphviz version 2.47.0 (20210407.0042)
 -->
<!-- Title: Graphics::Shader::SetProjectorMatrix Pages: 1 -->
<svg width="306pt" height="78pt"
 viewBox="0.00 0.00 306.00 77.50" xmlns="http://www.w3.org/2000/svg" xmlns:xlink="http://www.w3.org/1999/xlink">
<g id="graph0" class="graph" transform="scale(1 1) rotate(0) translate(4 73.5)">
<title>Graphics::Shader::SetProjectorMatrix</title>
<polygon fill="white" stroke="transparent" points="-4,4 -4,-73.5 302,-73.5 302,4 -4,4"/>
<!-- Node1 -->
<g id="node1" class="node">
<title>Node1</title>
<g id="a_node1"><a xlink:title=" ">
<polygon fill="#bfbfbf" stroke="black" points="0,-17 0,-47 149,-47 149,-17 0,-17"/>
<text text-anchor="start" x="8" y="-35" font-family="Helvetica,sans-Serif" font-size="10.00">Graphics::Shader::SetProjector</text>
<text text-anchor="middle" x="74.5" y="-24" font-family="Helvetica,sans-Serif" font-size="10.00">Matrix</text>
</a>
</g>
</g>
<!-- Node2 -->
<g id="node2" class="node">
<title>Node2</title>
<g id="a_node2"><a xlink:href="class_graphics_1_1_transform.html#a5e301531e0b340509d10dd5dad929b9c" target="_top" xlink:title=" ">
<polygon fill="white" stroke="black" points="189.5,-39 189.5,-69 293.5,-69 293.5,-39 189.5,-39"/>
<text text-anchor="start" x="197.5" y="-57" font-family="Helvetica,sans-Serif" font-size="10.00">Graphics::Transform</text>
<text text-anchor="middle" x="241.5" y="-46" font-family="Helvetica,sans-Serif" font-size="10.00">::GetMatrix</text>
</a>
</g>
</g>
<!-- Node1&#45;&gt;Node2 -->
<g id="edge1" class="edge">
<title>Node1&#45;&gt;Node2</title>
<path fill="none" stroke="midnightblue" d="M149.31,-41.84C159.38,-43.18 169.61,-44.55 179.41,-45.86"/>
<polygon fill="midnightblue" stroke="midnightblue" points="179.07,-49.34 189.45,-47.19 180,-42.4 179.07,-49.34"/>
</g>
<!-- Node3 -->
<g id="node3" class="node">
<title>Node3</title>
<g id="a_node3"><a xlink:href="class_graphics_1_1_shader.html#a11a2de17d1d077ec34acd4f7cd57f6b1" target="_top" xlink:title=" ">
<polygon fill="white" stroke="black" points="185,-0.5 185,-19.5 298,-19.5 298,-0.5 185,-0.5"/>
<text text-anchor="middle" x="241.5" y="-7.5" font-family="Helvetica,sans-Serif" font-size="10.00">Graphics::Shader::Use</text>
</a>
</g>
</g>
<!-- Node1&#45;&gt;Node3 -->
<g id="edge2" class="edge">
<title>Node1&#45;&gt;Node3</title>
<path fill="none" stroke="midnightblue" d="M149.31,-22.16C157.73,-21.04 166.27,-19.9 174.58,-18.79"/>
<polygon fill="midnightblue" stroke="midnightblue" points="175.12,-22.25 184.57,-17.46 174.2,-15.31 175.12,-22.25"/>
</g>
</g>
</svg>
