<?xml version="1.0" encoding="UTF-8" standalone="no"?>
<!DOCTYPE svg PUBLIC "-//W3C//DTD SVG 1.1//EN"
 "http://www.w3.org/Graphics/SVG/1.1/DTD/svg11.dtd">
<!-- Generated by graphviz version 2.47.1 (20210421.1823)
 -->
<!-- Title: Graphics::Image::Draw Pages: 1 -->
<svg width="573pt" height="233pt"
 viewBox="0.00 0.00 573.00 232.50" xmlns="http://www.w3.org/2000/svg" xmlns:xlink="http://www.w3.org/1999/xlink">
<g id="graph0" class="graph" transform="scale(1 1) rotate(0) translate(4 228.5)">
<title>Graphics::Image::Draw</title>
<polygon fill="white" stroke="transparent" points="-4,4 -4,-228.5 569,-228.5 569,4 -4,4"/>
<!-- Node1 -->
<g id="node1" class="node">
<title>Node1</title>
<g id="a_node1"><a xlink:title=" ">
<polygon fill="#bfbfbf" stroke="black" points="0,-79 0,-98 114,-98 114,-79 0,-79"/>
<text text-anchor="middle" x="57" y="-86" font-family="Helvetica,sans-Serif" font-size="10.00">Graphics::Image::Draw</text>
</a>
</g>
</g>
<!-- Node2 -->
<g id="node2" class="node">
<title>Node2</title>
<g id="a_node2"><a xlink:href="class_graphics_1_1_image.html#af48c0e309532eb1ff36e8fdaee244da1" target="_top" xlink:title=" ">
<polygon fill="white" stroke="black" points="150,-148 150,-167 264,-167 264,-148 150,-148"/>
<text text-anchor="middle" x="207" y="-155" font-family="Helvetica,sans-Serif" font-size="10.00">Graphics::Image::Draw</text>
</a>
</g>
</g>
<!-- Node1&#45;&gt;Node2 -->
<g id="edge1" class="edge">
<title>Node1&#45;&gt;Node2</title>
<path fill="none" stroke="midnightblue" d="M74.26,-98.1C92.37,-108.56 122.69,-125.43 150,-137.5 155.44,-139.91 161.28,-142.24 167.05,-144.42"/>
<polygon fill="midnightblue" stroke="midnightblue" points="166.02,-147.77 176.62,-147.92 168.42,-141.2 166.02,-147.77"/>
</g>
<!-- Node8 -->
<g id="node8" class="node">
<title>Node8</title>
<g id="a_node8"><a xlink:href="class_graphics_1_1_transform.html#a7796be5a06b51d8319548f8cdfca6ff7" target="_top" xlink:title=" ">
<polygon fill="white" stroke="black" points="155,-98.5 155,-128.5 259,-128.5 259,-98.5 155,-98.5"/>
<text text-anchor="start" x="163" y="-116.5" font-family="Helvetica,sans-Serif" font-size="10.00">Graphics::Transform</text>
<text text-anchor="middle" x="207" y="-105.5" font-family="Helvetica,sans-Serif" font-size="10.00">::Move</text>
</a>
</g>
</g>
<!-- Node1&#45;&gt;Node8 -->
<g id="edge7" class="edge">
<title>Node1&#45;&gt;Node8</title>
<path fill="none" stroke="midnightblue" d="M114.37,-98.02C124.3,-99.7 134.67,-101.45 144.73,-103.15"/>
<polygon fill="midnightblue" stroke="midnightblue" points="144.2,-106.61 154.64,-104.82 145.36,-99.71 144.2,-106.61"/>
</g>
<!-- Node9 -->
<g id="node9" class="node">
<title>Node9</title>
<g id="a_node9"><a xlink:href="class_graphics_1_1_transform.html#af2c7b869c8803ba0f2f1ecf9f0a5ca37" target="_top" xlink:title=" ">
<polygon fill="white" stroke="black" points="155,-49.5 155,-79.5 259,-79.5 259,-49.5 155,-49.5"/>
<text text-anchor="start" x="163" y="-67.5" font-family="Helvetica,sans-Serif" font-size="10.00">Graphics::Transform</text>
<text text-anchor="middle" x="207" y="-56.5" font-family="Helvetica,sans-Serif" font-size="10.00">::Rotate</text>
</a>
</g>
</g>
<!-- Node1&#45;&gt;Node9 -->
<g id="edge8" class="edge">
<title>Node1&#45;&gt;Node9</title>
<path fill="none" stroke="midnightblue" d="M114.37,-79.36C124.3,-77.75 134.67,-76.07 144.73,-74.44"/>
<polygon fill="midnightblue" stroke="midnightblue" points="145.33,-77.88 154.64,-72.83 144.21,-70.97 145.33,-77.88"/>
</g>
<!-- Node10 -->
<g id="node10" class="node">
<title>Node10</title>
<g id="a_node10"><a xlink:href="class_graphics_1_1_transform.html#a2811e9ce17dcf86f36a7a38ec444ec0f" target="_top" xlink:title=" ">
<polygon fill="white" stroke="black" points="155,-0.5 155,-30.5 259,-30.5 259,-0.5 155,-0.5"/>
<text text-anchor="start" x="163" y="-18.5" font-family="Helvetica,sans-Serif" font-size="10.00">Graphics::Transform</text>
<text text-anchor="middle" x="207" y="-7.5" font-family="Helvetica,sans-Serif" font-size="10.00">::Scale</text>
</a>
</g>
</g>
<!-- Node1&#45;&gt;Node10 -->
<g id="edge9" class="edge">
<title>Node1&#45;&gt;Node10</title>
<path fill="none" stroke="midnightblue" d="M75.07,-78.85C93.38,-68.63 123.4,-52.25 150,-39.5 153.34,-37.9 156.82,-36.28 160.34,-34.69"/>
<polygon fill="midnightblue" stroke="midnightblue" points="161.93,-37.81 169.65,-30.55 159.09,-31.41 161.93,-37.81"/>
</g>
<!-- Node3 -->
<g id="node3" class="node">
<title>Node3</title>
<g id="a_node3"><a xlink:href="class_graphics_1_1_quadrangle.html#a7a061a60b5bff19feb5fd317d06495f0" target="_top" xlink:title=" ">
<polygon fill="white" stroke="black" points="300,-164.5 300,-194.5 410,-194.5 410,-164.5 300,-164.5"/>
<text text-anchor="start" x="308" y="-182.5" font-family="Helvetica,sans-Serif" font-size="10.00">Graphics::Quadrangle</text>
<text text-anchor="middle" x="355" y="-171.5" font-family="Helvetica,sans-Serif" font-size="10.00">::Draw</text>
</a>
</g>
</g>
<!-- Node2&#45;&gt;Node3 -->
<g id="edge2" class="edge">
<title>Node2&#45;&gt;Node3</title>
<path fill="none" stroke="midnightblue" d="M264.03,-165.94C272.47,-167.21 281.23,-168.53 289.82,-169.83"/>
<polygon fill="midnightblue" stroke="midnightblue" points="289.39,-173.3 299.8,-171.33 290.44,-166.38 289.39,-173.3"/>
</g>
<!-- Node6 -->
<g id="node6" class="node">
<title>Node6</title>
<g id="a_node6"><a xlink:href="class_graphics_1_1_shader.html#aa5da414808337285b38565f60c3d7cbd" target="_top" xlink:title=" ">
<polygon fill="white" stroke="black" points="300,-126 300,-145 410,-145 410,-126 300,-126"/>
<text text-anchor="middle" x="355" y="-133" font-family="Helvetica,sans-Serif" font-size="10.00">Graphics::Shader::Set</text>
</a>
</g>
</g>
<!-- Node2&#45;&gt;Node6 -->
<g id="edge5" class="edge">
<title>Node2&#45;&gt;Node6</title>
<path fill="none" stroke="midnightblue" d="M264.03,-149.06C272.47,-147.79 281.23,-146.47 289.82,-145.17"/>
<polygon fill="midnightblue" stroke="midnightblue" points="290.44,-148.62 299.8,-143.67 289.39,-141.7 290.44,-148.62"/>
</g>
<!-- Node4 -->
<g id="node4" class="node">
<title>Node4</title>
<g id="a_node4"><a xlink:href="class_graphics_1_1_shader.html#a63bfd523754bb6b2224aa7a48c65a504" target="_top" xlink:title=" ">
<polygon fill="white" stroke="black" points="446,-205 446,-224 565,-224 565,-205 446,-205"/>
<text text-anchor="middle" x="505.5" y="-212" font-family="Helvetica,sans-Serif" font-size="10.00">Graphics::Shader::GetId</text>
</a>
</g>
</g>
<!-- Node3&#45;&gt;Node4 -->
<g id="edge3" class="edge">
<title>Node3&#45;&gt;Node4</title>
<path fill="none" stroke="midnightblue" d="M410.03,-192.23C424.31,-195.6 439.67,-199.22 453.77,-202.54"/>
<polygon fill="midnightblue" stroke="midnightblue" points="453.25,-206.02 463.78,-204.9 454.85,-199.2 453.25,-206.02"/>
</g>
<!-- Node5 -->
<g id="node5" class="node">
<title>Node5</title>
<g id="a_node5"><a xlink:href="class_graphics_1_1_shader.html#a11a2de17d1d077ec34acd4f7cd57f6b1" target="_top" xlink:title=" ">
<polygon fill="white" stroke="black" points="449,-167 449,-186 562,-186 562,-167 449,-167"/>
<text text-anchor="middle" x="505.5" y="-174" font-family="Helvetica,sans-Serif" font-size="10.00">Graphics::Shader::Use</text>
</a>
</g>
</g>
<!-- Node3&#45;&gt;Node5 -->
<g id="edge4" class="edge">
<title>Node3&#45;&gt;Node5</title>
<path fill="none" stroke="midnightblue" d="M410.03,-178.41C419.29,-178.22 429,-178.03 438.53,-177.83"/>
<polygon fill="midnightblue" stroke="midnightblue" points="438.83,-181.33 448.76,-177.63 438.69,-174.33 438.83,-181.33"/>
</g>
<!-- Node7 -->
<g id="node7" class="node">
<title>Node7</title>
<g id="a_node7"><a xlink:href="class_graphics_1_1_image.html#aab55feadb4b66e0fd78b5f54a6fadde2" target="_top" xlink:title=" ">
<polygon fill="white" stroke="black" points="447.5,-126 447.5,-145 563.5,-145 563.5,-126 447.5,-126"/>
<text text-anchor="middle" x="505.5" y="-133" font-family="Helvetica,sans-Serif" font-size="10.00">Graphics::Image::GetId</text>
</a>
</g>
</g>
<!-- Node6&#45;&gt;Node7 -->
<g id="edge6" class="edge">
<title>Node6&#45;&gt;Node7</title>
<path fill="none" stroke="midnightblue" d="M410.03,-135.5C418.83,-135.5 428.04,-135.5 437.11,-135.5"/>
<polygon fill="midnightblue" stroke="midnightblue" points="437.26,-139 447.26,-135.5 437.26,-132 437.26,-139"/>
</g>
</g>
</svg>
