<?xml version="1.0" encoding="UTF-8" standalone="no"?>
<!DOCTYPE svg PUBLIC "-//W3C//DTD SVG 1.1//EN"
 "http://www.w3.org/Graphics/SVG/1.1/DTD/svg11.dtd">
<!-- Generated by graphviz version 2.47.0 (20210407.0042)
 -->
<!-- Title: Player Pages: 1 -->
<svg width="288pt" height="574pt"
 viewBox="0.00 0.00 288.00 574.00" xmlns="http://www.w3.org/2000/svg" xmlns:xlink="http://www.w3.org/1999/xlink">
<g id="graph0" class="graph" transform="scale(1 1) rotate(0) translate(4 570)">
<title>Player</title>
<polygon fill="white" stroke="transparent" points="-4,4 -4,-570 284,-570 284,4 -4,4"/>
<!-- Node1 -->
<g id="node1" class="node">
<title>Node1</title>
<g id="a_node1"><a xlink:title=" ">
<polygon fill="#bfbfbf" stroke="black" points="13.5,-0.5 13.5,-123.5 87.5,-123.5 87.5,-0.5 13.5,-0.5"/>
<text text-anchor="middle" x="50.5" y="-111.5" font-family="Helvetica,sans-Serif" font-size="10.00">Player</text>
<polyline fill="none" stroke="black" points="13.5,-104.5 87.5,-104.5 "/>
<text text-anchor="middle" x="50.5" y="-92.5" font-family="Helvetica,sans-Serif" font-size="10.00"> </text>
<polyline fill="none" stroke="black" points="13.5,-85.5 87.5,-85.5 "/>
<text text-anchor="start" x="21.5" y="-73.5" font-family="Helvetica,sans-Serif" font-size="10.00">+ Player()</text>
<text text-anchor="start" x="21.5" y="-62.5" font-family="Helvetica,sans-Serif" font-size="10.00">+ Player()</text>
<text text-anchor="start" x="21.5" y="-51.5" font-family="Helvetica,sans-Serif" font-size="10.00">+ ~Player()</text>
<text text-anchor="start" x="21.5" y="-40.5" font-family="Helvetica,sans-Serif" font-size="10.00">+ Stop()</text>
<text text-anchor="start" x="21.5" y="-29.5" font-family="Helvetica,sans-Serif" font-size="10.00">+ SpeedSet()</text>
<text text-anchor="start" x="21.5" y="-18.5" font-family="Helvetica,sans-Serif" font-size="10.00">+ SpeedInc()</text>
<text text-anchor="start" x="21.5" y="-7.5" font-family="Helvetica,sans-Serif" font-size="10.00">+ Tick()</text>
</a>
</g>
</g>
<!-- Node2 -->
<g id="node2" class="node">
<title>Node2</title>
<g id="a_node2"><a xlink:href="class_drawable.html" target="_top" xlink:title=" ">
<polygon fill="white" stroke="black" points="0,-178 0,-290 77,-290 77,-178 0,-178"/>
<text text-anchor="middle" x="38.5" y="-278" font-family="Helvetica,sans-Serif" font-size="10.00">Drawable</text>
<polyline fill="none" stroke="black" points="0,-271 77,-271 "/>
<text text-anchor="middle" x="38.5" y="-259" font-family="Helvetica,sans-Serif" font-size="10.00"> </text>
<polyline fill="none" stroke="black" points="0,-252 77,-252 "/>
<text text-anchor="start" x="8" y="-240" font-family="Helvetica,sans-Serif" font-size="10.00">+ Drawable()</text>
<text text-anchor="start" x="8" y="-229" font-family="Helvetica,sans-Serif" font-size="10.00">+ Drawable()</text>
<text text-anchor="start" x="8" y="-218" font-family="Helvetica,sans-Serif" font-size="10.00">+ Draw()</text>
<text text-anchor="start" x="8" y="-207" font-family="Helvetica,sans-Serif" font-size="10.00">+ ~Drawable()</text>
<text text-anchor="start" x="8" y="-196" font-family="Helvetica,sans-Serif" font-size="10.00">+ GetImg()</text>
<text text-anchor="start" x="8" y="-185" font-family="Helvetica,sans-Serif" font-size="10.00">+ SetImage()</text>
</a>
</g>
</g>
<!-- Node2&#45;&gt;Node1 -->
<g id="edge1" class="edge">
<title>Node2&#45;&gt;Node1</title>
<path fill="none" stroke="midnightblue" d="M43.12,-167.5C44.14,-153.13 45.21,-137.97 46.21,-123.79"/>
<polygon fill="none" stroke="midnightblue" points="39.61,-167.58 42.4,-177.81 46.59,-168.08 39.61,-167.58"/>
</g>
<!-- Node3 -->
<g id="node3" class="node">
<title>Node3</title>
<g id="a_node3"><a xlink:href="class_world_actor.html" target="_top" xlink:title=" ">
<polygon fill="white" stroke="black" points="95,-161.5 95,-306.5 174,-306.5 174,-161.5 95,-161.5"/>
<text text-anchor="middle" x="134.5" y="-294.5" font-family="Helvetica,sans-Serif" font-size="10.00">WorldActor</text>
<polyline fill="none" stroke="black" points="95,-287.5 174,-287.5 "/>
<text text-anchor="start" x="103" y="-275.5" font-family="Helvetica,sans-Serif" font-size="10.00"># fly_</text>
<text text-anchor="start" x="103" y="-264.5" font-family="Helvetica,sans-Serif" font-size="10.00"># rooted_</text>
<polyline fill="none" stroke="black" points="95,-257.5 174,-257.5 "/>
<text text-anchor="start" x="103" y="-245.5" font-family="Helvetica,sans-Serif" font-size="10.00">+ WorldActor()</text>
<text text-anchor="start" x="103" y="-234.5" font-family="Helvetica,sans-Serif" font-size="10.00">+ Move()</text>
<text text-anchor="start" x="103" y="-223.5" font-family="Helvetica,sans-Serif" font-size="10.00">+ Tick()</text>
<text text-anchor="start" x="103" y="-212.5" font-family="Helvetica,sans-Serif" font-size="10.00">+ IncSpeed()</text>
<text text-anchor="start" x="103" y="-201.5" font-family="Helvetica,sans-Serif" font-size="10.00">+ SetSpeed()</text>
<text text-anchor="start" x="103" y="-190.5" font-family="Helvetica,sans-Serif" font-size="10.00">+ GetX()</text>
<text text-anchor="start" x="103" y="-179.5" font-family="Helvetica,sans-Serif" font-size="10.00">+ GetY()</text>
<text text-anchor="start" x="103" y="-168.5" font-family="Helvetica,sans-Serif" font-size="10.00">+ Distance()</text>
</a>
</g>
</g>
<!-- Node3&#45;&gt;Node1 -->
<g id="edge2" class="edge">
<title>Node3&#45;&gt;Node1</title>
<path fill="none" stroke="midnightblue" d="M94.6,-152.25C89.86,-142.66 85.09,-133 80.52,-123.76"/>
<polygon fill="none" stroke="midnightblue" points="91.55,-153.98 99.12,-161.4 97.83,-150.88 91.55,-153.98"/>
</g>
<!-- Node4 -->
<g id="node4" class="node">
<title>Node4</title>
<g id="a_node4"><a xlink:href="class_tickable.html" target="_top" xlink:title=" ">
<polygon fill="white" stroke="black" points="17,-437 17,-494 70,-494 70,-437 17,-437"/>
<text text-anchor="middle" x="43.5" y="-482" font-family="Helvetica,sans-Serif" font-size="10.00">Tickable</text>
<polyline fill="none" stroke="black" points="17,-475 70,-475 "/>
<text text-anchor="middle" x="43.5" y="-463" font-family="Helvetica,sans-Serif" font-size="10.00"> </text>
<polyline fill="none" stroke="black" points="17,-456 70,-456 "/>
<text text-anchor="start" x="25" y="-444" font-family="Helvetica,sans-Serif" font-size="10.00">+ Tick()</text>
</a>
</g>
</g>
<!-- Node4&#45;&gt;Node3 -->
<g id="edge3" class="edge">
<title>Node4&#45;&gt;Node3</title>
<path fill="none" stroke="#8b1a1a" d="M56.45,-427.24C63.11,-408.48 71.48,-385.44 79.5,-365 86.97,-345.95 95.42,-325.5 103.41,-306.58"/>
<polygon fill="none" stroke="#8b1a1a" points="53.07,-426.31 53.04,-436.9 59.67,-428.64 53.07,-426.31"/>
</g>
<!-- Node5 -->
<g id="node5" class="node">
<title>Node5</title>
<g id="a_node5"><a xlink:href="struct_vector2_d.html" target="_top" xlink:title=" ">
<polygon fill="white" stroke="black" points="88.5,-365.5 88.5,-565.5 180.5,-565.5 180.5,-365.5 88.5,-365.5"/>
<text text-anchor="middle" x="134.5" y="-553.5" font-family="Helvetica,sans-Serif" font-size="10.00">Vector2D&lt; float &gt;</text>
<polyline fill="none" stroke="black" points="88.5,-546.5 180.5,-546.5 "/>
<text text-anchor="start" x="96.5" y="-534.5" font-family="Helvetica,sans-Serif" font-size="10.00">+ x</text>
<text text-anchor="start" x="96.5" y="-523.5" font-family="Helvetica,sans-Serif" font-size="10.00">+ y</text>
<polyline fill="none" stroke="black" points="88.5,-516.5 180.5,-516.5 "/>
<text text-anchor="start" x="96.5" y="-504.5" font-family="Helvetica,sans-Serif" font-size="10.00">+ Vector2D()</text>
<text text-anchor="start" x="96.5" y="-493.5" font-family="Helvetica,sans-Serif" font-size="10.00">+ Vector2D()</text>
<text text-anchor="start" x="96.5" y="-482.5" font-family="Helvetica,sans-Serif" font-size="10.00">+ Vector2D()</text>
<text text-anchor="start" x="96.5" y="-471.5" font-family="Helvetica,sans-Serif" font-size="10.00">+ Vector2D()</text>
<text text-anchor="start" x="96.5" y="-460.5" font-family="Helvetica,sans-Serif" font-size="10.00">+ operator=()</text>
<text text-anchor="start" x="96.5" y="-449.5" font-family="Helvetica,sans-Serif" font-size="10.00">+ operator&#45;()</text>
<text text-anchor="start" x="96.5" y="-438.5" font-family="Helvetica,sans-Serif" font-size="10.00">+ operator+=()</text>
<text text-anchor="start" x="96.5" y="-427.5" font-family="Helvetica,sans-Serif" font-size="10.00">+ operator&#45;=()</text>
<text text-anchor="start" x="96.5" y="-416.5" font-family="Helvetica,sans-Serif" font-size="10.00">+ operator*=()</text>
<text text-anchor="start" x="96.5" y="-405.5" font-family="Helvetica,sans-Serif" font-size="10.00">+ operator*()</text>
<text text-anchor="start" x="96.5" y="-394.5" font-family="Helvetica,sans-Serif" font-size="10.00">+ operator/=()</text>
<text text-anchor="start" x="96.5" y="-383.5" font-family="Helvetica,sans-Serif" font-size="10.00">+ operator/()</text>
<text text-anchor="start" x="96.5" y="-372.5" font-family="Helvetica,sans-Serif" font-size="10.00">+ dist()</text>
</a>
</g>
</g>
<!-- Node5&#45;&gt;Node3 -->
<g id="edge4" class="edge">
<title>Node5&#45;&gt;Node3</title>
<path fill="none" stroke="#404040" d="M134.5,-365.17C134.5,-349.84 134.5,-334.13 134.5,-319.18"/>
<polygon fill="none" stroke="#404040" points="134.5,-318.81 130.5,-312.81 134.5,-306.81 138.5,-312.81 134.5,-318.81"/>
<text text-anchor="middle" x="158" y="-339" font-family="Helvetica,sans-Serif" font-size="10.00"> #position_</text>
<text text-anchor="middle" x="158" y="-328" font-family="Helvetica,sans-Serif" font-size="10.00">#speed_</text>
</g>
<!-- Node6 -->
<g id="node6" class="node">
<title>Node6</title>
<g id="a_node6"><a xlink:href="class_field.html" target="_top" xlink:title=" ">
<polygon fill="white" stroke="black" points="199,-382 199,-549 280,-549 280,-382 199,-382"/>
<text text-anchor="middle" x="239.5" y="-537" font-family="Helvetica,sans-Serif" font-size="10.00">Field</text>
<polyline fill="none" stroke="black" points="199,-530 280,-530 "/>
<text text-anchor="middle" x="239.5" y="-518" font-family="Helvetica,sans-Serif" font-size="10.00"> </text>
<polyline fill="none" stroke="black" points="199,-511 280,-511 "/>
<text text-anchor="start" x="207" y="-499" font-family="Helvetica,sans-Serif" font-size="10.00">+ GetWidth()</text>
<text text-anchor="start" x="207" y="-488" font-family="Helvetica,sans-Serif" font-size="10.00">+ GetHeight()</text>
<text text-anchor="start" x="207" y="-477" font-family="Helvetica,sans-Serif" font-size="10.00">+ Field()</text>
<text text-anchor="start" x="207" y="-466" font-family="Helvetica,sans-Serif" font-size="10.00">+ Field()</text>
<text text-anchor="start" x="207" y="-455" font-family="Helvetica,sans-Serif" font-size="10.00">+ operator[]()</text>
<text text-anchor="start" x="207" y="-444" font-family="Helvetica,sans-Serif" font-size="10.00">+ operator[]()</text>
<text text-anchor="start" x="207" y="-433" font-family="Helvetica,sans-Serif" font-size="10.00">+ GetCell()</text>
<text text-anchor="start" x="207" y="-422" font-family="Helvetica,sans-Serif" font-size="10.00">+ GetBuilding()</text>
<text text-anchor="start" x="207" y="-411" font-family="Helvetica,sans-Serif" font-size="10.00">+ Draw()</text>
<text text-anchor="start" x="207" y="-400" font-family="Helvetica,sans-Serif" font-size="10.00">+ Tick()</text>
<text text-anchor="start" x="207" y="-389" font-family="Helvetica,sans-Serif" font-size="10.00">+ GetCellPos()</text>
</a>
</g>
</g>
<!-- Node6&#45;&gt;Node3 -->
<g id="edge5" class="edge">
<title>Node6&#45;&gt;Node3</title>
<path fill="none" stroke="#404040" d="M209.77,-381.78C202.36,-362.89 194.06,-343.07 185.5,-325 183.62,-321.03 181.64,-317 179.58,-312.96"/>
<polygon fill="none" stroke="#404040" points="179.55,-312.9 173.23,-309.42 174.01,-302.26 180.33,-305.73 179.55,-312.9"/>
<text text-anchor="middle" x="209" y="-333.5" font-family="Helvetica,sans-Serif" font-size="10.00"> #field_</text>
</g>
</g>
</svg>
