<?xml version="1.0" encoding="UTF-8" standalone="no"?>
<!DOCTYPE svg PUBLIC "-//W3C//DTD SVG 1.1//EN"
 "http://www.w3.org/Graphics/SVG/1.1/DTD/svg11.dtd">
<!-- Generated by graphviz version 2.47.0 (20210407.0042)
 -->
<!-- Title: GUI::GUIWindow Pages: 1 -->
<svg width="164pt" height="193pt"
 viewBox="0.00 0.00 164.00 193.00" xmlns="http://www.w3.org/2000/svg" xmlns:xlink="http://www.w3.org/1999/xlink">
<g id="graph0" class="graph" transform="scale(1 1) rotate(0) translate(4 189)">
<title>GUI::GUIWindow</title>
<polygon fill="white" stroke="transparent" points="-4,4 -4,-189 160,-189 160,4 -4,4"/>
<!-- Node1 -->
<g id="node1" class="node">
<title>Node1</title>
<g id="a_node1"><a xlink:title=" ">
<polygon fill="#bfbfbf" stroke="black" points="36.5,-116.5 36.5,-184.5 128.5,-184.5 128.5,-116.5 36.5,-116.5"/>
<text text-anchor="middle" x="82.5" y="-172.5" font-family="Helvetica,sans-Serif" font-size="10.00">GUI::GUIWindow</text>
<polyline fill="none" stroke="black" points="36.5,-165.5 128.5,-165.5 "/>
<text text-anchor="middle" x="82.5" y="-153.5" font-family="Helvetica,sans-Serif" font-size="10.00"> </text>
<polyline fill="none" stroke="black" points="36.5,-146.5 128.5,-146.5 "/>
<text text-anchor="start" x="44.5" y="-134.5" font-family="Helvetica,sans-Serif" font-size="10.00">+ Click()</text>
<text text-anchor="start" x="44.5" y="-123.5" font-family="Helvetica,sans-Serif" font-size="10.00">+ Draw()</text>
</a>
</g>
</g>
<!-- Node2 -->
<g id="node2" class="node">
<title>Node2</title>
<g id="a_node2"><a xlink:href="class_g_u_i_1_1_inventory.html" target="_top" xlink:title=" ">
<polygon fill="white" stroke="black" points="0,-0.5 0,-79.5 79,-79.5 79,-0.5 0,-0.5"/>
<text text-anchor="middle" x="39.5" y="-67.5" font-family="Helvetica,sans-Serif" font-size="10.00">GUI::Inventory</text>
<polyline fill="none" stroke="black" points="0,-60.5 79,-60.5 "/>
<text text-anchor="middle" x="39.5" y="-48.5" font-family="Helvetica,sans-Serif" font-size="10.00"> </text>
<polyline fill="none" stroke="black" points="0,-41.5 79,-41.5 "/>
<text text-anchor="start" x="8" y="-29.5" font-family="Helvetica,sans-Serif" font-size="10.00">+ Inventory()</text>
<text text-anchor="start" x="8" y="-18.5" font-family="Helvetica,sans-Serif" font-size="10.00">+ Draw()</text>
<text text-anchor="start" x="8" y="-7.5" font-family="Helvetica,sans-Serif" font-size="10.00">+ Click()</text>
</a>
</g>
</g>
<!-- Node1&#45;&gt;Node2 -->
<g id="edge1" class="edge">
<title>Node1&#45;&gt;Node2</title>
<path fill="none" stroke="midnightblue" d="M65.6,-106.85C62.04,-97.88 58.31,-88.46 54.82,-79.65"/>
<polygon fill="none" stroke="midnightblue" points="62.43,-108.35 69.36,-116.36 68.93,-105.77 62.43,-108.35"/>
</g>
<!-- Node3 -->
<g id="node3" class="node">
<title>Node3</title>
<g id="a_node3"><a xlink:href="class_g_u_i_1_1_item.html" target="_top" xlink:title=" ">
<polygon fill="white" stroke="black" points="97,-0.5 97,-79.5 156,-79.5 156,-0.5 97,-0.5"/>
<text text-anchor="middle" x="126.5" y="-67.5" font-family="Helvetica,sans-Serif" font-size="10.00">GUI::Item</text>
<polyline fill="none" stroke="black" points="97,-60.5 156,-60.5 "/>
<text text-anchor="middle" x="126.5" y="-48.5" font-family="Helvetica,sans-Serif" font-size="10.00"> </text>
<polyline fill="none" stroke="black" points="97,-41.5 156,-41.5 "/>
<text text-anchor="start" x="105" y="-29.5" font-family="Helvetica,sans-Serif" font-size="10.00">+ Item()</text>
<text text-anchor="start" x="105" y="-18.5" font-family="Helvetica,sans-Serif" font-size="10.00">+ Draw()</text>
<text text-anchor="start" x="105" y="-7.5" font-family="Helvetica,sans-Serif" font-size="10.00">+ Click()</text>
</a>
</g>
</g>
<!-- Node1&#45;&gt;Node3 -->
<g id="edge2" class="edge">
<title>Node1&#45;&gt;Node3</title>
<path fill="none" stroke="midnightblue" d="M99.8,-106.85C103.43,-97.88 107.25,-88.46 110.83,-79.65"/>
<polygon fill="none" stroke="midnightblue" points="96.46,-105.77 95.94,-116.36 102.94,-108.41 96.46,-105.77"/>
</g>
</g>
</svg>
