<?xml version="1.0" encoding="UTF-8" standalone="no"?>
<!DOCTYPE svg PUBLIC "-//W3C//DTD SVG 1.1//EN"
 "http://www.w3.org/Graphics/SVG/1.1/DTD/svg11.dtd">
<!-- Generated by graphviz version 2.47.1 (20210421.1823)
 -->
<!-- Title: Graphics::Transform::Move Pages: 1 -->
<svg width="307pt" height="127pt"
 viewBox="0.00 0.00 307.00 126.50" xmlns="http://www.w3.org/2000/svg" xmlns:xlink="http://www.w3.org/1999/xlink">
<g id="graph0" class="graph" transform="scale(1 1) rotate(0) translate(4 122.5)">
<title>Graphics::Transform::Move</title>
<polygon fill="white" stroke="transparent" points="-4,4 -4,-122.5 303,-122.5 303,4 -4,4"/>
<!-- Node1 -->
<g id="node1" class="node">
<title>Node1</title>
<g id="a_node1"><a xlink:title=" ">
<polygon fill="#bfbfbf" stroke="black" points="195,-49.5 195,-79.5 299,-79.5 299,-49.5 195,-49.5"/>
<text text-anchor="start" x="203" y="-67.5" font-family="Helvetica,sans-Serif" font-size="10.00">Graphics::Transform</text>
<text text-anchor="middle" x="247" y="-56.5" font-family="Helvetica,sans-Serif" font-size="10.00">::Move</text>
</a>
</g>
</g>
<!-- Node2 -->
<g id="node2" class="node">
<title>Node2</title>
<g id="a_node2"><a xlink:href="class_graphics_1_1_image.html#a880481ff1290a4b0dd916e0ff1402b51" target="_top" xlink:title=" ">
<polygon fill="white" stroke="black" points="22.5,-99 22.5,-118 136.5,-118 136.5,-99 22.5,-99"/>
<text text-anchor="middle" x="79.5" y="-106" font-family="Helvetica,sans-Serif" font-size="10.00">Graphics::Image::Draw</text>
</a>
</g>
</g>
<!-- Node1&#45;&gt;Node2 -->
<g id="edge1" class="edge">
<title>Node1&#45;&gt;Node2</title>
<path fill="none" stroke="midnightblue" d="M185.22,-82.32C176.44,-84.79 167.5,-87.25 159,-89.5 146.8,-92.73 133.48,-96.03 121.33,-98.97"/>
<polygon fill="midnightblue" stroke="midnightblue" points="186.37,-85.63 195.04,-79.54 184.46,-78.9 186.37,-85.63"/>
</g>
<!-- Node3 -->
<g id="node3" class="node">
<title>Node3</title>
<g id="a_node3"><a xlink:href="class_graphics_1_1_quadrangle.html#aa297320f02fc825114635fb0c05760ad" target="_top" xlink:title=" ">
<polygon fill="white" stroke="black" points="24.5,-49.5 24.5,-79.5 134.5,-79.5 134.5,-49.5 24.5,-49.5"/>
<text text-anchor="start" x="32.5" y="-67.5" font-family="Helvetica,sans-Serif" font-size="10.00">Graphics::Quadrangle</text>
<text text-anchor="middle" x="79.5" y="-56.5" font-family="Helvetica,sans-Serif" font-size="10.00">::Draw</text>
</a>
</g>
</g>
<!-- Node1&#45;&gt;Node3 -->
<g id="edge2" class="edge">
<title>Node1&#45;&gt;Node3</title>
<path fill="none" stroke="midnightblue" d="M184.94,-64.5C168.5,-64.5 150.83,-64.5 134.78,-64.5"/>
<polygon fill="midnightblue" stroke="midnightblue" points="184.99,-68 194.99,-64.5 184.99,-61 184.99,-68"/>
</g>
<!-- Node4 -->
<g id="node4" class="node">
<title>Node4</title>
<g id="a_node4"><a xlink:href="class_graphics_1_1_window.html#a8c9f4d2a14be1c7c17cc2a9ad855aecc" target="_top" xlink:title=" ">
<polygon fill="white" stroke="black" points="0,-0.5 0,-30.5 159,-30.5 159,-0.5 0,-0.5"/>
<text text-anchor="start" x="8" y="-18.5" font-family="Helvetica,sans-Serif" font-size="10.00">Graphics::Window::GetTransform</text>
<text text-anchor="middle" x="79.5" y="-7.5" font-family="Helvetica,sans-Serif" font-size="10.00">Coordinates</text>
</a>
</g>
</g>
<!-- Node1&#45;&gt;Node4 -->
<g id="edge3" class="edge">
<title>Node1&#45;&gt;Node4</title>
<path fill="none" stroke="midnightblue" d="M185.32,-46.53C167.58,-41.28 148.39,-35.6 131.34,-30.55"/>
<polygon fill="midnightblue" stroke="midnightblue" points="184.41,-49.92 194.99,-49.4 186.4,-43.2 184.41,-49.92"/>
</g>
</g>
</svg>
