<?xml version="1.0" encoding="UTF-8" standalone="no"?>
<!DOCTYPE svg PUBLIC "-//W3C//DTD SVG 1.1//EN"
 "http://www.w3.org/Graphics/SVG/1.1/DTD/svg11.dtd">
<!-- Generated by graphviz version 2.47.0 (20210407.0042)
 -->
<!-- Title: UnitGroup::Tick Pages: 1 -->
<svg width="352pt" height="85pt"
 viewBox="0.00 0.00 352.00 85.00" xmlns="http://www.w3.org/2000/svg" xmlns:xlink="http://www.w3.org/1999/xlink">
<g id="graph0" class="graph" transform="scale(1 1) rotate(0) translate(4 81)">
<title>UnitGroup::Tick</title>
<polygon fill="white" stroke="transparent" points="-4,4 -4,-81 348,-81 348,4 -4,4"/>
<!-- Node1 -->
<g id="node1" class="node">
<title>Node1</title>
<g id="a_node1"><a xlink:title=" ">
<polygon fill="#bfbfbf" stroke="black" points="0,-38.5 0,-57.5 84,-57.5 84,-38.5 0,-38.5"/>
<text text-anchor="middle" x="42" y="-45.5" font-family="Helvetica,sans-Serif" font-size="10.00">UnitGroup::Tick</text>
</a>
</g>
</g>
<!-- Node2 -->
<g id="node2" class="node">
<title>Node2</title>
<g id="a_node2"><a xlink:href="class_world_actor.html#aecbb8afbd9de2f64f17e9ac32b9af335" target="_top" xlink:title=" ">
<polygon fill="white" stroke="black" points="120,-57.5 120,-76.5 227,-76.5 227,-57.5 120,-57.5"/>
<text text-anchor="middle" x="173.5" y="-64.5" font-family="Helvetica,sans-Serif" font-size="10.00">WorldActor::Distance</text>
</a>
</g>
</g>
<!-- Node1&#45;&gt;Node2 -->
<g id="edge1" class="edge">
<title>Node1&#45;&gt;Node2</title>
<path fill="none" stroke="midnightblue" d="M84.33,-54.06C92.42,-55.25 101.07,-56.52 109.67,-57.78"/>
<polygon fill="midnightblue" stroke="midnightblue" points="109.31,-61.27 119.72,-59.26 110.33,-54.34 109.31,-61.27"/>
</g>
<!-- Node3 -->
<g id="node3" class="node">
<title>Node3</title>
<g id="a_node3"><a xlink:href="class_world_actor.html#a211b1d4fdcd4eaed756b3602b6dfb412" target="_top" xlink:title=" ">
<polygon fill="white" stroke="black" points="129.5,-19.5 129.5,-38.5 217.5,-38.5 217.5,-19.5 129.5,-19.5"/>
<text text-anchor="middle" x="173.5" y="-26.5" font-family="Helvetica,sans-Serif" font-size="10.00">WorldActor::Tick</text>
</a>
</g>
</g>
<!-- Node1&#45;&gt;Node3 -->
<g id="edge2" class="edge">
<title>Node1&#45;&gt;Node3</title>
<path fill="none" stroke="midnightblue" d="M84.33,-41.94C95.44,-40.31 107.61,-38.52 119.26,-36.81"/>
<polygon fill="midnightblue" stroke="midnightblue" points="119.95,-40.25 129.33,-35.33 118.93,-33.32 119.95,-40.25"/>
</g>
<!-- Node4 -->
<g id="node4" class="node">
<title>Node4</title>
<g id="a_node4"><a xlink:href="class_field.html#ae4f590bead2c56d2962a5362e8d127a4" target="_top" xlink:title=" ">
<polygon fill="white" stroke="black" points="266.5,-38.5 266.5,-57.5 340.5,-57.5 340.5,-38.5 266.5,-38.5"/>
<text text-anchor="middle" x="303.5" y="-45.5" font-family="Helvetica,sans-Serif" font-size="10.00">Field::GetCell</text>
</a>
</g>
</g>
<!-- Node3&#45;&gt;Node4 -->
<g id="edge3" class="edge">
<title>Node3&#45;&gt;Node4</title>
<path fill="none" stroke="midnightblue" d="M217.83,-35.43C230.19,-37.27 243.69,-39.27 256.21,-41.13"/>
<polygon fill="midnightblue" stroke="midnightblue" points="256.05,-44.64 266.45,-42.65 257.07,-37.72 256.05,-44.64"/>
</g>
<!-- Node5 -->
<g id="node5" class="node">
<title>Node5</title>
<g id="a_node5"><a xlink:href="class_cell.html#ac21e31812473f2d969ff434b35a81825" target="_top" xlink:title=" ">
<polygon fill="white" stroke="black" points="263,-0.5 263,-19.5 344,-19.5 344,-0.5 263,-0.5"/>
<text text-anchor="middle" x="303.5" y="-7.5" font-family="Helvetica,sans-Serif" font-size="10.00">Cell::GetSpeed</text>
</a>
</g>
</g>
<!-- Node3&#45;&gt;Node5 -->
<g id="edge4" class="edge">
<title>Node3&#45;&gt;Node5</title>
<path fill="none" stroke="midnightblue" d="M217.83,-22.57C229.05,-20.9 241.22,-19.1 252.74,-17.39"/>
<polygon fill="midnightblue" stroke="midnightblue" points="253.28,-20.84 262.66,-15.91 252.25,-13.92 253.28,-20.84"/>
</g>
</g>
</svg>
