<?xml version="1.0" encoding="UTF-8" standalone="no"?>
<!DOCTYPE svg PUBLIC "-//W3C//DTD SVG 1.1//EN"
 "http://www.w3.org/Graphics/SVG/1.1/DTD/svg11.dtd">
<!-- Generated by graphviz version 2.47.1 (20210421.1823)
 -->
<!-- Title: Field::SetBuilding Pages: 1 -->
<svg width="356pt" height="47pt"
 viewBox="0.00 0.00 356.00 47.00" xmlns="http://www.w3.org/2000/svg" xmlns:xlink="http://www.w3.org/1999/xlink">
<g id="graph0" class="graph" transform="scale(1 1) rotate(0) translate(4 43)">
<title>Field::SetBuilding</title>
<polygon fill="white" stroke="transparent" points="-4,4 -4,-43 352,-43 352,4 -4,4"/>
<!-- Node1 -->
<g id="node1" class="node">
<title>Node1</title>
<g id="a_node1"><a xlink:title=" ">
<polygon fill="#bfbfbf" stroke="black" points="0,-0.5 0,-19.5 92,-19.5 92,-0.5 0,-0.5"/>
<text text-anchor="middle" x="46" y="-7.5" font-family="Helvetica,sans-Serif" font-size="10.00">Field::SetBuilding</text>
</a>
</g>
</g>
<!-- Node2 -->
<g id="node2" class="node">
<title>Node2</title>
<g id="a_node2"><a xlink:href="class_field.html#a8ce096331f51a8e41e54c0ce4e8ac43a" target="_top" xlink:title=" ">
<polygon fill="white" stroke="black" points="128,-19.5 128,-38.5 220,-38.5 220,-19.5 128,-19.5"/>
<text text-anchor="middle" x="174" y="-26.5" font-family="Helvetica,sans-Serif" font-size="10.00">Field::GetBuilding</text>
</a>
</g>
</g>
<!-- Node1&#45;&gt;Node2 -->
<g id="edge1" class="edge">
<title>Node1&#45;&gt;Node2</title>
<path fill="none" stroke="midnightblue" d="M92.13,-16.81C100.46,-18.06 109.23,-19.38 117.81,-20.68"/>
<polygon fill="midnightblue" stroke="midnightblue" points="117.35,-24.15 127.76,-22.18 118.39,-17.23 117.35,-24.15"/>
</g>
<!-- Node3 -->
<g id="node3" class="node">
<title>Node3</title>
<g id="a_node3"><a xlink:href="class_field.html#a81822f0090fbb9f187fe4d3d15c7ab96" target="_top" xlink:title=" ">
<polygon fill="white" stroke="black" points="256,-0.5 256,-19.5 348,-19.5 348,-0.5 256,-0.5"/>
<text text-anchor="middle" x="302" y="-7.5" font-family="Helvetica,sans-Serif" font-size="10.00">Field::GetCellPos</text>
</a>
</g>
</g>
<!-- Node1&#45;&gt;Node3 -->
<g id="edge3" class="edge">
<title>Node1&#45;&gt;Node3</title>
<path fill="none" stroke="midnightblue" d="M92.12,-10C135.06,-10 199.77,-10 245.78,-10"/>
<polygon fill="midnightblue" stroke="midnightblue" points="245.88,-13.5 255.88,-10 245.88,-6.5 245.88,-13.5"/>
</g>
<!-- Node2&#45;&gt;Node3 -->
<g id="edge2" class="edge">
<title>Node2&#45;&gt;Node3</title>
<path fill="none" stroke="midnightblue" d="M220.13,-22.19C228.46,-20.94 237.23,-19.62 245.81,-18.32"/>
<polygon fill="midnightblue" stroke="midnightblue" points="246.39,-21.77 255.76,-16.82 245.35,-14.85 246.39,-21.77"/>
</g>
</g>
</svg>
