<?xml version="1.0" encoding="UTF-8" standalone="no"?>
<!DOCTYPE svg PUBLIC "-//W3C//DTD SVG 1.1//EN"
 "http://www.w3.org/Graphics/SVG/1.1/DTD/svg11.dtd">
<!-- Generated by graphviz version 2.47.1 (20210421.1823)
 -->
<!-- Title: Graphics::ResourceManager::GetShader Pages: 1 -->
<svg width="843pt" height="154pt"
 viewBox="0.00 0.00 843.00 153.50" xmlns="http://www.w3.org/2000/svg" xmlns:xlink="http://www.w3.org/1999/xlink">
<g id="graph0" class="graph" transform="scale(1 1) rotate(0) translate(4 149.5)">
<title>Graphics::ResourceManager::GetShader</title>
<polygon fill="white" stroke="transparent" points="-4,4 -4,-149.5 839,-149.5 839,4 -4,4"/>
<!-- Node1 -->
<g id="node1" class="node">
<title>Node1</title>
<g id="a_node1"><a xlink:title=" ">
<polygon fill="#bfbfbf" stroke="black" points="696,-63.5 696,-93.5 835,-93.5 835,-63.5 696,-63.5"/>
<text text-anchor="start" x="704" y="-81.5" font-family="Helvetica,sans-Serif" font-size="10.00">Graphics::ResourceManager</text>
<text text-anchor="middle" x="765.5" y="-70.5" font-family="Helvetica,sans-Serif" font-size="10.00">::GetShader</text>
</a>
</g>
</g>
<!-- Node2 -->
<g id="node2" class="node">
<title>Node2</title>
<g id="a_node2"><a xlink:href="class_g_u_i_1_1_inventory.html#a21d5b891441704d9eed170c5608cbb5e" target="_top" xlink:title=" ">
<polygon fill="white" stroke="black" points="554,-126 554,-145 660,-145 660,-126 554,-126"/>
<text text-anchor="middle" x="607" y="-133" font-family="Helvetica,sans-Serif" font-size="10.00">GUI::Inventory::Draw</text>
</a>
</g>
</g>
<!-- Node1&#45;&gt;Node2 -->
<g id="edge1" class="edge">
<title>Node1&#45;&gt;Node2</title>
<path fill="none" stroke="midnightblue" d="M713.49,-97.08C687.12,-106.68 656.02,-118.01 634.46,-125.86"/>
<polygon fill="midnightblue" stroke="midnightblue" points="714.77,-100.34 722.97,-93.63 712.38,-93.76 714.77,-100.34"/>
</g>
<!-- Node3 -->
<g id="node3" class="node">
<title>Node3</title>
<g id="a_node3"><a xlink:href="class_g_u_i_1_1_item.html#ab089785456c77b4ff16f15dc7b6bd8fa" target="_top" xlink:title=" ">
<polygon fill="white" stroke="black" points="564,-88 564,-107 650,-107 650,-88 564,-88"/>
<text text-anchor="middle" x="607" y="-95" font-family="Helvetica,sans-Serif" font-size="10.00">GUI::Item::Draw</text>
</a>
</g>
</g>
<!-- Node1&#45;&gt;Node3 -->
<g id="edge2" class="edge">
<title>Node1&#45;&gt;Node3</title>
<path fill="none" stroke="midnightblue" d="M685.57,-88.08C673.3,-89.57 661.04,-91.06 650.02,-92.4"/>
<polygon fill="midnightblue" stroke="midnightblue" points="686.35,-91.51 695.86,-86.83 685.51,-84.56 686.35,-91.51"/>
</g>
<!-- Node4 -->
<g id="node4" class="node">
<title>Node4</title>
<g id="a_node4"><a xlink:href="class_drawable.html#ac46f25a963a3fe3e9176461d61d213c7" target="_top" xlink:title=" ">
<polygon fill="white" stroke="black" points="565,-50 565,-69 649,-69 649,-50 565,-50"/>
<text text-anchor="middle" x="607" y="-57" font-family="Helvetica,sans-Serif" font-size="10.00">Drawable::Draw</text>
</a>
</g>
</g>
<!-- Node1&#45;&gt;Node4 -->
<g id="edge3" class="edge">
<title>Node1&#45;&gt;Node4</title>
<path fill="none" stroke="midnightblue" d="M685.73,-68.94C673.07,-67.4 660.43,-65.87 649.14,-64.49"/>
<polygon fill="midnightblue" stroke="midnightblue" points="685.51,-72.44 695.86,-70.17 686.35,-65.49 685.51,-72.44"/>
</g>
<!-- Node10 -->
<g id="node10" class="node">
<title>Node10</title>
<g id="a_node10"><a xlink:href="namespace_graphics_1_1_resource_parser.html#a6a538c07babc9bbaf884e0aeb9654fe0" target="_top" xlink:title=" ">
<polygon fill="white" stroke="black" points="388,-0.5 388,-30.5 518,-30.5 518,-0.5 388,-0.5"/>
<text text-anchor="start" x="396" y="-18.5" font-family="Helvetica,sans-Serif" font-size="10.00">Graphics::ResourceParser</text>
<text text-anchor="middle" x="453" y="-7.5" font-family="Helvetica,sans-Serif" font-size="10.00">::LoadResources</text>
</a>
</g>
</g>
<!-- Node1&#45;&gt;Node10 -->
<g id="edge10" class="edge">
<title>Node1&#45;&gt;Node10</title>
<path fill="none" stroke="midnightblue" d="M719.82,-59.71C701.56,-52.7 680.05,-45.3 660,-40.5 613.22,-29.31 559.21,-22.99 518.23,-19.51"/>
<polygon fill="midnightblue" stroke="midnightblue" points="718.74,-63.05 729.33,-63.43 721.29,-56.53 718.74,-63.05"/>
</g>
<!-- Node5 -->
<g id="node5" class="node">
<title>Node5</title>
<g id="a_node5"><a xlink:href="class_engine.html#a39f23d7f0ad86322bfdb73d4e6763005" target="_top" xlink:title=" ">
<polygon fill="white" stroke="black" points="178,-50 178,-69 251,-69 251,-50 178,-50"/>
<text text-anchor="middle" x="214.5" y="-57" font-family="Helvetica,sans-Serif" font-size="10.00">Engine::Draw</text>
</a>
</g>
</g>
<!-- Node4&#45;&gt;Node5 -->
<g id="edge4" class="edge">
<title>Node4&#45;&gt;Node5</title>
<path fill="none" stroke="midnightblue" d="M560.29,-71.3C546.77,-74.26 531.87,-77.02 518,-78.5 415.91,-89.4 388.8,-91.8 287,-78.5 272.74,-76.64 257.27,-72.77 244.38,-69"/>
<polygon fill="midnightblue" stroke="midnightblue" points="561.35,-74.65 570.32,-69.01 559.79,-67.82 561.35,-74.65"/>
</g>
<!-- Node8 -->
<g id="node8" class="node">
<title>Node8</title>
<g id="a_node8"><a xlink:href="class_cell.html#ac88160c4177e146f8dd7482c4eaee4f0" target="_top" xlink:title=" ">
<polygon fill="white" stroke="black" points="423,-50 423,-69 483,-69 483,-50 423,-50"/>
<text text-anchor="middle" x="453" y="-57" font-family="Helvetica,sans-Serif" font-size="10.00">Cell::Draw</text>
</a>
</g>
</g>
<!-- Node4&#45;&gt;Node8 -->
<g id="edge7" class="edge">
<title>Node4&#45;&gt;Node8</title>
<path fill="none" stroke="midnightblue" d="M554.56,-59.5C530.74,-59.5 503.31,-59.5 483.12,-59.5"/>
<polygon fill="midnightblue" stroke="midnightblue" points="554.87,-63 564.87,-59.5 554.87,-56 554.87,-63"/>
</g>
<!-- Node6 -->
<g id="node6" class="node">
<title>Node6</title>
<g id="a_node6"><a xlink:href="class_game.html#adb05b20574551a26f8cf1dc664782790" target="_top" xlink:title=" ">
<polygon fill="white" stroke="black" points="74,-28 74,-47 142,-47 142,-28 74,-28"/>
<text text-anchor="middle" x="108" y="-35" font-family="Helvetica,sans-Serif" font-size="10.00">Game::Start</text>
</a>
</g>
</g>
<!-- Node5&#45;&gt;Node6 -->
<g id="edge5" class="edge">
<title>Node5&#45;&gt;Node6</title>
<path fill="none" stroke="midnightblue" d="M167.82,-49.88C159.15,-48.06 150.23,-46.18 142.05,-44.46"/>
<polygon fill="midnightblue" stroke="midnightblue" points="167.32,-53.36 177.83,-51.99 168.76,-46.51 167.32,-53.36"/>
</g>
<!-- Node7 -->
<g id="node7" class="node">
<title>Node7</title>
<g id="a_node7"><a xlink:href="main_8cpp.html#ae66f6b31b5ad750f1fe042a706a4e3d4" target="_top" xlink:title=" ">
<polygon fill="white" stroke="black" points="0,-28 0,-47 38,-47 38,-28 0,-28"/>
<text text-anchor="middle" x="19" y="-35" font-family="Helvetica,sans-Serif" font-size="10.00">main</text>
</a>
</g>
</g>
<!-- Node6&#45;&gt;Node7 -->
<g id="edge6" class="edge">
<title>Node6&#45;&gt;Node7</title>
<path fill="none" stroke="midnightblue" d="M63.54,-37.5C54.55,-37.5 45.55,-37.5 38.09,-37.5"/>
<polygon fill="midnightblue" stroke="midnightblue" points="63.61,-41 73.61,-37.5 63.61,-34 63.61,-41"/>
</g>
<!-- Node9 -->
<g id="node9" class="node">
<title>Node9</title>
<g id="a_node9"><a xlink:href="class_field.html#ad13d86066be42a2e10fcb9cbcc51fb0b" target="_top" xlink:title=" ">
<polygon fill="white" stroke="black" points="287,-50 287,-69 352,-69 352,-50 287,-50"/>
<text text-anchor="middle" x="319.5" y="-57" font-family="Helvetica,sans-Serif" font-size="10.00">Field::Draw</text>
</a>
</g>
</g>
<!-- Node8&#45;&gt;Node9 -->
<g id="edge8" class="edge">
<title>Node8&#45;&gt;Node9</title>
<path fill="none" stroke="midnightblue" d="M412.55,-59.5C393.31,-59.5 370.48,-59.5 352.36,-59.5"/>
<polygon fill="midnightblue" stroke="midnightblue" points="412.82,-63 422.82,-59.5 412.82,-56 412.82,-63"/>
</g>
<!-- Node9&#45;&gt;Node5 -->
<g id="edge9" class="edge">
<title>Node9&#45;&gt;Node5</title>
<path fill="none" stroke="midnightblue" d="M276.71,-59.5C268.28,-59.5 259.48,-59.5 251.27,-59.5"/>
<polygon fill="midnightblue" stroke="midnightblue" points="276.76,-63 286.76,-59.5 276.76,-56 276.76,-63"/>
</g>
<!-- Node10&#45;&gt;Node6 -->
<g id="edge11" class="edge">
<title>Node10&#45;&gt;Node6</title>
<path fill="none" stroke="midnightblue" d="M377.81,-20.26C304.66,-24.95 196.21,-31.91 142.15,-35.37"/>
<polygon fill="midnightblue" stroke="midnightblue" points="378.13,-23.75 387.89,-19.61 377.68,-16.76 378.13,-23.75"/>
</g>
</g>
</svg>
