<?xml version="1.0" encoding="UTF-8" standalone="no"?>
<!DOCTYPE svg PUBLIC "-//W3C//DTD SVG 1.1//EN"
 "http://www.w3.org/Graphics/SVG/1.1/DTD/svg11.dtd">
<!-- Generated by graphviz version 2.47.0 (20210407.0042)
 -->
<!-- Title: Field::Field Pages: 1 -->
<svg width="238pt" height="104pt"
 viewBox="0.00 0.00 238.00 104.00" xmlns="http://www.w3.org/2000/svg" xmlns:xlink="http://www.w3.org/1999/xlink">
<g id="graph0" class="graph" transform="scale(1 1) rotate(0) translate(4 100)">
<title>Field::Field</title>
<polygon fill="white" stroke="transparent" points="-4,4 -4,-100 234,-100 234,4 -4,4"/>
<!-- Node1 -->
<g id="node1" class="node">
<title>Node1</title>
<g id="a_node1"><a xlink:title=" ">
<polygon fill="#bfbfbf" stroke="black" points="0,-38.5 0,-57.5 63,-57.5 63,-38.5 0,-38.5"/>
<text text-anchor="middle" x="31.5" y="-45.5" font-family="Helvetica,sans-Serif" font-size="10.00">Field::Field</text>
</a>
</g>
</g>
<!-- Node2 -->
<g id="node2" class="node">
<title>Node2</title>
<g id="a_node2"><a xlink:href="class_sprites_manager.html#ac62b90b9791238708ab900d59ac74a6d" target="_top" xlink:title=" ">
<polygon fill="white" stroke="black" points="104.5,-76.5 104.5,-95.5 224.5,-95.5 224.5,-76.5 104.5,-76.5"/>
<text text-anchor="middle" x="164.5" y="-83.5" font-family="Helvetica,sans-Serif" font-size="10.00">SpritesManager::GetDirt</text>
</a>
</g>
</g>
<!-- Node1&#45;&gt;Node2 -->
<g id="edge1" class="edge">
<title>Node1&#45;&gt;Node2</title>
<path fill="none" stroke="midnightblue" d="M63.21,-56.91C80.39,-61.89 102.07,-68.18 120.87,-73.63"/>
<polygon fill="midnightblue" stroke="midnightblue" points="120.11,-77.06 130.69,-76.48 122.06,-70.33 120.11,-77.06"/>
</g>
<!-- Node3 -->
<g id="node3" class="node">
<title>Node3</title>
<g id="a_node3"><a xlink:href="class_sprites_manager.html#aab28b90f311b986c893d6e118fb7f805" target="_top" xlink:title=" ">
<polygon fill="white" stroke="black" points="99,-38.5 99,-57.5 230,-57.5 230,-38.5 99,-38.5"/>
<text text-anchor="middle" x="164.5" y="-45.5" font-family="Helvetica,sans-Serif" font-size="10.00">SpritesManager::GetStone</text>
</a>
</g>
</g>
<!-- Node1&#45;&gt;Node3 -->
<g id="edge2" class="edge">
<title>Node1&#45;&gt;Node3</title>
<path fill="none" stroke="midnightblue" d="M63.21,-48C71.02,-48 79.75,-48 88.71,-48"/>
<polygon fill="midnightblue" stroke="midnightblue" points="88.9,-51.5 98.9,-48 88.9,-44.5 88.9,-51.5"/>
</g>
<!-- Node4 -->
<g id="node4" class="node">
<title>Node4</title>
<g id="a_node4"><a xlink:href="class_sprites_manager.html#aaf44092f50663eae6c034cd35677fe32" target="_top" xlink:title=" ">
<polygon fill="white" stroke="black" points="99,-0.5 99,-19.5 230,-19.5 230,-0.5 99,-0.5"/>
<text text-anchor="middle" x="164.5" y="-7.5" font-family="Helvetica,sans-Serif" font-size="10.00">SpritesManager::GetWater</text>
</a>
</g>
</g>
<!-- Node1&#45;&gt;Node4 -->
<g id="edge3" class="edge">
<title>Node1&#45;&gt;Node4</title>
<path fill="none" stroke="midnightblue" d="M63.21,-39.09C80.39,-34.11 102.07,-27.82 120.87,-22.37"/>
<polygon fill="midnightblue" stroke="midnightblue" points="122.06,-25.67 130.69,-19.52 120.11,-18.94 122.06,-25.67"/>
</g>
</g>
</svg>
