<?xml version="1.0" encoding="UTF-8" standalone="no"?>
<!DOCTYPE svg PUBLIC "-//W3C//DTD SVG 1.1//EN"
 "http://www.w3.org/Graphics/SVG/1.1/DTD/svg11.dtd">
<!-- Generated by graphviz version 2.47.1 (20210421.1823)
 -->
<!-- Title: Game::Start Pages: 1 -->
<svg width="1291pt" height="680pt"
 viewBox="0.00 0.00 1291.00 679.50" xmlns="http://www.w3.org/2000/svg" xmlns:xlink="http://www.w3.org/1999/xlink">
<g id="graph0" class="graph" transform="scale(1 1) rotate(0) translate(4 675.5)">
<title>Game::Start</title>
<polygon fill="white" stroke="transparent" points="-4,4 -4,-675.5 1287,-675.5 1287,4 -4,4"/>
<!-- Node1 -->
<g id="node1" class="node">
<title>Node1</title>
<g id="a_node1"><a xlink:title=" ">
<polygon fill="#bfbfbf" stroke="black" points="0,-239.5 0,-258.5 68,-258.5 68,-239.5 0,-239.5"/>
<text text-anchor="middle" x="34" y="-246.5" font-family="Helvetica,sans-Serif" font-size="10.00">Game::Start</text>
</a>
</g>
</g>
<!-- Node2 -->
<g id="node2" class="node">
<title>Node2</title>
<g id="a_node2"><a xlink:href="class_g_u_i_1_1_g_u_i_manager.html#a389847b5abdfcccebec914b1634cf7d1" target="_top" xlink:title=" ">
<polygon fill="white" stroke="black" points="104,-614.5 104,-633.5 255,-633.5 255,-614.5 104,-614.5"/>
<text text-anchor="middle" x="179.5" y="-621.5" font-family="Helvetica,sans-Serif" font-size="10.00">GUI::GUIManager::AddWindow</text>
</a>
</g>
</g>
<!-- Node1&#45;&gt;Node2 -->
<g id="edge1" class="edge">
<title>Node1&#45;&gt;Node2</title>
<path fill="none" stroke="midnightblue" d="M35.61,-258.78C38.98,-310.01 56.97,-547.08 104,-600 107.32,-603.74 111.23,-606.9 115.49,-609.57"/>
<polygon fill="midnightblue" stroke="midnightblue" points="114.16,-612.82 124.64,-614.39 117.42,-606.63 114.16,-612.82"/>
</g>
<!-- Node3 -->
<g id="node3" class="node">
<title>Node3</title>
<g id="a_node3"><a xlink:href="class_engine.html#a39f23d7f0ad86322bfdb73d4e6763005" target="_top" xlink:title=" ">
<polygon fill="white" stroke="black" points="143,-266.5 143,-285.5 216,-285.5 216,-266.5 143,-266.5"/>
<text text-anchor="middle" x="179.5" y="-273.5" font-family="Helvetica,sans-Serif" font-size="10.00">Engine::Draw</text>
</a>
</g>
</g>
<!-- Node1&#45;&gt;Node3 -->
<g id="edge2" class="edge">
<title>Node1&#45;&gt;Node3</title>
<path fill="none" stroke="midnightblue" d="M68.28,-255.26C87.49,-258.88 111.93,-263.47 132.91,-267.42"/>
<polygon fill="midnightblue" stroke="midnightblue" points="132.42,-270.89 142.89,-269.3 133.71,-264.01 132.42,-270.89"/>
</g>
<!-- Node16 -->
<g id="node16" class="node">
<title>Node16</title>
<g id="a_node16"><a xlink:href="class_graphics_1_1_resource_manager.html#a2bf0311bf4f8431618eb13706a26a5f1" target="_top" xlink:title=" ">
<polygon fill="white" stroke="black" points="838,-445 838,-475 977,-475 977,-445 838,-445"/>
<text text-anchor="start" x="846" y="-463" font-family="Helvetica,sans-Serif" font-size="10.00">Graphics::ResourceManager</text>
<text text-anchor="middle" x="907.5" y="-452" font-family="Helvetica,sans-Serif" font-size="10.00">::GetWindow</text>
</a>
</g>
</g>
<!-- Node1&#45;&gt;Node16 -->
<g id="edge31" class="edge">
<title>Node1&#45;&gt;Node16</title>
<path fill="none" stroke="midnightblue" d="M36.74,-258.63C42.1,-285.78 60.67,-364.05 104,-411 167.64,-479.95 201.08,-482.19 291,-509 506.59,-573.27 579.42,-553.17 797,-496 808,-493.11 830.82,-485.69 852.8,-478.33"/>
<polygon fill="midnightblue" stroke="midnightblue" points="854.1,-481.59 862.46,-475.08 851.87,-474.95 854.1,-481.59"/>
</g>
<!-- Node19 -->
<g id="node19" class="node">
<title>Node19</title>
<g id="a_node19"><a xlink:href="class_g_u_i_1_1_g_u_i_manager.html#a35c67b5beb3865f595f3f0353c9afd94" target="_top" xlink:title=" ">
<polygon fill="white" stroke="black" points="291,-152.5 291,-171.5 461,-171.5 461,-152.5 291,-152.5"/>
<text text-anchor="middle" x="376" y="-159.5" font-family="Helvetica,sans-Serif" font-size="10.00">GUI::GUIManager::GetGUIManager</text>
</a>
</g>
</g>
<!-- Node1&#45;&gt;Node19 -->
<g id="edge30" class="edge">
<title>Node1&#45;&gt;Node19</title>
<path fill="none" stroke="midnightblue" d="M68.17,-242.27C111.56,-233.14 189.74,-215.6 255,-195 271.37,-189.83 274.58,-186.02 291,-181 299.41,-178.43 308.4,-176.03 317.25,-173.87"/>
<polygon fill="midnightblue" stroke="midnightblue" points="318.22,-177.24 327.14,-171.53 316.61,-170.43 318.22,-177.24"/>
</g>
<!-- Node25 -->
<g id="node25" class="node">
<title>Node25</title>
<g id="a_node25"><a xlink:href="class_engine.html#acdcf4afb71571455296d5e09e270b496" target="_top" xlink:title=" ">
<polygon fill="white" stroke="black" points="132,-128.5 132,-147.5 227,-147.5 227,-128.5 132,-128.5"/>
<text text-anchor="middle" x="179.5" y="-135.5" font-family="Helvetica,sans-Serif" font-size="10.00">Engine::GetEngine</text>
</a>
</g>
</g>
<!-- Node1&#45;&gt;Node25 -->
<g id="edge28" class="edge">
<title>Node1&#45;&gt;Node25</title>
<path fill="none" stroke="midnightblue" d="M39.37,-239.5C48.53,-220.68 71.62,-178.61 104,-157 109.59,-153.27 115.87,-150.27 122.35,-147.86"/>
<polygon fill="midnightblue" stroke="midnightblue" points="123.5,-151.16 131.92,-144.73 121.33,-144.51 123.5,-151.16"/>
</g>
<!-- Node26 -->
<g id="node26" class="node">
<title>Node26</title>
<g id="a_node26"><a xlink:href="class_graphics_1_1_resource_manager.html#a79f4e066410f871bee9bc241ba87fcb6" target="_top" xlink:title=" ">
<polygon fill="white" stroke="black" points="110,-79 110,-109 249,-109 249,-79 110,-79"/>
<text text-anchor="start" x="118" y="-97" font-family="Helvetica,sans-Serif" font-size="10.00">Graphics::ResourceManager</text>
<text text-anchor="middle" x="179.5" y="-86" font-family="Helvetica,sans-Serif" font-size="10.00">::GetEventHandler</text>
</a>
</g>
</g>
<!-- Node1&#45;&gt;Node26 -->
<g id="edge29" class="edge">
<title>Node1&#45;&gt;Node26</title>
<path fill="none" stroke="midnightblue" d="M37.46,-239.26C44.03,-215.25 64.24,-152.71 104,-119 106,-117.3 108.13,-115.72 110.34,-114.24"/>
<polygon fill="midnightblue" stroke="midnightblue" points="112.38,-117.1 119.27,-109.05 108.86,-111.05 112.38,-117.1"/>
</g>
<!-- Node27 -->
<g id="node27" class="node">
<title>Node27</title>
<g id="a_node27"><a xlink:href="class_sprites_manager.html#a8245b163545dd5a57779316703048eb9" target="_top" xlink:title=" ">
<polygon fill="white" stroke="black" points="128,-8.5 128,-27.5 231,-27.5 231,-8.5 128,-8.5"/>
<text text-anchor="middle" x="179.5" y="-15.5" font-family="Helvetica,sans-Serif" font-size="10.00">SpritesManager::Init</text>
</a>
</g>
</g>
<!-- Node1&#45;&gt;Node27 -->
<g id="edge32" class="edge">
<title>Node1&#45;&gt;Node27</title>
<path fill="none" stroke="midnightblue" d="M36.59,-239.41C41.74,-210.77 60.24,-124.43 104,-69 115.98,-53.82 133.72,-41.42 148.89,-32.66"/>
<polygon fill="midnightblue" stroke="midnightblue" points="150.85,-35.57 157.92,-27.67 147.47,-29.44 150.85,-35.57"/>
</g>
<!-- Node29 -->
<g id="node29" class="node">
<title>Node29</title>
<g id="a_node29"><a xlink:href="namespace_graphics_1_1_resource_parser.html#a6a538c07babc9bbaf884e0aeb9654fe0" target="_top" xlink:title=" ">
<polygon fill="white" stroke="black" points="667,-574 667,-604 797,-604 797,-574 667,-574"/>
<text text-anchor="start" x="675" y="-592" font-family="Helvetica,sans-Serif" font-size="10.00">Graphics::ResourceParser</text>
<text text-anchor="middle" x="732" y="-581" font-family="Helvetica,sans-Serif" font-size="10.00">::LoadResources</text>
</a>
</g>
</g>
<!-- Node1&#45;&gt;Node29 -->
<g id="edge34" class="edge">
<title>Node1&#45;&gt;Node29</title>
<path fill="none" stroke="midnightblue" d="M35.59,-258.58C38.79,-306.7 55.63,-521.39 104,-562 185.64,-630.55 508.81,-610.08 656.57,-596.63"/>
<polygon fill="midnightblue" stroke="midnightblue" points="657.26,-600.08 666.9,-595.67 656.62,-593.11 657.26,-600.08"/>
</g>
<!-- Node35 -->
<g id="node35" class="node">
<title>Node35</title>
<g id="a_node35"><a xlink:href="class_engine.html#a06d3e75a7f768f0d48746aea00483724" target="_top" xlink:title=" ">
<polygon fill="white" stroke="black" points="145,-166.5 145,-185.5 214,-185.5 214,-166.5 145,-166.5"/>
<text text-anchor="middle" x="179.5" y="-173.5" font-family="Helvetica,sans-Serif" font-size="10.00">Engine::Tick</text>
</a>
</g>
</g>
<!-- Node1&#45;&gt;Node35 -->
<g id="edge43" class="edge">
<title>Node1&#45;&gt;Node35</title>
<path fill="none" stroke="midnightblue" d="M53.76,-239.46C78.47,-226.89 122.12,-204.68 150.68,-190.15"/>
<polygon fill="midnightblue" stroke="midnightblue" points="152.41,-193.2 159.74,-185.55 149.24,-186.96 152.41,-193.2"/>
</g>
<!-- Node43 -->
<g id="node43" class="node">
<title>Node43</title>
<g id="a_node43"><a xlink:href="class_event_handler.html#a53ee17f2156ec5ad0769743f39ea259d" target="_top" xlink:title=" ">
<polygon fill="white" stroke="black" points="503.5,-489 503.5,-519 624.5,-519 624.5,-489 503.5,-489"/>
<text text-anchor="start" x="511.5" y="-507" font-family="Helvetica,sans-Serif" font-size="10.00">EventHandler::TriggerAll</text>
<text text-anchor="middle" x="564" y="-496" font-family="Helvetica,sans-Serif" font-size="10.00">Events</text>
</a>
</g>
</g>
<!-- Node1&#45;&gt;Node43 -->
<g id="edge53" class="edge">
<title>Node1&#45;&gt;Node43</title>
<path fill="none" stroke="midnightblue" d="M41.78,-258.55C68.45,-295.2 170.55,-427.5 291,-480 355.33,-508.04 436.22,-511.68 493,-509.76"/>
<polygon fill="midnightblue" stroke="midnightblue" points="493.46,-513.24 503.31,-509.34 493.18,-506.25 493.46,-513.24"/>
</g>
<!-- Node4 -->
<g id="node4" class="node">
<title>Node4</title>
<g id="a_node4"><a xlink:href="class_g_u_i_1_1_g_u_i_manager.html#a4b30f151da1c9091236f1b4345d68126" target="_top" xlink:title=" ">
<polygon fill="white" stroke="black" points="315,-266.5 315,-285.5 437,-285.5 437,-266.5 315,-266.5"/>
<text text-anchor="middle" x="376" y="-273.5" font-family="Helvetica,sans-Serif" font-size="10.00">GUI::GUIManager::Draw</text>
</a>
</g>
</g>
<!-- Node3&#45;&gt;Node4 -->
<g id="edge3" class="edge">
<title>Node3&#45;&gt;Node4</title>
<path fill="none" stroke="midnightblue" d="M216.17,-276C240.91,-276 274.66,-276 304.7,-276"/>
<polygon fill="midnightblue" stroke="midnightblue" points="304.72,-279.5 314.72,-276 304.72,-272.5 304.72,-279.5"/>
</g>
<!-- Node5 -->
<g id="node5" class="node">
<title>Node5</title>
<g id="a_node5"><a xlink:href="class_field.html#ad13d86066be42a2e10fcb9cbcc51fb0b" target="_top" xlink:title=" ">
<polygon fill="white" stroke="black" points="343.5,-304.5 343.5,-323.5 408.5,-323.5 408.5,-304.5 343.5,-304.5"/>
<text text-anchor="middle" x="376" y="-311.5" font-family="Helvetica,sans-Serif" font-size="10.00">Field::Draw</text>
</a>
</g>
</g>
<!-- Node3&#45;&gt;Node5 -->
<g id="edge4" class="edge">
<title>Node3&#45;&gt;Node5</title>
<path fill="none" stroke="midnightblue" d="M216.17,-282.97C249.31,-289.44 298.66,-299.08 333.54,-305.9"/>
<polygon fill="midnightblue" stroke="midnightblue" points="332.93,-309.35 343.41,-307.83 334.27,-302.48 332.93,-309.35"/>
</g>
<!-- Node7 -->
<g id="node7" class="node">
<title>Node7</title>
<g id="a_node7"><a xlink:href="class_drawable.html#ac46f25a963a3fe3e9176461d61d213c7" target="_top" xlink:title=" ">
<polygon fill="white" stroke="black" points="690,-301.5 690,-320.5 774,-320.5 774,-301.5 690,-301.5"/>
<text text-anchor="middle" x="732" y="-308.5" font-family="Helvetica,sans-Serif" font-size="10.00">Drawable::Draw</text>
</a>
</g>
</g>
<!-- Node3&#45;&gt;Node7 -->
<g id="edge19" class="edge">
<title>Node3&#45;&gt;Node7</title>
<path fill="none" stroke="midnightblue" d="M193.95,-285.67C213.95,-299.38 253.24,-323.84 291,-333 429.06,-366.51 598.43,-339.81 680.98,-322.63"/>
<polygon fill="midnightblue" stroke="midnightblue" points="681.79,-326.04 690.84,-320.54 680.34,-319.19 681.79,-326.04"/>
</g>
<!-- Node3&#45;&gt;Node16 -->
<g id="edge23" class="edge">
<title>Node3&#45;&gt;Node16</title>
<path fill="none" stroke="midnightblue" d="M198.72,-285.59C215.62,-295.37 240.32,-312.07 255,-333 285.52,-376.5 248.48,-415.14 291,-447 332.9,-478.39 671.26,-469.35 827.7,-463.37"/>
<polygon fill="midnightblue" stroke="midnightblue" points="827.88,-466.87 837.74,-462.98 827.61,-459.87 827.88,-466.87"/>
</g>
<!-- Node18 -->
<g id="node18" class="node">
<title>Node18</title>
<g id="a_node18"><a xlink:href="class_graphics_1_1_window.html#aa834f03ccb101a164cdfdffa773c0a53" target="_top" xlink:title=" ">
<polygon fill="white" stroke="black" points="497,-211 497,-241 631,-241 631,-211 497,-211"/>
<text text-anchor="start" x="505" y="-229" font-family="Helvetica,sans-Serif" font-size="10.00">Graphics::Window::GetSize</text>
<text text-anchor="middle" x="564" y="-218" font-family="Helvetica,sans-Serif" font-size="10.00">Window</text>
</a>
</g>
</g>
<!-- Node3&#45;&gt;Node18 -->
<g id="edge22" class="edge">
<title>Node3&#45;&gt;Node18</title>
<path fill="none" stroke="midnightblue" d="M216.25,-269.32C237.85,-265.42 265.95,-260.58 291,-257 357,-247.57 432.33,-239.17 486.96,-233.5"/>
<polygon fill="midnightblue" stroke="midnightblue" points="487.32,-236.98 496.91,-232.47 486.6,-230.02 487.32,-236.98"/>
</g>
<!-- Node3&#45;&gt;Node19 -->
<g id="edge20" class="edge">
<title>Node3&#45;&gt;Node19</title>
<path fill="none" stroke="midnightblue" d="M215.04,-266.43C228.63,-261.4 243.66,-254.12 255,-244 279.06,-222.53 265.08,-200.18 291,-181 293.5,-179.15 296.16,-177.47 298.92,-175.95"/>
<polygon fill="midnightblue" stroke="midnightblue" points="300.51,-179.07 308.05,-171.63 297.51,-172.75 300.51,-179.07"/>
</g>
<!-- Node20 -->
<g id="node20" class="node">
<title>Node20</title>
<g id="a_node20"><a xlink:href="class_engine.html#a6d852b5acb8b7af1df790a662ca863fe" target="_top" xlink:title=" ">
<polygon fill="white" stroke="black" points="329.5,-114.5 329.5,-133.5 422.5,-133.5 422.5,-114.5 329.5,-114.5"/>
<text text-anchor="middle" x="376" y="-121.5" font-family="Helvetica,sans-Serif" font-size="10.00">Engine::GetPlayer</text>
</a>
</g>
</g>
<!-- Node3&#45;&gt;Node20 -->
<g id="edge21" class="edge">
<title>Node3&#45;&gt;Node20</title>
<path fill="none" stroke="midnightblue" d="M190.13,-266.42C204.79,-251.64 233.28,-222.16 255,-195 272.56,-173.05 267.7,-158.73 291,-143 299.46,-137.29 309.38,-133.27 319.37,-130.45"/>
<polygon fill="midnightblue" stroke="midnightblue" points="320.47,-133.79 329.35,-128.02 318.8,-126.99 320.47,-133.79"/>
</g>
<!-- Node21 -->
<g id="node21" class="node">
<title>Node21</title>
<g id="a_node21"><a xlink:href="class_world_actor.html#a35b3672c657fd763d44c75f9625c1185" target="_top" xlink:title=" ">
<polygon fill="white" stroke="black" points="330,-190.5 330,-209.5 422,-209.5 422,-190.5 330,-190.5"/>
<text text-anchor="middle" x="376" y="-197.5" font-family="Helvetica,sans-Serif" font-size="10.00">WorldActor::GetX</text>
</a>
</g>
</g>
<!-- Node3&#45;&gt;Node21 -->
<g id="edge24" class="edge">
<title>Node3&#45;&gt;Node21</title>
<path fill="none" stroke="midnightblue" d="M204.6,-266.38C219.33,-260.32 238.45,-252.13 255,-244 271.43,-235.93 274.09,-231 291,-224 301.73,-219.56 313.56,-215.62 324.86,-212.29"/>
<polygon fill="midnightblue" stroke="midnightblue" points="325.96,-215.62 334.62,-209.52 324.05,-208.89 325.96,-215.62"/>
</g>
<!-- Node22 -->
<g id="node22" class="node">
<title>Node22</title>
<g id="a_node22"><a xlink:href="class_world_actor.html#a28d9235e9224dee56e6f32791d5931f0" target="_top" xlink:title=" ">
<polygon fill="white" stroke="black" points="330,-380.5 330,-399.5 422,-399.5 422,-380.5 330,-380.5"/>
<text text-anchor="middle" x="376" y="-387.5" font-family="Helvetica,sans-Serif" font-size="10.00">WorldActor::GetY</text>
</a>
</g>
</g>
<!-- Node3&#45;&gt;Node22 -->
<g id="edge25" class="edge">
<title>Node3&#45;&gt;Node22</title>
<path fill="none" stroke="midnightblue" d="M189.59,-285.66C207.36,-303.97 248.66,-343.91 291,-366 299.98,-370.68 309.98,-374.56 319.87,-377.72"/>
<polygon fill="midnightblue" stroke="midnightblue" points="319.09,-381.14 329.68,-380.66 321.1,-374.44 319.09,-381.14"/>
</g>
<!-- Node23 -->
<g id="node23" class="node">
<title>Node23</title>
<g id="a_node23"><a xlink:href="class_graphics_1_1_window.html#a7863fafae23423f404bee7aa3a57e124" target="_top" xlink:title=" ">
<polygon fill="white" stroke="black" points="311,-418.5 311,-437.5 441,-437.5 441,-418.5 311,-418.5"/>
<text text-anchor="middle" x="376" y="-425.5" font-family="Helvetica,sans-Serif" font-size="10.00">Graphics::Window::Render</text>
</a>
</g>
</g>
<!-- Node3&#45;&gt;Node23 -->
<g id="edge26" class="edge">
<title>Node3&#45;&gt;Node23</title>
<path fill="none" stroke="midnightblue" d="M185.47,-285.54C198.85,-310.25 238.28,-376.68 291,-409 294.59,-411.2 298.4,-413.14 302.34,-414.86"/>
<polygon fill="midnightblue" stroke="midnightblue" points="301.15,-418.16 311.74,-418.48 303.67,-411.62 301.15,-418.16"/>
</g>
<!-- Node6 -->
<g id="node6" class="node">
<title>Node6</title>
<g id="a_node6"><a xlink:href="class_cell.html#ac88160c4177e146f8dd7482c4eaee4f0" target="_top" xlink:title=" ">
<polygon fill="white" stroke="black" points="534,-298.5 534,-317.5 594,-317.5 594,-298.5 534,-298.5"/>
<text text-anchor="middle" x="564" y="-305.5" font-family="Helvetica,sans-Serif" font-size="10.00">Cell::Draw</text>
</a>
</g>
</g>
<!-- Node5&#45;&gt;Node6 -->
<g id="edge5" class="edge">
<title>Node5&#45;&gt;Node6</title>
<path fill="none" stroke="midnightblue" d="M408.55,-312.98C440.3,-311.96 489.34,-310.38 523.62,-309.27"/>
<polygon fill="midnightblue" stroke="midnightblue" points="523.87,-312.76 533.75,-308.94 523.64,-305.77 523.87,-312.76"/>
</g>
<!-- Node5&#45;&gt;Node16 -->
<g id="edge18" class="edge">
<title>Node5&#45;&gt;Node16</title>
<path fill="none" stroke="midnightblue" d="M408.54,-322.7C493.45,-346.11 728.16,-410.83 842.39,-442.32"/>
<polygon fill="midnightblue" stroke="midnightblue" points="841.49,-445.71 852.06,-444.99 843.35,-438.96 841.49,-445.71"/>
</g>
<!-- Node17 -->
<g id="node17" class="node">
<title>Node17</title>
<g id="a_node17"><a xlink:href="class_field.html#a81822f0090fbb9f187fe4d3d15c7ab96" target="_top" xlink:title=" ">
<polygon fill="white" stroke="black" points="861.5,-238.5 861.5,-257.5 953.5,-257.5 953.5,-238.5 861.5,-238.5"/>
<text text-anchor="middle" x="907.5" y="-245.5" font-family="Helvetica,sans-Serif" font-size="10.00">Field::GetCellPos</text>
</a>
</g>
</g>
<!-- Node5&#45;&gt;Node17 -->
<g id="edge16" class="edge">
<title>Node5&#45;&gt;Node17</title>
<path fill="none" stroke="midnightblue" d="M408.67,-306.45C432.77,-300.93 466.82,-293.64 497,-289 623.05,-269.62 772.39,-257.33 851.27,-251.67"/>
<polygon fill="midnightblue" stroke="midnightblue" points="851.74,-255.14 861.46,-250.95 851.24,-248.16 851.74,-255.14"/>
</g>
<!-- Node5&#45;&gt;Node18 -->
<g id="edge17" class="edge">
<title>Node5&#45;&gt;Node18</title>
<path fill="none" stroke="midnightblue" d="M408.57,-311.39C425.06,-308.95 445.08,-304.2 461,-295 481.43,-283.2 477.88,-269.82 497,-256 502.15,-252.27 507.84,-248.85 513.66,-245.75"/>
<polygon fill="midnightblue" stroke="midnightblue" points="515.46,-248.77 522.84,-241.16 512.33,-242.5 515.46,-248.77"/>
</g>
<!-- Node6&#45;&gt;Node7 -->
<g id="edge6" class="edge">
<title>Node6&#45;&gt;Node7</title>
<path fill="none" stroke="midnightblue" d="M594.3,-308.53C617.92,-308.96 651.72,-309.57 679.8,-310.07"/>
<polygon fill="midnightblue" stroke="midnightblue" points="679.79,-313.58 689.86,-310.26 679.92,-306.58 679.79,-313.58"/>
</g>
<!-- Node8 -->
<g id="node8" class="node">
<title>Node8</title>
<g id="a_node8"><a xlink:href="class_graphics_1_1_image.html#af48c0e309532eb1ff36e8fdaee244da1" target="_top" xlink:title=" ">
<polygon fill="white" stroke="black" points="850.5,-301.5 850.5,-320.5 964.5,-320.5 964.5,-301.5 850.5,-301.5"/>
<text text-anchor="middle" x="907.5" y="-308.5" font-family="Helvetica,sans-Serif" font-size="10.00">Graphics::Image::Draw</text>
</a>
</g>
</g>
<!-- Node7&#45;&gt;Node8 -->
<g id="edge7" class="edge">
<title>Node7&#45;&gt;Node8</title>
<path fill="none" stroke="midnightblue" d="M774.12,-311C793.84,-311 817.97,-311 840.2,-311"/>
<polygon fill="midnightblue" stroke="midnightblue" points="840.25,-314.5 850.25,-311 840.25,-307.5 840.25,-314.5"/>
</g>
<!-- Node14 -->
<g id="node14" class="node">
<title>Node14</title>
<g id="a_node14"><a xlink:href="class_graphics_1_1_resource_manager.html#a712cf513dbda24deb3a7fcea7157003a" target="_top" xlink:title=" ">
<polygon fill="white" stroke="black" points="838,-340 838,-370 977,-370 977,-340 838,-340"/>
<text text-anchor="start" x="846" y="-358" font-family="Helvetica,sans-Serif" font-size="10.00">Graphics::ResourceManager</text>
<text text-anchor="middle" x="907.5" y="-347" font-family="Helvetica,sans-Serif" font-size="10.00">::GetImage</text>
</a>
</g>
</g>
<!-- Node7&#45;&gt;Node14 -->
<g id="edge13" class="edge">
<title>Node7&#45;&gt;Node14</title>
<path fill="none" stroke="midnightblue" d="M770.65,-320.55C790.09,-325.48 814.45,-331.66 837.15,-337.41"/>
<polygon fill="midnightblue" stroke="midnightblue" points="836.54,-340.87 847.09,-339.93 838.26,-334.08 836.54,-340.87"/>
</g>
<!-- Node15 -->
<g id="node15" class="node">
<title>Node15</title>
<g id="a_node15"><a xlink:href="class_graphics_1_1_resource_manager.html#a34d11294bd090580de46ab34f303c2ab" target="_top" xlink:title=" ">
<polygon fill="white" stroke="black" points="838,-394 838,-424 977,-424 977,-394 838,-394"/>
<text text-anchor="start" x="846" y="-412" font-family="Helvetica,sans-Serif" font-size="10.00">Graphics::ResourceManager</text>
<text text-anchor="middle" x="907.5" y="-401" font-family="Helvetica,sans-Serif" font-size="10.00">::GetShader</text>
</a>
</g>
</g>
<!-- Node7&#45;&gt;Node15 -->
<g id="edge14" class="edge">
<title>Node7&#45;&gt;Node15</title>
<path fill="none" stroke="midnightblue" d="M768.59,-320.52C778.34,-324.12 788.55,-328.87 797,-335 817.73,-350.04 812.39,-364.79 833,-380 837.74,-383.5 842.95,-386.64 848.35,-389.44"/>
<polygon fill="midnightblue" stroke="midnightblue" points="847.03,-392.69 857.56,-393.85 850.05,-386.37 847.03,-392.69"/>
</g>
<!-- Node7&#45;&gt;Node16 -->
<g id="edge15" class="edge">
<title>Node7&#45;&gt;Node16</title>
<path fill="none" stroke="midnightblue" d="M774.02,-320.4C782.44,-323.87 790.65,-328.59 797,-335 829.94,-368.27 799.75,-401.04 833,-434 834.89,-435.88 836.93,-437.62 839.08,-439.23"/>
<polygon fill="midnightblue" stroke="midnightblue" points="837.53,-442.4 847.83,-444.87 841.31,-436.51 837.53,-442.4"/>
</g>
<!-- Node9 -->
<g id="node9" class="node">
<title>Node9</title>
<g id="a_node9"><a xlink:href="class_graphics_1_1_quadrangle.html#a7a061a60b5bff19feb5fd317d06495f0" target="_top" xlink:title=" ">
<polygon fill="white" stroke="black" points="1018,-371 1018,-401 1128,-401 1128,-371 1018,-371"/>
<text text-anchor="start" x="1026" y="-389" font-family="Helvetica,sans-Serif" font-size="10.00">Graphics::Quadrangle</text>
<text text-anchor="middle" x="1073" y="-378" font-family="Helvetica,sans-Serif" font-size="10.00">::Draw</text>
</a>
</g>
</g>
<!-- Node8&#45;&gt;Node9 -->
<g id="edge8" class="edge">
<title>Node8&#45;&gt;Node9</title>
<path fill="none" stroke="midnightblue" d="M951.56,-320.53C961.73,-323.38 972.41,-326.86 982,-331 1003.34,-340.2 1025.63,-353.79 1042.69,-365.16"/>
<polygon fill="midnightblue" stroke="midnightblue" points="1040.87,-368.15 1051.11,-370.87 1044.8,-362.36 1040.87,-368.15"/>
</g>
<!-- Node12 -->
<g id="node12" class="node">
<title>Node12</title>
<g id="a_node12"><a xlink:href="class_graphics_1_1_shader.html#aa5da414808337285b38565f60c3d7cbd" target="_top" xlink:title=" ">
<polygon fill="white" stroke="black" points="1018,-301.5 1018,-320.5 1128,-320.5 1128,-301.5 1018,-301.5"/>
<text text-anchor="middle" x="1073" y="-308.5" font-family="Helvetica,sans-Serif" font-size="10.00">Graphics::Shader::Set</text>
</a>
</g>
</g>
<!-- Node8&#45;&gt;Node12 -->
<g id="edge11" class="edge">
<title>Node8&#45;&gt;Node12</title>
<path fill="none" stroke="midnightblue" d="M964.77,-311C978.59,-311 993.5,-311 1007.67,-311"/>
<polygon fill="midnightblue" stroke="midnightblue" points="1007.84,-314.5 1017.84,-311 1007.84,-307.5 1007.84,-314.5"/>
</g>
<!-- Node10 -->
<g id="node10" class="node">
<title>Node10</title>
<g id="a_node10"><a xlink:href="class_graphics_1_1_shader.html#a63bfd523754bb6b2224aa7a48c65a504" target="_top" xlink:title=" ">
<polygon fill="white" stroke="black" points="1164,-376.5 1164,-395.5 1283,-395.5 1283,-376.5 1164,-376.5"/>
<text text-anchor="middle" x="1223.5" y="-383.5" font-family="Helvetica,sans-Serif" font-size="10.00">Graphics::Shader::GetId</text>
</a>
</g>
</g>
<!-- Node9&#45;&gt;Node10 -->
<g id="edge9" class="edge">
<title>Node9&#45;&gt;Node10</title>
<path fill="none" stroke="midnightblue" d="M1128.03,-386C1136.44,-386 1145.21,-386 1153.89,-386"/>
<polygon fill="midnightblue" stroke="midnightblue" points="1154,-389.5 1164,-386 1154,-382.5 1154,-389.5"/>
</g>
<!-- Node11 -->
<g id="node11" class="node">
<title>Node11</title>
<g id="a_node11"><a xlink:href="class_graphics_1_1_shader.html#a11a2de17d1d077ec34acd4f7cd57f6b1" target="_top" xlink:title=" ">
<polygon fill="white" stroke="black" points="1167,-456.5 1167,-475.5 1280,-475.5 1280,-456.5 1167,-456.5"/>
<text text-anchor="middle" x="1223.5" y="-463.5" font-family="Helvetica,sans-Serif" font-size="10.00">Graphics::Shader::Use</text>
</a>
</g>
</g>
<!-- Node9&#45;&gt;Node11 -->
<g id="edge10" class="edge">
<title>Node9&#45;&gt;Node11</title>
<path fill="none" stroke="midnightblue" d="M1101.93,-401.05C1128.72,-415.48 1168.9,-437.13 1195.41,-451.4"/>
<polygon fill="midnightblue" stroke="midnightblue" points="1194.04,-454.64 1204.5,-456.3 1197.36,-448.48 1194.04,-454.64"/>
</g>
<!-- Node13 -->
<g id="node13" class="node">
<title>Node13</title>
<g id="a_node13"><a xlink:href="class_graphics_1_1_image.html#aab55feadb4b66e0fd78b5f54a6fadde2" target="_top" xlink:title=" ">
<polygon fill="white" stroke="black" points="1165.5,-301.5 1165.5,-320.5 1281.5,-320.5 1281.5,-301.5 1165.5,-301.5"/>
<text text-anchor="middle" x="1223.5" y="-308.5" font-family="Helvetica,sans-Serif" font-size="10.00">Graphics::Image::GetId</text>
</a>
</g>
</g>
<!-- Node12&#45;&gt;Node13 -->
<g id="edge12" class="edge">
<title>Node12&#45;&gt;Node13</title>
<path fill="none" stroke="midnightblue" d="M1128.03,-311C1136.83,-311 1146.04,-311 1155.11,-311"/>
<polygon fill="midnightblue" stroke="midnightblue" points="1155.26,-314.5 1165.26,-311 1155.26,-307.5 1155.26,-314.5"/>
</g>
<!-- Node24 -->
<g id="node24" class="node">
<title>Node24</title>
<g id="a_node24"><a xlink:href="class_graphics_1_1_window.html#a9904449165571eff36b106148ec1279f" target="_top" xlink:title=" ">
<polygon fill="white" stroke="black" points="503,-412.5 503,-431.5 625,-431.5 625,-412.5 503,-412.5"/>
<text text-anchor="middle" x="564" y="-419.5" font-family="Helvetica,sans-Serif" font-size="10.00">Graphics::Window::Clear</text>
</a>
</g>
</g>
<!-- Node23&#45;&gt;Node24 -->
<g id="edge27" class="edge">
<title>Node23&#45;&gt;Node24</title>
<path fill="none" stroke="midnightblue" d="M441.01,-425.94C457.63,-425.4 475.63,-424.82 492.56,-424.27"/>
<polygon fill="midnightblue" stroke="midnightblue" points="493.06,-427.76 502.94,-423.94 492.83,-420.76 493.06,-427.76"/>
</g>
<!-- Node28 -->
<g id="node28" class="node">
<title>Node28</title>
<g id="a_node28"><a xlink:href="class_cell.html#a4ab1e51777a98363d170f41754e204c0" target="_top" xlink:title=" ">
<polygon fill="white" stroke="black" points="348.5,-0.5 348.5,-19.5 403.5,-19.5 403.5,-0.5 348.5,-0.5"/>
<text text-anchor="middle" x="376" y="-7.5" font-family="Helvetica,sans-Serif" font-size="10.00">Cell::Add</text>
</a>
</g>
</g>
<!-- Node27&#45;&gt;Node28 -->
<g id="edge33" class="edge">
<title>Node27&#45;&gt;Node28</title>
<path fill="none" stroke="midnightblue" d="M231.09,-15.92C264.62,-14.54 307.85,-12.76 338.14,-11.52"/>
<polygon fill="midnightblue" stroke="midnightblue" points="338.43,-15.01 348.28,-11.1 338.14,-8.01 338.43,-15.01"/>
</g>
<!-- Node29&#45;&gt;Node15 -->
<g id="edge36" class="edge">
<title>Node29&#45;&gt;Node15</title>
<path fill="none" stroke="midnightblue" d="M739.08,-573.64C751.9,-543.13 784.57,-474.52 833,-436 836.35,-433.33 839.99,-430.92 843.8,-428.72"/>
<polygon fill="midnightblue" stroke="midnightblue" points="845.64,-431.71 852.92,-424.01 842.43,-425.49 845.64,-431.71"/>
</g>
<!-- Node29&#45;&gt;Node16 -->
<g id="edge37" class="edge">
<title>Node29&#45;&gt;Node16</title>
<path fill="none" stroke="midnightblue" d="M775.91,-573.88C783.54,-569.86 790.97,-564.94 797,-559 823.05,-533.33 805.57,-509.2 833,-485 834.77,-483.44 836.63,-481.98 838.58,-480.61"/>
<polygon fill="midnightblue" stroke="midnightblue" points="840.82,-483.34 847.55,-475.16 837.19,-477.36 840.82,-483.34"/>
</g>
<!-- Node30 -->
<g id="node30" class="node">
<title>Node30</title>
<g id="a_node30"><a xlink:href="class_graphics_1_1_resource_manager.html#ae025beebad6dbc29580a8d1d28ef4e9b" target="_top" xlink:title=" ">
<polygon fill="white" stroke="black" points="838,-641 838,-671 977,-671 977,-641 838,-641"/>
<text text-anchor="start" x="846" y="-659" font-family="Helvetica,sans-Serif" font-size="10.00">Graphics::ResourceManager</text>
<text text-anchor="middle" x="907.5" y="-648" font-family="Helvetica,sans-Serif" font-size="10.00">::CreateWindow</text>
</a>
</g>
</g>
<!-- Node29&#45;&gt;Node30 -->
<g id="edge35" class="edge">
<title>Node29&#45;&gt;Node30</title>
<path fill="none" stroke="midnightblue" d="M766.03,-604.09C785.37,-612.71 810.37,-623.46 833,-632 838.02,-633.9 843.27,-635.79 848.55,-637.62"/>
<polygon fill="midnightblue" stroke="midnightblue" points="847.45,-640.95 858.05,-640.87 849.72,-634.32 847.45,-640.95"/>
</g>
<!-- Node31 -->
<g id="node31" class="node">
<title>Node31</title>
<g id="a_node31"><a xlink:href="class_graphics_1_1_resource_manager.html#a30a44b1a9b80d88c3e9d4f39a0672c11" target="_top" xlink:title=" ">
<polygon fill="white" stroke="black" points="838,-592 838,-622 977,-622 977,-592 838,-592"/>
<text text-anchor="start" x="846" y="-610" font-family="Helvetica,sans-Serif" font-size="10.00">Graphics::ResourceManager</text>
<text text-anchor="middle" x="907.5" y="-599" font-family="Helvetica,sans-Serif" font-size="10.00">::LoadImage</text>
</a>
</g>
</g>
<!-- Node29&#45;&gt;Node31 -->
<g id="edge38" class="edge">
<title>Node29&#45;&gt;Node31</title>
<path fill="none" stroke="midnightblue" d="M797.11,-595.65C807.1,-596.69 817.52,-597.77 827.79,-598.83"/>
<polygon fill="midnightblue" stroke="midnightblue" points="827.68,-602.34 837.99,-599.89 828.41,-595.38 827.68,-602.34"/>
</g>
<!-- Node32 -->
<g id="node32" class="node">
<title>Node32</title>
<g id="a_node32"><a xlink:href="class_graphics_1_1_resource_manager.html#a89192a1a222927aff3890b953dd1f058" target="_top" xlink:title=" ">
<polygon fill="white" stroke="black" points="838,-543 838,-573 977,-573 977,-543 838,-543"/>
<text text-anchor="start" x="846" y="-561" font-family="Helvetica,sans-Serif" font-size="10.00">Graphics::ResourceManager</text>
<text text-anchor="middle" x="907.5" y="-550" font-family="Helvetica,sans-Serif" font-size="10.00">::LoadShader</text>
</a>
</g>
</g>
<!-- Node29&#45;&gt;Node32 -->
<g id="edge39" class="edge">
<title>Node29&#45;&gt;Node32</title>
<path fill="none" stroke="midnightblue" d="M797.11,-577.54C807.21,-575.74 817.74,-573.86 828.12,-572.01"/>
<polygon fill="midnightblue" stroke="midnightblue" points="828.76,-575.44 837.99,-570.24 827.53,-568.55 828.76,-575.44"/>
</g>
<!-- Node33 -->
<g id="node33" class="node">
<title>Node33</title>
<g id="a_node33"><a xlink:href="class_graphics_1_1_shader.html#ab82f9feaa1c7c5623eaf7bb03c061e0a" target="_top" xlink:title=" ">
<polygon fill="white" stroke="black" points="833,-494 833,-524 982,-524 982,-494 833,-494"/>
<text text-anchor="start" x="841" y="-512" font-family="Helvetica,sans-Serif" font-size="10.00">Graphics::Shader::SetProjector</text>
<text text-anchor="middle" x="907.5" y="-501" font-family="Helvetica,sans-Serif" font-size="10.00">Matrix</text>
</a>
</g>
</g>
<!-- Node29&#45;&gt;Node33 -->
<g id="edge40" class="edge">
<title>Node29&#45;&gt;Node33</title>
<path fill="none" stroke="midnightblue" d="M768.09,-573.85C777.63,-569.38 787.86,-564.27 797,-559 813.88,-549.28 815.61,-542.78 833,-534 837.29,-531.84 841.8,-529.79 846.4,-527.87"/>
<polygon fill="midnightblue" stroke="midnightblue" points="847.9,-531.04 855.92,-524.12 845.33,-524.53 847.9,-531.04"/>
</g>
<!-- Node33&#45;&gt;Node11 -->
<g id="edge42" class="edge">
<title>Node33&#45;&gt;Node11</title>
<path fill="none" stroke="midnightblue" d="M982.04,-505.62C1024.85,-502.91 1079.73,-498.16 1128,-490 1145.42,-487.05 1164.33,-482.52 1180.64,-478.19"/>
<polygon fill="midnightblue" stroke="midnightblue" points="1181.68,-481.53 1190.41,-475.53 1179.84,-474.78 1181.68,-481.53"/>
</g>
<!-- Node34 -->
<g id="node34" class="node">
<title>Node34</title>
<g id="a_node34"><a xlink:href="class_graphics_1_1_transform.html#a5e301531e0b340509d10dd5dad929b9c" target="_top" xlink:title=" ">
<polygon fill="white" stroke="black" points="1021,-450 1021,-480 1125,-480 1125,-450 1021,-450"/>
<text text-anchor="start" x="1029" y="-468" font-family="Helvetica,sans-Serif" font-size="10.00">Graphics::Transform</text>
<text text-anchor="middle" x="1073" y="-457" font-family="Helvetica,sans-Serif" font-size="10.00">::GetMatrix</text>
</a>
</g>
</g>
<!-- Node33&#45;&gt;Node34 -->
<g id="edge41" class="edge">
<title>Node33&#45;&gt;Node34</title>
<path fill="none" stroke="midnightblue" d="M964.31,-493.98C979.34,-489.94 995.67,-485.54 1010.96,-481.43"/>
<polygon fill="midnightblue" stroke="midnightblue" points="1012.09,-484.75 1020.84,-478.77 1010.27,-477.99 1012.09,-484.75"/>
</g>
<!-- Node35&#45;&gt;Node20 -->
<g id="edge44" class="edge">
<title>Node35&#45;&gt;Node20</title>
<path fill="none" stroke="midnightblue" d="M214.12,-168.34C227.01,-165.17 241.78,-161.24 255,-157 271.35,-151.76 274.58,-148.02 291,-143 300.13,-140.21 309.92,-137.63 319.49,-135.33"/>
<polygon fill="midnightblue" stroke="midnightblue" points="320.39,-138.71 329.34,-133.04 318.8,-131.9 320.39,-138.71"/>
</g>
<!-- Node36 -->
<g id="node36" class="node">
<title>Node36</title>
<g id="a_node36"><a xlink:href="class_field.html#a5f554e84e4bc9af72e5d262f41e97493" target="_top" xlink:title=" ">
<polygon fill="white" stroke="black" points="345.5,-76.5 345.5,-95.5 406.5,-95.5 406.5,-76.5 345.5,-76.5"/>
<text text-anchor="middle" x="376" y="-83.5" font-family="Helvetica,sans-Serif" font-size="10.00">Field::Tick</text>
</a>
</g>
</g>
<!-- Node35&#45;&gt;Node36 -->
<g id="edge45" class="edge">
<title>Node35&#45;&gt;Node36</title>
<path fill="none" stroke="midnightblue" d="M214.17,-172.62C227.77,-169.98 243.05,-165.3 255,-157 278.08,-140.96 267.7,-120.73 291,-105 303.99,-96.23 320.42,-91.46 335.3,-88.88"/>
<polygon fill="midnightblue" stroke="midnightblue" points="335.9,-92.33 345.29,-87.42 334.89,-85.4 335.9,-92.33"/>
</g>
<!-- Node37 -->
<g id="node37" class="node">
<title>Node37</title>
<g id="a_node37"><a xlink:href="class_player.html#ac9010645b179712c09ebd310e5fe48eb" target="_top" xlink:title=" ">
<polygon fill="white" stroke="black" points="342.5,-38.5 342.5,-57.5 409.5,-57.5 409.5,-38.5 342.5,-38.5"/>
<text text-anchor="middle" x="376" y="-45.5" font-family="Helvetica,sans-Serif" font-size="10.00">Player::Tick</text>
</a>
</g>
</g>
<!-- Node35&#45;&gt;Node37 -->
<g id="edge46" class="edge">
<title>Node35&#45;&gt;Node37</title>
<path fill="none" stroke="midnightblue" d="M214.03,-174.09C228.1,-171.73 243.76,-166.86 255,-157 287.39,-128.59 258.23,-94.96 291,-67 302.35,-57.32 317.61,-52.3 332.01,-49.77"/>
<polygon fill="midnightblue" stroke="midnightblue" points="332.86,-53.19 342.28,-48.35 331.89,-46.26 332.86,-53.19"/>
</g>
<!-- Node38 -->
<g id="node38" class="node">
<title>Node38</title>
<g id="a_node38"><a xlink:href="struct_vector2_d.html#a4243151f5398e352a38073c4e1dfd30b" target="_top" xlink:title=" ">
<polygon fill="white" stroke="black" points="508,-38.5 508,-57.5 620,-57.5 620,-38.5 508,-38.5"/>
<text text-anchor="middle" x="564" y="-45.5" font-family="Helvetica,sans-Serif" font-size="10.00">Vector2D&lt; float &gt;::dist</text>
</a>
</g>
</g>
<!-- Node37&#45;&gt;Node38 -->
<g id="edge47" class="edge">
<title>Node37&#45;&gt;Node38</title>
<path fill="none" stroke="midnightblue" d="M409.82,-48C434.08,-48 467.91,-48 497.6,-48"/>
<polygon fill="midnightblue" stroke="midnightblue" points="497.91,-51.5 507.91,-48 497.91,-44.5 497.91,-51.5"/>
</g>
<!-- Node39 -->
<g id="node39" class="node">
<title>Node39</title>
<g id="a_node39"><a xlink:href="class_world_actor.html#a211b1d4fdcd4eaed756b3602b6dfb412" target="_top" xlink:title=" ">
<polygon fill="white" stroke="black" points="520,-159.5 520,-178.5 608,-178.5 608,-159.5 520,-159.5"/>
<text text-anchor="middle" x="564" y="-166.5" font-family="Helvetica,sans-Serif" font-size="10.00">WorldActor::Tick</text>
</a>
</g>
</g>
<!-- Node37&#45;&gt;Node39 -->
<g id="edge48" class="edge">
<title>Node37&#45;&gt;Node39</title>
<path fill="none" stroke="midnightblue" d="M409.63,-51.05C425.85,-53.62 445.29,-58.34 461,-67 499.33,-88.14 532.87,-127.96 550.29,-151.1"/>
<polygon fill="midnightblue" stroke="midnightblue" points="547.61,-153.36 556.35,-159.35 553.25,-149.22 547.61,-153.36"/>
</g>
<!-- Node40 -->
<g id="node40" class="node">
<title>Node40</title>
<g id="a_node40"><a xlink:href="class_field.html#a8ce096331f51a8e41e54c0ce4e8ac43a" target="_top" xlink:title=" ">
<polygon fill="white" stroke="black" points="686,-216.5 686,-235.5 778,-235.5 778,-216.5 686,-216.5"/>
<text text-anchor="middle" x="732" y="-223.5" font-family="Helvetica,sans-Serif" font-size="10.00">Field::GetBuilding</text>
</a>
</g>
</g>
<!-- Node39&#45;&gt;Node40 -->
<g id="edge49" class="edge">
<title>Node39&#45;&gt;Node40</title>
<path fill="none" stroke="midnightblue" d="M592.78,-178.54C620.43,-188.03 663.05,-202.67 693.65,-213.17"/>
<polygon fill="midnightblue" stroke="midnightblue" points="692.53,-216.49 703.12,-216.43 694.8,-209.87 692.53,-216.49"/>
</g>
<!-- Node41 -->
<g id="node41" class="node">
<title>Node41</title>
<g id="a_node41"><a xlink:href="class_field.html#a5a202354dc5e99cb7f51121904256845" target="_top" xlink:title=" ">
<polygon fill="white" stroke="black" points="695,-166.5 695,-185.5 769,-185.5 769,-166.5 695,-166.5"/>
<text text-anchor="middle" x="732" y="-173.5" font-family="Helvetica,sans-Serif" font-size="10.00">Field::GetCell</text>
</a>
</g>
</g>
<!-- Node39&#45;&gt;Node41 -->
<g id="edge51" class="edge">
<title>Node39&#45;&gt;Node41</title>
<path fill="none" stroke="midnightblue" d="M608.18,-170.82C631.61,-171.81 660.59,-173.03 684.51,-174.04"/>
<polygon fill="midnightblue" stroke="midnightblue" points="684.63,-177.55 694.77,-174.47 684.93,-170.55 684.63,-177.55"/>
</g>
<!-- Node42 -->
<g id="node42" class="node">
<title>Node42</title>
<g id="a_node42"><a xlink:href="class_cell.html#ac21e31812473f2d969ff434b35a81825" target="_top" xlink:title=" ">
<polygon fill="white" stroke="black" points="691.5,-128.5 691.5,-147.5 772.5,-147.5 772.5,-128.5 691.5,-128.5"/>
<text text-anchor="middle" x="732" y="-135.5" font-family="Helvetica,sans-Serif" font-size="10.00">Cell::GetSpeed</text>
</a>
</g>
</g>
<!-- Node39&#45;&gt;Node42 -->
<g id="edge52" class="edge">
<title>Node39&#45;&gt;Node42</title>
<path fill="none" stroke="midnightblue" d="M608.18,-160.94C630.61,-156.75 658.12,-151.61 681.41,-147.26"/>
<polygon fill="midnightblue" stroke="midnightblue" points="682.26,-150.66 691.45,-145.39 680.97,-143.78 682.26,-150.66"/>
</g>
<!-- Node40&#45;&gt;Node17 -->
<g id="edge50" class="edge">
<title>Node40&#45;&gt;Node17</title>
<path fill="none" stroke="midnightblue" d="M778.13,-231.72C800.43,-234.55 827.55,-237.99 851.1,-240.98"/>
<polygon fill="midnightblue" stroke="midnightblue" points="850.93,-244.48 861.29,-242.27 851.81,-237.54 850.93,-244.48"/>
</g>
<!-- Node43&#45;&gt;Node16 -->
<g id="edge54" class="edge">
<title>Node43&#45;&gt;Node16</title>
<path fill="none" stroke="midnightblue" d="M624.88,-496.29C681.23,-489.02 765.97,-478.11 827.77,-470.14"/>
<polygon fill="midnightblue" stroke="midnightblue" points="828.4,-473.59 837.87,-468.84 827.51,-466.65 828.4,-473.59"/>
</g>
</g>
</svg>
