<?xml version="1.0" encoding="UTF-8" standalone="no"?>
<!DOCTYPE svg PUBLIC "-//W3C//DTD SVG 1.1//EN"
 "http://www.w3.org/Graphics/SVG/1.1/DTD/svg11.dtd">
<!-- Generated by graphviz version 2.47.0 (20210407.0042)
 -->
<!-- Title: Engine::Draw Pages: 1 -->
<svg width="1053pt" height="447pt"
 viewBox="0.00 0.00 1053.00 447.00" xmlns="http://www.w3.org/2000/svg" xmlns:xlink="http://www.w3.org/1999/xlink">
<g id="graph0" class="graph" transform="scale(1 1) rotate(0) translate(4 443)">
<title>Engine::Draw</title>
<polygon fill="white" stroke="transparent" points="-4,4 -4,-443 1049,-443 1049,4 -4,4"/>
<!-- Node1 -->
<g id="node1" class="node">
<title>Node1</title>
<g id="a_node1"><a xlink:title=" ">
<polygon fill="#bfbfbf" stroke="black" points="0,-152.5 0,-171.5 73,-171.5 73,-152.5 0,-152.5"/>
<text text-anchor="middle" x="36.5" y="-159.5" font-family="Helvetica,sans-Serif" font-size="10.00">Engine::Draw</text>
</a>
</g>
</g>
<!-- Node2 -->
<g id="node2" class="node">
<title>Node2</title>
<g id="a_node2"><a xlink:href="class_g_u_i_1_1_g_u_i_manager.html#a4b30f151da1c9091236f1b4345d68126" target="_top" xlink:title=" ">
<polygon fill="white" stroke="black" points="133,-390.5 133,-409.5 255,-409.5 255,-390.5 133,-390.5"/>
<text text-anchor="middle" x="194" y="-397.5" font-family="Helvetica,sans-Serif" font-size="10.00">GUI::GUIManager::Draw</text>
</a>
</g>
</g>
<!-- Node1&#45;&gt;Node2 -->
<g id="edge1" class="edge">
<title>Node1&#45;&gt;Node2</title>
<path fill="none" stroke="midnightblue" d="M37.71,-171.76C38.99,-205.37 47.87,-317.51 109,-376 113.28,-380.1 118.21,-383.5 123.5,-386.33"/>
<polygon fill="midnightblue" stroke="midnightblue" points="122.13,-389.55 132.67,-390.57 125.06,-383.2 122.13,-389.55"/>
</g>
<!-- Node3 -->
<g id="node3" class="node">
<title>Node3</title>
<g id="a_node3"><a xlink:href="class_field.html#ad13d86066be42a2e10fcb9cbcc51fb0b" target="_top" xlink:title=" ">
<polygon fill="white" stroke="black" points="161.5,-238.5 161.5,-257.5 226.5,-257.5 226.5,-238.5 161.5,-238.5"/>
<text text-anchor="middle" x="194" y="-245.5" font-family="Helvetica,sans-Serif" font-size="10.00">Field::Draw</text>
</a>
</g>
</g>
<!-- Node1&#45;&gt;Node3 -->
<g id="edge2" class="edge">
<title>Node1&#45;&gt;Node3</title>
<path fill="none" stroke="midnightblue" d="M47.93,-171.67C61.25,-183.63 85.42,-203.98 109,-217 122.25,-224.32 137.57,-230.55 151.47,-235.47"/>
<polygon fill="midnightblue" stroke="midnightblue" points="150.7,-238.91 161.29,-238.82 152.96,-232.28 150.7,-238.91"/>
</g>
<!-- Node5 -->
<g id="node5" class="node">
<title>Node5</title>
<g id="a_node5"><a xlink:href="class_drawable.html#ac46f25a963a3fe3e9176461d61d213c7" target="_top" xlink:title=" ">
<polygon fill="white" stroke="black" points="485,-294.5 485,-313.5 569,-313.5 569,-294.5 485,-294.5"/>
<text text-anchor="middle" x="527" y="-301.5" font-family="Helvetica,sans-Serif" font-size="10.00">Drawable::Draw</text>
</a>
</g>
</g>
<!-- Node1&#45;&gt;Node5 -->
<g id="edge17" class="edge">
<title>Node1&#45;&gt;Node5</title>
<path fill="none" stroke="midnightblue" d="M41.55,-171.59C50.64,-192.01 74.59,-240.12 109,-267 185.9,-327.08 218.93,-325.84 315,-343 373.63,-353.47 391.07,-356.83 449,-343 468.37,-338.37 488.38,-328.04 503.14,-319.17"/>
<polygon fill="midnightblue" stroke="midnightblue" points="505.4,-321.89 512.03,-313.63 501.69,-315.95 505.4,-321.89"/>
</g>
<!-- Node14 -->
<g id="node14" class="node">
<title>Node14</title>
<g id="a_node14"><a xlink:href="class_graphics_1_1_resource_manager.html#a2bf0311bf4f8431618eb13706a26a5f1" target="_top" xlink:title=" ">
<polygon fill="white" stroke="black" points="605,-215 605,-245 744,-245 744,-215 605,-215"/>
<text text-anchor="start" x="613" y="-233" font-family="Helvetica,sans-Serif" font-size="10.00">Graphics::ResourceManager</text>
<text text-anchor="middle" x="674.5" y="-222" font-family="Helvetica,sans-Serif" font-size="10.00">::GetWindow</text>
</a>
</g>
</g>
<!-- Node1&#45;&gt;Node14 -->
<g id="edge20" class="edge">
<title>Node1&#45;&gt;Node14</title>
<path fill="none" stroke="midnightblue" d="M73.19,-161.46C144.79,-160.85 310.94,-161.75 449,-180 503.47,-187.2 564.24,-201.1 608.8,-212.43"/>
<polygon fill="midnightblue" stroke="midnightblue" points="608.07,-215.85 618.63,-214.95 609.81,-209.07 608.07,-215.85"/>
</g>
<!-- Node16 -->
<g id="node16" class="node">
<title>Node16</title>
<g id="a_node16"><a xlink:href="class_graphics_1_1_window.html#aa834f03ccb101a164cdfdffa773c0a53" target="_top" xlink:title=" ">
<polygon fill="white" stroke="black" points="315,-189 315,-219 449,-219 449,-189 315,-189"/>
<text text-anchor="start" x="323" y="-207" font-family="Helvetica,sans-Serif" font-size="10.00">Graphics::Window::GetSize</text>
<text text-anchor="middle" x="382" y="-196" font-family="Helvetica,sans-Serif" font-size="10.00">Window</text>
</a>
</g>
</g>
<!-- Node1&#45;&gt;Node16 -->
<g id="edge19" class="edge">
<title>Node1&#45;&gt;Node16</title>
<path fill="none" stroke="midnightblue" d="M73.03,-169.62C84.48,-171.89 97.24,-174.25 109,-176 174.72,-185.8 249.9,-193.25 304.53,-198"/>
<polygon fill="midnightblue" stroke="midnightblue" points="304.57,-201.51 314.83,-198.88 305.17,-194.54 304.57,-201.51"/>
</g>
<!-- Node17 -->
<g id="node17" class="node">
<title>Node17</title>
<g id="a_node17"><a xlink:href="class_g_u_i_1_1_g_u_i_manager.html#a35c67b5beb3865f595f3f0353c9afd94" target="_top" xlink:title=" ">
<polygon fill="white" stroke="black" points="109,-114.5 109,-133.5 279,-133.5 279,-114.5 109,-114.5"/>
<text text-anchor="middle" x="194" y="-121.5" font-family="Helvetica,sans-Serif" font-size="10.00">GUI::GUIManager::GetGUIManager</text>
</a>
</g>
</g>
<!-- Node1&#45;&gt;Node17 -->
<g id="edge18" class="edge">
<title>Node1&#45;&gt;Node17</title>
<path fill="none" stroke="midnightblue" d="M73.17,-153.28C94.19,-148.15 121.06,-141.58 144.04,-135.97"/>
<polygon fill="midnightblue" stroke="midnightblue" points="145.06,-139.32 153.95,-133.54 143.4,-132.52 145.06,-139.32"/>
</g>
<!-- Node18 -->
<g id="node18" class="node">
<title>Node18</title>
<g id="a_node18"><a xlink:href="class_world_actor.html#a35b3672c657fd763d44c75f9625c1185" target="_top" xlink:title=" ">
<polygon fill="white" stroke="black" points="148,-76.5 148,-95.5 240,-95.5 240,-76.5 148,-76.5"/>
<text text-anchor="middle" x="194" y="-83.5" font-family="Helvetica,sans-Serif" font-size="10.00">WorldActor::GetX</text>
</a>
</g>
</g>
<!-- Node1&#45;&gt;Node18 -->
<g id="edge21" class="edge">
<title>Node1&#45;&gt;Node18</title>
<path fill="none" stroke="midnightblue" d="M46.7,-152.32C59.46,-139.5 83.81,-117.1 109,-105 118,-100.68 128.01,-97.32 137.9,-94.71"/>
<polygon fill="midnightblue" stroke="midnightblue" points="138.81,-98.1 147.71,-92.35 137.17,-91.29 138.81,-98.1"/>
</g>
<!-- Node19 -->
<g id="node19" class="node">
<title>Node19</title>
<g id="a_node19"><a xlink:href="class_world_actor.html#a28d9235e9224dee56e6f32791d5931f0" target="_top" xlink:title=" ">
<polygon fill="white" stroke="black" points="148,-38.5 148,-57.5 240,-57.5 240,-38.5 148,-38.5"/>
<text text-anchor="middle" x="194" y="-45.5" font-family="Helvetica,sans-Serif" font-size="10.00">WorldActor::GetY</text>
</a>
</g>
</g>
<!-- Node1&#45;&gt;Node19 -->
<g id="edge22" class="edge">
<title>Node1&#45;&gt;Node19</title>
<path fill="none" stroke="midnightblue" d="M41.84,-152.41C51.16,-132.99 75.03,-88.97 109,-67 117.75,-61.34 127.97,-57.35 138.2,-54.55"/>
<polygon fill="midnightblue" stroke="midnightblue" points="139.06,-57.94 147.97,-52.21 137.43,-51.13 139.06,-57.94"/>
</g>
<!-- Node20 -->
<g id="node20" class="node">
<title>Node20</title>
<g id="a_node20"><a xlink:href="class_graphics_1_1_window.html#a7863fafae23423f404bee7aa3a57e124" target="_top" xlink:title=" ">
<polygon fill="white" stroke="black" points="129,-0.5 129,-19.5 259,-19.5 259,-0.5 129,-0.5"/>
<text text-anchor="middle" x="194" y="-7.5" font-family="Helvetica,sans-Serif" font-size="10.00">Graphics::Window::Render</text>
</a>
</g>
</g>
<!-- Node1&#45;&gt;Node20 -->
<g id="edge23" class="edge">
<title>Node1&#45;&gt;Node20</title>
<path fill="none" stroke="midnightblue" d="M39.79,-152.14C46.1,-127.24 66.22,-61.52 109,-29 112.25,-26.53 115.77,-24.36 119.46,-22.47"/>
<polygon fill="midnightblue" stroke="midnightblue" points="121.17,-25.54 128.92,-18.32 118.36,-19.14 121.17,-25.54"/>
</g>
<!-- Node4 -->
<g id="node4" class="node">
<title>Node4</title>
<g id="a_node4"><a xlink:href="class_cell.html#ac88160c4177e146f8dd7482c4eaee4f0" target="_top" xlink:title=" ">
<polygon fill="white" stroke="black" points="352,-276.5 352,-295.5 412,-295.5 412,-276.5 352,-276.5"/>
<text text-anchor="middle" x="382" y="-283.5" font-family="Helvetica,sans-Serif" font-size="10.00">Cell::Draw</text>
</a>
</g>
</g>
<!-- Node3&#45;&gt;Node4 -->
<g id="edge3" class="edge">
<title>Node3&#45;&gt;Node4</title>
<path fill="none" stroke="midnightblue" d="M226.55,-254.45C258.3,-260.93 307.34,-270.95 341.62,-277.95"/>
<polygon fill="midnightblue" stroke="midnightblue" points="341.25,-281.45 351.75,-280.02 342.65,-274.59 341.25,-281.45"/>
</g>
<!-- Node3&#45;&gt;Node14 -->
<g id="edge16" class="edge">
<title>Node3&#45;&gt;Node14</title>
<path fill="none" stroke="midnightblue" d="M226.77,-246.81C300.98,-244.01 487.53,-237 594.63,-232.97"/>
<polygon fill="midnightblue" stroke="midnightblue" points="594.88,-236.46 604.74,-232.59 594.61,-229.47 594.88,-236.46"/>
</g>
<!-- Node15 -->
<g id="node15" class="node">
<title>Node15</title>
<g id="a_node15"><a xlink:href="class_field.html#a81822f0090fbb9f187fe4d3d15c7ab96" target="_top" xlink:title=" ">
<polygon fill="white" stroke="black" points="336,-314.5 336,-333.5 428,-333.5 428,-314.5 336,-314.5"/>
<text text-anchor="middle" x="382" y="-321.5" font-family="Helvetica,sans-Serif" font-size="10.00">Field::GetCellPos</text>
</a>
</g>
</g>
<!-- Node3&#45;&gt;Node15 -->
<g id="edge14" class="edge">
<title>Node3&#45;&gt;Node15</title>
<path fill="none" stroke="midnightblue" d="M212.89,-257.64C236,-269.81 277.68,-290.87 315,-305 321.07,-307.3 327.55,-309.48 333.98,-311.49"/>
<polygon fill="midnightblue" stroke="midnightblue" points="333.41,-314.97 344,-314.5 335.43,-308.27 333.41,-314.97"/>
</g>
<!-- Node3&#45;&gt;Node16 -->
<g id="edge15" class="edge">
<title>Node3&#45;&gt;Node16</title>
<path fill="none" stroke="midnightblue" d="M226.55,-240.54C248.71,-235.29 279.29,-228.06 307.4,-221.41"/>
<polygon fill="midnightblue" stroke="midnightblue" points="308.3,-224.8 317.22,-219.09 306.69,-217.98 308.3,-224.8"/>
</g>
<!-- Node4&#45;&gt;Node5 -->
<g id="edge4" class="edge">
<title>Node4&#45;&gt;Node5</title>
<path fill="none" stroke="midnightblue" d="M412.28,-289.69C430.26,-291.95 453.78,-294.91 474.77,-297.55"/>
<polygon fill="midnightblue" stroke="midnightblue" points="474.47,-301.04 484.83,-298.82 475.35,-294.1 474.47,-301.04"/>
</g>
<!-- Node6 -->
<g id="node6" class="node">
<title>Node6</title>
<g id="a_node6"><a xlink:href="class_graphics_1_1_image.html#af48c0e309532eb1ff36e8fdaee244da1" target="_top" xlink:title=" ">
<polygon fill="white" stroke="black" points="617.5,-362.5 617.5,-381.5 731.5,-381.5 731.5,-362.5 617.5,-362.5"/>
<text text-anchor="middle" x="674.5" y="-369.5" font-family="Helvetica,sans-Serif" font-size="10.00">Graphics::Image::Draw</text>
</a>
</g>
</g>
<!-- Node5&#45;&gt;Node6 -->
<g id="edge5" class="edge">
<title>Node5&#45;&gt;Node6</title>
<path fill="none" stroke="midnightblue" d="M540.42,-313.55C555.12,-324.46 580.68,-342.18 605,-353 610.35,-355.38 616.06,-357.53 621.82,-359.45"/>
<polygon fill="midnightblue" stroke="midnightblue" points="620.93,-362.84 631.51,-362.47 623.01,-356.15 620.93,-362.84"/>
</g>
<!-- Node12 -->
<g id="node12" class="node">
<title>Node12</title>
<g id="a_node12"><a xlink:href="class_graphics_1_1_resource_manager.html#a712cf513dbda24deb3a7fcea7157003a" target="_top" xlink:title=" ">
<polygon fill="white" stroke="black" points="605,-313 605,-343 744,-343 744,-313 605,-313"/>
<text text-anchor="start" x="613" y="-331" font-family="Helvetica,sans-Serif" font-size="10.00">Graphics::ResourceManager</text>
<text text-anchor="middle" x="674.5" y="-320" font-family="Helvetica,sans-Serif" font-size="10.00">::GetImage</text>
</a>
</g>
</g>
<!-- Node5&#45;&gt;Node12 -->
<g id="edge11" class="edge">
<title>Node5&#45;&gt;Node12</title>
<path fill="none" stroke="midnightblue" d="M569.31,-310.81C577.36,-312.14 586.06,-313.58 594.87,-315.03"/>
<polygon fill="midnightblue" stroke="midnightblue" points="594.4,-318.5 604.84,-316.67 595.54,-311.59 594.4,-318.5"/>
</g>
<!-- Node13 -->
<g id="node13" class="node">
<title>Node13</title>
<g id="a_node13"><a xlink:href="class_graphics_1_1_resource_manager.html#a34d11294bd090580de46ab34f303c2ab" target="_top" xlink:title=" ">
<polygon fill="white" stroke="black" points="605,-264 605,-294 744,-294 744,-264 605,-264"/>
<text text-anchor="start" x="613" y="-282" font-family="Helvetica,sans-Serif" font-size="10.00">Graphics::ResourceManager</text>
<text text-anchor="middle" x="674.5" y="-271" font-family="Helvetica,sans-Serif" font-size="10.00">::GetShader</text>
</a>
</g>
</g>
<!-- Node5&#45;&gt;Node13 -->
<g id="edge12" class="edge">
<title>Node5&#45;&gt;Node13</title>
<path fill="none" stroke="midnightblue" d="M569.31,-296.9C577.36,-295.52 586.06,-294.02 594.87,-292.51"/>
<polygon fill="midnightblue" stroke="midnightblue" points="595.57,-295.94 604.84,-290.8 594.39,-289.04 595.57,-295.94"/>
</g>
<!-- Node5&#45;&gt;Node14 -->
<g id="edge13" class="edge">
<title>Node5&#45;&gt;Node14</title>
<path fill="none" stroke="midnightblue" d="M541.11,-294.4C556.04,-283.79 581.41,-266.64 605,-255 609.31,-252.87 613.86,-250.82 618.47,-248.88"/>
<polygon fill="midnightblue" stroke="midnightblue" points="620,-252.03 627.96,-245.04 617.38,-245.54 620,-252.03"/>
</g>
<!-- Node7 -->
<g id="node7" class="node">
<title>Node7</title>
<g id="a_node7"><a xlink:href="class_graphics_1_1_quadrangle.html#a7a061a60b5bff19feb5fd317d06495f0" target="_top" xlink:title=" ">
<polygon fill="white" stroke="black" points="780,-379 780,-409 890,-409 890,-379 780,-379"/>
<text text-anchor="start" x="788" y="-397" font-family="Helvetica,sans-Serif" font-size="10.00">Graphics::Quadrangle</text>
<text text-anchor="middle" x="835" y="-386" font-family="Helvetica,sans-Serif" font-size="10.00">::Draw</text>
</a>
</g>
</g>
<!-- Node6&#45;&gt;Node7 -->
<g id="edge6" class="edge">
<title>Node6&#45;&gt;Node7</title>
<path fill="none" stroke="midnightblue" d="M731.83,-379.82C744.18,-381.53 757.36,-383.36 769.99,-385.12"/>
<polygon fill="midnightblue" stroke="midnightblue" points="769.59,-388.59 779.98,-386.5 770.56,-381.66 769.59,-388.59"/>
</g>
<!-- Node10 -->
<g id="node10" class="node">
<title>Node10</title>
<g id="a_node10"><a xlink:href="class_graphics_1_1_shader.html#aa5da414808337285b38565f60c3d7cbd" target="_top" xlink:title=" ">
<polygon fill="white" stroke="black" points="780,-340.5 780,-359.5 890,-359.5 890,-340.5 780,-340.5"/>
<text text-anchor="middle" x="835" y="-347.5" font-family="Helvetica,sans-Serif" font-size="10.00">Graphics::Shader::Set</text>
</a>
</g>
</g>
<!-- Node6&#45;&gt;Node10 -->
<g id="edge9" class="edge">
<title>Node6&#45;&gt;Node10</title>
<path fill="none" stroke="midnightblue" d="M731.83,-364.18C744.18,-362.47 757.36,-360.64 769.99,-358.88"/>
<polygon fill="midnightblue" stroke="midnightblue" points="770.56,-362.34 779.98,-357.5 769.59,-355.41 770.56,-362.34"/>
</g>
<!-- Node8 -->
<g id="node8" class="node">
<title>Node8</title>
<g id="a_node8"><a xlink:href="class_graphics_1_1_shader.html#a63bfd523754bb6b2224aa7a48c65a504" target="_top" xlink:title=" ">
<polygon fill="white" stroke="black" points="926,-381.5 926,-400.5 1045,-400.5 1045,-381.5 926,-381.5"/>
<text text-anchor="middle" x="985.5" y="-388.5" font-family="Helvetica,sans-Serif" font-size="10.00">Graphics::Shader::GetId</text>
</a>
</g>
</g>
<!-- Node7&#45;&gt;Node8 -->
<g id="edge7" class="edge">
<title>Node7&#45;&gt;Node8</title>
<path fill="none" stroke="midnightblue" d="M890.03,-392.91C898.44,-392.74 907.21,-392.56 915.89,-392.39"/>
<polygon fill="midnightblue" stroke="midnightblue" points="916.07,-395.88 926,-392.18 915.93,-388.88 916.07,-395.88"/>
</g>
<!-- Node9 -->
<g id="node9" class="node">
<title>Node9</title>
<g id="a_node9"><a xlink:href="class_graphics_1_1_shader.html#a11a2de17d1d077ec34acd4f7cd57f6b1" target="_top" xlink:title=" ">
<polygon fill="white" stroke="black" points="929,-419.5 929,-438.5 1042,-438.5 1042,-419.5 929,-419.5"/>
<text text-anchor="middle" x="985.5" y="-426.5" font-family="Helvetica,sans-Serif" font-size="10.00">Graphics::Shader::Use</text>
</a>
</g>
</g>
<!-- Node7&#45;&gt;Node9 -->
<g id="edge8" class="edge">
<title>Node7&#45;&gt;Node9</title>
<path fill="none" stroke="midnightblue" d="M890.03,-406.73C904.31,-410.1 919.67,-413.72 933.77,-417.04"/>
<polygon fill="midnightblue" stroke="midnightblue" points="933.25,-420.52 943.78,-419.4 934.85,-413.7 933.25,-420.52"/>
</g>
<!-- Node11 -->
<g id="node11" class="node">
<title>Node11</title>
<g id="a_node11"><a xlink:href="class_graphics_1_1_image.html#aab55feadb4b66e0fd78b5f54a6fadde2" target="_top" xlink:title=" ">
<polygon fill="white" stroke="black" points="927.5,-340.5 927.5,-359.5 1043.5,-359.5 1043.5,-340.5 927.5,-340.5"/>
<text text-anchor="middle" x="985.5" y="-347.5" font-family="Helvetica,sans-Serif" font-size="10.00">Graphics::Image::GetId</text>
</a>
</g>
</g>
<!-- Node10&#45;&gt;Node11 -->
<g id="edge10" class="edge">
<title>Node10&#45;&gt;Node11</title>
<path fill="none" stroke="midnightblue" d="M890.03,-350C898.83,-350 908.04,-350 917.11,-350"/>
<polygon fill="midnightblue" stroke="midnightblue" points="917.26,-353.5 927.26,-350 917.26,-346.5 917.26,-353.5"/>
</g>
<!-- Node21 -->
<g id="node21" class="node">
<title>Node21</title>
<g id="a_node21"><a xlink:href="class_graphics_1_1_window.html#a9904449165571eff36b106148ec1279f" target="_top" xlink:title=" ">
<polygon fill="white" stroke="black" points="321,-0.5 321,-19.5 443,-19.5 443,-0.5 321,-0.5"/>
<text text-anchor="middle" x="382" y="-7.5" font-family="Helvetica,sans-Serif" font-size="10.00">Graphics::Window::Clear</text>
</a>
</g>
</g>
<!-- Node20&#45;&gt;Node21 -->
<g id="edge24" class="edge">
<title>Node20&#45;&gt;Node21</title>
<path fill="none" stroke="midnightblue" d="M259.01,-10C275.63,-10 293.63,-10 310.56,-10"/>
<polygon fill="midnightblue" stroke="midnightblue" points="310.94,-13.5 320.94,-10 310.94,-6.5 310.94,-13.5"/>
</g>
</g>
</svg>
