<?xml version="1.0" encoding="UTF-8" standalone="no"?>
<!DOCTYPE svg PUBLIC "-//W3C//DTD SVG 1.1//EN"
 "http://www.w3.org/Graphics/SVG/1.1/DTD/svg11.dtd">
<!-- Generated by graphviz version 2.47.0 (20210407.0042)
 -->
<!-- Title: Graphics::GShape::Draw Pages: 1 -->
<svg width="288pt" height="78pt"
 viewBox="0.00 0.00 288.00 77.50" xmlns="http://www.w3.org/2000/svg" xmlns:xlink="http://www.w3.org/1999/xlink">
<g id="graph0" class="graph" transform="scale(1 1) rotate(0) translate(4 73.5)">
<title>Graphics::GShape::Draw</title>
<polygon fill="white" stroke="transparent" points="-4,4 -4,-73.5 284,-73.5 284,4 -4,4"/>
<!-- Node1 -->
<g id="node1" class="node">
<title>Node1</title>
<g id="a_node1"><a xlink:title=" ">
<polygon fill="#bfbfbf" stroke="black" points="158,-22.5 158,-41.5 280,-41.5 280,-22.5 158,-22.5"/>
<text text-anchor="middle" x="219" y="-29.5" font-family="Helvetica,sans-Serif" font-size="10.00">Graphics::GShape::Draw</text>
</a>
</g>
</g>
<!-- Node2 -->
<g id="node2" class="node">
<title>Node2</title>
<g id="a_node2"><a xlink:href="class_graphics_1_1_quadrangle.html#a5785898df5799fb627eb04add6f5d523" target="_top" xlink:title=" ">
<polygon fill="white" stroke="black" points="6,-39 6,-69 116,-69 116,-39 6,-39"/>
<text text-anchor="start" x="14" y="-57" font-family="Helvetica,sans-Serif" font-size="10.00">Graphics::Quadrangle</text>
<text text-anchor="middle" x="61" y="-46" font-family="Helvetica,sans-Serif" font-size="10.00">::Draw</text>
</a>
</g>
</g>
<!-- Node1&#45;&gt;Node2 -->
<g id="edge1" class="edge">
<title>Node1&#45;&gt;Node2</title>
<path fill="none" stroke="midnightblue" d="M147.61,-41.93C137.01,-43.42 126.22,-44.94 116.04,-46.38"/>
<polygon fill="midnightblue" stroke="midnightblue" points="148.27,-45.37 157.69,-40.51 147.3,-38.44 148.27,-45.37"/>
</g>
<!-- Node3 -->
<g id="node3" class="node">
<title>Node3</title>
<g id="a_node3"><a xlink:href="class_graphics_1_1_g_shape.html#ad303fe96d5d856cfbae1cc8e99414d65" target="_top" xlink:title=" ">
<polygon fill="white" stroke="black" points="0,-0.5 0,-19.5 122,-19.5 122,-0.5 0,-0.5"/>
<text text-anchor="middle" x="61" y="-7.5" font-family="Helvetica,sans-Serif" font-size="10.00">Graphics::GShape::Draw</text>
</a>
</g>
</g>
<!-- Node1&#45;&gt;Node3 -->
<g id="edge2" class="edge">
<title>Node1&#45;&gt;Node3</title>
<path fill="none" stroke="midnightblue" d="M147.74,-22.09C139.2,-20.89 130.53,-19.66 122.15,-18.48"/>
<polygon fill="midnightblue" stroke="midnightblue" points="147.3,-25.56 157.69,-23.49 148.27,-18.63 147.3,-25.56"/>
</g>
</g>
</svg>
