<?xml version="1.0" encoding="UTF-8" standalone="no"?>
<!DOCTYPE svg PUBLIC "-//W3C//DTD SVG 1.1//EN"
 "http://www.w3.org/Graphics/SVG/1.1/DTD/svg11.dtd">
<!-- Generated by graphviz version 2.47.0 (20210407.0042)
 -->
<!-- Title: Graphics::Shader::GetId Pages: 1 -->
<svg width="960pt" height="91pt"
 viewBox="0.00 0.00 960.00 91.00" xmlns="http://www.w3.org/2000/svg" xmlns:xlink="http://www.w3.org/1999/xlink">
<g id="graph0" class="graph" transform="scale(1 1) rotate(0) translate(4 87)">
<title>Graphics::Shader::GetId</title>
<polygon fill="white" stroke="transparent" points="-4,4 -4,-87 956,-87 956,4 -4,4"/>
<!-- Node1 -->
<g id="node1" class="node">
<title>Node1</title>
<g id="a_node1"><a xlink:title=" ">
<polygon fill="#bfbfbf" stroke="black" points="833,-22.5 833,-41.5 952,-41.5 952,-22.5 833,-22.5"/>
<text text-anchor="middle" x="892.5" y="-29.5" font-family="Helvetica,sans-Serif" font-size="10.00">Graphics::Shader::GetId</text>
</a>
</g>
</g>
<!-- Node2 -->
<g id="node2" class="node">
<title>Node2</title>
<g id="a_node2"><a xlink:href="class_graphics_1_1_quadrangle.html#a7a061a60b5bff19feb5fd317d06495f0" target="_top" xlink:title=" ">
<polygon fill="white" stroke="black" points="683.5,-39 683.5,-69 793.5,-69 793.5,-39 683.5,-39"/>
<text text-anchor="start" x="691.5" y="-57" font-family="Helvetica,sans-Serif" font-size="10.00">Graphics::Quadrangle</text>
<text text-anchor="middle" x="738.5" y="-46" font-family="Helvetica,sans-Serif" font-size="10.00">::Draw</text>
</a>
</g>
</g>
<!-- Node1&#45;&gt;Node2 -->
<g id="edge1" class="edge">
<title>Node1&#45;&gt;Node2</title>
<path fill="none" stroke="midnightblue" d="M822.67,-41.96C812.93,-43.37 803.04,-44.8 793.63,-46.16"/>
<polygon fill="midnightblue" stroke="midnightblue" points="823.34,-45.4 832.73,-40.51 822.33,-38.47 823.34,-45.4"/>
</g>
<!-- Node10 -->
<g id="node10" class="node">
<title>Node10</title>
<g id="a_node10"><a xlink:href="class_graphics_1_1_window.html#a8e68f174f194ced10d08fc490cdae5e1" target="_top" xlink:title=" ">
<polygon fill="white" stroke="black" points="680,-0.5 680,-19.5 797,-19.5 797,-0.5 680,-0.5"/>
<text text-anchor="middle" x="738.5" y="-7.5" font-family="Helvetica,sans-Serif" font-size="10.00">Graphics::Window::Use</text>
</a>
</g>
</g>
<!-- Node1&#45;&gt;Node10 -->
<g id="edge10" class="edge">
<title>Node1&#45;&gt;Node10</title>
<path fill="none" stroke="midnightblue" d="M822.75,-22.05C814.18,-20.81 805.49,-19.55 797.11,-18.34"/>
<polygon fill="midnightblue" stroke="midnightblue" points="822.33,-25.53 832.73,-23.49 823.34,-18.6 822.33,-25.53"/>
</g>
<!-- Node3 -->
<g id="node3" class="node">
<title>Node3</title>
<g id="a_node3"><a xlink:href="class_graphics_1_1_image.html#af48c0e309532eb1ff36e8fdaee244da1" target="_top" xlink:title=" ">
<polygon fill="white" stroke="black" points="530,-44.5 530,-63.5 644,-63.5 644,-44.5 530,-44.5"/>
<text text-anchor="middle" x="587" y="-51.5" font-family="Helvetica,sans-Serif" font-size="10.00">Graphics::Image::Draw</text>
</a>
</g>
</g>
<!-- Node2&#45;&gt;Node3 -->
<g id="edge2" class="edge">
<title>Node2&#45;&gt;Node3</title>
<path fill="none" stroke="midnightblue" d="M672.84,-54C663.28,-54 653.49,-54 644.11,-54"/>
<polygon fill="midnightblue" stroke="midnightblue" points="673.1,-57.5 683.1,-54 673.1,-50.5 673.1,-57.5"/>
</g>
<!-- Node4 -->
<g id="node4" class="node">
<title>Node4</title>
<g id="a_node4"><a xlink:href="class_drawable.html#ac46f25a963a3fe3e9176461d61d213c7" target="_top" xlink:title=" ">
<polygon fill="white" stroke="black" points="395,-63.5 395,-82.5 479,-82.5 479,-63.5 395,-63.5"/>
<text text-anchor="middle" x="437" y="-70.5" font-family="Helvetica,sans-Serif" font-size="10.00">Drawable::Draw</text>
</a>
</g>
</g>
<!-- Node3&#45;&gt;Node4 -->
<g id="edge3" class="edge">
<title>Node3&#45;&gt;Node4</title>
<path fill="none" stroke="midnightblue" d="M519.65,-62.52C505.81,-64.29 491.62,-66.12 479.03,-67.73"/>
<polygon fill="midnightblue" stroke="midnightblue" points="520.15,-65.98 529.63,-61.24 519.26,-59.04 520.15,-65.98"/>
</g>
<!-- Node9 -->
<g id="node9" class="node">
<title>Node9</title>
<g id="a_node9"><a xlink:href="class_graphics_1_1_image.html#a90e9a33ef5f89fa71e830d967122b9e3" target="_top" xlink:title=" ">
<polygon fill="white" stroke="black" points="380,-25.5 380,-44.5 494,-44.5 494,-25.5 380,-25.5"/>
<text text-anchor="middle" x="437" y="-32.5" font-family="Helvetica,sans-Serif" font-size="10.00">Graphics::Image::Draw</text>
</a>
</g>
</g>
<!-- Node3&#45;&gt;Node9 -->
<g id="edge9" class="edge">
<title>Node3&#45;&gt;Node9</title>
<path fill="none" stroke="midnightblue" d="M519.44,-45.46C511.02,-44.37 502.46,-43.28 494.22,-42.22"/>
<polygon fill="midnightblue" stroke="midnightblue" points="519.26,-48.96 529.63,-46.76 520.15,-42.02 519.26,-48.96"/>
</g>
<!-- Node5 -->
<g id="node5" class="node">
<title>Node5</title>
<g id="a_node5"><a xlink:href="class_engine.html#a39f23d7f0ad86322bfdb73d4e6763005" target="_top" xlink:title=" ">
<polygon fill="white" stroke="black" points="74,-63.5 74,-82.5 147,-82.5 147,-63.5 74,-63.5"/>
<text text-anchor="middle" x="110.5" y="-70.5" font-family="Helvetica,sans-Serif" font-size="10.00">Engine::Draw</text>
</a>
</g>
</g>
<!-- Node4&#45;&gt;Node5 -->
<g id="edge4" class="edge">
<title>Node4&#45;&gt;Node5</title>
<path fill="none" stroke="midnightblue" d="M384.69,-73C318.47,-73 204.91,-73 147.29,-73"/>
<polygon fill="midnightblue" stroke="midnightblue" points="384.9,-76.5 394.9,-73 384.9,-69.5 384.9,-76.5"/>
</g>
<!-- Node7 -->
<g id="node7" class="node">
<title>Node7</title>
<g id="a_node7"><a xlink:href="class_cell.html#ac88160c4177e146f8dd7482c4eaee4f0" target="_top" xlink:title=" ">
<polygon fill="white" stroke="black" points="284,-44.5 284,-63.5 344,-63.5 344,-44.5 284,-44.5"/>
<text text-anchor="middle" x="314" y="-51.5" font-family="Helvetica,sans-Serif" font-size="10.00">Cell::Draw</text>
</a>
</g>
</g>
<!-- Node4&#45;&gt;Node7 -->
<g id="edge6" class="edge">
<title>Node4&#45;&gt;Node7</title>
<path fill="none" stroke="midnightblue" d="M384.79,-64.96C370.96,-62.79 356.46,-60.51 344.29,-58.6"/>
<polygon fill="midnightblue" stroke="midnightblue" points="384.28,-68.42 394.7,-66.51 385.36,-61.51 384.28,-68.42"/>
</g>
<!-- Node6 -->
<g id="node6" class="node">
<title>Node6</title>
<g id="a_node6"><a xlink:href="main_8cpp.html#ae66f6b31b5ad750f1fe042a706a4e3d4" target="_top" xlink:title=" ">
<polygon fill="white" stroke="black" points="0,-63.5 0,-82.5 38,-82.5 38,-63.5 0,-63.5"/>
<text text-anchor="middle" x="19" y="-70.5" font-family="Helvetica,sans-Serif" font-size="10.00">main</text>
</a>
</g>
</g>
<!-- Node5&#45;&gt;Node6 -->
<g id="edge5" class="edge">
<title>Node5&#45;&gt;Node6</title>
<path fill="none" stroke="midnightblue" d="M63.66,-73C54.57,-73 45.53,-73 38.06,-73"/>
<polygon fill="midnightblue" stroke="midnightblue" points="63.87,-76.5 73.87,-73 63.87,-69.5 63.87,-76.5"/>
</g>
<!-- Node8 -->
<g id="node8" class="node">
<title>Node8</title>
<g id="a_node8"><a xlink:href="class_field.html#ad13d86066be42a2e10fcb9cbcc51fb0b" target="_top" xlink:title=" ">
<polygon fill="white" stroke="black" points="183,-44.5 183,-63.5 248,-63.5 248,-44.5 183,-44.5"/>
<text text-anchor="middle" x="215.5" y="-51.5" font-family="Helvetica,sans-Serif" font-size="10.00">Field::Draw</text>
</a>
</g>
</g>
<!-- Node7&#45;&gt;Node8 -->
<g id="edge7" class="edge">
<title>Node7&#45;&gt;Node8</title>
<path fill="none" stroke="midnightblue" d="M273.73,-54C265.27,-54 256.44,-54 248.31,-54"/>
<polygon fill="midnightblue" stroke="midnightblue" points="273.78,-57.5 283.78,-54 273.78,-50.5 273.78,-57.5"/>
</g>
<!-- Node8&#45;&gt;Node5 -->
<g id="edge8" class="edge">
<title>Node8&#45;&gt;Node5</title>
<path fill="none" stroke="midnightblue" d="M172.71,-61.71C164.28,-63.26 155.48,-64.89 147.27,-66.4"/>
<polygon fill="midnightblue" stroke="midnightblue" points="173.56,-65.11 182.76,-59.86 172.29,-58.23 173.56,-65.11"/>
</g>
</g>
</svg>
