<?xml version="1.0" encoding="UTF-8" standalone="no"?>
<!DOCTYPE svg PUBLIC "-//W3C//DTD SVG 1.1//EN"
 "http://www.w3.org/Graphics/SVG/1.1/DTD/svg11.dtd">
<!-- Generated by graphviz version 2.47.0 (20210407.0042)
 -->
<!-- Title: Graphics::ResourceManager::LoadImage Pages: 1 -->
<svg width="491pt" height="39pt"
 viewBox="0.00 0.00 491.00 39.00" xmlns="http://www.w3.org/2000/svg" xmlns:xlink="http://www.w3.org/1999/xlink">
<g id="graph0" class="graph" transform="scale(1 1) rotate(0) translate(4 35)">
<title>Graphics::ResourceManager::LoadImage</title>
<polygon fill="white" stroke="transparent" points="-4,4 -4,-35 487,-35 487,4 -4,4"/>
<!-- Node1 -->
<g id="node1" class="node">
<title>Node1</title>
<g id="a_node1"><a xlink:title=" ">
<polygon fill="#bfbfbf" stroke="black" points="344,-0.5 344,-30.5 483,-30.5 483,-0.5 344,-0.5"/>
<text text-anchor="start" x="352" y="-18.5" font-family="Helvetica,sans-Serif" font-size="10.00">Graphics::ResourceManager</text>
<text text-anchor="middle" x="413.5" y="-7.5" font-family="Helvetica,sans-Serif" font-size="10.00">::LoadImage</text>
</a>
</g>
</g>
<!-- Node2 -->
<g id="node2" class="node">
<title>Node2</title>
<g id="a_node2"><a xlink:href="namespace_graphics_1_1_resource_parser.html#a6a538c07babc9bbaf884e0aeb9654fe0" target="_top" xlink:title=" ">
<polygon fill="white" stroke="black" points="178,-0.5 178,-30.5 308,-30.5 308,-0.5 178,-0.5"/>
<text text-anchor="start" x="186" y="-18.5" font-family="Helvetica,sans-Serif" font-size="10.00">Graphics::ResourceParser</text>
<text text-anchor="middle" x="243" y="-7.5" font-family="Helvetica,sans-Serif" font-size="10.00">::LoadResources</text>
</a>
</g>
</g>
<!-- Node1&#45;&gt;Node2 -->
<g id="edge1" class="edge">
<title>Node1&#45;&gt;Node2</title>
<path fill="none" stroke="midnightblue" d="M333.89,-15.5C325.26,-15.5 316.55,-15.5 308.12,-15.5"/>
<polygon fill="midnightblue" stroke="midnightblue" points="333.96,-19 343.96,-15.5 333.96,-12 333.96,-19"/>
</g>
<!-- Node3 -->
<g id="node3" class="node">
<title>Node3</title>
<g id="a_node3"><a xlink:href="main_8cpp.html#adb66f09c018c6ec5f3ade6acd02a5003" target="_top" xlink:title=" ">
<polygon fill="white" stroke="black" points="74,-6 74,-25 142,-25 142,-6 74,-6"/>
<text text-anchor="middle" x="108" y="-13" font-family="Helvetica,sans-Serif" font-size="10.00">Initialization</text>
</a>
</g>
</g>
<!-- Node2&#45;&gt;Node3 -->
<g id="edge2" class="edge">
<title>Node2&#45;&gt;Node3</title>
<path fill="none" stroke="midnightblue" d="M167.71,-15.5C158.79,-15.5 150.05,-15.5 142.16,-15.5"/>
<polygon fill="midnightblue" stroke="midnightblue" points="167.84,-19 177.84,-15.5 167.84,-12 167.84,-19"/>
</g>
<!-- Node4 -->
<g id="node4" class="node">
<title>Node4</title>
<g id="a_node4"><a xlink:href="main_8cpp.html#ae66f6b31b5ad750f1fe042a706a4e3d4" target="_top" xlink:title=" ">
<polygon fill="white" stroke="black" points="0,-6 0,-25 38,-25 38,-6 0,-6"/>
<text text-anchor="middle" x="19" y="-13" font-family="Helvetica,sans-Serif" font-size="10.00">main</text>
</a>
</g>
</g>
<!-- Node3&#45;&gt;Node4 -->
<g id="edge3" class="edge">
<title>Node3&#45;&gt;Node4</title>
<path fill="none" stroke="midnightblue" d="M63.54,-15.5C54.55,-15.5 45.55,-15.5 38.09,-15.5"/>
<polygon fill="midnightblue" stroke="midnightblue" points="63.61,-19 73.61,-15.5 63.61,-12 63.61,-19"/>
</g>
</g>
</svg>
