<?xml version="1.0" encoding="UTF-8" standalone="no"?>
<!DOCTYPE svg PUBLIC "-//W3C//DTD SVG 1.1//EN"
 "http://www.w3.org/Graphics/SVG/1.1/DTD/svg11.dtd">
<!-- Generated by graphviz version 2.47.0 (20210407.0042)
 -->
<!-- Title: Graphics::Shader::Use Pages: 1 -->
<svg width="1010pt" height="110pt"
 viewBox="0.00 0.00 1010.00 109.50" xmlns="http://www.w3.org/2000/svg" xmlns:xlink="http://www.w3.org/1999/xlink">
<g id="graph0" class="graph" transform="scale(1 1) rotate(0) translate(4 105.5)">
<title>Graphics::Shader::Use</title>
<polygon fill="white" stroke="transparent" points="-4,4 -4,-105.5 1006,-105.5 1006,4 -4,4"/>
<!-- Node1 -->
<g id="node1" class="node">
<title>Node1</title>
<g id="a_node1"><a xlink:title=" ">
<polygon fill="#bfbfbf" stroke="black" points="889,-30 889,-49 1002,-49 1002,-30 889,-30"/>
<text text-anchor="middle" x="945.5" y="-37" font-family="Helvetica,sans-Serif" font-size="10.00">Graphics::Shader::Use</text>
</a>
</g>
</g>
<!-- Node2 -->
<g id="node2" class="node">
<title>Node2</title>
<g id="a_node2"><a xlink:href="class_graphics_1_1_quadrangle.html#a7a061a60b5bff19feb5fd317d06495f0" target="_top" xlink:title=" ">
<polygon fill="white" stroke="black" points="723.5,-49.5 723.5,-79.5 833.5,-79.5 833.5,-49.5 723.5,-49.5"/>
<text text-anchor="start" x="731.5" y="-67.5" font-family="Helvetica,sans-Serif" font-size="10.00">Graphics::Quadrangle</text>
<text text-anchor="middle" x="778.5" y="-56.5" font-family="Helvetica,sans-Serif" font-size="10.00">::Draw</text>
</a>
</g>
</g>
<!-- Node1&#45;&gt;Node2 -->
<g id="edge1" class="edge">
<title>Node1&#45;&gt;Node2</title>
<path fill="none" stroke="midnightblue" d="M878.48,-49.5C863.59,-51.76 847.96,-54.13 833.63,-56.3"/>
<polygon fill="midnightblue" stroke="midnightblue" points="879.28,-52.92 888.64,-47.96 878.23,-46 879.28,-52.92"/>
</g>
<!-- Node10 -->
<g id="node10" class="node">
<title>Node10</title>
<g id="a_node10"><a xlink:href="class_graphics_1_1_shader.html#ab82f9feaa1c7c5623eaf7bb03c061e0a" target="_top" xlink:title=" ">
<polygon fill="white" stroke="black" points="704,-0.5 704,-30.5 853,-30.5 853,-0.5 704,-0.5"/>
<text text-anchor="start" x="712" y="-18.5" font-family="Helvetica,sans-Serif" font-size="10.00">Graphics::Shader::SetProjector</text>
<text text-anchor="middle" x="778.5" y="-7.5" font-family="Helvetica,sans-Serif" font-size="10.00">Matrix</text>
</a>
</g>
</g>
<!-- Node1&#45;&gt;Node10 -->
<g id="edge10" class="edge">
<title>Node1&#45;&gt;Node10</title>
<path fill="none" stroke="midnightblue" d="M878.58,-29.91C870.22,-28.7 861.62,-27.44 853.15,-26.21"/>
<polygon fill="midnightblue" stroke="midnightblue" points="878.24,-33.4 888.64,-31.37 879.25,-26.47 878.24,-33.4"/>
</g>
<!-- Node3 -->
<g id="node3" class="node">
<title>Node3</title>
<g id="a_node3"><a xlink:href="class_graphics_1_1_image.html#af48c0e309532eb1ff36e8fdaee244da1" target="_top" xlink:title=" ">
<polygon fill="white" stroke="black" points="546,-55 546,-74 660,-74 660,-55 546,-55"/>
<text text-anchor="middle" x="603" y="-62" font-family="Helvetica,sans-Serif" font-size="10.00">Graphics::Image::Draw</text>
</a>
</g>
</g>
<!-- Node2&#45;&gt;Node3 -->
<g id="edge2" class="edge">
<title>Node2&#45;&gt;Node3</title>
<path fill="none" stroke="midnightblue" d="M713,-64.5C695.6,-64.5 676.92,-64.5 660.02,-64.5"/>
<polygon fill="midnightblue" stroke="midnightblue" points="713.08,-68 723.08,-64.5 713.08,-61 713.08,-68"/>
</g>
<!-- Node4 -->
<g id="node4" class="node">
<title>Node4</title>
<g id="a_node4"><a xlink:href="class_drawable.html#ac46f25a963a3fe3e9176461d61d213c7" target="_top" xlink:title=" ">
<polygon fill="white" stroke="black" points="403,-82 403,-101 487,-101 487,-82 403,-82"/>
<text text-anchor="middle" x="445" y="-89" font-family="Helvetica,sans-Serif" font-size="10.00">Drawable::Draw</text>
</a>
</g>
</g>
<!-- Node3&#45;&gt;Node4 -->
<g id="edge3" class="edge">
<title>Node3&#45;&gt;Node4</title>
<path fill="none" stroke="midnightblue" d="M536.71,-75.8C519.96,-78.7 502.42,-81.74 487.27,-84.36"/>
<polygon fill="midnightblue" stroke="midnightblue" points="537.74,-79.17 547,-74.02 536.55,-72.28 537.74,-79.17"/>
</g>
<!-- Node9 -->
<g id="node9" class="node">
<title>Node9</title>
<g id="a_node9"><a xlink:href="class_graphics_1_1_image.html#a90e9a33ef5f89fa71e830d967122b9e3" target="_top" xlink:title=" ">
<polygon fill="white" stroke="black" points="388,-44 388,-63 502,-63 502,-44 388,-44"/>
<text text-anchor="middle" x="445" y="-51" font-family="Helvetica,sans-Serif" font-size="10.00">Graphics::Image::Draw</text>
</a>
</g>
</g>
<!-- Node3&#45;&gt;Node9 -->
<g id="edge9" class="edge">
<title>Node3&#45;&gt;Node9</title>
<path fill="none" stroke="midnightblue" d="M535.6,-59.82C524.49,-59.03 513.06,-58.23 502.24,-57.47"/>
<polygon fill="midnightblue" stroke="midnightblue" points="535.46,-63.32 545.68,-60.53 535.95,-56.33 535.46,-63.32"/>
</g>
<!-- Node5 -->
<g id="node5" class="node">
<title>Node5</title>
<g id="a_node5"><a xlink:href="class_engine.html#a39f23d7f0ad86322bfdb73d4e6763005" target="_top" xlink:title=" ">
<polygon fill="white" stroke="black" points="74,-44 74,-63 147,-63 147,-44 74,-44"/>
<text text-anchor="middle" x="110.5" y="-51" font-family="Helvetica,sans-Serif" font-size="10.00">Engine::Draw</text>
</a>
</g>
</g>
<!-- Node4&#45;&gt;Node5 -->
<g id="edge4" class="edge">
<title>Node4&#45;&gt;Node5</title>
<path fill="none" stroke="midnightblue" d="M392.44,-90.59C339.54,-88.98 255.04,-84.58 183,-72.5 169.45,-70.23 154.73,-66.53 142.19,-63.01"/>
<polygon fill="midnightblue" stroke="midnightblue" points="392.49,-94.09 402.58,-90.87 392.68,-87.09 392.49,-94.09"/>
</g>
<!-- Node7 -->
<g id="node7" class="node">
<title>Node7</title>
<g id="a_node7"><a xlink:href="class_cell.html#ac88160c4177e146f8dd7482c4eaee4f0" target="_top" xlink:title=" ">
<polygon fill="white" stroke="black" points="288,-44 288,-63 348,-63 348,-44 288,-44"/>
<text text-anchor="middle" x="318" y="-51" font-family="Helvetica,sans-Serif" font-size="10.00">Cell::Draw</text>
</a>
</g>
</g>
<!-- Node4&#45;&gt;Node7 -->
<g id="edge6" class="edge">
<title>Node4&#45;&gt;Node7</title>
<path fill="none" stroke="midnightblue" d="M402.88,-79C385.07,-73.59 364.63,-67.37 348.39,-62.43"/>
<polygon fill="midnightblue" stroke="midnightblue" points="401.87,-82.35 412.46,-81.91 403.91,-75.65 401.87,-82.35"/>
</g>
<!-- Node6 -->
<g id="node6" class="node">
<title>Node6</title>
<g id="a_node6"><a xlink:href="main_8cpp.html#ae66f6b31b5ad750f1fe042a706a4e3d4" target="_top" xlink:title=" ">
<polygon fill="white" stroke="black" points="0,-25 0,-44 38,-44 38,-25 0,-25"/>
<text text-anchor="middle" x="19" y="-32" font-family="Helvetica,sans-Serif" font-size="10.00">main</text>
</a>
</g>
</g>
<!-- Node5&#45;&gt;Node6 -->
<g id="edge5" class="edge">
<title>Node5&#45;&gt;Node6</title>
<path fill="none" stroke="midnightblue" d="M63.95,-43.83C54.76,-41.88 45.61,-39.94 38.06,-38.33"/>
<polygon fill="midnightblue" stroke="midnightblue" points="63.36,-47.28 73.87,-45.94 64.81,-40.44 63.36,-47.28"/>
</g>
<!-- Node8 -->
<g id="node8" class="node">
<title>Node8</title>
<g id="a_node8"><a xlink:href="class_field.html#ad13d86066be42a2e10fcb9cbcc51fb0b" target="_top" xlink:title=" ">
<polygon fill="white" stroke="black" points="183,-44 183,-63 248,-63 248,-44 183,-44"/>
<text text-anchor="middle" x="215.5" y="-51" font-family="Helvetica,sans-Serif" font-size="10.00">Field::Draw</text>
</a>
</g>
</g>
<!-- Node7&#45;&gt;Node8 -->
<g id="edge7" class="edge">
<title>Node7&#45;&gt;Node8</title>
<path fill="none" stroke="midnightblue" d="M277.67,-53.5C267.94,-53.5 257.64,-53.5 248.32,-53.5"/>
<polygon fill="midnightblue" stroke="midnightblue" points="277.93,-57 287.93,-53.5 277.93,-50 277.93,-57"/>
</g>
<!-- Node8&#45;&gt;Node5 -->
<g id="edge8" class="edge">
<title>Node8&#45;&gt;Node5</title>
<path fill="none" stroke="midnightblue" d="M172.71,-53.5C164.28,-53.5 155.48,-53.5 147.27,-53.5"/>
<polygon fill="midnightblue" stroke="midnightblue" points="172.76,-57 182.76,-53.5 172.76,-50 172.76,-57"/>
</g>
<!-- Node11 -->
<g id="node11" class="node">
<title>Node11</title>
<g id="a_node11"><a xlink:href="namespace_graphics_1_1_resource_parser.html#a6a538c07babc9bbaf884e0aeb9654fe0" target="_top" xlink:title=" ">
<polygon fill="white" stroke="black" points="538,-0.5 538,-30.5 668,-30.5 668,-0.5 538,-0.5"/>
<text text-anchor="start" x="546" y="-18.5" font-family="Helvetica,sans-Serif" font-size="10.00">Graphics::ResourceParser</text>
<text text-anchor="middle" x="603" y="-7.5" font-family="Helvetica,sans-Serif" font-size="10.00">::LoadResources</text>
</a>
</g>
</g>
<!-- Node10&#45;&gt;Node11 -->
<g id="edge11" class="edge">
<title>Node10&#45;&gt;Node11</title>
<path fill="none" stroke="midnightblue" d="M693.81,-15.5C685.16,-15.5 676.47,-15.5 668.09,-15.5"/>
<polygon fill="midnightblue" stroke="midnightblue" points="693.92,-19 703.92,-15.5 693.92,-12 693.92,-19"/>
</g>
<!-- Node12 -->
<g id="node12" class="node">
<title>Node12</title>
<g id="a_node12"><a xlink:href="main_8cpp.html#adb66f09c018c6ec5f3ade6acd02a5003" target="_top" xlink:title=" ">
<polygon fill="white" stroke="black" points="284,-6 284,-25 352,-25 352,-6 284,-6"/>
<text text-anchor="middle" x="318" y="-13" font-family="Helvetica,sans-Serif" font-size="10.00">Initialization</text>
</a>
</g>
</g>
<!-- Node11&#45;&gt;Node12 -->
<g id="edge12" class="edge">
<title>Node11&#45;&gt;Node12</title>
<path fill="none" stroke="midnightblue" d="M527.75,-15.5C470.83,-15.5 394.99,-15.5 352.15,-15.5"/>
<polygon fill="midnightblue" stroke="midnightblue" points="527.78,-19 537.78,-15.5 527.78,-12 527.78,-19"/>
</g>
<!-- Node12&#45;&gt;Node6 -->
<g id="edge13" class="edge">
<title>Node12&#45;&gt;Node6</title>
<path fill="none" stroke="midnightblue" d="M273.69,-18.27C207.56,-22.5 84.21,-30.39 38.05,-33.35"/>
<polygon fill="midnightblue" stroke="midnightblue" points="274.04,-21.76 283.79,-17.62 273.59,-14.77 274.04,-21.76"/>
</g>
</g>
</svg>
