<?xml version="1.0" encoding="UTF-8" standalone="no"?>
<!DOCTYPE svg PUBLIC "-//W3C//DTD SVG 1.1//EN"
 "http://www.w3.org/Graphics/SVG/1.1/DTD/svg11.dtd">
<!-- Generated by graphviz version 2.47.1 (20210421.1823)
 -->
<!-- Title: Field::GetCellPos Pages: 1 -->
<svg width="763pt" height="180pt"
 viewBox="0.00 0.00 763.00 180.00" xmlns="http://www.w3.org/2000/svg" xmlns:xlink="http://www.w3.org/1999/xlink">
<g id="graph0" class="graph" transform="scale(1 1) rotate(0) translate(4 176)">
<title>Field::GetCellPos</title>
<polygon fill="white" stroke="transparent" points="-4,4 -4,-176 759,-176 759,4 -4,4"/>
<!-- Node1 -->
<g id="node1" class="node">
<title>Node1</title>
<g id="a_node1"><a xlink:title=" ">
<polygon fill="#bfbfbf" stroke="black" points="663,-114.5 663,-133.5 755,-133.5 755,-114.5 663,-114.5"/>
<text text-anchor="middle" x="709" y="-121.5" font-family="Helvetica,sans-Serif" font-size="10.00">Field::GetCellPos</text>
</a>
</g>
</g>
<!-- Node2 -->
<g id="node2" class="node">
<title>Node2</title>
<g id="a_node2"><a xlink:href="class_field.html#ad13d86066be42a2e10fcb9cbcc51fb0b" target="_top" xlink:title=" ">
<polygon fill="white" stroke="black" points="548.5,-152.5 548.5,-171.5 613.5,-171.5 613.5,-152.5 548.5,-152.5"/>
<text text-anchor="middle" x="581" y="-159.5" font-family="Helvetica,sans-Serif" font-size="10.00">Field::Draw</text>
</a>
</g>
</g>
<!-- Node1&#45;&gt;Node2 -->
<g id="edge1" class="edge">
<title>Node1&#45;&gt;Node2</title>
<path fill="none" stroke="midnightblue" d="M666.44,-136.54C649.29,-141.7 629.75,-147.6 613.78,-152.41"/>
<polygon fill="midnightblue" stroke="midnightblue" points="667.64,-139.83 676.2,-133.59 665.62,-133.13 667.64,-139.83"/>
</g>
<!-- Node6 -->
<g id="node6" class="node">
<title>Node6</title>
<g id="a_node6"><a xlink:href="class_field.html#a8ce096331f51a8e41e54c0ce4e8ac43a" target="_top" xlink:title=" ">
<polygon fill="white" stroke="black" points="535,-76.5 535,-95.5 627,-95.5 627,-76.5 535,-76.5"/>
<text text-anchor="middle" x="581" y="-83.5" font-family="Helvetica,sans-Serif" font-size="10.00">Field::GetBuilding</text>
</a>
</g>
</g>
<!-- Node1&#45;&gt;Node6 -->
<g id="edge5" class="edge">
<title>Node1&#45;&gt;Node6</title>
<path fill="none" stroke="midnightblue" d="M666.44,-111.46C649.29,-106.3 629.75,-100.4 613.78,-95.59"/>
<polygon fill="midnightblue" stroke="midnightblue" points="665.62,-114.87 676.2,-114.41 667.64,-108.17 665.62,-114.87"/>
</g>
<!-- Node7 -->
<g id="node7" class="node">
<title>Node7</title>
<g id="a_node7"><a xlink:href="class_field.html#a2944ed80b5699ff0fc9b0bd5031183af" target="_top" xlink:title=" ">
<polygon fill="white" stroke="black" points="407,-114.5 407,-133.5 499,-133.5 499,-114.5 407,-114.5"/>
<text text-anchor="middle" x="453" y="-121.5" font-family="Helvetica,sans-Serif" font-size="10.00">Field::SetBuilding</text>
</a>
</g>
</g>
<!-- Node1&#45;&gt;Node7 -->
<g id="edge14" class="edge">
<title>Node1&#45;&gt;Node7</title>
<path fill="none" stroke="midnightblue" d="M652.78,-124C606.78,-124 542.07,-124 499.12,-124"/>
<polygon fill="midnightblue" stroke="midnightblue" points="652.88,-127.5 662.88,-124 652.88,-120.5 652.88,-127.5"/>
</g>
<!-- Node3 -->
<g id="node3" class="node">
<title>Node3</title>
<g id="a_node3"><a xlink:href="class_engine.html#a39f23d7f0ad86322bfdb73d4e6763005" target="_top" xlink:title=" ">
<polygon fill="white" stroke="black" points="178,-133.5 178,-152.5 251,-152.5 251,-133.5 178,-133.5"/>
<text text-anchor="middle" x="214.5" y="-140.5" font-family="Helvetica,sans-Serif" font-size="10.00">Engine::Draw</text>
</a>
</g>
</g>
<!-- Node2&#45;&gt;Node3 -->
<g id="edge2" class="edge">
<title>Node2&#45;&gt;Node3</title>
<path fill="none" stroke="midnightblue" d="M538.19,-159.82C465.91,-156.05 318.87,-148.39 251.13,-144.86"/>
<polygon fill="midnightblue" stroke="midnightblue" points="538.12,-163.32 548.29,-160.35 538.49,-156.33 538.12,-163.32"/>
</g>
<!-- Node4 -->
<g id="node4" class="node">
<title>Node4</title>
<g id="a_node4"><a xlink:href="class_game.html#adb05b20574551a26f8cf1dc664782790" target="_top" xlink:title=" ">
<polygon fill="white" stroke="black" points="74,-95.5 74,-114.5 142,-114.5 142,-95.5 74,-95.5"/>
<text text-anchor="middle" x="108" y="-102.5" font-family="Helvetica,sans-Serif" font-size="10.00">Game::Start</text>
</a>
</g>
</g>
<!-- Node3&#45;&gt;Node4 -->
<g id="edge3" class="edge">
<title>Node3&#45;&gt;Node4</title>
<path fill="none" stroke="midnightblue" d="M177.43,-129.88C163.6,-124.86 148.11,-119.22 135.36,-114.59"/>
<polygon fill="midnightblue" stroke="midnightblue" points="176.54,-133.28 187.13,-133.41 178.93,-126.7 176.54,-133.28"/>
</g>
<!-- Node5 -->
<g id="node5" class="node">
<title>Node5</title>
<g id="a_node5"><a xlink:href="main_8cpp.html#ae66f6b31b5ad750f1fe042a706a4e3d4" target="_top" xlink:title=" ">
<polygon fill="white" stroke="black" points="0,-95.5 0,-114.5 38,-114.5 38,-95.5 0,-95.5"/>
<text text-anchor="middle" x="19" y="-102.5" font-family="Helvetica,sans-Serif" font-size="10.00">main</text>
</a>
</g>
</g>
<!-- Node4&#45;&gt;Node5 -->
<g id="edge4" class="edge">
<title>Node4&#45;&gt;Node5</title>
<path fill="none" stroke="midnightblue" d="M63.54,-105C54.55,-105 45.55,-105 38.09,-105"/>
<polygon fill="midnightblue" stroke="midnightblue" points="63.61,-108.5 73.61,-105 63.61,-101.5 63.61,-108.5"/>
</g>
<!-- Node6&#45;&gt;Node7 -->
<g id="edge6" class="edge">
<title>Node6&#45;&gt;Node7</title>
<path fill="none" stroke="midnightblue" d="M538.44,-98.54C521.29,-103.7 501.75,-109.6 485.78,-114.41"/>
<polygon fill="midnightblue" stroke="midnightblue" points="539.64,-101.83 548.2,-95.59 537.62,-95.13 539.64,-101.83"/>
</g>
<!-- Node8 -->
<g id="node8" class="node">
<title>Node8</title>
<g id="a_node8"><a xlink:href="class_unit.html#a764442e3620b9af8882d8050d8a08afe" target="_top" xlink:title=" ">
<polygon fill="white" stroke="black" points="300,-76.5 300,-95.5 358,-95.5 358,-76.5 300,-76.5"/>
<text text-anchor="middle" x="329" y="-83.5" font-family="Helvetica,sans-Serif" font-size="10.00">Unit::Tick</text>
</a>
</g>
</g>
<!-- Node6&#45;&gt;Node8 -->
<g id="edge7" class="edge">
<title>Node6&#45;&gt;Node8</title>
<path fill="none" stroke="midnightblue" d="M524.43,-86C472.94,-86 398.42,-86 358.24,-86"/>
<polygon fill="midnightblue" stroke="midnightblue" points="524.73,-89.5 534.73,-86 524.73,-82.5 524.73,-89.5"/>
</g>
<!-- Node9 -->
<g id="node9" class="node">
<title>Node9</title>
<g id="a_node9"><a xlink:href="class_world_actor.html#a211b1d4fdcd4eaed756b3602b6dfb412" target="_top" xlink:title=" ">
<polygon fill="white" stroke="black" points="409,-38.5 409,-57.5 497,-57.5 497,-38.5 409,-38.5"/>
<text text-anchor="middle" x="453" y="-45.5" font-family="Helvetica,sans-Serif" font-size="10.00">WorldActor::Tick</text>
</a>
</g>
</g>
<!-- Node6&#45;&gt;Node9 -->
<g id="edge8" class="edge">
<title>Node6&#45;&gt;Node9</title>
<path fill="none" stroke="midnightblue" d="M538.44,-73.46C521.29,-68.3 501.75,-62.4 485.78,-57.59"/>
<polygon fill="midnightblue" stroke="midnightblue" points="537.62,-76.87 548.2,-76.41 539.64,-70.17 537.62,-76.87"/>
</g>
<!-- Node9&#45;&gt;Node8 -->
<g id="edge12" class="edge">
<title>Node9&#45;&gt;Node8</title>
<path fill="none" stroke="midnightblue" d="M411.31,-60.67C393.91,-66.09 374.02,-72.29 358.27,-77.2"/>
<polygon fill="midnightblue" stroke="midnightblue" points="412.71,-63.9 421.21,-57.59 410.63,-57.22 412.71,-63.9"/>
</g>
<!-- Node10 -->
<g id="node10" class="node">
<title>Node10</title>
<g id="a_node10"><a xlink:href="class_player.html#ac9010645b179712c09ebd310e5fe48eb" target="_top" xlink:title=" ">
<polygon fill="white" stroke="black" points="295.5,-38.5 295.5,-57.5 362.5,-57.5 362.5,-38.5 295.5,-38.5"/>
<text text-anchor="middle" x="329" y="-45.5" font-family="Helvetica,sans-Serif" font-size="10.00">Player::Tick</text>
</a>
</g>
</g>
<!-- Node9&#45;&gt;Node10 -->
<g id="edge9" class="edge">
<title>Node9&#45;&gt;Node10</title>
<path fill="none" stroke="midnightblue" d="M398.8,-48C386.5,-48 373.77,-48 362.66,-48"/>
<polygon fill="midnightblue" stroke="midnightblue" points="398.99,-51.5 408.99,-48 398.99,-44.5 398.99,-51.5"/>
</g>
<!-- Node12 -->
<g id="node12" class="node">
<title>Node12</title>
<g id="a_node12"><a xlink:href="class_unit_group.html#a49ae050d0c9fb676cbff630d18d29b20" target="_top" xlink:title=" ">
<polygon fill="white" stroke="black" points="287,-0.5 287,-19.5 371,-19.5 371,-0.5 287,-0.5"/>
<text text-anchor="middle" x="329" y="-7.5" font-family="Helvetica,sans-Serif" font-size="10.00">UnitGroup::Tick</text>
</a>
</g>
</g>
<!-- Node9&#45;&gt;Node12 -->
<g id="edge13" class="edge">
<title>Node9&#45;&gt;Node12</title>
<path fill="none" stroke="midnightblue" d="M411.29,-35.32C394.8,-30.19 376.09,-24.36 360.78,-19.59"/>
<polygon fill="midnightblue" stroke="midnightblue" points="410.63,-38.78 421.21,-38.41 412.71,-32.1 410.63,-38.78"/>
</g>
<!-- Node11 -->
<g id="node11" class="node">
<title>Node11</title>
<g id="a_node11"><a xlink:href="class_engine.html#a06d3e75a7f768f0d48746aea00483724" target="_top" xlink:title=" ">
<polygon fill="white" stroke="black" points="180,-76.5 180,-95.5 249,-95.5 249,-76.5 180,-76.5"/>
<text text-anchor="middle" x="214.5" y="-83.5" font-family="Helvetica,sans-Serif" font-size="10.00">Engine::Tick</text>
</a>
</g>
</g>
<!-- Node10&#45;&gt;Node11 -->
<g id="edge10" class="edge">
<title>Node10&#45;&gt;Node11</title>
<path fill="none" stroke="midnightblue" d="M290.03,-60.83C274.93,-65.92 257.87,-71.69 243.88,-76.41"/>
<polygon fill="midnightblue" stroke="midnightblue" points="291.26,-64.11 299.61,-57.59 289.02,-57.47 291.26,-64.11"/>
</g>
<!-- Node11&#45;&gt;Node4 -->
<g id="edge11" class="edge">
<title>Node11&#45;&gt;Node4</title>
<path fill="none" stroke="midnightblue" d="M169.99,-93.91C160.71,-95.6 151.04,-97.36 142.22,-98.96"/>
<polygon fill="midnightblue" stroke="midnightblue" points="170.65,-97.35 179.86,-92.12 169.4,-90.46 170.65,-97.35"/>
</g>
</g>
</svg>
