<?xml version="1.0" encoding="UTF-8" standalone="no"?>
<!DOCTYPE svg PUBLIC "-//W3C//DTD SVG 1.1//EN"
 "http://www.w3.org/Graphics/SVG/1.1/DTD/svg11.dtd">
<!-- Generated by graphviz version 2.47.0 (20210407.0042)
 -->
<!-- Title: Graphics::Shader::Use Pages: 1 -->
<svg width="1010pt" height="163pt"
 viewBox="0.00 0.00 1010.00 162.50" xmlns="http://www.w3.org/2000/svg" xmlns:xlink="http://www.w3.org/1999/xlink">
<g id="graph0" class="graph" transform="scale(1 1) rotate(0) translate(4 158.5)">
<title>Graphics::Shader::Use</title>
<polygon fill="white" stroke="transparent" points="-4,4 -4,-158.5 1006,-158.5 1006,4 -4,4"/>
<!-- Node1 -->
<g id="node1" class="node">
<title>Node1</title>
<g id="a_node1"><a xlink:title=" ">
<polygon fill="#bfbfbf" stroke="black" points="889,-30 889,-49 1002,-49 1002,-30 889,-30"/>
<text text-anchor="middle" x="945.5" y="-37" font-family="Helvetica,sans-Serif" font-size="10.00">Graphics::Shader::Use</text>
</a>
</g>
</g>
<!-- Node2 -->
<g id="node2" class="node">
<title>Node2</title>
<g id="a_node2"><a xlink:href="class_graphics_1_1_quadrangle.html#a7a061a60b5bff19feb5fd317d06495f0" target="_top" xlink:title=" ">
<polygon fill="white" stroke="black" points="723.5,-49.5 723.5,-79.5 833.5,-79.5 833.5,-49.5 723.5,-49.5"/>
<text text-anchor="start" x="731.5" y="-67.5" font-family="Helvetica,sans-Serif" font-size="10.00">Graphics::Quadrangle</text>
<text text-anchor="middle" x="778.5" y="-56.5" font-family="Helvetica,sans-Serif" font-size="10.00">::Draw</text>
</a>
</g>
</g>
<!-- Node1&#45;&gt;Node2 -->
<g id="edge1" class="edge">
<title>Node1&#45;&gt;Node2</title>
<path fill="none" stroke="midnightblue" d="M878.48,-49.5C863.59,-51.76 847.96,-54.13 833.63,-56.3"/>
<polygon fill="midnightblue" stroke="midnightblue" points="879.28,-52.92 888.64,-47.96 878.23,-46 879.28,-52.92"/>
</g>
<!-- Node12 -->
<g id="node12" class="node">
<title>Node12</title>
<g id="a_node12"><a xlink:href="class_graphics_1_1_shader.html#ab82f9feaa1c7c5623eaf7bb03c061e0a" target="_top" xlink:title=" ">
<polygon fill="white" stroke="black" points="704,-0.5 704,-30.5 853,-30.5 853,-0.5 704,-0.5"/>
<text text-anchor="start" x="712" y="-18.5" font-family="Helvetica,sans-Serif" font-size="10.00">Graphics::Shader::SetProjector</text>
<text text-anchor="middle" x="778.5" y="-7.5" font-family="Helvetica,sans-Serif" font-size="10.00">Matrix</text>
</a>
</g>
</g>
<!-- Node1&#45;&gt;Node12 -->
<g id="edge12" class="edge">
<title>Node1&#45;&gt;Node12</title>
<path fill="none" stroke="midnightblue" d="M878.58,-29.91C870.22,-28.7 861.62,-27.44 853.15,-26.21"/>
<polygon fill="midnightblue" stroke="midnightblue" points="878.24,-33.4 888.64,-31.37 879.25,-26.47 878.24,-33.4"/>
</g>
<!-- Node3 -->
<g id="node3" class="node">
<title>Node3</title>
<g id="a_node3"><a xlink:href="class_graphics_1_1_image.html#af48c0e309532eb1ff36e8fdaee244da1" target="_top" xlink:title=" ">
<polygon fill="white" stroke="black" points="546,-99 546,-118 660,-118 660,-99 546,-99"/>
<text text-anchor="middle" x="603" y="-106" font-family="Helvetica,sans-Serif" font-size="10.00">Graphics::Image::Draw</text>
</a>
</g>
</g>
<!-- Node2&#45;&gt;Node3 -->
<g id="edge2" class="edge">
<title>Node2&#45;&gt;Node3</title>
<path fill="none" stroke="midnightblue" d="M713.25,-80.79C689.09,-86.92 662.42,-93.69 641.48,-99"/>
<polygon fill="midnightblue" stroke="midnightblue" points="714.25,-84.15 723.08,-78.3 712.53,-77.37 714.25,-84.15"/>
</g>
<!-- Node11 -->
<g id="node11" class="node">
<title>Node11</title>
<g id="a_node11"><a xlink:href="class_graphics_1_1_quadrangle.html#aaa7571e889354bb4b4326d8b497d1055" target="_top" xlink:title=" ">
<polygon fill="white" stroke="black" points="548,-49.5 548,-79.5 658,-79.5 658,-49.5 548,-49.5"/>
<text text-anchor="start" x="556" y="-67.5" font-family="Helvetica,sans-Serif" font-size="10.00">Graphics::Quadrangle</text>
<text text-anchor="middle" x="603" y="-56.5" font-family="Helvetica,sans-Serif" font-size="10.00">::Draw</text>
</a>
</g>
</g>
<!-- Node2&#45;&gt;Node11 -->
<g id="edge11" class="edge">
<title>Node2&#45;&gt;Node11</title>
<path fill="none" stroke="midnightblue" d="M712.95,-64.5C694.95,-64.5 675.57,-64.5 658.23,-64.5"/>
<polygon fill="midnightblue" stroke="midnightblue" points="713.08,-68 723.08,-64.5 713.08,-61 713.08,-68"/>
</g>
<!-- Node4 -->
<g id="node4" class="node">
<title>Node4</title>
<g id="a_node4"><a xlink:href="class_g_u_i_1_1_item.html#ab089785456c77b4ff16f15dc7b6bd8fa" target="_top" xlink:title=" ">
<polygon fill="white" stroke="black" points="402,-135 402,-154 488,-154 488,-135 402,-135"/>
<text text-anchor="middle" x="445" y="-142" font-family="Helvetica,sans-Serif" font-size="10.00">GUI::Item::Draw</text>
</a>
</g>
</g>
<!-- Node3&#45;&gt;Node4 -->
<g id="edge3" class="edge">
<title>Node3&#45;&gt;Node4</title>
<path fill="none" stroke="midnightblue" d="M550.76,-120.32C530.18,-125.07 506.78,-130.47 487.32,-134.97"/>
<polygon fill="midnightblue" stroke="midnightblue" points="551.65,-123.71 560.6,-118.05 550.07,-116.89 551.65,-123.71"/>
</g>
<!-- Node5 -->
<g id="node5" class="node">
<title>Node5</title>
<g id="a_node5"><a xlink:href="class_drawable.html#ac46f25a963a3fe3e9176461d61d213c7" target="_top" xlink:title=" ">
<polygon fill="white" stroke="black" points="403,-97 403,-116 487,-116 487,-97 403,-97"/>
<text text-anchor="middle" x="445" y="-104" font-family="Helvetica,sans-Serif" font-size="10.00">Drawable::Draw</text>
</a>
</g>
</g>
<!-- Node3&#45;&gt;Node5 -->
<g id="edge4" class="edge">
<title>Node3&#45;&gt;Node5</title>
<path fill="none" stroke="midnightblue" d="M535.55,-107.65C519.08,-107.44 501.91,-107.22 487.06,-107.03"/>
<polygon fill="midnightblue" stroke="midnightblue" points="535.64,-111.15 545.68,-107.78 535.73,-104.15 535.64,-111.15"/>
</g>
<!-- Node10 -->
<g id="node10" class="node">
<title>Node10</title>
<g id="a_node10"><a xlink:href="class_graphics_1_1_image.html#a90e9a33ef5f89fa71e830d967122b9e3" target="_top" xlink:title=" ">
<polygon fill="white" stroke="black" points="388,-59 388,-78 502,-78 502,-59 388,-59"/>
<text text-anchor="middle" x="445" y="-66" font-family="Helvetica,sans-Serif" font-size="10.00">Graphics::Image::Draw</text>
</a>
</g>
</g>
<!-- Node3&#45;&gt;Node10 -->
<g id="edge10" class="edge">
<title>Node3&#45;&gt;Node10</title>
<path fill="none" stroke="midnightblue" d="M554.74,-96.38C531.75,-90.49 504.52,-83.51 483.06,-78"/>
<polygon fill="midnightblue" stroke="midnightblue" points="554.08,-99.83 564.63,-98.92 555.82,-93.04 554.08,-99.83"/>
</g>
<!-- Node6 -->
<g id="node6" class="node">
<title>Node6</title>
<g id="a_node6"><a xlink:href="class_engine.html#a39f23d7f0ad86322bfdb73d4e6763005" target="_top" xlink:title=" ">
<polygon fill="white" stroke="black" points="74,-59 74,-78 147,-78 147,-59 74,-59"/>
<text text-anchor="middle" x="110.5" y="-66" font-family="Helvetica,sans-Serif" font-size="10.00">Engine::Draw</text>
</a>
</g>
</g>
<!-- Node5&#45;&gt;Node6 -->
<g id="edge5" class="edge">
<title>Node5&#45;&gt;Node6</title>
<path fill="none" stroke="midnightblue" d="M392.44,-105.59C339.54,-103.98 255.04,-99.58 183,-87.5 169.45,-85.23 154.73,-81.53 142.19,-78.01"/>
<polygon fill="midnightblue" stroke="midnightblue" points="392.49,-109.09 402.58,-105.87 392.68,-102.09 392.49,-109.09"/>
</g>
<!-- Node8 -->
<g id="node8" class="node">
<title>Node8</title>
<g id="a_node8"><a xlink:href="class_cell.html#ac88160c4177e146f8dd7482c4eaee4f0" target="_top" xlink:title=" ">
<polygon fill="white" stroke="black" points="288,-59 288,-78 348,-78 348,-59 288,-59"/>
<text text-anchor="middle" x="318" y="-66" font-family="Helvetica,sans-Serif" font-size="10.00">Cell::Draw</text>
</a>
</g>
</g>
<!-- Node5&#45;&gt;Node8 -->
<g id="edge7" class="edge">
<title>Node5&#45;&gt;Node8</title>
<path fill="none" stroke="midnightblue" d="M402.88,-94C385.07,-88.59 364.63,-82.37 348.39,-77.43"/>
<polygon fill="midnightblue" stroke="midnightblue" points="401.87,-97.35 412.46,-96.91 403.91,-90.65 401.87,-97.35"/>
</g>
<!-- Node7 -->
<g id="node7" class="node">
<title>Node7</title>
<g id="a_node7"><a xlink:href="main_8cpp.html#ae66f6b31b5ad750f1fe042a706a4e3d4" target="_top" xlink:title=" ">
<polygon fill="white" stroke="black" points="0,-39 0,-58 38,-58 38,-39 0,-39"/>
<text text-anchor="middle" x="19" y="-46" font-family="Helvetica,sans-Serif" font-size="10.00">main</text>
</a>
</g>
</g>
<!-- Node6&#45;&gt;Node7 -->
<g id="edge6" class="edge">
<title>Node6&#45;&gt;Node7</title>
<path fill="none" stroke="midnightblue" d="M63.95,-58.32C54.76,-56.27 45.61,-54.22 38.06,-52.54"/>
<polygon fill="midnightblue" stroke="midnightblue" points="63.35,-61.77 73.87,-60.54 64.87,-54.94 63.35,-61.77"/>
</g>
<!-- Node9 -->
<g id="node9" class="node">
<title>Node9</title>
<g id="a_node9"><a xlink:href="class_field.html#ad13d86066be42a2e10fcb9cbcc51fb0b" target="_top" xlink:title=" ">
<polygon fill="white" stroke="black" points="183,-59 183,-78 248,-78 248,-59 183,-59"/>
<text text-anchor="middle" x="215.5" y="-66" font-family="Helvetica,sans-Serif" font-size="10.00">Field::Draw</text>
</a>
</g>
</g>
<!-- Node8&#45;&gt;Node9 -->
<g id="edge8" class="edge">
<title>Node8&#45;&gt;Node9</title>
<path fill="none" stroke="midnightblue" d="M277.67,-68.5C267.94,-68.5 257.64,-68.5 248.32,-68.5"/>
<polygon fill="midnightblue" stroke="midnightblue" points="277.93,-72 287.93,-68.5 277.93,-65 277.93,-72"/>
</g>
<!-- Node9&#45;&gt;Node6 -->
<g id="edge9" class="edge">
<title>Node9&#45;&gt;Node6</title>
<path fill="none" stroke="midnightblue" d="M172.71,-68.5C164.28,-68.5 155.48,-68.5 147.27,-68.5"/>
<polygon fill="midnightblue" stroke="midnightblue" points="172.76,-72 182.76,-68.5 172.76,-65 172.76,-72"/>
</g>
<!-- Node13 -->
<g id="node13" class="node">
<title>Node13</title>
<g id="a_node13"><a xlink:href="namespace_graphics_1_1_resource_parser.html#a6a538c07babc9bbaf884e0aeb9654fe0" target="_top" xlink:title=" ">
<polygon fill="white" stroke="black" points="538,-0.5 538,-30.5 668,-30.5 668,-0.5 538,-0.5"/>
<text text-anchor="start" x="546" y="-18.5" font-family="Helvetica,sans-Serif" font-size="10.00">Graphics::ResourceParser</text>
<text text-anchor="middle" x="603" y="-7.5" font-family="Helvetica,sans-Serif" font-size="10.00">::LoadResources</text>
</a>
</g>
</g>
<!-- Node12&#45;&gt;Node13 -->
<g id="edge13" class="edge">
<title>Node12&#45;&gt;Node13</title>
<path fill="none" stroke="midnightblue" d="M693.81,-15.5C685.16,-15.5 676.47,-15.5 668.09,-15.5"/>
<polygon fill="midnightblue" stroke="midnightblue" points="693.92,-19 703.92,-15.5 693.92,-12 693.92,-19"/>
</g>
<!-- Node14 -->
<g id="node14" class="node">
<title>Node14</title>
<g id="a_node14"><a xlink:href="main_8cpp.html#adb66f09c018c6ec5f3ade6acd02a5003" target="_top" xlink:title=" ">
<polygon fill="white" stroke="black" points="284,-18 284,-37 352,-37 352,-18 284,-18"/>
<text text-anchor="middle" x="318" y="-25" font-family="Helvetica,sans-Serif" font-size="10.00">Initialization</text>
</a>
</g>
</g>
<!-- Node13&#45;&gt;Node14 -->
<g id="edge14" class="edge">
<title>Node13&#45;&gt;Node14</title>
<path fill="none" stroke="midnightblue" d="M527.75,-18.65C470.83,-21.06 394.99,-24.28 352.15,-26.09"/>
<polygon fill="midnightblue" stroke="midnightblue" points="527.94,-22.14 537.78,-18.22 527.64,-15.15 527.94,-22.14"/>
</g>
<!-- Node14&#45;&gt;Node7 -->
<g id="edge15" class="edge">
<title>Node14&#45;&gt;Node7</title>
<path fill="none" stroke="midnightblue" d="M273.69,-30.56C207.56,-35.24 84.21,-43.96 38.05,-47.22"/>
<polygon fill="midnightblue" stroke="midnightblue" points="274.07,-34.04 283.79,-29.85 273.57,-27.06 274.07,-34.04"/>
</g>
</g>
</svg>
