<?xml version="1.0" encoding="UTF-8" standalone="no"?>
<!DOCTYPE svg PUBLIC "-//W3C//DTD SVG 1.1//EN"
 "http://www.w3.org/Graphics/SVG/1.1/DTD/svg11.dtd">
<!-- Generated by graphviz version 2.47.1 (20210421.1823)
 -->
<!-- Title: Graphics::Quadrangle::Draw Pages: 1 -->
<svg width="902pt" height="116pt"
 viewBox="0.00 0.00 902.00 115.50" xmlns="http://www.w3.org/2000/svg" xmlns:xlink="http://www.w3.org/1999/xlink">
<g id="graph0" class="graph" transform="scale(1 1) rotate(0) translate(4 111.5)">
<title>Graphics::Quadrangle::Draw</title>
<polygon fill="white" stroke="transparent" points="-4,4 -4,-111.5 898,-111.5 898,4 -4,4"/>
<!-- Node1 -->
<g id="node1" class="node">
<title>Node1</title>
<g id="a_node1"><a xlink:title=" ">
<polygon fill="#bfbfbf" stroke="black" points="784,-22.5 784,-52.5 894,-52.5 894,-22.5 784,-22.5"/>
<text text-anchor="start" x="792" y="-40.5" font-family="Helvetica,sans-Serif" font-size="10.00">Graphics::Quadrangle</text>
<text text-anchor="middle" x="839" y="-29.5" font-family="Helvetica,sans-Serif" font-size="10.00">::Draw</text>
</a>
</g>
</g>
<!-- Node2 -->
<g id="node2" class="node">
<title>Node2</title>
<g id="a_node2"><a xlink:href="class_graphics_1_1_image.html#af48c0e309532eb1ff36e8fdaee244da1" target="_top" xlink:title=" ">
<polygon fill="white" stroke="black" points="634,-50 634,-69 748,-69 748,-50 634,-50"/>
<text text-anchor="middle" x="691" y="-57" font-family="Helvetica,sans-Serif" font-size="10.00">Graphics::Image::Draw</text>
</a>
</g>
</g>
<!-- Node1&#45;&gt;Node2 -->
<g id="edge1" class="edge">
<title>Node1&#45;&gt;Node2</title>
<path fill="none" stroke="midnightblue" d="M773.52,-47.22C765.13,-48.48 756.6,-49.77 748.36,-51.01"/>
<polygon fill="midnightblue" stroke="midnightblue" points="774.27,-50.64 783.63,-45.69 773.23,-43.72 774.27,-50.64"/>
</g>
<!-- Node11 -->
<g id="node11" class="node">
<title>Node11</title>
<g id="a_node11"><a xlink:href="class_graphics_1_1_quadrangle.html#aaa7571e889354bb4b4326d8b497d1055" target="_top" xlink:title=" ">
<polygon fill="white" stroke="black" points="636,-0.5 636,-30.5 746,-30.5 746,-0.5 636,-0.5"/>
<text text-anchor="start" x="644" y="-18.5" font-family="Helvetica,sans-Serif" font-size="10.00">Graphics::Quadrangle</text>
<text text-anchor="middle" x="691" y="-7.5" font-family="Helvetica,sans-Serif" font-size="10.00">::Draw</text>
</a>
</g>
</g>
<!-- Node1&#45;&gt;Node11 -->
<g id="edge11" class="edge">
<title>Node1&#45;&gt;Node11</title>
<path fill="none" stroke="midnightblue" d="M773.52,-27.78C764.47,-26.42 755.25,-25.03 746.41,-23.7"/>
<polygon fill="midnightblue" stroke="midnightblue" points="773.23,-31.28 783.63,-29.31 774.27,-24.36 773.23,-31.28"/>
</g>
<!-- Node3 -->
<g id="node3" class="node">
<title>Node3</title>
<g id="a_node3"><a xlink:href="class_g_u_i_1_1_item.html#ab089785456c77b4ff16f15dc7b6bd8fa" target="_top" xlink:title=" ">
<polygon fill="white" stroke="black" points="498,-88 498,-107 584,-107 584,-88 498,-88"/>
<text text-anchor="middle" x="541" y="-95" font-family="Helvetica,sans-Serif" font-size="10.00">GUI::Item::Draw</text>
</a>
</g>
</g>
<!-- Node2&#45;&gt;Node3 -->
<g id="edge2" class="edge">
<title>Node2&#45;&gt;Node3</title>
<path fill="none" stroke="midnightblue" d="M642.83,-71.61C622.21,-76.9 598.39,-83.02 579.08,-87.98"/>
<polygon fill="midnightblue" stroke="midnightblue" points="643.84,-74.97 652.65,-69.09 642.1,-68.19 643.84,-74.97"/>
</g>
<!-- Node4 -->
<g id="node4" class="node">
<title>Node4</title>
<g id="a_node4"><a xlink:href="class_drawable.html#ac46f25a963a3fe3e9176461d61d213c7" target="_top" xlink:title=" ">
<polygon fill="white" stroke="black" points="499,-50 499,-69 583,-69 583,-50 499,-50"/>
<text text-anchor="middle" x="541" y="-57" font-family="Helvetica,sans-Serif" font-size="10.00">Drawable::Draw</text>
</a>
</g>
</g>
<!-- Node2&#45;&gt;Node4 -->
<g id="edge3" class="edge">
<title>Node2&#45;&gt;Node4</title>
<path fill="none" stroke="midnightblue" d="M623.24,-59.5C609.54,-59.5 595.5,-59.5 583.03,-59.5"/>
<polygon fill="midnightblue" stroke="midnightblue" points="623.63,-63 633.63,-59.5 623.63,-56 623.63,-63"/>
</g>
<!-- Node10 -->
<g id="node10" class="node">
<title>Node10</title>
<g id="a_node10"><a xlink:href="class_graphics_1_1_image.html#a90e9a33ef5f89fa71e830d967122b9e3" target="_top" xlink:title=" ">
<polygon fill="white" stroke="black" points="484,-12 484,-31 598,-31 598,-12 484,-12"/>
<text text-anchor="middle" x="541" y="-19" font-family="Helvetica,sans-Serif" font-size="10.00">Graphics::Image::Draw</text>
</a>
</g>
</g>
<!-- Node2&#45;&gt;Node10 -->
<g id="edge10" class="edge">
<title>Node2&#45;&gt;Node10</title>
<path fill="none" stroke="midnightblue" d="M642.83,-47.39C622.21,-42.1 598.39,-35.98 579.08,-31.02"/>
<polygon fill="midnightblue" stroke="midnightblue" points="642.1,-50.81 652.65,-49.91 643.84,-44.03 642.1,-50.81"/>
</g>
<!-- Node5 -->
<g id="node5" class="node">
<title>Node5</title>
<g id="a_node5"><a xlink:href="class_engine.html#a39f23d7f0ad86322bfdb73d4e6763005" target="_top" xlink:title=" ">
<polygon fill="white" stroke="black" points="178,-50 178,-69 251,-69 251,-50 178,-50"/>
<text text-anchor="middle" x="214.5" y="-57" font-family="Helvetica,sans-Serif" font-size="10.00">Engine::Draw</text>
</a>
</g>
</g>
<!-- Node4&#45;&gt;Node5 -->
<g id="edge4" class="edge">
<title>Node4&#45;&gt;Node5</title>
<path fill="none" stroke="midnightblue" d="M488.69,-59.5C422.47,-59.5 308.91,-59.5 251.29,-59.5"/>
<polygon fill="midnightblue" stroke="midnightblue" points="488.9,-63 498.9,-59.5 488.9,-56 488.9,-63"/>
</g>
<!-- Node8 -->
<g id="node8" class="node">
<title>Node8</title>
<g id="a_node8"><a xlink:href="class_cell.html#ac88160c4177e146f8dd7482c4eaee4f0" target="_top" xlink:title=" ">
<polygon fill="white" stroke="black" points="388,-31 388,-50 448,-50 448,-31 388,-31"/>
<text text-anchor="middle" x="418" y="-38" font-family="Helvetica,sans-Serif" font-size="10.00">Cell::Draw</text>
</a>
</g>
</g>
<!-- Node4&#45;&gt;Node8 -->
<g id="edge7" class="edge">
<title>Node4&#45;&gt;Node8</title>
<path fill="none" stroke="midnightblue" d="M488.79,-51.46C474.96,-49.29 460.46,-47.01 448.29,-45.1"/>
<polygon fill="midnightblue" stroke="midnightblue" points="488.28,-54.92 498.7,-53.01 489.36,-48.01 488.28,-54.92"/>
</g>
<!-- Node6 -->
<g id="node6" class="node">
<title>Node6</title>
<g id="a_node6"><a xlink:href="class_game.html#adb05b20574551a26f8cf1dc664782790" target="_top" xlink:title=" ">
<polygon fill="white" stroke="black" points="74,-50 74,-69 142,-69 142,-50 74,-50"/>
<text text-anchor="middle" x="108" y="-57" font-family="Helvetica,sans-Serif" font-size="10.00">Game::Start</text>
</a>
</g>
</g>
<!-- Node5&#45;&gt;Node6 -->
<g id="edge5" class="edge">
<title>Node5&#45;&gt;Node6</title>
<path fill="none" stroke="midnightblue" d="M167.82,-59.5C159.15,-59.5 150.23,-59.5 142.05,-59.5"/>
<polygon fill="midnightblue" stroke="midnightblue" points="167.83,-63 177.83,-59.5 167.83,-56 167.83,-63"/>
</g>
<!-- Node7 -->
<g id="node7" class="node">
<title>Node7</title>
<g id="a_node7"><a xlink:href="main_8cpp.html#ae66f6b31b5ad750f1fe042a706a4e3d4" target="_top" xlink:title=" ">
<polygon fill="white" stroke="black" points="0,-50 0,-69 38,-69 38,-50 0,-50"/>
<text text-anchor="middle" x="19" y="-57" font-family="Helvetica,sans-Serif" font-size="10.00">main</text>
</a>
</g>
</g>
<!-- Node6&#45;&gt;Node7 -->
<g id="edge6" class="edge">
<title>Node6&#45;&gt;Node7</title>
<path fill="none" stroke="midnightblue" d="M63.54,-59.5C54.55,-59.5 45.55,-59.5 38.09,-59.5"/>
<polygon fill="midnightblue" stroke="midnightblue" points="63.61,-63 73.61,-59.5 63.61,-56 63.61,-63"/>
</g>
<!-- Node9 -->
<g id="node9" class="node">
<title>Node9</title>
<g id="a_node9"><a xlink:href="class_field.html#ad13d86066be42a2e10fcb9cbcc51fb0b" target="_top" xlink:title=" ">
<polygon fill="white" stroke="black" points="287,-31 287,-50 352,-50 352,-31 287,-31"/>
<text text-anchor="middle" x="319.5" y="-38" font-family="Helvetica,sans-Serif" font-size="10.00">Field::Draw</text>
</a>
</g>
</g>
<!-- Node8&#45;&gt;Node9 -->
<g id="edge8" class="edge">
<title>Node8&#45;&gt;Node9</title>
<path fill="none" stroke="midnightblue" d="M377.73,-40.5C369.27,-40.5 360.44,-40.5 352.31,-40.5"/>
<polygon fill="midnightblue" stroke="midnightblue" points="377.78,-44 387.78,-40.5 377.78,-37 377.78,-44"/>
</g>
<!-- Node9&#45;&gt;Node5 -->
<g id="edge9" class="edge">
<title>Node9&#45;&gt;Node5</title>
<path fill="none" stroke="midnightblue" d="M276.71,-48.21C268.28,-49.76 259.48,-51.39 251.27,-52.9"/>
<polygon fill="midnightblue" stroke="midnightblue" points="277.56,-51.61 286.76,-46.36 276.29,-44.73 277.56,-51.61"/>
</g>
</g>
</svg>
