<?xml version="1.0" encoding="UTF-8" standalone="no"?>
<!DOCTYPE svg PUBLIC "-//W3C//DTD SVG 1.1//EN"
 "http://www.w3.org/Graphics/SVG/1.1/DTD/svg11.dtd">
<!-- Generated by graphviz version 2.47.0 (20210407.0042)
 -->
<!-- Title: GUI::Item::Draw Pages: 1 -->
<svg width="570pt" height="233pt"
 viewBox="0.00 0.00 570.00 232.50" xmlns="http://www.w3.org/2000/svg" xmlns:xlink="http://www.w3.org/1999/xlink">
<g id="graph0" class="graph" transform="scale(1 1) rotate(0) translate(4 228.5)">
<title>GUI::Item::Draw</title>
<polygon fill="white" stroke="transparent" points="-4,4 -4,-228.5 566,-228.5 566,4 -4,4"/>
<!-- Node1 -->
<g id="node1" class="node">
<title>Node1</title>
<g id="a_node1"><a xlink:title=" ">
<polygon fill="#bfbfbf" stroke="black" points="0,-79 0,-98 86,-98 86,-79 0,-79"/>
<text text-anchor="middle" x="43" y="-86" font-family="Helvetica,sans-Serif" font-size="10.00">GUI::Item::Draw</text>
</a>
</g>
</g>
<!-- Node2 -->
<g id="node2" class="node">
<title>Node2</title>
<g id="a_node2"><a xlink:href="class_graphics_1_1_image.html#af48c0e309532eb1ff36e8fdaee244da1" target="_top" xlink:title=" ">
<polygon fill="white" stroke="black" points="134.5,-148 134.5,-167 248.5,-167 248.5,-148 134.5,-148"/>
<text text-anchor="middle" x="191.5" y="-155" font-family="Helvetica,sans-Serif" font-size="10.00">Graphics::Image::Draw</text>
</a>
</g>
</g>
<!-- Node1&#45;&gt;Node2 -->
<g id="edge1" class="edge">
<title>Node1&#45;&gt;Node2</title>
<path fill="none" stroke="midnightblue" d="M56.9,-98.18C71.87,-109.03 97.64,-126.55 122,-137.5 128.07,-140.23 134.62,-142.7 141.16,-144.89"/>
<polygon fill="midnightblue" stroke="midnightblue" points="140.12,-148.23 150.71,-147.9 142.22,-141.55 140.12,-148.23"/>
</g>
<!-- Node8 -->
<g id="node8" class="node">
<title>Node8</title>
<g id="a_node8"><a xlink:href="class_graphics_1_1_resource_manager.html#a712cf513dbda24deb3a7fcea7157003a" target="_top" xlink:title=" ">
<polygon fill="white" stroke="black" points="122,-98.5 122,-128.5 261,-128.5 261,-98.5 122,-98.5"/>
<text text-anchor="start" x="130" y="-116.5" font-family="Helvetica,sans-Serif" font-size="10.00">Graphics::ResourceManager</text>
<text text-anchor="middle" x="191.5" y="-105.5" font-family="Helvetica,sans-Serif" font-size="10.00">::GetImage</text>
</a>
</g>
</g>
<!-- Node1&#45;&gt;Node8 -->
<g id="edge7" class="edge">
<title>Node1&#45;&gt;Node8</title>
<path fill="none" stroke="midnightblue" d="M86.37,-95.73C94.42,-97.1 103.07,-98.58 111.82,-100.07"/>
<polygon fill="midnightblue" stroke="midnightblue" points="111.28,-103.53 121.73,-101.76 112.46,-96.63 111.28,-103.53"/>
</g>
<!-- Node9 -->
<g id="node9" class="node">
<title>Node9</title>
<g id="a_node9"><a xlink:href="class_graphics_1_1_resource_manager.html#a34d11294bd090580de46ab34f303c2ab" target="_top" xlink:title=" ">
<polygon fill="white" stroke="black" points="122,-49.5 122,-79.5 261,-79.5 261,-49.5 122,-49.5"/>
<text text-anchor="start" x="130" y="-67.5" font-family="Helvetica,sans-Serif" font-size="10.00">Graphics::ResourceManager</text>
<text text-anchor="middle" x="191.5" y="-56.5" font-family="Helvetica,sans-Serif" font-size="10.00">::GetShader</text>
</a>
</g>
</g>
<!-- Node1&#45;&gt;Node9 -->
<g id="edge8" class="edge">
<title>Node1&#45;&gt;Node9</title>
<path fill="none" stroke="midnightblue" d="M86.37,-81.56C94.42,-80.24 103.07,-78.82 111.82,-77.39"/>
<polygon fill="midnightblue" stroke="midnightblue" points="112.42,-80.84 121.73,-75.77 111.29,-73.93 112.42,-80.84"/>
</g>
<!-- Node10 -->
<g id="node10" class="node">
<title>Node10</title>
<g id="a_node10"><a xlink:href="class_graphics_1_1_resource_manager.html#a2bf0311bf4f8431618eb13706a26a5f1" target="_top" xlink:title=" ">
<polygon fill="white" stroke="black" points="122,-0.5 122,-30.5 261,-30.5 261,-0.5 122,-0.5"/>
<text text-anchor="start" x="130" y="-18.5" font-family="Helvetica,sans-Serif" font-size="10.00">Graphics::ResourceManager</text>
<text text-anchor="middle" x="191.5" y="-7.5" font-family="Helvetica,sans-Serif" font-size="10.00">::GetWindow</text>
</a>
</g>
</g>
<!-- Node1&#45;&gt;Node10 -->
<g id="edge9" class="edge">
<title>Node1&#45;&gt;Node10</title>
<path fill="none" stroke="midnightblue" d="M57.28,-78.86C72.39,-68.2 98.08,-51.02 122,-39.5 125.77,-37.68 129.71,-35.94 133.72,-34.27"/>
<polygon fill="midnightblue" stroke="midnightblue" points="135.13,-37.47 143.14,-30.53 132.55,-30.97 135.13,-37.47"/>
</g>
<!-- Node3 -->
<g id="node3" class="node">
<title>Node3</title>
<g id="a_node3"><a xlink:href="class_graphics_1_1_quadrangle.html#a7a061a60b5bff19feb5fd317d06495f0" target="_top" xlink:title=" ">
<polygon fill="white" stroke="black" points="297,-164.5 297,-194.5 407,-194.5 407,-164.5 297,-164.5"/>
<text text-anchor="start" x="305" y="-182.5" font-family="Helvetica,sans-Serif" font-size="10.00">Graphics::Quadrangle</text>
<text text-anchor="middle" x="352" y="-171.5" font-family="Helvetica,sans-Serif" font-size="10.00">::Draw</text>
</a>
</g>
</g>
<!-- Node2&#45;&gt;Node3 -->
<g id="edge2" class="edge">
<title>Node2&#45;&gt;Node3</title>
<path fill="none" stroke="midnightblue" d="M248.83,-165.32C261.18,-167.03 274.36,-168.86 286.99,-170.62"/>
<polygon fill="midnightblue" stroke="midnightblue" points="286.59,-174.09 296.98,-172 287.56,-167.16 286.59,-174.09"/>
</g>
<!-- Node6 -->
<g id="node6" class="node">
<title>Node6</title>
<g id="a_node6"><a xlink:href="class_graphics_1_1_shader.html#aa5da414808337285b38565f60c3d7cbd" target="_top" xlink:title=" ">
<polygon fill="white" stroke="black" points="297,-126 297,-145 407,-145 407,-126 297,-126"/>
<text text-anchor="middle" x="352" y="-133" font-family="Helvetica,sans-Serif" font-size="10.00">Graphics::Shader::Set</text>
</a>
</g>
</g>
<!-- Node2&#45;&gt;Node6 -->
<g id="edge5" class="edge">
<title>Node2&#45;&gt;Node6</title>
<path fill="none" stroke="midnightblue" d="M248.83,-149.68C261.18,-147.97 274.36,-146.14 286.99,-144.38"/>
<polygon fill="midnightblue" stroke="midnightblue" points="287.56,-147.84 296.98,-143 286.59,-140.91 287.56,-147.84"/>
</g>
<!-- Node4 -->
<g id="node4" class="node">
<title>Node4</title>
<g id="a_node4"><a xlink:href="class_graphics_1_1_shader.html#a63bfd523754bb6b2224aa7a48c65a504" target="_top" xlink:title=" ">
<polygon fill="white" stroke="black" points="443,-205 443,-224 562,-224 562,-205 443,-205"/>
<text text-anchor="middle" x="502.5" y="-212" font-family="Helvetica,sans-Serif" font-size="10.00">Graphics::Shader::GetId</text>
</a>
</g>
</g>
<!-- Node3&#45;&gt;Node4 -->
<g id="edge3" class="edge">
<title>Node3&#45;&gt;Node4</title>
<path fill="none" stroke="midnightblue" d="M407.03,-192.23C421.31,-195.6 436.67,-199.22 450.77,-202.54"/>
<polygon fill="midnightblue" stroke="midnightblue" points="450.25,-206.02 460.78,-204.9 451.85,-199.2 450.25,-206.02"/>
</g>
<!-- Node5 -->
<g id="node5" class="node">
<title>Node5</title>
<g id="a_node5"><a xlink:href="class_graphics_1_1_shader.html#a11a2de17d1d077ec34acd4f7cd57f6b1" target="_top" xlink:title=" ">
<polygon fill="white" stroke="black" points="446,-167 446,-186 559,-186 559,-167 446,-167"/>
<text text-anchor="middle" x="502.5" y="-174" font-family="Helvetica,sans-Serif" font-size="10.00">Graphics::Shader::Use</text>
</a>
</g>
</g>
<!-- Node3&#45;&gt;Node5 -->
<g id="edge4" class="edge">
<title>Node3&#45;&gt;Node5</title>
<path fill="none" stroke="midnightblue" d="M407.03,-178.41C416.29,-178.22 426,-178.03 435.53,-177.83"/>
<polygon fill="midnightblue" stroke="midnightblue" points="435.83,-181.33 445.76,-177.63 435.69,-174.33 435.83,-181.33"/>
</g>
<!-- Node7 -->
<g id="node7" class="node">
<title>Node7</title>
<g id="a_node7"><a xlink:href="class_graphics_1_1_image.html#aab55feadb4b66e0fd78b5f54a6fadde2" target="_top" xlink:title=" ">
<polygon fill="white" stroke="black" points="444.5,-126 444.5,-145 560.5,-145 560.5,-126 444.5,-126"/>
<text text-anchor="middle" x="502.5" y="-133" font-family="Helvetica,sans-Serif" font-size="10.00">Graphics::Image::GetId</text>
</a>
</g>
</g>
<!-- Node6&#45;&gt;Node7 -->
<g id="edge6" class="edge">
<title>Node6&#45;&gt;Node7</title>
<path fill="none" stroke="midnightblue" d="M407.03,-135.5C415.83,-135.5 425.04,-135.5 434.11,-135.5"/>
<polygon fill="midnightblue" stroke="midnightblue" points="434.26,-139 444.26,-135.5 434.26,-132 434.26,-139"/>
</g>
</g>
</svg>
