<?xml version="1.0" encoding="UTF-8" standalone="no"?>
<!DOCTYPE svg PUBLIC "-//W3C//DTD SVG 1.1//EN"
 "http://www.w3.org/Graphics/SVG/1.1/DTD/svg11.dtd">
<!-- Generated by graphviz version 2.47.0 (20210407.0042)
 -->
<!-- Title: UnitGroup Pages: 1 -->
<svg width="271pt" height="530pt"
 viewBox="0.00 0.00 271.00 530.00" xmlns="http://www.w3.org/2000/svg" xmlns:xlink="http://www.w3.org/1999/xlink">
<g id="graph0" class="graph" transform="scale(1 1) rotate(0) translate(4 526)">
<title>UnitGroup</title>
<polygon fill="white" stroke="transparent" points="-4,4 -4,-526 267,-526 267,4 -4,4"/>
<!-- Node1 -->
<g id="node1" class="node">
<title>Node1</title>
<g id="a_node1"><a xlink:title=" ">
<polygon fill="#bfbfbf" stroke="black" points="80,-0.5 80,-79.5 155,-79.5 155,-0.5 80,-0.5"/>
<text text-anchor="middle" x="117.5" y="-67.5" font-family="Helvetica,sans-Serif" font-size="10.00">UnitGroup</text>
<polyline fill="none" stroke="black" points="80,-60.5 155,-60.5 "/>
<text text-anchor="middle" x="117.5" y="-48.5" font-family="Helvetica,sans-Serif" font-size="10.00"> </text>
<polyline fill="none" stroke="black" points="80,-41.5 155,-41.5 "/>
<text text-anchor="start" x="88" y="-29.5" font-family="Helvetica,sans-Serif" font-size="10.00">+ UnitGroup()</text>
<text text-anchor="start" x="88" y="-18.5" font-family="Helvetica,sans-Serif" font-size="10.00">+ Tick()</text>
<text text-anchor="start" x="88" y="-7.5" font-family="Helvetica,sans-Serif" font-size="10.00">+ Draw()</text>
</a>
</g>
</g>
<!-- Node2 -->
<g id="node2" class="node">
<title>Node2</title>
<g id="a_node2"><a xlink:href="class_world_actor.html" target="_top" xlink:title=" ">
<polygon fill="white" stroke="black" points="78,-117.5 78,-262.5 157,-262.5 157,-117.5 78,-117.5"/>
<text text-anchor="middle" x="117.5" y="-250.5" font-family="Helvetica,sans-Serif" font-size="10.00">WorldActor</text>
<polyline fill="none" stroke="black" points="78,-243.5 157,-243.5 "/>
<text text-anchor="start" x="86" y="-231.5" font-family="Helvetica,sans-Serif" font-size="10.00"># fly_</text>
<text text-anchor="start" x="86" y="-220.5" font-family="Helvetica,sans-Serif" font-size="10.00"># rooted_</text>
<polyline fill="none" stroke="black" points="78,-213.5 157,-213.5 "/>
<text text-anchor="start" x="86" y="-201.5" font-family="Helvetica,sans-Serif" font-size="10.00">+ WorldActor()</text>
<text text-anchor="start" x="86" y="-190.5" font-family="Helvetica,sans-Serif" font-size="10.00">+ Move()</text>
<text text-anchor="start" x="86" y="-179.5" font-family="Helvetica,sans-Serif" font-size="10.00">+ Tick()</text>
<text text-anchor="start" x="86" y="-168.5" font-family="Helvetica,sans-Serif" font-size="10.00">+ IncSpeed()</text>
<text text-anchor="start" x="86" y="-157.5" font-family="Helvetica,sans-Serif" font-size="10.00">+ SetSpeed()</text>
<text text-anchor="start" x="86" y="-146.5" font-family="Helvetica,sans-Serif" font-size="10.00">+ GetX()</text>
<text text-anchor="start" x="86" y="-135.5" font-family="Helvetica,sans-Serif" font-size="10.00">+ GetY()</text>
<text text-anchor="start" x="86" y="-124.5" font-family="Helvetica,sans-Serif" font-size="10.00">+ Distance()</text>
</a>
</g>
</g>
<!-- Node2&#45;&gt;Node1 -->
<g id="edge1" class="edge">
<title>Node2&#45;&gt;Node1</title>
<path fill="none" stroke="midnightblue" d="M117.5,-107.15C117.5,-97.58 117.5,-88.18 117.5,-79.61"/>
<polygon fill="none" stroke="midnightblue" points="114,-107.17 117.5,-117.17 121,-107.17 114,-107.17"/>
</g>
<!-- Node3 -->
<g id="node3" class="node">
<title>Node3</title>
<g id="a_node3"><a xlink:href="class_tickable.html" target="_top" xlink:title=" ">
<polygon fill="white" stroke="black" points="0,-393 0,-450 53,-450 53,-393 0,-393"/>
<text text-anchor="middle" x="26.5" y="-438" font-family="Helvetica,sans-Serif" font-size="10.00">Tickable</text>
<polyline fill="none" stroke="black" points="0,-431 53,-431 "/>
<text text-anchor="middle" x="26.5" y="-419" font-family="Helvetica,sans-Serif" font-size="10.00"> </text>
<polyline fill="none" stroke="black" points="0,-412 53,-412 "/>
<text text-anchor="start" x="8" y="-400" font-family="Helvetica,sans-Serif" font-size="10.00">+ Tick()</text>
</a>
</g>
</g>
<!-- Node3&#45;&gt;Node2 -->
<g id="edge2" class="edge">
<title>Node3&#45;&gt;Node2</title>
<path fill="none" stroke="#8b1a1a" d="M39.45,-383.24C46.11,-364.48 54.48,-341.44 62.5,-321 69.97,-301.95 78.42,-281.5 86.41,-262.58"/>
<polygon fill="none" stroke="#8b1a1a" points="36.07,-382.31 36.04,-392.9 42.67,-384.64 36.07,-382.31"/>
</g>
<!-- Node4 -->
<g id="node4" class="node">
<title>Node4</title>
<g id="a_node4"><a xlink:href="struct_vector2_d.html" target="_top" xlink:title=" ">
<polygon fill="white" stroke="black" points="71.5,-321.5 71.5,-521.5 163.5,-521.5 163.5,-321.5 71.5,-321.5"/>
<text text-anchor="middle" x="117.5" y="-509.5" font-family="Helvetica,sans-Serif" font-size="10.00">Vector2D&lt; float &gt;</text>
<polyline fill="none" stroke="black" points="71.5,-502.5 163.5,-502.5 "/>
<text text-anchor="start" x="79.5" y="-490.5" font-family="Helvetica,sans-Serif" font-size="10.00">+ x</text>
<text text-anchor="start" x="79.5" y="-479.5" font-family="Helvetica,sans-Serif" font-size="10.00">+ y</text>
<polyline fill="none" stroke="black" points="71.5,-472.5 163.5,-472.5 "/>
<text text-anchor="start" x="79.5" y="-460.5" font-family="Helvetica,sans-Serif" font-size="10.00">+ Vector2D()</text>
<text text-anchor="start" x="79.5" y="-449.5" font-family="Helvetica,sans-Serif" font-size="10.00">+ Vector2D()</text>
<text text-anchor="start" x="79.5" y="-438.5" font-family="Helvetica,sans-Serif" font-size="10.00">+ Vector2D()</text>
<text text-anchor="start" x="79.5" y="-427.5" font-family="Helvetica,sans-Serif" font-size="10.00">+ Vector2D()</text>
<text text-anchor="start" x="79.5" y="-416.5" font-family="Helvetica,sans-Serif" font-size="10.00">+ operator=()</text>
<text text-anchor="start" x="79.5" y="-405.5" font-family="Helvetica,sans-Serif" font-size="10.00">+ operator&#45;()</text>
<text text-anchor="start" x="79.5" y="-394.5" font-family="Helvetica,sans-Serif" font-size="10.00">+ operator+=()</text>
<text text-anchor="start" x="79.5" y="-383.5" font-family="Helvetica,sans-Serif" font-size="10.00">+ operator&#45;=()</text>
<text text-anchor="start" x="79.5" y="-372.5" font-family="Helvetica,sans-Serif" font-size="10.00">+ operator*=()</text>
<text text-anchor="start" x="79.5" y="-361.5" font-family="Helvetica,sans-Serif" font-size="10.00">+ operator*()</text>
<text text-anchor="start" x="79.5" y="-350.5" font-family="Helvetica,sans-Serif" font-size="10.00">+ operator/=()</text>
<text text-anchor="start" x="79.5" y="-339.5" font-family="Helvetica,sans-Serif" font-size="10.00">+ operator/()</text>
<text text-anchor="start" x="79.5" y="-328.5" font-family="Helvetica,sans-Serif" font-size="10.00">+ dist()</text>
</a>
</g>
</g>
<!-- Node4&#45;&gt;Node2 -->
<g id="edge3" class="edge">
<title>Node4&#45;&gt;Node2</title>
<path fill="none" stroke="#404040" d="M117.5,-321.17C117.5,-305.84 117.5,-290.13 117.5,-275.18"/>
<polygon fill="none" stroke="#404040" points="117.5,-274.81 113.5,-268.81 117.5,-262.81 121.5,-268.81 117.5,-274.81"/>
<text text-anchor="middle" x="141" y="-295" font-family="Helvetica,sans-Serif" font-size="10.00"> #position_</text>
<text text-anchor="middle" x="141" y="-284" font-family="Helvetica,sans-Serif" font-size="10.00">#speed_</text>
</g>
<!-- Node5 -->
<g id="node5" class="node">
<title>Node5</title>
<g id="a_node5"><a xlink:href="class_field.html" target="_top" xlink:title=" ">
<polygon fill="white" stroke="black" points="182,-338 182,-505 263,-505 263,-338 182,-338"/>
<text text-anchor="middle" x="222.5" y="-493" font-family="Helvetica,sans-Serif" font-size="10.00">Field</text>
<polyline fill="none" stroke="black" points="182,-486 263,-486 "/>
<text text-anchor="middle" x="222.5" y="-474" font-family="Helvetica,sans-Serif" font-size="10.00"> </text>
<polyline fill="none" stroke="black" points="182,-467 263,-467 "/>
<text text-anchor="start" x="190" y="-455" font-family="Helvetica,sans-Serif" font-size="10.00">+ GetWidth()</text>
<text text-anchor="start" x="190" y="-444" font-family="Helvetica,sans-Serif" font-size="10.00">+ GetHeight()</text>
<text text-anchor="start" x="190" y="-433" font-family="Helvetica,sans-Serif" font-size="10.00">+ Field()</text>
<text text-anchor="start" x="190" y="-422" font-family="Helvetica,sans-Serif" font-size="10.00">+ Field()</text>
<text text-anchor="start" x="190" y="-411" font-family="Helvetica,sans-Serif" font-size="10.00">+ operator[]()</text>
<text text-anchor="start" x="190" y="-400" font-family="Helvetica,sans-Serif" font-size="10.00">+ operator[]()</text>
<text text-anchor="start" x="190" y="-389" font-family="Helvetica,sans-Serif" font-size="10.00">+ GetCell()</text>
<text text-anchor="start" x="190" y="-378" font-family="Helvetica,sans-Serif" font-size="10.00">+ GetBuilding()</text>
<text text-anchor="start" x="190" y="-367" font-family="Helvetica,sans-Serif" font-size="10.00">+ Draw()</text>
<text text-anchor="start" x="190" y="-356" font-family="Helvetica,sans-Serif" font-size="10.00">+ Tick()</text>
<text text-anchor="start" x="190" y="-345" font-family="Helvetica,sans-Serif" font-size="10.00">+ GetCellPos()</text>
</a>
</g>
</g>
<!-- Node5&#45;&gt;Node2 -->
<g id="edge4" class="edge">
<title>Node5&#45;&gt;Node2</title>
<path fill="none" stroke="#404040" d="M192.77,-337.78C185.36,-318.89 177.06,-299.07 168.5,-281 166.62,-277.03 164.64,-273 162.58,-268.96"/>
<polygon fill="none" stroke="#404040" points="162.55,-268.9 156.23,-265.42 157.01,-258.26 163.33,-261.73 162.55,-268.9"/>
<text text-anchor="middle" x="192" y="-289.5" font-family="Helvetica,sans-Serif" font-size="10.00"> #field_</text>
</g>
</g>
</svg>
