<?xml version="1.0" encoding="UTF-8" standalone="no"?>
<!DOCTYPE svg PUBLIC "-//W3C//DTD SVG 1.1//EN"
 "http://www.w3.org/Graphics/SVG/1.1/DTD/svg11.dtd">
<!-- Generated by graphviz version 2.47.1 (20210421.1823)
 -->
<!-- Title: Graphics::ResourceManager::GetImage Pages: 1 -->
<svg width="790pt" height="142pt"
 viewBox="0.00 0.00 790.00 142.00" xmlns="http://www.w3.org/2000/svg" xmlns:xlink="http://www.w3.org/1999/xlink">
<g id="graph0" class="graph" transform="scale(1 1) rotate(0) translate(4 138)">
<title>Graphics::ResourceManager::GetImage</title>
<polygon fill="white" stroke="transparent" points="-4,4 -4,-138 786,-138 786,4 -4,4"/>
<!-- Node1 -->
<g id="node1" class="node">
<title>Node1</title>
<g id="a_node1"><a xlink:title=" ">
<polygon fill="#bfbfbf" stroke="black" points="643,-52 643,-82 782,-82 782,-52 643,-52"/>
<text text-anchor="start" x="651" y="-70" font-family="Helvetica,sans-Serif" font-size="10.00">Graphics::ResourceManager</text>
<text text-anchor="middle" x="712.5" y="-59" font-family="Helvetica,sans-Serif" font-size="10.00">::GetImage</text>
</a>
</g>
</g>
<!-- Node2 -->
<g id="node2" class="node">
<title>Node2</title>
<g id="a_node2"><a xlink:href="class_g_u_i_1_1_item.html#a2aed1e3debe2a6080c10d5b2d005f8c8" target="_top" xlink:title=" ">
<polygon fill="white" stroke="black" points="503,-114.5 503,-133.5 588,-133.5 588,-114.5 503,-114.5"/>
<text text-anchor="middle" x="545.5" y="-121.5" font-family="Helvetica,sans-Serif" font-size="10.00">GUI::Item::Click</text>
</a>
</g>
</g>
<!-- Node1&#45;&gt;Node2 -->
<g id="edge1" class="edge">
<title>Node1&#45;&gt;Node2</title>
<path fill="none" stroke="midnightblue" d="M661.59,-85.66C644.35,-91.97 624.88,-98.94 607,-105 597.62,-108.18 587.35,-111.47 577.99,-114.4"/>
<polygon fill="midnightblue" stroke="midnightblue" points="663.27,-88.77 671.45,-82.04 660.86,-82.2 663.27,-88.77"/>
</g>
<!-- Node3 -->
<g id="node3" class="node">
<title>Node3</title>
<g id="a_node3"><a xlink:href="class_g_u_i_1_1_item.html#ab089785456c77b4ff16f15dc7b6bd8fa" target="_top" xlink:title=" ">
<polygon fill="white" stroke="black" points="502.5,-76.5 502.5,-95.5 588.5,-95.5 588.5,-76.5 502.5,-76.5"/>
<text text-anchor="middle" x="545.5" y="-83.5" font-family="Helvetica,sans-Serif" font-size="10.00">GUI::Item::Draw</text>
</a>
</g>
</g>
<!-- Node1&#45;&gt;Node3 -->
<g id="edge2" class="edge">
<title>Node1&#45;&gt;Node3</title>
<path fill="none" stroke="midnightblue" d="M632.96,-76.04C617.67,-77.8 602.2,-79.59 588.66,-81.15"/>
<polygon fill="midnightblue" stroke="midnightblue" points="633.42,-79.51 642.96,-74.89 632.62,-72.56 633.42,-79.51"/>
</g>
<!-- Node4 -->
<g id="node4" class="node">
<title>Node4</title>
<g id="a_node4"><a xlink:href="class_drawable.html#ac46f25a963a3fe3e9176461d61d213c7" target="_top" xlink:title=" ">
<polygon fill="white" stroke="black" points="503.5,-38.5 503.5,-57.5 587.5,-57.5 587.5,-38.5 503.5,-38.5"/>
<text text-anchor="middle" x="545.5" y="-45.5" font-family="Helvetica,sans-Serif" font-size="10.00">Drawable::Draw</text>
</a>
</g>
</g>
<!-- Node1&#45;&gt;Node4 -->
<g id="edge3" class="edge">
<title>Node1&#45;&gt;Node4</title>
<path fill="none" stroke="midnightblue" d="M632.77,-57.93C617.18,-56.14 601.42,-54.32 587.71,-52.75"/>
<polygon fill="midnightblue" stroke="midnightblue" points="632.62,-61.44 642.96,-59.11 633.42,-54.49 632.62,-61.44"/>
</g>
<!-- Node10 -->
<g id="node10" class="node">
<title>Node10</title>
<g id="a_node10"><a xlink:href="class_g_u_i_1_1_inventory.html#a8fe3124d38c7228c1553d555bca1b5a4" target="_top" xlink:title=" ">
<polygon fill="white" stroke="black" points="484,-0.5 484,-19.5 607,-19.5 607,-0.5 484,-0.5"/>
<text text-anchor="middle" x="545.5" y="-7.5" font-family="Helvetica,sans-Serif" font-size="10.00">GUI::Inventory::Inventory</text>
</a>
</g>
</g>
<!-- Node1&#45;&gt;Node10 -->
<g id="edge10" class="edge">
<title>Node1&#45;&gt;Node10</title>
<path fill="none" stroke="midnightblue" d="M661.59,-48.34C644.35,-42.03 624.88,-35.06 607,-29 597.62,-25.82 587.35,-22.53 577.99,-19.6"/>
<polygon fill="midnightblue" stroke="midnightblue" points="660.86,-51.8 671.45,-51.96 663.27,-45.23 660.86,-51.8"/>
</g>
<!-- Node5 -->
<g id="node5" class="node">
<title>Node5</title>
<g id="a_node5"><a xlink:href="class_engine.html#a39f23d7f0ad86322bfdb73d4e6763005" target="_top" xlink:title=" ">
<polygon fill="white" stroke="black" points="178,-38.5 178,-57.5 251,-57.5 251,-38.5 178,-38.5"/>
<text text-anchor="middle" x="214.5" y="-45.5" font-family="Helvetica,sans-Serif" font-size="10.00">Engine::Draw</text>
</a>
</g>
</g>
<!-- Node4&#45;&gt;Node5 -->
<g id="edge4" class="edge">
<title>Node4&#45;&gt;Node5</title>
<path fill="none" stroke="midnightblue" d="M493.15,-48C425.98,-48 309.98,-48 251.46,-48"/>
<polygon fill="midnightblue" stroke="midnightblue" points="493.5,-51.5 503.5,-48 493.5,-44.5 493.5,-51.5"/>
</g>
<!-- Node8 -->
<g id="node8" class="node">
<title>Node8</title>
<g id="a_node8"><a xlink:href="class_cell.html#ac88160c4177e146f8dd7482c4eaee4f0" target="_top" xlink:title=" ">
<polygon fill="white" stroke="black" points="388,-19.5 388,-38.5 448,-38.5 448,-19.5 388,-19.5"/>
<text text-anchor="middle" x="418" y="-26.5" font-family="Helvetica,sans-Serif" font-size="10.00">Cell::Draw</text>
</a>
</g>
</g>
<!-- Node4&#45;&gt;Node8 -->
<g id="edge7" class="edge">
<title>Node4&#45;&gt;Node8</title>
<path fill="none" stroke="midnightblue" d="M493.47,-40.27C478.08,-37.94 461.71,-35.47 448.26,-33.43"/>
<polygon fill="midnightblue" stroke="midnightblue" points="493,-43.74 503.41,-41.78 494.04,-36.82 493,-43.74"/>
</g>
<!-- Node6 -->
<g id="node6" class="node">
<title>Node6</title>
<g id="a_node6"><a xlink:href="class_game.html#adb05b20574551a26f8cf1dc664782790" target="_top" xlink:title=" ">
<polygon fill="white" stroke="black" points="74,-38.5 74,-57.5 142,-57.5 142,-38.5 74,-38.5"/>
<text text-anchor="middle" x="108" y="-45.5" font-family="Helvetica,sans-Serif" font-size="10.00">Game::Start</text>
</a>
</g>
</g>
<!-- Node5&#45;&gt;Node6 -->
<g id="edge5" class="edge">
<title>Node5&#45;&gt;Node6</title>
<path fill="none" stroke="midnightblue" d="M167.82,-48C159.15,-48 150.23,-48 142.05,-48"/>
<polygon fill="midnightblue" stroke="midnightblue" points="167.83,-51.5 177.83,-48 167.83,-44.5 167.83,-51.5"/>
</g>
<!-- Node7 -->
<g id="node7" class="node">
<title>Node7</title>
<g id="a_node7"><a xlink:href="main_8cpp.html#ae66f6b31b5ad750f1fe042a706a4e3d4" target="_top" xlink:title=" ">
<polygon fill="white" stroke="black" points="0,-38.5 0,-57.5 38,-57.5 38,-38.5 0,-38.5"/>
<text text-anchor="middle" x="19" y="-45.5" font-family="Helvetica,sans-Serif" font-size="10.00">main</text>
</a>
</g>
</g>
<!-- Node6&#45;&gt;Node7 -->
<g id="edge6" class="edge">
<title>Node6&#45;&gt;Node7</title>
<path fill="none" stroke="midnightblue" d="M63.54,-48C54.55,-48 45.55,-48 38.09,-48"/>
<polygon fill="midnightblue" stroke="midnightblue" points="63.61,-51.5 73.61,-48 63.61,-44.5 63.61,-51.5"/>
</g>
<!-- Node9 -->
<g id="node9" class="node">
<title>Node9</title>
<g id="a_node9"><a xlink:href="class_field.html#ad13d86066be42a2e10fcb9cbcc51fb0b" target="_top" xlink:title=" ">
<polygon fill="white" stroke="black" points="287,-19.5 287,-38.5 352,-38.5 352,-19.5 287,-19.5"/>
<text text-anchor="middle" x="319.5" y="-26.5" font-family="Helvetica,sans-Serif" font-size="10.00">Field::Draw</text>
</a>
</g>
</g>
<!-- Node8&#45;&gt;Node9 -->
<g id="edge8" class="edge">
<title>Node8&#45;&gt;Node9</title>
<path fill="none" stroke="midnightblue" d="M377.73,-29C369.27,-29 360.44,-29 352.31,-29"/>
<polygon fill="midnightblue" stroke="midnightblue" points="377.78,-32.5 387.78,-29 377.78,-25.5 377.78,-32.5"/>
</g>
<!-- Node9&#45;&gt;Node5 -->
<g id="edge9" class="edge">
<title>Node9&#45;&gt;Node5</title>
<path fill="none" stroke="midnightblue" d="M276.71,-36.71C268.28,-38.26 259.48,-39.89 251.27,-41.4"/>
<polygon fill="midnightblue" stroke="midnightblue" points="277.56,-40.11 286.76,-34.86 276.29,-33.23 277.56,-40.11"/>
</g>
</g>
</svg>
