<?xml version="1.0" encoding="UTF-8" standalone="no"?>
<!DOCTYPE svg PUBLIC "-//W3C//DTD SVG 1.1//EN"
 "http://www.w3.org/Graphics/SVG/1.1/DTD/svg11.dtd">
<!-- Generated by graphviz version 2.47.1 (20210421.1823)
 -->
<!-- Title: Building Pages: 1 -->
<svg width="156pt" height="259pt"
 viewBox="0.00 0.00 156.00 259.00" xmlns="http://www.w3.org/2000/svg" xmlns:xlink="http://www.w3.org/1999/xlink">
<g id="graph0" class="graph" transform="scale(1 1) rotate(0) translate(4 255)">
<title>Building</title>
<polygon fill="white" stroke="transparent" points="-4,4 -4,-255 152,-255 152,4 -4,4"/>
<!-- Node1 -->
<g id="node1" class="node">
<title>Node1</title>
<g id="a_node1"><a xlink:title=" ">
<polygon fill="#bfbfbf" stroke="black" points="36.5,-0.5 36.5,-101.5 122.5,-101.5 122.5,-0.5 36.5,-0.5"/>
<text text-anchor="middle" x="79.5" y="-89.5" font-family="Helvetica,sans-Serif" font-size="10.00">Building</text>
<polyline fill="none" stroke="black" points="36.5,-82.5 122.5,-82.5 "/>
<text text-anchor="middle" x="79.5" y="-70.5" font-family="Helvetica,sans-Serif" font-size="10.00"> </text>
<polyline fill="none" stroke="black" points="36.5,-63.5 122.5,-63.5 "/>
<text text-anchor="start" x="44.5" y="-51.5" font-family="Helvetica,sans-Serif" font-size="10.00">+ GetLife()</text>
<text text-anchor="start" x="44.5" y="-40.5" font-family="Helvetica,sans-Serif" font-size="10.00">+ DealDamage()</text>
<text text-anchor="start" x="44.5" y="-29.5" font-family="Helvetica,sans-Serif" font-size="10.00">+ Repair()</text>
<text text-anchor="start" x="44.5" y="-18.5" font-family="Helvetica,sans-Serif" font-size="10.00">+ Building()</text>
<text text-anchor="start" x="44.5" y="-7.5" font-family="Helvetica,sans-Serif" font-size="10.00">+ Tick()</text>
</a>
</g>
</g>
<!-- Node2 -->
<g id="node2" class="node">
<title>Node2</title>
<g id="a_node2"><a xlink:href="class_drawable.html" target="_top" xlink:title=" ">
<polygon fill="white" stroke="black" points="0,-138.5 0,-250.5 77,-250.5 77,-138.5 0,-138.5"/>
<text text-anchor="middle" x="38.5" y="-238.5" font-family="Helvetica,sans-Serif" font-size="10.00">Drawable</text>
<polyline fill="none" stroke="black" points="0,-231.5 77,-231.5 "/>
<text text-anchor="middle" x="38.5" y="-219.5" font-family="Helvetica,sans-Serif" font-size="10.00"> </text>
<polyline fill="none" stroke="black" points="0,-212.5 77,-212.5 "/>
<text text-anchor="start" x="8" y="-200.5" font-family="Helvetica,sans-Serif" font-size="10.00">+ Drawable()</text>
<text text-anchor="start" x="8" y="-189.5" font-family="Helvetica,sans-Serif" font-size="10.00">+ Drawable()</text>
<text text-anchor="start" x="8" y="-178.5" font-family="Helvetica,sans-Serif" font-size="10.00">+ Draw()</text>
<text text-anchor="start" x="8" y="-167.5" font-family="Helvetica,sans-Serif" font-size="10.00">+ ~Drawable()</text>
<text text-anchor="start" x="8" y="-156.5" font-family="Helvetica,sans-Serif" font-size="10.00">+ GetImg()</text>
<text text-anchor="start" x="8" y="-145.5" font-family="Helvetica,sans-Serif" font-size="10.00">+ SetImage()</text>
</a>
</g>
</g>
<!-- Node2&#45;&gt;Node1 -->
<g id="edge1" class="edge">
<title>Node2&#45;&gt;Node1</title>
<path fill="none" stroke="midnightblue" d="M57.3,-128.63C59.92,-119.57 62.58,-110.38 65.11,-101.66"/>
<polygon fill="none" stroke="midnightblue" points="53.89,-127.81 54.47,-138.39 60.61,-129.76 53.89,-127.81"/>
</g>
<!-- Node3 -->
<g id="node3" class="node">
<title>Node3</title>
<g id="a_node3"><a xlink:href="class_tickable.html" target="_top" xlink:title=" ">
<polygon fill="white" stroke="black" points="95,-166 95,-223 148,-223 148,-166 95,-166"/>
<text text-anchor="middle" x="121.5" y="-211" font-family="Helvetica,sans-Serif" font-size="10.00">Tickable</text>
<polyline fill="none" stroke="black" points="95,-204 148,-204 "/>
<text text-anchor="middle" x="121.5" y="-192" font-family="Helvetica,sans-Serif" font-size="10.00"> </text>
<polyline fill="none" stroke="black" points="95,-185 148,-185 "/>
<text text-anchor="start" x="103" y="-173" font-family="Helvetica,sans-Serif" font-size="10.00">+ Tick()</text>
</a>
</g>
</g>
<!-- Node3&#45;&gt;Node1 -->
<g id="edge2" class="edge">
<title>Node3&#45;&gt;Node1</title>
<path fill="none" stroke="midnightblue" d="M110.36,-155.96C105.41,-139.3 99.52,-119.46 94.22,-101.6"/>
<polygon fill="none" stroke="midnightblue" points="107.1,-157.29 113.3,-165.88 113.81,-155.3 107.1,-157.29"/>
</g>
</g>
</svg>
