<?xml version="1.0" encoding="UTF-8" standalone="no"?>
<!DOCTYPE svg PUBLIC "-//W3C//DTD SVG 1.1//EN"
 "http://www.w3.org/Graphics/SVG/1.1/DTD/svg11.dtd">
<!-- Generated by graphviz version 2.47.1 (20210421.1823)
 -->
<!-- Title: Graphics::Shader::Use Pages: 1 -->
<svg width="1160pt" height="158pt"
 viewBox="0.00 0.00 1160.00 157.50" xmlns="http://www.w3.org/2000/svg" xmlns:xlink="http://www.w3.org/1999/xlink">
<g id="graph0" class="graph" transform="scale(1 1) rotate(0) translate(4 153.5)">
<title>Graphics::Shader::Use</title>
<polygon fill="white" stroke="transparent" points="-4,4 -4,-153.5 1156,-153.5 1156,4 -4,4"/>
<!-- Node1 -->
<g id="node1" class="node">
<title>Node1</title>
<g id="a_node1"><a xlink:title=" ">
<polygon fill="#bfbfbf" stroke="black" points="1039,-30 1039,-49 1152,-49 1152,-30 1039,-30"/>
<text text-anchor="middle" x="1095.5" y="-37" font-family="Helvetica,sans-Serif" font-size="10.00">Graphics::Shader::Use</text>
</a>
</g>
</g>
<!-- Node2 -->
<g id="node2" class="node">
<title>Node2</title>
<g id="a_node2"><a xlink:href="class_graphics_1_1_quadrangle.html#a7a061a60b5bff19feb5fd317d06495f0" target="_top" xlink:title=" ">
<polygon fill="white" stroke="black" points="873.5,-49.5 873.5,-79.5 983.5,-79.5 983.5,-49.5 873.5,-49.5"/>
<text text-anchor="start" x="881.5" y="-67.5" font-family="Helvetica,sans-Serif" font-size="10.00">Graphics::Quadrangle</text>
<text text-anchor="middle" x="928.5" y="-56.5" font-family="Helvetica,sans-Serif" font-size="10.00">::Draw</text>
</a>
</g>
</g>
<!-- Node1&#45;&gt;Node2 -->
<g id="edge1" class="edge">
<title>Node1&#45;&gt;Node2</title>
<path fill="none" stroke="midnightblue" d="M1028.48,-49.5C1013.59,-51.76 997.96,-54.13 983.63,-56.3"/>
<polygon fill="midnightblue" stroke="midnightblue" points="1029.28,-52.92 1038.64,-47.96 1028.23,-46 1029.28,-52.92"/>
</g>
<!-- Node13 -->
<g id="node13" class="node">
<title>Node13</title>
<g id="a_node13"><a xlink:href="class_graphics_1_1_shader.html#ab82f9feaa1c7c5623eaf7bb03c061e0a" target="_top" xlink:title=" ">
<polygon fill="white" stroke="black" points="854,-0.5 854,-30.5 1003,-30.5 1003,-0.5 854,-0.5"/>
<text text-anchor="start" x="862" y="-18.5" font-family="Helvetica,sans-Serif" font-size="10.00">Graphics::Shader::SetProjector</text>
<text text-anchor="middle" x="928.5" y="-7.5" font-family="Helvetica,sans-Serif" font-size="10.00">Matrix</text>
</a>
</g>
</g>
<!-- Node1&#45;&gt;Node13 -->
<g id="edge13" class="edge">
<title>Node1&#45;&gt;Node13</title>
<path fill="none" stroke="midnightblue" d="M1028.58,-29.91C1020.22,-28.7 1011.62,-27.44 1003.15,-26.21"/>
<polygon fill="midnightblue" stroke="midnightblue" points="1028.24,-33.4 1038.64,-31.37 1029.25,-26.47 1028.24,-33.4"/>
</g>
<!-- Node3 -->
<g id="node3" class="node">
<title>Node3</title>
<g id="a_node3"><a xlink:href="class_graphics_1_1_image.html#af48c0e309532eb1ff36e8fdaee244da1" target="_top" xlink:title=" ">
<polygon fill="white" stroke="black" points="704,-94 704,-113 818,-113 818,-94 704,-94"/>
<text text-anchor="middle" x="761" y="-101" font-family="Helvetica,sans-Serif" font-size="10.00">Graphics::Image::Draw</text>
</a>
</g>
</g>
<!-- Node2&#45;&gt;Node3 -->
<g id="edge2" class="edge">
<title>Node2&#45;&gt;Node3</title>
<path fill="none" stroke="midnightblue" d="M863.39,-79.61C842.87,-84.44 820.73,-89.66 802.4,-93.98"/>
<polygon fill="midnightblue" stroke="midnightblue" points="864.38,-82.97 873.31,-77.27 862.77,-76.16 864.38,-82.97"/>
</g>
<!-- Node12 -->
<g id="node12" class="node">
<title>Node12</title>
<g id="a_node12"><a xlink:href="class_graphics_1_1_quadrangle.html#aaa7571e889354bb4b4326d8b497d1055" target="_top" xlink:title=" ">
<polygon fill="white" stroke="black" points="706,-44.5 706,-74.5 816,-74.5 816,-44.5 706,-44.5"/>
<text text-anchor="start" x="714" y="-62.5" font-family="Helvetica,sans-Serif" font-size="10.00">Graphics::Quadrangle</text>
<text text-anchor="middle" x="761" y="-51.5" font-family="Helvetica,sans-Serif" font-size="10.00">::Draw</text>
</a>
</g>
</g>
<!-- Node2&#45;&gt;Node12 -->
<g id="edge12" class="edge">
<title>Node2&#45;&gt;Node12</title>
<path fill="none" stroke="midnightblue" d="M863.22,-62.56C847.62,-62.09 831.1,-61.59 816.03,-61.13"/>
<polygon fill="midnightblue" stroke="midnightblue" points="863.21,-66.06 873.31,-62.86 863.42,-59.06 863.21,-66.06"/>
</g>
<!-- Node4 -->
<g id="node4" class="node">
<title>Node4</title>
<g id="a_node4"><a xlink:href="class_g_u_i_1_1_item.html#ab089785456c77b4ff16f15dc7b6bd8fa" target="_top" xlink:title=" ">
<polygon fill="white" stroke="black" points="568,-130 568,-149 654,-149 654,-130 568,-130"/>
<text text-anchor="middle" x="611" y="-137" font-family="Helvetica,sans-Serif" font-size="10.00">GUI::Item::Draw</text>
</a>
</g>
</g>
<!-- Node3&#45;&gt;Node4 -->
<g id="edge3" class="edge">
<title>Node3&#45;&gt;Node4</title>
<path fill="none" stroke="midnightblue" d="M710.85,-115.45C691.46,-120.17 669.49,-125.52 651.2,-129.97"/>
<polygon fill="midnightblue" stroke="midnightblue" points="711.84,-118.82 720.73,-113.05 710.18,-112.02 711.84,-118.82"/>
</g>
<!-- Node5 -->
<g id="node5" class="node">
<title>Node5</title>
<g id="a_node5"><a xlink:href="class_drawable.html#ac46f25a963a3fe3e9176461d61d213c7" target="_top" xlink:title=" ">
<polygon fill="white" stroke="black" points="569,-92 569,-111 653,-111 653,-92 569,-92"/>
<text text-anchor="middle" x="611" y="-99" font-family="Helvetica,sans-Serif" font-size="10.00">Drawable::Draw</text>
</a>
</g>
</g>
<!-- Node3&#45;&gt;Node5 -->
<g id="edge4" class="edge">
<title>Node3&#45;&gt;Node5</title>
<path fill="none" stroke="midnightblue" d="M693.24,-102.6C679.54,-102.41 665.5,-102.22 653.03,-102.05"/>
<polygon fill="midnightblue" stroke="midnightblue" points="693.58,-106.1 703.63,-102.74 693.67,-99.1 693.58,-106.1"/>
</g>
<!-- Node11 -->
<g id="node11" class="node">
<title>Node11</title>
<g id="a_node11"><a xlink:href="class_graphics_1_1_image.html#a90e9a33ef5f89fa71e830d967122b9e3" target="_top" xlink:title=" ">
<polygon fill="white" stroke="black" points="554,-54 554,-73 668,-73 668,-54 554,-54"/>
<text text-anchor="middle" x="611" y="-61" font-family="Helvetica,sans-Serif" font-size="10.00">Graphics::Image::Draw</text>
</a>
</g>
</g>
<!-- Node3&#45;&gt;Node11 -->
<g id="edge11" class="edge">
<title>Node3&#45;&gt;Node11</title>
<path fill="none" stroke="midnightblue" d="M714.87,-91.3C693.12,-85.42 667.43,-78.48 647.16,-73"/>
<polygon fill="midnightblue" stroke="midnightblue" points="713.98,-94.69 724.55,-93.92 715.81,-87.93 713.98,-94.69"/>
</g>
<!-- Node6 -->
<g id="node6" class="node">
<title>Node6</title>
<g id="a_node6"><a xlink:href="class_engine.html#a39f23d7f0ad86322bfdb73d4e6763005" target="_top" xlink:title=" ">
<polygon fill="white" stroke="black" points="178,-54 178,-73 251,-73 251,-54 178,-54"/>
<text text-anchor="middle" x="214.5" y="-61" font-family="Helvetica,sans-Serif" font-size="10.00">Engine::Draw</text>
</a>
</g>
</g>
<!-- Node5&#45;&gt;Node6 -->
<g id="edge5" class="edge">
<title>Node5&#45;&gt;Node6</title>
<path fill="none" stroke="midnightblue" d="M558.7,-101.65C494.69,-101.11 382.09,-97.77 287,-82.5 273.3,-80.3 258.44,-76.58 245.83,-73"/>
<polygon fill="midnightblue" stroke="midnightblue" points="558.9,-105.15 568.92,-101.71 558.95,-98.15 558.9,-105.15"/>
</g>
<!-- Node9 -->
<g id="node9" class="node">
<title>Node9</title>
<g id="a_node9"><a xlink:href="class_cell.html#ac88160c4177e146f8dd7482c4eaee4f0" target="_top" xlink:title=" ">
<polygon fill="white" stroke="black" points="423,-54 423,-73 483,-73 483,-54 423,-54"/>
<text text-anchor="middle" x="453" y="-61" font-family="Helvetica,sans-Serif" font-size="10.00">Cell::Draw</text>
</a>
</g>
</g>
<!-- Node5&#45;&gt;Node9 -->
<g id="edge8" class="edge">
<title>Node5&#45;&gt;Node9</title>
<path fill="none" stroke="midnightblue" d="M560.74,-89.5C535.16,-83.27 504.8,-75.87 483.01,-70.57"/>
<polygon fill="midnightblue" stroke="midnightblue" points="560.09,-92.94 570.63,-91.91 561.75,-86.14 560.09,-92.94"/>
</g>
<!-- Node7 -->
<g id="node7" class="node">
<title>Node7</title>
<g id="a_node7"><a xlink:href="class_game.html#adb05b20574551a26f8cf1dc664782790" target="_top" xlink:title=" ">
<polygon fill="white" stroke="black" points="74,-32 74,-51 142,-51 142,-32 74,-32"/>
<text text-anchor="middle" x="108" y="-39" font-family="Helvetica,sans-Serif" font-size="10.00">Game::Start</text>
</a>
</g>
</g>
<!-- Node6&#45;&gt;Node7 -->
<g id="edge6" class="edge">
<title>Node6&#45;&gt;Node7</title>
<path fill="none" stroke="midnightblue" d="M167.82,-53.88C159.15,-52.06 150.23,-50.18 142.05,-48.46"/>
<polygon fill="midnightblue" stroke="midnightblue" points="167.32,-57.36 177.83,-55.99 168.76,-50.51 167.32,-57.36"/>
</g>
<!-- Node8 -->
<g id="node8" class="node">
<title>Node8</title>
<g id="a_node8"><a xlink:href="main_8cpp.html#ae66f6b31b5ad750f1fe042a706a4e3d4" target="_top" xlink:title=" ">
<polygon fill="white" stroke="black" points="0,-32 0,-51 38,-51 38,-32 0,-32"/>
<text text-anchor="middle" x="19" y="-39" font-family="Helvetica,sans-Serif" font-size="10.00">main</text>
</a>
</g>
</g>
<!-- Node7&#45;&gt;Node8 -->
<g id="edge7" class="edge">
<title>Node7&#45;&gt;Node8</title>
<path fill="none" stroke="midnightblue" d="M63.54,-41.5C54.55,-41.5 45.55,-41.5 38.09,-41.5"/>
<polygon fill="midnightblue" stroke="midnightblue" points="63.61,-45 73.61,-41.5 63.61,-38 63.61,-45"/>
</g>
<!-- Node10 -->
<g id="node10" class="node">
<title>Node10</title>
<g id="a_node10"><a xlink:href="class_field.html#ad13d86066be42a2e10fcb9cbcc51fb0b" target="_top" xlink:title=" ">
<polygon fill="white" stroke="black" points="287,-54 287,-73 352,-73 352,-54 287,-54"/>
<text text-anchor="middle" x="319.5" y="-61" font-family="Helvetica,sans-Serif" font-size="10.00">Field::Draw</text>
</a>
</g>
</g>
<!-- Node9&#45;&gt;Node10 -->
<g id="edge9" class="edge">
<title>Node9&#45;&gt;Node10</title>
<path fill="none" stroke="midnightblue" d="M412.55,-63.5C393.31,-63.5 370.48,-63.5 352.36,-63.5"/>
<polygon fill="midnightblue" stroke="midnightblue" points="412.82,-67 422.82,-63.5 412.82,-60 412.82,-67"/>
</g>
<!-- Node10&#45;&gt;Node6 -->
<g id="edge10" class="edge">
<title>Node10&#45;&gt;Node6</title>
<path fill="none" stroke="midnightblue" d="M276.71,-63.5C268.28,-63.5 259.48,-63.5 251.27,-63.5"/>
<polygon fill="midnightblue" stroke="midnightblue" points="276.76,-67 286.76,-63.5 276.76,-60 276.76,-67"/>
</g>
<!-- Node14 -->
<g id="node14" class="node">
<title>Node14</title>
<g id="a_node14"><a xlink:href="namespace_graphics_1_1_resource_parser.html#a6a538c07babc9bbaf884e0aeb9654fe0" target="_top" xlink:title=" ">
<polygon fill="white" stroke="black" points="388,-3.5 388,-33.5 518,-33.5 518,-3.5 388,-3.5"/>
<text text-anchor="start" x="396" y="-21.5" font-family="Helvetica,sans-Serif" font-size="10.00">Graphics::ResourceParser</text>
<text text-anchor="middle" x="453" y="-10.5" font-family="Helvetica,sans-Serif" font-size="10.00">::LoadResources</text>
</a>
</g>
</g>
<!-- Node13&#45;&gt;Node14 -->
<g id="edge14" class="edge">
<title>Node13&#45;&gt;Node14</title>
<path fill="none" stroke="midnightblue" d="M843.54,-16.03C750.43,-16.62 602.28,-17.56 518.06,-18.09"/>
<polygon fill="midnightblue" stroke="midnightblue" points="843.8,-19.53 853.78,-15.97 843.75,-12.53 843.8,-19.53"/>
</g>
<!-- Node14&#45;&gt;Node7 -->
<g id="edge15" class="edge">
<title>Node14&#45;&gt;Node7</title>
<path fill="none" stroke="midnightblue" d="M377.81,-23.47C304.66,-28.38 196.21,-35.65 142.15,-39.28"/>
<polygon fill="midnightblue" stroke="midnightblue" points="378.14,-26.96 387.89,-22.8 377.67,-19.98 378.14,-26.96"/>
</g>
</g>
</svg>
