<?xml version="1.0" encoding="UTF-8" standalone="no"?>
<!DOCTYPE svg PUBLIC "-//W3C//DTD SVG 1.1//EN"
 "http://www.w3.org/Graphics/SVG/1.1/DTD/svg11.dtd">
<!-- Generated by graphviz version 2.47.1 (20210421.1823)
 -->
<!-- Title: Engine::GetPlayer Pages: 1 -->
<svg width="399pt" height="142pt"
 viewBox="0.00 0.00 399.00 142.00" xmlns="http://www.w3.org/2000/svg" xmlns:xlink="http://www.w3.org/1999/xlink">
<g id="graph0" class="graph" transform="scale(1 1) rotate(0) translate(4 138)">
<title>Engine::GetPlayer</title>
<polygon fill="white" stroke="transparent" points="-4,4 -4,-138 395,-138 395,4 -4,4"/>
<!-- Node1 -->
<g id="node1" class="node">
<title>Node1</title>
<g id="a_node1"><a xlink:title=" ">
<polygon fill="#bfbfbf" stroke="black" points="298,-57.5 298,-76.5 391,-76.5 391,-57.5 298,-57.5"/>
<text text-anchor="middle" x="344.5" y="-64.5" font-family="Helvetica,sans-Serif" font-size="10.00">Engine::GetPlayer</text>
</a>
</g>
</g>
<!-- Node2 -->
<g id="node2" class="node">
<title>Node2</title>
<g id="a_node2"><a xlink:href="class_engine.html#a39f23d7f0ad86322bfdb73d4e6763005" target="_top" xlink:title=" ">
<polygon fill="white" stroke="black" points="183.5,-114.5 183.5,-133.5 256.5,-133.5 256.5,-114.5 183.5,-114.5"/>
<text text-anchor="middle" x="220" y="-121.5" font-family="Helvetica,sans-Serif" font-size="10.00">Engine::Draw</text>
</a>
</g>
</g>
<!-- Node1&#45;&gt;Node2 -->
<g id="edge1" class="edge">
<title>Node1&#45;&gt;Node2</title>
<path fill="none" stroke="midnightblue" d="M313.98,-80.78C298.51,-88 279.23,-96.99 262,-105 255.45,-108.04 248.32,-111.35 241.86,-114.34"/>
<polygon fill="midnightblue" stroke="midnightblue" points="315.49,-83.94 323.07,-76.54 312.53,-77.6 315.49,-83.94"/>
</g>
<!-- Node5 -->
<g id="node5" class="node">
<title>Node5</title>
<g id="a_node5"><a xlink:href="class_engine.html#a06d3e75a7f768f0d48746aea00483724" target="_top" xlink:title=" ">
<polygon fill="white" stroke="black" points="185.5,-76.5 185.5,-95.5 254.5,-95.5 254.5,-76.5 185.5,-76.5"/>
<text text-anchor="middle" x="220" y="-83.5" font-family="Helvetica,sans-Serif" font-size="10.00">Engine::Tick</text>
</a>
</g>
</g>
<!-- Node1&#45;&gt;Node5 -->
<g id="edge4" class="edge">
<title>Node1&#45;&gt;Node5</title>
<path fill="none" stroke="midnightblue" d="M287.68,-75.66C276.45,-77.4 264.98,-79.18 254.78,-80.76"/>
<polygon fill="midnightblue" stroke="midnightblue" points="288.54,-79.07 297.89,-74.07 287.47,-72.15 288.54,-79.07"/>
</g>
<!-- Node6 -->
<g id="node6" class="node">
<title>Node6</title>
<g id="a_node6"><a xlink:href="class_unit.html#a764442e3620b9af8882d8050d8a08afe" target="_top" xlink:title=" ">
<polygon fill="white" stroke="black" points="191,-38.5 191,-57.5 249,-57.5 249,-38.5 191,-38.5"/>
<text text-anchor="middle" x="220" y="-45.5" font-family="Helvetica,sans-Serif" font-size="10.00">Unit::Tick</text>
</a>
</g>
</g>
<!-- Node1&#45;&gt;Node6 -->
<g id="edge6" class="edge">
<title>Node1&#45;&gt;Node6</title>
<path fill="none" stroke="midnightblue" d="M287.78,-58.36C274.43,-56.29 260.72,-54.16 249.22,-52.38"/>
<polygon fill="midnightblue" stroke="midnightblue" points="287.47,-61.85 297.89,-59.93 288.54,-54.93 287.47,-61.85"/>
</g>
<!-- Node7 -->
<g id="node7" class="node">
<title>Node7</title>
<g id="a_node7"><a xlink:href="class_unit_group.html#a49ae050d0c9fb676cbff630d18d29b20" target="_top" xlink:title=" ">
<polygon fill="white" stroke="black" points="178,-0.5 178,-19.5 262,-19.5 262,-0.5 178,-0.5"/>
<text text-anchor="middle" x="220" y="-7.5" font-family="Helvetica,sans-Serif" font-size="10.00">UnitGroup::Tick</text>
</a>
</g>
</g>
<!-- Node1&#45;&gt;Node7 -->
<g id="edge7" class="edge">
<title>Node1&#45;&gt;Node7</title>
<path fill="none" stroke="midnightblue" d="M313.98,-53.22C298.51,-46 279.23,-37.01 262,-29 255.45,-25.96 248.32,-22.65 241.86,-19.66"/>
<polygon fill="midnightblue" stroke="midnightblue" points="312.53,-56.4 323.07,-57.46 315.49,-50.06 312.53,-56.4"/>
</g>
<!-- Node3 -->
<g id="node3" class="node">
<title>Node3</title>
<g id="a_node3"><a xlink:href="class_game.html#adb05b20574551a26f8cf1dc664782790" target="_top" xlink:title=" ">
<polygon fill="white" stroke="black" points="74,-95.5 74,-114.5 142,-114.5 142,-95.5 74,-95.5"/>
<text text-anchor="middle" x="108" y="-102.5" font-family="Helvetica,sans-Serif" font-size="10.00">Game::Start</text>
</a>
</g>
</g>
<!-- Node2&#45;&gt;Node3 -->
<g id="edge2" class="edge">
<title>Node2&#45;&gt;Node3</title>
<path fill="none" stroke="midnightblue" d="M173.15,-116.08C162.8,-114.29 152.01,-112.43 142.3,-110.75"/>
<polygon fill="midnightblue" stroke="midnightblue" points="172.84,-119.58 183.29,-117.83 174.03,-112.68 172.84,-119.58"/>
</g>
<!-- Node4 -->
<g id="node4" class="node">
<title>Node4</title>
<g id="a_node4"><a xlink:href="main_8cpp.html#ae66f6b31b5ad750f1fe042a706a4e3d4" target="_top" xlink:title=" ">
<polygon fill="white" stroke="black" points="0,-95.5 0,-114.5 38,-114.5 38,-95.5 0,-95.5"/>
<text text-anchor="middle" x="19" y="-102.5" font-family="Helvetica,sans-Serif" font-size="10.00">main</text>
</a>
</g>
</g>
<!-- Node3&#45;&gt;Node4 -->
<g id="edge3" class="edge">
<title>Node3&#45;&gt;Node4</title>
<path fill="none" stroke="midnightblue" d="M63.54,-105C54.55,-105 45.55,-105 38.09,-105"/>
<polygon fill="midnightblue" stroke="midnightblue" points="63.61,-108.5 73.61,-105 63.61,-101.5 63.61,-108.5"/>
</g>
<!-- Node5&#45;&gt;Node3 -->
<g id="edge5" class="edge">
<title>Node5&#45;&gt;Node3</title>
<path fill="none" stroke="midnightblue" d="M175.42,-93.53C164.29,-95.45 152.52,-97.48 142.02,-99.3"/>
<polygon fill="midnightblue" stroke="midnightblue" points="176.14,-96.95 185.4,-91.8 174.95,-90.06 176.14,-96.95"/>
</g>
</g>
</svg>
