<?xml version="1.0" encoding="UTF-8" standalone="no"?>
<!DOCTYPE svg PUBLIC "-//W3C//DTD SVG 1.1//EN"
 "http://www.w3.org/Graphics/SVG/1.1/DTD/svg11.dtd">
<!-- Generated by graphviz version 2.47.0 (20210407.0042)
 -->
<!-- Title: Graphics::GShape::Draw Pages: 1 -->
<svg width="288pt" height="176pt"
 viewBox="0.00 0.00 288.00 175.50" xmlns="http://www.w3.org/2000/svg" xmlns:xlink="http://www.w3.org/1999/xlink">
<g id="graph0" class="graph" transform="scale(1 1) rotate(0) translate(4 171.5)">
<title>Graphics::GShape::Draw</title>
<polygon fill="white" stroke="transparent" points="-4,4 -4,-171.5 284,-171.5 284,4 -4,4"/>
<!-- Node1 -->
<g id="node1" class="node">
<title>Node1</title>
<g id="a_node1"><a xlink:title=" ">
<polygon fill="#bfbfbf" stroke="black" points="0,-79 0,-98 122,-98 122,-79 0,-79"/>
<text text-anchor="middle" x="61" y="-86" font-family="Helvetica,sans-Serif" font-size="10.00">Graphics::GShape::Draw</text>
</a>
</g>
</g>
<!-- Node2 -->
<g id="node2" class="node">
<title>Node2</title>
<g id="a_node2"><a xlink:href="class_graphics_1_1_g_shape.html#a9eb843ec849f23580a691b1e864fa238" target="_top" xlink:title=" ">
<polygon fill="white" stroke="black" points="158,-148 158,-167 280,-167 280,-148 158,-148"/>
<text text-anchor="middle" x="219" y="-155" font-family="Helvetica,sans-Serif" font-size="10.00">Graphics::GShape::Draw</text>
</a>
</g>
</g>
<!-- Node1&#45;&gt;Node2 -->
<g id="edge1" class="edge">
<title>Node1&#45;&gt;Node2</title>
<path fill="none" stroke="midnightblue" d="M78.23,-98.07C96.99,-108.86 129.02,-126.47 158,-138.5 163.37,-140.73 169.09,-142.85 174.8,-144.81"/>
<polygon fill="midnightblue" stroke="midnightblue" points="173.71,-148.14 184.31,-147.96 175.91,-141.5 173.71,-148.14"/>
</g>
<!-- Node3 -->
<g id="node3" class="node">
<title>Node3</title>
<g id="a_node3"><a xlink:href="class_graphics_1_1_transform.html#a7796be5a06b51d8319548f8cdfca6ff7" target="_top" xlink:title=" ">
<polygon fill="white" stroke="black" points="167,-98.5 167,-128.5 271,-128.5 271,-98.5 167,-98.5"/>
<text text-anchor="start" x="175" y="-116.5" font-family="Helvetica,sans-Serif" font-size="10.00">Graphics::Transform</text>
<text text-anchor="middle" x="219" y="-105.5" font-family="Helvetica,sans-Serif" font-size="10.00">::Move</text>
</a>
</g>
</g>
<!-- Node1&#45;&gt;Node3 -->
<g id="edge2" class="edge">
<title>Node1&#45;&gt;Node3</title>
<path fill="none" stroke="midnightblue" d="M121.42,-98.02C133.01,-99.88 145.18,-101.83 156.82,-103.7"/>
<polygon fill="midnightblue" stroke="midnightblue" points="156.46,-107.18 166.89,-105.31 157.57,-100.27 156.46,-107.18"/>
</g>
<!-- Node4 -->
<g id="node4" class="node">
<title>Node4</title>
<g id="a_node4"><a xlink:href="class_graphics_1_1_transform.html#af2c7b869c8803ba0f2f1ecf9f0a5ca37" target="_top" xlink:title=" ">
<polygon fill="white" stroke="black" points="167,-49.5 167,-79.5 271,-79.5 271,-49.5 167,-49.5"/>
<text text-anchor="start" x="175" y="-67.5" font-family="Helvetica,sans-Serif" font-size="10.00">Graphics::Transform</text>
<text text-anchor="middle" x="219" y="-56.5" font-family="Helvetica,sans-Serif" font-size="10.00">::Rotate</text>
</a>
</g>
</g>
<!-- Node1&#45;&gt;Node4 -->
<g id="edge3" class="edge">
<title>Node1&#45;&gt;Node4</title>
<path fill="none" stroke="midnightblue" d="M122.31,-79.22C133.6,-77.48 145.42,-75.67 156.74,-73.93"/>
<polygon fill="midnightblue" stroke="midnightblue" points="157.61,-77.33 166.96,-72.35 156.55,-70.41 157.61,-77.33"/>
</g>
<!-- Node5 -->
<g id="node5" class="node">
<title>Node5</title>
<g id="a_node5"><a xlink:href="class_graphics_1_1_transform.html#a2811e9ce17dcf86f36a7a38ec444ec0f" target="_top" xlink:title=" ">
<polygon fill="white" stroke="black" points="167,-0.5 167,-30.5 271,-30.5 271,-0.5 167,-0.5"/>
<text text-anchor="start" x="175" y="-18.5" font-family="Helvetica,sans-Serif" font-size="10.00">Graphics::Transform</text>
<text text-anchor="middle" x="219" y="-7.5" font-family="Helvetica,sans-Serif" font-size="10.00">::Scale</text>
</a>
</g>
</g>
<!-- Node1&#45;&gt;Node5 -->
<g id="edge4" class="edge">
<title>Node1&#45;&gt;Node5</title>
<path fill="none" stroke="midnightblue" d="M80.22,-78.92C99.4,-68.95 130.55,-53.06 158,-40.5 162.33,-38.52 166.85,-36.51 171.4,-34.55"/>
<polygon fill="midnightblue" stroke="midnightblue" points="172.88,-37.72 180.7,-30.57 170.13,-31.28 172.88,-37.72"/>
</g>
</g>
</svg>
