<?xml version="1.0" encoding="UTF-8" standalone="no"?>
<!DOCTYPE svg PUBLIC "-//W3C//DTD SVG 1.1//EN"
 "http://www.w3.org/Graphics/SVG/1.1/DTD/svg11.dtd">
<!-- Generated by graphviz version 2.47.0 (20210407.0042)
 -->
<!-- Title: Unit Pages: 1 -->
<svg width="288pt" height="574pt"
 viewBox="0.00 0.00 288.00 574.00" xmlns="http://www.w3.org/2000/svg" xmlns:xlink="http://www.w3.org/1999/xlink">
<g id="graph0" class="graph" transform="scale(1 1) rotate(0) translate(4 570)">
<title>Unit</title>
<polygon fill="white" stroke="transparent" points="-4,4 -4,-570 284,-570 284,4 -4,4"/>
<!-- Node1 -->
<g id="node1" class="node">
<title>Node1</title>
<g id="a_node1"><a xlink:title=" ">
<polygon fill="#bfbfbf" stroke="black" points="0,-0.5 0,-112.5 115,-112.5 115,-0.5 0,-0.5"/>
<text text-anchor="middle" x="57.5" y="-100.5" font-family="Helvetica,sans-Serif" font-size="10.00">Unit</text>
<polyline fill="none" stroke="black" points="0,-93.5 115,-93.5 "/>
<text text-anchor="middle" x="57.5" y="-81.5" font-family="Helvetica,sans-Serif" font-size="10.00"> </text>
<polyline fill="none" stroke="black" points="0,-74.5 115,-74.5 "/>
<text text-anchor="start" x="8" y="-62.5" font-family="Helvetica,sans-Serif" font-size="10.00">+ Unit()</text>
<text text-anchor="start" x="8" y="-51.5" font-family="Helvetica,sans-Serif" font-size="10.00">+ Tick()</text>
<text text-anchor="start" x="8" y="-40.5" font-family="Helvetica,sans-Serif" font-size="10.00">+ IncSpeedRandomly()</text>
<text text-anchor="start" x="8" y="-29.5" font-family="Helvetica,sans-Serif" font-size="10.00">+ GetRandomize()</text>
<text text-anchor="start" x="8" y="-18.5" font-family="Helvetica,sans-Serif" font-size="10.00">+ GetPower()</text>
<text text-anchor="start" x="8" y="-7.5" font-family="Helvetica,sans-Serif" font-size="10.00">+ GetLife()</text>
</a>
</g>
</g>
<!-- Node2 -->
<g id="node2" class="node">
<title>Node2</title>
<g id="a_node2"><a xlink:href="class_drawable.html" target="_top" xlink:title=" ">
<polygon fill="white" stroke="black" points="7,-167 7,-279 84,-279 84,-167 7,-167"/>
<text text-anchor="middle" x="45.5" y="-267" font-family="Helvetica,sans-Serif" font-size="10.00">Drawable</text>
<polyline fill="none" stroke="black" points="7,-260 84,-260 "/>
<text text-anchor="middle" x="45.5" y="-248" font-family="Helvetica,sans-Serif" font-size="10.00"> </text>
<polyline fill="none" stroke="black" points="7,-241 84,-241 "/>
<text text-anchor="start" x="15" y="-229" font-family="Helvetica,sans-Serif" font-size="10.00">+ Drawable()</text>
<text text-anchor="start" x="15" y="-218" font-family="Helvetica,sans-Serif" font-size="10.00">+ Drawable()</text>
<text text-anchor="start" x="15" y="-207" font-family="Helvetica,sans-Serif" font-size="10.00">+ Draw()</text>
<text text-anchor="start" x="15" y="-196" font-family="Helvetica,sans-Serif" font-size="10.00">+ ~Drawable()</text>
<text text-anchor="start" x="15" y="-185" font-family="Helvetica,sans-Serif" font-size="10.00">+ GetImg()</text>
<text text-anchor="start" x="15" y="-174" font-family="Helvetica,sans-Serif" font-size="10.00">+ SetImage()</text>
</a>
</g>
</g>
<!-- Node2&#45;&gt;Node1 -->
<g id="edge1" class="edge">
<title>Node2&#45;&gt;Node1</title>
<path fill="none" stroke="midnightblue" d="M50.26,-156.78C51.33,-142.15 52.45,-126.76 53.48,-112.59"/>
<polygon fill="none" stroke="midnightblue" points="46.77,-156.54 49.53,-166.77 53.75,-157.05 46.77,-156.54"/>
</g>
<!-- Node3 -->
<g id="node3" class="node">
<title>Node3</title>
<g id="a_node3"><a xlink:href="class_world_actor.html" target="_top" xlink:title=" ">
<polygon fill="white" stroke="black" points="102,-150.5 102,-295.5 181,-295.5 181,-150.5 102,-150.5"/>
<text text-anchor="middle" x="141.5" y="-283.5" font-family="Helvetica,sans-Serif" font-size="10.00">WorldActor</text>
<polyline fill="none" stroke="black" points="102,-276.5 181,-276.5 "/>
<text text-anchor="start" x="110" y="-264.5" font-family="Helvetica,sans-Serif" font-size="10.00"># fly_</text>
<text text-anchor="start" x="110" y="-253.5" font-family="Helvetica,sans-Serif" font-size="10.00"># rooted_</text>
<polyline fill="none" stroke="black" points="102,-246.5 181,-246.5 "/>
<text text-anchor="start" x="110" y="-234.5" font-family="Helvetica,sans-Serif" font-size="10.00">+ WorldActor()</text>
<text text-anchor="start" x="110" y="-223.5" font-family="Helvetica,sans-Serif" font-size="10.00">+ Move()</text>
<text text-anchor="start" x="110" y="-212.5" font-family="Helvetica,sans-Serif" font-size="10.00">+ Tick()</text>
<text text-anchor="start" x="110" y="-201.5" font-family="Helvetica,sans-Serif" font-size="10.00">+ IncSpeed()</text>
<text text-anchor="start" x="110" y="-190.5" font-family="Helvetica,sans-Serif" font-size="10.00">+ SetSpeed()</text>
<text text-anchor="start" x="110" y="-179.5" font-family="Helvetica,sans-Serif" font-size="10.00">+ GetX()</text>
<text text-anchor="start" x="110" y="-168.5" font-family="Helvetica,sans-Serif" font-size="10.00">+ GetY()</text>
<text text-anchor="start" x="110" y="-157.5" font-family="Helvetica,sans-Serif" font-size="10.00">+ Distance()</text>
</a>
</g>
</g>
<!-- Node3&#45;&gt;Node1 -->
<g id="edge2" class="edge">
<title>Node3&#45;&gt;Node1</title>
<path fill="none" stroke="midnightblue" d="M100.34,-141.4C95.36,-131.65 90.37,-121.87 85.64,-112.61"/>
<polygon fill="none" stroke="midnightblue" points="97.24,-143.01 104.9,-150.33 103.47,-139.83 97.24,-143.01"/>
</g>
<!-- Node4 -->
<g id="node4" class="node">
<title>Node4</title>
<g id="a_node4"><a xlink:href="class_tickable.html" target="_top" xlink:title=" ">
<polygon fill="white" stroke="black" points="31,-431.5 31,-488.5 84,-488.5 84,-431.5 31,-431.5"/>
<text text-anchor="middle" x="57.5" y="-476.5" font-family="Helvetica,sans-Serif" font-size="10.00">Tickable</text>
<polyline fill="none" stroke="black" points="31,-469.5 84,-469.5 "/>
<text text-anchor="middle" x="57.5" y="-457.5" font-family="Helvetica,sans-Serif" font-size="10.00"> </text>
<polyline fill="none" stroke="black" points="31,-450.5 84,-450.5 "/>
<text text-anchor="start" x="39" y="-438.5" font-family="Helvetica,sans-Serif" font-size="10.00">+ Tick()</text>
</a>
</g>
</g>
<!-- Node4&#45;&gt;Node3 -->
<g id="edge3" class="edge">
<title>Node4&#45;&gt;Node3</title>
<path fill="none" stroke="#8b1a1a" d="M70.09,-421.6C76.9,-401.52 85.54,-376.36 93.5,-354 100.24,-335.07 107.69,-314.66 114.67,-295.75"/>
<polygon fill="none" stroke="#8b1a1a" points="66.69,-420.71 66.8,-431.3 73.32,-422.96 66.69,-420.71"/>
</g>
<!-- Node5 -->
<g id="node5" class="node">
<title>Node5</title>
<g id="a_node5"><a xlink:href="struct_vector2_d.html" target="_top" xlink:title=" ">
<polygon fill="white" stroke="black" points="102.5,-354.5 102.5,-565.5 180.5,-565.5 180.5,-354.5 102.5,-354.5"/>
<text text-anchor="middle" x="141.5" y="-553.5" font-family="Helvetica,sans-Serif" font-size="10.00">Vector2D</text>
<polyline fill="none" stroke="black" points="102.5,-546.5 180.5,-546.5 "/>
<text text-anchor="start" x="110.5" y="-534.5" font-family="Helvetica,sans-Serif" font-size="10.00">+ x</text>
<text text-anchor="start" x="110.5" y="-523.5" font-family="Helvetica,sans-Serif" font-size="10.00">+ y</text>
<polyline fill="none" stroke="black" points="102.5,-516.5 180.5,-516.5 "/>
<text text-anchor="start" x="110.5" y="-504.5" font-family="Helvetica,sans-Serif" font-size="10.00">+ Vector2D()</text>
<text text-anchor="start" x="110.5" y="-493.5" font-family="Helvetica,sans-Serif" font-size="10.00">+ Vector2D()</text>
<text text-anchor="start" x="110.5" y="-482.5" font-family="Helvetica,sans-Serif" font-size="10.00">+ Vector2D()</text>
<text text-anchor="start" x="110.5" y="-471.5" font-family="Helvetica,sans-Serif" font-size="10.00">+ operator=()</text>
<text text-anchor="start" x="110.5" y="-460.5" font-family="Helvetica,sans-Serif" font-size="10.00">+ operator&#45;()</text>
<text text-anchor="start" x="110.5" y="-449.5" font-family="Helvetica,sans-Serif" font-size="10.00">+ operator+=()</text>
<text text-anchor="start" x="110.5" y="-438.5" font-family="Helvetica,sans-Serif" font-size="10.00">+ operator+()</text>
<text text-anchor="start" x="110.5" y="-427.5" font-family="Helvetica,sans-Serif" font-size="10.00">+ operator&#45;=()</text>
<text text-anchor="start" x="110.5" y="-416.5" font-family="Helvetica,sans-Serif" font-size="10.00">+ operator&#45;()</text>
<text text-anchor="start" x="110.5" y="-405.5" font-family="Helvetica,sans-Serif" font-size="10.00">+ operator*=()</text>
<text text-anchor="start" x="110.5" y="-394.5" font-family="Helvetica,sans-Serif" font-size="10.00">+ operator*()</text>
<text text-anchor="start" x="110.5" y="-383.5" font-family="Helvetica,sans-Serif" font-size="10.00">+ operator/=()</text>
<text text-anchor="start" x="110.5" y="-372.5" font-family="Helvetica,sans-Serif" font-size="10.00">+ operator/()</text>
<text text-anchor="start" x="110.5" y="-361.5" font-family="Helvetica,sans-Serif" font-size="10.00">+ dist()</text>
</a>
</g>
</g>
<!-- Node5&#45;&gt;Node3 -->
<g id="edge4" class="edge">
<title>Node5&#45;&gt;Node3</title>
<path fill="none" stroke="#404040" d="M141.5,-354.21C141.5,-338.72 141.5,-322.93 141.5,-307.94"/>
<polygon fill="none" stroke="#404040" points="141.5,-307.56 137.5,-301.56 141.5,-295.56 145.5,-301.56 141.5,-307.56"/>
<text text-anchor="middle" x="165" y="-328" font-family="Helvetica,sans-Serif" font-size="10.00"> #position_</text>
<text text-anchor="middle" x="165" y="-317" font-family="Helvetica,sans-Serif" font-size="10.00">#speed_</text>
</g>
<!-- Node6 -->
<g id="node6" class="node">
<title>Node6</title>
<g id="a_node6"><a xlink:href="class_field.html" target="_top" xlink:title=" ">
<polygon fill="white" stroke="black" points="199,-376.5 199,-543.5 280,-543.5 280,-376.5 199,-376.5"/>
<text text-anchor="middle" x="239.5" y="-531.5" font-family="Helvetica,sans-Serif" font-size="10.00">Field</text>
<polyline fill="none" stroke="black" points="199,-524.5 280,-524.5 "/>
<text text-anchor="middle" x="239.5" y="-512.5" font-family="Helvetica,sans-Serif" font-size="10.00"> </text>
<polyline fill="none" stroke="black" points="199,-505.5 280,-505.5 "/>
<text text-anchor="start" x="207" y="-493.5" font-family="Helvetica,sans-Serif" font-size="10.00">+ GetWidth()</text>
<text text-anchor="start" x="207" y="-482.5" font-family="Helvetica,sans-Serif" font-size="10.00">+ GetHeight()</text>
<text text-anchor="start" x="207" y="-471.5" font-family="Helvetica,sans-Serif" font-size="10.00">+ Field()</text>
<text text-anchor="start" x="207" y="-460.5" font-family="Helvetica,sans-Serif" font-size="10.00">+ Field()</text>
<text text-anchor="start" x="207" y="-449.5" font-family="Helvetica,sans-Serif" font-size="10.00">+ operator[]()</text>
<text text-anchor="start" x="207" y="-438.5" font-family="Helvetica,sans-Serif" font-size="10.00">+ operator[]()</text>
<text text-anchor="start" x="207" y="-427.5" font-family="Helvetica,sans-Serif" font-size="10.00">+ GetCell()</text>
<text text-anchor="start" x="207" y="-416.5" font-family="Helvetica,sans-Serif" font-size="10.00">+ GetBuilding()</text>
<text text-anchor="start" x="207" y="-405.5" font-family="Helvetica,sans-Serif" font-size="10.00">+ Draw()</text>
<text text-anchor="start" x="207" y="-394.5" font-family="Helvetica,sans-Serif" font-size="10.00">+ Tick()</text>
<text text-anchor="start" x="207" y="-383.5" font-family="Helvetica,sans-Serif" font-size="10.00">+ GetCellPos()</text>
</a>
</g>
</g>
<!-- Node6&#45;&gt;Node3 -->
<g id="edge5" class="edge">
<title>Node6&#45;&gt;Node3</title>
<path fill="none" stroke="#404040" d="M215.86,-376.25C209.1,-355.61 201.19,-333.74 192.5,-314 190.69,-309.9 188.76,-305.74 186.73,-301.57"/>
<polygon fill="none" stroke="#404040" points="186.58,-301.28 180.31,-297.72 181.18,-290.56 187.45,-294.12 186.58,-301.28"/>
<text text-anchor="middle" x="215" y="-322.5" font-family="Helvetica,sans-Serif" font-size="10.00"> #field_</text>
</g>
</g>
</svg>
