<?xml version="1.0" encoding="UTF-8" standalone="no"?>
<!DOCTYPE svg PUBLIC "-//W3C//DTD SVG 1.1//EN"
 "http://www.w3.org/Graphics/SVG/1.1/DTD/svg11.dtd">
<!-- Generated by graphviz version 2.47.0 (20210407.0042)
 -->
<!-- Title: Field::Draw Pages: 1 -->
<svg width="839pt" height="309pt"
 viewBox="0.00 0.00 839.00 308.50" xmlns="http://www.w3.org/2000/svg" xmlns:xlink="http://www.w3.org/1999/xlink">
<g id="graph0" class="graph" transform="scale(1 1) rotate(0) translate(4 304.5)">
<title>Field::Draw</title>
<polygon fill="white" stroke="transparent" points="-4,4 -4,-304.5 835,-304.5 835,4 -4,4"/>
<!-- Node1 -->
<g id="node1" class="node">
<title>Node1</title>
<g id="a_node1"><a xlink:title=" ">
<polygon fill="#bfbfbf" stroke="black" points="0,-69 0,-88 65,-88 65,-69 0,-69"/>
<text text-anchor="middle" x="32.5" y="-76" font-family="Helvetica,sans-Serif" font-size="10.00">Field::Draw</text>
</a>
</g>
</g>
<!-- Node2 -->
<g id="node2" class="node">
<title>Node2</title>
<g id="a_node2"><a xlink:href="class_cell.html#a068da58be93f0b7d2dc6b3396ca8b8cd" target="_top" xlink:title=" ">
<polygon fill="white" stroke="black" points="138,-128 138,-147 198,-147 198,-128 138,-128"/>
<text text-anchor="middle" x="168" y="-135" font-family="Helvetica,sans-Serif" font-size="10.00">Cell::Draw</text>
</a>
</g>
</g>
<!-- Node1&#45;&gt;Node2 -->
<g id="edge1" class="edge">
<title>Node1&#45;&gt;Node2</title>
<path fill="none" stroke="midnightblue" d="M51.94,-88.01C65.4,-94.83 84.17,-104.08 101,-111.5 110.99,-115.9 121.98,-120.37 132.08,-124.34"/>
<polygon fill="midnightblue" stroke="midnightblue" points="130.83,-127.61 141.42,-127.97 133.36,-121.08 130.83,-127.61"/>
</g>
<!-- Node12 -->
<g id="node12" class="node">
<title>Node12</title>
<g id="a_node12"><a xlink:href="class_graphics_1_1_resource_manager.html#a2bf0311bf4f8431618eb13706a26a5f1" target="_top" xlink:title=" ">
<polygon fill="white" stroke="black" points="391,-76.5 391,-106.5 530,-106.5 530,-76.5 391,-76.5"/>
<text text-anchor="start" x="399" y="-94.5" font-family="Helvetica,sans-Serif" font-size="10.00">Graphics::ResourceManager</text>
<text text-anchor="middle" x="460.5" y="-83.5" font-family="Helvetica,sans-Serif" font-size="10.00">::GetWindow</text>
</a>
</g>
</g>
<!-- Node1&#45;&gt;Node12 -->
<g id="edge14" class="edge">
<title>Node1&#45;&gt;Node12</title>
<path fill="none" stroke="midnightblue" d="M65.17,-79.47C131.31,-81.48 285.81,-86.2 380.59,-89.09"/>
<polygon fill="midnightblue" stroke="midnightblue" points="380.61,-92.59 390.71,-89.4 380.82,-85.6 380.61,-92.59"/>
</g>
<!-- Node13 -->
<g id="node13" class="node">
<title>Node13</title>
<g id="a_node13"><a xlink:href="class_field.html#abbe1a428501a04475979b292b5ad404b" target="_top" xlink:title=" ">
<polygon fill="white" stroke="black" points="122,-50 122,-69 214,-69 214,-50 122,-50"/>
<text text-anchor="middle" x="168" y="-57" font-family="Helvetica,sans-Serif" font-size="10.00">Field::GetCellPos</text>
</a>
</g>
</g>
<!-- Node1&#45;&gt;Node13 -->
<g id="edge12" class="edge">
<title>Node1&#45;&gt;Node13</title>
<path fill="none" stroke="midnightblue" d="M65.14,-74C79.05,-72.02 95.81,-69.63 111.69,-67.37"/>
<polygon fill="midnightblue" stroke="midnightblue" points="112.54,-70.79 121.95,-65.91 111.55,-63.86 112.54,-70.79"/>
</g>
<!-- Node14 -->
<g id="node14" class="node">
<title>Node14</title>
<g id="a_node14"><a xlink:href="class_graphics_1_1_window.html#aa834f03ccb101a164cdfdffa773c0a53" target="_top" xlink:title=" ">
<polygon fill="white" stroke="black" points="101,-0.5 101,-30.5 235,-30.5 235,-0.5 101,-0.5"/>
<text text-anchor="start" x="109" y="-18.5" font-family="Helvetica,sans-Serif" font-size="10.00">Graphics::Window::GetSize</text>
<text text-anchor="middle" x="168" y="-7.5" font-family="Helvetica,sans-Serif" font-size="10.00">Window</text>
</a>
</g>
</g>
<!-- Node1&#45;&gt;Node14 -->
<g id="edge13" class="edge">
<title>Node1&#45;&gt;Node14</title>
<path fill="none" stroke="midnightblue" d="M48.97,-68.91C62.43,-60.78 82.61,-49.1 101,-40.5 105.42,-38.44 110.05,-36.41 114.74,-34.46"/>
<polygon fill="midnightblue" stroke="midnightblue" points="116.39,-37.56 124.36,-30.57 113.77,-31.07 116.39,-37.56"/>
</g>
<!-- Node3 -->
<g id="node3" class="node">
<title>Node3</title>
<g id="a_node3"><a xlink:href="class_drawable.html#a380dbc28ed3746ac7ac00c4844b30d08" target="_top" xlink:title=" ">
<polygon fill="white" stroke="black" points="271,-131 271,-150 355,-150 355,-131 271,-131"/>
<text text-anchor="middle" x="313" y="-138" font-family="Helvetica,sans-Serif" font-size="10.00">Drawable::Draw</text>
</a>
</g>
</g>
<!-- Node2&#45;&gt;Node3 -->
<g id="edge2" class="edge">
<title>Node2&#45;&gt;Node3</title>
<path fill="none" stroke="midnightblue" d="M198.28,-138.11C216.26,-138.49 239.78,-138.98 260.77,-139.43"/>
<polygon fill="midnightblue" stroke="midnightblue" points="260.76,-142.93 270.83,-139.64 260.91,-135.93 260.76,-142.93"/>
</g>
<!-- Node4 -->
<g id="node4" class="node">
<title>Node4</title>
<g id="a_node4"><a xlink:href="class_graphics_1_1_image.html#af48c0e309532eb1ff36e8fdaee244da1" target="_top" xlink:title=" ">
<polygon fill="white" stroke="black" points="403.5,-224 403.5,-243 517.5,-243 517.5,-224 403.5,-224"/>
<text text-anchor="middle" x="460.5" y="-231" font-family="Helvetica,sans-Serif" font-size="10.00">Graphics::Image::Draw</text>
</a>
</g>
</g>
<!-- Node3&#45;&gt;Node4 -->
<g id="edge3" class="edge">
<title>Node3&#45;&gt;Node4</title>
<path fill="none" stroke="midnightblue" d="M321.4,-150.24C333.97,-166.1 361.04,-197.42 391,-214.5 394.91,-216.73 399.09,-218.7 403.38,-220.46"/>
<polygon fill="midnightblue" stroke="midnightblue" points="402.33,-223.8 412.92,-223.95 404.74,-217.22 402.33,-223.8"/>
</g>
<!-- Node10 -->
<g id="node10" class="node">
<title>Node10</title>
<g id="a_node10"><a xlink:href="class_graphics_1_1_resource_manager.html#a712cf513dbda24deb3a7fcea7157003a" target="_top" xlink:title=" ">
<polygon fill="white" stroke="black" points="391,-174.5 391,-204.5 530,-204.5 530,-174.5 391,-174.5"/>
<text text-anchor="start" x="399" y="-192.5" font-family="Helvetica,sans-Serif" font-size="10.00">Graphics::ResourceManager</text>
<text text-anchor="middle" x="460.5" y="-181.5" font-family="Helvetica,sans-Serif" font-size="10.00">::GetImage</text>
</a>
</g>
</g>
<!-- Node3&#45;&gt;Node10 -->
<g id="edge9" class="edge">
<title>Node3&#45;&gt;Node10</title>
<path fill="none" stroke="midnightblue" d="M342.4,-150.06C360.26,-156.08 383.88,-164.03 405.23,-171.22"/>
<polygon fill="midnightblue" stroke="midnightblue" points="404.26,-174.59 414.85,-174.46 406.49,-167.95 404.26,-174.59"/>
</g>
<!-- Node11 -->
<g id="node11" class="node">
<title>Node11</title>
<g id="a_node11"><a xlink:href="class_graphics_1_1_resource_manager.html#a34d11294bd090580de46ab34f303c2ab" target="_top" xlink:title=" ">
<polygon fill="white" stroke="black" points="391,-125.5 391,-155.5 530,-155.5 530,-125.5 391,-125.5"/>
<text text-anchor="start" x="399" y="-143.5" font-family="Helvetica,sans-Serif" font-size="10.00">Graphics::ResourceManager</text>
<text text-anchor="middle" x="460.5" y="-132.5" font-family="Helvetica,sans-Serif" font-size="10.00">::GetShader</text>
</a>
</g>
</g>
<!-- Node3&#45;&gt;Node11 -->
<g id="edge10" class="edge">
<title>Node3&#45;&gt;Node11</title>
<path fill="none" stroke="midnightblue" d="M355.31,-140.5C363.28,-140.5 371.87,-140.5 380.58,-140.5"/>
<polygon fill="midnightblue" stroke="midnightblue" points="380.84,-144 390.84,-140.5 380.84,-137 380.84,-144"/>
</g>
<!-- Node3&#45;&gt;Node12 -->
<g id="edge11" class="edge">
<title>Node3&#45;&gt;Node12</title>
<path fill="none" stroke="midnightblue" d="M342.4,-130.94C360.26,-124.92 383.88,-116.97 405.23,-109.78"/>
<polygon fill="midnightblue" stroke="midnightblue" points="406.49,-113.05 414.85,-106.54 404.26,-106.41 406.49,-113.05"/>
</g>
<!-- Node5 -->
<g id="node5" class="node">
<title>Node5</title>
<g id="a_node5"><a xlink:href="class_graphics_1_1_quadrangle.html#a7a061a60b5bff19feb5fd317d06495f0" target="_top" xlink:title=" ">
<polygon fill="white" stroke="black" points="566,-240.5 566,-270.5 676,-270.5 676,-240.5 566,-240.5"/>
<text text-anchor="start" x="574" y="-258.5" font-family="Helvetica,sans-Serif" font-size="10.00">Graphics::Quadrangle</text>
<text text-anchor="middle" x="621" y="-247.5" font-family="Helvetica,sans-Serif" font-size="10.00">::Draw</text>
</a>
</g>
</g>
<!-- Node4&#45;&gt;Node5 -->
<g id="edge4" class="edge">
<title>Node4&#45;&gt;Node5</title>
<path fill="none" stroke="midnightblue" d="M517.83,-241.32C530.18,-243.03 543.36,-244.86 555.99,-246.62"/>
<polygon fill="midnightblue" stroke="midnightblue" points="555.59,-250.09 565.98,-248 556.56,-243.16 555.59,-250.09"/>
</g>
<!-- Node8 -->
<g id="node8" class="node">
<title>Node8</title>
<g id="a_node8"><a xlink:href="class_graphics_1_1_shader.html#aa5da414808337285b38565f60c3d7cbd" target="_top" xlink:title=" ">
<polygon fill="white" stroke="black" points="566,-202 566,-221 676,-221 676,-202 566,-202"/>
<text text-anchor="middle" x="621" y="-209" font-family="Helvetica,sans-Serif" font-size="10.00">Graphics::Shader::Set</text>
</a>
</g>
</g>
<!-- Node4&#45;&gt;Node8 -->
<g id="edge7" class="edge">
<title>Node4&#45;&gt;Node8</title>
<path fill="none" stroke="midnightblue" d="M517.83,-225.68C530.18,-223.97 543.36,-222.14 555.99,-220.38"/>
<polygon fill="midnightblue" stroke="midnightblue" points="556.56,-223.84 565.98,-219 555.59,-216.91 556.56,-223.84"/>
</g>
<!-- Node6 -->
<g id="node6" class="node">
<title>Node6</title>
<g id="a_node6"><a xlink:href="class_graphics_1_1_shader.html#a63bfd523754bb6b2224aa7a48c65a504" target="_top" xlink:title=" ">
<polygon fill="white" stroke="black" points="712,-281 712,-300 831,-300 831,-281 712,-281"/>
<text text-anchor="middle" x="771.5" y="-288" font-family="Helvetica,sans-Serif" font-size="10.00">Graphics::Shader::GetId</text>
</a>
</g>
</g>
<!-- Node5&#45;&gt;Node6 -->
<g id="edge5" class="edge">
<title>Node5&#45;&gt;Node6</title>
<path fill="none" stroke="midnightblue" d="M676.03,-268.23C690.31,-271.6 705.67,-275.22 719.77,-278.54"/>
<polygon fill="midnightblue" stroke="midnightblue" points="719.25,-282.02 729.78,-280.9 720.85,-275.2 719.25,-282.02"/>
</g>
<!-- Node7 -->
<g id="node7" class="node">
<title>Node7</title>
<g id="a_node7"><a xlink:href="class_graphics_1_1_shader.html#a11a2de17d1d077ec34acd4f7cd57f6b1" target="_top" xlink:title=" ">
<polygon fill="white" stroke="black" points="715,-243 715,-262 828,-262 828,-243 715,-243"/>
<text text-anchor="middle" x="771.5" y="-250" font-family="Helvetica,sans-Serif" font-size="10.00">Graphics::Shader::Use</text>
</a>
</g>
</g>
<!-- Node5&#45;&gt;Node7 -->
<g id="edge6" class="edge">
<title>Node5&#45;&gt;Node7</title>
<path fill="none" stroke="midnightblue" d="M676.03,-254.41C685.29,-254.22 695,-254.03 704.53,-253.83"/>
<polygon fill="midnightblue" stroke="midnightblue" points="704.83,-257.33 714.76,-253.63 704.69,-250.33 704.83,-257.33"/>
</g>
<!-- Node9 -->
<g id="node9" class="node">
<title>Node9</title>
<g id="a_node9"><a xlink:href="class_graphics_1_1_image.html#aab55feadb4b66e0fd78b5f54a6fadde2" target="_top" xlink:title=" ">
<polygon fill="white" stroke="black" points="713.5,-202 713.5,-221 829.5,-221 829.5,-202 713.5,-202"/>
<text text-anchor="middle" x="771.5" y="-209" font-family="Helvetica,sans-Serif" font-size="10.00">Graphics::Image::GetId</text>
</a>
</g>
</g>
<!-- Node8&#45;&gt;Node9 -->
<g id="edge8" class="edge">
<title>Node8&#45;&gt;Node9</title>
<path fill="none" stroke="midnightblue" d="M676.03,-211.5C684.83,-211.5 694.04,-211.5 703.11,-211.5"/>
<polygon fill="midnightblue" stroke="midnightblue" points="703.26,-215 713.26,-211.5 703.26,-208 703.26,-215"/>
</g>
</g>
</svg>
