<?xml version="1.0" encoding="UTF-8" standalone="no"?>
<!DOCTYPE svg PUBLIC "-//W3C//DTD SVG 1.1//EN"
 "http://www.w3.org/Graphics/SVG/1.1/DTD/svg11.dtd">
<!-- Generated by graphviz version 2.47.0 (20210407.0042)
 -->
<!-- Title: GUI::Item Pages: 1 -->
<svg width="100pt" height="193pt"
 viewBox="0.00 0.00 100.00 193.00" xmlns="http://www.w3.org/2000/svg" xmlns:xlink="http://www.w3.org/1999/xlink">
<g id="graph0" class="graph" transform="scale(1 1) rotate(0) translate(4 189)">
<title>GUI::Item</title>
<polygon fill="white" stroke="transparent" points="-4,4 -4,-189 96,-189 96,4 -4,4"/>
<!-- Node1 -->
<g id="node1" class="node">
<title>Node1</title>
<g id="a_node1"><a xlink:title=" ">
<polygon fill="#bfbfbf" stroke="black" points="16.5,-0.5 16.5,-79.5 75.5,-79.5 75.5,-0.5 16.5,-0.5"/>
<text text-anchor="middle" x="46" y="-67.5" font-family="Helvetica,sans-Serif" font-size="10.00">GUI::Item</text>
<polyline fill="none" stroke="black" points="16.5,-60.5 75.5,-60.5 "/>
<text text-anchor="middle" x="46" y="-48.5" font-family="Helvetica,sans-Serif" font-size="10.00"> </text>
<polyline fill="none" stroke="black" points="16.5,-41.5 75.5,-41.5 "/>
<text text-anchor="start" x="24.5" y="-29.5" font-family="Helvetica,sans-Serif" font-size="10.00">+ Item()</text>
<text text-anchor="start" x="24.5" y="-18.5" font-family="Helvetica,sans-Serif" font-size="10.00">+ Draw()</text>
<text text-anchor="start" x="24.5" y="-7.5" font-family="Helvetica,sans-Serif" font-size="10.00">+ Click()</text>
</a>
</g>
</g>
<!-- Node2 -->
<g id="node2" class="node">
<title>Node2</title>
<g id="a_node2"><a xlink:href="class_g_u_i_1_1_g_u_i_window.html" target="_top" xlink:title=" ">
<polygon fill="white" stroke="black" points="0,-116.5 0,-184.5 92,-184.5 92,-116.5 0,-116.5"/>
<text text-anchor="middle" x="46" y="-172.5" font-family="Helvetica,sans-Serif" font-size="10.00">GUI::GUIWindow</text>
<polyline fill="none" stroke="black" points="0,-165.5 92,-165.5 "/>
<text text-anchor="middle" x="46" y="-153.5" font-family="Helvetica,sans-Serif" font-size="10.00"> </text>
<polyline fill="none" stroke="black" points="0,-146.5 92,-146.5 "/>
<text text-anchor="start" x="8" y="-134.5" font-family="Helvetica,sans-Serif" font-size="10.00">+ Click()</text>
<text text-anchor="start" x="8" y="-123.5" font-family="Helvetica,sans-Serif" font-size="10.00">+ Draw()</text>
</a>
</g>
</g>
<!-- Node2&#45;&gt;Node1 -->
<g id="edge1" class="edge">
<title>Node2&#45;&gt;Node1</title>
<path fill="none" stroke="midnightblue" d="M46,-106.27C46,-97.48 46,-88.28 46,-79.65"/>
<polygon fill="none" stroke="midnightblue" points="42.5,-106.36 46,-116.36 49.5,-106.36 42.5,-106.36"/>
</g>
</g>
</svg>
