<?xml version="1.0" encoding="UTF-8" standalone="no"?>
<!DOCTYPE svg PUBLIC "-//W3C//DTD SVG 1.1//EN"
 "http://www.w3.org/Graphics/SVG/1.1/DTD/svg11.dtd">
<!-- Generated by graphviz version 2.47.1 (20210421.1823)
 -->
<!-- Title: Graphics::Image::Draw Pages: 1 -->
<svg width="756pt" height="104pt"
 viewBox="0.00 0.00 756.00 104.00" xmlns="http://www.w3.org/2000/svg" xmlns:xlink="http://www.w3.org/1999/xlink">
<g id="graph0" class="graph" transform="scale(1 1) rotate(0) translate(4 100)">
<title>Graphics::Image::Draw</title>
<polygon fill="white" stroke="transparent" points="-4,4 -4,-100 752,-100 752,4 -4,4"/>
<!-- Node1 -->
<g id="node1" class="node">
<title>Node1</title>
<g id="a_node1"><a xlink:title=" ">
<polygon fill="#bfbfbf" stroke="black" points="634,-38.5 634,-57.5 748,-57.5 748,-38.5 634,-38.5"/>
<text text-anchor="middle" x="691" y="-45.5" font-family="Helvetica,sans-Serif" font-size="10.00">Graphics::Image::Draw</text>
</a>
</g>
</g>
<!-- Node2 -->
<g id="node2" class="node">
<title>Node2</title>
<g id="a_node2"><a xlink:href="class_g_u_i_1_1_item.html#ab089785456c77b4ff16f15dc7b6bd8fa" target="_top" xlink:title=" ">
<polygon fill="white" stroke="black" points="498,-76.5 498,-95.5 584,-95.5 584,-76.5 498,-76.5"/>
<text text-anchor="middle" x="541" y="-83.5" font-family="Helvetica,sans-Serif" font-size="10.00">GUI::Item::Draw</text>
</a>
</g>
</g>
<!-- Node1&#45;&gt;Node2 -->
<g id="edge1" class="edge">
<title>Node1&#45;&gt;Node2</title>
<path fill="none" stroke="midnightblue" d="M642.83,-60.11C622.21,-65.4 598.39,-71.52 579.08,-76.48"/>
<polygon fill="midnightblue" stroke="midnightblue" points="643.84,-63.47 652.65,-57.59 642.1,-56.69 643.84,-63.47"/>
</g>
<!-- Node3 -->
<g id="node3" class="node">
<title>Node3</title>
<g id="a_node3"><a xlink:href="class_drawable.html#ac46f25a963a3fe3e9176461d61d213c7" target="_top" xlink:title=" ">
<polygon fill="white" stroke="black" points="499,-38.5 499,-57.5 583,-57.5 583,-38.5 499,-38.5"/>
<text text-anchor="middle" x="541" y="-45.5" font-family="Helvetica,sans-Serif" font-size="10.00">Drawable::Draw</text>
</a>
</g>
</g>
<!-- Node1&#45;&gt;Node3 -->
<g id="edge2" class="edge">
<title>Node1&#45;&gt;Node3</title>
<path fill="none" stroke="midnightblue" d="M623.24,-48C609.54,-48 595.5,-48 583.03,-48"/>
<polygon fill="midnightblue" stroke="midnightblue" points="623.63,-51.5 633.63,-48 623.63,-44.5 623.63,-51.5"/>
</g>
<!-- Node9 -->
<g id="node9" class="node">
<title>Node9</title>
<g id="a_node9"><a xlink:href="class_graphics_1_1_image.html#a90e9a33ef5f89fa71e830d967122b9e3" target="_top" xlink:title=" ">
<polygon fill="white" stroke="black" points="484,-0.5 484,-19.5 598,-19.5 598,-0.5 484,-0.5"/>
<text text-anchor="middle" x="541" y="-7.5" font-family="Helvetica,sans-Serif" font-size="10.00">Graphics::Image::Draw</text>
</a>
</g>
</g>
<!-- Node1&#45;&gt;Node9 -->
<g id="edge9" class="edge">
<title>Node1&#45;&gt;Node9</title>
<path fill="none" stroke="midnightblue" d="M642.83,-35.89C622.21,-30.6 598.39,-24.48 579.08,-19.52"/>
<polygon fill="midnightblue" stroke="midnightblue" points="642.1,-39.31 652.65,-38.41 643.84,-32.53 642.1,-39.31"/>
</g>
<!-- Node4 -->
<g id="node4" class="node">
<title>Node4</title>
<g id="a_node4"><a xlink:href="class_engine.html#a39f23d7f0ad86322bfdb73d4e6763005" target="_top" xlink:title=" ">
<polygon fill="white" stroke="black" points="178,-38.5 178,-57.5 251,-57.5 251,-38.5 178,-38.5"/>
<text text-anchor="middle" x="214.5" y="-45.5" font-family="Helvetica,sans-Serif" font-size="10.00">Engine::Draw</text>
</a>
</g>
</g>
<!-- Node3&#45;&gt;Node4 -->
<g id="edge3" class="edge">
<title>Node3&#45;&gt;Node4</title>
<path fill="none" stroke="midnightblue" d="M488.69,-48C422.47,-48 308.91,-48 251.29,-48"/>
<polygon fill="midnightblue" stroke="midnightblue" points="488.9,-51.5 498.9,-48 488.9,-44.5 488.9,-51.5"/>
</g>
<!-- Node7 -->
<g id="node7" class="node">
<title>Node7</title>
<g id="a_node7"><a xlink:href="class_cell.html#ac88160c4177e146f8dd7482c4eaee4f0" target="_top" xlink:title=" ">
<polygon fill="white" stroke="black" points="388,-19.5 388,-38.5 448,-38.5 448,-19.5 388,-19.5"/>
<text text-anchor="middle" x="418" y="-26.5" font-family="Helvetica,sans-Serif" font-size="10.00">Cell::Draw</text>
</a>
</g>
</g>
<!-- Node3&#45;&gt;Node7 -->
<g id="edge6" class="edge">
<title>Node3&#45;&gt;Node7</title>
<path fill="none" stroke="midnightblue" d="M488.79,-39.96C474.96,-37.79 460.46,-35.51 448.29,-33.6"/>
<polygon fill="midnightblue" stroke="midnightblue" points="488.28,-43.42 498.7,-41.51 489.36,-36.51 488.28,-43.42"/>
</g>
<!-- Node5 -->
<g id="node5" class="node">
<title>Node5</title>
<g id="a_node5"><a xlink:href="class_game.html#adb05b20574551a26f8cf1dc664782790" target="_top" xlink:title=" ">
<polygon fill="white" stroke="black" points="74,-38.5 74,-57.5 142,-57.5 142,-38.5 74,-38.5"/>
<text text-anchor="middle" x="108" y="-45.5" font-family="Helvetica,sans-Serif" font-size="10.00">Game::Start</text>
</a>
</g>
</g>
<!-- Node4&#45;&gt;Node5 -->
<g id="edge4" class="edge">
<title>Node4&#45;&gt;Node5</title>
<path fill="none" stroke="midnightblue" d="M167.82,-48C159.15,-48 150.23,-48 142.05,-48"/>
<polygon fill="midnightblue" stroke="midnightblue" points="167.83,-51.5 177.83,-48 167.83,-44.5 167.83,-51.5"/>
</g>
<!-- Node6 -->
<g id="node6" class="node">
<title>Node6</title>
<g id="a_node6"><a xlink:href="main_8cpp.html#ae66f6b31b5ad750f1fe042a706a4e3d4" target="_top" xlink:title=" ">
<polygon fill="white" stroke="black" points="0,-38.5 0,-57.5 38,-57.5 38,-38.5 0,-38.5"/>
<text text-anchor="middle" x="19" y="-45.5" font-family="Helvetica,sans-Serif" font-size="10.00">main</text>
</a>
</g>
</g>
<!-- Node5&#45;&gt;Node6 -->
<g id="edge5" class="edge">
<title>Node5&#45;&gt;Node6</title>
<path fill="none" stroke="midnightblue" d="M63.54,-48C54.55,-48 45.55,-48 38.09,-48"/>
<polygon fill="midnightblue" stroke="midnightblue" points="63.61,-51.5 73.61,-48 63.61,-44.5 63.61,-51.5"/>
</g>
<!-- Node8 -->
<g id="node8" class="node">
<title>Node8</title>
<g id="a_node8"><a xlink:href="class_field.html#ad13d86066be42a2e10fcb9cbcc51fb0b" target="_top" xlink:title=" ">
<polygon fill="white" stroke="black" points="287,-19.5 287,-38.5 352,-38.5 352,-19.5 287,-19.5"/>
<text text-anchor="middle" x="319.5" y="-26.5" font-family="Helvetica,sans-Serif" font-size="10.00">Field::Draw</text>
</a>
</g>
</g>
<!-- Node7&#45;&gt;Node8 -->
<g id="edge7" class="edge">
<title>Node7&#45;&gt;Node8</title>
<path fill="none" stroke="midnightblue" d="M377.73,-29C369.27,-29 360.44,-29 352.31,-29"/>
<polygon fill="midnightblue" stroke="midnightblue" points="377.78,-32.5 387.78,-29 377.78,-25.5 377.78,-32.5"/>
</g>
<!-- Node8&#45;&gt;Node4 -->
<g id="edge8" class="edge">
<title>Node8&#45;&gt;Node4</title>
<path fill="none" stroke="midnightblue" d="M276.71,-36.71C268.28,-38.26 259.48,-39.89 251.27,-41.4"/>
<polygon fill="midnightblue" stroke="midnightblue" points="277.56,-40.11 286.76,-34.86 276.29,-33.23 277.56,-40.11"/>
</g>
</g>
</svg>
