<?xml version="1.0" encoding="UTF-8" standalone="no"?>
<!DOCTYPE svg PUBLIC "-//W3C//DTD SVG 1.1//EN"
 "http://www.w3.org/Graphics/SVG/1.1/DTD/svg11.dtd">
<!-- Generated by graphviz version 2.47.1 (20210421.1823)
 -->
<!-- Title: UnitGroup::Tick Pages: 1 -->
<svg width="504pt" height="256pt"
 viewBox="0.00 0.00 504.00 256.00" xmlns="http://www.w3.org/2000/svg" xmlns:xlink="http://www.w3.org/1999/xlink">
<g id="graph0" class="graph" transform="scale(1 1) rotate(0) translate(4 252)">
<title>UnitGroup::Tick</title>
<polygon fill="white" stroke="transparent" points="-4,4 -4,-252 500,-252 500,4 -4,4"/>
<!-- Node1 -->
<g id="node1" class="node">
<title>Node1</title>
<g id="a_node1"><a xlink:title=" ">
<polygon fill="#bfbfbf" stroke="black" points="0,-133.5 0,-152.5 84,-152.5 84,-133.5 0,-133.5"/>
<text text-anchor="middle" x="42" y="-140.5" font-family="Helvetica,sans-Serif" font-size="10.00">UnitGroup::Tick</text>
</a>
</g>
</g>
<!-- Node2 -->
<g id="node2" class="node">
<title>Node2</title>
<g id="a_node2"><a xlink:href="struct_vector2_d.html#a4243151f5398e352a38073c4e1dfd30b" target="_top" xlink:title=" ">
<polygon fill="white" stroke="black" points="124,-228.5 124,-247.5 236,-247.5 236,-228.5 124,-228.5"/>
<text text-anchor="middle" x="180" y="-235.5" font-family="Helvetica,sans-Serif" font-size="10.00">Vector2D&lt; float &gt;::dist</text>
</a>
</g>
</g>
<!-- Node1&#45;&gt;Node2 -->
<g id="edge1" class="edge">
<title>Node1&#45;&gt;Node2</title>
<path fill="none" stroke="midnightblue" d="M50.22,-152.62C62.72,-168.63 89.97,-200.78 120,-219 123.42,-221.08 127.09,-222.95 130.87,-224.63"/>
<polygon fill="midnightblue" stroke="midnightblue" points="129.82,-227.98 140.4,-228.45 132.42,-221.48 129.82,-227.98"/>
</g>
<!-- Node3 -->
<g id="node3" class="node">
<title>Node3</title>
<g id="a_node3"><a xlink:href="class_world_actor.html#aecbb8afbd9de2f64f17e9ac32b9af335" target="_top" xlink:title=" ">
<polygon fill="white" stroke="black" points="126.5,-190.5 126.5,-209.5 233.5,-209.5 233.5,-190.5 126.5,-190.5"/>
<text text-anchor="middle" x="180" y="-197.5" font-family="Helvetica,sans-Serif" font-size="10.00">WorldActor::Distance</text>
</a>
</g>
</g>
<!-- Node1&#45;&gt;Node3 -->
<g id="edge2" class="edge">
<title>Node1&#45;&gt;Node3</title>
<path fill="none" stroke="midnightblue" d="M60.4,-152.51C75.79,-160.69 99,-172.49 120,-181 125.43,-183.2 131.22,-185.32 136.97,-187.31"/>
<polygon fill="midnightblue" stroke="midnightblue" points="135.95,-190.65 146.54,-190.49 138.16,-184.01 135.95,-190.65"/>
</g>
<!-- Node4 -->
<g id="node4" class="node">
<title>Node4</title>
<g id="a_node4"><a xlink:href="class_engine.html#a6d852b5acb8b7af1df790a662ca863fe" target="_top" xlink:title=" ">
<polygon fill="white" stroke="black" points="133.5,-152.5 133.5,-171.5 226.5,-171.5 226.5,-152.5 133.5,-152.5"/>
<text text-anchor="middle" x="180" y="-159.5" font-family="Helvetica,sans-Serif" font-size="10.00">Engine::GetPlayer</text>
</a>
</g>
</g>
<!-- Node1&#45;&gt;Node4 -->
<g id="edge3" class="edge">
<title>Node1&#45;&gt;Node4</title>
<path fill="none" stroke="midnightblue" d="M84.17,-148.75C96.39,-150.46 109.98,-152.36 122.97,-154.17"/>
<polygon fill="midnightblue" stroke="midnightblue" points="122.83,-157.69 133.22,-155.6 123.8,-150.75 122.83,-157.69"/>
</g>
<!-- Node5 -->
<g id="node5" class="node">
<title>Node5</title>
<g id="a_node5"><a xlink:href="class_world_actor.html#a9d26e2c5b22a06b35334611c6130c83a" target="_top" xlink:title=" ">
<polygon fill="white" stroke="black" points="120,-114.5 120,-133.5 240,-133.5 240,-114.5 120,-114.5"/>
<text text-anchor="middle" x="180" y="-121.5" font-family="Helvetica,sans-Serif" font-size="10.00">WorldActor::GetPosition</text>
</a>
</g>
</g>
<!-- Node1&#45;&gt;Node5 -->
<g id="edge4" class="edge">
<title>Node1&#45;&gt;Node5</title>
<path fill="none" stroke="midnightblue" d="M84.17,-137.25C92.35,-136.11 101.15,-134.88 109.97,-133.64"/>
<polygon fill="midnightblue" stroke="midnightblue" points="110.49,-137.11 119.9,-132.26 109.52,-130.17 110.49,-137.11"/>
</g>
<!-- Node6 -->
<g id="node6" class="node">
<title>Node6</title>
<g id="a_node6"><a xlink:href="class_world_actor.html#a810a18c6aab151635a5dd93bef648a2c" target="_top" xlink:title=" ">
<polygon fill="white" stroke="black" points="124,-76.5 124,-95.5 236,-95.5 236,-76.5 124,-76.5"/>
<text text-anchor="middle" x="180" y="-83.5" font-family="Helvetica,sans-Serif" font-size="10.00">WorldActor::SetSpeed</text>
</a>
</g>
</g>
<!-- Node1&#45;&gt;Node6 -->
<g id="edge5" class="edge">
<title>Node1&#45;&gt;Node6</title>
<path fill="none" stroke="midnightblue" d="M60.4,-133.49C75.79,-125.31 99,-113.51 120,-105 125.43,-102.8 131.22,-100.68 136.97,-98.69"/>
<polygon fill="midnightblue" stroke="midnightblue" points="138.16,-101.99 146.54,-95.51 135.95,-95.35 138.16,-101.99"/>
</g>
<!-- Node7 -->
<g id="node7" class="node">
<title>Node7</title>
<g id="a_node7"><a xlink:href="class_world_actor.html#a211b1d4fdcd4eaed756b3602b6dfb412" target="_top" xlink:title=" ">
<polygon fill="white" stroke="black" points="136,-38.5 136,-57.5 224,-57.5 224,-38.5 136,-38.5"/>
<text text-anchor="middle" x="180" y="-45.5" font-family="Helvetica,sans-Serif" font-size="10.00">WorldActor::Tick</text>
</a>
</g>
</g>
<!-- Node1&#45;&gt;Node7 -->
<g id="edge6" class="edge">
<title>Node1&#45;&gt;Node7</title>
<path fill="none" stroke="midnightblue" d="M50.22,-133.38C62.72,-117.37 89.97,-85.22 120,-67 123.42,-64.92 127.09,-63.05 130.87,-61.37"/>
<polygon fill="midnightblue" stroke="midnightblue" points="132.42,-64.52 140.4,-57.55 129.82,-58.02 132.42,-64.52"/>
</g>
<!-- Node8 -->
<g id="node8" class="node">
<title>Node8</title>
<g id="a_node8"><a xlink:href="class_field.html#a8ce096331f51a8e41e54c0ce4e8ac43a" target="_top" xlink:title=" ">
<polygon fill="white" stroke="black" points="276,-76.5 276,-95.5 368,-95.5 368,-76.5 276,-76.5"/>
<text text-anchor="middle" x="322" y="-83.5" font-family="Helvetica,sans-Serif" font-size="10.00">Field::GetBuilding</text>
</a>
</g>
</g>
<!-- Node7&#45;&gt;Node8 -->
<g id="edge7" class="edge">
<title>Node7&#45;&gt;Node8</title>
<path fill="none" stroke="midnightblue" d="M216.33,-57.59C234.4,-62.49 256.6,-68.52 275.89,-73.76"/>
<polygon fill="midnightblue" stroke="midnightblue" points="275.12,-77.17 285.68,-76.41 276.95,-70.42 275.12,-77.17"/>
</g>
<!-- Node10 -->
<g id="node10" class="node">
<title>Node10</title>
<g id="a_node10"><a xlink:href="class_field.html#a5a202354dc5e99cb7f51121904256845" target="_top" xlink:title=" ">
<polygon fill="white" stroke="black" points="285,-38.5 285,-57.5 359,-57.5 359,-38.5 285,-38.5"/>
<text text-anchor="middle" x="322" y="-45.5" font-family="Helvetica,sans-Serif" font-size="10.00">Field::GetCell</text>
</a>
</g>
</g>
<!-- Node7&#45;&gt;Node10 -->
<g id="edge9" class="edge">
<title>Node7&#45;&gt;Node10</title>
<path fill="none" stroke="midnightblue" d="M224.15,-48C240.1,-48 258.24,-48 274.47,-48"/>
<polygon fill="midnightblue" stroke="midnightblue" points="274.83,-51.5 284.83,-48 274.83,-44.5 274.83,-51.5"/>
</g>
<!-- Node11 -->
<g id="node11" class="node">
<title>Node11</title>
<g id="a_node11"><a xlink:href="class_cell.html#ac21e31812473f2d969ff434b35a81825" target="_top" xlink:title=" ">
<polygon fill="white" stroke="black" points="281.5,-0.5 281.5,-19.5 362.5,-19.5 362.5,-0.5 281.5,-0.5"/>
<text text-anchor="middle" x="322" y="-7.5" font-family="Helvetica,sans-Serif" font-size="10.00">Cell::GetSpeed</text>
</a>
</g>
</g>
<!-- Node7&#45;&gt;Node11 -->
<g id="edge10" class="edge">
<title>Node7&#45;&gt;Node11</title>
<path fill="none" stroke="midnightblue" d="M216.33,-38.41C234.4,-33.51 256.6,-27.48 275.89,-22.24"/>
<polygon fill="midnightblue" stroke="midnightblue" points="276.95,-25.58 285.68,-19.59 275.12,-18.83 276.95,-25.58"/>
</g>
<!-- Node9 -->
<g id="node9" class="node">
<title>Node9</title>
<g id="a_node9"><a xlink:href="class_field.html#a81822f0090fbb9f187fe4d3d15c7ab96" target="_top" xlink:title=" ">
<polygon fill="white" stroke="black" points="404,-76.5 404,-95.5 496,-95.5 496,-76.5 404,-76.5"/>
<text text-anchor="middle" x="450" y="-83.5" font-family="Helvetica,sans-Serif" font-size="10.00">Field::GetCellPos</text>
</a>
</g>
</g>
<!-- Node8&#45;&gt;Node9 -->
<g id="edge8" class="edge">
<title>Node8&#45;&gt;Node9</title>
<path fill="none" stroke="midnightblue" d="M368.13,-86C376.37,-86 385.04,-86 393.53,-86"/>
<polygon fill="midnightblue" stroke="midnightblue" points="393.76,-89.5 403.76,-86 393.76,-82.5 393.76,-89.5"/>
</g>
</g>
</svg>
