<?xml version="1.0" encoding="UTF-8" standalone="no"?>
<!DOCTYPE svg PUBLIC "-//W3C//DTD SVG 1.1//EN"
 "http://www.w3.org/Graphics/SVG/1.1/DTD/svg11.dtd">
<!-- Generated by graphviz version 2.47.1 (20210421.1823)
 -->
<!-- Title: GUI::GUIManager::GetGUIManager Pages: 1 -->
<svg width="465pt" height="47pt"
 viewBox="0.00 0.00 465.00 47.00" xmlns="http://www.w3.org/2000/svg" xmlns:xlink="http://www.w3.org/1999/xlink">
<g id="graph0" class="graph" transform="scale(1 1) rotate(0) translate(4 43)">
<title>GUI::GUIManager::GetGUIManager</title>
<polygon fill="white" stroke="transparent" points="-4,4 -4,-43 461,-43 461,4 -4,4"/>
<!-- Node1 -->
<g id="node1" class="node">
<title>Node1</title>
<g id="a_node1"><a xlink:title=" ">
<polygon fill="#bfbfbf" stroke="black" points="287,-0.5 287,-19.5 457,-19.5 457,-0.5 287,-0.5"/>
<text text-anchor="middle" x="372" y="-7.5" font-family="Helvetica,sans-Serif" font-size="10.00">GUI::GUIManager::GetGUIManager</text>
</a>
</g>
</g>
<!-- Node2 -->
<g id="node2" class="node">
<title>Node2</title>
<g id="a_node2"><a xlink:href="class_engine.html#a39f23d7f0ad86322bfdb73d4e6763005" target="_top" xlink:title=" ">
<polygon fill="white" stroke="black" points="178,-19.5 178,-38.5 251,-38.5 251,-19.5 178,-19.5"/>
<text text-anchor="middle" x="214.5" y="-26.5" font-family="Helvetica,sans-Serif" font-size="10.00">Engine::Draw</text>
</a>
</g>
</g>
<!-- Node1&#45;&gt;Node2 -->
<g id="edge1" class="edge">
<title>Node1&#45;&gt;Node2</title>
<path fill="none" stroke="midnightblue" d="M282.61,-20.8C271.59,-22.15 260.86,-23.46 251.32,-24.62"/>
<polygon fill="midnightblue" stroke="midnightblue" points="283.29,-24.24 292.79,-19.56 282.44,-17.29 283.29,-24.24"/>
</g>
<!-- Node3 -->
<g id="node3" class="node">
<title>Node3</title>
<g id="a_node3"><a xlink:href="class_game.html#adb05b20574551a26f8cf1dc664782790" target="_top" xlink:title=" ">
<polygon fill="white" stroke="black" points="74,-0.5 74,-19.5 142,-19.5 142,-0.5 74,-0.5"/>
<text text-anchor="middle" x="108" y="-7.5" font-family="Helvetica,sans-Serif" font-size="10.00">Game::Start</text>
</a>
</g>
</g>
<!-- Node1&#45;&gt;Node3 -->
<g id="edge4" class="edge">
<title>Node1&#45;&gt;Node3</title>
<path fill="none" stroke="midnightblue" d="M276.44,-10C229.44,-10 175.65,-10 142,-10"/>
<polygon fill="midnightblue" stroke="midnightblue" points="276.66,-13.5 286.66,-10 276.66,-6.5 276.66,-13.5"/>
</g>
<!-- Node2&#45;&gt;Node3 -->
<g id="edge2" class="edge">
<title>Node2&#45;&gt;Node3</title>
<path fill="none" stroke="midnightblue" d="M167.82,-20.69C159.15,-19.12 150.23,-17.5 142.05,-16.01"/>
<polygon fill="midnightblue" stroke="midnightblue" points="167.36,-24.17 177.83,-22.51 168.62,-17.28 167.36,-24.17"/>
</g>
<!-- Node4 -->
<g id="node4" class="node">
<title>Node4</title>
<g id="a_node4"><a xlink:href="main_8cpp.html#ae66f6b31b5ad750f1fe042a706a4e3d4" target="_top" xlink:title=" ">
<polygon fill="white" stroke="black" points="0,-0.5 0,-19.5 38,-19.5 38,-0.5 0,-0.5"/>
<text text-anchor="middle" x="19" y="-7.5" font-family="Helvetica,sans-Serif" font-size="10.00">main</text>
</a>
</g>
</g>
<!-- Node3&#45;&gt;Node4 -->
<g id="edge3" class="edge">
<title>Node3&#45;&gt;Node4</title>
<path fill="none" stroke="midnightblue" d="M63.54,-10C54.55,-10 45.55,-10 38.09,-10"/>
<polygon fill="midnightblue" stroke="midnightblue" points="63.61,-13.5 73.61,-10 63.61,-6.5 63.61,-13.5"/>
</g>
</g>
</svg>
