<?xml version="1.0" encoding="UTF-8" standalone="no"?>
<!DOCTYPE svg PUBLIC "-//W3C//DTD SVG 1.1//EN"
 "http://www.w3.org/Graphics/SVG/1.1/DTD/svg11.dtd">
<!-- Generated by graphviz version 2.47.0 (20210407.0042)
 -->
<!-- Title: GUI::Item::Click Pages: 1 -->
<svg width="268pt" height="78pt"
 viewBox="0.00 0.00 268.00 77.50" xmlns="http://www.w3.org/2000/svg" xmlns:xlink="http://www.w3.org/1999/xlink">
<g id="graph0" class="graph" transform="scale(1 1) rotate(0) translate(4 73.5)">
<title>GUI::Item::Click</title>
<polygon fill="white" stroke="transparent" points="-4,4 -4,-73.5 264,-73.5 264,4 -4,4"/>
<!-- Node1 -->
<g id="node1" class="node">
<title>Node1</title>
<g id="a_node1"><a xlink:title=" ">
<polygon fill="#bfbfbf" stroke="black" points="0,-22.5 0,-41.5 85,-41.5 85,-22.5 0,-22.5"/>
<text text-anchor="middle" x="42.5" y="-29.5" font-family="Helvetica,sans-Serif" font-size="10.00">GUI::Item::Click</text>
</a>
</g>
</g>
<!-- Node2 -->
<g id="node2" class="node">
<title>Node2</title>
<g id="a_node2"><a xlink:href="class_graphics_1_1_resource_manager.html#a712cf513dbda24deb3a7fcea7157003a" target="_top" xlink:title=" ">
<polygon fill="white" stroke="black" points="121,-39 121,-69 260,-69 260,-39 121,-39"/>
<text text-anchor="start" x="129" y="-57" font-family="Helvetica,sans-Serif" font-size="10.00">Graphics::ResourceManager</text>
<text text-anchor="middle" x="190.5" y="-46" font-family="Helvetica,sans-Serif" font-size="10.00">::GetImage</text>
</a>
</g>
</g>
<!-- Node1&#45;&gt;Node2 -->
<g id="edge1" class="edge">
<title>Node1&#45;&gt;Node2</title>
<path fill="none" stroke="midnightblue" d="M85.34,-38.3C93.42,-39.52 102.13,-40.83 110.95,-42.16"/>
<polygon fill="midnightblue" stroke="midnightblue" points="110.51,-45.64 120.92,-43.67 111.55,-38.71 110.51,-45.64"/>
</g>
<!-- Node3 -->
<g id="node3" class="node">
<title>Node3</title>
<g id="a_node3"><a xlink:href="class_graphics_1_1_image.html#a844862eac20e00b7d2b33da163be0304" target="_top" xlink:title=" ">
<polygon fill="white" stroke="black" points="127.5,-0.5 127.5,-19.5 253.5,-19.5 253.5,-0.5 127.5,-0.5"/>
<text text-anchor="middle" x="190.5" y="-7.5" font-family="Helvetica,sans-Serif" font-size="10.00">Graphics::Image::GetSize</text>
</a>
</g>
</g>
<!-- Node1&#45;&gt;Node3 -->
<g id="edge2" class="edge">
<title>Node1&#45;&gt;Node3</title>
<path fill="none" stroke="midnightblue" d="M85.34,-25.7C95.34,-24.19 106.3,-22.54 117.24,-20.89"/>
<polygon fill="midnightblue" stroke="midnightblue" points="117.88,-24.33 127.25,-19.38 116.84,-17.41 117.88,-24.33"/>
</g>
</g>
</svg>
