<?xml version="1.0" encoding="UTF-8" standalone="no"?>
<!DOCTYPE svg PUBLIC "-//W3C//DTD SVG 1.1//EN"
 "http://www.w3.org/Graphics/SVG/1.1/DTD/svg11.dtd">
<!-- Generated by graphviz version 2.47.1 (20210421.1823)
 -->
<!-- Title: Graphics::Transform::Rotate Pages: 1 -->
<svg width="262pt" height="78pt"
 viewBox="0.00 0.00 262.00 77.50" xmlns="http://www.w3.org/2000/svg" xmlns:xlink="http://www.w3.org/1999/xlink">
<g id="graph0" class="graph" transform="scale(1 1) rotate(0) translate(4 73.5)">
<title>Graphics::Transform::Rotate</title>
<polygon fill="white" stroke="transparent" points="-4,4 -4,-73.5 258,-73.5 258,4 -4,4"/>
<!-- Node1 -->
<g id="node1" class="node">
<title>Node1</title>
<g id="a_node1"><a xlink:title=" ">
<polygon fill="#bfbfbf" stroke="black" points="150,-22.5 150,-52.5 254,-52.5 254,-22.5 150,-22.5"/>
<text text-anchor="start" x="158" y="-40.5" font-family="Helvetica,sans-Serif" font-size="10.00">Graphics::Transform</text>
<text text-anchor="middle" x="202" y="-29.5" font-family="Helvetica,sans-Serif" font-size="10.00">::Rotate</text>
</a>
</g>
</g>
<!-- Node2 -->
<g id="node2" class="node">
<title>Node2</title>
<g id="a_node2"><a xlink:href="class_graphics_1_1_image.html#a880481ff1290a4b0dd916e0ff1402b51" target="_top" xlink:title=" ">
<polygon fill="white" stroke="black" points="0,-50 0,-69 114,-69 114,-50 0,-50"/>
<text text-anchor="middle" x="57" y="-57" font-family="Helvetica,sans-Serif" font-size="10.00">Graphics::Image::Draw</text>
</a>
</g>
</g>
<!-- Node1&#45;&gt;Node2 -->
<g id="edge1" class="edge">
<title>Node1&#45;&gt;Node2</title>
<path fill="none" stroke="midnightblue" d="M139.89,-46.9C131.36,-48.21 122.63,-49.56 114.2,-50.85"/>
<polygon fill="midnightblue" stroke="midnightblue" points="140.43,-50.36 149.78,-45.38 139.36,-43.44 140.43,-50.36"/>
</g>
<!-- Node3 -->
<g id="node3" class="node">
<title>Node3</title>
<g id="a_node3"><a xlink:href="class_graphics_1_1_quadrangle.html#aa297320f02fc825114635fb0c05760ad" target="_top" xlink:title=" ">
<polygon fill="white" stroke="black" points="2,-0.5 2,-30.5 112,-30.5 112,-0.5 2,-0.5"/>
<text text-anchor="start" x="10" y="-18.5" font-family="Helvetica,sans-Serif" font-size="10.00">Graphics::Quadrangle</text>
<text text-anchor="middle" x="57" y="-7.5" font-family="Helvetica,sans-Serif" font-size="10.00">::Draw</text>
</a>
</g>
</g>
<!-- Node1&#45;&gt;Node3 -->
<g id="edge2" class="edge">
<title>Node1&#45;&gt;Node3</title>
<path fill="none" stroke="midnightblue" d="M139.63,-28.06C130.52,-26.66 121.19,-25.22 112.25,-23.85"/>
<polygon fill="midnightblue" stroke="midnightblue" points="139.36,-31.56 149.78,-29.62 140.43,-24.64 139.36,-31.56"/>
</g>
</g>
</svg>
