<?xml version="1.0" encoding="UTF-8" standalone="no"?>
<!DOCTYPE svg PUBLIC "-//W3C//DTD SVG 1.1//EN"
 "http://www.w3.org/Graphics/SVG/1.1/DTD/svg11.dtd">
<!-- Generated by graphviz version 2.47.1 (20210421.1823)
 -->
<!-- Title: Graphics::Window::GetSizeWindow Pages: 1 -->
<svg width="624pt" height="146pt"
 viewBox="0.00 0.00 624.00 145.50" xmlns="http://www.w3.org/2000/svg" xmlns:xlink="http://www.w3.org/1999/xlink">
<g id="graph0" class="graph" transform="scale(1 1) rotate(0) translate(4 141.5)">
<title>Graphics::Window::GetSizeWindow</title>
<polygon fill="white" stroke="transparent" points="-4,4 -4,-141.5 620,-141.5 620,4 -4,4"/>
<!-- Node1 -->
<g id="node1" class="node">
<title>Node1</title>
<g id="a_node1"><a xlink:title=" ">
<polygon fill="#bfbfbf" stroke="black" points="482,-71.5 482,-101.5 616,-101.5 616,-71.5 482,-71.5"/>
<text text-anchor="start" x="490" y="-89.5" font-family="Helvetica,sans-Serif" font-size="10.00">Graphics::Window::GetSize</text>
<text text-anchor="middle" x="549" y="-78.5" font-family="Helvetica,sans-Serif" font-size="10.00">Window</text>
</a>
</g>
</g>
<!-- Node2 -->
<g id="node2" class="node">
<title>Node2</title>
<g id="a_node2"><a xlink:href="class_engine.html#a39f23d7f0ad86322bfdb73d4e6763005" target="_top" xlink:title=" ">
<polygon fill="white" stroke="black" points="178,-118 178,-137 251,-137 251,-118 178,-118"/>
<text text-anchor="middle" x="214.5" y="-125" font-family="Helvetica,sans-Serif" font-size="10.00">Engine::Draw</text>
</a>
</g>
</g>
<!-- Node1&#45;&gt;Node2 -->
<g id="edge1" class="edge">
<title>Node1&#45;&gt;Node2</title>
<path fill="none" stroke="midnightblue" d="M509.93,-105.84C491.19,-114.3 467.96,-123.25 446,-127.5 378.03,-140.65 296.66,-136.03 251.04,-131.65"/>
<polygon fill="midnightblue" stroke="midnightblue" points="511.42,-109.01 519.01,-101.62 508.47,-102.66 511.42,-109.01"/>
</g>
<!-- Node5 -->
<g id="node5" class="node">
<title>Node5</title>
<g id="a_node5"><a xlink:href="class_field.html#ad13d86066be42a2e10fcb9cbcc51fb0b" target="_top" xlink:title=" ">
<polygon fill="white" stroke="black" points="334,-99 334,-118 399,-118 399,-99 334,-99"/>
<text text-anchor="middle" x="366.5" y="-106" font-family="Helvetica,sans-Serif" font-size="10.00">Field::Draw</text>
</a>
</g>
</g>
<!-- Node1&#45;&gt;Node5 -->
<g id="edge4" class="edge">
<title>Node1&#45;&gt;Node5</title>
<path fill="none" stroke="midnightblue" d="M471.79,-95.79C446.37,-98.89 419.42,-102.17 399.29,-104.63"/>
<polygon fill="midnightblue" stroke="midnightblue" points="472.31,-99.25 481.81,-94.57 471.46,-92.3 472.31,-99.25"/>
</g>
<!-- Node6 -->
<g id="node6" class="node">
<title>Node6</title>
<g id="a_node6"><a xlink:href="class_graphics_1_1_window.html#ab543b174ebe01570bf8f072ca2796eb8" target="_top" xlink:title=" ">
<polygon fill="white" stroke="black" points="295,-49.5 295,-79.5 438,-79.5 438,-49.5 295,-49.5"/>
<text text-anchor="start" x="303" y="-67.5" font-family="Helvetica,sans-Serif" font-size="10.00">Graphics::Window::GetCursor</text>
<text text-anchor="middle" x="366.5" y="-56.5" font-family="Helvetica,sans-Serif" font-size="10.00">Position</text>
</a>
</g>
</g>
<!-- Node1&#45;&gt;Node6 -->
<g id="edge6" class="edge">
<title>Node1&#45;&gt;Node6</title>
<path fill="none" stroke="midnightblue" d="M471.72,-77.2C460.61,-75.85 449.22,-74.46 438.23,-73.12"/>
<polygon fill="midnightblue" stroke="midnightblue" points="471.46,-80.7 481.81,-78.43 472.31,-73.75 471.46,-80.7"/>
</g>
<!-- Node7 -->
<g id="node7" class="node">
<title>Node7</title>
<g id="a_node7"><a xlink:href="class_graphics_1_1_window.html#a8c9f4d2a14be1c7c17cc2a9ad855aecc" target="_top" xlink:title=" ">
<polygon fill="white" stroke="black" points="287,-0.5 287,-30.5 446,-30.5 446,-0.5 287,-0.5"/>
<text text-anchor="start" x="295" y="-18.5" font-family="Helvetica,sans-Serif" font-size="10.00">Graphics::Window::GetTransform</text>
<text text-anchor="middle" x="366.5" y="-7.5" font-family="Helvetica,sans-Serif" font-size="10.00">Coordinates</text>
</a>
</g>
</g>
<!-- Node1&#45;&gt;Node7 -->
<g id="edge7" class="edge">
<title>Node1&#45;&gt;Node7</title>
<path fill="none" stroke="midnightblue" d="M508.06,-67.2C489.42,-58.53 466.79,-48.47 446,-40.5 436.92,-37.02 427.12,-33.62 417.63,-30.51"/>
<polygon fill="midnightblue" stroke="midnightblue" points="506.6,-70.38 517.14,-71.46 509.58,-64.05 506.6,-70.38"/>
</g>
<!-- Node3 -->
<g id="node3" class="node">
<title>Node3</title>
<g id="a_node3"><a xlink:href="class_game.html#adb05b20574551a26f8cf1dc664782790" target="_top" xlink:title=" ">
<polygon fill="white" stroke="black" points="74,-118 74,-137 142,-137 142,-118 74,-118"/>
<text text-anchor="middle" x="108" y="-125" font-family="Helvetica,sans-Serif" font-size="10.00">Game::Start</text>
</a>
</g>
</g>
<!-- Node2&#45;&gt;Node3 -->
<g id="edge2" class="edge">
<title>Node2&#45;&gt;Node3</title>
<path fill="none" stroke="midnightblue" d="M167.82,-127.5C159.15,-127.5 150.23,-127.5 142.05,-127.5"/>
<polygon fill="midnightblue" stroke="midnightblue" points="167.83,-131 177.83,-127.5 167.83,-124 167.83,-131"/>
</g>
<!-- Node4 -->
<g id="node4" class="node">
<title>Node4</title>
<g id="a_node4"><a xlink:href="main_8cpp.html#ae66f6b31b5ad750f1fe042a706a4e3d4" target="_top" xlink:title=" ">
<polygon fill="white" stroke="black" points="0,-118 0,-137 38,-137 38,-118 0,-118"/>
<text text-anchor="middle" x="19" y="-125" font-family="Helvetica,sans-Serif" font-size="10.00">main</text>
</a>
</g>
</g>
<!-- Node3&#45;&gt;Node4 -->
<g id="edge3" class="edge">
<title>Node3&#45;&gt;Node4</title>
<path fill="none" stroke="midnightblue" d="M63.54,-127.5C54.55,-127.5 45.55,-127.5 38.09,-127.5"/>
<polygon fill="midnightblue" stroke="midnightblue" points="63.61,-131 73.61,-127.5 63.61,-124 63.61,-131"/>
</g>
<!-- Node5&#45;&gt;Node2 -->
<g id="edge5" class="edge">
<title>Node5&#45;&gt;Node2</title>
<path fill="none" stroke="midnightblue" d="M323.62,-113.8C300.84,-116.69 272.95,-120.22 251.21,-122.98"/>
<polygon fill="midnightblue" stroke="midnightblue" points="324.21,-117.26 333.69,-112.53 323.33,-110.31 324.21,-117.26"/>
</g>
</g>
</svg>
