<?xml version="1.0" encoding="UTF-8" standalone="no"?>
<!DOCTYPE svg PUBLIC "-//W3C//DTD SVG 1.1//EN"
 "http://www.w3.org/Graphics/SVG/1.1/DTD/svg11.dtd">
<!-- Generated by graphviz version 2.47.0 (20210407.0042)
 -->
<!-- Title: Graphics::Quadrangle Pages: 1 -->
<svg width="118pt" height="358pt"
 viewBox="0.00 0.00 118.00 358.00" xmlns="http://www.w3.org/2000/svg" xmlns:xlink="http://www.w3.org/1999/xlink">
<g id="graph0" class="graph" transform="scale(1 1) rotate(0) translate(4 354)">
<title>Graphics::Quadrangle</title>
<polygon fill="white" stroke="transparent" points="-4,4 -4,-354 114,-354 114,4 -4,4"/>
<!-- Node1 -->
<g id="node1" class="node">
<title>Node1</title>
<g id="a_node1"><a xlink:title=" ">
<polygon fill="#bfbfbf" stroke="black" points="0,-0.5 0,-211.5 110,-211.5 110,-0.5 0,-0.5"/>
<text text-anchor="middle" x="55" y="-199.5" font-family="Helvetica,sans-Serif" font-size="10.00">Graphics::Quadrangle</text>
<polyline fill="none" stroke="black" points="0,-192.5 110,-192.5 "/>
<text text-anchor="start" x="8" y="-180.5" font-family="Helvetica,sans-Serif" font-size="10.00"># x1</text>
<text text-anchor="start" x="8" y="-169.5" font-family="Helvetica,sans-Serif" font-size="10.00"># y1</text>
<text text-anchor="start" x="8" y="-158.5" font-family="Helvetica,sans-Serif" font-size="10.00"># x2</text>
<text text-anchor="start" x="8" y="-147.5" font-family="Helvetica,sans-Serif" font-size="10.00"># y2</text>
<text text-anchor="start" x="8" y="-136.5" font-family="Helvetica,sans-Serif" font-size="10.00"># x3</text>
<text text-anchor="start" x="8" y="-125.5" font-family="Helvetica,sans-Serif" font-size="10.00"># y3</text>
<text text-anchor="start" x="8" y="-114.5" font-family="Helvetica,sans-Serif" font-size="10.00"># x4</text>
<text text-anchor="start" x="8" y="-103.5" font-family="Helvetica,sans-Serif" font-size="10.00"># y4</text>
<polyline fill="none" stroke="black" points="0,-96.5 110,-96.5 "/>
<text text-anchor="start" x="8" y="-84.5" font-family="Helvetica,sans-Serif" font-size="10.00">+ ~Quadrangle()</text>
<text text-anchor="start" x="8" y="-73.5" font-family="Helvetica,sans-Serif" font-size="10.00">+ Quadrangle()</text>
<text text-anchor="start" x="8" y="-62.5" font-family="Helvetica,sans-Serif" font-size="10.00">+ Quadrangle()</text>
<text text-anchor="start" x="8" y="-51.5" font-family="Helvetica,sans-Serif" font-size="10.00">+ operator=()</text>
<text text-anchor="start" x="8" y="-40.5" font-family="Helvetica,sans-Serif" font-size="10.00">+ Quadrangle()</text>
<text text-anchor="start" x="8" y="-29.5" font-family="Helvetica,sans-Serif" font-size="10.00">+ Draw()</text>
<text text-anchor="start" x="8" y="-18.5" font-family="Helvetica,sans-Serif" font-size="10.00">+ Draw()</text>
<text text-anchor="start" x="8" y="-7.5" font-family="Helvetica,sans-Serif" font-size="10.00">+ Draw()</text>
</a>
</g>
</g>
<!-- Node2 -->
<g id="node2" class="node">
<title>Node2</title>
<g id="a_node2"><a xlink:href="class_graphics_1_1_g_shape.html" target="_top" xlink:title=" ">
<polygon fill="white" stroke="black" points="5,-248.5 5,-349.5 105,-349.5 105,-248.5 5,-248.5"/>
<text text-anchor="middle" x="55" y="-337.5" font-family="Helvetica,sans-Serif" font-size="10.00">Graphics::GShape</text>
<polyline fill="none" stroke="black" points="5,-330.5 105,-330.5 "/>
<text text-anchor="start" x="13" y="-318.5" font-family="Helvetica,sans-Serif" font-size="10.00"># id_vertex_arrays_</text>
<text text-anchor="start" x="13" y="-307.5" font-family="Helvetica,sans-Serif" font-size="10.00"># id_vertex_buffer_</text>
<polyline fill="none" stroke="black" points="5,-300.5 105,-300.5 "/>
<text text-anchor="start" x="13" y="-288.5" font-family="Helvetica,sans-Serif" font-size="10.00">+ ~GShape()</text>
<text text-anchor="start" x="13" y="-277.5" font-family="Helvetica,sans-Serif" font-size="10.00">+ Draw()</text>
<text text-anchor="start" x="13" y="-266.5" font-family="Helvetica,sans-Serif" font-size="10.00">+ Draw()</text>
<text text-anchor="start" x="13" y="-255.5" font-family="Helvetica,sans-Serif" font-size="10.00">+ Draw()</text>
</a>
</g>
</g>
<!-- Node2&#45;&gt;Node1 -->
<g id="edge1" class="edge">
<title>Node2&#45;&gt;Node1</title>
<path fill="none" stroke="midnightblue" d="M55,-238.18C55,-229.67 55,-220.72 55,-211.66"/>
<polygon fill="none" stroke="midnightblue" points="51.5,-238.32 55,-248.32 58.5,-238.32 51.5,-238.32"/>
</g>
</g>
</svg>
