<?xml version="1.0" encoding="UTF-8" standalone="no"?>
<!DOCTYPE svg PUBLIC "-//W3C//DTD SVG 1.1//EN"
 "http://www.w3.org/Graphics/SVG/1.1/DTD/svg11.dtd">
<!-- Generated by graphviz version 2.47.0 (20210407.0042)
 -->
<!-- Title: Engine::Draw Pages: 1 -->
<svg width="1013pt" height="411pt"
 viewBox="0.00 0.00 1013.00 411.00" xmlns="http://www.w3.org/2000/svg" xmlns:xlink="http://www.w3.org/1999/xlink">
<g id="graph0" class="graph" transform="scale(1 1) rotate(0) translate(4 407)">
<title>Engine::Draw</title>
<polygon fill="white" stroke="transparent" points="-4,4 -4,-407 1009,-407 1009,4 -4,4"/>
<!-- Node1 -->
<g id="node1" class="node">
<title>Node1</title>
<g id="a_node1"><a xlink:title=" ">
<polygon fill="#bfbfbf" stroke="black" points="0,-114.5 0,-133.5 73,-133.5 73,-114.5 0,-114.5"/>
<text text-anchor="middle" x="36.5" y="-121.5" font-family="Helvetica,sans-Serif" font-size="10.00">Engine::Draw</text>
</a>
</g>
</g>
<!-- Node2 -->
<g id="node2" class="node">
<title>Node2</title>
<g id="a_node2"><a xlink:href="class_field.html#a40e273e9fe4e28fe71aa6947eacc1ab0" target="_top" xlink:title=" ">
<polygon fill="white" stroke="black" points="141.5,-202.5 141.5,-221.5 206.5,-221.5 206.5,-202.5 141.5,-202.5"/>
<text text-anchor="middle" x="174" y="-209.5" font-family="Helvetica,sans-Serif" font-size="10.00">Field::Draw</text>
</a>
</g>
</g>
<!-- Node1&#45;&gt;Node2 -->
<g id="edge1" class="edge">
<title>Node1&#45;&gt;Node2</title>
<path fill="none" stroke="midnightblue" d="M48.68,-133.62C62.37,-145.16 86.53,-164.73 109,-179 119.69,-185.79 131.95,-192.38 142.85,-197.85"/>
<polygon fill="midnightblue" stroke="midnightblue" points="141.49,-201.09 152.01,-202.36 144.58,-194.81 141.49,-201.09"/>
</g>
<!-- Node4 -->
<g id="node4" class="node">
<title>Node4</title>
<g id="a_node4"><a xlink:href="class_drawable.html#a380dbc28ed3746ac7ac00c4844b30d08" target="_top" xlink:title=" ">
<polygon fill="white" stroke="black" points="445,-258.5 445,-277.5 529,-277.5 529,-258.5 445,-258.5"/>
<text text-anchor="middle" x="487" y="-265.5" font-family="Helvetica,sans-Serif" font-size="10.00">Drawable::Draw</text>
</a>
</g>
</g>
<!-- Node1&#45;&gt;Node4 -->
<g id="edge16" class="edge">
<title>Node1&#45;&gt;Node4</title>
<path fill="none" stroke="midnightblue" d="M41.66,-133.57C50.97,-153.99 75.32,-202.31 109,-231 170.77,-283.62 195.72,-289.71 275,-307 333.19,-319.69 351.07,-320.83 409,-307 428.37,-302.37 448.38,-292.04 463.14,-283.17"/>
<polygon fill="midnightblue" stroke="midnightblue" points="465.4,-285.89 472.03,-277.63 461.69,-279.95 465.4,-285.89"/>
</g>
<!-- Node13 -->
<g id="node13" class="node">
<title>Node13</title>
<g id="a_node13"><a xlink:href="class_graphics_1_1_resource_manager.html#a2bf0311bf4f8431618eb13706a26a5f1" target="_top" xlink:title=" ">
<polygon fill="white" stroke="black" points="565,-179 565,-209 704,-209 704,-179 565,-179"/>
<text text-anchor="start" x="573" y="-197" font-family="Helvetica,sans-Serif" font-size="10.00">Graphics::ResourceManager</text>
<text text-anchor="middle" x="634.5" y="-186" font-family="Helvetica,sans-Serif" font-size="10.00">::GetWindow</text>
</a>
</g>
</g>
<!-- Node1&#45;&gt;Node13 -->
<g id="edge18" class="edge">
<title>Node1&#45;&gt;Node13</title>
<path fill="none" stroke="midnightblue" d="M73.03,-123.96C139.37,-124.33 286.46,-127.17 409,-144 463.25,-151.45 523.79,-165.26 568.33,-176.49"/>
<polygon fill="midnightblue" stroke="midnightblue" points="567.59,-179.91 578.15,-178.99 569.32,-173.13 567.59,-179.91"/>
</g>
<!-- Node15 -->
<g id="node15" class="node">
<title>Node15</title>
<g id="a_node15"><a xlink:href="class_graphics_1_1_window.html#aa834f03ccb101a164cdfdffa773c0a53" target="_top" xlink:title=" ">
<polygon fill="white" stroke="black" points="275,-153 275,-183 409,-183 409,-153 275,-153"/>
<text text-anchor="start" x="283" y="-171" font-family="Helvetica,sans-Serif" font-size="10.00">Graphics::Window::GetSize</text>
<text text-anchor="middle" x="342" y="-160" font-family="Helvetica,sans-Serif" font-size="10.00">Window</text>
</a>
</g>
</g>
<!-- Node1&#45;&gt;Node15 -->
<g id="edge17" class="edge">
<title>Node1&#45;&gt;Node15</title>
<path fill="none" stroke="midnightblue" d="M73.06,-131.43C84.51,-133.7 97.26,-136.09 109,-138 160.8,-146.41 219.42,-153.98 264.78,-159.4"/>
<polygon fill="midnightblue" stroke="midnightblue" points="264.49,-162.89 274.83,-160.6 265.32,-155.94 264.49,-162.89"/>
</g>
<!-- Node16 -->
<g id="node16" class="node">
<title>Node16</title>
<g id="a_node16"><a xlink:href="class_world_actor.html#a35b3672c657fd763d44c75f9625c1185" target="_top" xlink:title=" ">
<polygon fill="white" stroke="black" points="128,-76.5 128,-95.5 220,-95.5 220,-76.5 128,-76.5"/>
<text text-anchor="middle" x="174" y="-83.5" font-family="Helvetica,sans-Serif" font-size="10.00">WorldActor::GetX</text>
</a>
</g>
</g>
<!-- Node1&#45;&gt;Node16 -->
<g id="edge19" class="edge">
<title>Node1&#45;&gt;Node16</title>
<path fill="none" stroke="midnightblue" d="M71.69,-114.41C89.1,-109.53 110.47,-103.54 129.09,-98.32"/>
<polygon fill="midnightblue" stroke="midnightblue" points="130.14,-101.66 138.82,-95.59 128.24,-94.92 130.14,-101.66"/>
</g>
<!-- Node17 -->
<g id="node17" class="node">
<title>Node17</title>
<g id="a_node17"><a xlink:href="class_world_actor.html#a28d9235e9224dee56e6f32791d5931f0" target="_top" xlink:title=" ">
<polygon fill="white" stroke="black" points="128,-38.5 128,-57.5 220,-57.5 220,-38.5 128,-38.5"/>
<text text-anchor="middle" x="174" y="-45.5" font-family="Helvetica,sans-Serif" font-size="10.00">WorldActor::GetY</text>
</a>
</g>
</g>
<!-- Node1&#45;&gt;Node17 -->
<g id="edge20" class="edge">
<title>Node1&#45;&gt;Node17</title>
<path fill="none" stroke="midnightblue" d="M47.27,-114.13C60.28,-101.52 84.51,-79.78 109,-67 113.27,-64.77 117.84,-62.77 122.5,-60.97"/>
<polygon fill="midnightblue" stroke="midnightblue" points="123.87,-64.2 132.13,-57.57 121.54,-57.6 123.87,-64.2"/>
</g>
<!-- Node18 -->
<g id="node18" class="node">
<title>Node18</title>
<g id="a_node18"><a xlink:href="class_graphics_1_1_window.html#a7863fafae23423f404bee7aa3a57e124" target="_top" xlink:title=" ">
<polygon fill="white" stroke="black" points="109,-0.5 109,-19.5 239,-19.5 239,-0.5 109,-0.5"/>
<text text-anchor="middle" x="174" y="-7.5" font-family="Helvetica,sans-Serif" font-size="10.00">Graphics::Window::Render</text>
</a>
</g>
</g>
<!-- Node1&#45;&gt;Node18 -->
<g id="edge21" class="edge">
<title>Node1&#45;&gt;Node18</title>
<path fill="none" stroke="midnightblue" d="M42.11,-114.3C51.76,-95.06 75.94,-51.96 109,-29 111.9,-26.99 115.01,-25.19 118.24,-23.57"/>
<polygon fill="midnightblue" stroke="midnightblue" points="119.83,-26.7 127.61,-19.51 117.04,-20.28 119.83,-26.7"/>
</g>
<!-- Node3 -->
<g id="node3" class="node">
<title>Node3</title>
<g id="a_node3"><a xlink:href="class_cell.html#a3d4a0b84cec344e492e1d7cb1241e250" target="_top" xlink:title=" ">
<polygon fill="white" stroke="black" points="312,-240.5 312,-259.5 372,-259.5 372,-240.5 312,-240.5"/>
<text text-anchor="middle" x="342" y="-247.5" font-family="Helvetica,sans-Serif" font-size="10.00">Cell::Draw</text>
</a>
</g>
</g>
<!-- Node2&#45;&gt;Node3 -->
<g id="edge2" class="edge">
<title>Node2&#45;&gt;Node3</title>
<path fill="none" stroke="midnightblue" d="M206.61,-219.24C233.71,-225.44 272.85,-234.4 301.91,-241.05"/>
<polygon fill="midnightblue" stroke="midnightblue" points="301.2,-244.48 311.73,-243.3 302.76,-237.66 301.2,-244.48"/>
</g>
<!-- Node2&#45;&gt;Node13 -->
<g id="edge15" class="edge">
<title>Node2&#45;&gt;Node13</title>
<path fill="none" stroke="midnightblue" d="M206.51,-210.76C277.59,-207.97 452.15,-201.12 554.72,-197.09"/>
<polygon fill="midnightblue" stroke="midnightblue" points="554.87,-200.59 564.72,-196.7 554.59,-193.6 554.87,-200.59"/>
</g>
<!-- Node14 -->
<g id="node14" class="node">
<title>Node14</title>
<g id="a_node14"><a xlink:href="class_field.html#abbe1a428501a04475979b292b5ad404b" target="_top" xlink:title=" ">
<polygon fill="white" stroke="black" points="296,-278.5 296,-297.5 388,-297.5 388,-278.5 296,-278.5"/>
<text text-anchor="middle" x="342" y="-285.5" font-family="Helvetica,sans-Serif" font-size="10.00">Field::GetCellPos</text>
</a>
</g>
</g>
<!-- Node2&#45;&gt;Node14 -->
<g id="edge13" class="edge">
<title>Node2&#45;&gt;Node14</title>
<path fill="none" stroke="midnightblue" d="M189.35,-221.64C208.28,-234.01 242.96,-255.49 275,-269 280.49,-271.32 286.35,-273.45 292.23,-275.39"/>
<polygon fill="midnightblue" stroke="midnightblue" points="291.49,-278.82 302.08,-278.46 293.57,-272.14 291.49,-278.82"/>
</g>
<!-- Node2&#45;&gt;Node15 -->
<g id="edge14" class="edge">
<title>Node2&#45;&gt;Node15</title>
<path fill="none" stroke="midnightblue" d="M206.61,-203.62C225.79,-198.54 251.01,-191.85 274.41,-185.65"/>
<polygon fill="midnightblue" stroke="midnightblue" points="275.53,-188.97 284.3,-183.03 273.74,-182.21 275.53,-188.97"/>
</g>
<!-- Node3&#45;&gt;Node4 -->
<g id="edge3" class="edge">
<title>Node3&#45;&gt;Node4</title>
<path fill="none" stroke="midnightblue" d="M372.28,-253.69C390.26,-255.95 413.78,-258.91 434.77,-261.55"/>
<polygon fill="midnightblue" stroke="midnightblue" points="434.47,-265.04 444.83,-262.82 435.35,-258.1 434.47,-265.04"/>
</g>
<!-- Node5 -->
<g id="node5" class="node">
<title>Node5</title>
<g id="a_node5"><a xlink:href="class_graphics_1_1_image.html#af48c0e309532eb1ff36e8fdaee244da1" target="_top" xlink:title=" ">
<polygon fill="white" stroke="black" points="577.5,-326.5 577.5,-345.5 691.5,-345.5 691.5,-326.5 577.5,-326.5"/>
<text text-anchor="middle" x="634.5" y="-333.5" font-family="Helvetica,sans-Serif" font-size="10.00">Graphics::Image::Draw</text>
</a>
</g>
</g>
<!-- Node4&#45;&gt;Node5 -->
<g id="edge4" class="edge">
<title>Node4&#45;&gt;Node5</title>
<path fill="none" stroke="midnightblue" d="M500.42,-277.55C515.12,-288.46 540.68,-306.18 565,-317 570.35,-319.38 576.06,-321.53 581.82,-323.45"/>
<polygon fill="midnightblue" stroke="midnightblue" points="580.93,-326.84 591.51,-326.47 583.01,-320.15 580.93,-326.84"/>
</g>
<!-- Node11 -->
<g id="node11" class="node">
<title>Node11</title>
<g id="a_node11"><a xlink:href="class_graphics_1_1_resource_manager.html#a712cf513dbda24deb3a7fcea7157003a" target="_top" xlink:title=" ">
<polygon fill="white" stroke="black" points="565,-277 565,-307 704,-307 704,-277 565,-277"/>
<text text-anchor="start" x="573" y="-295" font-family="Helvetica,sans-Serif" font-size="10.00">Graphics::ResourceManager</text>
<text text-anchor="middle" x="634.5" y="-284" font-family="Helvetica,sans-Serif" font-size="10.00">::GetImage</text>
</a>
</g>
</g>
<!-- Node4&#45;&gt;Node11 -->
<g id="edge10" class="edge">
<title>Node4&#45;&gt;Node11</title>
<path fill="none" stroke="midnightblue" d="M529.31,-274.81C537.36,-276.14 546.06,-277.58 554.87,-279.03"/>
<polygon fill="midnightblue" stroke="midnightblue" points="554.4,-282.5 564.84,-280.67 555.54,-275.59 554.4,-282.5"/>
</g>
<!-- Node12 -->
<g id="node12" class="node">
<title>Node12</title>
<g id="a_node12"><a xlink:href="class_graphics_1_1_resource_manager.html#a34d11294bd090580de46ab34f303c2ab" target="_top" xlink:title=" ">
<polygon fill="white" stroke="black" points="565,-228 565,-258 704,-258 704,-228 565,-228"/>
<text text-anchor="start" x="573" y="-246" font-family="Helvetica,sans-Serif" font-size="10.00">Graphics::ResourceManager</text>
<text text-anchor="middle" x="634.5" y="-235" font-family="Helvetica,sans-Serif" font-size="10.00">::GetShader</text>
</a>
</g>
</g>
<!-- Node4&#45;&gt;Node12 -->
<g id="edge11" class="edge">
<title>Node4&#45;&gt;Node12</title>
<path fill="none" stroke="midnightblue" d="M529.31,-260.9C537.36,-259.52 546.06,-258.02 554.87,-256.51"/>
<polygon fill="midnightblue" stroke="midnightblue" points="555.57,-259.94 564.84,-254.8 554.39,-253.04 555.57,-259.94"/>
</g>
<!-- Node4&#45;&gt;Node13 -->
<g id="edge12" class="edge">
<title>Node4&#45;&gt;Node13</title>
<path fill="none" stroke="midnightblue" d="M501.11,-258.4C516.04,-247.79 541.41,-230.64 565,-219 569.31,-216.87 573.86,-214.82 578.47,-212.88"/>
<polygon fill="midnightblue" stroke="midnightblue" points="580,-216.03 587.96,-209.04 577.38,-209.54 580,-216.03"/>
</g>
<!-- Node6 -->
<g id="node6" class="node">
<title>Node6</title>
<g id="a_node6"><a xlink:href="class_graphics_1_1_quadrangle.html#a7a061a60b5bff19feb5fd317d06495f0" target="_top" xlink:title=" ">
<polygon fill="white" stroke="black" points="740,-343 740,-373 850,-373 850,-343 740,-343"/>
<text text-anchor="start" x="748" y="-361" font-family="Helvetica,sans-Serif" font-size="10.00">Graphics::Quadrangle</text>
<text text-anchor="middle" x="795" y="-350" font-family="Helvetica,sans-Serif" font-size="10.00">::Draw</text>
</a>
</g>
</g>
<!-- Node5&#45;&gt;Node6 -->
<g id="edge5" class="edge">
<title>Node5&#45;&gt;Node6</title>
<path fill="none" stroke="midnightblue" d="M691.83,-343.82C704.18,-345.53 717.36,-347.36 729.99,-349.12"/>
<polygon fill="midnightblue" stroke="midnightblue" points="729.59,-352.59 739.98,-350.5 730.56,-345.66 729.59,-352.59"/>
</g>
<!-- Node9 -->
<g id="node9" class="node">
<title>Node9</title>
<g id="a_node9"><a xlink:href="class_graphics_1_1_shader.html#aa5da414808337285b38565f60c3d7cbd" target="_top" xlink:title=" ">
<polygon fill="white" stroke="black" points="740,-304.5 740,-323.5 850,-323.5 850,-304.5 740,-304.5"/>
<text text-anchor="middle" x="795" y="-311.5" font-family="Helvetica,sans-Serif" font-size="10.00">Graphics::Shader::Set</text>
</a>
</g>
</g>
<!-- Node5&#45;&gt;Node9 -->
<g id="edge8" class="edge">
<title>Node5&#45;&gt;Node9</title>
<path fill="none" stroke="midnightblue" d="M691.83,-328.18C704.18,-326.47 717.36,-324.64 729.99,-322.88"/>
<polygon fill="midnightblue" stroke="midnightblue" points="730.56,-326.34 739.98,-321.5 729.59,-319.41 730.56,-326.34"/>
</g>
<!-- Node7 -->
<g id="node7" class="node">
<title>Node7</title>
<g id="a_node7"><a xlink:href="class_graphics_1_1_shader.html#a63bfd523754bb6b2224aa7a48c65a504" target="_top" xlink:title=" ">
<polygon fill="white" stroke="black" points="886,-345.5 886,-364.5 1005,-364.5 1005,-345.5 886,-345.5"/>
<text text-anchor="middle" x="945.5" y="-352.5" font-family="Helvetica,sans-Serif" font-size="10.00">Graphics::Shader::GetId</text>
</a>
</g>
</g>
<!-- Node6&#45;&gt;Node7 -->
<g id="edge6" class="edge">
<title>Node6&#45;&gt;Node7</title>
<path fill="none" stroke="midnightblue" d="M850.03,-356.91C858.44,-356.74 867.21,-356.56 875.89,-356.39"/>
<polygon fill="midnightblue" stroke="midnightblue" points="876.07,-359.88 886,-356.18 875.93,-352.88 876.07,-359.88"/>
</g>
<!-- Node8 -->
<g id="node8" class="node">
<title>Node8</title>
<g id="a_node8"><a xlink:href="class_graphics_1_1_shader.html#a11a2de17d1d077ec34acd4f7cd57f6b1" target="_top" xlink:title=" ">
<polygon fill="white" stroke="black" points="889,-383.5 889,-402.5 1002,-402.5 1002,-383.5 889,-383.5"/>
<text text-anchor="middle" x="945.5" y="-390.5" font-family="Helvetica,sans-Serif" font-size="10.00">Graphics::Shader::Use</text>
</a>
</g>
</g>
<!-- Node6&#45;&gt;Node8 -->
<g id="edge7" class="edge">
<title>Node6&#45;&gt;Node8</title>
<path fill="none" stroke="midnightblue" d="M850.03,-370.73C864.31,-374.1 879.67,-377.72 893.77,-381.04"/>
<polygon fill="midnightblue" stroke="midnightblue" points="893.25,-384.52 903.78,-383.4 894.85,-377.7 893.25,-384.52"/>
</g>
<!-- Node10 -->
<g id="node10" class="node">
<title>Node10</title>
<g id="a_node10"><a xlink:href="class_graphics_1_1_image.html#aab55feadb4b66e0fd78b5f54a6fadde2" target="_top" xlink:title=" ">
<polygon fill="white" stroke="black" points="887.5,-304.5 887.5,-323.5 1003.5,-323.5 1003.5,-304.5 887.5,-304.5"/>
<text text-anchor="middle" x="945.5" y="-311.5" font-family="Helvetica,sans-Serif" font-size="10.00">Graphics::Image::GetId</text>
</a>
</g>
</g>
<!-- Node9&#45;&gt;Node10 -->
<g id="edge9" class="edge">
<title>Node9&#45;&gt;Node10</title>
<path fill="none" stroke="midnightblue" d="M850.03,-314C858.83,-314 868.04,-314 877.11,-314"/>
<polygon fill="midnightblue" stroke="midnightblue" points="877.26,-317.5 887.26,-314 877.26,-310.5 877.26,-317.5"/>
</g>
<!-- Node19 -->
<g id="node19" class="node">
<title>Node19</title>
<g id="a_node19"><a xlink:href="class_graphics_1_1_window.html#a9904449165571eff36b106148ec1279f" target="_top" xlink:title=" ">
<polygon fill="white" stroke="black" points="281,-0.5 281,-19.5 403,-19.5 403,-0.5 281,-0.5"/>
<text text-anchor="middle" x="342" y="-7.5" font-family="Helvetica,sans-Serif" font-size="10.00">Graphics::Window::Clear</text>
</a>
</g>
</g>
<!-- Node18&#45;&gt;Node19 -->
<g id="edge22" class="edge">
<title>Node18&#45;&gt;Node19</title>
<path fill="none" stroke="midnightblue" d="M239.18,-10C249.44,-10 260.11,-10 270.51,-10"/>
<polygon fill="midnightblue" stroke="midnightblue" points="270.8,-13.5 280.8,-10 270.8,-6.5 270.8,-13.5"/>
</g>
</g>
</svg>
