<?xml version="1.0" encoding="UTF-8" standalone="no"?>
<!DOCTYPE svg PUBLIC "-//W3C//DTD SVG 1.1//EN"
 "http://www.w3.org/Graphics/SVG/1.1/DTD/svg11.dtd">
<!-- Generated by graphviz version 2.47.0 (20210407.0042)
 -->
<!-- Title: Drawable::Draw Pages: 1 -->
<svg width="568pt" height="233pt"
 viewBox="0.00 0.00 568.00 232.50" xmlns="http://www.w3.org/2000/svg" xmlns:xlink="http://www.w3.org/1999/xlink">
<g id="graph0" class="graph" transform="scale(1 1) rotate(0) translate(4 228.5)">
<title>Drawable::Draw</title>
<polygon fill="white" stroke="transparent" points="-4,4 -4,-228.5 564,-228.5 564,4 -4,4"/>
<!-- Node1 -->
<g id="node1" class="node">
<title>Node1</title>
<g id="a_node1"><a xlink:title=" ">
<polygon fill="#bfbfbf" stroke="black" points="0,-79 0,-98 84,-98 84,-79 0,-79"/>
<text text-anchor="middle" x="42" y="-86" font-family="Helvetica,sans-Serif" font-size="10.00">Drawable::Draw</text>
</a>
</g>
</g>
<!-- Node2 -->
<g id="node2" class="node">
<title>Node2</title>
<g id="a_node2"><a xlink:href="class_graphics_1_1_image.html#af48c0e309532eb1ff36e8fdaee244da1" target="_top" xlink:title=" ">
<polygon fill="white" stroke="black" points="132.5,-148 132.5,-167 246.5,-167 246.5,-148 132.5,-148"/>
<text text-anchor="middle" x="189.5" y="-155" font-family="Helvetica,sans-Serif" font-size="10.00">Graphics::Image::Draw</text>
</a>
</g>
</g>
<!-- Node1&#45;&gt;Node2 -->
<g id="edge1" class="edge">
<title>Node1&#45;&gt;Node2</title>
<path fill="none" stroke="midnightblue" d="M55.71,-98.19C70.47,-109.05 95.9,-126.58 120,-137.5 126.07,-140.25 132.6,-142.72 139.15,-144.92"/>
<polygon fill="midnightblue" stroke="midnightblue" points="138.1,-148.26 148.69,-147.94 140.21,-141.59 138.1,-148.26"/>
</g>
<!-- Node8 -->
<g id="node8" class="node">
<title>Node8</title>
<g id="a_node8"><a xlink:href="class_graphics_1_1_resource_manager.html#a712cf513dbda24deb3a7fcea7157003a" target="_top" xlink:title=" ">
<polygon fill="white" stroke="black" points="120,-98.5 120,-128.5 259,-128.5 259,-98.5 120,-98.5"/>
<text text-anchor="start" x="128" y="-116.5" font-family="Helvetica,sans-Serif" font-size="10.00">Graphics::ResourceManager</text>
<text text-anchor="middle" x="189.5" y="-105.5" font-family="Helvetica,sans-Serif" font-size="10.00">::GetImage</text>
</a>
</g>
</g>
<!-- Node1&#45;&gt;Node8 -->
<g id="edge7" class="edge">
<title>Node1&#45;&gt;Node8</title>
<path fill="none" stroke="midnightblue" d="M84.31,-95.6C92.36,-96.98 101.06,-98.48 109.87,-99.99"/>
<polygon fill="midnightblue" stroke="midnightblue" points="109.39,-103.46 119.84,-101.7 110.57,-96.56 109.39,-103.46"/>
</g>
<!-- Node9 -->
<g id="node9" class="node">
<title>Node9</title>
<g id="a_node9"><a xlink:href="class_graphics_1_1_resource_manager.html#a34d11294bd090580de46ab34f303c2ab" target="_top" xlink:title=" ">
<polygon fill="white" stroke="black" points="120,-49.5 120,-79.5 259,-79.5 259,-49.5 120,-49.5"/>
<text text-anchor="start" x="128" y="-67.5" font-family="Helvetica,sans-Serif" font-size="10.00">Graphics::ResourceManager</text>
<text text-anchor="middle" x="189.5" y="-56.5" font-family="Helvetica,sans-Serif" font-size="10.00">::GetShader</text>
</a>
</g>
</g>
<!-- Node1&#45;&gt;Node9 -->
<g id="edge8" class="edge">
<title>Node1&#45;&gt;Node9</title>
<path fill="none" stroke="midnightblue" d="M84.31,-81.69C92.36,-80.36 101.06,-78.92 109.87,-77.47"/>
<polygon fill="midnightblue" stroke="midnightblue" points="110.54,-80.91 119.84,-75.83 109.4,-74 110.54,-80.91"/>
</g>
<!-- Node10 -->
<g id="node10" class="node">
<title>Node10</title>
<g id="a_node10"><a xlink:href="class_graphics_1_1_resource_manager.html#a2bf0311bf4f8431618eb13706a26a5f1" target="_top" xlink:title=" ">
<polygon fill="white" stroke="black" points="120,-0.5 120,-30.5 259,-30.5 259,-0.5 120,-0.5"/>
<text text-anchor="start" x="128" y="-18.5" font-family="Helvetica,sans-Serif" font-size="10.00">Graphics::ResourceManager</text>
<text text-anchor="middle" x="189.5" y="-7.5" font-family="Helvetica,sans-Serif" font-size="10.00">::GetWindow</text>
</a>
</g>
</g>
<!-- Node1&#45;&gt;Node10 -->
<g id="edge9" class="edge">
<title>Node1&#45;&gt;Node10</title>
<path fill="none" stroke="midnightblue" d="M56.09,-78.85C70.99,-68.18 96.34,-50.99 120,-39.5 123.6,-37.75 127.35,-36.07 131.17,-34.47"/>
<polygon fill="midnightblue" stroke="midnightblue" points="132.77,-37.6 140.76,-30.64 130.17,-31.1 132.77,-37.6"/>
</g>
<!-- Node3 -->
<g id="node3" class="node">
<title>Node3</title>
<g id="a_node3"><a xlink:href="class_graphics_1_1_quadrangle.html#a7a061a60b5bff19feb5fd317d06495f0" target="_top" xlink:title=" ">
<polygon fill="white" stroke="black" points="295,-164.5 295,-194.5 405,-194.5 405,-164.5 295,-164.5"/>
<text text-anchor="start" x="303" y="-182.5" font-family="Helvetica,sans-Serif" font-size="10.00">Graphics::Quadrangle</text>
<text text-anchor="middle" x="350" y="-171.5" font-family="Helvetica,sans-Serif" font-size="10.00">::Draw</text>
</a>
</g>
</g>
<!-- Node2&#45;&gt;Node3 -->
<g id="edge2" class="edge">
<title>Node2&#45;&gt;Node3</title>
<path fill="none" stroke="midnightblue" d="M246.83,-165.32C259.18,-167.03 272.36,-168.86 284.99,-170.62"/>
<polygon fill="midnightblue" stroke="midnightblue" points="284.59,-174.09 294.98,-172 285.56,-167.16 284.59,-174.09"/>
</g>
<!-- Node6 -->
<g id="node6" class="node">
<title>Node6</title>
<g id="a_node6"><a xlink:href="class_graphics_1_1_shader.html#aa5da414808337285b38565f60c3d7cbd" target="_top" xlink:title=" ">
<polygon fill="white" stroke="black" points="295,-126 295,-145 405,-145 405,-126 295,-126"/>
<text text-anchor="middle" x="350" y="-133" font-family="Helvetica,sans-Serif" font-size="10.00">Graphics::Shader::Set</text>
</a>
</g>
</g>
<!-- Node2&#45;&gt;Node6 -->
<g id="edge5" class="edge">
<title>Node2&#45;&gt;Node6</title>
<path fill="none" stroke="midnightblue" d="M246.83,-149.68C259.18,-147.97 272.36,-146.14 284.99,-144.38"/>
<polygon fill="midnightblue" stroke="midnightblue" points="285.56,-147.84 294.98,-143 284.59,-140.91 285.56,-147.84"/>
</g>
<!-- Node4 -->
<g id="node4" class="node">
<title>Node4</title>
<g id="a_node4"><a xlink:href="class_graphics_1_1_shader.html#a63bfd523754bb6b2224aa7a48c65a504" target="_top" xlink:title=" ">
<polygon fill="white" stroke="black" points="441,-205 441,-224 560,-224 560,-205 441,-205"/>
<text text-anchor="middle" x="500.5" y="-212" font-family="Helvetica,sans-Serif" font-size="10.00">Graphics::Shader::GetId</text>
</a>
</g>
</g>
<!-- Node3&#45;&gt;Node4 -->
<g id="edge3" class="edge">
<title>Node3&#45;&gt;Node4</title>
<path fill="none" stroke="midnightblue" d="M405.03,-192.23C419.31,-195.6 434.67,-199.22 448.77,-202.54"/>
<polygon fill="midnightblue" stroke="midnightblue" points="448.25,-206.02 458.78,-204.9 449.85,-199.2 448.25,-206.02"/>
</g>
<!-- Node5 -->
<g id="node5" class="node">
<title>Node5</title>
<g id="a_node5"><a xlink:href="class_graphics_1_1_shader.html#a11a2de17d1d077ec34acd4f7cd57f6b1" target="_top" xlink:title=" ">
<polygon fill="white" stroke="black" points="444,-167 444,-186 557,-186 557,-167 444,-167"/>
<text text-anchor="middle" x="500.5" y="-174" font-family="Helvetica,sans-Serif" font-size="10.00">Graphics::Shader::Use</text>
</a>
</g>
</g>
<!-- Node3&#45;&gt;Node5 -->
<g id="edge4" class="edge">
<title>Node3&#45;&gt;Node5</title>
<path fill="none" stroke="midnightblue" d="M405.03,-178.41C414.29,-178.22 424,-178.03 433.53,-177.83"/>
<polygon fill="midnightblue" stroke="midnightblue" points="433.83,-181.33 443.76,-177.63 433.69,-174.33 433.83,-181.33"/>
</g>
<!-- Node7 -->
<g id="node7" class="node">
<title>Node7</title>
<g id="a_node7"><a xlink:href="class_graphics_1_1_image.html#aab55feadb4b66e0fd78b5f54a6fadde2" target="_top" xlink:title=" ">
<polygon fill="white" stroke="black" points="442.5,-126 442.5,-145 558.5,-145 558.5,-126 442.5,-126"/>
<text text-anchor="middle" x="500.5" y="-133" font-family="Helvetica,sans-Serif" font-size="10.00">Graphics::Image::GetId</text>
</a>
</g>
</g>
<!-- Node6&#45;&gt;Node7 -->
<g id="edge6" class="edge">
<title>Node6&#45;&gt;Node7</title>
<path fill="none" stroke="midnightblue" d="M405.03,-135.5C413.83,-135.5 423.04,-135.5 432.11,-135.5"/>
<polygon fill="midnightblue" stroke="midnightblue" points="432.26,-139 442.26,-135.5 432.26,-132 432.26,-139"/>
</g>
</g>
</svg>
