<?xml version="1.0" encoding="UTF-8" standalone="no"?>
<!DOCTYPE svg PUBLIC "-//W3C//DTD SVG 1.1//EN"
 "http://www.w3.org/Graphics/SVG/1.1/DTD/svg11.dtd">
<!-- Generated by graphviz version 2.47.0 (20210407.0042)
 -->
<!-- Title: Graphics::ResourceManager::GetShader Pages: 1 -->
<svg width="696pt" height="154pt"
 viewBox="0.00 0.00 696.00 153.50" xmlns="http://www.w3.org/2000/svg" xmlns:xlink="http://www.w3.org/1999/xlink">
<g id="graph0" class="graph" transform="scale(1 1) rotate(0) translate(4 149.5)">
<title>Graphics::ResourceManager::GetShader</title>
<polygon fill="white" stroke="transparent" points="-4,4 -4,-149.5 692,-149.5 692,4 -4,4"/>
<!-- Node1 -->
<g id="node1" class="node">
<title>Node1</title>
<g id="a_node1"><a xlink:title=" ">
<polygon fill="#bfbfbf" stroke="black" points="549,-63.5 549,-93.5 688,-93.5 688,-63.5 549,-63.5"/>
<text text-anchor="start" x="557" y="-81.5" font-family="Helvetica,sans-Serif" font-size="10.00">Graphics::ResourceManager</text>
<text text-anchor="middle" x="618.5" y="-70.5" font-family="Helvetica,sans-Serif" font-size="10.00">::GetShader</text>
</a>
</g>
</g>
<!-- Node2 -->
<g id="node2" class="node">
<title>Node2</title>
<g id="a_node2"><a xlink:href="class_g_u_i_1_1_inventory.html#a21d5b891441704d9eed170c5608cbb5e" target="_top" xlink:title=" ">
<polygon fill="white" stroke="black" points="395,-126 395,-145 501,-145 501,-126 395,-126"/>
<text text-anchor="middle" x="448" y="-133" font-family="Helvetica,sans-Serif" font-size="10.00">GUI::Inventory::Draw</text>
</a>
</g>
</g>
<!-- Node1&#45;&gt;Node2 -->
<g id="edge1" class="edge">
<title>Node1&#45;&gt;Node2</title>
<path fill="none" stroke="midnightblue" d="M568.57,-96.98C551.11,-103.39 531.25,-110.48 513,-116.5 503.2,-119.73 492.48,-123.01 482.67,-125.92"/>
<polygon fill="midnightblue" stroke="midnightblue" points="569.83,-100.25 578,-93.5 567.4,-93.68 569.83,-100.25"/>
</g>
<!-- Node3 -->
<g id="node3" class="node">
<title>Node3</title>
<g id="a_node3"><a xlink:href="class_g_u_i_1_1_item.html#ab089785456c77b4ff16f15dc7b6bd8fa" target="_top" xlink:title=" ">
<polygon fill="white" stroke="black" points="405,-88 405,-107 491,-107 491,-88 405,-88"/>
<text text-anchor="middle" x="448" y="-95" font-family="Helvetica,sans-Serif" font-size="10.00">GUI::Item::Draw</text>
</a>
</g>
</g>
<!-- Node1&#45;&gt;Node3 -->
<g id="edge2" class="edge">
<title>Node1&#45;&gt;Node3</title>
<path fill="none" stroke="midnightblue" d="M538.83,-87.37C522.46,-89.22 505.81,-91.09 491.36,-92.72"/>
<polygon fill="midnightblue" stroke="midnightblue" points="539.42,-90.83 548.96,-86.23 538.64,-83.87 539.42,-90.83"/>
</g>
<!-- Node4 -->
<g id="node4" class="node">
<title>Node4</title>
<g id="a_node4"><a xlink:href="class_drawable.html#ac46f25a963a3fe3e9176461d61d213c7" target="_top" xlink:title=" ">
<polygon fill="white" stroke="black" points="406,-50 406,-69 490,-69 490,-50 406,-50"/>
<text text-anchor="middle" x="448" y="-57" font-family="Helvetica,sans-Serif" font-size="10.00">Drawable::Draw</text>
</a>
</g>
</g>
<!-- Node1&#45;&gt;Node4 -->
<g id="edge3" class="edge">
<title>Node1&#45;&gt;Node4</title>
<path fill="none" stroke="midnightblue" d="M538.64,-69.61C521.96,-67.73 505,-65.81 490.38,-64.17"/>
<polygon fill="midnightblue" stroke="midnightblue" points="538.64,-73.13 548.96,-70.77 539.42,-66.17 538.64,-73.13"/>
</g>
<!-- Node9 -->
<g id="node9" class="node">
<title>Node9</title>
<g id="a_node9"><a xlink:href="namespace_graphics_1_1_resource_parser.html#a6a538c07babc9bbaf884e0aeb9654fe0" target="_top" xlink:title=" ">
<polygon fill="white" stroke="black" points="383,-0.5 383,-30.5 513,-30.5 513,-0.5 383,-0.5"/>
<text text-anchor="start" x="391" y="-18.5" font-family="Helvetica,sans-Serif" font-size="10.00">Graphics::ResourceParser</text>
<text text-anchor="middle" x="448" y="-7.5" font-family="Helvetica,sans-Serif" font-size="10.00">::LoadResources</text>
</a>
</g>
</g>
<!-- Node1&#45;&gt;Node9 -->
<g id="edge9" class="edge">
<title>Node1&#45;&gt;Node9</title>
<path fill="none" stroke="midnightblue" d="M567.49,-59.8C542.55,-50.48 512.78,-39.35 489.32,-30.58"/>
<polygon fill="midnightblue" stroke="midnightblue" points="566.55,-63.19 577.14,-63.41 569,-56.63 566.55,-63.19"/>
</g>
<!-- Node5 -->
<g id="node5" class="node">
<title>Node5</title>
<g id="a_node5"><a xlink:href="class_engine.html#a39f23d7f0ad86322bfdb73d4e6763005" target="_top" xlink:title=" ">
<polygon fill="white" stroke="black" points="74,-44 74,-63 147,-63 147,-44 74,-44"/>
<text text-anchor="middle" x="110.5" y="-51" font-family="Helvetica,sans-Serif" font-size="10.00">Engine::Draw</text>
</a>
</g>
</g>
<!-- Node4&#45;&gt;Node5 -->
<g id="edge4" class="edge">
<title>Node4&#45;&gt;Node5</title>
<path fill="none" stroke="midnightblue" d="M395.43,-67.46C342.06,-74.44 256.37,-82.08 183,-72.5 168.74,-70.64 153.27,-66.77 140.38,-63"/>
<polygon fill="midnightblue" stroke="midnightblue" points="396.22,-70.89 405.66,-66.08 395.28,-63.95 396.22,-70.89"/>
</g>
<!-- Node7 -->
<g id="node7" class="node">
<title>Node7</title>
<g id="a_node7"><a xlink:href="class_cell.html#ac88160c4177e146f8dd7482c4eaee4f0" target="_top" xlink:title=" ">
<polygon fill="white" stroke="black" points="287,-44 287,-63 347,-63 347,-44 287,-44"/>
<text text-anchor="middle" x="317" y="-51" font-family="Helvetica,sans-Serif" font-size="10.00">Cell::Draw</text>
</a>
</g>
</g>
<!-- Node4&#45;&gt;Node7 -->
<g id="edge6" class="edge">
<title>Node4&#45;&gt;Node7</title>
<path fill="none" stroke="midnightblue" d="M395.78,-57.12C379.33,-56.35 361.68,-55.53 347.35,-54.87"/>
<polygon fill="midnightblue" stroke="midnightblue" points="395.68,-60.62 405.83,-57.59 396,-53.62 395.68,-60.62"/>
</g>
<!-- Node6 -->
<g id="node6" class="node">
<title>Node6</title>
<g id="a_node6"><a xlink:href="main_8cpp.html#ae66f6b31b5ad750f1fe042a706a4e3d4" target="_top" xlink:title=" ">
<polygon fill="white" stroke="black" points="0,-25 0,-44 38,-44 38,-25 0,-25"/>
<text text-anchor="middle" x="19" y="-32" font-family="Helvetica,sans-Serif" font-size="10.00">main</text>
</a>
</g>
</g>
<!-- Node5&#45;&gt;Node6 -->
<g id="edge5" class="edge">
<title>Node5&#45;&gt;Node6</title>
<path fill="none" stroke="midnightblue" d="M63.95,-43.83C54.76,-41.88 45.61,-39.94 38.06,-38.33"/>
<polygon fill="midnightblue" stroke="midnightblue" points="63.36,-47.28 73.87,-45.94 64.81,-40.44 63.36,-47.28"/>
</g>
<!-- Node8 -->
<g id="node8" class="node">
<title>Node8</title>
<g id="a_node8"><a xlink:href="class_field.html#ad13d86066be42a2e10fcb9cbcc51fb0b" target="_top" xlink:title=" ">
<polygon fill="white" stroke="black" points="184.5,-44 184.5,-63 249.5,-63 249.5,-44 184.5,-44"/>
<text text-anchor="middle" x="217" y="-51" font-family="Helvetica,sans-Serif" font-size="10.00">Field::Draw</text>
</a>
</g>
</g>
<!-- Node7&#45;&gt;Node8 -->
<g id="edge7" class="edge">
<title>Node7&#45;&gt;Node8</title>
<path fill="none" stroke="midnightblue" d="M276.6,-53.5C267.62,-53.5 258.19,-53.5 249.59,-53.5"/>
<polygon fill="midnightblue" stroke="midnightblue" points="276.86,-57 286.86,-53.5 276.86,-50 276.86,-57"/>
</g>
<!-- Node8&#45;&gt;Node5 -->
<g id="edge8" class="edge">
<title>Node8&#45;&gt;Node5</title>
<path fill="none" stroke="midnightblue" d="M174.1,-53.5C165.14,-53.5 155.75,-53.5 147.05,-53.5"/>
<polygon fill="midnightblue" stroke="midnightblue" points="174.36,-57 184.36,-53.5 174.36,-50 174.36,-57"/>
</g>
<!-- Node10 -->
<g id="node10" class="node">
<title>Node10</title>
<g id="a_node10"><a xlink:href="main_8cpp.html#adb66f09c018c6ec5f3ade6acd02a5003" target="_top" xlink:title=" ">
<polygon fill="white" stroke="black" points="183,-6 183,-25 251,-25 251,-6 183,-6"/>
<text text-anchor="middle" x="217" y="-13" font-family="Helvetica,sans-Serif" font-size="10.00">Initialization</text>
</a>
</g>
</g>
<!-- Node9&#45;&gt;Node10 -->
<g id="edge10" class="edge">
<title>Node9&#45;&gt;Node10</title>
<path fill="none" stroke="midnightblue" d="M372.66,-15.5C331.62,-15.5 282.7,-15.5 251.03,-15.5"/>
<polygon fill="midnightblue" stroke="midnightblue" points="372.91,-19 382.91,-15.5 372.91,-12 372.91,-19"/>
</g>
<!-- Node10&#45;&gt;Node6 -->
<g id="edge11" class="edge">
<title>Node10&#45;&gt;Node6</title>
<path fill="none" stroke="midnightblue" d="M172.75,-19.69C130.57,-23.78 68.46,-29.8 38.08,-32.75"/>
<polygon fill="midnightblue" stroke="midnightblue" points="173.14,-23.17 182.75,-18.72 172.46,-16.2 173.14,-23.17"/>
</g>
</g>
</svg>
