<?xml version="1.0" encoding="UTF-8" standalone="no"?>
<!DOCTYPE svg PUBLIC "-//W3C//DTD SVG 1.1//EN"
 "http://www.w3.org/Graphics/SVG/1.1/DTD/svg11.dtd">
<!-- Generated by graphviz version 2.47.0 (20210407.0042)
 -->
<!-- Title: Graphics::ResourceManager::GetWindow Pages: 1 -->
<svg width="749pt" height="344pt"
 viewBox="0.00 0.00 749.00 343.67" xmlns="http://www.w3.org/2000/svg" xmlns:xlink="http://www.w3.org/1999/xlink">
<g id="graph0" class="graph" transform="scale(1 1) rotate(0) translate(4 339.67)">
<title>Graphics::ResourceManager::GetWindow</title>
<polygon fill="white" stroke="transparent" points="-4,4 -4,-339.67 745,-339.67 745,4 -4,4"/>
<!-- Node1 -->
<g id="node1" class="node">
<title>Node1</title>
<g id="a_node1"><a xlink:title=" ">
<polygon fill="#bfbfbf" stroke="black" points="602,-162.37 602,-192.37 741,-192.37 741,-162.37 602,-162.37"/>
<text text-anchor="start" x="610" y="-180.37" font-family="Helvetica,sans-Serif" font-size="10.00">Graphics::ResourceManager</text>
<text text-anchor="middle" x="671.5" y="-169.37" font-family="Helvetica,sans-Serif" font-size="10.00">::GetWindow</text>
</a>
</g>
</g>
<!-- Node2 -->
<g id="node2" class="node">
<title>Node2</title>
<g id="a_node2"><a xlink:href="class_engine.html#a39f23d7f0ad86322bfdb73d4e6763005" target="_top" xlink:title=" ">
<polygon fill="white" stroke="black" points="74,-148.87 74,-167.87 147,-167.87 147,-148.87 74,-148.87"/>
<text text-anchor="middle" x="110.5" y="-155.87" font-family="Helvetica,sans-Serif" font-size="10.00">Engine::Draw</text>
</a>
</g>
</g>
<!-- Node1&#45;&gt;Node2 -->
<g id="edge1" class="edge">
<title>Node1&#45;&gt;Node2</title>
<path fill="none" stroke="midnightblue" d="M591.78,-172.11C517.6,-167.43 403.31,-160.94 304,-158.37 249.38,-156.95 186,-157.35 147.34,-157.81"/>
<polygon fill="midnightblue" stroke="midnightblue" points="591.78,-175.61 601.98,-172.75 592.22,-168.63 591.78,-175.61"/>
</g>
<!-- Node3 -->
<g id="node3" class="node">
<title>Node3</title>
<g id="a_node3"><a xlink:href="main_8cpp.html#ae66f6b31b5ad750f1fe042a706a4e3d4" target="_top" xlink:title=" ">
<polygon fill="white" stroke="black" points="0,-114.87 0,-133.87 38,-133.87 38,-114.87 0,-114.87"/>
<text text-anchor="middle" x="19" y="-121.87" font-family="Helvetica,sans-Serif" font-size="10.00">main</text>
</a>
</g>
</g>
<!-- Node1&#45;&gt;Node3 -->
<g id="edge15" class="edge">
<title>Node1&#45;&gt;Node3</title>
<path fill="none" stroke="midnightblue" d="M659.04,-201.93C643.04,-233.11 610.86,-285.81 566,-310.37 489.62,-352.19 458.08,-329.37 371,-329.37 371,-329.37 371,-329.37 242.5,-329.37 125.63,-329.37 43.84,-174.51 24.43,-133.98"/>
<polygon fill="midnightblue" stroke="midnightblue" points="662.35,-203.14 663.66,-192.62 656.08,-200.02 662.35,-203.14"/>
</g>
<!-- Node4 -->
<g id="node4" class="node">
<title>Node4</title>
<g id="a_node4"><a xlink:href="class_g_u_i_1_1_inventory.html#a21d5b891441704d9eed170c5608cbb5e" target="_top" xlink:title=" ">
<polygon fill="white" stroke="black" points="448,-243.87 448,-262.87 554,-262.87 554,-243.87 448,-243.87"/>
<text text-anchor="middle" x="501" y="-250.87" font-family="Helvetica,sans-Serif" font-size="10.00">GUI::Inventory::Draw</text>
</a>
</g>
</g>
<!-- Node1&#45;&gt;Node4 -->
<g id="edge3" class="edge">
<title>Node1&#45;&gt;Node4</title>
<path fill="none" stroke="midnightblue" d="M637.54,-197.68C617.4,-209.5 590.82,-224.05 566,-234.37 557.44,-237.93 547.98,-241.12 539.02,-243.82"/>
<polygon fill="midnightblue" stroke="midnightblue" points="639.5,-200.59 646.31,-192.47 635.93,-194.57 639.5,-200.59"/>
</g>
<!-- Node5 -->
<g id="node5" class="node">
<title>Node5</title>
<g id="a_node5"><a xlink:href="class_g_u_i_1_1_item.html#ab089785456c77b4ff16f15dc7b6bd8fa" target="_top" xlink:title=" ">
<polygon fill="white" stroke="black" points="458,-205.87 458,-224.87 544,-224.87 544,-205.87 458,-205.87"/>
<text text-anchor="middle" x="501" y="-212.87" font-family="Helvetica,sans-Serif" font-size="10.00">GUI::Item::Draw</text>
</a>
</g>
</g>
<!-- Node1&#45;&gt;Node5 -->
<g id="edge4" class="edge">
<title>Node1&#45;&gt;Node5</title>
<path fill="none" stroke="midnightblue" d="M593.94,-194.63C576.9,-198.48 559.44,-202.41 544.38,-205.81"/>
<polygon fill="midnightblue" stroke="midnightblue" points="594.92,-198 603.9,-192.39 593.38,-191.17 594.92,-198"/>
</g>
<!-- Node6 -->
<g id="node6" class="node">
<title>Node6</title>
<g id="a_node6"><a xlink:href="class_field.html#ad13d86066be42a2e10fcb9cbcc51fb0b" target="_top" xlink:title=" ">
<polygon fill="white" stroke="black" points="211,-167.87 211,-186.87 276,-186.87 276,-167.87 211,-167.87"/>
<text text-anchor="middle" x="243.5" y="-174.87" font-family="Helvetica,sans-Serif" font-size="10.00">Field::Draw</text>
</a>
</g>
</g>
<!-- Node1&#45;&gt;Node6 -->
<g id="edge5" class="edge">
<title>Node1&#45;&gt;Node6</title>
<path fill="none" stroke="midnightblue" d="M591.46,-177.37C496.6,-177.37 342.08,-177.37 276.04,-177.37"/>
<polygon fill="midnightblue" stroke="midnightblue" points="591.58,-180.87 601.58,-177.37 591.58,-173.87 591.58,-180.87"/>
</g>
<!-- Node7 -->
<g id="node7" class="node">
<title>Node7</title>
<g id="a_node7"><a xlink:href="class_drawable.html#ac46f25a963a3fe3e9176461d61d213c7" target="_top" xlink:title=" ">
<polygon fill="white" stroke="black" points="459,-281.87 459,-300.87 543,-300.87 543,-281.87 459,-281.87"/>
<text text-anchor="middle" x="501" y="-288.87" font-family="Helvetica,sans-Serif" font-size="10.00">Drawable::Draw</text>
</a>
</g>
</g>
<!-- Node1&#45;&gt;Node7 -->
<g id="edge7" class="edge">
<title>Node1&#45;&gt;Node7</title>
<path fill="none" stroke="midnightblue" d="M651.06,-200.18C631.58,-221.69 599.71,-253.37 566,-272.37 558.93,-276.35 550.94,-279.58 543.07,-282.16"/>
<polygon fill="midnightblue" stroke="midnightblue" points="653.87,-202.28 657.9,-192.48 648.64,-197.64 653.87,-202.28"/>
</g>
<!-- Node9 -->
<g id="node9" class="node">
<title>Node9</title>
<g id="a_node9"><a xlink:href="class_g_u_i_1_1_inventory.html#a8fe3124d38c7228c1553d555bca1b5a4" target="_top" xlink:title=" ">
<polygon fill="white" stroke="black" points="439.5,-91.87 439.5,-110.87 562.5,-110.87 562.5,-91.87 439.5,-91.87"/>
<text text-anchor="middle" x="501" y="-98.87" font-family="Helvetica,sans-Serif" font-size="10.00">GUI::Inventory::Inventory</text>
</a>
</g>
</g>
<!-- Node1&#45;&gt;Node9 -->
<g id="edge11" class="edge">
<title>Node1&#45;&gt;Node9</title>
<path fill="none" stroke="midnightblue" d="M633.08,-157.58C613.35,-147.45 588.62,-135.21 566,-125.37 554.14,-120.21 540.78,-115.09 529.34,-110.92"/>
<polygon fill="midnightblue" stroke="midnightblue" points="631.55,-160.73 642.04,-162.22 634.77,-154.51 631.55,-160.73"/>
</g>
<!-- Node10 -->
<g id="node10" class="node">
<title>Node10</title>
<g id="a_node10"><a xlink:href="namespace_graphics_1_1_resource_parser.html#a6a538c07babc9bbaf884e0aeb9654fe0" target="_top" xlink:title=" ">
<polygon fill="white" stroke="black" points="436,-42.37 436,-72.37 566,-72.37 566,-42.37 436,-42.37"/>
<text text-anchor="start" x="444" y="-60.37" font-family="Helvetica,sans-Serif" font-size="10.00">Graphics::ResourceParser</text>
<text text-anchor="middle" x="501" y="-49.37" font-family="Helvetica,sans-Serif" font-size="10.00">::LoadResources</text>
</a>
</g>
</g>
<!-- Node1&#45;&gt;Node10 -->
<g id="edge12" class="edge">
<title>Node1&#45;&gt;Node10</title>
<path fill="none" stroke="midnightblue" d="M650.36,-154.82C630.59,-133.77 598.7,-102.65 566,-82.37 560.02,-78.66 553.4,-75.33 546.74,-72.41"/>
<polygon fill="midnightblue" stroke="midnightblue" points="647.96,-157.38 657.32,-162.35 653.1,-152.63 647.96,-157.38"/>
</g>
<!-- Node12 -->
<g id="node12" class="node">
<title>Node12</title>
<g id="a_node12"><a xlink:href="class_event_handler.html#a53ee17f2156ec5ad0769743f39ea259d" target="_top" xlink:title=" ">
<polygon fill="white" stroke="black" points="183,-9.37 183,-39.37 304,-39.37 304,-9.37 183,-9.37"/>
<text text-anchor="start" x="191" y="-27.37" font-family="Helvetica,sans-Serif" font-size="10.00">EventHandler::TriggerAll</text>
<text text-anchor="middle" x="243.5" y="-16.37" font-family="Helvetica,sans-Serif" font-size="10.00">Events</text>
</a>
</g>
</g>
<!-- Node1&#45;&gt;Node12 -->
<g id="edge16" class="edge">
<title>Node1&#45;&gt;Node12</title>
<path fill="none" stroke="midnightblue" d="M661.04,-152.67C646.48,-118.54 614.99,-58.23 566,-32.37 483.54,11.15 371.85,1.3 304.16,-10.82"/>
<polygon fill="midnightblue" stroke="midnightblue" points="657.98,-154.44 665.02,-162.36 664.46,-151.78 657.98,-154.44"/>
</g>
<!-- Node2&#45;&gt;Node3 -->
<g id="edge2" class="edge">
<title>Node2&#45;&gt;Node3</title>
<path fill="none" stroke="midnightblue" d="M74.42,-145.04C61.99,-140.32 48.51,-135.2 38.08,-131.24"/>
<polygon fill="midnightblue" stroke="midnightblue" points="73.5,-148.44 84.09,-148.72 75.99,-141.89 73.5,-148.44"/>
</g>
<!-- Node6&#45;&gt;Node2 -->
<g id="edge6" class="edge">
<title>Node6&#45;&gt;Node2</title>
<path fill="none" stroke="midnightblue" d="M200.45,-171.27C183.24,-168.77 163.55,-165.92 147.07,-163.53"/>
<polygon fill="midnightblue" stroke="midnightblue" points="200.39,-174.8 210.79,-172.77 201.39,-167.87 200.39,-174.8"/>
</g>
<!-- Node7&#45;&gt;Node2 -->
<g id="edge8" class="edge">
<title>Node7&#45;&gt;Node2</title>
<path fill="none" stroke="midnightblue" d="M448.98,-280.82C417.35,-273.9 376.03,-264.15 340,-253.37 268.88,-232.09 250.83,-226.53 183,-196.37 163.6,-187.74 142.21,-176.07 127.93,-167.95"/>
<polygon fill="midnightblue" stroke="midnightblue" points="448.37,-284.27 458.88,-282.97 449.85,-277.43 448.37,-284.27"/>
</g>
<!-- Node8 -->
<g id="node8" class="node">
<title>Node8</title>
<g id="a_node8"><a xlink:href="class_cell.html#ac88160c4177e146f8dd7482c4eaee4f0" target="_top" xlink:title=" ">
<polygon fill="white" stroke="black" points="340,-224.87 340,-243.87 400,-243.87 400,-224.87 340,-224.87"/>
<text text-anchor="middle" x="370" y="-231.87" font-family="Helvetica,sans-Serif" font-size="10.00">Cell::Draw</text>
</a>
</g>
</g>
<!-- Node7&#45;&gt;Node8 -->
<g id="edge9" class="edge">
<title>Node7&#45;&gt;Node8</title>
<path fill="none" stroke="midnightblue" d="M452.69,-278.73C446.99,-276.8 441.31,-274.67 436,-272.37 417.77,-264.47 398.27,-252.55 385.44,-244.18"/>
<polygon fill="midnightblue" stroke="midnightblue" points="451.64,-282.07 462.24,-281.8 453.78,-275.41 451.64,-282.07"/>
</g>
<!-- Node8&#45;&gt;Node6 -->
<g id="edge10" class="edge">
<title>Node8&#45;&gt;Node6</title>
<path fill="none" stroke="midnightblue" d="M338.95,-220.61C316.2,-210.2 285.54,-196.16 265.41,-186.94"/>
<polygon fill="midnightblue" stroke="midnightblue" points="337.61,-223.85 348.16,-224.83 340.53,-217.48 337.61,-223.85"/>
</g>
<!-- Node11 -->
<g id="node11" class="node">
<title>Node11</title>
<g id="a_node11"><a xlink:href="main_8cpp.html#adb66f09c018c6ec5f3ade6acd02a5003" target="_top" xlink:title=" ">
<polygon fill="white" stroke="black" points="76.5,-95.87 76.5,-114.87 144.5,-114.87 144.5,-95.87 76.5,-95.87"/>
<text text-anchor="middle" x="110.5" y="-102.87" font-family="Helvetica,sans-Serif" font-size="10.00">Initialization</text>
</a>
</g>
</g>
<!-- Node10&#45;&gt;Node11 -->
<g id="edge13" class="edge">
<title>Node10&#45;&gt;Node11</title>
<path fill="none" stroke="midnightblue" d="M425.78,-66.54C341.16,-76.99 206.56,-93.62 144.64,-101.27"/>
<polygon fill="midnightblue" stroke="midnightblue" points="426.35,-69.99 435.85,-65.29 425.49,-63.05 426.35,-69.99"/>
</g>
<!-- Node11&#45;&gt;Node3 -->
<g id="edge14" class="edge">
<title>Node11&#45;&gt;Node3</title>
<path fill="none" stroke="midnightblue" d="M66.53,-114.49C56.52,-116.62 46.38,-118.77 38.14,-120.52"/>
<polygon fill="midnightblue" stroke="midnightblue" points="67.37,-117.89 76.43,-112.39 65.92,-111.04 67.37,-117.89"/>
</g>
<!-- Node12&#45;&gt;Node3 -->
<g id="edge17" class="edge">
<title>Node12&#45;&gt;Node3</title>
<path fill="none" stroke="midnightblue" d="M181.37,-42.58C148.64,-53.39 108.15,-68.46 74,-86.37 58.57,-94.46 42.42,-106.34 31.85,-114.66"/>
<polygon fill="midnightblue" stroke="midnightblue" points="182.83,-45.79 191.26,-39.37 180.67,-39.13 182.83,-45.79"/>
</g>
</g>
</svg>
