<?xml version="1.0" encoding="UTF-8" standalone="no"?>
<!DOCTYPE svg PUBLIC "-//W3C//DTD SVG 1.1//EN"
 "http://www.w3.org/Graphics/SVG/1.1/DTD/svg11.dtd">
<!-- Generated by graphviz version 2.47.0 (20210407.0042)
 -->
<!-- Title: Drawable Pages: 1 -->
<svg width="506pt" height="441pt"
 viewBox="0.00 0.00 505.50 441.00" xmlns="http://www.w3.org/2000/svg" xmlns:xlink="http://www.w3.org/1999/xlink">
<g id="graph0" class="graph" transform="scale(1 1) rotate(0) translate(4 437)">
<title>Drawable</title>
<polygon fill="white" stroke="transparent" points="-4,4 -4,-437 501.5,-437 501.5,4 -4,4"/>
<!-- Node1 -->
<g id="node1" class="node">
<title>Node1</title>
<g id="a_node1"><a xlink:title=" ">
<polygon fill="#bfbfbf" stroke="black" points="199.5,-320.5 199.5,-432.5 276.5,-432.5 276.5,-320.5 199.5,-320.5"/>
<text text-anchor="middle" x="238" y="-420.5" font-family="Helvetica,sans-Serif" font-size="10.00">Drawable</text>
<polyline fill="none" stroke="black" points="199.5,-413.5 276.5,-413.5 "/>
<text text-anchor="middle" x="238" y="-401.5" font-family="Helvetica,sans-Serif" font-size="10.00"> </text>
<polyline fill="none" stroke="black" points="199.5,-394.5 276.5,-394.5 "/>
<text text-anchor="start" x="207.5" y="-382.5" font-family="Helvetica,sans-Serif" font-size="10.00">+ Drawable()</text>
<text text-anchor="start" x="207.5" y="-371.5" font-family="Helvetica,sans-Serif" font-size="10.00">+ Drawable()</text>
<text text-anchor="start" x="207.5" y="-360.5" font-family="Helvetica,sans-Serif" font-size="10.00">+ Draw()</text>
<text text-anchor="start" x="207.5" y="-349.5" font-family="Helvetica,sans-Serif" font-size="10.00">+ ~Drawable()</text>
<text text-anchor="start" x="207.5" y="-338.5" font-family="Helvetica,sans-Serif" font-size="10.00">+ GetImg()</text>
<text text-anchor="start" x="207.5" y="-327.5" font-family="Helvetica,sans-Serif" font-size="10.00">+ SetImage()</text>
</a>
</g>
</g>
<!-- Node2 -->
<g id="node2" class="node">
<title>Node2</title>
<g id="a_node2"><a xlink:href="class_building.html" target="_top" xlink:title=" ">
<polygon fill="white" stroke="black" points="0,-155 0,-245 86,-245 86,-155 0,-155"/>
<text text-anchor="middle" x="43" y="-233" font-family="Helvetica,sans-Serif" font-size="10.00">Building</text>
<polyline fill="none" stroke="black" points="0,-226 86,-226 "/>
<text text-anchor="middle" x="43" y="-214" font-family="Helvetica,sans-Serif" font-size="10.00"> </text>
<polyline fill="none" stroke="black" points="0,-207 86,-207 "/>
<text text-anchor="start" x="8" y="-195" font-family="Helvetica,sans-Serif" font-size="10.00">+ GetLife()</text>
<text text-anchor="start" x="8" y="-184" font-family="Helvetica,sans-Serif" font-size="10.00">+ DealDamage()</text>
<text text-anchor="start" x="8" y="-173" font-family="Helvetica,sans-Serif" font-size="10.00">+ Repair()</text>
<text text-anchor="start" x="8" y="-162" font-family="Helvetica,sans-Serif" font-size="10.00">+ Building()</text>
</a>
</g>
</g>
<!-- Node1&#45;&gt;Node2 -->
<g id="edge1" class="edge">
<title>Node1&#45;&gt;Node2</title>
<path fill="none" stroke="midnightblue" d="M190.24,-351.96C160.49,-335.7 122.73,-311.99 95,-284 83.75,-272.64 73.75,-258.44 65.6,-245"/>
<polygon fill="none" stroke="midnightblue" points="188.73,-355.13 199.2,-356.77 192.04,-348.96 188.73,-355.13"/>
</g>
<!-- Node3 -->
<g id="node3" class="node">
<title>Node3</title>
<g id="a_node3"><a xlink:href="class_cell.html" target="_top" xlink:title=" ">
<polygon fill="white" stroke="black" points="104.5,-116.5 104.5,-283.5 185.5,-283.5 185.5,-116.5 104.5,-116.5"/>
<text text-anchor="middle" x="145" y="-271.5" font-family="Helvetica,sans-Serif" font-size="10.00">Cell</text>
<polyline fill="none" stroke="black" points="104.5,-264.5 185.5,-264.5 "/>
<text text-anchor="middle" x="145" y="-252.5" font-family="Helvetica,sans-Serif" font-size="10.00"> </text>
<polyline fill="none" stroke="black" points="104.5,-245.5 185.5,-245.5 "/>
<text text-anchor="start" x="112.5" y="-233.5" font-family="Helvetica,sans-Serif" font-size="10.00">+ Cell()</text>
<text text-anchor="start" x="112.5" y="-222.5" font-family="Helvetica,sans-Serif" font-size="10.00">+ Cell()</text>
<text text-anchor="start" x="112.5" y="-211.5" font-family="Helvetica,sans-Serif" font-size="10.00">+ operator=()</text>
<text text-anchor="start" x="112.5" y="-200.5" font-family="Helvetica,sans-Serif" font-size="10.00">+ ~Cell()</text>
<text text-anchor="start" x="112.5" y="-189.5" font-family="Helvetica,sans-Serif" font-size="10.00">+ Add()</text>
<text text-anchor="start" x="112.5" y="-178.5" font-family="Helvetica,sans-Serif" font-size="10.00">+ SetBuilding()</text>
<text text-anchor="start" x="112.5" y="-167.5" font-family="Helvetica,sans-Serif" font-size="10.00">+ GetSpeed()</text>
<text text-anchor="start" x="112.5" y="-156.5" font-family="Helvetica,sans-Serif" font-size="10.00">+ GetSize()</text>
<text text-anchor="start" x="112.5" y="-145.5" font-family="Helvetica,sans-Serif" font-size="10.00">+ GetBuilding()</text>
<text text-anchor="start" x="112.5" y="-134.5" font-family="Helvetica,sans-Serif" font-size="10.00">+ Draw()</text>
<text text-anchor="start" x="112.5" y="-123.5" font-family="Helvetica,sans-Serif" font-size="10.00">+ Tick()</text>
</a>
</g>
</g>
<!-- Node1&#45;&gt;Node3 -->
<g id="edge2" class="edge">
<title>Node1&#45;&gt;Node3</title>
<path fill="none" stroke="midnightblue" d="M203.71,-311.15C197.82,-300.11 191.65,-288.54 185.62,-277.22"/>
<polygon fill="none" stroke="midnightblue" points="200.78,-313.11 208.57,-320.29 206.96,-309.82 200.78,-313.11"/>
</g>
<!-- Node4 -->
<g id="node4" class="node">
<title>Node4</title>
<g id="a_node4"><a xlink:href="class_ground.html" target="_top" xlink:title=" ">
<polygon fill="white" stroke="black" points="204,-166 204,-234 272,-234 272,-166 204,-166"/>
<text text-anchor="middle" x="238" y="-222" font-family="Helvetica,sans-Serif" font-size="10.00">Ground</text>
<polyline fill="none" stroke="black" points="204,-215 272,-215 "/>
<text text-anchor="middle" x="238" y="-203" font-family="Helvetica,sans-Serif" font-size="10.00"> </text>
<polyline fill="none" stroke="black" points="204,-196 272,-196 "/>
<text text-anchor="start" x="212" y="-184" font-family="Helvetica,sans-Serif" font-size="10.00">+ ~Ground()</text>
<text text-anchor="start" x="212" y="-173" font-family="Helvetica,sans-Serif" font-size="10.00">+ Ground()</text>
</a>
</g>
</g>
<!-- Node1&#45;&gt;Node4 -->
<g id="edge3" class="edge">
<title>Node1&#45;&gt;Node4</title>
<path fill="none" stroke="midnightblue" d="M238,-310.13C238,-284.18 238,-255.48 238,-234.03"/>
<polygon fill="none" stroke="midnightblue" points="234.5,-310.29 238,-320.29 241.5,-310.29 234.5,-310.29"/>
</g>
<!-- Node9 -->
<g id="node9" class="node">
<title>Node9</title>
<g id="a_node9"><a xlink:href="class_player.html" target="_top" xlink:title=" ">
<polygon fill="white" stroke="black" points="290,-138.5 290,-261.5 364,-261.5 364,-138.5 290,-138.5"/>
<text text-anchor="middle" x="327" y="-249.5" font-family="Helvetica,sans-Serif" font-size="10.00">Player</text>
<polyline fill="none" stroke="black" points="290,-242.5 364,-242.5 "/>
<text text-anchor="middle" x="327" y="-230.5" font-family="Helvetica,sans-Serif" font-size="10.00"> </text>
<polyline fill="none" stroke="black" points="290,-223.5 364,-223.5 "/>
<text text-anchor="start" x="298" y="-211.5" font-family="Helvetica,sans-Serif" font-size="10.00">+ Player()</text>
<text text-anchor="start" x="298" y="-200.5" font-family="Helvetica,sans-Serif" font-size="10.00">+ Player()</text>
<text text-anchor="start" x="298" y="-189.5" font-family="Helvetica,sans-Serif" font-size="10.00">+ ~Player()</text>
<text text-anchor="start" x="298" y="-178.5" font-family="Helvetica,sans-Serif" font-size="10.00">+ Stop()</text>
<text text-anchor="start" x="298" y="-167.5" font-family="Helvetica,sans-Serif" font-size="10.00">+ SpeedSet()</text>
<text text-anchor="start" x="298" y="-156.5" font-family="Helvetica,sans-Serif" font-size="10.00">+ SpeedInc()</text>
<text text-anchor="start" x="298" y="-145.5" font-family="Helvetica,sans-Serif" font-size="10.00">+ Tick()</text>
</a>
</g>
</g>
<!-- Node1&#45;&gt;Node9 -->
<g id="edge8" class="edge">
<title>Node1&#45;&gt;Node9</title>
<path fill="none" stroke="midnightblue" d="M270.93,-310.93C279.16,-294.79 287.96,-277.54 296.09,-261.6"/>
<polygon fill="none" stroke="midnightblue" points="267.59,-309.79 266.16,-320.29 273.82,-312.97 267.59,-309.79"/>
</g>
<!-- Node10 -->
<g id="node10" class="node">
<title>Node10</title>
<g id="a_node10"><a xlink:href="class_unit.html" target="_top" xlink:title=" ">
<polygon fill="white" stroke="black" points="382.5,-144 382.5,-256 497.5,-256 497.5,-144 382.5,-144"/>
<text text-anchor="middle" x="440" y="-244" font-family="Helvetica,sans-Serif" font-size="10.00">Unit</text>
<polyline fill="none" stroke="black" points="382.5,-237 497.5,-237 "/>
<text text-anchor="middle" x="440" y="-225" font-family="Helvetica,sans-Serif" font-size="10.00"> </text>
<polyline fill="none" stroke="black" points="382.5,-218 497.5,-218 "/>
<text text-anchor="start" x="390.5" y="-206" font-family="Helvetica,sans-Serif" font-size="10.00">+ Unit()</text>
<text text-anchor="start" x="390.5" y="-195" font-family="Helvetica,sans-Serif" font-size="10.00">+ Tick()</text>
<text text-anchor="start" x="390.5" y="-184" font-family="Helvetica,sans-Serif" font-size="10.00">+ IncSpeedRandomly()</text>
<text text-anchor="start" x="390.5" y="-173" font-family="Helvetica,sans-Serif" font-size="10.00">+ GetRandomize()</text>
<text text-anchor="start" x="390.5" y="-162" font-family="Helvetica,sans-Serif" font-size="10.00">+ GetPower()</text>
<text text-anchor="start" x="390.5" y="-151" font-family="Helvetica,sans-Serif" font-size="10.00">+ GetLife()</text>
</a>
</g>
</g>
<!-- Node1&#45;&gt;Node10 -->
<g id="edge9" class="edge">
<title>Node1&#45;&gt;Node10</title>
<path fill="none" stroke="midnightblue" d="M285.12,-348.38C312.27,-331.62 346.2,-308.65 373,-284 382.13,-275.6 391.07,-265.91 399.3,-256.19"/>
<polygon fill="none" stroke="midnightblue" points="283.28,-345.4 276.57,-353.6 286.93,-351.38 283.28,-345.4"/>
</g>
<!-- Node5 -->
<g id="node5" class="node">
<title>Node5</title>
<g id="a_node5"><a xlink:href="class_ground_earth.html" target="_top" xlink:title=" ">
<polygon fill="white" stroke="black" points="26,-0.5 26,-79.5 116,-79.5 116,-0.5 26,-0.5"/>
<text text-anchor="middle" x="71" y="-67.5" font-family="Helvetica,sans-Serif" font-size="10.00">GroundEarth</text>
<polyline fill="none" stroke="black" points="26,-60.5 116,-60.5 "/>
<text text-anchor="middle" x="71" y="-48.5" font-family="Helvetica,sans-Serif" font-size="10.00"> </text>
<polyline fill="none" stroke="black" points="26,-41.5 116,-41.5 "/>
<text text-anchor="start" x="34" y="-29.5" font-family="Helvetica,sans-Serif" font-size="10.00">+ ~GroundEarth()</text>
<text text-anchor="start" x="34" y="-18.5" font-family="Helvetica,sans-Serif" font-size="10.00">+ GroundEarth()</text>
<text text-anchor="start" x="34" y="-7.5" font-family="Helvetica,sans-Serif" font-size="10.00">+ Tick()</text>
</a>
</g>
</g>
<!-- Node4&#45;&gt;Node5 -->
<g id="edge4" class="edge">
<title>Node4&#45;&gt;Node5</title>
<path fill="none" stroke="midnightblue" d="M222.21,-156.55C215.43,-142.4 206.41,-127.37 195,-116 170.23,-91.3 154.82,-98.29 125,-80 122.04,-78.19 119.04,-76.26 116.03,-74.28"/>
<polygon fill="none" stroke="midnightblue" points="219.03,-158 226.34,-165.67 225.4,-155.11 219.03,-158"/>
</g>
<!-- Node6 -->
<g id="node6" class="node">
<title>Node6</title>
<g id="a_node6"><a xlink:href="class_ground_empty.html" target="_top" xlink:title=" ">
<polygon fill="white" stroke="black" points="134.5,-0.5 134.5,-79.5 229.5,-79.5 229.5,-0.5 134.5,-0.5"/>
<text text-anchor="middle" x="182" y="-67.5" font-family="Helvetica,sans-Serif" font-size="10.00">GroundEmpty</text>
<polyline fill="none" stroke="black" points="134.5,-60.5 229.5,-60.5 "/>
<text text-anchor="middle" x="182" y="-48.5" font-family="Helvetica,sans-Serif" font-size="10.00"> </text>
<polyline fill="none" stroke="black" points="134.5,-41.5 229.5,-41.5 "/>
<text text-anchor="start" x="142.5" y="-29.5" font-family="Helvetica,sans-Serif" font-size="10.00">+ ~GroundEmpty()</text>
<text text-anchor="start" x="142.5" y="-18.5" font-family="Helvetica,sans-Serif" font-size="10.00">+ GroundEmpty()</text>
<text text-anchor="start" x="142.5" y="-7.5" font-family="Helvetica,sans-Serif" font-size="10.00">+ Tick()</text>
</a>
</g>
</g>
<!-- Node4&#45;&gt;Node6 -->
<g id="edge5" class="edge">
<title>Node4&#45;&gt;Node6</title>
<path fill="none" stroke="midnightblue" d="M222.88,-156.35C214.41,-132.45 203.93,-102.87 195.7,-79.65"/>
<polygon fill="none" stroke="midnightblue" points="219.62,-157.62 226.26,-165.88 226.22,-155.28 219.62,-157.62"/>
</g>
<!-- Node7 -->
<g id="node7" class="node">
<title>Node7</title>
<g id="a_node7"><a xlink:href="class_ground_water.html" target="_top" xlink:title=" ">
<polygon fill="white" stroke="black" points="247.5,-0.5 247.5,-79.5 340.5,-79.5 340.5,-0.5 247.5,-0.5"/>
<text text-anchor="middle" x="294" y="-67.5" font-family="Helvetica,sans-Serif" font-size="10.00">GroundWater</text>
<polyline fill="none" stroke="black" points="247.5,-60.5 340.5,-60.5 "/>
<text text-anchor="middle" x="294" y="-48.5" font-family="Helvetica,sans-Serif" font-size="10.00"> </text>
<polyline fill="none" stroke="black" points="247.5,-41.5 340.5,-41.5 "/>
<text text-anchor="start" x="255.5" y="-29.5" font-family="Helvetica,sans-Serif" font-size="10.00">+ ~GroundWater()</text>
<text text-anchor="start" x="255.5" y="-18.5" font-family="Helvetica,sans-Serif" font-size="10.00">+ GroundWater()</text>
<text text-anchor="start" x="255.5" y="-7.5" font-family="Helvetica,sans-Serif" font-size="10.00">+ Tick()</text>
</a>
</g>
</g>
<!-- Node4&#45;&gt;Node7 -->
<g id="edge6" class="edge">
<title>Node4&#45;&gt;Node7</title>
<path fill="none" stroke="midnightblue" d="M253.12,-156.35C261.59,-132.45 272.07,-102.87 280.3,-79.65"/>
<polygon fill="none" stroke="midnightblue" points="249.78,-155.28 249.74,-165.88 256.38,-157.62 249.78,-155.28"/>
</g>
<!-- Node8 -->
<g id="node8" class="node">
<title>Node8</title>
<g id="a_node8"><a xlink:href="class_mineral.html" target="_top" xlink:title=" ">
<polygon fill="white" stroke="black" points="359,-0.5 359,-79.5 427,-79.5 427,-0.5 359,-0.5"/>
<text text-anchor="middle" x="393" y="-67.5" font-family="Helvetica,sans-Serif" font-size="10.00">Mineral</text>
<polyline fill="none" stroke="black" points="359,-60.5 427,-60.5 "/>
<text text-anchor="middle" x="393" y="-48.5" font-family="Helvetica,sans-Serif" font-size="10.00"> </text>
<polyline fill="none" stroke="black" points="359,-41.5 427,-41.5 "/>
<text text-anchor="start" x="367" y="-29.5" font-family="Helvetica,sans-Serif" font-size="10.00">+ ~Mineral()</text>
<text text-anchor="start" x="367" y="-18.5" font-family="Helvetica,sans-Serif" font-size="10.00">+ Mineral()</text>
<text text-anchor="start" x="367" y="-7.5" font-family="Helvetica,sans-Serif" font-size="10.00">+ Tick()</text>
</a>
</g>
</g>
<!-- Node4&#45;&gt;Node8 -->
<g id="edge7" class="edge">
<title>Node4&#45;&gt;Node8</title>
<path fill="none" stroke="midnightblue" d="M253.83,-156.59C260.61,-142.45 269.63,-127.41 281,-116 305.42,-91.51 321.62,-99.78 350,-80 352.98,-77.93 355.97,-75.66 358.91,-73.31"/>
<polygon fill="none" stroke="midnightblue" points="250.64,-155.15 249.69,-165.7 257.01,-158.04 250.64,-155.15"/>
</g>
</g>
</svg>
