<?xml version="1.0" encoding="UTF-8" standalone="no"?>
<!DOCTYPE svg PUBLIC "-//W3C//DTD SVG 1.1//EN"
 "http://www.w3.org/Graphics/SVG/1.1/DTD/svg11.dtd">
<!-- Generated by graphviz version 2.47.1 (20210421.1823)
 -->
<!-- Title: WorldActor::GetPosition Pages: 1 -->
<svg width="248pt" height="66pt"
 viewBox="0.00 0.00 248.00 66.00" xmlns="http://www.w3.org/2000/svg" xmlns:xlink="http://www.w3.org/1999/xlink">
<g id="graph0" class="graph" transform="scale(1 1) rotate(0) translate(4 62)">
<title>WorldActor::GetPosition</title>
<polygon fill="white" stroke="transparent" points="-4,4 -4,-62 244,-62 244,4 -4,4"/>
<!-- Node1 -->
<g id="node1" class="node">
<title>Node1</title>
<g id="a_node1"><a xlink:title=" ">
<polygon fill="#bfbfbf" stroke="black" points="120,-19.5 120,-38.5 240,-38.5 240,-19.5 120,-19.5"/>
<text text-anchor="middle" x="180" y="-26.5" font-family="Helvetica,sans-Serif" font-size="10.00">WorldActor::GetPosition</text>
</a>
</g>
</g>
<!-- Node2 -->
<g id="node2" class="node">
<title>Node2</title>
<g id="a_node2"><a xlink:href="class_unit.html#a764442e3620b9af8882d8050d8a08afe" target="_top" xlink:title=" ">
<polygon fill="white" stroke="black" points="13,-38.5 13,-57.5 71,-57.5 71,-38.5 13,-38.5"/>
<text text-anchor="middle" x="42" y="-45.5" font-family="Helvetica,sans-Serif" font-size="10.00">Unit::Tick</text>
</a>
</g>
</g>
<!-- Node1&#45;&gt;Node2 -->
<g id="edge1" class="edge">
<title>Node1&#45;&gt;Node2</title>
<path fill="none" stroke="midnightblue" d="M109.79,-38.67C96.1,-40.58 82.47,-42.49 71.13,-44.07"/>
<polygon fill="midnightblue" stroke="midnightblue" points="110.32,-42.13 119.74,-37.28 109.36,-35.2 110.32,-42.13"/>
</g>
<!-- Node3 -->
<g id="node3" class="node">
<title>Node3</title>
<g id="a_node3"><a xlink:href="class_unit_group.html#a49ae050d0c9fb676cbff630d18d29b20" target="_top" xlink:title=" ">
<polygon fill="white" stroke="black" points="0,-0.5 0,-19.5 84,-19.5 84,-0.5 0,-0.5"/>
<text text-anchor="middle" x="42" y="-7.5" font-family="Helvetica,sans-Serif" font-size="10.00">UnitGroup::Tick</text>
</a>
</g>
</g>
<!-- Node1&#45;&gt;Node3 -->
<g id="edge2" class="edge">
<title>Node1&#45;&gt;Node3</title>
<path fill="none" stroke="midnightblue" d="M109.83,-19.34C101.03,-18.11 92.25,-16.88 84.09,-15.74"/>
<polygon fill="midnightblue" stroke="midnightblue" points="109.36,-22.8 119.74,-20.72 110.32,-15.87 109.36,-22.8"/>
</g>
</g>
</svg>
