<?xml version="1.0" encoding="UTF-8" standalone="no"?>
<!DOCTYPE svg PUBLIC "-//W3C//DTD SVG 1.1//EN"
 "http://www.w3.org/Graphics/SVG/1.1/DTD/svg11.dtd">
<!-- Generated by graphviz version 2.47.1 (20210421.1823)
 -->
<!-- Title: Player Pages: 1 -->
<svg width="186pt" height="452pt"
 viewBox="0.00 0.00 185.50 452.00" xmlns="http://www.w3.org/2000/svg" xmlns:xlink="http://www.w3.org/1999/xlink">
<g id="graph0" class="graph" transform="scale(1 1) rotate(0) translate(4 448)">
<title>Player</title>
<polygon fill="white" stroke="transparent" points="-4,4 -4,-448 181.5,-448 181.5,4 -4,4"/>
<!-- Node1 -->
<g id="node1" class="node">
<title>Node1</title>
<g id="a_node1"><a xlink:title=" ">
<polygon fill="#bfbfbf" stroke="black" points="50.5,-0.5 50.5,-123.5 124.5,-123.5 124.5,-0.5 50.5,-0.5"/>
<text text-anchor="middle" x="87.5" y="-111.5" font-family="Helvetica,sans-Serif" font-size="10.00">Player</text>
<polyline fill="none" stroke="black" points="50.5,-104.5 124.5,-104.5 "/>
<text text-anchor="middle" x="87.5" y="-92.5" font-family="Helvetica,sans-Serif" font-size="10.00"> </text>
<polyline fill="none" stroke="black" points="50.5,-85.5 124.5,-85.5 "/>
<text text-anchor="start" x="58.5" y="-73.5" font-family="Helvetica,sans-Serif" font-size="10.00">+ Player()</text>
<text text-anchor="start" x="58.5" y="-62.5" font-family="Helvetica,sans-Serif" font-size="10.00">+ Player()</text>
<text text-anchor="start" x="58.5" y="-51.5" font-family="Helvetica,sans-Serif" font-size="10.00">+ ~Player()</text>
<text text-anchor="start" x="58.5" y="-40.5" font-family="Helvetica,sans-Serif" font-size="10.00">+ Stop()</text>
<text text-anchor="start" x="58.5" y="-29.5" font-family="Helvetica,sans-Serif" font-size="10.00">+ SpeedSet()</text>
<text text-anchor="start" x="58.5" y="-18.5" font-family="Helvetica,sans-Serif" font-size="10.00">+ SpeedInc()</text>
<text text-anchor="start" x="58.5" y="-7.5" font-family="Helvetica,sans-Serif" font-size="10.00">+ Tick()</text>
</a>
</g>
</g>
<!-- Node2 -->
<g id="node2" class="node">
<title>Node2</title>
<g id="a_node2"><a xlink:href="class_drawable.html" target="_top" xlink:title=" ">
<polygon fill="white" stroke="black" points="0,-199 0,-311 77,-311 77,-199 0,-199"/>
<text text-anchor="middle" x="38.5" y="-299" font-family="Helvetica,sans-Serif" font-size="10.00">Drawable</text>
<polyline fill="none" stroke="black" points="0,-292 77,-292 "/>
<text text-anchor="middle" x="38.5" y="-280" font-family="Helvetica,sans-Serif" font-size="10.00"> </text>
<polyline fill="none" stroke="black" points="0,-273 77,-273 "/>
<text text-anchor="start" x="8" y="-261" font-family="Helvetica,sans-Serif" font-size="10.00">+ Drawable()</text>
<text text-anchor="start" x="8" y="-250" font-family="Helvetica,sans-Serif" font-size="10.00">+ Drawable()</text>
<text text-anchor="start" x="8" y="-239" font-family="Helvetica,sans-Serif" font-size="10.00">+ Draw()</text>
<text text-anchor="start" x="8" y="-228" font-family="Helvetica,sans-Serif" font-size="10.00">+ ~Drawable()</text>
<text text-anchor="start" x="8" y="-217" font-family="Helvetica,sans-Serif" font-size="10.00">+ GetImg()</text>
<text text-anchor="start" x="8" y="-206" font-family="Helvetica,sans-Serif" font-size="10.00">+ SetImage()</text>
</a>
</g>
</g>
<!-- Node2&#45;&gt;Node1 -->
<g id="edge1" class="edge">
<title>Node2&#45;&gt;Node1</title>
<path fill="none" stroke="midnightblue" d="M55.19,-188.93C60.6,-167.85 66.58,-144.56 71.9,-123.81"/>
<polygon fill="none" stroke="midnightblue" points="51.77,-188.2 52.67,-198.75 58.55,-189.94 51.77,-188.2"/>
</g>
<!-- Node3 -->
<g id="node3" class="node">
<title>Node3</title>
<g id="a_node3"><a xlink:href="class_world_actor.html" target="_top" xlink:title=" ">
<polygon fill="white" stroke="black" points="95.5,-160.5 95.5,-349.5 177.5,-349.5 177.5,-160.5 95.5,-160.5"/>
<text text-anchor="middle" x="136.5" y="-337.5" font-family="Helvetica,sans-Serif" font-size="10.00">WorldActor</text>
<polyline fill="none" stroke="black" points="95.5,-330.5 177.5,-330.5 "/>
<text text-anchor="start" x="103.5" y="-318.5" font-family="Helvetica,sans-Serif" font-size="10.00"># position_</text>
<text text-anchor="start" x="103.5" y="-307.5" font-family="Helvetica,sans-Serif" font-size="10.00"># speed_</text>
<text text-anchor="start" x="103.5" y="-296.5" font-family="Helvetica,sans-Serif" font-size="10.00"># fly_</text>
<text text-anchor="start" x="103.5" y="-285.5" font-family="Helvetica,sans-Serif" font-size="10.00"># rooted_</text>
<text text-anchor="start" x="103.5" y="-274.5" font-family="Helvetica,sans-Serif" font-size="10.00"># field_</text>
<polyline fill="none" stroke="black" points="95.5,-267.5 177.5,-267.5 "/>
<text text-anchor="start" x="103.5" y="-255.5" font-family="Helvetica,sans-Serif" font-size="10.00">+ WorldActor()</text>
<text text-anchor="start" x="103.5" y="-244.5" font-family="Helvetica,sans-Serif" font-size="10.00">+ Move()</text>
<text text-anchor="start" x="103.5" y="-233.5" font-family="Helvetica,sans-Serif" font-size="10.00">+ Tick()</text>
<text text-anchor="start" x="103.5" y="-222.5" font-family="Helvetica,sans-Serif" font-size="10.00">+ IncSpeed()</text>
<text text-anchor="start" x="103.5" y="-211.5" font-family="Helvetica,sans-Serif" font-size="10.00">+ SetSpeed()</text>
<text text-anchor="start" x="103.5" y="-200.5" font-family="Helvetica,sans-Serif" font-size="10.00">+ GetX()</text>
<text text-anchor="start" x="103.5" y="-189.5" font-family="Helvetica,sans-Serif" font-size="10.00">+ GetY()</text>
<text text-anchor="start" x="103.5" y="-178.5" font-family="Helvetica,sans-Serif" font-size="10.00">+ GetPosition()</text>
<text text-anchor="start" x="103.5" y="-167.5" font-family="Helvetica,sans-Serif" font-size="10.00">+ Distance()</text>
</a>
</g>
</g>
<!-- Node3&#45;&gt;Node1 -->
<g id="edge2" class="edge">
<title>Node3&#45;&gt;Node1</title>
<path fill="none" stroke="midnightblue" d="M109.95,-150.52C107.61,-141.39 105.29,-132.35 103.08,-123.75"/>
<polygon fill="none" stroke="midnightblue" points="106.63,-151.64 112.5,-160.46 113.41,-149.9 106.63,-151.64"/>
</g>
<!-- Node4 -->
<g id="node4" class="node">
<title>Node4</title>
<g id="a_node4"><a xlink:href="class_tickable.html" target="_top" xlink:title=" ">
<polygon fill="white" stroke="black" points="110,-386.5 110,-443.5 163,-443.5 163,-386.5 110,-386.5"/>
<text text-anchor="middle" x="136.5" y="-431.5" font-family="Helvetica,sans-Serif" font-size="10.00">Tickable</text>
<polyline fill="none" stroke="black" points="110,-424.5 163,-424.5 "/>
<text text-anchor="middle" x="136.5" y="-412.5" font-family="Helvetica,sans-Serif" font-size="10.00"> </text>
<polyline fill="none" stroke="black" points="110,-405.5 163,-405.5 "/>
<text text-anchor="start" x="118" y="-393.5" font-family="Helvetica,sans-Serif" font-size="10.00">+ Tick()</text>
</a>
</g>
</g>
<!-- Node4&#45;&gt;Node3 -->
<g id="edge3" class="edge">
<title>Node4&#45;&gt;Node3</title>
<path fill="none" stroke="#8b1a1a" d="M136.5,-376.22C136.5,-368.01 136.5,-358.99 136.5,-349.68"/>
<polygon fill="none" stroke="#8b1a1a" points="133,-376.48 136.5,-386.48 140,-376.48 133,-376.48"/>
</g>
</g>
</svg>
