<?xml version="1.0" encoding="UTF-8" standalone="no"?>
<!DOCTYPE svg PUBLIC "-//W3C//DTD SVG 1.1//EN"
 "http://www.w3.org/Graphics/SVG/1.1/DTD/svg11.dtd">
<!-- Generated by graphviz version 2.47.1 (20210421.1823)
 -->
<!-- Title: Cell::GetSpeed Pages: 1 -->
<svg width="616pt" height="104pt"
 viewBox="0.00 0.00 616.00 104.00" xmlns="http://www.w3.org/2000/svg" xmlns:xlink="http://www.w3.org/1999/xlink">
<g id="graph0" class="graph" transform="scale(1 1) rotate(0) translate(4 100)">
<title>Cell::GetSpeed</title>
<polygon fill="white" stroke="transparent" points="-4,4 -4,-100 612,-100 612,4 -4,4"/>
<!-- Node1 -->
<g id="node1" class="node">
<title>Node1</title>
<g id="a_node1"><a xlink:title=" ">
<polygon fill="#bfbfbf" stroke="black" points="527,-38.5 527,-57.5 608,-57.5 608,-38.5 527,-38.5"/>
<text text-anchor="middle" x="567.5" y="-45.5" font-family="Helvetica,sans-Serif" font-size="10.00">Cell::GetSpeed</text>
</a>
</g>
</g>
<!-- Node2 -->
<g id="node2" class="node">
<title>Node2</title>
<g id="a_node2"><a xlink:href="class_world_actor.html#a211b1d4fdcd4eaed756b3602b6dfb412" target="_top" xlink:title=" ">
<polygon fill="white" stroke="black" points="403,-38.5 403,-57.5 491,-57.5 491,-38.5 403,-38.5"/>
<text text-anchor="middle" x="447" y="-45.5" font-family="Helvetica,sans-Serif" font-size="10.00">WorldActor::Tick</text>
</a>
</g>
</g>
<!-- Node1&#45;&gt;Node2 -->
<g id="edge1" class="edge">
<title>Node1&#45;&gt;Node2</title>
<path fill="none" stroke="midnightblue" d="M516.57,-48C508.12,-48 499.4,-48 491.14,-48"/>
<polygon fill="midnightblue" stroke="midnightblue" points="516.71,-51.5 526.71,-48 516.71,-44.5 516.71,-51.5"/>
</g>
<!-- Node3 -->
<g id="node3" class="node">
<title>Node3</title>
<g id="a_node3"><a xlink:href="class_player.html#ac9010645b179712c09ebd310e5fe48eb" target="_top" xlink:title=" ">
<polygon fill="white" stroke="black" points="291.5,-76.5 291.5,-95.5 358.5,-95.5 358.5,-76.5 291.5,-76.5"/>
<text text-anchor="middle" x="325" y="-83.5" font-family="Helvetica,sans-Serif" font-size="10.00">Player::Tick</text>
</a>
</g>
</g>
<!-- Node2&#45;&gt;Node3 -->
<g id="edge2" class="edge">
<title>Node2&#45;&gt;Node3</title>
<path fill="none" stroke="midnightblue" d="M405.96,-60.68C389.74,-65.81 371.33,-71.64 356.27,-76.41"/>
<polygon fill="midnightblue" stroke="midnightblue" points="407.24,-63.94 415.72,-57.59 405.13,-57.27 407.24,-63.94"/>
</g>
<!-- Node7 -->
<g id="node7" class="node">
<title>Node7</title>
<g id="a_node7"><a xlink:href="class_unit.html#a764442e3620b9af8882d8050d8a08afe" target="_top" xlink:title=" ">
<polygon fill="white" stroke="black" points="296,-38.5 296,-57.5 354,-57.5 354,-38.5 296,-38.5"/>
<text text-anchor="middle" x="325" y="-45.5" font-family="Helvetica,sans-Serif" font-size="10.00">Unit::Tick</text>
</a>
</g>
</g>
<!-- Node2&#45;&gt;Node7 -->
<g id="edge6" class="edge">
<title>Node2&#45;&gt;Node7</title>
<path fill="none" stroke="midnightblue" d="M392.3,-48C379.19,-48 365.67,-48 354.29,-48"/>
<polygon fill="midnightblue" stroke="midnightblue" points="392.68,-51.5 402.68,-48 392.68,-44.5 392.68,-51.5"/>
</g>
<!-- Node8 -->
<g id="node8" class="node">
<title>Node8</title>
<g id="a_node8"><a xlink:href="class_unit_group.html#a49ae050d0c9fb676cbff630d18d29b20" target="_top" xlink:title=" ">
<polygon fill="white" stroke="black" points="283,-0.5 283,-19.5 367,-19.5 367,-0.5 283,-0.5"/>
<text text-anchor="middle" x="325" y="-7.5" font-family="Helvetica,sans-Serif" font-size="10.00">UnitGroup::Tick</text>
</a>
</g>
</g>
<!-- Node2&#45;&gt;Node8 -->
<g id="edge7" class="edge">
<title>Node2&#45;&gt;Node8</title>
<path fill="none" stroke="midnightblue" d="M405.96,-35.32C389.74,-30.19 371.33,-24.36 356.27,-19.59"/>
<polygon fill="midnightblue" stroke="midnightblue" points="405.13,-38.73 415.72,-38.41 407.24,-32.06 405.13,-38.73"/>
</g>
<!-- Node4 -->
<g id="node4" class="node">
<title>Node4</title>
<g id="a_node4"><a xlink:href="class_engine.html#a06d3e75a7f768f0d48746aea00483724" target="_top" xlink:title=" ">
<polygon fill="white" stroke="black" points="178,-76.5 178,-95.5 247,-95.5 247,-76.5 178,-76.5"/>
<text text-anchor="middle" x="212.5" y="-83.5" font-family="Helvetica,sans-Serif" font-size="10.00">Engine::Tick</text>
</a>
</g>
</g>
<!-- Node3&#45;&gt;Node4 -->
<g id="edge3" class="edge">
<title>Node3&#45;&gt;Node4</title>
<path fill="none" stroke="midnightblue" d="M281.36,-86C270.1,-86 258.09,-86 247.36,-86"/>
<polygon fill="midnightblue" stroke="midnightblue" points="281.44,-89.5 291.44,-86 281.44,-82.5 281.44,-89.5"/>
</g>
<!-- Node5 -->
<g id="node5" class="node">
<title>Node5</title>
<g id="a_node5"><a xlink:href="class_game.html#adb05b20574551a26f8cf1dc664782790" target="_top" xlink:title=" ">
<polygon fill="white" stroke="black" points="74,-76.5 74,-95.5 142,-95.5 142,-76.5 74,-76.5"/>
<text text-anchor="middle" x="108" y="-83.5" font-family="Helvetica,sans-Serif" font-size="10.00">Game::Start</text>
</a>
</g>
</g>
<!-- Node4&#45;&gt;Node5 -->
<g id="edge4" class="edge">
<title>Node4&#45;&gt;Node5</title>
<path fill="none" stroke="midnightblue" d="M167.74,-86C159.22,-86 150.41,-86 142.29,-86"/>
<polygon fill="midnightblue" stroke="midnightblue" points="167.94,-89.5 177.94,-86 167.94,-82.5 167.94,-89.5"/>
</g>
<!-- Node6 -->
<g id="node6" class="node">
<title>Node6</title>
<g id="a_node6"><a xlink:href="main_8cpp.html#ae66f6b31b5ad750f1fe042a706a4e3d4" target="_top" xlink:title=" ">
<polygon fill="white" stroke="black" points="0,-76.5 0,-95.5 38,-95.5 38,-76.5 0,-76.5"/>
<text text-anchor="middle" x="19" y="-83.5" font-family="Helvetica,sans-Serif" font-size="10.00">main</text>
</a>
</g>
</g>
<!-- Node5&#45;&gt;Node6 -->
<g id="edge5" class="edge">
<title>Node5&#45;&gt;Node6</title>
<path fill="none" stroke="midnightblue" d="M63.54,-86C54.55,-86 45.55,-86 38.09,-86"/>
<polygon fill="midnightblue" stroke="midnightblue" points="63.61,-89.5 73.61,-86 63.61,-82.5 63.61,-89.5"/>
</g>
</g>
</svg>
