<?xml version="1.0" encoding="UTF-8" standalone="no"?>
<!DOCTYPE svg PUBLIC "-//W3C//DTD SVG 1.1//EN"
 "http://www.w3.org/Graphics/SVG/1.1/DTD/svg11.dtd">
<!-- Generated by graphviz version 2.47.1 (20210421.1823)
 -->
<!-- Title: Engine::Tick Pages: 1 -->
<svg width="610pt" height="161pt"
 viewBox="0.00 0.00 610.00 161.00" xmlns="http://www.w3.org/2000/svg" xmlns:xlink="http://www.w3.org/1999/xlink">
<g id="graph0" class="graph" transform="scale(1 1) rotate(0) translate(4 157)">
<title>Engine::Tick</title>
<polygon fill="white" stroke="transparent" points="-4,4 -4,-157 606,-157 606,4 -4,4"/>
<!-- Node1 -->
<g id="node1" class="node">
<title>Node1</title>
<g id="a_node1"><a xlink:title=" ">
<polygon fill="#bfbfbf" stroke="black" points="0,-95.5 0,-114.5 69,-114.5 69,-95.5 0,-95.5"/>
<text text-anchor="middle" x="34.5" y="-102.5" font-family="Helvetica,sans-Serif" font-size="10.00">Engine::Tick</text>
</a>
</g>
</g>
<!-- Node2 -->
<g id="node2" class="node">
<title>Node2</title>
<g id="a_node2"><a xlink:href="class_engine.html#a6d852b5acb8b7af1df790a662ca863fe" target="_top" xlink:title=" ">
<polygon fill="white" stroke="black" points="105,-133.5 105,-152.5 198,-152.5 198,-133.5 105,-133.5"/>
<text text-anchor="middle" x="151.5" y="-140.5" font-family="Helvetica,sans-Serif" font-size="10.00">Engine::GetPlayer</text>
</a>
</g>
</g>
<!-- Node1&#45;&gt;Node2 -->
<g id="edge1" class="edge">
<title>Node1&#45;&gt;Node2</title>
<path fill="none" stroke="midnightblue" d="M64.52,-114.59C78.82,-119.31 96.26,-125.08 111.69,-130.18"/>
<polygon fill="midnightblue" stroke="midnightblue" points="110.9,-133.6 121.49,-133.41 113.09,-126.95 110.9,-133.6"/>
</g>
<!-- Node3 -->
<g id="node3" class="node">
<title>Node3</title>
<g id="a_node3"><a xlink:href="class_field.html#a5f554e84e4bc9af72e5d262f41e97493" target="_top" xlink:title=" ">
<polygon fill="white" stroke="black" points="121,-95.5 121,-114.5 182,-114.5 182,-95.5 121,-95.5"/>
<text text-anchor="middle" x="151.5" y="-102.5" font-family="Helvetica,sans-Serif" font-size="10.00">Field::Tick</text>
</a>
</g>
</g>
<!-- Node1&#45;&gt;Node3 -->
<g id="edge2" class="edge">
<title>Node1&#45;&gt;Node3</title>
<path fill="none" stroke="midnightblue" d="M69.07,-105C82.17,-105 97.29,-105 110.92,-105"/>
<polygon fill="midnightblue" stroke="midnightblue" points="110.99,-108.5 120.99,-105 110.99,-101.5 110.99,-108.5"/>
</g>
<!-- Node4 -->
<g id="node4" class="node">
<title>Node4</title>
<g id="a_node4"><a xlink:href="class_player.html#ac9010645b179712c09ebd310e5fe48eb" target="_top" xlink:title=" ">
<polygon fill="white" stroke="black" points="118,-57.5 118,-76.5 185,-76.5 185,-57.5 118,-57.5"/>
<text text-anchor="middle" x="151.5" y="-64.5" font-family="Helvetica,sans-Serif" font-size="10.00">Player::Tick</text>
</a>
</g>
</g>
<!-- Node1&#45;&gt;Node4 -->
<g id="edge3" class="edge">
<title>Node1&#45;&gt;Node4</title>
<path fill="none" stroke="midnightblue" d="M64.52,-95.41C78.82,-90.69 96.26,-84.92 111.69,-79.82"/>
<polygon fill="midnightblue" stroke="midnightblue" points="113.09,-83.05 121.49,-76.59 110.9,-76.4 113.09,-83.05"/>
</g>
<!-- Node5 -->
<g id="node5" class="node">
<title>Node5</title>
<g id="a_node5"><a xlink:href="struct_vector2_d.html#a4243151f5398e352a38073c4e1dfd30b" target="_top" xlink:title=" ">
<polygon fill="white" stroke="black" points="234,-76.5 234,-95.5 346,-95.5 346,-76.5 234,-76.5"/>
<text text-anchor="middle" x="290" y="-83.5" font-family="Helvetica,sans-Serif" font-size="10.00">Vector2D&lt; float &gt;::dist</text>
</a>
</g>
</g>
<!-- Node4&#45;&gt;Node5 -->
<g id="edge4" class="edge">
<title>Node4&#45;&gt;Node5</title>
<path fill="none" stroke="midnightblue" d="M185.2,-71.55C196.82,-73.17 210.36,-75.05 223.74,-76.92"/>
<polygon fill="midnightblue" stroke="midnightblue" points="223.53,-80.42 233.91,-78.33 224.49,-73.49 223.53,-80.42"/>
</g>
<!-- Node6 -->
<g id="node6" class="node">
<title>Node6</title>
<g id="a_node6"><a xlink:href="class_world_actor.html#a211b1d4fdcd4eaed756b3602b6dfb412" target="_top" xlink:title=" ">
<polygon fill="white" stroke="black" points="246,-38.5 246,-57.5 334,-57.5 334,-38.5 246,-38.5"/>
<text text-anchor="middle" x="290" y="-45.5" font-family="Helvetica,sans-Serif" font-size="10.00">WorldActor::Tick</text>
</a>
</g>
</g>
<!-- Node4&#45;&gt;Node6 -->
<g id="edge5" class="edge">
<title>Node4&#45;&gt;Node6</title>
<path fill="none" stroke="midnightblue" d="M185.2,-62.45C200.28,-60.35 218.59,-57.8 235.6,-55.43"/>
<polygon fill="midnightblue" stroke="midnightblue" points="236.56,-58.83 245.98,-53.99 235.6,-51.9 236.56,-58.83"/>
</g>
<!-- Node7 -->
<g id="node7" class="node">
<title>Node7</title>
<g id="a_node7"><a xlink:href="class_field.html#a8ce096331f51a8e41e54c0ce4e8ac43a" target="_top" xlink:title=" ">
<polygon fill="white" stroke="black" points="382,-76.5 382,-95.5 474,-95.5 474,-76.5 382,-76.5"/>
<text text-anchor="middle" x="428" y="-83.5" font-family="Helvetica,sans-Serif" font-size="10.00">Field::GetBuilding</text>
</a>
</g>
</g>
<!-- Node6&#45;&gt;Node7 -->
<g id="edge6" class="edge">
<title>Node6&#45;&gt;Node7</title>
<path fill="none" stroke="midnightblue" d="M325.32,-57.59C342.79,-62.47 364.24,-68.46 382.93,-73.68"/>
<polygon fill="midnightblue" stroke="midnightblue" points="382.12,-77.09 392.69,-76.41 384,-70.35 382.12,-77.09"/>
</g>
<!-- Node9 -->
<g id="node9" class="node">
<title>Node9</title>
<g id="a_node9"><a xlink:href="class_field.html#a5a202354dc5e99cb7f51121904256845" target="_top" xlink:title=" ">
<polygon fill="white" stroke="black" points="391,-38.5 391,-57.5 465,-57.5 465,-38.5 391,-38.5"/>
<text text-anchor="middle" x="428" y="-45.5" font-family="Helvetica,sans-Serif" font-size="10.00">Field::GetCell</text>
</a>
</g>
</g>
<!-- Node6&#45;&gt;Node9 -->
<g id="edge8" class="edge">
<title>Node6&#45;&gt;Node9</title>
<path fill="none" stroke="midnightblue" d="M334.03,-48C348.83,-48 365.45,-48 380.51,-48"/>
<polygon fill="midnightblue" stroke="midnightblue" points="380.64,-51.5 390.64,-48 380.64,-44.5 380.64,-51.5"/>
</g>
<!-- Node10 -->
<g id="node10" class="node">
<title>Node10</title>
<g id="a_node10"><a xlink:href="class_cell.html#ac21e31812473f2d969ff434b35a81825" target="_top" xlink:title=" ">
<polygon fill="white" stroke="black" points="387.5,-0.5 387.5,-19.5 468.5,-19.5 468.5,-0.5 387.5,-0.5"/>
<text text-anchor="middle" x="428" y="-7.5" font-family="Helvetica,sans-Serif" font-size="10.00">Cell::GetSpeed</text>
</a>
</g>
</g>
<!-- Node6&#45;&gt;Node10 -->
<g id="edge9" class="edge">
<title>Node6&#45;&gt;Node10</title>
<path fill="none" stroke="midnightblue" d="M325.32,-38.41C342.79,-33.53 364.24,-27.54 382.93,-22.32"/>
<polygon fill="midnightblue" stroke="midnightblue" points="384,-25.65 392.69,-19.59 382.12,-18.91 384,-25.65"/>
</g>
<!-- Node8 -->
<g id="node8" class="node">
<title>Node8</title>
<g id="a_node8"><a xlink:href="class_field.html#a81822f0090fbb9f187fe4d3d15c7ab96" target="_top" xlink:title=" ">
<polygon fill="white" stroke="black" points="510,-76.5 510,-95.5 602,-95.5 602,-76.5 510,-76.5"/>
<text text-anchor="middle" x="556" y="-83.5" font-family="Helvetica,sans-Serif" font-size="10.00">Field::GetCellPos</text>
</a>
</g>
</g>
<!-- Node7&#45;&gt;Node8 -->
<g id="edge7" class="edge">
<title>Node7&#45;&gt;Node8</title>
<path fill="none" stroke="midnightblue" d="M474.13,-86C482.37,-86 491.04,-86 499.53,-86"/>
<polygon fill="midnightblue" stroke="midnightblue" points="499.76,-89.5 509.76,-86 499.76,-82.5 499.76,-89.5"/>
</g>
</g>
</svg>
