<?xml version="1.0" encoding="UTF-8" standalone="no"?>
<!DOCTYPE svg PUBLIC "-//W3C//DTD SVG 1.1//EN"
 "http://www.w3.org/Graphics/SVG/1.1/DTD/svg11.dtd">
<!-- Generated by graphviz version 2.47.1 (20210421.1823)
 -->
<!-- Title: Engine::Draw Pages: 1 -->
<svg width="1053pt" height="485pt"
 viewBox="0.00 0.00 1053.00 485.00" xmlns="http://www.w3.org/2000/svg" xmlns:xlink="http://www.w3.org/1999/xlink">
<g id="graph0" class="graph" transform="scale(1 1) rotate(0) translate(4 481)">
<title>Engine::Draw</title>
<polygon fill="white" stroke="transparent" points="-4,4 -4,-481 1049,-481 1049,4 -4,4"/>
<!-- Node1 -->
<g id="node1" class="node">
<title>Node1</title>
<g id="a_node1"><a xlink:title=" ">
<polygon fill="#bfbfbf" stroke="black" points="0,-171.5 0,-190.5 73,-190.5 73,-171.5 0,-171.5"/>
<text text-anchor="middle" x="36.5" y="-178.5" font-family="Helvetica,sans-Serif" font-size="10.00">Engine::Draw</text>
</a>
</g>
</g>
<!-- Node2 -->
<g id="node2" class="node">
<title>Node2</title>
<g id="a_node2"><a xlink:href="class_g_u_i_1_1_g_u_i_manager.html#a4b30f151da1c9091236f1b4345d68126" target="_top" xlink:title=" ">
<polygon fill="white" stroke="black" points="133,-428.5 133,-447.5 255,-447.5 255,-428.5 133,-428.5"/>
<text text-anchor="middle" x="194" y="-435.5" font-family="Helvetica,sans-Serif" font-size="10.00">GUI::GUIManager::Draw</text>
</a>
</g>
</g>
<!-- Node1&#45;&gt;Node2 -->
<g id="edge1" class="edge">
<title>Node1&#45;&gt;Node2</title>
<path fill="none" stroke="midnightblue" d="M37.41,-190.61C37.6,-225.86 43.14,-349.41 109,-414 113.3,-418.22 118.29,-421.7 123.65,-424.59"/>
<polygon fill="midnightblue" stroke="midnightblue" points="122.41,-427.87 132.96,-428.88 125.35,-421.52 122.41,-427.87"/>
</g>
<!-- Node3 -->
<g id="node3" class="node">
<title>Node3</title>
<g id="a_node3"><a xlink:href="class_field.html#ad13d86066be42a2e10fcb9cbcc51fb0b" target="_top" xlink:title=" ">
<polygon fill="white" stroke="black" points="161.5,-276.5 161.5,-295.5 226.5,-295.5 226.5,-276.5 161.5,-276.5"/>
<text text-anchor="middle" x="194" y="-283.5" font-family="Helvetica,sans-Serif" font-size="10.00">Field::Draw</text>
</a>
</g>
</g>
<!-- Node1&#45;&gt;Node3 -->
<g id="edge2" class="edge">
<title>Node1&#45;&gt;Node3</title>
<path fill="none" stroke="midnightblue" d="M44.37,-190.5C56.04,-206.01 81.17,-236.84 109,-255 121.91,-263.42 137.41,-269.97 151.57,-274.83"/>
<polygon fill="midnightblue" stroke="midnightblue" points="150.51,-278.17 161.1,-277.93 152.68,-271.51 150.51,-278.17"/>
</g>
<!-- Node5 -->
<g id="node5" class="node">
<title>Node5</title>
<g id="a_node5"><a xlink:href="class_drawable.html#ac46f25a963a3fe3e9176461d61d213c7" target="_top" xlink:title=" ">
<polygon fill="white" stroke="black" points="485,-332.5 485,-351.5 569,-351.5 569,-332.5 485,-332.5"/>
<text text-anchor="middle" x="527" y="-339.5" font-family="Helvetica,sans-Serif" font-size="10.00">Drawable::Draw</text>
</a>
</g>
</g>
<!-- Node1&#45;&gt;Node5 -->
<g id="edge17" class="edge">
<title>Node1&#45;&gt;Node5</title>
<path fill="none" stroke="midnightblue" d="M40.47,-190.56C48.07,-213.56 70.44,-272.48 109,-305 183.6,-367.91 218.93,-363.84 315,-381 373.63,-391.47 391.07,-394.83 449,-381 468.37,-376.37 488.38,-366.04 503.14,-357.17"/>
<polygon fill="midnightblue" stroke="midnightblue" points="505.4,-359.89 512.03,-351.63 501.69,-353.95 505.4,-359.89"/>
</g>
<!-- Node14 -->
<g id="node14" class="node">
<title>Node14</title>
<g id="a_node14"><a xlink:href="class_graphics_1_1_resource_manager.html#a2bf0311bf4f8431618eb13706a26a5f1" target="_top" xlink:title=" ">
<polygon fill="white" stroke="black" points="605,-253 605,-283 744,-283 744,-253 605,-253"/>
<text text-anchor="start" x="613" y="-271" font-family="Helvetica,sans-Serif" font-size="10.00">Graphics::ResourceManager</text>
<text text-anchor="middle" x="674.5" y="-260" font-family="Helvetica,sans-Serif" font-size="10.00">::GetWindow</text>
</a>
</g>
</g>
<!-- Node1&#45;&gt;Node14 -->
<g id="edge21" class="edge">
<title>Node1&#45;&gt;Node14</title>
<path fill="none" stroke="midnightblue" d="M73.19,-182.65C144.8,-186.31 310.97,-196.52 449,-218 502.19,-226.28 561.61,-239.7 605.96,-250.56"/>
<polygon fill="midnightblue" stroke="midnightblue" points="605.2,-253.98 615.75,-252.97 606.88,-247.18 605.2,-253.98"/>
</g>
<!-- Node16 -->
<g id="node16" class="node">
<title>Node16</title>
<g id="a_node16"><a xlink:href="class_graphics_1_1_window.html#aa834f03ccb101a164cdfdffa773c0a53" target="_top" xlink:title=" ">
<polygon fill="white" stroke="black" points="315,-227 315,-257 449,-257 449,-227 315,-227"/>
<text text-anchor="start" x="323" y="-245" font-family="Helvetica,sans-Serif" font-size="10.00">Graphics::Window::GetSize</text>
<text text-anchor="middle" x="382" y="-234" font-family="Helvetica,sans-Serif" font-size="10.00">Window</text>
</a>
</g>
</g>
<!-- Node1&#45;&gt;Node16 -->
<g id="edge20" class="edge">
<title>Node1&#45;&gt;Node16</title>
<path fill="none" stroke="midnightblue" d="M53.95,-190.5C68.07,-198.18 89.22,-208.58 109,-214 173.54,-231.69 249.49,-238.39 304.7,-240.83"/>
<polygon fill="midnightblue" stroke="midnightblue" points="304.63,-244.33 314.76,-241.24 304.91,-237.34 304.63,-244.33"/>
</g>
<!-- Node17 -->
<g id="node17" class="node">
<title>Node17</title>
<g id="a_node17"><a xlink:href="class_g_u_i_1_1_g_u_i_manager.html#a35c67b5beb3865f595f3f0353c9afd94" target="_top" xlink:title=" ">
<polygon fill="white" stroke="black" points="109,-152.5 109,-171.5 279,-171.5 279,-152.5 109,-152.5"/>
<text text-anchor="middle" x="194" y="-159.5" font-family="Helvetica,sans-Serif" font-size="10.00">GUI::GUIManager::GetGUIManager</text>
</a>
</g>
</g>
<!-- Node1&#45;&gt;Node17 -->
<g id="edge18" class="edge">
<title>Node1&#45;&gt;Node17</title>
<path fill="none" stroke="midnightblue" d="M73.17,-176.64C82.88,-175.45 93.85,-174.12 105.1,-172.74"/>
<polygon fill="midnightblue" stroke="midnightblue" points="105.53,-176.21 115.03,-171.53 104.68,-169.27 105.53,-176.21"/>
</g>
<!-- Node18 -->
<g id="node18" class="node">
<title>Node18</title>
<g id="a_node18"><a xlink:href="class_engine.html#a6d852b5acb8b7af1df790a662ca863fe" target="_top" xlink:title=" ">
<polygon fill="white" stroke="black" points="147.5,-114.5 147.5,-133.5 240.5,-133.5 240.5,-114.5 147.5,-114.5"/>
<text text-anchor="middle" x="194" y="-121.5" font-family="Helvetica,sans-Serif" font-size="10.00">Engine::GetPlayer</text>
</a>
</g>
</g>
<!-- Node1&#45;&gt;Node18 -->
<g id="edge19" class="edge">
<title>Node1&#45;&gt;Node18</title>
<path fill="none" stroke="midnightblue" d="M52.57,-171.46C66.67,-162.91 88.57,-150.58 109,-143 118.05,-139.64 127.88,-136.77 137.52,-134.35"/>
<polygon fill="midnightblue" stroke="midnightblue" points="138.53,-137.7 147.45,-131.99 136.92,-130.89 138.53,-137.7"/>
</g>
<!-- Node19 -->
<g id="node19" class="node">
<title>Node19</title>
<g id="a_node19"><a xlink:href="class_world_actor.html#a35b3672c657fd763d44c75f9625c1185" target="_top" xlink:title=" ">
<polygon fill="white" stroke="black" points="148,-76.5 148,-95.5 240,-95.5 240,-76.5 148,-76.5"/>
<text text-anchor="middle" x="194" y="-83.5" font-family="Helvetica,sans-Serif" font-size="10.00">WorldActor::GetX</text>
</a>
</g>
</g>
<!-- Node1&#45;&gt;Node19 -->
<g id="edge22" class="edge">
<title>Node1&#45;&gt;Node19</title>
<path fill="none" stroke="midnightblue" d="M43.7,-171.34C54.73,-154.96 79.43,-121.9 109,-105 117.76,-99.99 127.74,-96.3 137.69,-93.59"/>
<polygon fill="midnightblue" stroke="midnightblue" points="138.69,-96.95 147.58,-91.18 137.04,-90.15 138.69,-96.95"/>
</g>
<!-- Node20 -->
<g id="node20" class="node">
<title>Node20</title>
<g id="a_node20"><a xlink:href="class_world_actor.html#a28d9235e9224dee56e6f32791d5931f0" target="_top" xlink:title=" ">
<polygon fill="white" stroke="black" points="148,-38.5 148,-57.5 240,-57.5 240,-38.5 148,-38.5"/>
<text text-anchor="middle" x="194" y="-45.5" font-family="Helvetica,sans-Serif" font-size="10.00">WorldActor::GetY</text>
</a>
</g>
</g>
<!-- Node1&#45;&gt;Node20 -->
<g id="edge23" class="edge">
<title>Node1&#45;&gt;Node20</title>
<path fill="none" stroke="midnightblue" d="M40.68,-171.23C48.46,-148.94 70.69,-94.15 109,-67 117.5,-60.97 127.61,-56.82 137.81,-53.97"/>
<polygon fill="midnightblue" stroke="midnightblue" points="138.67,-57.36 147.57,-51.61 137.02,-50.55 138.67,-57.36"/>
</g>
<!-- Node21 -->
<g id="node21" class="node">
<title>Node21</title>
<g id="a_node21"><a xlink:href="class_graphics_1_1_window.html#a7863fafae23423f404bee7aa3a57e124" target="_top" xlink:title=" ">
<polygon fill="white" stroke="black" points="129,-0.5 129,-19.5 259,-19.5 259,-0.5 129,-0.5"/>
<text text-anchor="middle" x="194" y="-7.5" font-family="Helvetica,sans-Serif" font-size="10.00">Graphics::Window::Render</text>
</a>
</g>
</g>
<!-- Node1&#45;&gt;Node21 -->
<g id="edge24" class="edge">
<title>Node1&#45;&gt;Node21</title>
<path fill="none" stroke="midnightblue" d="M39.04,-171.37C43.9,-144.33 61.48,-67.17 109,-29 112.19,-26.44 115.65,-24.21 119.3,-22.27"/>
<polygon fill="midnightblue" stroke="midnightblue" points="121.02,-25.33 128.68,-18.01 118.13,-18.95 121.02,-25.33"/>
</g>
<!-- Node4 -->
<g id="node4" class="node">
<title>Node4</title>
<g id="a_node4"><a xlink:href="class_cell.html#ac88160c4177e146f8dd7482c4eaee4f0" target="_top" xlink:title=" ">
<polygon fill="white" stroke="black" points="352,-314.5 352,-333.5 412,-333.5 412,-314.5 352,-314.5"/>
<text text-anchor="middle" x="382" y="-321.5" font-family="Helvetica,sans-Serif" font-size="10.00">Cell::Draw</text>
</a>
</g>
</g>
<!-- Node3&#45;&gt;Node4 -->
<g id="edge3" class="edge">
<title>Node3&#45;&gt;Node4</title>
<path fill="none" stroke="midnightblue" d="M226.55,-292.45C258.3,-298.93 307.34,-308.95 341.62,-315.95"/>
<polygon fill="midnightblue" stroke="midnightblue" points="341.25,-319.45 351.75,-318.02 342.65,-312.59 341.25,-319.45"/>
</g>
<!-- Node3&#45;&gt;Node14 -->
<g id="edge16" class="edge">
<title>Node3&#45;&gt;Node14</title>
<path fill="none" stroke="midnightblue" d="M226.77,-284.81C300.98,-282.01 487.53,-275 594.63,-270.97"/>
<polygon fill="midnightblue" stroke="midnightblue" points="594.88,-274.46 604.74,-270.59 594.61,-267.47 594.88,-274.46"/>
</g>
<!-- Node15 -->
<g id="node15" class="node">
<title>Node15</title>
<g id="a_node15"><a xlink:href="class_field.html#a81822f0090fbb9f187fe4d3d15c7ab96" target="_top" xlink:title=" ">
<polygon fill="white" stroke="black" points="336,-352.5 336,-371.5 428,-371.5 428,-352.5 336,-352.5"/>
<text text-anchor="middle" x="382" y="-359.5" font-family="Helvetica,sans-Serif" font-size="10.00">Field::GetCellPos</text>
</a>
</g>
</g>
<!-- Node3&#45;&gt;Node15 -->
<g id="edge14" class="edge">
<title>Node3&#45;&gt;Node15</title>
<path fill="none" stroke="midnightblue" d="M212.89,-295.64C236,-307.81 277.68,-328.87 315,-343 321.07,-345.3 327.55,-347.48 333.98,-349.49"/>
<polygon fill="midnightblue" stroke="midnightblue" points="333.41,-352.97 344,-352.5 335.43,-346.27 333.41,-352.97"/>
</g>
<!-- Node3&#45;&gt;Node16 -->
<g id="edge15" class="edge">
<title>Node3&#45;&gt;Node16</title>
<path fill="none" stroke="midnightblue" d="M226.55,-278.54C248.71,-273.29 279.29,-266.06 307.4,-259.41"/>
<polygon fill="midnightblue" stroke="midnightblue" points="308.3,-262.8 317.22,-257.09 306.69,-255.98 308.3,-262.8"/>
</g>
<!-- Node4&#45;&gt;Node5 -->
<g id="edge4" class="edge">
<title>Node4&#45;&gt;Node5</title>
<path fill="none" stroke="midnightblue" d="M412.28,-327.69C430.26,-329.95 453.78,-332.91 474.77,-335.55"/>
<polygon fill="midnightblue" stroke="midnightblue" points="474.47,-339.04 484.83,-336.82 475.35,-332.1 474.47,-339.04"/>
</g>
<!-- Node6 -->
<g id="node6" class="node">
<title>Node6</title>
<g id="a_node6"><a xlink:href="class_graphics_1_1_image.html#af48c0e309532eb1ff36e8fdaee244da1" target="_top" xlink:title=" ">
<polygon fill="white" stroke="black" points="617.5,-400.5 617.5,-419.5 731.5,-419.5 731.5,-400.5 617.5,-400.5"/>
<text text-anchor="middle" x="674.5" y="-407.5" font-family="Helvetica,sans-Serif" font-size="10.00">Graphics::Image::Draw</text>
</a>
</g>
</g>
<!-- Node5&#45;&gt;Node6 -->
<g id="edge5" class="edge">
<title>Node5&#45;&gt;Node6</title>
<path fill="none" stroke="midnightblue" d="M540.42,-351.55C555.12,-362.46 580.68,-380.18 605,-391 610.35,-393.38 616.06,-395.53 621.82,-397.45"/>
<polygon fill="midnightblue" stroke="midnightblue" points="620.93,-400.84 631.51,-400.47 623.01,-394.15 620.93,-400.84"/>
</g>
<!-- Node12 -->
<g id="node12" class="node">
<title>Node12</title>
<g id="a_node12"><a xlink:href="class_graphics_1_1_resource_manager.html#a712cf513dbda24deb3a7fcea7157003a" target="_top" xlink:title=" ">
<polygon fill="white" stroke="black" points="605,-351 605,-381 744,-381 744,-351 605,-351"/>
<text text-anchor="start" x="613" y="-369" font-family="Helvetica,sans-Serif" font-size="10.00">Graphics::ResourceManager</text>
<text text-anchor="middle" x="674.5" y="-358" font-family="Helvetica,sans-Serif" font-size="10.00">::GetImage</text>
</a>
</g>
</g>
<!-- Node5&#45;&gt;Node12 -->
<g id="edge11" class="edge">
<title>Node5&#45;&gt;Node12</title>
<path fill="none" stroke="midnightblue" d="M569.31,-348.81C577.36,-350.14 586.06,-351.58 594.87,-353.03"/>
<polygon fill="midnightblue" stroke="midnightblue" points="594.4,-356.5 604.84,-354.67 595.54,-349.59 594.4,-356.5"/>
</g>
<!-- Node13 -->
<g id="node13" class="node">
<title>Node13</title>
<g id="a_node13"><a xlink:href="class_graphics_1_1_resource_manager.html#a34d11294bd090580de46ab34f303c2ab" target="_top" xlink:title=" ">
<polygon fill="white" stroke="black" points="605,-302 605,-332 744,-332 744,-302 605,-302"/>
<text text-anchor="start" x="613" y="-320" font-family="Helvetica,sans-Serif" font-size="10.00">Graphics::ResourceManager</text>
<text text-anchor="middle" x="674.5" y="-309" font-family="Helvetica,sans-Serif" font-size="10.00">::GetShader</text>
</a>
</g>
</g>
<!-- Node5&#45;&gt;Node13 -->
<g id="edge12" class="edge">
<title>Node5&#45;&gt;Node13</title>
<path fill="none" stroke="midnightblue" d="M569.31,-334.9C577.36,-333.52 586.06,-332.02 594.87,-330.51"/>
<polygon fill="midnightblue" stroke="midnightblue" points="595.57,-333.94 604.84,-328.8 594.39,-327.04 595.57,-333.94"/>
</g>
<!-- Node5&#45;&gt;Node14 -->
<g id="edge13" class="edge">
<title>Node5&#45;&gt;Node14</title>
<path fill="none" stroke="midnightblue" d="M541.11,-332.4C556.04,-321.79 581.41,-304.64 605,-293 609.31,-290.87 613.86,-288.82 618.47,-286.88"/>
<polygon fill="midnightblue" stroke="midnightblue" points="620,-290.03 627.96,-283.04 617.38,-283.54 620,-290.03"/>
</g>
<!-- Node7 -->
<g id="node7" class="node">
<title>Node7</title>
<g id="a_node7"><a xlink:href="class_graphics_1_1_quadrangle.html#a7a061a60b5bff19feb5fd317d06495f0" target="_top" xlink:title=" ">
<polygon fill="white" stroke="black" points="780,-417 780,-447 890,-447 890,-417 780,-417"/>
<text text-anchor="start" x="788" y="-435" font-family="Helvetica,sans-Serif" font-size="10.00">Graphics::Quadrangle</text>
<text text-anchor="middle" x="835" y="-424" font-family="Helvetica,sans-Serif" font-size="10.00">::Draw</text>
</a>
</g>
</g>
<!-- Node6&#45;&gt;Node7 -->
<g id="edge6" class="edge">
<title>Node6&#45;&gt;Node7</title>
<path fill="none" stroke="midnightblue" d="M731.83,-417.82C744.18,-419.53 757.36,-421.36 769.99,-423.12"/>
<polygon fill="midnightblue" stroke="midnightblue" points="769.59,-426.59 779.98,-424.5 770.56,-419.66 769.59,-426.59"/>
</g>
<!-- Node10 -->
<g id="node10" class="node">
<title>Node10</title>
<g id="a_node10"><a xlink:href="class_graphics_1_1_shader.html#aa5da414808337285b38565f60c3d7cbd" target="_top" xlink:title=" ">
<polygon fill="white" stroke="black" points="780,-378.5 780,-397.5 890,-397.5 890,-378.5 780,-378.5"/>
<text text-anchor="middle" x="835" y="-385.5" font-family="Helvetica,sans-Serif" font-size="10.00">Graphics::Shader::Set</text>
</a>
</g>
</g>
<!-- Node6&#45;&gt;Node10 -->
<g id="edge9" class="edge">
<title>Node6&#45;&gt;Node10</title>
<path fill="none" stroke="midnightblue" d="M731.83,-402.18C744.18,-400.47 757.36,-398.64 769.99,-396.88"/>
<polygon fill="midnightblue" stroke="midnightblue" points="770.56,-400.34 779.98,-395.5 769.59,-393.41 770.56,-400.34"/>
</g>
<!-- Node8 -->
<g id="node8" class="node">
<title>Node8</title>
<g id="a_node8"><a xlink:href="class_graphics_1_1_shader.html#a63bfd523754bb6b2224aa7a48c65a504" target="_top" xlink:title=" ">
<polygon fill="white" stroke="black" points="926,-419.5 926,-438.5 1045,-438.5 1045,-419.5 926,-419.5"/>
<text text-anchor="middle" x="985.5" y="-426.5" font-family="Helvetica,sans-Serif" font-size="10.00">Graphics::Shader::GetId</text>
</a>
</g>
</g>
<!-- Node7&#45;&gt;Node8 -->
<g id="edge7" class="edge">
<title>Node7&#45;&gt;Node8</title>
<path fill="none" stroke="midnightblue" d="M890.03,-430.91C898.44,-430.74 907.21,-430.56 915.89,-430.39"/>
<polygon fill="midnightblue" stroke="midnightblue" points="916.07,-433.88 926,-430.18 915.93,-426.88 916.07,-433.88"/>
</g>
<!-- Node9 -->
<g id="node9" class="node">
<title>Node9</title>
<g id="a_node9"><a xlink:href="class_graphics_1_1_shader.html#a11a2de17d1d077ec34acd4f7cd57f6b1" target="_top" xlink:title=" ">
<polygon fill="white" stroke="black" points="929,-457.5 929,-476.5 1042,-476.5 1042,-457.5 929,-457.5"/>
<text text-anchor="middle" x="985.5" y="-464.5" font-family="Helvetica,sans-Serif" font-size="10.00">Graphics::Shader::Use</text>
</a>
</g>
</g>
<!-- Node7&#45;&gt;Node9 -->
<g id="edge8" class="edge">
<title>Node7&#45;&gt;Node9</title>
<path fill="none" stroke="midnightblue" d="M890.03,-444.73C904.31,-448.1 919.67,-451.72 933.77,-455.04"/>
<polygon fill="midnightblue" stroke="midnightblue" points="933.25,-458.52 943.78,-457.4 934.85,-451.7 933.25,-458.52"/>
</g>
<!-- Node11 -->
<g id="node11" class="node">
<title>Node11</title>
<g id="a_node11"><a xlink:href="class_graphics_1_1_image.html#aab55feadb4b66e0fd78b5f54a6fadde2" target="_top" xlink:title=" ">
<polygon fill="white" stroke="black" points="927.5,-378.5 927.5,-397.5 1043.5,-397.5 1043.5,-378.5 927.5,-378.5"/>
<text text-anchor="middle" x="985.5" y="-385.5" font-family="Helvetica,sans-Serif" font-size="10.00">Graphics::Image::GetId</text>
</a>
</g>
</g>
<!-- Node10&#45;&gt;Node11 -->
<g id="edge10" class="edge">
<title>Node10&#45;&gt;Node11</title>
<path fill="none" stroke="midnightblue" d="M890.03,-388C898.83,-388 908.04,-388 917.11,-388"/>
<polygon fill="midnightblue" stroke="midnightblue" points="917.26,-391.5 927.26,-388 917.26,-384.5 917.26,-391.5"/>
</g>
<!-- Node22 -->
<g id="node22" class="node">
<title>Node22</title>
<g id="a_node22"><a xlink:href="class_graphics_1_1_window.html#a9904449165571eff36b106148ec1279f" target="_top" xlink:title=" ">
<polygon fill="white" stroke="black" points="321,-0.5 321,-19.5 443,-19.5 443,-0.5 321,-0.5"/>
<text text-anchor="middle" x="382" y="-7.5" font-family="Helvetica,sans-Serif" font-size="10.00">Graphics::Window::Clear</text>
</a>
</g>
</g>
<!-- Node21&#45;&gt;Node22 -->
<g id="edge25" class="edge">
<title>Node21&#45;&gt;Node22</title>
<path fill="none" stroke="midnightblue" d="M259.01,-10C275.63,-10 293.63,-10 310.56,-10"/>
<polygon fill="midnightblue" stroke="midnightblue" points="310.94,-13.5 320.94,-10 310.94,-6.5 310.94,-13.5"/>
</g>
</g>
</svg>
