<?xml version="1.0" encoding="UTF-8" standalone="no"?>
<!DOCTYPE svg PUBLIC "-//W3C//DTD SVG 1.1//EN"
 "http://www.w3.org/Graphics/SVG/1.1/DTD/svg11.dtd">
<!-- Generated by graphviz version 2.47.1 (20210421.1823)
 -->
<!-- Title: Graphics::Image Pages: 1 -->
<svg width="118pt" height="551pt"
 viewBox="0.00 0.00 118.00 551.00" xmlns="http://www.w3.org/2000/svg" xmlns:xlink="http://www.w3.org/1999/xlink">
<g id="graph0" class="graph" transform="scale(1 1) rotate(0) translate(4 547)">
<title>Graphics::Image</title>
<polygon fill="white" stroke="transparent" points="-4,4 -4,-547 114,-547 114,4 -4,4"/>
<!-- Node1 -->
<g id="node1" class="node">
<title>Node1</title>
<g id="a_node1"><a xlink:title=" ">
<polygon fill="#bfbfbf" stroke="black" points="11.5,-0.5 11.5,-156.5 98.5,-156.5 98.5,-0.5 11.5,-0.5"/>
<text text-anchor="middle" x="55" y="-144.5" font-family="Helvetica,sans-Serif" font-size="10.00">Graphics::Image</text>
<polyline fill="none" stroke="black" points="11.5,-137.5 98.5,-137.5 "/>
<text text-anchor="middle" x="55" y="-125.5" font-family="Helvetica,sans-Serif" font-size="10.00"> </text>
<polyline fill="none" stroke="black" points="11.5,-118.5 98.5,-118.5 "/>
<text text-anchor="start" x="19.5" y="-106.5" font-family="Helvetica,sans-Serif" font-size="10.00">+ ~Image()</text>
<text text-anchor="start" x="19.5" y="-95.5" font-family="Helvetica,sans-Serif" font-size="10.00">+ Image()</text>
<text text-anchor="start" x="19.5" y="-84.5" font-family="Helvetica,sans-Serif" font-size="10.00">+ Image()</text>
<text text-anchor="start" x="19.5" y="-73.5" font-family="Helvetica,sans-Serif" font-size="10.00">+ operator=()</text>
<text text-anchor="start" x="19.5" y="-62.5" font-family="Helvetica,sans-Serif" font-size="10.00">+ Image()</text>
<text text-anchor="start" x="19.5" y="-51.5" font-family="Helvetica,sans-Serif" font-size="10.00">+ GetSize()</text>
<text text-anchor="start" x="19.5" y="-40.5" font-family="Helvetica,sans-Serif" font-size="10.00">+ GetId()</text>
<text text-anchor="start" x="19.5" y="-29.5" font-family="Helvetica,sans-Serif" font-size="10.00">+ Draw()</text>
<text text-anchor="start" x="19.5" y="-18.5" font-family="Helvetica,sans-Serif" font-size="10.00">+ Draw()</text>
<text text-anchor="start" x="19.5" y="-7.5" font-family="Helvetica,sans-Serif" font-size="10.00">+ Draw()</text>
</a>
</g>
</g>
<!-- Node2 -->
<g id="node2" class="node">
<title>Node2</title>
<g id="a_node2"><a xlink:href="class_graphics_1_1_quadrangle.html" target="_top" xlink:title=" ">
<polygon fill="white" stroke="black" points="0,-193.5 0,-404.5 110,-404.5 110,-193.5 0,-193.5"/>
<text text-anchor="middle" x="55" y="-392.5" font-family="Helvetica,sans-Serif" font-size="10.00">Graphics::Quadrangle</text>
<polyline fill="none" stroke="black" points="0,-385.5 110,-385.5 "/>
<text text-anchor="start" x="8" y="-373.5" font-family="Helvetica,sans-Serif" font-size="10.00"># x1</text>
<text text-anchor="start" x="8" y="-362.5" font-family="Helvetica,sans-Serif" font-size="10.00"># y1</text>
<text text-anchor="start" x="8" y="-351.5" font-family="Helvetica,sans-Serif" font-size="10.00"># x2</text>
<text text-anchor="start" x="8" y="-340.5" font-family="Helvetica,sans-Serif" font-size="10.00"># y2</text>
<text text-anchor="start" x="8" y="-329.5" font-family="Helvetica,sans-Serif" font-size="10.00"># x3</text>
<text text-anchor="start" x="8" y="-318.5" font-family="Helvetica,sans-Serif" font-size="10.00"># y3</text>
<text text-anchor="start" x="8" y="-307.5" font-family="Helvetica,sans-Serif" font-size="10.00"># x4</text>
<text text-anchor="start" x="8" y="-296.5" font-family="Helvetica,sans-Serif" font-size="10.00"># y4</text>
<polyline fill="none" stroke="black" points="0,-289.5 110,-289.5 "/>
<text text-anchor="start" x="8" y="-277.5" font-family="Helvetica,sans-Serif" font-size="10.00">+ ~Quadrangle()</text>
<text text-anchor="start" x="8" y="-266.5" font-family="Helvetica,sans-Serif" font-size="10.00">+ Quadrangle()</text>
<text text-anchor="start" x="8" y="-255.5" font-family="Helvetica,sans-Serif" font-size="10.00">+ Quadrangle()</text>
<text text-anchor="start" x="8" y="-244.5" font-family="Helvetica,sans-Serif" font-size="10.00">+ operator=()</text>
<text text-anchor="start" x="8" y="-233.5" font-family="Helvetica,sans-Serif" font-size="10.00">+ Quadrangle()</text>
<text text-anchor="start" x="8" y="-222.5" font-family="Helvetica,sans-Serif" font-size="10.00">+ Draw()</text>
<text text-anchor="start" x="8" y="-211.5" font-family="Helvetica,sans-Serif" font-size="10.00">+ Draw()</text>
<text text-anchor="start" x="8" y="-200.5" font-family="Helvetica,sans-Serif" font-size="10.00">+ Draw()</text>
</a>
</g>
</g>
<!-- Node2&#45;&gt;Node1 -->
<g id="edge1" class="edge">
<title>Node2&#45;&gt;Node1</title>
<path fill="none" stroke="midnightblue" d="M55,-183.07C55,-174.09 55,-165.15 55,-156.51"/>
<polygon fill="none" stroke="midnightblue" points="51.5,-183.23 55,-193.23 58.5,-183.23 51.5,-183.23"/>
</g>
<!-- Node3 -->
<g id="node3" class="node">
<title>Node3</title>
<g id="a_node3"><a xlink:href="class_graphics_1_1_g_shape.html" target="_top" xlink:title=" ">
<polygon fill="white" stroke="black" points="5,-441.5 5,-542.5 105,-542.5 105,-441.5 5,-441.5"/>
<text text-anchor="middle" x="55" y="-530.5" font-family="Helvetica,sans-Serif" font-size="10.00">Graphics::GShape</text>
<polyline fill="none" stroke="black" points="5,-523.5 105,-523.5 "/>
<text text-anchor="start" x="13" y="-511.5" font-family="Helvetica,sans-Serif" font-size="10.00"># id_vertex_arrays_</text>
<text text-anchor="start" x="13" y="-500.5" font-family="Helvetica,sans-Serif" font-size="10.00"># id_vertex_buffer_</text>
<polyline fill="none" stroke="black" points="5,-493.5 105,-493.5 "/>
<text text-anchor="start" x="13" y="-481.5" font-family="Helvetica,sans-Serif" font-size="10.00">+ ~GShape()</text>
<text text-anchor="start" x="13" y="-470.5" font-family="Helvetica,sans-Serif" font-size="10.00">+ Draw()</text>
<text text-anchor="start" x="13" y="-459.5" font-family="Helvetica,sans-Serif" font-size="10.00">+ Draw()</text>
<text text-anchor="start" x="13" y="-448.5" font-family="Helvetica,sans-Serif" font-size="10.00">+ Draw()</text>
</a>
</g>
</g>
<!-- Node3&#45;&gt;Node2 -->
<g id="edge2" class="edge">
<title>Node3&#45;&gt;Node2</title>
<path fill="none" stroke="midnightblue" d="M55,-431.18C55,-422.67 55,-413.72 55,-404.66"/>
<polygon fill="none" stroke="midnightblue" points="51.5,-431.32 55,-441.32 58.5,-431.32 51.5,-431.32"/>
</g>
</g>
</svg>
