<?xml version="1.0" encoding="UTF-8" standalone="no"?>
<!DOCTYPE svg PUBLIC "-//W3C//DTD SVG 1.1//EN"
 "http://www.w3.org/Graphics/SVG/1.1/DTD/svg11.dtd">
<!-- Generated by graphviz version 2.47.1 (20210421.1823)
 -->
<!-- Title: WorldActor Pages: 1 -->
<svg width="309pt" height="452pt"
 viewBox="0.00 0.00 308.50 452.00" xmlns="http://www.w3.org/2000/svg" xmlns:xlink="http://www.w3.org/1999/xlink">
<g id="graph0" class="graph" transform="scale(1 1) rotate(0) translate(4 448)">
<title>WorldActor</title>
<polygon fill="white" stroke="transparent" points="-4,4 -4,-448 304.5,-448 304.5,4 -4,4"/>
<!-- Node1 -->
<g id="node1" class="node">
<title>Node1</title>
<g id="a_node1"><a xlink:title=" ">
<polygon fill="#bfbfbf" stroke="black" points="109,-160.5 109,-349.5 191,-349.5 191,-160.5 109,-160.5"/>
<text text-anchor="middle" x="150" y="-337.5" font-family="Helvetica,sans-Serif" font-size="10.00">WorldActor</text>
<polyline fill="none" stroke="black" points="109,-330.5 191,-330.5 "/>
<text text-anchor="start" x="117" y="-318.5" font-family="Helvetica,sans-Serif" font-size="10.00"># position_</text>
<text text-anchor="start" x="117" y="-307.5" font-family="Helvetica,sans-Serif" font-size="10.00"># speed_</text>
<text text-anchor="start" x="117" y="-296.5" font-family="Helvetica,sans-Serif" font-size="10.00"># fly_</text>
<text text-anchor="start" x="117" y="-285.5" font-family="Helvetica,sans-Serif" font-size="10.00"># rooted_</text>
<text text-anchor="start" x="117" y="-274.5" font-family="Helvetica,sans-Serif" font-size="10.00"># field_</text>
<polyline fill="none" stroke="black" points="109,-267.5 191,-267.5 "/>
<text text-anchor="start" x="117" y="-255.5" font-family="Helvetica,sans-Serif" font-size="10.00">+ WorldActor()</text>
<text text-anchor="start" x="117" y="-244.5" font-family="Helvetica,sans-Serif" font-size="10.00">+ Move()</text>
<text text-anchor="start" x="117" y="-233.5" font-family="Helvetica,sans-Serif" font-size="10.00">+ Tick()</text>
<text text-anchor="start" x="117" y="-222.5" font-family="Helvetica,sans-Serif" font-size="10.00">+ IncSpeed()</text>
<text text-anchor="start" x="117" y="-211.5" font-family="Helvetica,sans-Serif" font-size="10.00">+ SetSpeed()</text>
<text text-anchor="start" x="117" y="-200.5" font-family="Helvetica,sans-Serif" font-size="10.00">+ GetX()</text>
<text text-anchor="start" x="117" y="-189.5" font-family="Helvetica,sans-Serif" font-size="10.00">+ GetY()</text>
<text text-anchor="start" x="117" y="-178.5" font-family="Helvetica,sans-Serif" font-size="10.00">+ GetPosition()</text>
<text text-anchor="start" x="117" y="-167.5" font-family="Helvetica,sans-Serif" font-size="10.00">+ Distance()</text>
</a>
</g>
</g>
<!-- Node3 -->
<g id="node3" class="node">
<title>Node3</title>
<g id="a_node3"><a xlink:href="class_player.html" target="_top" xlink:title=" ">
<polygon fill="white" stroke="black" points="0,-0.5 0,-123.5 74,-123.5 74,-0.5 0,-0.5"/>
<text text-anchor="middle" x="37" y="-111.5" font-family="Helvetica,sans-Serif" font-size="10.00">Player</text>
<polyline fill="none" stroke="black" points="0,-104.5 74,-104.5 "/>
<text text-anchor="middle" x="37" y="-92.5" font-family="Helvetica,sans-Serif" font-size="10.00"> </text>
<polyline fill="none" stroke="black" points="0,-85.5 74,-85.5 "/>
<text text-anchor="start" x="8" y="-73.5" font-family="Helvetica,sans-Serif" font-size="10.00">+ Player()</text>
<text text-anchor="start" x="8" y="-62.5" font-family="Helvetica,sans-Serif" font-size="10.00">+ Player()</text>
<text text-anchor="start" x="8" y="-51.5" font-family="Helvetica,sans-Serif" font-size="10.00">+ ~Player()</text>
<text text-anchor="start" x="8" y="-40.5" font-family="Helvetica,sans-Serif" font-size="10.00">+ Stop()</text>
<text text-anchor="start" x="8" y="-29.5" font-family="Helvetica,sans-Serif" font-size="10.00">+ SpeedSet()</text>
<text text-anchor="start" x="8" y="-18.5" font-family="Helvetica,sans-Serif" font-size="10.00">+ SpeedInc()</text>
<text text-anchor="start" x="8" y="-7.5" font-family="Helvetica,sans-Serif" font-size="10.00">+ Tick()</text>
</a>
</g>
</g>
<!-- Node1&#45;&gt;Node3 -->
<g id="edge2" class="edge">
<title>Node1&#45;&gt;Node3</title>
<path fill="none" stroke="midnightblue" d="M103.57,-175.53C93.32,-158.2 82.61,-140.1 72.86,-123.61"/>
<polygon fill="none" stroke="midnightblue" points="100.78,-177.68 108.88,-184.5 106.81,-174.12 100.78,-177.68"/>
</g>
<!-- Node4 -->
<g id="node4" class="node">
<title>Node4</title>
<g id="a_node4"><a xlink:href="class_unit.html" target="_top" xlink:title=" ">
<polygon fill="white" stroke="black" points="92.5,-6 92.5,-118 207.5,-118 207.5,-6 92.5,-6"/>
<text text-anchor="middle" x="150" y="-106" font-family="Helvetica,sans-Serif" font-size="10.00">Unit</text>
<polyline fill="none" stroke="black" points="92.5,-99 207.5,-99 "/>
<text text-anchor="middle" x="150" y="-87" font-family="Helvetica,sans-Serif" font-size="10.00"> </text>
<polyline fill="none" stroke="black" points="92.5,-80 207.5,-80 "/>
<text text-anchor="start" x="100.5" y="-68" font-family="Helvetica,sans-Serif" font-size="10.00">+ Unit()</text>
<text text-anchor="start" x="100.5" y="-57" font-family="Helvetica,sans-Serif" font-size="10.00">+ Tick()</text>
<text text-anchor="start" x="100.5" y="-46" font-family="Helvetica,sans-Serif" font-size="10.00">+ IncSpeedRandomly()</text>
<text text-anchor="start" x="100.5" y="-35" font-family="Helvetica,sans-Serif" font-size="10.00">+ GetRandomize()</text>
<text text-anchor="start" x="100.5" y="-24" font-family="Helvetica,sans-Serif" font-size="10.00">+ GetPower()</text>
<text text-anchor="start" x="100.5" y="-13" font-family="Helvetica,sans-Serif" font-size="10.00">+ GetLife()</text>
</a>
</g>
</g>
<!-- Node1&#45;&gt;Node4 -->
<g id="edge3" class="edge">
<title>Node1&#45;&gt;Node4</title>
<path fill="none" stroke="midnightblue" d="M150,-150.3C150,-139.26 150,-128.37 150,-118.22"/>
<polygon fill="none" stroke="midnightblue" points="146.5,-150.46 150,-160.46 153.5,-150.46 146.5,-150.46"/>
</g>
<!-- Node5 -->
<g id="node5" class="node">
<title>Node5</title>
<g id="a_node5"><a xlink:href="class_unit_group.html" target="_top" xlink:title=" ">
<polygon fill="white" stroke="black" points="225.5,-22.5 225.5,-101.5 300.5,-101.5 300.5,-22.5 225.5,-22.5"/>
<text text-anchor="middle" x="263" y="-89.5" font-family="Helvetica,sans-Serif" font-size="10.00">UnitGroup</text>
<polyline fill="none" stroke="black" points="225.5,-82.5 300.5,-82.5 "/>
<text text-anchor="middle" x="263" y="-70.5" font-family="Helvetica,sans-Serif" font-size="10.00"> </text>
<polyline fill="none" stroke="black" points="225.5,-63.5 300.5,-63.5 "/>
<text text-anchor="start" x="233.5" y="-51.5" font-family="Helvetica,sans-Serif" font-size="10.00">+ UnitGroup()</text>
<text text-anchor="start" x="233.5" y="-40.5" font-family="Helvetica,sans-Serif" font-size="10.00">+ Tick()</text>
<text text-anchor="start" x="233.5" y="-29.5" font-family="Helvetica,sans-Serif" font-size="10.00">+ Draw()</text>
</a>
</g>
</g>
<!-- Node1&#45;&gt;Node5 -->
<g id="edge4" class="edge">
<title>Node1&#45;&gt;Node5</title>
<path fill="none" stroke="midnightblue" d="M196.4,-175.57C211.49,-150.07 227.57,-122.89 240.15,-101.63"/>
<polygon fill="none" stroke="midnightblue" points="193.19,-174.12 191.12,-184.5 199.22,-177.68 193.19,-174.12"/>
</g>
<!-- Node2 -->
<g id="node2" class="node">
<title>Node2</title>
<g id="a_node2"><a xlink:href="class_tickable.html" target="_top" xlink:title=" ">
<polygon fill="white" stroke="black" points="123.5,-386.5 123.5,-443.5 176.5,-443.5 176.5,-386.5 123.5,-386.5"/>
<text text-anchor="middle" x="150" y="-431.5" font-family="Helvetica,sans-Serif" font-size="10.00">Tickable</text>
<polyline fill="none" stroke="black" points="123.5,-424.5 176.5,-424.5 "/>
<text text-anchor="middle" x="150" y="-412.5" font-family="Helvetica,sans-Serif" font-size="10.00"> </text>
<polyline fill="none" stroke="black" points="123.5,-405.5 176.5,-405.5 "/>
<text text-anchor="start" x="131.5" y="-393.5" font-family="Helvetica,sans-Serif" font-size="10.00">+ Tick()</text>
</a>
</g>
</g>
<!-- Node2&#45;&gt;Node1 -->
<g id="edge1" class="edge">
<title>Node2&#45;&gt;Node1</title>
<path fill="none" stroke="#8b1a1a" d="M150,-376.22C150,-368.01 150,-358.99 150,-349.68"/>
<polygon fill="none" stroke="#8b1a1a" points="146.5,-376.48 150,-386.48 153.5,-376.48 146.5,-376.48"/>
</g>
</g>
</svg>
