<?xml version="1.0" encoding="UTF-8" standalone="no"?>
<!DOCTYPE svg PUBLIC "-//W3C//DTD SVG 1.1//EN"
 "http://www.w3.org/Graphics/SVG/1.1/DTD/svg11.dtd">
<!-- Generated by graphviz version 2.47.1 (20210421.1823)
 -->
<!-- Title: Tickable Pages: 1 -->
<svg width="728pt" height="452pt"
 viewBox="0.00 0.00 727.50 452.00" xmlns="http://www.w3.org/2000/svg" xmlns:xlink="http://www.w3.org/1999/xlink">
<g id="graph0" class="graph" transform="scale(1 1) rotate(0) translate(4 448)">
<title>Tickable</title>
<polygon fill="white" stroke="transparent" points="-4,4 -4,-448 723.5,-448 723.5,4 -4,4"/>
<!-- Node1 -->
<g id="node1" class="node">
<title>Node1</title>
<g id="a_node1"><a xlink:title=" ">
<polygon fill="#bfbfbf" stroke="black" points="194.5,-386.5 194.5,-443.5 247.5,-443.5 247.5,-386.5 194.5,-386.5"/>
<text text-anchor="middle" x="221" y="-431.5" font-family="Helvetica,sans-Serif" font-size="10.00">Tickable</text>
<polyline fill="none" stroke="black" points="194.5,-424.5 247.5,-424.5 "/>
<text text-anchor="middle" x="221" y="-412.5" font-family="Helvetica,sans-Serif" font-size="10.00"> </text>
<polyline fill="none" stroke="black" points="194.5,-405.5 247.5,-405.5 "/>
<text text-anchor="start" x="202.5" y="-393.5" font-family="Helvetica,sans-Serif" font-size="10.00">+ Tick()</text>
</a>
</g>
</g>
<!-- Node2 -->
<g id="node2" class="node">
<title>Node2</title>
<g id="a_node2"><a xlink:href="class_building.html" target="_top" xlink:title=" ">
<polygon fill="white" stroke="black" points="30,-204.5 30,-305.5 116,-305.5 116,-204.5 30,-204.5"/>
<text text-anchor="middle" x="73" y="-293.5" font-family="Helvetica,sans-Serif" font-size="10.00">Building</text>
<polyline fill="none" stroke="black" points="30,-286.5 116,-286.5 "/>
<text text-anchor="middle" x="73" y="-274.5" font-family="Helvetica,sans-Serif" font-size="10.00"> </text>
<polyline fill="none" stroke="black" points="30,-267.5 116,-267.5 "/>
<text text-anchor="start" x="38" y="-255.5" font-family="Helvetica,sans-Serif" font-size="10.00">+ GetLife()</text>
<text text-anchor="start" x="38" y="-244.5" font-family="Helvetica,sans-Serif" font-size="10.00">+ DealDamage()</text>
<text text-anchor="start" x="38" y="-233.5" font-family="Helvetica,sans-Serif" font-size="10.00">+ Repair()</text>
<text text-anchor="start" x="38" y="-222.5" font-family="Helvetica,sans-Serif" font-size="10.00">+ Building()</text>
<text text-anchor="start" x="38" y="-211.5" font-family="Helvetica,sans-Serif" font-size="10.00">+ Tick()</text>
</a>
</g>
</g>
<!-- Node1&#45;&gt;Node2 -->
<g id="edge1" class="edge">
<title>Node1&#45;&gt;Node2</title>
<path fill="none" stroke="midnightblue" d="M185.52,-395.86C165.95,-384.59 142.22,-368.7 125,-350 113.13,-337.1 102.96,-321 94.85,-305.79"/>
<polygon fill="none" stroke="midnightblue" points="184.02,-399.03 194.46,-400.86 187.44,-392.92 184.02,-399.03"/>
</g>
<!-- Node3 -->
<g id="node3" class="node">
<title>Node3</title>
<g id="a_node3"><a xlink:href="class_cell.html" target="_top" xlink:title=" ">
<polygon fill="white" stroke="black" points="134.5,-166 134.5,-344 215.5,-344 215.5,-166 134.5,-166"/>
<text text-anchor="middle" x="175" y="-332" font-family="Helvetica,sans-Serif" font-size="10.00">Cell</text>
<polyline fill="none" stroke="black" points="134.5,-325 215.5,-325 "/>
<text text-anchor="middle" x="175" y="-313" font-family="Helvetica,sans-Serif" font-size="10.00"> </text>
<polyline fill="none" stroke="black" points="134.5,-306 215.5,-306 "/>
<text text-anchor="start" x="142.5" y="-294" font-family="Helvetica,sans-Serif" font-size="10.00">+ Cell()</text>
<text text-anchor="start" x="142.5" y="-283" font-family="Helvetica,sans-Serif" font-size="10.00">+ Cell()</text>
<text text-anchor="start" x="142.5" y="-272" font-family="Helvetica,sans-Serif" font-size="10.00">+ operator=()</text>
<text text-anchor="start" x="142.5" y="-261" font-family="Helvetica,sans-Serif" font-size="10.00">+ ~Cell()</text>
<text text-anchor="start" x="142.5" y="-250" font-family="Helvetica,sans-Serif" font-size="10.00">+ Add()</text>
<text text-anchor="start" x="142.5" y="-239" font-family="Helvetica,sans-Serif" font-size="10.00">+ SetBuilding()</text>
<text text-anchor="start" x="142.5" y="-228" font-family="Helvetica,sans-Serif" font-size="10.00">+ GetSpeed()</text>
<text text-anchor="start" x="142.5" y="-217" font-family="Helvetica,sans-Serif" font-size="10.00">+ GetSize()</text>
<text text-anchor="start" x="142.5" y="-206" font-family="Helvetica,sans-Serif" font-size="10.00">+ GetBuilding()</text>
<text text-anchor="start" x="142.5" y="-195" font-family="Helvetica,sans-Serif" font-size="10.00">+ Draw()</text>
<text text-anchor="start" x="142.5" y="-184" font-family="Helvetica,sans-Serif" font-size="10.00">+ Tick()</text>
<text text-anchor="start" x="142.5" y="-173" font-family="Helvetica,sans-Serif" font-size="10.00">+ isEarth()</text>
</a>
</g>
</g>
<!-- Node1&#45;&gt;Node3 -->
<g id="edge2" class="edge">
<title>Node1&#45;&gt;Node3</title>
<path fill="none" stroke="midnightblue" d="M210.13,-376.66C207.25,-366.77 204.02,-355.66 200.71,-344.3"/>
<polygon fill="none" stroke="midnightblue" points="206.83,-377.86 212.99,-386.48 213.55,-375.9 206.83,-377.86"/>
</g>
<!-- Node4 -->
<g id="node4" class="node">
<title>Node4</title>
<g id="a_node4"><a xlink:href="class_ground.html" target="_top" xlink:title=" ">
<polygon fill="white" stroke="black" points="234,-221 234,-289 302,-289 302,-221 234,-221"/>
<text text-anchor="middle" x="268" y="-277" font-family="Helvetica,sans-Serif" font-size="10.00">Ground</text>
<polyline fill="none" stroke="black" points="234,-270 302,-270 "/>
<text text-anchor="middle" x="268" y="-258" font-family="Helvetica,sans-Serif" font-size="10.00"> </text>
<polyline fill="none" stroke="black" points="234,-251 302,-251 "/>
<text text-anchor="start" x="242" y="-239" font-family="Helvetica,sans-Serif" font-size="10.00">+ ~Ground()</text>
<text text-anchor="start" x="242" y="-228" font-family="Helvetica,sans-Serif" font-size="10.00">+ Ground()</text>
</a>
</g>
</g>
<!-- Node1&#45;&gt;Node4 -->
<g id="edge3" class="edge">
<title>Node1&#45;&gt;Node4</title>
<path fill="none" stroke="midnightblue" d="M232.07,-376.77C239.97,-350.22 250.5,-314.83 258.12,-289.23"/>
<polygon fill="none" stroke="midnightblue" points="228.68,-375.9 229.19,-386.48 235.39,-377.89 228.68,-375.9"/>
</g>
<!-- Node9 -->
<g id="node9" class="node">
<title>Node9</title>
<g id="a_node9"><a xlink:href="class_world_actor.html" target="_top" xlink:title=" ">
<polygon fill="white" stroke="black" points="471,-160.5 471,-349.5 553,-349.5 553,-160.5 471,-160.5"/>
<text text-anchor="middle" x="512" y="-337.5" font-family="Helvetica,sans-Serif" font-size="10.00">WorldActor</text>
<polyline fill="none" stroke="black" points="471,-330.5 553,-330.5 "/>
<text text-anchor="start" x="479" y="-318.5" font-family="Helvetica,sans-Serif" font-size="10.00"># position_</text>
<text text-anchor="start" x="479" y="-307.5" font-family="Helvetica,sans-Serif" font-size="10.00"># speed_</text>
<text text-anchor="start" x="479" y="-296.5" font-family="Helvetica,sans-Serif" font-size="10.00"># fly_</text>
<text text-anchor="start" x="479" y="-285.5" font-family="Helvetica,sans-Serif" font-size="10.00"># rooted_</text>
<text text-anchor="start" x="479" y="-274.5" font-family="Helvetica,sans-Serif" font-size="10.00"># field_</text>
<polyline fill="none" stroke="black" points="471,-267.5 553,-267.5 "/>
<text text-anchor="start" x="479" y="-255.5" font-family="Helvetica,sans-Serif" font-size="10.00">+ WorldActor()</text>
<text text-anchor="start" x="479" y="-244.5" font-family="Helvetica,sans-Serif" font-size="10.00">+ Move()</text>
<text text-anchor="start" x="479" y="-233.5" font-family="Helvetica,sans-Serif" font-size="10.00">+ Tick()</text>
<text text-anchor="start" x="479" y="-222.5" font-family="Helvetica,sans-Serif" font-size="10.00">+ IncSpeed()</text>
<text text-anchor="start" x="479" y="-211.5" font-family="Helvetica,sans-Serif" font-size="10.00">+ SetSpeed()</text>
<text text-anchor="start" x="479" y="-200.5" font-family="Helvetica,sans-Serif" font-size="10.00">+ GetX()</text>
<text text-anchor="start" x="479" y="-189.5" font-family="Helvetica,sans-Serif" font-size="10.00">+ GetY()</text>
<text text-anchor="start" x="479" y="-178.5" font-family="Helvetica,sans-Serif" font-size="10.00">+ GetPosition()</text>
<text text-anchor="start" x="479" y="-167.5" font-family="Helvetica,sans-Serif" font-size="10.00">+ Distance()</text>
</a>
</g>
</g>
<!-- Node1&#45;&gt;Node9 -->
<g id="edge8" class="edge">
<title>Node1&#45;&gt;Node9</title>
<path fill="none" stroke="#8b1a1a" d="M256.48,-394.74C310.58,-365.36 413.46,-309.5 470.8,-278.37"/>
<polygon fill="none" stroke="#8b1a1a" points="254.71,-391.71 247.6,-399.56 258.05,-397.86 254.71,-391.71"/>
</g>
<!-- Node5 -->
<g id="node5" class="node">
<title>Node5</title>
<g id="a_node5"><a xlink:href="class_ground_earth.html" target="_top" xlink:title=" ">
<polygon fill="white" stroke="black" points="0,-22.5 0,-101.5 90,-101.5 90,-22.5 0,-22.5"/>
<text text-anchor="middle" x="45" y="-89.5" font-family="Helvetica,sans-Serif" font-size="10.00">GroundEarth</text>
<polyline fill="none" stroke="black" points="0,-82.5 90,-82.5 "/>
<text text-anchor="middle" x="45" y="-70.5" font-family="Helvetica,sans-Serif" font-size="10.00"> </text>
<polyline fill="none" stroke="black" points="0,-63.5 90,-63.5 "/>
<text text-anchor="start" x="8" y="-51.5" font-family="Helvetica,sans-Serif" font-size="10.00">+ ~GroundEarth()</text>
<text text-anchor="start" x="8" y="-40.5" font-family="Helvetica,sans-Serif" font-size="10.00">+ GroundEarth()</text>
<text text-anchor="start" x="8" y="-29.5" font-family="Helvetica,sans-Serif" font-size="10.00">+ Tick()</text>
</a>
</g>
</g>
<!-- Node4&#45;&gt;Node5 -->
<g id="edge4" class="edge">
<title>Node4&#45;&gt;Node5</title>
<path fill="none" stroke="midnightblue" d="M256.75,-211.43C249.98,-193.29 239.57,-173.29 224,-160 180.03,-122.46 147.88,-154.87 99,-124 89.55,-118.03 80.79,-109.94 73.2,-101.6"/>
<polygon fill="none" stroke="midnightblue" points="253.48,-212.68 260.06,-220.98 260.09,-210.39 253.48,-212.68"/>
</g>
<!-- Node6 -->
<g id="node6" class="node">
<title>Node6</title>
<g id="a_node6"><a xlink:href="class_ground_empty.html" target="_top" xlink:title=" ">
<polygon fill="white" stroke="black" points="108.5,-22.5 108.5,-101.5 203.5,-101.5 203.5,-22.5 108.5,-22.5"/>
<text text-anchor="middle" x="156" y="-89.5" font-family="Helvetica,sans-Serif" font-size="10.00">GroundEmpty</text>
<polyline fill="none" stroke="black" points="108.5,-82.5 203.5,-82.5 "/>
<text text-anchor="middle" x="156" y="-70.5" font-family="Helvetica,sans-Serif" font-size="10.00"> </text>
<polyline fill="none" stroke="black" points="108.5,-63.5 203.5,-63.5 "/>
<text text-anchor="start" x="116.5" y="-51.5" font-family="Helvetica,sans-Serif" font-size="10.00">+ ~GroundEmpty()</text>
<text text-anchor="start" x="116.5" y="-40.5" font-family="Helvetica,sans-Serif" font-size="10.00">+ GroundEmpty()</text>
<text text-anchor="start" x="116.5" y="-29.5" font-family="Helvetica,sans-Serif" font-size="10.00">+ Tick()</text>
</a>
</g>
</g>
<!-- Node4&#45;&gt;Node6 -->
<g id="edge5" class="edge">
<title>Node4&#45;&gt;Node6</title>
<path fill="none" stroke="midnightblue" d="M249.92,-211.32C242.49,-194.95 233.43,-176.3 224,-160 212.46,-140.06 198.01,-119.01 185.39,-101.62"/>
<polygon fill="none" stroke="midnightblue" points="246.81,-212.96 254.09,-220.66 253.21,-210.1 246.81,-212.96"/>
</g>
<!-- Node7 -->
<g id="node7" class="node">
<title>Node7</title>
<g id="a_node7"><a xlink:href="class_ground_water.html" target="_top" xlink:title=" ">
<polygon fill="white" stroke="black" points="221.5,-22.5 221.5,-101.5 314.5,-101.5 314.5,-22.5 221.5,-22.5"/>
<text text-anchor="middle" x="268" y="-89.5" font-family="Helvetica,sans-Serif" font-size="10.00">GroundWater</text>
<polyline fill="none" stroke="black" points="221.5,-82.5 314.5,-82.5 "/>
<text text-anchor="middle" x="268" y="-70.5" font-family="Helvetica,sans-Serif" font-size="10.00"> </text>
<polyline fill="none" stroke="black" points="221.5,-63.5 314.5,-63.5 "/>
<text text-anchor="start" x="229.5" y="-51.5" font-family="Helvetica,sans-Serif" font-size="10.00">+ ~GroundWater()</text>
<text text-anchor="start" x="229.5" y="-40.5" font-family="Helvetica,sans-Serif" font-size="10.00">+ GroundWater()</text>
<text text-anchor="start" x="229.5" y="-29.5" font-family="Helvetica,sans-Serif" font-size="10.00">+ Tick()</text>
</a>
</g>
</g>
<!-- Node4&#45;&gt;Node7 -->
<g id="edge6" class="edge">
<title>Node4&#45;&gt;Node7</title>
<path fill="none" stroke="midnightblue" d="M268,-210.55C268,-177.82 268,-133.35 268,-101.81"/>
<polygon fill="none" stroke="midnightblue" points="264.5,-210.73 268,-220.73 271.5,-210.73 264.5,-210.73"/>
</g>
<!-- Node8 -->
<g id="node8" class="node">
<title>Node8</title>
<g id="a_node8"><a xlink:href="class_mineral.html" target="_top" xlink:title=" ">
<polygon fill="white" stroke="black" points="333,-22.5 333,-101.5 401,-101.5 401,-22.5 333,-22.5"/>
<text text-anchor="middle" x="367" y="-89.5" font-family="Helvetica,sans-Serif" font-size="10.00">Mineral</text>
<polyline fill="none" stroke="black" points="333,-82.5 401,-82.5 "/>
<text text-anchor="middle" x="367" y="-70.5" font-family="Helvetica,sans-Serif" font-size="10.00"> </text>
<polyline fill="none" stroke="black" points="333,-63.5 401,-63.5 "/>
<text text-anchor="start" x="341" y="-51.5" font-family="Helvetica,sans-Serif" font-size="10.00">+ ~Mineral()</text>
<text text-anchor="start" x="341" y="-40.5" font-family="Helvetica,sans-Serif" font-size="10.00">+ Mineral()</text>
<text text-anchor="start" x="341" y="-29.5" font-family="Helvetica,sans-Serif" font-size="10.00">+ Tick()</text>
</a>
</g>
</g>
<!-- Node4&#45;&gt;Node8 -->
<g id="edge7" class="edge">
<title>Node4&#45;&gt;Node8</title>
<path fill="none" stroke="midnightblue" d="M289.86,-211.82C306.89,-178.98 330.32,-133.76 346.88,-101.81"/>
<polygon fill="none" stroke="midnightblue" points="286.74,-210.24 285.24,-220.73 292.95,-213.46 286.74,-210.24"/>
</g>
<!-- Node10 -->
<g id="node10" class="node">
<title>Node10</title>
<g id="a_node10"><a xlink:href="class_player.html" target="_top" xlink:title=" ">
<polygon fill="white" stroke="black" points="419,-0.5 419,-123.5 493,-123.5 493,-0.5 419,-0.5"/>
<text text-anchor="middle" x="456" y="-111.5" font-family="Helvetica,sans-Serif" font-size="10.00">Player</text>
<polyline fill="none" stroke="black" points="419,-104.5 493,-104.5 "/>
<text text-anchor="middle" x="456" y="-92.5" font-family="Helvetica,sans-Serif" font-size="10.00"> </text>
<polyline fill="none" stroke="black" points="419,-85.5 493,-85.5 "/>
<text text-anchor="start" x="427" y="-73.5" font-family="Helvetica,sans-Serif" font-size="10.00">+ Player()</text>
<text text-anchor="start" x="427" y="-62.5" font-family="Helvetica,sans-Serif" font-size="10.00">+ Player()</text>
<text text-anchor="start" x="427" y="-51.5" font-family="Helvetica,sans-Serif" font-size="10.00">+ ~Player()</text>
<text text-anchor="start" x="427" y="-40.5" font-family="Helvetica,sans-Serif" font-size="10.00">+ Stop()</text>
<text text-anchor="start" x="427" y="-29.5" font-family="Helvetica,sans-Serif" font-size="10.00">+ SpeedSet()</text>
<text text-anchor="start" x="427" y="-18.5" font-family="Helvetica,sans-Serif" font-size="10.00">+ SpeedInc()</text>
<text text-anchor="start" x="427" y="-7.5" font-family="Helvetica,sans-Serif" font-size="10.00">+ Tick()</text>
</a>
</g>
</g>
<!-- Node9&#45;&gt;Node10 -->
<g id="edge9" class="edge">
<title>Node9&#45;&gt;Node10</title>
<path fill="none" stroke="midnightblue" d="M481.75,-150.81C479.04,-141.58 476.36,-132.44 473.81,-123.75"/>
<polygon fill="none" stroke="midnightblue" points="478.4,-151.85 484.57,-160.46 485.12,-149.88 478.4,-151.85"/>
</g>
<!-- Node11 -->
<g id="node11" class="node">
<title>Node11</title>
<g id="a_node11"><a xlink:href="class_unit.html" target="_top" xlink:title=" ">
<polygon fill="white" stroke="black" points="511.5,-6 511.5,-118 626.5,-118 626.5,-6 511.5,-6"/>
<text text-anchor="middle" x="569" y="-106" font-family="Helvetica,sans-Serif" font-size="10.00">Unit</text>
<polyline fill="none" stroke="black" points="511.5,-99 626.5,-99 "/>
<text text-anchor="middle" x="569" y="-87" font-family="Helvetica,sans-Serif" font-size="10.00"> </text>
<polyline fill="none" stroke="black" points="511.5,-80 626.5,-80 "/>
<text text-anchor="start" x="519.5" y="-68" font-family="Helvetica,sans-Serif" font-size="10.00">+ Unit()</text>
<text text-anchor="start" x="519.5" y="-57" font-family="Helvetica,sans-Serif" font-size="10.00">+ Tick()</text>
<text text-anchor="start" x="519.5" y="-46" font-family="Helvetica,sans-Serif" font-size="10.00">+ IncSpeedRandomly()</text>
<text text-anchor="start" x="519.5" y="-35" font-family="Helvetica,sans-Serif" font-size="10.00">+ GetRandomize()</text>
<text text-anchor="start" x="519.5" y="-24" font-family="Helvetica,sans-Serif" font-size="10.00">+ GetPower()</text>
<text text-anchor="start" x="519.5" y="-13" font-family="Helvetica,sans-Serif" font-size="10.00">+ GetLife()</text>
</a>
</g>
</g>
<!-- Node9&#45;&gt;Node11 -->
<g id="edge10" class="edge">
<title>Node9&#45;&gt;Node11</title>
<path fill="none" stroke="midnightblue" d="M542.85,-150.64C546.18,-139.48 549.46,-128.47 552.52,-118.22"/>
<polygon fill="none" stroke="midnightblue" points="539.42,-149.88 539.92,-160.46 546.13,-151.88 539.42,-149.88"/>
</g>
<!-- Node12 -->
<g id="node12" class="node">
<title>Node12</title>
<g id="a_node12"><a xlink:href="class_unit_group.html" target="_top" xlink:title=" ">
<polygon fill="white" stroke="black" points="644.5,-22.5 644.5,-101.5 719.5,-101.5 719.5,-22.5 644.5,-22.5"/>
<text text-anchor="middle" x="682" y="-89.5" font-family="Helvetica,sans-Serif" font-size="10.00">UnitGroup</text>
<polyline fill="none" stroke="black" points="644.5,-82.5 719.5,-82.5 "/>
<text text-anchor="middle" x="682" y="-70.5" font-family="Helvetica,sans-Serif" font-size="10.00"> </text>
<polyline fill="none" stroke="black" points="644.5,-63.5 719.5,-63.5 "/>
<text text-anchor="start" x="652.5" y="-51.5" font-family="Helvetica,sans-Serif" font-size="10.00">+ UnitGroup()</text>
<text text-anchor="start" x="652.5" y="-40.5" font-family="Helvetica,sans-Serif" font-size="10.00">+ Tick()</text>
<text text-anchor="start" x="652.5" y="-29.5" font-family="Helvetica,sans-Serif" font-size="10.00">+ Draw()</text>
</a>
</g>
</g>
<!-- Node9&#45;&gt;Node12 -->
<g id="edge11" class="edge">
<title>Node9&#45;&gt;Node12</title>
<path fill="none" stroke="midnightblue" d="M560.33,-206.02C583.85,-182 612.13,-152.12 636,-124 642.01,-116.92 648.17,-109.15 653.95,-101.6"/>
<polygon fill="none" stroke="midnightblue" points="557.71,-203.69 553.19,-213.27 562.7,-208.6 557.71,-203.69"/>
</g>
</g>
</svg>
