<?xml version="1.0" encoding="UTF-8" standalone="no"?>
<!DOCTYPE svg PUBLIC "-//W3C//DTD SVG 1.1//EN"
 "http://www.w3.org/Graphics/SVG/1.1/DTD/svg11.dtd">
<!-- Generated by graphviz version 2.47.0 (20210407.0042)
 -->
<!-- Title: Engine::GetEngine Pages: 1 -->
<svg width="281pt" height="47pt"
 viewBox="0.00 0.00 281.00 47.00" xmlns="http://www.w3.org/2000/svg" xmlns:xlink="http://www.w3.org/1999/xlink">
<g id="graph0" class="graph" transform="scale(1 1) rotate(0) translate(4 43)">
<title>Engine::GetEngine</title>
<polygon fill="white" stroke="transparent" points="-4,4 -4,-43 277,-43 277,4 -4,4"/>
<!-- Node1 -->
<g id="node1" class="node">
<title>Node1</title>
<g id="a_node1"><a xlink:title=" ">
<polygon fill="#bfbfbf" stroke="black" points="178,-0.5 178,-19.5 273,-19.5 273,-0.5 178,-0.5"/>
<text text-anchor="middle" x="225.5" y="-7.5" font-family="Helvetica,sans-Serif" font-size="10.00">Engine::GetEngine</text>
</a>
</g>
</g>
<!-- Node2 -->
<g id="node2" class="node">
<title>Node2</title>
<g id="a_node2"><a xlink:href="main_8cpp.html#adb66f09c018c6ec5f3ade6acd02a5003" target="_top" xlink:title=" ">
<polygon fill="white" stroke="black" points="74,-19.5 74,-38.5 142,-38.5 142,-19.5 74,-19.5"/>
<text text-anchor="middle" x="108" y="-26.5" font-family="Helvetica,sans-Serif" font-size="10.00">Initialization</text>
</a>
</g>
</g>
<!-- Node1&#45;&gt;Node2 -->
<g id="edge1" class="edge">
<title>Node1&#45;&gt;Node2</title>
<path fill="none" stroke="midnightblue" d="M167.71,-19.34C159.02,-20.77 150.29,-22.21 142.33,-23.52"/>
<polygon fill="midnightblue" stroke="midnightblue" points="168.56,-22.75 177.85,-17.67 167.42,-15.84 168.56,-22.75"/>
</g>
<!-- Node3 -->
<g id="node3" class="node">
<title>Node3</title>
<g id="a_node3"><a xlink:href="main_8cpp.html#ae66f6b31b5ad750f1fe042a706a4e3d4" target="_top" xlink:title=" ">
<polygon fill="white" stroke="black" points="0,-0.5 0,-19.5 38,-19.5 38,-0.5 0,-0.5"/>
<text text-anchor="middle" x="19" y="-7.5" font-family="Helvetica,sans-Serif" font-size="10.00">main</text>
</a>
</g>
</g>
<!-- Node1&#45;&gt;Node3 -->
<g id="edge3" class="edge">
<title>Node1&#45;&gt;Node3</title>
<path fill="none" stroke="midnightblue" d="M167.66,-10C124.15,-10 66.86,-10 38.11,-10"/>
<polygon fill="midnightblue" stroke="midnightblue" points="167.84,-13.5 177.84,-10 167.84,-6.5 167.84,-13.5"/>
</g>
<!-- Node2&#45;&gt;Node3 -->
<g id="edge2" class="edge">
<title>Node2&#45;&gt;Node3</title>
<path fill="none" stroke="midnightblue" d="M63.83,-19.57C54.74,-17.59 45.63,-15.6 38.09,-13.95"/>
<polygon fill="midnightblue" stroke="midnightblue" points="63.1,-22.99 73.61,-21.71 64.59,-16.16 63.1,-22.99"/>
</g>
</g>
</svg>
