<?xml version="1.0" encoding="UTF-8" standalone="no"?>
<!DOCTYPE svg PUBLIC "-//W3C//DTD SVG 1.1//EN"
 "http://www.w3.org/Graphics/SVG/1.1/DTD/svg11.dtd">
<!-- Generated by graphviz version 2.47.0 (20210407.0042)
 -->
<!-- Title: Graphics::ResourceManager::GetWindow Pages: 1 -->
<svg width="696pt" height="220pt"
 viewBox="0.00 0.00 696.00 219.50" xmlns="http://www.w3.org/2000/svg" xmlns:xlink="http://www.w3.org/1999/xlink">
<g id="graph0" class="graph" transform="scale(1 1) rotate(0) translate(4 215.5)">
<title>Graphics::ResourceManager::GetWindow</title>
<polygon fill="white" stroke="transparent" points="-4,4 -4,-215.5 692,-215.5 692,4 -4,4"/>
<!-- Node1 -->
<g id="node1" class="node">
<title>Node1</title>
<g id="a_node1"><a xlink:title=" ">
<polygon fill="#bfbfbf" stroke="black" points="549,-101.5 549,-131.5 688,-131.5 688,-101.5 549,-101.5"/>
<text text-anchor="start" x="557" y="-119.5" font-family="Helvetica,sans-Serif" font-size="10.00">Graphics::ResourceManager</text>
<text text-anchor="middle" x="618.5" y="-108.5" font-family="Helvetica,sans-Serif" font-size="10.00">::GetWindow</text>
</a>
</g>
</g>
<!-- Node2 -->
<g id="node2" class="node">
<title>Node2</title>
<g id="a_node2"><a xlink:href="class_engine.html#a39f23d7f0ad86322bfdb73d4e6763005" target="_top" xlink:title=" ">
<polygon fill="white" stroke="black" points="74,-88 74,-107 147,-107 147,-88 74,-88"/>
<text text-anchor="middle" x="110.5" y="-95" font-family="Helvetica,sans-Serif" font-size="10.00">Engine::Draw</text>
</a>
</g>
</g>
<!-- Node1&#45;&gt;Node2 -->
<g id="edge1" class="edge">
<title>Node1&#45;&gt;Node2</title>
<path fill="none" stroke="midnightblue" d="M538.76,-100.63C530.1,-99.35 521.38,-98.26 513,-97.5 378.32,-85.36 217.19,-91.62 147.04,-95.36"/>
<polygon fill="midnightblue" stroke="midnightblue" points="538.46,-104.12 548.88,-102.21 539.54,-97.21 538.46,-104.12"/>
</g>
<!-- Node3 -->
<g id="node3" class="node">
<title>Node3</title>
<g id="a_node3"><a xlink:href="main_8cpp.html#ae66f6b31b5ad750f1fe042a706a4e3d4" target="_top" xlink:title=" ">
<polygon fill="white" stroke="black" points="0,-88 0,-107 38,-107 38,-88 0,-88"/>
<text text-anchor="middle" x="19" y="-95" font-family="Helvetica,sans-Serif" font-size="10.00">main</text>
</a>
</g>
</g>
<!-- Node1&#45;&gt;Node3 -->
<g id="edge12" class="edge">
<title>Node1&#45;&gt;Node3</title>
<path fill="none" stroke="midnightblue" d="M580.89,-136.17C525.6,-164 416.75,-211.5 318,-211.5 318,-211.5 318,-211.5 216,-211.5 133.33,-211.5 54.4,-134.79 28.7,-107.22"/>
<polygon fill="midnightblue" stroke="midnightblue" points="582.62,-139.22 589.94,-131.55 579.44,-132.98 582.62,-139.22"/>
</g>
<!-- Node4 -->
<g id="node4" class="node">
<title>Node4</title>
<g id="a_node4"><a xlink:href="class_field.html#a40e273e9fe4e28fe71aa6947eacc1ab0" target="_top" xlink:title=" ">
<polygon fill="white" stroke="black" points="184.5,-126 184.5,-145 249.5,-145 249.5,-126 184.5,-126"/>
<text text-anchor="middle" x="217" y="-133" font-family="Helvetica,sans-Serif" font-size="10.00">Field::Draw</text>
</a>
</g>
</g>
<!-- Node1&#45;&gt;Node4 -->
<g id="edge3" class="edge">
<title>Node1&#45;&gt;Node4</title>
<path fill="none" stroke="midnightblue" d="M551.01,-133.87C484.2,-149.04 378.33,-166.84 287,-154.5 273.21,-152.64 258.28,-148.77 245.84,-145"/>
<polygon fill="midnightblue" stroke="midnightblue" points="552.03,-137.23 560.98,-131.56 550.45,-130.41 552.03,-137.23"/>
</g>
<!-- Node5 -->
<g id="node5" class="node">
<title>Node5</title>
<g id="a_node5"><a xlink:href="class_drawable.html#a380dbc28ed3746ac7ac00c4844b30d08" target="_top" xlink:title=" ">
<polygon fill="white" stroke="black" points="406,-107 406,-126 490,-126 490,-107 406,-107"/>
<text text-anchor="middle" x="448" y="-114" font-family="Helvetica,sans-Serif" font-size="10.00">Drawable::Draw</text>
</a>
</g>
</g>
<!-- Node1&#45;&gt;Node5 -->
<g id="edge5" class="edge">
<title>Node1&#45;&gt;Node5</title>
<path fill="none" stroke="midnightblue" d="M538.64,-116.5C521.96,-116.5 505,-116.5 490.38,-116.5"/>
<polygon fill="midnightblue" stroke="midnightblue" points="538.96,-120 548.96,-116.5 538.96,-113 538.96,-120"/>
</g>
<!-- Node7 -->
<g id="node7" class="node">
<title>Node7</title>
<g id="a_node7"><a xlink:href="namespace_graphics_1_1_resource_parser.html#a6a538c07babc9bbaf884e0aeb9654fe0" target="_top" xlink:title=" ">
<polygon fill="white" stroke="black" points="383,-0.5 383,-30.5 513,-30.5 513,-0.5 383,-0.5"/>
<text text-anchor="start" x="391" y="-18.5" font-family="Helvetica,sans-Serif" font-size="10.00">Graphics::ResourceParser</text>
<text text-anchor="middle" x="448" y="-7.5" font-family="Helvetica,sans-Serif" font-size="10.00">::LoadResources</text>
</a>
</g>
</g>
<!-- Node1&#45;&gt;Node7 -->
<g id="edge9" class="edge">
<title>Node1&#45;&gt;Node7</title>
<path fill="none" stroke="midnightblue" d="M589.01,-95.34C568.44,-80.5 539.69,-60.69 513,-45.5 503.72,-40.22 493.36,-35.06 483.72,-30.55"/>
<polygon fill="midnightblue" stroke="midnightblue" points="587.15,-98.31 597.3,-101.36 591.27,-92.65 587.15,-98.31"/>
</g>
<!-- Node2&#45;&gt;Node3 -->
<g id="edge2" class="edge">
<title>Node2&#45;&gt;Node3</title>
<path fill="none" stroke="midnightblue" d="M63.66,-97.5C54.57,-97.5 45.53,-97.5 38.06,-97.5"/>
<polygon fill="midnightblue" stroke="midnightblue" points="63.87,-101 73.87,-97.5 63.87,-94 63.87,-101"/>
</g>
<!-- Node4&#45;&gt;Node2 -->
<g id="edge4" class="edge">
<title>Node4&#45;&gt;Node2</title>
<path fill="none" stroke="midnightblue" d="M179.93,-122.38C166.1,-117.36 150.61,-111.72 137.86,-107.09"/>
<polygon fill="midnightblue" stroke="midnightblue" points="179.04,-125.78 189.63,-125.91 181.43,-119.2 179.04,-125.78"/>
</g>
<!-- Node5&#45;&gt;Node2 -->
<g id="edge6" class="edge">
<title>Node5&#45;&gt;Node2</title>
<path fill="none" stroke="midnightblue" d="M395.71,-113.6C327.06,-109.71 207.05,-102.91 147.34,-99.53"/>
<polygon fill="midnightblue" stroke="midnightblue" points="395.68,-117.1 405.86,-114.17 396.08,-110.11 395.68,-117.1"/>
</g>
<!-- Node6 -->
<g id="node6" class="node">
<title>Node6</title>
<g id="a_node6"><a xlink:href="class_cell.html#a068da58be93f0b7d2dc6b3396ca8b8cd" target="_top" xlink:title=" ">
<polygon fill="white" stroke="black" points="287,-126 287,-145 347,-145 347,-126 287,-126"/>
<text text-anchor="middle" x="317" y="-133" font-family="Helvetica,sans-Serif" font-size="10.00">Cell::Draw</text>
</a>
</g>
</g>
<!-- Node5&#45;&gt;Node6 -->
<g id="edge7" class="edge">
<title>Node5&#45;&gt;Node6</title>
<path fill="none" stroke="midnightblue" d="M395.78,-124.04C379.33,-126.47 361.68,-129.07 347.35,-131.18"/>
<polygon fill="midnightblue" stroke="midnightblue" points="396.45,-127.48 405.83,-122.56 395.43,-120.56 396.45,-127.48"/>
</g>
<!-- Node6&#45;&gt;Node4 -->
<g id="edge8" class="edge">
<title>Node6&#45;&gt;Node4</title>
<path fill="none" stroke="midnightblue" d="M276.6,-135.5C267.62,-135.5 258.19,-135.5 249.59,-135.5"/>
<polygon fill="midnightblue" stroke="midnightblue" points="276.86,-139 286.86,-135.5 276.86,-132 276.86,-139"/>
</g>
<!-- Node8 -->
<g id="node8" class="node">
<title>Node8</title>
<g id="a_node8"><a xlink:href="main_8cpp.html#adb66f09c018c6ec5f3ade6acd02a5003" target="_top" xlink:title=" ">
<polygon fill="white" stroke="black" points="183,-11 183,-30 251,-30 251,-11 183,-11"/>
<text text-anchor="middle" x="217" y="-18" font-family="Helvetica,sans-Serif" font-size="10.00">Initialization</text>
</a>
</g>
</g>
<!-- Node7&#45;&gt;Node8 -->
<g id="edge10" class="edge">
<title>Node7&#45;&gt;Node8</title>
<path fill="none" stroke="midnightblue" d="M372.66,-17.12C331.62,-18.02 282.7,-19.09 251.03,-19.78"/>
<polygon fill="midnightblue" stroke="midnightblue" points="372.99,-20.62 382.91,-16.9 372.83,-13.62 372.99,-20.62"/>
</g>
<!-- Node8&#45;&gt;Node3 -->
<g id="edge11" class="edge">
<title>Node8&#45;&gt;Node3</title>
<path fill="none" stroke="midnightblue" d="M182.08,-33.82C140.27,-50.25 70.73,-77.57 38.04,-90.41"/>
<polygon fill="midnightblue" stroke="midnightblue" points="183.55,-37.01 191.57,-30.1 180.99,-30.5 183.55,-37.01"/>
</g>
</g>
</svg>
