<?xml version="1.0" encoding="UTF-8" standalone="no"?>
<!DOCTYPE svg PUBLIC "-//W3C//DTD SVG 1.1//EN"
 "http://www.w3.org/Graphics/SVG/1.1/DTD/svg11.dtd">
<!-- Generated by graphviz version 2.47.1 (20210421.1823)
 -->
<!-- Title: Field::GetBuilding Pages: 1 -->
<svg width="631pt" height="142pt"
 viewBox="0.00 0.00 631.00 142.00" xmlns="http://www.w3.org/2000/svg" xmlns:xlink="http://www.w3.org/1999/xlink">
<g id="graph0" class="graph" transform="scale(1 1) rotate(0) translate(4 138)">
<title>Field::GetBuilding</title>
<polygon fill="white" stroke="transparent" points="-4,4 -4,-138 627,-138 627,4 -4,4"/>
<!-- Node1 -->
<g id="node1" class="node">
<title>Node1</title>
<g id="a_node1"><a xlink:title=" ">
<polygon fill="#bfbfbf" stroke="black" points="531,-76.5 531,-95.5 623,-95.5 623,-76.5 531,-76.5"/>
<text text-anchor="middle" x="577" y="-83.5" font-family="Helvetica,sans-Serif" font-size="10.00">Field::GetBuilding</text>
</a>
</g>
</g>
<!-- Node2 -->
<g id="node2" class="node">
<title>Node2</title>
<g id="a_node2"><a xlink:href="class_field.html#a2944ed80b5699ff0fc9b0bd5031183af" target="_top" xlink:title=" ">
<polygon fill="white" stroke="black" points="403,-114.5 403,-133.5 495,-133.5 495,-114.5 403,-114.5"/>
<text text-anchor="middle" x="449" y="-121.5" font-family="Helvetica,sans-Serif" font-size="10.00">Field::SetBuilding</text>
</a>
</g>
</g>
<!-- Node1&#45;&gt;Node2 -->
<g id="edge1" class="edge">
<title>Node1&#45;&gt;Node2</title>
<path fill="none" stroke="midnightblue" d="M534.44,-98.54C517.29,-103.7 497.75,-109.6 481.78,-114.41"/>
<polygon fill="midnightblue" stroke="midnightblue" points="535.64,-101.83 544.2,-95.59 533.62,-95.13 535.64,-101.83"/>
</g>
<!-- Node3 -->
<g id="node3" class="node">
<title>Node3</title>
<g id="a_node3"><a xlink:href="class_unit.html#a764442e3620b9af8882d8050d8a08afe" target="_top" xlink:title=" ">
<polygon fill="white" stroke="black" points="296,-76.5 296,-95.5 354,-95.5 354,-76.5 296,-76.5"/>
<text text-anchor="middle" x="325" y="-83.5" font-family="Helvetica,sans-Serif" font-size="10.00">Unit::Tick</text>
</a>
</g>
</g>
<!-- Node1&#45;&gt;Node3 -->
<g id="edge2" class="edge">
<title>Node1&#45;&gt;Node3</title>
<path fill="none" stroke="midnightblue" d="M520.43,-86C468.94,-86 394.42,-86 354.24,-86"/>
<polygon fill="midnightblue" stroke="midnightblue" points="520.73,-89.5 530.73,-86 520.73,-82.5 520.73,-89.5"/>
</g>
<!-- Node4 -->
<g id="node4" class="node">
<title>Node4</title>
<g id="a_node4"><a xlink:href="class_world_actor.html#a211b1d4fdcd4eaed756b3602b6dfb412" target="_top" xlink:title=" ">
<polygon fill="white" stroke="black" points="405,-38.5 405,-57.5 493,-57.5 493,-38.5 405,-38.5"/>
<text text-anchor="middle" x="449" y="-45.5" font-family="Helvetica,sans-Serif" font-size="10.00">WorldActor::Tick</text>
</a>
</g>
</g>
<!-- Node1&#45;&gt;Node4 -->
<g id="edge3" class="edge">
<title>Node1&#45;&gt;Node4</title>
<path fill="none" stroke="midnightblue" d="M534.44,-73.46C517.29,-68.3 497.75,-62.4 481.78,-57.59"/>
<polygon fill="midnightblue" stroke="midnightblue" points="533.62,-76.87 544.2,-76.41 535.64,-70.17 533.62,-76.87"/>
</g>
<!-- Node4&#45;&gt;Node3 -->
<g id="edge8" class="edge">
<title>Node4&#45;&gt;Node3</title>
<path fill="none" stroke="midnightblue" d="M407.31,-60.67C389.91,-66.09 370.02,-72.29 354.27,-77.2"/>
<polygon fill="midnightblue" stroke="midnightblue" points="408.71,-63.9 417.21,-57.59 406.63,-57.22 408.71,-63.9"/>
</g>
<!-- Node5 -->
<g id="node5" class="node">
<title>Node5</title>
<g id="a_node5"><a xlink:href="class_player.html#ac9010645b179712c09ebd310e5fe48eb" target="_top" xlink:title=" ">
<polygon fill="white" stroke="black" points="291.5,-38.5 291.5,-57.5 358.5,-57.5 358.5,-38.5 291.5,-38.5"/>
<text text-anchor="middle" x="325" y="-45.5" font-family="Helvetica,sans-Serif" font-size="10.00">Player::Tick</text>
</a>
</g>
</g>
<!-- Node4&#45;&gt;Node5 -->
<g id="edge4" class="edge">
<title>Node4&#45;&gt;Node5</title>
<path fill="none" stroke="midnightblue" d="M394.8,-48C382.5,-48 369.77,-48 358.66,-48"/>
<polygon fill="midnightblue" stroke="midnightblue" points="394.99,-51.5 404.99,-48 394.99,-44.5 394.99,-51.5"/>
</g>
<!-- Node9 -->
<g id="node9" class="node">
<title>Node9</title>
<g id="a_node9"><a xlink:href="class_unit_group.html#a49ae050d0c9fb676cbff630d18d29b20" target="_top" xlink:title=" ">
<polygon fill="white" stroke="black" points="283,-0.5 283,-19.5 367,-19.5 367,-0.5 283,-0.5"/>
<text text-anchor="middle" x="325" y="-7.5" font-family="Helvetica,sans-Serif" font-size="10.00">UnitGroup::Tick</text>
</a>
</g>
</g>
<!-- Node4&#45;&gt;Node9 -->
<g id="edge9" class="edge">
<title>Node4&#45;&gt;Node9</title>
<path fill="none" stroke="midnightblue" d="M407.29,-35.32C390.8,-30.19 372.09,-24.36 356.78,-19.59"/>
<polygon fill="midnightblue" stroke="midnightblue" points="406.63,-38.78 417.21,-38.41 408.71,-32.1 406.63,-38.78"/>
</g>
<!-- Node6 -->
<g id="node6" class="node">
<title>Node6</title>
<g id="a_node6"><a xlink:href="class_engine.html#a06d3e75a7f768f0d48746aea00483724" target="_top" xlink:title=" ">
<polygon fill="white" stroke="black" points="178,-38.5 178,-57.5 247,-57.5 247,-38.5 178,-38.5"/>
<text text-anchor="middle" x="212.5" y="-45.5" font-family="Helvetica,sans-Serif" font-size="10.00">Engine::Tick</text>
</a>
</g>
</g>
<!-- Node5&#45;&gt;Node6 -->
<g id="edge5" class="edge">
<title>Node5&#45;&gt;Node6</title>
<path fill="none" stroke="midnightblue" d="M281.36,-48C270.1,-48 258.09,-48 247.36,-48"/>
<polygon fill="midnightblue" stroke="midnightblue" points="281.44,-51.5 291.44,-48 281.44,-44.5 281.44,-51.5"/>
</g>
<!-- Node7 -->
<g id="node7" class="node">
<title>Node7</title>
<g id="a_node7"><a xlink:href="class_game.html#adb05b20574551a26f8cf1dc664782790" target="_top" xlink:title=" ">
<polygon fill="white" stroke="black" points="74,-38.5 74,-57.5 142,-57.5 142,-38.5 74,-38.5"/>
<text text-anchor="middle" x="108" y="-45.5" font-family="Helvetica,sans-Serif" font-size="10.00">Game::Start</text>
</a>
</g>
</g>
<!-- Node6&#45;&gt;Node7 -->
<g id="edge6" class="edge">
<title>Node6&#45;&gt;Node7</title>
<path fill="none" stroke="midnightblue" d="M167.74,-48C159.22,-48 150.41,-48 142.29,-48"/>
<polygon fill="midnightblue" stroke="midnightblue" points="167.94,-51.5 177.94,-48 167.94,-44.5 167.94,-51.5"/>
</g>
<!-- Node8 -->
<g id="node8" class="node">
<title>Node8</title>
<g id="a_node8"><a xlink:href="main_8cpp.html#ae66f6b31b5ad750f1fe042a706a4e3d4" target="_top" xlink:title=" ">
<polygon fill="white" stroke="black" points="0,-38.5 0,-57.5 38,-57.5 38,-38.5 0,-38.5"/>
<text text-anchor="middle" x="19" y="-45.5" font-family="Helvetica,sans-Serif" font-size="10.00">main</text>
</a>
</g>
</g>
<!-- Node7&#45;&gt;Node8 -->
<g id="edge7" class="edge">
<title>Node7&#45;&gt;Node8</title>
<path fill="none" stroke="midnightblue" d="M63.54,-48C54.55,-48 45.55,-48 38.09,-48"/>
<polygon fill="midnightblue" stroke="midnightblue" points="63.61,-51.5 73.61,-48 63.61,-44.5 63.61,-51.5"/>
</g>
</g>
</svg>
