<?xml version="1.0" encoding="UTF-8" standalone="no"?>
<!DOCTYPE svg PUBLIC "-//W3C//DTD SVG 1.1//EN"
 "http://www.w3.org/Graphics/SVG/1.1/DTD/svg11.dtd">
<!-- Generated by graphviz version 2.47.0 (20210407.0042)
 -->
<!-- Title: Graphics::Window::GetSizeWindow Pages: 1 -->
<svg width="520pt" height="97pt"
 viewBox="0.00 0.00 520.00 96.50" xmlns="http://www.w3.org/2000/svg" xmlns:xlink="http://www.w3.org/1999/xlink">
<g id="graph0" class="graph" transform="scale(1 1) rotate(0) translate(4 92.5)">
<title>Graphics::Window::GetSizeWindow</title>
<polygon fill="white" stroke="transparent" points="-4,4 -4,-92.5 516,-92.5 516,4 -4,4"/>
<!-- Node1 -->
<g id="node1" class="node">
<title>Node1</title>
<g id="a_node1"><a xlink:title=" ">
<polygon fill="#bfbfbf" stroke="black" points="378,-44.5 378,-74.5 512,-74.5 512,-44.5 378,-44.5"/>
<text text-anchor="start" x="386" y="-62.5" font-family="Helvetica,sans-Serif" font-size="10.00">Graphics::Window::GetSize</text>
<text text-anchor="middle" x="445" y="-51.5" font-family="Helvetica,sans-Serif" font-size="10.00">Window</text>
</a>
</g>
</g>
<!-- Node2 -->
<g id="node2" class="node">
<title>Node2</title>
<g id="a_node2"><a xlink:href="class_engine.html#a39f23d7f0ad86322bfdb73d4e6763005" target="_top" xlink:title=" ">
<polygon fill="white" stroke="black" points="74,-69 74,-88 147,-88 147,-69 74,-69"/>
<text text-anchor="middle" x="110.5" y="-76" font-family="Helvetica,sans-Serif" font-size="10.00">Engine::Draw</text>
</a>
</g>
</g>
<!-- Node1&#45;&gt;Node2 -->
<g id="edge1" class="edge">
<title>Node1&#45;&gt;Node2</title>
<path fill="none" stroke="midnightblue" d="M367.75,-75.28C359.1,-76.6 350.38,-77.73 342,-78.5 273.26,-84.85 192.5,-82.64 147.13,-80.53"/>
<polygon fill="midnightblue" stroke="midnightblue" points="368.54,-78.7 377.86,-73.65 367.43,-71.79 368.54,-78.7"/>
</g>
<!-- Node4 -->
<g id="node4" class="node">
<title>Node4</title>
<g id="a_node4"><a xlink:href="class_field.html#ad13d86066be42a2e10fcb9cbcc51fb0b" target="_top" xlink:title=" ">
<polygon fill="white" stroke="black" points="230,-50 230,-69 295,-69 295,-50 230,-50"/>
<text text-anchor="middle" x="262.5" y="-57" font-family="Helvetica,sans-Serif" font-size="10.00">Field::Draw</text>
</a>
</g>
</g>
<!-- Node1&#45;&gt;Node4 -->
<g id="edge3" class="edge">
<title>Node1&#45;&gt;Node4</title>
<path fill="none" stroke="midnightblue" d="M367.79,-59.5C342.37,-59.5 315.42,-59.5 295.29,-59.5"/>
<polygon fill="midnightblue" stroke="midnightblue" points="367.81,-63 377.81,-59.5 367.81,-56 367.81,-63"/>
</g>
<!-- Node5 -->
<g id="node5" class="node">
<title>Node5</title>
<g id="a_node5"><a xlink:href="class_graphics_1_1_window.html#a8c9f4d2a14be1c7c17cc2a9ad855aecc" target="_top" xlink:title=" ">
<polygon fill="white" stroke="black" points="183,-0.5 183,-30.5 342,-30.5 342,-0.5 183,-0.5"/>
<text text-anchor="start" x="191" y="-18.5" font-family="Helvetica,sans-Serif" font-size="10.00">Graphics::Window::GetTransform</text>
<text text-anchor="middle" x="262.5" y="-7.5" font-family="Helvetica,sans-Serif" font-size="10.00">Coordinates</text>
</a>
</g>
</g>
<!-- Node1&#45;&gt;Node5 -->
<g id="edge5" class="edge">
<title>Node1&#45;&gt;Node5</title>
<path fill="none" stroke="midnightblue" d="M372.27,-42.01C356.67,-38.21 340.31,-34.22 325.14,-30.53"/>
<polygon fill="midnightblue" stroke="midnightblue" points="371.84,-45.51 382.39,-44.48 373.5,-38.71 371.84,-45.51"/>
</g>
<!-- Node3 -->
<g id="node3" class="node">
<title>Node3</title>
<g id="a_node3"><a xlink:href="main_8cpp.html#ae66f6b31b5ad750f1fe042a706a4e3d4" target="_top" xlink:title=" ">
<polygon fill="white" stroke="black" points="0,-69 0,-88 38,-88 38,-69 0,-69"/>
<text text-anchor="middle" x="19" y="-76" font-family="Helvetica,sans-Serif" font-size="10.00">main</text>
</a>
</g>
</g>
<!-- Node2&#45;&gt;Node3 -->
<g id="edge2" class="edge">
<title>Node2&#45;&gt;Node3</title>
<path fill="none" stroke="midnightblue" d="M63.66,-78.5C54.57,-78.5 45.53,-78.5 38.06,-78.5"/>
<polygon fill="midnightblue" stroke="midnightblue" points="63.87,-82 73.87,-78.5 63.87,-75 63.87,-82"/>
</g>
<!-- Node4&#45;&gt;Node2 -->
<g id="edge4" class="edge">
<title>Node4&#45;&gt;Node2</title>
<path fill="none" stroke="midnightblue" d="M219.62,-64.8C196.84,-67.69 168.95,-71.22 147.21,-73.98"/>
<polygon fill="midnightblue" stroke="midnightblue" points="220.21,-68.26 229.69,-63.53 219.33,-61.31 220.21,-68.26"/>
</g>
</g>
</svg>
