<?xml version="1.0" encoding="UTF-8" standalone="no"?>
<!DOCTYPE svg PUBLIC "-//W3C//DTD SVG 1.1//EN"
 "http://www.w3.org/Graphics/SVG/1.1/DTD/svg11.dtd">
<!-- Generated by graphviz version 2.47.0 (20210407.0042)
 -->
<!-- Title: Graphics::ResourceManager::GetWindow Pages: 1 -->
<svg width="749pt" height="262pt"
 viewBox="0.00 0.00 749.00 261.50" xmlns="http://www.w3.org/2000/svg" xmlns:xlink="http://www.w3.org/1999/xlink">
<g id="graph0" class="graph" transform="scale(1 1) rotate(0) translate(4 257.5)">
<title>Graphics::ResourceManager::GetWindow</title>
<polygon fill="white" stroke="transparent" points="-4,4 -4,-257.5 745,-257.5 745,4 -4,4"/>
<!-- Node1 -->
<g id="node1" class="node">
<title>Node1</title>
<g id="a_node1"><a xlink:title=" ">
<polygon fill="#bfbfbf" stroke="black" points="602,-105.5 602,-135.5 741,-135.5 741,-105.5 602,-105.5"/>
<text text-anchor="start" x="610" y="-123.5" font-family="Helvetica,sans-Serif" font-size="10.00">Graphics::ResourceManager</text>
<text text-anchor="middle" x="671.5" y="-112.5" font-family="Helvetica,sans-Serif" font-size="10.00">::GetWindow</text>
</a>
</g>
</g>
<!-- Node2 -->
<g id="node2" class="node">
<title>Node2</title>
<g id="a_node2"><a xlink:href="class_engine.html#a39f23d7f0ad86322bfdb73d4e6763005" target="_top" xlink:title=" ">
<polygon fill="white" stroke="black" points="74,-111 74,-130 147,-130 147,-111 74,-111"/>
<text text-anchor="middle" x="110.5" y="-118" font-family="Helvetica,sans-Serif" font-size="10.00">Engine::Draw</text>
</a>
</g>
</g>
<!-- Node1&#45;&gt;Node2 -->
<g id="edge1" class="edge">
<title>Node1&#45;&gt;Node2</title>
<path fill="none" stroke="midnightblue" d="M591.85,-120.5C468.93,-120.5 236.14,-120.5 147.24,-120.5"/>
<polygon fill="midnightblue" stroke="midnightblue" points="591.96,-124 601.96,-120.5 591.96,-117 591.96,-124"/>
</g>
<!-- Node3 -->
<g id="node3" class="node">
<title>Node3</title>
<g id="a_node3"><a xlink:href="main_8cpp.html#ae66f6b31b5ad750f1fe042a706a4e3d4" target="_top" xlink:title=" ">
<polygon fill="white" stroke="black" points="0,-82 0,-101 38,-101 38,-82 0,-82"/>
<text text-anchor="middle" x="19" y="-89" font-family="Helvetica,sans-Serif" font-size="10.00">main</text>
</a>
</g>
</g>
<!-- Node1&#45;&gt;Node3 -->
<g id="edge12" class="edge">
<title>Node1&#45;&gt;Node3</title>
<path fill="none" stroke="midnightblue" d="M645.8,-142.27C625.57,-159.13 595.55,-181.98 566,-196.5 484.96,-236.31 461.29,-253.5 371,-253.5 371,-253.5 371,-253.5 242.5,-253.5 138.33,-253.5 50.23,-136.02 26.37,-101.15"/>
<polygon fill="midnightblue" stroke="midnightblue" points="648.21,-144.82 653.58,-135.68 643.69,-139.47 648.21,-144.82"/>
</g>
<!-- Node4 -->
<g id="node4" class="node">
<title>Node4</title>
<g id="a_node4"><a xlink:href="class_field.html#ad13d86066be42a2e10fcb9cbcc51fb0b" target="_top" xlink:title=" ">
<polygon fill="white" stroke="black" points="211,-130 211,-149 276,-149 276,-130 211,-130"/>
<text text-anchor="middle" x="243.5" y="-137" font-family="Helvetica,sans-Serif" font-size="10.00">Field::Draw</text>
</a>
</g>
</g>
<!-- Node1&#45;&gt;Node4 -->
<g id="edge3" class="edge">
<title>Node1&#45;&gt;Node4</title>
<path fill="none" stroke="midnightblue" d="M591.46,-124.03C496.6,-128.26 342.08,-135.15 276.04,-138.09"/>
<polygon fill="midnightblue" stroke="midnightblue" points="591.75,-127.52 601.58,-123.57 591.44,-120.52 591.75,-127.52"/>
</g>
<!-- Node5 -->
<g id="node5" class="node">
<title>Node5</title>
<g id="a_node5"><a xlink:href="class_drawable.html#ac46f25a963a3fe3e9176461d61d213c7" target="_top" xlink:title=" ">
<polygon fill="white" stroke="black" points="459,-168 459,-187 543,-187 543,-168 459,-168"/>
<text text-anchor="middle" x="501" y="-175" font-family="Helvetica,sans-Serif" font-size="10.00">Drawable::Draw</text>
</a>
</g>
</g>
<!-- Node1&#45;&gt;Node5 -->
<g id="edge5" class="edge">
<title>Node1&#45;&gt;Node5</title>
<path fill="none" stroke="midnightblue" d="M616.3,-138.84C587.65,-148.53 553.66,-160.02 530.24,-167.95"/>
<polygon fill="midnightblue" stroke="midnightblue" points="617.44,-142.15 625.79,-135.63 615.19,-135.51 617.44,-142.15"/>
</g>
<!-- Node7 -->
<g id="node7" class="node">
<title>Node7</title>
<g id="a_node7"><a xlink:href="namespace_graphics_1_1_resource_parser.html#a6a538c07babc9bbaf884e0aeb9654fe0" target="_top" xlink:title=" ">
<polygon fill="white" stroke="black" points="436,-42.5 436,-72.5 566,-72.5 566,-42.5 436,-42.5"/>
<text text-anchor="start" x="444" y="-60.5" font-family="Helvetica,sans-Serif" font-size="10.00">Graphics::ResourceParser</text>
<text text-anchor="middle" x="501" y="-49.5" font-family="Helvetica,sans-Serif" font-size="10.00">::LoadResources</text>
</a>
</g>
</g>
<!-- Node1&#45;&gt;Node7 -->
<g id="edge9" class="edge">
<title>Node1&#45;&gt;Node7</title>
<path fill="none" stroke="midnightblue" d="M620.49,-101.8C595.55,-92.48 565.78,-81.35 542.32,-72.58"/>
<polygon fill="midnightblue" stroke="midnightblue" points="619.55,-105.19 630.14,-105.41 622,-98.63 619.55,-105.19"/>
</g>
<!-- Node9 -->
<g id="node9" class="node">
<title>Node9</title>
<g id="a_node9"><a xlink:href="class_event_handler.html#a53ee17f2156ec5ad0769743f39ea259d" target="_top" xlink:title=" ">
<polygon fill="white" stroke="black" points="183,-0.5 183,-30.5 304,-30.5 304,-0.5 183,-0.5"/>
<text text-anchor="start" x="191" y="-18.5" font-family="Helvetica,sans-Serif" font-size="10.00">EventHandler::TriggerAll</text>
<text text-anchor="middle" x="243.5" y="-7.5" font-family="Helvetica,sans-Serif" font-size="10.00">Events</text>
</a>
</g>
</g>
<!-- Node1&#45;&gt;Node9 -->
<g id="edge13" class="edge">
<title>Node1&#45;&gt;Node9</title>
<path fill="none" stroke="midnightblue" d="M651.55,-97.67C632.42,-76.5 600.82,-46.26 566,-32.5 479.84,1.55 370.48,-1.37 304.07,-7.65"/>
<polygon fill="midnightblue" stroke="midnightblue" points="649.01,-100.09 658.24,-105.29 654.27,-95.47 649.01,-100.09"/>
</g>
<!-- Node2&#45;&gt;Node3 -->
<g id="edge2" class="edge">
<title>Node2&#45;&gt;Node3</title>
<path fill="none" stroke="midnightblue" d="M70.11,-107.74C58.99,-104.13 47.42,-100.38 38.2,-97.4"/>
<polygon fill="midnightblue" stroke="midnightblue" points="69.11,-111.09 79.7,-110.84 71.26,-104.43 69.11,-111.09"/>
</g>
<!-- Node4&#45;&gt;Node2 -->
<g id="edge4" class="edge">
<title>Node4&#45;&gt;Node2</title>
<path fill="none" stroke="midnightblue" d="M200.45,-133.4C183.24,-130.91 163.55,-128.05 147.07,-125.66"/>
<polygon fill="midnightblue" stroke="midnightblue" points="200.39,-136.93 210.79,-134.9 201.39,-130 200.39,-136.93"/>
</g>
<!-- Node5&#45;&gt;Node2 -->
<g id="edge6" class="edge">
<title>Node5&#45;&gt;Node2</title>
<path fill="none" stroke="midnightblue" d="M449.33,-189.04C433.61,-192.1 416.16,-194.98 400,-196.5 302.52,-205.68 274.53,-193.27 183,-158.5 162.76,-150.81 141,-138.62 126.87,-130.13"/>
<polygon fill="midnightblue" stroke="midnightblue" points="450.27,-192.42 459.38,-187.01 448.88,-185.56 450.27,-192.42"/>
</g>
<!-- Node6 -->
<g id="node6" class="node">
<title>Node6</title>
<g id="a_node6"><a xlink:href="class_cell.html#ac88160c4177e146f8dd7482c4eaee4f0" target="_top" xlink:title=" ">
<polygon fill="white" stroke="black" points="340,-168 340,-187 400,-187 400,-168 340,-168"/>
<text text-anchor="middle" x="370" y="-175" font-family="Helvetica,sans-Serif" font-size="10.00">Cell::Draw</text>
</a>
</g>
</g>
<!-- Node5&#45;&gt;Node6 -->
<g id="edge7" class="edge">
<title>Node5&#45;&gt;Node6</title>
<path fill="none" stroke="midnightblue" d="M448.78,-177.5C432.33,-177.5 414.68,-177.5 400.35,-177.5"/>
<polygon fill="midnightblue" stroke="midnightblue" points="448.83,-181 458.83,-177.5 448.83,-174 448.83,-181"/>
</g>
<!-- Node6&#45;&gt;Node4 -->
<g id="edge8" class="edge">
<title>Node6&#45;&gt;Node4</title>
<path fill="none" stroke="midnightblue" d="M329.9,-165.57C312.43,-160.23 292.11,-154.03 275.68,-149.02"/>
<polygon fill="midnightblue" stroke="midnightblue" points="329.22,-169.02 339.81,-168.59 331.27,-162.32 329.22,-169.02"/>
</g>
<!-- Node8 -->
<g id="node8" class="node">
<title>Node8</title>
<g id="a_node8"><a xlink:href="main_8cpp.html#adb66f09c018c6ec5f3ade6acd02a5003" target="_top" xlink:title=" ">
<polygon fill="white" stroke="black" points="76.5,-63 76.5,-82 144.5,-82 144.5,-63 76.5,-63"/>
<text text-anchor="middle" x="110.5" y="-70" font-family="Helvetica,sans-Serif" font-size="10.00">Initialization</text>
</a>
</g>
</g>
<!-- Node7&#45;&gt;Node8 -->
<g id="edge10" class="edge">
<title>Node7&#45;&gt;Node8</title>
<path fill="none" stroke="midnightblue" d="M425.78,-60.37C341.16,-63.63 206.56,-68.83 144.64,-71.22"/>
<polygon fill="midnightblue" stroke="midnightblue" points="425.99,-63.86 435.85,-59.98 425.72,-56.87 425.99,-63.86"/>
</g>
<!-- Node8&#45;&gt;Node3 -->
<g id="edge11" class="edge">
<title>Node8&#45;&gt;Node3</title>
<path fill="none" stroke="midnightblue" d="M66.53,-81.62C56.52,-83.75 46.38,-85.9 38.14,-87.65"/>
<polygon fill="midnightblue" stroke="midnightblue" points="67.37,-85.02 76.43,-79.52 65.92,-78.17 67.37,-85.02"/>
</g>
<!-- Node9&#45;&gt;Node3 -->
<g id="edge14" class="edge">
<title>Node9&#45;&gt;Node3</title>
<path fill="none" stroke="midnightblue" d="M173.08,-24.86C141.89,-30.63 105.17,-39.67 74,-53.5 57.65,-60.75 41.18,-73.28 30.8,-81.95"/>
<polygon fill="midnightblue" stroke="midnightblue" points="173.76,-28.29 183,-23.09 172.54,-21.4 173.76,-28.29"/>
</g>
</g>
</svg>
