<?xml version="1.0" encoding="UTF-8" standalone="no"?>
<!DOCTYPE svg PUBLIC "-//W3C//DTD SVG 1.1//EN"
 "http://www.w3.org/Graphics/SVG/1.1/DTD/svg11.dtd">
<!-- Generated by graphviz version 2.47.1 (20210421.1823)
 -->
<!-- Title: Cell Pages: 1 -->
<svg width="156pt" height="336pt"
 viewBox="0.00 0.00 156.00 336.00" xmlns="http://www.w3.org/2000/svg" xmlns:xlink="http://www.w3.org/1999/xlink">
<g id="graph0" class="graph" transform="scale(1 1) rotate(0) translate(4 332)">
<title>Cell</title>
<polygon fill="white" stroke="transparent" points="-4,4 -4,-332 152,-332 152,4 -4,4"/>
<!-- Node1 -->
<g id="node1" class="node">
<title>Node1</title>
<g id="a_node1"><a xlink:title=" ">
<polygon fill="#bfbfbf" stroke="black" points="39,-0.5 39,-178.5 120,-178.5 120,-0.5 39,-0.5"/>
<text text-anchor="middle" x="79.5" y="-166.5" font-family="Helvetica,sans-Serif" font-size="10.00">Cell</text>
<polyline fill="none" stroke="black" points="39,-159.5 120,-159.5 "/>
<text text-anchor="middle" x="79.5" y="-147.5" font-family="Helvetica,sans-Serif" font-size="10.00"> </text>
<polyline fill="none" stroke="black" points="39,-140.5 120,-140.5 "/>
<text text-anchor="start" x="47" y="-128.5" font-family="Helvetica,sans-Serif" font-size="10.00">+ Cell()</text>
<text text-anchor="start" x="47" y="-117.5" font-family="Helvetica,sans-Serif" font-size="10.00">+ Cell()</text>
<text text-anchor="start" x="47" y="-106.5" font-family="Helvetica,sans-Serif" font-size="10.00">+ operator=()</text>
<text text-anchor="start" x="47" y="-95.5" font-family="Helvetica,sans-Serif" font-size="10.00">+ ~Cell()</text>
<text text-anchor="start" x="47" y="-84.5" font-family="Helvetica,sans-Serif" font-size="10.00">+ Add()</text>
<text text-anchor="start" x="47" y="-73.5" font-family="Helvetica,sans-Serif" font-size="10.00">+ SetBuilding()</text>
<text text-anchor="start" x="47" y="-62.5" font-family="Helvetica,sans-Serif" font-size="10.00">+ GetSpeed()</text>
<text text-anchor="start" x="47" y="-51.5" font-family="Helvetica,sans-Serif" font-size="10.00">+ GetSize()</text>
<text text-anchor="start" x="47" y="-40.5" font-family="Helvetica,sans-Serif" font-size="10.00">+ GetBuilding()</text>
<text text-anchor="start" x="47" y="-29.5" font-family="Helvetica,sans-Serif" font-size="10.00">+ Draw()</text>
<text text-anchor="start" x="47" y="-18.5" font-family="Helvetica,sans-Serif" font-size="10.00">+ Tick()</text>
<text text-anchor="start" x="47" y="-7.5" font-family="Helvetica,sans-Serif" font-size="10.00">+ isEarth()</text>
</a>
</g>
</g>
<!-- Node2 -->
<g id="node2" class="node">
<title>Node2</title>
<g id="a_node2"><a xlink:href="class_drawable.html" target="_top" xlink:title=" ">
<polygon fill="white" stroke="black" points="0,-215.5 0,-327.5 77,-327.5 77,-215.5 0,-215.5"/>
<text text-anchor="middle" x="38.5" y="-315.5" font-family="Helvetica,sans-Serif" font-size="10.00">Drawable</text>
<polyline fill="none" stroke="black" points="0,-308.5 77,-308.5 "/>
<text text-anchor="middle" x="38.5" y="-296.5" font-family="Helvetica,sans-Serif" font-size="10.00"> </text>
<polyline fill="none" stroke="black" points="0,-289.5 77,-289.5 "/>
<text text-anchor="start" x="8" y="-277.5" font-family="Helvetica,sans-Serif" font-size="10.00">+ Drawable()</text>
<text text-anchor="start" x="8" y="-266.5" font-family="Helvetica,sans-Serif" font-size="10.00">+ Drawable()</text>
<text text-anchor="start" x="8" y="-255.5" font-family="Helvetica,sans-Serif" font-size="10.00">+ Draw()</text>
<text text-anchor="start" x="8" y="-244.5" font-family="Helvetica,sans-Serif" font-size="10.00">+ ~Drawable()</text>
<text text-anchor="start" x="8" y="-233.5" font-family="Helvetica,sans-Serif" font-size="10.00">+ GetImg()</text>
<text text-anchor="start" x="8" y="-222.5" font-family="Helvetica,sans-Serif" font-size="10.00">+ SetImage()</text>
</a>
</g>
</g>
<!-- Node2&#45;&gt;Node1 -->
<g id="edge1" class="edge">
<title>Node2&#45;&gt;Node1</title>
<path fill="none" stroke="midnightblue" d="M53.4,-205.07C55.37,-196.45 57.41,-187.5 59.44,-178.57"/>
<polygon fill="none" stroke="midnightblue" points="49.94,-204.5 51.14,-215.03 56.77,-206.05 49.94,-204.5"/>
</g>
<!-- Node3 -->
<g id="node3" class="node">
<title>Node3</title>
<g id="a_node3"><a xlink:href="class_tickable.html" target="_top" xlink:title=" ">
<polygon fill="white" stroke="black" points="95,-243 95,-300 148,-300 148,-243 95,-243"/>
<text text-anchor="middle" x="121.5" y="-288" font-family="Helvetica,sans-Serif" font-size="10.00">Tickable</text>
<polyline fill="none" stroke="black" points="95,-281 148,-281 "/>
<text text-anchor="middle" x="121.5" y="-269" font-family="Helvetica,sans-Serif" font-size="10.00"> </text>
<polyline fill="none" stroke="black" points="95,-262 148,-262 "/>
<text text-anchor="start" x="103" y="-250" font-family="Helvetica,sans-Serif" font-size="10.00">+ Tick()</text>
</a>
</g>
</g>
<!-- Node3&#45;&gt;Node1 -->
<g id="edge2" class="edge">
<title>Node3&#45;&gt;Node1</title>
<path fill="none" stroke="midnightblue" d="M112.72,-232.86C109.02,-217 104.54,-197.82 100.09,-178.74"/>
<polygon fill="none" stroke="midnightblue" points="109.35,-233.83 115.03,-242.77 116.17,-232.24 109.35,-233.83"/>
</g>
</g>
</svg>
