<?xml version="1.0" encoding="UTF-8" standalone="no"?>
<!DOCTYPE svg PUBLIC "-//W3C//DTD SVG 1.1//EN"
 "http://www.w3.org/Graphics/SVG/1.1/DTD/svg11.dtd">
<!-- Generated by graphviz version 2.47.0 (20210407.0042)
 -->
<!-- Title: Graphics::Shader::GetId Pages: 1 -->
<svg width="960pt" height="132pt"
 viewBox="0.00 0.00 960.00 132.00" xmlns="http://www.w3.org/2000/svg" xmlns:xlink="http://www.w3.org/1999/xlink">
<g id="graph0" class="graph" transform="scale(1 1) rotate(0) translate(4 128)">
<title>Graphics::Shader::GetId</title>
<polygon fill="white" stroke="transparent" points="-4,4 -4,-128 956,-128 956,4 -4,4"/>
<!-- Node1 -->
<g id="node1" class="node">
<title>Node1</title>
<g id="a_node1"><a xlink:title=" ">
<polygon fill="#bfbfbf" stroke="black" points="833,-22.5 833,-41.5 952,-41.5 952,-22.5 833,-22.5"/>
<text text-anchor="middle" x="892.5" y="-29.5" font-family="Helvetica,sans-Serif" font-size="10.00">Graphics::Shader::GetId</text>
</a>
</g>
</g>
<!-- Node2 -->
<g id="node2" class="node">
<title>Node2</title>
<g id="a_node2"><a xlink:href="class_graphics_1_1_quadrangle.html#a7a061a60b5bff19feb5fd317d06495f0" target="_top" xlink:title=" ">
<polygon fill="white" stroke="black" points="683.5,-39 683.5,-69 793.5,-69 793.5,-39 683.5,-39"/>
<text text-anchor="start" x="691.5" y="-57" font-family="Helvetica,sans-Serif" font-size="10.00">Graphics::Quadrangle</text>
<text text-anchor="middle" x="738.5" y="-46" font-family="Helvetica,sans-Serif" font-size="10.00">::Draw</text>
</a>
</g>
</g>
<!-- Node1&#45;&gt;Node2 -->
<g id="edge1" class="edge">
<title>Node1&#45;&gt;Node2</title>
<path fill="none" stroke="midnightblue" d="M822.67,-41.96C812.93,-43.37 803.04,-44.8 793.63,-46.16"/>
<polygon fill="midnightblue" stroke="midnightblue" points="823.34,-45.4 832.73,-40.51 822.33,-38.47 823.34,-45.4"/>
</g>
<!-- Node12 -->
<g id="node12" class="node">
<title>Node12</title>
<g id="a_node12"><a xlink:href="class_graphics_1_1_window.html#a8e68f174f194ced10d08fc490cdae5e1" target="_top" xlink:title=" ">
<polygon fill="white" stroke="black" points="680,-0.5 680,-19.5 797,-19.5 797,-0.5 680,-0.5"/>
<text text-anchor="middle" x="738.5" y="-7.5" font-family="Helvetica,sans-Serif" font-size="10.00">Graphics::Window::Use</text>
</a>
</g>
</g>
<!-- Node1&#45;&gt;Node12 -->
<g id="edge12" class="edge">
<title>Node1&#45;&gt;Node12</title>
<path fill="none" stroke="midnightblue" d="M822.75,-22.05C814.18,-20.81 805.49,-19.55 797.11,-18.34"/>
<polygon fill="midnightblue" stroke="midnightblue" points="822.33,-25.53 832.73,-23.49 823.34,-18.6 822.33,-25.53"/>
</g>
<!-- Node3 -->
<g id="node3" class="node">
<title>Node3</title>
<g id="a_node3"><a xlink:href="class_graphics_1_1_image.html#af48c0e309532eb1ff36e8fdaee244da1" target="_top" xlink:title=" ">
<polygon fill="white" stroke="black" points="530,-66.5 530,-85.5 644,-85.5 644,-66.5 530,-66.5"/>
<text text-anchor="middle" x="587" y="-73.5" font-family="Helvetica,sans-Serif" font-size="10.00">Graphics::Image::Draw</text>
</a>
</g>
</g>
<!-- Node2&#45;&gt;Node3 -->
<g id="edge2" class="edge">
<title>Node2&#45;&gt;Node3</title>
<path fill="none" stroke="midnightblue" d="M673.15,-63.47C663.49,-64.89 653.59,-66.35 644.11,-67.74"/>
<polygon fill="midnightblue" stroke="midnightblue" points="673.72,-66.92 683.1,-62 672.7,-60 673.72,-66.92"/>
</g>
<!-- Node11 -->
<g id="node11" class="node">
<title>Node11</title>
<g id="a_node11"><a xlink:href="class_graphics_1_1_quadrangle.html#aaa7571e889354bb4b4326d8b497d1055" target="_top" xlink:title=" ">
<polygon fill="white" stroke="black" points="532,-17 532,-47 642,-47 642,-17 532,-17"/>
<text text-anchor="start" x="540" y="-35" font-family="Helvetica,sans-Serif" font-size="10.00">Graphics::Quadrangle</text>
<text text-anchor="middle" x="587" y="-24" font-family="Helvetica,sans-Serif" font-size="10.00">::Draw</text>
</a>
</g>
</g>
<!-- Node2&#45;&gt;Node11 -->
<g id="edge11" class="edge">
<title>Node2&#45;&gt;Node11</title>
<path fill="none" stroke="midnightblue" d="M672.94,-44.5C662.66,-42.99 652.11,-41.43 642.11,-39.96"/>
<polygon fill="midnightblue" stroke="midnightblue" points="672.7,-48 683.1,-46 673.72,-41.08 672.7,-48"/>
</g>
<!-- Node4 -->
<g id="node4" class="node">
<title>Node4</title>
<g id="a_node4"><a xlink:href="class_g_u_i_1_1_item.html#ab089785456c77b4ff16f15dc7b6bd8fa" target="_top" xlink:title=" ">
<polygon fill="white" stroke="black" points="394,-104.5 394,-123.5 480,-123.5 480,-104.5 394,-104.5"/>
<text text-anchor="middle" x="437" y="-111.5" font-family="Helvetica,sans-Serif" font-size="10.00">GUI::Item::Draw</text>
</a>
</g>
</g>
<!-- Node3&#45;&gt;Node4 -->
<g id="edge3" class="edge">
<title>Node3&#45;&gt;Node4</title>
<path fill="none" stroke="midnightblue" d="M538.83,-88.11C518.21,-93.4 494.39,-99.52 475.08,-104.48"/>
<polygon fill="midnightblue" stroke="midnightblue" points="539.84,-91.47 548.65,-85.59 538.1,-84.69 539.84,-91.47"/>
</g>
<!-- Node5 -->
<g id="node5" class="node">
<title>Node5</title>
<g id="a_node5"><a xlink:href="class_drawable.html#ac46f25a963a3fe3e9176461d61d213c7" target="_top" xlink:title=" ">
<polygon fill="white" stroke="black" points="395,-66.5 395,-85.5 479,-85.5 479,-66.5 395,-66.5"/>
<text text-anchor="middle" x="437" y="-73.5" font-family="Helvetica,sans-Serif" font-size="10.00">Drawable::Draw</text>
</a>
</g>
</g>
<!-- Node3&#45;&gt;Node5 -->
<g id="edge4" class="edge">
<title>Node3&#45;&gt;Node5</title>
<path fill="none" stroke="midnightblue" d="M519.24,-76C505.54,-76 491.5,-76 479.03,-76"/>
<polygon fill="midnightblue" stroke="midnightblue" points="519.63,-79.5 529.63,-76 519.63,-72.5 519.63,-79.5"/>
</g>
<!-- Node10 -->
<g id="node10" class="node">
<title>Node10</title>
<g id="a_node10"><a xlink:href="class_graphics_1_1_image.html#a90e9a33ef5f89fa71e830d967122b9e3" target="_top" xlink:title=" ">
<polygon fill="white" stroke="black" points="380,-28.5 380,-47.5 494,-47.5 494,-28.5 380,-28.5"/>
<text text-anchor="middle" x="437" y="-35.5" font-family="Helvetica,sans-Serif" font-size="10.00">Graphics::Image::Draw</text>
</a>
</g>
</g>
<!-- Node3&#45;&gt;Node10 -->
<g id="edge10" class="edge">
<title>Node3&#45;&gt;Node10</title>
<path fill="none" stroke="midnightblue" d="M538.83,-63.89C518.21,-58.6 494.39,-52.48 475.08,-47.52"/>
<polygon fill="midnightblue" stroke="midnightblue" points="538.1,-67.31 548.65,-66.41 539.84,-60.53 538.1,-67.31"/>
</g>
<!-- Node6 -->
<g id="node6" class="node">
<title>Node6</title>
<g id="a_node6"><a xlink:href="class_engine.html#a39f23d7f0ad86322bfdb73d4e6763005" target="_top" xlink:title=" ">
<polygon fill="white" stroke="black" points="74,-66.5 74,-85.5 147,-85.5 147,-66.5 74,-66.5"/>
<text text-anchor="middle" x="110.5" y="-73.5" font-family="Helvetica,sans-Serif" font-size="10.00">Engine::Draw</text>
</a>
</g>
</g>
<!-- Node5&#45;&gt;Node6 -->
<g id="edge5" class="edge">
<title>Node5&#45;&gt;Node6</title>
<path fill="none" stroke="midnightblue" d="M384.69,-76C318.47,-76 204.91,-76 147.29,-76"/>
<polygon fill="midnightblue" stroke="midnightblue" points="384.9,-79.5 394.9,-76 384.9,-72.5 384.9,-79.5"/>
</g>
<!-- Node8 -->
<g id="node8" class="node">
<title>Node8</title>
<g id="a_node8"><a xlink:href="class_cell.html#ac88160c4177e146f8dd7482c4eaee4f0" target="_top" xlink:title=" ">
<polygon fill="white" stroke="black" points="284,-47.5 284,-66.5 344,-66.5 344,-47.5 284,-47.5"/>
<text text-anchor="middle" x="314" y="-54.5" font-family="Helvetica,sans-Serif" font-size="10.00">Cell::Draw</text>
</a>
</g>
</g>
<!-- Node5&#45;&gt;Node8 -->
<g id="edge7" class="edge">
<title>Node5&#45;&gt;Node8</title>
<path fill="none" stroke="midnightblue" d="M384.79,-67.96C370.96,-65.79 356.46,-63.51 344.29,-61.6"/>
<polygon fill="midnightblue" stroke="midnightblue" points="384.28,-71.42 394.7,-69.51 385.36,-64.51 384.28,-71.42"/>
</g>
<!-- Node7 -->
<g id="node7" class="node">
<title>Node7</title>
<g id="a_node7"><a xlink:href="main_8cpp.html#ae66f6b31b5ad750f1fe042a706a4e3d4" target="_top" xlink:title=" ">
<polygon fill="white" stroke="black" points="0,-66.5 0,-85.5 38,-85.5 38,-66.5 0,-66.5"/>
<text text-anchor="middle" x="19" y="-73.5" font-family="Helvetica,sans-Serif" font-size="10.00">main</text>
</a>
</g>
</g>
<!-- Node6&#45;&gt;Node7 -->
<g id="edge6" class="edge">
<title>Node6&#45;&gt;Node7</title>
<path fill="none" stroke="midnightblue" d="M63.66,-76C54.57,-76 45.53,-76 38.06,-76"/>
<polygon fill="midnightblue" stroke="midnightblue" points="63.87,-79.5 73.87,-76 63.87,-72.5 63.87,-79.5"/>
</g>
<!-- Node9 -->
<g id="node9" class="node">
<title>Node9</title>
<g id="a_node9"><a xlink:href="class_field.html#ad13d86066be42a2e10fcb9cbcc51fb0b" target="_top" xlink:title=" ">
<polygon fill="white" stroke="black" points="183,-47.5 183,-66.5 248,-66.5 248,-47.5 183,-47.5"/>
<text text-anchor="middle" x="215.5" y="-54.5" font-family="Helvetica,sans-Serif" font-size="10.00">Field::Draw</text>
</a>
</g>
</g>
<!-- Node8&#45;&gt;Node9 -->
<g id="edge8" class="edge">
<title>Node8&#45;&gt;Node9</title>
<path fill="none" stroke="midnightblue" d="M273.73,-57C265.27,-57 256.44,-57 248.31,-57"/>
<polygon fill="midnightblue" stroke="midnightblue" points="273.78,-60.5 283.78,-57 273.78,-53.5 273.78,-60.5"/>
</g>
<!-- Node9&#45;&gt;Node6 -->
<g id="edge9" class="edge">
<title>Node9&#45;&gt;Node6</title>
<path fill="none" stroke="midnightblue" d="M172.71,-64.71C164.28,-66.26 155.48,-67.89 147.27,-69.4"/>
<polygon fill="midnightblue" stroke="midnightblue" points="173.56,-68.11 182.76,-62.86 172.29,-61.23 173.56,-68.11"/>
</g>
</g>
</svg>
