<?xml version="1.0" encoding="UTF-8" standalone="no"?>
<!DOCTYPE svg PUBLIC "-//W3C//DTD SVG 1.1//EN"
 "http://www.w3.org/Graphics/SVG/1.1/DTD/svg11.dtd">
<!-- Generated by graphviz version 2.47.1 (20210421.1823)
 -->
<!-- Title: Ground Pages: 1 -->
<svg width="409pt" height="342pt"
 viewBox="0.00 0.00 409.00 342.00" xmlns="http://www.w3.org/2000/svg" xmlns:xlink="http://www.w3.org/1999/xlink">
<g id="graph0" class="graph" transform="scale(1 1) rotate(0) translate(4 338)">
<title>Ground</title>
<polygon fill="white" stroke="transparent" points="-4,4 -4,-338 405,-338 405,4 -4,4"/>
<!-- Node1 -->
<g id="node1" class="node">
<title>Node1</title>
<g id="a_node1"><a xlink:title=" ">
<polygon fill="#bfbfbf" stroke="black" points="178,-116.5 178,-184.5 246,-184.5 246,-116.5 178,-116.5"/>
<text text-anchor="middle" x="212" y="-172.5" font-family="Helvetica,sans-Serif" font-size="10.00">Ground</text>
<polyline fill="none" stroke="black" points="178,-165.5 246,-165.5 "/>
<text text-anchor="middle" x="212" y="-153.5" font-family="Helvetica,sans-Serif" font-size="10.00"> </text>
<polyline fill="none" stroke="black" points="178,-146.5 246,-146.5 "/>
<text text-anchor="start" x="186" y="-134.5" font-family="Helvetica,sans-Serif" font-size="10.00">+ ~Ground()</text>
<text text-anchor="start" x="186" y="-123.5" font-family="Helvetica,sans-Serif" font-size="10.00">+ Ground()</text>
</a>
</g>
</g>
<!-- Node4 -->
<g id="node4" class="node">
<title>Node4</title>
<g id="a_node4"><a xlink:href="class_ground_earth.html" target="_top" xlink:title=" ">
<polygon fill="white" stroke="black" points="0,-0.5 0,-79.5 90,-79.5 90,-0.5 0,-0.5"/>
<text text-anchor="middle" x="45" y="-67.5" font-family="Helvetica,sans-Serif" font-size="10.00">GroundEarth</text>
<polyline fill="none" stroke="black" points="0,-60.5 90,-60.5 "/>
<text text-anchor="middle" x="45" y="-48.5" font-family="Helvetica,sans-Serif" font-size="10.00"> </text>
<polyline fill="none" stroke="black" points="0,-41.5 90,-41.5 "/>
<text text-anchor="start" x="8" y="-29.5" font-family="Helvetica,sans-Serif" font-size="10.00">+ ~GroundEarth()</text>
<text text-anchor="start" x="8" y="-18.5" font-family="Helvetica,sans-Serif" font-size="10.00">+ GroundEarth()</text>
<text text-anchor="start" x="8" y="-7.5" font-family="Helvetica,sans-Serif" font-size="10.00">+ Tick()</text>
</a>
</g>
</g>
<!-- Node1&#45;&gt;Node4 -->
<g id="edge3" class="edge">
<title>Node1&#45;&gt;Node4</title>
<path fill="none" stroke="midnightblue" d="M169.14,-124.16C147.82,-111.3 121.8,-95.21 99,-80 96.11,-78.07 93.16,-76.06 90.2,-74.02"/>
<polygon fill="none" stroke="midnightblue" points="167.59,-127.31 177.96,-129.46 171.19,-121.31 167.59,-127.31"/>
</g>
<!-- Node5 -->
<g id="node5" class="node">
<title>Node5</title>
<g id="a_node5"><a xlink:href="class_ground_empty.html" target="_top" xlink:title=" ">
<polygon fill="white" stroke="black" points="108.5,-0.5 108.5,-79.5 203.5,-79.5 203.5,-0.5 108.5,-0.5"/>
<text text-anchor="middle" x="156" y="-67.5" font-family="Helvetica,sans-Serif" font-size="10.00">GroundEmpty</text>
<polyline fill="none" stroke="black" points="108.5,-60.5 203.5,-60.5 "/>
<text text-anchor="middle" x="156" y="-48.5" font-family="Helvetica,sans-Serif" font-size="10.00"> </text>
<polyline fill="none" stroke="black" points="108.5,-41.5 203.5,-41.5 "/>
<text text-anchor="start" x="116.5" y="-29.5" font-family="Helvetica,sans-Serif" font-size="10.00">+ ~GroundEmpty()</text>
<text text-anchor="start" x="116.5" y="-18.5" font-family="Helvetica,sans-Serif" font-size="10.00">+ GroundEmpty()</text>
<text text-anchor="start" x="116.5" y="-7.5" font-family="Helvetica,sans-Serif" font-size="10.00">+ Tick()</text>
</a>
</g>
</g>
<!-- Node1&#45;&gt;Node5 -->
<g id="edge4" class="edge">
<title>Node1&#45;&gt;Node5</title>
<path fill="none" stroke="midnightblue" d="M190.28,-107.42C185.56,-98.28 180.59,-88.65 175.95,-79.65"/>
<polygon fill="none" stroke="midnightblue" points="187.2,-109.08 194.89,-116.36 193.42,-105.87 187.2,-109.08"/>
</g>
<!-- Node6 -->
<g id="node6" class="node">
<title>Node6</title>
<g id="a_node6"><a xlink:href="class_ground_water.html" target="_top" xlink:title=" ">
<polygon fill="white" stroke="black" points="221.5,-0.5 221.5,-79.5 314.5,-79.5 314.5,-0.5 221.5,-0.5"/>
<text text-anchor="middle" x="268" y="-67.5" font-family="Helvetica,sans-Serif" font-size="10.00">GroundWater</text>
<polyline fill="none" stroke="black" points="221.5,-60.5 314.5,-60.5 "/>
<text text-anchor="middle" x="268" y="-48.5" font-family="Helvetica,sans-Serif" font-size="10.00"> </text>
<polyline fill="none" stroke="black" points="221.5,-41.5 314.5,-41.5 "/>
<text text-anchor="start" x="229.5" y="-29.5" font-family="Helvetica,sans-Serif" font-size="10.00">+ ~GroundWater()</text>
<text text-anchor="start" x="229.5" y="-18.5" font-family="Helvetica,sans-Serif" font-size="10.00">+ GroundWater()</text>
<text text-anchor="start" x="229.5" y="-7.5" font-family="Helvetica,sans-Serif" font-size="10.00">+ Tick()</text>
</a>
</g>
</g>
<!-- Node1&#45;&gt;Node6 -->
<g id="edge5" class="edge">
<title>Node1&#45;&gt;Node6</title>
<path fill="none" stroke="midnightblue" d="M233.72,-107.42C238.44,-98.28 243.41,-88.65 248.05,-79.65"/>
<polygon fill="none" stroke="midnightblue" points="230.58,-105.87 229.11,-116.36 236.8,-109.08 230.58,-105.87"/>
</g>
<!-- Node7 -->
<g id="node7" class="node">
<title>Node7</title>
<g id="a_node7"><a xlink:href="class_mineral.html" target="_top" xlink:title=" ">
<polygon fill="white" stroke="black" points="333,-0.5 333,-79.5 401,-79.5 401,-0.5 333,-0.5"/>
<text text-anchor="middle" x="367" y="-67.5" font-family="Helvetica,sans-Serif" font-size="10.00">Mineral</text>
<polyline fill="none" stroke="black" points="333,-60.5 401,-60.5 "/>
<text text-anchor="middle" x="367" y="-48.5" font-family="Helvetica,sans-Serif" font-size="10.00"> </text>
<polyline fill="none" stroke="black" points="333,-41.5 401,-41.5 "/>
<text text-anchor="start" x="341" y="-29.5" font-family="Helvetica,sans-Serif" font-size="10.00">+ ~Mineral()</text>
<text text-anchor="start" x="341" y="-18.5" font-family="Helvetica,sans-Serif" font-size="10.00">+ Mineral()</text>
<text text-anchor="start" x="341" y="-7.5" font-family="Helvetica,sans-Serif" font-size="10.00">+ Tick()</text>
</a>
</g>
</g>
<!-- Node1&#45;&gt;Node7 -->
<g id="edge6" class="edge">
<title>Node1&#45;&gt;Node7</title>
<path fill="none" stroke="midnightblue" d="M255.21,-125.18C276.53,-112.56 302.26,-96.39 324,-80 326.9,-77.82 329.83,-75.47 332.73,-73.06"/>
<polygon fill="none" stroke="midnightblue" points="253.24,-122.28 246.38,-130.35 256.77,-128.32 253.24,-122.28"/>
</g>
<!-- Node2 -->
<g id="node2" class="node">
<title>Node2</title>
<g id="a_node2"><a xlink:href="class_drawable.html" target="_top" xlink:title=" ">
<polygon fill="white" stroke="black" points="132.5,-221.5 132.5,-333.5 209.5,-333.5 209.5,-221.5 132.5,-221.5"/>
<text text-anchor="middle" x="171" y="-321.5" font-family="Helvetica,sans-Serif" font-size="10.00">Drawable</text>
<polyline fill="none" stroke="black" points="132.5,-314.5 209.5,-314.5 "/>
<text text-anchor="middle" x="171" y="-302.5" font-family="Helvetica,sans-Serif" font-size="10.00"> </text>
<polyline fill="none" stroke="black" points="132.5,-295.5 209.5,-295.5 "/>
<text text-anchor="start" x="140.5" y="-283.5" font-family="Helvetica,sans-Serif" font-size="10.00">+ Drawable()</text>
<text text-anchor="start" x="140.5" y="-272.5" font-family="Helvetica,sans-Serif" font-size="10.00">+ Drawable()</text>
<text text-anchor="start" x="140.5" y="-261.5" font-family="Helvetica,sans-Serif" font-size="10.00">+ Draw()</text>
<text text-anchor="start" x="140.5" y="-250.5" font-family="Helvetica,sans-Serif" font-size="10.00">+ ~Drawable()</text>
<text text-anchor="start" x="140.5" y="-239.5" font-family="Helvetica,sans-Serif" font-size="10.00">+ GetImg()</text>
<text text-anchor="start" x="140.5" y="-228.5" font-family="Helvetica,sans-Serif" font-size="10.00">+ SetImage()</text>
</a>
</g>
</g>
<!-- Node2&#45;&gt;Node1 -->
<g id="edge1" class="edge">
<title>Node2&#45;&gt;Node1</title>
<path fill="none" stroke="midnightblue" d="M192.3,-211.55C195.38,-202.18 198.43,-192.89 201.17,-184.51"/>
<polygon fill="none" stroke="midnightblue" points="188.89,-210.72 189.1,-221.31 195.54,-212.9 188.89,-210.72"/>
</g>
<!-- Node3 -->
<g id="node3" class="node">
<title>Node3</title>
<g id="a_node3"><a xlink:href="class_tickable.html" target="_top" xlink:title=" ">
<polygon fill="white" stroke="black" points="227.5,-249 227.5,-306 280.5,-306 280.5,-249 227.5,-249"/>
<text text-anchor="middle" x="254" y="-294" font-family="Helvetica,sans-Serif" font-size="10.00">Tickable</text>
<polyline fill="none" stroke="black" points="227.5,-287 280.5,-287 "/>
<text text-anchor="middle" x="254" y="-275" font-family="Helvetica,sans-Serif" font-size="10.00"> </text>
<polyline fill="none" stroke="black" points="227.5,-268 280.5,-268 "/>
<text text-anchor="start" x="235.5" y="-256" font-family="Helvetica,sans-Serif" font-size="10.00">+ Tick()</text>
</a>
</g>
</g>
<!-- Node3&#45;&gt;Node1 -->
<g id="edge2" class="edge">
<title>Node3&#45;&gt;Node1</title>
<path fill="none" stroke="midnightblue" d="M241.41,-239.03C235.63,-221.84 228.84,-201.62 223.24,-184.94"/>
<polygon fill="none" stroke="midnightblue" points="238.18,-240.39 244.68,-248.76 244.81,-238.16 238.18,-240.39"/>
</g>
</g>
</svg>
