<?xml version="1.0" encoding="UTF-8" standalone="no"?>
<!DOCTYPE svg PUBLIC "-//W3C//DTD SVG 1.1//EN"
 "http://www.w3.org/Graphics/SVG/1.1/DTD/svg11.dtd">
<!-- Generated by graphviz version 2.47.0 (20210407.0042)
 -->
<!-- Title: src Pages: 1 -->
<svg width="332pt" height="132pt"
 viewBox="0.00 0.00 332.00 132.00" xmlns="http://www.w3.org/2000/svg" xmlns:xlink="http://www.w3.org/1999/xlink">
<g id="graph0" class="graph" transform="scale(1 1) rotate(0) translate(4 128)">
<title>src</title>
<polygon fill="white" stroke="transparent" points="-4,4 -4,-128 328,-128 328,4 -4,4"/>
<g id="clust1" class="cluster">
<title>clusterdir_68267d1309a1af8e8297ef4c3efbcdba</title>
<g id="a_clust1"><a xlink:href="dir_68267d1309a1af8e8297ef4c3efbcdba.html" target="_top">
<polygon fill="#eeeeff" stroke="black" points="8,-64 8,-116 316,-116 316,-64 8,-64"/>
</a>
</g>
</g>
<!-- dir_68267d1309a1af8e8297ef4c3efbcdba -->
<g id="node1" class="node">
<title>dir_68267d1309a1af8e8297ef4c3efbcdba</title>
<text text-anchor="middle" x="281" y="-87.5" font-family="Helvetica,sans-Serif" font-size="10.00">src</text>
</g>
<!-- dir_2052808828190f934b76e979ee65af8a -->
<g id="node2" class="node">
<title>dir_2052808828190f934b76e979ee65af8a</title>
<g id="a_node2"><a xlink:href="dir_2052808828190f934b76e979ee65af8a.html" target="_top" xlink:title="engine">
<polygon fill="white" stroke="red" points="236,-108 182,-108 182,-72 236,-72 236,-108"/>
<text text-anchor="middle" x="209" y="-87.5" font-family="Helvetica,sans-Serif" font-size="10.00">engine</text>
</a>
</g>
</g>
<!-- dir_d44c64559bbebec7f509842c48db8b23 -->
<g id="node5" class="node">
<title>dir_d44c64559bbebec7f509842c48db8b23</title>
<g id="a_node5"><a xlink:href="dir_d44c64559bbebec7f509842c48db8b23.html" target="_top" xlink:title="include">
<polygon fill="white" stroke="red" points="153,-36 99,-36 99,0 153,0 153,-36"/>
<text text-anchor="middle" x="126" y="-15.5" font-family="Helvetica,sans-Serif" font-size="10.00">include</text>
</a>
</g>
</g>
<!-- dir_2052808828190f934b76e979ee65af8a&#45;&gt;dir_d44c64559bbebec7f509842c48db8b23 -->
<g id="edge1" class="edge">
<title>dir_2052808828190f934b76e979ee65af8a&#45;&gt;dir_d44c64559bbebec7f509842c48db8b23</title>
<path fill="none" stroke="black" d="M188.48,-71.7C178.13,-62.97 165.41,-52.24 154.16,-42.75"/>
<polygon fill="black" stroke="black" points="156.18,-39.88 146.28,-36.1 151.67,-45.23 156.18,-39.88"/>
<g id="a_edge1&#45;headlabel"><a xlink:href="dir_000008_000000.html" target="_top" xlink:title="20">
<text text-anchor="middle" x="160.76" y="-37.52" font-family="Helvetica,sans-Serif" font-size="10.00">20</text>
</a>
</g>
</g>
<!-- dir_e69035f1f9721333524e4d5beee09f38 -->
<g id="node3" class="node">
<title>dir_e69035f1f9721333524e4d5beee09f38</title>
<g id="a_node3"><a xlink:href="dir_e69035f1f9721333524e4d5beee09f38.html" target="_top" xlink:title="EventHandler">
<polygon fill="white" stroke="black" points="163.5,-108 88.5,-108 88.5,-72 163.5,-72 163.5,-108"/>
<text text-anchor="middle" x="126" y="-87.5" font-family="Helvetica,sans-Serif" font-size="10.00">EventHandler</text>
</a>
</g>
</g>
<!-- dir_e69035f1f9721333524e4d5beee09f38&#45;&gt;dir_d44c64559bbebec7f509842c48db8b23 -->
<g id="edge2" class="edge">
<title>dir_e69035f1f9721333524e4d5beee09f38&#45;&gt;dir_d44c64559bbebec7f509842c48db8b23</title>
<path fill="none" stroke="black" d="M126,-71.7C126,-63.98 126,-54.71 126,-46.11"/>
<polygon fill="black" stroke="black" points="129.5,-46.1 126,-36.1 122.5,-46.1 129.5,-46.1"/>
<g id="a_edge2&#45;headlabel"><a xlink:href="dir_000011_000000.html" target="_top" xlink:title="2">
<text text-anchor="middle" x="132.34" y="-47.2" font-family="Helvetica,sans-Serif" font-size="10.00">2</text>
</a>
</g>
</g>
<!-- dir_560415a5d2bc4999842279f4fc1debef -->
<g id="node4" class="node">
<title>dir_560415a5d2bc4999842279f4fc1debef</title>
<g id="a_node4"><a xlink:href="dir_560415a5d2bc4999842279f4fc1debef.html" target="_top" xlink:title="graphics">
<polygon fill="white" stroke="black" points="70,-108 16,-108 16,-72 70,-72 70,-108"/>
<text text-anchor="middle" x="43" y="-87.5" font-family="Helvetica,sans-Serif" font-size="10.00">graphics</text>
</a>
</g>
</g>
<!-- dir_560415a5d2bc4999842279f4fc1debef&#45;&gt;dir_d44c64559bbebec7f509842c48db8b23 -->
<g id="edge3" class="edge">
<title>dir_560415a5d2bc4999842279f4fc1debef&#45;&gt;dir_d44c64559bbebec7f509842c48db8b23</title>
<path fill="none" stroke="black" d="M63.52,-71.7C73.87,-62.97 86.59,-52.24 97.84,-42.75"/>
<polygon fill="black" stroke="black" points="100.33,-45.23 105.72,-36.1 95.82,-39.88 100.33,-45.23"/>
<g id="a_edge3&#45;headlabel"><a xlink:href="dir_000012_000000.html" target="_top" xlink:title="5">
<text text-anchor="middle" x="99.41" y="-47.21" font-family="Helvetica,sans-Serif" font-size="10.00">5</text>
</a>
</g>
</g>
</g>
</svg>
