<?xml version="1.0" encoding="UTF-8" standalone="no"?>
<!DOCTYPE svg PUBLIC "-//W3C//DTD SVG 1.1//EN"
 "http://www.w3.org/Graphics/SVG/1.1/DTD/svg11.dtd">
<!-- Generated by graphviz version 2.47.1 (20210421.1823)
 -->
<!-- Title: include/GUI Pages: 1 -->
<svg width="186pt" height="239pt"
 viewBox="0.00 0.00 186.00 239.00" xmlns="http://www.w3.org/2000/svg" xmlns:xlink="http://www.w3.org/1999/xlink">
<g id="graph0" class="graph" transform="scale(1 1) rotate(0) translate(4 235)">
<title>include/GUI</title>
<polygon fill="white" stroke="transparent" points="-4,4 -4,-235 182,-235 182,4 -4,4"/>
<g id="clust1" class="cluster">
<title>clusterdir_d44c64559bbebec7f509842c48db8b23</title>
<g id="a_clust1"><a xlink:href="dir_d44c64559bbebec7f509842c48db8b23.html" target="_top" xlink:title="include">
<polygon fill="#ddddee" stroke="black" points="8,-8 8,-223 170,-223 170,-8 8,-8"/>
<text text-anchor="middle" x="89" y="-211" font-family="Helvetica,sans-Serif" font-size="10.00">include</text>
</a>
</g>
</g>
<!-- dir_a7f531b1c37460085cedd304cb8df01d -->
<g id="node1" class="node">
<title>dir_a7f531b1c37460085cedd304cb8df01d</title>
<g id="a_node1"><a xlink:href="dir_a7f531b1c37460085cedd304cb8df01d.html" target="_top" xlink:title="engine">
<polygon fill="white" stroke="red" points="70,-124 16,-124 16,-88 70,-88 70,-124"/>
<text text-anchor="middle" x="43" y="-103.5" font-family="Helvetica,sans-Serif" font-size="10.00">engine</text>
</a>
</g>
</g>
<!-- dir_e8b0e4b61d28633961a5dcbc6cdc4fa4 -->
<g id="node3" class="node">
<title>dir_e8b0e4b61d28633961a5dcbc6cdc4fa4</title>
<g id="a_node3"><a xlink:href="dir_e8b0e4b61d28633961a5dcbc6cdc4fa4.html" target="_top" xlink:title="Helpers">
<polygon fill="none" stroke="black" points="142,-52 88,-52 88,-16 142,-16 142,-52"/>
<text text-anchor="middle" x="115" y="-31.5" font-family="Helvetica,sans-Serif" font-size="10.00">Helpers</text>
</a>
</g>
</g>
<!-- dir_a7f531b1c37460085cedd304cb8df01d&#45;&gt;dir_e8b0e4b61d28633961a5dcbc6cdc4fa4 -->
<g id="edge1" class="edge">
<title>dir_a7f531b1c37460085cedd304cb8df01d&#45;&gt;dir_e8b0e4b61d28633961a5dcbc6cdc4fa4</title>
<path fill="none" stroke="black" d="M60.8,-87.7C69.6,-79.14 80.38,-68.66 90,-59.3"/>
<polygon fill="black" stroke="black" points="92.68,-61.58 97.41,-52.1 87.8,-56.57 92.68,-61.58"/>
<g id="a_edge1&#45;headlabel"><a xlink:href="dir_000001_000007.html" target="_top" xlink:title="3">
<text text-anchor="middle" x="92.08" y="-63.63" font-family="Helvetica,sans-Serif" font-size="10.00">3</text>
</a>
</g>
</g>
<!-- dir_c17ed8a99c2aafc6034c524ffcf900dc -->
<g id="node2" class="node">
<title>dir_c17ed8a99c2aafc6034c524ffcf900dc</title>
<g id="a_node2"><a xlink:href="dir_c17ed8a99c2aafc6034c524ffcf900dc.html" target="_top" xlink:title="graphics">
<polygon fill="none" stroke="black" points="142,-124 88,-124 88,-88 142,-88 142,-124"/>
<text text-anchor="middle" x="115" y="-103.5" font-family="Helvetica,sans-Serif" font-size="10.00">graphics</text>
</a>
</g>
</g>
<!-- dir_c17ed8a99c2aafc6034c524ffcf900dc&#45;&gt;dir_e8b0e4b61d28633961a5dcbc6cdc4fa4 -->
<g id="edge5" class="edge">
<title>dir_c17ed8a99c2aafc6034c524ffcf900dc&#45;&gt;dir_e8b0e4b61d28633961a5dcbc6cdc4fa4</title>
<path fill="none" stroke="black" d="M115,-87.7C115,-79.98 115,-70.71 115,-62.11"/>
<polygon fill="black" stroke="black" points="118.5,-62.1 115,-52.1 111.5,-62.1 118.5,-62.1"/>
<g id="a_edge5&#45;headlabel"><a xlink:href="dir_000005_000007.html" target="_top" xlink:title="1">
<text text-anchor="middle" x="121.34" y="-63.2" font-family="Helvetica,sans-Serif" font-size="10.00">1</text>
</a>
</g>
</g>
<!-- dir_f938830485ea5fc932d9051b851477f4 -->
<g id="node4" class="node">
<title>dir_f938830485ea5fc932d9051b851477f4</title>
<g id="a_node4"><a xlink:href="dir_f938830485ea5fc932d9051b851477f4.html" target="_top" xlink:title="GUI">
<polygon fill="#eeeeff" stroke="black" points="142,-196 88,-196 88,-160 142,-160 142,-196"/>
<text text-anchor="middle" x="115" y="-175.5" font-family="Helvetica,sans-Serif" font-size="10.00">GUI</text>
</a>
</g>
</g>
<!-- dir_f938830485ea5fc932d9051b851477f4&#45;&gt;dir_a7f531b1c37460085cedd304cb8df01d -->
<g id="edge2" class="edge">
<title>dir_f938830485ea5fc932d9051b851477f4&#45;&gt;dir_a7f531b1c37460085cedd304cb8df01d</title>
<path fill="none" stroke="black" d="M97.2,-159.7C88.4,-151.14 77.62,-140.66 68,-131.3"/>
<polygon fill="black" stroke="black" points="70.2,-128.57 60.59,-124.1 65.32,-133.58 70.2,-128.57"/>
<g id="a_edge2&#45;headlabel"><a xlink:href="dir_000006_000001.html" target="_top" xlink:title="1">
<text text-anchor="middle" x="74.76" y="-126.54" font-family="Helvetica,sans-Serif" font-size="10.00">1</text>
</a>
</g>
</g>
<!-- dir_f938830485ea5fc932d9051b851477f4&#45;&gt;dir_c17ed8a99c2aafc6034c524ffcf900dc -->
<g id="edge3" class="edge">
<title>dir_f938830485ea5fc932d9051b851477f4&#45;&gt;dir_c17ed8a99c2aafc6034c524ffcf900dc</title>
<path fill="none" stroke="black" d="M115,-159.7C115,-151.98 115,-142.71 115,-134.11"/>
<polygon fill="black" stroke="black" points="118.5,-134.1 115,-124.1 111.5,-134.1 118.5,-134.1"/>
<g id="a_edge3&#45;headlabel"><a xlink:href="dir_000006_000005.html" target="_top" xlink:title="3">
<text text-anchor="middle" x="121.34" y="-135.2" font-family="Helvetica,sans-Serif" font-size="10.00">3</text>
</a>
</g>
</g>
<!-- dir_f938830485ea5fc932d9051b851477f4&#45;&gt;dir_e8b0e4b61d28633961a5dcbc6cdc4fa4 -->
<g id="edge4" class="edge">
<title>dir_f938830485ea5fc932d9051b851477f4&#45;&gt;dir_e8b0e4b61d28633961a5dcbc6cdc4fa4</title>
<path fill="none" stroke="black" d="M130.61,-159.77C138.37,-150.03 146.95,-137.18 151,-124 155.7,-108.71 155.7,-103.29 151,-88 147.99,-78.22 142.49,-68.62 136.68,-60.33"/>
<polygon fill="black" stroke="black" points="139.41,-58.13 130.61,-52.23 133.81,-62.33 139.41,-58.13"/>
<g id="a_edge4&#45;headlabel"><a xlink:href="dir_000006_000007.html" target="_top" xlink:title="3">
<text text-anchor="middle" x="143.83" y="-56.8" font-family="Helvetica,sans-Serif" font-size="10.00">3</text>
</a>
</g>
</g>
</g>
</svg>
