<?xml version="1.0" encoding="UTF-8" standalone="no"?>
<!DOCTYPE svg PUBLIC "-//W3C//DTD SVG 1.1//EN"
 "http://www.w3.org/Graphics/SVG/1.1/DTD/svg11.dtd">
<!-- Generated by graphviz version 2.47.1 (20210421.1823)
 -->
<!-- Title: src Pages: 1 -->
<svg width="404pt" height="132pt"
 viewBox="0.00 0.00 404.00 132.00" xmlns="http://www.w3.org/2000/svg" xmlns:xlink="http://www.w3.org/1999/xlink">
<g id="graph0" class="graph" transform="scale(1 1) rotate(0) translate(4 128)">
<title>src</title>
<polygon fill="white" stroke="transparent" points="-4,4 -4,-128 400,-128 400,4 -4,4"/>
<g id="clust1" class="cluster">
<title>clusterdir_68267d1309a1af8e8297ef4c3efbcdba</title>
<g id="a_clust1"><a xlink:href="dir_68267d1309a1af8e8297ef4c3efbcdba.html" target="_top">
<polygon fill="#eeeeff" stroke="black" points="8,-64 8,-116 388,-116 388,-64 8,-64"/>
</a>
</g>
</g>
<!-- dir_68267d1309a1af8e8297ef4c3efbcdba -->
<g id="node1" class="node">
<title>dir_68267d1309a1af8e8297ef4c3efbcdba</title>
<text text-anchor="middle" x="353" y="-87.5" font-family="Helvetica,sans-Serif" font-size="10.00">src</text>
</g>
<!-- dir_2052808828190f934b76e979ee65af8a -->
<g id="node2" class="node">
<title>dir_2052808828190f934b76e979ee65af8a</title>
<g id="a_node2"><a xlink:href="dir_2052808828190f934b76e979ee65af8a.html" target="_top" xlink:title="engine">
<polygon fill="white" stroke="red" points="308,-108 254,-108 254,-72 308,-72 308,-108"/>
<text text-anchor="middle" x="281" y="-87.5" font-family="Helvetica,sans-Serif" font-size="10.00">engine</text>
</a>
</g>
</g>
<!-- dir_d44c64559bbebec7f509842c48db8b23 -->
<g id="node6" class="node">
<title>dir_d44c64559bbebec7f509842c48db8b23</title>
<g id="a_node6"><a xlink:href="dir_d44c64559bbebec7f509842c48db8b23.html" target="_top" xlink:title="include">
<polygon fill="white" stroke="red" points="183,-36 129,-36 129,0 183,0 183,-36"/>
<text text-anchor="middle" x="156" y="-15.5" font-family="Helvetica,sans-Serif" font-size="10.00">include</text>
</a>
</g>
</g>
<!-- dir_2052808828190f934b76e979ee65af8a&#45;&gt;dir_d44c64559bbebec7f509842c48db8b23 -->
<g id="edge1" class="edge">
<title>dir_2052808828190f934b76e979ee65af8a&#45;&gt;dir_d44c64559bbebec7f509842c48db8b23</title>
<path fill="none" stroke="black" d="M257.29,-71.85C253.25,-69.13 249.05,-66.42 245,-64 228.09,-53.92 208.65,-43.92 192.26,-35.91"/>
<polygon fill="black" stroke="black" points="193.53,-32.64 183,-31.45 190.49,-38.94 193.53,-32.64"/>
<g id="a_edge1&#45;headlabel"><a xlink:href="dir_000009_000000.html" target="_top" xlink:title="23">
<text text-anchor="middle" x="198" y="-29.15" font-family="Helvetica,sans-Serif" font-size="10.00">23</text>
</a>
</g>
</g>
<!-- dir_e69035f1f9721333524e4d5beee09f38 -->
<g id="node3" class="node">
<title>dir_e69035f1f9721333524e4d5beee09f38</title>
<g id="a_node3"><a xlink:href="dir_e69035f1f9721333524e4d5beee09f38.html" target="_top" xlink:title="EventHandler">
<polygon fill="white" stroke="black" points="235.5,-108 160.5,-108 160.5,-72 235.5,-72 235.5,-108"/>
<text text-anchor="middle" x="198" y="-87.5" font-family="Helvetica,sans-Serif" font-size="10.00">EventHandler</text>
</a>
</g>
</g>
<!-- dir_e69035f1f9721333524e4d5beee09f38&#45;&gt;dir_d44c64559bbebec7f509842c48db8b23 -->
<g id="edge2" class="edge">
<title>dir_e69035f1f9721333524e4d5beee09f38&#45;&gt;dir_d44c64559bbebec7f509842c48db8b23</title>
<path fill="none" stroke="black" d="M187.62,-71.7C182.74,-63.56 176.81,-53.69 171.42,-44.7"/>
<polygon fill="black" stroke="black" points="174.41,-42.88 166.26,-36.1 168.41,-46.48 174.41,-42.88"/>
<g id="a_edge2&#45;headlabel"><a xlink:href="dir_000012_000000.html" target="_top" xlink:title="2">
<text text-anchor="middle" x="178.69" y="-42" font-family="Helvetica,sans-Serif" font-size="10.00">2</text>
</a>
</g>
</g>
<!-- dir_560415a5d2bc4999842279f4fc1debef -->
<g id="node4" class="node">
<title>dir_560415a5d2bc4999842279f4fc1debef</title>
<g id="a_node4"><a xlink:href="dir_560415a5d2bc4999842279f4fc1debef.html" target="_top" xlink:title="graphics">
<polygon fill="white" stroke="black" points="142,-108 88,-108 88,-72 142,-72 142,-108"/>
<text text-anchor="middle" x="115" y="-87.5" font-family="Helvetica,sans-Serif" font-size="10.00">graphics</text>
</a>
</g>
</g>
<!-- dir_560415a5d2bc4999842279f4fc1debef&#45;&gt;dir_d44c64559bbebec7f509842c48db8b23 -->
<g id="edge3" class="edge">
<title>dir_560415a5d2bc4999842279f4fc1debef&#45;&gt;dir_d44c64559bbebec7f509842c48db8b23</title>
<path fill="none" stroke="black" d="M125.13,-71.7C129.85,-63.64 135.56,-53.89 140.78,-44.98"/>
<polygon fill="black" stroke="black" points="143.95,-46.5 145.98,-36.1 137.91,-42.96 143.95,-46.5"/>
<g id="a_edge3&#45;headlabel"><a xlink:href="dir_000013_000000.html" target="_top" xlink:title="6">
<text text-anchor="middle" x="144.58" y="-48.54" font-family="Helvetica,sans-Serif" font-size="10.00">6</text>
</a>
</g>
</g>
<!-- dir_4e4e2e75df7fa6971448b424c011c8b5 -->
<g id="node5" class="node">
<title>dir_4e4e2e75df7fa6971448b424c011c8b5</title>
<g id="a_node5"><a xlink:href="dir_4e4e2e75df7fa6971448b424c011c8b5.html" target="_top" xlink:title="GUI">
<polygon fill="white" stroke="black" points="70,-108 16,-108 16,-72 70,-72 70,-108"/>
<text text-anchor="middle" x="43" y="-87.5" font-family="Helvetica,sans-Serif" font-size="10.00">GUI</text>
</a>
</g>
</g>
<!-- dir_4e4e2e75df7fa6971448b424c011c8b5&#45;&gt;dir_d44c64559bbebec7f509842c48db8b23 -->
<g id="edge4" class="edge">
<title>dir_4e4e2e75df7fa6971448b424c011c8b5&#45;&gt;dir_d44c64559bbebec7f509842c48db8b23</title>
<path fill="none" stroke="black" d="M67.23,-71.79C71.13,-69.13 75.15,-66.46 79,-64 92.26,-55.54 107.11,-46.71 120.22,-39.14"/>
<polygon fill="black" stroke="black" points="122.04,-42.13 128.96,-34.11 118.55,-36.06 122.04,-42.13"/>
<g id="a_edge4&#45;headlabel"><a xlink:href="dir_000014_000000.html" target="_top" xlink:title="4">
<text text-anchor="middle" x="120.33" y="-43.88" font-family="Helvetica,sans-Serif" font-size="10.00">4</text>
</a>
</g>
</g>
</g>
</svg>
