<?xml version="1.0" encoding="UTF-8" standalone="no"?>
<!DOCTYPE svg PUBLIC "-//W3C//DTD SVG 1.1//EN"
 "http://www.w3.org/Graphics/SVG/1.1/DTD/svg11.dtd">
<!-- Generated by graphviz version 2.47.1 (20210421.1823)
 -->
<!-- Title: include Pages: 1 -->
<svg width="260pt" height="220pt"
 viewBox="0.00 0.00 260.00 220.00" xmlns="http://www.w3.org/2000/svg" xmlns:xlink="http://www.w3.org/1999/xlink">
<g id="graph0" class="graph" transform="scale(1 1) rotate(0) translate(4 216)">
<title>include</title>
<polygon fill="white" stroke="transparent" points="-4,4 -4,-216 256,-216 256,4 -4,4"/>
<g id="clust1" class="cluster">
<title>clusterdir_d44c64559bbebec7f509842c48db8b23</title>
<g id="a_clust1"><a xlink:href="dir_d44c64559bbebec7f509842c48db8b23.html" target="_top">
<polygon fill="#eeeeff" stroke="black" points="8,-8 8,-204 244,-204 244,-8 8,-8"/>
</a>
</g>
</g>
<!-- dir_d44c64559bbebec7f509842c48db8b23 -->
<g id="node1" class="node">
<title>dir_d44c64559bbebec7f509842c48db8b23</title>
<text text-anchor="middle" x="209" y="-175.5" font-family="Helvetica,sans-Serif" font-size="10.00">include</text>
</g>
<!-- dir_a7f531b1c37460085cedd304cb8df01d -->
<g id="node2" class="node">
<title>dir_a7f531b1c37460085cedd304cb8df01d</title>
<g id="a_node2"><a xlink:href="dir_a7f531b1c37460085cedd304cb8df01d.html" target="_top" xlink:title="engine">
<polygon fill="white" stroke="red" points="90,-124 36,-124 36,-88 90,-88 90,-124"/>
<text text-anchor="middle" x="63" y="-103.5" font-family="Helvetica,sans-Serif" font-size="10.00">engine</text>
</a>
</g>
</g>
<!-- dir_e8b0e4b61d28633961a5dcbc6cdc4fa4 -->
<g id="node6" class="node">
<title>dir_e8b0e4b61d28633961a5dcbc6cdc4fa4</title>
<g id="a_node6"><a xlink:href="dir_e8b0e4b61d28633961a5dcbc6cdc4fa4.html" target="_top" xlink:title="Helpers">
<polygon fill="white" stroke="black" points="126,-52 72,-52 72,-16 126,-16 126,-52"/>
<text text-anchor="middle" x="99" y="-31.5" font-family="Helvetica,sans-Serif" font-size="10.00">Helpers</text>
</a>
</g>
</g>
<!-- dir_a7f531b1c37460085cedd304cb8df01d&#45;&gt;dir_e8b0e4b61d28633961a5dcbc6cdc4fa4 -->
<g id="edge1" class="edge">
<title>dir_a7f531b1c37460085cedd304cb8df01d&#45;&gt;dir_e8b0e4b61d28633961a5dcbc6cdc4fa4</title>
<path fill="none" stroke="black" d="M71.9,-87.7C76,-79.73 80.95,-70.1 85.49,-61.26"/>
<polygon fill="black" stroke="black" points="88.74,-62.6 90.2,-52.1 82.52,-59.4 88.74,-62.6"/>
<g id="a_edge1&#45;headlabel"><a xlink:href="dir_000001_000007.html" target="_top" xlink:title="3">
<text text-anchor="middle" x="89.62" y="-64.59" font-family="Helvetica,sans-Serif" font-size="10.00">3</text>
</a>
</g>
</g>
<!-- dir_98b2bde0ea161cfb166c64ff72b1ebbd -->
<g id="node3" class="node">
<title>dir_98b2bde0ea161cfb166c64ff72b1ebbd</title>
<g id="a_node3"><a xlink:href="dir_98b2bde0ea161cfb166c64ff72b1ebbd.html" target="_top" xlink:title="EventHandler">
<polygon fill="white" stroke="black" points="163.5,-196 88.5,-196 88.5,-160 163.5,-160 163.5,-196"/>
<text text-anchor="middle" x="126" y="-175.5" font-family="Helvetica,sans-Serif" font-size="10.00">EventHandler</text>
</a>
</g>
</g>
<!-- dir_c17ed8a99c2aafc6034c524ffcf900dc -->
<g id="node4" class="node">
<title>dir_c17ed8a99c2aafc6034c524ffcf900dc</title>
<g id="a_node4"><a xlink:href="dir_c17ed8a99c2aafc6034c524ffcf900dc.html" target="_top" xlink:title="graphics">
<polygon fill="white" stroke="black" points="162,-124 108,-124 108,-88 162,-88 162,-124"/>
<text text-anchor="middle" x="135" y="-103.5" font-family="Helvetica,sans-Serif" font-size="10.00">graphics</text>
</a>
</g>
</g>
<!-- dir_98b2bde0ea161cfb166c64ff72b1ebbd&#45;&gt;dir_c17ed8a99c2aafc6034c524ffcf900dc -->
<g id="edge7" class="edge">
<title>dir_98b2bde0ea161cfb166c64ff72b1ebbd&#45;&gt;dir_c17ed8a99c2aafc6034c524ffcf900dc</title>
<path fill="none" stroke="black" d="M122.31,-159.7C122.51,-151.98 123.47,-142.71 124.92,-134.11"/>
<polygon fill="black" stroke="black" points="128.39,-134.59 126.91,-124.1 121.53,-133.23 128.39,-134.59"/>
<g id="a_edge7&#45;headlabel"><a xlink:href="dir_000004_000005.html" target="_top" xlink:title="1">
<text text-anchor="middle" x="130.48" y="-136.17" font-family="Helvetica,sans-Serif" font-size="10.00">1</text>
</a>
</g>
</g>
<!-- dir_98b2bde0ea161cfb166c64ff72b1ebbd&#45;&gt;dir_e8b0e4b61d28633961a5dcbc6cdc4fa4 -->
<g id="edge8" class="edge">
<title>dir_98b2bde0ea161cfb166c64ff72b1ebbd&#45;&gt;dir_e8b0e4b61d28633961a5dcbc6cdc4fa4</title>
<path fill="none" stroke="black" d="M146.38,-159.53C155.81,-150.09 166.01,-137.6 171,-124 176.52,-108.98 178.22,-102.28 171,-88 163.3,-72.77 148.94,-60.85 135.06,-52.2"/>
<polygon fill="black" stroke="black" points="136.48,-48.98 126.08,-46.99 132.97,-55.04 136.48,-48.98"/>
<g id="a_edge8&#45;headlabel"><a xlink:href="dir_000004_000007.html" target="_top" xlink:title="1">
<text text-anchor="middle" x="141.02" y="-45.83" font-family="Helvetica,sans-Serif" font-size="10.00">1</text>
</a>
</g>
</g>
<!-- dir_c17ed8a99c2aafc6034c524ffcf900dc&#45;&gt;dir_98b2bde0ea161cfb166c64ff72b1ebbd -->
<g id="edge5" class="edge">
<title>dir_c17ed8a99c2aafc6034c524ffcf900dc&#45;&gt;dir_98b2bde0ea161cfb166c64ff72b1ebbd</title>
<path fill="none" stroke="black" d="M138.7,-124.1C138.51,-131.79 137.56,-141.05 136.12,-149.67"/>
<polygon fill="black" stroke="black" points="132.64,-149.21 134.14,-159.7 139.51,-150.56 132.64,-149.21"/>
<g id="a_edge5&#45;headlabel"><a xlink:href="dir_000005_000004.html" target="_top" xlink:title="1">
<text text-anchor="middle" x="130.55" y="-142.63" font-family="Helvetica,sans-Serif" font-size="10.00">1</text>
</a>
</g>
</g>
<!-- dir_c17ed8a99c2aafc6034c524ffcf900dc&#45;&gt;dir_e8b0e4b61d28633961a5dcbc6cdc4fa4 -->
<g id="edge6" class="edge">
<title>dir_c17ed8a99c2aafc6034c524ffcf900dc&#45;&gt;dir_e8b0e4b61d28633961a5dcbc6cdc4fa4</title>
<path fill="none" stroke="black" d="M126.1,-87.7C122,-79.73 117.05,-70.1 112.51,-61.26"/>
<polygon fill="black" stroke="black" points="115.48,-59.4 107.8,-52.1 109.26,-62.6 115.48,-59.4"/>
<g id="a_edge6&#45;headlabel"><a xlink:href="dir_000005_000007.html" target="_top" xlink:title="1">
<text text-anchor="middle" x="119.65" y="-58.79" font-family="Helvetica,sans-Serif" font-size="10.00">1</text>
</a>
</g>
</g>
<!-- dir_f938830485ea5fc932d9051b851477f4 -->
<g id="node5" class="node">
<title>dir_f938830485ea5fc932d9051b851477f4</title>
<g id="a_node5"><a xlink:href="dir_f938830485ea5fc932d9051b851477f4.html" target="_top" xlink:title="GUI">
<polygon fill="white" stroke="black" points="70,-196 16,-196 16,-160 70,-160 70,-196"/>
<text text-anchor="middle" x="43" y="-175.5" font-family="Helvetica,sans-Serif" font-size="10.00">GUI</text>
</a>
</g>
</g>
<!-- dir_f938830485ea5fc932d9051b851477f4&#45;&gt;dir_a7f531b1c37460085cedd304cb8df01d -->
<g id="edge2" class="edge">
<title>dir_f938830485ea5fc932d9051b851477f4&#45;&gt;dir_a7f531b1c37460085cedd304cb8df01d</title>
<path fill="none" stroke="black" d="M47.94,-159.7C50.17,-151.9 52.85,-142.51 55.33,-133.83"/>
<polygon fill="black" stroke="black" points="58.73,-134.68 58.11,-124.1 52,-132.76 58.73,-134.68"/>
<g id="a_edge2&#45;headlabel"><a xlink:href="dir_000006_000001.html" target="_top" xlink:title="1">
<text text-anchor="middle" x="60.47" y="-136.42" font-family="Helvetica,sans-Serif" font-size="10.00">1</text>
</a>
</g>
</g>
<!-- dir_f938830485ea5fc932d9051b851477f4&#45;&gt;dir_c17ed8a99c2aafc6034c524ffcf900dc -->
<g id="edge3" class="edge">
<title>dir_f938830485ea5fc932d9051b851477f4&#45;&gt;dir_c17ed8a99c2aafc6034c524ffcf900dc</title>
<path fill="none" stroke="black" d="M65.74,-159.7C77.44,-150.8 91.86,-139.82 104.51,-130.2"/>
<polygon fill="black" stroke="black" points="106.68,-132.94 112.52,-124.1 102.44,-127.37 106.68,-132.94"/>
<g id="a_edge3&#45;headlabel"><a xlink:href="dir_000006_000005.html" target="_top" xlink:title="3">
<text text-anchor="middle" x="105.54" y="-134.88" font-family="Helvetica,sans-Serif" font-size="10.00">3</text>
</a>
</g>
</g>
<!-- dir_f938830485ea5fc932d9051b851477f4&#45;&gt;dir_e8b0e4b61d28633961a5dcbc6cdc4fa4 -->
<g id="edge4" class="edge">
<title>dir_f938830485ea5fc932d9051b851477f4&#45;&gt;dir_e8b0e4b61d28633961a5dcbc6cdc4fa4</title>
<path fill="none" stroke="black" d="M33.78,-159.68C25.22,-141.04 15.38,-110.98 27,-88 34.7,-72.77 49.06,-60.85 62.94,-52.2"/>
<polygon fill="black" stroke="black" points="65.03,-55.04 71.92,-46.99 61.52,-48.98 65.03,-55.04"/>
<g id="a_edge4&#45;headlabel"><a xlink:href="dir_000006_000007.html" target="_top" xlink:title="3">
<text text-anchor="middle" x="63.35" y="-56.8" font-family="Helvetica,sans-Serif" font-size="10.00">3</text>
</a>
</g>
</g>
</g>
</svg>
