<?xml version="1.0" encoding="UTF-8" standalone="no"?>
<!DOCTYPE svg PUBLIC "-//W3C//DTD SVG 1.1//EN"
 "http://www.w3.org/Graphics/SVG/1.1/DTD/svg11.dtd">
<!-- Generated by graphviz version 2.47.0 (20210407.0042)
 -->
<!-- Title: include/EventHandler Pages: 1 -->
<svg width="114pt" height="239pt"
 viewBox="0.00 0.00 114.00 239.00" xmlns="http://www.w3.org/2000/svg" xmlns:xlink="http://www.w3.org/1999/xlink">
<g id="graph0" class="graph" transform="scale(1 1) rotate(0) translate(4 235)">
<title>include/EventHandler</title>
<polygon fill="white" stroke="transparent" points="-4,4 -4,-235 110,-235 110,4 -4,4"/>
<g id="clust1" class="cluster">
<title>clusterdir_d44c64559bbebec7f509842c48db8b23</title>
<g id="a_clust1"><a xlink:href="dir_d44c64559bbebec7f509842c48db8b23.html" target="_top" xlink:title="include">
<polygon fill="#ddddee" stroke="black" points="8,-8 8,-223 98,-223 98,-8 8,-8"/>
<text text-anchor="middle" x="53" y="-211" font-family="Helvetica,sans-Serif" font-size="10.00">include</text>
</a>
</g>
</g>
<!-- dir_c17ed8a99c2aafc6034c524ffcf900dc -->
<g id="node1" class="node">
<title>dir_c17ed8a99c2aafc6034c524ffcf900dc</title>
<g id="a_node1"><a xlink:href="dir_c17ed8a99c2aafc6034c524ffcf900dc.html" target="_top" xlink:title="graphics">
<polygon fill="none" stroke="black" points="80,-196 26,-196 26,-160 80,-160 80,-196"/>
<text text-anchor="middle" x="53" y="-175.5" font-family="Helvetica,sans-Serif" font-size="10.00">graphics</text>
</a>
</g>
</g>
<!-- dir_98b2bde0ea161cfb166c64ff72b1ebbd -->
<g id="node3" class="node">
<title>dir_98b2bde0ea161cfb166c64ff72b1ebbd</title>
<g id="a_node3"><a xlink:href="dir_98b2bde0ea161cfb166c64ff72b1ebbd.html" target="_top" xlink:title="EventHandler">
<polygon fill="#eeeeff" stroke="black" points="90.5,-124 15.5,-124 15.5,-88 90.5,-88 90.5,-124"/>
<text text-anchor="middle" x="53" y="-103.5" font-family="Helvetica,sans-Serif" font-size="10.00">EventHandler</text>
</a>
</g>
</g>
<!-- dir_c17ed8a99c2aafc6034c524ffcf900dc&#45;&gt;dir_98b2bde0ea161cfb166c64ff72b1ebbd -->
<g id="edge1" class="edge">
<title>dir_c17ed8a99c2aafc6034c524ffcf900dc&#45;&gt;dir_98b2bde0ea161cfb166c64ff72b1ebbd</title>
<path fill="none" stroke="black" d="M47.08,-159.7C46.29,-151.98 46.06,-142.71 46.4,-134.11"/>
<polygon fill="black" stroke="black" points="49.9,-134.32 47.1,-124.1 42.92,-133.84 49.9,-134.32"/>
<g id="a_edge1&#45;headlabel"><a xlink:href="dir_000005_000004.html" target="_top" xlink:title="1">
<text text-anchor="middle" x="52.48" y="-135.61" font-family="Helvetica,sans-Serif" font-size="10.00">1</text>
</a>
</g>
</g>
<!-- dir_e8b0e4b61d28633961a5dcbc6cdc4fa4 -->
<g id="node2" class="node">
<title>dir_e8b0e4b61d28633961a5dcbc6cdc4fa4</title>
<g id="a_node2"><a xlink:href="dir_e8b0e4b61d28633961a5dcbc6cdc4fa4.html" target="_top" xlink:title="Helpers">
<polygon fill="none" stroke="black" points="80,-52 26,-52 26,-16 80,-16 80,-52"/>
<text text-anchor="middle" x="53" y="-31.5" font-family="Helvetica,sans-Serif" font-size="10.00">Helpers</text>
</a>
</g>
</g>
<!-- dir_98b2bde0ea161cfb166c64ff72b1ebbd&#45;&gt;dir_c17ed8a99c2aafc6034c524ffcf900dc -->
<g id="edge2" class="edge">
<title>dir_98b2bde0ea161cfb166c64ff72b1ebbd&#45;&gt;dir_c17ed8a99c2aafc6034c524ffcf900dc</title>
<path fill="none" stroke="black" d="M58.9,-124.1C59.7,-131.79 59.94,-141.05 59.6,-149.67"/>
<polygon fill="black" stroke="black" points="56.11,-149.48 58.92,-159.7 63.09,-149.96 56.11,-149.48"/>
<g id="a_edge2&#45;headlabel"><a xlink:href="dir_000004_000005.html" target="_top" xlink:title="1">
<text text-anchor="middle" x="53.52" y="-143.2" font-family="Helvetica,sans-Serif" font-size="10.00">1</text>
</a>
</g>
</g>
<!-- dir_98b2bde0ea161cfb166c64ff72b1ebbd&#45;&gt;dir_e8b0e4b61d28633961a5dcbc6cdc4fa4 -->
<g id="edge3" class="edge">
<title>dir_98b2bde0ea161cfb166c64ff72b1ebbd&#45;&gt;dir_e8b0e4b61d28633961a5dcbc6cdc4fa4</title>
<path fill="none" stroke="black" d="M53,-87.7C53,-79.98 53,-70.71 53,-62.11"/>
<polygon fill="black" stroke="black" points="56.5,-62.1 53,-52.1 49.5,-62.1 56.5,-62.1"/>
<g id="a_edge3&#45;headlabel"><a xlink:href="dir_000004_000006.html" target="_top" xlink:title="1">
<text text-anchor="middle" x="59.34" y="-63.2" font-family="Helvetica,sans-Serif" font-size="10.00">1</text>
</a>
</g>
</g>
</g>
</svg>
