<?xml version="1.0" encoding="UTF-8" standalone="no"?>
<!DOCTYPE svg PUBLIC "-//W3C//DTD SVG 1.1//EN"
 "http://www.w3.org/Graphics/SVG/1.1/DTD/svg11.dtd">
<!-- Generated by graphviz version 2.47.0 (20210407.0042)
 -->
<!-- Title: include Pages: 1 -->
<svg width="259pt" height="148pt"
 viewBox="0.00 0.00 259.00 148.00" xmlns="http://www.w3.org/2000/svg" xmlns:xlink="http://www.w3.org/1999/xlink">
<g id="graph0" class="graph" transform="scale(1 1) rotate(0) translate(4 144)">
<title>include</title>
<polygon fill="white" stroke="transparent" points="-4,4 -4,-144 255,-144 255,4 -4,4"/>
<g id="clust1" class="cluster">
<title>clusterdir_d44c64559bbebec7f509842c48db8b23</title>
<g id="a_clust1"><a xlink:href="dir_d44c64559bbebec7f509842c48db8b23.html" target="_top">
<polygon fill="#eeeeff" stroke="black" points="8,-8 8,-132 243,-132 243,-8 8,-8"/>
</a>
</g>
</g>
<!-- dir_d44c64559bbebec7f509842c48db8b23 -->
<g id="node1" class="node">
<title>dir_d44c64559bbebec7f509842c48db8b23</title>
<text text-anchor="middle" x="208" y="-103.5" font-family="Helvetica,sans-Serif" font-size="10.00">include</text>
</g>
<!-- dir_a7f531b1c37460085cedd304cb8df01d -->
<g id="node2" class="node">
<title>dir_a7f531b1c37460085cedd304cb8df01d</title>
<g id="a_node2"><a xlink:href="dir_a7f531b1c37460085cedd304cb8df01d.html" target="_top" xlink:title="engine">
<polygon fill="white" stroke="red" points="163,-124 109,-124 109,-88 163,-88 163,-124"/>
<text text-anchor="middle" x="136" y="-103.5" font-family="Helvetica,sans-Serif" font-size="10.00">engine</text>
</a>
</g>
</g>
<!-- dir_e8b0e4b61d28633961a5dcbc6cdc4fa4 -->
<g id="node5" class="node">
<title>dir_e8b0e4b61d28633961a5dcbc6cdc4fa4</title>
<g id="a_node5"><a xlink:href="dir_e8b0e4b61d28633961a5dcbc6cdc4fa4.html" target="_top" xlink:title="Helpers">
<polygon fill="white" stroke="black" points="157,-52 103,-52 103,-16 157,-16 157,-52"/>
<text text-anchor="middle" x="130" y="-31.5" font-family="Helvetica,sans-Serif" font-size="10.00">Helpers</text>
</a>
</g>
</g>
<!-- dir_a7f531b1c37460085cedd304cb8df01d&#45;&gt;dir_e8b0e4b61d28633961a5dcbc6cdc4fa4 -->
<g id="edge1" class="edge">
<title>dir_a7f531b1c37460085cedd304cb8df01d&#45;&gt;dir_e8b0e4b61d28633961a5dcbc6cdc4fa4</title>
<path fill="none" stroke="black" d="M134.52,-87.7C133.86,-79.98 133.06,-70.71 132.32,-62.11"/>
<polygon fill="black" stroke="black" points="135.81,-61.77 131.47,-52.1 128.83,-62.37 135.81,-61.77"/>
<g id="a_edge1&#45;headlabel"><a xlink:href="dir_000001_000006.html" target="_top" xlink:title="3">
<text text-anchor="middle" x="138.94" y="-62.61" font-family="Helvetica,sans-Serif" font-size="10.00">3</text>
</a>
</g>
</g>
<!-- dir_98b2bde0ea161cfb166c64ff72b1ebbd -->
<g id="node3" class="node">
<title>dir_98b2bde0ea161cfb166c64ff72b1ebbd</title>
<g id="a_node3"><a xlink:href="dir_98b2bde0ea161cfb166c64ff72b1ebbd.html" target="_top" xlink:title="EventHandler">
<polygon fill="white" stroke="black" points="90.5,-124 15.5,-124 15.5,-88 90.5,-88 90.5,-124"/>
<text text-anchor="middle" x="53" y="-103.5" font-family="Helvetica,sans-Serif" font-size="10.00">EventHandler</text>
</a>
</g>
</g>
<!-- dir_c17ed8a99c2aafc6034c524ffcf900dc -->
<g id="node4" class="node">
<title>dir_c17ed8a99c2aafc6034c524ffcf900dc</title>
<g id="a_node4"><a xlink:href="dir_c17ed8a99c2aafc6034c524ffcf900dc.html" target="_top" xlink:title="graphics">
<polygon fill="white" stroke="black" points="80,-52 26,-52 26,-16 80,-16 80,-52"/>
<text text-anchor="middle" x="53" y="-31.5" font-family="Helvetica,sans-Serif" font-size="10.00">graphics</text>
</a>
</g>
</g>
<!-- dir_98b2bde0ea161cfb166c64ff72b1ebbd&#45;&gt;dir_c17ed8a99c2aafc6034c524ffcf900dc -->
<g id="edge3" class="edge">
<title>dir_98b2bde0ea161cfb166c64ff72b1ebbd&#45;&gt;dir_c17ed8a99c2aafc6034c524ffcf900dc</title>
<path fill="none" stroke="black" d="M47.08,-87.7C46.29,-79.98 46.06,-70.71 46.4,-62.11"/>
<polygon fill="black" stroke="black" points="49.9,-62.32 47.1,-52.1 42.92,-61.84 49.9,-62.32"/>
<g id="a_edge3&#45;headlabel"><a xlink:href="dir_000004_000005.html" target="_top" xlink:title="1">
<text text-anchor="middle" x="52.48" y="-63.61" font-family="Helvetica,sans-Serif" font-size="10.00">1</text>
</a>
</g>
</g>
<!-- dir_98b2bde0ea161cfb166c64ff72b1ebbd&#45;&gt;dir_e8b0e4b61d28633961a5dcbc6cdc4fa4 -->
<g id="edge4" class="edge">
<title>dir_98b2bde0ea161cfb166c64ff72b1ebbd&#45;&gt;dir_e8b0e4b61d28633961a5dcbc6cdc4fa4</title>
<path fill="none" stroke="black" d="M72.03,-87.7C81.54,-79.05 93.21,-68.45 103.57,-59.03"/>
<polygon fill="black" stroke="black" points="106.14,-61.42 111.19,-52.1 101.43,-56.24 106.14,-61.42"/>
<g id="a_edge4&#45;headlabel"><a xlink:href="dir_000004_000006.html" target="_top" xlink:title="1">
<text text-anchor="middle" x="105.39" y="-63.44" font-family="Helvetica,sans-Serif" font-size="10.00">1</text>
</a>
</g>
</g>
<!-- dir_c17ed8a99c2aafc6034c524ffcf900dc&#45;&gt;dir_98b2bde0ea161cfb166c64ff72b1ebbd -->
<g id="edge2" class="edge">
<title>dir_c17ed8a99c2aafc6034c524ffcf900dc&#45;&gt;dir_98b2bde0ea161cfb166c64ff72b1ebbd</title>
<path fill="none" stroke="black" d="M58.9,-52.1C59.7,-59.79 59.94,-69.05 59.6,-77.67"/>
<polygon fill="black" stroke="black" points="56.11,-77.48 58.92,-87.7 63.09,-77.96 56.11,-77.48"/>
<g id="a_edge2&#45;headlabel"><a xlink:href="dir_000005_000004.html" target="_top" xlink:title="1">
<text text-anchor="middle" x="53.52" y="-71.2" font-family="Helvetica,sans-Serif" font-size="10.00">1</text>
</a>
</g>
</g>
</g>
</svg>
