<?xml version="1.0" encoding="UTF-8" standalone="no"?>
<!DOCTYPE svg PUBLIC "-//W3C//DTD SVG 1.1//EN"
 "http://www.w3.org/Graphics/SVG/1.1/DTD/svg11.dtd">
<!-- Generated by graphviz version 2.47.1 (20210421.1823)
 -->
<!-- Title: include/EventHandler Pages: 1 -->
<svg width="134pt" height="239pt"
 viewBox="0.00 0.00 134.00 239.00" xmlns="http://www.w3.org/2000/svg" xmlns:xlink="http://www.w3.org/1999/xlink">
<g id="graph0" class="graph" transform="scale(1 1) rotate(0) translate(4 235)">
<title>include/EventHandler</title>
<polygon fill="white" stroke="transparent" points="-4,4 -4,-235 130,-235 130,4 -4,4"/>
<g id="clust1" class="cluster">
<title>clusterdir_d44c64559bbebec7f509842c48db8b23</title>
<g id="a_clust1"><a xlink:href="dir_d44c64559bbebec7f509842c48db8b23.html" target="_top" xlink:title="include">
<polygon fill="#ddddee" stroke="black" points="8,-8 8,-223 118,-223 118,-8 8,-8"/>
<text text-anchor="middle" x="63" y="-211" font-family="Helvetica,sans-Serif" font-size="10.00">include</text>
</a>
</g>
</g>
<!-- dir_c17ed8a99c2aafc6034c524ffcf900dc -->
<g id="node1" class="node">
<title>dir_c17ed8a99c2aafc6034c524ffcf900dc</title>
<g id="a_node1"><a xlink:href="dir_c17ed8a99c2aafc6034c524ffcf900dc.html" target="_top" xlink:title="graphics">
<polygon fill="none" stroke="black" points="100,-196 46,-196 46,-160 100,-160 100,-196"/>
<text text-anchor="middle" x="73" y="-175.5" font-family="Helvetica,sans-Serif" font-size="10.00">graphics</text>
</a>
</g>
</g>
<!-- dir_e8b0e4b61d28633961a5dcbc6cdc4fa4 -->
<g id="node2" class="node">
<title>dir_e8b0e4b61d28633961a5dcbc6cdc4fa4</title>
<g id="a_node2"><a xlink:href="dir_e8b0e4b61d28633961a5dcbc6cdc4fa4.html" target="_top" xlink:title="Helpers">
<polygon fill="none" stroke="black" points="85,-52 31,-52 31,-16 85,-16 85,-52"/>
<text text-anchor="middle" x="58" y="-31.5" font-family="Helvetica,sans-Serif" font-size="10.00">Helpers</text>
</a>
</g>
</g>
<!-- dir_c17ed8a99c2aafc6034c524ffcf900dc&#45;&gt;dir_e8b0e4b61d28633961a5dcbc6cdc4fa4 -->
<g id="edge2" class="edge">
<title>dir_c17ed8a99c2aafc6034c524ffcf900dc&#45;&gt;dir_e8b0e4b61d28633961a5dcbc6cdc4fa4</title>
<path fill="none" stroke="black" d="M52.18,-159.62C42.54,-150.2 32.11,-137.7 27,-124 21.4,-109.01 22.82,-103.44 27,-88 29.58,-78.48 34.34,-68.92 39.38,-60.59"/>
<polygon fill="black" stroke="black" points="42.38,-62.39 44.85,-52.09 36.49,-58.6 42.38,-62.39"/>
<g id="a_edge2&#45;headlabel"><a xlink:href="dir_000005_000007.html" target="_top" xlink:title="1">
<text text-anchor="middle" x="42.82" y="-64.45" font-family="Helvetica,sans-Serif" font-size="10.00">1</text>
</a>
</g>
</g>
<!-- dir_98b2bde0ea161cfb166c64ff72b1ebbd -->
<g id="node3" class="node">
<title>dir_98b2bde0ea161cfb166c64ff72b1ebbd</title>
<g id="a_node3"><a xlink:href="dir_98b2bde0ea161cfb166c64ff72b1ebbd.html" target="_top" xlink:title="EventHandler">
<polygon fill="#eeeeff" stroke="black" points="110.5,-124 35.5,-124 35.5,-88 110.5,-88 110.5,-124"/>
<text text-anchor="middle" x="73" y="-103.5" font-family="Helvetica,sans-Serif" font-size="10.00">EventHandler</text>
</a>
</g>
</g>
<!-- dir_c17ed8a99c2aafc6034c524ffcf900dc&#45;&gt;dir_98b2bde0ea161cfb166c64ff72b1ebbd -->
<g id="edge1" class="edge">
<title>dir_c17ed8a99c2aafc6034c524ffcf900dc&#45;&gt;dir_98b2bde0ea161cfb166c64ff72b1ebbd</title>
<path fill="none" stroke="black" d="M67.08,-159.7C66.29,-151.98 66.06,-142.71 66.4,-134.11"/>
<polygon fill="black" stroke="black" points="69.9,-134.32 67.1,-124.1 62.92,-133.84 69.9,-134.32"/>
<g id="a_edge1&#45;headlabel"><a xlink:href="dir_000005_000004.html" target="_top" xlink:title="1">
<text text-anchor="middle" x="72.48" y="-135.61" font-family="Helvetica,sans-Serif" font-size="10.00">1</text>
</a>
</g>
</g>
<!-- dir_98b2bde0ea161cfb166c64ff72b1ebbd&#45;&gt;dir_c17ed8a99c2aafc6034c524ffcf900dc -->
<g id="edge3" class="edge">
<title>dir_98b2bde0ea161cfb166c64ff72b1ebbd&#45;&gt;dir_c17ed8a99c2aafc6034c524ffcf900dc</title>
<path fill="none" stroke="black" d="M78.9,-124.1C79.7,-131.79 79.94,-141.05 79.6,-149.67"/>
<polygon fill="black" stroke="black" points="76.11,-149.48 78.92,-159.7 83.09,-149.96 76.11,-149.48"/>
<g id="a_edge3&#45;headlabel"><a xlink:href="dir_000004_000005.html" target="_top" xlink:title="1">
<text text-anchor="middle" x="73.52" y="-143.2" font-family="Helvetica,sans-Serif" font-size="10.00">1</text>
</a>
</g>
</g>
<!-- dir_98b2bde0ea161cfb166c64ff72b1ebbd&#45;&gt;dir_e8b0e4b61d28633961a5dcbc6cdc4fa4 -->
<g id="edge4" class="edge">
<title>dir_98b2bde0ea161cfb166c64ff72b1ebbd&#45;&gt;dir_e8b0e4b61d28633961a5dcbc6cdc4fa4</title>
<path fill="none" stroke="black" d="M69.29,-87.7C67.64,-79.98 65.65,-70.71 63.81,-62.11"/>
<polygon fill="black" stroke="black" points="67.18,-61.15 61.67,-52.1 60.34,-62.62 67.18,-61.15"/>
<g id="a_edge4&#45;headlabel"><a xlink:href="dir_000004_000007.html" target="_top" xlink:title="1">
<text text-anchor="middle" x="70.71" y="-61.57" font-family="Helvetica,sans-Serif" font-size="10.00">1</text>
</a>
</g>
</g>
</g>
</svg>
