<?xml version="1.0" encoding="UTF-8" standalone="no"?>
<!DOCTYPE svg PUBLIC "-//W3C//DTD SVG 1.1//EN"
 "http://www.w3.org/Graphics/SVG/1.1/DTD/svg11.dtd">
<!-- Generated by graphviz version 2.47.0 (20210407.0042)
 -->
<!-- Title: Graphical Class Hierarchy Pages: 1 -->
<svg width="277pt" height="289pt"
 viewBox="0.00 0.00 277.00 289.00" xmlns="http://www.w3.org/2000/svg" xmlns:xlink="http://www.w3.org/1999/xlink">
<g id="graph0" class="graph" transform="scale(1 1) rotate(0) translate(4 285)">
<title>Graphical Class Hierarchy</title>
<polygon fill="white" stroke="transparent" points="-4,4 -4,-285 273,-285 273,4 -4,4"/>
<!-- Node0 -->
<g id="node1" class="node">
<title>Node0</title>
<g id="a_node1"><a xlink:href="class_drawable.html" target="_top" xlink:title=" ">
<polygon fill="white" stroke="black" points="0,-147.5 0,-166.5 57,-166.5 57,-147.5 0,-147.5"/>
<text text-anchor="middle" x="28.5" y="-154.5" font-family="Helvetica,sans-Serif" font-size="10.00">Drawable</text>
</a>
</g>
</g>
<!-- Node1 -->
<g id="node2" class="node">
<title>Node1</title>
<g id="a_node2"><a xlink:href="class_building.html" target="_top" xlink:title=" ">
<polygon fill="white" stroke="black" points="100,-185.5 100,-204.5 151,-204.5 151,-185.5 100,-185.5"/>
<text text-anchor="middle" x="125.5" y="-192.5" font-family="Helvetica,sans-Serif" font-size="10.00">Building</text>
</a>
</g>
</g>
<!-- Node0&#45;&gt;Node1 -->
<g id="edge1" class="edge">
<title>Node0&#45;&gt;Node1</title>
<path fill="none" stroke="midnightblue" d="M63.03,-170.41C75.41,-175.36 89.17,-180.87 100.54,-185.41"/>
<polygon fill="midnightblue" stroke="midnightblue" points="64.06,-167.05 53.47,-166.59 61.46,-173.55 64.06,-167.05"/>
</g>
<!-- Node2 -->
<g id="node3" class="node">
<title>Node2</title>
<g id="a_node3"><a xlink:href="class_cell.html" target="_top" xlink:title=" ">
<polygon fill="white" stroke="black" points="109,-223.5 109,-242.5 142,-242.5 142,-223.5 109,-223.5"/>
<text text-anchor="middle" x="125.5" y="-230.5" font-family="Helvetica,sans-Serif" font-size="10.00">Cell</text>
</a>
</g>
</g>
<!-- Node0&#45;&gt;Node2 -->
<g id="edge2" class="edge">
<title>Node0&#45;&gt;Node2</title>
<path fill="none" stroke="midnightblue" d="M46.67,-174.04C59.04,-185.9 76.39,-201.71 93,-214 97.93,-217.65 103.59,-221.23 108.74,-224.29"/>
<polygon fill="midnightblue" stroke="midnightblue" points="48.94,-171.36 39.33,-166.9 44.06,-176.38 48.94,-171.36"/>
</g>
<!-- Node3 -->
<g id="node4" class="node">
<title>Node3</title>
<g id="a_node4"><a xlink:href="class_ground.html" target="_top" xlink:title=" ">
<polygon fill="white" stroke="black" points="101.5,-71.5 101.5,-90.5 149.5,-90.5 149.5,-71.5 101.5,-71.5"/>
<text text-anchor="middle" x="125.5" y="-78.5" font-family="Helvetica,sans-Serif" font-size="10.00">Ground</text>
</a>
</g>
</g>
<!-- Node0&#45;&gt;Node3 -->
<g id="edge3" class="edge">
<title>Node0&#45;&gt;Node3</title>
<path fill="none" stroke="midnightblue" d="M49.02,-140.72C61.51,-130.38 78.1,-116.77 93,-105 99.04,-100.23 105.83,-95.04 111.55,-90.71"/>
<polygon fill="midnightblue" stroke="midnightblue" points="46.56,-138.21 41.1,-147.29 51.03,-143.6 46.56,-138.21"/>
</g>
<!-- Node8 -->
<g id="node9" class="node">
<title>Node8</title>
<g id="a_node9"><a xlink:href="class_player.html" target="_top" xlink:title=" ">
<polygon fill="white" stroke="black" points="209.5,-171.5 209.5,-190.5 253.5,-190.5 253.5,-171.5 209.5,-171.5"/>
<text text-anchor="middle" x="231.5" y="-178.5" font-family="Helvetica,sans-Serif" font-size="10.00">Player</text>
</a>
</g>
</g>
<!-- Node0&#45;&gt;Node8 -->
<g id="edge8" class="edge">
<title>Node0&#45;&gt;Node8</title>
<path fill="none" stroke="midnightblue" d="M66.98,-146.12C92.86,-140.25 127.89,-135.59 158,-143 180.22,-148.47 203.16,-162.09 217.14,-171.44"/>
<polygon fill="midnightblue" stroke="midnightblue" points="66.08,-142.74 57.19,-148.49 67.73,-149.54 66.08,-142.74"/>
</g>
<!-- Node9 -->
<g id="node10" class="node">
<title>Node9</title>
<g id="a_node10"><a xlink:href="class_unit.html" target="_top" xlink:title=" ">
<polygon fill="white" stroke="black" points="214,-218.5 214,-237.5 249,-237.5 249,-218.5 214,-218.5"/>
<text text-anchor="middle" x="231.5" y="-225.5" font-family="Helvetica,sans-Serif" font-size="10.00">Unit</text>
</a>
</g>
</g>
<!-- Node0&#45;&gt;Node9 -->
<g id="edge9" class="edge">
<title>Node0&#45;&gt;Node9</title>
<path fill="none" stroke="midnightblue" d="M67.35,-157.92C93.62,-159.66 128.97,-164.25 158,-176 164.57,-178.66 198.79,-204.09 217.78,-218.37"/>
<polygon fill="midnightblue" stroke="midnightblue" points="67.23,-154.4 57.05,-157.35 66.85,-161.39 67.23,-154.4"/>
</g>
<!-- Node4 -->
<g id="node5" class="node">
<title>Node4</title>
<g id="a_node5"><a xlink:href="class_ground_earth.html" target="_top" xlink:title=" ">
<polygon fill="white" stroke="black" points="196,-38.5 196,-57.5 267,-57.5 267,-38.5 196,-38.5"/>
<text text-anchor="middle" x="231.5" y="-45.5" font-family="Helvetica,sans-Serif" font-size="10.00">GroundEarth</text>
</a>
</g>
</g>
<!-- Node3&#45;&gt;Node4 -->
<g id="edge4" class="edge">
<title>Node3&#45;&gt;Node4</title>
<path fill="none" stroke="midnightblue" d="M159.21,-70.62C172.38,-66.44 187.47,-61.65 200.37,-57.56"/>
<polygon fill="midnightblue" stroke="midnightblue" points="158.05,-67.32 149.58,-73.68 160.17,-73.99 158.05,-67.32"/>
</g>
<!-- Node5 -->
<g id="node6" class="node">
<title>Node5</title>
<g id="a_node6"><a xlink:href="class_ground_empty.html" target="_top" xlink:title=" ">
<polygon fill="white" stroke="black" points="194,-0.5 194,-19.5 269,-19.5 269,-0.5 194,-0.5"/>
<text text-anchor="middle" x="231.5" y="-7.5" font-family="Helvetica,sans-Serif" font-size="10.00">GroundEmpty</text>
</a>
</g>
</g>
<!-- Node3&#45;&gt;Node5 -->
<g id="edge5" class="edge">
<title>Node3&#45;&gt;Node5</title>
<path fill="none" stroke="midnightblue" d="M145.86,-64.61C159.01,-53.86 177.02,-39.84 194,-29 199.18,-25.69 205,-22.47 210.44,-19.63"/>
<polygon fill="midnightblue" stroke="midnightblue" points="143.45,-62.06 137.99,-71.14 147.92,-67.45 143.45,-62.06"/>
</g>
<!-- Node6 -->
<g id="node7" class="node">
<title>Node6</title>
<g id="a_node7"><a xlink:href="class_ground_water.html" target="_top" xlink:title=" ">
<polygon fill="white" stroke="black" points="194.5,-114.5 194.5,-133.5 268.5,-133.5 268.5,-114.5 194.5,-114.5"/>
<text text-anchor="middle" x="231.5" y="-121.5" font-family="Helvetica,sans-Serif" font-size="10.00">GroundWater</text>
</a>
</g>
</g>
<!-- Node3&#45;&gt;Node6 -->
<g id="edge6" class="edge">
<title>Node3&#45;&gt;Node6</title>
<path fill="none" stroke="midnightblue" d="M158.96,-94.42C174.69,-100.93 193.22,-108.59 207.48,-114.48"/>
<polygon fill="midnightblue" stroke="midnightblue" points="160.16,-91.13 149.58,-90.54 157.48,-97.6 160.16,-91.13"/>
</g>
<!-- Node7 -->
<g id="node8" class="node">
<title>Node7</title>
<g id="a_node8"><a xlink:href="class_mineral.html" target="_top" xlink:title=" ">
<polygon fill="white" stroke="black" points="207.5,-76.5 207.5,-95.5 255.5,-95.5 255.5,-76.5 207.5,-76.5"/>
<text text-anchor="middle" x="231.5" y="-83.5" font-family="Helvetica,sans-Serif" font-size="10.00">Mineral</text>
</a>
</g>
</g>
<!-- Node3&#45;&gt;Node7 -->
<g id="edge7" class="edge">
<title>Node3&#45;&gt;Node7</title>
<path fill="none" stroke="midnightblue" d="M159.85,-82.6C175.39,-83.35 193.49,-84.22 207.48,-84.89"/>
<polygon fill="midnightblue" stroke="midnightblue" points="159.74,-79.09 149.58,-82.11 159.4,-86.09 159.74,-79.09"/>
</g>
<!-- Node21 -->
<g id="node11" class="node">
<title>Node21</title>
<g id="a_node11"><a xlink:href="class_tickable.html" target="_top" xlink:title=" ">
<polygon fill="white" stroke="black" points="2,-204.5 2,-223.5 55,-223.5 55,-204.5 2,-204.5"/>
<text text-anchor="middle" x="28.5" y="-211.5" font-family="Helvetica,sans-Serif" font-size="10.00">Tickable</text>
</a>
</g>
</g>
<!-- Node21&#45;&gt;Node1 -->
<g id="edge10" class="edge">
<title>Node21&#45;&gt;Node1</title>
<path fill="none" stroke="midnightblue" d="M65.27,-206.85C76.81,-204.54 89.33,-202.03 99.88,-199.92"/>
<polygon fill="midnightblue" stroke="midnightblue" points="64.58,-203.41 55.46,-208.81 65.95,-210.28 64.58,-203.41"/>
</g>
<!-- Node21&#45;&gt;Node2 -->
<g id="edge11" class="edge">
<title>Node21&#45;&gt;Node2</title>
<path fill="none" stroke="midnightblue" d="M65.52,-221.2C80.55,-224.21 97.2,-227.54 108.97,-229.89"/>
<polygon fill="midnightblue" stroke="midnightblue" points="65.95,-217.72 55.46,-219.19 64.58,-224.59 65.95,-217.72"/>
</g>
<!-- Node21&#45;&gt;Node3 -->
<g id="edge12" class="edge">
<title>Node21&#45;&gt;Node3</title>
<path fill="none" stroke="midnightblue" d="M42.67,-195.87C47.22,-189.59 52.34,-182.49 57,-176 79.28,-144.92 105.46,-107.95 117.63,-90.73"/>
<polygon fill="midnightblue" stroke="midnightblue" points="39.57,-194.18 36.53,-204.33 45.24,-198.29 39.57,-194.18"/>
</g>
<!-- Node22 -->
<g id="node12" class="node">
<title>Node22</title>
<g id="a_node12"><a xlink:href="class_world_actor.html" target="_top" xlink:title=" ">
<polygon fill="white" stroke="black" points="93,-261.5 93,-280.5 158,-280.5 158,-261.5 93,-261.5"/>
<text text-anchor="middle" x="125.5" y="-268.5" font-family="Helvetica,sans-Serif" font-size="10.00">WorldActor</text>
</a>
</g>
</g>
<!-- Node21&#45;&gt;Node22 -->
<g id="edge13" class="edge">
<title>Node21&#45;&gt;Node22</title>
<path fill="none" stroke="#8b1a1a" d="M54.53,-229.02C71.67,-239.3 93.87,-252.62 108.62,-261.47"/>
<polygon fill="#8b1a1a" stroke="#8b1a1a" points="55.99,-225.81 45.62,-223.67 52.39,-231.82 55.99,-225.81"/>
</g>
<!-- Node22&#45;&gt;Node8 -->
<g id="edge14" class="edge">
<title>Node22&#45;&gt;Node8</title>
<path fill="none" stroke="midnightblue" d="M153.28,-255.72C154.92,-254.52 156.51,-253.28 158,-252 176.93,-235.79 176,-226.24 194,-209 200.92,-202.37 209.37,-195.8 216.4,-190.7"/>
<polygon fill="midnightblue" stroke="midnightblue" points="151.25,-252.87 144.86,-261.32 155.13,-258.7 151.25,-252.87"/>
</g>
<!-- Node22&#45;&gt;Node9 -->
<g id="edge15" class="edge">
<title>Node22&#45;&gt;Node9</title>
<path fill="none" stroke="midnightblue" d="M158.99,-257.57C177.23,-250.03 199.21,-240.94 213.95,-234.84"/>
<polygon fill="midnightblue" stroke="midnightblue" points="157.48,-254.4 149.58,-261.46 160.16,-260.87 157.48,-254.4"/>
</g>
<!-- Node23 -->
<g id="node13" class="node">
<title>Node23</title>
<g id="a_node13"><a xlink:href="class_unit_group.html" target="_top" xlink:title=" ">
<polygon fill="white" stroke="black" points="201,-261.5 201,-280.5 262,-280.5 262,-261.5 201,-261.5"/>
<text text-anchor="middle" x="231.5" y="-268.5" font-family="Helvetica,sans-Serif" font-size="10.00">UnitGroup</text>
</a>
</g>
</g>
<!-- Node22&#45;&gt;Node23 -->
<g id="edge16" class="edge">
<title>Node22&#45;&gt;Node23</title>
<path fill="none" stroke="midnightblue" d="M168.39,-271C179.21,-271 190.64,-271 200.7,-271"/>
<polygon fill="midnightblue" stroke="midnightblue" points="168.27,-267.5 158.27,-271 168.27,-274.5 168.27,-267.5"/>
</g>
</g>
</svg>
