<?xml version="1.0" encoding="UTF-8" standalone="no"?>
<!DOCTYPE svg PUBLIC "-//W3C//DTD SVG 1.1//EN"
 "http://www.w3.org/Graphics/SVG/1.1/DTD/svg11.dtd">
<!-- Generated by graphviz version 2.47.0 (20210407.0042)
 -->
<!-- Title: Graphical Class Hierarchy Pages: 1 -->
<svg width="215pt" height="66pt"
 viewBox="0.00 0.00 215.00 66.00" xmlns="http://www.w3.org/2000/svg" xmlns:xlink="http://www.w3.org/1999/xlink">
<g id="graph0" class="graph" transform="scale(1 1) rotate(0) translate(4 62)">
<title>Graphical Class Hierarchy</title>
<polygon fill="white" stroke="transparent" points="-4,4 -4,-62 211,-62 211,4 -4,4"/>
<!-- Node0 -->
<g id="node1" class="node">
<title>Node0</title>
<g id="a_node1"><a xlink:href="class_g_u_i_1_1_g_u_i_window.html" target="_top" xlink:title=" ">
<polygon fill="white" stroke="black" points="0,-19.5 0,-38.5 92,-38.5 92,-19.5 0,-19.5"/>
<text text-anchor="middle" x="46" y="-26.5" font-family="Helvetica,sans-Serif" font-size="10.00">GUI::GUIWindow</text>
</a>
</g>
</g>
<!-- Node1 -->
<g id="node2" class="node">
<title>Node1</title>
<g id="a_node2"><a xlink:href="class_g_u_i_1_1_inventory.html" target="_top" xlink:title=" ">
<polygon fill="white" stroke="black" points="128,-38.5 128,-57.5 207,-57.5 207,-38.5 128,-38.5"/>
<text text-anchor="middle" x="167.5" y="-45.5" font-family="Helvetica,sans-Serif" font-size="10.00">GUI::Inventory</text>
</a>
</g>
</g>
<!-- Node0&#45;&gt;Node1 -->
<g id="edge1" class="edge">
<title>Node0&#45;&gt;Node1</title>
<path fill="none" stroke="midnightblue" d="M102.25,-37.78C110.92,-39.16 119.71,-40.56 127.9,-41.86"/>
<polygon fill="midnightblue" stroke="midnightblue" points="102.6,-34.3 92.18,-36.18 101.5,-41.21 102.6,-34.3"/>
</g>
<!-- Node2 -->
<g id="node3" class="node">
<title>Node2</title>
<g id="a_node3"><a xlink:href="class_g_u_i_1_1_item.html" target="_top" xlink:title=" ">
<polygon fill="white" stroke="black" points="138,-0.5 138,-19.5 197,-19.5 197,-0.5 138,-0.5"/>
<text text-anchor="middle" x="167.5" y="-7.5" font-family="Helvetica,sans-Serif" font-size="10.00">GUI::Item</text>
</a>
</g>
</g>
<!-- Node0&#45;&gt;Node2 -->
<g id="edge2" class="edge">
<title>Node0&#45;&gt;Node2</title>
<path fill="none" stroke="midnightblue" d="M102.39,-20.19C114.67,-18.24 127.2,-16.25 137.89,-14.55"/>
<polygon fill="midnightblue" stroke="midnightblue" points="101.5,-16.79 92.18,-21.82 102.6,-23.7 101.5,-16.79"/>
</g>
</g>
</svg>
