<?xml version="1.0" encoding="UTF-8" standalone="no"?>
<!DOCTYPE svg PUBLIC "-//W3C//DTD SVG 1.1//EN"
 "http://www.w3.org/Graphics/SVG/1.1/DTD/svg11.dtd">
<!-- Generated by graphviz version 2.47.0 (20210407.0042)
 -->
<!-- Title: src/main.cpp Pages: 1 -->
<svg width="1628pt" height="655pt"
 viewBox="0.00 0.00 1628.45 655.00" xmlns="http://www.w3.org/2000/svg" xmlns:xlink="http://www.w3.org/1999/xlink">
<g id="graph0" class="graph" transform="scale(1 1) rotate(0) translate(4 651)">
<title>src/main.cpp</title>
<polygon fill="white" stroke="transparent" points="-4,4 -4,-651 1624.45,-651 1624.45,4 -4,4"/>
<!-- Node1 -->
<g id="node1" class="node">
<title>Node1</title>
<g id="a_node1"><a xlink:title=" ">
<polygon fill="#bfbfbf" stroke="black" points="927,-627.5 927,-646.5 999,-646.5 999,-627.5 927,-627.5"/>
<text text-anchor="middle" x="963" y="-634.5" font-family="Helvetica,sans-Serif" font-size="10.00">src/main.cpp</text>
</a>
</g>
</g>
<!-- Node2 -->
<g id="node2" class="node">
<title>Node2</title>
<g id="a_node2"><a xlink:title=" ">
<polygon fill="white" stroke="#bfbfbf" points="546,-571.5 546,-590.5 600,-590.5 600,-571.5 546,-571.5"/>
<text text-anchor="middle" x="573" y="-578.5" font-family="Helvetica,sans-Serif" font-size="10.00">iostream</text>
</a>
</g>
</g>
<!-- Node1&#45;&gt;Node2 -->
<g id="edge1" class="edge">
<title>Node1&#45;&gt;Node2</title>
<path fill="none" stroke="midnightblue" d="M926.92,-632.4C863.41,-625.84 727.61,-610.75 614,-591 612.75,-590.78 611.48,-590.55 610.19,-590.31"/>
<polygon fill="midnightblue" stroke="midnightblue" points="610.77,-586.86 600.28,-588.34 609.4,-593.72 610.77,-586.86"/>
</g>
<!-- Node3 -->
<g id="node3" class="node">
<title>Node3</title>
<g id="a_node3"><a xlink:href="_engine_8hpp.html" target="_top" xlink:title=" ">
<polygon fill="white" stroke="black" points="826,-571.5 826,-590.5 890,-590.5 890,-571.5 826,-571.5"/>
<text text-anchor="middle" x="858" y="-578.5" font-family="Helvetica,sans-Serif" font-size="10.00">Engine.hpp</text>
</a>
</g>
</g>
<!-- Node1&#45;&gt;Node3 -->
<g id="edge2" class="edge">
<title>Node1&#45;&gt;Node3</title>
<path fill="none" stroke="midnightblue" d="M946.13,-627.32C929.29,-618.66 903.19,-605.24 883.76,-595.25"/>
<polygon fill="midnightblue" stroke="midnightblue" points="885.32,-592.12 874.83,-590.65 882.12,-598.34 885.32,-592.12"/>
</g>
<!-- Node21 -->
<g id="node21" class="node">
<title>Node21</title>
<g id="a_node21"><a xlink:href="_sprites_manager_8hpp.html" target="_top" xlink:title=" ">
<polygon fill="white" stroke="black" points="329.5,-347.5 329.5,-366.5 432.5,-366.5 432.5,-347.5 329.5,-347.5"/>
<text text-anchor="middle" x="381" y="-354.5" font-family="Helvetica,sans-Serif" font-size="10.00">SpritesManager.hpp</text>
</a>
</g>
</g>
<!-- Node1&#45;&gt;Node21 -->
<g id="edge28" class="edge">
<title>Node1&#45;&gt;Node21</title>
<path fill="none" stroke="midnightblue" d="M926.83,-631.92C840.21,-621.14 628,-588.36 628,-526 628,-526 628,-526 628,-468 628,-387.08 515.99,-365.26 442.83,-359.64"/>
<polygon fill="midnightblue" stroke="midnightblue" points="443,-356.14 432.78,-358.95 442.52,-363.13 443,-356.14"/>
</g>
<!-- Node26 -->
<g id="node26" class="node">
<title>Node26</title>
<g id="a_node26"><a xlink:href="_resource_manager_8hpp.html" target="_top" xlink:title=" ">
<polygon fill="white" stroke="black" points="1221.5,-286 1221.5,-305 1374.5,-305 1374.5,-286 1221.5,-286"/>
<text text-anchor="middle" x="1298" y="-293" font-family="Helvetica,sans-Serif" font-size="10.00">graphics/ResourceManager.hpp</text>
</a>
</g>
</g>
<!-- Node1&#45;&gt;Node26 -->
<g id="edge38" class="edge">
<title>Node1&#45;&gt;Node26</title>
<path fill="none" stroke="midnightblue" d="M999.1,-630.24C1077.22,-616.75 1255,-580.1 1255,-526 1255,-526 1255,-526 1255,-412 1255,-375.26 1274.34,-335.85 1287.08,-313.87"/>
<polygon fill="midnightblue" stroke="midnightblue" points="1290.22,-315.45 1292.38,-305.08 1284.22,-311.84 1290.22,-315.45"/>
</g>
<!-- Node38 -->
<g id="node38" class="node">
<title>Node38</title>
<g id="a_node38"><a xlink:href="_timer_8hpp.html" target="_top" xlink:title=" ">
<polygon fill="white" stroke="black" points="1283.5,-571.5 1283.5,-590.5 1342.5,-590.5 1342.5,-571.5 1283.5,-571.5"/>
<text text-anchor="middle" x="1313" y="-578.5" font-family="Helvetica,sans-Serif" font-size="10.00">Timer.hpp</text>
</a>
</g>
</g>
<!-- Node1&#45;&gt;Node38 -->
<g id="edge62" class="edge">
<title>Node1&#45;&gt;Node38</title>
<path fill="none" stroke="midnightblue" d="M999.38,-631.32C1056.81,-623.78 1171.95,-608.05 1269,-591 1270.44,-590.75 1271.9,-590.48 1273.38,-590.21"/>
<polygon fill="midnightblue" stroke="midnightblue" points="1274.06,-593.64 1283.22,-588.33 1272.74,-586.77 1274.06,-593.64"/>
</g>
<!-- Node40 -->
<g id="node40" class="node">
<title>Node40</title>
<g id="a_node40"><a xlink:href="_g_u_i_manager_8hpp.html" target="_top" xlink:title=" ">
<polygon fill="white" stroke="black" points="907.5,-286 907.5,-305 1018.5,-305 1018.5,-286 907.5,-286"/>
<text text-anchor="middle" x="963" y="-293" font-family="Helvetica,sans-Serif" font-size="10.00">GUI/GUIManager.hpp</text>
</a>
</g>
</g>
<!-- Node1&#45;&gt;Node40 -->
<g id="edge64" class="edge">
<title>Node1&#45;&gt;Node40</title>
<path fill="none" stroke="midnightblue" d="M963,-627.44C963,-608.94 963,-563.81 963,-526 963,-526 963,-526 963,-412 963,-377.86 963,-338.05 963,-315.21"/>
<polygon fill="midnightblue" stroke="midnightblue" points="966.5,-315.19 963,-305.19 959.5,-315.19 966.5,-315.19"/>
</g>
<!-- Node42 -->
<g id="node42" class="node">
<title>Node42</title>
<g id="a_node42"><a xlink:href="_inventory_8hpp.html" target="_top" xlink:title=" ">
<polygon fill="white" stroke="black" points="1065.5,-403.5 1065.5,-422.5 1160.5,-422.5 1160.5,-403.5 1065.5,-403.5"/>
<text text-anchor="middle" x="1113" y="-410.5" font-family="Helvetica,sans-Serif" font-size="10.00">GUI/Inventory.hpp</text>
</a>
</g>
</g>
<!-- Node1&#45;&gt;Node42 -->
<g id="edge71" class="edge">
<title>Node1&#45;&gt;Node42</title>
<path fill="none" stroke="midnightblue" d="M968.88,-627.3C991.23,-594.22 1071.17,-475.91 1101.35,-431.24"/>
<polygon fill="midnightblue" stroke="midnightblue" points="1104.3,-433.13 1107,-422.88 1098.5,-429.21 1104.3,-433.13"/>
</g>
<!-- Node4 -->
<g id="node4" class="node">
<title>Node4</title>
<g id="a_node4"><a xlink:href="_player_8hpp.html" target="_top" xlink:title=" ">
<polygon fill="white" stroke="black" points="672,-459.5 672,-478.5 800,-478.5 800,-459.5 672,-459.5"/>
<text text-anchor="middle" x="736" y="-466.5" font-family="Helvetica,sans-Serif" font-size="10.00">engine/objects/Player.hpp</text>
</a>
</g>
</g>
<!-- Node3&#45;&gt;Node4 -->
<g id="edge3" class="edge">
<title>Node3&#45;&gt;Node4</title>
<path fill="none" stroke="midnightblue" d="M835.47,-571.42C817.76,-563.85 793.29,-551.45 776,-535 761.79,-521.48 750.63,-501.85 743.76,-487.71"/>
<polygon fill="midnightblue" stroke="midnightblue" points="746.89,-486.15 739.52,-478.54 740.54,-489.09 746.89,-486.15"/>
</g>
<!-- Node18 -->
<g id="node18" class="node">
<title>Node18</title>
<g id="a_node18"><a xlink:href="_unit_group_8hpp.html" target="_top" xlink:title=" ">
<polygon fill="white" stroke="black" points="785.5,-515.5 785.5,-534.5 930.5,-534.5 930.5,-515.5 785.5,-515.5"/>
<text text-anchor="middle" x="858" y="-522.5" font-family="Helvetica,sans-Serif" font-size="10.00">engine/objects/UnitGroup.hpp</text>
</a>
</g>
</g>
<!-- Node3&#45;&gt;Node18 -->
<g id="edge24" class="edge">
<title>Node3&#45;&gt;Node18</title>
<path fill="none" stroke="midnightblue" d="M858,-571.08C858,-564.01 858,-553.86 858,-544.99"/>
<polygon fill="midnightblue" stroke="midnightblue" points="861.5,-544.75 858,-534.75 854.5,-544.75 861.5,-544.75"/>
</g>
<!-- Node5 -->
<g id="node5" class="node">
<title>Node5</title>
<g id="a_node5"><a xlink:href="_drawable_8hpp.html" target="_top" xlink:title=" ">
<polygon fill="white" stroke="black" points="571.5,-168.5 571.5,-187.5 678.5,-187.5 678.5,-168.5 571.5,-168.5"/>
<text text-anchor="middle" x="625" y="-175.5" font-family="Helvetica,sans-Serif" font-size="10.00">engine/Drawable.hpp</text>
</a>
</g>
</g>
<!-- Node4&#45;&gt;Node5 -->
<g id="edge4" class="edge">
<title>Node4&#45;&gt;Node5</title>
<path fill="none" stroke="midnightblue" d="M725.67,-459.5C706.2,-442.44 666,-401.91 666,-358 666,-358 666,-358 666,-294.5 666,-257.97 647.56,-218.48 635.41,-196.44"/>
<polygon fill="midnightblue" stroke="midnightblue" points="638.36,-194.55 630.36,-187.61 632.29,-198.03 638.36,-194.55"/>
</g>
<!-- Node10 -->
<g id="node10" class="node">
<title>Node10</title>
<g id="a_node10"><a xlink:href="_world_actor_8hpp.html" target="_top" xlink:title=" ">
<polygon fill="white" stroke="black" points="708,-403.5 708,-422.5 822,-422.5 822,-403.5 708,-403.5"/>
<text text-anchor="middle" x="765" y="-410.5" font-family="Helvetica,sans-Serif" font-size="10.00">engine/WorldActor.hpp</text>
</a>
</g>
</g>
<!-- Node4&#45;&gt;Node10 -->
<g id="edge9" class="edge">
<title>Node4&#45;&gt;Node10</title>
<path fill="none" stroke="midnightblue" d="M740.79,-459.08C744.76,-451.69 750.53,-440.95 755.43,-431.81"/>
<polygon fill="midnightblue" stroke="midnightblue" points="758.65,-433.22 760.3,-422.75 752.49,-429.91 758.65,-433.22"/>
</g>
<!-- Node6 -->
<g id="node6" class="node">
<title>Node6</title>
<g id="a_node6"><a xlink:title=" ">
<polygon fill="white" stroke="#bfbfbf" points="678,-112.5 678,-131.5 744,-131.5 744,-112.5 678,-112.5"/>
<text text-anchor="middle" x="711" y="-119.5" font-family="Helvetica,sans-Serif" font-size="10.00">string_view</text>
</a>
</g>
</g>
<!-- Node5&#45;&gt;Node6 -->
<g id="edge5" class="edge">
<title>Node5&#45;&gt;Node6</title>
<path fill="none" stroke="midnightblue" d="M638.82,-168.32C652.23,-159.9 672.82,-146.97 688.59,-137.07"/>
<polygon fill="midnightblue" stroke="midnightblue" points="690.61,-139.94 697.22,-131.65 686.89,-134.01 690.61,-139.94"/>
</g>
<!-- Node7 -->
<g id="node7" class="node">
<title>Node7</title>
<g id="a_node7"><a xlink:href="_vector2_d_8hpp.html" target="_top" xlink:title=" ">
<polygon fill="white" stroke="black" points="988,-112.5 988,-131.5 1100,-131.5 1100,-112.5 988,-112.5"/>
<text text-anchor="middle" x="1044" y="-119.5" font-family="Helvetica,sans-Serif" font-size="10.00">Helpers/Vector2D.hpp</text>
</a>
</g>
</g>
<!-- Node5&#45;&gt;Node7 -->
<g id="edge6" class="edge">
<title>Node5&#45;&gt;Node7</title>
<path fill="none" stroke="midnightblue" d="M678.82,-169.86C683.61,-169.23 688.39,-168.6 693,-168 792.15,-155.08 907.09,-140.4 977.67,-131.42"/>
<polygon fill="midnightblue" stroke="midnightblue" points="978.28,-134.87 987.76,-130.14 977.4,-127.93 978.28,-134.87"/>
</g>
<!-- Node8 -->
<g id="node8" class="node">
<title>Node8</title>
<g id="a_node8"><a xlink:title=" ">
<polygon fill="white" stroke="#bfbfbf" points="1130.5,-56.5 1130.5,-75.5 1169.5,-75.5 1169.5,-56.5 1130.5,-56.5"/>
<text text-anchor="middle" x="1150" y="-63.5" font-family="Helvetica,sans-Serif" font-size="10.00">utility</text>
</a>
</g>
</g>
<!-- Node7&#45;&gt;Node8 -->
<g id="edge7" class="edge">
<title>Node7&#45;&gt;Node8</title>
<path fill="none" stroke="midnightblue" d="M1061.03,-112.32C1078.03,-103.66 1104.38,-90.24 1123.99,-80.25"/>
<polygon fill="midnightblue" stroke="midnightblue" points="1125.69,-83.31 1133.01,-75.65 1122.51,-77.08 1125.69,-83.31"/>
</g>
<!-- Node9 -->
<g id="node9" class="node">
<title>Node9</title>
<g id="a_node9"><a xlink:title=" ">
<polygon fill="white" stroke="#bfbfbf" points="1022,-56.5 1022,-75.5 1066,-75.5 1066,-56.5 1022,-56.5"/>
<text text-anchor="middle" x="1044" y="-63.5" font-family="Helvetica,sans-Serif" font-size="10.00">cmath</text>
</a>
</g>
</g>
<!-- Node7&#45;&gt;Node9 -->
<g id="edge8" class="edge">
<title>Node7&#45;&gt;Node9</title>
<path fill="none" stroke="midnightblue" d="M1044,-112.08C1044,-105.01 1044,-94.86 1044,-85.99"/>
<polygon fill="midnightblue" stroke="midnightblue" points="1047.5,-85.75 1044,-75.75 1040.5,-85.75 1047.5,-85.75"/>
</g>
<!-- Node10&#45;&gt;Node7 -->
<g id="edge10" class="edge">
<title>Node10&#45;&gt;Node7</title>
<path fill="none" stroke="midnightblue" d="M765.49,-403.39C767.05,-381.44 773.33,-322.15 797,-280 831.47,-218.62 849.12,-205.01 909,-168 934.62,-152.16 966.46,-141.21 992.78,-134.07"/>
<polygon fill="midnightblue" stroke="midnightblue" points="993.78,-137.43 1002.58,-131.52 992.02,-130.65 993.78,-137.43"/>
</g>
<!-- Node11 -->
<g id="node11" class="node">
<title>Node11</title>
<g id="a_node11"><a xlink:href="_field_8hpp.html" target="_top" xlink:title=" ">
<polygon fill="white" stroke="black" points="694,-347.5 694,-366.5 750,-366.5 750,-347.5 694,-347.5"/>
<text text-anchor="middle" x="722" y="-354.5" font-family="Helvetica,sans-Serif" font-size="10.00">Field.hpp</text>
</a>
</g>
</g>
<!-- Node10&#45;&gt;Node11 -->
<g id="edge11" class="edge">
<title>Node10&#45;&gt;Node11</title>
<path fill="none" stroke="midnightblue" d="M757.9,-403.08C751.76,-395.38 742.73,-384.03 735.26,-374.65"/>
<polygon fill="midnightblue" stroke="midnightblue" points="737.94,-372.39 728.97,-366.75 732.46,-376.75 737.94,-372.39"/>
</g>
<!-- Node11&#45;&gt;Node7 -->
<g id="edge23" class="edge">
<title>Node11&#45;&gt;Node7</title>
<path fill="none" stroke="midnightblue" d="M722.66,-347.18C724.83,-324.2 733.53,-261.71 766,-224 819.43,-161.94 914.17,-138.01 978.02,-128.78"/>
<polygon fill="midnightblue" stroke="midnightblue" points="978.55,-132.24 987.99,-127.42 977.61,-125.3 978.55,-132.24"/>
</g>
<!-- Node12 -->
<g id="node12" class="node">
<title>Node12</title>
<g id="a_node12"><a xlink:href="_cell_8hpp.html" target="_top" xlink:title=" ">
<polygon fill="white" stroke="black" points="520.5,-286 520.5,-305 637.5,-305 637.5,-286 520.5,-286"/>
<text text-anchor="middle" x="579" y="-293" font-family="Helvetica,sans-Serif" font-size="10.00">engine/objects/Cell.hpp</text>
</a>
</g>
</g>
<!-- Node11&#45;&gt;Node12 -->
<g id="edge12" class="edge">
<title>Node11&#45;&gt;Node12</title>
<path fill="none" stroke="midnightblue" d="M701.51,-347.48C677.19,-337.36 636.45,-320.4 608.68,-308.85"/>
<polygon fill="midnightblue" stroke="midnightblue" points="610.03,-305.62 599.45,-305.01 607.34,-312.08 610.03,-305.62"/>
</g>
<!-- Node12&#45;&gt;Node5 -->
<g id="edge13" class="edge">
<title>Node12&#45;&gt;Node5</title>
<path fill="none" stroke="midnightblue" d="M584.88,-285.92C591.34,-276.15 601.64,-259.53 608,-244 614.21,-228.82 618.73,-210.7 621.54,-197.46"/>
<polygon fill="midnightblue" stroke="midnightblue" points="624.97,-198.14 623.5,-187.65 618.11,-196.77 624.97,-198.14"/>
</g>
<!-- Node13 -->
<g id="node13" class="node">
<title>Node13</title>
<g id="a_node13"><a xlink:href="_tickable_8hpp.html" target="_top" xlink:title=" ">
<polygon fill="white" stroke="black" points="370.5,-168.5 370.5,-187.5 473.5,-187.5 473.5,-168.5 370.5,-168.5"/>
<text text-anchor="middle" x="422" y="-175.5" font-family="Helvetica,sans-Serif" font-size="10.00">engine/Tickable.hpp</text>
</a>
</g>
</g>
<!-- Node12&#45;&gt;Node13 -->
<g id="edge14" class="edge">
<title>Node12&#45;&gt;Node13</title>
<path fill="none" stroke="midnightblue" d="M560.33,-286C541.28,-276.91 511.29,-261.42 488,-244 468.59,-229.48 449.16,-209.53 436.46,-195.57"/>
<polygon fill="midnightblue" stroke="midnightblue" points="438.75,-192.89 429.48,-187.76 433.53,-197.55 438.75,-192.89"/>
</g>
<!-- Node14 -->
<g id="node14" class="node">
<title>Node14</title>
<g id="a_node14"><a xlink:title=" ">
<polygon fill="white" stroke="#bfbfbf" points="830,-56.5 830,-75.5 874,-75.5 874,-56.5 830,-56.5"/>
<text text-anchor="middle" x="852" y="-63.5" font-family="Helvetica,sans-Serif" font-size="10.00">vector</text>
</a>
</g>
</g>
<!-- Node12&#45;&gt;Node14 -->
<g id="edge15" class="edge">
<title>Node12&#45;&gt;Node14</title>
<path fill="none" stroke="midnightblue" d="M563.04,-285.92C549.03,-277.37 529.57,-262.83 521,-244 505.1,-209.07 532.91,-193.03 562,-168 638.85,-101.88 761.55,-78.26 819.57,-70.48"/>
<polygon fill="midnightblue" stroke="midnightblue" points="820.15,-73.94 829.63,-69.21 819.27,-66.99 820.15,-73.94"/>
</g>
<!-- Node15 -->
<g id="node15" class="node">
<title>Node15</title>
<g id="a_node15"><a xlink:href="_ground_8hpp.html" target="_top" xlink:title=" ">
<polygon fill="white" stroke="black" points="370,-224.5 370,-243.5 436,-243.5 436,-224.5 370,-224.5"/>
<text text-anchor="middle" x="403" y="-231.5" font-family="Helvetica,sans-Serif" font-size="10.00">Ground.hpp</text>
</a>
</g>
</g>
<!-- Node12&#45;&gt;Node15 -->
<g id="edge16" class="edge">
<title>Node12&#45;&gt;Node15</title>
<path fill="none" stroke="midnightblue" d="M553.78,-285.98C523.33,-275.68 471.95,-258.31 437.76,-246.75"/>
<polygon fill="midnightblue" stroke="midnightblue" points="438.76,-243.4 428.17,-243.51 436.52,-250.03 438.76,-243.4"/>
</g>
<!-- Node16 -->
<g id="node16" class="node">
<title>Node16</title>
<g id="a_node16"><a xlink:href="_building_8hpp.html" target="_top" xlink:title=" ">
<polygon fill="white" stroke="black" points="530.5,-224.5 530.5,-243.5 599.5,-243.5 599.5,-224.5 530.5,-224.5"/>
<text text-anchor="middle" x="565" y="-231.5" font-family="Helvetica,sans-Serif" font-size="10.00">Building.hpp</text>
</a>
</g>
</g>
<!-- Node12&#45;&gt;Node16 -->
<g id="edge19" class="edge">
<title>Node12&#45;&gt;Node16</title>
<path fill="none" stroke="midnightblue" d="M576.99,-285.98C575,-277.49 571.87,-264.2 569.31,-253.32"/>
<polygon fill="midnightblue" stroke="midnightblue" points="572.7,-252.44 567,-243.51 565.89,-254.04 572.7,-252.44"/>
</g>
<!-- Node15&#45;&gt;Node5 -->
<g id="edge17" class="edge">
<title>Node15&#45;&gt;Node5</title>
<path fill="none" stroke="midnightblue" d="M436.24,-224.92C474.42,-215.63 537.28,-200.34 579.87,-189.98"/>
<polygon fill="midnightblue" stroke="midnightblue" points="580.81,-193.35 589.7,-187.59 579.16,-186.55 580.81,-193.35"/>
</g>
<!-- Node15&#45;&gt;Node13 -->
<g id="edge18" class="edge">
<title>Node15&#45;&gt;Node13</title>
<path fill="none" stroke="midnightblue" d="M406.14,-224.08C408.68,-216.85 412.36,-206.41 415.53,-197.4"/>
<polygon fill="midnightblue" stroke="midnightblue" points="418.9,-198.35 418.92,-187.75 412.3,-196.02 418.9,-198.35"/>
</g>
<!-- Node16&#45;&gt;Node5 -->
<g id="edge20" class="edge">
<title>Node16&#45;&gt;Node5</title>
<path fill="none" stroke="midnightblue" d="M574.64,-224.32C583.51,-216.34 596.87,-204.31 607.61,-194.65"/>
<polygon fill="midnightblue" stroke="midnightblue" points="610.09,-197.13 615.18,-187.83 605.41,-191.92 610.09,-197.13"/>
</g>
<!-- Node16&#45;&gt;Node13 -->
<g id="edge21" class="edge">
<title>Node16&#45;&gt;Node13</title>
<path fill="none" stroke="midnightblue" d="M542.34,-224.44C518.6,-215.48 481.09,-201.31 454.26,-191.18"/>
<polygon fill="midnightblue" stroke="midnightblue" points="455.14,-187.77 444.55,-187.52 452.67,-194.32 455.14,-187.77"/>
</g>
<!-- Node17 -->
<g id="node17" class="node">
<title>Node17</title>
<g id="a_node17"><a xlink:title=" ">
<polygon fill="white" stroke="#bfbfbf" points="918.5,-168.5 918.5,-187.5 977.5,-187.5 977.5,-168.5 918.5,-168.5"/>
<text text-anchor="middle" x="948" y="-175.5" font-family="Helvetica,sans-Serif" font-size="10.00">functional</text>
</a>
</g>
</g>
<!-- Node16&#45;&gt;Node17 -->
<g id="edge22" class="edge">
<title>Node16&#45;&gt;Node17</title>
<path fill="none" stroke="midnightblue" d="M599.66,-228.11C670.89,-218.07 833.31,-195.17 908.48,-184.57"/>
<polygon fill="midnightblue" stroke="midnightblue" points="909.08,-188.02 918.49,-183.16 908.1,-181.09 909.08,-188.02"/>
</g>
<!-- Node19 -->
<g id="node19" class="node">
<title>Node19</title>
<g id="a_node19"><a xlink:href="_unit_8hpp.html" target="_top" xlink:title=" ">
<polygon fill="white" stroke="black" points="865.5,-459.5 865.5,-478.5 918.5,-478.5 918.5,-459.5 865.5,-459.5"/>
<text text-anchor="middle" x="892" y="-466.5" font-family="Helvetica,sans-Serif" font-size="10.00">Unit.hpp</text>
</a>
</g>
</g>
<!-- Node18&#45;&gt;Node19 -->
<g id="edge25" class="edge">
<title>Node18&#45;&gt;Node19</title>
<path fill="none" stroke="midnightblue" d="M863.61,-515.08C868.37,-507.53 875.32,-496.49 881.15,-487.23"/>
<polygon fill="midnightblue" stroke="midnightblue" points="884.12,-489.08 886.49,-478.75 878.2,-485.35 884.12,-489.08"/>
</g>
<!-- Node20 -->
<g id="node20" class="node">
<title>Node20</title>
<g id="a_node20"><a xlink:title=" ">
<polygon fill="white" stroke="#bfbfbf" points="818.5,-459.5 818.5,-478.5 847.5,-478.5 847.5,-459.5 818.5,-459.5"/>
<text text-anchor="middle" x="833" y="-466.5" font-family="Helvetica,sans-Serif" font-size="10.00">list</text>
</a>
</g>
</g>
<!-- Node18&#45;&gt;Node20 -->
<g id="edge27" class="edge">
<title>Node18&#45;&gt;Node20</title>
<path fill="none" stroke="midnightblue" d="M853.87,-515.08C850.49,-507.77 845.58,-497.18 841.38,-488.1"/>
<polygon fill="midnightblue" stroke="midnightblue" points="844.43,-486.36 837.05,-478.75 838.08,-489.3 844.43,-486.36"/>
</g>
<!-- Node19&#45;&gt;Node10 -->
<g id="edge26" class="edge">
<title>Node19&#45;&gt;Node10</title>
<path fill="none" stroke="midnightblue" d="M871.88,-459.44C850.98,-450.56 818.07,-436.56 794.28,-426.45"/>
<polygon fill="midnightblue" stroke="midnightblue" points="795.6,-423.21 785.03,-422.52 792.86,-429.65 795.6,-423.21"/>
</g>
<!-- Node21&#45;&gt;Node12 -->
<g id="edge31" class="edge">
<title>Node21&#45;&gt;Node12</title>
<path fill="none" stroke="midnightblue" d="M409.37,-347.48C443.92,-337.09 502.42,-319.51 540.88,-307.95"/>
<polygon fill="midnightblue" stroke="midnightblue" points="542.11,-311.24 550.68,-305.01 540.1,-304.54 542.11,-311.24"/>
</g>
<!-- Node22 -->
<g id="node22" class="node">
<title>Node22</title>
<g id="a_node22"><a xlink:href="_ground_empty_8hpp.html" target="_top" xlink:title=" ">
<polygon fill="white" stroke="black" points="260,-280.5 260,-310.5 372,-310.5 372,-280.5 260,-280.5"/>
<text text-anchor="start" x="268" y="-298.5" font-family="Helvetica,sans-Serif" font-size="10.00">engine/objects/ground</text>
<text text-anchor="middle" x="316" y="-287.5" font-family="Helvetica,sans-Serif" font-size="10.00">/GroundEmpty.hpp</text>
</a>
</g>
</g>
<!-- Node21&#45;&gt;Node22 -->
<g id="edge29" class="edge">
<title>Node21&#45;&gt;Node22</title>
<path fill="none" stroke="midnightblue" d="M371.69,-347.48C363.13,-339.64 350.1,-327.71 338.79,-317.37"/>
<polygon fill="midnightblue" stroke="midnightblue" points="341.06,-314.69 331.32,-310.52 336.33,-319.86 341.06,-314.69"/>
</g>
<!-- Node23 -->
<g id="node23" class="node">
<title>Node23</title>
<g id="a_node23"><a xlink:href="_ground_earth_8hpp.html" target="_top" xlink:title=" ">
<polygon fill="white" stroke="black" points="390,-280.5 390,-310.5 502,-310.5 502,-280.5 390,-280.5"/>
<text text-anchor="start" x="398" y="-298.5" font-family="Helvetica,sans-Serif" font-size="10.00">engine/objects/ground</text>
<text text-anchor="middle" x="446" y="-287.5" font-family="Helvetica,sans-Serif" font-size="10.00">/GroundEarth.hpp</text>
</a>
</g>
</g>
<!-- Node21&#45;&gt;Node23 -->
<g id="edge32" class="edge">
<title>Node21&#45;&gt;Node23</title>
<path fill="none" stroke="midnightblue" d="M390.31,-347.48C398.87,-339.64 411.9,-327.71 423.21,-317.37"/>
<polygon fill="midnightblue" stroke="midnightblue" points="425.67,-319.86 430.68,-310.52 420.94,-314.69 425.67,-319.86"/>
</g>
<!-- Node24 -->
<g id="node24" class="node">
<title>Node24</title>
<g id="a_node24"><a xlink:href="_ground_water_8hpp.html" target="_top" xlink:title=" ">
<polygon fill="white" stroke="black" points="0,-280.5 0,-310.5 112,-310.5 112,-280.5 0,-280.5"/>
<text text-anchor="start" x="8" y="-298.5" font-family="Helvetica,sans-Serif" font-size="10.00">engine/objects/ground</text>
<text text-anchor="middle" x="56" y="-287.5" font-family="Helvetica,sans-Serif" font-size="10.00">/GroundWater.hpp</text>
</a>
</g>
</g>
<!-- Node21&#45;&gt;Node24 -->
<g id="edge34" class="edge">
<title>Node21&#45;&gt;Node24</title>
<path fill="none" stroke="midnightblue" d="M329.07,-347.77C278.64,-339.6 199.71,-326.37 122.26,-311.2"/>
<polygon fill="midnightblue" stroke="midnightblue" points="122.82,-307.74 112.34,-309.24 121.47,-314.61 122.82,-307.74"/>
</g>
<!-- Node25 -->
<g id="node25" class="node">
<title>Node25</title>
<g id="a_node25"><a xlink:href="_mineral_8hpp.html" target="_top" xlink:title=" ">
<polygon fill="white" stroke="black" points="130,-280.5 130,-310.5 242,-310.5 242,-280.5 130,-280.5"/>
<text text-anchor="start" x="138" y="-298.5" font-family="Helvetica,sans-Serif" font-size="10.00">engine/objects/ground</text>
<text text-anchor="middle" x="186" y="-287.5" font-family="Helvetica,sans-Serif" font-size="10.00">/Mineral.hpp</text>
</a>
</g>
</g>
<!-- Node21&#45;&gt;Node25 -->
<g id="edge36" class="edge">
<title>Node21&#45;&gt;Node25</title>
<path fill="none" stroke="midnightblue" d="M353.06,-347.48C324.18,-338.66 278.32,-324.67 241.94,-313.57"/>
<polygon fill="midnightblue" stroke="midnightblue" points="242.54,-310.09 231.96,-310.52 240.5,-316.79 242.54,-310.09"/>
</g>
<!-- Node22&#45;&gt;Node15 -->
<g id="edge30" class="edge">
<title>Node22&#45;&gt;Node15</title>
<path fill="none" stroke="midnightblue" d="M336.62,-280.4C350.3,-271.04 368.21,-258.79 381.98,-249.38"/>
<polygon fill="midnightblue" stroke="midnightblue" points="384.06,-252.19 390.34,-243.66 380.11,-246.41 384.06,-252.19"/>
</g>
<!-- Node23&#45;&gt;Node15 -->
<g id="edge33" class="edge">
<title>Node23&#45;&gt;Node15</title>
<path fill="none" stroke="midnightblue" d="M435.81,-280.4C429.63,-271.84 421.7,-260.87 415.18,-251.86"/>
<polygon fill="midnightblue" stroke="midnightblue" points="417.95,-249.71 409.26,-243.66 412.28,-253.81 417.95,-249.71"/>
</g>
<!-- Node24&#45;&gt;Node15 -->
<g id="edge35" class="edge">
<title>Node24&#45;&gt;Node15</title>
<path fill="none" stroke="midnightblue" d="M112.33,-281.71C115.26,-281.12 118.16,-280.54 121,-280 205.18,-263.91 304.25,-249.03 359.72,-241.07"/>
<polygon fill="midnightblue" stroke="midnightblue" points="360.49,-244.49 369.89,-239.61 359.5,-237.56 360.49,-244.49"/>
</g>
<!-- Node25&#45;&gt;Node15 -->
<g id="edge37" class="edge">
<title>Node25&#45;&gt;Node15</title>
<path fill="none" stroke="midnightblue" d="M237.15,-280.47C275.24,-270.03 326.57,-255.96 361.98,-246.25"/>
<polygon fill="midnightblue" stroke="midnightblue" points="363.26,-249.53 371.98,-243.51 361.41,-242.78 363.26,-249.53"/>
</g>
<!-- Node27 -->
<g id="node27" class="node">
<title>Node27</title>
<g id="a_node27"><a xlink:title=" ">
<polygon fill="white" stroke="#bfbfbf" points="1432.5,-224.5 1432.5,-243.5 1467.5,-243.5 1467.5,-224.5 1432.5,-224.5"/>
<text text-anchor="middle" x="1450" y="-231.5" font-family="Helvetica,sans-Serif" font-size="10.00">map</text>
</a>
</g>
</g>
<!-- Node26&#45;&gt;Node27 -->
<g id="edge39" class="edge">
<title>Node26&#45;&gt;Node27</title>
<path fill="none" stroke="midnightblue" d="M1319.78,-285.98C1346.8,-275.4 1392.91,-257.35 1422.39,-245.81"/>
<polygon fill="midnightblue" stroke="midnightblue" points="1424.02,-248.93 1432.06,-242.02 1421.47,-242.41 1424.02,-248.93"/>
</g>
<!-- Node28 -->
<g id="node28" class="node">
<title>Node28</title>
<g id="a_node28"><a xlink:title=" ">
<polygon fill="white" stroke="#bfbfbf" points="1383.5,-168.5 1383.5,-187.5 1424.5,-187.5 1424.5,-168.5 1383.5,-168.5"/>
<text text-anchor="middle" x="1404" y="-175.5" font-family="Helvetica,sans-Serif" font-size="10.00">string</text>
</a>
</g>
</g>
<!-- Node26&#45;&gt;Node28 -->
<g id="edge40" class="edge">
<title>Node26&#45;&gt;Node28</title>
<path fill="none" stroke="midnightblue" d="M1322.88,-285.98C1342.47,-278.05 1369.06,-264.35 1385,-244 1395.41,-230.71 1400.12,-211.88 1402.25,-197.9"/>
<polygon fill="midnightblue" stroke="midnightblue" points="1405.73,-198.28 1403.46,-187.93 1398.78,-197.44 1405.73,-198.28"/>
</g>
<!-- Node29 -->
<g id="node29" class="node">
<title>Node29</title>
<g id="a_node29"><a xlink:title=" ">
<polygon fill="white" stroke="#bfbfbf" points="1151.5,-224.5 1151.5,-243.5 1202.5,-243.5 1202.5,-224.5 1151.5,-224.5"/>
<text text-anchor="middle" x="1177" y="-231.5" font-family="Helvetica,sans-Serif" font-size="10.00">memory</text>
</a>
</g>
</g>
<!-- Node26&#45;&gt;Node29 -->
<g id="edge41" class="edge">
<title>Node26&#45;&gt;Node29</title>
<path fill="none" stroke="midnightblue" d="M1280.66,-285.98C1260.45,-276.03 1226.81,-259.49 1203.36,-247.96"/>
<polygon fill="midnightblue" stroke="midnightblue" points="1204.82,-244.78 1194.3,-243.51 1201.73,-251.06 1204.82,-244.78"/>
</g>
<!-- Node30 -->
<g id="node30" class="node">
<title>Node30</title>
<g id="a_node30"><a xlink:href="_shader_8hpp.html" target="_top" xlink:title=" ">
<polygon fill="white" stroke="black" points="1485.5,-224.5 1485.5,-243.5 1590.5,-243.5 1590.5,-224.5 1485.5,-224.5"/>
<text text-anchor="middle" x="1538" y="-231.5" font-family="Helvetica,sans-Serif" font-size="10.00">graphics/Shader.hpp</text>
</a>
</g>
</g>
<!-- Node26&#45;&gt;Node30 -->
<g id="edge42" class="edge">
<title>Node26&#45;&gt;Node30</title>
<path fill="none" stroke="midnightblue" d="M1332.39,-285.98C1374.89,-275.44 1447.3,-257.49 1493.87,-245.94"/>
<polygon fill="midnightblue" stroke="midnightblue" points="1494.81,-249.31 1503.68,-243.51 1493.13,-242.52 1494.81,-249.31"/>
</g>
<!-- Node31 -->
<g id="node31" class="node">
<title>Node31</title>
<g id="a_node31"><a xlink:href="_g_shape_8hpp.html" target="_top" xlink:title=" ">
<polygon fill="white" stroke="black" points="1482,-168.5 1482,-187.5 1592,-187.5 1592,-168.5 1482,-168.5"/>
<text text-anchor="middle" x="1537" y="-175.5" font-family="Helvetica,sans-Serif" font-size="10.00">graphics/GShape.hpp</text>
</a>
</g>
</g>
<!-- Node26&#45;&gt;Node31 -->
<g id="edge57" class="edge">
<title>Node26&#45;&gt;Node31</title>
<path fill="none" stroke="midnightblue" d="M1374.61,-292.58C1454.4,-288.77 1571.66,-277.47 1600,-244 1615.87,-225.26 1588.89,-205.18 1565.46,-192.38"/>
<polygon fill="midnightblue" stroke="midnightblue" points="1566.92,-189.19 1556.43,-187.68 1563.69,-195.4 1566.92,-189.19"/>
</g>
<!-- Node37 -->
<g id="node37" class="node">
<title>Node37</title>
<g id="a_node37"><a xlink:href="_event_handler_8hpp.html" target="_top" xlink:title=" ">
<polygon fill="white" stroke="black" points="1220.5,-224.5 1220.5,-243.5 1375.5,-243.5 1375.5,-224.5 1220.5,-224.5"/>
<text text-anchor="middle" x="1298" y="-231.5" font-family="Helvetica,sans-Serif" font-size="10.00">EventHandler/EventHandler.hpp</text>
</a>
</g>
</g>
<!-- Node26&#45;&gt;Node37 -->
<g id="edge58" class="edge">
<title>Node26&#45;&gt;Node37</title>
<path fill="none" stroke="midnightblue" d="M1298,-285.98C1298,-277.58 1298,-264.48 1298,-253.66"/>
<polygon fill="midnightblue" stroke="midnightblue" points="1301.5,-253.51 1298,-243.51 1294.5,-253.51 1301.5,-253.51"/>
</g>
<!-- Node30&#45;&gt;Node28 -->
<g id="edge43" class="edge">
<title>Node30&#45;&gt;Node28</title>
<path fill="none" stroke="midnightblue" d="M1516.77,-224.44C1494.49,-215.46 1459.27,-201.27 1434.12,-191.14"/>
<polygon fill="midnightblue" stroke="midnightblue" points="1435.28,-187.83 1424.69,-187.34 1432.66,-194.32 1435.28,-187.83"/>
</g>
<!-- Node30&#45;&gt;Node31 -->
<g id="edge44" class="edge">
<title>Node30&#45;&gt;Node31</title>
<path fill="none" stroke="midnightblue" d="M1532.67,-224.08C1531.03,-216.93 1530.41,-206.64 1530.89,-197.69"/>
<polygon fill="midnightblue" stroke="midnightblue" points="1534.37,-198.09 1532.03,-187.75 1527.41,-197.29 1534.37,-198.09"/>
</g>
<!-- Node35 -->
<g id="node35" class="node">
<title>Node35</title>
<g id="a_node35"><a xlink:href="_transform_8hpp.html" target="_top" xlink:title=" ">
<polygon fill="white" stroke="black" points="1477.5,-56.5 1477.5,-75.5 1596.5,-75.5 1596.5,-56.5 1477.5,-56.5"/>
<text text-anchor="middle" x="1537" y="-63.5" font-family="Helvetica,sans-Serif" font-size="10.00">graphics/Transform.hpp</text>
</a>
</g>
</g>
<!-- Node30&#45;&gt;Node35 -->
<g id="edge56" class="edge">
<title>Node30&#45;&gt;Node35</title>
<path fill="none" stroke="midnightblue" d="M1558.85,-224.43C1573.58,-217.13 1592.2,-205.09 1601,-188 1605.07,-180.1 1603.48,-176.54 1601,-168 1591.37,-134.81 1567.19,-102.07 1551.47,-83.23"/>
<polygon fill="midnightblue" stroke="midnightblue" points="1554.09,-80.91 1544.92,-75.6 1548.78,-85.47 1554.09,-80.91"/>
</g>
<!-- Node31&#45;&gt;Node7 -->
<g id="edge55" class="edge">
<title>Node31&#45;&gt;Node7</title>
<path fill="none" stroke="midnightblue" d="M1481.88,-170.96C1390.64,-160.97 1208.54,-141.02 1110.37,-130.27"/>
<polygon fill="midnightblue" stroke="midnightblue" points="1110.6,-126.77 1100.28,-129.16 1109.84,-133.73 1110.6,-126.77"/>
</g>
<!-- Node31&#45;&gt;Node30 -->
<g id="edge53" class="edge">
<title>Node31&#45;&gt;Node30</title>
<path fill="none" stroke="midnightblue" d="M1542.29,-187.75C1543.95,-194.86 1544.59,-205.14 1544.12,-214.1"/>
<polygon fill="midnightblue" stroke="midnightblue" points="1540.64,-213.75 1543,-224.08 1547.6,-214.54 1540.64,-213.75"/>
</g>
<!-- Node32 -->
<g id="node32" class="node">
<title>Node32</title>
<g id="a_node32"><a xlink:href="_window_8hpp.html" target="_top" xlink:title=" ">
<polygon fill="white" stroke="black" points="1312.5,-112.5 1312.5,-131.5 1421.5,-131.5 1421.5,-112.5 1312.5,-112.5"/>
<text text-anchor="middle" x="1367" y="-119.5" font-family="Helvetica,sans-Serif" font-size="10.00">graphics/Window.hpp</text>
</a>
</g>
</g>
<!-- Node31&#45;&gt;Node32 -->
<g id="edge45" class="edge">
<title>Node31&#45;&gt;Node32</title>
<path fill="none" stroke="midnightblue" d="M1510.06,-168.44C1481.34,-159.32 1435.67,-144.81 1403.68,-134.65"/>
<polygon fill="midnightblue" stroke="midnightblue" points="1404.4,-131.21 1393.81,-131.52 1402.28,-137.88 1404.4,-131.21"/>
</g>
<!-- Node31&#45;&gt;Node35 -->
<g id="edge54" class="edge">
<title>Node31&#45;&gt;Node35</title>
<path fill="none" stroke="midnightblue" d="M1537,-168.37C1537,-150.62 1537,-109.67 1537,-85.6"/>
<polygon fill="midnightblue" stroke="midnightblue" points="1540.5,-85.59 1537,-75.59 1533.5,-85.59 1540.5,-85.59"/>
</g>
<!-- Node32&#45;&gt;Node8 -->
<g id="edge48" class="edge">
<title>Node32&#45;&gt;Node8</title>
<path fill="none" stroke="midnightblue" d="M1332.62,-112.44C1290.38,-101.93 1219.44,-84.28 1179.55,-74.35"/>
<polygon fill="midnightblue" stroke="midnightblue" points="1180.19,-70.91 1169.64,-71.89 1178.5,-77.7 1180.19,-70.91"/>
</g>
<!-- Node32&#45;&gt;Node14 -->
<g id="edge49" class="edge">
<title>Node32&#45;&gt;Node14</title>
<path fill="none" stroke="midnightblue" d="M1312.37,-115.27C1205.13,-104.03 970.02,-79.38 884.19,-70.38"/>
<polygon fill="midnightblue" stroke="midnightblue" points="884.33,-66.87 874.02,-69.31 883.6,-73.83 884.33,-66.87"/>
</g>
<!-- Node32&#45;&gt;Node30 -->
<g id="edge50" class="edge">
<title>Node32&#45;&gt;Node30</title>
<path fill="none" stroke="midnightblue" d="M1380.36,-131.59C1409.64,-150.43 1479.76,-195.53 1515.79,-218.71"/>
<polygon fill="midnightblue" stroke="midnightblue" points="1514.28,-221.9 1524.58,-224.37 1518.07,-216.01 1514.28,-221.9"/>
</g>
<!-- Node33 -->
<g id="node33" class="node">
<title>Node33</title>
<g id="a_node33"><a xlink:title=" ">
<polygon fill="white" stroke="#bfbfbf" points="1267.5,-56.5 1267.5,-75.5 1330.5,-75.5 1330.5,-56.5 1267.5,-56.5"/>
<text text-anchor="middle" x="1299" y="-63.5" font-family="Helvetica,sans-Serif" font-size="10.00">glad/glad.h</text>
</a>
</g>
</g>
<!-- Node32&#45;&gt;Node33 -->
<g id="edge46" class="edge">
<title>Node32&#45;&gt;Node33</title>
<path fill="none" stroke="midnightblue" d="M1356.07,-112.32C1345.83,-104.18 1330.28,-91.84 1318,-82.09"/>
<polygon fill="midnightblue" stroke="midnightblue" points="1320.13,-79.31 1310.12,-75.83 1315.78,-84.79 1320.13,-79.31"/>
</g>
<!-- Node34 -->
<g id="node34" class="node">
<title>Node34</title>
<g id="a_node34"><a xlink:title=" ">
<polygon fill="white" stroke="#bfbfbf" points="1348.5,-56.5 1348.5,-75.5 1427.5,-75.5 1427.5,-56.5 1348.5,-56.5"/>
<text text-anchor="middle" x="1388" y="-63.5" font-family="Helvetica,sans-Serif" font-size="10.00">GLFW/glfw3.h</text>
</a>
</g>
</g>
<!-- Node32&#45;&gt;Node34 -->
<g id="edge47" class="edge">
<title>Node32&#45;&gt;Node34</title>
<path fill="none" stroke="midnightblue" d="M1370.47,-112.08C1373.31,-104.77 1377.43,-94.18 1380.96,-85.1"/>
<polygon fill="midnightblue" stroke="midnightblue" points="1384.23,-86.34 1384.6,-75.75 1377.71,-83.8 1384.23,-86.34"/>
</g>
<!-- Node32&#45;&gt;Node35 -->
<g id="edge51" class="edge">
<title>Node32&#45;&gt;Node35</title>
<path fill="none" stroke="midnightblue" d="M1393.94,-112.44C1422.66,-103.32 1468.33,-88.81 1500.32,-78.65"/>
<polygon fill="midnightblue" stroke="midnightblue" points="1501.72,-81.88 1510.19,-75.52 1499.6,-75.21 1501.72,-81.88"/>
</g>
<!-- Node36 -->
<g id="node36" class="node">
<title>Node36</title>
<g id="a_node36"><a xlink:title=" ">
<polygon fill="white" stroke="#bfbfbf" points="1485,-0.5 1485,-19.5 1589,-19.5 1589,-0.5 1485,-0.5"/>
<text text-anchor="middle" x="1537" y="-7.5" font-family="Helvetica,sans-Serif" font-size="10.00">glm/gtc/type_ptr.hpp</text>
</a>
</g>
</g>
<!-- Node35&#45;&gt;Node36 -->
<g id="edge52" class="edge">
<title>Node35&#45;&gt;Node36</title>
<path fill="none" stroke="midnightblue" d="M1537,-56.08C1537,-49.01 1537,-38.86 1537,-29.99"/>
<polygon fill="midnightblue" stroke="midnightblue" points="1540.5,-29.75 1537,-19.75 1533.5,-29.75 1540.5,-29.75"/>
</g>
<!-- Node37&#45;&gt;Node7 -->
<g id="edge61" class="edge">
<title>Node37&#45;&gt;Node7</title>
<path fill="none" stroke="midnightblue" d="M1278.07,-224.37C1233.46,-205.05 1125.42,-158.26 1073.21,-135.65"/>
<polygon fill="midnightblue" stroke="midnightblue" points="1074.41,-132.35 1063.84,-131.59 1071.62,-138.78 1074.41,-132.35"/>
</g>
<!-- Node37&#45;&gt;Node17 -->
<g id="edge59" class="edge">
<title>Node37&#45;&gt;Node17</title>
<path fill="none" stroke="midnightblue" d="M1242.54,-224.44C1171.66,-213.51 1050.66,-194.84 988.1,-185.19"/>
<polygon fill="midnightblue" stroke="midnightblue" points="988.26,-181.67 977.85,-183.6 987.2,-188.59 988.26,-181.67"/>
</g>
<!-- Node37&#45;&gt;Node32 -->
<g id="edge60" class="edge">
<title>Node37&#45;&gt;Node32</title>
<path fill="none" stroke="midnightblue" d="M1303.41,-224.37C1314.75,-206.3 1341.17,-164.18 1356.14,-140.31"/>
<polygon fill="midnightblue" stroke="midnightblue" points="1359.26,-141.92 1361.61,-131.59 1353.33,-138.2 1359.26,-141.92"/>
</g>
<!-- Node39 -->
<g id="node39" class="node">
<title>Node39</title>
<g id="a_node39"><a xlink:title=" ">
<polygon fill="white" stroke="#bfbfbf" points="1290,-515.5 1290,-534.5 1336,-534.5 1336,-515.5 1290,-515.5"/>
<text text-anchor="middle" x="1313" y="-522.5" font-family="Helvetica,sans-Serif" font-size="10.00">cstdint</text>
</a>
</g>
</g>
<!-- Node38&#45;&gt;Node39 -->
<g id="edge63" class="edge">
<title>Node38&#45;&gt;Node39</title>
<path fill="none" stroke="midnightblue" d="M1313,-571.08C1313,-564.01 1313,-553.86 1313,-544.99"/>
<polygon fill="midnightblue" stroke="midnightblue" points="1316.5,-544.75 1313,-534.75 1309.5,-544.75 1316.5,-544.75"/>
</g>
<!-- Node40&#45;&gt;Node5 -->
<g id="edge70" class="edge">
<title>Node40&#45;&gt;Node5</title>
<path fill="none" stroke="midnightblue" d="M937.87,-285.91C878.35,-265.57 728.65,-214.42 660.17,-191.02"/>
<polygon fill="midnightblue" stroke="midnightblue" points="660.89,-187.57 650.29,-187.64 658.63,-194.19 660.89,-187.57"/>
</g>
<!-- Node40&#45;&gt;Node7 -->
<g id="edge69" class="edge">
<title>Node40&#45;&gt;Node7</title>
<path fill="none" stroke="midnightblue" d="M963.79,-285.95C965.28,-272.38 969.16,-245.26 978,-224 991.4,-191.78 1015.32,-158.72 1030.38,-139.56"/>
<polygon fill="midnightblue" stroke="midnightblue" points="1033.27,-141.55 1036.8,-131.56 1027.81,-137.17 1033.27,-141.55"/>
</g>
<!-- Node40&#45;&gt;Node14 -->
<g id="edge66" class="edge">
<title>Node40&#45;&gt;Node14</title>
<path fill="none" stroke="midnightblue" d="M958.58,-285.98C949.25,-267.98 926.94,-224.69 909,-188 891.14,-151.47 871.05,-108.31 860.13,-84.67"/>
<polygon fill="midnightblue" stroke="midnightblue" points="863.29,-83.17 855.92,-75.55 856.93,-86.1 863.29,-83.17"/>
</g>
<!-- Node40&#45;&gt;Node29 -->
<g id="edge65" class="edge">
<title>Node40&#45;&gt;Node29</title>
<path fill="none" stroke="midnightblue" d="M993.66,-285.98C1032.85,-275.08 1100.53,-256.26 1141.79,-244.79"/>
<polygon fill="midnightblue" stroke="midnightblue" points="1142.72,-248.16 1151.42,-242.11 1140.85,-241.42 1142.72,-248.16"/>
</g>
<!-- Node41 -->
<g id="node41" class="node">
<title>Node41</title>
<g id="a_node41"><a xlink:href="_g_u_i_window_8hpp.html" target="_top" xlink:title=" ">
<polygon fill="white" stroke="black" points="987,-224.5 987,-243.5 1095,-243.5 1095,-224.5 987,-224.5"/>
<text text-anchor="middle" x="1041" y="-231.5" font-family="Helvetica,sans-Serif" font-size="10.00">GUI/GUIWindow.hpp</text>
</a>
</g>
</g>
<!-- Node40&#45;&gt;Node41 -->
<g id="edge67" class="edge">
<title>Node40&#45;&gt;Node41</title>
<path fill="none" stroke="midnightblue" d="M974.18,-285.98C986.57,-276.52 1006.79,-261.1 1021.75,-249.69"/>
<polygon fill="midnightblue" stroke="midnightblue" points="1024.02,-252.36 1029.85,-243.51 1019.77,-246.79 1024.02,-252.36"/>
</g>
<!-- Node41&#45;&gt;Node7 -->
<g id="edge68" class="edge">
<title>Node41&#45;&gt;Node7</title>
<path fill="none" stroke="midnightblue" d="M1041.24,-224.37C1041.72,-206.62 1042.84,-165.67 1043.49,-141.6"/>
<polygon fill="midnightblue" stroke="midnightblue" points="1046.99,-141.68 1043.77,-131.59 1039.99,-141.49 1046.99,-141.68"/>
</g>
<!-- Node42&#45;&gt;Node26 -->
<g id="edge74" class="edge">
<title>Node42&#45;&gt;Node26</title>
<path fill="none" stroke="midnightblue" d="M1129.15,-403.4C1145.47,-394.6 1171.29,-380.37 1193,-367 1222.97,-348.55 1256.57,-325.57 1277.51,-310.96"/>
<polygon fill="midnightblue" stroke="midnightblue" points="1279.74,-313.67 1285.92,-305.07 1275.72,-307.94 1279.74,-313.67"/>
</g>
<!-- Node42&#45;&gt;Node29 -->
<g id="edge72" class="edge">
<title>Node42&#45;&gt;Node29</title>
<path fill="none" stroke="midnightblue" d="M1125.83,-403.27C1136.58,-395.19 1151.37,-382.17 1159,-367 1177.56,-330.1 1178.98,-280.45 1178.15,-253.79"/>
<polygon fill="midnightblue" stroke="midnightblue" points="1181.63,-253.41 1177.68,-243.59 1174.64,-253.74 1181.63,-253.41"/>
</g>
<!-- Node42&#45;&gt;Node31 -->
<g id="edge73" class="edge">
<title>Node42&#45;&gt;Node31</title>
<path fill="none" stroke="midnightblue" d="M1160.78,-412.83C1264.37,-411.72 1508.92,-392.66 1616,-244 1631.88,-221.96 1600.58,-203.05 1572.81,-191.4"/>
<polygon fill="midnightblue" stroke="midnightblue" points="1573.8,-188.03 1563.22,-187.59 1571.22,-194.53 1573.8,-188.03"/>
</g>
<!-- Node42&#45;&gt;Node41 -->
<g id="edge75" class="edge">
<title>Node42&#45;&gt;Node41</title>
<path fill="none" stroke="midnightblue" d="M1100.09,-403.23C1089.22,-395.13 1074.19,-382.09 1066,-367 1046.14,-330.39 1041.82,-280.63 1041.03,-253.87"/>
<polygon fill="midnightblue" stroke="midnightblue" points="1044.52,-253.57 1040.87,-243.63 1037.52,-253.68 1044.52,-253.57"/>
</g>
<!-- Node43 -->
<g id="node43" class="node">
<title>Node43</title>
<g id="a_node43"><a xlink:href="_item_8hpp.html" target="_top" xlink:title=" ">
<polygon fill="white" stroke="black" points="1075.5,-347.5 1075.5,-366.5 1150.5,-366.5 1150.5,-347.5 1075.5,-347.5"/>
<text text-anchor="middle" x="1113" y="-354.5" font-family="Helvetica,sans-Serif" font-size="10.00">GUI/Item.hpp</text>
</a>
</g>
</g>
<!-- Node42&#45;&gt;Node43 -->
<g id="edge76" class="edge">
<title>Node42&#45;&gt;Node43</title>
<path fill="none" stroke="midnightblue" d="M1113,-403.08C1113,-396.01 1113,-385.86 1113,-376.99"/>
<polygon fill="midnightblue" stroke="midnightblue" points="1116.5,-376.75 1113,-366.75 1109.5,-376.75 1116.5,-376.75"/>
</g>
<!-- Node44 -->
<g id="node44" class="node">
<title>Node44</title>
<g id="a_node44"><a xlink:href="_states_8hpp.html" target="_top" xlink:title=" ">
<polygon fill="white" stroke="black" points="806,-286 806,-305 890,-305 890,-286 806,-286"/>
<text text-anchor="middle" x="848" y="-293" font-family="Helvetica,sans-Serif" font-size="10.00">GUI/States.hpp</text>
</a>
</g>
</g>
<!-- Node42&#45;&gt;Node44 -->
<g id="edge82" class="edge">
<title>Node42&#45;&gt;Node44</title>
<path fill="none" stroke="midnightblue" d="M1093.08,-403.32C1046.74,-383.12 931.49,-332.89 877.19,-309.22"/>
<polygon fill="midnightblue" stroke="midnightblue" points="878.35,-305.91 867.79,-305.12 875.56,-312.33 878.35,-305.91"/>
</g>
<!-- Node43&#45;&gt;Node7 -->
<g id="edge79" class="edge">
<title>Node43&#45;&gt;Node7</title>
<path fill="none" stroke="midnightblue" d="M1113.76,-347.41C1115.38,-326 1117.94,-268.74 1104,-224 1093.89,-191.56 1071.53,-158.56 1057.14,-139.48"/>
<polygon fill="midnightblue" stroke="midnightblue" points="1059.87,-137.28 1050.99,-131.51 1054.33,-141.56 1059.87,-137.28"/>
</g>
<!-- Node43&#45;&gt;Node26 -->
<g id="edge77" class="edge">
<title>Node43&#45;&gt;Node26</title>
<path fill="none" stroke="midnightblue" d="M1139.51,-347.48C1171.65,-337.14 1225.99,-319.66 1261.93,-308.1"/>
<polygon fill="midnightblue" stroke="midnightblue" points="1263.1,-311.4 1271.54,-305.01 1260.95,-304.74 1263.1,-311.4"/>
</g>
<!-- Node43&#45;&gt;Node41 -->
<g id="edge78" class="edge">
<title>Node43&#45;&gt;Node41</title>
<path fill="none" stroke="midnightblue" d="M1107.82,-347.3C1096.04,-327.5 1067.05,-278.78 1051.41,-252.49"/>
<polygon fill="midnightblue" stroke="midnightblue" points="1054.25,-250.43 1046.13,-243.62 1048.24,-254.01 1054.25,-250.43"/>
</g>
<!-- Node43&#45;&gt;Node44 -->
<g id="edge80" class="edge">
<title>Node43&#45;&gt;Node44</title>
<path fill="none" stroke="midnightblue" d="M1075.13,-348.98C1032.03,-340.77 959.61,-326.36 898,-311 893.95,-309.99 889.74,-308.88 885.56,-307.72"/>
<polygon fill="midnightblue" stroke="midnightblue" points="886.5,-304.35 875.93,-305.01 884.6,-311.09 886.5,-304.35"/>
</g>
<!-- Node44&#45;&gt;Node6 -->
<g id="edge81" class="edge">
<title>Node44&#45;&gt;Node6</title>
<path fill="none" stroke="midnightblue" d="M841.02,-285.76C819.3,-258.58 752.71,-175.21 724.19,-139.51"/>
<polygon fill="midnightblue" stroke="midnightblue" points="726.78,-137.15 717.81,-131.52 721.31,-141.52 726.78,-137.15"/>
</g>
</g>
</svg>
