<?xml version="1.0" encoding="UTF-8" standalone="no"?>
<!DOCTYPE svg PUBLIC "-//W3C//DTD SVG 1.1//EN"
 "http://www.w3.org/Graphics/SVG/1.1/DTD/svg11.dtd">
<!-- Generated by graphviz version 2.47.0 (20210407.0042)
 -->
<!-- Title: src/main.cpp Pages: 1 -->
<svg width="1224pt" height="599pt"
 viewBox="0.00 0.00 1223.50 599.00" xmlns="http://www.w3.org/2000/svg" xmlns:xlink="http://www.w3.org/1999/xlink">
<g id="graph0" class="graph" transform="scale(1 1) rotate(0) translate(4 595)">
<title>src/main.cpp</title>
<polygon fill="white" stroke="transparent" points="-4,4 -4,-595 1219.5,-595 1219.5,4 -4,4"/>
<!-- Node1 -->
<g id="node1" class="node">
<title>Node1</title>
<g id="a_node1"><a xlink:title=" ">
<polygon fill="#bfbfbf" stroke="black" points="523,-571.5 523,-590.5 595,-590.5 595,-571.5 523,-571.5"/>
<text text-anchor="middle" x="559" y="-578.5" font-family="Helvetica,sans-Serif" font-size="10.00">src/main.cpp</text>
</a>
</g>
</g>
<!-- Node2 -->
<g id="node2" class="node">
<title>Node2</title>
<g id="a_node2"><a xlink:title=" ">
<polygon fill="white" stroke="#bfbfbf" points="335,-515.5 335,-534.5 389,-534.5 389,-515.5 335,-515.5"/>
<text text-anchor="middle" x="362" y="-522.5" font-family="Helvetica,sans-Serif" font-size="10.00">iostream</text>
</a>
</g>
</g>
<!-- Node1&#45;&gt;Node2 -->
<g id="edge1" class="edge">
<title>Node1&#45;&gt;Node2</title>
<path fill="none" stroke="midnightblue" d="M527.78,-571.44C492.88,-561.87 436.37,-546.39 399.2,-536.2"/>
<polygon fill="midnightblue" stroke="midnightblue" points="399.83,-532.74 389.26,-533.47 397.98,-539.49 399.83,-532.74"/>
</g>
<!-- Node3 -->
<g id="node3" class="node">
<title>Node3</title>
<g id="a_node3"><a xlink:href="_engine_8hpp.html" target="_top" xlink:title=" ">
<polygon fill="white" stroke="black" points="527,-515.5 527,-534.5 591,-534.5 591,-515.5 527,-515.5"/>
<text text-anchor="middle" x="559" y="-522.5" font-family="Helvetica,sans-Serif" font-size="10.00">Engine.hpp</text>
</a>
</g>
</g>
<!-- Node1&#45;&gt;Node3 -->
<g id="edge2" class="edge">
<title>Node1&#45;&gt;Node3</title>
<path fill="none" stroke="midnightblue" d="M559,-571.08C559,-564.01 559,-553.86 559,-544.99"/>
<polygon fill="midnightblue" stroke="midnightblue" points="562.5,-544.75 559,-534.75 555.5,-544.75 562.5,-544.75"/>
</g>
<!-- Node21 -->
<g id="node21" class="node">
<title>Node21</title>
<g id="a_node21"><a xlink:href="_sprites_manager_8hpp.html" target="_top" xlink:title=" ">
<polygon fill="white" stroke="black" points="350.5,-291.5 350.5,-310.5 453.5,-310.5 453.5,-291.5 350.5,-291.5"/>
<text text-anchor="middle" x="402" y="-298.5" font-family="Helvetica,sans-Serif" font-size="10.00">SpritesManager.hpp</text>
</a>
</g>
</g>
<!-- Node1&#45;&gt;Node21 -->
<g id="edge28" class="edge">
<title>Node1&#45;&gt;Node21</title>
<path fill="none" stroke="midnightblue" d="M528.54,-571.4C486.81,-557.53 417,-525.98 417,-470 417,-470 417,-470 417,-412 417,-379.5 410.49,-342.1 406.05,-320.34"/>
<polygon fill="midnightblue" stroke="midnightblue" points="409.46,-319.56 403.96,-310.5 402.61,-321.01 409.46,-319.56"/>
</g>
<!-- Node26 -->
<g id="node26" class="node">
<title>Node26</title>
<g id="a_node26"><a xlink:href="_resource_manager_8hpp.html" target="_top" xlink:title=" ">
<polygon fill="white" stroke="black" points="943.5,-291.5 943.5,-310.5 1096.5,-310.5 1096.5,-291.5 943.5,-291.5"/>
<text text-anchor="middle" x="1020" y="-298.5" font-family="Helvetica,sans-Serif" font-size="10.00">graphics/ResourceManager.hpp</text>
</a>
</g>
</g>
<!-- Node1&#45;&gt;Node26 -->
<g id="edge38" class="edge">
<title>Node1&#45;&gt;Node26</title>
<path fill="none" stroke="midnightblue" d="M595.04,-574.09C646.53,-563.36 735,-535.4 735,-470 735,-470 735,-470 735,-412 735,-364.03 877.31,-328.93 960.8,-312.46"/>
<polygon fill="midnightblue" stroke="midnightblue" points="961.53,-315.89 970.68,-310.55 960.2,-309.01 961.53,-315.89"/>
</g>
<!-- Node38 -->
<g id="node38" class="node">
<title>Node38</title>
<g id="a_node38"><a xlink:href="_timer_8hpp.html" target="_top" xlink:title=" ">
<polygon fill="white" stroke="black" points="763.5,-515.5 763.5,-534.5 822.5,-534.5 822.5,-515.5 763.5,-515.5"/>
<text text-anchor="middle" x="793" y="-522.5" font-family="Helvetica,sans-Serif" font-size="10.00">Timer.hpp</text>
</a>
</g>
</g>
<!-- Node1&#45;&gt;Node38 -->
<g id="edge61" class="edge">
<title>Node1&#45;&gt;Node38</title>
<path fill="none" stroke="midnightblue" d="M595.05,-571.68C637.87,-561.8 709.05,-545.37 753.38,-535.14"/>
<polygon fill="midnightblue" stroke="midnightblue" points="754.27,-538.53 763.22,-532.87 752.69,-531.71 754.27,-538.53"/>
</g>
<!-- Node4 -->
<g id="node4" class="node">
<title>Node4</title>
<g id="a_node4"><a xlink:href="_player_8hpp.html" target="_top" xlink:title=" ">
<polygon fill="white" stroke="black" points="445,-403.5 445,-422.5 573,-422.5 573,-403.5 445,-403.5"/>
<text text-anchor="middle" x="509" y="-410.5" font-family="Helvetica,sans-Serif" font-size="10.00">engine/objects/Player.hpp</text>
</a>
</g>
</g>
<!-- Node3&#45;&gt;Node4 -->
<g id="edge3" class="edge">
<title>Node3&#45;&gt;Node4</title>
<path fill="none" stroke="midnightblue" d="M551.68,-515.22C544.74,-506.51 534.44,-492.54 528,-479 520.9,-464.07 515.87,-445.93 512.77,-432.61"/>
<polygon fill="midnightblue" stroke="midnightblue" points="516.17,-431.76 510.63,-422.73 509.33,-433.25 516.17,-431.76"/>
</g>
<!-- Node18 -->
<g id="node18" class="node">
<title>Node18</title>
<g id="a_node18"><a xlink:href="_unit_group_8hpp.html" target="_top" xlink:title=" ">
<polygon fill="white" stroke="black" points="537.5,-459.5 537.5,-478.5 682.5,-478.5 682.5,-459.5 537.5,-459.5"/>
<text text-anchor="middle" x="610" y="-466.5" font-family="Helvetica,sans-Serif" font-size="10.00">engine/objects/UnitGroup.hpp</text>
</a>
</g>
</g>
<!-- Node3&#45;&gt;Node18 -->
<g id="edge24" class="edge">
<title>Node3&#45;&gt;Node18</title>
<path fill="none" stroke="midnightblue" d="M567.42,-515.08C574.85,-507.22 585.85,-495.57 594.81,-486.08"/>
<polygon fill="midnightblue" stroke="midnightblue" points="597.41,-488.42 601.74,-478.75 592.32,-483.62 597.41,-488.42"/>
</g>
<!-- Node5 -->
<g id="node5" class="node">
<title>Node5</title>
<g id="a_node5"><a xlink:href="_drawable_8hpp.html" target="_top" xlink:title=" ">
<polygon fill="white" stroke="black" points="414.5,-112.5 414.5,-131.5 521.5,-131.5 521.5,-112.5 414.5,-112.5"/>
<text text-anchor="middle" x="468" y="-119.5" font-family="Helvetica,sans-Serif" font-size="10.00">engine/Drawable.hpp</text>
</a>
</g>
</g>
<!-- Node4&#45;&gt;Node5 -->
<g id="edge4" class="edge">
<title>Node4&#45;&gt;Node5</title>
<path fill="none" stroke="midnightblue" d="M444.79,-411.45C307.96,-408.55 0,-392.01 0,-302 0,-302 0,-302 0,-238.5 0,-156.2 276.22,-132.19 404.25,-125.47"/>
<polygon fill="midnightblue" stroke="midnightblue" points="404.5,-128.97 414.31,-124.97 404.15,-121.98 404.5,-128.97"/>
</g>
<!-- Node10 -->
<g id="node10" class="node">
<title>Node10</title>
<g id="a_node10"><a xlink:href="_world_actor_8hpp.html" target="_top" xlink:title=" ">
<polygon fill="white" stroke="black" points="593,-347.5 593,-366.5 707,-366.5 707,-347.5 593,-347.5"/>
<text text-anchor="middle" x="650" y="-354.5" font-family="Helvetica,sans-Serif" font-size="10.00">engine/WorldActor.hpp</text>
</a>
</g>
</g>
<!-- Node4&#45;&gt;Node10 -->
<g id="edge9" class="edge">
<title>Node4&#45;&gt;Node10</title>
<path fill="none" stroke="midnightblue" d="M531.34,-403.44C554.75,-394.48 591.74,-380.31 618.19,-370.18"/>
<polygon fill="midnightblue" stroke="midnightblue" points="619.68,-373.36 627.76,-366.52 617.17,-366.82 619.68,-373.36"/>
</g>
<!-- Node6 -->
<g id="node6" class="node">
<title>Node6</title>
<g id="a_node6"><a xlink:title=" ">
<polygon fill="white" stroke="#bfbfbf" points="435,-56.5 435,-75.5 501,-75.5 501,-56.5 435,-56.5"/>
<text text-anchor="middle" x="468" y="-63.5" font-family="Helvetica,sans-Serif" font-size="10.00">string_view</text>
</a>
</g>
</g>
<!-- Node5&#45;&gt;Node6 -->
<g id="edge5" class="edge">
<title>Node5&#45;&gt;Node6</title>
<path fill="none" stroke="midnightblue" d="M468,-112.08C468,-105.01 468,-94.86 468,-85.99"/>
<polygon fill="midnightblue" stroke="midnightblue" points="471.5,-85.75 468,-75.75 464.5,-85.75 471.5,-85.75"/>
</g>
<!-- Node7 -->
<g id="node7" class="node">
<title>Node7</title>
<g id="a_node7"><a xlink:href="_vector2_d_8hpp.html" target="_top" xlink:title=" ">
<polygon fill="white" stroke="black" points="628,-56.5 628,-75.5 740,-75.5 740,-56.5 628,-56.5"/>
<text text-anchor="middle" x="684" y="-63.5" font-family="Helvetica,sans-Serif" font-size="10.00">Helpers/Vector2D.hpp</text>
</a>
</g>
</g>
<!-- Node5&#45;&gt;Node7 -->
<g id="edge6" class="edge">
<title>Node5&#45;&gt;Node7</title>
<path fill="none" stroke="midnightblue" d="M502.23,-112.44C539.51,-103.12 599.27,-88.18 640.01,-78"/>
<polygon fill="midnightblue" stroke="midnightblue" points="641.08,-81.34 649.93,-75.52 639.38,-74.55 641.08,-81.34"/>
</g>
<!-- Node8 -->
<g id="node8" class="node">
<title>Node8</title>
<g id="a_node8"><a xlink:title=" ">
<polygon fill="white" stroke="#bfbfbf" points="767.5,-0.5 767.5,-19.5 806.5,-19.5 806.5,-0.5 767.5,-0.5"/>
<text text-anchor="middle" x="787" y="-7.5" font-family="Helvetica,sans-Serif" font-size="10.00">utility</text>
</a>
</g>
</g>
<!-- Node7&#45;&gt;Node8 -->
<g id="edge7" class="edge">
<title>Node7&#45;&gt;Node8</title>
<path fill="none" stroke="midnightblue" d="M700.55,-56.32C716.99,-47.7 742.43,-34.36 761.47,-24.39"/>
<polygon fill="midnightblue" stroke="midnightblue" points="763.26,-27.4 770.49,-19.65 760.01,-21.2 763.26,-27.4"/>
</g>
<!-- Node9 -->
<g id="node9" class="node">
<title>Node9</title>
<g id="a_node9"><a xlink:title=" ">
<polygon fill="white" stroke="#bfbfbf" points="662,-0.5 662,-19.5 706,-19.5 706,-0.5 662,-0.5"/>
<text text-anchor="middle" x="684" y="-7.5" font-family="Helvetica,sans-Serif" font-size="10.00">cmath</text>
</a>
</g>
</g>
<!-- Node7&#45;&gt;Node9 -->
<g id="edge8" class="edge">
<title>Node7&#45;&gt;Node9</title>
<path fill="none" stroke="midnightblue" d="M684,-56.08C684,-49.01 684,-38.86 684,-29.99"/>
<polygon fill="midnightblue" stroke="midnightblue" points="687.5,-29.75 684,-19.75 680.5,-29.75 687.5,-29.75"/>
</g>
<!-- Node10&#45;&gt;Node7 -->
<g id="edge10" class="edge">
<title>Node10&#45;&gt;Node7</title>
<path fill="none" stroke="midnightblue" d="M659.74,-347.43C668.5,-339.08 680.9,-325.55 687,-311 721.27,-229.19 718.77,-199.09 702,-112 700.21,-102.7 696.52,-92.89 692.94,-84.8"/>
<polygon fill="midnightblue" stroke="midnightblue" points="696.06,-83.21 688.62,-75.66 689.73,-86.2 696.06,-83.21"/>
</g>
<!-- Node11 -->
<g id="node11" class="node">
<title>Node11</title>
<g id="a_node11"><a xlink:href="_field_8hpp.html" target="_top" xlink:title=" ">
<polygon fill="white" stroke="black" points="622,-291.5 622,-310.5 678,-310.5 678,-291.5 622,-291.5"/>
<text text-anchor="middle" x="650" y="-298.5" font-family="Helvetica,sans-Serif" font-size="10.00">Field.hpp</text>
</a>
</g>
</g>
<!-- Node10&#45;&gt;Node11 -->
<g id="edge11" class="edge">
<title>Node10&#45;&gt;Node11</title>
<path fill="none" stroke="midnightblue" d="M650,-347.08C650,-340.01 650,-329.86 650,-320.99"/>
<polygon fill="midnightblue" stroke="midnightblue" points="653.5,-320.75 650,-310.75 646.5,-320.75 653.5,-320.75"/>
</g>
<!-- Node11&#45;&gt;Node7 -->
<g id="edge23" class="edge">
<title>Node11&#45;&gt;Node7</title>
<path fill="none" stroke="midnightblue" d="M656.21,-291.19C661.99,-282.46 670.25,-268.48 674,-255 690.7,-195.03 688.08,-120.23 685.65,-85.86"/>
<polygon fill="midnightblue" stroke="midnightblue" points="689.14,-85.53 684.86,-75.84 682.16,-86.08 689.14,-85.53"/>
</g>
<!-- Node12 -->
<g id="node12" class="node">
<title>Node12</title>
<g id="a_node12"><a xlink:href="_cell_8hpp.html" target="_top" xlink:title=" ">
<polygon fill="white" stroke="black" points="548.5,-230 548.5,-249 665.5,-249 665.5,-230 548.5,-230"/>
<text text-anchor="middle" x="607" y="-237" font-family="Helvetica,sans-Serif" font-size="10.00">engine/objects/Cell.hpp</text>
</a>
</g>
</g>
<!-- Node11&#45;&gt;Node12 -->
<g id="edge12" class="edge">
<title>Node11&#45;&gt;Node12</title>
<path fill="none" stroke="midnightblue" d="M643.84,-291.48C637.39,-282.55 627.1,-268.31 619.03,-257.14"/>
<polygon fill="midnightblue" stroke="midnightblue" points="621.84,-255.06 613.15,-249.01 616.17,-259.16 621.84,-255.06"/>
</g>
<!-- Node12&#45;&gt;Node5 -->
<g id="edge13" class="edge">
<title>Node12&#45;&gt;Node5</title>
<path fill="none" stroke="midnightblue" d="M596.55,-229.82C573.11,-210.34 516.05,-162.92 486.47,-138.34"/>
<polygon fill="midnightblue" stroke="midnightblue" points="488.5,-135.48 478.57,-131.78 484.02,-140.86 488.5,-135.48"/>
</g>
<!-- Node13 -->
<g id="node13" class="node">
<title>Node13</title>
<g id="a_node13"><a xlink:href="_tickable_8hpp.html" target="_top" xlink:title=" ">
<polygon fill="white" stroke="black" points="539.5,-112.5 539.5,-131.5 642.5,-131.5 642.5,-112.5 539.5,-112.5"/>
<text text-anchor="middle" x="591" y="-119.5" font-family="Helvetica,sans-Serif" font-size="10.00">engine/Tickable.hpp</text>
</a>
</g>
</g>
<!-- Node12&#45;&gt;Node13 -->
<g id="edge14" class="edge">
<title>Node12&#45;&gt;Node13</title>
<path fill="none" stroke="midnightblue" d="M599.41,-229.96C591.54,-220.48 579.74,-204.35 575,-188 570.45,-172.32 575.71,-154.28 581.38,-141.19"/>
<polygon fill="midnightblue" stroke="midnightblue" points="584.67,-142.42 585.84,-131.89 578.36,-139.4 584.67,-142.42"/>
</g>
<!-- Node14 -->
<g id="node14" class="node">
<title>Node14</title>
<g id="a_node14"><a xlink:title=" ">
<polygon fill="white" stroke="#bfbfbf" points="758,-56.5 758,-75.5 802,-75.5 802,-56.5 758,-56.5"/>
<text text-anchor="middle" x="780" y="-63.5" font-family="Helvetica,sans-Serif" font-size="10.00">vector</text>
</a>
</g>
</g>
<!-- Node12&#45;&gt;Node14 -->
<g id="edge15" class="edge">
<title>Node12&#45;&gt;Node14</title>
<path fill="none" stroke="midnightblue" d="M616.89,-229.72C628.02,-219.77 646.56,-202.99 662,-188 699.86,-151.26 742.75,-106.44 764.92,-83.01"/>
<polygon fill="midnightblue" stroke="midnightblue" points="767.54,-85.34 771.86,-75.67 762.45,-80.53 767.54,-85.34"/>
</g>
<!-- Node15 -->
<g id="node15" class="node">
<title>Node15</title>
<g id="a_node15"><a xlink:href="_ground_8hpp.html" target="_top" xlink:title=" ">
<polygon fill="white" stroke="black" points="424,-168.5 424,-187.5 490,-187.5 490,-168.5 424,-168.5"/>
<text text-anchor="middle" x="457" y="-175.5" font-family="Helvetica,sans-Serif" font-size="10.00">Ground.hpp</text>
</a>
</g>
</g>
<!-- Node12&#45;&gt;Node15 -->
<g id="edge16" class="edge">
<title>Node12&#45;&gt;Node15</title>
<path fill="none" stroke="midnightblue" d="M585.51,-229.98C559.89,-219.81 516.89,-202.76 487.76,-191.2"/>
<polygon fill="midnightblue" stroke="midnightblue" points="489.04,-187.94 478.45,-187.51 486.46,-194.45 489.04,-187.94"/>
</g>
<!-- Node16 -->
<g id="node16" class="node">
<title>Node16</title>
<g id="a_node16"><a xlink:href="_building_8hpp.html" target="_top" xlink:title=" ">
<polygon fill="white" stroke="black" points="584.5,-168.5 584.5,-187.5 653.5,-187.5 653.5,-168.5 584.5,-168.5"/>
<text text-anchor="middle" x="619" y="-175.5" font-family="Helvetica,sans-Serif" font-size="10.00">Building.hpp</text>
</a>
</g>
</g>
<!-- Node12&#45;&gt;Node16 -->
<g id="edge19" class="edge">
<title>Node12&#45;&gt;Node16</title>
<path fill="none" stroke="midnightblue" d="M608.72,-229.98C610.43,-221.49 613.11,-208.2 615.3,-197.32"/>
<polygon fill="midnightblue" stroke="midnightblue" points="618.74,-198 617.28,-187.51 611.88,-196.62 618.74,-198"/>
</g>
<!-- Node15&#45;&gt;Node5 -->
<g id="edge17" class="edge">
<title>Node15&#45;&gt;Node5</title>
<path fill="none" stroke="midnightblue" d="M458.82,-168.08C460.27,-160.93 462.37,-150.64 464.19,-141.69"/>
<polygon fill="midnightblue" stroke="midnightblue" points="467.65,-142.25 466.22,-131.75 460.79,-140.85 467.65,-142.25"/>
</g>
<!-- Node15&#45;&gt;Node13 -->
<g id="edge18" class="edge">
<title>Node15&#45;&gt;Node13</title>
<path fill="none" stroke="midnightblue" d="M478.23,-168.44C500.38,-159.52 535.32,-145.44 560.44,-135.32"/>
<polygon fill="midnightblue" stroke="midnightblue" points="561.9,-138.5 569.87,-131.52 559.28,-132.01 561.9,-138.5"/>
</g>
<!-- Node16&#45;&gt;Node5 -->
<g id="edge20" class="edge">
<title>Node16&#45;&gt;Node5</title>
<path fill="none" stroke="midnightblue" d="M595.07,-168.44C569.78,-159.4 529.7,-145.06 501.32,-134.92"/>
<polygon fill="midnightblue" stroke="midnightblue" points="502.41,-131.59 491.81,-131.52 500.05,-138.18 502.41,-131.59"/>
</g>
<!-- Node16&#45;&gt;Node13 -->
<g id="edge21" class="edge">
<title>Node16&#45;&gt;Node13</title>
<path fill="none" stroke="midnightblue" d="M614.38,-168.08C610.54,-160.69 604.98,-149.95 600.24,-140.81"/>
<polygon fill="midnightblue" stroke="midnightblue" points="603.25,-139.02 595.54,-131.75 597.03,-142.24 603.25,-139.02"/>
</g>
<!-- Node17 -->
<g id="node17" class="node">
<title>Node17</title>
<g id="a_node17"><a xlink:title=" ">
<polygon fill="white" stroke="#bfbfbf" points="786.5,-112.5 786.5,-131.5 845.5,-131.5 845.5,-112.5 786.5,-112.5"/>
<text text-anchor="middle" x="816" y="-119.5" font-family="Helvetica,sans-Serif" font-size="10.00">functional</text>
</a>
</g>
</g>
<!-- Node16&#45;&gt;Node17 -->
<g id="edge22" class="edge">
<title>Node16&#45;&gt;Node17</title>
<path fill="none" stroke="midnightblue" d="M650.22,-168.44C684.33,-159.09 739.07,-144.09 776.24,-133.9"/>
<polygon fill="midnightblue" stroke="midnightblue" points="777.5,-137.18 786.22,-131.16 775.65,-130.43 777.5,-137.18"/>
</g>
<!-- Node19 -->
<g id="node19" class="node">
<title>Node19</title>
<g id="a_node19"><a xlink:href="_unit_8hpp.html" target="_top" xlink:title=" ">
<polygon fill="white" stroke="black" points="638.5,-403.5 638.5,-422.5 691.5,-422.5 691.5,-403.5 638.5,-403.5"/>
<text text-anchor="middle" x="665" y="-410.5" font-family="Helvetica,sans-Serif" font-size="10.00">Unit.hpp</text>
</a>
</g>
</g>
<!-- Node18&#45;&gt;Node19 -->
<g id="edge25" class="edge">
<title>Node18&#45;&gt;Node19</title>
<path fill="none" stroke="midnightblue" d="M619.08,-459.08C627.17,-451.14 639.2,-439.34 648.91,-429.8"/>
<polygon fill="midnightblue" stroke="midnightblue" points="651.4,-432.25 656.09,-422.75 646.5,-427.26 651.4,-432.25"/>
</g>
<!-- Node20 -->
<g id="node20" class="node">
<title>Node20</title>
<g id="a_node20"><a xlink:title=" ">
<polygon fill="white" stroke="#bfbfbf" points="591.5,-403.5 591.5,-422.5 620.5,-422.5 620.5,-403.5 591.5,-403.5"/>
<text text-anchor="middle" x="606" y="-410.5" font-family="Helvetica,sans-Serif" font-size="10.00">list</text>
</a>
</g>
</g>
<!-- Node18&#45;&gt;Node20 -->
<g id="edge27" class="edge">
<title>Node18&#45;&gt;Node20</title>
<path fill="none" stroke="midnightblue" d="M609.34,-459.08C608.82,-452.01 608.06,-441.86 607.41,-432.99"/>
<polygon fill="midnightblue" stroke="midnightblue" points="610.88,-432.47 606.65,-422.75 603.9,-432.98 610.88,-432.47"/>
</g>
<!-- Node19&#45;&gt;Node10 -->
<g id="edge26" class="edge">
<title>Node19&#45;&gt;Node10</title>
<path fill="none" stroke="midnightblue" d="M662.52,-403.08C660.51,-395.85 657.61,-385.41 655.11,-376.4"/>
<polygon fill="midnightblue" stroke="midnightblue" points="658.48,-375.45 652.43,-366.75 651.74,-377.32 658.48,-375.45"/>
</g>
<!-- Node21&#45;&gt;Node12 -->
<g id="edge31" class="edge">
<title>Node21&#45;&gt;Node12</title>
<path fill="none" stroke="midnightblue" d="M431.37,-291.48C467.3,-281.05 528.23,-263.36 568.04,-251.81"/>
<polygon fill="midnightblue" stroke="midnightblue" points="569.05,-255.16 577.68,-249.01 567.1,-248.44 569.05,-255.16"/>
</g>
<!-- Node22 -->
<g id="node22" class="node">
<title>Node22</title>
<g id="a_node22"><a xlink:href="_ground_empty_8hpp.html" target="_top" xlink:title=" ">
<polygon fill="white" stroke="black" points="288,-224.5 288,-254.5 400,-254.5 400,-224.5 288,-224.5"/>
<text text-anchor="start" x="296" y="-242.5" font-family="Helvetica,sans-Serif" font-size="10.00">engine/objects/ground</text>
<text text-anchor="middle" x="344" y="-231.5" font-family="Helvetica,sans-Serif" font-size="10.00">/GroundEmpty.hpp</text>
</a>
</g>
</g>
<!-- Node21&#45;&gt;Node22 -->
<g id="edge29" class="edge">
<title>Node21&#45;&gt;Node22</title>
<path fill="none" stroke="midnightblue" d="M393.69,-291.48C386.2,-283.79 374.87,-272.17 364.92,-261.96"/>
<polygon fill="midnightblue" stroke="midnightblue" points="367.16,-259.24 357.67,-254.52 362.14,-264.13 367.16,-259.24"/>
</g>
<!-- Node23 -->
<g id="node23" class="node">
<title>Node23</title>
<g id="a_node23"><a xlink:href="_ground_earth_8hpp.html" target="_top" xlink:title=" ">
<polygon fill="white" stroke="black" points="418,-224.5 418,-254.5 530,-254.5 530,-224.5 418,-224.5"/>
<text text-anchor="start" x="426" y="-242.5" font-family="Helvetica,sans-Serif" font-size="10.00">engine/objects/ground</text>
<text text-anchor="middle" x="474" y="-231.5" font-family="Helvetica,sans-Serif" font-size="10.00">/GroundEarth.hpp</text>
</a>
</g>
</g>
<!-- Node21&#45;&gt;Node23 -->
<g id="edge32" class="edge">
<title>Node21&#45;&gt;Node23</title>
<path fill="none" stroke="midnightblue" d="M412.32,-291.48C421.88,-283.57 436.51,-271.48 449.11,-261.07"/>
<polygon fill="midnightblue" stroke="midnightblue" points="451.55,-263.59 457.03,-254.52 447.09,-258.2 451.55,-263.59"/>
</g>
<!-- Node24 -->
<g id="node24" class="node">
<title>Node24</title>
<g id="a_node24"><a xlink:href="_ground_water_8hpp.html" target="_top" xlink:title=" ">
<polygon fill="white" stroke="black" points="28,-224.5 28,-254.5 140,-254.5 140,-224.5 28,-224.5"/>
<text text-anchor="start" x="36" y="-242.5" font-family="Helvetica,sans-Serif" font-size="10.00">engine/objects/ground</text>
<text text-anchor="middle" x="84" y="-231.5" font-family="Helvetica,sans-Serif" font-size="10.00">/GroundWater.hpp</text>
</a>
</g>
</g>
<!-- Node21&#45;&gt;Node24 -->
<g id="edge34" class="edge">
<title>Node21&#45;&gt;Node24</title>
<path fill="none" stroke="midnightblue" d="M350.03,-291.44C301,-283.2 225.19,-270.08 150.4,-255.23"/>
<polygon fill="midnightblue" stroke="midnightblue" points="150.83,-251.75 140.34,-253.22 149.46,-258.62 150.83,-251.75"/>
</g>
<!-- Node25 -->
<g id="node25" class="node">
<title>Node25</title>
<g id="a_node25"><a xlink:href="_mineral_8hpp.html" target="_top" xlink:title=" ">
<polygon fill="white" stroke="black" points="158,-224.5 158,-254.5 270,-254.5 270,-224.5 158,-224.5"/>
<text text-anchor="start" x="166" y="-242.5" font-family="Helvetica,sans-Serif" font-size="10.00">engine/objects/ground</text>
<text text-anchor="middle" x="214" y="-231.5" font-family="Helvetica,sans-Serif" font-size="10.00">/Mineral.hpp</text>
</a>
</g>
</g>
<!-- Node21&#45;&gt;Node25 -->
<g id="edge36" class="edge">
<title>Node21&#45;&gt;Node25</title>
<path fill="none" stroke="midnightblue" d="M375.06,-291.48C347.22,-282.66 303,-268.67 267.93,-257.57"/>
<polygon fill="midnightblue" stroke="midnightblue" points="268.9,-254.2 258.31,-254.52 266.79,-260.88 268.9,-254.2"/>
</g>
<!-- Node22&#45;&gt;Node15 -->
<g id="edge30" class="edge">
<title>Node22&#45;&gt;Node15</title>
<path fill="none" stroke="midnightblue" d="M370.78,-224.4C389.06,-214.77 413.15,-202.09 431.21,-192.58"/>
<polygon fill="midnightblue" stroke="midnightblue" points="433.34,-195.41 440.56,-187.66 430.08,-189.22 433.34,-195.41"/>
</g>
<!-- Node23&#45;&gt;Node15 -->
<g id="edge33" class="edge">
<title>Node23&#45;&gt;Node15</title>
<path fill="none" stroke="midnightblue" d="M469.97,-224.4C467.65,-216.29 464.72,-206.01 462.22,-197.28"/>
<polygon fill="midnightblue" stroke="midnightblue" points="465.59,-196.31 459.47,-187.66 458.86,-198.23 465.59,-196.31"/>
</g>
<!-- Node24&#45;&gt;Node15 -->
<g id="edge35" class="edge">
<title>Node24&#45;&gt;Node15</title>
<path fill="none" stroke="midnightblue" d="M140.32,-225.67C143.25,-225.08 146.16,-224.52 149,-224 242.75,-206.72 353.55,-191.89 413.38,-184.33"/>
<polygon fill="midnightblue" stroke="midnightblue" points="414.11,-187.77 423.59,-183.05 413.24,-180.82 414.11,-187.77"/>
</g>
<!-- Node25&#45;&gt;Node15 -->
<g id="edge37" class="edge">
<title>Node25&#45;&gt;Node15</title>
<path fill="none" stroke="midnightblue" d="M270.05,-224.77C313.86,-214.05 373.84,-199.36 413.93,-189.55"/>
<polygon fill="midnightblue" stroke="midnightblue" points="414.79,-192.94 423.67,-187.16 413.12,-186.14 414.79,-192.94"/>
</g>
<!-- Node27 -->
<g id="node27" class="node">
<title>Node27</title>
<g id="a_node27"><a xlink:title=" ">
<polygon fill="white" stroke="#bfbfbf" points="1129.5,-230 1129.5,-249 1164.5,-249 1164.5,-230 1129.5,-230"/>
<text text-anchor="middle" x="1147" y="-237" font-family="Helvetica,sans-Serif" font-size="10.00">map</text>
</a>
</g>
</g>
<!-- Node26&#45;&gt;Node27 -->
<g id="edge39" class="edge">
<title>Node26&#45;&gt;Node27</title>
<path fill="none" stroke="midnightblue" d="M1038.2,-291.48C1059.63,-281.43 1095.44,-264.66 1120.08,-253.11"/>
<polygon fill="midnightblue" stroke="midnightblue" points="1121.68,-256.23 1129.25,-248.82 1118.71,-249.89 1121.68,-256.23"/>
</g>
<!-- Node28 -->
<g id="node28" class="node">
<title>Node28</title>
<g id="a_node28"><a xlink:title=" ">
<polygon fill="white" stroke="#bfbfbf" points="1174.5,-168.5 1174.5,-187.5 1215.5,-187.5 1215.5,-168.5 1174.5,-168.5"/>
<text text-anchor="middle" x="1195" y="-175.5" font-family="Helvetica,sans-Serif" font-size="10.00">string</text>
</a>
</g>
</g>
<!-- Node26&#45;&gt;Node28 -->
<g id="edge40" class="edge">
<title>Node26&#45;&gt;Node28</title>
<path fill="none" stroke="midnightblue" d="M1096.5,-293.16C1124.16,-287.04 1153.57,-275.73 1174,-255 1188.91,-239.87 1193.46,-215.15 1194.73,-198.04"/>
<polygon fill="midnightblue" stroke="midnightblue" points="1198.25,-197.75 1195.18,-187.61 1191.25,-197.45 1198.25,-197.75"/>
</g>
<!-- Node29 -->
<g id="node29" class="node">
<title>Node29</title>
<g id="a_node29"><a xlink:title=" ">
<polygon fill="white" stroke="#bfbfbf" points="859.5,-230 859.5,-249 910.5,-249 910.5,-230 859.5,-230"/>
<text text-anchor="middle" x="885" y="-237" font-family="Helvetica,sans-Serif" font-size="10.00">memory</text>
</a>
</g>
</g>
<!-- Node26&#45;&gt;Node29 -->
<g id="edge41" class="edge">
<title>Node26&#45;&gt;Node29</title>
<path fill="none" stroke="midnightblue" d="M1000.66,-291.48C977.9,-281.45 939.91,-264.7 913.71,-253.15"/>
<polygon fill="midnightblue" stroke="midnightblue" points="914.87,-249.84 904.31,-249.01 912.05,-256.24 914.87,-249.84"/>
</g>
<!-- Node30 -->
<g id="node30" class="node">
<title>Node30</title>
<g id="a_node30"><a xlink:href="_shader_8hpp.html" target="_top" xlink:title=" ">
<polygon fill="white" stroke="black" points="967.5,-230 967.5,-249 1072.5,-249 1072.5,-230 967.5,-230"/>
<text text-anchor="middle" x="1020" y="-237" font-family="Helvetica,sans-Serif" font-size="10.00">graphics/Shader.hpp</text>
</a>
</g>
</g>
<!-- Node26&#45;&gt;Node30 -->
<g id="edge42" class="edge">
<title>Node26&#45;&gt;Node30</title>
<path fill="none" stroke="midnightblue" d="M1020,-291.48C1020,-283.08 1020,-269.98 1020,-259.16"/>
<polygon fill="midnightblue" stroke="midnightblue" points="1023.5,-259.01 1020,-249.01 1016.5,-259.01 1023.5,-259.01"/>
</g>
<!-- Node31 -->
<g id="node31" class="node">
<title>Node31</title>
<g id="a_node31"><a xlink:href="_g_shape_8hpp.html" target="_top" xlink:title=" ">
<polygon fill="white" stroke="black" points="1046,-168.5 1046,-187.5 1156,-187.5 1156,-168.5 1046,-168.5"/>
<text text-anchor="middle" x="1101" y="-175.5" font-family="Helvetica,sans-Serif" font-size="10.00">graphics/GShape.hpp</text>
</a>
</g>
</g>
<!-- Node26&#45;&gt;Node31 -->
<g id="edge56" class="edge">
<title>Node26&#45;&gt;Node31</title>
<path fill="none" stroke="midnightblue" d="M1037.91,-291.44C1051.98,-283.8 1070.98,-271.31 1082,-255 1093.51,-237.95 1098.06,-214.51 1099.84,-198.19"/>
<polygon fill="midnightblue" stroke="midnightblue" points="1103.37,-198.01 1100.72,-187.75 1096.4,-197.43 1103.37,-198.01"/>
</g>
<!-- Node37 -->
<g id="node37" class="node">
<title>Node37</title>
<g id="a_node37"><a xlink:href="_event_handler_8hpp.html" target="_top" xlink:title=" ">
<polygon fill="white" stroke="black" points="796.5,-168.5 796.5,-187.5 951.5,-187.5 951.5,-168.5 796.5,-168.5"/>
<text text-anchor="middle" x="874" y="-175.5" font-family="Helvetica,sans-Serif" font-size="10.00">EventHandler/EventHandler.hpp</text>
</a>
</g>
</g>
<!-- Node26&#45;&gt;Node37 -->
<g id="edge57" class="edge">
<title>Node26&#45;&gt;Node37</title>
<path fill="none" stroke="midnightblue" d="M1007.59,-291.37C995.08,-282.54 975.34,-268.28 959,-255 934.45,-235.04 907.42,-210.38 890.58,-194.66"/>
<polygon fill="midnightblue" stroke="midnightblue" points="892.87,-192.02 883.18,-187.73 888.08,-197.12 892.87,-192.02"/>
</g>
<!-- Node30&#45;&gt;Node28 -->
<g id="edge43" class="edge">
<title>Node30&#45;&gt;Node28</title>
<path fill="none" stroke="midnightblue" d="M1045.07,-229.98C1076.59,-219.26 1130.66,-200.88 1164.53,-189.36"/>
<polygon fill="midnightblue" stroke="midnightblue" points="1166,-192.56 1174.35,-186.02 1163.75,-185.93 1166,-192.56"/>
</g>
<!-- Node30&#45;&gt;Node31 -->
<g id="edge44" class="edge">
<title>Node30&#45;&gt;Node31</title>
<path fill="none" stroke="midnightblue" d="M1026.7,-229.98C1037.72,-220.34 1058.95,-204.52 1076.04,-193.05"/>
<polygon fill="midnightblue" stroke="midnightblue" points="1078.06,-195.91 1084.52,-187.51 1074.23,-190.05 1078.06,-195.91"/>
</g>
<!-- Node35 -->
<g id="node35" class="node">
<title>Node35</title>
<g id="a_node35"><a xlink:href="_transform_8hpp.html" target="_top" xlink:title=" ">
<polygon fill="white" stroke="black" points="1036.5,-56.5 1036.5,-75.5 1155.5,-75.5 1155.5,-56.5 1036.5,-56.5"/>
<text text-anchor="middle" x="1096" y="-63.5" font-family="Helvetica,sans-Serif" font-size="10.00">graphics/Transform.hpp</text>
</a>
</g>
</g>
<!-- Node30&#45;&gt;Node35 -->
<g id="edge55" class="edge">
<title>Node30&#45;&gt;Node35</title>
<path fill="none" stroke="midnightblue" d="M1021.3,-229.56C1023.46,-215.92 1028.44,-189.26 1037,-168 1049.58,-136.75 1070.62,-103.6 1083.88,-84.13"/>
<polygon fill="midnightblue" stroke="midnightblue" points="1086.88,-85.95 1089.7,-75.73 1081.13,-81.96 1086.88,-85.95"/>
</g>
<!-- Node31&#45;&gt;Node30 -->
<g id="edge53" class="edge">
<title>Node31&#45;&gt;Node30</title>
<path fill="none" stroke="midnightblue" d="M1094.31,-187.51C1083.31,-197.13 1062.08,-212.96 1044.99,-224.43"/>
<polygon fill="midnightblue" stroke="midnightblue" points="1042.96,-221.57 1036.51,-229.98 1046.79,-227.43 1042.96,-221.57"/>
</g>
<!-- Node32 -->
<g id="node32" class="node">
<title>Node32</title>
<g id="a_node32"><a xlink:href="_window_8hpp.html" target="_top" xlink:title=" ">
<polygon fill="white" stroke="black" points="902.5,-112.5 902.5,-131.5 1011.5,-131.5 1011.5,-112.5 902.5,-112.5"/>
<text text-anchor="middle" x="957" y="-119.5" font-family="Helvetica,sans-Serif" font-size="10.00">graphics/Window.hpp</text>
</a>
</g>
</g>
<!-- Node31&#45;&gt;Node32 -->
<g id="edge45" class="edge">
<title>Node31&#45;&gt;Node32</title>
<path fill="none" stroke="midnightblue" d="M1078.18,-168.44C1054.17,-159.44 1016.17,-145.19 989.13,-135.05"/>
<polygon fill="midnightblue" stroke="midnightblue" points="990.3,-131.75 979.71,-131.52 987.84,-138.3 990.3,-131.75"/>
</g>
<!-- Node31&#45;&gt;Node35 -->
<g id="edge54" class="edge">
<title>Node31&#45;&gt;Node35</title>
<path fill="none" stroke="midnightblue" d="M1100.61,-168.37C1099.8,-150.62 1097.94,-109.67 1096.85,-85.6"/>
<polygon fill="midnightblue" stroke="midnightblue" points="1100.34,-85.42 1096.39,-75.59 1093.35,-85.74 1100.34,-85.42"/>
</g>
<!-- Node32&#45;&gt;Node8 -->
<g id="edge48" class="edge">
<title>Node32&#45;&gt;Node8</title>
<path fill="none" stroke="midnightblue" d="M928.17,-112.41C905.68,-104.9 874.29,-92.6 850,-76 830.23,-62.49 811.68,-42.03 799.89,-27.69"/>
<polygon fill="midnightblue" stroke="midnightblue" points="802.46,-25.29 793.48,-19.66 796.99,-29.66 802.46,-25.29"/>
</g>
<!-- Node32&#45;&gt;Node14 -->
<g id="edge49" class="edge">
<title>Node32&#45;&gt;Node14</title>
<path fill="none" stroke="midnightblue" d="M928.95,-112.44C897.06,-102.71 845.11,-86.86 811.76,-76.69"/>
<polygon fill="midnightblue" stroke="midnightblue" points="812.63,-73.3 802.04,-73.73 810.59,-79.99 812.63,-73.3"/>
</g>
<!-- Node32&#45;&gt;Node30 -->
<g id="edge50" class="edge">
<title>Node32&#45;&gt;Node30</title>
<path fill="none" stroke="midnightblue" d="M961.79,-131.78C972.15,-150.77 996.79,-195.96 1010.46,-221.01"/>
<polygon fill="midnightblue" stroke="midnightblue" points="1007.4,-222.72 1015.26,-229.82 1013.55,-219.36 1007.4,-222.72"/>
</g>
<!-- Node33 -->
<g id="node33" class="node">
<title>Node33</title>
<g id="a_node33"><a xlink:title=" ">
<polygon fill="white" stroke="#bfbfbf" points="858.5,-56.5 858.5,-75.5 921.5,-75.5 921.5,-56.5 858.5,-56.5"/>
<text text-anchor="middle" x="890" y="-63.5" font-family="Helvetica,sans-Serif" font-size="10.00">glad/glad.h</text>
</a>
</g>
</g>
<!-- Node32&#45;&gt;Node33 -->
<g id="edge46" class="edge">
<title>Node32&#45;&gt;Node33</title>
<path fill="none" stroke="midnightblue" d="M946.24,-112.32C936.23,-104.26 921.11,-92.08 909.07,-82.37"/>
<polygon fill="midnightblue" stroke="midnightblue" points="910.94,-79.38 900.96,-75.83 906.55,-84.83 910.94,-79.38"/>
</g>
<!-- Node34 -->
<g id="node34" class="node">
<title>Node34</title>
<g id="a_node34"><a xlink:title=" ">
<polygon fill="white" stroke="#bfbfbf" points="939.5,-56.5 939.5,-75.5 1018.5,-75.5 1018.5,-56.5 939.5,-56.5"/>
<text text-anchor="middle" x="979" y="-63.5" font-family="Helvetica,sans-Serif" font-size="10.00">GLFW/glfw3.h</text>
</a>
</g>
</g>
<!-- Node32&#45;&gt;Node34 -->
<g id="edge47" class="edge">
<title>Node32&#45;&gt;Node34</title>
<path fill="none" stroke="midnightblue" d="M960.63,-112.08C963.61,-104.77 967.93,-94.18 971.62,-85.1"/>
<polygon fill="midnightblue" stroke="midnightblue" points="974.9,-86.33 975.43,-75.75 968.42,-83.69 974.9,-86.33"/>
</g>
<!-- Node32&#45;&gt;Node35 -->
<g id="edge51" class="edge">
<title>Node32&#45;&gt;Node35</title>
<path fill="none" stroke="midnightblue" d="M979.02,-112.44C1002.1,-103.48 1038.56,-89.31 1064.64,-79.18"/>
<polygon fill="midnightblue" stroke="midnightblue" points="1066.02,-82.4 1074.08,-75.52 1063.49,-75.88 1066.02,-82.4"/>
</g>
<!-- Node36 -->
<g id="node36" class="node">
<title>Node36</title>
<g id="a_node36"><a xlink:title=" ">
<polygon fill="white" stroke="#bfbfbf" points="1044,-0.5 1044,-19.5 1148,-19.5 1148,-0.5 1044,-0.5"/>
<text text-anchor="middle" x="1096" y="-7.5" font-family="Helvetica,sans-Serif" font-size="10.00">glm/gtc/type_ptr.hpp</text>
</a>
</g>
</g>
<!-- Node35&#45;&gt;Node36 -->
<g id="edge52" class="edge">
<title>Node35&#45;&gt;Node36</title>
<path fill="none" stroke="midnightblue" d="M1096,-56.08C1096,-49.01 1096,-38.86 1096,-29.99"/>
<polygon fill="midnightblue" stroke="midnightblue" points="1099.5,-29.75 1096,-19.75 1092.5,-29.75 1099.5,-29.75"/>
</g>
<!-- Node37&#45;&gt;Node7 -->
<g id="edge60" class="edge">
<title>Node37&#45;&gt;Node7</title>
<path fill="none" stroke="midnightblue" d="M874.03,-168.5C873.6,-154.65 870.67,-127.25 855,-112 839.78,-97.18 791.03,-85.23 749.46,-77.38"/>
<polygon fill="midnightblue" stroke="midnightblue" points="750.09,-73.94 739.62,-75.57 748.83,-80.82 750.09,-73.94"/>
</g>
<!-- Node37&#45;&gt;Node17 -->
<g id="edge58" class="edge">
<title>Node37&#45;&gt;Node17</title>
<path fill="none" stroke="midnightblue" d="M864.68,-168.32C856.11,-160.34 843.19,-148.31 832.81,-138.65"/>
<polygon fill="midnightblue" stroke="midnightblue" points="835.19,-136.09 825.49,-131.83 830.42,-141.21 835.19,-136.09"/>
</g>
<!-- Node37&#45;&gt;Node32 -->
<g id="edge59" class="edge">
<title>Node37&#45;&gt;Node32</title>
<path fill="none" stroke="midnightblue" d="M887.34,-168.32C900.16,-159.98 919.78,-147.21 934.94,-137.35"/>
<polygon fill="midnightblue" stroke="midnightblue" points="937.22,-140.04 943.7,-131.65 933.41,-134.17 937.22,-140.04"/>
</g>
<!-- Node39 -->
<g id="node39" class="node">
<title>Node39</title>
<g id="a_node39"><a xlink:title=" ">
<polygon fill="white" stroke="#bfbfbf" points="770,-459.5 770,-478.5 816,-478.5 816,-459.5 770,-459.5"/>
<text text-anchor="middle" x="793" y="-466.5" font-family="Helvetica,sans-Serif" font-size="10.00">cstdint</text>
</a>
</g>
</g>
<!-- Node38&#45;&gt;Node39 -->
<g id="edge62" class="edge">
<title>Node38&#45;&gt;Node39</title>
<path fill="none" stroke="midnightblue" d="M793,-515.08C793,-508.01 793,-497.86 793,-488.99"/>
<polygon fill="midnightblue" stroke="midnightblue" points="796.5,-488.75 793,-478.75 789.5,-488.75 796.5,-488.75"/>
</g>
</g>
</svg>
