<?xml version="1.0" encoding="UTF-8" standalone="no"?>
<!DOCTYPE svg PUBLIC "-//W3C//DTD SVG 1.1//EN"
 "http://www.w3.org/Graphics/SVG/1.1/DTD/svg11.dtd">
<!-- Generated by graphviz version 2.47.1 (20210421.1823)
 -->
<!-- Title: main Pages: 1 -->
<svg width="1365pt" height="680pt"
 viewBox="0.00 0.00 1365.00 679.50" xmlns="http://www.w3.org/2000/svg" xmlns:xlink="http://www.w3.org/1999/xlink">
<g id="graph0" class="graph" transform="scale(1 1) rotate(0) translate(4 675.5)">
<title>main</title>
<polygon fill="white" stroke="transparent" points="-4,4 -4,-675.5 1361,-675.5 1361,4 -4,4"/>
<!-- Node1 -->
<g id="node1" class="node">
<title>Node1</title>
<g id="a_node1"><a xlink:title=" ">
<polygon fill="#bfbfbf" stroke="black" points="0,-239.5 0,-258.5 38,-258.5 38,-239.5 0,-239.5"/>
<text text-anchor="middle" x="19" y="-246.5" font-family="Helvetica,sans-Serif" font-size="10.00">main</text>
</a>
</g>
</g>
<!-- Node2 -->
<g id="node2" class="node">
<title>Node2</title>
<g id="a_node2"><a xlink:href="class_game.html#adb05b20574551a26f8cf1dc664782790" target="_top" xlink:title=" ">
<polygon fill="white" stroke="black" points="74,-239.5 74,-258.5 142,-258.5 142,-239.5 74,-239.5"/>
<text text-anchor="middle" x="108" y="-246.5" font-family="Helvetica,sans-Serif" font-size="10.00">Game::Start</text>
</a>
</g>
</g>
<!-- Node1&#45;&gt;Node2 -->
<g id="edge1" class="edge">
<title>Node1&#45;&gt;Node2</title>
<path fill="none" stroke="midnightblue" d="M38.03,-249C45.55,-249 54.64,-249 63.72,-249"/>
<polygon fill="midnightblue" stroke="midnightblue" points="63.88,-252.5 73.88,-249 63.88,-245.5 63.88,-252.5"/>
</g>
<!-- Node3 -->
<g id="node3" class="node">
<title>Node3</title>
<g id="a_node3"><a xlink:href="class_g_u_i_1_1_g_u_i_manager.html#a389847b5abdfcccebec914b1634cf7d1" target="_top" xlink:title=" ">
<polygon fill="white" stroke="black" points="178,-614.5 178,-633.5 329,-633.5 329,-614.5 178,-614.5"/>
<text text-anchor="middle" x="253.5" y="-621.5" font-family="Helvetica,sans-Serif" font-size="10.00">GUI::GUIManager::AddWindow</text>
</a>
</g>
</g>
<!-- Node2&#45;&gt;Node3 -->
<g id="edge2" class="edge">
<title>Node2&#45;&gt;Node3</title>
<path fill="none" stroke="midnightblue" d="M109.61,-258.78C112.98,-310.01 130.97,-547.08 178,-600 181.32,-603.74 185.23,-606.9 189.49,-609.57"/>
<polygon fill="midnightblue" stroke="midnightblue" points="188.16,-612.82 198.64,-614.39 191.42,-606.63 188.16,-612.82"/>
</g>
<!-- Node4 -->
<g id="node4" class="node">
<title>Node4</title>
<g id="a_node4"><a xlink:href="class_engine.html#a39f23d7f0ad86322bfdb73d4e6763005" target="_top" xlink:title=" ">
<polygon fill="white" stroke="black" points="217,-266.5 217,-285.5 290,-285.5 290,-266.5 217,-266.5"/>
<text text-anchor="middle" x="253.5" y="-273.5" font-family="Helvetica,sans-Serif" font-size="10.00">Engine::Draw</text>
</a>
</g>
</g>
<!-- Node2&#45;&gt;Node4 -->
<g id="edge3" class="edge">
<title>Node2&#45;&gt;Node4</title>
<path fill="none" stroke="midnightblue" d="M142.28,-255.26C161.49,-258.88 185.93,-263.47 206.91,-267.42"/>
<polygon fill="midnightblue" stroke="midnightblue" points="206.42,-270.89 216.89,-269.3 207.71,-264.01 206.42,-270.89"/>
</g>
<!-- Node17 -->
<g id="node17" class="node">
<title>Node17</title>
<g id="a_node17"><a xlink:href="class_graphics_1_1_resource_manager.html#a2bf0311bf4f8431618eb13706a26a5f1" target="_top" xlink:title=" ">
<polygon fill="white" stroke="black" points="912,-445 912,-475 1051,-475 1051,-445 912,-445"/>
<text text-anchor="start" x="920" y="-463" font-family="Helvetica,sans-Serif" font-size="10.00">Graphics::ResourceManager</text>
<text text-anchor="middle" x="981.5" y="-452" font-family="Helvetica,sans-Serif" font-size="10.00">::GetWindow</text>
</a>
</g>
</g>
<!-- Node2&#45;&gt;Node17 -->
<g id="edge32" class="edge">
<title>Node2&#45;&gt;Node17</title>
<path fill="none" stroke="midnightblue" d="M110.74,-258.63C116.1,-285.78 134.67,-364.05 178,-411 241.64,-479.95 275.08,-482.19 365,-509 580.59,-573.27 653.42,-553.17 871,-496 882,-493.11 904.82,-485.69 926.8,-478.33"/>
<polygon fill="midnightblue" stroke="midnightblue" points="928.1,-481.59 936.46,-475.08 925.87,-474.95 928.1,-481.59"/>
</g>
<!-- Node20 -->
<g id="node20" class="node">
<title>Node20</title>
<g id="a_node20"><a xlink:href="class_g_u_i_1_1_g_u_i_manager.html#a35c67b5beb3865f595f3f0353c9afd94" target="_top" xlink:title=" ">
<polygon fill="white" stroke="black" points="365,-152.5 365,-171.5 535,-171.5 535,-152.5 365,-152.5"/>
<text text-anchor="middle" x="450" y="-159.5" font-family="Helvetica,sans-Serif" font-size="10.00">GUI::GUIManager::GetGUIManager</text>
</a>
</g>
</g>
<!-- Node2&#45;&gt;Node20 -->
<g id="edge31" class="edge">
<title>Node2&#45;&gt;Node20</title>
<path fill="none" stroke="midnightblue" d="M142.17,-242.27C185.56,-233.14 263.74,-215.6 329,-195 345.37,-189.83 348.58,-186.02 365,-181 373.41,-178.43 382.4,-176.03 391.25,-173.87"/>
<polygon fill="midnightblue" stroke="midnightblue" points="392.22,-177.24 401.14,-171.53 390.61,-170.43 392.22,-177.24"/>
</g>
<!-- Node26 -->
<g id="node26" class="node">
<title>Node26</title>
<g id="a_node26"><a xlink:href="class_engine.html#acdcf4afb71571455296d5e09e270b496" target="_top" xlink:title=" ">
<polygon fill="white" stroke="black" points="206,-128.5 206,-147.5 301,-147.5 301,-128.5 206,-128.5"/>
<text text-anchor="middle" x="253.5" y="-135.5" font-family="Helvetica,sans-Serif" font-size="10.00">Engine::GetEngine</text>
</a>
</g>
</g>
<!-- Node2&#45;&gt;Node26 -->
<g id="edge29" class="edge">
<title>Node2&#45;&gt;Node26</title>
<path fill="none" stroke="midnightblue" d="M113.37,-239.5C122.53,-220.68 145.62,-178.61 178,-157 183.59,-153.27 189.87,-150.27 196.35,-147.86"/>
<polygon fill="midnightblue" stroke="midnightblue" points="197.5,-151.16 205.92,-144.73 195.33,-144.51 197.5,-151.16"/>
</g>
<!-- Node27 -->
<g id="node27" class="node">
<title>Node27</title>
<g id="a_node27"><a xlink:href="class_graphics_1_1_resource_manager.html#a79f4e066410f871bee9bc241ba87fcb6" target="_top" xlink:title=" ">
<polygon fill="white" stroke="black" points="184,-79 184,-109 323,-109 323,-79 184,-79"/>
<text text-anchor="start" x="192" y="-97" font-family="Helvetica,sans-Serif" font-size="10.00">Graphics::ResourceManager</text>
<text text-anchor="middle" x="253.5" y="-86" font-family="Helvetica,sans-Serif" font-size="10.00">::GetEventHandler</text>
</a>
</g>
</g>
<!-- Node2&#45;&gt;Node27 -->
<g id="edge30" class="edge">
<title>Node2&#45;&gt;Node27</title>
<path fill="none" stroke="midnightblue" d="M111.46,-239.26C118.03,-215.25 138.24,-152.71 178,-119 180,-117.3 182.13,-115.72 184.34,-114.24"/>
<polygon fill="midnightblue" stroke="midnightblue" points="186.38,-117.1 193.27,-109.05 182.86,-111.05 186.38,-117.1"/>
</g>
<!-- Node28 -->
<g id="node28" class="node">
<title>Node28</title>
<g id="a_node28"><a xlink:href="class_sprites_manager.html#a8245b163545dd5a57779316703048eb9" target="_top" xlink:title=" ">
<polygon fill="white" stroke="black" points="202,-8.5 202,-27.5 305,-27.5 305,-8.5 202,-8.5"/>
<text text-anchor="middle" x="253.5" y="-15.5" font-family="Helvetica,sans-Serif" font-size="10.00">SpritesManager::Init</text>
</a>
</g>
</g>
<!-- Node2&#45;&gt;Node28 -->
<g id="edge33" class="edge">
<title>Node2&#45;&gt;Node28</title>
<path fill="none" stroke="midnightblue" d="M110.59,-239.41C115.74,-210.77 134.24,-124.43 178,-69 189.98,-53.82 207.72,-41.42 222.89,-32.66"/>
<polygon fill="midnightblue" stroke="midnightblue" points="224.85,-35.57 231.92,-27.67 221.47,-29.44 224.85,-35.57"/>
</g>
<!-- Node30 -->
<g id="node30" class="node">
<title>Node30</title>
<g id="a_node30"><a xlink:href="namespace_graphics_1_1_resource_parser.html#a6a538c07babc9bbaf884e0aeb9654fe0" target="_top" xlink:title=" ">
<polygon fill="white" stroke="black" points="741,-574 741,-604 871,-604 871,-574 741,-574"/>
<text text-anchor="start" x="749" y="-592" font-family="Helvetica,sans-Serif" font-size="10.00">Graphics::ResourceParser</text>
<text text-anchor="middle" x="806" y="-581" font-family="Helvetica,sans-Serif" font-size="10.00">::LoadResources</text>
</a>
</g>
</g>
<!-- Node2&#45;&gt;Node30 -->
<g id="edge35" class="edge">
<title>Node2&#45;&gt;Node30</title>
<path fill="none" stroke="midnightblue" d="M109.59,-258.58C112.79,-306.7 129.63,-521.39 178,-562 259.64,-630.55 582.81,-610.08 730.57,-596.63"/>
<polygon fill="midnightblue" stroke="midnightblue" points="731.26,-600.08 740.9,-595.67 730.62,-593.11 731.26,-600.08"/>
</g>
<!-- Node36 -->
<g id="node36" class="node">
<title>Node36</title>
<g id="a_node36"><a xlink:href="class_engine.html#a06d3e75a7f768f0d48746aea00483724" target="_top" xlink:title=" ">
<polygon fill="white" stroke="black" points="219,-166.5 219,-185.5 288,-185.5 288,-166.5 219,-166.5"/>
<text text-anchor="middle" x="253.5" y="-173.5" font-family="Helvetica,sans-Serif" font-size="10.00">Engine::Tick</text>
</a>
</g>
</g>
<!-- Node2&#45;&gt;Node36 -->
<g id="edge44" class="edge">
<title>Node2&#45;&gt;Node36</title>
<path fill="none" stroke="midnightblue" d="M127.76,-239.46C152.47,-226.89 196.12,-204.68 224.68,-190.15"/>
<polygon fill="midnightblue" stroke="midnightblue" points="226.41,-193.2 233.74,-185.55 223.24,-186.96 226.41,-193.2"/>
</g>
<!-- Node44 -->
<g id="node44" class="node">
<title>Node44</title>
<g id="a_node44"><a xlink:href="class_event_handler.html#a53ee17f2156ec5ad0769743f39ea259d" target="_top" xlink:title=" ">
<polygon fill="white" stroke="black" points="577.5,-489 577.5,-519 698.5,-519 698.5,-489 577.5,-489"/>
<text text-anchor="start" x="585.5" y="-507" font-family="Helvetica,sans-Serif" font-size="10.00">EventHandler::TriggerAll</text>
<text text-anchor="middle" x="638" y="-496" font-family="Helvetica,sans-Serif" font-size="10.00">Events</text>
</a>
</g>
</g>
<!-- Node2&#45;&gt;Node44 -->
<g id="edge54" class="edge">
<title>Node2&#45;&gt;Node44</title>
<path fill="none" stroke="midnightblue" d="M115.78,-258.55C142.45,-295.2 244.55,-427.5 365,-480 429.33,-508.04 510.22,-511.68 567,-509.76"/>
<polygon fill="midnightblue" stroke="midnightblue" points="567.46,-513.24 577.31,-509.34 567.18,-506.25 567.46,-513.24"/>
</g>
<!-- Node5 -->
<g id="node5" class="node">
<title>Node5</title>
<g id="a_node5"><a xlink:href="class_g_u_i_1_1_g_u_i_manager.html#a4b30f151da1c9091236f1b4345d68126" target="_top" xlink:title=" ">
<polygon fill="white" stroke="black" points="389,-266.5 389,-285.5 511,-285.5 511,-266.5 389,-266.5"/>
<text text-anchor="middle" x="450" y="-273.5" font-family="Helvetica,sans-Serif" font-size="10.00">GUI::GUIManager::Draw</text>
</a>
</g>
</g>
<!-- Node4&#45;&gt;Node5 -->
<g id="edge4" class="edge">
<title>Node4&#45;&gt;Node5</title>
<path fill="none" stroke="midnightblue" d="M290.17,-276C314.91,-276 348.66,-276 378.7,-276"/>
<polygon fill="midnightblue" stroke="midnightblue" points="378.72,-279.5 388.72,-276 378.72,-272.5 378.72,-279.5"/>
</g>
<!-- Node6 -->
<g id="node6" class="node">
<title>Node6</title>
<g id="a_node6"><a xlink:href="class_field.html#ad13d86066be42a2e10fcb9cbcc51fb0b" target="_top" xlink:title=" ">
<polygon fill="white" stroke="black" points="417.5,-304.5 417.5,-323.5 482.5,-323.5 482.5,-304.5 417.5,-304.5"/>
<text text-anchor="middle" x="450" y="-311.5" font-family="Helvetica,sans-Serif" font-size="10.00">Field::Draw</text>
</a>
</g>
</g>
<!-- Node4&#45;&gt;Node6 -->
<g id="edge5" class="edge">
<title>Node4&#45;&gt;Node6</title>
<path fill="none" stroke="midnightblue" d="M290.17,-282.97C323.31,-289.44 372.66,-299.08 407.54,-305.9"/>
<polygon fill="midnightblue" stroke="midnightblue" points="406.93,-309.35 417.41,-307.83 408.27,-302.48 406.93,-309.35"/>
</g>
<!-- Node8 -->
<g id="node8" class="node">
<title>Node8</title>
<g id="a_node8"><a xlink:href="class_drawable.html#ac46f25a963a3fe3e9176461d61d213c7" target="_top" xlink:title=" ">
<polygon fill="white" stroke="black" points="764,-301.5 764,-320.5 848,-320.5 848,-301.5 764,-301.5"/>
<text text-anchor="middle" x="806" y="-308.5" font-family="Helvetica,sans-Serif" font-size="10.00">Drawable::Draw</text>
</a>
</g>
</g>
<!-- Node4&#45;&gt;Node8 -->
<g id="edge20" class="edge">
<title>Node4&#45;&gt;Node8</title>
<path fill="none" stroke="midnightblue" d="M267.95,-285.67C287.95,-299.38 327.24,-323.84 365,-333 503.06,-366.51 672.43,-339.81 754.98,-322.63"/>
<polygon fill="midnightblue" stroke="midnightblue" points="755.79,-326.04 764.84,-320.54 754.34,-319.19 755.79,-326.04"/>
</g>
<!-- Node4&#45;&gt;Node17 -->
<g id="edge24" class="edge">
<title>Node4&#45;&gt;Node17</title>
<path fill="none" stroke="midnightblue" d="M272.72,-285.59C289.62,-295.37 314.32,-312.07 329,-333 359.52,-376.5 322.48,-415.14 365,-447 406.9,-478.39 745.26,-469.35 901.7,-463.37"/>
<polygon fill="midnightblue" stroke="midnightblue" points="901.88,-466.87 911.74,-462.98 901.61,-459.87 901.88,-466.87"/>
</g>
<!-- Node19 -->
<g id="node19" class="node">
<title>Node19</title>
<g id="a_node19"><a xlink:href="class_graphics_1_1_window.html#aa834f03ccb101a164cdfdffa773c0a53" target="_top" xlink:title=" ">
<polygon fill="white" stroke="black" points="571,-211 571,-241 705,-241 705,-211 571,-211"/>
<text text-anchor="start" x="579" y="-229" font-family="Helvetica,sans-Serif" font-size="10.00">Graphics::Window::GetSize</text>
<text text-anchor="middle" x="638" y="-218" font-family="Helvetica,sans-Serif" font-size="10.00">Window</text>
</a>
</g>
</g>
<!-- Node4&#45;&gt;Node19 -->
<g id="edge23" class="edge">
<title>Node4&#45;&gt;Node19</title>
<path fill="none" stroke="midnightblue" d="M290.25,-269.32C311.85,-265.42 339.95,-260.58 365,-257 431,-247.57 506.33,-239.17 560.96,-233.5"/>
<polygon fill="midnightblue" stroke="midnightblue" points="561.32,-236.98 570.91,-232.47 560.6,-230.02 561.32,-236.98"/>
</g>
<!-- Node4&#45;&gt;Node20 -->
<g id="edge21" class="edge">
<title>Node4&#45;&gt;Node20</title>
<path fill="none" stroke="midnightblue" d="M289.04,-266.43C302.63,-261.4 317.66,-254.12 329,-244 353.06,-222.53 339.08,-200.18 365,-181 367.5,-179.15 370.16,-177.47 372.92,-175.95"/>
<polygon fill="midnightblue" stroke="midnightblue" points="374.51,-179.07 382.05,-171.63 371.51,-172.75 374.51,-179.07"/>
</g>
<!-- Node21 -->
<g id="node21" class="node">
<title>Node21</title>
<g id="a_node21"><a xlink:href="class_engine.html#a6d852b5acb8b7af1df790a662ca863fe" target="_top" xlink:title=" ">
<polygon fill="white" stroke="black" points="403.5,-114.5 403.5,-133.5 496.5,-133.5 496.5,-114.5 403.5,-114.5"/>
<text text-anchor="middle" x="450" y="-121.5" font-family="Helvetica,sans-Serif" font-size="10.00">Engine::GetPlayer</text>
</a>
</g>
</g>
<!-- Node4&#45;&gt;Node21 -->
<g id="edge22" class="edge">
<title>Node4&#45;&gt;Node21</title>
<path fill="none" stroke="midnightblue" d="M264.13,-266.42C278.79,-251.64 307.28,-222.16 329,-195 346.56,-173.05 341.7,-158.73 365,-143 373.46,-137.29 383.38,-133.27 393.37,-130.45"/>
<polygon fill="midnightblue" stroke="midnightblue" points="394.47,-133.79 403.35,-128.02 392.8,-126.99 394.47,-133.79"/>
</g>
<!-- Node22 -->
<g id="node22" class="node">
<title>Node22</title>
<g id="a_node22"><a xlink:href="class_world_actor.html#a35b3672c657fd763d44c75f9625c1185" target="_top" xlink:title=" ">
<polygon fill="white" stroke="black" points="404,-190.5 404,-209.5 496,-209.5 496,-190.5 404,-190.5"/>
<text text-anchor="middle" x="450" y="-197.5" font-family="Helvetica,sans-Serif" font-size="10.00">WorldActor::GetX</text>
</a>
</g>
</g>
<!-- Node4&#45;&gt;Node22 -->
<g id="edge25" class="edge">
<title>Node4&#45;&gt;Node22</title>
<path fill="none" stroke="midnightblue" d="M278.6,-266.38C293.33,-260.32 312.45,-252.13 329,-244 345.43,-235.93 348.09,-231 365,-224 375.73,-219.56 387.56,-215.62 398.86,-212.29"/>
<polygon fill="midnightblue" stroke="midnightblue" points="399.96,-215.62 408.62,-209.52 398.05,-208.89 399.96,-215.62"/>
</g>
<!-- Node23 -->
<g id="node23" class="node">
<title>Node23</title>
<g id="a_node23"><a xlink:href="class_world_actor.html#a28d9235e9224dee56e6f32791d5931f0" target="_top" xlink:title=" ">
<polygon fill="white" stroke="black" points="404,-380.5 404,-399.5 496,-399.5 496,-380.5 404,-380.5"/>
<text text-anchor="middle" x="450" y="-387.5" font-family="Helvetica,sans-Serif" font-size="10.00">WorldActor::GetY</text>
</a>
</g>
</g>
<!-- Node4&#45;&gt;Node23 -->
<g id="edge26" class="edge">
<title>Node4&#45;&gt;Node23</title>
<path fill="none" stroke="midnightblue" d="M263.59,-285.66C281.36,-303.97 322.66,-343.91 365,-366 373.98,-370.68 383.98,-374.56 393.87,-377.72"/>
<polygon fill="midnightblue" stroke="midnightblue" points="393.09,-381.14 403.68,-380.66 395.1,-374.44 393.09,-381.14"/>
</g>
<!-- Node24 -->
<g id="node24" class="node">
<title>Node24</title>
<g id="a_node24"><a xlink:href="class_graphics_1_1_window.html#a7863fafae23423f404bee7aa3a57e124" target="_top" xlink:title=" ">
<polygon fill="white" stroke="black" points="385,-418.5 385,-437.5 515,-437.5 515,-418.5 385,-418.5"/>
<text text-anchor="middle" x="450" y="-425.5" font-family="Helvetica,sans-Serif" font-size="10.00">Graphics::Window::Render</text>
</a>
</g>
</g>
<!-- Node4&#45;&gt;Node24 -->
<g id="edge27" class="edge">
<title>Node4&#45;&gt;Node24</title>
<path fill="none" stroke="midnightblue" d="M259.47,-285.54C272.85,-310.25 312.28,-376.68 365,-409 368.59,-411.2 372.4,-413.14 376.34,-414.86"/>
<polygon fill="midnightblue" stroke="midnightblue" points="375.15,-418.16 385.74,-418.48 377.67,-411.62 375.15,-418.16"/>
</g>
<!-- Node7 -->
<g id="node7" class="node">
<title>Node7</title>
<g id="a_node7"><a xlink:href="class_cell.html#ac88160c4177e146f8dd7482c4eaee4f0" target="_top" xlink:title=" ">
<polygon fill="white" stroke="black" points="608,-298.5 608,-317.5 668,-317.5 668,-298.5 608,-298.5"/>
<text text-anchor="middle" x="638" y="-305.5" font-family="Helvetica,sans-Serif" font-size="10.00">Cell::Draw</text>
</a>
</g>
</g>
<!-- Node6&#45;&gt;Node7 -->
<g id="edge6" class="edge">
<title>Node6&#45;&gt;Node7</title>
<path fill="none" stroke="midnightblue" d="M482.55,-312.98C514.3,-311.96 563.34,-310.38 597.62,-309.27"/>
<polygon fill="midnightblue" stroke="midnightblue" points="597.87,-312.76 607.75,-308.94 597.64,-305.77 597.87,-312.76"/>
</g>
<!-- Node6&#45;&gt;Node17 -->
<g id="edge19" class="edge">
<title>Node6&#45;&gt;Node17</title>
<path fill="none" stroke="midnightblue" d="M482.54,-322.7C567.45,-346.11 802.16,-410.83 916.39,-442.32"/>
<polygon fill="midnightblue" stroke="midnightblue" points="915.49,-445.71 926.06,-444.99 917.35,-438.96 915.49,-445.71"/>
</g>
<!-- Node18 -->
<g id="node18" class="node">
<title>Node18</title>
<g id="a_node18"><a xlink:href="class_field.html#a81822f0090fbb9f187fe4d3d15c7ab96" target="_top" xlink:title=" ">
<polygon fill="white" stroke="black" points="935.5,-238.5 935.5,-257.5 1027.5,-257.5 1027.5,-238.5 935.5,-238.5"/>
<text text-anchor="middle" x="981.5" y="-245.5" font-family="Helvetica,sans-Serif" font-size="10.00">Field::GetCellPos</text>
</a>
</g>
</g>
<!-- Node6&#45;&gt;Node18 -->
<g id="edge17" class="edge">
<title>Node6&#45;&gt;Node18</title>
<path fill="none" stroke="midnightblue" d="M482.67,-306.45C506.77,-300.93 540.82,-293.64 571,-289 697.05,-269.62 846.39,-257.33 925.27,-251.67"/>
<polygon fill="midnightblue" stroke="midnightblue" points="925.74,-255.14 935.46,-250.95 925.24,-248.16 925.74,-255.14"/>
</g>
<!-- Node6&#45;&gt;Node19 -->
<g id="edge18" class="edge">
<title>Node6&#45;&gt;Node19</title>
<path fill="none" stroke="midnightblue" d="M482.57,-311.39C499.06,-308.95 519.08,-304.2 535,-295 555.43,-283.2 551.88,-269.82 571,-256 576.15,-252.27 581.84,-248.85 587.66,-245.75"/>
<polygon fill="midnightblue" stroke="midnightblue" points="589.46,-248.77 596.84,-241.16 586.33,-242.5 589.46,-248.77"/>
</g>
<!-- Node7&#45;&gt;Node8 -->
<g id="edge7" class="edge">
<title>Node7&#45;&gt;Node8</title>
<path fill="none" stroke="midnightblue" d="M668.3,-308.53C691.92,-308.96 725.72,-309.57 753.8,-310.07"/>
<polygon fill="midnightblue" stroke="midnightblue" points="753.79,-313.58 763.86,-310.26 753.92,-306.58 753.79,-313.58"/>
</g>
<!-- Node9 -->
<g id="node9" class="node">
<title>Node9</title>
<g id="a_node9"><a xlink:href="class_graphics_1_1_image.html#af48c0e309532eb1ff36e8fdaee244da1" target="_top" xlink:title=" ">
<polygon fill="white" stroke="black" points="924.5,-301.5 924.5,-320.5 1038.5,-320.5 1038.5,-301.5 924.5,-301.5"/>
<text text-anchor="middle" x="981.5" y="-308.5" font-family="Helvetica,sans-Serif" font-size="10.00">Graphics::Image::Draw</text>
</a>
</g>
</g>
<!-- Node8&#45;&gt;Node9 -->
<g id="edge8" class="edge">
<title>Node8&#45;&gt;Node9</title>
<path fill="none" stroke="midnightblue" d="M848.12,-311C867.84,-311 891.97,-311 914.2,-311"/>
<polygon fill="midnightblue" stroke="midnightblue" points="914.25,-314.5 924.25,-311 914.25,-307.5 914.25,-314.5"/>
</g>
<!-- Node15 -->
<g id="node15" class="node">
<title>Node15</title>
<g id="a_node15"><a xlink:href="class_graphics_1_1_resource_manager.html#a712cf513dbda24deb3a7fcea7157003a" target="_top" xlink:title=" ">
<polygon fill="white" stroke="black" points="912,-340 912,-370 1051,-370 1051,-340 912,-340"/>
<text text-anchor="start" x="920" y="-358" font-family="Helvetica,sans-Serif" font-size="10.00">Graphics::ResourceManager</text>
<text text-anchor="middle" x="981.5" y="-347" font-family="Helvetica,sans-Serif" font-size="10.00">::GetImage</text>
</a>
</g>
</g>
<!-- Node8&#45;&gt;Node15 -->
<g id="edge14" class="edge">
<title>Node8&#45;&gt;Node15</title>
<path fill="none" stroke="midnightblue" d="M844.65,-320.55C864.09,-325.48 888.45,-331.66 911.15,-337.41"/>
<polygon fill="midnightblue" stroke="midnightblue" points="910.54,-340.87 921.09,-339.93 912.26,-334.08 910.54,-340.87"/>
</g>
<!-- Node16 -->
<g id="node16" class="node">
<title>Node16</title>
<g id="a_node16"><a xlink:href="class_graphics_1_1_resource_manager.html#a34d11294bd090580de46ab34f303c2ab" target="_top" xlink:title=" ">
<polygon fill="white" stroke="black" points="912,-394 912,-424 1051,-424 1051,-394 912,-394"/>
<text text-anchor="start" x="920" y="-412" font-family="Helvetica,sans-Serif" font-size="10.00">Graphics::ResourceManager</text>
<text text-anchor="middle" x="981.5" y="-401" font-family="Helvetica,sans-Serif" font-size="10.00">::GetShader</text>
</a>
</g>
</g>
<!-- Node8&#45;&gt;Node16 -->
<g id="edge15" class="edge">
<title>Node8&#45;&gt;Node16</title>
<path fill="none" stroke="midnightblue" d="M842.59,-320.52C852.34,-324.12 862.55,-328.87 871,-335 891.73,-350.04 886.39,-364.79 907,-380 911.74,-383.5 916.95,-386.64 922.35,-389.44"/>
<polygon fill="midnightblue" stroke="midnightblue" points="921.03,-392.69 931.56,-393.85 924.05,-386.37 921.03,-392.69"/>
</g>
<!-- Node8&#45;&gt;Node17 -->
<g id="edge16" class="edge">
<title>Node8&#45;&gt;Node17</title>
<path fill="none" stroke="midnightblue" d="M848.02,-320.4C856.44,-323.87 864.65,-328.59 871,-335 903.94,-368.27 873.75,-401.04 907,-434 908.89,-435.88 910.93,-437.62 913.08,-439.23"/>
<polygon fill="midnightblue" stroke="midnightblue" points="911.53,-442.4 921.83,-444.87 915.31,-436.51 911.53,-442.4"/>
</g>
<!-- Node10 -->
<g id="node10" class="node">
<title>Node10</title>
<g id="a_node10"><a xlink:href="class_graphics_1_1_quadrangle.html#a7a061a60b5bff19feb5fd317d06495f0" target="_top" xlink:title=" ">
<polygon fill="white" stroke="black" points="1092,-371 1092,-401 1202,-401 1202,-371 1092,-371"/>
<text text-anchor="start" x="1100" y="-389" font-family="Helvetica,sans-Serif" font-size="10.00">Graphics::Quadrangle</text>
<text text-anchor="middle" x="1147" y="-378" font-family="Helvetica,sans-Serif" font-size="10.00">::Draw</text>
</a>
</g>
</g>
<!-- Node9&#45;&gt;Node10 -->
<g id="edge9" class="edge">
<title>Node9&#45;&gt;Node10</title>
<path fill="none" stroke="midnightblue" d="M1025.56,-320.53C1035.73,-323.38 1046.41,-326.86 1056,-331 1077.34,-340.2 1099.63,-353.79 1116.69,-365.16"/>
<polygon fill="midnightblue" stroke="midnightblue" points="1114.87,-368.15 1125.11,-370.87 1118.8,-362.36 1114.87,-368.15"/>
</g>
<!-- Node13 -->
<g id="node13" class="node">
<title>Node13</title>
<g id="a_node13"><a xlink:href="class_graphics_1_1_shader.html#aa5da414808337285b38565f60c3d7cbd" target="_top" xlink:title=" ">
<polygon fill="white" stroke="black" points="1092,-301.5 1092,-320.5 1202,-320.5 1202,-301.5 1092,-301.5"/>
<text text-anchor="middle" x="1147" y="-308.5" font-family="Helvetica,sans-Serif" font-size="10.00">Graphics::Shader::Set</text>
</a>
</g>
</g>
<!-- Node9&#45;&gt;Node13 -->
<g id="edge12" class="edge">
<title>Node9&#45;&gt;Node13</title>
<path fill="none" stroke="midnightblue" d="M1038.77,-311C1052.59,-311 1067.5,-311 1081.67,-311"/>
<polygon fill="midnightblue" stroke="midnightblue" points="1081.84,-314.5 1091.84,-311 1081.84,-307.5 1081.84,-314.5"/>
</g>
<!-- Node11 -->
<g id="node11" class="node">
<title>Node11</title>
<g id="a_node11"><a xlink:href="class_graphics_1_1_shader.html#a63bfd523754bb6b2224aa7a48c65a504" target="_top" xlink:title=" ">
<polygon fill="white" stroke="black" points="1238,-376.5 1238,-395.5 1357,-395.5 1357,-376.5 1238,-376.5"/>
<text text-anchor="middle" x="1297.5" y="-383.5" font-family="Helvetica,sans-Serif" font-size="10.00">Graphics::Shader::GetId</text>
</a>
</g>
</g>
<!-- Node10&#45;&gt;Node11 -->
<g id="edge10" class="edge">
<title>Node10&#45;&gt;Node11</title>
<path fill="none" stroke="midnightblue" d="M1202.03,-386C1210.44,-386 1219.21,-386 1227.89,-386"/>
<polygon fill="midnightblue" stroke="midnightblue" points="1228,-389.5 1238,-386 1228,-382.5 1228,-389.5"/>
</g>
<!-- Node12 -->
<g id="node12" class="node">
<title>Node12</title>
<g id="a_node12"><a xlink:href="class_graphics_1_1_shader.html#a11a2de17d1d077ec34acd4f7cd57f6b1" target="_top" xlink:title=" ">
<polygon fill="white" stroke="black" points="1241,-456.5 1241,-475.5 1354,-475.5 1354,-456.5 1241,-456.5"/>
<text text-anchor="middle" x="1297.5" y="-463.5" font-family="Helvetica,sans-Serif" font-size="10.00">Graphics::Shader::Use</text>
</a>
</g>
</g>
<!-- Node10&#45;&gt;Node12 -->
<g id="edge11" class="edge">
<title>Node10&#45;&gt;Node12</title>
<path fill="none" stroke="midnightblue" d="M1175.93,-401.05C1202.72,-415.48 1242.9,-437.13 1269.41,-451.4"/>
<polygon fill="midnightblue" stroke="midnightblue" points="1268.04,-454.64 1278.5,-456.3 1271.36,-448.48 1268.04,-454.64"/>
</g>
<!-- Node14 -->
<g id="node14" class="node">
<title>Node14</title>
<g id="a_node14"><a xlink:href="class_graphics_1_1_image.html#aab55feadb4b66e0fd78b5f54a6fadde2" target="_top" xlink:title=" ">
<polygon fill="white" stroke="black" points="1239.5,-301.5 1239.5,-320.5 1355.5,-320.5 1355.5,-301.5 1239.5,-301.5"/>
<text text-anchor="middle" x="1297.5" y="-308.5" font-family="Helvetica,sans-Serif" font-size="10.00">Graphics::Image::GetId</text>
</a>
</g>
</g>
<!-- Node13&#45;&gt;Node14 -->
<g id="edge13" class="edge">
<title>Node13&#45;&gt;Node14</title>
<path fill="none" stroke="midnightblue" d="M1202.03,-311C1210.83,-311 1220.04,-311 1229.11,-311"/>
<polygon fill="midnightblue" stroke="midnightblue" points="1229.26,-314.5 1239.26,-311 1229.26,-307.5 1229.26,-314.5"/>
</g>
<!-- Node25 -->
<g id="node25" class="node">
<title>Node25</title>
<g id="a_node25"><a xlink:href="class_graphics_1_1_window.html#a9904449165571eff36b106148ec1279f" target="_top" xlink:title=" ">
<polygon fill="white" stroke="black" points="577,-412.5 577,-431.5 699,-431.5 699,-412.5 577,-412.5"/>
<text text-anchor="middle" x="638" y="-419.5" font-family="Helvetica,sans-Serif" font-size="10.00">Graphics::Window::Clear</text>
</a>
</g>
</g>
<!-- Node24&#45;&gt;Node25 -->
<g id="edge28" class="edge">
<title>Node24&#45;&gt;Node25</title>
<path fill="none" stroke="midnightblue" d="M515.01,-425.94C531.63,-425.4 549.63,-424.82 566.56,-424.27"/>
<polygon fill="midnightblue" stroke="midnightblue" points="567.06,-427.76 576.94,-423.94 566.83,-420.76 567.06,-427.76"/>
</g>
<!-- Node29 -->
<g id="node29" class="node">
<title>Node29</title>
<g id="a_node29"><a xlink:href="class_cell.html#a4ab1e51777a98363d170f41754e204c0" target="_top" xlink:title=" ">
<polygon fill="white" stroke="black" points="422.5,-0.5 422.5,-19.5 477.5,-19.5 477.5,-0.5 422.5,-0.5"/>
<text text-anchor="middle" x="450" y="-7.5" font-family="Helvetica,sans-Serif" font-size="10.00">Cell::Add</text>
</a>
</g>
</g>
<!-- Node28&#45;&gt;Node29 -->
<g id="edge34" class="edge">
<title>Node28&#45;&gt;Node29</title>
<path fill="none" stroke="midnightblue" d="M305.09,-15.92C338.62,-14.54 381.85,-12.76 412.14,-11.52"/>
<polygon fill="midnightblue" stroke="midnightblue" points="412.43,-15.01 422.28,-11.1 412.14,-8.01 412.43,-15.01"/>
</g>
<!-- Node30&#45;&gt;Node16 -->
<g id="edge37" class="edge">
<title>Node30&#45;&gt;Node16</title>
<path fill="none" stroke="midnightblue" d="M813.08,-573.64C825.9,-543.13 858.57,-474.52 907,-436 910.35,-433.33 913.99,-430.92 917.8,-428.72"/>
<polygon fill="midnightblue" stroke="midnightblue" points="919.64,-431.71 926.92,-424.01 916.43,-425.49 919.64,-431.71"/>
</g>
<!-- Node30&#45;&gt;Node17 -->
<g id="edge38" class="edge">
<title>Node30&#45;&gt;Node17</title>
<path fill="none" stroke="midnightblue" d="M849.91,-573.88C857.54,-569.86 864.97,-564.94 871,-559 897.05,-533.33 879.57,-509.2 907,-485 908.77,-483.44 910.63,-481.98 912.58,-480.61"/>
<polygon fill="midnightblue" stroke="midnightblue" points="914.82,-483.34 921.55,-475.16 911.19,-477.36 914.82,-483.34"/>
</g>
<!-- Node31 -->
<g id="node31" class="node">
<title>Node31</title>
<g id="a_node31"><a xlink:href="class_graphics_1_1_resource_manager.html#ae025beebad6dbc29580a8d1d28ef4e9b" target="_top" xlink:title=" ">
<polygon fill="white" stroke="black" points="912,-641 912,-671 1051,-671 1051,-641 912,-641"/>
<text text-anchor="start" x="920" y="-659" font-family="Helvetica,sans-Serif" font-size="10.00">Graphics::ResourceManager</text>
<text text-anchor="middle" x="981.5" y="-648" font-family="Helvetica,sans-Serif" font-size="10.00">::CreateWindow</text>
</a>
</g>
</g>
<!-- Node30&#45;&gt;Node31 -->
<g id="edge36" class="edge">
<title>Node30&#45;&gt;Node31</title>
<path fill="none" stroke="midnightblue" d="M840.03,-604.09C859.37,-612.71 884.37,-623.46 907,-632 912.02,-633.9 917.27,-635.79 922.55,-637.62"/>
<polygon fill="midnightblue" stroke="midnightblue" points="921.45,-640.95 932.05,-640.87 923.72,-634.32 921.45,-640.95"/>
</g>
<!-- Node32 -->
<g id="node32" class="node">
<title>Node32</title>
<g id="a_node32"><a xlink:href="class_graphics_1_1_resource_manager.html#a30a44b1a9b80d88c3e9d4f39a0672c11" target="_top" xlink:title=" ">
<polygon fill="white" stroke="black" points="912,-592 912,-622 1051,-622 1051,-592 912,-592"/>
<text text-anchor="start" x="920" y="-610" font-family="Helvetica,sans-Serif" font-size="10.00">Graphics::ResourceManager</text>
<text text-anchor="middle" x="981.5" y="-599" font-family="Helvetica,sans-Serif" font-size="10.00">::LoadImage</text>
</a>
</g>
</g>
<!-- Node30&#45;&gt;Node32 -->
<g id="edge39" class="edge">
<title>Node30&#45;&gt;Node32</title>
<path fill="none" stroke="midnightblue" d="M871.11,-595.65C881.1,-596.69 891.52,-597.77 901.79,-598.83"/>
<polygon fill="midnightblue" stroke="midnightblue" points="901.68,-602.34 911.99,-599.89 902.41,-595.38 901.68,-602.34"/>
</g>
<!-- Node33 -->
<g id="node33" class="node">
<title>Node33</title>
<g id="a_node33"><a xlink:href="class_graphics_1_1_resource_manager.html#a89192a1a222927aff3890b953dd1f058" target="_top" xlink:title=" ">
<polygon fill="white" stroke="black" points="912,-543 912,-573 1051,-573 1051,-543 912,-543"/>
<text text-anchor="start" x="920" y="-561" font-family="Helvetica,sans-Serif" font-size="10.00">Graphics::ResourceManager</text>
<text text-anchor="middle" x="981.5" y="-550" font-family="Helvetica,sans-Serif" font-size="10.00">::LoadShader</text>
</a>
</g>
</g>
<!-- Node30&#45;&gt;Node33 -->
<g id="edge40" class="edge">
<title>Node30&#45;&gt;Node33</title>
<path fill="none" stroke="midnightblue" d="M871.11,-577.54C881.21,-575.74 891.74,-573.86 902.12,-572.01"/>
<polygon fill="midnightblue" stroke="midnightblue" points="902.76,-575.44 911.99,-570.24 901.53,-568.55 902.76,-575.44"/>
</g>
<!-- Node34 -->
<g id="node34" class="node">
<title>Node34</title>
<g id="a_node34"><a xlink:href="class_graphics_1_1_shader.html#ab82f9feaa1c7c5623eaf7bb03c061e0a" target="_top" xlink:title=" ">
<polygon fill="white" stroke="black" points="907,-494 907,-524 1056,-524 1056,-494 907,-494"/>
<text text-anchor="start" x="915" y="-512" font-family="Helvetica,sans-Serif" font-size="10.00">Graphics::Shader::SetProjector</text>
<text text-anchor="middle" x="981.5" y="-501" font-family="Helvetica,sans-Serif" font-size="10.00">Matrix</text>
</a>
</g>
</g>
<!-- Node30&#45;&gt;Node34 -->
<g id="edge41" class="edge">
<title>Node30&#45;&gt;Node34</title>
<path fill="none" stroke="midnightblue" d="M842.09,-573.85C851.63,-569.38 861.86,-564.27 871,-559 887.88,-549.28 889.61,-542.78 907,-534 911.29,-531.84 915.8,-529.79 920.4,-527.87"/>
<polygon fill="midnightblue" stroke="midnightblue" points="921.9,-531.04 929.92,-524.12 919.33,-524.53 921.9,-531.04"/>
</g>
<!-- Node34&#45;&gt;Node12 -->
<g id="edge43" class="edge">
<title>Node34&#45;&gt;Node12</title>
<path fill="none" stroke="midnightblue" d="M1056.04,-505.62C1098.85,-502.91 1153.73,-498.16 1202,-490 1219.42,-487.05 1238.33,-482.52 1254.64,-478.19"/>
<polygon fill="midnightblue" stroke="midnightblue" points="1255.68,-481.53 1264.41,-475.53 1253.84,-474.78 1255.68,-481.53"/>
</g>
<!-- Node35 -->
<g id="node35" class="node">
<title>Node35</title>
<g id="a_node35"><a xlink:href="class_graphics_1_1_transform.html#a5e301531e0b340509d10dd5dad929b9c" target="_top" xlink:title=" ">
<polygon fill="white" stroke="black" points="1095,-450 1095,-480 1199,-480 1199,-450 1095,-450"/>
<text text-anchor="start" x="1103" y="-468" font-family="Helvetica,sans-Serif" font-size="10.00">Graphics::Transform</text>
<text text-anchor="middle" x="1147" y="-457" font-family="Helvetica,sans-Serif" font-size="10.00">::GetMatrix</text>
</a>
</g>
</g>
<!-- Node34&#45;&gt;Node35 -->
<g id="edge42" class="edge">
<title>Node34&#45;&gt;Node35</title>
<path fill="none" stroke="midnightblue" d="M1038.31,-493.98C1053.34,-489.94 1069.67,-485.54 1084.96,-481.43"/>
<polygon fill="midnightblue" stroke="midnightblue" points="1086.09,-484.75 1094.84,-478.77 1084.27,-477.99 1086.09,-484.75"/>
</g>
<!-- Node36&#45;&gt;Node21 -->
<g id="edge45" class="edge">
<title>Node36&#45;&gt;Node21</title>
<path fill="none" stroke="midnightblue" d="M288.12,-168.34C301.01,-165.17 315.78,-161.24 329,-157 345.35,-151.76 348.58,-148.02 365,-143 374.13,-140.21 383.92,-137.63 393.49,-135.33"/>
<polygon fill="midnightblue" stroke="midnightblue" points="394.39,-138.71 403.34,-133.04 392.8,-131.9 394.39,-138.71"/>
</g>
<!-- Node37 -->
<g id="node37" class="node">
<title>Node37</title>
<g id="a_node37"><a xlink:href="class_field.html#a5f554e84e4bc9af72e5d262f41e97493" target="_top" xlink:title=" ">
<polygon fill="white" stroke="black" points="419.5,-76.5 419.5,-95.5 480.5,-95.5 480.5,-76.5 419.5,-76.5"/>
<text text-anchor="middle" x="450" y="-83.5" font-family="Helvetica,sans-Serif" font-size="10.00">Field::Tick</text>
</a>
</g>
</g>
<!-- Node36&#45;&gt;Node37 -->
<g id="edge46" class="edge">
<title>Node36&#45;&gt;Node37</title>
<path fill="none" stroke="midnightblue" d="M288.17,-172.62C301.77,-169.98 317.05,-165.3 329,-157 352.08,-140.96 341.7,-120.73 365,-105 377.99,-96.23 394.42,-91.46 409.3,-88.88"/>
<polygon fill="midnightblue" stroke="midnightblue" points="409.9,-92.33 419.29,-87.42 408.89,-85.4 409.9,-92.33"/>
</g>
<!-- Node38 -->
<g id="node38" class="node">
<title>Node38</title>
<g id="a_node38"><a xlink:href="class_player.html#ac9010645b179712c09ebd310e5fe48eb" target="_top" xlink:title=" ">
<polygon fill="white" stroke="black" points="416.5,-38.5 416.5,-57.5 483.5,-57.5 483.5,-38.5 416.5,-38.5"/>
<text text-anchor="middle" x="450" y="-45.5" font-family="Helvetica,sans-Serif" font-size="10.00">Player::Tick</text>
</a>
</g>
</g>
<!-- Node36&#45;&gt;Node38 -->
<g id="edge47" class="edge">
<title>Node36&#45;&gt;Node38</title>
<path fill="none" stroke="midnightblue" d="M288.03,-174.09C302.1,-171.73 317.76,-166.86 329,-157 361.39,-128.59 332.23,-94.96 365,-67 376.35,-57.32 391.61,-52.3 406.01,-49.77"/>
<polygon fill="midnightblue" stroke="midnightblue" points="406.86,-53.19 416.28,-48.35 405.89,-46.26 406.86,-53.19"/>
</g>
<!-- Node39 -->
<g id="node39" class="node">
<title>Node39</title>
<g id="a_node39"><a xlink:href="struct_vector2_d.html#a4243151f5398e352a38073c4e1dfd30b" target="_top" xlink:title=" ">
<polygon fill="white" stroke="black" points="582,-38.5 582,-57.5 694,-57.5 694,-38.5 582,-38.5"/>
<text text-anchor="middle" x="638" y="-45.5" font-family="Helvetica,sans-Serif" font-size="10.00">Vector2D&lt; float &gt;::dist</text>
</a>
</g>
</g>
<!-- Node38&#45;&gt;Node39 -->
<g id="edge48" class="edge">
<title>Node38&#45;&gt;Node39</title>
<path fill="none" stroke="midnightblue" d="M483.82,-48C508.08,-48 541.91,-48 571.6,-48"/>
<polygon fill="midnightblue" stroke="midnightblue" points="571.91,-51.5 581.91,-48 571.91,-44.5 571.91,-51.5"/>
</g>
<!-- Node40 -->
<g id="node40" class="node">
<title>Node40</title>
<g id="a_node40"><a xlink:href="class_world_actor.html#a211b1d4fdcd4eaed756b3602b6dfb412" target="_top" xlink:title=" ">
<polygon fill="white" stroke="black" points="594,-159.5 594,-178.5 682,-178.5 682,-159.5 594,-159.5"/>
<text text-anchor="middle" x="638" y="-166.5" font-family="Helvetica,sans-Serif" font-size="10.00">WorldActor::Tick</text>
</a>
</g>
</g>
<!-- Node38&#45;&gt;Node40 -->
<g id="edge49" class="edge">
<title>Node38&#45;&gt;Node40</title>
<path fill="none" stroke="midnightblue" d="M483.63,-51.05C499.85,-53.62 519.29,-58.34 535,-67 573.33,-88.14 606.87,-127.96 624.29,-151.1"/>
<polygon fill="midnightblue" stroke="midnightblue" points="621.61,-153.36 630.35,-159.35 627.25,-149.22 621.61,-153.36"/>
</g>
<!-- Node41 -->
<g id="node41" class="node">
<title>Node41</title>
<g id="a_node41"><a xlink:href="class_field.html#a8ce096331f51a8e41e54c0ce4e8ac43a" target="_top" xlink:title=" ">
<polygon fill="white" stroke="black" points="760,-216.5 760,-235.5 852,-235.5 852,-216.5 760,-216.5"/>
<text text-anchor="middle" x="806" y="-223.5" font-family="Helvetica,sans-Serif" font-size="10.00">Field::GetBuilding</text>
</a>
</g>
</g>
<!-- Node40&#45;&gt;Node41 -->
<g id="edge50" class="edge">
<title>Node40&#45;&gt;Node41</title>
<path fill="none" stroke="midnightblue" d="M666.78,-178.54C694.43,-188.03 737.05,-202.67 767.65,-213.17"/>
<polygon fill="midnightblue" stroke="midnightblue" points="766.53,-216.49 777.12,-216.43 768.8,-209.87 766.53,-216.49"/>
</g>
<!-- Node42 -->
<g id="node42" class="node">
<title>Node42</title>
<g id="a_node42"><a xlink:href="class_field.html#a5a202354dc5e99cb7f51121904256845" target="_top" xlink:title=" ">
<polygon fill="white" stroke="black" points="769,-166.5 769,-185.5 843,-185.5 843,-166.5 769,-166.5"/>
<text text-anchor="middle" x="806" y="-173.5" font-family="Helvetica,sans-Serif" font-size="10.00">Field::GetCell</text>
</a>
</g>
</g>
<!-- Node40&#45;&gt;Node42 -->
<g id="edge52" class="edge">
<title>Node40&#45;&gt;Node42</title>
<path fill="none" stroke="midnightblue" d="M682.18,-170.82C705.61,-171.81 734.59,-173.03 758.51,-174.04"/>
<polygon fill="midnightblue" stroke="midnightblue" points="758.63,-177.55 768.77,-174.47 758.93,-170.55 758.63,-177.55"/>
</g>
<!-- Node43 -->
<g id="node43" class="node">
<title>Node43</title>
<g id="a_node43"><a xlink:href="class_cell.html#ac21e31812473f2d969ff434b35a81825" target="_top" xlink:title=" ">
<polygon fill="white" stroke="black" points="765.5,-128.5 765.5,-147.5 846.5,-147.5 846.5,-128.5 765.5,-128.5"/>
<text text-anchor="middle" x="806" y="-135.5" font-family="Helvetica,sans-Serif" font-size="10.00">Cell::GetSpeed</text>
</a>
</g>
</g>
<!-- Node40&#45;&gt;Node43 -->
<g id="edge53" class="edge">
<title>Node40&#45;&gt;Node43</title>
<path fill="none" stroke="midnightblue" d="M682.18,-160.94C704.61,-156.75 732.12,-151.61 755.41,-147.26"/>
<polygon fill="midnightblue" stroke="midnightblue" points="756.26,-150.66 765.45,-145.39 754.97,-143.78 756.26,-150.66"/>
</g>
<!-- Node41&#45;&gt;Node18 -->
<g id="edge51" class="edge">
<title>Node41&#45;&gt;Node18</title>
<path fill="none" stroke="midnightblue" d="M852.13,-231.72C874.43,-234.55 901.55,-237.99 925.1,-240.98"/>
<polygon fill="midnightblue" stroke="midnightblue" points="924.93,-244.48 935.29,-242.27 925.81,-237.54 924.93,-244.48"/>
</g>
<!-- Node44&#45;&gt;Node17 -->
<g id="edge55" class="edge">
<title>Node44&#45;&gt;Node17</title>
<path fill="none" stroke="midnightblue" d="M698.88,-496.29C755.23,-489.02 839.97,-478.11 901.77,-470.14"/>
<polygon fill="midnightblue" stroke="midnightblue" points="902.4,-473.59 911.87,-468.84 901.51,-466.65 902.4,-473.59"/>
</g>
</g>
</svg>
