<?xml version="1.0" encoding="UTF-8" standalone="no"?>
<!DOCTYPE svg PUBLIC "-//W3C//DTD SVG 1.1//EN"
 "http://www.w3.org/Graphics/SVG/1.1/DTD/svg11.dtd">
<!-- Generated by graphviz version 2.47.0 (20210407.0042)
 -->
<!-- Title: main Pages: 1 -->
<svg width="1261pt" height="667pt"
 viewBox="0.00 0.00 1261.00 667.00" xmlns="http://www.w3.org/2000/svg" xmlns:xlink="http://www.w3.org/1999/xlink">
<g id="graph0" class="graph" transform="scale(1 1) rotate(0) translate(4 663)">
<title>main</title>
<polygon fill="white" stroke="transparent" points="-4,4 -4,-663 1257,-663 1257,4 -4,4"/>
<!-- Node1 -->
<g id="node1" class="node">
<title>Node1</title>
<g id="a_node1"><a xlink:title=" ">
<polygon fill="#bfbfbf" stroke="black" points="0,-221.5 0,-240.5 38,-240.5 38,-221.5 0,-221.5"/>
<text text-anchor="middle" x="19" y="-228.5" font-family="Helvetica,sans-Serif" font-size="10.00">main</text>
</a>
</g>
</g>
<!-- Node2 -->
<g id="node2" class="node">
<title>Node2</title>
<g id="a_node2"><a xlink:href="class_g_u_i_1_1_g_u_i_manager.html#a389847b5abdfcccebec914b1634cf7d1" target="_top" xlink:title=" ">
<polygon fill="white" stroke="black" points="74,-639.5 74,-658.5 225,-658.5 225,-639.5 74,-639.5"/>
<text text-anchor="middle" x="149.5" y="-646.5" font-family="Helvetica,sans-Serif" font-size="10.00">GUI::GUIManager::AddWindow</text>
</a>
</g>
</g>
<!-- Node1&#45;&gt;Node2 -->
<g id="edge1" class="edge">
<title>Node1&#45;&gt;Node2</title>
<path fill="none" stroke="midnightblue" d="M19.98,-240.84C20.06,-295.78 23.1,-564.29 74,-625 77.16,-628.77 80.92,-631.96 85.04,-634.64"/>
<polygon fill="midnightblue" stroke="midnightblue" points="83.49,-637.78 93.94,-639.5 86.84,-631.64 83.49,-637.78"/>
</g>
<!-- Node3 -->
<g id="node3" class="node">
<title>Node3</title>
<g id="a_node3"><a xlink:href="class_engine.html#a39f23d7f0ad86322bfdb73d4e6763005" target="_top" xlink:title=" ">
<polygon fill="white" stroke="black" points="113,-392.5 113,-411.5 186,-411.5 186,-392.5 113,-392.5"/>
<text text-anchor="middle" x="149.5" y="-399.5" font-family="Helvetica,sans-Serif" font-size="10.00">Engine::Draw</text>
</a>
</g>
</g>
<!-- Node1&#45;&gt;Node3 -->
<g id="edge2" class="edge">
<title>Node1&#45;&gt;Node3</title>
<path fill="none" stroke="midnightblue" d="M27.28,-240.68C48.13,-268.43 108.31,-348.52 135.22,-384.33"/>
<polygon fill="midnightblue" stroke="midnightblue" points="132.5,-386.53 141.3,-392.42 138.09,-382.33 132.5,-386.53"/>
</g>
<!-- Node16 -->
<g id="node16" class="node">
<title>Node16</title>
<g id="a_node16"><a xlink:href="class_graphics_1_1_resource_manager.html#a2bf0311bf4f8431618eb13706a26a5f1" target="_top" xlink:title=" ">
<polygon fill="white" stroke="black" points="808,-392 808,-422 947,-422 947,-392 808,-392"/>
<text text-anchor="start" x="816" y="-410" font-family="Helvetica,sans-Serif" font-size="10.00">Graphics::ResourceManager</text>
<text text-anchor="middle" x="877.5" y="-399" font-family="Helvetica,sans-Serif" font-size="10.00">::GetWindow</text>
</a>
</g>
</g>
<!-- Node1&#45;&gt;Node16 -->
<g id="edge30" class="edge">
<title>Node1&#45;&gt;Node16</title>
<path fill="none" stroke="midnightblue" d="M20.86,-240.86C23.82,-270.37 35.6,-359.67 74,-421 152.06,-545.68 197.9,-611 345,-611 345,-611 345,-611 535,-611 646.25,-611 687.72,-595.05 767,-517 796.24,-488.22 772.95,-459.94 803,-432 804.68,-430.43 806.47,-428.97 808.34,-427.59"/>
<polygon fill="midnightblue" stroke="midnightblue" points="810.4,-430.43 816.98,-422.12 806.66,-424.51 810.4,-430.43"/>
</g>
<!-- Node19 -->
<g id="node19" class="node">
<title>Node19</title>
<g id="a_node19"><a xlink:href="class_g_u_i_1_1_g_u_i_manager.html#a35c67b5beb3865f595f3f0353c9afd94" target="_top" xlink:title=" ">
<polygon fill="white" stroke="black" points="261,-259.5 261,-278.5 431,-278.5 431,-259.5 261,-259.5"/>
<text text-anchor="middle" x="346" y="-266.5" font-family="Helvetica,sans-Serif" font-size="10.00">GUI::GUIManager::GetGUIManager</text>
</a>
</g>
</g>
<!-- Node1&#45;&gt;Node19 -->
<g id="edge29" class="edge">
<title>Node1&#45;&gt;Node19</title>
<path fill="none" stroke="midnightblue" d="M38.33,-236.56C48.71,-239.5 61.97,-242.92 74,-245 132.25,-255.06 198.32,-261.02 250.64,-264.48"/>
<polygon fill="midnightblue" stroke="midnightblue" points="250.71,-268 260.91,-265.14 251.16,-261.01 250.71,-268"/>
</g>
<!-- Node24 -->
<g id="node24" class="node">
<title>Node24</title>
<g id="a_node24"><a xlink:href="class_engine.html#acdcf4afb71571455296d5e09e270b496" target="_top" xlink:title=" ">
<polygon fill="white" stroke="black" points="298.5,-152.5 298.5,-171.5 393.5,-171.5 393.5,-152.5 298.5,-152.5"/>
<text text-anchor="middle" x="346" y="-159.5" font-family="Helvetica,sans-Serif" font-size="10.00">Engine::GetEngine</text>
</a>
</g>
</g>
<!-- Node1&#45;&gt;Node24 -->
<g id="edge27" class="edge">
<title>Node1&#45;&gt;Node24</title>
<path fill="none" stroke="midnightblue" d="M24.08,-221.38C31.4,-205.53 48.43,-174.46 74,-162 146.27,-126.79 242.79,-138.58 299,-150.32"/>
<polygon fill="midnightblue" stroke="midnightblue" points="298.49,-153.79 309.01,-152.5 299.98,-146.95 298.49,-153.79"/>
</g>
<!-- Node25 -->
<g id="node25" class="node">
<title>Node25</title>
<g id="a_node25"><a xlink:href="class_graphics_1_1_resource_manager.html#a79f4e066410f871bee9bc241ba87fcb6" target="_top" xlink:title=" ">
<polygon fill="white" stroke="black" points="80,-172 80,-202 219,-202 219,-172 80,-172"/>
<text text-anchor="start" x="88" y="-190" font-family="Helvetica,sans-Serif" font-size="10.00">Graphics::ResourceManager</text>
<text text-anchor="middle" x="149.5" y="-179" font-family="Helvetica,sans-Serif" font-size="10.00">::GetEventHandler</text>
</a>
</g>
</g>
<!-- Node1&#45;&gt;Node25 -->
<g id="edge28" class="edge">
<title>Node1&#45;&gt;Node25</title>
<path fill="none" stroke="midnightblue" d="M38.14,-224.79C53.01,-219.7 74.85,-212.22 95.18,-205.26"/>
<polygon fill="midnightblue" stroke="midnightblue" points="96.37,-208.55 104.69,-202 94.1,-201.93 96.37,-208.55"/>
</g>
<!-- Node26 -->
<g id="node26" class="node">
<title>Node26</title>
<g id="a_node26"><a xlink:href="main_8cpp.html#adb66f09c018c6ec5f3ade6acd02a5003" target="_top" xlink:title=" ">
<polygon fill="white" stroke="black" points="115.5,-95.5 115.5,-114.5 183.5,-114.5 183.5,-95.5 115.5,-95.5"/>
<text text-anchor="middle" x="149.5" y="-102.5" font-family="Helvetica,sans-Serif" font-size="10.00">Initialization</text>
</a>
</g>
</g>
<!-- Node1&#45;&gt;Node26 -->
<g id="edge31" class="edge">
<title>Node1&#45;&gt;Node26</title>
<path fill="none" stroke="midnightblue" d="M22.46,-221.29C28.08,-201.09 43.75,-154.36 74,-129 83.02,-121.44 94.47,-116.24 105.66,-112.68"/>
<polygon fill="midnightblue" stroke="midnightblue" points="106.69,-116.03 115.37,-109.96 104.8,-109.29 106.69,-116.03"/>
</g>
<!-- Node35 -->
<g id="node35" class="node">
<title>Node35</title>
<g id="a_node35"><a xlink:href="class_engine.html#a06d3e75a7f768f0d48746aea00483724" target="_top" xlink:title=" ">
<polygon fill="white" stroke="black" points="115,-38.5 115,-57.5 184,-57.5 184,-38.5 115,-38.5"/>
<text text-anchor="middle" x="149.5" y="-45.5" font-family="Helvetica,sans-Serif" font-size="10.00">Engine::Tick</text>
</a>
</g>
</g>
<!-- Node1&#45;&gt;Node35 -->
<g id="edge44" class="edge">
<title>Node1&#45;&gt;Node35</title>
<path fill="none" stroke="midnightblue" d="M21.16,-221.3C24.65,-196.03 37.19,-127.32 74,-86 83.31,-75.55 96.18,-67.58 108.6,-61.7"/>
<polygon fill="midnightblue" stroke="midnightblue" points="110.19,-64.83 117.95,-57.61 107.38,-58.42 110.19,-64.83"/>
</g>
<!-- Node39 -->
<g id="node39" class="node">
<title>Node39</title>
<g id="a_node39"><a xlink:href="class_event_handler.html#a53ee17f2156ec5ad0769743f39ea259d" target="_top" xlink:title=" ">
<polygon fill="white" stroke="black" points="641.5,-248 641.5,-278 762.5,-278 762.5,-248 641.5,-248"/>
<text text-anchor="start" x="649.5" y="-266" font-family="Helvetica,sans-Serif" font-size="10.00">EventHandler::TriggerAll</text>
<text text-anchor="middle" x="702" y="-255" font-family="Helvetica,sans-Serif" font-size="10.00">Events</text>
</a>
</g>
</g>
<!-- Node1&#45;&gt;Node39 -->
<g id="edge48" class="edge">
<title>Node1&#45;&gt;Node39</title>
<path fill="none" stroke="midnightblue" d="M38.03,-231.82C95.42,-234.44 279.02,-242.83 431,-250 499.04,-253.21 576.72,-256.96 631.24,-259.6"/>
<polygon fill="midnightblue" stroke="midnightblue" points="631.32,-263.11 641.48,-260.1 631.66,-256.12 631.32,-263.11"/>
</g>
<!-- Node4 -->
<g id="node4" class="node">
<title>Node4</title>
<g id="a_node4"><a xlink:href="class_g_u_i_1_1_g_u_i_manager.html#a4b30f151da1c9091236f1b4345d68126" target="_top" xlink:title=" ">
<polygon fill="white" stroke="black" points="285,-525.5 285,-544.5 407,-544.5 407,-525.5 285,-525.5"/>
<text text-anchor="middle" x="346" y="-532.5" font-family="Helvetica,sans-Serif" font-size="10.00">GUI::GUIManager::Draw</text>
</a>
</g>
</g>
<!-- Node3&#45;&gt;Node4 -->
<g id="edge3" class="edge">
<title>Node3&#45;&gt;Node4</title>
<path fill="none" stroke="midnightblue" d="M156.92,-411.77C172.12,-434.07 212.69,-488.87 261,-516 265.45,-518.5 270.2,-520.67 275.11,-522.55"/>
<polygon fill="midnightblue" stroke="midnightblue" points="274.07,-525.9 284.67,-525.84 276.35,-519.28 274.07,-525.9"/>
</g>
<!-- Node5 -->
<g id="node5" class="node">
<title>Node5</title>
<g id="a_node5"><a xlink:href="class_field.html#ad13d86066be42a2e10fcb9cbcc51fb0b" target="_top" xlink:title=" ">
<polygon fill="white" stroke="black" points="313.5,-487.5 313.5,-506.5 378.5,-506.5 378.5,-487.5 313.5,-487.5"/>
<text text-anchor="middle" x="346" y="-494.5" font-family="Helvetica,sans-Serif" font-size="10.00">Field::Draw</text>
</a>
</g>
</g>
<!-- Node3&#45;&gt;Node5 -->
<g id="edge4" class="edge">
<title>Node3&#45;&gt;Node5</title>
<path fill="none" stroke="midnightblue" d="M162.73,-411.59C182.41,-426.6 222.77,-455.71 261,-473 274.34,-479.03 289.57,-483.93 303.37,-487.69"/>
<polygon fill="midnightblue" stroke="midnightblue" points="302.55,-491.09 313.11,-490.23 304.31,-484.32 302.55,-491.09"/>
</g>
<!-- Node7 -->
<g id="node7" class="node">
<title>Node7</title>
<g id="a_node7"><a xlink:href="class_drawable.html#ac46f25a963a3fe3e9176461d61d213c7" target="_top" xlink:title=" ">
<polygon fill="white" stroke="black" points="660,-488.5 660,-507.5 744,-507.5 744,-488.5 660,-488.5"/>
<text text-anchor="middle" x="702" y="-495.5" font-family="Helvetica,sans-Serif" font-size="10.00">Drawable::Draw</text>
</a>
</g>
</g>
<!-- Node3&#45;&gt;Node7 -->
<g id="edge19" class="edge">
<title>Node3&#45;&gt;Node7</title>
<path fill="none" stroke="midnightblue" d="M153.86,-411.54C164.37,-439.76 199.66,-522.76 261,-554 395.65,-622.58 454.78,-592.15 601,-554 630.75,-546.24 661.02,-527.44 680.34,-513.76"/>
<polygon fill="midnightblue" stroke="midnightblue" points="682.63,-516.43 688.66,-507.71 678.51,-510.77 682.63,-516.43"/>
</g>
<!-- Node3&#45;&gt;Node16 -->
<g id="edge22" class="edge">
<title>Node3&#45;&gt;Node16</title>
<path fill="none" stroke="midnightblue" d="M160.04,-392.34C177.92,-375.01 218.53,-339.19 261,-326 405.31,-281.16 451.43,-304.47 601,-326 622.66,-329.12 744.25,-366.08 818.48,-388.98"/>
<polygon fill="midnightblue" stroke="midnightblue" points="817.59,-392.37 828.17,-391.97 819.65,-385.68 817.59,-392.37"/>
</g>
<!-- Node18 -->
<g id="node18" class="node">
<title>Node18</title>
<g id="a_node18"><a xlink:href="class_graphics_1_1_window.html#aa834f03ccb101a164cdfdffa773c0a53" target="_top" xlink:title=" ">
<polygon fill="white" stroke="black" points="467,-400 467,-430 601,-430 601,-400 467,-400"/>
<text text-anchor="start" x="475" y="-418" font-family="Helvetica,sans-Serif" font-size="10.00">Graphics::Window::GetSize</text>
<text text-anchor="middle" x="534" y="-407" font-family="Helvetica,sans-Serif" font-size="10.00">Window</text>
</a>
</g>
</g>
<!-- Node3&#45;&gt;Node18 -->
<g id="edge21" class="edge">
<title>Node3&#45;&gt;Node18</title>
<path fill="none" stroke="midnightblue" d="M171.55,-411.59C193.39,-420.97 228.79,-434.62 261,-440 335.52,-452.46 355.99,-449.06 431,-440 444.41,-438.38 458.61,-435.6 472.01,-432.47"/>
<polygon fill="midnightblue" stroke="midnightblue" points="473.19,-435.79 482.08,-430.03 471.53,-428.99 473.19,-435.79"/>
</g>
<!-- Node3&#45;&gt;Node19 -->
<g id="edge20" class="edge">
<title>Node3&#45;&gt;Node19</title>
<path fill="none" stroke="midnightblue" d="M157.61,-392.22C173.61,-370.9 214.69,-320.04 261,-293 268.71,-288.5 277.31,-284.8 285.99,-281.77"/>
<polygon fill="midnightblue" stroke="midnightblue" points="287.33,-285.02 295.78,-278.63 285.19,-278.35 287.33,-285.02"/>
</g>
<!-- Node20 -->
<g id="node20" class="node">
<title>Node20</title>
<g id="a_node20"><a xlink:href="class_world_actor.html#a35b3672c657fd763d44c75f9625c1185" target="_top" xlink:title=" ">
<polygon fill="white" stroke="black" points="300,-411.5 300,-430.5 392,-430.5 392,-411.5 300,-411.5"/>
<text text-anchor="middle" x="346" y="-418.5" font-family="Helvetica,sans-Serif" font-size="10.00">WorldActor::GetX</text>
</a>
</g>
</g>
<!-- Node3&#45;&gt;Node20 -->
<g id="edge23" class="edge">
<title>Node3&#45;&gt;Node20</title>
<path fill="none" stroke="midnightblue" d="M186.17,-405.48C215.2,-408.32 256.64,-412.37 289.92,-415.62"/>
<polygon fill="midnightblue" stroke="midnightblue" points="289.67,-419.11 299.97,-416.6 290.35,-412.14 289.67,-419.11"/>
</g>
<!-- Node21 -->
<g id="node21" class="node">
<title>Node21</title>
<g id="a_node21"><a xlink:href="class_world_actor.html#a28d9235e9224dee56e6f32791d5931f0" target="_top" xlink:title=" ">
<polygon fill="white" stroke="black" points="300,-373.5 300,-392.5 392,-392.5 392,-373.5 300,-373.5"/>
<text text-anchor="middle" x="346" y="-380.5" font-family="Helvetica,sans-Serif" font-size="10.00">WorldActor::GetY</text>
</a>
</g>
</g>
<!-- Node3&#45;&gt;Node21 -->
<g id="edge24" class="edge">
<title>Node3&#45;&gt;Node21</title>
<path fill="none" stroke="midnightblue" d="M186.17,-398.52C215.2,-395.68 256.64,-391.63 289.92,-388.38"/>
<polygon fill="midnightblue" stroke="midnightblue" points="290.35,-391.86 299.97,-387.4 289.67,-384.89 290.35,-391.86"/>
</g>
<!-- Node22 -->
<g id="node22" class="node">
<title>Node22</title>
<g id="a_node22"><a xlink:href="class_graphics_1_1_window.html#a7863fafae23423f404bee7aa3a57e124" target="_top" xlink:title=" ">
<polygon fill="white" stroke="black" points="281,-335.5 281,-354.5 411,-354.5 411,-335.5 281,-335.5"/>
<text text-anchor="middle" x="346" y="-342.5" font-family="Helvetica,sans-Serif" font-size="10.00">Graphics::Window::Render</text>
</a>
</g>
</g>
<!-- Node3&#45;&gt;Node22 -->
<g id="edge25" class="edge">
<title>Node3&#45;&gt;Node22</title>
<path fill="none" stroke="midnightblue" d="M175.71,-392.45C197.94,-384.24 231.34,-372.43 261,-364 269.87,-361.48 279.35,-359.07 288.62,-356.86"/>
<polygon fill="midnightblue" stroke="midnightblue" points="289.61,-360.23 298.56,-354.56 288.03,-353.41 289.61,-360.23"/>
</g>
<!-- Node6 -->
<g id="node6" class="node">
<title>Node6</title>
<g id="a_node6"><a xlink:href="class_cell.html#ac88160c4177e146f8dd7482c4eaee4f0" target="_top" xlink:title=" ">
<polygon fill="white" stroke="black" points="504,-525.5 504,-544.5 564,-544.5 564,-525.5 504,-525.5"/>
<text text-anchor="middle" x="534" y="-532.5" font-family="Helvetica,sans-Serif" font-size="10.00">Cell::Draw</text>
</a>
</g>
</g>
<!-- Node5&#45;&gt;Node6 -->
<g id="edge5" class="edge">
<title>Node5&#45;&gt;Node6</title>
<path fill="none" stroke="midnightblue" d="M378.55,-503.45C410.3,-509.93 459.34,-519.95 493.62,-526.95"/>
<polygon fill="midnightblue" stroke="midnightblue" points="493.25,-530.45 503.75,-529.02 494.65,-523.59 493.25,-530.45"/>
</g>
<!-- Node5&#45;&gt;Node16 -->
<g id="edge18" class="edge">
<title>Node5&#45;&gt;Node16</title>
<path fill="none" stroke="midnightblue" d="M378.54,-491.64C459.99,-477.8 679.27,-440.52 797.84,-420.37"/>
<polygon fill="midnightblue" stroke="midnightblue" points="798.67,-423.78 807.94,-418.65 797.5,-416.88 798.67,-423.78"/>
</g>
<!-- Node17 -->
<g id="node17" class="node">
<title>Node17</title>
<g id="a_node17"><a xlink:href="class_field.html#a81822f0090fbb9f187fe4d3d15c7ab96" target="_top" xlink:title=" ">
<polygon fill="white" stroke="black" points="488,-487.5 488,-506.5 580,-506.5 580,-487.5 488,-487.5"/>
<text text-anchor="middle" x="534" y="-494.5" font-family="Helvetica,sans-Serif" font-size="10.00">Field::GetCellPos</text>
</a>
</g>
</g>
<!-- Node5&#45;&gt;Node17 -->
<g id="edge16" class="edge">
<title>Node5&#45;&gt;Node17</title>
<path fill="none" stroke="midnightblue" d="M378.55,-497C405.58,-497 445.14,-497 477.46,-497"/>
<polygon fill="midnightblue" stroke="midnightblue" points="477.67,-500.5 487.67,-497 477.67,-493.5 477.67,-500.5"/>
</g>
<!-- Node5&#45;&gt;Node18 -->
<g id="edge17" class="edge">
<title>Node5&#45;&gt;Node18</title>
<path fill="none" stroke="midnightblue" d="M378.79,-490.95C394.97,-487.12 414.64,-481.31 431,-473 449.07,-463.83 449.65,-455.49 467,-445 473.22,-441.24 479.99,-437.65 486.75,-434.34"/>
<polygon fill="midnightblue" stroke="midnightblue" points="488.36,-437.45 495.91,-430.02 485.37,-431.12 488.36,-437.45"/>
</g>
<!-- Node6&#45;&gt;Node7 -->
<g id="edge6" class="edge">
<title>Node6&#45;&gt;Node7</title>
<path fill="none" stroke="midnightblue" d="M564.3,-528.47C587.92,-523.2 621.72,-515.67 649.8,-509.41"/>
<polygon fill="midnightblue" stroke="midnightblue" points="650.86,-512.76 659.86,-507.17 649.33,-505.93 650.86,-512.76"/>
</g>
<!-- Node8 -->
<g id="node8" class="node">
<title>Node8</title>
<g id="a_node8"><a xlink:href="class_graphics_1_1_image.html#af48c0e309532eb1ff36e8fdaee244da1" target="_top" xlink:title=" ">
<polygon fill="white" stroke="black" points="820.5,-490.5 820.5,-509.5 934.5,-509.5 934.5,-490.5 820.5,-490.5"/>
<text text-anchor="middle" x="877.5" y="-497.5" font-family="Helvetica,sans-Serif" font-size="10.00">Graphics::Image::Draw</text>
</a>
</g>
</g>
<!-- Node7&#45;&gt;Node8 -->
<g id="edge7" class="edge">
<title>Node7&#45;&gt;Node8</title>
<path fill="none" stroke="midnightblue" d="M744.12,-498.47C763.84,-498.7 787.97,-498.98 810.2,-499.24"/>
<polygon fill="midnightblue" stroke="midnightblue" points="810.21,-502.74 820.25,-499.35 810.29,-495.74 810.21,-502.74"/>
</g>
<!-- Node14 -->
<g id="node14" class="node">
<title>Node14</title>
<g id="a_node14"><a xlink:href="class_graphics_1_1_resource_manager.html#a712cf513dbda24deb3a7fcea7157003a" target="_top" xlink:title=" ">
<polygon fill="white" stroke="black" points="808,-441 808,-471 947,-471 947,-441 808,-441"/>
<text text-anchor="start" x="816" y="-459" font-family="Helvetica,sans-Serif" font-size="10.00">Graphics::ResourceManager</text>
<text text-anchor="middle" x="877.5" y="-448" font-family="Helvetica,sans-Serif" font-size="10.00">::GetImage</text>
</a>
</g>
</g>
<!-- Node7&#45;&gt;Node14 -->
<g id="edge13" class="edge">
<title>Node7&#45;&gt;Node14</title>
<path fill="none" stroke="midnightblue" d="M742.37,-488.47C760.75,-484.02 783.23,-478.58 804.5,-473.43"/>
<polygon fill="midnightblue" stroke="midnightblue" points="805.59,-476.77 814.48,-471.01 803.94,-469.96 805.59,-476.77"/>
</g>
<!-- Node15 -->
<g id="node15" class="node">
<title>Node15</title>
<g id="a_node15"><a xlink:href="class_graphics_1_1_resource_manager.html#a34d11294bd090580de46ab34f303c2ab" target="_top" xlink:title=" ">
<polygon fill="white" stroke="black" points="808,-343 808,-373 947,-373 947,-343 808,-343"/>
<text text-anchor="start" x="816" y="-361" font-family="Helvetica,sans-Serif" font-size="10.00">Graphics::ResourceManager</text>
<text text-anchor="middle" x="877.5" y="-350" font-family="Helvetica,sans-Serif" font-size="10.00">::GetShader</text>
</a>
</g>
</g>
<!-- Node7&#45;&gt;Node15 -->
<g id="edge14" class="edge">
<title>Node7&#45;&gt;Node15</title>
<path fill="none" stroke="midnightblue" d="M708.75,-488.46C722.38,-466.64 758.85,-412.65 803,-383 805.94,-381.02 809.06,-379.19 812.27,-377.49"/>
<polygon fill="midnightblue" stroke="midnightblue" points="814.06,-380.52 821.57,-373.05 811.03,-374.2 814.06,-380.52"/>
</g>
<!-- Node7&#45;&gt;Node16 -->
<g id="edge15" class="edge">
<title>Node7&#45;&gt;Node16</title>
<path fill="none" stroke="midnightblue" d="M736.09,-488.49C746.51,-484.62 757.72,-479.5 767,-473 786.86,-459.08 782.84,-445.47 803,-432 805.95,-430.03 809.06,-428.2 812.29,-426.51"/>
<polygon fill="midnightblue" stroke="midnightblue" points="814.06,-429.54 821.58,-422.07 811.05,-423.22 814.06,-429.54"/>
</g>
<!-- Node9 -->
<g id="node9" class="node">
<title>Node9</title>
<g id="a_node9"><a xlink:href="class_graphics_1_1_quadrangle.html#a7a061a60b5bff19feb5fd317d06495f0" target="_top" xlink:title=" ">
<polygon fill="white" stroke="black" points="988,-390 988,-420 1098,-420 1098,-390 988,-390"/>
<text text-anchor="start" x="996" y="-408" font-family="Helvetica,sans-Serif" font-size="10.00">Graphics::Quadrangle</text>
<text text-anchor="middle" x="1043" y="-397" font-family="Helvetica,sans-Serif" font-size="10.00">::Draw</text>
</a>
</g>
</g>
<!-- Node8&#45;&gt;Node9 -->
<g id="edge8" class="edge">
<title>Node8&#45;&gt;Node9</title>
<path fill="none" stroke="midnightblue" d="M928.26,-490.39C936.43,-487.9 944.62,-484.81 952,-481 978.47,-467.32 1003.96,-444.59 1021.01,-427.55"/>
<polygon fill="midnightblue" stroke="midnightblue" points="1023.74,-429.77 1028.23,-420.17 1018.73,-424.88 1023.74,-429.77"/>
</g>
<!-- Node12 -->
<g id="node12" class="node">
<title>Node12</title>
<g id="a_node12"><a xlink:href="class_graphics_1_1_shader.html#aa5da414808337285b38565f60c3d7cbd" target="_top" xlink:title=" ">
<polygon fill="white" stroke="black" points="988,-490.5 988,-509.5 1098,-509.5 1098,-490.5 988,-490.5"/>
<text text-anchor="middle" x="1043" y="-497.5" font-family="Helvetica,sans-Serif" font-size="10.00">Graphics::Shader::Set</text>
</a>
</g>
</g>
<!-- Node8&#45;&gt;Node12 -->
<g id="edge11" class="edge">
<title>Node8&#45;&gt;Node12</title>
<path fill="none" stroke="midnightblue" d="M934.77,-500C948.59,-500 963.5,-500 977.67,-500"/>
<polygon fill="midnightblue" stroke="midnightblue" points="977.84,-503.5 987.84,-500 977.84,-496.5 977.84,-503.5"/>
</g>
<!-- Node10 -->
<g id="node10" class="node">
<title>Node10</title>
<g id="a_node10"><a xlink:href="class_graphics_1_1_shader.html#a63bfd523754bb6b2224aa7a48c65a504" target="_top" xlink:title=" ">
<polygon fill="white" stroke="black" points="1134,-395.5 1134,-414.5 1253,-414.5 1253,-395.5 1134,-395.5"/>
<text text-anchor="middle" x="1193.5" y="-402.5" font-family="Helvetica,sans-Serif" font-size="10.00">Graphics::Shader::GetId</text>
</a>
</g>
</g>
<!-- Node9&#45;&gt;Node10 -->
<g id="edge9" class="edge">
<title>Node9&#45;&gt;Node10</title>
<path fill="none" stroke="midnightblue" d="M1098.03,-405C1106.44,-405 1115.21,-405 1123.89,-405"/>
<polygon fill="midnightblue" stroke="midnightblue" points="1124,-408.5 1134,-405 1124,-401.5 1124,-408.5"/>
</g>
<!-- Node11 -->
<g id="node11" class="node">
<title>Node11</title>
<g id="a_node11"><a xlink:href="class_graphics_1_1_shader.html#a11a2de17d1d077ec34acd4f7cd57f6b1" target="_top" xlink:title=" ">
<polygon fill="white" stroke="black" points="1137,-303.5 1137,-322.5 1250,-322.5 1250,-303.5 1137,-303.5"/>
<text text-anchor="middle" x="1193.5" y="-310.5" font-family="Helvetica,sans-Serif" font-size="10.00">Graphics::Shader::Use</text>
</a>
</g>
</g>
<!-- Node9&#45;&gt;Node11 -->
<g id="edge10" class="edge">
<title>Node9&#45;&gt;Node11</title>
<path fill="none" stroke="midnightblue" d="M1068.52,-389.81C1096.2,-372.66 1140.95,-344.94 1168.44,-327.91"/>
<polygon fill="midnightblue" stroke="midnightblue" points="1170.39,-330.81 1177.05,-322.57 1166.71,-324.86 1170.39,-330.81"/>
</g>
<!-- Node13 -->
<g id="node13" class="node">
<title>Node13</title>
<g id="a_node13"><a xlink:href="class_graphics_1_1_image.html#aab55feadb4b66e0fd78b5f54a6fadde2" target="_top" xlink:title=" ">
<polygon fill="white" stroke="black" points="1135.5,-490.5 1135.5,-509.5 1251.5,-509.5 1251.5,-490.5 1135.5,-490.5"/>
<text text-anchor="middle" x="1193.5" y="-497.5" font-family="Helvetica,sans-Serif" font-size="10.00">Graphics::Image::GetId</text>
</a>
</g>
</g>
<!-- Node12&#45;&gt;Node13 -->
<g id="edge12" class="edge">
<title>Node12&#45;&gt;Node13</title>
<path fill="none" stroke="midnightblue" d="M1098.03,-500C1106.83,-500 1116.04,-500 1125.11,-500"/>
<polygon fill="midnightblue" stroke="midnightblue" points="1125.26,-503.5 1135.26,-500 1125.26,-496.5 1125.26,-503.5"/>
</g>
<!-- Node23 -->
<g id="node23" class="node">
<title>Node23</title>
<g id="a_node23"><a xlink:href="class_graphics_1_1_window.html#a9904449165571eff36b106148ec1279f" target="_top" xlink:title=" ">
<polygon fill="white" stroke="black" points="473,-335.5 473,-354.5 595,-354.5 595,-335.5 473,-335.5"/>
<text text-anchor="middle" x="534" y="-342.5" font-family="Helvetica,sans-Serif" font-size="10.00">Graphics::Window::Clear</text>
</a>
</g>
</g>
<!-- Node22&#45;&gt;Node23 -->
<g id="edge26" class="edge">
<title>Node22&#45;&gt;Node23</title>
<path fill="none" stroke="midnightblue" d="M411.01,-345C427.63,-345 445.63,-345 462.56,-345"/>
<polygon fill="midnightblue" stroke="midnightblue" points="462.94,-348.5 472.94,-345 462.94,-341.5 462.94,-348.5"/>
</g>
<!-- Node26&#45;&gt;Node24 -->
<g id="edge32" class="edge">
<title>Node26&#45;&gt;Node24</title>
<path fill="none" stroke="midnightblue" d="M181.45,-114.52C194.89,-118.77 210.79,-123.95 225,-129 241.18,-134.75 244.58,-137.98 261,-143 269.82,-145.7 279.27,-148.2 288.53,-150.44"/>
<polygon fill="midnightblue" stroke="midnightblue" points="287.93,-153.89 298.46,-152.77 289.52,-147.08 287.93,-153.89"/>
</g>
<!-- Node27 -->
<g id="node27" class="node">
<title>Node27</title>
<g id="a_node27"><a xlink:href="class_sprites_manager.html#a8245b163545dd5a57779316703048eb9" target="_top" xlink:title=" ">
<polygon fill="white" stroke="black" points="294.5,-114.5 294.5,-133.5 397.5,-133.5 397.5,-114.5 294.5,-114.5"/>
<text text-anchor="middle" x="346" y="-121.5" font-family="Helvetica,sans-Serif" font-size="10.00">SpritesManager::Init</text>
</a>
</g>
</g>
<!-- Node26&#45;&gt;Node27 -->
<g id="edge33" class="edge">
<title>Node26&#45;&gt;Node27</title>
<path fill="none" stroke="midnightblue" d="M183.94,-108.27C211.5,-110.96 251.3,-114.85 284.44,-118.08"/>
<polygon fill="midnightblue" stroke="midnightblue" points="284.2,-121.58 294.49,-119.07 284.88,-114.61 284.2,-121.58"/>
</g>
<!-- Node29 -->
<g id="node29" class="node">
<title>Node29</title>
<g id="a_node29"><a xlink:href="namespace_graphics_1_1_resource_parser.html#a6a538c07babc9bbaf884e0aeb9654fe0" target="_top" xlink:title=" ">
<polygon fill="white" stroke="black" points="637,-199 637,-229 767,-229 767,-199 637,-199"/>
<text text-anchor="start" x="645" y="-217" font-family="Helvetica,sans-Serif" font-size="10.00">Graphics::ResourceParser</text>
<text text-anchor="middle" x="702" y="-206" font-family="Helvetica,sans-Serif" font-size="10.00">::LoadResources</text>
</a>
</g>
</g>
<!-- Node26&#45;&gt;Node29 -->
<g id="edge35" class="edge">
<title>Node26&#45;&gt;Node29</title>
<path fill="none" stroke="midnightblue" d="M183.73,-96.31C260.96,-77.9 456.91,-41.65 601,-105 640.33,-122.29 670.96,-163.52 687.46,-190.03"/>
<polygon fill="midnightblue" stroke="midnightblue" points="684.54,-191.97 692.7,-198.73 690.54,-188.35 684.54,-191.97"/>
</g>
<!-- Node28 -->
<g id="node28" class="node">
<title>Node28</title>
<g id="a_node28"><a xlink:href="class_cell.html#a4ab1e51777a98363d170f41754e204c0" target="_top" xlink:title=" ">
<polygon fill="white" stroke="black" points="506.5,-114.5 506.5,-133.5 561.5,-133.5 561.5,-114.5 506.5,-114.5"/>
<text text-anchor="middle" x="534" y="-121.5" font-family="Helvetica,sans-Serif" font-size="10.00">Cell::Add</text>
</a>
</g>
</g>
<!-- Node27&#45;&gt;Node28 -->
<g id="edge34" class="edge">
<title>Node27&#45;&gt;Node28</title>
<path fill="none" stroke="midnightblue" d="M397.83,-124C428.92,-124 467.99,-124 496.12,-124"/>
<polygon fill="midnightblue" stroke="midnightblue" points="496.33,-127.5 506.33,-124 496.33,-120.5 496.33,-127.5"/>
</g>
<!-- Node29&#45;&gt;Node15 -->
<g id="edge37" class="edge">
<title>Node29&#45;&gt;Node15</title>
<path fill="none" stroke="midnightblue" d="M754.07,-229.18C758.8,-231.94 763.22,-235.19 767,-239 798.76,-271.09 770.34,-302.83 803,-334 804.12,-335.07 805.29,-336.1 806.51,-337.07"/>
<polygon fill="midnightblue" stroke="midnightblue" points="804.81,-340.15 815.05,-342.89 808.75,-334.37 804.81,-340.15"/>
</g>
<!-- Node29&#45;&gt;Node16 -->
<g id="edge38" class="edge">
<title>Node29&#45;&gt;Node16</title>
<path fill="none" stroke="midnightblue" d="M755.15,-229.12C759.56,-231.89 763.61,-235.15 767,-239 810.58,-288.52 758.03,-334.73 803,-383 803.9,-383.97 804.84,-384.89 805.82,-385.79"/>
<polygon fill="midnightblue" stroke="midnightblue" points="803.82,-388.66 813.91,-391.91 808.04,-383.08 803.82,-388.66"/>
</g>
<!-- Node30 -->
<g id="node30" class="node">
<title>Node30</title>
<g id="a_node30"><a xlink:href="class_graphics_1_1_resource_manager.html#ae025beebad6dbc29580a8d1d28ef4e9b" target="_top" xlink:title=" ">
<polygon fill="white" stroke="black" points="808,-294 808,-324 947,-324 947,-294 808,-294"/>
<text text-anchor="start" x="816" y="-312" font-family="Helvetica,sans-Serif" font-size="10.00">Graphics::ResourceManager</text>
<text text-anchor="middle" x="877.5" y="-301" font-family="Helvetica,sans-Serif" font-size="10.00">::CreateWindow</text>
</a>
</g>
</g>
<!-- Node29&#45;&gt;Node30 -->
<g id="edge36" class="edge">
<title>Node29&#45;&gt;Node30</title>
<path fill="none" stroke="midnightblue" d="M750.34,-229.11C756.21,-231.94 761.93,-235.23 767,-239 787.83,-254.49 781.74,-270.1 803,-285 805.12,-286.48 807.33,-287.88 809.61,-289.19"/>
<polygon fill="midnightblue" stroke="midnightblue" points="808.22,-292.41 818.72,-293.86 811.42,-286.18 808.22,-292.41"/>
</g>
<!-- Node31 -->
<g id="node31" class="node">
<title>Node31</title>
<g id="a_node31"><a xlink:href="class_graphics_1_1_resource_manager.html#a30a44b1a9b80d88c3e9d4f39a0672c11" target="_top" xlink:title=" ">
<polygon fill="white" stroke="black" points="808,-245 808,-275 947,-275 947,-245 808,-245"/>
<text text-anchor="start" x="816" y="-263" font-family="Helvetica,sans-Serif" font-size="10.00">Graphics::ResourceManager</text>
<text text-anchor="middle" x="877.5" y="-252" font-family="Helvetica,sans-Serif" font-size="10.00">::LoadImage</text>
</a>
</g>
</g>
<!-- Node29&#45;&gt;Node31 -->
<g id="edge39" class="edge">
<title>Node29&#45;&gt;Node31</title>
<path fill="none" stroke="midnightblue" d="M759.81,-229.06C775.77,-233.29 793.27,-237.93 809.75,-242.3"/>
<polygon fill="midnightblue" stroke="midnightblue" points="809.3,-245.8 819.86,-244.98 811.09,-239.04 809.3,-245.8"/>
</g>
<!-- Node32 -->
<g id="node32" class="node">
<title>Node32</title>
<g id="a_node32"><a xlink:href="class_graphics_1_1_resource_manager.html#a89192a1a222927aff3890b953dd1f058" target="_top" xlink:title=" ">
<polygon fill="white" stroke="black" points="808,-196 808,-226 947,-226 947,-196 808,-196"/>
<text text-anchor="start" x="816" y="-214" font-family="Helvetica,sans-Serif" font-size="10.00">Graphics::ResourceManager</text>
<text text-anchor="middle" x="877.5" y="-203" font-family="Helvetica,sans-Serif" font-size="10.00">::LoadShader</text>
</a>
</g>
</g>
<!-- Node29&#45;&gt;Node32 -->
<g id="edge40" class="edge">
<title>Node29&#45;&gt;Node32</title>
<path fill="none" stroke="midnightblue" d="M767.11,-212.89C777.1,-212.72 787.52,-212.54 797.79,-212.36"/>
<polygon fill="midnightblue" stroke="midnightblue" points="798.05,-215.86 807.99,-212.18 797.93,-208.86 798.05,-215.86"/>
</g>
<!-- Node33 -->
<g id="node33" class="node">
<title>Node33</title>
<g id="a_node33"><a xlink:href="class_graphics_1_1_shader.html#ab82f9feaa1c7c5623eaf7bb03c061e0a" target="_top" xlink:title=" ">
<polygon fill="white" stroke="black" points="803,-147 803,-177 952,-177 952,-147 803,-147"/>
<text text-anchor="start" x="811" y="-165" font-family="Helvetica,sans-Serif" font-size="10.00">Graphics::Shader::SetProjector</text>
<text text-anchor="middle" x="877.5" y="-154" font-family="Helvetica,sans-Serif" font-size="10.00">Matrix</text>
</a>
</g>
</g>
<!-- Node29&#45;&gt;Node33 -->
<g id="edge41" class="edge">
<title>Node29&#45;&gt;Node33</title>
<path fill="none" stroke="midnightblue" d="M753.18,-198.96C773.05,-193 796.06,-186.11 816.78,-179.9"/>
<polygon fill="midnightblue" stroke="midnightblue" points="817.86,-183.23 826.43,-177.01 815.85,-176.53 817.86,-183.23"/>
</g>
<!-- Node33&#45;&gt;Node11 -->
<g id="edge43" class="edge">
<title>Node33&#45;&gt;Node11</title>
<path fill="none" stroke="midnightblue" d="M926.35,-177.08C934.98,-180.13 943.82,-183.49 952,-187 1033.32,-221.88 1124.7,-273.36 1167.66,-298.34"/>
<polygon fill="midnightblue" stroke="midnightblue" points="1165.91,-301.37 1176.31,-303.39 1169.44,-295.32 1165.91,-301.37"/>
</g>
<!-- Node34 -->
<g id="node34" class="node">
<title>Node34</title>
<g id="a_node34"><a xlink:href="class_graphics_1_1_transform.html#a5e301531e0b340509d10dd5dad929b9c" target="_top" xlink:title=" ">
<polygon fill="white" stroke="black" points="991,-147 991,-177 1095,-177 1095,-147 991,-147"/>
<text text-anchor="start" x="999" y="-165" font-family="Helvetica,sans-Serif" font-size="10.00">Graphics::Transform</text>
<text text-anchor="middle" x="1043" y="-154" font-family="Helvetica,sans-Serif" font-size="10.00">::GetMatrix</text>
</a>
</g>
</g>
<!-- Node33&#45;&gt;Node34 -->
<g id="edge42" class="edge">
<title>Node33&#45;&gt;Node34</title>
<path fill="none" stroke="midnightblue" d="M952.12,-162C961.6,-162 971.23,-162 980.5,-162"/>
<polygon fill="midnightblue" stroke="midnightblue" points="980.77,-165.5 990.77,-162 980.77,-158.5 980.77,-165.5"/>
</g>
<!-- Node36 -->
<g id="node36" class="node">
<title>Node36</title>
<g id="a_node36"><a xlink:href="class_field.html#a5f554e84e4bc9af72e5d262f41e97493" target="_top" xlink:title=" ">
<polygon fill="white" stroke="black" points="315.5,-38.5 315.5,-57.5 376.5,-57.5 376.5,-38.5 315.5,-38.5"/>
<text text-anchor="middle" x="346" y="-45.5" font-family="Helvetica,sans-Serif" font-size="10.00">Field::Tick</text>
</a>
</g>
</g>
<!-- Node35&#45;&gt;Node36 -->
<g id="edge45" class="edge">
<title>Node35&#45;&gt;Node36</title>
<path fill="none" stroke="midnightblue" d="M184.38,-48C218.06,-48 269.7,-48 305.29,-48"/>
<polygon fill="midnightblue" stroke="midnightblue" points="305.33,-51.5 315.33,-48 305.33,-44.5 305.33,-51.5"/>
</g>
<!-- Node37 -->
<g id="node37" class="node">
<title>Node37</title>
<g id="a_node37"><a xlink:href="class_player.html#ac9010645b179712c09ebd310e5fe48eb" target="_top" xlink:title=" ">
<polygon fill="white" stroke="black" points="312.5,-0.5 312.5,-19.5 379.5,-19.5 379.5,-0.5 312.5,-0.5"/>
<text text-anchor="middle" x="346" y="-7.5" font-family="Helvetica,sans-Serif" font-size="10.00">Player::Tick</text>
</a>
</g>
</g>
<!-- Node35&#45;&gt;Node37 -->
<g id="edge46" class="edge">
<title>Node35&#45;&gt;Node37</title>
<path fill="none" stroke="midnightblue" d="M184.38,-41.38C217.17,-34.97 266.98,-25.24 302.43,-18.32"/>
<polygon fill="midnightblue" stroke="midnightblue" points="303.34,-21.71 312.48,-16.35 301.99,-14.84 303.34,-21.71"/>
</g>
<!-- Node38 -->
<g id="node38" class="node">
<title>Node38</title>
<g id="a_node38"><a xlink:href="struct_vector2_d.html#a4243151f5398e352a38073c4e1dfd30b" target="_top" xlink:title=" ">
<polygon fill="white" stroke="black" points="478,-0.5 478,-19.5 590,-19.5 590,-0.5 478,-0.5"/>
<text text-anchor="middle" x="534" y="-7.5" font-family="Helvetica,sans-Serif" font-size="10.00">Vector2D&lt; float &gt;::dist</text>
</a>
</g>
</g>
<!-- Node37&#45;&gt;Node38 -->
<g id="edge47" class="edge">
<title>Node37&#45;&gt;Node38</title>
<path fill="none" stroke="midnightblue" d="M379.82,-10C404.08,-10 437.91,-10 467.6,-10"/>
<polygon fill="midnightblue" stroke="midnightblue" points="467.91,-13.5 477.91,-10 467.91,-6.5 467.91,-13.5"/>
</g>
<!-- Node39&#45;&gt;Node16 -->
<g id="edge49" class="edge">
<title>Node39&#45;&gt;Node16</title>
<path fill="none" stroke="midnightblue" d="M746.92,-278.13C754.28,-282.12 761.36,-287.02 767,-293 796.57,-324.33 771.56,-353.54 803,-383 804.13,-384.06 805.31,-385.08 806.53,-386.05"/>
<polygon fill="midnightblue" stroke="midnightblue" points="804.87,-389.14 815.12,-391.82 808.77,-383.33 804.87,-389.14"/>
</g>
</g>
</svg>
