<?xml version="1.0" encoding="UTF-8" standalone="no"?>
<!DOCTYPE svg PUBLIC "-//W3C//DTD SVG 1.1//EN"
 "http://www.w3.org/Graphics/SVG/1.1/DTD/svg11.dtd">
<!-- Generated by graphviz version 2.47.0 (20210407.0042)
 -->
<!-- Title: src/main.cpp Pages: 1 -->
<svg width="1184pt" height="599pt"
 viewBox="0.00 0.00 1184.24 599.00" xmlns="http://www.w3.org/2000/svg" xmlns:xlink="http://www.w3.org/1999/xlink">
<g id="graph0" class="graph" transform="scale(1 1) rotate(0) translate(4 595)">
<title>src/main.cpp</title>
<polygon fill="white" stroke="transparent" points="-4,4 -4,-595 1180.24,-595 1180.24,4 -4,4"/>
<!-- Node1 -->
<g id="node1" class="node">
<title>Node1</title>
<g id="a_node1"><a xlink:title=" ">
<polygon fill="#bfbfbf" stroke="black" points="744,-571.5 744,-590.5 816,-590.5 816,-571.5 744,-571.5"/>
<text text-anchor="middle" x="780" y="-578.5" font-family="Helvetica,sans-Serif" font-size="10.00">src/main.cpp</text>
</a>
</g>
</g>
<!-- Node2 -->
<g id="node2" class="node">
<title>Node2</title>
<g id="a_node2"><a xlink:title=" ">
<polygon fill="white" stroke="#bfbfbf" points="506,-515.5 506,-534.5 560,-534.5 560,-515.5 506,-515.5"/>
<text text-anchor="middle" x="533" y="-522.5" font-family="Helvetica,sans-Serif" font-size="10.00">iostream</text>
</a>
</g>
</g>
<!-- Node1&#45;&gt;Node2 -->
<g id="edge1" class="edge">
<title>Node1&#45;&gt;Node2</title>
<path fill="none" stroke="midnightblue" d="M743.9,-572.13C702.77,-563.15 633.54,-548.04 574,-535 572.76,-534.73 571.5,-534.45 570.22,-534.17"/>
<polygon fill="midnightblue" stroke="midnightblue" points="570.86,-530.73 560.35,-532.01 569.36,-537.57 570.86,-530.73"/>
</g>
<!-- Node3 -->
<g id="node3" class="node">
<title>Node3</title>
<g id="a_node3"><a xlink:href="_engine_8hpp.html" target="_top" xlink:title=" ">
<polygon fill="white" stroke="black" points="748,-515.5 748,-534.5 812,-534.5 812,-515.5 748,-515.5"/>
<text text-anchor="middle" x="780" y="-522.5" font-family="Helvetica,sans-Serif" font-size="10.00">Engine.hpp</text>
</a>
</g>
</g>
<!-- Node1&#45;&gt;Node3 -->
<g id="edge2" class="edge">
<title>Node1&#45;&gt;Node3</title>
<path fill="none" stroke="midnightblue" d="M780,-571.08C780,-564.01 780,-553.86 780,-544.99"/>
<polygon fill="midnightblue" stroke="midnightblue" points="783.5,-544.75 780,-534.75 776.5,-544.75 783.5,-544.75"/>
</g>
<!-- Node20 -->
<g id="node20" class="node">
<title>Node20</title>
<g id="a_node20"><a xlink:href="_sprites_manager_8hpp.html" target="_top" xlink:title=" ">
<polygon fill="white" stroke="black" points="848.5,-291.5 848.5,-310.5 951.5,-310.5 951.5,-291.5 848.5,-291.5"/>
<text text-anchor="middle" x="900" y="-298.5" font-family="Helvetica,sans-Serif" font-size="10.00">SpritesManager.hpp</text>
</a>
</g>
</g>
<!-- Node1&#45;&gt;Node20 -->
<g id="edge27" class="edge">
<title>Node1&#45;&gt;Node20</title>
<path fill="none" stroke="midnightblue" d="M816.15,-579.69C884.3,-576.98 1025,-560.45 1025,-470 1025,-470 1025,-470 1025,-412 1025,-363.17 970.58,-330.89 933.56,-314.58"/>
<polygon fill="midnightblue" stroke="midnightblue" points="934.68,-311.25 924.1,-310.59 931.95,-317.7 934.68,-311.25"/>
</g>
<!-- Node25 -->
<g id="node25" class="node">
<title>Node25</title>
<g id="a_node25"><a xlink:href="_resource_manager_8hpp.html" target="_top" xlink:title=" ">
<polygon fill="white" stroke="black" points="196.5,-291.5 196.5,-310.5 349.5,-310.5 349.5,-291.5 196.5,-291.5"/>
<text text-anchor="middle" x="273" y="-298.5" font-family="Helvetica,sans-Serif" font-size="10.00">graphics/ResourceManager.hpp</text>
</a>
</g>
</g>
<!-- Node1&#45;&gt;Node25 -->
<g id="edge37" class="edge">
<title>Node1&#45;&gt;Node25</title>
<path fill="none" stroke="midnightblue" d="M743.89,-575.71C688.27,-566.87 588,-541.07 588,-470 588,-470 588,-470 588,-412 588,-360.51 436.1,-327.49 343.26,-312.11"/>
<polygon fill="midnightblue" stroke="midnightblue" points="343.79,-308.65 333.36,-310.5 342.67,-315.56 343.79,-308.65"/>
</g>
<!-- Node37 -->
<g id="node37" class="node">
<title>Node37</title>
<g id="a_node37"><a xlink:href="_timer_8hpp.html" target="_top" xlink:title=" ">
<polygon fill="white" stroke="black" points="1053.5,-515.5 1053.5,-534.5 1112.5,-534.5 1112.5,-515.5 1053.5,-515.5"/>
<text text-anchor="middle" x="1083" y="-522.5" font-family="Helvetica,sans-Serif" font-size="10.00">Timer.hpp</text>
</a>
</g>
</g>
<!-- Node1&#45;&gt;Node37 -->
<g id="edge60" class="edge">
<title>Node1&#45;&gt;Node37</title>
<path fill="none" stroke="midnightblue" d="M816.09,-574.08C866.2,-565.78 959.63,-550.01 1039,-535 1040.44,-534.73 1041.9,-534.45 1043.37,-534.16"/>
<polygon fill="midnightblue" stroke="midnightblue" points="1044.07,-537.59 1053.2,-532.22 1042.71,-530.73 1044.07,-537.59"/>
</g>
<!-- Node4 -->
<g id="node4" class="node">
<title>Node4</title>
<g id="a_node4"><a xlink:href="_player_8hpp.html" target="_top" xlink:title=" ">
<polygon fill="white" stroke="black" points="767,-403.5 767,-422.5 895,-422.5 895,-403.5 767,-403.5"/>
<text text-anchor="middle" x="831" y="-410.5" font-family="Helvetica,sans-Serif" font-size="10.00">engine/objects/Player.hpp</text>
</a>
</g>
</g>
<!-- Node3&#45;&gt;Node4 -->
<g id="edge3" class="edge">
<title>Node3&#45;&gt;Node4</title>
<path fill="none" stroke="midnightblue" d="M787.28,-515.2C794.19,-506.47 804.47,-492.49 811,-479 818.23,-464.06 823.56,-445.92 826.88,-432.6"/>
<polygon fill="midnightblue" stroke="midnightblue" points="830.32,-433.26 829.21,-422.73 823.51,-431.66 830.32,-433.26"/>
</g>
<!-- Node17 -->
<g id="node17" class="node">
<title>Node17</title>
<g id="a_node17"><a xlink:href="_unit_group_8hpp.html" target="_top" xlink:title=" ">
<polygon fill="white" stroke="black" points="657.5,-459.5 657.5,-478.5 802.5,-478.5 802.5,-459.5 657.5,-459.5"/>
<text text-anchor="middle" x="730" y="-466.5" font-family="Helvetica,sans-Serif" font-size="10.00">engine/objects/UnitGroup.hpp</text>
</a>
</g>
</g>
<!-- Node3&#45;&gt;Node17 -->
<g id="edge23" class="edge">
<title>Node3&#45;&gt;Node17</title>
<path fill="none" stroke="midnightblue" d="M771.74,-515.08C764.54,-507.3 753.89,-495.8 745.15,-486.37"/>
<polygon fill="midnightblue" stroke="midnightblue" points="747.47,-483.71 738.1,-478.75 742.33,-488.47 747.47,-483.71"/>
</g>
<!-- Node5 -->
<g id="node5" class="node">
<title>Node5</title>
<g id="a_node5"><a xlink:href="_drawable_8hpp.html" target="_top" xlink:title=" ">
<polygon fill="white" stroke="black" points="710.5,-112.5 710.5,-131.5 817.5,-131.5 817.5,-112.5 710.5,-112.5"/>
<text text-anchor="middle" x="764" y="-119.5" font-family="Helvetica,sans-Serif" font-size="10.00">engine/Drawable.hpp</text>
</a>
</g>
</g>
<!-- Node4&#45;&gt;Node5 -->
<g id="edge4" class="edge">
<title>Node4&#45;&gt;Node5</title>
<path fill="none" stroke="midnightblue" d="M885.04,-403.49C997.58,-383.5 1240.22,-327.25 1160,-224 1119.55,-171.93 929.09,-142.23 827.77,-129.86"/>
<polygon fill="midnightblue" stroke="midnightblue" points="828,-126.37 817.66,-128.65 827.17,-133.32 828,-126.37"/>
</g>
<!-- Node9 -->
<g id="node9" class="node">
<title>Node9</title>
<g id="a_node9"><a xlink:href="_world_actor_8hpp.html" target="_top" xlink:title=" ">
<polygon fill="white" stroke="black" points="616,-347.5 616,-366.5 730,-366.5 730,-347.5 616,-347.5"/>
<text text-anchor="middle" x="673" y="-354.5" font-family="Helvetica,sans-Serif" font-size="10.00">engine/WorldActor.hpp</text>
</a>
</g>
</g>
<!-- Node4&#45;&gt;Node9 -->
<g id="edge8" class="edge">
<title>Node4&#45;&gt;Node9</title>
<path fill="none" stroke="midnightblue" d="M805.96,-403.44C779.38,-394.36 737.19,-379.94 707.48,-369.78"/>
<polygon fill="midnightblue" stroke="midnightblue" points="708.51,-366.44 697.92,-366.52 706.25,-373.06 708.51,-366.44"/>
</g>
<!-- Node6 -->
<g id="node6" class="node">
<title>Node6</title>
<g id="a_node6"><a xlink:title=" ">
<polygon fill="white" stroke="#bfbfbf" points="731,-56.5 731,-75.5 797,-75.5 797,-56.5 731,-56.5"/>
<text text-anchor="middle" x="764" y="-63.5" font-family="Helvetica,sans-Serif" font-size="10.00">string_view</text>
</a>
</g>
</g>
<!-- Node5&#45;&gt;Node6 -->
<g id="edge5" class="edge">
<title>Node5&#45;&gt;Node6</title>
<path fill="none" stroke="midnightblue" d="M764,-112.08C764,-105.01 764,-94.86 764,-85.99"/>
<polygon fill="midnightblue" stroke="midnightblue" points="767.5,-85.75 764,-75.75 760.5,-85.75 767.5,-85.75"/>
</g>
<!-- Node7 -->
<g id="node7" class="node">
<title>Node7</title>
<g id="a_node7"><a xlink:href="_vector2_d_8hpp.html" target="_top" xlink:title=" ">
<polygon fill="white" stroke="black" points="439,-56.5 439,-75.5 551,-75.5 551,-56.5 439,-56.5"/>
<text text-anchor="middle" x="495" y="-63.5" font-family="Helvetica,sans-Serif" font-size="10.00">Helpers/Vector2D.hpp</text>
</a>
</g>
</g>
<!-- Node5&#45;&gt;Node7 -->
<g id="edge6" class="edge">
<title>Node5&#45;&gt;Node7</title>
<path fill="none" stroke="midnightblue" d="M721.38,-112.44C674.25,-102.98 598.31,-87.74 547.54,-77.55"/>
<polygon fill="midnightblue" stroke="midnightblue" points="547.92,-74.05 537.42,-75.52 546.54,-80.92 547.92,-74.05"/>
</g>
<!-- Node8 -->
<g id="node8" class="node">
<title>Node8</title>
<g id="a_node8"><a xlink:title=" ">
<polygon fill="white" stroke="#bfbfbf" points="402.5,-0.5 402.5,-19.5 441.5,-19.5 441.5,-0.5 402.5,-0.5"/>
<text text-anchor="middle" x="422" y="-7.5" font-family="Helvetica,sans-Serif" font-size="10.00">utility</text>
</a>
</g>
</g>
<!-- Node7&#45;&gt;Node8 -->
<g id="edge7" class="edge">
<title>Node7&#45;&gt;Node8</title>
<path fill="none" stroke="midnightblue" d="M483.27,-56.32C472.16,-48.11 455.26,-35.6 442.02,-25.81"/>
<polygon fill="midnightblue" stroke="midnightblue" points="444.06,-22.97 433.94,-19.83 439.9,-28.59 444.06,-22.97"/>
</g>
<!-- Node9&#45;&gt;Node7 -->
<g id="edge9" class="edge">
<title>Node9&#45;&gt;Node7</title>
<path fill="none" stroke="midnightblue" d="M622.6,-347.46C594.81,-340.91 560.81,-329.7 535,-311 510.02,-292.9 507.02,-282.97 494,-255 466.6,-196.13 444.71,-174.01 464,-112 467.23,-101.62 473.78,-91.52 480.02,-83.53"/>
<polygon fill="midnightblue" stroke="midnightblue" points="482.79,-85.68 486.52,-75.77 477.42,-81.19 482.79,-85.68"/>
</g>
<!-- Node10 -->
<g id="node10" class="node">
<title>Node10</title>
<g id="a_node10"><a xlink:href="_field_8hpp.html" target="_top" xlink:title=" ">
<polygon fill="white" stroke="black" points="544,-291.5 544,-310.5 600,-310.5 600,-291.5 544,-291.5"/>
<text text-anchor="middle" x="572" y="-298.5" font-family="Helvetica,sans-Serif" font-size="10.00">Field.hpp</text>
</a>
</g>
</g>
<!-- Node9&#45;&gt;Node10 -->
<g id="edge10" class="edge">
<title>Node9&#45;&gt;Node10</title>
<path fill="none" stroke="midnightblue" d="M656.77,-347.32C640.65,-338.7 615.7,-325.36 597.04,-315.39"/>
<polygon fill="midnightblue" stroke="midnightblue" points="598.66,-312.28 588.19,-310.65 595.36,-318.46 598.66,-312.28"/>
</g>
<!-- Node10&#45;&gt;Node7 -->
<g id="edge22" class="edge">
<title>Node10&#45;&gt;Node7</title>
<path fill="none" stroke="midnightblue" d="M548.55,-291.41C532.84,-284.28 513.38,-272.46 504,-255 472.92,-197.17 566.46,-172.51 541,-112 535.97,-100.05 526.06,-89.69 516.71,-81.93"/>
<polygon fill="midnightblue" stroke="midnightblue" points="518.84,-79.15 508.79,-75.81 514.56,-84.69 518.84,-79.15"/>
</g>
<!-- Node11 -->
<g id="node11" class="node">
<title>Node11</title>
<g id="a_node11"><a xlink:href="_cell_8hpp.html" target="_top" xlink:title=" ">
<polygon fill="white" stroke="black" points="513.5,-230 513.5,-249 630.5,-249 630.5,-230 513.5,-230"/>
<text text-anchor="middle" x="572" y="-237" font-family="Helvetica,sans-Serif" font-size="10.00">engine/objects/Cell.hpp</text>
</a>
</g>
</g>
<!-- Node10&#45;&gt;Node11 -->
<g id="edge11" class="edge">
<title>Node10&#45;&gt;Node11</title>
<path fill="none" stroke="midnightblue" d="M572,-291.48C572,-283.08 572,-269.98 572,-259.16"/>
<polygon fill="midnightblue" stroke="midnightblue" points="575.5,-259.01 572,-249.01 568.5,-259.01 575.5,-259.01"/>
</g>
<!-- Node11&#45;&gt;Node5 -->
<g id="edge12" class="edge">
<title>Node11&#45;&gt;Node5</title>
<path fill="none" stroke="midnightblue" d="M594.71,-229.94C617.54,-220.91 653.34,-205.58 682,-188 706,-173.28 730.99,-152.56 746.98,-138.5"/>
<polygon fill="midnightblue" stroke="midnightblue" points="749.34,-141.09 754.47,-131.82 744.68,-135.86 749.34,-141.09"/>
</g>
<!-- Node12 -->
<g id="node12" class="node">
<title>Node12</title>
<g id="a_node12"><a xlink:href="_tickable_8hpp.html" target="_top" xlink:title=" ">
<polygon fill="white" stroke="black" points="589.5,-112.5 589.5,-131.5 692.5,-131.5 692.5,-112.5 589.5,-112.5"/>
<text text-anchor="middle" x="641" y="-119.5" font-family="Helvetica,sans-Serif" font-size="10.00">engine/Tickable.hpp</text>
</a>
</g>
</g>
<!-- Node11&#45;&gt;Node12 -->
<g id="edge13" class="edge">
<title>Node11&#45;&gt;Node12</title>
<path fill="none" stroke="midnightblue" d="M573.47,-229.68C576.09,-215.74 582.5,-188.12 595,-168 601.95,-156.81 612.26,-146.38 621.35,-138.39"/>
<polygon fill="midnightblue" stroke="midnightblue" points="623.82,-140.89 629.24,-131.78 619.32,-135.52 623.82,-140.89"/>
</g>
<!-- Node13 -->
<g id="node13" class="node">
<title>Node13</title>
<g id="a_node13"><a xlink:title=" ">
<polygon fill="white" stroke="#bfbfbf" points="377,-56.5 377,-75.5 421,-75.5 421,-56.5 377,-56.5"/>
<text text-anchor="middle" x="399" y="-63.5" font-family="Helvetica,sans-Serif" font-size="10.00">vector</text>
</a>
</g>
</g>
<!-- Node11&#45;&gt;Node13 -->
<g id="edge14" class="edge">
<title>Node11&#45;&gt;Node13</title>
<path fill="none" stroke="midnightblue" d="M563.3,-229.96C544.92,-211.92 500.81,-168.55 464,-132 447.31,-115.42 428.29,-96.39 415.15,-83.22"/>
<polygon fill="midnightblue" stroke="midnightblue" points="417.35,-80.46 407.81,-75.85 412.39,-85.4 417.35,-80.46"/>
</g>
<!-- Node14 -->
<g id="node14" class="node">
<title>Node14</title>
<g id="a_node14"><a xlink:href="_ground_8hpp.html" target="_top" xlink:title=" ">
<polygon fill="white" stroke="black" points="731,-168.5 731,-187.5 797,-187.5 797,-168.5 731,-168.5"/>
<text text-anchor="middle" x="764" y="-175.5" font-family="Helvetica,sans-Serif" font-size="10.00">Ground.hpp</text>
</a>
</g>
</g>
<!-- Node11&#45;&gt;Node14 -->
<g id="edge15" class="edge">
<title>Node11&#45;&gt;Node14</title>
<path fill="none" stroke="midnightblue" d="M599.51,-229.98C632.87,-219.64 689.26,-202.16 726.56,-190.6"/>
<polygon fill="midnightblue" stroke="midnightblue" points="728.03,-193.81 736.54,-187.51 725.95,-187.13 728.03,-193.81"/>
</g>
<!-- Node15 -->
<g id="node15" class="node">
<title>Node15</title>
<g id="a_node15"><a xlink:href="_building_8hpp.html" target="_top" xlink:title=" ">
<polygon fill="white" stroke="black" points="604.5,-168.5 604.5,-187.5 673.5,-187.5 673.5,-168.5 604.5,-168.5"/>
<text text-anchor="middle" x="639" y="-175.5" font-family="Helvetica,sans-Serif" font-size="10.00">Building.hpp</text>
</a>
</g>
</g>
<!-- Node11&#45;&gt;Node15 -->
<g id="edge18" class="edge">
<title>Node11&#45;&gt;Node15</title>
<path fill="none" stroke="midnightblue" d="M581.6,-229.98C592.05,-220.7 608.97,-205.67 621.74,-194.33"/>
<polygon fill="midnightblue" stroke="midnightblue" points="624.27,-196.77 629.42,-187.51 619.62,-191.53 624.27,-196.77"/>
</g>
<!-- Node14&#45;&gt;Node5 -->
<g id="edge16" class="edge">
<title>Node14&#45;&gt;Node5</title>
<path fill="none" stroke="midnightblue" d="M764,-168.08C764,-161.01 764,-150.86 764,-141.99"/>
<polygon fill="midnightblue" stroke="midnightblue" points="767.5,-141.75 764,-131.75 760.5,-141.75 767.5,-141.75"/>
</g>
<!-- Node14&#45;&gt;Node12 -->
<g id="edge17" class="edge">
<title>Node14&#45;&gt;Node12</title>
<path fill="none" stroke="midnightblue" d="M744.51,-168.44C724.36,-159.6 692.68,-145.69 669.67,-135.59"/>
<polygon fill="midnightblue" stroke="midnightblue" points="670.96,-132.33 660.4,-131.52 668.15,-138.74 670.96,-132.33"/>
</g>
<!-- Node15&#45;&gt;Node5 -->
<g id="edge19" class="edge">
<title>Node15&#45;&gt;Node5</title>
<path fill="none" stroke="midnightblue" d="M658.81,-168.44C679.29,-159.6 711.48,-145.69 734.86,-135.59"/>
<polygon fill="midnightblue" stroke="midnightblue" points="736.49,-138.7 744.29,-131.52 733.72,-132.27 736.49,-138.7"/>
</g>
<!-- Node15&#45;&gt;Node12 -->
<g id="edge20" class="edge">
<title>Node15&#45;&gt;Node12</title>
<path fill="none" stroke="midnightblue" d="M639.33,-168.08C639.59,-161.01 639.97,-150.86 640.3,-141.99"/>
<polygon fill="midnightblue" stroke="midnightblue" points="643.8,-141.87 640.68,-131.75 636.81,-141.61 643.8,-141.87"/>
</g>
<!-- Node16 -->
<g id="node16" class="node">
<title>Node16</title>
<g id="a_node16"><a xlink:title=" ">
<polygon fill="white" stroke="#bfbfbf" points="473.5,-112.5 473.5,-131.5 532.5,-131.5 532.5,-112.5 473.5,-112.5"/>
<text text-anchor="middle" x="503" y="-119.5" font-family="Helvetica,sans-Serif" font-size="10.00">functional</text>
</a>
</g>
</g>
<!-- Node15&#45;&gt;Node16 -->
<g id="edge21" class="edge">
<title>Node15&#45;&gt;Node16</title>
<path fill="none" stroke="midnightblue" d="M617.45,-168.44C594.97,-159.52 559.51,-145.44 534.02,-135.32"/>
<polygon fill="midnightblue" stroke="midnightblue" points="535.03,-131.95 524.45,-131.52 532.45,-138.46 535.03,-131.95"/>
</g>
<!-- Node18 -->
<g id="node18" class="node">
<title>Node18</title>
<g id="a_node18"><a xlink:href="_unit_8hpp.html" target="_top" xlink:title=" ">
<polygon fill="white" stroke="black" points="646.5,-403.5 646.5,-422.5 699.5,-422.5 699.5,-403.5 646.5,-403.5"/>
<text text-anchor="middle" x="673" y="-410.5" font-family="Helvetica,sans-Serif" font-size="10.00">Unit.hpp</text>
</a>
</g>
</g>
<!-- Node17&#45;&gt;Node18 -->
<g id="edge24" class="edge">
<title>Node17&#45;&gt;Node18</title>
<path fill="none" stroke="midnightblue" d="M720.84,-459.32C712.5,-451.42 699.97,-439.55 689.82,-429.94"/>
<polygon fill="midnightblue" stroke="midnightblue" points="691.99,-427.17 682.32,-422.83 687.18,-432.25 691.99,-427.17"/>
</g>
<!-- Node19 -->
<g id="node19" class="node">
<title>Node19</title>
<g id="a_node19"><a xlink:title=" ">
<polygon fill="white" stroke="#bfbfbf" points="717.5,-403.5 717.5,-422.5 746.5,-422.5 746.5,-403.5 717.5,-403.5"/>
<text text-anchor="middle" x="732" y="-410.5" font-family="Helvetica,sans-Serif" font-size="10.00">list</text>
</a>
</g>
</g>
<!-- Node17&#45;&gt;Node19 -->
<g id="edge26" class="edge">
<title>Node17&#45;&gt;Node19</title>
<path fill="none" stroke="midnightblue" d="M730.33,-459.08C730.59,-452.01 730.97,-441.86 731.3,-432.99"/>
<polygon fill="midnightblue" stroke="midnightblue" points="734.8,-432.87 731.68,-422.75 727.81,-432.61 734.8,-432.87"/>
</g>
<!-- Node18&#45;&gt;Node9 -->
<g id="edge25" class="edge">
<title>Node18&#45;&gt;Node9</title>
<path fill="none" stroke="midnightblue" d="M673,-403.08C673,-396.01 673,-385.86 673,-376.99"/>
<polygon fill="midnightblue" stroke="midnightblue" points="676.5,-376.75 673,-366.75 669.5,-376.75 676.5,-376.75"/>
</g>
<!-- Node20&#45;&gt;Node11 -->
<g id="edge30" class="edge">
<title>Node20&#45;&gt;Node11</title>
<path fill="none" stroke="midnightblue" d="M848.1,-291.62C795.54,-283 711.97,-268.9 640,-255 633.78,-253.8 627.25,-252.48 620.8,-251.14"/>
<polygon fill="midnightblue" stroke="midnightblue" points="621.29,-247.67 610.78,-249.04 619.85,-254.52 621.29,-247.67"/>
</g>
<!-- Node21 -->
<g id="node21" class="node">
<title>Node21</title>
<g id="a_node21"><a xlink:href="_ground_empty_8hpp.html" target="_top" xlink:title=" ">
<polygon fill="white" stroke="black" points="649,-224.5 649,-254.5 761,-254.5 761,-224.5 649,-224.5"/>
<text text-anchor="start" x="657" y="-242.5" font-family="Helvetica,sans-Serif" font-size="10.00">engine/objects/ground</text>
<text text-anchor="middle" x="705" y="-231.5" font-family="Helvetica,sans-Serif" font-size="10.00">/GroundEmpty.hpp</text>
</a>
</g>
</g>
<!-- Node20&#45;&gt;Node21 -->
<g id="edge28" class="edge">
<title>Node20&#45;&gt;Node21</title>
<path fill="none" stroke="midnightblue" d="M872.06,-291.48C843.18,-282.66 797.32,-268.67 760.94,-257.57"/>
<polygon fill="midnightblue" stroke="midnightblue" points="761.54,-254.09 750.96,-254.52 759.5,-260.79 761.54,-254.09"/>
</g>
<!-- Node22 -->
<g id="node22" class="node">
<title>Node22</title>
<g id="a_node22"><a xlink:href="_ground_earth_8hpp.html" target="_top" xlink:title=" ">
<polygon fill="white" stroke="black" points="909,-224.5 909,-254.5 1021,-254.5 1021,-224.5 909,-224.5"/>
<text text-anchor="start" x="917" y="-242.5" font-family="Helvetica,sans-Serif" font-size="10.00">engine/objects/ground</text>
<text text-anchor="middle" x="965" y="-231.5" font-family="Helvetica,sans-Serif" font-size="10.00">/GroundEarth.hpp</text>
</a>
</g>
</g>
<!-- Node20&#45;&gt;Node22 -->
<g id="edge31" class="edge">
<title>Node20&#45;&gt;Node22</title>
<path fill="none" stroke="midnightblue" d="M909.31,-291.48C917.87,-283.64 930.9,-271.71 942.21,-261.37"/>
<polygon fill="midnightblue" stroke="midnightblue" points="944.67,-263.86 949.68,-254.52 939.94,-258.69 944.67,-263.86"/>
</g>
<!-- Node23 -->
<g id="node23" class="node">
<title>Node23</title>
<g id="a_node23"><a xlink:href="_ground_water_8hpp.html" target="_top" xlink:title=" ">
<polygon fill="white" stroke="black" points="779,-224.5 779,-254.5 891,-254.5 891,-224.5 779,-224.5"/>
<text text-anchor="start" x="787" y="-242.5" font-family="Helvetica,sans-Serif" font-size="10.00">engine/objects/ground</text>
<text text-anchor="middle" x="835" y="-231.5" font-family="Helvetica,sans-Serif" font-size="10.00">/GroundWater.hpp</text>
</a>
</g>
</g>
<!-- Node20&#45;&gt;Node23 -->
<g id="edge33" class="edge">
<title>Node20&#45;&gt;Node23</title>
<path fill="none" stroke="midnightblue" d="M890.69,-291.48C882.13,-283.64 869.1,-271.71 857.79,-261.37"/>
<polygon fill="midnightblue" stroke="midnightblue" points="860.06,-258.69 850.32,-254.52 855.33,-263.86 860.06,-258.69"/>
</g>
<!-- Node24 -->
<g id="node24" class="node">
<title>Node24</title>
<g id="a_node24"><a xlink:href="_mineral_8hpp.html" target="_top" xlink:title=" ">
<polygon fill="white" stroke="black" points="1039,-224.5 1039,-254.5 1151,-254.5 1151,-224.5 1039,-224.5"/>
<text text-anchor="start" x="1047" y="-242.5" font-family="Helvetica,sans-Serif" font-size="10.00">engine/objects/ground</text>
<text text-anchor="middle" x="1095" y="-231.5" font-family="Helvetica,sans-Serif" font-size="10.00">/Mineral.hpp</text>
</a>
</g>
</g>
<!-- Node20&#45;&gt;Node24 -->
<g id="edge35" class="edge">
<title>Node20&#45;&gt;Node24</title>
<path fill="none" stroke="midnightblue" d="M927.94,-291.48C956.82,-282.66 1002.68,-268.67 1039.06,-257.57"/>
<polygon fill="midnightblue" stroke="midnightblue" points="1040.5,-260.79 1049.04,-254.52 1038.46,-254.09 1040.5,-260.79"/>
</g>
<!-- Node21&#45;&gt;Node14 -->
<g id="edge29" class="edge">
<title>Node21&#45;&gt;Node14</title>
<path fill="none" stroke="midnightblue" d="M718.98,-224.4C727.73,-215.58 739.03,-204.18 748.12,-195.02"/>
<polygon fill="midnightblue" stroke="midnightblue" points="750.86,-197.22 755.41,-187.66 745.89,-192.29 750.86,-197.22"/>
</g>
<!-- Node22&#45;&gt;Node14 -->
<g id="edge32" class="edge">
<title>Node22&#45;&gt;Node14</title>
<path fill="none" stroke="midnightblue" d="M917.62,-224.47C882.49,-214.08 835.21,-200.08 802.42,-190.37"/>
<polygon fill="midnightblue" stroke="midnightblue" points="803.32,-186.99 792.74,-187.51 801.33,-193.7 803.32,-186.99"/>
</g>
<!-- Node23&#45;&gt;Node14 -->
<g id="edge34" class="edge">
<title>Node23&#45;&gt;Node14</title>
<path fill="none" stroke="midnightblue" d="M818.17,-224.4C807.33,-215.31 793.22,-203.49 782.13,-194.19"/>
<polygon fill="midnightblue" stroke="midnightblue" points="784.24,-191.4 774.33,-187.66 779.75,-196.76 784.24,-191.4"/>
</g>
<!-- Node24&#45;&gt;Node14 -->
<g id="edge36" class="edge">
<title>Node24&#45;&gt;Node14</title>
<path fill="none" stroke="midnightblue" d="M1038.67,-225.75C1035.74,-225.14 1032.84,-224.56 1030,-224 951.79,-208.67 860.03,-193.84 807.29,-185.62"/>
<polygon fill="midnightblue" stroke="midnightblue" points="807.69,-182.14 797.28,-184.06 806.62,-189.05 807.69,-182.14"/>
</g>
<!-- Node26 -->
<g id="node26" class="node">
<title>Node26</title>
<g id="a_node26"><a xlink:title=" ">
<polygon fill="white" stroke="#bfbfbf" points="316.5,-230 316.5,-249 351.5,-249 351.5,-230 316.5,-230"/>
<text text-anchor="middle" x="334" y="-237" font-family="Helvetica,sans-Serif" font-size="10.00">map</text>
</a>
</g>
</g>
<!-- Node25&#45;&gt;Node26 -->
<g id="edge38" class="edge">
<title>Node25&#45;&gt;Node26</title>
<path fill="none" stroke="midnightblue" d="M281.74,-291.48C291.16,-282.28 306.36,-267.46 317.95,-256.16"/>
<polygon fill="midnightblue" stroke="midnightblue" points="320.56,-258.5 325.28,-249.01 315.67,-253.49 320.56,-258.5"/>
</g>
<!-- Node27 -->
<g id="node27" class="node">
<title>Node27</title>
<g id="a_node27"><a xlink:title=" ">
<polygon fill="white" stroke="#bfbfbf" points="204.5,-168.5 204.5,-187.5 245.5,-187.5 245.5,-168.5 204.5,-168.5"/>
<text text-anchor="middle" x="225" y="-175.5" font-family="Helvetica,sans-Serif" font-size="10.00">string</text>
</a>
</g>
</g>
<!-- Node25&#45;&gt;Node27 -->
<g id="edge39" class="edge">
<title>Node25&#45;&gt;Node27</title>
<path fill="none" stroke="midnightblue" d="M264,-291.23C255.86,-282.75 244.23,-269.13 238,-255 229.92,-236.67 226.84,-213.79 225.68,-197.95"/>
<polygon fill="midnightblue" stroke="midnightblue" points="229.17,-197.62 225.13,-187.83 222.18,-198 229.17,-197.62"/>
</g>
<!-- Node28 -->
<g id="node28" class="node">
<title>Node28</title>
<g id="a_node28"><a xlink:title=" ">
<polygon fill="white" stroke="#bfbfbf" points="247.5,-230 247.5,-249 298.5,-249 298.5,-230 247.5,-230"/>
<text text-anchor="middle" x="273" y="-237" font-family="Helvetica,sans-Serif" font-size="10.00">memory</text>
</a>
</g>
</g>
<!-- Node25&#45;&gt;Node28 -->
<g id="edge40" class="edge">
<title>Node25&#45;&gt;Node28</title>
<path fill="none" stroke="midnightblue" d="M273,-291.48C273,-283.08 273,-269.98 273,-259.16"/>
<polygon fill="midnightblue" stroke="midnightblue" points="276.5,-259.01 273,-249.01 269.5,-259.01 276.5,-259.01"/>
</g>
<!-- Node29 -->
<g id="node29" class="node">
<title>Node29</title>
<g id="a_node29"><a xlink:href="_shader_8hpp.html" target="_top" xlink:title=" ">
<polygon fill="white" stroke="black" points="85.5,-230 85.5,-249 190.5,-249 190.5,-230 85.5,-230"/>
<text text-anchor="middle" x="138" y="-237" font-family="Helvetica,sans-Serif" font-size="10.00">graphics/Shader.hpp</text>
</a>
</g>
</g>
<!-- Node25&#45;&gt;Node29 -->
<g id="edge41" class="edge">
<title>Node25&#45;&gt;Node29</title>
<path fill="none" stroke="midnightblue" d="M253.66,-291.48C230.9,-281.45 192.91,-264.7 166.71,-253.15"/>
<polygon fill="midnightblue" stroke="midnightblue" points="167.87,-249.84 157.31,-249.01 165.05,-256.24 167.87,-249.84"/>
</g>
<!-- Node30 -->
<g id="node30" class="node">
<title>Node30</title>
<g id="a_node30"><a xlink:href="_g_shape_8hpp.html" target="_top" xlink:title=" ">
<polygon fill="white" stroke="black" points="0,-168.5 0,-187.5 110,-187.5 110,-168.5 0,-168.5"/>
<text text-anchor="middle" x="55" y="-175.5" font-family="Helvetica,sans-Serif" font-size="10.00">graphics/GShape.hpp</text>
</a>
</g>
</g>
<!-- Node25&#45;&gt;Node30 -->
<g id="edge55" class="edge">
<title>Node25&#45;&gt;Node30</title>
<path fill="none" stroke="midnightblue" d="M201.82,-291.49C153.06,-284.26 94.07,-272.27 76,-255 60.5,-240.18 56.1,-215.03 55.03,-197.75"/>
<polygon fill="midnightblue" stroke="midnightblue" points="58.53,-197.6 54.72,-187.72 51.53,-197.82 58.53,-197.6"/>
</g>
<!-- Node36 -->
<g id="node36" class="node">
<title>Node36</title>
<g id="a_node36"><a xlink:href="_event_handler_8hpp.html" target="_top" xlink:title=" ">
<polygon fill="white" stroke="black" points="263.5,-168.5 263.5,-187.5 418.5,-187.5 418.5,-168.5 263.5,-168.5"/>
<text text-anchor="middle" x="341" y="-175.5" font-family="Helvetica,sans-Serif" font-size="10.00">EventHandler/EventHandler.hpp</text>
</a>
</g>
</g>
<!-- Node25&#45;&gt;Node36 -->
<g id="edge56" class="edge">
<title>Node25&#45;&gt;Node36</title>
<path fill="none" stroke="midnightblue" d="M308.01,-291.45C326.93,-284.84 348.68,-273.59 360,-255 371.01,-236.91 361.6,-212.72 352.54,-196.53"/>
<polygon fill="midnightblue" stroke="midnightblue" points="355.3,-194.35 347.12,-187.61 349.32,-197.98 355.3,-194.35"/>
</g>
<!-- Node29&#45;&gt;Node27 -->
<g id="edge42" class="edge">
<title>Node29&#45;&gt;Node27</title>
<path fill="none" stroke="midnightblue" d="M150.46,-229.98C164.42,-220.43 187.26,-204.81 203.99,-193.37"/>
<polygon fill="midnightblue" stroke="midnightblue" points="206.28,-196.04 212.56,-187.51 202.33,-190.27 206.28,-196.04"/>
</g>
<!-- Node29&#45;&gt;Node30 -->
<g id="edge43" class="edge">
<title>Node29&#45;&gt;Node30</title>
<path fill="none" stroke="midnightblue" d="M121.21,-229.98C106.1,-220.61 84.51,-205.38 69.98,-194.01"/>
<polygon fill="midnightblue" stroke="midnightblue" points="71.94,-191.09 61.97,-187.51 67.53,-196.53 71.94,-191.09"/>
</g>
<!-- Node34 -->
<g id="node34" class="node">
<title>Node34</title>
<g id="a_node34"><a xlink:href="_transform_8hpp.html" target="_top" xlink:title=" ">
<polygon fill="white" stroke="black" points="23.5,-56.5 23.5,-75.5 142.5,-75.5 142.5,-56.5 23.5,-56.5"/>
<text text-anchor="middle" x="83" y="-63.5" font-family="Helvetica,sans-Serif" font-size="10.00">graphics/Transform.hpp</text>
</a>
</g>
</g>
<!-- Node29&#45;&gt;Node34 -->
<g id="edge54" class="edge">
<title>Node29&#45;&gt;Node34</title>
<path fill="none" stroke="midnightblue" d="M135.88,-229.75C132.58,-216.36 125.88,-190.02 119,-168 109.82,-138.63 97.49,-105.08 89.9,-84.99"/>
<polygon fill="midnightblue" stroke="midnightblue" points="93.14,-83.67 86.31,-75.57 86.6,-86.16 93.14,-83.67"/>
</g>
<!-- Node30&#45;&gt;Node29 -->
<g id="edge52" class="edge">
<title>Node30&#45;&gt;Node29</title>
<path fill="none" stroke="midnightblue" d="M71.77,-187.51C86.87,-196.87 108.46,-212.09 122.99,-223.47"/>
<polygon fill="midnightblue" stroke="midnightblue" points="121.04,-226.39 131.01,-229.98 125.45,-220.96 121.04,-226.39"/>
</g>
<!-- Node31 -->
<g id="node31" class="node">
<title>Node31</title>
<g id="a_node31"><a xlink:href="_window_8hpp.html" target="_top" xlink:title=" ">
<polygon fill="white" stroke="black" points="183.5,-112.5 183.5,-131.5 292.5,-131.5 292.5,-112.5 183.5,-112.5"/>
<text text-anchor="middle" x="238" y="-119.5" font-family="Helvetica,sans-Serif" font-size="10.00">graphics/Window.hpp</text>
</a>
</g>
</g>
<!-- Node30&#45;&gt;Node31 -->
<g id="edge44" class="edge">
<title>Node30&#45;&gt;Node31</title>
<path fill="none" stroke="midnightblue" d="M84,-168.44C115.18,-159.24 164.93,-144.56 199.41,-134.39"/>
<polygon fill="midnightblue" stroke="midnightblue" points="200.54,-137.7 209.14,-131.52 198.56,-130.99 200.54,-137.7"/>
</g>
<!-- Node30&#45;&gt;Node34 -->
<g id="edge53" class="edge">
<title>Node30&#45;&gt;Node34</title>
<path fill="none" stroke="midnightblue" d="M57.2,-168.37C61.72,-150.62 72.14,-109.67 78.27,-85.6"/>
<polygon fill="midnightblue" stroke="midnightblue" points="81.74,-86.15 80.81,-75.59 74.95,-84.42 81.74,-86.15"/>
</g>
<!-- Node31&#45;&gt;Node8 -->
<g id="edge47" class="edge">
<title>Node31&#45;&gt;Node8</title>
<path fill="none" stroke="midnightblue" d="M257.62,-112.34C276.36,-103.83 305.19,-90.1 329,-76 355.51,-60.3 384.34,-39.52 402.76,-25.73"/>
<polygon fill="midnightblue" stroke="midnightblue" points="405.04,-28.39 410.91,-19.57 400.82,-22.81 405.04,-28.39"/>
</g>
<!-- Node31&#45;&gt;Node13 -->
<g id="edge48" class="edge">
<title>Node31&#45;&gt;Node13</title>
<path fill="none" stroke="midnightblue" d="M263.51,-112.44C291.55,-103.04 336.64,-87.91 367.03,-77.72"/>
<polygon fill="midnightblue" stroke="midnightblue" points="368.35,-80.97 376.72,-74.47 366.13,-74.33 368.35,-80.97"/>
</g>
<!-- Node31&#45;&gt;Node29 -->
<g id="edge49" class="edge">
<title>Node31&#45;&gt;Node29</title>
<path fill="none" stroke="midnightblue" d="M229.21,-131.76C220.36,-140.68 206.42,-155.02 195,-168 179.33,-185.81 162.36,-207.09 151.04,-221.58"/>
<polygon fill="midnightblue" stroke="midnightblue" points="148.16,-219.58 144.79,-229.63 153.69,-223.87 148.16,-219.58"/>
</g>
<!-- Node32 -->
<g id="node32" class="node">
<title>Node32</title>
<g id="a_node32"><a xlink:title=" ">
<polygon fill="white" stroke="#bfbfbf" points="257.5,-56.5 257.5,-75.5 320.5,-75.5 320.5,-56.5 257.5,-56.5"/>
<text text-anchor="middle" x="289" y="-63.5" font-family="Helvetica,sans-Serif" font-size="10.00">glad/glad.h</text>
</a>
</g>
</g>
<!-- Node31&#45;&gt;Node32 -->
<g id="edge45" class="edge">
<title>Node31&#45;&gt;Node32</title>
<path fill="none" stroke="midnightblue" d="M246.42,-112.08C253.85,-104.22 264.85,-92.57 273.81,-83.08"/>
<polygon fill="midnightblue" stroke="midnightblue" points="276.41,-85.42 280.74,-75.75 271.32,-80.62 276.41,-85.42"/>
</g>
<!-- Node33 -->
<g id="node33" class="node">
<title>Node33</title>
<g id="a_node33"><a xlink:title=" ">
<polygon fill="white" stroke="#bfbfbf" points="160.5,-56.5 160.5,-75.5 239.5,-75.5 239.5,-56.5 160.5,-56.5"/>
<text text-anchor="middle" x="200" y="-63.5" font-family="Helvetica,sans-Serif" font-size="10.00">GLFW/glfw3.h</text>
</a>
</g>
</g>
<!-- Node31&#45;&gt;Node33 -->
<g id="edge46" class="edge">
<title>Node31&#45;&gt;Node33</title>
<path fill="none" stroke="midnightblue" d="M231.73,-112.08C226.36,-104.46 218.48,-93.26 211.92,-83.94"/>
<polygon fill="midnightblue" stroke="midnightblue" points="214.78,-81.91 206.16,-75.75 209.05,-85.94 214.78,-81.91"/>
</g>
<!-- Node31&#45;&gt;Node34 -->
<g id="edge50" class="edge">
<title>Node31&#45;&gt;Node34</title>
<path fill="none" stroke="midnightblue" d="M213.44,-112.44C187.48,-103.4 146.33,-89.06 117.2,-78.92"/>
<polygon fill="midnightblue" stroke="midnightblue" points="118.04,-75.5 107.45,-75.52 115.74,-82.11 118.04,-75.5"/>
</g>
<!-- Node35 -->
<g id="node35" class="node">
<title>Node35</title>
<g id="a_node35"><a xlink:title=" ">
<polygon fill="white" stroke="#bfbfbf" points="31,-0.5 31,-19.5 135,-19.5 135,-0.5 31,-0.5"/>
<text text-anchor="middle" x="83" y="-7.5" font-family="Helvetica,sans-Serif" font-size="10.00">glm/gtc/type_ptr.hpp</text>
</a>
</g>
</g>
<!-- Node34&#45;&gt;Node35 -->
<g id="edge51" class="edge">
<title>Node34&#45;&gt;Node35</title>
<path fill="none" stroke="midnightblue" d="M83,-56.08C83,-49.01 83,-38.86 83,-29.99"/>
<polygon fill="midnightblue" stroke="midnightblue" points="86.5,-29.75 83,-19.75 79.5,-29.75 86.5,-29.75"/>
</g>
<!-- Node36&#45;&gt;Node7 -->
<g id="edge59" class="edge">
<title>Node36&#45;&gt;Node7</title>
<path fill="none" stroke="midnightblue" d="M352.9,-168.33C370.1,-155.82 402.9,-132.02 431,-112 445.42,-101.72 461.75,-90.25 474.3,-81.45"/>
<polygon fill="midnightblue" stroke="midnightblue" points="476.51,-84.18 482.7,-75.58 472.5,-78.44 476.51,-84.18"/>
</g>
<!-- Node36&#45;&gt;Node16 -->
<g id="edge57" class="edge">
<title>Node36&#45;&gt;Node16</title>
<path fill="none" stroke="midnightblue" d="M366.67,-168.44C393.92,-159.36 437.18,-144.94 467.65,-134.78"/>
<polygon fill="midnightblue" stroke="midnightblue" points="469.07,-138 477.45,-131.52 466.86,-131.36 469.07,-138"/>
</g>
<!-- Node36&#45;&gt;Node31 -->
<g id="edge58" class="edge">
<title>Node36&#45;&gt;Node31</title>
<path fill="none" stroke="midnightblue" d="M324.45,-168.32C308.01,-159.7 282.57,-146.36 263.53,-136.39"/>
<polygon fill="midnightblue" stroke="midnightblue" points="264.99,-133.2 254.51,-131.65 261.74,-139.4 264.99,-133.2"/>
</g>
<!-- Node38 -->
<g id="node38" class="node">
<title>Node38</title>
<g id="a_node38"><a xlink:title=" ">
<polygon fill="white" stroke="#bfbfbf" points="1060,-459.5 1060,-478.5 1106,-478.5 1106,-459.5 1060,-459.5"/>
<text text-anchor="middle" x="1083" y="-466.5" font-family="Helvetica,sans-Serif" font-size="10.00">cstdint</text>
</a>
</g>
</g>
<!-- Node37&#45;&gt;Node38 -->
<g id="edge61" class="edge">
<title>Node37&#45;&gt;Node38</title>
<path fill="none" stroke="midnightblue" d="M1083,-515.08C1083,-508.01 1083,-497.86 1083,-488.99"/>
<polygon fill="midnightblue" stroke="midnightblue" points="1086.5,-488.75 1083,-478.75 1079.5,-488.75 1086.5,-488.75"/>
</g>
</g>
</svg>
