<?xml version="1.0" encoding="UTF-8" standalone="no"?>
<!DOCTYPE svg PUBLIC "-//W3C//DTD SVG 1.1//EN"
 "http://www.w3.org/Graphics/SVG/1.1/DTD/svg11.dtd">
<!-- Generated by graphviz version 2.47.0 (20210407.0042)
 -->
<!-- Title: main Pages: 1 -->
<svg width="1209pt" height="572pt"
 viewBox="0.00 0.00 1209.00 571.50" xmlns="http://www.w3.org/2000/svg" xmlns:xlink="http://www.w3.org/1999/xlink">
<g id="graph0" class="graph" transform="scale(1 1) rotate(0) translate(4 567.5)">
<title>main</title>
<polygon fill="white" stroke="transparent" points="-4,4 -4,-567.5 1205,-567.5 1205,4 -4,4"/>
<!-- Node1 -->
<g id="node1" class="node">
<title>Node1</title>
<g id="a_node1"><a xlink:title=" ">
<polygon fill="#bfbfbf" stroke="black" points="0,-392.5 0,-411.5 38,-411.5 38,-392.5 0,-392.5"/>
<text text-anchor="middle" x="19" y="-399.5" font-family="Helvetica,sans-Serif" font-size="10.00">main</text>
</a>
</g>
</g>
<!-- Node2 -->
<g id="node2" class="node">
<title>Node2</title>
<g id="a_node2"><a xlink:href="class_engine.html#a39f23d7f0ad86322bfdb73d4e6763005" target="_top" xlink:title=" ">
<polygon fill="white" stroke="black" points="107,-278.5 107,-297.5 180,-297.5 180,-278.5 107,-278.5"/>
<text text-anchor="middle" x="143.5" y="-285.5" font-family="Helvetica,sans-Serif" font-size="10.00">Engine::Draw</text>
</a>
</g>
</g>
<!-- Node1&#45;&gt;Node2 -->
<g id="edge1" class="edge">
<title>Node1&#45;&gt;Node2</title>
<path fill="none" stroke="midnightblue" d="M30.44,-392.28C51.33,-372.85 98.45,-328.99 124.45,-304.8"/>
<polygon fill="midnightblue" stroke="midnightblue" points="127.15,-307.07 132.08,-297.69 122.38,-301.95 127.15,-307.07"/>
</g>
<!-- Node14 -->
<g id="node14" class="node">
<title>Node14</title>
<g id="a_node14"><a xlink:href="class_graphics_1_1_resource_manager.html#a2bf0311bf4f8431618eb13706a26a5f1" target="_top" xlink:title=" ">
<polygon fill="white" stroke="black" points="756,-337 756,-367 895,-367 895,-337 756,-337"/>
<text text-anchor="start" x="764" y="-355" font-family="Helvetica,sans-Serif" font-size="10.00">Graphics::ResourceManager</text>
<text text-anchor="middle" x="825.5" y="-344" font-family="Helvetica,sans-Serif" font-size="10.00">::GetWindow</text>
</a>
</g>
</g>
<!-- Node1&#45;&gt;Node14 -->
<g id="edge26" class="edge">
<title>Node1&#45;&gt;Node14</title>
<path fill="none" stroke="midnightblue" d="M38.4,-406.62C48.79,-409.09 62.06,-412.03 74,-414 179.42,-431.39 206.15,-440 313,-440 313,-440 313,-440 483,-440 586.46,-440 623.4,-469.08 715,-421 737.37,-409.26 730.24,-391.4 751,-377 753.86,-375.02 756.88,-373.18 760.01,-371.49"/>
<polygon fill="midnightblue" stroke="midnightblue" points="761.63,-374.59 769.07,-367.05 758.55,-368.3 761.63,-374.59"/>
</g>
<!-- Node21 -->
<g id="node21" class="node">
<title>Node21</title>
<g id="a_node21"><a xlink:href="class_engine.html#acdcf4afb71571455296d5e09e270b496" target="_top" xlink:title=" ">
<polygon fill="white" stroke="black" points="266.5,-468.5 266.5,-487.5 361.5,-487.5 361.5,-468.5 266.5,-468.5"/>
<text text-anchor="middle" x="314" y="-475.5" font-family="Helvetica,sans-Serif" font-size="10.00">Engine::GetEngine</text>
</a>
</g>
</g>
<!-- Node1&#45;&gt;Node21 -->
<g id="edge24" class="edge">
<title>Node1&#45;&gt;Node21</title>
<path fill="none" stroke="midnightblue" d="M26.75,-411.66C35.89,-423.89 53.45,-444.49 74,-454 131.89,-480.78 205.93,-484.13 256.15,-482.48"/>
<polygon fill="midnightblue" stroke="midnightblue" points="256.33,-485.98 266.18,-482.08 256.04,-478.98 256.33,-485.98"/>
</g>
<!-- Node22 -->
<g id="node22" class="node">
<title>Node22</title>
<g id="a_node22"><a xlink:href="class_graphics_1_1_resource_manager.html#a79f4e066410f871bee9bc241ba87fcb6" target="_top" xlink:title=" ">
<polygon fill="white" stroke="black" points="74,-229 74,-259 213,-259 213,-229 74,-229"/>
<text text-anchor="start" x="82" y="-247" font-family="Helvetica,sans-Serif" font-size="10.00">Graphics::ResourceManager</text>
<text text-anchor="middle" x="143.5" y="-236" font-family="Helvetica,sans-Serif" font-size="10.00">::GetEventHandler</text>
</a>
</g>
</g>
<!-- Node1&#45;&gt;Node22 -->
<g id="edge25" class="edge">
<title>Node1&#45;&gt;Node22</title>
<path fill="none" stroke="midnightblue" d="M21.2,-392.49C24.72,-368.42 37.24,-304.47 74,-269 75.63,-267.43 77.36,-265.95 79.18,-264.57"/>
<polygon fill="midnightblue" stroke="midnightblue" points="81.15,-267.47 87.62,-259.08 77.33,-261.6 81.15,-267.47"/>
</g>
<!-- Node23 -->
<g id="node23" class="node">
<title>Node23</title>
<g id="a_node23"><a xlink:href="main_8cpp.html#adb66f09c018c6ec5f3ade6acd02a5003" target="_top" xlink:title=" ">
<polygon fill="white" stroke="black" points="109.5,-506.5 109.5,-525.5 177.5,-525.5 177.5,-506.5 109.5,-506.5"/>
<text text-anchor="middle" x="143.5" y="-513.5" font-family="Helvetica,sans-Serif" font-size="10.00">Initialization</text>
</a>
</g>
</g>
<!-- Node1&#45;&gt;Node23 -->
<g id="edge27" class="edge">
<title>Node1&#45;&gt;Node23</title>
<path fill="none" stroke="midnightblue" d="M23.25,-411.63C29.89,-429.91 46.74,-469.79 74,-492 81.54,-498.14 90.76,-502.76 99.96,-506.22"/>
<polygon fill="midnightblue" stroke="midnightblue" points="98.88,-509.55 109.48,-509.42 101.11,-502.92 98.88,-509.55"/>
</g>
<!-- Node32 -->
<g id="node32" class="node">
<title>Node32</title>
<g id="a_node32"><a xlink:href="class_engine.html#a06d3e75a7f768f0d48746aea00483724" target="_top" xlink:title=" ">
<polygon fill="white" stroke="black" points="109,-38.5 109,-57.5 178,-57.5 178,-38.5 109,-38.5"/>
<text text-anchor="middle" x="143.5" y="-45.5" font-family="Helvetica,sans-Serif" font-size="10.00">Engine::Tick</text>
</a>
</g>
</g>
<!-- Node1&#45;&gt;Node32 -->
<g id="edge40" class="edge">
<title>Node1&#45;&gt;Node32</title>
<path fill="none" stroke="midnightblue" d="M22.5,-392.37C29.67,-364.99 51.31,-284.41 74,-219 93.5,-162.81 120.82,-98.01 134.3,-66.77"/>
<polygon fill="midnightblue" stroke="midnightblue" points="137.55,-68.09 138.32,-57.52 131.13,-65.3 137.55,-68.09"/>
</g>
<!-- Node36 -->
<g id="node36" class="node">
<title>Node36</title>
<g id="a_node36"><a xlink:href="class_event_handler.html#a53ee17f2156ec5ad0769743f39ea259d" target="_top" xlink:title=" ">
<polygon fill="white" stroke="black" points="589.5,-381 589.5,-411 710.5,-411 710.5,-381 589.5,-381"/>
<text text-anchor="start" x="597.5" y="-399" font-family="Helvetica,sans-Serif" font-size="10.00">EventHandler::TriggerAll</text>
<text text-anchor="middle" x="650" y="-388" font-family="Helvetica,sans-Serif" font-size="10.00">Events</text>
</a>
</g>
</g>
<!-- Node1&#45;&gt;Node36 -->
<g id="edge44" class="edge">
<title>Node1&#45;&gt;Node36</title>
<path fill="none" stroke="midnightblue" d="M38.15,-401.83C117.44,-401.07 435.89,-398.03 578.88,-396.67"/>
<polygon fill="midnightblue" stroke="midnightblue" points="579.31,-400.16 589.28,-396.57 579.25,-393.17 579.31,-400.16"/>
</g>
<!-- Node3 -->
<g id="node3" class="node">
<title>Node3</title>
<g id="a_node3"><a xlink:href="class_field.html#a40e273e9fe4e28fe71aa6947eacc1ab0" target="_top" xlink:title=" ">
<polygon fill="white" stroke="black" points="281.5,-202.5 281.5,-221.5 346.5,-221.5 346.5,-202.5 281.5,-202.5"/>
<text text-anchor="middle" x="314" y="-209.5" font-family="Helvetica,sans-Serif" font-size="10.00">Field::Draw</text>
</a>
</g>
</g>
<!-- Node2&#45;&gt;Node3 -->
<g id="edge2" class="edge">
<title>Node2&#45;&gt;Node3</title>
<path fill="none" stroke="midnightblue" d="M180.13,-281.99C191.18,-279.13 203.06,-274.98 213,-269 232.94,-257.01 229.17,-243.17 249,-231 255.88,-226.78 263.74,-223.45 271.56,-220.84"/>
<polygon fill="midnightblue" stroke="midnightblue" points="272.77,-224.13 281.35,-217.9 270.76,-217.42 272.77,-224.13"/>
</g>
<!-- Node5 -->
<g id="node5" class="node">
<title>Node5</title>
<g id="a_node5"><a xlink:href="class_drawable.html#a380dbc28ed3746ac7ac00c4844b30d08" target="_top" xlink:title=" ">
<polygon fill="white" stroke="black" points="608,-190.5 608,-209.5 692,-209.5 692,-190.5 608,-190.5"/>
<text text-anchor="middle" x="650" y="-197.5" font-family="Helvetica,sans-Serif" font-size="10.00">Drawable::Draw</text>
</a>
</g>
</g>
<!-- Node2&#45;&gt;Node5 -->
<g id="edge17" class="edge">
<title>Node2&#45;&gt;Node5</title>
<path fill="none" stroke="midnightblue" d="M180.35,-284.04C191.79,-281.3 203.84,-276.71 213,-269 241.6,-244.94 220.67,-217.38 249,-193 307.41,-142.75 338.77,-154.23 415,-143 473.92,-134.32 491.43,-127.75 549,-143 579.02,-150.95 609.44,-170.25 628.71,-184.19"/>
<polygon fill="midnightblue" stroke="midnightblue" points="626.87,-187.19 636.99,-190.35 631.05,-181.57 626.87,-187.19"/>
</g>
<!-- Node2&#45;&gt;Node14 -->
<g id="edge19" class="edge">
<title>Node2&#45;&gt;Node14</title>
<path fill="none" stroke="midnightblue" d="M157.15,-297.6C175.97,-311.23 213.01,-335.59 249,-345 340.33,-368.88 610.36,-361.32 745.54,-355.73"/>
<polygon fill="midnightblue" stroke="midnightblue" points="745.99,-359.21 755.83,-355.29 745.69,-352.22 745.99,-359.21"/>
</g>
<!-- Node16 -->
<g id="node16" class="node">
<title>Node16</title>
<g id="a_node16"><a xlink:href="class_graphics_1_1_window.html#aa834f03ccb101a164cdfdffa773c0a53" target="_top" xlink:title=" ">
<polygon fill="white" stroke="black" points="415,-267 415,-297 549,-297 549,-267 415,-267"/>
<text text-anchor="start" x="423" y="-285" font-family="Helvetica,sans-Serif" font-size="10.00">Graphics::Window::GetSize</text>
<text text-anchor="middle" x="482" y="-274" font-family="Helvetica,sans-Serif" font-size="10.00">Window</text>
</a>
</g>
</g>
<!-- Node2&#45;&gt;Node16 -->
<g id="edge18" class="edge">
<title>Node2&#45;&gt;Node16</title>
<path fill="none" stroke="midnightblue" d="M180.19,-287.36C233.31,-286.42 334.44,-284.61 404.7,-283.36"/>
<polygon fill="midnightblue" stroke="midnightblue" points="404.9,-286.86 414.83,-283.18 404.77,-279.86 404.9,-286.86"/>
</g>
<!-- Node17 -->
<g id="node17" class="node">
<title>Node17</title>
<g id="a_node17"><a xlink:href="class_world_actor.html#a35b3672c657fd763d44c75f9625c1185" target="_top" xlink:title=" ">
<polygon fill="white" stroke="black" points="268,-240.5 268,-259.5 360,-259.5 360,-240.5 268,-240.5"/>
<text text-anchor="middle" x="314" y="-247.5" font-family="Helvetica,sans-Serif" font-size="10.00">WorldActor::GetX</text>
</a>
</g>
</g>
<!-- Node2&#45;&gt;Node17 -->
<g id="edge20" class="edge">
<title>Node2&#45;&gt;Node17</title>
<path fill="none" stroke="midnightblue" d="M180.23,-279.94C203.71,-274.65 234.8,-267.64 260.99,-261.73"/>
<polygon fill="midnightblue" stroke="midnightblue" points="261.78,-265.14 270.77,-259.52 260.24,-258.31 261.78,-265.14"/>
</g>
<!-- Node18 -->
<g id="node18" class="node">
<title>Node18</title>
<g id="a_node18"><a xlink:href="class_world_actor.html#a28d9235e9224dee56e6f32791d5931f0" target="_top" xlink:title=" ">
<polygon fill="white" stroke="black" points="268,-76.5 268,-95.5 360,-95.5 360,-76.5 268,-76.5"/>
<text text-anchor="middle" x="314" y="-83.5" font-family="Helvetica,sans-Serif" font-size="10.00">WorldActor::GetY</text>
</a>
</g>
</g>
<!-- Node2&#45;&gt;Node18 -->
<g id="edge21" class="edge">
<title>Node2&#45;&gt;Node18</title>
<path fill="none" stroke="midnightblue" d="M180.32,-285.38C192.17,-282.79 204.48,-277.93 213,-269 262.99,-216.55 201.37,-164.6 249,-110 252.29,-106.23 256.23,-103.05 260.52,-100.37"/>
<polygon fill="midnightblue" stroke="midnightblue" points="262.49,-103.29 269.72,-95.54 259.23,-97.09 262.49,-103.29"/>
</g>
<!-- Node19 -->
<g id="node19" class="node">
<title>Node19</title>
<g id="a_node19"><a xlink:href="class_graphics_1_1_window.html#a7863fafae23423f404bee7aa3a57e124" target="_top" xlink:title=" ">
<polygon fill="white" stroke="black" points="249,-316.5 249,-335.5 379,-335.5 379,-316.5 249,-316.5"/>
<text text-anchor="middle" x="314" y="-323.5" font-family="Helvetica,sans-Serif" font-size="10.00">Graphics::Window::Render</text>
</a>
</g>
</g>
<!-- Node2&#45;&gt;Node19 -->
<g id="edge22" class="edge">
<title>Node2&#45;&gt;Node19</title>
<path fill="none" stroke="midnightblue" d="M180.23,-296.06C203.71,-301.35 234.8,-308.36 260.99,-314.27"/>
<polygon fill="midnightblue" stroke="midnightblue" points="260.24,-317.69 270.77,-316.48 261.78,-310.86 260.24,-317.69"/>
</g>
<!-- Node4 -->
<g id="node4" class="node">
<title>Node4</title>
<g id="a_node4"><a xlink:href="class_cell.html#a3d4a0b84cec344e492e1d7cb1241e250" target="_top" xlink:title=" ">
<polygon fill="white" stroke="black" points="452,-152.5 452,-171.5 512,-171.5 512,-152.5 452,-152.5"/>
<text text-anchor="middle" x="482" y="-159.5" font-family="Helvetica,sans-Serif" font-size="10.00">Cell::Draw</text>
</a>
</g>
</g>
<!-- Node3&#45;&gt;Node4 -->
<g id="edge3" class="edge">
<title>Node3&#45;&gt;Node4</title>
<path fill="none" stroke="midnightblue" d="M345.15,-202.48C364.97,-196.26 391.49,-188.03 415,-181 423.72,-178.39 433.1,-175.66 441.98,-173.09"/>
<polygon fill="midnightblue" stroke="midnightblue" points="443.08,-176.42 451.72,-170.29 441.14,-169.69 443.08,-176.42"/>
</g>
<!-- Node3&#45;&gt;Node14 -->
<g id="edge16" class="edge">
<title>Node3&#45;&gt;Node14</title>
<path fill="none" stroke="midnightblue" d="M346.72,-216.84C392.01,-224.07 477.61,-238.9 549,-258 591.93,-269.49 705.88,-309.55 773.02,-333.51"/>
<polygon fill="midnightblue" stroke="midnightblue" points="771.98,-336.85 782.57,-336.92 774.33,-330.26 771.98,-336.85"/>
</g>
<!-- Node15 -->
<g id="node15" class="node">
<title>Node15</title>
<g id="a_node15"><a xlink:href="class_field.html#abbe1a428501a04475979b292b5ad404b" target="_top" xlink:title=" ">
<polygon fill="white" stroke="black" points="436,-190.5 436,-209.5 528,-209.5 528,-190.5 436,-190.5"/>
<text text-anchor="middle" x="482" y="-197.5" font-family="Helvetica,sans-Serif" font-size="10.00">Field::GetCellPos</text>
</a>
</g>
</g>
<!-- Node3&#45;&gt;Node15 -->
<g id="edge14" class="edge">
<title>Node3&#45;&gt;Node15</title>
<path fill="none" stroke="midnightblue" d="M346.61,-209.71C368.87,-208.11 399.25,-205.91 425.5,-204.01"/>
<polygon fill="midnightblue" stroke="midnightblue" points="425.98,-207.49 435.7,-203.27 425.48,-200.5 425.98,-207.49"/>
</g>
<!-- Node3&#45;&gt;Node16 -->
<g id="edge15" class="edge">
<title>Node3&#45;&gt;Node16</title>
<path fill="none" stroke="midnightblue" d="M346.78,-219.81C357.23,-222.81 368.79,-226.58 379,-231 396,-238.36 398.55,-243.49 415,-252 422,-255.62 429.52,-259.26 436.88,-262.7"/>
<polygon fill="midnightblue" stroke="midnightblue" points="435.54,-265.93 446.09,-266.93 438.46,-259.57 435.54,-265.93"/>
</g>
<!-- Node4&#45;&gt;Node5 -->
<g id="edge4" class="edge">
<title>Node4&#45;&gt;Node5</title>
<path fill="none" stroke="midnightblue" d="M512.3,-168.71C535.92,-174.11 569.72,-181.85 597.8,-188.28"/>
<polygon fill="midnightblue" stroke="midnightblue" points="597.33,-191.76 607.86,-190.58 598.89,-184.94 597.33,-191.76"/>
</g>
<!-- Node6 -->
<g id="node6" class="node">
<title>Node6</title>
<g id="a_node6"><a xlink:href="class_graphics_1_1_image.html#af48c0e309532eb1ff36e8fdaee244da1" target="_top" xlink:title=" ">
<polygon fill="white" stroke="black" points="768.5,-238.5 768.5,-257.5 882.5,-257.5 882.5,-238.5 768.5,-238.5"/>
<text text-anchor="middle" x="825.5" y="-245.5" font-family="Helvetica,sans-Serif" font-size="10.00">Graphics::Image::Draw</text>
</a>
</g>
</g>
<!-- Node5&#45;&gt;Node6 -->
<g id="edge5" class="edge">
<title>Node5&#45;&gt;Node6</title>
<path fill="none" stroke="midnightblue" d="M685.69,-209.6C712.76,-217.09 750.56,-227.54 779.88,-235.66"/>
<polygon fill="midnightblue" stroke="midnightblue" points="779.3,-239.13 789.87,-238.42 781.16,-232.38 779.3,-239.13"/>
</g>
<!-- Node12 -->
<g id="node12" class="node">
<title>Node12</title>
<g id="a_node12"><a xlink:href="class_graphics_1_1_resource_manager.html#a712cf513dbda24deb3a7fcea7157003a" target="_top" xlink:title=" ">
<polygon fill="white" stroke="black" points="756,-185 756,-215 895,-215 895,-185 756,-185"/>
<text text-anchor="start" x="764" y="-203" font-family="Helvetica,sans-Serif" font-size="10.00">Graphics::ResourceManager</text>
<text text-anchor="middle" x="825.5" y="-192" font-family="Helvetica,sans-Serif" font-size="10.00">::GetImage</text>
</a>
</g>
</g>
<!-- Node5&#45;&gt;Node12 -->
<g id="edge11" class="edge">
<title>Node5&#45;&gt;Node12</title>
<path fill="none" stroke="midnightblue" d="M692.12,-200C708.18,-200 727.16,-200 745.66,-200"/>
<polygon fill="midnightblue" stroke="midnightblue" points="745.87,-203.5 755.87,-200 745.87,-196.5 745.87,-203.5"/>
</g>
<!-- Node13 -->
<g id="node13" class="node">
<title>Node13</title>
<g id="a_node13"><a xlink:href="class_graphics_1_1_resource_manager.html#a34d11294bd090580de46ab34f303c2ab" target="_top" xlink:title=" ">
<polygon fill="white" stroke="black" points="756,-284 756,-314 895,-314 895,-284 756,-284"/>
<text text-anchor="start" x="764" y="-302" font-family="Helvetica,sans-Serif" font-size="10.00">Graphics::ResourceManager</text>
<text text-anchor="middle" x="825.5" y="-291" font-family="Helvetica,sans-Serif" font-size="10.00">::GetShader</text>
</a>
</g>
</g>
<!-- Node5&#45;&gt;Node13 -->
<g id="edge12" class="edge">
<title>Node5&#45;&gt;Node13</title>
<path fill="none" stroke="midnightblue" d="M686.17,-209.52C696.02,-213.13 706.38,-217.9 715,-224 735.34,-238.41 731.04,-252.07 751,-267 757.27,-271.69 764.33,-275.86 771.54,-279.52"/>
<polygon fill="midnightblue" stroke="midnightblue" points="770.16,-282.74 780.69,-283.88 773.16,-276.42 770.16,-282.74"/>
</g>
<!-- Node5&#45;&gt;Node14 -->
<g id="edge13" class="edge">
<title>Node5&#45;&gt;Node14</title>
<path fill="none" stroke="midnightblue" d="M692.03,-209.39C700.45,-212.86 708.67,-217.58 715,-224 748.18,-257.62 717.91,-290.29 751,-324 753.77,-326.82 756.86,-329.37 760.15,-331.66"/>
<polygon fill="midnightblue" stroke="midnightblue" points="758.35,-334.65 768.71,-336.85 761.97,-328.67 758.35,-334.65"/>
</g>
<!-- Node7 -->
<g id="node7" class="node">
<title>Node7</title>
<g id="a_node7"><a xlink:href="class_graphics_1_1_quadrangle.html#a7a061a60b5bff19feb5fd317d06495f0" target="_top" xlink:title=" ">
<polygon fill="white" stroke="black" points="936,-358 936,-388 1046,-388 1046,-358 936,-358"/>
<text text-anchor="start" x="944" y="-376" font-family="Helvetica,sans-Serif" font-size="10.00">Graphics::Quadrangle</text>
<text text-anchor="middle" x="991" y="-365" font-family="Helvetica,sans-Serif" font-size="10.00">::Draw</text>
</a>
</g>
</g>
<!-- Node6&#45;&gt;Node7 -->
<g id="edge6" class="edge">
<title>Node6&#45;&gt;Node7</title>
<path fill="none" stroke="midnightblue" d="M862.91,-257.56C875.29,-261.78 888.82,-267.51 900,-275 930.33,-295.31 957.51,-327.89 973.87,-349.85"/>
<polygon fill="midnightblue" stroke="midnightblue" points="971.08,-351.96 979.8,-357.98 976.74,-347.84 971.08,-351.96"/>
</g>
<!-- Node10 -->
<g id="node10" class="node">
<title>Node10</title>
<g id="a_node10"><a xlink:href="class_graphics_1_1_shader.html#aa5da414808337285b38565f60c3d7cbd" target="_top" xlink:title=" ">
<polygon fill="white" stroke="black" points="936,-238.5 936,-257.5 1046,-257.5 1046,-238.5 936,-238.5"/>
<text text-anchor="middle" x="991" y="-245.5" font-family="Helvetica,sans-Serif" font-size="10.00">Graphics::Shader::Set</text>
</a>
</g>
</g>
<!-- Node6&#45;&gt;Node10 -->
<g id="edge9" class="edge">
<title>Node6&#45;&gt;Node10</title>
<path fill="none" stroke="midnightblue" d="M882.77,-248C896.59,-248 911.5,-248 925.67,-248"/>
<polygon fill="midnightblue" stroke="midnightblue" points="925.84,-251.5 935.84,-248 925.84,-244.5 925.84,-251.5"/>
</g>
<!-- Node8 -->
<g id="node8" class="node">
<title>Node8</title>
<g id="a_node8"><a xlink:href="class_graphics_1_1_shader.html#a63bfd523754bb6b2224aa7a48c65a504" target="_top" xlink:title=" ">
<polygon fill="white" stroke="black" points="1082,-363.5 1082,-382.5 1201,-382.5 1201,-363.5 1082,-363.5"/>
<text text-anchor="middle" x="1141.5" y="-370.5" font-family="Helvetica,sans-Serif" font-size="10.00">Graphics::Shader::GetId</text>
</a>
</g>
</g>
<!-- Node7&#45;&gt;Node8 -->
<g id="edge7" class="edge">
<title>Node7&#45;&gt;Node8</title>
<path fill="none" stroke="midnightblue" d="M1046.03,-373C1054.44,-373 1063.21,-373 1071.89,-373"/>
<polygon fill="midnightblue" stroke="midnightblue" points="1072,-376.5 1082,-373 1072,-369.5 1072,-376.5"/>
</g>
<!-- Node9 -->
<g id="node9" class="node">
<title>Node9</title>
<g id="a_node9"><a xlink:href="class_graphics_1_1_shader.html#a11a2de17d1d077ec34acd4f7cd57f6b1" target="_top" xlink:title=" ">
<polygon fill="white" stroke="black" points="1085,-469.5 1085,-488.5 1198,-488.5 1198,-469.5 1085,-469.5"/>
<text text-anchor="middle" x="1141.5" y="-476.5" font-family="Helvetica,sans-Serif" font-size="10.00">Graphics::Shader::Use</text>
</a>
</g>
</g>
<!-- Node7&#45;&gt;Node9 -->
<g id="edge8" class="edge">
<title>Node7&#45;&gt;Node9</title>
<path fill="none" stroke="midnightblue" d="M1013.28,-388.19C1041.21,-408.13 1090.02,-442.96 1118.37,-463.2"/>
<polygon fill="midnightblue" stroke="midnightblue" points="1116.63,-466.26 1126.8,-469.22 1120.7,-460.56 1116.63,-466.26"/>
</g>
<!-- Node11 -->
<g id="node11" class="node">
<title>Node11</title>
<g id="a_node11"><a xlink:href="class_graphics_1_1_image.html#aab55feadb4b66e0fd78b5f54a6fadde2" target="_top" xlink:title=" ">
<polygon fill="white" stroke="black" points="1083.5,-238.5 1083.5,-257.5 1199.5,-257.5 1199.5,-238.5 1083.5,-238.5"/>
<text text-anchor="middle" x="1141.5" y="-245.5" font-family="Helvetica,sans-Serif" font-size="10.00">Graphics::Image::GetId</text>
</a>
</g>
</g>
<!-- Node10&#45;&gt;Node11 -->
<g id="edge10" class="edge">
<title>Node10&#45;&gt;Node11</title>
<path fill="none" stroke="midnightblue" d="M1046.03,-248C1054.83,-248 1064.04,-248 1073.11,-248"/>
<polygon fill="midnightblue" stroke="midnightblue" points="1073.26,-251.5 1083.26,-248 1073.26,-244.5 1073.26,-251.5"/>
</g>
<!-- Node20 -->
<g id="node20" class="node">
<title>Node20</title>
<g id="a_node20"><a xlink:href="class_graphics_1_1_window.html#a9904449165571eff36b106148ec1279f" target="_top" xlink:title=" ">
<polygon fill="white" stroke="black" points="421,-316.5 421,-335.5 543,-335.5 543,-316.5 421,-316.5"/>
<text text-anchor="middle" x="482" y="-323.5" font-family="Helvetica,sans-Serif" font-size="10.00">Graphics::Window::Clear</text>
</a>
</g>
</g>
<!-- Node19&#45;&gt;Node20 -->
<g id="edge23" class="edge">
<title>Node19&#45;&gt;Node20</title>
<path fill="none" stroke="midnightblue" d="M379.18,-326C389.44,-326 400.11,-326 410.51,-326"/>
<polygon fill="midnightblue" stroke="midnightblue" points="410.8,-329.5 420.8,-326 410.8,-322.5 410.8,-329.5"/>
</g>
<!-- Node23&#45;&gt;Node21 -->
<g id="edge28" class="edge">
<title>Node23&#45;&gt;Node21</title>
<path fill="none" stroke="midnightblue" d="M177.79,-508.49C201.43,-503.16 233.65,-495.89 260.71,-489.79"/>
<polygon fill="midnightblue" stroke="midnightblue" points="261.81,-493.13 270.8,-487.52 260.27,-486.3 261.81,-493.13"/>
</g>
<!-- Node24 -->
<g id="node24" class="node">
<title>Node24</title>
<g id="a_node24"><a xlink:href="class_sprites_manager.html#a8245b163545dd5a57779316703048eb9" target="_top" xlink:title=" ">
<polygon fill="white" stroke="black" points="262.5,-506.5 262.5,-525.5 365.5,-525.5 365.5,-506.5 262.5,-506.5"/>
<text text-anchor="middle" x="314" y="-513.5" font-family="Helvetica,sans-Serif" font-size="10.00">SpritesManager::Init</text>
</a>
</g>
</g>
<!-- Node23&#45;&gt;Node24 -->
<g id="edge29" class="edge">
<title>Node23&#45;&gt;Node24</title>
<path fill="none" stroke="midnightblue" d="M177.79,-516C198.95,-516 226.98,-516 252.02,-516"/>
<polygon fill="midnightblue" stroke="midnightblue" points="252.18,-519.5 262.18,-516 252.18,-512.5 252.18,-519.5"/>
</g>
<!-- Node26 -->
<g id="node26" class="node">
<title>Node26</title>
<g id="a_node26"><a xlink:href="namespace_graphics_1_1_resource_parser.html#a6a538c07babc9bbaf884e0aeb9654fe0" target="_top" xlink:title=" ">
<polygon fill="white" stroke="black" points="585,-469 585,-499 715,-499 715,-469 585,-469"/>
<text text-anchor="start" x="593" y="-487" font-family="Helvetica,sans-Serif" font-size="10.00">Graphics::ResourceParser</text>
<text text-anchor="middle" x="650" y="-476" font-family="Helvetica,sans-Serif" font-size="10.00">::LoadResources</text>
</a>
</g>
</g>
<!-- Node23&#45;&gt;Node26 -->
<g id="edge31" class="edge">
<title>Node23&#45;&gt;Node26</title>
<path fill="none" stroke="midnightblue" d="M177.59,-523.72C247.39,-538.66 414.34,-567.36 549,-535 573.7,-529.06 599.18,-515.95 618.23,-504.51"/>
<polygon fill="midnightblue" stroke="midnightblue" points="620.1,-507.46 626.77,-499.23 616.43,-501.51 620.1,-507.46"/>
</g>
<!-- Node25 -->
<g id="node25" class="node">
<title>Node25</title>
<g id="a_node25"><a xlink:href="class_cell.html#a4ab1e51777a98363d170f41754e204c0" target="_top" xlink:title=" ">
<polygon fill="white" stroke="black" points="454.5,-506.5 454.5,-525.5 509.5,-525.5 509.5,-506.5 454.5,-506.5"/>
<text text-anchor="middle" x="482" y="-513.5" font-family="Helvetica,sans-Serif" font-size="10.00">Cell::Add</text>
</a>
</g>
</g>
<!-- Node24&#45;&gt;Node25 -->
<g id="edge30" class="edge">
<title>Node24&#45;&gt;Node25</title>
<path fill="none" stroke="midnightblue" d="M365.71,-516C391.01,-516 421.05,-516 444.13,-516"/>
<polygon fill="midnightblue" stroke="midnightblue" points="444.2,-519.5 454.2,-516 444.2,-512.5 444.2,-519.5"/>
</g>
<!-- Node26&#45;&gt;Node13 -->
<g id="edge33" class="edge">
<title>Node26&#45;&gt;Node13</title>
<path fill="none" stroke="midnightblue" d="M670.24,-468.9C684.22,-457.11 702.76,-439.63 715,-421 739.34,-383.96 719.76,-359.44 751,-328 754.24,-324.74 757.9,-321.83 761.8,-319.25"/>
<polygon fill="midnightblue" stroke="midnightblue" points="763.79,-322.13 770.67,-314.08 760.27,-316.09 763.79,-322.13"/>
</g>
<!-- Node26&#45;&gt;Node14 -->
<g id="edge34" class="edge">
<title>Node26&#45;&gt;Node14</title>
<path fill="none" stroke="midnightblue" d="M693.98,-468.95C701.61,-464.93 709.02,-459.99 715,-454 741.7,-427.27 722.87,-402.21 751,-377 752.75,-375.43 754.61,-373.96 756.55,-372.57"/>
<polygon fill="midnightblue" stroke="midnightblue" points="758.8,-375.3 765.49,-367.09 755.13,-369.33 758.8,-375.3"/>
</g>
<!-- Node27 -->
<g id="node27" class="node">
<title>Node27</title>
<g id="a_node27"><a xlink:href="class_graphics_1_1_resource_manager.html#ae025beebad6dbc29580a8d1d28ef4e9b" target="_top" xlink:title=" ">
<polygon fill="white" stroke="black" points="756,-484 756,-514 895,-514 895,-484 756,-484"/>
<text text-anchor="start" x="764" y="-502" font-family="Helvetica,sans-Serif" font-size="10.00">Graphics::ResourceManager</text>
<text text-anchor="middle" x="825.5" y="-491" font-family="Helvetica,sans-Serif" font-size="10.00">::CreateWindow</text>
</a>
</g>
</g>
<!-- Node26&#45;&gt;Node27 -->
<g id="edge32" class="edge">
<title>Node26&#45;&gt;Node27</title>
<path fill="none" stroke="midnightblue" d="M715.11,-489.54C725.1,-490.41 735.52,-491.31 745.79,-492.2"/>
<polygon fill="midnightblue" stroke="midnightblue" points="745.73,-495.7 755.99,-493.08 746.33,-488.73 745.73,-495.7"/>
</g>
<!-- Node28 -->
<g id="node28" class="node">
<title>Node28</title>
<g id="a_node28"><a xlink:href="class_graphics_1_1_resource_manager.html#a30a44b1a9b80d88c3e9d4f39a0672c11" target="_top" xlink:title=" ">
<polygon fill="white" stroke="black" points="756,-435 756,-465 895,-465 895,-435 756,-435"/>
<text text-anchor="start" x="764" y="-453" font-family="Helvetica,sans-Serif" font-size="10.00">Graphics::ResourceManager</text>
<text text-anchor="middle" x="825.5" y="-442" font-family="Helvetica,sans-Serif" font-size="10.00">::LoadImage</text>
</a>
</g>
</g>
<!-- Node26&#45;&gt;Node28 -->
<g id="edge35" class="edge">
<title>Node26&#45;&gt;Node28</title>
<path fill="none" stroke="midnightblue" d="M715.11,-471.44C725.21,-469.46 735.74,-467.39 746.12,-465.36"/>
<polygon fill="midnightblue" stroke="midnightblue" points="746.85,-468.78 755.99,-463.43 745.51,-461.91 746.85,-468.78"/>
</g>
<!-- Node29 -->
<g id="node29" class="node">
<title>Node29</title>
<g id="a_node29"><a xlink:href="class_graphics_1_1_resource_manager.html#a89192a1a222927aff3890b953dd1f058" target="_top" xlink:title=" ">
<polygon fill="white" stroke="black" points="756,-386 756,-416 895,-416 895,-386 756,-386"/>
<text text-anchor="start" x="764" y="-404" font-family="Helvetica,sans-Serif" font-size="10.00">Graphics::ResourceManager</text>
<text text-anchor="middle" x="825.5" y="-393" font-family="Helvetica,sans-Serif" font-size="10.00">::LoadShader</text>
</a>
</g>
</g>
<!-- Node26&#45;&gt;Node29 -->
<g id="edge36" class="edge">
<title>Node26&#45;&gt;Node29</title>
<path fill="none" stroke="midnightblue" d="M686.95,-468.86C696.3,-464.47 706.21,-459.39 715,-454 732.28,-443.41 733.16,-435.62 751,-426 754.98,-423.86 759.18,-421.84 763.47,-419.97"/>
<polygon fill="midnightblue" stroke="midnightblue" points="765.03,-423.11 772.96,-416.07 762.38,-416.63 765.03,-423.11"/>
</g>
<!-- Node30 -->
<g id="node30" class="node">
<title>Node30</title>
<g id="a_node30"><a xlink:href="class_graphics_1_1_shader.html#ab82f9feaa1c7c5623eaf7bb03c061e0a" target="_top" xlink:title=" ">
<polygon fill="white" stroke="black" points="751,-533 751,-563 900,-563 900,-533 751,-533"/>
<text text-anchor="start" x="759" y="-551" font-family="Helvetica,sans-Serif" font-size="10.00">Graphics::Shader::SetProjector</text>
<text text-anchor="middle" x="825.5" y="-540" font-family="Helvetica,sans-Serif" font-size="10.00">Matrix</text>
</a>
</g>
</g>
<!-- Node26&#45;&gt;Node30 -->
<g id="edge37" class="edge">
<title>Node26&#45;&gt;Node30</title>
<path fill="none" stroke="midnightblue" d="M686.89,-499.01C705.84,-506.77 729.56,-516.22 751,-524 756.21,-525.89 761.64,-527.79 767.1,-529.66"/>
<polygon fill="midnightblue" stroke="midnightblue" points="766.31,-533.08 776.9,-532.96 768.54,-526.45 766.31,-533.08"/>
</g>
<!-- Node30&#45;&gt;Node9 -->
<g id="edge39" class="edge">
<title>Node30&#45;&gt;Node9</title>
<path fill="none" stroke="midnightblue" d="M900.02,-548.91C943.3,-547.66 998.67,-542.94 1046,-529 1072.2,-521.28 1099.5,-505.92 1117.98,-494.25"/>
<polygon fill="midnightblue" stroke="midnightblue" points="1120.05,-497.08 1126.55,-488.7 1116.25,-491.2 1120.05,-497.08"/>
</g>
<!-- Node31 -->
<g id="node31" class="node">
<title>Node31</title>
<g id="a_node31"><a xlink:href="class_graphics_1_1_transform.html#a5e301531e0b340509d10dd5dad929b9c" target="_top" xlink:title=" ">
<polygon fill="white" stroke="black" points="939,-489 939,-519 1043,-519 1043,-489 939,-489"/>
<text text-anchor="start" x="947" y="-507" font-family="Helvetica,sans-Serif" font-size="10.00">Graphics::Transform</text>
<text text-anchor="middle" x="991" y="-496" font-family="Helvetica,sans-Serif" font-size="10.00">::GetMatrix</text>
</a>
</g>
</g>
<!-- Node30&#45;&gt;Node31 -->
<g id="edge38" class="edge">
<title>Node30&#45;&gt;Node31</title>
<path fill="none" stroke="midnightblue" d="M882.31,-532.98C897.34,-528.94 913.67,-524.54 928.96,-520.43"/>
<polygon fill="midnightblue" stroke="midnightblue" points="930.09,-523.75 938.84,-517.77 928.27,-516.99 930.09,-523.75"/>
</g>
<!-- Node33 -->
<g id="node33" class="node">
<title>Node33</title>
<g id="a_node33"><a xlink:href="class_field.html#a5f554e84e4bc9af72e5d262f41e97493" target="_top" xlink:title=" ">
<polygon fill="white" stroke="black" points="283.5,-38.5 283.5,-57.5 344.5,-57.5 344.5,-38.5 283.5,-38.5"/>
<text text-anchor="middle" x="314" y="-45.5" font-family="Helvetica,sans-Serif" font-size="10.00">Field::Tick</text>
</a>
</g>
</g>
<!-- Node32&#45;&gt;Node33 -->
<g id="edge41" class="edge">
<title>Node32&#45;&gt;Node33</title>
<path fill="none" stroke="midnightblue" d="M178.19,-48C205.56,-48 244.23,-48 273.14,-48"/>
<polygon fill="midnightblue" stroke="midnightblue" points="273.31,-51.5 283.31,-48 273.31,-44.5 273.31,-51.5"/>
</g>
<!-- Node34 -->
<g id="node34" class="node">
<title>Node34</title>
<g id="a_node34"><a xlink:href="class_player.html#ac9010645b179712c09ebd310e5fe48eb" target="_top" xlink:title=" ">
<polygon fill="white" stroke="black" points="280.5,-0.5 280.5,-19.5 347.5,-19.5 347.5,-0.5 280.5,-0.5"/>
<text text-anchor="middle" x="314" y="-7.5" font-family="Helvetica,sans-Serif" font-size="10.00">Player::Tick</text>
</a>
</g>
</g>
<!-- Node32&#45;&gt;Node34 -->
<g id="edge42" class="edge">
<title>Node32&#45;&gt;Node34</title>
<path fill="none" stroke="midnightblue" d="M178.19,-40.4C204.62,-34.44 241.59,-26.1 270.13,-19.67"/>
<polygon fill="midnightblue" stroke="midnightblue" points="271.24,-23.01 280.22,-17.39 269.7,-16.18 271.24,-23.01"/>
</g>
<!-- Node35 -->
<g id="node35" class="node">
<title>Node35</title>
<g id="a_node35"><a xlink:href="struct_vector2_d.html#a9ffe6d04eca062eb81ff91d22d538d2c" target="_top" xlink:title=" ">
<polygon fill="white" stroke="black" points="443.5,-0.5 443.5,-19.5 520.5,-19.5 520.5,-0.5 443.5,-0.5"/>
<text text-anchor="middle" x="482" y="-7.5" font-family="Helvetica,sans-Serif" font-size="10.00">Vector2D::dist</text>
</a>
</g>
</g>
<!-- Node34&#45;&gt;Node35 -->
<g id="edge43" class="edge">
<title>Node34&#45;&gt;Node35</title>
<path fill="none" stroke="midnightblue" d="M347.8,-10C372.18,-10 405.82,-10 433.19,-10"/>
<polygon fill="midnightblue" stroke="midnightblue" points="433.34,-13.5 443.34,-10 433.34,-6.5 433.34,-13.5"/>
</g>
<!-- Node36&#45;&gt;Node14 -->
<g id="edge45" class="edge">
<title>Node36&#45;&gt;Node14</title>
<path fill="none" stroke="midnightblue" d="M710.22,-380.98C724.8,-377.28 740.53,-373.29 755.52,-369.49"/>
<polygon fill="midnightblue" stroke="midnightblue" points="756.42,-372.88 765.25,-367.03 754.7,-366.09 756.42,-372.88"/>
</g>
</g>
</svg>
