<?xml version="1.0" encoding="UTF-8" standalone="no"?>
<!DOCTYPE svg PUBLIC "-//W3C//DTD SVG 1.1//EN"
 "http://www.w3.org/Graphics/SVG/1.1/DTD/svg11.dtd">
<!-- Generated by graphviz version 2.47.0 (20210407.0042)
 -->
<!-- Title: main Pages: 1 -->
<svg width="1143pt" height="510pt"
 viewBox="0.00 0.00 1143.00 509.88" xmlns="http://www.w3.org/2000/svg" xmlns:xlink="http://www.w3.org/1999/xlink">
<g id="graph0" class="graph" transform="scale(1 1) rotate(0) translate(4 505.88)">
<title>main</title>
<polygon fill="white" stroke="transparent" points="-4,4 -4,-505.88 1139,-505.88 1139,4 -4,4"/>
<!-- Node1 -->
<g id="node1" class="node">
<title>Node1</title>
<g id="a_node1"><a xlink:title=" ">
<polygon fill="#bfbfbf" stroke="black" points="0,-152.5 0,-171.5 38,-171.5 38,-152.5 0,-152.5"/>
<text text-anchor="middle" x="19" y="-159.5" font-family="Helvetica,sans-Serif" font-size="10.00">main</text>
</a>
</g>
</g>
<!-- Node2 -->
<g id="node2" class="node">
<title>Node2</title>
<g id="a_node2"><a xlink:href="class_engine.html#a39f23d7f0ad86322bfdb73d4e6763005" target="_top" xlink:title=" ">
<polygon fill="white" stroke="black" points="74,-335.5 74,-354.5 147,-354.5 147,-335.5 74,-335.5"/>
<text text-anchor="middle" x="110.5" y="-342.5" font-family="Helvetica,sans-Serif" font-size="10.00">Engine::Draw</text>
</a>
</g>
</g>
<!-- Node1&#45;&gt;Node2 -->
<g id="edge1" class="edge">
<title>Node1&#45;&gt;Node2</title>
<path fill="none" stroke="midnightblue" d="M24.69,-171.58C38.82,-200.48 81.2,-287.14 100.16,-325.9"/>
<polygon fill="midnightblue" stroke="midnightblue" points="97.11,-327.62 104.64,-335.07 103.39,-324.55 97.11,-327.62"/>
</g>
<!-- Node14 -->
<g id="node14" class="node">
<title>Node14</title>
<g id="a_node14"><a xlink:href="class_graphics_1_1_resource_manager.html#a2bf0311bf4f8431618eb13706a26a5f1" target="_top" xlink:title=" ">
<polygon fill="white" stroke="black" points="690,-275 690,-305 829,-305 829,-275 690,-275"/>
<text text-anchor="start" x="698" y="-293" font-family="Helvetica,sans-Serif" font-size="10.00">Graphics::ResourceManager</text>
<text text-anchor="middle" x="759.5" y="-282" font-family="Helvetica,sans-Serif" font-size="10.00">::GetWindow</text>
</a>
</g>
</g>
<!-- Node1&#45;&gt;Node14 -->
<g id="edge25" class="edge">
<title>Node1&#45;&gt;Node14</title>
<path fill="none" stroke="midnightblue" d="M38.07,-167.12C76.29,-177.5 168.28,-200 247,-200 247,-200 247,-200 417,-200 445,-200 606.89,-245.82 697.36,-272.07"/>
<polygon fill="midnightblue" stroke="midnightblue" points="696.64,-275.51 707.22,-274.94 698.59,-268.78 696.64,-275.51"/>
</g>
<!-- Node21 -->
<g id="node21" class="node">
<title>Node21</title>
<g id="a_node21"><a xlink:href="class_engine.html#acdcf4afb71571455296d5e09e270b496" target="_top" xlink:title=" ">
<polygon fill="white" stroke="black" points="200.5,-152.5 200.5,-171.5 295.5,-171.5 295.5,-152.5 200.5,-152.5"/>
<text text-anchor="middle" x="248" y="-159.5" font-family="Helvetica,sans-Serif" font-size="10.00">Engine::GetEngine</text>
</a>
</g>
</g>
<!-- Node1&#45;&gt;Node21 -->
<g id="edge24" class="edge">
<title>Node1&#45;&gt;Node21</title>
<path fill="none" stroke="midnightblue" d="M38.19,-162C70.77,-162 140.32,-162 190.21,-162"/>
<polygon fill="midnightblue" stroke="midnightblue" points="190.22,-165.5 200.22,-162 190.22,-158.5 190.22,-165.5"/>
</g>
<!-- Node22 -->
<g id="node22" class="node">
<title>Node22</title>
<g id="a_node22"><a xlink:href="main_8cpp.html#adb66f09c018c6ec5f3ade6acd02a5003" target="_top" xlink:title=" ">
<polygon fill="white" stroke="black" points="76.5,-114.5 76.5,-133.5 144.5,-133.5 144.5,-114.5 76.5,-114.5"/>
<text text-anchor="middle" x="110.5" y="-121.5" font-family="Helvetica,sans-Serif" font-size="10.00">Initialization</text>
</a>
</g>
</g>
<!-- Node1&#45;&gt;Node22 -->
<g id="edge26" class="edge">
<title>Node1&#45;&gt;Node22</title>
<path fill="none" stroke="midnightblue" d="M38.11,-154.31C49.46,-149.49 64.39,-143.15 77.67,-137.52"/>
<polygon fill="midnightblue" stroke="midnightblue" points="79.13,-140.7 86.97,-133.57 76.39,-134.25 79.13,-140.7"/>
</g>
<!-- Node31 -->
<g id="node31" class="node">
<title>Node31</title>
<g id="a_node31"><a xlink:href="class_engine.html#a06d3e75a7f768f0d48746aea00483724" target="_top" xlink:title=" ">
<polygon fill="white" stroke="black" points="76,-38.5 76,-57.5 145,-57.5 145,-38.5 76,-38.5"/>
<text text-anchor="middle" x="110.5" y="-45.5" font-family="Helvetica,sans-Serif" font-size="10.00">Engine::Tick</text>
</a>
</g>
</g>
<!-- Node1&#45;&gt;Node31 -->
<g id="edge39" class="edge">
<title>Node1&#45;&gt;Node31</title>
<path fill="none" stroke="midnightblue" d="M27.63,-152.28C42.69,-133.1 76.43,-90.12 95.56,-65.75"/>
<polygon fill="midnightblue" stroke="midnightblue" points="98.47,-67.72 101.89,-57.69 92.96,-63.4 98.47,-67.72"/>
</g>
<!-- Node3 -->
<g id="node3" class="node">
<title>Node3</title>
<g id="a_node3"><a xlink:href="class_field.html#a40e273e9fe4e28fe71aa6947eacc1ab0" target="_top" xlink:title=" ">
<polygon fill="white" stroke="black" points="215.5,-316.5 215.5,-335.5 280.5,-335.5 280.5,-316.5 215.5,-316.5"/>
<text text-anchor="middle" x="248" y="-323.5" font-family="Helvetica,sans-Serif" font-size="10.00">Field::Draw</text>
</a>
</g>
</g>
<!-- Node2&#45;&gt;Node3 -->
<g id="edge2" class="edge">
<title>Node2&#45;&gt;Node3</title>
<path fill="none" stroke="midnightblue" d="M147.1,-340.01C164.96,-337.5 186.71,-334.45 205.34,-331.84"/>
<polygon fill="midnightblue" stroke="midnightblue" points="205.92,-335.3 215.33,-330.44 204.94,-328.36 205.92,-335.3"/>
</g>
<!-- Node5 -->
<g id="node5" class="node">
<title>Node5</title>
<g id="a_node5"><a xlink:href="class_drawable.html#a380dbc28ed3746ac7ac00c4844b30d08" target="_top" xlink:title=" ">
<polygon fill="white" stroke="black" points="542,-357.5 542,-376.5 626,-376.5 626,-357.5 542,-357.5"/>
<text text-anchor="middle" x="584" y="-364.5" font-family="Helvetica,sans-Serif" font-size="10.00">Drawable::Draw</text>
</a>
</g>
</g>
<!-- Node2&#45;&gt;Node5 -->
<g id="edge17" class="edge">
<title>Node2&#45;&gt;Node5</title>
<path fill="none" stroke="midnightblue" d="M114.09,-354.68C120.86,-377.81 141.5,-436.04 183,-459 299.67,-523.54 358.78,-507.45 483,-459 521.05,-444.16 553.38,-407.31 570.31,-385.01"/>
<polygon fill="midnightblue" stroke="midnightblue" points="573.31,-386.85 576.41,-376.72 567.67,-382.7 573.31,-386.85"/>
</g>
<!-- Node2&#45;&gt;Node14 -->
<g id="edge19" class="edge">
<title>Node2&#45;&gt;Node14</title>
<path fill="none" stroke="midnightblue" d="M124.97,-335.46C138.79,-326.26 161.29,-312.89 183,-307 355.12,-260.28 566.89,-270.43 679.41,-280.87"/>
<polygon fill="midnightblue" stroke="midnightblue" points="679.37,-284.38 689.66,-281.84 680.04,-277.41 679.37,-284.38"/>
</g>
<!-- Node16 -->
<g id="node16" class="node">
<title>Node16</title>
<g id="a_node16"><a xlink:href="class_graphics_1_1_window.html#aa834f03ccb101a164cdfdffa773c0a53" target="_top" xlink:title=" ">
<polygon fill="white" stroke="black" points="349,-419 349,-449 483,-449 483,-419 349,-419"/>
<text text-anchor="start" x="357" y="-437" font-family="Helvetica,sans-Serif" font-size="10.00">Graphics::Window::GetSize</text>
<text text-anchor="middle" x="416" y="-426" font-family="Helvetica,sans-Serif" font-size="10.00">Window</text>
</a>
</g>
</g>
<!-- Node2&#45;&gt;Node16 -->
<g id="edge18" class="edge">
<title>Node2&#45;&gt;Node16</title>
<path fill="none" stroke="midnightblue" d="M147.08,-347.01C188.45,-350.4 258.05,-359.38 313,-383 331.13,-390.79 331.62,-399.65 349,-409 352.76,-411.03 356.73,-412.96 360.76,-414.8"/>
<polygon fill="midnightblue" stroke="midnightblue" points="359.69,-418.15 370.26,-418.89 362.46,-411.72 359.69,-418.15"/>
</g>
<!-- Node17 -->
<g id="node17" class="node">
<title>Node17</title>
<g id="a_node17"><a xlink:href="class_world_actor.html#a35b3672c657fd763d44c75f9625c1185" target="_top" xlink:title=" ">
<polygon fill="white" stroke="black" points="202,-430.5 202,-449.5 294,-449.5 294,-430.5 202,-430.5"/>
<text text-anchor="middle" x="248" y="-437.5" font-family="Helvetica,sans-Serif" font-size="10.00">WorldActor::GetX</text>
</a>
</g>
</g>
<!-- Node2&#45;&gt;Node17 -->
<g id="edge20" class="edge">
<title>Node2&#45;&gt;Node17</title>
<path fill="none" stroke="midnightblue" d="M118,-354.71C129.3,-370.87 154.16,-403.23 183,-421 186.4,-423.09 190.04,-424.97 193.8,-426.65"/>
<polygon fill="midnightblue" stroke="midnightblue" points="192.73,-429.99 203.32,-430.42 195.31,-423.48 192.73,-429.99"/>
</g>
<!-- Node18 -->
<g id="node18" class="node">
<title>Node18</title>
<g id="a_node18"><a xlink:href="class_world_actor.html#a28d9235e9224dee56e6f32791d5931f0" target="_top" xlink:title=" ">
<polygon fill="white" stroke="black" points="202,-392.5 202,-411.5 294,-411.5 294,-392.5 202,-392.5"/>
<text text-anchor="middle" x="248" y="-399.5" font-family="Helvetica,sans-Serif" font-size="10.00">WorldActor::GetY</text>
</a>
</g>
</g>
<!-- Node2&#45;&gt;Node18 -->
<g id="edge21" class="edge">
<title>Node2&#45;&gt;Node18</title>
<path fill="none" stroke="midnightblue" d="M131.36,-354.64C145.61,-361.45 165.34,-370.62 183,-378 191.85,-381.69 201.48,-385.45 210.53,-388.85"/>
<polygon fill="midnightblue" stroke="midnightblue" points="209.46,-392.19 220.05,-392.39 211.9,-385.63 209.46,-392.19"/>
</g>
<!-- Node19 -->
<g id="node19" class="node">
<title>Node19</title>
<g id="a_node19"><a xlink:href="class_graphics_1_1_window.html#a7863fafae23423f404bee7aa3a57e124" target="_top" xlink:title=" ">
<polygon fill="white" stroke="black" points="183,-228.5 183,-247.5 313,-247.5 313,-228.5 183,-228.5"/>
<text text-anchor="middle" x="248" y="-235.5" font-family="Helvetica,sans-Serif" font-size="10.00">Graphics::Window::Render</text>
</a>
</g>
</g>
<!-- Node2&#45;&gt;Node19 -->
<g id="edge22" class="edge">
<title>Node2&#45;&gt;Node19</title>
<path fill="none" stroke="midnightblue" d="M117.4,-335.42C128.33,-318.38 153.37,-282.68 183,-262 188.95,-257.85 195.72,-254.31 202.57,-251.32"/>
<polygon fill="midnightblue" stroke="midnightblue" points="203.9,-254.56 211.88,-247.6 201.3,-248.06 203.9,-254.56"/>
</g>
<!-- Node4 -->
<g id="node4" class="node">
<title>Node4</title>
<g id="a_node4"><a xlink:href="class_cell.html#a068da58be93f0b7d2dc6b3396ca8b8cd" target="_top" xlink:title=" ">
<polygon fill="white" stroke="black" points="386,-380.5 386,-399.5 446,-399.5 446,-380.5 386,-380.5"/>
<text text-anchor="middle" x="416" y="-387.5" font-family="Helvetica,sans-Serif" font-size="10.00">Cell::Draw</text>
</a>
</g>
</g>
<!-- Node3&#45;&gt;Node4 -->
<g id="edge3" class="edge">
<title>Node3&#45;&gt;Node4</title>
<path fill="none" stroke="midnightblue" d="M277.47,-335.5C288.71,-339.56 301.64,-344.6 313,-350 329.73,-357.95 331.97,-363.72 349,-371 357.52,-374.65 366.96,-377.83 375.96,-380.5"/>
<polygon fill="midnightblue" stroke="midnightblue" points="375.3,-383.94 385.87,-383.28 377.19,-377.21 375.3,-383.94"/>
</g>
<!-- Node3&#45;&gt;Node14 -->
<g id="edge16" class="edge">
<title>Node3&#45;&gt;Node14</title>
<path fill="none" stroke="midnightblue" d="M280.87,-323.75C359.75,-318.17 565.93,-303.61 679.91,-295.55"/>
<polygon fill="midnightblue" stroke="midnightblue" points="680.24,-299.04 689.97,-294.84 679.75,-292.06 680.24,-299.04"/>
</g>
<!-- Node15 -->
<g id="node15" class="node">
<title>Node15</title>
<g id="a_node15"><a xlink:href="class_field.html#abbe1a428501a04475979b292b5ad404b" target="_top" xlink:title=" ">
<polygon fill="white" stroke="black" points="370,-342.5 370,-361.5 462,-361.5 462,-342.5 370,-342.5"/>
<text text-anchor="middle" x="416" y="-349.5" font-family="Helvetica,sans-Serif" font-size="10.00">Field::GetCellPos</text>
</a>
</g>
</g>
<!-- Node3&#45;&gt;Node15 -->
<g id="edge14" class="edge">
<title>Node3&#45;&gt;Node15</title>
<path fill="none" stroke="midnightblue" d="M280.61,-330.95C302.87,-334.44 333.25,-339.2 359.5,-343.31"/>
<polygon fill="midnightblue" stroke="midnightblue" points="359.28,-346.82 369.7,-344.91 360.37,-339.9 359.28,-346.82"/>
</g>
<!-- Node3&#45;&gt;Node16 -->
<g id="edge15" class="edge">
<title>Node3&#45;&gt;Node16</title>
<path fill="none" stroke="midnightblue" d="M280.82,-333.34C291.85,-337.02 303.76,-342.36 313,-350 336.67,-369.57 325.36,-389.39 349,-409 351.02,-410.68 353.17,-412.25 355.4,-413.72"/>
<polygon fill="midnightblue" stroke="midnightblue" points="353.98,-416.94 364.39,-418.92 357.49,-410.88 353.98,-416.94"/>
</g>
<!-- Node4&#45;&gt;Node5 -->
<g id="edge4" class="edge">
<title>Node4&#45;&gt;Node5</title>
<path fill="none" stroke="midnightblue" d="M446.3,-385.94C469.92,-382.67 503.72,-377.98 531.8,-374.09"/>
<polygon fill="midnightblue" stroke="midnightblue" points="532.43,-377.54 541.86,-372.7 531.47,-370.61 532.43,-377.54"/>
</g>
<!-- Node6 -->
<g id="node6" class="node">
<title>Node6</title>
<g id="a_node6"><a xlink:href="class_graphics_1_1_image.html#af48c0e309532eb1ff36e8fdaee244da1" target="_top" xlink:title=" ">
<polygon fill="white" stroke="black" points="702.5,-373.5 702.5,-392.5 816.5,-392.5 816.5,-373.5 702.5,-373.5"/>
<text text-anchor="middle" x="759.5" y="-380.5" font-family="Helvetica,sans-Serif" font-size="10.00">Graphics::Image::Draw</text>
</a>
</g>
</g>
<!-- Node5&#45;&gt;Node6 -->
<g id="edge5" class="edge">
<title>Node5&#45;&gt;Node6</title>
<path fill="none" stroke="midnightblue" d="M626.12,-370.79C645.84,-372.61 669.97,-374.84 692.2,-376.89"/>
<polygon fill="midnightblue" stroke="midnightblue" points="691.97,-380.38 702.25,-377.81 692.62,-373.41 691.97,-380.38"/>
</g>
<!-- Node12 -->
<g id="node12" class="node">
<title>Node12</title>
<g id="a_node12"><a xlink:href="class_graphics_1_1_resource_manager.html#a712cf513dbda24deb3a7fcea7157003a" target="_top" xlink:title=" ">
<polygon fill="white" stroke="black" points="690,-324 690,-354 829,-354 829,-324 690,-324"/>
<text text-anchor="start" x="698" y="-342" font-family="Helvetica,sans-Serif" font-size="10.00">Graphics::ResourceManager</text>
<text text-anchor="middle" x="759.5" y="-331" font-family="Helvetica,sans-Serif" font-size="10.00">::GetImage</text>
</a>
</g>
</g>
<!-- Node5&#45;&gt;Node12 -->
<g id="edge11" class="edge">
<title>Node5&#45;&gt;Node12</title>
<path fill="none" stroke="midnightblue" d="M626.12,-360.36C642.26,-357.76 661.34,-354.68 679.92,-351.68"/>
<polygon fill="midnightblue" stroke="midnightblue" points="680.56,-355.12 689.87,-350.08 679.44,-348.21 680.56,-355.12"/>
</g>
<!-- Node13 -->
<g id="node13" class="node">
<title>Node13</title>
<g id="a_node13"><a xlink:href="class_graphics_1_1_resource_manager.html#a34d11294bd090580de46ab34f303c2ab" target="_top" xlink:title=" ">
<polygon fill="white" stroke="black" points="690,-226 690,-256 829,-256 829,-226 690,-226"/>
<text text-anchor="start" x="698" y="-244" font-family="Helvetica,sans-Serif" font-size="10.00">Graphics::ResourceManager</text>
<text text-anchor="middle" x="759.5" y="-233" font-family="Helvetica,sans-Serif" font-size="10.00">::GetShader</text>
</a>
</g>
</g>
<!-- Node5&#45;&gt;Node13 -->
<g id="edge12" class="edge">
<title>Node5&#45;&gt;Node13</title>
<path fill="none" stroke="midnightblue" d="M591.92,-357.49C606.79,-337.7 643.79,-291.78 685,-266 688.31,-263.93 691.82,-262 695.43,-260.22"/>
<polygon fill="midnightblue" stroke="midnightblue" points="696.9,-263.4 704.57,-256.08 694.02,-257.02 696.9,-263.4"/>
</g>
<!-- Node5&#45;&gt;Node14 -->
<g id="edge13" class="edge">
<title>Node5&#45;&gt;Node14</title>
<path fill="none" stroke="midnightblue" d="M601.61,-357.37C621.15,-346.27 654.77,-327.91 685,-315 690.11,-312.82 695.49,-310.69 700.9,-308.65"/>
<polygon fill="midnightblue" stroke="midnightblue" points="702.46,-311.81 710.66,-305.1 700.06,-305.23 702.46,-311.81"/>
</g>
<!-- Node7 -->
<g id="node7" class="node">
<title>Node7</title>
<g id="a_node7"><a xlink:href="class_graphics_1_1_quadrangle.html#a7a061a60b5bff19feb5fd317d06495f0" target="_top" xlink:title=" ">
<polygon fill="white" stroke="black" points="870,-273 870,-303 980,-303 980,-273 870,-273"/>
<text text-anchor="start" x="878" y="-291" font-family="Helvetica,sans-Serif" font-size="10.00">Graphics::Quadrangle</text>
<text text-anchor="middle" x="925" y="-280" font-family="Helvetica,sans-Serif" font-size="10.00">::Draw</text>
</a>
</g>
</g>
<!-- Node6&#45;&gt;Node7 -->
<g id="edge6" class="edge">
<title>Node6&#45;&gt;Node7</title>
<path fill="none" stroke="midnightblue" d="M810.26,-373.39C818.43,-370.9 826.62,-367.81 834,-364 860.47,-350.32 885.96,-327.59 903.01,-310.55"/>
<polygon fill="midnightblue" stroke="midnightblue" points="905.74,-312.77 910.23,-303.17 900.73,-307.88 905.74,-312.77"/>
</g>
<!-- Node10 -->
<g id="node10" class="node">
<title>Node10</title>
<g id="a_node10"><a xlink:href="class_graphics_1_1_shader.html#aa5da414808337285b38565f60c3d7cbd" target="_top" xlink:title=" ">
<polygon fill="white" stroke="black" points="870,-373.5 870,-392.5 980,-392.5 980,-373.5 870,-373.5"/>
<text text-anchor="middle" x="925" y="-380.5" font-family="Helvetica,sans-Serif" font-size="10.00">Graphics::Shader::Set</text>
</a>
</g>
</g>
<!-- Node6&#45;&gt;Node10 -->
<g id="edge9" class="edge">
<title>Node6&#45;&gt;Node10</title>
<path fill="none" stroke="midnightblue" d="M816.77,-383C830.59,-383 845.5,-383 859.67,-383"/>
<polygon fill="midnightblue" stroke="midnightblue" points="859.84,-386.5 869.84,-383 859.84,-379.5 859.84,-386.5"/>
</g>
<!-- Node8 -->
<g id="node8" class="node">
<title>Node8</title>
<g id="a_node8"><a xlink:href="class_graphics_1_1_shader.html#a63bfd523754bb6b2224aa7a48c65a504" target="_top" xlink:title=" ">
<polygon fill="white" stroke="black" points="1016,-278.5 1016,-297.5 1135,-297.5 1135,-278.5 1016,-278.5"/>
<text text-anchor="middle" x="1075.5" y="-285.5" font-family="Helvetica,sans-Serif" font-size="10.00">Graphics::Shader::GetId</text>
</a>
</g>
</g>
<!-- Node7&#45;&gt;Node8 -->
<g id="edge7" class="edge">
<title>Node7&#45;&gt;Node8</title>
<path fill="none" stroke="midnightblue" d="M980.03,-288C988.44,-288 997.21,-288 1005.89,-288"/>
<polygon fill="midnightblue" stroke="midnightblue" points="1006,-291.5 1016,-288 1006,-284.5 1006,-291.5"/>
</g>
<!-- Node9 -->
<g id="node9" class="node">
<title>Node9</title>
<g id="a_node9"><a xlink:href="class_graphics_1_1_shader.html#a11a2de17d1d077ec34acd4f7cd57f6b1" target="_top" xlink:title=" ">
<polygon fill="white" stroke="black" points="1019,-186.5 1019,-205.5 1132,-205.5 1132,-186.5 1019,-186.5"/>
<text text-anchor="middle" x="1075.5" y="-193.5" font-family="Helvetica,sans-Serif" font-size="10.00">Graphics::Shader::Use</text>
</a>
</g>
</g>
<!-- Node7&#45;&gt;Node9 -->
<g id="edge8" class="edge">
<title>Node7&#45;&gt;Node9</title>
<path fill="none" stroke="midnightblue" d="M950.52,-272.81C978.2,-255.66 1022.95,-227.94 1050.44,-210.91"/>
<polygon fill="midnightblue" stroke="midnightblue" points="1052.39,-213.81 1059.05,-205.57 1048.71,-207.86 1052.39,-213.81"/>
</g>
<!-- Node11 -->
<g id="node11" class="node">
<title>Node11</title>
<g id="a_node11"><a xlink:href="class_graphics_1_1_image.html#aab55feadb4b66e0fd78b5f54a6fadde2" target="_top" xlink:title=" ">
<polygon fill="white" stroke="black" points="1017.5,-373.5 1017.5,-392.5 1133.5,-392.5 1133.5,-373.5 1017.5,-373.5"/>
<text text-anchor="middle" x="1075.5" y="-380.5" font-family="Helvetica,sans-Serif" font-size="10.00">Graphics::Image::GetId</text>
</a>
</g>
</g>
<!-- Node10&#45;&gt;Node11 -->
<g id="edge10" class="edge">
<title>Node10&#45;&gt;Node11</title>
<path fill="none" stroke="midnightblue" d="M980.03,-383C988.83,-383 998.04,-383 1007.11,-383"/>
<polygon fill="midnightblue" stroke="midnightblue" points="1007.26,-386.5 1017.26,-383 1007.26,-379.5 1007.26,-386.5"/>
</g>
<!-- Node20 -->
<g id="node20" class="node">
<title>Node20</title>
<g id="a_node20"><a xlink:href="class_graphics_1_1_window.html#a9904449165571eff36b106148ec1279f" target="_top" xlink:title=" ">
<polygon fill="white" stroke="black" points="355,-228.5 355,-247.5 477,-247.5 477,-228.5 355,-228.5"/>
<text text-anchor="middle" x="416" y="-235.5" font-family="Helvetica,sans-Serif" font-size="10.00">Graphics::Window::Clear</text>
</a>
</g>
</g>
<!-- Node19&#45;&gt;Node20 -->
<g id="edge23" class="edge">
<title>Node19&#45;&gt;Node20</title>
<path fill="none" stroke="midnightblue" d="M313.18,-238C323.44,-238 334.11,-238 344.51,-238"/>
<polygon fill="midnightblue" stroke="midnightblue" points="344.8,-241.5 354.8,-238 344.8,-234.5 344.8,-241.5"/>
</g>
<!-- Node22&#45;&gt;Node21 -->
<g id="edge27" class="edge">
<title>Node22&#45;&gt;Node21</title>
<path fill="none" stroke="midnightblue" d="M144.65,-133.3C162.26,-138.24 184.14,-144.37 203.14,-149.7"/>
<polygon fill="midnightblue" stroke="midnightblue" points="202.21,-153.07 212.78,-152.4 204.1,-146.33 202.21,-153.07"/>
</g>
<!-- Node23 -->
<g id="node23" class="node">
<title>Node23</title>
<g id="a_node23"><a xlink:href="class_sprites_manager.html#a8245b163545dd5a57779316703048eb9" target="_top" xlink:title=" ">
<polygon fill="white" stroke="black" points="196.5,-76.5 196.5,-95.5 299.5,-95.5 299.5,-76.5 196.5,-76.5"/>
<text text-anchor="middle" x="248" y="-83.5" font-family="Helvetica,sans-Serif" font-size="10.00">SpritesManager::Init</text>
</a>
</g>
</g>
<!-- Node22&#45;&gt;Node23 -->
<g id="edge28" class="edge">
<title>Node22&#45;&gt;Node23</title>
<path fill="none" stroke="midnightblue" d="M144.65,-114.7C162.26,-109.76 184.14,-103.63 203.14,-98.3"/>
<polygon fill="midnightblue" stroke="midnightblue" points="204.1,-101.67 212.78,-95.6 202.21,-94.93 204.1,-101.67"/>
</g>
<!-- Node25 -->
<g id="node25" class="node">
<title>Node25</title>
<g id="a_node25"><a xlink:href="namespace_graphics_1_1_resource_parser.html#a6a538c07babc9bbaf884e0aeb9654fe0" target="_top" xlink:title=" ">
<polygon fill="white" stroke="black" points="519,-128 519,-158 649,-158 649,-128 519,-128"/>
<text text-anchor="start" x="527" y="-146" font-family="Helvetica,sans-Serif" font-size="10.00">Graphics::ResourceParser</text>
<text text-anchor="middle" x="584" y="-135" font-family="Helvetica,sans-Serif" font-size="10.00">::LoadResources</text>
</a>
</g>
</g>
<!-- Node22&#45;&gt;Node25 -->
<g id="edge30" class="edge">
<title>Node22&#45;&gt;Node25</title>
<path fill="none" stroke="midnightblue" d="M144.65,-125.34C219.81,-128.36 404.68,-135.81 508.74,-140.01"/>
<polygon fill="midnightblue" stroke="midnightblue" points="508.73,-143.51 518.86,-140.42 509.01,-136.52 508.73,-143.51"/>
</g>
<!-- Node24 -->
<g id="node24" class="node">
<title>Node24</title>
<g id="a_node24"><a xlink:href="class_cell.html#a4ab1e51777a98363d170f41754e204c0" target="_top" xlink:title=" ">
<polygon fill="white" stroke="black" points="388.5,-76.5 388.5,-95.5 443.5,-95.5 443.5,-76.5 388.5,-76.5"/>
<text text-anchor="middle" x="416" y="-83.5" font-family="Helvetica,sans-Serif" font-size="10.00">Cell::Add</text>
</a>
</g>
</g>
<!-- Node23&#45;&gt;Node24 -->
<g id="edge29" class="edge">
<title>Node23&#45;&gt;Node24</title>
<path fill="none" stroke="midnightblue" d="M299.71,-86C325.01,-86 355.05,-86 378.13,-86"/>
<polygon fill="midnightblue" stroke="midnightblue" points="378.2,-89.5 388.2,-86 378.2,-82.5 378.2,-89.5"/>
</g>
<!-- Node25&#45;&gt;Node13 -->
<g id="edge32" class="edge">
<title>Node25&#45;&gt;Node13</title>
<path fill="none" stroke="midnightblue" d="M608.88,-158.07C621.12,-166.04 636.12,-176.18 649,-186 665.79,-198.8 666.61,-206.63 685,-217 688.08,-218.73 691.29,-220.36 694.59,-221.89"/>
<polygon fill="midnightblue" stroke="midnightblue" points="693.49,-225.23 704.06,-225.94 696.24,-218.79 693.49,-225.23"/>
</g>
<!-- Node25&#45;&gt;Node14 -->
<g id="edge33" class="edge">
<title>Node25&#45;&gt;Node14</title>
<path fill="none" stroke="midnightblue" d="M614.44,-158.03C626.35,-165.23 639.5,-174.75 649,-186 674.15,-215.8 655.99,-239.95 685,-266 686.3,-267.17 687.67,-268.29 689.08,-269.35"/>
<polygon fill="midnightblue" stroke="midnightblue" points="687.33,-272.38 697.63,-274.84 691.11,-266.49 687.33,-272.38"/>
</g>
<!-- Node26 -->
<g id="node26" class="node">
<title>Node26</title>
<g id="a_node26"><a xlink:href="class_graphics_1_1_resource_manager.html#ae025beebad6dbc29580a8d1d28ef4e9b" target="_top" xlink:title=" ">
<polygon fill="white" stroke="black" points="690,-177 690,-207 829,-207 829,-177 690,-177"/>
<text text-anchor="start" x="698" y="-195" font-family="Helvetica,sans-Serif" font-size="10.00">Graphics::ResourceManager</text>
<text text-anchor="middle" x="759.5" y="-184" font-family="Helvetica,sans-Serif" font-size="10.00">::CreateWindow</text>
</a>
</g>
</g>
<!-- Node25&#45;&gt;Node26 -->
<g id="edge31" class="edge">
<title>Node25&#45;&gt;Node26</title>
<path fill="none" stroke="midnightblue" d="M638.47,-158.1C656.53,-163.2 676.86,-168.94 695.58,-174.23"/>
<polygon fill="midnightblue" stroke="midnightblue" points="694.63,-177.6 705.21,-176.95 696.53,-170.86 694.63,-177.6"/>
</g>
<!-- Node27 -->
<g id="node27" class="node">
<title>Node27</title>
<g id="a_node27"><a xlink:href="class_graphics_1_1_resource_manager.html#a30a44b1a9b80d88c3e9d4f39a0672c11" target="_top" xlink:title=" ">
<polygon fill="white" stroke="black" points="690,-128 690,-158 829,-158 829,-128 690,-128"/>
<text text-anchor="start" x="698" y="-146" font-family="Helvetica,sans-Serif" font-size="10.00">Graphics::ResourceManager</text>
<text text-anchor="middle" x="759.5" y="-135" font-family="Helvetica,sans-Serif" font-size="10.00">::LoadImage</text>
</a>
</g>
</g>
<!-- Node25&#45;&gt;Node27 -->
<g id="edge34" class="edge">
<title>Node25&#45;&gt;Node27</title>
<path fill="none" stroke="midnightblue" d="M649.11,-143C659.1,-143 669.52,-143 679.79,-143"/>
<polygon fill="midnightblue" stroke="midnightblue" points="679.99,-146.5 689.99,-143 679.99,-139.5 679.99,-146.5"/>
</g>
<!-- Node28 -->
<g id="node28" class="node">
<title>Node28</title>
<g id="a_node28"><a xlink:href="class_graphics_1_1_resource_manager.html#a89192a1a222927aff3890b953dd1f058" target="_top" xlink:title=" ">
<polygon fill="white" stroke="black" points="690,-79 690,-109 829,-109 829,-79 690,-79"/>
<text text-anchor="start" x="698" y="-97" font-family="Helvetica,sans-Serif" font-size="10.00">Graphics::ResourceManager</text>
<text text-anchor="middle" x="759.5" y="-86" font-family="Helvetica,sans-Serif" font-size="10.00">::LoadShader</text>
</a>
</g>
</g>
<!-- Node25&#45;&gt;Node28 -->
<g id="edge35" class="edge">
<title>Node25&#45;&gt;Node28</title>
<path fill="none" stroke="midnightblue" d="M638.47,-127.9C656.53,-122.8 676.86,-117.06 695.58,-111.77"/>
<polygon fill="midnightblue" stroke="midnightblue" points="696.53,-115.14 705.21,-109.05 694.63,-108.4 696.53,-115.14"/>
</g>
<!-- Node29 -->
<g id="node29" class="node">
<title>Node29</title>
<g id="a_node29"><a xlink:href="class_graphics_1_1_shader.html#ab82f9feaa1c7c5623eaf7bb03c061e0a" target="_top" xlink:title=" ">
<polygon fill="white" stroke="black" points="685,-30 685,-60 834,-60 834,-30 685,-30"/>
<text text-anchor="start" x="693" y="-48" font-family="Helvetica,sans-Serif" font-size="10.00">Graphics::Shader::SetProjector</text>
<text text-anchor="middle" x="759.5" y="-37" font-family="Helvetica,sans-Serif" font-size="10.00">Matrix</text>
</a>
</g>
</g>
<!-- Node25&#45;&gt;Node29 -->
<g id="edge36" class="edge">
<title>Node25&#45;&gt;Node29</title>
<path fill="none" stroke="midnightblue" d="M602.34,-127.79C621.48,-111.64 653.72,-86.25 685,-70 689.19,-67.82 693.61,-65.77 698.12,-63.86"/>
<polygon fill="midnightblue" stroke="midnightblue" points="699.47,-67.09 707.45,-60.11 696.86,-60.59 699.47,-67.09"/>
</g>
<!-- Node29&#45;&gt;Node9 -->
<g id="edge38" class="edge">
<title>Node29&#45;&gt;Node9</title>
<path fill="none" stroke="midnightblue" d="M808.35,-60.08C816.98,-63.13 825.82,-66.49 834,-70 915.32,-104.88 1006.7,-156.36 1049.66,-181.34"/>
<polygon fill="midnightblue" stroke="midnightblue" points="1047.91,-184.37 1058.31,-186.39 1051.44,-178.32 1047.91,-184.37"/>
</g>
<!-- Node30 -->
<g id="node30" class="node">
<title>Node30</title>
<g id="a_node30"><a xlink:href="class_graphics_1_1_transform.html#a5e301531e0b340509d10dd5dad929b9c" target="_top" xlink:title=" ">
<polygon fill="white" stroke="black" points="873,-30 873,-60 977,-60 977,-30 873,-30"/>
<text text-anchor="start" x="881" y="-48" font-family="Helvetica,sans-Serif" font-size="10.00">Graphics::Transform</text>
<text text-anchor="middle" x="925" y="-37" font-family="Helvetica,sans-Serif" font-size="10.00">::GetMatrix</text>
</a>
</g>
</g>
<!-- Node29&#45;&gt;Node30 -->
<g id="edge37" class="edge">
<title>Node29&#45;&gt;Node30</title>
<path fill="none" stroke="midnightblue" d="M834.12,-45C843.6,-45 853.23,-45 862.5,-45"/>
<polygon fill="midnightblue" stroke="midnightblue" points="862.77,-48.5 872.77,-45 862.77,-41.5 862.77,-48.5"/>
</g>
<!-- Node32 -->
<g id="node32" class="node">
<title>Node32</title>
<g id="a_node32"><a xlink:href="class_field.html#a5f554e84e4bc9af72e5d262f41e97493" target="_top" xlink:title=" ">
<polygon fill="white" stroke="black" points="217.5,-0.5 217.5,-19.5 278.5,-19.5 278.5,-0.5 217.5,-0.5"/>
<text text-anchor="middle" x="248" y="-7.5" font-family="Helvetica,sans-Serif" font-size="10.00">Field::Tick</text>
</a>
</g>
</g>
<!-- Node31&#45;&gt;Node32 -->
<g id="edge40" class="edge">
<title>Node31&#45;&gt;Node32</title>
<path fill="none" stroke="midnightblue" d="M145.34,-38.51C164.17,-33.23 187.7,-26.63 207.38,-21.11"/>
<polygon fill="midnightblue" stroke="midnightblue" points="208.59,-24.41 217.27,-18.34 206.7,-17.67 208.59,-24.41"/>
</g>
<!-- Node33 -->
<g id="node33" class="node">
<title>Node33</title>
<g id="a_node33"><a xlink:href="class_player.html#ac9010645b179712c09ebd310e5fe48eb" target="_top" xlink:title=" ">
<polygon fill="white" stroke="black" points="214.5,-38.5 214.5,-57.5 281.5,-57.5 281.5,-38.5 214.5,-38.5"/>
<text text-anchor="middle" x="248" y="-45.5" font-family="Helvetica,sans-Serif" font-size="10.00">Player::Tick</text>
</a>
</g>
</g>
<!-- Node31&#45;&gt;Node33 -->
<g id="edge41" class="edge">
<title>Node31&#45;&gt;Node33</title>
<path fill="none" stroke="midnightblue" d="M145.34,-48C163.07,-48 184.97,-48 203.89,-48"/>
<polygon fill="midnightblue" stroke="midnightblue" points="204.06,-51.5 214.06,-48 204.06,-44.5 204.06,-51.5"/>
</g>
<!-- Node34 -->
<g id="node34" class="node">
<title>Node34</title>
<g id="a_node34"><a xlink:href="struct_vector2_d.html#a9ffe6d04eca062eb81ff91d22d538d2c" target="_top" xlink:title=" ">
<polygon fill="white" stroke="black" points="377.5,-38.5 377.5,-57.5 454.5,-57.5 454.5,-38.5 377.5,-38.5"/>
<text text-anchor="middle" x="416" y="-45.5" font-family="Helvetica,sans-Serif" font-size="10.00">Vector2D::dist</text>
</a>
</g>
</g>
<!-- Node33&#45;&gt;Node34 -->
<g id="edge42" class="edge">
<title>Node33&#45;&gt;Node34</title>
<path fill="none" stroke="midnightblue" d="M281.8,-48C306.18,-48 339.82,-48 367.19,-48"/>
<polygon fill="midnightblue" stroke="midnightblue" points="367.34,-51.5 377.34,-48 367.34,-44.5 367.34,-51.5"/>
</g>
</g>
</svg>
