<?xml version="1.0" encoding="UTF-8" standalone="no"?>
<!DOCTYPE svg PUBLIC "-//W3C//DTD SVG 1.1//EN"
 "http://www.w3.org/Graphics/SVG/1.1/DTD/svg11.dtd">
<!-- Generated by graphviz version 2.47.0 (20210407.0042)
 -->
<!-- Title: src/main.cpp Pages: 1 -->
<svg width="1204pt" height="599pt"
 viewBox="0.00 0.00 1203.50 599.00" xmlns="http://www.w3.org/2000/svg" xmlns:xlink="http://www.w3.org/1999/xlink">
<g id="graph0" class="graph" transform="scale(1 1) rotate(0) translate(4 595)">
<title>src/main.cpp</title>
<polygon fill="white" stroke="transparent" points="-4,4 -4,-595 1199.5,-595 1199.5,4 -4,4"/>
<!-- Node1 -->
<g id="node1" class="node">
<title>Node1</title>
<g id="a_node1"><a xlink:title=" ">
<polygon fill="#bfbfbf" stroke="black" points="511,-571.5 511,-590.5 583,-590.5 583,-571.5 511,-571.5"/>
<text text-anchor="middle" x="547" y="-578.5" font-family="Helvetica,sans-Serif" font-size="10.00">src/main.cpp</text>
</a>
</g>
</g>
<!-- Node2 -->
<g id="node2" class="node">
<title>Node2</title>
<g id="a_node2"><a xlink:title=" ">
<polygon fill="white" stroke="#bfbfbf" points="324,-515.5 324,-534.5 378,-534.5 378,-515.5 324,-515.5"/>
<text text-anchor="middle" x="351" y="-522.5" font-family="Helvetica,sans-Serif" font-size="10.00">iostream</text>
</a>
</g>
</g>
<!-- Node1&#45;&gt;Node2 -->
<g id="edge1" class="edge">
<title>Node1&#45;&gt;Node2</title>
<path fill="none" stroke="midnightblue" d="M515.94,-571.44C481.21,-561.87 425,-546.39 388.01,-536.2"/>
<polygon fill="midnightblue" stroke="midnightblue" points="388.69,-532.75 378.12,-533.47 386.84,-539.5 388.69,-532.75"/>
</g>
<!-- Node3 -->
<g id="node3" class="node">
<title>Node3</title>
<g id="a_node3"><a xlink:href="_engine_8hpp.html" target="_top" xlink:title=" ">
<polygon fill="white" stroke="black" points="515,-515.5 515,-534.5 579,-534.5 579,-515.5 515,-515.5"/>
<text text-anchor="middle" x="547" y="-522.5" font-family="Helvetica,sans-Serif" font-size="10.00">Engine.hpp</text>
</a>
</g>
</g>
<!-- Node1&#45;&gt;Node3 -->
<g id="edge2" class="edge">
<title>Node1&#45;&gt;Node3</title>
<path fill="none" stroke="midnightblue" d="M547,-571.08C547,-564.01 547,-553.86 547,-544.99"/>
<polygon fill="midnightblue" stroke="midnightblue" points="550.5,-544.75 547,-534.75 543.5,-544.75 550.5,-544.75"/>
</g>
<!-- Node19 -->
<g id="node19" class="node">
<title>Node19</title>
<g id="a_node19"><a xlink:href="_sprites_manager_8hpp.html" target="_top" xlink:title=" ">
<polygon fill="white" stroke="black" points="313.5,-291.5 313.5,-310.5 416.5,-310.5 416.5,-291.5 313.5,-291.5"/>
<text text-anchor="middle" x="365" y="-298.5" font-family="Helvetica,sans-Serif" font-size="10.00">SpritesManager.hpp</text>
</a>
</g>
</g>
<!-- Node1&#45;&gt;Node19 -->
<g id="edge26" class="edge">
<title>Node1&#45;&gt;Node19</title>
<path fill="none" stroke="midnightblue" d="M517.1,-571.45C475.71,-557.56 406,-525.89 406,-470 406,-470 406,-470 406,-412 406,-377.52 388.09,-340.56 375.94,-319.47"/>
<polygon fill="midnightblue" stroke="midnightblue" points="378.84,-317.49 370.7,-310.71 372.84,-321.09 378.84,-317.49"/>
</g>
<!-- Node24 -->
<g id="node24" class="node">
<title>Node24</title>
<g id="a_node24"><a xlink:href="_resource_manager_8hpp.html" target="_top" xlink:title=" ">
<polygon fill="white" stroke="black" points="819.5,-403.5 819.5,-422.5 972.5,-422.5 972.5,-403.5 819.5,-403.5"/>
<text text-anchor="middle" x="896" y="-410.5" font-family="Helvetica,sans-Serif" font-size="10.00">graphics/ResourceManager.hpp</text>
</a>
</g>
</g>
<!-- Node1&#45;&gt;Node24 -->
<g id="edge36" class="edge">
<title>Node1&#45;&gt;Node24</title>
<path fill="none" stroke="midnightblue" d="M557.08,-571.29C583.08,-549.24 655.28,-490.74 725,-459 760.2,-442.98 802.16,-431.83 835.71,-424.64"/>
<polygon fill="midnightblue" stroke="midnightblue" points="836.75,-427.99 845.83,-422.53 835.33,-421.14 836.75,-427.99"/>
</g>
<!-- Node37 -->
<g id="node37" class="node">
<title>Node37</title>
<g id="a_node37"><a xlink:href="_timer_8hpp.html" target="_top" xlink:title=" ">
<polygon fill="white" stroke="black" points="727.5,-515.5 727.5,-534.5 786.5,-534.5 786.5,-515.5 727.5,-515.5"/>
<text text-anchor="middle" x="757" y="-522.5" font-family="Helvetica,sans-Serif" font-size="10.00">Timer.hpp</text>
</a>
</g>
</g>
<!-- Node1&#45;&gt;Node37 -->
<g id="edge59" class="edge">
<title>Node1&#45;&gt;Node37</title>
<path fill="none" stroke="midnightblue" d="M580.28,-571.44C617.51,-561.87 677.8,-546.36 717.43,-536.18"/>
<polygon fill="midnightblue" stroke="midnightblue" points="718.46,-539.52 727.28,-533.64 716.72,-532.74 718.46,-539.52"/>
</g>
<!-- Node4 -->
<g id="node4" class="node">
<title>Node4</title>
<g id="a_node4"><a xlink:href="_player_8hpp.html" target="_top" xlink:title=" ">
<polygon fill="white" stroke="black" points="434,-403.5 434,-422.5 562,-422.5 562,-403.5 434,-403.5"/>
<text text-anchor="middle" x="498" y="-410.5" font-family="Helvetica,sans-Serif" font-size="10.00">engine/objects/Player.hpp</text>
</a>
</g>
</g>
<!-- Node3&#45;&gt;Node4 -->
<g id="edge3" class="edge">
<title>Node3&#45;&gt;Node4</title>
<path fill="none" stroke="midnightblue" d="M539.64,-515.24C532.66,-506.54 522.34,-492.58 516,-479 509.04,-464.08 504.29,-445.94 501.43,-432.62"/>
<polygon fill="midnightblue" stroke="midnightblue" points="504.85,-431.86 499.46,-422.73 497.98,-433.23 504.85,-431.86"/>
</g>
<!-- Node16 -->
<g id="node16" class="node">
<title>Node16</title>
<g id="a_node16"><a xlink:href="_unit_group_8hpp.html" target="_top" xlink:title=" ">
<polygon fill="white" stroke="black" points="525.5,-459.5 525.5,-478.5 670.5,-478.5 670.5,-459.5 525.5,-459.5"/>
<text text-anchor="middle" x="598" y="-466.5" font-family="Helvetica,sans-Serif" font-size="10.00">engine/objects/UnitGroup.hpp</text>
</a>
</g>
</g>
<!-- Node3&#45;&gt;Node16 -->
<g id="edge22" class="edge">
<title>Node3&#45;&gt;Node16</title>
<path fill="none" stroke="midnightblue" d="M555.42,-515.08C562.85,-507.22 573.85,-495.57 582.81,-486.08"/>
<polygon fill="midnightblue" stroke="midnightblue" points="585.41,-488.42 589.74,-478.75 580.32,-483.62 585.41,-488.42"/>
</g>
<!-- Node5 -->
<g id="node5" class="node">
<title>Node5</title>
<g id="a_node5"><a xlink:href="_drawable_8hpp.html" target="_top" xlink:title=" ">
<polygon fill="white" stroke="black" points="402.5,-112.5 402.5,-131.5 509.5,-131.5 509.5,-112.5 402.5,-112.5"/>
<text text-anchor="middle" x="456" y="-119.5" font-family="Helvetica,sans-Serif" font-size="10.00">engine/Drawable.hpp</text>
</a>
</g>
</g>
<!-- Node4&#45;&gt;Node5 -->
<g id="edge4" class="edge">
<title>Node4&#45;&gt;Node5</title>
<path fill="none" stroke="midnightblue" d="M433.91,-411.14C299.41,-407.61 0,-389.88 0,-302 0,-302 0,-302 0,-238.5 0,-158.57 266.61,-133.35 392.11,-125.9"/>
<polygon fill="midnightblue" stroke="midnightblue" points="392.57,-129.38 402.35,-125.31 392.17,-122.39 392.57,-129.38"/>
</g>
<!-- Node9 -->
<g id="node9" class="node">
<title>Node9</title>
<g id="a_node9"><a xlink:href="_world_actor_8hpp.html" target="_top" xlink:title=" ">
<polygon fill="white" stroke="black" points="599,-347.5 599,-366.5 713,-366.5 713,-347.5 599,-347.5"/>
<text text-anchor="middle" x="656" y="-354.5" font-family="Helvetica,sans-Serif" font-size="10.00">engine/WorldActor.hpp</text>
</a>
</g>
</g>
<!-- Node4&#45;&gt;Node9 -->
<g id="edge8" class="edge">
<title>Node4&#45;&gt;Node9</title>
<path fill="none" stroke="midnightblue" d="M523.04,-403.44C549.62,-394.36 591.81,-379.94 621.52,-369.78"/>
<polygon fill="midnightblue" stroke="midnightblue" points="622.75,-373.06 631.08,-366.52 620.49,-366.44 622.75,-373.06"/>
</g>
<!-- Node6 -->
<g id="node6" class="node">
<title>Node6</title>
<g id="a_node6"><a xlink:title=" ">
<polygon fill="white" stroke="#bfbfbf" points="423,-56.5 423,-75.5 489,-75.5 489,-56.5 423,-56.5"/>
<text text-anchor="middle" x="456" y="-63.5" font-family="Helvetica,sans-Serif" font-size="10.00">string_view</text>
</a>
</g>
</g>
<!-- Node5&#45;&gt;Node6 -->
<g id="edge5" class="edge">
<title>Node5&#45;&gt;Node6</title>
<path fill="none" stroke="midnightblue" d="M456,-112.08C456,-105.01 456,-94.86 456,-85.99"/>
<polygon fill="midnightblue" stroke="midnightblue" points="459.5,-85.75 456,-75.75 452.5,-85.75 459.5,-85.75"/>
</g>
<!-- Node7 -->
<g id="node7" class="node">
<title>Node7</title>
<g id="a_node7"><a xlink:href="_vector2_d_8hpp.html" target="_top" xlink:title=" ">
<polygon fill="white" stroke="black" points="676,-56.5 676,-75.5 788,-75.5 788,-56.5 676,-56.5"/>
<text text-anchor="middle" x="732" y="-63.5" font-family="Helvetica,sans-Serif" font-size="10.00">Helpers/Vector2D.hpp</text>
</a>
</g>
</g>
<!-- Node5&#45;&gt;Node7 -->
<g id="edge6" class="edge">
<title>Node5&#45;&gt;Node7</title>
<path fill="none" stroke="midnightblue" d="M499.73,-112.44C548.18,-102.96 626.33,-87.67 678.42,-77.48"/>
<polygon fill="midnightblue" stroke="midnightblue" points="679.33,-80.87 688.47,-75.52 677.99,-74 679.33,-80.87"/>
</g>
<!-- Node8 -->
<g id="node8" class="node">
<title>Node8</title>
<g id="a_node8"><a xlink:title=" ">
<polygon fill="white" stroke="#bfbfbf" points="781.5,-0.5 781.5,-19.5 820.5,-19.5 820.5,-0.5 781.5,-0.5"/>
<text text-anchor="middle" x="801" y="-7.5" font-family="Helvetica,sans-Serif" font-size="10.00">utility</text>
</a>
</g>
</g>
<!-- Node7&#45;&gt;Node8 -->
<g id="edge7" class="edge">
<title>Node7&#45;&gt;Node8</title>
<path fill="none" stroke="midnightblue" d="M743.09,-56.32C753.49,-48.18 769.26,-35.84 781.72,-26.09"/>
<polygon fill="midnightblue" stroke="midnightblue" points="783.99,-28.75 789.71,-19.83 779.68,-23.24 783.99,-28.75"/>
</g>
<!-- Node9&#45;&gt;Node7 -->
<g id="edge9" class="edge">
<title>Node9&#45;&gt;Node7</title>
<path fill="none" stroke="midnightblue" d="M666.89,-347.42C687.9,-329.82 732,-287.31 732,-240.5 732,-240.5 732,-240.5 732,-177 732,-144.95 732,-107.64 732,-85.75"/>
<polygon fill="midnightblue" stroke="midnightblue" points="735.5,-85.56 732,-75.56 728.5,-85.56 735.5,-85.56"/>
</g>
<!-- Node10 -->
<g id="node10" class="node">
<title>Node10</title>
<g id="a_node10"><a xlink:href="_field_8hpp.html" target="_top" xlink:title=" ">
<polygon fill="white" stroke="black" points="628,-291.5 628,-310.5 684,-310.5 684,-291.5 628,-291.5"/>
<text text-anchor="middle" x="656" y="-298.5" font-family="Helvetica,sans-Serif" font-size="10.00">Field.hpp</text>
</a>
</g>
</g>
<!-- Node9&#45;&gt;Node10 -->
<g id="edge10" class="edge">
<title>Node9&#45;&gt;Node10</title>
<path fill="none" stroke="midnightblue" d="M656,-347.08C656,-340.01 656,-329.86 656,-320.99"/>
<polygon fill="midnightblue" stroke="midnightblue" points="659.5,-320.75 656,-310.75 652.5,-320.75 659.5,-320.75"/>
</g>
<!-- Node10&#45;&gt;Node7 -->
<g id="edge21" class="edge">
<title>Node10&#45;&gt;Node7</title>
<path fill="none" stroke="midnightblue" d="M659.66,-291.45C663.46,-282.46 669.46,-267.85 674,-255 696.14,-192.3 698.35,-175.52 718,-112 720.72,-103.2 723.76,-93.43 726.31,-85.25"/>
<polygon fill="midnightblue" stroke="midnightblue" points="729.67,-86.21 729.31,-75.62 722.99,-84.13 729.67,-86.21"/>
</g>
<!-- Node11 -->
<g id="node11" class="node">
<title>Node11</title>
<g id="a_node11"><a xlink:href="_cell_8hpp.html" target="_top" xlink:title=" ">
<polygon fill="white" stroke="black" points="548.5,-230 548.5,-249 665.5,-249 665.5,-230 548.5,-230"/>
<text text-anchor="middle" x="607" y="-237" font-family="Helvetica,sans-Serif" font-size="10.00">engine/objects/Cell.hpp</text>
</a>
</g>
</g>
<!-- Node10&#45;&gt;Node11 -->
<g id="edge11" class="edge">
<title>Node10&#45;&gt;Node11</title>
<path fill="none" stroke="midnightblue" d="M648.98,-291.48C641.56,-282.46 629.67,-268.02 620.43,-256.81"/>
<polygon fill="midnightblue" stroke="midnightblue" points="623.07,-254.5 614.01,-249.01 617.66,-258.95 623.07,-254.5"/>
</g>
<!-- Node11&#45;&gt;Node5 -->
<g id="edge12" class="edge">
<title>Node11&#45;&gt;Node5</title>
<path fill="none" stroke="midnightblue" d="M582.05,-229.92C560.16,-221.57 528.27,-207.3 505,-188 488.74,-174.51 474.76,-154.61 465.94,-140.39"/>
<polygon fill="midnightblue" stroke="midnightblue" points="468.83,-138.39 460.7,-131.59 462.81,-141.98 468.83,-138.39"/>
</g>
<!-- Node12 -->
<g id="node12" class="node">
<title>Node12</title>
<g id="a_node12"><a xlink:href="_tickable_8hpp.html" target="_top" xlink:title=" ">
<polygon fill="white" stroke="black" points="527.5,-112.5 527.5,-131.5 630.5,-131.5 630.5,-112.5 527.5,-112.5"/>
<text text-anchor="middle" x="579" y="-119.5" font-family="Helvetica,sans-Serif" font-size="10.00">engine/Tickable.hpp</text>
</a>
</g>
</g>
<!-- Node11&#45;&gt;Node12 -->
<g id="edge13" class="edge">
<title>Node11&#45;&gt;Node12</title>
<path fill="none" stroke="midnightblue" d="M605.35,-229.77C602.78,-216.4 597.53,-190.09 592,-168 589.77,-159.11 586.99,-149.34 584.57,-141.17"/>
<polygon fill="midnightblue" stroke="midnightblue" points="587.92,-140.14 581.68,-131.58 581.21,-142.16 587.92,-140.14"/>
</g>
<!-- Node13 -->
<g id="node13" class="node">
<title>Node13</title>
<g id="a_node13"><a xlink:title=" ">
<polygon fill="white" stroke="#bfbfbf" points="798,-168.5 798,-187.5 842,-187.5 842,-168.5 798,-168.5"/>
<text text-anchor="middle" x="820" y="-175.5" font-family="Helvetica,sans-Serif" font-size="10.00">vector</text>
</a>
</g>
</g>
<!-- Node11&#45;&gt;Node13 -->
<g id="edge14" class="edge">
<title>Node11&#45;&gt;Node13</title>
<path fill="none" stroke="midnightblue" d="M637.52,-229.98C677.6,-218.78 747.65,-199.21 788.31,-187.85"/>
<polygon fill="midnightblue" stroke="midnightblue" points="789.29,-191.21 797.98,-185.15 787.41,-184.47 789.29,-191.21"/>
</g>
<!-- Node14 -->
<g id="node14" class="node">
<title>Node14</title>
<g id="a_node14"><a xlink:href="_ground_8hpp.html" target="_top" xlink:title=" ">
<polygon fill="white" stroke="black" points="392,-168.5 392,-187.5 458,-187.5 458,-168.5 392,-168.5"/>
<text text-anchor="middle" x="425" y="-175.5" font-family="Helvetica,sans-Serif" font-size="10.00">Ground.hpp</text>
</a>
</g>
</g>
<!-- Node11&#45;&gt;Node14 -->
<g id="edge15" class="edge">
<title>Node11&#45;&gt;Node14</title>
<path fill="none" stroke="midnightblue" d="M580.92,-229.98C549.43,-219.68 496.3,-202.31 460.94,-190.75"/>
<polygon fill="midnightblue" stroke="midnightblue" points="461.62,-187.29 451.03,-187.51 459.45,-193.94 461.62,-187.29"/>
</g>
<!-- Node15 -->
<g id="node15" class="node">
<title>Node15</title>
<g id="a_node15"><a xlink:href="_building_8hpp.html" target="_top" xlink:title=" ">
<polygon fill="white" stroke="black" points="514.5,-168.5 514.5,-187.5 583.5,-187.5 583.5,-168.5 514.5,-168.5"/>
<text text-anchor="middle" x="549" y="-175.5" font-family="Helvetica,sans-Serif" font-size="10.00">Building.hpp</text>
</a>
</g>
</g>
<!-- Node11&#45;&gt;Node15 -->
<g id="edge18" class="edge">
<title>Node11&#45;&gt;Node15</title>
<path fill="none" stroke="midnightblue" d="M598.69,-229.98C589.82,-220.87 575.55,-206.24 564.58,-194.98"/>
<polygon fill="midnightblue" stroke="midnightblue" points="566.78,-192.23 557.29,-187.51 561.77,-197.11 566.78,-192.23"/>
</g>
<!-- Node14&#45;&gt;Node5 -->
<g id="edge16" class="edge">
<title>Node14&#45;&gt;Node5</title>
<path fill="none" stroke="midnightblue" d="M430.12,-168.08C434.41,-160.61 440.66,-149.72 445.94,-140.52"/>
<polygon fill="midnightblue" stroke="midnightblue" points="449.03,-142.17 450.98,-131.75 442.96,-138.68 449.03,-142.17"/>
</g>
<!-- Node14&#45;&gt;Node12 -->
<g id="edge17" class="edge">
<title>Node14&#45;&gt;Node12</title>
<path fill="none" stroke="midnightblue" d="M449.4,-168.44C475.2,-159.4 516.08,-145.06 545.02,-134.92"/>
<polygon fill="midnightblue" stroke="midnightblue" points="546.43,-138.13 554.71,-131.52 544.12,-131.52 546.43,-138.13"/>
</g>
<!-- Node15&#45;&gt;Node5 -->
<g id="edge19" class="edge">
<title>Node15&#45;&gt;Node5</title>
<path fill="none" stroke="midnightblue" d="M534.06,-168.32C519.41,-159.82 496.87,-146.73 479.76,-136.8"/>
<polygon fill="midnightblue" stroke="midnightblue" points="481.31,-133.65 470.9,-131.65 477.8,-139.7 481.31,-133.65"/>
</g>
<!-- Node15&#45;&gt;Node12 -->
<g id="edge20" class="edge">
<title>Node15&#45;&gt;Node12</title>
<path fill="none" stroke="midnightblue" d="M553.95,-168.08C558.1,-160.61 564.15,-149.72 569.27,-140.52"/>
<polygon fill="midnightblue" stroke="midnightblue" points="572.34,-142.19 574.14,-131.75 566.22,-138.79 572.34,-142.19"/>
</g>
<!-- Node17 -->
<g id="node17" class="node">
<title>Node17</title>
<g id="a_node17"><a xlink:href="_unit_8hpp.html" target="_top" xlink:title=" ">
<polygon fill="white" stroke="black" points="629.5,-403.5 629.5,-422.5 682.5,-422.5 682.5,-403.5 629.5,-403.5"/>
<text text-anchor="middle" x="656" y="-410.5" font-family="Helvetica,sans-Serif" font-size="10.00">Unit.hpp</text>
</a>
</g>
</g>
<!-- Node16&#45;&gt;Node17 -->
<g id="edge23" class="edge">
<title>Node16&#45;&gt;Node17</title>
<path fill="none" stroke="midnightblue" d="M607.32,-459.32C615.89,-451.34 628.81,-439.31 639.19,-429.65"/>
<polygon fill="midnightblue" stroke="midnightblue" points="641.58,-432.21 646.51,-422.83 636.81,-427.09 641.58,-432.21"/>
</g>
<!-- Node18 -->
<g id="node18" class="node">
<title>Node18</title>
<g id="a_node18"><a xlink:title=" ">
<polygon fill="white" stroke="#bfbfbf" points="582.5,-403.5 582.5,-422.5 611.5,-422.5 611.5,-403.5 582.5,-403.5"/>
<text text-anchor="middle" x="597" y="-410.5" font-family="Helvetica,sans-Serif" font-size="10.00">list</text>
</a>
</g>
</g>
<!-- Node16&#45;&gt;Node18 -->
<g id="edge25" class="edge">
<title>Node16&#45;&gt;Node18</title>
<path fill="none" stroke="midnightblue" d="M597.83,-459.08C597.7,-452.01 597.52,-441.86 597.35,-432.99"/>
<polygon fill="midnightblue" stroke="midnightblue" points="600.85,-432.68 597.16,-422.75 593.85,-432.81 600.85,-432.68"/>
</g>
<!-- Node17&#45;&gt;Node9 -->
<g id="edge24" class="edge">
<title>Node17&#45;&gt;Node9</title>
<path fill="none" stroke="midnightblue" d="M656,-403.08C656,-396.01 656,-385.86 656,-376.99"/>
<polygon fill="midnightblue" stroke="midnightblue" points="659.5,-376.75 656,-366.75 652.5,-376.75 659.5,-376.75"/>
</g>
<!-- Node19&#45;&gt;Node11 -->
<g id="edge29" class="edge">
<title>Node19&#45;&gt;Node11</title>
<path fill="none" stroke="midnightblue" d="M399.67,-291.48C442.53,-280.94 515.54,-262.99 562.5,-251.44"/>
<polygon fill="midnightblue" stroke="midnightblue" points="563.52,-254.8 572.39,-249.01 561.85,-248 563.52,-254.8"/>
</g>
<!-- Node20 -->
<g id="node20" class="node">
<title>Node20</title>
<g id="a_node20"><a xlink:href="_ground_empty_8hpp.html" target="_top" xlink:title=" ">
<polygon fill="white" stroke="black" points="418,-224.5 418,-254.5 530,-254.5 530,-224.5 418,-224.5"/>
<text text-anchor="start" x="426" y="-242.5" font-family="Helvetica,sans-Serif" font-size="10.00">engine/objects/ground</text>
<text text-anchor="middle" x="474" y="-231.5" font-family="Helvetica,sans-Serif" font-size="10.00">/GroundEmpty.hpp</text>
</a>
</g>
</g>
<!-- Node19&#45;&gt;Node20 -->
<g id="edge27" class="edge">
<title>Node19&#45;&gt;Node20</title>
<path fill="none" stroke="midnightblue" d="M380.62,-291.48C395.86,-283.15 419.58,-270.21 439.29,-259.45"/>
<polygon fill="midnightblue" stroke="midnightblue" points="441.21,-262.39 448.31,-254.52 437.86,-256.24 441.21,-262.39"/>
</g>
<!-- Node21 -->
<g id="node21" class="node">
<title>Node21</title>
<g id="a_node21"><a xlink:href="_ground_earth_8hpp.html" target="_top" xlink:title=" ">
<polygon fill="white" stroke="black" points="28,-224.5 28,-254.5 140,-254.5 140,-224.5 28,-224.5"/>
<text text-anchor="start" x="36" y="-242.5" font-family="Helvetica,sans-Serif" font-size="10.00">engine/objects/ground</text>
<text text-anchor="middle" x="84" y="-231.5" font-family="Helvetica,sans-Serif" font-size="10.00">/GroundEarth.hpp</text>
</a>
</g>
</g>
<!-- Node19&#45;&gt;Node21 -->
<g id="edge30" class="edge">
<title>Node19&#45;&gt;Node21</title>
<path fill="none" stroke="midnightblue" d="M323.15,-291.46C281.74,-282.97 216.26,-269.45 150.19,-255.24"/>
<polygon fill="midnightblue" stroke="midnightblue" points="150.52,-251.73 140.01,-253.05 149.05,-258.57 150.52,-251.73"/>
</g>
<!-- Node22 -->
<g id="node22" class="node">
<title>Node22</title>
<g id="a_node22"><a xlink:href="_ground_water_8hpp.html" target="_top" xlink:title=" ">
<polygon fill="white" stroke="black" points="158,-224.5 158,-254.5 270,-254.5 270,-224.5 158,-224.5"/>
<text text-anchor="start" x="166" y="-242.5" font-family="Helvetica,sans-Serif" font-size="10.00">engine/objects/ground</text>
<text text-anchor="middle" x="214" y="-231.5" font-family="Helvetica,sans-Serif" font-size="10.00">/GroundWater.hpp</text>
</a>
</g>
</g>
<!-- Node19&#45;&gt;Node22 -->
<g id="edge32" class="edge">
<title>Node19&#45;&gt;Node22</title>
<path fill="none" stroke="midnightblue" d="M343.37,-291.48C321.48,-282.85 287,-269.26 259.14,-258.29"/>
<polygon fill="midnightblue" stroke="midnightblue" points="260.17,-254.93 249.59,-254.52 257.61,-261.45 260.17,-254.93"/>
</g>
<!-- Node23 -->
<g id="node23" class="node">
<title>Node23</title>
<g id="a_node23"><a xlink:href="_mineral_8hpp.html" target="_top" xlink:title=" ">
<polygon fill="white" stroke="black" points="288,-224.5 288,-254.5 400,-254.5 400,-224.5 288,-224.5"/>
<text text-anchor="start" x="296" y="-242.5" font-family="Helvetica,sans-Serif" font-size="10.00">engine/objects/ground</text>
<text text-anchor="middle" x="344" y="-231.5" font-family="Helvetica,sans-Serif" font-size="10.00">/Mineral.hpp</text>
</a>
</g>
</g>
<!-- Node19&#45;&gt;Node23 -->
<g id="edge34" class="edge">
<title>Node19&#45;&gt;Node23</title>
<path fill="none" stroke="midnightblue" d="M361.99,-291.48C359.47,-284.32 355.73,-273.75 352.32,-264.08"/>
<polygon fill="midnightblue" stroke="midnightblue" points="355.58,-262.79 348.95,-254.52 348.98,-265.12 355.58,-262.79"/>
</g>
<!-- Node20&#45;&gt;Node14 -->
<g id="edge28" class="edge">
<title>Node20&#45;&gt;Node14</title>
<path fill="none" stroke="midnightblue" d="M462.39,-224.4C455.27,-215.75 446.12,-204.64 438.65,-195.58"/>
<polygon fill="midnightblue" stroke="midnightblue" points="441.19,-193.15 432.13,-187.66 435.79,-197.6 441.19,-193.15"/>
</g>
<!-- Node21&#45;&gt;Node14 -->
<g id="edge31" class="edge">
<title>Node21&#45;&gt;Node14</title>
<path fill="none" stroke="midnightblue" d="M140.33,-225.73C143.26,-225.13 146.16,-224.55 149,-224 230.96,-208.19 327.31,-193.32 381.76,-185.26"/>
<polygon fill="midnightblue" stroke="midnightblue" points="382.37,-188.71 391.75,-183.79 381.35,-181.78 382.37,-188.71"/>
</g>
<!-- Node22&#45;&gt;Node14 -->
<g id="edge33" class="edge">
<title>Node22&#45;&gt;Node14</title>
<path fill="none" stroke="midnightblue" d="M263.74,-224.47C300.77,-214.03 350.68,-199.96 385.12,-190.25"/>
<polygon fill="midnightblue" stroke="midnightblue" points="386.16,-193.59 394.83,-187.51 384.26,-186.85 386.16,-193.59"/>
</g>
<!-- Node23&#45;&gt;Node14 -->
<g id="edge35" class="edge">
<title>Node23&#45;&gt;Node14</title>
<path fill="none" stroke="midnightblue" d="M363.2,-224.4C375.82,-215.13 392.29,-203.03 405.06,-193.65"/>
<polygon fill="midnightblue" stroke="midnightblue" points="407.23,-196.4 413.21,-187.66 403.08,-190.76 407.23,-196.4"/>
</g>
<!-- Node25 -->
<g id="node25" class="node">
<title>Node25</title>
<g id="a_node25"><a xlink:title=" ">
<polygon fill="white" stroke="#bfbfbf" points="878.5,-347.5 878.5,-366.5 913.5,-366.5 913.5,-347.5 878.5,-347.5"/>
<text text-anchor="middle" x="896" y="-354.5" font-family="Helvetica,sans-Serif" font-size="10.00">map</text>
</a>
</g>
</g>
<!-- Node24&#45;&gt;Node25 -->
<g id="edge37" class="edge">
<title>Node24&#45;&gt;Node25</title>
<path fill="none" stroke="midnightblue" d="M896,-403.08C896,-396.01 896,-385.86 896,-376.99"/>
<polygon fill="midnightblue" stroke="midnightblue" points="899.5,-376.75 896,-366.75 892.5,-376.75 899.5,-376.75"/>
</g>
<!-- Node26 -->
<g id="node26" class="node">
<title>Node26</title>
<g id="a_node26"><a xlink:title=" ">
<polygon fill="white" stroke="#bfbfbf" points="939.5,-291.5 939.5,-310.5 980.5,-310.5 980.5,-291.5 939.5,-291.5"/>
<text text-anchor="middle" x="960" y="-298.5" font-family="Helvetica,sans-Serif" font-size="10.00">string</text>
</a>
</g>
</g>
<!-- Node24&#45;&gt;Node26 -->
<g id="edge38" class="edge">
<title>Node24&#45;&gt;Node26</title>
<path fill="none" stroke="midnightblue" d="M887.21,-403.16C875.46,-390.23 857.4,-365.68 869,-347 875.99,-335.75 906.14,-322.2 929.84,-312.93"/>
<polygon fill="midnightblue" stroke="midnightblue" points="931.1,-316.19 939.19,-309.35 928.6,-309.65 931.1,-316.19"/>
</g>
<!-- Node27 -->
<g id="node27" class="node">
<title>Node27</title>
<g id="a_node27"><a xlink:title=" ">
<polygon fill="white" stroke="#bfbfbf" points="931.5,-347.5 931.5,-366.5 982.5,-366.5 982.5,-347.5 931.5,-347.5"/>
<text text-anchor="middle" x="957" y="-354.5" font-family="Helvetica,sans-Serif" font-size="10.00">memory</text>
</a>
</g>
</g>
<!-- Node24&#45;&gt;Node27 -->
<g id="edge39" class="edge">
<title>Node24&#45;&gt;Node27</title>
<path fill="none" stroke="midnightblue" d="M905.8,-403.32C914.82,-395.34 928.41,-383.31 939.32,-373.65"/>
<polygon fill="midnightblue" stroke="midnightblue" points="941.85,-376.08 947.02,-366.83 937.21,-370.84 941.85,-376.08"/>
</g>
<!-- Node28 -->
<g id="node28" class="node">
<title>Node28</title>
<g id="a_node28"><a xlink:href="_shader_8hpp.html" target="_top" xlink:title=" ">
<polygon fill="white" stroke="black" points="1000.5,-347.5 1000.5,-366.5 1105.5,-366.5 1105.5,-347.5 1000.5,-347.5"/>
<text text-anchor="middle" x="1053" y="-354.5" font-family="Helvetica,sans-Serif" font-size="10.00">graphics/Shader.hpp</text>
</a>
</g>
</g>
<!-- Node24&#45;&gt;Node28 -->
<g id="edge40" class="edge">
<title>Node24&#45;&gt;Node28</title>
<path fill="none" stroke="midnightblue" d="M920.88,-403.44C947.29,-394.36 989.22,-379.94 1018.74,-369.78"/>
<polygon fill="midnightblue" stroke="midnightblue" points="1019.92,-373.08 1028.24,-366.52 1017.64,-366.46 1019.92,-373.08"/>
</g>
<!-- Node29 -->
<g id="node29" class="node">
<title>Node29</title>
<g id="a_node29"><a xlink:href="_g_shape_8hpp.html" target="_top" xlink:title=" ">
<polygon fill="white" stroke="black" points="1079,-291.5 1079,-310.5 1189,-310.5 1189,-291.5 1079,-291.5"/>
<text text-anchor="middle" x="1134" y="-298.5" font-family="Helvetica,sans-Serif" font-size="10.00">graphics/GShape.hpp</text>
</a>
</g>
</g>
<!-- Node24&#45;&gt;Node29 -->
<g id="edge54" class="edge">
<title>Node24&#45;&gt;Node29</title>
<path fill="none" stroke="midnightblue" d="M972.71,-404.64C1027.26,-397.89 1094.38,-386 1115,-367 1127.82,-355.19 1132.16,-335.27 1133.55,-320.58"/>
<polygon fill="midnightblue" stroke="midnightblue" points="1137.04,-320.78 1134.12,-310.6 1130.05,-320.38 1137.04,-320.78"/>
</g>
<!-- Node35 -->
<g id="node35" class="node">
<title>Node35</title>
<g id="a_node35"><a xlink:href="_event_handler_8hpp.html" target="_top" xlink:title=" ">
<polygon fill="white" stroke="black" points="760.5,-291.5 760.5,-310.5 915.5,-310.5 915.5,-291.5 760.5,-291.5"/>
<text text-anchor="middle" x="838" y="-298.5" font-family="Helvetica,sans-Serif" font-size="10.00">EventHandler/EventHandler.hpp</text>
</a>
</g>
</g>
<!-- Node24&#45;&gt;Node35 -->
<g id="edge55" class="edge">
<title>Node24&#45;&gt;Node35</title>
<path fill="none" stroke="midnightblue" d="M876.7,-403.48C862.57,-396.08 844.44,-383.89 836,-367 828.82,-352.64 830.23,-334.18 832.91,-320.6"/>
<polygon fill="midnightblue" stroke="midnightblue" points="836.39,-321.08 835.29,-310.55 829.58,-319.47 836.39,-321.08"/>
</g>
<!-- Node28&#45;&gt;Node26 -->
<g id="edge41" class="edge">
<title>Node28&#45;&gt;Node26</title>
<path fill="none" stroke="midnightblue" d="M1038.06,-347.32C1023.41,-338.82 1000.87,-325.73 983.76,-315.8"/>
<polygon fill="midnightblue" stroke="midnightblue" points="985.31,-312.65 974.9,-310.65 981.8,-318.7 985.31,-312.65"/>
</g>
<!-- Node28&#45;&gt;Node29 -->
<g id="edge42" class="edge">
<title>Node28&#45;&gt;Node29</title>
<path fill="none" stroke="midnightblue" d="M1060.9,-347.32C1071.81,-338.82 1091.16,-325.73 1107.33,-315.8"/>
<polygon fill="midnightblue" stroke="midnightblue" points="1109.13,-318.8 1115.91,-310.65 1105.53,-312.79 1109.13,-318.8"/>
</g>
<!-- Node33 -->
<g id="node33" class="node">
<title>Node33</title>
<g id="a_node33"><a xlink:href="_transform_8hpp.html" target="_top" xlink:title=" ">
<polygon fill="white" stroke="black" points="1076.5,-168.5 1076.5,-187.5 1195.5,-187.5 1195.5,-168.5 1076.5,-168.5"/>
<text text-anchor="middle" x="1136" y="-175.5" font-family="Helvetica,sans-Serif" font-size="10.00">graphics/Transform.hpp</text>
</a>
</g>
</g>
<!-- Node28&#45;&gt;Node33 -->
<g id="edge53" class="edge">
<title>Node28&#45;&gt;Node33</title>
<path fill="none" stroke="midnightblue" d="M1054.47,-347.34C1056.81,-334.65 1061.94,-310.39 1070,-291 1084.87,-255.24 1109.46,-217.09 1124.06,-195.83"/>
<polygon fill="midnightblue" stroke="midnightblue" points="1126.98,-197.77 1129.82,-187.56 1121.23,-193.77 1126.98,-197.77"/>
</g>
<!-- Node29&#45;&gt;Node28 -->
<g id="edge51" class="edge">
<title>Node29&#45;&gt;Node28</title>
<path fill="none" stroke="midnightblue" d="M1125.9,-310.83C1115.05,-319.26 1096.08,-332.1 1080.11,-341.94"/>
<polygon fill="midnightblue" stroke="midnightblue" points="1077.9,-339.18 1071.13,-347.32 1081.5,-345.18 1077.9,-339.18"/>
</g>
<!-- Node30 -->
<g id="node30" class="node">
<title>Node30</title>
<g id="a_node30"><a xlink:href="_window_8hpp.html" target="_top" xlink:title=" ">
<polygon fill="white" stroke="black" points="899.5,-230 899.5,-249 1008.5,-249 1008.5,-230 899.5,-230"/>
<text text-anchor="middle" x="954" y="-237" font-family="Helvetica,sans-Serif" font-size="10.00">graphics/Window.hpp</text>
</a>
</g>
</g>
<!-- Node29&#45;&gt;Node30 -->
<g id="edge43" class="edge">
<title>Node29&#45;&gt;Node30</title>
<path fill="none" stroke="midnightblue" d="M1108.21,-291.48C1077.07,-281.18 1024.52,-263.81 989.55,-252.25"/>
<polygon fill="midnightblue" stroke="midnightblue" points="990.34,-248.82 979.74,-249.01 988.14,-255.47 990.34,-248.82"/>
</g>
<!-- Node29&#45;&gt;Node33 -->
<g id="edge52" class="edge">
<title>Node29&#45;&gt;Node33</title>
<path fill="none" stroke="midnightblue" d="M1134.14,-291.3C1134.47,-271.85 1135.25,-224.49 1135.69,-197.9"/>
<polygon fill="midnightblue" stroke="midnightblue" points="1139.19,-197.68 1135.86,-187.62 1132.19,-197.56 1139.19,-197.68"/>
</g>
<!-- Node30&#45;&gt;Node8 -->
<g id="edge46" class="edge">
<title>Node30&#45;&gt;Node8</title>
<path fill="none" stroke="midnightblue" d="M939.54,-229.99C925.25,-221 903.48,-205.69 889,-188 847.41,-137.18 818.82,-63.43 807.04,-29.43"/>
<polygon fill="midnightblue" stroke="midnightblue" points="810.21,-27.87 803.7,-19.52 803.58,-30.11 810.21,-27.87"/>
</g>
<!-- Node30&#45;&gt;Node13 -->
<g id="edge47" class="edge">
<title>Node30&#45;&gt;Node13</title>
<path fill="none" stroke="midnightblue" d="M934.8,-229.98C912.21,-219.95 874.5,-203.2 848.5,-191.65"/>
<polygon fill="midnightblue" stroke="midnightblue" points="849.72,-188.37 839.16,-187.51 846.88,-194.77 849.72,-188.37"/>
</g>
<!-- Node30&#45;&gt;Node28 -->
<g id="edge48" class="edge">
<title>Node30&#45;&gt;Node28</title>
<path fill="none" stroke="midnightblue" d="M961.53,-249.28C978.02,-268.52 1017.57,-314.66 1038.86,-339.5"/>
<polygon fill="midnightblue" stroke="midnightblue" points="1036.39,-342 1045.56,-347.32 1041.71,-337.45 1036.39,-342"/>
</g>
<!-- Node31 -->
<g id="node31" class="node">
<title>Node31</title>
<g id="a_node31"><a xlink:title=" ">
<polygon fill="white" stroke="#bfbfbf" points="898.5,-168.5 898.5,-187.5 961.5,-187.5 961.5,-168.5 898.5,-168.5"/>
<text text-anchor="middle" x="930" y="-175.5" font-family="Helvetica,sans-Serif" font-size="10.00">glad/glad.h</text>
</a>
</g>
</g>
<!-- Node30&#45;&gt;Node31 -->
<g id="edge44" class="edge">
<title>Node30&#45;&gt;Node31</title>
<path fill="none" stroke="midnightblue" d="M950.56,-229.98C947.1,-221.4 941.67,-207.93 937.25,-196.98"/>
<polygon fill="midnightblue" stroke="midnightblue" points="940.42,-195.47 933.43,-187.51 933.93,-198.09 940.42,-195.47"/>
</g>
<!-- Node32 -->
<g id="node32" class="node">
<title>Node32</title>
<g id="a_node32"><a xlink:title=" ">
<polygon fill="white" stroke="#bfbfbf" points="979.5,-168.5 979.5,-187.5 1058.5,-187.5 1058.5,-168.5 979.5,-168.5"/>
<text text-anchor="middle" x="1019" y="-175.5" font-family="Helvetica,sans-Serif" font-size="10.00">GLFW/glfw3.h</text>
</a>
</g>
</g>
<!-- Node30&#45;&gt;Node32 -->
<g id="edge45" class="edge">
<title>Node30&#45;&gt;Node32</title>
<path fill="none" stroke="midnightblue" d="M963.31,-229.98C973.45,-220.7 989.86,-205.67 1002.25,-194.33"/>
<polygon fill="midnightblue" stroke="midnightblue" points="1004.69,-196.84 1009.7,-187.51 999.96,-191.68 1004.69,-196.84"/>
</g>
<!-- Node30&#45;&gt;Node33 -->
<g id="edge49" class="edge">
<title>Node30&#45;&gt;Node33</title>
<path fill="none" stroke="midnightblue" d="M980.08,-229.98C1011.57,-219.68 1064.7,-202.31 1100.06,-190.75"/>
<polygon fill="midnightblue" stroke="midnightblue" points="1101.55,-193.94 1109.97,-187.51 1099.38,-187.29 1101.55,-193.94"/>
</g>
<!-- Node34 -->
<g id="node34" class="node">
<title>Node34</title>
<g id="a_node34"><a xlink:title=" ">
<polygon fill="white" stroke="#bfbfbf" points="1084,-112.5 1084,-131.5 1188,-131.5 1188,-112.5 1084,-112.5"/>
<text text-anchor="middle" x="1136" y="-119.5" font-family="Helvetica,sans-Serif" font-size="10.00">glm/gtc/type_ptr.hpp</text>
</a>
</g>
</g>
<!-- Node33&#45;&gt;Node34 -->
<g id="edge50" class="edge">
<title>Node33&#45;&gt;Node34</title>
<path fill="none" stroke="midnightblue" d="M1136,-168.08C1136,-161.01 1136,-150.86 1136,-141.99"/>
<polygon fill="midnightblue" stroke="midnightblue" points="1139.5,-141.75 1136,-131.75 1132.5,-141.75 1139.5,-141.75"/>
</g>
<!-- Node35&#45;&gt;Node7 -->
<g id="edge58" class="edge">
<title>Node35&#45;&gt;Node7</title>
<path fill="none" stroke="midnightblue" d="M828.85,-291.47C820.16,-282.94 807.23,-269.11 799,-255 790.11,-239.76 752.93,-129.7 738.13,-85.4"/>
<polygon fill="midnightblue" stroke="midnightblue" points="741.36,-84.03 734.87,-75.65 734.72,-86.25 741.36,-84.03"/>
</g>
<!-- Node35&#45;&gt;Node30 -->
<g id="edge57" class="edge">
<title>Node35&#45;&gt;Node30</title>
<path fill="none" stroke="midnightblue" d="M854.62,-291.48C873.92,-281.58 905.96,-265.14 928.43,-253.62"/>
<polygon fill="midnightblue" stroke="midnightblue" points="930.11,-256.69 937.41,-249.01 926.92,-250.46 930.11,-256.69"/>
</g>
<!-- Node36 -->
<g id="node36" class="node">
<title>Node36</title>
<g id="a_node36"><a xlink:title=" ">
<polygon fill="white" stroke="#bfbfbf" points="808.5,-230 808.5,-249 867.5,-249 867.5,-230 808.5,-230"/>
<text text-anchor="middle" x="838" y="-237" font-family="Helvetica,sans-Serif" font-size="10.00">functional</text>
</a>
</g>
</g>
<!-- Node35&#45;&gt;Node36 -->
<g id="edge56" class="edge">
<title>Node35&#45;&gt;Node36</title>
<path fill="none" stroke="midnightblue" d="M838,-291.48C838,-283.08 838,-269.98 838,-259.16"/>
<polygon fill="midnightblue" stroke="midnightblue" points="841.5,-259.01 838,-249.01 834.5,-259.01 841.5,-259.01"/>
</g>
<!-- Node38 -->
<g id="node38" class="node">
<title>Node38</title>
<g id="a_node38"><a xlink:title=" ">
<polygon fill="white" stroke="#bfbfbf" points="734,-459.5 734,-478.5 780,-478.5 780,-459.5 734,-459.5"/>
<text text-anchor="middle" x="757" y="-466.5" font-family="Helvetica,sans-Serif" font-size="10.00">cstdint</text>
</a>
</g>
</g>
<!-- Node37&#45;&gt;Node38 -->
<g id="edge60" class="edge">
<title>Node37&#45;&gt;Node38</title>
<path fill="none" stroke="midnightblue" d="M757,-515.08C757,-508.01 757,-497.86 757,-488.99"/>
<polygon fill="midnightblue" stroke="midnightblue" points="760.5,-488.75 757,-478.75 753.5,-488.75 760.5,-488.75"/>
</g>
</g>
</svg>
