<?xml version="1.0" encoding="UTF-8" standalone="no"?>
<!DOCTYPE svg PUBLIC "-//W3C//DTD SVG 1.1//EN"
 "http://www.w3.org/Graphics/SVG/1.1/DTD/svg11.dtd">
<!-- Generated by graphviz version 2.47.0 (20210407.0042)
 -->
<!-- Title: Initialization Pages: 1 -->
<svg width="576pt" height="339pt"
 viewBox="0.00 0.00 576.00 339.00" xmlns="http://www.w3.org/2000/svg" xmlns:xlink="http://www.w3.org/1999/xlink">
<g id="graph0" class="graph" transform="scale(1 1) rotate(0) translate(4 335)">
<title>Initialization</title>
<polygon fill="white" stroke="transparent" points="-4,4 -4,-335 572,-335 572,4 -4,4"/>
<!-- Node1 -->
<g id="node1" class="node">
<title>Node1</title>
<g id="a_node1"><a xlink:title=" ">
<polygon fill="#bfbfbf" stroke="black" points="0,-262.5 0,-281.5 68,-281.5 68,-262.5 0,-262.5"/>
<text text-anchor="middle" x="34" y="-269.5" font-family="Helvetica,sans-Serif" font-size="10.00">Initialization</text>
</a>
</g>
</g>
<!-- Node2 -->
<g id="node2" class="node">
<title>Node2</title>
<g id="a_node2"><a xlink:href="class_engine.html#acdcf4afb71571455296d5e09e270b496" target="_top" xlink:title=" ">
<polygon fill="white" stroke="black" points="121.5,-300.5 121.5,-319.5 216.5,-319.5 216.5,-300.5 121.5,-300.5"/>
<text text-anchor="middle" x="169" y="-307.5" font-family="Helvetica,sans-Serif" font-size="10.00">Engine::GetEngine</text>
</a>
</g>
</g>
<!-- Node1&#45;&gt;Node2 -->
<g id="edge1" class="edge">
<title>Node1&#45;&gt;Node2</title>
<path fill="none" stroke="midnightblue" d="M68.22,-281.49C85.44,-286.41 106.66,-292.48 125.11,-297.75"/>
<polygon fill="midnightblue" stroke="midnightblue" points="124.17,-301.12 134.74,-300.5 126.09,-294.39 124.17,-301.12"/>
</g>
<!-- Node3 -->
<g id="node3" class="node">
<title>Node3</title>
<g id="a_node3"><a xlink:href="class_sprites_manager.html#a8245b163545dd5a57779316703048eb9" target="_top" xlink:title=" ">
<polygon fill="white" stroke="black" points="117.5,-262.5 117.5,-281.5 220.5,-281.5 220.5,-262.5 117.5,-262.5"/>
<text text-anchor="middle" x="169" y="-269.5" font-family="Helvetica,sans-Serif" font-size="10.00">SpritesManager::Init</text>
</a>
</g>
</g>
<!-- Node1&#45;&gt;Node3 -->
<g id="edge2" class="edge">
<title>Node1&#45;&gt;Node3</title>
<path fill="none" stroke="midnightblue" d="M68.22,-272C80.05,-272 93.78,-272 107.2,-272"/>
<polygon fill="midnightblue" stroke="midnightblue" points="107.36,-275.5 117.36,-272 107.36,-268.5 107.36,-275.5"/>
</g>
<!-- Node5 -->
<g id="node5" class="node">
<title>Node5</title>
<g id="a_node5"><a xlink:href="namespace_graphics_1_1_resource_parser.html#a6a538c07babc9bbaf884e0aeb9654fe0" target="_top" xlink:title=" ">
<polygon fill="white" stroke="black" points="104,-164 104,-194 234,-194 234,-164 104,-164"/>
<text text-anchor="start" x="112" y="-182" font-family="Helvetica,sans-Serif" font-size="10.00">Graphics::ResourceParser</text>
<text text-anchor="middle" x="169" y="-171" font-family="Helvetica,sans-Serif" font-size="10.00">::LoadResources</text>
</a>
</g>
</g>
<!-- Node1&#45;&gt;Node5 -->
<g id="edge4" class="edge">
<title>Node1&#45;&gt;Node5</title>
<path fill="none" stroke="midnightblue" d="M48.73,-262.4C69.66,-247.76 110.06,-219.51 138,-199.98"/>
<polygon fill="midnightblue" stroke="midnightblue" points="140.05,-202.82 146.24,-194.22 136.04,-197.08 140.05,-202.82"/>
</g>
<!-- Node4 -->
<g id="node4" class="node">
<title>Node4</title>
<g id="a_node4"><a xlink:href="class_cell.html#a4ab1e51777a98363d170f41754e204c0" target="_top" xlink:title=" ">
<polygon fill="white" stroke="black" points="317,-311.5 317,-330.5 372,-330.5 372,-311.5 317,-311.5"/>
<text text-anchor="middle" x="344.5" y="-318.5" font-family="Helvetica,sans-Serif" font-size="10.00">Cell::Add</text>
</a>
</g>
</g>
<!-- Node3&#45;&gt;Node4 -->
<g id="edge3" class="edge">
<title>Node3&#45;&gt;Node4</title>
<path fill="none" stroke="midnightblue" d="M202.25,-281.52C212.41,-284.53 223.68,-287.89 234,-291 250.02,-295.83 253.9,-297.46 270,-302 281.97,-305.37 295.1,-308.84 306.91,-311.88"/>
<polygon fill="midnightblue" stroke="midnightblue" points="306.33,-315.34 316.89,-314.42 308.06,-308.56 306.33,-315.34"/>
</g>
<!-- Node6 -->
<g id="node6" class="node">
<title>Node6</title>
<g id="a_node6"><a xlink:href="class_graphics_1_1_resource_manager.html#ae025beebad6dbc29580a8d1d28ef4e9b" target="_top" xlink:title=" ">
<polygon fill="white" stroke="black" points="275,-262 275,-292 414,-292 414,-262 275,-262"/>
<text text-anchor="start" x="283" y="-280" font-family="Helvetica,sans-Serif" font-size="10.00">Graphics::ResourceManager</text>
<text text-anchor="middle" x="344.5" y="-269" font-family="Helvetica,sans-Serif" font-size="10.00">::CreateWindow</text>
</a>
</g>
</g>
<!-- Node5&#45;&gt;Node6 -->
<g id="edge5" class="edge">
<title>Node5&#45;&gt;Node6</title>
<path fill="none" stroke="midnightblue" d="M186.92,-194.21C205.94,-210.64 238.33,-236.66 270,-253 273.52,-254.82 277.21,-256.54 280.98,-258.15"/>
<polygon fill="midnightblue" stroke="midnightblue" points="279.88,-261.48 290.46,-261.96 282.49,-254.99 279.88,-261.48"/>
</g>
<!-- Node7 -->
<g id="node7" class="node">
<title>Node7</title>
<g id="a_node7"><a xlink:href="class_graphics_1_1_resource_manager.html#a34d11294bd090580de46ab34f303c2ab" target="_top" xlink:title=" ">
<polygon fill="white" stroke="black" points="275,-213 275,-243 414,-243 414,-213 275,-213"/>
<text text-anchor="start" x="283" y="-231" font-family="Helvetica,sans-Serif" font-size="10.00">Graphics::ResourceManager</text>
<text text-anchor="middle" x="344.5" y="-220" font-family="Helvetica,sans-Serif" font-size="10.00">::GetShader</text>
</a>
</g>
</g>
<!-- Node5&#45;&gt;Node7 -->
<g id="edge6" class="edge">
<title>Node5&#45;&gt;Node7</title>
<path fill="none" stroke="midnightblue" d="M223.47,-194.1C241.53,-199.2 261.86,-204.94 280.58,-210.23"/>
<polygon fill="midnightblue" stroke="midnightblue" points="279.63,-213.6 290.21,-212.95 281.53,-206.86 279.63,-213.6"/>
</g>
<!-- Node8 -->
<g id="node8" class="node">
<title>Node8</title>
<g id="a_node8"><a xlink:href="class_graphics_1_1_resource_manager.html#a2bf0311bf4f8431618eb13706a26a5f1" target="_top" xlink:title=" ">
<polygon fill="white" stroke="black" points="275,-164 275,-194 414,-194 414,-164 275,-164"/>
<text text-anchor="start" x="283" y="-182" font-family="Helvetica,sans-Serif" font-size="10.00">Graphics::ResourceManager</text>
<text text-anchor="middle" x="344.5" y="-171" font-family="Helvetica,sans-Serif" font-size="10.00">::GetWindow</text>
</a>
</g>
</g>
<!-- Node5&#45;&gt;Node8 -->
<g id="edge7" class="edge">
<title>Node5&#45;&gt;Node8</title>
<path fill="none" stroke="midnightblue" d="M234.11,-179C244.1,-179 254.52,-179 264.79,-179"/>
<polygon fill="midnightblue" stroke="midnightblue" points="264.99,-182.5 274.99,-179 264.99,-175.5 264.99,-182.5"/>
</g>
<!-- Node9 -->
<g id="node9" class="node">
<title>Node9</title>
<g id="a_node9"><a xlink:href="class_graphics_1_1_resource_manager.html#a30a44b1a9b80d88c3e9d4f39a0672c11" target="_top" xlink:title=" ">
<polygon fill="white" stroke="black" points="275,-115 275,-145 414,-145 414,-115 275,-115"/>
<text text-anchor="start" x="283" y="-133" font-family="Helvetica,sans-Serif" font-size="10.00">Graphics::ResourceManager</text>
<text text-anchor="middle" x="344.5" y="-122" font-family="Helvetica,sans-Serif" font-size="10.00">::LoadImage</text>
</a>
</g>
</g>
<!-- Node5&#45;&gt;Node9 -->
<g id="edge8" class="edge">
<title>Node5&#45;&gt;Node9</title>
<path fill="none" stroke="midnightblue" d="M223.47,-163.9C241.53,-158.8 261.86,-153.06 280.58,-147.77"/>
<polygon fill="midnightblue" stroke="midnightblue" points="281.53,-151.14 290.21,-145.05 279.63,-144.4 281.53,-151.14"/>
</g>
<!-- Node10 -->
<g id="node10" class="node">
<title>Node10</title>
<g id="a_node10"><a xlink:href="class_graphics_1_1_resource_manager.html#a89192a1a222927aff3890b953dd1f058" target="_top" xlink:title=" ">
<polygon fill="white" stroke="black" points="275,-66 275,-96 414,-96 414,-66 275,-66"/>
<text text-anchor="start" x="283" y="-84" font-family="Helvetica,sans-Serif" font-size="10.00">Graphics::ResourceManager</text>
<text text-anchor="middle" x="344.5" y="-73" font-family="Helvetica,sans-Serif" font-size="10.00">::LoadShader</text>
</a>
</g>
</g>
<!-- Node5&#45;&gt;Node10 -->
<g id="edge9" class="edge">
<title>Node5&#45;&gt;Node10</title>
<path fill="none" stroke="midnightblue" d="M187.34,-163.79C206.48,-147.64 238.72,-122.25 270,-106 274.19,-103.82 278.61,-101.77 283.12,-99.86"/>
<polygon fill="midnightblue" stroke="midnightblue" points="284.47,-103.09 292.45,-96.11 281.86,-96.59 284.47,-103.09"/>
</g>
<!-- Node11 -->
<g id="node11" class="node">
<title>Node11</title>
<g id="a_node11"><a xlink:href="class_graphics_1_1_shader.html#ab82f9feaa1c7c5623eaf7bb03c061e0a" target="_top" xlink:title=" ">
<polygon fill="white" stroke="black" points="270,-17 270,-47 419,-47 419,-17 270,-17"/>
<text text-anchor="start" x="278" y="-35" font-family="Helvetica,sans-Serif" font-size="10.00">Graphics::Shader::SetProjector</text>
<text text-anchor="middle" x="344.5" y="-24" font-family="Helvetica,sans-Serif" font-size="10.00">Matrix</text>
</a>
</g>
</g>
<!-- Node5&#45;&gt;Node11 -->
<g id="edge10" class="edge">
<title>Node5&#45;&gt;Node11</title>
<path fill="none" stroke="midnightblue" d="M178.46,-163.96C193.59,-138.38 227.68,-86.33 270,-57 272.86,-55.02 275.88,-53.19 279.02,-51.49"/>
<polygon fill="midnightblue" stroke="midnightblue" points="280.63,-54.59 288.08,-47.05 277.56,-48.31 280.63,-54.59"/>
</g>
<!-- Node12 -->
<g id="node12" class="node">
<title>Node12</title>
<g id="a_node12"><a xlink:href="class_graphics_1_1_transform.html#a5e301531e0b340509d10dd5dad929b9c" target="_top" xlink:title=" ">
<polygon fill="white" stroke="black" points="459.5,-39 459.5,-69 563.5,-69 563.5,-39 459.5,-39"/>
<text text-anchor="start" x="467.5" y="-57" font-family="Helvetica,sans-Serif" font-size="10.00">Graphics::Transform</text>
<text text-anchor="middle" x="511.5" y="-46" font-family="Helvetica,sans-Serif" font-size="10.00">::GetMatrix</text>
</a>
</g>
</g>
<!-- Node11&#45;&gt;Node12 -->
<g id="edge11" class="edge">
<title>Node11&#45;&gt;Node12</title>
<path fill="none" stroke="midnightblue" d="M419.31,-41.84C429.38,-43.18 439.61,-44.55 449.41,-45.86"/>
<polygon fill="midnightblue" stroke="midnightblue" points="449.07,-49.34 459.45,-47.19 450,-42.4 449.07,-49.34"/>
</g>
<!-- Node13 -->
<g id="node13" class="node">
<title>Node13</title>
<g id="a_node13"><a xlink:href="class_graphics_1_1_shader.html#a11a2de17d1d077ec34acd4f7cd57f6b1" target="_top" xlink:title=" ">
<polygon fill="white" stroke="black" points="455,-0.5 455,-19.5 568,-19.5 568,-0.5 455,-0.5"/>
<text text-anchor="middle" x="511.5" y="-7.5" font-family="Helvetica,sans-Serif" font-size="10.00">Graphics::Shader::Use</text>
</a>
</g>
</g>
<!-- Node11&#45;&gt;Node13 -->
<g id="edge12" class="edge">
<title>Node11&#45;&gt;Node13</title>
<path fill="none" stroke="midnightblue" d="M419.31,-22.16C427.73,-21.04 436.27,-19.9 444.58,-18.79"/>
<polygon fill="midnightblue" stroke="midnightblue" points="445.12,-22.25 454.57,-17.46 444.2,-15.31 445.12,-22.25"/>
</g>
</g>
</svg>
