<?xml version="1.0" encoding="UTF-8" standalone="no"?>
<!DOCTYPE svg PUBLIC "-//W3C//DTD SVG 1.1//EN"
 "http://www.w3.org/Graphics/SVG/1.1/DTD/svg11.dtd">
<!-- Generated by graphviz version 2.47.0 (20210407.0042)
 -->
<!-- Title: src/main.cpp Pages: 1 -->
<svg width="1228pt" height="543pt"
 viewBox="0.00 0.00 1228.00 543.00" xmlns="http://www.w3.org/2000/svg" xmlns:xlink="http://www.w3.org/1999/xlink">
<g id="graph0" class="graph" transform="scale(1 1) rotate(0) translate(4 539)">
<title>src/main.cpp</title>
<polygon fill="white" stroke="transparent" points="-4,4 -4,-539 1224,-539 1224,4 -4,4"/>
<!-- Node1 -->
<g id="node1" class="node">
<title>Node1</title>
<g id="a_node1"><a xlink:title=" ">
<polygon fill="#bfbfbf" stroke="black" points="472.5,-515.5 472.5,-534.5 544.5,-534.5 544.5,-515.5 472.5,-515.5"/>
<text text-anchor="middle" x="508.5" y="-522.5" font-family="Helvetica,sans-Serif" font-size="10.00">src/main.cpp</text>
</a>
</g>
</g>
<!-- Node2 -->
<g id="node2" class="node">
<title>Node2</title>
<g id="a_node2"><a xlink:title=" ">
<polygon fill="white" stroke="#bfbfbf" points="211.5,-459.5 211.5,-478.5 265.5,-478.5 265.5,-459.5 211.5,-459.5"/>
<text text-anchor="middle" x="238.5" y="-466.5" font-family="Helvetica,sans-Serif" font-size="10.00">iostream</text>
</a>
</g>
</g>
<!-- Node1&#45;&gt;Node2 -->
<g id="edge1" class="edge">
<title>Node1&#45;&gt;Node2</title>
<path fill="none" stroke="midnightblue" d="M472.3,-517.68C428.18,-509.83 351.16,-495.68 275.74,-479.18"/>
<polygon fill="midnightblue" stroke="midnightblue" points="276.11,-475.68 265.59,-476.94 274.6,-482.51 276.11,-475.68"/>
</g>
<!-- Node3 -->
<g id="node3" class="node">
<title>Node3</title>
<g id="a_node3"><a xlink:href="_engine_8hpp.html" target="_top" xlink:title=" ">
<polygon fill="white" stroke="black" points="283.5,-459.5 283.5,-478.5 347.5,-478.5 347.5,-459.5 283.5,-459.5"/>
<text text-anchor="middle" x="315.5" y="-466.5" font-family="Helvetica,sans-Serif" font-size="10.00">Engine.hpp</text>
</a>
</g>
</g>
<!-- Node1&#45;&gt;Node3 -->
<g id="edge2" class="edge">
<title>Node1&#45;&gt;Node3</title>
<path fill="none" stroke="midnightblue" d="M477.92,-515.44C444.89,-506.2 392.11,-491.44 355.73,-481.26"/>
<polygon fill="midnightblue" stroke="midnightblue" points="356.51,-477.84 345.94,-478.52 354.63,-484.58 356.51,-477.84"/>
</g>
<!-- Node18 -->
<g id="node18" class="node">
<title>Node18</title>
<g id="a_node18"><a xlink:href="_sprites_manager_8hpp.html" target="_top" xlink:title=" ">
<polygon fill="white" stroke="black" points="457,-235.5 457,-254.5 560,-254.5 560,-235.5 457,-235.5"/>
<text text-anchor="middle" x="508.5" y="-242.5" font-family="Helvetica,sans-Serif" font-size="10.00">SpritesManager.hpp</text>
</a>
</g>
</g>
<!-- Node1&#45;&gt;Node18 -->
<g id="edge25" class="edge">
<title>Node1&#45;&gt;Node18</title>
<path fill="none" stroke="midnightblue" d="M508.5,-515.44C508.5,-496.94 508.5,-451.81 508.5,-414 508.5,-414 508.5,-414 508.5,-356 508.5,-323.95 508.5,-286.64 508.5,-264.75"/>
<polygon fill="midnightblue" stroke="midnightblue" points="512,-264.56 508.5,-254.56 505,-264.56 512,-264.56"/>
</g>
<!-- Node23 -->
<g id="node23" class="node">
<title>Node23</title>
<g id="a_node23"><a xlink:href="_resource_manager_8hpp.html" target="_top" xlink:title=" ">
<polygon fill="white" stroke="black" points="765,-459.5 765,-478.5 918,-478.5 918,-459.5 765,-459.5"/>
<text text-anchor="middle" x="841.5" y="-466.5" font-family="Helvetica,sans-Serif" font-size="10.00">graphics/ResourceManager.hpp</text>
</a>
</g>
</g>
<!-- Node1&#45;&gt;Node23 -->
<g id="edge35" class="edge">
<title>Node1&#45;&gt;Node23</title>
<path fill="none" stroke="midnightblue" d="M544.77,-518.12C601,-509 709.93,-491.34 779.01,-480.13"/>
<polygon fill="midnightblue" stroke="midnightblue" points="779.59,-483.59 788.9,-478.53 778.47,-476.68 779.59,-483.59"/>
</g>
<!-- Node35 -->
<g id="node35" class="node">
<title>Node35</title>
<g id="a_node35"><a xlink:href="_timer_8hpp.html" target="_top" xlink:title=" ">
<polygon fill="white" stroke="black" points="1007,-459.5 1007,-478.5 1066,-478.5 1066,-459.5 1007,-459.5"/>
<text text-anchor="middle" x="1036.5" y="-466.5" font-family="Helvetica,sans-Serif" font-size="10.00">Timer.hpp</text>
</a>
</g>
</g>
<!-- Node1&#45;&gt;Node35 -->
<g id="edge54" class="edge">
<title>Node1&#45;&gt;Node35</title>
<path fill="none" stroke="midnightblue" d="M544.79,-520.29C640.22,-510.53 897.63,-484.2 996.8,-474.06"/>
<polygon fill="midnightblue" stroke="midnightblue" points="997.4,-477.52 1006.99,-473.02 996.69,-470.55 997.4,-477.52"/>
</g>
<!-- Node4 -->
<g id="node4" class="node">
<title>Node4</title>
<g id="a_node4"><a xlink:href="_player_8hpp.html" target="_top" xlink:title=" ">
<polygon fill="white" stroke="black" points="118.5,-347.5 118.5,-366.5 246.5,-366.5 246.5,-347.5 118.5,-347.5"/>
<text text-anchor="middle" x="182.5" y="-354.5" font-family="Helvetica,sans-Serif" font-size="10.00">engine/objects/Player.hpp</text>
</a>
</g>
</g>
<!-- Node3&#45;&gt;Node4 -->
<g id="edge3" class="edge">
<title>Node3&#45;&gt;Node4</title>
<path fill="none" stroke="midnightblue" d="M305.06,-459.37C282.53,-440.73 229.09,-396.53 200.8,-373.13"/>
<polygon fill="midnightblue" stroke="midnightblue" points="202.82,-370.27 192.89,-366.59 198.36,-375.66 202.82,-370.27"/>
</g>
<!-- Node15 -->
<g id="node15" class="node">
<title>Node15</title>
<g id="a_node15"><a xlink:href="_unit_group_8hpp.html" target="_top" xlink:title=" ">
<polygon fill="white" stroke="black" points="1,-403.5 1,-422.5 146,-422.5 146,-403.5 1,-403.5"/>
<text text-anchor="middle" x="73.5" y="-410.5" font-family="Helvetica,sans-Serif" font-size="10.00">engine/objects/UnitGroup.hpp</text>
</a>
</g>
</g>
<!-- Node3&#45;&gt;Node15 -->
<g id="edge21" class="edge">
<title>Node3&#45;&gt;Node15</title>
<path fill="none" stroke="midnightblue" d="M283.36,-460.83C241.95,-451.59 169.59,-435.44 121.61,-424.73"/>
<polygon fill="midnightblue" stroke="midnightblue" points="122.28,-421.3 111.76,-422.54 120.76,-428.13 122.28,-421.3"/>
</g>
<!-- Node5 -->
<g id="node5" class="node">
<title>Node5</title>
<g id="a_node5"><a xlink:href="_drawable_8hpp.html" target="_top" xlink:title=" ">
<polygon fill="white" stroke="black" points="145,-56.5 145,-75.5 252,-75.5 252,-56.5 145,-56.5"/>
<text text-anchor="middle" x="198.5" y="-63.5" font-family="Helvetica,sans-Serif" font-size="10.00">engine/Drawable.hpp</text>
</a>
</g>
</g>
<!-- Node4&#45;&gt;Node5 -->
<g id="edge4" class="edge">
<title>Node4&#45;&gt;Node5</title>
<path fill="none" stroke="midnightblue" d="M179.26,-347.3C172.71,-328.89 158.5,-284.51 158.5,-246 158.5,-246 158.5,-246 158.5,-182.5 158.5,-146.06 176.49,-106.55 188.34,-84.47"/>
<polygon fill="midnightblue" stroke="midnightblue" points="191.46,-86.07 193.27,-75.63 185.35,-82.66 191.46,-86.07"/>
</g>
<!-- Node8 -->
<g id="node8" class="node">
<title>Node8</title>
<g id="a_node8"><a xlink:href="_world_actor_8hpp.html" target="_top" xlink:title=" ">
<polygon fill="white" stroke="black" points="16.5,-291.5 16.5,-310.5 130.5,-310.5 130.5,-291.5 16.5,-291.5"/>
<text text-anchor="middle" x="73.5" y="-298.5" font-family="Helvetica,sans-Serif" font-size="10.00">engine/WorldActor.hpp</text>
</a>
</g>
</g>
<!-- Node4&#45;&gt;Node8 -->
<g id="edge7" class="edge">
<title>Node4&#45;&gt;Node8</title>
<path fill="none" stroke="midnightblue" d="M164.99,-347.32C147.43,-338.62 120.17,-325.12 99.97,-315.11"/>
<polygon fill="midnightblue" stroke="midnightblue" points="101.48,-311.96 90.97,-310.65 98.38,-318.23 101.48,-311.96"/>
</g>
<!-- Node6 -->
<g id="node6" class="node">
<title>Node6</title>
<g id="a_node6"><a xlink:title=" ">
<polygon fill="white" stroke="#bfbfbf" points="168.5,-0.5 168.5,-19.5 234.5,-19.5 234.5,-0.5 168.5,-0.5"/>
<text text-anchor="middle" x="201.5" y="-7.5" font-family="Helvetica,sans-Serif" font-size="10.00">string_view</text>
</a>
</g>
</g>
<!-- Node5&#45;&gt;Node6 -->
<g id="edge5" class="edge">
<title>Node5&#45;&gt;Node6</title>
<path fill="none" stroke="midnightblue" d="M199,-56.08C199.39,-49.01 199.95,-38.86 200.45,-29.99"/>
<polygon fill="midnightblue" stroke="midnightblue" points="203.95,-29.93 201.01,-19.75 196.96,-29.54 203.95,-29.93"/>
</g>
<!-- Node7 -->
<g id="node7" class="node">
<title>Node7</title>
<g id="a_node7"><a xlink:href="_vector2_d_8hpp.html" target="_top" xlink:title=" ">
<polygon fill="white" stroke="black" points="38.5,-0.5 38.5,-19.5 150.5,-19.5 150.5,-0.5 38.5,-0.5"/>
<text text-anchor="middle" x="94.5" y="-7.5" font-family="Helvetica,sans-Serif" font-size="10.00">Helpers/Vector2D.hpp</text>
</a>
</g>
</g>
<!-- Node5&#45;&gt;Node7 -->
<g id="edge6" class="edge">
<title>Node5&#45;&gt;Node7</title>
<path fill="none" stroke="midnightblue" d="M181.79,-56.32C165.19,-47.7 139.5,-34.36 120.28,-24.39"/>
<polygon fill="midnightblue" stroke="midnightblue" points="121.66,-21.16 111.17,-19.65 118.43,-27.37 121.66,-21.16"/>
</g>
<!-- Node8&#45;&gt;Node7 -->
<g id="edge8" class="edge">
<title>Node8&#45;&gt;Node7</title>
<path fill="none" stroke="midnightblue" d="M70.08,-291.47C62.82,-272.54 46.5,-225.48 46.5,-184.5 46.5,-184.5 46.5,-184.5 46.5,-121 46.5,-85.58 67.66,-48.71 81.88,-27.92"/>
<polygon fill="midnightblue" stroke="midnightblue" points="84.88,-29.74 87.83,-19.56 79.18,-25.68 84.88,-29.74"/>
</g>
<!-- Node9 -->
<g id="node9" class="node">
<title>Node9</title>
<g id="a_node9"><a xlink:href="_field_8hpp.html" target="_top" xlink:title=" ">
<polygon fill="white" stroke="black" points="74.5,-235.5 74.5,-254.5 130.5,-254.5 130.5,-235.5 74.5,-235.5"/>
<text text-anchor="middle" x="102.5" y="-242.5" font-family="Helvetica,sans-Serif" font-size="10.00">Field.hpp</text>
</a>
</g>
</g>
<!-- Node8&#45;&gt;Node9 -->
<g id="edge9" class="edge">
<title>Node8&#45;&gt;Node9</title>
<path fill="none" stroke="midnightblue" d="M78.29,-291.08C82.26,-283.69 88.03,-272.95 92.93,-263.81"/>
<polygon fill="midnightblue" stroke="midnightblue" points="96.15,-265.22 97.8,-254.75 89.99,-261.91 96.15,-265.22"/>
</g>
<!-- Node9&#45;&gt;Node7 -->
<g id="edge20" class="edge">
<title>Node9&#45;&gt;Node7</title>
<path fill="none" stroke="midnightblue" d="M102.21,-235.43C101.05,-201.75 96.8,-77.99 95.16,-30.1"/>
<polygon fill="midnightblue" stroke="midnightblue" points="98.65,-29.77 94.81,-19.9 91.65,-30.01 98.65,-29.77"/>
</g>
<!-- Node10 -->
<g id="node10" class="node">
<title>Node10</title>
<g id="a_node10"><a xlink:href="_cell_8hpp.html" target="_top" xlink:title=" ">
<polygon fill="white" stroke="black" points="187,-174 187,-193 304,-193 304,-174 187,-174"/>
<text text-anchor="middle" x="245.5" y="-181" font-family="Helvetica,sans-Serif" font-size="10.00">engine/objects/Cell.hpp</text>
</a>
</g>
</g>
<!-- Node9&#45;&gt;Node10 -->
<g id="edge10" class="edge">
<title>Node9&#45;&gt;Node10</title>
<path fill="none" stroke="midnightblue" d="M122.99,-235.48C147.31,-225.36 188.05,-208.4 215.82,-196.85"/>
<polygon fill="midnightblue" stroke="midnightblue" points="217.16,-200.08 225.05,-193.01 214.47,-193.62 217.16,-200.08"/>
</g>
<!-- Node10&#45;&gt;Node5 -->
<g id="edge11" class="edge">
<title>Node10&#45;&gt;Node5</title>
<path fill="none" stroke="midnightblue" d="M239.4,-173.96C232.7,-164.22 222.03,-147.62 215.5,-132 209.17,-116.87 204.67,-98.75 201.89,-85.49"/>
<polygon fill="midnightblue" stroke="midnightblue" points="205.32,-84.8 199.96,-75.66 198.46,-86.15 205.32,-84.8"/>
</g>
<!-- Node11 -->
<g id="node11" class="node">
<title>Node11</title>
<g id="a_node11"><a xlink:href="_tickable_8hpp.html" target="_top" xlink:title=" ">
<polygon fill="white" stroke="black" points="271,-56.5 271,-75.5 374,-75.5 374,-56.5 271,-56.5"/>
<text text-anchor="middle" x="322.5" y="-63.5" font-family="Helvetica,sans-Serif" font-size="10.00">engine/Tickable.hpp</text>
</a>
</g>
</g>
<!-- Node10&#45;&gt;Node11 -->
<g id="edge12" class="edge">
<title>Node10&#45;&gt;Node11</title>
<path fill="none" stroke="midnightblue" d="M259.19,-173.69C272.13,-164.68 291.19,-149.56 302.5,-132 311.59,-117.89 316.75,-99.4 319.55,-85.75"/>
<polygon fill="midnightblue" stroke="midnightblue" points="323.04,-86.09 321.37,-75.63 316.15,-84.85 323.04,-86.09"/>
</g>
<!-- Node12 -->
<g id="node12" class="node">
<title>Node12</title>
<g id="a_node12"><a xlink:title=" ">
<polygon fill="white" stroke="#bfbfbf" points="693.5,-112.5 693.5,-131.5 737.5,-131.5 737.5,-112.5 693.5,-112.5"/>
<text text-anchor="middle" x="715.5" y="-119.5" font-family="Helvetica,sans-Serif" font-size="10.00">vector</text>
</a>
</g>
</g>
<!-- Node10&#45;&gt;Node12 -->
<g id="edge13" class="edge">
<title>Node10&#45;&gt;Node12</title>
<path fill="none" stroke="midnightblue" d="M282.43,-173.93C292.47,-171.79 303.37,-169.64 313.5,-168 450.04,-145.86 614.44,-131.15 683.01,-125.54"/>
<polygon fill="midnightblue" stroke="midnightblue" points="683.48,-129.02 693.17,-124.72 682.92,-122.04 683.48,-129.02"/>
</g>
<!-- Node13 -->
<g id="node13" class="node">
<title>Node13</title>
<g id="a_node13"><a xlink:href="_ground_8hpp.html" target="_top" xlink:title=" ">
<polygon fill="white" stroke="black" points="350.5,-112.5 350.5,-131.5 416.5,-131.5 416.5,-112.5 350.5,-112.5"/>
<text text-anchor="middle" x="383.5" y="-119.5" font-family="Helvetica,sans-Serif" font-size="10.00">Ground.hpp</text>
</a>
</g>
</g>
<!-- Node10&#45;&gt;Node13 -->
<g id="edge14" class="edge">
<title>Node10&#45;&gt;Node13</title>
<path fill="none" stroke="midnightblue" d="M265.27,-173.98C288.64,-163.9 327.71,-147.05 354.5,-135.5"/>
<polygon fill="midnightblue" stroke="midnightblue" points="355.97,-138.68 363.76,-131.51 353.2,-132.25 355.97,-138.68"/>
</g>
<!-- Node14 -->
<g id="node14" class="node">
<title>Node14</title>
<g id="a_node14"><a xlink:href="_building_8hpp.html" target="_top" xlink:title=" ">
<polygon fill="white" stroke="black" points="225,-112.5 225,-131.5 294,-131.5 294,-112.5 225,-112.5"/>
<text text-anchor="middle" x="259.5" y="-119.5" font-family="Helvetica,sans-Serif" font-size="10.00">Building.hpp</text>
</a>
</g>
</g>
<!-- Node10&#45;&gt;Node14 -->
<g id="edge17" class="edge">
<title>Node10&#45;&gt;Node14</title>
<path fill="none" stroke="midnightblue" d="M247.51,-173.98C249.5,-165.49 252.63,-152.2 255.19,-141.32"/>
<polygon fill="midnightblue" stroke="midnightblue" points="258.61,-142.04 257.5,-131.51 251.8,-140.44 258.61,-142.04"/>
</g>
<!-- Node13&#45;&gt;Node5 -->
<g id="edge15" class="edge">
<title>Node13&#45;&gt;Node5</title>
<path fill="none" stroke="midnightblue" d="M354.19,-112.44C322.66,-103.24 272.37,-88.56 237.51,-78.39"/>
<polygon fill="midnightblue" stroke="midnightblue" points="238.26,-74.96 227.68,-75.52 236.3,-81.68 238.26,-74.96"/>
</g>
<!-- Node13&#45;&gt;Node11 -->
<g id="edge16" class="edge">
<title>Node13&#45;&gt;Node11</title>
<path fill="none" stroke="midnightblue" d="M373.7,-112.32C364.68,-104.34 351.09,-92.31 340.18,-82.65"/>
<polygon fill="midnightblue" stroke="midnightblue" points="342.29,-79.84 332.48,-75.83 337.65,-85.08 342.29,-79.84"/>
</g>
<!-- Node14&#45;&gt;Node5 -->
<g id="edge18" class="edge">
<title>Node14&#45;&gt;Node5</title>
<path fill="none" stroke="midnightblue" d="M249.7,-112.32C240.68,-104.34 227.09,-92.31 216.18,-82.65"/>
<polygon fill="midnightblue" stroke="midnightblue" points="218.29,-79.84 208.48,-75.83 213.65,-85.08 218.29,-79.84"/>
</g>
<!-- Node14&#45;&gt;Node11 -->
<g id="edge19" class="edge">
<title>Node14&#45;&gt;Node11</title>
<path fill="none" stroke="midnightblue" d="M269.62,-112.32C279.03,-104.26 293.24,-92.08 304.57,-82.37"/>
<polygon fill="midnightblue" stroke="midnightblue" points="306.88,-85 312.19,-75.83 302.32,-79.68 306.88,-85"/>
</g>
<!-- Node16 -->
<g id="node16" class="node">
<title>Node16</title>
<g id="a_node16"><a xlink:href="_unit_8hpp.html" target="_top" xlink:title=" ">
<polygon fill="white" stroke="black" points="47,-347.5 47,-366.5 100,-366.5 100,-347.5 47,-347.5"/>
<text text-anchor="middle" x="73.5" y="-354.5" font-family="Helvetica,sans-Serif" font-size="10.00">Unit.hpp</text>
</a>
</g>
</g>
<!-- Node15&#45;&gt;Node16 -->
<g id="edge22" class="edge">
<title>Node15&#45;&gt;Node16</title>
<path fill="none" stroke="midnightblue" d="M73.5,-403.08C73.5,-396.01 73.5,-385.86 73.5,-376.99"/>
<polygon fill="midnightblue" stroke="midnightblue" points="77,-376.75 73.5,-366.75 70,-376.75 77,-376.75"/>
</g>
<!-- Node17 -->
<g id="node17" class="node">
<title>Node17</title>
<g id="a_node17"><a xlink:title=" ">
<polygon fill="white" stroke="#bfbfbf" points="0,-347.5 0,-366.5 29,-366.5 29,-347.5 0,-347.5"/>
<text text-anchor="middle" x="14.5" y="-354.5" font-family="Helvetica,sans-Serif" font-size="10.00">list</text>
</a>
</g>
</g>
<!-- Node15&#45;&gt;Node17 -->
<g id="edge24" class="edge">
<title>Node15&#45;&gt;Node17</title>
<path fill="none" stroke="midnightblue" d="M64.02,-403.32C55.3,-395.34 42.16,-383.31 31.6,-373.65"/>
<polygon fill="midnightblue" stroke="midnightblue" points="33.89,-371 24.15,-366.83 29.17,-376.17 33.89,-371"/>
</g>
<!-- Node16&#45;&gt;Node8 -->
<g id="edge23" class="edge">
<title>Node16&#45;&gt;Node8</title>
<path fill="none" stroke="midnightblue" d="M73.5,-347.08C73.5,-340.01 73.5,-329.86 73.5,-320.99"/>
<polygon fill="midnightblue" stroke="midnightblue" points="77,-320.75 73.5,-310.75 70,-320.75 77,-320.75"/>
</g>
<!-- Node18&#45;&gt;Node10 -->
<g id="edge28" class="edge">
<title>Node18&#45;&gt;Node10</title>
<path fill="none" stroke="midnightblue" d="M470.82,-235.48C423.95,-224.87 343.89,-206.76 292.9,-195.22"/>
<polygon fill="midnightblue" stroke="midnightblue" points="293.64,-191.8 283.11,-193.01 292.09,-198.63 293.64,-191.8"/>
</g>
<!-- Node19 -->
<g id="node19" class="node">
<title>Node19</title>
<g id="a_node19"><a xlink:href="_ground_empty_8hpp.html" target="_top" xlink:title=" ">
<polygon fill="white" stroke="black" points="452.5,-168.5 452.5,-198.5 564.5,-198.5 564.5,-168.5 452.5,-168.5"/>
<text text-anchor="start" x="460.5" y="-186.5" font-family="Helvetica,sans-Serif" font-size="10.00">engine/objects/ground</text>
<text text-anchor="middle" x="508.5" y="-175.5" font-family="Helvetica,sans-Serif" font-size="10.00">/GroundEmpty.hpp</text>
</a>
</g>
</g>
<!-- Node18&#45;&gt;Node19 -->
<g id="edge26" class="edge">
<title>Node18&#45;&gt;Node19</title>
<path fill="none" stroke="midnightblue" d="M508.5,-235.48C508.5,-228.47 508.5,-218.19 508.5,-208.7"/>
<polygon fill="midnightblue" stroke="midnightblue" points="512,-208.52 508.5,-198.52 505,-208.52 512,-208.52"/>
</g>
<!-- Node20 -->
<g id="node20" class="node">
<title>Node20</title>
<g id="a_node20"><a xlink:href="_ground_earth_8hpp.html" target="_top" xlink:title=" ">
<polygon fill="white" stroke="black" points="582.5,-168.5 582.5,-198.5 694.5,-198.5 694.5,-168.5 582.5,-168.5"/>
<text text-anchor="start" x="590.5" y="-186.5" font-family="Helvetica,sans-Serif" font-size="10.00">engine/objects/ground</text>
<text text-anchor="middle" x="638.5" y="-175.5" font-family="Helvetica,sans-Serif" font-size="10.00">/GroundEarth.hpp</text>
</a>
</g>
</g>
<!-- Node18&#45;&gt;Node20 -->
<g id="edge29" class="edge">
<title>Node18&#45;&gt;Node20</title>
<path fill="none" stroke="midnightblue" d="M527.13,-235.48C545.72,-226.96 574.88,-213.62 598.7,-202.72"/>
<polygon fill="midnightblue" stroke="midnightblue" points="600.23,-205.87 607.86,-198.52 597.31,-199.5 600.23,-205.87"/>
</g>
<!-- Node21 -->
<g id="node21" class="node">
<title>Node21</title>
<g id="a_node21"><a xlink:href="_ground_water_8hpp.html" target="_top" xlink:title=" ">
<polygon fill="white" stroke="black" points="712.5,-168.5 712.5,-198.5 824.5,-198.5 824.5,-168.5 712.5,-168.5"/>
<text text-anchor="start" x="720.5" y="-186.5" font-family="Helvetica,sans-Serif" font-size="10.00">engine/objects/ground</text>
<text text-anchor="middle" x="768.5" y="-175.5" font-family="Helvetica,sans-Serif" font-size="10.00">/GroundWater.hpp</text>
</a>
</g>
</g>
<!-- Node18&#45;&gt;Node21 -->
<g id="edge31" class="edge">
<title>Node18&#45;&gt;Node21</title>
<path fill="none" stroke="midnightblue" d="M545.75,-235.48C586.47,-226.16 652.53,-211.04 702.16,-199.68"/>
<polygon fill="midnightblue" stroke="midnightblue" points="703.2,-203.03 712.17,-197.39 701.64,-196.21 703.2,-203.03"/>
</g>
<!-- Node22 -->
<g id="node22" class="node">
<title>Node22</title>
<g id="a_node22"><a xlink:href="_mineral_8hpp.html" target="_top" xlink:title=" ">
<polygon fill="white" stroke="black" points="322.5,-168.5 322.5,-198.5 434.5,-198.5 434.5,-168.5 322.5,-168.5"/>
<text text-anchor="start" x="330.5" y="-186.5" font-family="Helvetica,sans-Serif" font-size="10.00">engine/objects/ground</text>
<text text-anchor="middle" x="378.5" y="-175.5" font-family="Helvetica,sans-Serif" font-size="10.00">/Mineral.hpp</text>
</a>
</g>
</g>
<!-- Node18&#45;&gt;Node22 -->
<g id="edge33" class="edge">
<title>Node18&#45;&gt;Node22</title>
<path fill="none" stroke="midnightblue" d="M489.87,-235.48C471.28,-226.96 442.12,-213.62 418.3,-202.72"/>
<polygon fill="midnightblue" stroke="midnightblue" points="419.69,-199.5 409.14,-198.52 416.77,-205.87 419.69,-199.5"/>
</g>
<!-- Node19&#45;&gt;Node13 -->
<g id="edge27" class="edge">
<title>Node19&#45;&gt;Node13</title>
<path fill="none" stroke="midnightblue" d="M478.88,-168.4C458.28,-158.59 431.02,-145.62 410.92,-136.05"/>
<polygon fill="midnightblue" stroke="midnightblue" points="412.22,-132.8 401.69,-131.66 409.21,-139.12 412.22,-132.8"/>
</g>
<!-- Node20&#45;&gt;Node13 -->
<g id="edge30" class="edge">
<title>Node20&#45;&gt;Node13</title>
<path fill="none" stroke="midnightblue" d="M582.22,-169.37C535.24,-158.41 469.26,-143.01 426.45,-133.02"/>
<polygon fill="midnightblue" stroke="midnightblue" points="427.15,-129.59 416.62,-130.73 425.56,-136.41 427.15,-129.59"/>
</g>
<!-- Node21&#45;&gt;Node13 -->
<g id="edge32" class="edge">
<title>Node21&#45;&gt;Node13</title>
<path fill="none" stroke="midnightblue" d="M712.19,-169.65C709.25,-169.07 706.34,-168.52 703.5,-168 605.14,-150.14 488.67,-135.34 426.95,-128"/>
<polygon fill="midnightblue" stroke="midnightblue" points="427.15,-124.49 416.81,-126.8 426.33,-131.45 427.15,-124.49"/>
</g>
<!-- Node22&#45;&gt;Node13 -->
<g id="edge34" class="edge">
<title>Node22&#45;&gt;Node13</title>
<path fill="none" stroke="midnightblue" d="M379.68,-168.4C380.35,-160.47 381.19,-150.46 381.92,-141.86"/>
<polygon fill="midnightblue" stroke="midnightblue" points="385.42,-141.92 382.77,-131.66 378.45,-141.33 385.42,-141.92"/>
</g>
<!-- Node24 -->
<g id="node24" class="node">
<title>Node24</title>
<g id="a_node24"><a xlink:title=" ">
<polygon fill="white" stroke="#bfbfbf" points="996,-403.5 996,-422.5 1031,-422.5 1031,-403.5 996,-403.5"/>
<text text-anchor="middle" x="1013.5" y="-410.5" font-family="Helvetica,sans-Serif" font-size="10.00">map</text>
</a>
</g>
</g>
<!-- Node23&#45;&gt;Node24 -->
<g id="edge36" class="edge">
<title>Node23&#45;&gt;Node24</title>
<path fill="none" stroke="midnightblue" d="M868.75,-459.44C900.89,-449.35 954,-432.68 986.17,-422.58"/>
<polygon fill="midnightblue" stroke="midnightblue" points="987.33,-425.88 995.83,-419.55 985.24,-419.2 987.33,-425.88"/>
</g>
<!-- Node25 -->
<g id="node25" class="node">
<title>Node25</title>
<g id="a_node25"><a xlink:title=" ">
<polygon fill="white" stroke="#bfbfbf" points="955,-347.5 955,-366.5 996,-366.5 996,-347.5 955,-347.5"/>
<text text-anchor="middle" x="975.5" y="-354.5" font-family="Helvetica,sans-Serif" font-size="10.00">string</text>
</a>
</g>
</g>
<!-- Node23&#45;&gt;Node25 -->
<g id="edge37" class="edge">
<title>Node23&#45;&gt;Node25</title>
<path fill="none" stroke="midnightblue" d="M880.57,-459.44C902.92,-452.79 930.09,-441.49 948.5,-423 961.02,-410.43 968.02,-391.21 971.74,-376.93"/>
<polygon fill="midnightblue" stroke="midnightblue" points="975.25,-377.28 974.06,-366.75 968.42,-375.72 975.25,-377.28"/>
</g>
<!-- Node26 -->
<g id="node26" class="node">
<title>Node26</title>
<g id="a_node26"><a xlink:title=" ">
<polygon fill="white" stroke="#bfbfbf" points="726,-403.5 726,-422.5 777,-422.5 777,-403.5 726,-403.5"/>
<text text-anchor="middle" x="751.5" y="-410.5" font-family="Helvetica,sans-Serif" font-size="10.00">memory</text>
</a>
</g>
</g>
<!-- Node23&#45;&gt;Node26 -->
<g id="edge38" class="edge">
<title>Node23&#45;&gt;Node26</title>
<path fill="none" stroke="midnightblue" d="M827.04,-459.32C813,-450.9 791.45,-437.97 774.96,-428.07"/>
<polygon fill="midnightblue" stroke="midnightblue" points="776.3,-424.8 765.92,-422.65 772.7,-430.8 776.3,-424.8"/>
</g>
<!-- Node27 -->
<g id="node27" class="node">
<title>Node27</title>
<g id="a_node27"><a xlink:href="_shader_8hpp.html" target="_top" xlink:title=" ">
<polygon fill="white" stroke="black" points="834,-403.5 834,-422.5 939,-422.5 939,-403.5 834,-403.5"/>
<text text-anchor="middle" x="886.5" y="-410.5" font-family="Helvetica,sans-Serif" font-size="10.00">graphics/Shader.hpp</text>
</a>
</g>
</g>
<!-- Node23&#45;&gt;Node27 -->
<g id="edge39" class="edge">
<title>Node23&#45;&gt;Node27</title>
<path fill="none" stroke="midnightblue" d="M848.93,-459.08C855.35,-451.38 864.81,-440.03 872.62,-430.65"/>
<polygon fill="midnightblue" stroke="midnightblue" points="875.49,-432.67 879.21,-422.75 870.12,-428.19 875.49,-432.67"/>
</g>
<!-- Node28 -->
<g id="node28" class="node">
<title>Node28</title>
<g id="a_node28"><a xlink:href="_g_shape_8hpp.html" target="_top" xlink:title=" ">
<polygon fill="white" stroke="black" points="750.5,-347.5 750.5,-366.5 860.5,-366.5 860.5,-347.5 750.5,-347.5"/>
<text text-anchor="middle" x="805.5" y="-354.5" font-family="Helvetica,sans-Serif" font-size="10.00">graphics/GShape.hpp</text>
</a>
</g>
</g>
<!-- Node23&#45;&gt;Node28 -->
<g id="edge53" class="edge">
<title>Node23&#45;&gt;Node28</title>
<path fill="none" stroke="midnightblue" d="M838.32,-459.41C835.01,-450.38 829.73,-435.75 825.5,-423 820.33,-407.41 814.88,-389.58 810.97,-376.54"/>
<polygon fill="midnightblue" stroke="midnightblue" points="814.3,-375.46 808.1,-366.87 807.59,-377.45 814.3,-375.46"/>
</g>
<!-- Node27&#45;&gt;Node25 -->
<g id="edge40" class="edge">
<title>Node27&#45;&gt;Node25</title>
<path fill="none" stroke="midnightblue" d="M900.8,-403.32C914.68,-394.9 935.99,-381.97 952.3,-372.07"/>
<polygon fill="midnightblue" stroke="midnightblue" points="954.5,-374.83 961.24,-366.65 950.87,-368.85 954.5,-374.83"/>
</g>
<!-- Node27&#45;&gt;Node28 -->
<g id="edge41" class="edge">
<title>Node27&#45;&gt;Node28</title>
<path fill="none" stroke="midnightblue" d="M868.37,-403.32C854.4,-395.18 835.54,-382.84 822,-373.09"/>
<polygon fill="midnightblue" stroke="midnightblue" points="823.71,-370 813.6,-366.83 819.53,-375.61 823.71,-370"/>
</g>
<!-- Node33 -->
<g id="node33" class="node">
<title>Node33</title>
<g id="a_node33"><a xlink:href="_transform_8hpp.html" target="_top" xlink:title=" ">
<polygon fill="white" stroke="black" points="827,-235.5 827,-254.5 946,-254.5 946,-235.5 827,-235.5"/>
<text text-anchor="middle" x="886.5" y="-242.5" font-family="Helvetica,sans-Serif" font-size="10.00">graphics/Transform.hpp</text>
</a>
</g>
</g>
<!-- Node27&#45;&gt;Node33 -->
<g id="edge52" class="edge">
<title>Node27&#45;&gt;Node33</title>
<path fill="none" stroke="midnightblue" d="M886.5,-403.08C886.5,-376.95 886.5,-300.21 886.5,-264.58"/>
<polygon fill="midnightblue" stroke="midnightblue" points="890,-264.57 886.5,-254.57 883,-264.57 890,-264.57"/>
</g>
<!-- Node28&#45;&gt;Node27 -->
<g id="edge50" class="edge">
<title>Node28&#45;&gt;Node27</title>
<path fill="none" stroke="midnightblue" d="M823.59,-366.65C837.64,-374.83 856.64,-387.28 870.2,-397.06"/>
<polygon fill="midnightblue" stroke="midnightblue" points="868.49,-400.15 878.6,-403.32 872.68,-394.54 868.49,-400.15"/>
</g>
<!-- Node29 -->
<g id="node29" class="node">
<title>Node29</title>
<g id="a_node29"><a xlink:href="_window_8hpp.html" target="_top" xlink:title=" ">
<polygon fill="white" stroke="black" points="920,-291.5 920,-310.5 1029,-310.5 1029,-291.5 920,-291.5"/>
<text text-anchor="middle" x="974.5" y="-298.5" font-family="Helvetica,sans-Serif" font-size="10.00">graphics/Window.hpp</text>
</a>
</g>
</g>
<!-- Node28&#45;&gt;Node29 -->
<g id="edge42" class="edge">
<title>Node28&#45;&gt;Node29</title>
<path fill="none" stroke="midnightblue" d="M832.28,-347.44C860.83,-338.32 906.23,-323.81 938.04,-313.65"/>
<polygon fill="midnightblue" stroke="midnightblue" points="939.39,-316.89 947.85,-310.52 937.26,-310.23 939.39,-316.89"/>
</g>
<!-- Node28&#45;&gt;Node33 -->
<g id="edge51" class="edge">
<title>Node28&#45;&gt;Node33</title>
<path fill="none" stroke="midnightblue" d="M811.86,-347.37C825.28,-329.14 856.73,-286.43 874.22,-262.68"/>
<polygon fill="midnightblue" stroke="midnightblue" points="877.06,-264.72 880.17,-254.59 871.43,-260.57 877.06,-264.72"/>
</g>
<!-- Node29&#45;&gt;Node12 -->
<g id="edge46" class="edge">
<title>Node29&#45;&gt;Node12</title>
<path fill="none" stroke="midnightblue" d="M976.26,-291.49C980.54,-268.18 988.82,-202.77 955.5,-168 927.4,-138.68 806.95,-128.04 748.11,-124.55"/>
<polygon fill="midnightblue" stroke="midnightblue" points="748.06,-121.04 737.88,-123.97 747.66,-128.03 748.06,-121.04"/>
</g>
<!-- Node29&#45;&gt;Node27 -->
<g id="edge47" class="edge">
<title>Node29&#45;&gt;Node27</title>
<path fill="none" stroke="midnightblue" d="M967.63,-310.59C953.07,-328.79 918.9,-371.49 899.88,-395.27"/>
<polygon fill="midnightblue" stroke="midnightblue" points="896.92,-393.37 893.41,-403.37 902.39,-397.75 896.92,-393.37"/>
</g>
<!-- Node30 -->
<g id="node30" class="node">
<title>Node30</title>
<g id="a_node30"><a xlink:title=" ">
<polygon fill="white" stroke="#bfbfbf" points="1003,-235.5 1003,-254.5 1066,-254.5 1066,-235.5 1003,-235.5"/>
<text text-anchor="middle" x="1034.5" y="-242.5" font-family="Helvetica,sans-Serif" font-size="10.00">glad/glad.h</text>
</a>
</g>
</g>
<!-- Node29&#45;&gt;Node30 -->
<g id="edge43" class="edge">
<title>Node29&#45;&gt;Node30</title>
<path fill="none" stroke="midnightblue" d="M984.14,-291.32C993.01,-283.34 1006.37,-271.31 1017.11,-261.65"/>
<polygon fill="midnightblue" stroke="midnightblue" points="1019.59,-264.13 1024.68,-254.83 1014.91,-258.92 1019.59,-264.13"/>
</g>
<!-- Node31 -->
<g id="node31" class="node">
<title>Node31</title>
<g id="a_node31"><a xlink:title=" ">
<polygon fill="white" stroke="#bfbfbf" points="1084,-235.5 1084,-254.5 1163,-254.5 1163,-235.5 1084,-235.5"/>
<text text-anchor="middle" x="1123.5" y="-242.5" font-family="Helvetica,sans-Serif" font-size="10.00">GLFW/glfw3.h</text>
</a>
</g>
</g>
<!-- Node29&#45;&gt;Node31 -->
<g id="edge44" class="edge">
<title>Node29&#45;&gt;Node31</title>
<path fill="none" stroke="midnightblue" d="M998.11,-291.44C1022.96,-282.44 1062.27,-268.19 1090.25,-258.05"/>
<polygon fill="midnightblue" stroke="midnightblue" points="1091.79,-261.21 1100,-254.52 1089.41,-254.63 1091.79,-261.21"/>
</g>
<!-- Node32 -->
<g id="node32" class="node">
<title>Node32</title>
<g id="a_node32"><a xlink:title=" ">
<polygon fill="white" stroke="#bfbfbf" points="1181,-235.5 1181,-254.5 1220,-254.5 1220,-235.5 1181,-235.5"/>
<text text-anchor="middle" x="1200.5" y="-242.5" font-family="Helvetica,sans-Serif" font-size="10.00">utility</text>
</a>
</g>
</g>
<!-- Node29&#45;&gt;Node32 -->
<g id="edge45" class="edge">
<title>Node29&#45;&gt;Node32</title>
<path fill="none" stroke="midnightblue" d="M1016.87,-291.49C1055.02,-283.58 1112.8,-270.99 1171.22,-255.18"/>
<polygon fill="midnightblue" stroke="midnightblue" points="1172.26,-258.53 1180.98,-252.51 1170.41,-251.78 1172.26,-258.53"/>
</g>
<!-- Node29&#45;&gt;Node33 -->
<g id="edge48" class="edge">
<title>Node29&#45;&gt;Node33</title>
<path fill="none" stroke="midnightblue" d="M960.36,-291.32C946.63,-282.9 925.56,-269.97 909.44,-260.07"/>
<polygon fill="midnightblue" stroke="midnightblue" points="910.96,-256.9 900.6,-254.65 907.3,-262.87 910.96,-256.9"/>
</g>
<!-- Node34 -->
<g id="node34" class="node">
<title>Node34</title>
<g id="a_node34"><a xlink:title=" ">
<polygon fill="white" stroke="#bfbfbf" points="842.5,-174 842.5,-193 946.5,-193 946.5,-174 842.5,-174"/>
<text text-anchor="middle" x="894.5" y="-181" font-family="Helvetica,sans-Serif" font-size="10.00">glm/gtc/type_ptr.hpp</text>
</a>
</g>
</g>
<!-- Node33&#45;&gt;Node34 -->
<g id="edge49" class="edge">
<title>Node33&#45;&gt;Node34</title>
<path fill="none" stroke="midnightblue" d="M887.65,-235.48C888.77,-227.08 890.54,-213.98 891.99,-203.16"/>
<polygon fill="midnightblue" stroke="midnightblue" points="895.49,-203.39 893.36,-193.01 888.55,-202.45 895.49,-203.39"/>
</g>
<!-- Node36 -->
<g id="node36" class="node">
<title>Node36</title>
<g id="a_node36"><a xlink:title=" ">
<polygon fill="white" stroke="#bfbfbf" points="1049.5,-403.5 1049.5,-422.5 1095.5,-422.5 1095.5,-403.5 1049.5,-403.5"/>
<text text-anchor="middle" x="1072.5" y="-410.5" font-family="Helvetica,sans-Serif" font-size="10.00">cstdint</text>
</a>
</g>
</g>
<!-- Node35&#45;&gt;Node36 -->
<g id="edge55" class="edge">
<title>Node35&#45;&gt;Node36</title>
<path fill="none" stroke="midnightblue" d="M1042.44,-459.08C1047.48,-451.53 1054.84,-440.49 1061.01,-431.23"/>
<polygon fill="midnightblue" stroke="midnightblue" points="1064.03,-433.01 1066.67,-422.75 1058.21,-429.13 1064.03,-433.01"/>
</g>
</g>
</svg>
