<?xml version="1.0" encoding="UTF-8" standalone="no"?>
<!DOCTYPE svg PUBLIC "-//W3C//DTD SVG 1.1//EN"
 "http://www.w3.org/Graphics/SVG/1.1/DTD/svg11.dtd">
<!-- Generated by graphviz version 2.47.1 (20210421.1823)
 -->
<!-- Title: Graphics::ResourceParser::LoadResources Pages: 1 -->
<svg width="472pt" height="301pt"
 viewBox="0.00 0.00 472.00 300.50" xmlns="http://www.w3.org/2000/svg" xmlns:xlink="http://www.w3.org/1999/xlink">
<g id="graph0" class="graph" transform="scale(1 1) rotate(0) translate(4 296.5)">
<title>Graphics::ResourceParser::LoadResources</title>
<polygon fill="white" stroke="transparent" points="-4,4 -4,-296.5 468,-296.5 468,4 -4,4"/>
<!-- Node1 -->
<g id="node1" class="node">
<title>Node1</title>
<g id="a_node1"><a xlink:title=" ">
<polygon fill="#bfbfbf" stroke="black" points="0,-139 0,-169 130,-169 130,-139 0,-139"/>
<text text-anchor="start" x="8" y="-157" font-family="Helvetica,sans-Serif" font-size="10.00">Graphics::ResourceParser</text>
<text text-anchor="middle" x="65" y="-146" font-family="Helvetica,sans-Serif" font-size="10.00">::LoadResources</text>
</a>
</g>
</g>
<!-- Node2 -->
<g id="node2" class="node">
<title>Node2</title>
<g id="a_node2"><a xlink:href="class_graphics_1_1_resource_manager.html#ae025beebad6dbc29580a8d1d28ef4e9b" target="_top" xlink:title=" ">
<polygon fill="white" stroke="black" points="171,-262 171,-292 310,-292 310,-262 171,-262"/>
<text text-anchor="start" x="179" y="-280" font-family="Helvetica,sans-Serif" font-size="10.00">Graphics::ResourceManager</text>
<text text-anchor="middle" x="240.5" y="-269" font-family="Helvetica,sans-Serif" font-size="10.00">::CreateWindow</text>
</a>
</g>
</g>
<!-- Node1&#45;&gt;Node2 -->
<g id="edge1" class="edge">
<title>Node1&#45;&gt;Node2</title>
<path fill="none" stroke="midnightblue" d="M77.57,-169.3C94.66,-190.89 128.67,-230.22 166,-253 168.66,-254.63 171.45,-256.15 174.31,-257.59"/>
<polygon fill="midnightblue" stroke="midnightblue" points="173.12,-260.89 183.68,-261.86 176.03,-254.53 173.12,-260.89"/>
</g>
<!-- Node3 -->
<g id="node3" class="node">
<title>Node3</title>
<g id="a_node3"><a xlink:href="class_graphics_1_1_resource_manager.html#a34d11294bd090580de46ab34f303c2ab" target="_top" xlink:title=" ">
<polygon fill="white" stroke="black" points="171,-213 171,-243 310,-243 310,-213 171,-213"/>
<text text-anchor="start" x="179" y="-231" font-family="Helvetica,sans-Serif" font-size="10.00">Graphics::ResourceManager</text>
<text text-anchor="middle" x="240.5" y="-220" font-family="Helvetica,sans-Serif" font-size="10.00">::GetShader</text>
</a>
</g>
</g>
<!-- Node1&#45;&gt;Node3 -->
<g id="edge2" class="edge">
<title>Node1&#45;&gt;Node3</title>
<path fill="none" stroke="midnightblue" d="M93.51,-169.14C113.31,-179.69 140.86,-193.68 166,-204 170.69,-205.93 175.6,-207.81 180.56,-209.61"/>
<polygon fill="midnightblue" stroke="midnightblue" points="179.51,-212.96 190.11,-212.99 181.85,-206.36 179.51,-212.96"/>
</g>
<!-- Node4 -->
<g id="node4" class="node">
<title>Node4</title>
<g id="a_node4"><a xlink:href="class_graphics_1_1_resource_manager.html#a2bf0311bf4f8431618eb13706a26a5f1" target="_top" xlink:title=" ">
<polygon fill="white" stroke="black" points="171,-164 171,-194 310,-194 310,-164 171,-164"/>
<text text-anchor="start" x="179" y="-182" font-family="Helvetica,sans-Serif" font-size="10.00">Graphics::ResourceManager</text>
<text text-anchor="middle" x="240.5" y="-171" font-family="Helvetica,sans-Serif" font-size="10.00">::GetWindow</text>
</a>
</g>
</g>
<!-- Node1&#45;&gt;Node4 -->
<g id="edge3" class="edge">
<title>Node1&#45;&gt;Node4</title>
<path fill="none" stroke="midnightblue" d="M130.11,-163.24C140.1,-164.68 150.52,-166.18 160.79,-167.66"/>
<polygon fill="midnightblue" stroke="midnightblue" points="160.6,-171.17 170.99,-169.13 161.59,-164.24 160.6,-171.17"/>
</g>
<!-- Node5 -->
<g id="node5" class="node">
<title>Node5</title>
<g id="a_node5"><a xlink:href="class_graphics_1_1_resource_manager.html#a30a44b1a9b80d88c3e9d4f39a0672c11" target="_top" xlink:title=" ">
<polygon fill="white" stroke="black" points="171,-115 171,-145 310,-145 310,-115 171,-115"/>
<text text-anchor="start" x="179" y="-133" font-family="Helvetica,sans-Serif" font-size="10.00">Graphics::ResourceManager</text>
<text text-anchor="middle" x="240.5" y="-122" font-family="Helvetica,sans-Serif" font-size="10.00">::LoadImage</text>
</a>
</g>
</g>
<!-- Node1&#45;&gt;Node5 -->
<g id="edge4" class="edge">
<title>Node1&#45;&gt;Node5</title>
<path fill="none" stroke="midnightblue" d="M130.11,-145.13C140.1,-143.75 150.52,-142.31 160.79,-140.89"/>
<polygon fill="midnightblue" stroke="midnightblue" points="161.57,-144.31 170.99,-139.48 160.61,-137.38 161.57,-144.31"/>
</g>
<!-- Node6 -->
<g id="node6" class="node">
<title>Node6</title>
<g id="a_node6"><a xlink:href="class_graphics_1_1_resource_manager.html#a89192a1a222927aff3890b953dd1f058" target="_top" xlink:title=" ">
<polygon fill="white" stroke="black" points="171,-66 171,-96 310,-96 310,-66 171,-66"/>
<text text-anchor="start" x="179" y="-84" font-family="Helvetica,sans-Serif" font-size="10.00">Graphics::ResourceManager</text>
<text text-anchor="middle" x="240.5" y="-73" font-family="Helvetica,sans-Serif" font-size="10.00">::LoadShader</text>
</a>
</g>
</g>
<!-- Node1&#45;&gt;Node6 -->
<g id="edge5" class="edge">
<title>Node1&#45;&gt;Node6</title>
<path fill="none" stroke="midnightblue" d="M94.9,-138.99C114.65,-129.02 141.58,-115.97 166,-106 171.44,-103.78 177.15,-101.59 182.89,-99.49"/>
<polygon fill="midnightblue" stroke="midnightblue" points="184.29,-102.7 192.53,-96.04 181.94,-96.11 184.29,-102.7"/>
</g>
<!-- Node7 -->
<g id="node7" class="node">
<title>Node7</title>
<g id="a_node7"><a xlink:href="class_graphics_1_1_shader.html#ab82f9feaa1c7c5623eaf7bb03c061e0a" target="_top" xlink:title=" ">
<polygon fill="white" stroke="black" points="166,-17 166,-47 315,-47 315,-17 166,-17"/>
<text text-anchor="start" x="174" y="-35" font-family="Helvetica,sans-Serif" font-size="10.00">Graphics::Shader::SetProjector</text>
<text text-anchor="middle" x="240.5" y="-24" font-family="Helvetica,sans-Serif" font-size="10.00">Matrix</text>
</a>
</g>
</g>
<!-- Node1&#45;&gt;Node7 -->
<g id="edge6" class="edge">
<title>Node1&#45;&gt;Node7</title>
<path fill="none" stroke="midnightblue" d="M77.97,-138.73C95.27,-117.59 129.27,-79.47 166,-57 169.4,-54.92 172.99,-52.99 176.68,-51.2"/>
<polygon fill="midnightblue" stroke="midnightblue" points="178.32,-54.3 186.03,-47.04 175.47,-47.91 178.32,-54.3"/>
</g>
<!-- Node8 -->
<g id="node8" class="node">
<title>Node8</title>
<g id="a_node8"><a xlink:href="class_graphics_1_1_transform.html#a5e301531e0b340509d10dd5dad929b9c" target="_top" xlink:title=" ">
<polygon fill="white" stroke="black" points="355.5,-39 355.5,-69 459.5,-69 459.5,-39 355.5,-39"/>
<text text-anchor="start" x="363.5" y="-57" font-family="Helvetica,sans-Serif" font-size="10.00">Graphics::Transform</text>
<text text-anchor="middle" x="407.5" y="-46" font-family="Helvetica,sans-Serif" font-size="10.00">::GetMatrix</text>
</a>
</g>
</g>
<!-- Node7&#45;&gt;Node8 -->
<g id="edge7" class="edge">
<title>Node7&#45;&gt;Node8</title>
<path fill="none" stroke="midnightblue" d="M315.31,-41.84C325.38,-43.18 335.61,-44.55 345.41,-45.86"/>
<polygon fill="midnightblue" stroke="midnightblue" points="345.07,-49.34 355.45,-47.19 346,-42.4 345.07,-49.34"/>
</g>
<!-- Node9 -->
<g id="node9" class="node">
<title>Node9</title>
<g id="a_node9"><a xlink:href="class_graphics_1_1_shader.html#a11a2de17d1d077ec34acd4f7cd57f6b1" target="_top" xlink:title=" ">
<polygon fill="white" stroke="black" points="351,-0.5 351,-19.5 464,-19.5 464,-0.5 351,-0.5"/>
<text text-anchor="middle" x="407.5" y="-7.5" font-family="Helvetica,sans-Serif" font-size="10.00">Graphics::Shader::Use</text>
</a>
</g>
</g>
<!-- Node7&#45;&gt;Node9 -->
<g id="edge8" class="edge">
<title>Node7&#45;&gt;Node9</title>
<path fill="none" stroke="midnightblue" d="M315.31,-22.16C323.73,-21.04 332.27,-19.9 340.58,-18.79"/>
<polygon fill="midnightblue" stroke="midnightblue" points="341.12,-22.25 350.57,-17.46 340.2,-15.31 341.12,-22.25"/>
</g>
</g>
</svg>
